<?xml version="1.0" encoding="utf-8"?>
<!-- Generator: Adobe Illustrator 22.0.0, SVG Export Plug-In . SVG Version: 6.00 Build 0)  -->
<svg version="1.1" id="Layer_1" xmlns="http://www.w3.org/2000/svg" xmlns:xlink="http://www.w3.org/1999/xlink" x="0px" y="0px"
	 viewBox="0 0 4000 4000" style="enable-background:new 0 0 4000 4000;" xml:space="preserve">
<style type="text/css">
	.Graphic_x0020_Style_x0020_218{fill:#102140;}
	.Graphic_x0020_Style_x0020_88{fill:#D1334A;}
	.Graphic_x0020_Style_x0020_220{fill:#152A52;}
	.Graphic_x0020_Style_x0020_99{fill:#B080B0;}
	.Graphic_x0020_Style_x0020_39{fill:#EF5668;}
	.Graphic_x0020_Style_x0020_219{fill:#DB6767;}
	.Graphic_x0020_Style_x0020_89{fill:#EB485C;}
	.Graphic_x0020_Style_x0020_69{fill:#1A1A1A;}
	
		.Graphic_x0020_Style_x0020_27{fill:#1A1A1A;stroke:#1A1A1A;stroke-width:2;stroke-linecap:round;stroke-linejoin:round;stroke-miterlimit:10;}
	.Graphic_x0020_Style_x0020_216{fill:#1A1A1A;}
	.Graphic_x0020_Style_x0020_42{fill:#FFCF4A;}
	.Graphic_x0020_Style_x0020_44{fill:#691A25;}
	
		.Graphic_x0020_Style_x0020_26{fill:#FFFFFF;stroke:#1A1A1A;stroke-width:2;stroke-linecap:round;stroke-linejoin:round;stroke-miterlimit:10;}
	.st0{fill:url(#SVGID_1_);}
	.st1{fill:url(#SVGID_2_);}
	.st2{opacity:0.5;fill:#152A52;}
	.st3{fill:none;stroke:#1A1A1A;stroke-width:2;stroke-linecap:round;stroke-linejoin:round;stroke-miterlimit:10;}
	.st4{fill:#504650;}
	.st5{fill:#3C353C;}
	.st6{fill:#7E97C5;}
	.st7{fill:#D8E4FB;}
	.st8{fill:#DBD2DB;}
	.st9{fill:#6584C6;}
	.st10{fill:#3B546B;}
	.st11{fill:#1A3669;}
	.st12{fill:#FFFFFF;}
	.st13{fill:#1A1A1A;}
	.st14{fill:#FC9590;}
	.st15{fill:#DB6767;}
	.st16{fill:#102140;}
	.st17{fill:url(#SVGID_3_);}
	.st18{fill:url(#SVGID_4_);}
	.st19{fill:url(#SVGID_5_);}
	.st20{fill:url(#SVGID_6_);}
	.st21{fill:#00593B;}
	.st22{fill:none;stroke:#FFFFFF;stroke-width:3;stroke-linecap:round;stroke-linejoin:round;stroke-miterlimit:10;}
	.st23{fill:#339E7E;}
	.st24{fill:#127755;}
	.st25{fill:#B080B0;}
	.st26{fill:#572658;}
	.st27{fill:none;stroke:#203560;stroke-width:3;stroke-linecap:round;stroke-linejoin:round;stroke-miterlimit:10;}
	.st28{fill:#FFDE70;}
	.st29{fill:#795179;}
	.st30{fill:#FFB114;}
</style>
<g>
	<linearGradient id="SVGID_1_" gradientUnits="userSpaceOnUse" x1="1995.7252" y1="2191.1721" x2="1995.7252" y2="2920.5486">
		<stop  offset="0" style="stop-color:#68B2FC"/>
		<stop  offset="1" style="stop-color:#EBF0F7"/>
	</linearGradient>
	<path class="st0" d="M356.1,3008.1c-102.2-157.4-103.6-354.1-4.8-493.4c127.3-179.3,354.6-170.4,397.6-167.7
		c246.5,16,378.6,217,392.8,239.5c47.4-37.5,458.4-352.4,943.7-210.8c225.5,65.8,372.5,202.6,445.5,282.6
		c72.5-313.1,390-486.1,651.5-402.4c218.3,69.9,369.7,309.9,335.3,570c43.7-38.5,108.7-40.1,153.3-4.8
		c47.4,37.6,48.8,103.2,33.5,143.7c0,0-24.5,64.9-129.3,100.6C3354.6,3140.7,829.2,3029.4,356.1,3008.1z"/>
	<linearGradient id="SVGID_2_" gradientUnits="userSpaceOnUse" x1="41.1056" y1="3068.2896" x2="3624.9929" y2="3068.2896">
		<stop  offset="0" style="stop-color:#68B2FC"/>
		<stop  offset="1" style="stop-color:#529BF7"/>
	</linearGradient>
	<path class="st1" d="M3501.6,2995.9c-34.9-54.6-515.5-100.4-1173.8-117.2c-147.4-4.5-302.4-6.9-462.5-6.9c-14.1,0-28.1,0-42.2,0.1
		c-16.9,0-33.8-0.1-50.8-0.1c-956.2,0-1731.3,58.4-1731.3,130.4c0,13.7,28.2,27,80.6,39.4c-10.5,8.7-16,17.6-16,26.6
		c0,108.5,787.8,196.4,1759.7,196.4S3625,3176.8,3625,3068.3C3625,3042.7,3581.2,3018.3,3501.6,2995.9z"/>
	<ellipse class="st2" cx="1647.9" cy="3039.3" rx="627.3" ry="61.6"/>
	<ellipse class="st2" cx="3117.8" cy="3039.3" rx="377.5" ry="37.1"/>
	<path class="st3" d="M288.8,2604"/>
	<path class="st3" d="M3384.7,2604"/>
	<path class="Graphic_x0020_Style_x0020_26" d="M516.5,1911l-286.2,5.8c0.4-8.6,1-17.2,1.6-25.6l284.6-5.1V1911z"/>
	<path class="Graphic_x0020_Style_x0020_26" d="M519.7,1911.2l-3.2,112.3H229.9c-1.8-36.8-1.5-72.5,0.3-106.7L519.7,1911.2z"/>
	<polygon class="st4" points="1033.1,2025.2 1008.3,2020.8 990,2023.5 990,3028.9 1033.9,3013.4 	"/>
	<g>
		<polygon class="st5" points="2016.4,1539.5 1745.3,2705.3 1781.4,2705.3 2061.1,1556.8 		"/>
		<polygon class="st5" points="2846.7,1539.5 3117.8,2705.3 3081.7,2705.3 2802,1556.8 		"/>
	</g>
	<rect x="1565.2" y="777.6" class="st6" width="1702.9" height="827"/>
	<rect x="1591" y="815.4" class="st7" width="1642.1" height="581.1"/>
	<rect x="1591" y="1396.5" class="Graphic_x0020_Style_x0020_99" width="1642.1" height="172.7"/>
	<polygon class="st8" points="516.5,1886 516.5,1911 1243.7,1962.5 1235.8,1936.5 	"/>
	<polygon class="st9" points="519.7,1911.2 516.5,2023.5 1243.7,2023.5 1212.5,1944.9 	"/>
	<path class="st10" d="M516.5,1886v24.9l-286.2,5.8c0.4-8.6,1-17.2,1.6-25.6L516.5,1886z"/>
	<path class="st11" d="M519.7,1911.2l-3.2,112.3H229.9c-1.8-36.8-1.5-72.5,0.3-106.7L519.7,1911.2z"/>
	<polygon class="st5" points="526.4,3125.4 466.5,3122.5 458.4,2023.5 512.1,2023.5 	"/>
	<polygon class="st4" points="570,3113.5 526.4,3125.4 512.1,2023.5 561.4,2023.5 	"/>
	<polygon class="st5" points="992,2020.8 950.4,2023.5 950.4,3028.9 992,3028.9 	"/>
	<polygon class="st5" points="1253.6,2020.8 1253.6,2970.6 1281,2970.6 1294.3,2048.4 	"/>
	<polygon class="st4" points="1281,2020.8 1281,2970.6 1321.6,2960.7 1321.6,2048.4 	"/>
	<g>
		<path class="Graphic_x0020_Style_x0020_216" d="M1408.8,2829.8c8.7-1.6,17.2-4.5,25.5-7.7c9.9-27.6,24.3-60.4,24.3-60.4
			l-81.4-39.3c0,0-29,18.1-62.3,48.6C1343.5,2796.9,1363.1,2837.7,1408.8,2829.8z"/>
		<path class="st12" d="M1396.2,2990.2c-48.5-44.3-90.7-99.1-158.1-122.4c-5.3,10.6-9.9,21.5-13.4,32.8
			c65.1,51.5,63.7,46.8,63.7,46.8l18.3-19.7c0,0,73.2,128.8,187.1,124.7c57.6-2.1,73.4-14.2,71.2-26.2
			C1505.8,3041.1,1442.5,3032.1,1396.2,2990.2z"/>
		<path class="st13" d="M1565,3026.3c-2.2-11.7-21.5-23.3-35.9-25.3c-29.2-4.1-86.1-69.8-103.7-143c-1.3-4.8,3-19.4,8.9-35.9
			c-8.3,3.2-16.7,6.1-25.5,7.7c-45.8,8-65.3-32.8-93.9-58.8c-27.2,25-57.3,58.3-76.9,96.9c67.4,23.3,109.6,78.1,158.1,122.4
			C1442.5,3032.1,1505.8,3041.1,1565,3026.3z"/>
		<path class="Graphic_x0020_Style_x0020_220" d="M1350.8,1612.7c0,0,49.8,117.6,101.7,190c260.6,267.6,326.7,429.5,277.9,532.6
			c-48.8,103-267.1,444.7-267.1,444.7l-112.5-52.9c0,0,215.6-413.5,189.8-451.5c-25.8-38-440.6-546.4-440.6-546.4l221-124.7"/>
		<path class="Graphic_x0020_Style_x0020_218" d="M1383.4,2742.5c62.3-105.1,268.1-437,225.5-544.6
			c-48.1-127.1-216.1-405.4-222.2-409.9l-60.8,219.2c101.9,125.7,202.4,250.4,214.6,268.5c25.8,38-189.8,451.5-189.8,451.5
			L1383.4,2742.5z"/>
		<path d="M1487.5,1996.5c65.4,118.3,127.2,271.1,187.1,442.1l-16.2,24.3L1487.5,1996.5z"/>
		<path class="Graphic_x0020_Style_x0020_216" d="M1788.9,2916.3c8.4-10.6,16.9-19,27.4-23.2c17.9-8.4,40.6-3.7,61.4-2.6
			c-24.9-26.4-42-44.5-42-44.5l-38-47.5l-68.4,77.4c0,0,16.6,22,2.4,40.3c-1.4,1.8-2.6,4.5-3.7,8
			C1748.6,2936,1774.7,2935.8,1788.9,2916.3z"/>
		<path class="st13" d="M1738.2,3032.5c46.4-21.1,101.3-12.7,152-2.1c66.7,15,133.3,10.3,196.9-8c-0.9-1.4-1.9-2.8-3.2-4.2
			c-30.7-33.9-89-2.3-142.8-60.1c-22.7-24.5-45.1-48.3-63.3-67.6c-20.8-1.1-43.5-5.8-61.4,2.6c-10.6,4.2-19,12.7-27.4,23.2
			c-14.2,19.5-40.3,19.6-60.8,7.9c-7.4,23.5-8.9,81.4-9.2,112.3C1725.5,3037,1732.4,3034.8,1738.2,3032.5z"/>
		<path class="st12" d="M1890.2,3030.3c-50.7-10.6-105.6-19-152,2.1c-5.7,2.3-12.7,4.6-19.3,4.1c-0.1,12.3,0,20.3,0,20.3l99.7,1.7
			l2-14.6c0,0,28.2,18.9,115,18.9c83.1,0,171.1-9.9,151.5-40.5C2023.5,3040.6,1956.9,3045.3,1890.2,3030.3z"/>
		<line class="Graphic_x0020_Style_x0020_26" x1="1316.3" y1="1627.8" x2="1020.6" y2="1733.4"/>
		<path class="Graphic_x0020_Style_x0020_220" d="M1234.5,1654.5l-207.4,129.7c0,0-31.5,70.5,45.1,141.7
			c111.2,6.8,111.2,6.8,111.2,6.8s10.2,47.5,29.2,90.8c19,43.4,145.1,177.6,202,271.1c56.9,93.5,47.5,80,108.5,263
			c40.8,146.5,204.7,336.2,204.7,336.2s86.8-42,88.1-86.8c-81.4-168.1-158.6-351.1-206.1-503c-27.3-87.2-93-243.4-148.6-367.1
			l-90.6-181.6"/>
		<path class="Graphic_x0020_Style_x0020_220" d="M1815.8,2807.1c-0.8,26.4-31.4,51.9-56.3,68.3c-17.3,11.4-31.8,18.5-31.8,18.5
			s-163.9-189.7-204.7-336.2c-61-183-51.5-169.5-108.5-263c-56.9-93.5-183-227.8-202-271.1c-19-43.4-29.2-90.8-29.2-90.8
			s0,0-111.2-6.8c-76.6-71.2-45.1-141.7-45.1-141.7l41.3-25.8l166.1-103.9l136,100.9l90.6,181.6c55.6,123.8,121.4,279.9,148.6,367.1
			C1657.2,2456,1734.5,2639,1815.8,2807.1z"/>
		<path class="Graphic_x0020_Style_x0020_218" d="M1759.5,2875.4c-17.3,11.4-31.8,18.5-31.8,18.5s-163.9-189.7-204.7-336.2
			c-61-183-51.5-169.5-108.5-263c-56.9-93.5-183-227.8-202-271.1c-19-43.4-29.2-90.8-29.2-90.8s0,0-111.2-6.8
			c-76.6-71.2-45.1-141.7-45.1-141.7l41.3-25.8c10.8,49.9,37.5,125.9,100.1,127.6c93.3,2.6,107.2,25.2,125.8,114
			c18.6,88.8,122.5,236,178.2,302.4C1524.5,2364.4,1656.5,2767,1759.5,2875.4z"/>
		<path class="Graphic_x0020_Style_x0020_219" d="M1451.1,1395.5l16.7,22.5c0,0,0,0,8.6-29.8c8.6-29.8,40.2-68.2,62.8-94.9
			c15.8-18.7,15.9-27.1,10.7-27.9c-0.8,4.1-2.8,7.3-6,10.5C1511.6,1316.7,1465.5,1346.6,1451.1,1395.5z"/>
		<path class="st14" d="M1577.7,1201.9c0.6-1.1,0.8-2.4,0.9-3.8c-16.1,7.1-100.8,44.9-117.1,65.7c-18.1,23-29.4,106.2-29.4,106.2
			l19,25.4c14.4-48.9,60.5-78.8,92.9-119.7c3.2-3.2,5.2-6.4,6-10.5c-2.2-0.3-5.5,0.7-8.9,3c-11.3,7.7-56,33.4-56,17.2
			c0-0.4,0.1-0.9,0.2-1.4c-0.1,0-0.2,0.1-0.4,0.1C1491.2,1235.7,1554.5,1239.9,1577.7,1201.9z"/>
		<path class="Graphic_x0020_Style_x0020_219" d="M1581.3,1196.9c0,0-0.9,0.4-2.6,1.2c-0.1,1.4-0.3,2.7-0.9,3.8
			c-23.2,38-86.6,33.8-92.9,82.3c0.1,0,0.2-0.1,0.4-0.1c3.4-16.8,66.3-50.9,83.4-61.9C1586.2,1211,1581.3,1196.9,1581.3,1196.9z"/>
		<path class="Graphic_x0020_Style_x0020_88" d="M1188.5,1134.8c0,0,120,183.4,139.3,304.4c59.7-62.4,101.7-85.8,101.7-85.8
			s56.9,54.6,55.6,72.9c-97.6,101-181.7,204-244.1,78c-62.4-126.1-164.1-279.3-164.1-279.3"/>
		<path class="st14" d="M1105.4,929.7c0,0-53.5,85.4-71,94.3c70.4,41.8,96.2,53.5,96.2,53.5s9-65.2,36.5-80.9
			c59.6,44.7,141-142,86.8-194C1199.5,750.7,1076.9,790.1,1105.4,929.7z"/>
		<path class="st15" d="M1144.2,971.3c0.7,0.7,22.9,25.3,22.9,25.3s-5.3,4.3-11.3,9.7C1155.6,1006.5,1144.2,971.3,1144.2,971.3z"/>
		<path class="Graphic_x0020_Style_x0020_39" d="M935.9,1290.6c25.3,82.3,63.3,162.6,133,217.5c12.7,10.6,21.1,19,31.7,27.4
			c42.2,27.4,86.6,29.6,133,14.8c31-9.7,62.4-21.7,90.6-38c-32.4-91.2-99.3-340.7-149.6-397.2c-55.6-62.4-132.9-93.5-132.9-93.5
			s-62.7,6.6-104,75.8C915.4,1159,917.3,1231,935.9,1290.6z"/>
		<path class="Graphic_x0020_Style_x0020_88" d="M1324.1,1512.3c-28.2,16.2-59.5,28.2-90.6,38c-46.4,14.8-90.8,12.7-133-14.8
			c-10.6-8.4-19-16.9-31.7-27.4c-69.7-54.9-107.7-135.1-133-217.5c-18.6-59.6-20.4-131.5,1.8-193.2c-23.6,39.5-40.2,99.3-34.3,189.9
			c16.3,249.5,104.4,428.4,103,475.9c-1.4,47.5-4.1,67.8-4.1,67.8s281.8-135.8,391.6-176.5c17.6-27.1-33.7-59.4-60.8-119.1
			C1330.6,1529.7,1327.5,1521.9,1324.1,1512.3z"/>
		<path class="Graphic_x0020_Style_x0020_44" d="M964.8,1256.8c-2.9,0.6,38.1,89.6,138.9,195.3c94.3,98.9,149.6,126.6,258.7,131.3
			c-29.2-48-29.2-48-29.2-48S988.9,1251.7,964.8,1256.8z"/>
		<path class="st14" d="M1632.6,1533.4c10.6,2.1,35.9,4.2,48.6-4.2c16.9-10.6,8.4-38,19-52.8c9.5-12.3,24.3-14,39.3-15.3
			c29.7-24.9,27-44.5,27-44.5s-37.4,16.9-81.7,39.8c-44.3,22.9-129.9,33.9-129.9,33.9s-3.6,27.5-5.4,46.4
			C1579,1532.1,1608.3,1525.3,1632.6,1533.4z"/>
		<path class="Graphic_x0020_Style_x0020_219" d="M1700.2,1476.4c-10.6,14.8-2.1,42.2-19,52.8c-12.7,8.4-38,6.3-48.6,4.2
			c-24.3-8.1-53.6-1.3-83.1,3.3c-0.9,9.7-1.4,17.2-0.7,17.5c2,1,44.3-13.8,67.7-18.8c8.1,6.1,51.2,29.1,69.5,18.9
			c18.3-10.2,32.1-31.9,22.9-72.9c12.8-7,22.8-13.8,30.5-20.3C1724.5,1462.4,1709.7,1464.1,1700.2,1476.4z"/>
		<path class="Graphic_x0020_Style_x0020_88" d="M1318,1520.7c-105.6-33.8-196.4-92.9-263.9-185.8c-30.9-41.3-57.7-83.9-93.9-117.7
			c-1,21.3,2.9,52.4,26.8,81.3c26.3,31.9,267.1,254.4,316.9,262.7s247.6,10.8,247.6,10.8s10-8.4,19.2-21.1
			C1485,1552,1400.2,1548.1,1318,1520.7z"/>
		<path class="Graphic_x0020_Style_x0020_39" d="M1571.8,1480.5c-62.4-3.4-178.2-29.5-213.5-54.2
			c-58.3-40.9-103.3-121.7-162.2-235.2H964.4c0,0-3.4,10.4-4.2,26.1c36.2,33.8,63,76.5,93.9,117.7c67.6,92.9,158.4,152,263.9,185.8
			c82.2,27.4,167,31.3,252.6,30.2C1584.4,1532.1,1596.5,1504,1571.8,1480.5z"/>
		<path class="Graphic_x0020_Style_x0020_89" d="M1585.9,1508.5c-0.7-9.5-4.8-19.1-14.1-28c-62.4-3.4-171.5-25.5-207.5-49.6
			c-65.9-44-99.2-113.3-155.2-215.6c13.6,52.2,44.8,146.1,103.2,199.1C1384.7,1480.3,1511.8,1512.5,1585.9,1508.5z"/>
		<path class="st16" d="M1003.1,1048.2c18.1-8.5,39.1-20.4,60.7-37.1c43.4-33.6,69.6-71.6,84.6-98.1c-13.8-19.2,12.8-39.9,24.5-18.6
			c21.8-8,33.5-45.8,34.6-53.2c38.3-3.7,36.7,19.2,36.7,19.2s14.4,0.2,6.4-19.6c13.8,1.5,24.6,9.6,22.4,19.6
			c14.4-21.3,7.4-100.6-70.4-121.3c-75.4-20.1-143.7,45.2-158.6,105.4c-14.9,60.1-15.8,101.2-61.5,126.7
			c-27.2,15.1-74.2,19.7-100.3,45.8c-18.8,18.8-15.9,49.2-16,69.2c-3.2,0.7-78.9,13.8-91.5,60.7c-14.8,54.6,60.6,118.5,104.3,118.2
			C930.3,1264.5,983.4,1178.7,1003.1,1048.2z"/>
	</g>
	<linearGradient id="SVGID_3_" gradientUnits="userSpaceOnUse" x1="62.9206" y1="2466.334" x2="199.1944" y2="2466.334">
		<stop  offset="0" style="stop-color:#4085F0"/>
		<stop  offset="1" style="stop-color:#275DC9"/>
	</linearGradient>
	<ellipse class="st17" cx="131.1" cy="2466.3" rx="68.1" ry="68.1"/>
	<linearGradient id="SVGID_4_" gradientUnits="userSpaceOnUse" x1="3549.064" y1="2622.8748" x2="3791.7686" y2="2622.8748">
		<stop  offset="0" style="stop-color:#68B2FC"/>
		<stop  offset="1" style="stop-color:#529BF7"/>
	</linearGradient>
	<ellipse class="st18" cx="3670.4" cy="2622.9" rx="121.4" ry="121.3"/>
	<linearGradient id="SVGID_5_" gradientUnits="userSpaceOnUse" x1="62.9206" y1="2035.7944" x2="312.1339" y2="2035.7944">
		<stop  offset="0" style="stop-color:#68B2FC"/>
		<stop  offset="1" style="stop-color:#529BF7"/>
	</linearGradient>
	<ellipse class="st19" cx="187.5" cy="2035.8" rx="124.6" ry="124.6"/>
	<linearGradient id="SVGID_6_" gradientUnits="userSpaceOnUse" x1="3657.5991" y1="2985.522" x2="3791.7686" y2="2985.522">
		<stop  offset="0" style="stop-color:#4085F0"/>
		<stop  offset="1" style="stop-color:#275DC9"/>
	</linearGradient>
	<ellipse class="st20" cx="3724.7" cy="2985.5" rx="67.1" ry="67.1"/>
	<g>
		<path class="st21" d="M3310.6,2292.1c-12.3-97.9-22.8-180.7,22.9-217.1c2.7-2.2,30.7-23.8,64.3-15.7c33.8,8.1,49.1,40.5,51.4,45.7
			c-16.7-103,4-181.8,44.3-195.7c17.4-6,44.6-1.9,64.3,14.3c28.7,23.6,27.4,61,27.1,65.7c4.3-27.9,23.6-134.7,100-171.4
			c15.1-7.3,44.2-21.2,67.1-7.1c26.3,16.2,24.5,56.7,24.3,60c37.9-68.5,95.2-101.9,134.3-88.5c17.7,6,33.3,22.3,38.6,41.4
			c9.3,34.1-14.5,77.7-62.8,101.4c28.2-1.6,53.7,9.7,65.7,30c19.4,33-7.2,72.3-11.4,78.5c-26.8,39.5-84.6,55.6-147.1,44.3
			c51.2,40.9,75.3,90.4,61.4,124.2c-9,21.9-31.8,32-57.1,42.8c-25.8,11-78.2,28.2-152.8,17.1c45.7,24.2,76.6,58.3,72.8,88.5
			c-5.1,40.5-70.3,58-120,71.4c-36.2,9.8-199.8,53.8-262.8-27.1C3321.4,2377.6,3317.8,2349.1,3310.6,2292.1z"/>
		<path class="st22" d="M3186.2,2433.9c35.4,20.3,80.6,13.4,117.9-3.1c70.1-30.9,123-91,166.9-153.7s81.6-130.4,133.5-186.8
			c49-53.4,109.3-95.1,162.6-144.2c40.3-37,76.6-78.2,108.3-122.8"/>
		<path class="st22" d="M3385.2,2162.4c41.5,64.9,54.7,138.9,12.4,203.3"/>
		<path class="st22" d="M3436.4,2324.2c53.6-27.3,160.3,19.3,215.5,11.2"/>
		<path class="st22" d="M3519.5,2204.4c23.1-67.8,6.9-131,11.6-188.8"/>
		<path class="st22" d="M3703,1884.6c-4.8,52.2-18.4,103.5-39.9,151.2"/>
		<path class="st22" d="M3724.7,1983.5c49.3-18.2,104.8-19.4,154.8-3.3"/>
		<path class="st22" d="M3559.7,2145.6c55.2-27.6,119.9-30.7,177.5-8.5"/>
	</g>
	<g>
		<path class="st23" d="M3268.1,2521c118-74.2,172.7-72.8,189.3-118.7c10.4-28.6,3.5-68.9-22.7-87.5c-32.4-23-77.7-0.9-79.9,0.3
			c105.5-75.8,152.5-164.8,128.5-209.2c-11.4-21.1-45-43.6-82.5-42.7c-29.2,0.7-50.3,15.3-58.8,22c60.1-105.9,78-196.7,45.3-224.1
			c-12.8-10.7-42.5-19.3-69.8-9c-22.2,8.3-34.1,25.9-38.6,33.3c19.6-74.2-10.8-135.2-49.9-145.9c-24.3-6.6-53.4,5.9-70.7,25.4
			c-24.1,27.2-27,70-5.4,105c-2.7-2.5-44.1-40.2-78-27c-37,14.4-40.8,79.8-26.3,121.6c14.4,41.7,48.2,63.3,60.5,70.3
			c-5-3.2-53.4-33-89.1-13.2c-48.9,27.2-26.2,121.6-24.7,127.5c21.7,85.7,106.6,124.8,123.9,132.4c-58.8-3.2-107.8,21.8-120.9,58.8
			c-16.4,46.3,29.4,94.1,54.3,120.1c60.8,63.4,140.5,78.7,181.4,83C3241.3,2538.4,3253.2,2530.4,3268.1,2521z"/>
		<path class="st3" d="M3208.9,1810.7c-3.4,73.9,2.5,148.2,17.6,220.6c21.7,104.3,62.6,207.3,53.8,313.5
			c-2.7,32.3-9.9,64.1-17.1,95.7c-8.3,36.1-16.8,72.9-35.5,104.8c-17.4,29.6-43.1,53.9-72.1,72.4"/>
		<path class="st3" d="M3259.1,2463.2c-0.9-5.1-3.8-9.7-7-13.7c-19-24.2-49.1-36.5-78.5-45.8c-29.3-9.3-60-16.9-84.8-35"/>
		<path class="st3" d="M3266.2,2190.8c-17.6-31.9-53.7-48.4-87.8-61.1c-34.2-12.7-70.8-25-94.2-52.9"/>
		<path class="st3" d="M3235.2,2065.3c-6.8-18.7,2.7-39.7,16.5-54c13.8-14.3,31.5-24.1,46.5-37.1c15-13,27.9-31.2,26.4-50.9"/>
		<path class="st3" d="M3218.3,1982.4c-0.7-6-1.5-12.1-4.1-17.6c-3.9-8.2-11.4-14-19-18.9c-15.7-10.1-32.9-17.6-48.9-27.3
			c-16-9.7-31-22.2-39.1-39"/>
		<path class="st3" d="M3282.4,2302.1c2.4-14.6,4.8-29.4,10.7-42.9c11.3-26,34.2-44.8,55.4-63.5c21.3-18.7,42.7-39.9,49.5-67.5"/>
		<path class="st3" d="M3370.3,2369.5c-19.8-4.8-41.1-2.7-59.5,5.8c-18.5,8.5-33.9,23.3-43.2,41.4"/>
	</g>
	<g>
		<path class="st24" d="M3036,2438.8c-9.6-124.6,14.3-167.4-15.2-199.8c-18.4-20.2-53.2-31.6-78.9-18.5
			c-31.7,16.1-33.1,61.3-33.2,63.5c-16.1-115.4-67.1-189.8-112.4-189.3c-21.5,0.2-53.4,17.5-68.4,47.6c-11.7,23.5-8.9,46.3-7.1,55.9
			c-59-91.9-123.5-144-158.9-129.5c-13.9,5.7-33.1,25.7-36.3,51.6c-2.6,21.1,6.3,37.8,10.4,44.5c-50.7-46.5-111.8-47.9-136.6-21.3
			c-15.4,16.5-17.6,44.8-9.4,66.7c11.5,30.5,44.3,50.6,81.1,48.2c-3.1,1.1-50.3,18.2-54,50.7c-4,35.4,46.3,65.7,85.5,71.7
			c39.1,5.9,70.3-11.8,81.1-18.6c-4.6,2.7-48.5,28.6-47.6,65.2c1.2,50.2,85.6,71.5,90.9,72.8c77.1,18.6,143.6-32.5,156.8-43.1
			c-27.1,45.3-27.7,94.7-3.8,120.5c29.9,32.4,87,15.9,118,7c75.7-21.8,121.1-78.6,141.6-109.3
			C3038.6,2467.3,3037.2,2454.5,3036,2438.8z"/>
		<path class="st3" d="M2447.4,2189.2c57.2,33.5,118.7,59.9,182.5,78.1c91.8,26.3,190.7,36.9,271.3,88.1
			c24.6,15.6,46.7,34.6,68.8,53.6c25.2,21.6,50.8,43.7,68.4,71.9c16.3,26.2,24.8,56.7,27.4,87.4"/>
		<path class="st3" d="M2987,2423.8c-4.4-1.4-81.3,2.3-122.9,101.2"/>
		<path class="st3" d="M2773.1,2302.4c-32.7,0.7-60.8,22.4-85.2,44.2c-24.4,21.8-49.4,45.7-81.3,52.7"/>
		<path class="st3" d="M2660.5,2274.7c-17.6-2.4-30.4-18.7-36-35.6c-5.6-16.9-6-35-10-52.4c-4-17.3-13.1-35.1-29.4-42.2"/>
		<path class="st3" d="M2587.7,2253.4c-5.1-1.9-10.3-3.9-15.7-4.1c-8.1-0.3-15.9,3.2-22.9,7.2c-14.6,8.2-27.7,18.8-42.1,27.4
			c-14.4,8.6-30.5,15.4-47.3,14.8"/>
		<path class="st3" d="M2868.2,2336c-10.6-8-21.3-16-29.6-26.4c-15.9-19.8-21.3-45.8-27.3-70.5c-6-24.7-13.9-50.6-32.9-67.4"/>
		<path class="st3" d="M2958.4,2294.4c-12,13.7-19.3,31.5-20.3,49.7c-1,18.2,6.7,37.6,17.2,52.5"/>
	</g>
	<path class="Graphic_x0020_Style_x0020_69" d="M3087.3,2977.6c-12.3-10.2-26.4-17.6-41.2-23.9l19.6,81.6
		c35.6,7.4,70.3,12.8,103.8,15.5l-16.1-83.7C3131.7,2979.2,3106.2,2992.6,3087.3,2977.6z"/>
	<path class="st25" d="M2944.2,2529l101.9,424.7c14.7,6.3,28.8,13.7,41.2,23.9c18.8,15.1,44.3,1.6,66.1-10.5l-84.4-439.6
		L2944.2,2529z"/>
	<path class="Graphic_x0020_Style_x0020_69" d="M3161.2,2962.8c-2.5,1.4-5.1,2.8-7.8,4.3l16.1,83.7c55.9,4.5,108.2,1.2,155.1-13.6
		l37.8-150.4c-39.6,5.4-82,6.5-116.7,16.9C3211.9,2914.2,3190.8,2943.8,3161.2,2962.8z"/>
	<path class="st26" d="M3069.1,2527.5l84.4,439.6c2.7-1.5,5.3-2.9,7.8-4.3c29.6-19,50.7-48.6,84.5-59.1
		c34.8-10.4,77.1-11.6,116.7-16.9l91.4-363.7L3069.1,2527.5z"/>
	<path class="st27" d="M1591.2,1381.6h291.7c0,0,4.7-35.8,5.6-113.5c42.3,0,42.3,0,42.3,0v113.5h323.6v-74.1h40.5v74.1h49v-166.7
		h42.6v166.7h53.2v-246.9h55.9v246.9h60.7v-321.1h57.5v321.1h62.3V1086h49.5v295.5h51.9V958.3h45v423.3h59.5v-284.3V912.7h51.1
		v468.8h300"/>
	<g>
		
			<ellipse transform="matrix(2.873618e-03 -1 1 2.873618e-03 894.2637 2920.1814)" class="st28" cx="1911.4" cy="1011.7" rx="141.9" ry="141.9"/>
		<line class="st3" x1="1934.8" y1="1039.6" x2="1934.8" y2="1203.9"/>
		<path class="st3" d="M1888.5,1203.9c-0.9-1.3-0.6-127.1-0.5-162.7"/>
		<path class="st3" d="M1888,1041.2c0,0-19.1-13.8-4.4-28c14.8-14.3,2.3,25.5,16.2,25.8c13.9,0.4,3.9-28.9,17.2-28.9
			c13.2,0-0.8,29.1,5.6,29.1c6.4,0,5.8-29.1,14.4-29.1c8.5,0,8.5,26-2.2,29.6"/>
		<path class="st29" d="M1959.2,1168.1c21.8,5,20.5-33.5,20.5-33.5c-31.8,5-64.2,6.2-97.2,4.1c5.6,14.3,26.9,11.2,30.9,27.3
			c4.2,19-19,25.3-16.9,40.1c2,26.1,7.8,48.5,2.9,74.2c3.8,0.7,7.8,0.9,12,0.4c21.8,2.7,39.7-14.8,39.7-14.8v-28.4
			c9.1,2.4,16.7-3.2,17.2-8.4c0.4-4.3-3.9-9.7-10.7-11.5c1.1-0.4,5.8-2.5,7.6-7.4c2.1-5.7-0.9-13.1-7.6-17.1
			C1968.7,1186.4,1958,1167.8,1959.2,1168.1z"/>
		<path class="st26" d="M1896.5,1206.1c-2.1-14.8,21.1-21.1,16.9-40.1c-4-16.1-25.3-13-30.9-27.3c-13-0.8-26.1-2.2-39.3-4.1
			c0,0-1.3,38.5,20.5,33.5c1.2-0.3-9.6,18.3,1.5,25.2c-6.7,4-9.6,11.3-7.6,17.1c1.7,4.9,6.5,6.9,7.6,7.4
			c-6.8,1.7-11.1,7.1-10.7,11.5c0.5,5.2,8.1,10.8,17.2,8.4v28.4c0,0,11.7,11.4,27.8,14.4C1904.4,1254.6,1898.6,1232.3,1896.5,1206.1
			z"/>
	</g>
	<g>
		<g>
			<rect x="2254.4" y="1436.8" class="Graphic_x0020_Style_x0020_42" width="36.2" height="16"/>
			<rect x="2348.1" y="1436.8" class="Graphic_x0020_Style_x0020_42" width="36.2" height="16"/>
			<rect x="2441.8" y="1436.8" class="Graphic_x0020_Style_x0020_42" width="36.2" height="16"/>
			<rect x="2535.5" y="1436.8" class="Graphic_x0020_Style_x0020_42" width="36.2" height="16"/>
			<rect x="2629.1" y="1436.8" class="Graphic_x0020_Style_x0020_42" width="36.2" height="16"/>
			<rect x="2722.8" y="1436.8" class="Graphic_x0020_Style_x0020_42" width="36.2" height="16"/>
			<rect x="2816.5" y="1436.8" class="Graphic_x0020_Style_x0020_42" width="36.2" height="16"/>
			<rect x="2910.2" y="1436.8" class="Graphic_x0020_Style_x0020_42" width="36.2" height="16"/>
		</g>
		<g>
			<rect x="2254.4" y="1436.8" class="st30" width="36.2" height="16"/>
			<rect x="2348.1" y="1436.8" class="st30" width="36.2" height="16"/>
			<rect x="2441.8" y="1436.8" class="st30" width="36.2" height="16"/>
			<rect x="2535.5" y="1436.8" class="st30" width="36.2" height="16"/>
			<rect x="2629.1" y="1436.8" class="st30" width="36.2" height="16"/>
			<rect x="2722.8" y="1436.8" class="st30" width="36.2" height="16"/>
			<rect x="2816.5" y="1436.8" class="st30" width="36.2" height="16"/>
			<rect x="2910.2" y="1436.8" class="st30" width="36.2" height="16"/>
		</g>
	</g>
	<polyline class="st27" points="2254.4,1223.3 2459.9,1050.9 2571.7,1003 2800.5,888 2915.5,869.7 	"/>
	<path class="Graphic_x0020_Style_x0020_27" d="M2266.4,1223.3c0-5.4-4.4-9.8-9.8-9.8s-9.8,4.4-9.8,9.8c0,5.4,4.4,9.8,9.8,9.8
		S2266.4,1228.8,2266.4,1223.3z"/>
	<circle class="Graphic_x0020_Style_x0020_27" cx="2459.9" cy="1052.1" r="9.8"/>
	<circle class="Graphic_x0020_Style_x0020_27" cx="2800.5" cy="888" r="9.8"/>
	<circle class="Graphic_x0020_Style_x0020_27" cx="2918.3" cy="868.3" r="9.8"/>
	<path class="st30" d="M2001.8,1492.4h-197.9c-6.5,0-11.8-5.3-11.8-11.8v-46.7c0-6.5,5.3-11.8,11.8-11.8h197.9
		c6.5,0,11.8,5.3,11.8,11.8v46.7C2013.6,1487.1,2008.3,1492.4,2001.8,1492.4z"/>
	<polygon class="Graphic_x0020_Style_x0020_218" points="3268.1,777.6 3300.3,858.5 3300.3,1580.2 3268.1,1604.6 	"/>
</g>
</svg>
