<?xml version="1.0" encoding="utf-8"?>
<!-- Generator: Adobe Illustrator 22.0.0, SVG Export Plug-In . SVG Version: 6.00 Build 0)  -->
<svg version="1.1" id="Layer_1" xmlns="http://www.w3.org/2000/svg" xmlns:xlink="http://www.w3.org/1999/xlink" x="0px" y="0px"
	 viewBox="0 0 4000 4000" style="enable-background:new 0 0 4000 4000;" xml:space="preserve">
<style type="text/css">
	.st0{fill:none;stroke:#1A1A1A;stroke-width:3;stroke-linecap:round;stroke-linejoin:round;stroke-miterlimit:10;}
	.st1{fill:#1A1A1A;stroke:#1A1A1A;stroke-width:2;stroke-linecap:round;stroke-linejoin:round;stroke-miterlimit:10;}
	.st2{clip-path:url(#XMLID_2_);fill:#D9DBDA;}
	.st3{fill:#FFFFFF;stroke:#1A1A1A;stroke-width:2;stroke-linecap:round;stroke-linejoin:round;stroke-miterlimit:10;}
	.st4{fill:#8E9DF4;stroke:#1A1A1A;stroke-width:2;stroke-linecap:round;stroke-linejoin:round;stroke-miterlimit:10;}
	.st5{fill:#606060;}
	.st6{fill:#5067EF;stroke:#1A1A1A;stroke-width:2;stroke-linecap:round;stroke-linejoin:round;stroke-miterlimit:10;}
</style>
<g>
	<path class="st0" d="M902.8,487.1C506,689.9,358.6,910.5,312.9,1100.8c-56.6,235.5,68.4,317.4,118,778.8
		c44.4,413.6-44.1,458.3,0,920.5c35.2,369,52.9,554.3,177,719.8c267.2,356.5,821.8,346.5,1061.9,342.2
		c77.8-1.4,1468.5-44.4,1769.8-932.3c173.3-510.7-111.3-1013.4-212.4-1191.9C2593.9,619.6,1113.5,500.9,902.8,487.1z"/>
	<ellipse class="st1" cx="3706.2" cy="2338" rx="84" ry="84"/>
	<ellipse class="st1" cx="854.9" cy="3404.7" rx="84" ry="84"/>
	<path class="st1" d="M681.9,1550c29.6-218.5,6.9-440.7,19.6-660.9c12.7-220.2,67.8-450.6,222.8-607.5
		c149.4-151.1,372.1-211.1,584.5-207c212.5,4.1,419.2,65.3,622.9,126c227.5,67.8,463.1,140,639.9,298.4
		c118.6,106.2,202.8,244.6,285.3,380.7c84.2,139.1,168.5,278.1,252.7,417.2c86,141.9,174.4,291.6,182.6,457.4
		c16.4,332.4-290,608.7-300.7,941.4c-5.9,182.1,78.9,360.3,59.8,541.5c-19,180.7-141.8,338.5-294.1,437.5
		c-152.3,99-331.9,146.8-510.4,180.8c-279.3,53.2-564.4,76.3-848.7,68.7c-176.6-4.7-384.1-41.5-461.1-200.6
		c-57.6-119.1-21.1-274.1-100.6-379.8c-70-93-199.6-109.5-309.7-147.3c-215.9-74.2-389-262-445.5-483.2
		C160,2238.4,622.9,1985.6,681.9,1550z"/>
	<g>
		<defs>
			<path id="XMLID_4_" d="M681.9,1550c29.6-218.5,6.9-440.7,19.6-660.9c12.7-220.2,67.8-450.6,222.8-607.5
				c149.4-151.1,372.1-211.1,584.5-207c212.5,4.1,419.2,65.3,622.9,126c227.5,67.8,463.1,140,639.9,298.4
				c118.6,106.2,202.8,244.6,285.3,380.7c84.2,139.1,168.5,278.1,252.7,417.2c86,141.9,174.4,291.6,182.6,457.4
				c16.4,332.4-290,608.7-300.7,941.4c-5.9,182.1,78.9,360.3,59.8,541.5c-19,180.7-141.8,338.5-294.1,437.5
				c-152.3,99-331.9,146.8-510.4,180.8c-279.3,53.2-564.4,76.3-848.7,68.7c-176.6-4.7-384.1-41.5-461.1-200.6
				c-57.6-119.1-21.1-274.1-100.6-379.8c-70-93-199.6-109.5-309.7-147.3c-215.9-74.2-389-262-445.5-483.2
				C160,2238.4,622.9,1985.6,681.9,1550z"/>
		</defs>
		<use xlink:href="#XMLID_4_"  style="overflow:visible;fill:#FFFFFF;"/>
		<clipPath id="XMLID_2_">
			<use xlink:href="#XMLID_4_"  style="overflow:visible;"/>
		</clipPath>
		<path class="st2" d="M104.4,2744c0,0,117.4-475.6,566.3-406s855.6-50,1220.6-161.6s806.2,0.2,1102.4,400.5s60.3,606.3,209.7,751.1
			c149.4,144.8,204.5,160.8,204.5,160.8s-207.8,393-363.5,479.6c-155.7,86.5-2106.4,31.5-2106.4,31.5l-677.2-758.2L104.4,2744z"/>
		
			<use xlink:href="#XMLID_4_"  style="overflow:visible;fill:none;stroke:#1A1A1A;stroke-width:2;stroke-linecap:round;stroke-linejoin:round;stroke-miterlimit:10;"/>
	</g>
	<g>
		<polygon class="st3" points="1448.8,1597.8 978.5,2754.9 1019.8,2754.9 1494.7,1597.8 		"/>
		<polygon class="st3" points="978.5,1098.6 1301.8,2453.4 1261.6,2451.9 938.2,1096.8 1865,1074.1 1865.6,1076.9 		"/>
		<polygon class="st3" points="2189.9,2486.2 1301.9,2453.8 1301.8,2453.4 978.5,1098.6 1865.6,1076.9 1905.4,1075.9 		"/>
		<polygon class="st1" points="870.1,1033.7 1901.8,1020.4 1917.5,1074.1 894.9,1096.8 		"/>
		<path class="st3" d="M1462.4,1357.4c0,64.6-59.7,117-133.3,117c-73.6,0-133.3-52.4-133.3-117c0-64.6,59.7-117,133.3-117
			c5.2,0,10.3,0.2,15.3,0.8c40,4,74.7,23.6,95.9,51.6C1454.2,1311.3,1462.4,1333.5,1462.4,1357.4z"/>
		<path class="st4" d="M1440.2,1292.8l-111.2,64.6l15.3-116.3C1384.4,1245.2,1419,1264.7,1440.2,1292.8z"/>
		<path class="st3" d="M1555.4,1722.7c0,15.9-3.6,31.1-10.2,44.9l-123.1-44.9l111.2-64.6C1547.3,1676.6,1555.4,1698.8,1555.4,1722.7
			z"/>
		<path class="st3" d="M1437.4,1606.5l-15.3,116.3l-106.5,70.3c-16.8-19.6-26.7-43.9-26.7-70.3c0-64.6,59.7-117,133.3-117
			C1427.3,1605.7,1432.4,1605.9,1437.4,1606.5z"/>
		<path class="st4" d="M1533.3,1658.1l-111.2,64.6l15.3-116.3C1477.4,1610.5,1512.1,1630,1533.3,1658.1z"/>
		<path class="st1" d="M1648.5,2088c0,13.9-2.8,27.1-7.8,39.5l-125.5-39.5l111.2-64.6C1640.4,2041.9,1648.5,2064.2,1648.5,2088z"/>
		<path class="st3" d="M1604.8,2174.7c-23.7,18.9-55.1,30.4-89.6,30.4c-73.6,0-133.3-52.4-133.3-117c0-64.6,59.7-117,133.3-117
			c5.2,0,10.3,0.2,15.3,0.8l-15.3,116.3L1604.8,2174.7z"/>
		<path class="st4" d="M1626.4,2023.4l-111.2,64.6l15.3-116.3C1570.5,1975.8,1605.2,1995.3,1626.4,2023.4z"/>
		<path class="st5" d="M1640.8,2127.5c-7.4,18.2-19.9,34.4-35.9,47.2l-89.6-86.7L1640.8,2127.5z"/>
		<path class="st5" d="M1545.3,1767.6c-4.2,8.9-9.6,17.2-16.1,24.8c-24.3,28.7-63.2,47.3-107.1,47.3c-32.8,0-62.9-10.4-86.1-27.7
			c-7.6-5.6-14.5-12-20.4-19l106.5-70.3L1545.3,1767.6z"/>
		<polygon class="st3" points="1545.3,1290.1 1888.5,1290.1 1896.4,1315.1 1555.4,1315.1 		"/>
		<polygon class="st3" points="1525.8,1241.2 1869.1,1241.2 1876.9,1266.2 1536,1266.2 		"/>
		<polygon class="st3" points="1624,1606.5 1967.2,1606.5 1975.1,1631.5 1634.1,1631.5 		"/>
		<polygon class="st3" points="1735.4,1678.1 1969.7,1678.1 1977.5,1703.2 1745.5,1703.2 		"/>
		<polygon class="st3" points="1711.1,2011.9 2054.4,2011.9 2062.2,2037 1721.3,2037 		"/>
		<polygon class="st3" points="1691.6,1963 2034.9,1963 2042.8,1988.1 1701.8,1988.1 		"/>
	</g>
	<g>
		<path class="st3" d="M2229.5,1292.2c0,0-42,18.4-77.3,182.3c-35.4,163.9-54.4,268.3-148.1,241.9
			c-108.5-30.5-146.8-46.5-146.8-46.5c-47.3,19.4-75,47.8-57.7,102.3c0,0,126.5,154.7,241.9,146.9
			c115.4-7.9,178.4-200.8,178.4-200.8"/>
		<path class="st1" d="M1809.3,1779.2c0,0,50.5,11.9,68-25c17.5-36.9,13.1-68.3-4.1-74.7c-17.2-6.4-46.2,11.3-53.1,26.6
			C1813.3,1721.3,1784.8,1760.5,1809.3,1779.2z"/>
		<path class="st3" d="M1869.6,1692.1c0,0-49.2-45.5-64.9-92.6c-15.7-47.1-42.6-56.2-51.8-56.9c-8.5,13.1,13.1,61.6,15.1,64.2
			c2,2.6-31.5-32.1-73.4-45.2c-42-13.1-91.1,0-91.1,0s3.9,78.8,30.8,102.6c26.9,23.9,94.4,35,120,52.1c25.6,17,77,47.4,80.2,48.3
			C1858.9,1771.8,1892.8,1702,1869.6,1692.1z"/>
		<path class="st1" d="M2508.6,1169.6c22.9-7.6,31.3-29.8,37-53.8c-20.6,1.7-52.1,4.4-100.4,8.5c-3.3,15.8-9.1,29.4-16,41.2
			C2449.7,1184.5,2483.6,1177.1,2508.6,1169.6z"/>
		<path class="st3" d="M2613.3,1204c-28.5-23.3-29.2-91.4-29.2-91.4s0,0-38.5,3.3c-5.7,23.9-14.1,46.1-37,53.8
			c-24.9,7.5-58.9,15-79.4-4c-24.5,41.6-64,59.1-64,59.1s135.7,72.1,203.2,64.9c67.5-7.2,84.6-57.7,84.6-57.7
			S2641.8,1227.3,2613.3,1204z"/>
		<path class="st3" d="M2406.5,2082.8c-8.3,2.8,19.3,33.1,13.8,35.9c-109.5,24.3-219-20.1-300.1-93.4
			c-18.3,60.1-43,158.4-51.3,273.2c-13.8,190.8,0,393.4,0,393.4l541.9,53.1c0,0,69.2-316.5,76.3-492.9c1.7-41.9,2.1-74.9,1.7-100.8
			c-56.7-8.9-112.4-22.7-166.5-43.6C2486.5,2093.8,2439.6,2066.3,2406.5,2082.8z"/>
		<path class="st1" d="M2141.7,1962.4c0,0-9.4,23.1-21.5,62.9c81.1,73.3,190.6,117.7,300.1,93.4c5.5-2.8-22.1-33.1-13.8-35.9
			c33.1-16.6,80,11,115.9,24.8c54.1,20.9,109.8,34.7,166.5,43.6c-1.2-83.2-10.3-94-10.3-94L2141.7,1962.4z"/>
		<path class="st3" d="M2377.6,1212.9c0,0,109.1,85.3,259.7,13.5c31.3,79-90.6,374-90.6,374l-19.7,448.4c0,0-110.1,34.1-177-34.1
			C2373.7,1848.1,2377.6,1212.9,2377.6,1212.9z"/>
		<path class="st6" d="M2385.5,1199.1c0,0-184.8,73.4-186.2,98.3c23.6,247.8-85.9,678.5-85.9,678.5s120.7,131.8,272.1,92.4
			C2432.7,1856,2454.3,1358.4,2385.5,1199.1z"/>
		<path class="st3" d="M2715.8,1610.5c-5.5,58.4-9.7,118.2-12.9,175.2c-29.3-11.8-59.6-28.6-89.3-50.4
			c-15.7-57.7,39.3-108.1,39.3-108.1S2687.2,1613.1,2715.8,1610.5z"/>
		<path class="st6" d="M2763.1,1326.9c-2.2,7.1-4.3,14.6-6.3,22.3c-18.3,69.1-31.4,162-40.7,259.1c-0.1,0.7-0.1,1.5-0.2,2.2
			c-28.6,2.6-62.9,16.8-62.9,16.8s-55.1,50.4-39.3,108.1c29.7,21.8,60.1,38.6,89.3,50.4c-6.8,124.5-8.7,235.8-8.7,290
			c-112.1,60.4-204.5-11.3-204.5-11.3s13.8-267.5,23.6-422.9c9.8-155.4,129.8-428.8,129.8-428.8S2682.4,1220.7,2763.1,1326.9z"/>
		<path class="st1" d="M2422.2,828.7c0,0-13.8,51.8,22.3,66.9c36.1,15.1,154.7,195.4,154.7,195.4l-27.5,42.2c0,0,19,22.7,53.4-6.8
			c34.4-29.5,101.3-54.4,94.7-133.7c-13.8-62.3-39.3-73.4-59-68.2c5.2-48.5,0.7-57-48.5-89.2c-49.2-32.1-137.6,11.8-163.9,2.6
			C2422.2,828.7,2422.2,828.7,2422.2,828.7z"/>
		<path class="st3" d="M2444.5,895.6c0,0-77.3,154.7-24.3,228.8c53.1,74.1,160.6,6.6,175-7.2c28.2-38,28.2-38,28.2-38
			s53.7-25.6,40.6-62.9c-13.1-37.4-44.6-5.2-44.6-5.2l-19,16.1l-13.8-5.6c0,0,17.7-40.6,3.3-58.3c-14.4-17.7-20.1-14.4-20.1-14.4
			s5-38-48.1-51.1C2468.7,884.4,2473.3,901.5,2444.5,895.6z"/>
		<path class="st3" d="M2403.2,2257.2c0,0-7.9,71.8-21.2,196.7c-16.7,156.3-31.9,257.6-31.9,257.6"/>
		<path class="st3" d="M2891.5,1741.9c-14.9,67.7-96.4,80.9-188.6,43.8c-29.3-11.8-59.6-28.6-89.3-50.4
			c-15.7-57.7,39.3-108.1,39.3-108.1s34.3-14.2,62.9-16.8c3.5-0.3,7-0.5,10.2-0.4l-10-1.8c9.3-97.1,22.4-190,40.7-259.1
			C2796,1429.8,2907.8,1668.2,2891.5,1741.9z"/>
		<path class="st3" d="M2652,1642.6c0,0-17.5-7.9-41.2-32.5c-23.7-24.6-84.7-23.6-78.8-14.8c5.9,8.9,30.5,20.7,46.7,26.6
			c-74.2,6.9-105.7-24.6-105.7-24.6s-18.7,7.5-20.6,44.6c-2,37,41.3,68.5,71.3,71s96,8.2,112.6,14.8
			C2665.6,1739.3,2671.6,1645.8,2652,1642.6z"/>
	</g>
	<path class="st3" d="M1092.9,2451.9c0,0,858-253.7,1670.2,259.6c381.5,236,516.5,486.8-191.1,808.3
		c-707.6,321.6-1188.4,377.6-1430.2,0C899.9,3142.3,663.6,2569.9,1092.9,2451.9z"/>
	<g>
		<polygon class="st3" points="1431.8,2661.7 1799.5,2845.8 1978.5,2579.8 1604.8,2419.6 		"/>
		<polygon class="st3" points="1983.3,2599.1 1978.5,2579.8 1799.5,2845.8 1805.3,2865.8 		"/>
		<polygon class="st3" points="1785.7,2856.4 1520.3,2946.9 1174.9,2758.1 1426.5,2680.1 		"/>
		<polygon class="st3" points="1785.7,2856.4 1785.7,2899.1 1520.3,2989.6 1174.9,2800.8 1174.9,2758.1 1520.3,2946.9 		"/>
	</g>
	<g>
		<path class="st6" d="M1035.8,2697.3c0,0,77.2-123.3,105-112.6c27.9,10.7,78.2,54,78.2,55.9c0,1.9-52.5,179.9-78.2,180.9
			C1115.1,2822.7,1035.8,2697.3,1035.8,2697.3z"/>
		<path class="st3" d="M1148.7,2601.5c1.4-2.1,57.2-85.8,86.8-106.5s86.1-37.9,101.8-37.9c15.7,0,17.9,30,11.4,63.6
			c-6.4,33.6-68.6,61.5-94.3,75.7c-25.7,14.3-59.3,57.2-59.3,57.2C1158.7,2654.4,1140.4,2639.5,1148.7,2601.5z"/>
		<path class="st3" d="M1238,2573c0,0,27.2-47.2,53.6-50.7c26.4-3.6,51.4-31.7,36.4-35.9c-15-4.1-27.9,4.4-47.2,7.3
			s-19.3,2.9-19.3,2.9"/>
		<path class="st3" d="M1376.6,2714.4c0,0,9.3-18.6-7.9-60.7c-17.1-42.2-40.7-63-28.9-87.6c11.8-24.6,18.9-76.8,34.6-79.6
			c15.7-2.9,65,38.6,79.3,91.5c14.3,52.9-9.3,148.6-9.3,148.6L1376.6,2714.4z"/>
		<path class="st3" d="M1379.4,2659.4c0,0,3.9-61.3-15.7-82.5c-12.5-19.3-10.7-40.7,3.6-34.3c14.3,6.4,35.7,41.8,38.9,59.3
			c3.2,17.5,18.6,13.2,18.6,13.2"/>
		<path class="st6" d="M872.9,2735.9c0,0,240.1,536,418,536s171.5-553.1,171.5-553.1s0-30-87.9-31.6
			c-47.2,13.4-77.2,173.1-107.2,344.6c-27.9-62.2-210.1-718.2-499.4-688.2c-289.4,30-292,698.7-292,698.7
			c152.6,204.3,493.2,173.8,567.6,311.6c5.7,10.6,15.4-128.5,26.5-132.9c-8-28.9-9.5-99.2-6.1-142.1"/>
		<path class="st3" d="M725.7,2361.4c0,0,65.7-40,101.5-117.2c72.9-142.9,137.2-213,241.5-194.4c47.2,177.2,71.4,246.7-12.9,271.3
			c-64.3,11.7-64.3,11.7-64.3,11.7s-45.7,44.3-47.2,92.9C887.2,2450,725.7,2361.4,725.7,2361.4z"/>
		<path class="st1" d="M799.5,2269.1c0,0,62.7,54.1,131.3,47.7c20.4-34.3,38.6-67.5,38.6-67.5s-26.8-21.4-9.7-67.5
			c24.6-33.2,48.2,13.9,48.2,13.9l7,16.6l17.7-4.3c0,0-1.1-38.6,0-42.3c1.1-3.8,12.9-43.9,37-55.2c24.1-11.3,34.3-19.8,35.4-29.5
			c1.1-9.6,1.1-9.6,1.1-9.6c0.5-4.8-24.6-40.6-38-39.3c29.5,1.3,43.7-15.3,43.7-15.3s-31.4,4.9-53.9-12.5
			c-22.5-17.5-75.6-22.3-104-7.3c-41.3,2.1-77.2,6.4-76.6,45c-48.8,4.8-78.8,71.8-80.9,135.6
			C794.1,2241.2,799.5,2269.1,799.5,2269.1z"/>
	</g>
	<g>
		<polygon class="st3" points="1781,3030.3 2041,2929.3 2397.3,3169.2 2151.2,3292.7 		"/>
		<path class="st3" d="M2002,3346.8c0,0-19.5-59.1-13.1-105.2c6.5-46,95.7-104,113.8-105.2c1.2,86,1.2,86,1.2,86l14.5,25.4
			c0,0-51.5,35.1-44.5,58.1S2002,3346.8,2002,3346.8z"/>
		<ellipse class="st3" cx="2161" cy="3042.3" rx="76.4" ry="19.3"/>
		<path class="st3" d="M2084.6,3042.3h152.8l-3.4,236.7c-12.1,38.8-111.4,37.1-133.2,4.3L2084.6,3042.3z"/>
		<path class="st3" d="M2565.3,3096.5c0,0,19.4-121.7,13.3-160.4c-66.2-16.4-92.4-86.3-84-140.8c8.5-54.5,1.9-80,1.9-80
			s-30.5-58.5,19.1-104.5c49.7-46,244.6-49.7,238.6,126c-8.5,116.3-26.6,153.8-26.6,153.8l41.2,123.5
			C2768.8,3014.1,2591.5,3133.8,2565.3,3096.5z"/>
		<path class="st3" d="M2485,3352.6c-25.8,89-176,381-295.5,343.8S1998,3376.9,1998,3376.9s37.6-46.2,91.2-30.1
			c0,0,93.9,81.6,127.8,133.2c69.4-77.5,109.8-168,148.6-268.1c38.8-100.1,187.3-166.6,229.3-169.7
			c137.2-12.8,174.4-59.6,174.4-59.6s180.8,43.6,209.9,190.6c29.1,147-22.6,363.4,0,452.2c3.8,31.7,3.8,31.7,3.8,31.7
			s-234,157.5-489.8,189.2c-25.8-121.1-62.3-370.1-57.7-379"/>
		<path class="st6" d="M1970.1,3343.6c0,0-1.2-33.3,49-41.2c50.3-7.9,65.4,10.9,65.4,10.9l19.4,33.5c0,0-102.3,8.3-99.9,57.9
			C1984.7,3379.3,1970.1,3343.6,1970.1,3343.6z"/>
		<path class="st1" d="M2480.6,2678.6c0,0,18.2,57.5,44.8,67.2c9.1,36.3,9.1,36.3,9.1,36.3l13.3,7.9c0,0,7.9-46,36.3-38.2
			c28.5,7.9,12.1,76.9-14.5,80.5c-4.8,29.7-30.5,92.1,47.8,101.7c78.3,9.7,116.3-20.2,123.5-43.6c7.3-23.4,98.1-185.3,32.7-260.4
			c-65.4-75.1-146.5-76.3-174.4-67.8C2571.4,2570.8,2475.7,2581.7,2480.6,2678.6z"/>
		<path class="st3" d="M2681.2,2704.9c0,0-1.6-71.1,53.3-78.3l25.8,13.7c0,0-62.2-4-57.3,94.5
			C2684.4,2721.8,2681.2,2704.9,2681.2,2704.9z"/>
		<path class="st1" d="M2732.3,2644.6c0,0,105.6-51.2,162.9,15.8s35.5,153.4,10.5,232.6c-25,79.1-121.4,338.3-108.5,419.1
			c-53.3-98.5-139.4-290.7-136.2-392.4c3.2-101.7,42-184.9,42-184.9l-7.5-45.2L2732.3,2644.6z"/>
	</g>
	<g>
		<path class="st3" d="M3188.5,565.3h-309.3c-90.3,0-163.4,73.2-163.4,163.4v1.7c0,85.1,65.1,155.1,148.2,162.7
			c-5.1,19.4-11.5,43.3-17.5,64.9c-5,18.1,16.5,31.8,30.8,19.6l97.9-83.8h213.4c90.3,0,163.4-73.2,163.4-163.4v-1.7
			C3352,638.5,3278.8,565.3,3188.5,565.3z"/>
		<ellipse class="st3" cx="2885.3" cy="720.2" rx="28.6" ry="28.6"/>
		<ellipse class="st3" cx="3044.6" cy="720.2" rx="28.6" ry="28.6"/>
		<ellipse class="st3" cx="3207.3" cy="720.2" rx="28.6" ry="28.6"/>
	</g>
	<ellipse class="st3" cx="3494.2" cy="2929.3" rx="209.8" ry="208.2"/>
	<ellipse class="st3" cx="380" cy="1461.1" rx="170.1" ry="168.8"/>
</g>
</svg>
