<?xml version="1.0" encoding="utf-8"?>
<!-- Generator: Adobe Illustrator 22.0.0, SVG Export Plug-In . SVG Version: 6.00 Build 0)  -->
<svg version="1.1" id="Layer_1" xmlns="http://www.w3.org/2000/svg" xmlns:xlink="http://www.w3.org/1999/xlink" x="0px" y="0px"
	 viewBox="0 0 4000 4000" style="enable-background:new 0 0 4000 4000;" xml:space="preserve">
<style type="text/css">
	.st0{fill:none;stroke:#1A1A1A;stroke-width:3;stroke-linecap:round;stroke-linejoin:round;stroke-miterlimit:10;}
	.st1{fill:#FFFFFF;stroke:#1A1A1A;stroke-width:2;stroke-linecap:round;stroke-linejoin:round;stroke-miterlimit:10;}
	.st2{fill:#1A1A1A;stroke:#1A1A1A;stroke-width:2;stroke-linecap:round;stroke-linejoin:round;stroke-miterlimit:10;}
	.st3{fill:#D9DBDA;stroke:#1A1A1A;stroke-width:2;stroke-miterlimit:10;}
	.st4{fill:#8E9DF4;stroke:#1A1A1A;stroke-width:2;stroke-linecap:round;stroke-linejoin:round;stroke-miterlimit:10;}
	.st5{fill:none;stroke:#1A1A1A;stroke-width:2;stroke-linecap:round;stroke-linejoin:round;stroke-miterlimit:10;}
	.st6{fill:#5067EF;stroke:#1A1A1A;stroke-width:2;stroke-linecap:round;stroke-linejoin:round;stroke-miterlimit:10;}
</style>
<g>
	<path class="st0" d="M3084.6,2466.2c-62.2-379.1,487.9-614.2,399.2-963.4c-51.2-201.5-252.8-195.7-292.7-431.1
		c-39.5-232.9,136.4-362.9,58.5-516.3c-73.9-145.5-302.1-165.9-351.3-170.3c-320.7-28.7-394,202.5-803.7,308.7
		c-102.5,26.6-176.7,32.5-243.8,31.2c0,0,0,0.1,0,0.1c17.4,234,17.4,465.4,7.5,696.9c0,12.4-10,24.9-14.9,37.3
		c-19.9,74.7-29.9,149.3-64.7,216.5c-52.3,102-87.1,204.1-131.9,306.1c-7.5,14.9-22.4,27.4-32.4,42.3
		c-29.9,49.8-49.8,97.1-84.6,144.4c-5,10-5,22.4-10,32.4c-24.9,32.4-39.8,62.2-64.7,94.6c-5,7.5,0,19.9-5,27.4
		c-44.8,62.2-89.6,112-129.4,176.7c-49.5,79.6-100.3,152.9-161.3,221.7c46.6,115.7,99.7,248.5,216.6,404.8
		c84.1,112.4,191.9,256.5,361.9,340.7c230.8,114.2,457.6,59.1,830.3-37.3c427.8-110.6,852.6-220.4,878.2-436.5
		C3470,2795.7,3131.3,2750.7,3084.6,2466.2z"/>
	<path class="st1" d="M760.3,2599.3c2.3,107.1,121.8,129.7,145.5,237.7c25.4,115.7-94.4,168-63.9,269.7
		c26,86.5,143.7,152.4,237.7,138.4c95-14.1,96.6-99.4,220-156.1c90.4-41.5,208-50.1,298.1-10.6c124.1,54.4,131.2,171.8,212.9,283.9
		c208.7,286.4,698.9,256.9,780.7,251.9c315.3-19,738.7-176.8,766.5-401c14.7-118.4-76.9-288.8-127.7-383.2
		c-63-117.2-114.2-166.5-99.4-241.3c15.6-78.7,85.8-92.6,177.4-184.5c35.1-35.2,165.8-174.6,191.6-376.1
		c2.3-17.9,30.3-265.1-124.2-443.6c-82.3-95-129.8-70.7-198.7-166.8c-68.7-95.8-77-197.5-88.7-365.5
		c-18.5-266.4,33.1-302.4-17.7-393.9c-69.2-124.5-239.2-191.6-376.1-184.5c-136.4,7-159.7,83.3-354.8,117.1
		c-109.8,19-195.6,11-269.7,3.5c-263.5-26.5-309-115.9-475.5-127.7c-261.3-18.7-470.5,178.6-518.1,223.6
		c-228.9,215.9-254.4,493-266.1,621c-12.7,137.9-33.3,363.1,99.4,542.9c78.4,106.2,144.6,107.5,152.6,184.5
		c10.5,100.6-94.8,170.2-262.6,450.7C776.6,2527.4,759.5,2558,760.3,2599.3z"/>
	<path class="st1" d="M760.3,2599.3c2.3,107.1,121.8,129.7,145.5,237.7c25.4,115.7-94.4,168-63.9,269.7
		c26,86.5,143.7,152.4,237.7,138.4c95-14.1,96.6-99.4,220-156.1c90.4-41.5,208-50.1,298.1-10.6c124.1,54.4,131.2,171.8,212.9,283.9
		c208.7,286.4,698.9,256.9,780.7,251.9c315.3-19,738.7-176.8,766.5-401c14.7-118.4-76.9-288.8-127.7-383.2
		c-63-117.2-114.2-166.5-99.4-241.3c15.6-78.7,85.8-92.6,177.4-184.5c35.1-35.2,165.8-174.6,191.6-376.1
		c2.3-17.9,30.3-265.1-124.2-443.6c-82.3-95-129.8-70.7-198.7-166.8c-68.7-95.8-77-197.5-88.7-365.5
		c-18.5-266.4,33.1-302.4-17.7-393.9c-69.2-124.5-239.2-191.6-376.1-184.5c-136.4,7-159.7,83.3-354.8,117.1
		c-109.8,19-195.6,11-269.7,3.5c-263.5-26.5-309-115.9-475.5-127.7c-261.3-18.7-470.5,178.6-518.1,223.6
		c-228.9,215.9-254.4,493-266.1,621c-12.7,137.9-33.3,363.1,99.4,542.9c78.4,106.2,144.6,107.5,152.6,184.5
		c10.5,100.6-94.8,170.2-262.6,450.7C776.6,2527.4,759.5,2558,760.3,2599.3z"/>
	<path class="st1" d="M3462.4,2170.5c-4.5,11.3-9.2,22.3-14.2,32.9c-8.1,17.4-16.7,33.8-25.4,49.3l-729.8-64.7l4.2-1714.3
		c16.1-0.7,32.7-0.4,49.5,0.9c12.1,0.9,24.3,2.4,36.6,4.4l-4,1631L3462.4,2170.5z"/>
	<path class="st1" d="M928.9,1878.8c69.6,82.3,125.7,89.3,133.1,159.8c5,48-16.4,88.9-58.2,149h2451.5
		c20.5-47.2,37-100.8,44.5-159.7c2.3-17.9,30.3-265.1-124.2-443.6c-71.5-82.6-116.8-75-172.6-134.7
		c-352.7,160.1-1010.5,415-1551.2,374.8C1332.8,1800.9,1096.7,1832.8,928.9,1878.8z"/>
	<g>
		<path class="st1" d="M3474.8,2171.5c-2,12.4-3.8,23.7-5.5,33.6c-5.2,32.1-8.3,50.8-8.3,50.8l-38.2-3.4l-729.8-64.7l4.2-1714.3
			c16.1-0.7,32.7-0.4,49.5,0.9c12.1,0.9,24.3,2.4,36.6,4.4l-4,1631l683.2,60.6L3474.8,2171.5z"/>
		<path class="st2" d="M3474.8,2171.5c-2,12.4-3.8,23.7-5.5,33.6l-21.1-1.9l-705.6-62.6l4.1-1666.2c12.1,0.9,24.3,2.4,36.6,4.4
			l-4,1631l683.2,60.6L3474.8,2171.5z"/>
		<path class="st1" d="M3088.1,830l-322.3-16.9l5.2-1.8l316.8-111.1C3097.7,736.5,3092.6,771.2,3088.1,830z"/>
		<path class="st1" d="M3088.1,830c-1.3,17.8-2.6,37.9-3.4,60.9l-323.2-17l1.4-61.1l8.2-1.6l-5.2,1.8L3088.1,830z"/>
		<path class="st1" d="M3144.3,1363l-259.4-13.6l-131.7-7l350.6-123C3111.6,1273.7,3123.5,1319.9,3144.3,1363z"/>
		<path class="st1" d="M3474.7,1780.8l-32.8-1.7l-696.7-36.6l582.5-204.4c14.7,11.6,30.5,26.3,47.8,46.3
			c23.1,26.7,42.1,54.8,57.7,83.6C3458.2,1701.1,3470.8,1739.2,3474.7,1780.8z"/>
		<polygon class="st1" points="3494.8,1855.4 2740,1815.7 2745.2,1742.5 3478.7,1781.1 		"/>
		<path class="st1" d="M3178.2,1419.5l-429-22.5l1.9-54.7l2,0.1l-0.1,0l131.8,6.9l259.4,13.6c9,18.7,19.8,36.8,32.6,54.7
			C3177.3,1418.3,3177.7,1418.9,3178.2,1419.5z"/>
	</g>
	<path class="st1" d="M3130.7,2588.7c15.6-78.7,85.8-92.6,177.4-184.5c24.8-24.9,97.6-102,147.1-216.5H1003.7
		c-45.9,65.9-116.6,154.9-204.3,301.6c-22.8,38.1-39.9,68.7-39,110c2.3,107.1,121.8,129.7,145.5,237.7
		c25.4,115.7-94.4,168-63.9,269.7c26,86.5,143.7,152.4,237.7,138.4c95-14.1,96.6-99.4,220-156.1c90.4-41.5,208-50.1,298.1-10.6
		c124.1,54.4,131.2,171.8,212.9,283.9c208.7,286.4,698.9,256.9,780.7,251.9c315.3-19,738.7-176.8,766.5-401
		c14.7-118.4-76.9-288.8-127.7-383.2C3167,2712.8,3115.9,2663.5,3130.7,2588.7z"/>
	<path class="st3" d="M2749.2,2837.6c0,0,189.9-105.7,83.5-223.4s-120.6-139-128.9-159.2c-8.3-20.1,74.8-46.2,41.4-149.6
		c-23.8-73.5-194-87.2-194-87.2s-605.6,15-680.1,93.4C1796.5,2389.9,2749.2,2837.6,2749.2,2837.6z"/>
	<path class="st1" d="M859.5,3038.1l305.4-61.5l83.5,141.8c0,0-25.5,23.4-60.4,54.9C1054.9,3132.8,859.5,3038.1,859.5,3038.1z"/>
	<polygon class="st1" points="1010.5,2717.6 1199.4,2625.9 1481.9,2302.4 1486.6,2274.6 1374.2,2265.9 965,2677.4 	"/>
	<g>
		<path class="st4" d="M939.5,2154.9c0,0-117.7-55.9-101.1-119.8c16.6-63.9,71-71,71-71s-173.5-150.2-72.6-249.6
			c101-99.4,266.5,160.9,266.5,160.9S836,1420.3,954.3,1345.8c118.3-74.5,174.2,274.1,174.2,274.1s5.3-175.6,106.5-173
			c101.1,2.7,45.2,260.8,45.2,260.8s136.6-162.3,215.9-99.7s-99.4,344.2-99.4,344.2s33.1-52,66.2,8.3
			c33.1,60.3-76.9,144.3-76.9,144.3S1010.4,2203.1,939.5,2154.9z"/>
		<g>
			<line class="st5" x1="944.6" y1="1833.8" x2="1176.4" y2="2150.3"/>
			<line class="st5" x1="1230.3" y1="2111.6" x2="1125.4" y2="1691"/>
			<path class="st5" d="M1266.6,2132.8c0,0-11.4-211.2,48.9-259.9"/>
			<path class="st5" d="M1289.1,2115c0,0,90.7-93.9,116.2-101"/>
		</g>
		<polygon class="st1" points="1160.8,2115.5 1394.3,2107.3 1347,2379.3 1138.8,2385.2 		"/>
		<polygon class="st1" points="1463.5,2051.1 1394.3,2107.3 1347,2379.3 1421.5,2316.6 		"/>
		<path class="st1" d="M1130.6,2095.2c1.8,0.8,237.7-8.1,237.7-8.1l72-36.1h23.2l-69.2,56.2l-289.8,7.7L1130.6,2095.2z"/>
	</g>
	<g>
		<polygon class="st1" points="648,2433.7 1001.6,2455 1282,2168.2 1059.6,2194.8 		"/>
		<polygon class="st1" points="1010.5,2328.7 1099.2,2315.4 1240.3,2173.2 1138.8,2179 		"/>
		<polygon class="st1" points="663.3,2651.4 1010.5,2717.6 1001.6,2455 648,2433.7 		"/>
		<polygon class="st2" points="1289.1,2376.9 1282,2168.2 1001.6,2455 1010.5,2717.6 		"/>
		<polygon class="st1" points="1006.9,2078.6 805.2,2220.5 1001.6,2220.5 1176.4,2078.6 		"/>
		<polygon class="st1" points="823.3,2306.6 805.2,2220.5 1001.6,2220.5 1010.5,2328.7 		"/>
		<polygon class="st2" points="1176.4,2078.6 1187.9,2181.5 1010.5,2328.7 1001.6,2220.5 		"/>
		<polygon class="st3" points="836.9,2485.8 972.4,2495.5 972.9,2569.4 841.6,2554.1 		"/>
	</g>
	<path class="st1" d="M2002.3,3119.2l-173.9,265.8c-6.1-7.3-12-14.9-17.7-22.7c-64.5-88.5-82.5-180.3-148.3-241.8L2002.3,3119.2z"/>
	<path class="st1" d="M1908.1,3461.2c0,0,36.7,38.1,71.3,46.4c73.7-172.6,177.1-287.4,177.1-287.4l-170.8-14.2L1908.1,3461.2z"/>
	<path class="st2" d="M2020,3248.1c0,1.3-71.7,137.1-111.9,213.1c-29-22.2-55.9-47.5-79.8-76.3l173.9-265.8
		C2002.3,3119.2,2020,3246.3,2020,3248.1z"/>
	<path class="st1" d="M1199.4,3161.2c-38,39.4-61.1,75.2-119.7,83.9c-94.1,14-211.8-51.9-237.8-138.4c-13.5-44.9,2.3-80.1,22-115.4
		c96.4-19.1,218.1-43.1,221.7-43.1C1089.4,2948.2,1153.5,3071.9,1199.4,3161.2z"/>
	<polygon class="st3" points="1048.3,2986.1 1118.1,3142.2 980.9,3169.4 918.2,3007.4 	"/>
	<g>
		<path class="st2" d="M2157.2,1020c0,0,14.4-45.7,47.4-21c23.6,15.4,23.6,15.4,23.6,15.4s31.9-43.1,72.2-8.5
			c40.2,34.6,53.2,179.9,36.7,266.9c-16.6,87,36.7,149.7,60.3,160.4c23.7,10.6,84,94.6,57.4,139c-86.9,0-297.5-67.4-297.5-67.4V1020
			z"/>
		<path class="st1" d="M1950.8,2645.4c0,0,116.2-28.4,236,23.1c119.8,51.5,162.3,141.1,111.8,135.7c-50.6-5.3-181.9-39-233.3-32.8
			C2013.8,2777.6,1950.8,2645.4,1950.8,2645.4z"/>
		<path class="st6" d="M1771.4,2540c0,0,22.4-1,82.7,5.2c60.3,6.2,171.2,93.1,183.3,99.4c12.1,6.2,54.4,53.2,73.1,86.9
			c18.6,33.7,8.9,55.9,8.9,55.9s-71,5.3-282.1,19.5c-211.1,14.2-605-59.7-588.5-194.6c16.6-134.8,639-370.5,639-370.5
			s80.7-44.4,193.4-33.7c112.7,10.6,149.9,38.1,149.9,38.1l-322.3,307.5"/>
		<path class="st2" d="M2095.6,2708.3c-92.9,5.3-688.6,35.1-748.6-62.8c-40.1-65.4,99.8-182,213.3-262
			c-152.9,74.4-303.4,163.5-311.4,228.9c-16.6,134.8,377.3,208.8,588.5,194.6c211.1-14.2,282.1-19.5,282.1-19.5s9.8-22.2-8.9-55.9
			C2106.5,2724.2,2101.3,2716.3,2095.6,2708.3z"/>
		<path class="st6" d="M2110.5,2180.6c62.1-12.4,192.5,53.2,192.5,53.2s287.5,212.3,420,337.8c27.6,26.1,48.5,48.5,58.7,64.4
			c59.1,92.3,62.7,216.5-162.1,231.8c-224.7,15.4-582.3-223.3-582.3-223.3l-122.9-33.4l-82.6-22.5"/>
		<path class="st2" d="M2020,2498.2c0,0-137.2,3-274.4,25.6c57-56.9,231.8-146.2,352.4-116.1c120.6,30.2,58.4,136,58.4,136
			S2066.2,2495,2020,2498.2z"/>
		<path class="st2" d="M2619.7,2867.8c-224.7,15.4-582.3-223.3-582.3-223.3l-122.9-33.4c34.5-8.5,103.6-6.8,240.3,43.8
			c246,91.1,473.1,217.6,602.1,131.3c37.9-26,45.8-83.9-33.9-214.6c27.6,26.1,48.5,48.5,58.7,64.4
			C2840.9,2728.2,2844.5,2852.4,2619.7,2867.8z"/>
		<path class="st2" d="M1920.5,1785.4c0,102.1,8.2,204.2,7.8,306.3c35.3,2.2,72.9,0.9,82.3-13.1c11.1-16.5,8.2-200.9-3.8-355.1
			c-19.6,10.8-39.9,20.9-58.9,32C1935.4,1760.5,1920.5,1772.9,1920.5,1785.4z"/>
		<path class="st1" d="M1983.4,1507.6c0,0-118.3,47.3-139.6,136c-21.3,88.7,15.4,440,15.4,440s33.4,5.8,69.1,8.1
			c0.4-102.1-7.8-204.2-7.8-306.3c0-12.4,14.9-24.9,27.4-29.9c19-11.1,39.3-21.2,58.9-32C1998.3,1615,1999,1516.8,1983.4,1507.6z"/>
		<path class="st6" d="M2211.7,2044.2c57.2-17.4,94.6-67.2,114.5-122c7.5-19.9,10-44.8,19.9-64.7c5-7.5,5-17.4,5-27.4
			c2.5-5,10-7.5,10-10c7.5-32.4,27.4-62.2,17.4-94.6c-5.4-16.1-8.8-32.3-11.6-48.5c-47.3-52-62.9-139.2-33.7-229.3
			c-28.4-2.7-56.8-0.4-56.8-0.4s-263.5,24.7-299.6,60.8c31.9,26,29.9,159.1-45,257.3c0,0,2.2,109.5,13.4,219.7
			C2018.5,2046.2,2115.9,2072.7,2211.7,2044.2z"/>
		<path class="st6" d="M2400.9,1705.1c-12.7-7.5-24.1-17-34.1-28c2.8,16.3,6.2,32.4,11.6,48.5c10,32.4-10,62.2-17.4,94.6
			c0,2.5-7.5,5-10,10c0,10,0,19.9-5,27.4c-10,19.9-12.4,44.8-19.9,64.7c-19.9,54.8-57.2,104.5-114.5,122
			c-95.8,28.5-193.2,2-266.4-59.1c9.3,92,24.5,190.2,48.7,241c197.5,83.4,424.6,38.4,471.9,7.7
			C2513.3,2203.1,2406.2,1726.9,2400.9,1705.1z"/>
		<g>
			<polygon class="st3" points="1996.4,2327.3 2307.5,2386.4 2703.7,2142.7 2431.7,2092.5 			"/>
			<path class="st1" d="M2131.7,2338.5l-135.3-11.2c0,0,420.2-227.4,423.7-229.2c3.5-1.8,115,13.5,115,13.5L2131.7,2338.5z"/>
			<path class="st1" d="M2067.4,2579.2c0-7.1-71-251.9-71-251.9l311.1,59.1l26.6,259L2067.4,2579.2z"/>
			<polygon class="st1" points="2703.7,2142.7 2703.7,2386.4 2334.1,2645.4 2307.5,2386.4 			"/>
			<polygon class="st1" points="2193.9,2297.7 2307.5,2386.4 2703.7,2142.7 2596.1,2092.5 			"/>
			<polygon class="st3" points="2342.1,2413.9 2350,2503.5 2444.1,2444.1 2437.9,2350 			"/>
			<polygon class="st3" points="2354.9,2531 2444.1,2470.2 2444.1,2492.9 2354.9,2553.2 			"/>
		</g>
		<path class="st2" d="M1711.4,1934.7c-7.9,2.6-16.4,7.3-22.8,13.8c12,13.1,24,22.8,24,22.8s53.6-3.6,90-9.3
			C1778.5,1940.2,1748.3,1927,1711.4,1934.7z"/>
		<path class="st1" d="M1835.5,1951.7c-1.8-11.1-33.3-61.2-71.9-71.9c-38.6-10.6-78.1-11.5-96.3,14.2c-10.3,14.6,5.6,37.4,21.3,54.4
			c6.3-6.4,14.9-11.1,22.8-13.8c36.9-7.7,67.1,5.5,91.3,27.3C1821.8,1959,1836.1,1955.5,1835.5,1951.7z"/>
		<path class="st2" d="M1981.8,2193.8l-69.3-234.3c-3.5-11.8-14.8-19.5-27-18.4l-344.8,30.7c-16.7,1.5-27.5,18.2-22.1,34.1
			l83.1,242.5c3.9,11.5,15.4,18.7,27.4,17.3l331-38.9C1975.9,2224.9,1986.3,2209.1,1981.8,2193.8z"/>
		<path class="st1" d="M1970.2,2197.4l-66.9-222.5c-3.4-11.2-14.3-18.5-26.1-17.5l-332.9,29.2c-16.1,1.4-26.6,17.3-21.4,32.4
			l80.3,230.3c3.8,10.9,14.8,17.7,26.5,16.4l319.6-37C1964.6,2226.9,1974.6,2212,1970.2,2197.4z"/>
		<path class="st4" d="M1719.3,2095.4l-8,25.3c-1.9,5.9,1.8,12.2,7.9,13.3l39.2,7.6c9.9,1.9,16.5-10,9.5-17.4l-31.2-32.9
			C1731.3,2085.6,1721.7,2087.8,1719.3,2095.4z"/>
		<path class="st2" d="M2191.3,1561.4c0,0-13.3,53.2-72.7,59.4c-59.4,6.2-81-59.4-81-59.4S2111.4,1674.8,2191.3,1561.4z"/>
		<path class="st2" d="M2267.5,1625.2c0,0-13.3,139.3-80.7,150.8c-67.4,11.5-103.8-39-103.8-39s67.8,51,109.4,26.2
			C2234,1738.4,2267.5,1625.2,2267.5,1625.2z"/>
		<path class="st2" d="M2253.8,1852.4c0,0-36.9,75.4-114,74.5c-77.2-0.9-95.8-84.3-95.8-89.6
			C2044,1837.3,2118.6,2018.2,2253.8,1852.4z"/>
		<path class="st1" d="M1931.3,1170.5c0,0,18.9,259.6,134.3,255.5c13,29.6,30.8,84,31.3,85.8s47.3,39.6,140.8-34.9
			c-11.8-51.5-39-94.6-26.6-134.3c12.4-39.6,25.4-236.3-50.9-260.2C2083.9,1058.4,1935.8,1077.6,1931.3,1170.5z"/>
		<path class="st2" d="M2138.3,1394.6c0,0-21.9,23.1-72.7,31.3c12,30.3,12,30.3,12,30.3S2141.9,1430.1,2138.3,1394.6z"/>
		<path class="st2" d="M2013.8,1128.5c0,0,11.5,14.2-31,28.4c-42.6,14.2-49.7,129.5-32.8,186.3c13.3,39,10.6,33.7,10.6,33.7
			s-36.4-23.1-54.1-79c-17.7-55.9-34.6-173,15.1-196.1c36.4-22.2,47.9-17.7,47.9-17.7s-8.9-35.5,17.7-64.8
			c26.6-29.3,97.3-45.2,170-12.7c72.7,32.5,92.6,109.4,92.6,152s9.8,144.6-5.7,158.8c-15.6,14.2-44.4,25.3-44.4,25.3
			s16.2-47.9,5-73.2c23-1.8,31.4-54.9,7-86.7s-49.7,21.9-43.9,35.6c5.8,13.8,17.7,36.8,17.7,36.8s-0.4,14.2-16.9,4.9
			c-16.4-9.3-72.3-31.8-72.3-76.7s-28.4-59.1-50.3-45.5C2024.8,1146.8,2013.8,1128.5,2013.8,1128.5z"/>
		<path class="st1" d="M2152.7,1015.4c0,0-19.5-26.6,7.1-41.7c26.6-15.1,62.1-3.1,71.4,20.8c9.3,24,13.3,68.1-15.5,78.4
			c-9.8-19.9-9.8-19.9-9.8-19.9s10.2-36.4-10.2-48.3c-20.4-12-25.3,4.3-26.2,15.3C2158.4,1021.6,2152.7,1015.4,2152.7,1015.4z"/>
		<path class="st6" d="M2232.9,1514.1c0,0,20.7-9.5,31.3-56.8c0.6-26.6-19.5-30.8-39.3-23c2.7,27.3-34,56.7-80.7,61.4
			c-46.7,4.7-63.9-34.6-63.9-34.6s-29.6-8.6-40.2,6.2c-10.6,14.8-14.8,13.6-4.1,27.2c10.6,13.6,30.2,53.8,81,43.8"/>
		<path class="st1" d="M1890.5,2531.9c0,0-17-24.4-43.5-20.8c-65.9,9-107.3,18.1-107.3,18.1s89.6,86.9,138.4,79
			C1908.9,2553.8,1890.5,2531.9,1890.5,2531.9z"/>
	</g>
	<path class="st2" d="M1696.2,486.1l-7.5,533.8l-839,53.7c4-14.5,8.5-29.2,13.4-44.1c36.7-111.1,100.1-232.7,213.1-339.3
		c47.6-44.9,256.8-242.2,518.1-223.5c20.7,1.5,39.5,4.2,57.2,7.8C1667.1,477.7,1681.9,481.6,1696.2,486.1z"/>
	<path class="st1" d="M1651.4,474.4l-7.1,505.1l-781.3,50c36.7-111.1,100.1-232.7,213.1-339.3c47.6-44.9,256.8-242.2,518.1-223.5
		C1614.9,468.1,1633.8,470.8,1651.4,474.4z"/>
	<g>
		<polygon class="st1" points="2998.8,1918.1 2829.8,2087 3589.5,2184.3 3718.8,2005.8 		"/>
		<polygon class="st1" points="2821.4,2391.7 3285.1,2503.5 3613.3,2543.7 3705.6,2338.5 3347.2,2273.8 		"/>
		<polygon class="st1" points="2821.4,2391.7 2829.8,2087 3589.5,2184.3 3530.3,2494.9 		"/>
		<polygon class="st2" points="3718.8,2005.8 3662.7,2326.3 3530.3,2494.9 3589.5,2184.3 		"/>
		<polygon class="st1" points="2996.8,1816 2996.1,1989 3180.3,2122.4 3202.5,1951.3 		"/>
		<polygon class="st1" points="3386.8,1784.4 2996.8,1816 3202.5,1951.3 3619.9,1902 		"/>
		<polygon class="st1" points="3180.3,2122.4 3422.3,2122.4 3677.8,2062.4 3591.6,2020.9 		"/>
		<polygon class="st2" points="3591.9,2061.9 3619.9,1902 3202.5,1951.3 3180.3,2122.4 		"/>
		<polygon class="st3" points="2884.7,2142.7 3030.2,2162.8 3023.1,2250.4 2878.9,2239 		"/>
		<polygon class="st1" points="2875.2,2260.4 3019.8,2279.1 3019.8,2299.5 2874,2277.6 		"/>
		<polygon class="st1" points="2875.2,2299.5 3019.8,2318.1 3019.8,2338.5 2874,2316.6 		"/>
		<polygon class="st1" points="2875.2,2338.5 3019.8,2357.1 3019.8,2377.5 2874,2355.6 		"/>
		<polygon class="st3" points="3435.9,1951.3 3596.7,1934.6 3593.6,1951.3 3432.6,1968.3 		"/>
		<polygon class="st1" points="3430.8,1982.3 3591.6,1965.6 3588.5,1982.3 3427.4,1999.4 		"/>
		<polygon class="st1" points="3425.7,2013.3 3586.5,1996.6 3583.4,2013.3 3422.3,2030.4 		"/>
	</g>
	<path class="st1" d="M2513.9,1638.2c-23.7-162-135.4-193.5-180.7-190.4c-58.5,187.2,67.7,257.3,67.7,257.3
		c17.7,68.6,2.4,367.9-30.2,387.4c-32.5,19.6-265-7.1-302.2-12.5c-74.4-8.2-81.7-88.8-145.5-77.5l5.3,19.5c0,0,4.1,4.1,7.7,22.5
		c3.5,18.3-43.2,5.9-74.5-10.1c-31.3-16-33.7,7.7-29.6,47.3c0.5,49.9,23.4,48.4,72.6,60.9c50.5,13.2,95.6,8.3,140.3,0
		c45.3,2.3,286.7,111.1,381.1,66.7C2582,2137.5,2528.5,1774,2513.9,1638.2z"/>
	<path class="st2" d="M2148.9,2156.6c-70.7-24-90.7-35.5-177.6-24c-50.4,6.7-102.2-12.6-137-29.9c0.8,4.7,1.8,8.7,3.7,12.1
		c2.5,4.6,6.3,8.4,12.7,11.7c10.1,5.3,26.6,9.9,53.8,16.1c18.1,4.1,33.6,6.5,47.2,7.6c0,0,0.1,0,0.1,0c0.1,0,0.2,0,0.3,0
		c28.5,2.4,48.7-0.6,68.1-3.8c8.2-1.4,16.3-2.8,24.7-3.8c24.1-3,126.3,44.9,229.2,66.4c53.9,11.2,108,15.2,151.1,0.7
		c0.3-0.1,0.6-0.2,0.9-0.3c1.7-0.6,3.4-1.2,5.1-1.8c2-0.8,3.9-1.6,5.8-2.4c58.8-26,84.9-122.2,93.2-233.9
		C2499.2,2308.3,2219.6,2180.6,2148.9,2156.6z"/>
	
		<ellipse transform="matrix(0.7071 -0.7071 0.7071 0.7071 205.41 2754.3086)" class="st1" cx="3427.4" cy="1129.2" rx="109.2" ry="109.2"/>
	<circle class="st1" cx="474" cy="2902.5" r="192.8"/>
	
		<ellipse transform="matrix(0.1602 -0.9871 0.9871 0.1602 -1975.9851 4171.5107)" class="st2" cx="1463.5" cy="3247" rx="56.8" ry="56.8"/>
	<circle class="st2" cx="3030.4" cy="3296.4" r="119.9"/>
</g>
</svg>
