<?xml version="1.0" encoding="utf-8"?>
<!-- Generator: Adobe Illustrator 22.0.0, SVG Export Plug-In . SVG Version: 6.00 Build 0)  -->
<svg version="1.1" id="Layer_1" xmlns="http://www.w3.org/2000/svg" xmlns:xlink="http://www.w3.org/1999/xlink" x="0px" y="0px"
	 viewBox="0 0 4000 4000" style="enable-background:new 0 0 4000 4000;" xml:space="preserve">
<style type="text/css">
	
		.Graphic_x0020_Style_x0020_22{fill:#8E9DF4;stroke:#1A1A1A;stroke-width:2;stroke-linecap:round;stroke-linejoin:round;stroke-miterlimit:10;}
	
		.Graphic_x0020_Style_x0020_27{fill:#1A1A1A;stroke:#1A1A1A;stroke-width:2;stroke-linecap:round;stroke-linejoin:round;stroke-miterlimit:10;}
	
		.Graphic_x0020_Style_x0020_26{fill:#FFFFFF;stroke:#1A1A1A;stroke-width:2;stroke-linecap:round;stroke-linejoin:round;stroke-miterlimit:10;}
	
		.Graphic_x0020_Style_x0020_21{fill:#5067EF;stroke:#1A1A1A;stroke-width:2;stroke-linecap:round;stroke-linejoin:round;stroke-miterlimit:10;}
	
		.Graphic_x0020_Style_x0020_32{fill:none;stroke:#FFFFFF;stroke-width:2;stroke-linecap:round;stroke-linejoin:round;stroke-miterlimit:10;}
	.st0{fill:none;stroke:#FFFFFF;stroke-width:3;stroke-linecap:round;stroke-linejoin:round;stroke-miterlimit:10;}
	.st1{fill:#8E9DF4;stroke:#1A1A1A;stroke-linecap:round;stroke-linejoin:round;stroke-miterlimit:10;}
	.st2{fill:none;stroke:#1A1A1A;stroke-width:2;stroke-linecap:round;stroke-linejoin:round;stroke-miterlimit:10;}
	.st3{fill:#1A1A1A;stroke:#1A1A1A;stroke-width:2;stroke-linecap:round;stroke-linejoin:round;stroke-miterlimit:10;}
	.st4{fill:none;stroke:#FFFFFF;stroke-width:2;stroke-linecap:round;stroke-linejoin:round;stroke-miterlimit:10;}
	.st5{fill:#FFFFFF;stroke:#1A1A1A;stroke-width:2;stroke-linecap:round;stroke-linejoin:round;stroke-miterlimit:10;}
</style>
<g>
	<path class="Graphic_x0020_Style_x0020_26" d="M356.4,2350.2c57.8,174.6,245.9,179.6,592.7,379.1
		c535.1,307.9,515.6,542.5,768.9,550c376.7,11.2,477.9-506,918.4-518c306.9-8.4,411.5,238.3,640.8,165.5
		c233.1-74,405.5-418,347.1-688.9c-25.4-117.6-102.5-259.8-843.7-646.1c-622.2-324.4-933.3-486.6-1185.4-464.6
		c-586.4,51.1-941.2,540.2-1041.3,678.2C441.3,1960.9,294.5,2163.2,356.4,2350.2z"/>
	<g>
		<path class="Graphic_x0020_Style_x0020_27" d="M3153.8,2324.6c-10.3-82-19.1-151.5,19.2-182c2.3-1.8,25.8-19.9,53.9-13.2
			c28.3,6.8,41.1,34,43.1,38.3c-14-86.4,3.4-152.4,37.1-164c14.6-5,37.3-1.6,53.9,12c24,19.8,22.9,51.1,22.7,55.1
			c3.6-23.4,19.8-112.9,83.8-143.7c12.7-6.1,37-17.8,56.3-6c22,13.5,20.5,47.6,20.4,50.3c31.8-57.4,79.8-85.4,112.5-74.2
			c14.8,5.1,27.9,18.7,32.3,34.7c7.8,28.6-12.2,65.1-52.7,85c23.6-1.3,45,8.1,55.1,25.1c16.3,27.6-6,60.6-9.6,65.8
			c-22.4,33.1-70.9,46.6-123.3,37.1c43,34.3,63.1,75.8,51.5,104.1c-7.5,18.4-26.6,26.8-47.9,35.9c-21.6,9.2-65.6,23.7-128.1,14.4
			c38.3,20.3,64.2,48.9,61.1,74.2c-4.3,33.9-59,48.6-100.6,59.9c-30.3,8.2-167.5,45.1-220.3-22.7
			C3162.8,2396.2,3159.8,2372.4,3153.8,2324.6z"/>
		<path class="st0" d="M3049.5,2443.4c29.7,17,67.5,11.2,98.9-2.6c58.8-25.9,103.1-76.2,139.9-128.9
			c36.8-52.6,68.4-109.3,111.9-156.6c41.1-44.8,91.6-79.7,136.3-120.9c33.7-31,64.2-65.6,90.8-102.9"/>
		<path class="st0" d="M3216.3,2215.9c34.8,54.4,45.8,116.5,10.4,170.4"/>
		<path class="st0" d="M3259.2,2351.5c45-22.9,134.3,16.2,180.6,9.4"/>
		<path class="st0" d="M3328.9,2251.1c19.3-56.8,5.8-109.8,9.7-158.3"/>
		<path class="st0" d="M3482.6,1983c-4,43.7-15.4,86.8-33.5,126.8"/>
		<path class="st0" d="M3500.8,2065.9c41.3-15.3,87.8-16.3,129.8-2.8"/>
		<path class="st0" d="M3362.6,2201.8c46.3-23.1,100.5-25.7,148.8-7.1"/>
	</g>
	<g>
		<path class="st1" d="M3323,2615.3c90.8,73.5,104.6,117.2,145.5,118c25.5,0.5,55.6-15.9,63.2-41.7c9.4-31.9-20.4-61.9-21.9-63.3
			c88.7,63.2,172,76.3,200.8,45.2c13.6-14.8,22.4-47.5,11.6-77c-8.5-23-25.8-35.8-33.4-40.7c100.3,18.9,177.1,8.6,190-24.8
			c5-13.1,3.8-38.9-11.7-57.8c-12.6-15.3-29.7-20-36.9-21.6c64.2-4.6,104.4-45.2,102.2-79.1c-1.3-21.1-19.1-40.8-39.3-49.2
			c-28.1-11.8-62.8-2.5-84.8,24.1c1.3-2.8,19.9-45.9,0.2-69.2c-21.5-25.4-74.3-10.8-103.6,12.1c-29.1,22.7-37.1,55.3-39.4,67
			c1.2-4.8,11.7-51.3-13.7-74.2c-34.8-31.4-103.5,12.2-107.8,15c-62.1,40.4-70.1,118.4-71.4,134.2c-13.4-47.5-46.5-79.6-79.4-80
			c-41.2-0.5-66.7,48.8-80.5,75.6c-33.8,65.4-24.4,132.7-16.7,166.4C3301.9,2598.8,3311.5,2606,3323,2615.3z"/>
		<path class="st2" d="M3870.4,2375.9c-59.5,17.3-116.9,42.2-170.2,73.7c-76.8,45.5-147.5,105.8-234.1,127.6
			c-26.4,6.7-53.5,9.5-80.6,12.3c-30.9,3.2-62.3,6.4-92.8,0.2c-28.2-5.8-54.4-19.6-76.9-37.5"/>
		<path class="st2" d="M3366.4,2592.5c3.8-2.1,6.6-5.6,9-9.3c14-21.6,15.6-48.9,15-74.6c-0.6-25.8-2.8-52.2,4.8-76.8"/>
		<path class="st2" d="M3584.4,2524.4c20.5-22.6,23.9-55.7,24.7-86.2c0.8-30.6,0.7-62.9,16.4-89.1"/>
		<path class="st2" d="M3675.5,2465.7c13-10.4,32.2-8.6,47.3-1.6c15.1,7,27.6,18.4,42,26.8c14.4,8.4,32.3,13.7,47.5,7.1"/>
		<path class="st2" d="M3736.7,2429.9c4.6-2.2,9.2-4.5,12.9-8c5.4-5.3,8-12.8,9.9-20.2c3.8-15.2,5-30.9,8.4-46.2
			c3.4-15.3,9.2-30.6,20.3-41.6"/>
		<path class="st2" d="M3500.5,2567.3c12.2-2.1,24.6-4.2,36.9-3.2c23.7,1.9,44.8,15,65.4,26.8s43.3,23.1,66.9,21"/>
		<path class="st2" d="M3470.8,2655.4c-1.6-17-9-33.3-20.7-45.7c-11.7-12.3-27.7-20.6-44.6-23"/>
	</g>
	<g>
		<path class="Graphic_x0020_Style_x0020_26" d="M613,2305.8c-8-104.5,11.9-140.4-12.7-167.5c-15.4-16.9-44.6-26.5-66.1-15.5
			c-26.6,13.5-27.8,51.4-27.8,53.3c-13.5-96.7-56.3-159.1-94.2-158.7c-18,0.2-44.8,14.7-57.3,39.9c-9.8,19.7-7.4,38.8-5.9,46.8
			c-49.4-77-103.5-120.7-133.2-108.5c-11.6,4.8-27.7,21.5-30.4,43.3c-2.2,17.7,5.3,31.7,8.7,37.3c-42.5-39-93.7-40.2-114.5-17.9
			c-12.9,13.9-14.8,37.6-7.9,55.9c9.7,25.6,37.1,42.5,68,40.4c-2.6,0.9-42.2,15.3-45.2,42.5c-3.3,29.6,38.8,55.1,71.7,60.1
			c32.8,5,58.9-9.9,67.9-15.6c-3.9,2.2-40.6,24-39.9,54.7c1,42.1,71.7,59.9,76.2,61c64.6,15.6,120.3-27.3,131.4-36.1
			c-22.7,38-23.2,79.4-3.2,101c25,27.1,72.9,13.4,98.9,5.9c63.5-18.2,101.5-65.9,118.7-91.6C615.2,2329.7,614,2319,613,2305.8z"/>
		<path class="st2" d="M119.7,2096.6c48,28.1,99.5,50.2,152.9,65.5c77,22,159.8,30.9,227.4,73.9c20.6,13.1,39.2,29,57.7,44.9
			c21.1,18.1,42.6,36.6,57.3,60.3c13.6,21.9,20.8,47.5,22.9,73.3"/>
		<path class="st2" d="M572,2293.2c-3.7-1.2-68.1,1.9-103,84.8"/>
		<path class="st2" d="M392.7,2191.5c-27.4,0.6-51,18.8-71.4,37c-20.4,18.3-41.4,38.3-68.2,44.2"/>
		<path class="st2" d="M298.3,2168.2c-14.8-2-25.5-15.7-30.2-29.9s-5-29.4-8.4-43.9c-3.4-14.5-11-29.4-24.7-35.4"/>
		<path class="st2" d="M237.3,2150.4c-4.3-1.6-8.6-3.2-13.1-3.4c-6.8-0.3-13.3,2.7-19.2,6c-12.2,6.9-23.2,15.8-35.3,23
			s-25.6,12.9-39.6,12.4"/>
		<path class="st2" d="M472.4,2219.7c-8.9-6.7-17.9-13.4-24.8-22.1c-13.3-16.6-17.8-38.4-22.9-59.1c-5-20.7-11.6-42.4-27.6-56.5"/>
		<path class="st2" d="M548,2184.8c-10.1,11.5-16.2,26.4-17,41.6c-0.8,15.3,5.6,31.5,14.4,44"/>
	</g>
	<path class="st3" d="M2798.4,2110.8v-637.2l-187.3-80.6v642.6c0,0-171.1,0-193.1,0s0-423.5,0-423.5H2205v352.2h-166.3v-383.9h-21.6
		v-25.9H1939v-65.4h-26v38.9h-27.4l-4.2,26.5h-39.9l-2.4,25.9h-33.5v455.1h-258.5v-281h-219.7v193.9h-127.8v-87.1l-5.7-43.5
		l-120.2-18.7l-2.3,62.2h-69.9v174.1l-194.2,11.9v106.9h2184.2v-43.5H2798.4z"/>
	<line class="Graphic_x0020_Style_x0020_32" x1="1020.5" y1="1885.6" x2="1126.7" y2="1885.6"/>
	<line class="Graphic_x0020_Style_x0020_32" x1="1020.5" y1="1929.6" x2="1126.7" y2="1929.6"/>
	<line class="Graphic_x0020_Style_x0020_32" x1="1020.5" y1="1973.7" x2="1126.7" y2="1973.7"/>
	<line class="Graphic_x0020_Style_x0020_32" x1="1020.5" y1="2017.8" x2="1126.7" y2="2017.8"/>
	<line class="st4" x1="2776" y1="1539.4" x2="2699.7" y2="1539.4"/>
	<line class="st4" x1="2776" y1="1593.1" x2="2699.7" y2="1593.1"/>
	<line class="st4" x1="2776" y1="1646.8" x2="2699.7" y2="1646.8"/>
	<line class="st4" x1="2776" y1="1700.5" x2="2699.7" y2="1700.5"/>
	<line class="st4" x1="2776" y1="1754.3" x2="2699.7" y2="1754.3"/>
	<line class="st4" x1="2776" y1="1808" x2="2699.7" y2="1808"/>
	<line class="st4" x1="2776" y1="1861.7" x2="2699.7" y2="1861.7"/>
	<line class="st4" x1="2776" y1="1915.4" x2="2699.7" y2="1915.4"/>
	<line class="Graphic_x0020_Style_x0020_32" x1="1874.9" y1="1638.3" x2="2013.7" y2="1638.3"/>
	<line class="Graphic_x0020_Style_x0020_32" x1="1874.9" y1="1689.3" x2="2013.7" y2="1689.3"/>
	<line class="Graphic_x0020_Style_x0020_32" x1="1874.9" y1="1740.4" x2="2013.7" y2="1740.4"/>
	<line class="Graphic_x0020_Style_x0020_32" x1="1874.9" y1="1791.5" x2="2013.7" y2="1791.5"/>
	<line class="Graphic_x0020_Style_x0020_32" x1="1874.9" y1="1842.5" x2="2013.7" y2="1842.5"/>
	<line class="Graphic_x0020_Style_x0020_32" x1="1874.9" y1="1893.6" x2="2013.7" y2="1893.6"/>
	<line class="Graphic_x0020_Style_x0020_32" x1="1874.9" y1="1944.6" x2="2013.7" y2="1944.6"/>
	<g>
		<path class="st5" d="M1074.4,2129.7l-343.1,486.8c-123.1-57.7-215.5-93.3-279.9-139.9l355.5-346.9H1074.4z"/>
		<path class="st5" d="M1505.9,2129.7l-260.6,802.6c-75.2-62.3-170.4-130.6-296.2-203c-81.2-46.7-153.7-82.8-217.8-112.8
			l343.1-486.8H1505.9z"/>
		<path class="st5" d="M1936,2129.7l-15.1,1098.4c-59.5,33.4-125.4,53.5-202.9,51.2c-193.8-5.7-227.9-144.3-472.7-347l260.6-802.6
			H1936z"/>
		<path class="st5" d="M2523.8,2776.5c-269.7,67.2-399.5,337.4-602.9,451.6l15.1-1098.4h429.1L2523.8,2776.5z"/>
		<path class="st5" d="M3169.5,2939.1c-162.9-16-278.3-184.7-533-177.8c-40.2,1.1-77.6,6.4-112.7,15.2l-158.7-646.8h428.3
			L3169.5,2939.1z"/>
		<path class="Graphic_x0020_Style_x0020_26" d="M2310.4,2426.9c-159.7,0-298.8,38.4-371.4,95.2c-49.6-78.3-214.2-135.8-409.6-135.8
			c-234.7,0-425,82.9-425,185.2c0,102.3,190.3,185.2,425,185.2c159.7,0,298.8-38.4,371.4-95.2c49.6,78.3,214.2,135.8,409.6,135.8
			c234.7,0,425-82.9,425-185.2S2545.1,2426.9,2310.4,2426.9z"/>
		<path class="st5" d="M3498.2,2757c-60.4,81.1-136.7,143.1-221,169.9c-39,12.4-74.4,15.5-107.8,12.2l-376.1-809.5h206.1
			L3498.2,2757z"/>
	</g>
	<g>
		<polygon class="st5" points="2523.4,1738.3 2699.7,1854.4 2758.4,1845.1 2588.9,1738.3 		"/>
		<path class="Graphic_x0020_Style_x0020_22" d="M2523.4,1738.3L2457,1935c0,0,216.5,180.7,213,174.4c-3.5-6.2,29.6-255,29.6-255
			L2523.4,1738.3z"/>
		<polygon class="Graphic_x0020_Style_x0020_26" points="2670,2109.4 2758.4,2090.7 2758.4,1845.1 2699.7,1854.4 		"/>
	</g>
	<path class="st5" d="M2597.1,1732.1l53,28.9c0,0,9.3,17.4,3.1,39.2c5.3,12,26.3,13.8,26.3,13.8s13.9-54.4-3.3-69.2
		c-17.2-14.9-62.1-32.2-62.1-32.2L2597.1,1732.1z"/>
	<path class="st5" d="M2598.4,1668c0,0-10.2,22.7-12.4,45.8s26.2,41.2,44.5,38c-0.4-1.6-9-5.3-9.2-6.6c-0.8-6.9-1-7-1-7
		s12.9-11.1,29.8-9.3c16.2,7.7,26.1,19.3,30,18.6c3.3-0.6,1.8-15.5,2.8-19.1c1.4-4.9-4.7-16.3-11-26.7
		c-16.5-27.1-30.3-36.4-30.3-36.4L2598.4,1668z"/>
	<g>
		<path class="Graphic_x0020_Style_x0020_27" d="M2216.4,2387.1c0,0-32.9,51.6-36.5,87.2c-3.6,35.6,30.3,58.7,55.2,57
			s47.2-108.6,49.8-112.1c2.7-3.6-15.1-42.7-15.1-42.7"/>
		<path class="Graphic_x0020_Style_x0020_27" d="M2352.5,2584.7c0,0-24.7,67.7-24.4,75.9c0.3,8.2,12.3,59.4,12.3,59.4
			c0,20.6,81.2,21.9,90.3,0c0.8-1.8,19.6-20.4,19.6-45.4c0-25-27.6-85.4-27.6-85.4"/>
		<path class="Graphic_x0020_Style_x0020_26" d="M2150.4,1683.5c0,0-17.8,193.2,2.4,348.1c11,84,50.9,370,50.9,370s79.4,28,80.8-10
			c33.4-432.5,61.5-765.6,61.5-765.6l-22.7-96.1l-130.2-18"/>
		<path class="Graphic_x0020_Style_x0020_26" d="M2310.4,1769l33.4,830.8c33.5,14.8,65.3,17.2,94.1,0c0,0,64-546,73.7-754.8
			c7.6-163.2-43.3-319.2-43.3-319.2l-157.9,7.9"/>
		<path class="Graphic_x0020_Style_x0020_27" d="M2213.5,1576.8c0,0,110.4,39.4,208.3-4.1c-10.2-14.1-10.2-14.1-10.2-14.1
			l-165.1-19.1L2213.5,1576.8z"/>
		<polygon class="st5" points="1369.2,1679.5 1391.4,1936.4 1193.8,2072.6 1216,1782 		"/>
		<polygon class="st5" points="1156.5,1768.2 1216,1782 1401.7,1657.8 1353.1,1645.5 		"/>
		<path class="st5" d="M1307.1,1633.4c0,0,18.5-7.3,26.5-4.4c8,2.9,19.1,23.4,20.7,38c-3.1,14.2-17.6,14-24.7,10.7
			c-2.2-24.3-3.6-23.8-3.6-23.8l-13.6,2.8L1307.1,1633.4z"/>
		<path class="Graphic_x0020_Style_x0020_27" d="M1470.8,2328.8c2.8,13.2,6.4,22.5,6.5,36.4c0.1,16.9,0.2,33.8,0.3,50.7
			c0.1,13.8-0.3,29-9.3,39.5c-12.5,14.6-37.8,14.3-55.3,14.6c-10.7,0.2-19.8-11.8-23.6-21.8c-13.6-36.1-4.4-109.6-1.4-114
			L1470.8,2328.8z"/>
		<path class="Graphic_x0020_Style_x0020_26" d="M1550.3,1638.3c0,0-73.4,511.7-68.7,695.9c-31.4,32-99.5,16-99.5,16
			s-46.7-356.4-53.3-436.5c-6.7-80.1,40.9-380.9,40.9-380.9l19.1-65l184.2,12.7"/>
		<path class="Graphic_x0020_Style_x0020_27" d="M1674.3,2451c0,0,5.9,24,10.8,44.4s0.8,79.8-8.6,99.6s-26.4,35-35.2,39.2
			c-8.8,4.2-41.5,5.8-56.1-3.6c-14.6-9.4-8.1-41.1-8.1-61.5c0-20.4,24-121.7,24-121.7L1674.3,2451z"/>
		<path class="Graphic_x0020_Style_x0020_26" d="M1557.4,1467.8l203.5,20c-6.4,2.7-33,487.3-35.7,496.6
			c-2.7,9.3-36.1,473.9-36.1,473.9c-28.7,18.7-67.7,12.5-109.4,0l-13.7-650.5l-21-169.5"/>
		<path class="Graphic_x0020_Style_x0020_27" d="M1391.4,1509.9c0,0,132.2,86.1,304.7,60.1c-12.4-48.7-12.4-48.7-12.4-48.7
			l-251-56.7L1391.4,1509.9z"/>
		<path class="Graphic_x0020_Style_x0020_26" d="M1589,981.9l-115.8-6.3l-60.4,523c0,0,204.7,104.1,315.3,14.7
			c14.5-293.7-5.6-489.9-5.6-489.9S1619.6,983.3,1589,981.9z"/>
		<path class="st3" d="M1725.1,771.2c0,0,10.9,44.9-2.9,57.5c-20.5-19.1-20.5-19.1-20.5-19.1l-5.6-25.4L1725.1,771.2z"/>
		<path class="Graphic_x0020_Style_x0020_26" d="M1709.6,764.7c-79.2-48.9-146,24.9-150.4,90.8c-1.5,22.5,6.6,43.1,18,60.5l-7,74.5
			c0,0,1,49.2,53.5,48.8c52.5-0.4,38.7-40.5,38.7-40.5l0.6-23.7c8.3-0.6,18.8-1.8,32.4-3.9C1759.4,961.4,1709.6,764.7,1709.6,764.7z
			"/>
		<path class="st3" d="M1630.4,958.7c0,0,16.6,15.6,33,16.8c-1.2,7.7-1.2,7.7-1.2,7.7S1630.5,969.3,1630.4,958.7z"/>
		<path class="Graphic_x0020_Style_x0020_21" d="M1719.4,1022.1c0,0,105.3,43.3,108.6,108.7c3.3,65.4,16,227.6,16,227.6l-65.4,86.8
			c0,0-46.5-185.5-50.5-295C1724,1040.6,1719.4,1022.1,1719.4,1022.1z"/>
		<path class="Graphic_x0020_Style_x0020_21" d="M1839.7,1303c0,0,35.6-9.6,55.8-43.8c32.2-11.1,58.8,39.3,58.8,39.3
			s-53.2,184.5-139.7,174.6c-56.7-2.1-53.7-105.1-53.7-105.1"/>
		<path class="Graphic_x0020_Style_x0020_27" d="M1901.3,1265.8c0,0-18.4,19,10.3,37.4c28.7,18.4,41.6,1.6,31.2-11.2
			C1932.3,1279.2,1909.6,1263.1,1901.3,1265.8z"/>
		<path class="Graphic_x0020_Style_x0020_26" d="M1905.4,1262.5c0,0-1.8-84.8,7.1-91.5c8.9-6.7,9.3,39.2,14.7,41.4
			c5.3,2.2,41.4-52.5,52.1-73c10.7-20.5,27.6,24.5,8.9,67.2c-18.7,42.7-48.9,91.2-48.9,91.2
			C1915.6,1301.6,1905.8,1287.9,1905.4,1262.5z"/>
		<path class="Graphic_x0020_Style_x0020_21" d="M1794,1069.4l-37-28.9l-66.1-29.2c0,0-62.9,333.7-75.9,393.4
			c-13.1,59.6-37.1,245.6,17.2,257.2c54.3,11.6,157.8-7.7,149.5-46.3c-13.9-64.6-24.3-262.2-4.6-348"/>
		<path class="Graphic_x0020_Style_x0020_21" d="M1349.3,1566.6c0,0,5.4,64.7,57.4,71.4c52.1,6.7,92.4-127.4,102.1-201.6
			c12-91.4,27.4-459.8,27.4-459.8l-66.1-1.8l-51.9,47.2c0,0,7.2,207.5-2.2,272.9C1406.8,1360.4,1348,1551.3,1349.3,1566.6z"/>
		<path class="Graphic_x0020_Style_x0020_26" d="M2381.7,997.8c0,0,32.8,8,57.2,16.7c44,15.6,92.7,38.3,100.1,55.5
			c11.6,26.7-87.7,311.7-57.6,463.9c-138.2,94.1-302.4,15.6-302.4,15.6l25.3-502.1l89.5-42.4L2381.7,997.8z"/>
		<path class="st5" d="M2343.5,1053.5c0,0-25.4,300.8-16.2,526.7"/>
		<path class="Graphic_x0020_Style_x0020_26" d="M2382.2,903.9c3.4-13.8,4.9-29.9,4-48.5c-5.3-107.7-142.6-118.4-148.3-32.7
			c0,0-17.7,147.2,30,154.8c6.8,1.1,14.2,1.6,21.9,1.3v54.6c0,0,24.9,20.9,53.6,20.2c28.7-0.7,50.7-39,50.7-39L2382.2,903.9z"/>
		<path class="Graphic_x0020_Style_x0020_27" d="M2318.3,970.5c0,0-17.1,6.9-28.5,8.2c0.4,12,0.4,12,0.4,12
			S2319.3,977.8,2318.3,970.5z"/>
		<path class="Graphic_x0020_Style_x0020_21" d="M2432.8,1012.4c-4-0.9,5.2,138.4-17.5,269.5s-73.8,420.8-11.1,436.8
			c62.7,16,135.8-43.4,135.8-43.4s-41.9-206.2-36.5-283.6c5.3-77.4,39.6-318.2,20.9-338.2
			C2505.7,1033.5,2432.8,1012.4,2432.8,1012.4z"/>
		<path class="Graphic_x0020_Style_x0020_21" d="M2502.7,1228.1c0,6.4,37.3,179.6,49,252.6c12.7,79.1,19.8,196.7,39.8,196.7
			c20,0,77.2,19.8,78.5-12.2c-27.1-236.7-32.6-244.9-54.9-370.2c-24.7-121-49.3-227.1-113.1-256.5"/>
		<path class="Graphic_x0020_Style_x0020_21" d="M2217.7,1030.9c0,0-84.7,14.3-102,85.4c-17.4,71.1-72.8,261-36.2,312.2
			c56.5-43.5,95.9-110.9,95.9-110.9s-4.7-46.1,15.8-81.4C2211.3,1171.4,2217.7,1030.9,2217.7,1030.9z"/>
		<path class="Graphic_x0020_Style_x0020_21" d="M2185.7,1208.7c-1.9,42.2-4.4,86.4-7.3,123.3c-8.7,108-81.4,326-81.4,333.2
			c0,7.2,90.8,75.2,118.1,53.7c16.9-13.3,47.5-96,53.7-196.4c12.6-205.4-12-501-12-501l-62.2,15.9"/>
		<path class="st5" d="M2265,1014.5l-60.6,15.1l12.2,66.3h23l-19,29.4l44.4,196.9C2265,1322.2,2287.4,1080.1,2265,1014.5z"/>
		<path class="Graphic_x0020_Style_x0020_26" d="M1261.9,1566.6c0,0-31.1,23.7-41.5,64.8c-8,31.9-4.3,37.1,5.4,59.8
			c1.1,2.5,36.1,26.3,36.1,26.3l14-75.4c0,0,20.7,26,22,36.7c1.3,10.7,16.7,8.7,16.7,8.7s3.7-42-1.3-67.7c-3.3-17-10-49.8-10-49.8"
			/>
		<path class="Graphic_x0020_Style_x0020_21" d="M1475.9,975l-5.8-0.2c0,0-80.3,10.6-101.5,64.4c-7.6,19.3-46.3,99.6-70.1,194.3
			c-37.2,147.9-62.2,326.9-61.6,331.2c0.9,7.1,65,34.7,95.2,22.2c29.4-158.4,88.1-383.6,88.1-383.6l7.1-33.3"/>
		<path class="st5" d="M1683.5,1005.7l75.9,28.9l-31.4,76.3l-31.9-3.6l21,36.5l-86.8,184.1C1630.4,1328,1668.4,1119.2,1683.5,1005.7
			z"/>
		<path class="st5" d="M1543.6,974.9l-57.1-5l4.6,69.4l24,9.8l-39.1,20.9l42.6,250.9C1518.6,1320.9,1553.4,1019.9,1543.6,974.9z"/>
		<path class="st5" d="M1266.6,1652.1c0,0-29.2,18.6-36.7,26.3c-7.5,7.6-18.4,48.2-15.4,62.9c9.3,3.7,17.4,6.3,30.4-2.7
			c4.2-14.7,4.8-36.5,11.7-46.7c11.3-17,35.7-26.2,35.7-26.2s-10.4-20.3-13.7-20.1S1266.6,1652.1,1266.6,1652.1z"/>
		<path class="Graphic_x0020_Style_x0020_26" d="M1104.4,2055.2c0-4,52.1-287,52.1-287l59.6,13.8l-22.2,290.6L1104.4,2055.2z"/>
		<path class="Graphic_x0020_Style_x0020_27" d="M1545.3,876.9c0,0,16.8,43.9,33.6,41.8c5.6-3.9,2.5-29.3,2.5-29.3
			s-12.1-38.7,9.8-50.7c21.8-12,26.3,28.5,26.3,28.5s7.1-7.6,9.8-15.6c2.7-8-2.2-43.6,16.3-48.1c18.4-4.5,112.3,3.6,95.9-73.4
			c-19.6,1.8-45.8-7.6-71.6-9.3c-24.9-2.2-46.8,16.8-48.9,28.2C1605.9,730.9,1516.8,778.1,1545.3,876.9z"/>
		<path class="Graphic_x0020_Style_x0020_27" d="M1594.3,1028.5c0,0,10.8,9.9,16.4,10.8c-11.2,6.2-33.7,2.3-33-10.8
			C1590.8,1026.8,1594.3,1028.5,1594.3,1028.5z"/>
		<polygon class="st5" points="1559,985.5 1573,959.8 1593.4,1028.2 1568.4,1048.9 		"/>
		<path class="Graphic_x0020_Style_x0020_27" d="M1640.5,1030.8c0,0-6,6.1-13,8.5c11.5,7.3,27.9,1.8,27.9,1.8
			S1650.9,1028.2,1640.5,1030.8z"/>
		<polygon class="st5" points="1640.5,1030.8 1658,1051.8 1674.4,1004.3 1662.7,984.6 		"/>
		<path class="st5" d="M2249.6,1260.8c0,0,44.1-46.7,75.2-51.6c31.1-4.9,47.2,29.8,50.7,41.4c3.6,11.6-40.9,21.4-57,28.5
			c-16,7.1-43.6,21.4-43.6,21.4L2249.6,1260.8z"/>
		<path class="Graphic_x0020_Style_x0020_21" d="M2140.3,1323.7c0,0,96.8-70.8,109.5-74.1c12.7-3.3,44.1,40,44.1,40
			s-18.7,46.1-86.8,103.5c-68.1,57.4-120.7,62.6-134.4,22.9c-0.9-2.5-1.6-5.1-2.2-8"/>
	</g>
	<path class="st5" d="M1617.3,1039.3c0,0-34.3,451.2-53.9,506.6"/>
	<path class="st3" d="M2204.3,759.9c0,0,16.7,62.5,33.6,62.8c2.9-14,15.5-21.4,39.5-15.7c24,5.7,53.4,16.4,53.1,44.7
		c-1,15.4,5.9,24.3,5.9,24.3l9.3,1.3c0,0-0.1-32.4,20.9-25.4c21,7,5.8,35.2,5.8,35.2s-6.2,12.7-1.6,18.7c4.7,6,13.4,18.4,13.3,17.4
		c-0.1-1,12-27.4,12.3-56.8c0.3-29.4,13-101.1-35.4-119.1C2312.8,729.1,2205.6,755.2,2204.3,759.9z"/>
	<path class="st5" d="M2417.6,1003.8l50.4,17l-6.7,64.1l-25.4,5.7l24,19.4c0,0,7,124.5-53.4,223.1
		C2404.9,1283.5,2416.9,1043.2,2417.6,1003.8z"/>
	<path class="Graphic_x0020_Style_x0020_27" d="M2313,1045.2c0,0,18.1,7.3,23.6,8.3c-11.2,6.2-40.9,18.3-40.3,5.1
		C2309.5,1057,2313,1045.2,2313,1045.2z"/>
	<polygon class="st5" points="2275,1013.8 2289,988.1 2317.7,1047.2 2284.4,1077.2 	"/>
	<path class="Graphic_x0020_Style_x0020_27" d="M2363.1,1047.1c0,0-9.7,5.5-15.2,6.5c11.2,6.2,42.3,8.1,41.6-5.1
		C2376.3,1046.8,2363.1,1047.1,2363.1,1047.1z"/>
	<polygon class="st5" points="2407.6,1004.7 2391,982.3 2363.3,1045.7 2395.6,1071.4 	"/>
	<ellipse class="Graphic_x0020_Style_x0020_26" cx="2502" cy="2940.3" rx="101.5" ry="101.5"/>
	
		<ellipse transform="matrix(1 -1.914757e-03 1.914757e-03 1 -5.6034 5.4614)" class="st3" cx="2849.5" cy="2929.1" rx="56.1" ry="56.1"/>
	<circle class="st2" cx="600.3" cy="2689" r="36.4"/>
	
		<ellipse transform="matrix(1 -9.257863e-03 9.257863e-03 1 -16.2026 4.2238)" class="Graphic_x0020_Style_x0020_27" cx="448.1" cy="1752.2" rx="69.6" ry="69.6"/>
</g>
</svg>
