<?xml version="1.0" encoding="utf-8"?>
<!-- Generator: Adobe Illustrator 24.0.0, SVG Export Plug-In . SVG Version: 6.00 Build 0)  -->
<svg version="1.1" id="Vector" xmlns="http://www.w3.org/2000/svg" xmlns:xlink="http://www.w3.org/1999/xlink" x="0px" y="0px"
	 viewBox="0 0 3000 3000" style="enable-background:new 0 0 3000 3000;" xml:space="preserve">
<style type="text/css">
	.st0{fill:none;stroke:#1A1A1A;stroke-width:4.8462;stroke-linecap:round;stroke-linejoin:round;stroke-miterlimit:10;}
	.st1{fill:#FFFFFF;stroke:#1A1A1A;stroke-width:3.2308;stroke-linecap:round;stroke-linejoin:round;stroke-miterlimit:10;}
	.st2{fill:none;stroke:#1A1A1A;stroke-width:3.2308;stroke-linecap:round;stroke-linejoin:round;stroke-miterlimit:10;}
	.st3{fill:#D9DBDA;}
	.st4{fill:#1A1A1A;}
	.st5{fill:#FFFFFF;stroke:#000000;stroke-width:1.6154;stroke-miterlimit:10;}
	.st6{fill:#8E9DF4;}
	.st7{fill:none;stroke:#FFFFFF;stroke-width:3.2308;stroke-linecap:round;stroke-linejoin:round;stroke-miterlimit:10;}
	.st8{fill:#FFFFFF;}
	.st9{fill:#1A1A1A;stroke:#1A1A1A;stroke-width:3.2308;stroke-linecap:round;stroke-linejoin:round;stroke-miterlimit:10;}
	
		.st10{clip-path:url(#XMLID_4_);fill:none;stroke:#1A1A1A;stroke-width:3.2308;stroke-linecap:round;stroke-linejoin:round;stroke-miterlimit:10;}
	
		.st11{fill:none;stroke:#1A1A1A;stroke-width:3.2308;stroke-linecap:round;stroke-linejoin:round;stroke-miterlimit:10;stroke-dasharray:19.3846;}
	.st12{fill:#E24033;stroke:#1A1A1A;stroke-width:3.2308;stroke-linecap:round;stroke-linejoin:round;stroke-miterlimit:10;}
	.st13{fill:none;stroke:#FFFFFF;stroke-width:4.8462;stroke-linecap:round;stroke-linejoin:round;stroke-miterlimit:10;}
	.st14{fill:#8E9DF4;stroke:#1A1A1A;stroke-width:3.2308;stroke-linecap:round;stroke-linejoin:round;stroke-miterlimit:10;}
	.st15{fill:#D9DBDA;stroke:#1A1A1A;stroke-width:3.2308;stroke-miterlimit:10;}
</style>
<g>
	<path class="st0" d="M221.6,1622.5c-51.8,241.5-22.7,614.4,193.8,743.7c205.2,122.6,361.2-103.7,815.8-112.7
		c535-10.5,675.5,295.9,1027.7,175.8c311.9-106.4,467.4-437.4,513.8-536.4c66.5-141.6,164.8-350.9,99.2-563.4
		c-118.6-383.9-684.1-492.9-933-540.9c-207.2-39.9-622.9-120-1059.2,99.2C749,953.4,318.8,1169.6,221.6,1622.5z"/>
	<path class="st0" d="M572,2401c58.2-6,119.9-28.5,193.2-54.2L572,2401z"/>
	<path class="st1" d="M582.2,896.8C373,1018.2,166.1,1283.9,190,1609c28.5,387.5,364.9,586,396.6,604
		c191.8,108.8,256.5,27.1,599.5,117.2c444.4,116.7,496.2,296,712.1,247.9c219.4-48.9,211.5-244.2,527.4-360.6
		c202-74.5,285.9-24.3,369.6-103.7c152.5-144.7,54.6-462.7-22.5-721.2c-96.1-322-164.5-551.3-356.1-631
		c-198.5-82.6-269.8,103.1-658.1,117.2c-352.4,12.8-457.8-134.2-838.4-81.1C805.2,813.7,700.1,828.4,582.2,896.8z"/>
	<path class="st1" d="M582.2,896.8C373,1018.2,166.1,1283.9,190,1609c28.5,387.5,364.9,586,396.6,604
		c191.8,108.8,256.5,27.1,599.5,117.2c444.4,116.7,496.2,296,712.1,247.9c219.4-48.9,211.5-244.2,527.4-360.6
		c202-74.5,285.9-24.3,369.6-103.7c152.5-144.7,54.6-462.7-22.5-721.2c-96.1-322-164.5-551.3-356.1-631
		c-198.5-82.6-269.8,103.1-658.1,117.2c-352.4,12.8-457.8-134.2-838.4-81.1C805.2,813.7,700.1,828.4,582.2,896.8z"/>
	<g>
		<path class="st1" d="M915.8,1091.9c15.8,0.4,24.8,11.5,29.4,27.9c13,302.8,0.7,716.1,4.2,1024.6l41,0.1c0,2.8,0.9-663.9,0.5-886.5
			c-3.5-61.4,11.7-138.2-22.6-182c-12.5-16.2-34-25.5-52.6-25.1c-8.4,1.1-419.3,0.3-523,0.4c-8,8.8-15.8,17.7-23.5,26.9v14.2
			C373.7,1091.9,912,1093.3,915.8,1091.9z"/>
		<g>
			<path class="st2" d="M468.7,1051.4c0,0-19-17.6-19,19.9s19,36.6,19,36.6v21.2V1051.4z"/>
			<g>
				<polygon class="st3" points="309.5,1303.3 455.9,1132.4 485.5,1128.7 593.8,1303.5 588.5,1307.5 474.8,1166.5 319.3,1307.9 				
					"/>
				<path class="st4" d="M484.6,1130.4l107,172.7l-2.9,2.2l-111.6-138.5l-2.2-2.7l-2.5,2.3L319,1305.9l-6.9-3.2l144.6-168.9
					L484.6,1130.4 M486.3,1126.9l-31.2,3.9l-148.2,173.1l12.7,5.9l155-140.9l113.6,140.9l7.8-5.9L486.3,1126.9L486.3,1126.9z"/>
			</g>
			<g>
				<path class="st3" d="M356.8,2010.6c-4.8,0-8.3-0.2-10.1-0.3c-1.7-22.6-22.6-308.9-12.8-398.2c4.4-40.1,10-81.2,15.4-121
					c7.2-52.2,13.9-101.5,16.1-137.7c3.5-57.4-18.8-99.8-23-107.1l57.8-57.2c3.2,1,15.5,16.4,37.7,56.1
					c20.4,36.4,39.5,76.3,51.1,106.8l2.7,7.1l0.4-7.5c6.2-109.6,33.7-148.2,39.9-155.5l37.9,50.3c-2.5,5.1-14.1,31.3-17.9,75
					c-1.6,18.6,5.4,63.8,15.2,126.5c16.4,105.4,41.2,264.6,48.5,445.2c-43,46.5-94.4,80-152.9,99.5
					C415.6,2008.2,376.1,2010.6,356.8,2010.6C356.8,2010.6,356.8,2010.6,356.8,2010.6z"/>
				<path class="st4" d="M400.6,1191.2c1.5,1.2,5.2,4.9,12.9,16.3c7,10.4,15.3,24.3,24.3,40.3c19.9,35.8,38.6,74.9,49.9,104.7
					l5.4,14.1l0.9-15.1c3.6-63.8,14.5-102.8,23-124.3c6.2-15.8,12.1-24.6,15.2-28.7l36,47.9c-3.2,6.9-13.9,32.3-17.7,74.7
					c-1.7,18.8,5,61.8,15.2,126.9c16.4,105.2,41.1,264.1,48.5,444.3c-42.7,46-93.7,79.2-151.8,98.6c-47.1,15.7-86.3,18.1-105.5,18.1
					c-3.7,0-6.6-0.1-8.6-0.2c-2.3-31.1-22.3-308.9-12.7-396.5c4.4-40.1,10-81.2,15.4-120.9c7.2-52.2,13.9-101.6,16.2-137.8
					c2-33.1-4.5-61-10.4-78.5c-4.8-14.4-9.9-24.2-12.2-28.4L400.6,1191.2 M400.2,1187.5c-0.2,0-0.3,0-0.5,0.1l-59.2,58.5
					c0,0,27.3,44.2,23.4,107.3c-3.9,63.1-21.4,164.8-31.6,258.6s12.9,399.9,12.9,399.9s4.1,0.4,11.6,0.4
					c37.6,0,159.7-9.1,260.6-118.7c-11.7-289.3-68-523-63.7-572.1c4.3-49.1,18.2-75.4,18.2-75.4l-39.7-52.7c0,0-34.5,32.5-41.6,158
					C464.8,1283.4,409.6,1187.5,400.2,1187.5L400.2,1187.5z"/>
			</g>
			<path class="st1" d="M398.4,1184.2l-47.8,47.6c0,0,39.7,32.2,68.6,32.2c5.9,32.5,41.6,71.7,68.6,79.9
				C462.4,1271.4,414.9,1172.7,398.4,1184.2z"/>
			<path class="st1" d="M532,1188.9c0,0-46,54.8-40.7,153.3c28-40.6,40-66.2,33.9-85.1c9.1-2.6,28.6-24.1,35.4-34.5
				C551.1,1204.5,532,1188.9,532,1188.9z"/>
			<path class="st5" d="M373.7,1710.5v297.4V1710.5z"/>
			<path class="st5" d="M408.8,1710.5c0,4.9-10.7,249.6,0,297.4V1710.5z"/>
			<path class="st5" d="M467.3,1705.7c0,0,22.2,239.6,13,282.2L467.3,1705.7z"/>
			<path class="st5" d="M495.5,1745.4c0,0,11.7,48,13.7,113.8L495.5,1745.4z"/>
			<path class="st5" d="M546.3,1705.7c-1,4.9-10.7,200.2,0,248.3V1705.7z"/>
			<path class="st5" d="M577.5,1745.4c0,0,11.1,149.3,8,179.1L577.5,1745.4z"/>
		</g>
		<g>
			<path class="st2" d="M602.6,1051.4c0,0-19-17.6-19,19.9s19,36.6,19,36.6v21.2V1051.4z"/>
			<g>
				<polygon class="st3" points="443.3,1303.3 589.7,1132.4 619.3,1128.7 727.7,1303.5 722.3,1307.5 608.6,1166.5 453.1,1307.9 				
					"/>
				<path class="st4" d="M618.5,1130.4l107,172.7l-2.9,2.2l-111.6-138.5l-2.2-2.7l-2.5,2.3l-153.5,139.5l-6.9-3.2l144.6-168.9
					L618.5,1130.4 M620.1,1126.9l-31.2,3.9l-148.2,173.1l12.7,5.9l155-140.9L722,1309.8l7.8-5.9L620.1,1126.9L620.1,1126.9z"/>
			</g>
			<g>
				<path class="st6" d="M490.7,2010.6c-4.8,0-8.3-0.2-10-0.3c-1.3-25.3-18.5-372.1-8.6-470.5c5.4-53.3,11.4-83.9,16.6-110.9
					c4.7-24.2,8.8-45.1,10.7-75.5c3.5-57.4-18.8-99.8-23-107.1l57.8-57.2c3.2,1,15.5,16.4,37.7,56.1c20.4,36.4,39.5,76.3,51.1,106.8
					c0.2,0.6,0.8,1,1.5,1c0.1,0,0.2,0,0.2,0c0.8-0.1,1.3-0.7,1.4-1.5c6.2-109.6,33.7-148.2,39.9-155.5l37.9,50.3
					c-2.5,5.1-14.1,31.3-17.9,75c-1.6,18.6,5.4,63.8,15.2,126.5c16.4,105.4,41.2,264.6,48.5,445.2c-43,46.5-94.4,80-152.9,99.5
					C549.4,2008.2,510,2010.6,490.7,2010.6C490.7,2010.6,490.7,2010.6,490.7,2010.6z"/>
				<path class="st4" d="M534.4,1191.2c1.5,1.2,5.2,4.9,12.9,16.3c7,10.4,15.3,24.3,24.3,40.3c19.9,35.8,38.6,74.9,49.9,104.7
					c0.5,1.3,1.7,2.1,3,2.1c0.2,0,0.3,0,0.5,0c1.5-0.2,2.6-1.5,2.7-3c3.6-63.8,14.5-102.8,23-124.3c6.2-15.8,12.1-24.6,15.2-28.7
					l36,47.9c-3.2,6.9-13.9,32.3-17.7,74.7c-1.7,18.8,5,61.8,15.2,126.9c16.4,105.2,41.1,264.1,48.5,444.3
					c-42.7,46-93.7,79.2-151.8,98.6c-47.1,15.7-86.3,18.1-105.5,18.1c-3.7,0-6.6-0.1-8.5-0.2c-1.7-34.8-18.3-372.1-8.6-468.8
					c5.3-53.3,11.3-83.8,16.6-110.7c4.8-24.2,8.9-45.2,10.7-75.7c2-33.1-4.5-61-10.4-78.5c-4.8-14.4-9.9-24.2-12.2-28.4
					L534.4,1191.2 M534,1187.5c-0.2,0-0.3,0-0.5,0.1l-59.2,58.5c0,0,27.3,44.2,23.4,107.3s-17,83.4-27.4,186.3
					c-10.3,102.9,8.7,472.2,8.7,472.2s4.1,0.4,11.6,0.4c37.6,0,159.7-9.1,260.6-118.7c-11.7-289.3-68-523-63.7-572.1
					c4.3-49.1,18.2-75.4,18.2-75.4l-39.7-52.7c0,0-34.5,32.5-41.6,158C598.6,1283.4,543.4,1187.5,534,1187.5L534,1187.5z"/>
			</g>
			<path class="st1" d="M532.2,1184.2l-47.8,47.6c0,0,39.7,32.2,68.6,32.2c5.9,32.5,41.6,71.7,68.6,79.9
				C596.2,1271.4,548.8,1172.7,532.2,1184.2z"/>
			<path class="st1" d="M665.8,1188.9c0,0-46,54.8-40.7,153.3c28-40.6,40-66.2,33.9-85.1c9.1-2.6,28.6-24.1,35.4-34.5
				C685,1204.5,665.8,1188.9,665.8,1188.9z"/>
			<path class="st7" d="M507.5,1710.5v297.4V1710.5z"/>
			<path class="st7" d="M542.6,1710.5c0,4.9-10.7,249.6,0,297.4V1710.5z"/>
			<path class="st7" d="M601.1,1705.7c0,0,22.2,239.6,13,282.2L601.1,1705.7z"/>
			<path class="st7" d="M629.4,1745.4c0,0,11.7,48,13.7,113.8L629.4,1745.4z"/>
			<path class="st7" d="M680.1,1705.7c-1,4.9-10.7,200.2,0,248.3V1705.7z"/>
			<path class="st5" d="M711.3,1745.4c0,0,11.1,149.3,8,179.1L711.3,1745.4z"/>
		</g>
		<g>
			<path class="st2" d="M817.6,1051.4c0,0-19-17.6-19,19.9s19,36.6,19,36.6v21.2V1051.4z"/>
			<g>
				<polygon class="st3" points="658.4,1303.3 804.8,1132.4 834.4,1128.7 942.7,1303.5 937.4,1307.5 823.7,1166.5 668.1,1307.9 				
					"/>
				<path class="st4" d="M833.5,1130.4l107,172.7l-2.9,2.2L826,1166.8l-2.2-2.7l-2.5,2.3l-153.5,139.5l-6.9-3.2l144.6-168.9
					L833.5,1130.4 M835.2,1126.9l-31.2,3.9l-148.2,173.1l12.7,5.9l155-140.9l113.6,140.9l7.8-5.9L835.2,1126.9L835.2,1126.9z"/>
			</g>
			<g>
				<path class="st8" d="M705.7,2011.4c-5.6,0-9.3-0.2-10.8-0.3c-1.1-18.7-22-389.8-10.7-477.9c5.5-42.8,11.4-70.9,16.7-95.8
					c5.7-27.2,10.6-50.6,12.7-84c3.6-58.8-20.1-101.8-23.2-107.2l58.6-57.9c0,0,0,0,0.1,0c3.3,0,16.8,17.5,38.4,56.1
					c20.5,36.5,39.7,76.7,51.4,107.3l1.3,3.5l0.2-3.8c6.5-114.2,36-151.5,40.7-156.8l38.8,51.5c-1.8,3.7-14.1,30-18.1,75.2
					c-1.6,18.5,5.4,63.7,15.2,126.3c16.4,105.5,41.2,264.9,48.6,445.6c-43.1,46.7-94.7,80.4-153.5,100
					C764.6,2009,725.1,2011.4,705.7,2011.4C705.7,2011.4,705.7,2011.4,705.7,2011.4z"/>
				<path d="M749.3,1189.1c0.9,0.3,4.2,2.5,13.2,15.7c6.9,10.1,15.4,24.1,24.5,40.3c20.4,36.4,39.5,76.3,51.1,106.8l2.7,7.1l0.4-7.5
					c3.7-64.3,14.7-103.6,23.2-125.2c7.2-18.2,14-27.2,16.6-30.4l37.9,50.3c-2.5,5.1-14.1,31.3-17.9,75
					c-1.6,18.6,5.4,63.8,15.2,126.5c16.4,105.4,41.2,264.6,48.5,445.2c-43,46.5-94.4,80-152.9,99.5c-47.3,15.8-86.7,18.1-106,18.1
					c-4.8,0-8.3-0.2-10-0.3c-1.5-25.9-21.9-390-10.6-477c5.5-42.8,11.4-70.9,16.6-95.7c5.7-27.2,10.7-50.7,12.7-84.2
					c2-32.8-4.5-60.5-10.3-77.9c-5.3-15.7-10.8-25.9-12.7-29.2L749.3,1189.1 M749,1187.5c-0.2,0-0.3,0-0.5,0.1l-59.2,58.5
					c0,0,27.3,44.2,23.4,107.3c-3.9,63.1-17.6,88.7-29.4,179.8c-11.7,91,10.7,478.8,10.7,478.8s4.1,0.4,11.6,0.4
					c37.6,0,159.7-9.1,260.6-118.7c-11.7-289.3-68-523-63.7-572.1c4.3-49.1,18.2-75.4,18.2-75.4l-39.7-52.7c0,0-34.5,32.5-41.6,158
					C813.7,1283.4,758.5,1187.5,749,1187.5L749,1187.5z"/>
			</g>
			<path class="st1" d="M747.3,1184.2l-47.8,47.6c0,0,39.7,32.2,68.6,32.2c5.9,32.5,41.6,71.7,68.6,79.9
				C811.3,1271.4,763.8,1172.7,747.3,1184.2z"/>
			<path class="st1" d="M880.8,1188.9c0,0-46,54.8-40.7,153.3c28-40.6,40-66.2,33.9-85.1c9.1-2.6,28.6-24.1,35.4-34.5
				C900,1204.5,880.8,1188.9,880.8,1188.9z"/>
			<path class="st5" d="M722.6,1710.5v297.4V1710.5z"/>
			<path class="st5" d="M757.7,1710.5c0,4.9-10.7,249.6,0,297.4V1710.5z"/>
			<path class="st5" d="M816.2,1705.7c0,0,22.2,239.6,13,282.2L816.2,1705.7z"/>
			<path class="st5" d="M844.4,1745.4c0,0,11.7,48,13.7,113.8L844.4,1745.4z"/>
			<path class="st5" d="M895.1,1705.7c-1,4.9-10.7,200.2,0,248.3V1705.7z"/>
			<path class="st5" d="M926.3,1745.4c0,0,11.1,149.3,8,179.1L926.3,1745.4z"/>
		</g>
	</g>
	<path class="st9" d="M1788,1254.1c0,0-21.8-24-64.9-9.2c-43.2,14.8-95.9,78.9-91.8,205c-4.1,102.9-91.7,251.4-66.8,319.4
		c24.8,68,119,38.4,134.9,1.7c15.9-36.6,11.5-207.8,24.3-218.2c-12.8-34.3-76.4-233.8-13.9-251.9c62.5-18.1,71.3-12.8,75.6-27.2
		C1789.8,1259.4,1788,1254.1,1788,1254.1z"/>
	<path class="st1" d="M1660.3,1423c0,0-15.4-23.8-14.2-1.7s7.8,65.4,29.3,65.1C1678.6,1447.4,1660.3,1423,1660.3,1423z"/>
	<path class="st9" d="M1837.9,1362.3c0,0-21.2,171.5-15.1,197.6c6,26.1,52.4,34.9,52.4,34.9s30.2-65.3,30.2-76.3
		S1908.4,1377.4,1837.9,1362.3z"/>
	<g>
		<defs>
			<path id="XMLID_2_" d="M1844.3,1557c0,0,126.3,48.4,140.9,57.5s-38,191.6-34.1,229.6c3.9,38,24.4,62.4,11.7,91.7
				c12.7,45.8,1,62.4-23.4,100.4c-362.7,11.7-383.2,13.7-383.2,13.7s-7.8-348.1,0-360.8c7.8-12.7,8.8-94.6,71.2-106.3
				c62.4-11.7,110.2-25.8,110.2-25.8H1844.3z"/>
		</defs>
		<use xlink:href="#XMLID_2_"  style="overflow:visible;fill:#5067EF;"/>
		<clipPath id="XMLID_4_">
			<use xlink:href="#XMLID_2_"  style="overflow:visible;"/>
		</clipPath>
		<path class="st10" d="M1674.3,1569.2c0,0,2.3,415.1,69.9,411.7c67.6-3.4,95.9-232.1,129-309.6S1896,1564,1896,1564L1674.3,1569.2z
			"/>
		<path class="st10" d="M1701.2,1563.9c0,0,39.3,341.4,49,374.1c58.2-122.8,124.6-340.4,122.9-359.5L1701.2,1563.9z"/>
		<path class="st10" d="M1654,1569.9c0,0-12.1,409.5,75.9,433.8c72.8,20.1,81.1,4.4,114.9-135.4c33.8-139.9,66.9-262.3,75.1-272.8
			L1654,1569.9z"/>
		<path class="st10" d="M1587.7,1567.3c0,0,35.2,95.7,27.7,203.9c-11.7,122.4,22.3,238.8,60,264.1c73.6,49.3,203.8,78,295.4-156.9
			L1587.7,1567.3z"/>
		<path class="st10" d="M1560.7,1624.1c0,0,54.3,54.8,39.6,146.3c-18.6,116.2,15.3,270.7,76.9,299c106.5,49,201,74.3,319.4-175.9
			L1560.7,1624.1z"/>
		<path class="st10" d="M1629.9,1557c0,0,17.5,104,12.1,218.1c-6.3,132.2,26.5,262.8,115.7,265.6c173.9,5.5,204-218.4,204-218.4
			L1629.9,1557z"/>
		
			<use xlink:href="#XMLID_2_"  style="overflow:visible;fill:none;stroke:#1A1A1A;stroke-width:3.2308;stroke-linecap:round;stroke-linejoin:round;stroke-miterlimit:10;"/>
	</g>
	<g>
		<path class="st4" d="M1764.3,1588.9c-16.3,0-31.8-3.2-43-8.9c0.2-0.6,0.4-1.3,0.6-2.2c3.6-11.9,14.3-47.6,8.2-79.8
			c21.6-5.5,91.4-13.5,103.5-14.9c0.1,8.2,1.3,41.5,11.4,65.8c-12.3,11-29.6,26-42.3,32.3
			C1792.9,1586.2,1779.3,1588.9,1764.3,1588.9C1764.3,1588.9,1764.3,1588.9,1764.3,1588.9z"/>
		<path class="st4" d="M1832.1,1485c0.3,10.4,1.9,40.6,11,63.5c-12.1,10.9-28.8,25.2-41.1,31.3c-9.6,4.8-23,7.5-37.7,7.5
			c-15.4,0-30.2-2.9-41-8.1c0.1-0.3,0.2-0.6,0.3-0.9c3.5-11.8,14.1-46.9,8.5-79C1754.1,1494.1,1816.6,1486.8,1832.1,1485
			 M1835.3,1481.4L1835.3,1481.4L1835.3,1481.4z M1835.3,1481.4c0,0-85.1,9.4-106.9,15.5c7.5,36.3-7.3,77.7-8.9,83.9
			c11.9,6.4,28.5,9.6,44.9,9.6c14.5,0,28.7-2.6,39.2-7.8c13.5-6.8,32.2-23.2,43.5-33.3C1835.3,1522.1,1835.3,1481.4,1835.3,1481.4
			L1835.3,1481.4z"/>
	</g>
	<path class="st1" d="M1805.3,1578c-24.9,12.5-60.5,15.2-85.5,1.7c-0.2,0.7-0.3,1.1-0.3,1.1s15.1,186.2,41.1,263.1
		c2.6-30.5,49.7-114.8,97.2-278c-4.6-4.7-8.1-10.4-10.8-16.5C1834.4,1560.7,1820.4,1570.5,1805.3,1578z"/>
	<path class="st1" d="M1752.7,1301.2c0,0-104.6,1.2-95.3,116.2c9.3,115.1,73.2,159.2,106.9,155.2c33.7-4.1,97.6-46.5,84.3-184.8
		C1842.8,1291.9,1752.7,1301.2,1752.7,1301.2z"/>
	<g>
		<path class="st1" d="M1586.9,1925.5c-3.6,44.8-15.6,85.1-24.4,109.7H954c18.3-93.4,82.4-418.9,89.2-435.9
			c7.9-19.8,55.3-168.7,55.3-168.7s153.4,72.8,275,81.9c121.6,9.1,146.9,4.6,146.9,4.6s33.1,33.2,40.3,107
			C1567.8,1697.9,1592.7,1852.4,1586.9,1925.5z"/>
		<path class="st1" d="M1333.2,1501.5c0,0,6.8,12.1,3.6,23.6c-3.3,11.5-13.3,46.3-13.7,47.3s1.6,17.2,1.6,17.2h14
			c0,0-2-15.9,4.2-28.9c6.2-13,13.3-49.7,9.8-59.2C1338.1,1496.7,1333.2,1501.5,1333.2,1501.5z"/>
		<path class="st1" d="M1097.9,1603.3c-0.1-4,143.7,69.2,200.2,64c-16.3,85.2-49.4,151.5-49.4,151.5s-67.6-6.5-83.2,13
			c-26-5.9-61.1-51.4-83.2-51.4C1067.3,1753.1,1099.3,1645.2,1097.9,1603.3z"/>
		<path class="st11" d="M1109.8,1624.7c0,0,58.6,54,175.8,56.9c-29.3,91.8-41.7,125.6-41.7,125.6s-57.5-6.2-82.3,3.9
			c-29.3-26.5-73.2-45.1-73.2-45.1S1113.2,1649,1109.8,1624.7z"/>
		<path class="st1" d="M1370.6,1683.6c0,0,146.6,7.2,174.9-12.4c0,101.4,1.6,150.5,0,151.8c-1.6,1.3-56.9,42.9-68.9,45.2
			c-12,2.3-84.5-25.4-89.4-31.9C1382.3,1829.8,1362.8,1693,1370.6,1683.6z"/>
		<path class="st1" d="M1097.4,1522.8c7.8,4.9,197,96,244.3,97.5c47.3,1.5,189.2-17.1,189.2-17.1v13.3c0,0-150.2,22.8-192.4,18.2
			c-42.2-4.6-243.7-99.5-243.7-99.5L1097.4,1522.8z"/>
		<path class="st11" d="M1384.3,1699.5c0,0,64.4,23.3,146.5-2.9c4.9,66.2,0,120,0,120s-34.8,37.7-68.9,29.6
			c-34.1-8.2-62.5-24.5-62.5-24.5L1384.3,1699.5z"/>
		<path class="st1" d="M1113.5,1470.2c-0.3-1.7-27.8-59-44.4-51.2c-16.6,7.8-11.7,31.7-3.9,41.9c-12.7,17.1-20.5,30.7-11.2,38.5
			c-19.5,17.1-27.8,27.3-20.5,33.2c-19.5,15.1,7.3,58,9.8,66.8c15.6-33.2,8.3-39,15.6-33.2c7.3,5.9,32.7,3.4,37.5-4.9
			c15.1,4.9,30.7-16.1,17.1-25.8c10.7-1.5,16.8-24.4,5.2-31.7c-9.6-10.7-11.6-12.7-11.6-12.7S1117.4,1489.5,1113.5,1470.2z"/>
	</g>
	<path id="XMLID_1_" class="st1" d="M1929,1607.7c0,0,101-23.8,114,52.3c13,76.2-145.6,395.7-262.6,394.7
		c-80.9-14.6-111.3-298.4-119-332.5c-6.7-28.3-23.8-17.6-41.8-22.4c-18-4.9-20.1-44.2-41.4-43.9c-21.4,0.4-35.6-2.4-50.7,20.5
		c-13.7-35.1-24.9-75.3-4.4-96.3c20.5-21,30.2-39.2,41.9-31c11.7,8.3,125.5,100.1,140.7,137.6s66.5,180.3,108.4,198.9
		c21.9-32.7,74.1-116.5,98-158.5C1906.8,1677.4,1929,1607.7,1929,1607.7z"/>
	<path class="st1" d="M2662.8,2166.5c-57.9,7.1-131.3,11.9-237.1,50.9c-141.3,52.1-217.8,119.9-278.8,183.4h-747.5
		c-9.3-3.8-18.9-7.7-28.7-11.4c-42.5-16.5-89.9-32.7-143.4-48c-13.3-3.8-27-7.6-41.1-11.3c-33.3-8.8-64-15.9-92.4-21.7
		c-264.3-54.3-333.9,2.8-507-95.5c-10.9-6.2-57.5-33.5-115.3-82.4l156.4-95.3h1857.5L2662.8,2166.5z"/>
	<polygon class="st1" points="1730.6,2049.9 1730.6,2175.7 2131.3,2164 2052.3,2044.3 	"/>
	<path class="st9" d="M1367,2032.7c-0.4-22.2-4-43.5-13.4-51.4c-30.2-25.4-30.9-123.5-11.4-165.8c19.5-42.3-10.4-172.9-10.4-172.9
		s26.4,158.4-12,200.7c-38.3,42.3,18,160.7,14.6,191.9C1357.1,2035.2,1367,2032.7,1367,2032.7z"/>
	<g>
		<g>
			<polygon class="st8" points="1780.9,2061.5 1896.3,2045.2 1958.3,2060.4 1987.6,2060.2 1949.8,2070.5 1860.2,2081.4 			"/>
			<path d="M1896.2,2046l61.8,15.2l0.2,0l0.2,0l23-0.2l-31.8,8.7l-89.4,10.9l-75.1-18.9L1896.2,2046 M1896.3,2044.3l-119.6,16.9
				l83.4,21l89.8-10.9l43.9-12l-35.4,0.3L1896.3,2044.3L1896.3,2044.3z"/>
		</g>
		<g>
			<path class="st4" d="M1785.7,2078.1l-6.2-14.5l82,20.7c0.1,0,0.3,0,0.4,0c0.1,0,0.3,0,0.4-0.1l47.3-12.6l3.6,10.2l-43,20.6
				L1785.7,2078.1z"/>
			<path class="st4" d="M1782.3,2066l78.8,19.9c0.3,0.1,0.5,0.1,0.8,0.1c0.3,0,0.6,0,0.8-0.1l45.9-12.2l2.6,7.4l-41.1,19.7
				l-83.2-23.9L1782.3,2066 M1776.7,2061.2l7.8,18.2l85.8,24.7l44.9-21.5l-4.6-13l-48.8,13L1776.7,2061.2L1776.7,2061.2z"/>
		</g>
		<g>
			<polygon class="st8" points="1911.7,2070.4 2048,2050.7 2053.1,2060.6 1915.7,2081.8 			"/>
			<path d="M2047.5,2051.6l4.3,8.4l-135.6,20.9l-3.5-9.9L2047.5,2051.6 M2048.4,2049.9l-137.8,19.8l4.6,13l139.1-21.5L2048.4,2049.9
				L2048.4,2049.9z"/>
		</g>
		<g>
			<polygon class="st8" points="1915.4,2083.5 2044.9,2063.2 1984.8,2086.1 1875.5,2102.5 			"/>
			<path d="M2037.4,2065.2l-52.8,20.1l-103.9,15.6l34.9-16.7L2037.4,2065.2 M2052.3,2061.2l-137.2,21.5l-44.9,21.5l114.7-17.2
				L2052.3,2061.2L2052.3,2061.2z"/>
		</g>
	</g>
	<path class="st9" d="M1768.4,1285.5c0,0-7,20.9-38.9,34.3c-32,13.4-76.8,63.1-72.1,97.6c-19.2-36,8.1-123.8,51.1-141.2
		C1751.6,1258.8,1768.4,1285.5,1768.4,1285.5z"/>
	<path class="st9" d="M1767.3,1264c0,0-21.5,51.7,30.8,74.4c52.3,22.7,48.2,92.4,75,102.3s4.6,87.8-5.2,109.3
		c-9.9,21.5,37.8,52.9,111.6,63.7c29.6,7.8,25.6,3.2,25.6,3.2s-76.7-95.9-93.6-191.8c-16.9-95.9-43.6-178.4-114.5-176.1
		C1763.8,1248.9,1767.3,1264,1767.3,1264z"/>
	<g>
		<path class="st8" d="M2310.4,2060.9h36.7v189.2c-12.5,6.1-24.8,12.7-36.7,19.4V2060.9z"/>
		<path d="M2346.3,2061.7v187.9c-11.9,5.9-23.7,12.1-35.1,18.5v-206.5H2346.3 M2347.9,2060.1h-38.3v210.8
			c12.1-6.9,24.8-13.7,38.3-20.3V2060.1L2347.9,2060.1z"/>
	</g>
	<g>
		<path class="st4" d="M2302.1,2061.7h5.9V2270c-2.1,1.2-4,2.3-5.9,3.4V2061.7z"/>
		<path class="st4" d="M2306.3,2063.3v205.7c-0.9,0.5-1.8,1-2.6,1.5v-207.2H2306.3 M2309.6,2060.1h-9.1v216.1c3-1.8,6-3.5,9.1-5.3
			V2060.1L2309.6,2060.1z"/>
	</g>
	<g>
		<path class="st4" d="M2349.5,2061.7h28.8v173c-9.8,4.3-19.5,8.7-28.8,13.3V2061.7z"/>
		<path class="st4" d="M2376.7,2063.3v170.4c-8.7,3.8-17.2,7.7-25.6,11.8v-182.1H2376.7 M2380,2060.1h-32.1v190.5
			c10.3-5,20.9-10,32.1-14.8V2060.1L2380,2060.1z"/>
	</g>
	<g>
		<rect x="2125.5" y="1499.9" class="st1" width="394.9" height="234"/>
		<circle class="st1" cx="2460.8" cy="1604.1" r="8.1"/>
		<circle class="st1" cx="2498.3" cy="1604.1" r="8.1"/>
		<circle class="st1" cx="2460.8" cy="1635.6" r="8.1"/>
		<circle class="st1" cx="2498.3" cy="1635.6" r="8.1"/>
		<circle class="st12" cx="2478.3" cy="1685.3" r="20"/>
		<rect x="2167.4" y="1529.2" class="st1" width="266.2" height="181.4"/>
		<g>
			<rect x="2464.4" y="1537.6" class="st4" width="24.8" height="24.8"/>
			<path class="st4" d="M2487.6,1539.2v21.6h-21.6v-21.6H2487.6 M2490.9,1536h-28v28h28V1536L2490.9,1536z"/>
		</g>
		<g>
			<rect x="2318.3" y="1780.6" class="st8" width="23.2" height="83.2"/>
			<path d="M2340.6,1781.4v81.6h-21.6v-81.6H2340.6 M2342.2,1779.8h-24.8v84.8h24.8V1779.8L2342.2,1779.8z"/>
		</g>
		<g>
			<rect x="2343.9" y="1781.4" class="st4" width="18.9" height="81.6"/>
			<path class="st4" d="M2361.1,1783v78.4h-15.6V1783H2361.1 M2364.4,1779.8h-22.1v84.8h22.1V1779.8L2364.4,1779.8z"/>
		</g>
		<g>
			<rect x="2330.1" y="1734.7" class="st8" width="33.5" height="40.8"/>
			<path d="M2362.7,1735.6v39.2h-31.9v-39.2H2362.7 M2364.4,1733.9h-35.1v42.4h35.1V1733.9L2364.4,1733.9z"/>
		</g>
		<rect x="2268.8" y="1836.3" class="st1" width="133.1" height="230"/>
		<rect x="2286.8" y="1836.3" class="st9" width="133.1" height="230"/>
		<g>
			<polygon class="st4" points="2113,1742.6 2125.9,1735.6 2512.5,1735.6 2490.5,1745 			"/>
			<path class="st4" d="M2504.7,1737.2l-14.5,6.2l-371-2.3l7.1-3.9H2504.7 M2520.4,1733.9h-394.9l-18.7,10.3l384.1,2.4
				L2520.4,1733.9L2520.4,1733.9z"/>
		</g>
		<rect x="2300.5" y="1740.3" class="st1" width="145.1" height="42.9"/>
		<polygon class="st9" points="2275,1749.5 2275,1787 2300.5,1783.2 2300.5,1742 		"/>
		<ellipse class="st9" cx="2239.3" cy="1802.2" rx="16.2" ry="28.2"/>
		<path class="st9" d="M2242,1791.2c3.4-0.4,111.3,0,111.3,0v22.2h-114L2242,1791.2z"/>
	</g>
	<path class="st1" d="M995.4,2481.2c0,0,183.1-33.4,273.2,49.3s117.4-11.9,20.7-67.3c-96.7-55.5-232.7-76.7-295.9-36.8
		S976.2,2484,995.4,2481.2z"/>
	<ellipse class="st1" cx="2009.2" cy="693.5" rx="66" ry="64.5"/>
	<ellipse class="st1" cx="1684.7" cy="2559.8" rx="108.3" ry="85.2"/>
	<ellipse class="st9" cx="122.2" cy="1218.4" rx="78.3" ry="79.1"/>
	<ellipse class="st9" cx="2714.2" cy="1821.2" rx="54.4" ry="55.1"/>
	<g>
		<g>
			<path class="st1" d="M774.1,2231.4c-12.7,23.7-175.8,21.6-258,19.1c-0.9-3.6-1.7-7.1-2.5-10.7c-1.5-6.4-2.8-12.7-4.1-19
				C572.3,2216.7,788.6,2204.2,774.1,2231.4z"/>
			<path class="st1" d="M774,2231.4l-8.9,115.4c-73.3,25.7-134.9,48.3-193.2,54.2c-26.1-50.8-44-101.8-55.9-150.5
				C598.3,2253,761.4,2255.1,774,2231.4z"/>
		</g>
		<g>
			<path class="st1" d="M786.7,2016.4c3.1,14,13.6,24.8,21.6,31.1c5,0.7,10.1,1.1,15.3,1.5c22.8,1.5,44.7-8.4,64-22.9
				c-13.6-3.3-43.1-11.6-50.9-22.9c-10.2-14.7-0.7-17.3,4.4-11c5.3,9.4,40.9,20.8,56.9,25.5c9.5-8.3,18.3-17.5,26.1-26.6
				c-13.2-0.6-30.9-5-35.9-11.5c-6.5-8.5,1.4-13.2,7.8-7.8c4.7,3.9,26.8,6.1,38.2,6.9c14.9-19.2,24.7-36,27.3-40.4
				c0.4-0.7,0.6-1.1,0.6-1.1s-15.8-19-39.2-39.8c-9.1,1.9-22.9,5.2-30.2,8.6c-11.5,5.4-18.9,11.2-22.4,6.9
				c-5.6-10.2,26-19.6,43.1-23.8c-10.4-8.7-21.9-17.4-34-24.8c-53.4,4.4-51.1,40.7-62.9,28.7c-10.2-10.4,32.5-28.9,50-36
				c-11.9-6.2-24.1-10.7-36.1-12.6c-11-1.3-21.1-2-30.3-2.3c-25.4,16.9-10.6,45.6-25,40.2c-11.2-4.2,2.7-28,10.9-40.3
				c-124.2,2.5-63.6,99.8-63.6,99.8c-0.2,0.4-0.4,0.8-0.5,1.2c-24.1,53.1,10.6,87.5,65.2,100.6c-3.2-10-8.8-28.2-9.3-31.8
				C777.1,2006.8,784.8,2004.2,786.7,2016.4z"/>
			<path class="st2" d="M938.4,1938.9c0,0-150.2,10.5-216,2.9L938.4,1938.9z"/>
			<path class="st2" d="M876.2,1977.8c0,0-25.1-12.3-45-33.8L876.2,1977.8z"/>
			<path class="st2" d="M846.2,1904.5c0,0-36.3,24.3-37.1,40L846.2,1904.5z"/>
			<path class="st2" d="M813.7,2006.4c0,0-31.1-41.1-36.4-61.8L813.7,2006.4z"/>
			<path class="st2" d="M753.1,1897.2c0,0-20.3,23.7-12.6,46.1L753.1,1897.2z"/>
		</g>
		<g>
			<path class="st9" d="M447.7,1901.2c8.7,1.1,17.2,2.4,25.4,3.9c11.1,10.7,24.9,28.7,24.8,51.2c-1.5,19.5,12.6,16.1,13.3,8.2
				c0.6-5.7-2.1-35.1-3.6-51.2c88.3,26.3,134.1,84.7,70.9,167.1c0,0,65.8,159.7-145.9,151c18.6-18.6,51.3-54.7,33.9-62.5
				c-22.3-10-8.2,36.8-57.7,60.9c-15.5-1.4-32.3-3.6-50.4-6.7c-19.6-4.2-38.6-12.6-56.5-23.5c32.5-9.3,111.9-34.2,98.6-51.7
				c-15.5-20.1-25.3,37.4-117.6,38.9c-17.6-12.9-33.8-27.7-48.2-42.5c30.5-4.9,87.8-16.5,82.1-33.2c-4.2-7.2-19.1,1.3-40.6,8.6
				c-13.7,4.7-38.3,8.5-54.5,10.6c-31.6-35.3-51.2-66.8-51.2-66.8s25.1-29.1,63.1-62.7c19,2.5,55.6,8.1,62.1,14.8
				c8.8,9.1,24,2.5,16.2-11.5c-6-10.8-34.4-19.5-56.5-21.8c16.7-13.6,35.1-27.2,54.4-39.3c25.4,9.1,81.4,30.6,86.8,46
				c6.2,10.5,23.3,7.4,11.6-16.9c-8.9-18.5-55.9-34.6-77.7-41.2C368.7,1910,409.5,1896.5,447.7,1901.2z"/>
			<path class="st13" d="M211,2063.1c0,0,258.7-1.3,367.5,17.3L211,2063.1z"/>
			<path class="st7" d="M331.2,2008.2c0,0,37.9,22,63.5,57.9L331.2,2008.2z"/>
			<path class="st7" d="M354.2,2126.8c0,0,70.9-34.7,78.2-59.3L354.2,2126.8z"/>
			<path class="st7" d="M448.2,1969.3c0,0,37.1,68,38.2,101.3L448.2,1969.3z"/>
			<path class="st7" d="M509.4,2147.7c0,0,43.5-35.3,38.9-71.5L509.4,2147.7z"/>
		</g>
		<g>
			<path class="st0" d="M721.8,1943c0,0-76.2,22.7-59,187L721.8,1943z"/>
			<path class="st9" d="M642.4,2142c0,0-80.3-90.4,68.8-181.5c-20.7,35.5-96.4,75.4-42.8,165.8c22.2,51.4-10.5,73.3-10.5,73.3
				S609.4,2203.6,642.4,2142z"/>
			<path class="st14" d="M521.7,2251.2c-0.9-6.3-1.5-12.6-1.9-18.7c7.7-11,21.9-26,43.3-32.9c18.9-5,12.6-13.7,4.9-11.7
				c-5.6,1.4-33,12.3-47.9,18.3c5.6-69,51.1-118.7,143.3-100.5c0,0,137.4-94.6,175.7,54.1c-21.7-7.1-63.3-18.5-66.9-4.1
				c-4.6,18.5,36.8-5.7,70.6,21.1c2.1,11.1,3.6,23.4,4.7,36.9c0.3,14.8-3.5,30.5-10,46.2c-16-19.5-57.1-66.7-70.8-52.1
				c-15.8,16.9,41.1,5.9,62.8,69.2c-8.4,16.1-18.9,31.9-29.9,46.4c-11.4-19.5-34.9-55.5-49.6-46.4c-5.9,5.1,5.4,12.8,17.1,25.3
				c7.5,8,16.5,23.8,22,34.4c-26.6,32.7-52.3,56-52.3,56s-33.2-8.3-73.5-24.2c-1.8-13.9-4.5-40.9,0.4-47.4
				c6.7-8.9-2.9-17.3-14.5-7.7c-9,7.5-11,29.7-8.3,45.7c-16.6-7.3-33.5-15.8-49.3-25.4c3.1-20.3,11.3-65.6,24.7-74.1
				c8.6-7.5,1.9-18.3-18.6-2.8c-15.7,11.9-20.7,49.3-22.2,66.3C547.4,2303,525.7,2279,521.7,2251.2z"/>
			<path class="st13" d="M727.7,2364.6c0,0-58-178.1-64.2-258.9L727.7,2364.6z"/>
			<path class="st7" d="M649,2298.6c0,0,12.6-32.9,41.1-61.7L649,2298.6z"/>
			<path class="st7" d="M756.9,2246.1c0,0-48.6-38.2-73.6-35.7L756.9,2246.1z"/>
			<path class="st7" d="M586.4,2229.8c0,0,56.5-46.6,87.9-57.6L586.4,2229.8z"/>
			<path class="st7" d="M742.6,2132.6c0,0-43.2-19.1-76.6-4.8L742.6,2132.6z"/>
		</g>
		<g>
			<path class="st1" d="M481.4,1691.7c6.2,4.4,12.2,9,17.9,13.6c3.7,14,6.1,35.5-4.3,55.4c-10.1,16.7,2.3,19.4,6.6,12.6
				c3-4.9,14.4-32.1,20.6-47c56.2,58.7,64.9,128.9-21.6,176.9c0,0-22.2,168.3-181.7,76.1c22.8-9.1,64.6-28.1,54.7-42
				c-12.7-17.8-23.2,29.5-72.4,31.1c-11.3-7.4-23.3-16.1-35.9-26.1c-13.2-11.5-24-26.6-32.9-43.5c29.3,4.7,102.1,14.3,99.8-6.6
				c-2.7-24.1-36.7,23.1-108.6-12.4c-7.7-18.5-13.5-38.2-17.8-57.1c25.8,7.8,75.3,20.4,78.6,3.3c0-8.1-15.3-6.5-35.3-8.5
				c-12.7-1.3-33.5-7.8-47-12.4c-8.3-44-9.1-79.9-9.1-79.9s32.7-15.9,77.5-30.6c13.5,9.8,39.3,29.4,41.2,37.9
				c2.6,11.6,17.4,11.8,17.8-3.7c0.3-12-17.6-31-33.7-41.9c19.1-5.4,39.5-10.1,60-13.2c15.4,18.2,48.9,59.8,46,75.6
				c0,11.8,14.6,15.9,16.6-10.4c1.6-20-27.4-53.2-41.1-67.7C416.4,1667.9,454.1,1672.3,481.4,1691.7z"/>
			<path class="st2" d="M224.6,1741.2c0,0,200.5,102.2,276,162.1L224.6,1741.2z"/>
			<path class="st2" d="M342.5,1740.3c0,0,19.2,34.7,22.6,76.8L342.5,1740.3z"/>
			<path class="st2" d="M306,1855c0,0,70.6-2.6,87.5-21.5L306,1855z"/>
			<path class="st2" d="M450.7,1752.5c0,0-2.4,75.3-16.8,105.3L450.7,1752.5z"/>
			<path class="st2" d="M416.4,1935.5c0,0,49.8-14,62.8-48.1L416.4,1935.5z"/>
		</g>
		<g>
			<path class="st1" d="M714.5,1834.4c11-2.8,18.4-11.1,22.5-17.4c-0.1-3.8-0.4-7.7-0.8-11.7c-1.7-17.4-12.6-33.7-26.8-48
				c-1,10.4-3.9,33.2-12.1,39.4c-10.7,8.2-14,1.1-9.5-3c7-4.3,11.7-31.7,13.5-44c-8-7-16.6-13.4-25-19.1c1.2,10-0.1,23.7-4.8,27.6
				c-6.1,5.2-10.9-0.7-7.3-5.7c2.6-3.7,1.5-20.5,0.7-29.2c-17.5-10.8-32.4-17.7-36.4-19.5c-0.7-0.3-1-0.5-1-0.5s-13.4,12.6-27.4,31
				c2.7,6.9,7.2,17.3,10.9,22.7c5.9,8.5,11.6,14,8.5,16.8c-7.6,4.6-19.3-19.2-24.9-32c-5.8,8.2-11.3,17.2-15.8,26.6
				c10.4,40.5,39.7,37.6,31.4,47c-7.2,8.1-27.7-23.8-35.7-37c-3.5,9.3-5.6,18.7-5.6,27.9c0.4,8.4,1.1,16.1,2,23.1
				c17,18.8,38.5,6.7,35.9,17.8c-2,8.7-23.1-1.2-34.2-7.1c18,94.4,89.4,45.3,89.4,45.3c0.3,0.1,0.7,0.2,1,0.4
				c46.3,16.7,69.9-10.7,73.5-52.7c-7.7,2.7-21.9,7.6-24.7,8C707.9,1842,704.8,1836.2,714.5,1834.4z"/>
			<path class="st2" d="M632,1721.4c0,0,27.8,113.9,30.1,164.2L632,1721.4z"/>
			<path class="st2" d="M671.5,1767.5c0,0-6.8,19.5-21.7,35.3L671.5,1767.5z"/>
			<path class="st2" d="M615.7,1792.5c0,0,24.5,26.9,37.3,27L615.7,1792.5z"/>
			<path class="st2" d="M702.9,1814.2c0,0-29.5,24.9-45.7,29.6L702.9,1814.2z"/>
			<path class="st2" d="M621.8,1863.6c0,0,21.9,14.8,39.2,8.2L621.8,1863.6z"/>
		</g>
		<path class="st0" d="M662.1,1885.6c0,0,12.8,1.9-19.7,158.6L662.1,1885.6z"/>
		<path class="st0" d="M492.6,1897.2c0,0,139.1,41.1,149.8,150L492.6,1897.2z"/>
		<path class="st0" d="M567.5,2080.4c3.4-1.2,62-6.5,81.3,7.2L567.5,2080.4z"/>
	</g>
	<ellipse class="st1" cx="487.7" cy="2457.3" rx="146.7" ry="135.1"/>
	<ellipse class="st9" cx="2601.9" cy="1015.3" rx="123.6" ry="113.8"/>
	<polygon class="st9" points="2106.7,1744.2 2125.5,1733.9 2125.5,1499.9 2107.3,1527.8 	"/>
	<g>
		<polygon class="st1" points="1150.8,2171.2 1087.6,2255.2 1424.7,2250.6 1470,2164.8 		"/>
		<path class="st1" d="M1484.8,2310.6l-26.1,90.3h-59.4c-9.3-3.8-18.9-7.7-28.7-11.4c-42.5-16.5-89.9-32.7-143.4-48l97.4-36.8
			l97.3,3.6L1484.8,2310.6z"/>
		<path class="st1" d="M1424.7,2250.6l-2.7,57.6l-3.8,81.4l-47.5-0.2c-42.5-16.5-89.9-32.7-143.4-48c-13.3-3.8-27-7.6-41.1-11.3
			c-33.3-8.8-64-15.9-92.4-21.7l-6.1-53.2L1424.7,2250.6z"/>
		<polygon class="st9" points="1470,2164.8 1465.4,2307.9 1418.2,2389.6 1424.7,2250.6 		"/>
		<path class="st1" d="M1115,2276.1l3.1,37.5c5.4,1.2,10.9,2.5,16.5,3.8l47.4-3l-2.3-38.6L1115,2276.1z"/>
	</g>
	<g>
		<polygon class="st1" points="1498.9,2247.3 1509.3,2322.7 1597.8,2369.4 1596.9,2293.5 		"/>
		<polygon class="st1" points="1666.9,2209.3 1498.9,2247.3 1596.9,2293.5 1775.8,2246.1 		"/>
		<polygon class="st1" points="1597.8,2369.4 1703.3,2354.4 1810.9,2312.5 1770.8,2299.7 		"/>
		<polygon class="st9" points="1773.5,2317.6 1775.8,2246.1 1596.9,2293.5 1597.8,2369.4 		"/>
		<polygon class="st15" points="1698.6,2279 1767.7,2261.8 1767.3,2269.3 1698.2,2286.6 		"/>
		<polygon class="st1" points="1698.3,2292.9 1767.4,2275.6 1767,2283.1 1697.9,2300.5 		"/>
		<polygon class="st1" points="1698,2306.7 1767.1,2289.4 1766.7,2296.9 1697.6,2314.3 		"/>
	</g>
	<ellipse class="st1" cx="2181.5" cy="1157.1" rx="106.3" ry="106.3"/>
	<ellipse class="st1" cx="2181.5" cy="1157.1" rx="87.3" ry="87.3"/>
	<polygon class="st9" points="2185.2,1090.6 2186.3,1159.3 2213.8,1216.8 2172.9,1159.9 	"/>
</g>
</svg>
