<?xml version="1.0" encoding="utf-8"?>
<!-- Generator: Adobe Illustrator 22.0.0, SVG Export Plug-In . SVG Version: 6.00 Build 0)  -->
<svg version="1.1" id="Layer_1" xmlns="http://www.w3.org/2000/svg" xmlns:xlink="http://www.w3.org/1999/xlink" x="0px" y="0px"
	 viewBox="0 0 4000 4000" style="enable-background:new 0 0 4000 4000;" xml:space="preserve">
<style type="text/css">
	.st0{fill:url(#SVGID_2_);}
	.st1{fill:url(#SVGID_4_);}
	.st2{fill:url(#SVGID_5_);}
	.st3{fill:#FFFFFF;}
	.st4{fill:#1A1A1A;stroke:#1A1A1A;stroke-width:2;stroke-linecap:round;stroke-linejoin:round;stroke-miterlimit:10;}
	.st5{fill:#3B546B;}
	.st6{fill:#1A1A1A;}
	.st7{fill:#102140;}
	.st8{fill:#FFDE70;}
	.st9{fill:#FFB114;}
	.st10{fill:#FC9590;}
	.st11{fill:#DB6767;}
	.st12{opacity:0.6;}
	.st13{clip-path:url(#SVGID_6_);}
	.st14{fill:#FFEEB5;}
	.st15{fill:#127755;}
	.st16{fill:#572658;}
	.st17{fill:#B080B0;}
	.st18{fill:#339E7E;}
	.st19{fill:url(#SVGID_7_);}
	.st20{fill:#152A52;}
	.st21{fill:#14B7DD;stroke:#1A1A1A;stroke-width:2;stroke-linecap:round;stroke-linejoin:round;stroke-miterlimit:10;}
	.st22{fill:#EF5668;}
	.st23{fill:#D1334A;}
	.st24{fill:#912433;}
	.st25{clip-path:url(#SVGID_8_);}
	.st26{fill:none;stroke:#855B87;stroke-linecap:round;stroke-linejoin:round;stroke-miterlimit:10;}
	.st27{fill:#DBD2DB;}
	.st28{fill:#CCC4CC;}
	.st29{fill:#EB485C;}
	.st30{fill:#D9D9D9;}
	.st31{fill:#6584C6;}
	.st32{fill:#1B51C6;}
	.st33{fill:none;stroke:#D18B0D;stroke-width:2;stroke-linecap:round;stroke-linejoin:round;stroke-miterlimit:10;}
	.st34{fill:url(#SVGID_9_);}
	.st35{fill:url(#SVGID_10_);}
	.st36{fill:url(#SVGID_11_);}
	.st37{fill:url(#SVGID_12_);}
	.st38{fill:#ADADAD;}
	.st39{opacity:0.5;fill:#FFFFFF;}
</style>
<g>
	<linearGradient id="SVGID_2_" gradientUnits="userSpaceOnUse" x1="493.0546" y1="2017.8689" x2="3637.218" y2="2017.8689">
		<stop  offset="0" style="stop-color:#68B2FC"/>
		<stop  offset="1" style="stop-color:#529BF7"/>
	</linearGradient>
	<path class="st0" d="M577.8,1932C321.4,2270.2,687,3169.5,1135.3,3252.9c193.7,36,290.7-101.2,515-36.4
		c251.5,72.7,274.7,287.1,466.6,399.9c367.7,216.1,1226.9-16.4,1460.2-660.4c185.6-512.4-94.5-1093.6-351.4-1248.2
		c-22.3-13.4-64.5-35.7-103-84.8c-151.2-192.9-15.1-544.2,36.4-678.6c98.3-256.8,186.4-304.2,151.5-393.8
		c-54.6-140.2-334.5-189.2-539.3-163.6c-227.3,28.4-285.7,139.1-496.8,127.2c-134-7.5-174.5-55.7-315.1-103
		c-38.8-13.1-559.5-181.5-818,54.5c-211.9,193.5-213.8,627.9-78.8,896.7c48.3,96.3,97.8,138.5,84.8,212.1
		C1113.8,1765.6,738.2,1720.4,577.8,1932z"/>
	<linearGradient id="SVGID_4_" gradientUnits="userSpaceOnUse" x1="768.0573" y1="1901.7151" x2="3495.3682" y2="1901.7151">
		<stop  offset="0" style="stop-color:#4085F0"/>
		<stop  offset="1" style="stop-color:#275DC9"/>
	</linearGradient>
	<path class="st1" d="M3494.3,2459.1c-13.3,284.2-150.5,657.2-456.4,852.3c-43.6,27.8-308.4,68.7-836.2,149.5
		c-284,43.4-428.2,63.5-537.3-20.2c-118-90.5-91.3-209.3-234.3-298.9c-123.8-77.5-188.2-16.4-335.3-84.8
		c-201-93.5-283.7-301.9-294.9-331.2c-71.1-186.7-7.5-326.6,36.4-573.6c32-180.5,57.3-439.3,20.2-767.5
		c28.8-119.1,113.8-414.1,349-670.5c21.3-23.3,43.9-46.2,67.8-68.7c40.4-38,84.5-74.6,132.7-109.1
		c150.1-107.4,354.7-253.8,601.9-226.2c171,19.1,231.6,106.9,416.1,84.8c174.5-20.9,230.4-112.5,359.5-84.8
		c143.8,30.9,224.5,177,238.3,202c25.9,46.8,39.2,90.5,44.7,133.3c3,23,3.7,45.8,2.8,68.7c-4.7,129.3-58.2,261.6-27.3,460.5
		c30.9,199,104,193,246.4,513C3402.7,1944.7,3507.3,2179.9,3494.3,2459.1z"/>
	<linearGradient id="SVGID_5_" gradientUnits="userSpaceOnUse" x1="2131.7129" y1="2883.2603" x2="2131.7129" y2="902.007">
		<stop  offset="0" style="stop-color:#68B2FC"/>
		<stop  offset="1" style="stop-color:#EBF0F7"/>
	</linearGradient>
	<path class="st2" d="M3041.9,1174.6c-30.9-198.9,22.6-331.2,27.3-460.5c0.5-14.1,0.5-28.3-0.4-42.4H1246.2
		c-14,14-27.7,28.1-40.7,42.4c-235.2,256.4-320.1,551.4-349,670.5c37.2,328.2,11.9,587-20.2,767.5
		c-43.9,247.1-107.4,386.9-36.4,573.6c5.2,13.6,25.8,65.8,66.5,127.2h2538.7c54.9-133.6,83.4-271.9,89.1-393.8
		c13.1-279.3-91.6-514.5-206-771.5C3145.9,1367.6,3072.7,1373.6,3041.9,1174.6z"/>
	<path class="st3" d="M3331.2,2444.3c-57-5.4-111.2-13.6-170.9-21.7c-2.7-2.7-5.4-8.1-10.8-10.8c-10.8-2.7-24.4,2.7-35.3,0
		c-65.1-27.1-116.6-75.9-184.4-97.6c-19-8.1-38-24.4-57-40.7c-8.1-8.1-24.4-5.4-35.3-10.8c-67.8-27.1-130.2-78.6-203.4-84.1
		c-75.9-8.1-162.7-29.8-233.2,21.7c-8.1,5.4-19,0-27.1,2.7c-108.5,57-222.4,35.3-336.3,16.3c-181.7-27.1-355.3-38-534.3-16.3
		c-21.7,2.7-57-2.7-73.2,19c-10.8,13.6-27.1,0-32.5,13.6c-5.4,16.3-27.1,24.4-27.1,35.3c-5.4,27.1-27.1,40.7-35.3,65.1
		c0,5.4,2.7,10.8,0,16.3c-21.7,32.5-21.7,78.6-13.6,111.2c10.8,48.8,10.8,97.6-2.7,143.7c-8.1,27.1,2.7,46.1-2.7,70.5
		c2.7,0,8.1,0,8.1,0c13.6,48.8,16.3,97.6,38,143.7c4.3,10.1,4,20.9,3.3,31.7h2039.7c54.9-133.6,83.4-271.9,89.1-393.8
		c0.1-2.5,0.2-4.9,0.3-7.4C3440.1,2452.8,3385.6,2452.3,3331.2,2444.3z"/>
	<path class="st4" d="M3069.2,714.1H1205.5c21.3-23.3,43.9-46.2,67.8-68.7h1793.1C3069.3,668.5,3070,691.2,3069.2,714.1z"/>
	<rect x="1339.5" y="714.1" class="st5" width="24.2" height="1808.2"/>
	<rect x="2149.9" y="714.1" class="st5" width="24.2" height="1808.2"/>
	<g>
		<path class="st6" d="M1815.1,1609.5l47.3,229.6c0,0,23,13.7,92,33.9C1945.8,1762.7,1919.1,1650.5,1815.1,1609.5z"/>
		<path class="st7" d="M1983.5,1639.1c-22.7-83.7-56.4-210.6-133.6-218.1c-77.3-7.6-81,20.2-81,20.2l36.9,123.2l9.3,45.1
			c104,41,130.7,153.2,139.2,263.5c25.5,7.5,57.2,15.8,96.4,24.6C2053.7,1846.1,2006.3,1722.8,1983.5,1639.1z"/>
		<path class="st8" d="M1443.6,2465.9c0,0,35-449.7,145.4-561.5c110.4-111.8,215.4-88.9,215.4-88.9s204.7-49.8,328.5,144.1
			c123.9,210,141.4,506.3,141.4,506.3l-121.2,40.4L1443.6,2465.9z"/>
		<path class="st9" d="M1869.9,2219.8c0,0-30.8-33.3,0-71.7c30.8-38.4,31.2-96.9-6.1-130.2c-37.3-33.3-28.4-51.6-2.8-91
			c25.6-39.4-36-55.5-36-55.5s35.3,20.2,18.2,61.6c-17.2,41.4-32,80.8,7.7,114.1c39.7,33.3,8.1,79.4-13,110.4
			c-21,31,6.2,63.3,30,67.4"/>
		<path class="st10" d="M1748.1,1755.5c-2.1,30-3.6,70.5,2.7,74.9c0,0,71.7,44.4,123.2-18.2c-6.5-29.5-11.5-50.8-15.1-65.9
			C1826.8,1765.5,1782.7,1768.6,1748.1,1755.5z"/>
		<path class="st11" d="M1750.8,1722.9c0,0-1.4,14.4-2.7,32.6c34.6,13,78.7,10,110.8-9.2c-6.5-26.8-8.9-34.6-8.9-34.6L1750.8,1722.9
			z"/>
		<path class="st9" d="M1616,2496.8c-0.6-3.9-0.7-11.2-0.8-21.2c-0.1-69.7,10.2-265.6,10.2-265.6s31,188.2,103.7,196.4
			c72.7,8.2,224.8,163.8,403.9,50.3c-103.7,119.5-103.7,119.5-103.7,119.5S1626.7,2572.2,1616,2496.8z"/>
		<path class="st9" d="M2139.7,2521.1c-6.7-296.2-94.3-456.5-94.3-456.5s28.9,126.5,31.2,152.2c3.8,68.7,24.3,234.9,6.8,297
			C2066,2576,2139.7,2521.1,2139.7,2521.1z"/>
		<path class="st7" d="M1748.9,1778.8c-5.5-22.6,2.8-15.1-2.6-37.7c-0.5-2.1-33.7-37-35.7-42.7c-12.9-20.7-19.2-39.1-19.2-39.1
			s-6.4-18.4-10.7-44.3c-1.6-9.3-2.8-19.5-3.4-30.1c16.7-23.9,50.7-58.3,65.6-81.1c10.3-15.7,24.4-37,16.4-56.5
			c-6.3-15.4-20.9-20.4-36.4-20.2c-19.4,0.2-39.3,6.4-53.9,19.4c-32,28.6-43.9,78.2-47.9,119.3c-3.3,34.1,2,67.7,4.4,101.6
			c0.1,1.1,0.1,2.1,0.2,3.2c1.5,25.2,1.1,52.6-4.7,77.2c-4.1,17.3-8.7,34.3-12.3,51.6c-1.2,22.8,0.7,45.4,8.3,66.9
			c14.2,45.3,22.7,96.3,62.3,127.5c15.6,12.5,44.1,16.3,66.1,8.8c4-23.3,3.8-47.9,3.8-69.1
			C1749.5,1881.3,1761.1,1829.2,1748.9,1778.8z"/>
		<path class="st6" d="M1679.4,1993.9c-39.7-31.2-48.2-82.2-62.3-127.5c-7.6-21.5-9.5-44.2-8.3-66.9c-1.5,7.3-2.8,14.7-3.8,22.2
			c-6.6,50.1-4.8,101.7,8.1,150.7c9.1,34.2,25.8,67.1,52,90.9c9.3,8.4,21.8,16,33.6,11.8c6-2.1,11.5-5.5,16.3-9.7
			c17.9-15.9,26.5-38.5,30.6-62.6C1723.5,2010.2,1695,2006.3,1679.4,1993.9z"/>
		<g class="st12">
			<defs>
				<path id="SVGID_1_" class="st12" d="M1443.6,2465.9c0,0,35-449.7,145.4-561.5c110.4-111.8,215.4-88.9,215.4-88.9
					s204.7-49.8,328.5,144.1c123.9,210,141.4,506.3,141.4,506.3l-121.2,40.4L1443.6,2465.9z"/>
			</defs>
			<clipPath id="SVGID_6_">
				<use xlink:href="#SVGID_1_"  style="overflow:visible;"/>
			</clipPath>
			<g class="st13">
				<g>
					<path class="st14" d="M2016.5,2274.6c0,9.5-7.7,17.2-17.2,17.2c-9.5,0-17.2-7.7-17.2-17.2c0-9.5,7.7-17.2,17.2-17.2
						C2008.8,2257.4,2016.5,2265.1,2016.5,2274.6z"/>
				</g>
				<g>
					<path class="st14" d="M2007.8,2347.9c0,9.5-7.7,17.2-17.2,17.2c-9.5,0-17.2-7.7-17.2-17.2c0-9.5,7.7-17.2,17.2-17.2
						C2000.1,2330.8,2007.8,2338.5,2007.8,2347.9z"/>
				</g>
				<g>
					<circle class="st14" cx="1933.8" cy="2284.7" r="17.2"/>
				</g>
				<g>
					<path class="st14" d="M1851.2,2301.8c0,9.5-7.7,17.2-17.2,17.2c-9.5,0-17.2-7.7-17.2-17.2c0-9.5,7.7-17.2,17.2-17.2
						C1843.6,2284.7,1851.2,2292.3,1851.2,2301.8z"/>
				</g>
				<g>
					<path class="st14" d="M1859.3,2381.7c0,9.5-7.7,17.2-17.2,17.2s-17.2-7.7-17.2-17.2c0-9.5,7.7-17.2,17.2-17.2
						S1859.3,2372.2,1859.3,2381.7z"/>
				</g>
				<g>
					<path class="st14" d="M1787.6,2347.9c0,9.5-7.7,17.2-17.2,17.2s-17.2-7.7-17.2-17.2c0-9.5,7.7-17.2,17.2-17.2
						S1787.6,2338.5,1787.6,2347.9z"/>
				</g>
				<g>
					<path class="st14" d="M1704.2,2272.2c0,9.5-7.7,17.2-17.2,17.2c-9.5,0-17.2-7.7-17.2-17.2c0-9.5,7.7-17.2,17.2-17.2
						C1696.5,2255,1704.2,2262.7,1704.2,2272.2z"/>
				</g>
				<g>
					<path class="st14" d="M1770.5,2184.4c0,9.5-7.7,17.2-17.2,17.2c-9.5,0-17.2-7.7-17.2-17.2c0-9.5,7.7-17.2,17.2-17.2
						C1762.8,2167.2,1770.5,2174.9,1770.5,2184.4z"/>
				</g>
				<g>
					<path class="st14" d="M1694.7,2172.8c0,9.5-7.7,17.2-17.2,17.2c-9.5,0-17.2-7.7-17.2-17.2c0-9.5,7.7-17.2,17.2-17.2
						C1687,2155.6,1694.7,2163.3,1694.7,2172.8z"/>
				</g>
				<g>
					<circle class="st14" cx="1574" cy="2178.5" r="17.2"/>
				</g>
				<g>
					<path class="st14" d="M1527.6,2228.4c0,9.5-7.7,17.2-17.2,17.2c-9.5,0-17.2-7.7-17.2-17.2c0-9.5,7.7-17.2,17.2-17.2
						C1519.9,2211.3,1527.6,2219,1527.6,2228.4z"/>
				</g>
				<g>
					<path class="st14" d="M1594.7,2284.7c0,9.5-7.7,17.2-17.2,17.2c-9.5,0-17.2-7.7-17.2-17.2c0-9.5,7.7-17.2,17.2-17.2
						C1587.1,2267.5,1594.7,2275.2,1594.7,2284.7z"/>
				</g>
				<g>
					<path class="st14" d="M1522,2311.4c0,9.5-7.7,17.2-17.2,17.2c-9.5,0-17.2-7.7-17.2-17.2c0-9.5,7.7-17.2,17.2-17.2
						C1514.4,2294.3,1522,2301.9,1522,2311.4z"/>
				</g>
				<g>
					<path class="st14" d="M1606.4,2364.5c0,9.5-7.7,17.2-17.2,17.2c-9.5,0-17.2-7.7-17.2-17.2c0-9.5,7.7-17.2,17.2-17.2
						C1598.7,2347.4,1606.4,2355,1606.4,2364.5z"/>
				</g>
				<g>
					<path class="st14" d="M1552.3,2388.4c0,9.5-7.7,17.2-17.2,17.2c-9.5,0-17.2-7.7-17.2-17.2c0-9.5,7.7-17.2,17.2-17.2
						C1544.6,2371.3,1552.3,2378.9,1552.3,2388.4z"/>
				</g>
				<g>
					<circle class="st14" cx="1453.9" cy="2405.6" r="17.2"/>
				</g>
				<g>
					<path class="st14" d="M1488.2,2257.4c0,9.5-7.7,17.2-17.2,17.2c-9.5,0-17.2-7.7-17.2-17.2c0-9.5,7.7-17.2,17.2-17.2
						C1480.5,2240.2,1488.2,2247.9,1488.2,2257.4z"/>
				</g>
				<g>
					<path class="st14" d="M1516.5,2140.8c0,9.5-7.7,17.2-17.2,17.2c-9.5,0-17.2-7.7-17.2-17.2c0-9.5,7.7-17.2,17.2-17.2
						C1508.8,2123.7,1516.5,2131.4,1516.5,2140.8z"/>
				</g>
				<g>
					<circle class="st14" cx="1589.2" cy="2089" r="17.2"/>
				</g>
				<g>
					<path class="st14" d="M1569.5,2023.7c0,9.5-7.7,17.2-17.2,17.2c-9.5,0-17.2-7.7-17.2-17.2c0-9.5,7.7-17.2,17.2-17.2
						C1561.8,2006.5,1569.5,2014.2,1569.5,2023.7z"/>
				</g>
				<g>
					<path class="st14" d="M1587.2,1929.4c0,9.5-7.7,17.2-17.2,17.2c-9.5,0-17.2-7.7-17.2-17.2c0-9.5,7.7-17.2,17.2-17.2
						C1579.5,1912.2,1587.2,1919.9,1587.2,1929.4z"/>
				</g>
				<g>
					<path class="st14" d="M1816.9,2071.8c0,9.5-7.7,17.2-17.2,17.2c-9.5,0-17.2-7.7-17.2-17.2c0-9.5,7.7-17.2,17.2-17.2
						C1809.2,2054.7,1816.9,2062.3,1816.9,2071.8z"/>
				</g>
				<g>
					<path class="st14" d="M1792.6,1979.1c0,9.5-7.7,17.2-17.2,17.2c-9.5,0-17.2-7.7-17.2-17.2c0-9.5,7.7-17.2,17.2-17.2
						C1784.9,1961.9,1792.6,1969.6,1792.6,1979.1z"/>
				</g>
				<g>
					<path class="st14" d="M1822,1912.2c0,9.5-7.7,17.2-17.2,17.2c-9.5,0-17.2-7.7-17.2-17.2c0-9.5,7.7-17.2,17.2-17.2
						C1814.3,1895,1822,1902.7,1822,1912.2z"/>
				</g>
				<g>
					<path class="st14" d="M1901.9,1863c0,9.5-7.7,17.2-17.2,17.2c-9.5,0-17.2-7.7-17.2-17.2c0-9.5,7.7-17.2,17.2-17.2
						C1894.2,1845.8,1901.9,1853.5,1901.9,1863z"/>
				</g>
				<g>
					<path class="st14" d="M1933.8,1933.3c0,9.5-7.7,17.2-17.2,17.2c-9.5,0-17.2-7.7-17.2-17.2c0-9.5,7.7-17.2,17.2-17.2
						C1926.1,1916.2,1933.8,1923.8,1933.8,1933.3z"/>
				</g>
				<g>
					<path class="st14" d="M2007.8,1912.2c0,9.5-7.7,17.2-17.2,17.2c-9.5,0-17.2-7.7-17.2-17.2c0-9.5,7.7-17.2,17.2-17.2
						C2000.1,1895,2007.8,1902.7,2007.8,1912.2z"/>
				</g>
				<g>
					<path class="st14" d="M1985.3,1835.7c0,9.5-7.7,17.2-17.2,17.2c-9.5,0-17.2-7.7-17.2-17.2c0-9.5,7.7-17.2,17.2-17.2
						C1977.6,1818.5,1985.3,1826.2,1985.3,1835.7z"/>
				</g>
				<g>
					<path class="st14" d="M2126.9,1929.4c0,9.5-7.7,17.2-17.2,17.2c-9.5,0-17.2-7.7-17.2-17.2c0-9.5,7.7-17.2,17.2-17.2
						C2119.3,1912.2,2126.9,1919.9,2126.9,1929.4z"/>
				</g>
				<g>
					<path class="st14" d="M2213.4,2089c0,9.5-7.7,17.2-17.2,17.2c-9.5,0-17.2-7.7-17.2-17.2c0-9.5,7.7-17.2,17.2-17.2
						C2205.8,2071.8,2213.4,2079.5,2213.4,2089z"/>
				</g>
				<g>
					
						<ellipse transform="matrix(0.1602 -0.9871 0.9871 0.1602 -302.6719 4047.4165)" class="st14" cx="2227.2" cy="2201.6" rx="17.2" ry="17.2"/>
				</g>
				<g>
					<path class="st14" d="M2208.4,2284.7c0,9.5-7.7,17.2-17.2,17.2c-9.5,0-17.2-7.7-17.2-17.2c0-9.5,7.7-17.2,17.2-17.2
						C2200.7,2267.5,2208.4,2275.2,2208.4,2284.7z"/>
				</g>
				<g>
					<path class="st14" d="M2179.2,2172.8c0,9.5-7.7,17.2-17.2,17.2s-17.2-7.7-17.2-17.2c0-9.5,7.7-17.2,17.2-17.2
						S2179.2,2163.3,2179.2,2172.8z"/>
				</g>
				<g>
					<circle class="st14" cx="2100.7" cy="2089" r="17.2"/>
				</g>
				<g>
					<path class="st14" d="M2167.1,2009.7c0,9.5-7.7,17.2-17.2,17.2c-9.5,0-17.2-7.7-17.2-17.2c0-9.5,7.7-17.2,17.2-17.2
						C2159.4,1992.5,2167.1,2000.2,2167.1,2009.7z"/>
				</g>
				<g>
					<path class="st14" d="M2091.6,1996.3c0,9.5-7.7,17.2-17.2,17.2c-9.5,0-17.2-7.7-17.2-17.2c0-9.5,7.7-17.2,17.2-17.2
						C2083.9,1979.1,2091.6,1986.8,2091.6,1996.3z"/>
				</g>
				<g>
					<path class="st14" d="M2022.2,1983.1c0,9.5-7.7,17.2-17.2,17.2c-9.5,0-17.2-7.7-17.2-17.2c0-9.5,7.7-17.2,17.2-17.2
						C2014.5,1965.9,2022.2,1973.6,2022.2,1983.1z"/>
				</g>
				<g>
					<circle class="st14" cx="1945.8" cy="2013.4" r="17.2"/>
				</g>
				<g>
					<path class="st14" d="M2022.2,2098.3c0,9.5-7.7,17.2-17.2,17.2c-9.5,0-17.2-7.7-17.2-17.2c0-9.5,7.7-17.2,17.2-17.2
						C2014.5,2081.1,2022.2,2088.8,2022.2,2098.3z"/>
				</g>
				<g>
					<path class="st14" d="M1945.8,2115.4c0,9.5-7.7,17.2-17.2,17.2c-9.5,0-17.2-7.7-17.2-17.2c0-9.5,7.7-17.2,17.2-17.2
						C1938.1,2098.3,1945.8,2106,1945.8,2115.4z"/>
				</g>
				<g>
					<path class="st14" d="M1971.5,2195.7c0,9.5-7.7,17.2-17.2,17.2s-17.2-7.7-17.2-17.2c0-9.5,7.7-17.2,17.2-17.2
						S1971.5,2186.2,1971.5,2195.7z"/>
				</g>
				<g>
					<path class="st14" d="M2062.6,2184.4c-9.5,0-17.2,7.7-17.2,17.2s7.7,17.2,17.2,17.2c4,0,7.7-1.4,10.6-3.7l-3.4-29
						C2067.7,2185,2065.2,2184.4,2062.6,2184.4z"/>
				</g>
				<g>
					<path class="st14" d="M2074.4,2330.8c-9.5,0-17.2,7.7-17.2,17.2c0,9.5,7.7,17.2,17.2,17.2c5.3,0,10.1-2.4,13.2-6.2l-1.9-23.8
						C2082.7,2332.4,2078.7,2330.8,2074.4,2330.8z"/>
				</g>
				<g>
					<path class="st14" d="M2068,2428.1c0,9.5-7.7,17.2-17.2,17.2c-9.5,0-17.2-7.7-17.2-17.2c0-9.5,7.7-17.2,17.2-17.2
						C2060.4,2410.9,2068,2418.6,2068,2428.1z"/>
				</g>
				<g>
					<path class="st14" d="M1976.5,2442.5c0,9.5-7.7,17.2-17.2,17.2c-9.5,0-17.2-7.7-17.2-17.2c0-9.5,7.7-17.2,17.2-17.2
						C1968.8,2425.3,1976.5,2433,1976.5,2442.5z"/>
				</g>
				<g>
					<path class="st14" d="M1942.1,2371.3c0,9.5-7.7,17.2-17.2,17.2c-9.5,0-17.2-7.7-17.2-17.2c0-9.5,7.7-17.2,17.2-17.2
						C1934.5,2354.1,1942.1,2361.8,1942.1,2371.3z"/>
				</g>
				<g>
					<circle class="st14" cx="1892.4" cy="2434.9" r="17.2"/>
				</g>
				<g>
					<circle class="st14" cx="1868" cy="2155.6" r="17.2"/>
				</g>
				<g>
					<path class="st14" d="M1881.2,2013.4c0,9.5-7.7,17.2-17.2,17.2c-9.5,0-17.2-7.7-17.2-17.2c0-9.5,7.7-17.2,17.2-17.2
						C1873.5,1996.3,1881.2,2004,1881.2,2013.4z"/>
				</g>
				<g>
					<path class="st14" d="M1804.8,2262.8c0,9.5-7.7,17.2-17.2,17.2c-9.5,0-17.2-7.7-17.2-17.2c0-9.5,7.7-17.2,17.2-17.2
						C1797.1,2245.6,1804.8,2253.3,1804.8,2262.8z"/>
				</g>
			</g>
		</g>
	</g>
	<g>
		<path class="st15" d="M1368.4,1426.6c-75.7,180.2-161.6,329.9-161.6,329.9l-51.6-24.1c0,0-19.9-261.4,25.4-370
			C1287.6,1105.9,1444.1,1246.4,1368.4,1426.6z"/>
		<path class="st16" d="M1055.6,1875.9c-64.9-1-65.9-4.5-65.9-4.5s-117.5,308.7,36.4,680.6h106c-31.4-35.1-52.6-77.9-64.3-124.7
			C1027.5,2242,1002.6,2054.2,1055.6,1875.9z"/>
		<path class="st17" d="M1105.3,1876.1c-19.8,0.1-36.2,0-49.8-0.3c-53,178.3-28.1,366.2,12.2,551.5c11.7,46.8,32.8,89.6,64.3,124.7
			h54.8c-44.3-92.3-78.4-187.1-90.8-286.2C1080.3,2136.3,1071.8,2001.7,1105.3,1876.1z"/>
		<path class="st16" d="M1189.7,2325.3c-22.7-70.8-51-138.8-53.8-209.7c-5.3-78.9-15.4-162.6,10.3-239.9c-15,0.2-28.6,0.3-40.8,0.3
			c-33.5,125.6-25.1,260.2-9.2,389.7c12.4,99.1,46.4,193.9,90.8,286.2h126.9c0,0,2.4-4.2,6.5-12.3
			C1237.7,2521.3,1216.9,2397.3,1189.7,2325.3z"/>
		<path class="st16" d="M1394.9,2192.1c-0.6,56.5-6,107.3-13.8,151.7c-32,0.8-61.1-13.5-81.9-34.7c-3.7-3.8-7.2-7.8-10.4-12.1
			c-5-6.8-9.7-13.7-14.4-20.7c-79.2-119.7-108.1-261.1-98-399.5c0.1-0.5,0.1-0.9,0.1-1.4c16.9-0.3,35.3-0.7,55.3-1.1
			c-2.6,115.7-1.5,276.7,122.1,317.9C1368.9,2197.1,1382.7,2196.6,1394.9,2192.1z"/>
		<path class="st17" d="M1381.1,2343.8c-17.7,101.3-47.6,169.5-60.7,195.9c-82.6-18.4-103.4-142.4-130.7-214.3
			c-22.7-70.8-51-138.8-53.8-209.7c-5.3-78.8-15.4-162.6,10.3-239.9c9.4-0.1,19.3-0.2,29.8-0.4h0.6c0,0.5-0.1,0.9-0.1,1.4
			c-1,12.6-2.7,27.8-2.9,40c-2.7,126,28.5,250.6,100.9,359.5c4.6,7,9.4,13.9,14.4,20.7c3.2,4.2,6.6,8.2,10.4,12.1
			C1319.9,2330.3,1349.1,2344.6,1381.1,2343.8z"/>
		<path class="st17" d="M1288.8,2010.9c-16.3-41.9-19.2-91.6-7.1-137.8c-17.6,0.5-34.3,0.9-49.8,1.2
			c-2.6,115.6-1.5,276.7,122.1,317.9c14.9,5,28.8,4.4,40.9-0.1c0.4-32.9-0.9-67.7-4.3-104.3
			C1340,2113.7,1305.2,2051.8,1288.8,2010.9z"/>
		<path class="st17" d="M1305.8,1954.2c0,36.8,45.3,87.8,73.7,59.5c0.5-0.4,0.9-0.9,1.4-1.4c-7.4-44.9-18-92-32.6-141.2
			c-12.6,0.4-24.7,0.8-36.4,1.1C1298.5,1898.2,1303.3,1926.2,1305.8,1954.2z"/>
		<path class="st16" d="M1379.5,2013.7c-28.3,28.3-73.7-22.7-73.7-59.5c-2.5-28-7.3-56,6.1-82c-10.4,0.3-20.5,0.6-30.2,0.8
			c-12.1,46.2-9.2,95.9,7.1,137.8c16.4,40.9,51.1,102.8,101.8,77c-2.2-24.4-5.4-49.6-9.7-75.5
			C1380.4,2012.8,1380,2013.2,1379.5,2013.7z"/>
		<ellipse class="st7" cx="1169.6" cy="1871.1" rx="178.7" ry="31.1"/>
		<path class="st15" d="M1024.4,1871.1c0,0-284.1-227.6-237-368.9c47.1-141.4,246.4,121.1,329.9,353.4
			C1070.2,1888.3,1034.2,1885,1024.4,1871.1z"/>
		<path class="st18" d="M1033.8,1730c-17.5-72.8-32-146-42.3-221.4c-8.2-60.6-14.9-122-14.1-183.2c0.4-36-0.5-91.8,27.4-119.6
			c3.4-3.4,7.1-6.3,11.5-8.3c95.6-43.1,200.6,490.1,150.8,667.2c-47.4,39.1-82.6,23.5-95,10.7
			C1058.3,1826.7,1045.4,1778.4,1033.8,1730z"/>
		<path class="st3" d="M1225.7,1886.2c0,0,111.1-219.5,37.7-276c-73.4-56.6-127.2,121.2-121.2,266.6
			C1188,1907.1,1225.7,1886.2,1225.7,1886.2z"/>
		<path class="st15" d="M1293.7,1889.6c0,0,113.8-31.6,107-117.1c-6.7-85.5-110.4-27.6-138,112.4
			C1278.2,1888.9,1293.7,1889.6,1293.7,1889.6z"/>
		<path class="st18" d="M1310.2,1543.8c79.8-7.1,77.5,115.2,21.2,235.3c-56.3,120.1-59.9,106.4-59.9,106.4l-37.4,7.7
			C1234.1,1893.2,1230.4,1550.9,1310.2,1543.8z"/>
	</g>
	<g>
		<g>
			<linearGradient id="SVGID_7_" gradientUnits="userSpaceOnUse" x1="1664.2871" y1="3162.2075" x2="2242.2461" y2="3162.2075">
				<stop  offset="0" style="stop-color:#4085F0"/>
				<stop  offset="1" style="stop-color:#275DC9"/>
			</linearGradient>
			<path class="st19" d="M1965.4,2941.3l-301.1,499.3c0,0,0.1,0.1,0.1,0.1c92.4,70.9,210,67.3,416.4,38.2
				c25.4-154.9,79.4-440.5,161.4-652.9C2091.3,2888.6,1965.4,2941.3,1965.4,2941.3z"/>
			<path class="st20" d="M2637,2863.7c70.8,25.5,147.3,17,223.8,5.7c39.7-5.7,70.8-28.3,110.5-45.3c79.7-36,108.1-121.1,97.8-204.3
				c-116.1,0-308.6,0-319.1,0c-9,0-285.5,114-507.8,206.3c-10.8,27.9-21,57-30.8,86.9c36.2-35,80.5-58.6,133.8-60.5
				C2438.7,2852.3,2549.2,2829.7,2637,2863.7z"/>
			<path class="st7" d="M3270.1,2814.6c-28.3-115.1-114.1-194.9-114.1-194.9s-36.1,0-86.8,0c10.3,83.2-18.1,168.3-97.8,204.3
				c-39.7,17-70.8,39.7-110.5,45.3c-76.5,11.3-153,19.8-223.8-5.7c-87.8-34-198.3-11.3-291.8-11.3c-53.2,1.9-97.5,25.5-133.8,60.5
				c-64.9,198.2-108.6,431.4-130.6,566c37.3-5.3,77.4-11.4,120.9-18c85-13,163.2-25,234.7-36l34.9-44.8
				c89.8-68.7,108.1-196.9,108.1-196.9s88.9,45.4,253.6,48.5C3279.4,3252.9,3298.4,2929.7,3270.1,2814.6z"/>
			<path class="st6" d="M2579.3,3183.2c29.7-59.3,36.8-78.8,21.3-146.4c0,0,347.3,200,551.3,21.2c204-178.7,0-412,0-412l18-11.8
				c0,0,210.8,201.5,60,439.4C3079.2,3311.4,2662.2,3246.8,2579.3,3183.2z"/>
		</g>
		<path class="st21" d="M2446,2299.5c-14-41.2-26.3-80.4-36.3-115.1"/>
		<path class="st22" d="M2911.8,2127c-36.8-62.3-53.8-130.3-39.7-201.2c14-58.8,25.3-114.9,58.4-165.4
			c-109.7-106.3-251.6-107.9-251.6-107.9c-52.3-6.4-214.1,66-265.9,114.5c-5.1,4.7-9.7,10.3-13.9,16.5c0,0-0.1,0.1-0.1,0.1
			c-38.7,58.1-40.4,180.7-7.6,330.1c4.4,20.2,10.6,44.1,18.2,70.6l36.3,115.1c3.8,11.3,7.8,22.8,11.9,34.4
			c7.8,22.3,16,44.9,24.4,67.6c94.7-29.3,198.5-28.2,296.3-59.2C2872.2,2314,2971.3,2226.2,2911.8,2127z"/>
		<path class="st23" d="M2954.3,2421.7c70.8-48.2,102-119,116.2-198.3c6.1-31.1,11.5-61.7,16.5-91.9
			c-10.9-60.4-29.6-134.7-65.4-229.8c-22.9-60.7-55.3-106.5-91.1-141.3c-33.1,50.5-44.4,106.6-58.4,165.4
			c-14.2,70.8,2.8,138.8,39.7,201.2c59.5,99.2-39.7,187-133.2,215.3c-97.8,31-201.7,29.9-296.3,59.2c12.3,33,25.1,66,38.2,98
			C2668.8,2503.7,2819.7,2510.6,2954.3,2421.7z"/>
		<path class="st24" d="M3116.6,2342c-14.9-53.3-12.3-114.3-29.5-210.5c-5,30.2-10.5,60.7-16.5,91.9
			c-14.2,79.3-45.3,150.2-116.2,198.3c-134.6,89-285.6,82-433.8,77.9c49.9,122.3,102.6,229.2,137.6,258.5
			c74.7,62.6,440.3-36.3,494.8-90.9C3207.5,2612.6,3140.8,2428.8,3116.6,2342z"/>
		<g>
			<g>
				<defs>
					<path id="SVGID_3_" d="M2856,2594.1L1637,3416.7c8.2,8.2,17.3,16.2,27.5,24c12.2,9.3,24.8,17.4,38,24.2h11.5l1136.8-769.5
						L2856,2594.1z"/>
				</defs>
				<use xlink:href="#SVGID_3_"  style="overflow:visible;fill:#572658;"/>
				<clipPath id="SVGID_8_">
					<use xlink:href="#SVGID_3_"  style="overflow:visible;"/>
				</clipPath>
				<g class="st25">
					<path class="st26" d="M2210.8,3031.2c5.7-11.6,20.5-17.9,32.8-13.7c3.5,8.9,2.7,19.1-0.2,28.2s-7.8,17.5-12.5,25.9
						c-14.1,25.1-27.1,50.9-38.8,77.2"/>
					<path class="st26" d="M2238.5,3113.2c4.2-7.6,8.4-15.3,12.7-22.9c4.2-7.5,8.3-15.1,13.5-22c12.7-16.8,30.7-28.7,45.5-43.6
						c12.9-13,23.4-28.3,30.9-45c1.6-3.5,2.8-8.1,0-10.7c-1.1-1.1-2.7-1.5-4.2-1.9c-36.2-9.2-76-3-107.6,16.9"/>
					<path class="st26" d="M2330.3,3059.3c3.2-21.1,15.8-39.4,28-56.9c24.8-35.5,49.7-71.1,76.9-104.7c12.7-15.7,26.1-31.2,43-42.1
						c4-2.6,8.4-5,13.1-4.8c8.3,0.4,14.3,8.9,14.7,17.2c0.4,8.3-3.5,16.1-7.7,23.2c-11.3,19.1-25.9,36.2-43.1,50.3
						c-7.6,6.2-15.9,12-25.5,14.2c-1.9,0.4-4,0.6-5.5-0.5c-1.6-1.3-1.8-3.7-1.5-5.7c0.9-7.5,5.1-14.1,9.4-20.4
						c14.7-21.5,32.5-43.6,57.8-49.8c2.2,4-1.2,8.7-4.4,12c-8.3,8.5-16.6,17.1-24.9,25.6"/>
					<path class="st26" d="M2472.8,2961.9c24.7-30.4,46.4-63.2,64.8-97.8c5.4-10.2,10.6-20.7,13.4-31.9c1.6-6.4,2.5-12.9,3.3-19.4
						c0.2-1.5,0.4-3.1-0.1-4.6c-0.9-2.8-3.8-4.4-6.5-5.5c-11.9-4.5-25.8-3.5-36.8,2.8"/>
					<path class="st26" d="M2544.1,2917.3c8.1-6.8,16-14.2,21.2-23.4c7.5-13.1,9.1-28.6,13.5-43c3.4-11,8.4-21.4,13.9-31.4
						c6.6-12,13.9-23.6,22.5-34.3c8.3-10.3,17.8-19.6,28.3-27.7c12.2-9.5,25.9-17.5,35.8-29.4c9.9-11.9,15.2-29.5,7.7-43"/>
					<path class="st26" d="M2605,2879.8c1.3-15.5,8.2-29.9,15-44c4.9-10.2,9.9-20.5,17.1-29.2c13.6-16.6,33.8-26.1,50.3-39.9
						c18.6-15.5,32-36.1,45.2-56.4c7.4-11.4,14.8-22.8,19.8-35.5c4.9-12.6,7.2-26.7,4-39.8"/>
					<path class="st26" d="M2675.9,2832c-5-12.4,3.3-25.8,11.1-36.5c7-9.5,13.9-19,22.1-27.5c11.1-11.5,24.2-20.9,35.1-32.6
						c17-18.3,28-41.3,38.1-64.1c4.2-9.5,8.6-19.4,16.8-25.8c8.2-6.4,21.4-7.6,28.2,0.2c2.4,2.7,3.7,6.2,4.5,9.7
						c2.4,10.5,0,21.7-4.5,31.5c-4.5,9.8-11.1,18.5-17.7,27.1c-4.4,5.8-10.2,12.2-17.4,11.4c-1.4-15.2-2.6-31.4,4.7-44.8
						c3.1-5.6,9.7-10.9,15.4-7.9c4.1,2.1,5.3,7.7,3.9,12.1c-1.4,4.4-4.7,7.9-8,11.2"/>
					<path class="st26" d="M2819,2619.4c5.3-0.5,10.7,0.3,15.6,2.5c1.9,0.9,3.8,2,5.1,3.6c1,1.2,1.6,2.6,2.2,4
						c4.1,9.2,7.8,18.6,11,28.2c1.6,4.8,3.1,9.7,6.2,13.8"/>
					<path class="st26" d="M1689.9,3345.2c-9.2,24.7-15.4,50.6-18.4,76.8c-0.9,8-1.1,17.2,4.8,22.7c2.7,2.5,6.4,3.8,10,4.1
						c10.5,1,20.3-5.3,28.3-12.2c8.1-6.8,15.8-14.7,25.9-17.9c6.2-2,12.8-2,19.3-1.8c5.9,0.2,12.6,1.1,16.2,5.9c2,2.6,2.6,6,3.1,9.3
						c1,5.7,2,11.3,2.9,17c1,5.7,1.4,12.9-3.6,15.9"/>
					<path class="st26" d="M1747,3324.4c-9.1,16.8-13.2,36.3-11.7,55.3c29.9-4.1,51.2-30.6,78.4-44c12.5-6.1,26.4-9.5,40.3-9.6
						c0,7.1-2.6,14.2-7.2,19.7c-6.6,7.9-16.6,12-24,19.1c-4.7,4.4-8.3,9.9-11.8,15.3c-3.1,4.7-6.3,10-5.3,15.5
						c1.1,5.9,6.9,10,12.8,10.9c5.9,0.9,11.9-0.9,17.5-3c9.5-3.6,18.6-8.3,27-14"/>
					<path class="st26" d="M1809.9,3292c14.1-0.4,27.2-9.1,41.3-8.9c7.9,0.1,15.5,3,23.2,4.8c26.3,6,53.6-1.5,79.6-9
						c28.3-8.1,56.5-16.2,84.8-24.3c16.2-4.6,34.6-11.3,40.1-27.2"/>
					<path class="st26" d="M2169.8,3038.4c4.7-2.3,8.7,4.3,9.6,9.5c2.5,15.4,1.5,31.3-2.9,46.3c-3,10.2-7.5,19.8-12,29.5
						c-10.9,23.3-21.8,46.5-32.7,69.8c-7.9,16.9-16,34-27.1,49"/>
					<path class="st26" d="M1874.4,3248.1c40.8,8.3,84.6,0.6,120.1-21.1c16.1-9.8,30.8-22.4,48.9-27.7c7.8-2.2,15.9-3,23.9-4.5
						c29.1-5.5,57.2-22.5,69.9-49.2c5.7-11.9,8.1-25.2,10-38.2c1.6-10.4,2.9-20.9,4-31.3c0.7-7,0.8-15.3-4.9-19.4"/>
					<path class="st26" d="M2132.5,3068c-2.8,16.6-5.8,33.4-12.9,48.6c-9,19.2-24.3,34.7-39.8,49.1c-10.3,9.5-21.2,19-34.5,23.3
						c-9,3-18.7,3.4-28.2,3.3c-31.2-0.2-65.7-4.1-90.4,14.8"/>
					<path class="st26" d="M1975.6,3167.5c24.4,1.7,50.5,2.9,71.4-9.7c14.2-8.5,24.2-22.4,33.8-35.9c7.8-10.9,15.9-23.3,14.2-36.6
						c-1.6-12.4-11.3-21.9-20.4-30.5"/>
				</g>
			</g>
			<path class="st27" d="M780.8,2465.8c0,0-2.9,5.4-8.2,15c-9.6,81.8-5.6,158.3,27.4,244.9c11.2,29.4,93.9,237.8,294.9,331.2
				c147.1,68.4,211.5,7.3,335.3,84.8c130.7,81.9,119.6,188.1,206.8,274.9L2856,2594.1L780.8,2465.8z"/>
			<path class="st28" d="M1084.4,2733.3c34-11.3,110.5-2.8,99.2-45.3c-2.8-17-36.8-17-59.5-19.8c-51-11.3-96.3,0-147.3-8.5
				c-68.8-11.2-135.9-25.1-203.1-32c4.9,31.8,13.4,64.2,26.3,98.1c1.6,4.3,4.8,12.5,9.7,23.6c59.5-0.4,118.9-6.8,178.4-13.1
				C1019.3,2733.3,1053.3,2741.8,1084.4,2733.3z"/>
			<path class="st28" d="M1313.9,2588.8c28.3,82.2,5.7,204,93.5,249.3c226.7,121.8,490.1,51,736.6,73.7
				c113.3-73.7,206.8-161.5,325.8-235.2c114.7-68.8,246.1-80.1,376.2-75.8l10-6.7l-1626.2-100.5
				C1268.1,2515.8,1298.7,2547.8,1313.9,2588.8z"/>
			<path class="st29" d="M2311.2,2257.3c17-99.2,0-192.7,19.8-291.8c11.3-53.8,42.5-96.3,56.7-147.3c2.4-9.1,4.6-18.5,6.2-28
				c-21.5,28-101.6,140.1-103.4,259.9c-1.8,124.9,29.2,254.7-141.4,360.4c3.8,2.5,7.5,5.2,11.1,8.2
				C2237.7,2405.3,2299.7,2337.9,2311.2,2257.3z"/>
			<path class="st22" d="M2410.5,2242.6c0-0.2-0.1-0.4-0.1-0.5c-1.3-7.3-2.7-14.6-4.2-21.9c0-0.1-0.1-0.3-0.1-0.4
				c-1.9-8-3.6-13.9-4.6-21.2c-1.7-11.9-1.5-27.5,2.5-61.7c5.5-19.2,15.1-37.4,27.1-54.4l-31.9-298.9c-0.4,0.5-2.2,2.7-5.2,6.6
				c-1.6,9.5-3.8,18.8-6.2,28c-14.2,51-45.3,93.5-56.7,147.3c-19.8,99.2-2.8,192.7-19.8,291.8c-11.5,80.5-73.5,148-151,161.4
				c27.2,22.2,48.1,54.9,80.1,70.9c65.2,34,136-17,161.5-76.5c22-56.2,21.2-83.8,13-141C2413.5,2263.1,2412.1,2253.4,2410.5,2242.6z
				"/>
			<path class="st29" d="M2406.1,2219.8c-1.9-8-3.6-13.9-4.6-21.2c0.1,0.7,0.3,1.4,0.5,2.1
				C2403.3,2207.1,2404.8,2213.4,2406.1,2219.8z"/>
			<path class="st29" d="M2414.8,2272.2c-1.3-9-2.8-18.8-4.4-29.6C2412.2,2252.5,2413.7,2262.4,2414.8,2272.2z"/>
			<path class="st23" d="M2420.8,2459.1c-43.4,64.6-184.8,104-248.4,116.1c-63.6,12.1-100-56.6-85.8-131.3
				c23.4-10.8,44.2-22,62.6-33.4c33.1,21.4,55,61,91.3,79.1c65.2,34,136-17,161.5-76.5c22-56.2,21.2-83.8,13-141
				c-1.3-9-2.8-18.8-4.4-29.6c0-0.2-0.1-0.4-0.1-0.5c-1.4-9.3-2.9-16.1-4.2-21.9c0-0.1-0.1-0.3-0.1-0.4c-1.9-8-3.6-13.9-4.6-21.2
				c-1.7-11.9-1.5-27.5,2.5-61.7l54,197C2458.7,2392.5,2448.2,2418.4,2420.8,2459.1z"/>
			<path class="st6" d="M2092.6,2451.7c0,0-5.6,48.7,9.4,79.4s47.8,42.1,77.4,34.7s-3.4-90.2-23.9-102.7
				S2104.4,2430.5,2092.6,2451.7z"/>
			<path class="st3" d="M2104,2427.8c0,0,124,21.9,99.7,153.2c61.3-14.8,90.9-28.3,90.9-28.3s-1.3-168.3-112.4-171
				C2109.4,2419.4,2104,2427.8,2104,2427.8z"/>
			<path class="st10" d="M1968.4,2637c45.3-8.5,48.2-65.2,82.2-93.5c33.5-26,73-37.4,113.9-42.2c-4-19.4-17.7-42.1-60.5-38.7
				c0,0-103.9-0.8-151.8,32.1c-40.5,27.9-53.2,105.9-51.2,137.8C1922,2642.1,1947.2,2640.9,1968.4,2637z"/>
			<path class="st11" d="M2050.6,2543.5c-34,28.3-36.8,85-82.2,93.5c-21.2,3.9-46.4,5.1-67.4-4.4c0.4,5.8,1.2,10.1,2.4,12.3
				c8.1,14.1,67.3,28.9,118.8-23.6c51.5-52.5,61.8-70.7,102.2-79.9c40.4-9.2,40.9-14.3,40.9-14.3s2-12.1-0.9-25.8
				C2123.6,2506.1,2084,2517.5,2050.6,2543.5z"/>
		</g>
		<path class="st11" d="M2549.2,1540.6c5,39.8-29.4,62.1-57,84.3c2,10.4,4.7,24.1,7.3,38C2543.2,1641,2569.9,1587.2,2549.2,1540.6z"
			/>
		<path class="st10" d="M2664.8,1652c-21,0.9-92.2-254.3-96.9-287.6c-3.4-23.5-210-13.5-242.4-1.3c-32.3,12.1-30,35.7-30,35.7
			s26.3,157.5,109.1,232.3c42.4,30.3,83.8-25.1,83.8-25.1s1.5,7.6,3.7,18.9c27.6-22.1,62-44.5,57-84.3c20.7,46.7-6,100.4-49.7,122.3
			c5.3,28.2,10.6,57.5,10.6,63.2c0,11.4,62.6,48.5,72,47.8C2591.5,1773.1,2687.5,1651,2664.8,1652z"/>
		<path class="st30" d="M2586.9,1819.9c14.6-41.9,0-59.5,0-59.5s-79.3-67.1-87.9-60.1c0,0-1.4,0.8-3.6,2
			c46.1,18.4,59.9,73.8,81.4,117.4C2581,1820.5,2584.5,1820.7,2586.9,1819.9z"/>
		<path class="st3" d="M2495.5,1702.3c-13.4,7.6-60,34.1-60,35.8c0,1.8,102.8,73.6,141.4,81.6
			C2555.3,1776,2541.5,1720.6,2495.5,1702.3z"/>
		<path class="st30" d="M2600.2,1767.2c36.7-44.6,95.2-77,94.7-135.5c-20.9-6.9-44.9-5.2-44.9-5.2c-2,22.2-29.3,82.8-72.2,132.3
			c-12.1,13.1,4.5,67.7,4.5,67.7s4.4-2.1,11.9-7.1C2588.9,1801.7,2587.9,1784.1,2600.2,1767.2z"/>
		<path class="st3" d="M2719.7,1648.2c-5.7-8.1-14.9-13.2-24.8-16.5c0.4,58.5-58.1,90.9-94.7,135.5c-12.3,16.9-11.2,34.5-6,52.2
			C2618,1803.4,2673.2,1756.9,2719.7,1648.2z"/>
		<path class="st7" d="M2233.2,1312.4c0,0-8.8,111.1,82.1,103.7c84.2-24.2,84.2-24.2,84.2-24.2s43.8,55.9,64,35.4
			c33.7,53.5,45.1,74.4,41.1,102.7c-4,28.3-68.7,46-86.8,43.5c-18.2-2.5-43.1,29.6-43.1,29.6s24.2,64.9,67.3,55.4
			c43.1-9.4,95.6-31.6,95.6-80.8s-14.1-90.2-25.6-125.2c-11.4-35,0.7-61.3,37-55.9c36.4,5.4,31,59.2,15.5,92.9
			c-8.8,21.5,14.8,61.9,41.1,61.9c26.3,0,41.1-40.4,41.1-73.4c0-33-24.2-198.6-59.2-206c-35-7.4-61.3-4.7-74.7,23.6
			c-39-37-84.2-59.2-137.3-32.3C2322.1,1290.1,2251.4,1325.8,2233.2,1312.4z"/>
		<path class="st29" d="M2869.6,1712.8c247,133,336.6,477,312.7,646.3c-22.1,156.4-277.7,206-339.3,211.1
			c-61.6,5-169.7-0.5-238.3,18.2c-68.7,18.7-118.2,25.8-128.8-27.8c-10.6-53.5,0.5-99,0.5-99s75.7-35.3,144.4-27.3
			c68.7,8.1,248.4-30.3,279.2-51.5c30.8-21.2,111.6-91.4-19.7-327.7l-25.2-39.4"/>
		<path class="st22" d="M3121.5,2390.5c87.8-136,5.7-286.2-45.3-416.5c-17.4-49-40-97-64.5-145.2c-39.9-46.3-87.1-86.4-142.1-116
			l-14.5,303l25.2,39.4c131.3,236.3,50.5,306.5,19.7,327.7c-30.8,21.2-210.6,59.6-279.2,51.5c-68.7-8.1-144.4,27.3-144.4,27.3
			s-11.1,45.4-0.5,99c1.3,6.4,3.1,11.9,5.5,16.7c28.4-5.1,55.8-14,84.9-14C2761.7,2557.7,3002.5,2571.8,3121.5,2390.5z"/>
		<path class="st23" d="M3011.6,1828.8c24.5,48.2,47.2,96.3,64.5,145.2c51,130.3,133.2,280.5,45.3,416.5
			c-119,181.3-359.8,167.2-555.3,172.8c-29.1,0-56.5,8.8-84.9,14c17.3,35,62.8,27.5,123.3,11.1c68.7-18.7,176.7-13.1,238.3-18.2
			c61.6-5,317.2-54.7,339.3-211.1C3200.8,2227.5,3150.8,1990.4,3011.6,1828.8z"/>
		<path class="st3" d="M2625.9,2434.9c0,0,58.5,34.3,43,120.5c-10.1,33.7-10.1,33.7-10.1,33.7l-117.1,19.5c0,0-64,15.5-77.4-68.7
			c-13.5-84.2,13.5-89.9,49.8-97.4C2550.4,2434.9,2625.9,2434.9,2625.9,2434.9z"/>
		<path class="st6" d="M2490.1,2466.5c15.4-4.4,78.8,11.1,83.1,62.6c4.4,51.5,2,61.6-20.2,66.3c-22.2,4.7-66.9,4.4-74.4-38.7
			C2471.3,2513.7,2474.8,2470.9,2490.1,2466.5z"/>
		<path class="st10" d="M2342.4,2662.5c72.3-37.5,134.4-87.6,212.8-107.3c-1.7-28.2-18.4-59.4-51.8-59c0,0-113.8-6.7-164.9,38.4
			c-51.2,45.1-162.2,137.3-153.5,152.8c0.7,1.3,1.7,2.3,2.9,3.1c25.1-21.6,47.6-46,81-53.5
			C2299.9,2631.3,2311.2,2679.5,2342.4,2662.5z"/>
		<path class="st11" d="M2342.4,2662.5c-31.2,17-42.5-31.2-73.7-25.5c-33.4,7.4-55.9,31.9-81,53.5c12.8,8.6,50.9-12.3,94.1-46.9
			c8.1,18.9,57.9,50.5,103,31.6c45.1-18.9,100.1-85.1,168.5-98.6c1.7-6.5,2.3-13.9,1.8-21.5
			C2476.8,2574.9,2414.6,2625,2342.4,2662.5z"/>
	</g>
	<g>
		<polygon class="st30" points="1851.2,2452.7 1314.3,2421.8 1288.8,2434.9 1818.4,2462.3 		"/>
		<polygon class="st31" points="1888.6,2642.2 2306.7,2702.2 2083.5,2873.2 1821.3,2778.1 		"/>
		<polygon class="st32" points="1920.3,2681.3 2217.1,2722.4 2080.8,2823.3 1874.1,2786.3 		"/>
		<line class="st33" x1="1930" y1="2710.1" x2="2166" y2="2747.4"/>
		<line class="st33" x1="1887.5" y1="2743.4" x2="2123.4" y2="2780.8"/>
		<line class="st33" x1="2166" y1="2726.7" x2="2056.8" y2="2803"/>
		<line class="st33" x1="2111.4" y1="2719.6" x2="2002.1" y2="2795.8"/>
		<line class="st33" x1="2056.8" y1="2712.4" x2="1947.5" y2="2788.7"/>
		<line class="st33" x1="2002.1" y1="2705.3" x2="1892.9" y2="2781.5"/>
		<polygon class="st7" points="2092.6,2908.2 1559.4,2867.8 1535.8,2840.2 2083.5,2873.2 		"/>
		<polygon class="st31" points="1288.8,2434.9 1818.4,2462.3 2050.9,2891.3 1516.3,2848.3 		"/>
		<path class="st8" d="M1626.1,2690.1l10-57.5c1.4-8,11.3-10.9,16.8-4.9l53.5,58.9c5.7,6.3,1.1,16.4-7.4,16.3l-63.6-1.4
			C1629.5,2701.4,1625.1,2696,1626.1,2690.1z"/>
		<polygon class="st6" points="1851.2,2452.7 2083.5,2873.2 2050.9,2891.3 1818.4,2462.3 		"/>
		<polygon class="st6" points="2310.1,2738.5 2306.7,2702.2 2083.5,2873.2 2092.6,2908.2 		"/>
	</g>
	<path class="st10" d="M1931.5,1569.4c-6.6-2.8-16.6,1.2-23.1,4.7c0.6-53.8-19.1-119.6-118.7-118.8c-10.4,0.1-19.9,0.9-28.5,2.4
		c0.1,2.8,0,5.5-0.5,8.2c-2.2,13.9-10.1,26-17.7,37.8c-15,22.9-49,57.2-65.6,81.1c0.2,3.1,0.4,6.2,0.7,9.3
		c-10.4-5.8-32.2-14.3-36.5,13.6c-4.7,30.4,33.3,39.9,47,42.4c1.6,5.8,2.8,9.1,2.8,9.1s6.3,18.3,19.2,39.1
		c18.3,29.4,49.8,63.7,95.2,57.4c77.4-10.8,92.2-113.3,92.2-113.3s0.8-2.6,2-7.3c3.1-0.7,7.4-1.6,13-2.7
		C1945.2,1623,1942.1,1574,1931.5,1569.4z"/>
	<path class="st7" d="M1769.3,1433.4c0,0-13.1,24-1.3,50.7c11.9,26.8,101.7,51.7,101.7,51.7s4.6,4,16.8,13.1
		c12.2,9.1,16.2,37.7,16.2,37.7s20.5-49.8,20.5-56.9C1923.3,1522.7,1837.1,1415.1,1769.3,1433.4z"/>
	<path class="st7" d="M1742.7,1450.8c0,0,23.2-6.6,24.7,30.8c1.5,37.4-48,52.1-64.6,79.6c-16.2,27.4-7.4,50.3-7.4,50.3
		s-19.4-8.2-24.4-35C1665.9,1549.8,1742.7,1450.8,1742.7,1450.8z"/>
	<linearGradient id="SVGID_9_" gradientUnits="userSpaceOnUse" x1="3405.4072" y1="1370.3467" x2="3643.4829" y2="1370.3467">
		<stop  offset="0" style="stop-color:#4085F0"/>
		<stop  offset="1" style="stop-color:#275DC9"/>
	</linearGradient>
	<circle class="st34" cx="3524.4" cy="1370.3" r="119"/>
	<linearGradient id="SVGID_10_" gradientUnits="userSpaceOnUse" x1="214.2778" y1="2452.0295" x2="634.3759" y2="2452.0295">
		<stop  offset="0" style="stop-color:#68B2FC"/>
		<stop  offset="1" style="stop-color:#529BF7"/>
	</linearGradient>
	<circle class="st35" cx="424.3" cy="2452" r="210"/>
	<linearGradient id="SVGID_11_" gradientUnits="userSpaceOnUse" x1="3173.8479" y1="3478.5649" x2="3297.5901" y2="3478.5649">
		<stop  offset="0" style="stop-color:#4085F0"/>
		<stop  offset="1" style="stop-color:#275DC9"/>
	</linearGradient>
	<circle class="st36" cx="3235.7" cy="3478.6" r="61.9"/>
	<linearGradient id="SVGID_12_" gradientUnits="userSpaceOnUse" x1="3524.4451" y1="2832.7986" x2="3785.7222" y2="2832.7986">
		<stop  offset="0" style="stop-color:#68B2FC"/>
		<stop  offset="1" style="stop-color:#529BF7"/>
	</linearGradient>
	<circle class="st37" cx="3655.1" cy="2832.8" r="130.6"/>
	<g>
		<path class="st38" d="M1132.1,2698.5c0,12.6-61.7,22.9-137.8,22.9c-76.1,0-137.8-10.2-137.8-22.9c0-12.6,61.7-22.9,137.8-22.9
			C1070.4,2675.6,1132.1,2685.8,1132.1,2698.5z"/>
		<path class="st3" d="M1132.1,2690c0,12.6-61.7,22.9-137.8,22.9c-76.1,0-137.8-10.2-137.8-22.9c0-12.6,61.7-22.9,137.8-22.9
			C1070.4,2667.2,1132.1,2677.4,1132.1,2690z"/>
		<path class="st38" d="M1101.7,2690c0,9.9-48.1,17.8-107.4,17.8c-59.3,0-107.4-8-107.4-17.8s48.1-17.8,107.4-17.8
			C1053.6,2672.2,1101.7,2680.2,1101.7,2690z"/>
		<path class="st3" d="M1078.6,2626.7c0,34.6-41,62.6-91.5,62.6c-50.5,0-91.5-28-91.5-62.6c0-6.9,1.6-13.6,4.7-19.9
			c0.3-0.6,0.6-1.2,0.9-1.8c0,0,0.1,0,0.1-0.1c6.4-6.1,42.4-10.9,85.8-10.9c43.4,0,79.4,4.7,85.8,10.9c0,0,0,0,0.1,0.1
			c0.3,0.6,0.7,1.2,0.9,1.8C1077,2613.1,1078.6,2619.7,1078.6,2626.7z"/>
		<path class="st30" d="M1074,2606.9C1074,2606.9,1074,2606.9,1074,2606.9c0,7.1-38.9,12.8-86.8,12.8c-47.9,0-86.8-5.7-86.8-12.8
			v-0.1c0-0.6,0.4-1.2,0.9-1.8c0,0,0.1,0,0.1-0.1c6.4-6.1,42.4-10.9,85.8-10.9c43.4,0,79.4,4.7,85.8,10.9c0,0,0,0,0.1,0.1
			C1073.6,2605.6,1073.9,2606.2,1074,2606.9z"/>
		<path class="st7" d="M1060.2,2606.9C1060.2,2606.9,1060.2,2606.9,1060.2,2606.9c0,4.3-32.7,7.8-73.1,7.8
			c-40.4,0-73.1-3.5-73.1-7.7v-0.1c0-0.4,0.3-0.7,0.8-1.1c0,0,0,0,0,0c5.4-3.7,35.7-6.6,72.2-6.6c36.6,0,66.9,2.8,72.2,6.6
			c0,0,0,0,0,0C1059.9,2606.1,1060.2,2606.5,1060.2,2606.9z"/>
		<path class="st39" d="M965.6,2606.9c0,0-172.7-86.2-100-200.3c72.7-114.1-105-212.8-117.1-210.9c85.8,29.1,189.6,98.8,148.8,190.7
			C856.5,2478.3,918.1,2584,965.6,2606.9z"/>
		<path class="st39" d="M994.3,2606.9c0,0-106-106.2-52.7-290.6c53.3-184.4-193.1-240.2-193.1-240.2s250.4,52.7,230.7,197.1
			C959.5,2417.7,933.2,2520.4,994.3,2606.9z"/>
		<path class="st39" d="M1029.2,2606.9c0,0,25.7-64.8-7.6-113.3C1085.8,2544.5,1029.2,2606.9,1029.2,2606.9z"/>
	</g>
	<g>
		<path class="st3" d="M3461.2,827.2h-648.1c-76.1,0-137.8,61.7-137.8,137.8v59.6c0,76.1,61.6,137.8,137.7,137.8l-32,133.5
			c-4.3,18,18.7,29.3,30.3,15l120.3-148.4h529.6c76.1,0,137.8-61.7,137.8-137.8V965C3599,888.9,3537.3,827.2,3461.2,827.2z"/>
		<g>
			<rect x="2864.5" y="1011.7" class="st8" width="44.4" height="99.6"/>
			<rect x="2989.7" y="957.9" class="st8" width="44.4" height="153.5"/>
			<rect x="3115" y="1002.3" class="st8" width="44.4" height="109.1"/>
			<rect x="3240.2" y="971.3" class="st8" width="44.4" height="140"/>
			<rect x="3365.4" y="893.2" class="st8" width="44.4" height="218.1"/>
		</g>
		<polygon class="st29" points="3132.7,909 3132.7,945.4 3108.5,945.4 3141.3,977.7 3174.2,944.9 3149.4,944.9 3149.4,909 		"/>
	</g>
	<line class="st33" x1="838.4" y1="1538.1" x2="1078.6" y2="1871.1"/>
</g>
</svg>
