<?xml version="1.0" encoding="utf-8"?>
<!-- Generator: Adobe Illustrator 22.0.0, SVG Export Plug-In . SVG Version: 6.00 Build 0)  -->
<svg version="1.1" id="Layer_1" xmlns="http://www.w3.org/2000/svg" xmlns:xlink="http://www.w3.org/1999/xlink" x="0px" y="0px"
	 viewBox="0 0 4000 4000" style="enable-background:new 0 0 4000 4000;" xml:space="preserve">
<style type="text/css">
	.st0{fill:none;stroke:#1A1A1A;stroke-width:3;stroke-linecap:round;stroke-linejoin:round;stroke-miterlimit:10;}
	.st1{fill:#FFFFFF;stroke:#1A1A1A;stroke-width:2;stroke-linecap:round;stroke-linejoin:round;stroke-miterlimit:10;}
	.st2{fill:#8E9DF4;stroke:#1A1A1A;stroke-width:2;stroke-linecap:round;stroke-linejoin:round;stroke-miterlimit:10;}
	.st3{fill:#1A1A1A;stroke:#1A1A1A;stroke-width:2;stroke-linecap:round;stroke-linejoin:round;stroke-miterlimit:10;}
	.st4{fill:#5067EF;stroke:#1A1A1A;stroke-width:2;stroke-linecap:round;stroke-linejoin:round;stroke-miterlimit:10;}
	.st5{fill:#D9DBDA;stroke:#1A1A1A;stroke-width:2;stroke-miterlimit:10;}
	.st6{fill:none;stroke:#1A1A1A;stroke-width:2;stroke-linecap:round;stroke-linejoin:round;stroke-miterlimit:10;}
</style>
<g>
	<path class="st0" d="M847.5,1298.4c-162.3,222.7-226.1,466.4-248,565.8c-16.5,74.8-60,298.3-23.3,550.3
		c92.2,632.9,665.7,1275.3,1069.6,1205.3c196.1-34,265.3-220.8,488.3-201.5c143.9,12.5,176.2,95.5,368.2,189.9
		c95.8,47.1,398.2,195.8,709.2,104.6c231.1-67.7,463.5-266.9,527.1-523.2c74.7-301.3-84.2-681.5-298.4-891.3
		c-64.1-62.8-150.2-127.1-170.5-244.2c-22.6-130.4,53.9-225.6,112.4-344.9c108.3-220.9,150.5-515.6,96.9-670.4
		c-130.6-377.6-1018-467.1-1662.6-310C1584.5,785.2,1137.3,900.8,847.5,1298.4z"/>
	<path class="st1" d="M3601.1,3208.9c-8.6,24-18.5,47.3-29.5,69.7H1083.9v-69.7l1751.7-652.8h776.1
		C3664.7,2776,3670.5,3016,3601.1,3208.9z"/>
	<path class="st1" d="M3451.8,3441.5c-213.8,196.7-597.1,206.2-852.6,116.3c-247.3-87-361.1-262.3-608.4-232.5
		c-94.2,11.3-193.8,50.8-290.7,89.1c-219.2,86.8-234.4,136.9-321.7,155c-268.3,55.9-579.1-322.8-713.1-546.4
		c-100.4-167.7-288.2-481.2-182.1-771.2c38.8-106.1,173-246.6,438.4-518.9v922H3632C3682.7,2950.7,3644.1,3264.4,3451.8,3441.5z"/>
	<path class="st1" d="M1909.1,3341.1c-69.1,17.9-139.8,45.9-209.1,73.3c-109.8,43.5-168.5,77.8-210.6,103.4l-56.8-203.2
		c0,0,8.7-1-67.8,2.9c-279,56.2-469.9-8.7-492.2-128.9c-22.3-120.1,35.9-156,35.9-156h450.4c0,0,296.6-1.7,398.3,34.9
		C1820.7,3090.3,1876.3,3235.3,1909.1,3341.1z"/>
	<path class="st2" d="M3632,2654.8H921.6v-922c11.2-11.5,22.7-23.2,34.4-35.2c35.4-36.3,65.6-66.6,91.4-93c1.1-1.1,2.3-2.3,3.3-3.4
		c8.8-9,17.1-17.6,24.9-25.7c2-2,3.9-4.1,5.8-6.1c7.6-8,14.6-15.6,21.2-22.9c1.7-1.8,3.3-3.6,4.9-5.4c0.2-0.2,0.3-0.4,0.5-0.5
		c1.4-1.6,2.9-3.2,4.2-4.8c1.8-2,3.5-4,5.2-6c1.3-1.5,2.5-3,3.8-4.5c2.6-3.2,5.2-6.3,7.6-9.4c0.9-1.1,1.8-2.3,2.7-3.4
		c1.2-1.5,2.3-3,3.5-4.5c1-1.3,2-2.6,2.9-3.9c1.2-1.6,2.4-3.2,3.5-4.8c1-1.3,1.9-2.7,2.8-4c1.6-2.3,3.2-4.6,4.7-6.8
		c1.4-2.1,2.9-4.3,4.2-6.5c2.6-4.1,5.1-8.2,7.4-12.3c0.7-1.3,1.4-2.6,2.1-3.8c2.1-3.9,4-7.7,5.9-11.6c0.6-1.3,1.3-2.6,1.8-3.9
		c0.6-1.3,1.2-2.6,1.8-3.9c1.4-3.2,2.7-6.4,4-9.6c0.5-1.1,0.9-2.3,1.3-3.4c0.1-0.1,0.1-0.2,0.1-0.3c41.3,9.3,70.8,25.7,92.5,43.5
		c27,22.2,41.8,46.6,66.8,74.5c15.7,17.6,35.5,36.5,64.9,57.2c48.2,34,89.6,63.1,139.5,58.1c27.6-2.7,44.9-14.6,61.2-30.3
		c24.6-23.7,46.7-56.1,97.7-78.3c76.1-33,187.2-30.7,228.7,23.2c38.2,49.7-2.1,117.8,9.5,162.6c2.3,8.8,6.5,16.7,13.8,23.4
		c20.8,19.1,57,20.1,94.5,11.3c29.5-6.9,59.7-19.8,83.8-34.5c87.7-53.8,79.8-124.3,147.3-143.4c64.7-18.3,137.4,28.1,174.4,69.8
		c9,10.1,33,39.3,58.1,151.1c10.4,46.2,15.6,82.5,18.5,111.5c7.5,73.9,0.5,100.7,28,124.9c53.5,47.1,121.9-17.9,236.4,34.9
		c28.8,13.3,82,37.8,100.8,89.1c24.8,68-35.5,115.7-7.7,158.9c28.6,44.7,124.2,42.2,182.1,27.1c53.6-13.9,55.5-33.5,89.1-31
		c54.6,4.1,95.5,59.2,143.4,124c43.6,59,33.1,62.4,54.3,81.4c56.8,51,166,56.6,257.3,16c2.1,8.7,4.1,17.5,6.1,26.3l1.5,7.1
		c1.1,4.9,2.1,9.7,3.1,14.6c1,4.8,2,9.7,2.9,14.6c0,0.3,0.1,0.5,0.1,0.8c1.1,5.4,2.1,10.8,3.1,16.3
		C3630,2643.5,3631,2649.2,3632,2654.8z"/>
	<polygon class="st1" points="956,1697.5 956,2629.9 3559.3,2629.9 3559.3,2711.8 897.8,2711.8 897.8,1757.2 	"/>
	<path class="st1" d="M3612.2,2558.4c-91.3,40.6-200.5,35-257.3-16c-21.2-19-10.6-22.4-54.3-81.4c-47.9-64.8-88.7-120-143.4-124
		c-33.6-2.5-35.6,17.1-89.1,31c-57.9,15-153.5,17.6-182.1-27.1c-27.7-43.2,32.6-90.9,7.7-158.9c-18.8-51.3-72-75.8-100.8-89.1
		c-114.5-52.8-182.9,12.2-236.4-34.9c-27.5-24.2-20.5-51-28-124.9c-2.9-29-8.1-65.3-18.5-111.5c-25.2-111.8-49.1-141-58.1-151.1
		c-36.9-41.7-109.7-88.1-174.4-69.8c-67.5,19.1-59.6,89.6-147.3,143.4c-24.1,14.8-54.3,27.6-83.8,34.5c-37.5,8.8-73.7,7.8-94.5-11.3
		c-7.3-6.7-11.5-14.6-13.8-23.4c-11.6-44.8,28.7-112.9-9.5-162.6c-41.5-53.9-152.6-56.3-228.7-23.2c-51,22.2-73.1,54.5-97.7,78.3
		c-16.2,15.6-33.6,27.5-61.2,30.3c-49.9,4.9-91.3-24.2-139.5-58.1c-29.4-20.7-49.2-39.7-64.9-57.2c-25-27.9-39.9-52.3-66.8-74.5
		c-21.7-17.9-51.2-34.3-92.5-43.5c4.4-11.9,8-24.3,11.1-37.8c42.5-187.4-97.5-264.1-108.5-496.1c-8.6-181.5,63.5-419,244.1-550.3
		c266.5-193.8,624.9-51.4,686-27.1c162,64.3,112.1,102.1,441.8,321.6c165.8,110.4,239.8,141.8,565.8,348.8
		c151.8,96.4,228.1,145.2,244.1,170.5c134.8,212.9-76.1,443.3,38.8,763.5c40.9,114.1,83.6,129.2,155,244.1
		C3522.8,2278.5,3577.7,2414.2,3612.2,2558.4z"/>
	<path class="st1" d="M3612.2,2558.4c-91.3,40.6-200.5,35-257.3-16c-21.2-19-10.6-22.4-54.3-81.4c-47.9-64.8-88.7-120-143.4-124
		c-33.6-2.5-35.6,17.1-89.1,31c-38.1,9.9-92.4,14.4-133.3,3.6c-7.8-2.1-15.2-4.7-21.8-8c-11.4-5.6-20.8-13.1-27-22.8
		c-27.7-43.2,32.6-90.9,7.7-158.9c-18.8-51.3-72-75.8-100.8-89.1c-114.5-52.8-182.9,12.2-236.4-34.9c-27.5-24.2-20.5-51-28-124.9
		c-2.9-29-8.1-65.3-18.5-111.5c-25.2-111.8-49.1-141-58.1-151.1c-36.9-41.7-109.7-88.1-174.4-69.8c-29,8.2-44.1,26-58.8,47.8
		c-6.9,10.2-13.7,21.3-21.8,32.7c-14.9,21-34.2,43.1-66.6,63c-24.1,14.8-54.3,27.6-83.8,34.5c-37.5,8.8-73.7,7.8-94.5-11.3
		c-7.3-6.7-11.5-14.6-13.8-23.4c-11.6-44.8,28.7-112.9-9.5-162.6c-41.5-53.9-152.6-56.3-228.7-23.2c-51,22.2-73.1,54.5-97.7,78.3
		c-16.2,15.6-33.6,27.5-61.2,30.3c-13.4,1.3-26.1,0.2-38.6-2.8c-7.4-1.8-14.6-4.2-21.9-7.2c-26-10.8-51.4-28.6-79-48.1
		c-29.4-20.7-49.2-39.7-64.9-57.2c-25-27.9-39.9-52.3-66.8-74.5c-21.7-17.9-51.2-34.3-92.5-43.5c4.4-11.9,8-24.3,11.1-37.8
		c42.5-187.4-97.5-264.1-108.5-496.1c-8.6-181.5,63.5-419,244.1-550.3c49.8-36.2,102.9-60.7,156.6-76.4c7.3-2.1,14.6-4.1,21.9-5.9
		c226.9-56.3,459.5,36.1,507.5,55.2c95.5,37.9,117.3,66.6,186.7,128.7c6.8,6.1,14,12.5,21.8,19.2c47.8,41.3,116.9,96.2,233.2,173.7
		c146.4,97.5,221.2,133.3,461.1,282.9c7.1,4.4,14.4,9,21.8,13.6c25.7,16.1,53.3,33.5,82.9,52.3c151.8,96.4,228.1,145.2,244.1,170.5
		c134.8,212.9-76.1,443.3,38.8,763.5c40.9,114.1,83.6,129.2,155,244.1C3522.8,2278.5,3577.7,2414.2,3612.2,2558.4z"/>
	<g>
		<path class="st1" d="M1502.5,266.6v2404.8h-21.9V272.5C1488,270.4,1495.3,268.4,1502.5,266.6z"/>
		<path class="st1" d="M2218.6,469.7v2201.7h-21.8V450.5C2203.6,456.6,2210.8,463,2218.6,469.7z"/>
		<path class="st1" d="M2934.8,939.9v1731.5h-21.8V926.2C2920,930.7,2927.3,935.2,2934.8,939.9z"/>
	</g>
	<g>
		<polygon class="st1" points="2730.9,815.3 2730.9,1783.5 2749.3,1830 2749.3,825.7 		"/>
		<path class="st1" d="M2929.6,1762.1c0-16.2-84.9-29.3-189.5-29.3c-104.7,0-189.5,13.1-189.5,29.3l-126.8,174.2h632.7
			L2929.6,1762.1z"/>
		<ellipse class="st3" cx="2740.1" cy="1936.3" rx="316.3" ry="48.9"/>
		<ellipse class="st1" cx="2740.1" cy="1936.3" rx="280.7" ry="33.8"/>
	</g>
	<g>
		<polygon class="st1" points="2289.1,526.4 2289.1,1085.2 2307.5,1131.7 2307.5,541.6 		"/>
		<path class="st1" d="M2574,1101c0-22.8-119.3-41.2-266.4-41.2s-266.4,18.5-266.4,41.2l-178.3,244.9h889.4L2574,1101z"/>
		<ellipse class="st3" cx="2307.5" cy="1345.8" rx="444.7" ry="68.8"/>
		<ellipse class="st1" cx="2307.5" cy="1345.8" rx="394.6" ry="47.5"/>
	</g>
	<path class="st1" d="M1512.1,3504.2l-65.6-212c0,0-476.9-73.6-524.8-73.6c-24.4,0-53.3,26.7-75.8,52.9
		c152.2,176.3,352,335.4,532.5,297.8C1429.2,3558.8,1455.6,3537.4,1512.1,3504.2z"/>
	<path class="st1" d="M1369.6,2342.8c0,0,41.1-27.8,70.1,62.7c29.1,90.4-24.5,579.7,206,621.4c-151.1,105.6-307.1,90.1-281.9-58.1
		C1389,2820.4,1369.6,2342.8,1369.6,2342.8z"/>
	<path class="st3" d="M1594.2,3411.8c-43.5-40.8-92.4-73.4-149.5-84.3c-95.1-16.3-187.6,0-282.7-8.2c-5.4,0-10.9-8.2-16.3-8.2
		c-114.2,0-198.4-103.3-165.8-212c8.2-21.7,0-46.2,13.6-62.5c2.7-4.1,4.3-7.9,5.2-11.4l-90.2,7.3c0,0-58.1,35.8-35.9,156
		c22.3,120.1,171.8,264.4,450.8,208.2c44.6,44.7,92.6,161.3,92.6,161.3c32.9-20.1,120.8-70,210.1-111.7
		C1616.8,3434.2,1606.4,3422.6,1594.2,3411.8z"/>
	<path class="st4" d="M1909.1,3341.1c-32.8-105.7-88.4-250.7-151.9-273.6c-101.7-36.6-358.2-74.6-358.2-74.6l-400.3,32.4
		c-0.9,3.5-2.5,7.3-5.2,11.4c-13.6,16.3-5.4,40.8-13.6,62.5c-32.6,108.7,51.6,212,165.8,212c5.4,0,10.9,8.2,16.3,8.2
		c95.1,8.2,187.6-8.2,282.7,8.2c57.1,10.9,106,43.5,149.5,84.3c12.1,10.8,22.6,22.4,31.8,34.6c24.9-11.6,50-22.6,74-32.1
		C1769.3,3386.9,1840,3358.9,1909.1,3341.1z"/>
	<g>
		<path class="st4" d="M2136.7,2745.2c-27.3-61.2-132.4-338.5-151.3-393.7c-18.9-55.2-62.5-47.1-62.5-47.1
			c0,0,12.3,343.9,12.3,343.9c9.1,8,97,302.3,181.1,205.6C2142.6,2829.9,2155.3,2786.8,2136.7,2745.2z"/>
		<path class="st1" d="M1659.5,2268.2c0,0,142.6,185.4,151.7,251.6c10.8-21.6,15.7-94.6,20.6-113.5c4.9-18.9,43.7-147.6,43.7-147.6
			S1733.3,2244.9,1659.5,2268.2z"/>
		<path class="st4" d="M1967.2,2562.4c-1.2-121.1-10.6-247.3-43.3-270.9c-65.9-47.5-180.2-37.8-288.7-6.8
			c-108.5,31-121.1,135.6-121.1,135.6s0,0,0,114.7c0,9.2,0,19.1,0,29.9c0,29.4,0,64.7,0,107.1c0,251.8,149.2,343.1,149.2,343.1
			l277.1-79.7l20.8-133c0,0,1.8-28.6,3.4-72.4C1966.2,2685.3,1967.8,2624.5,1967.2,2562.4z"/>
		<path class="st1" d="M1838.9,2256.9c0,0-11.1-49.7-7.2-69.8c49.8,3.9,97.6-28.4,108.6-104.6c11-76.2,0-111.7,0-111.7
			s-53-74-140.2-40.2c-87.2,33.8-110.4,67.4-97.5,124.9c12.9,57.5,25.2,101.4,25.2,101.4s-23.9,65.2-40,84.6
			c40,69.1,75.6,84.7,99.5,79.5C1811.1,2315.7,1858.3,2324.1,1838.9,2256.9z"/>
		<path class="st3" d="M1784.3,2156.8c1.5,1,19.2,22.9,47.4,30.3c0,20-0.9,22.5,2,40.5c-29-8.8-52.3-39.9-46.5-71.1"/>
		<path class="st3" d="M1722.8,2156.3c0,0-0.8-0.4-2.1-1.2c-7.8-4.8-34-23.9-32.7-60.3c1.5-42.6-19.5-76.5-4.4-98.8
			c15.1-22.3-14.4-66.4,14.9-92c29.3-25.7,107.7-53.8,173.1-42.6c65.4,11.1,124,50.9,112.4,107.1c-15,27.6-38.8,27.1-64.4,14
			c-25.7-13.1-63.5-34.4-63.5-34.4s-4.4,17.4-18.9,31c-14.5,13.6-39.2,72.2-48,66.6c-8.7-5.6-17.4-37.6-33.4-38.1
			c-16-0.4-30.5,16-29.6,38.1c1,22,32.5,36.6,32.5,36.6s-7.3,60.6-17.9,68.8C1730.1,2159.2,1722.8,2156.3,1722.8,2156.3z"/>
		<path class="st3" d="M1719.3,2778.5c88.7,15.2,175.3-16.8,256.4-49.5c-1.9-19.3-8.4-27-8.4-38.9c-91.9,52.4-204.2,47-238.8,78
			c-12.8-44.5-61.8-168-82.7-207.7c-4.4,40,5.3,67,20.1,117.6C1674.1,2716.1,1678.5,2770.3,1719.3,2778.5z"/>
		<path class="st4" d="M1645.8,2283c-59.5,20.9-150.9,46.3-175.4,110.8c-15.8,441,44.7,653.6,529.3,399.1c0,0,0-0.1,0-0.2
			c-5.6-22-13.2-43.7-24-63.8c-81.1,32.6-167.7,64.6-256.4,49.5c-40.8-8.2-62.3-144.8-70.6-174.6c-1.9-14.3-2.8-45.9-3.1-84.1"/>
		<path class="st1" d="M1678.1,2238.8c0,0-85.9,23.9-85.9,38.8c0,14.9,56.2,28.1,103.3,61.2c47.2,33.1,1.9,77,42,97
			c40,20,65.2,51,73.6,84C1797.6,2452.6,1750.4,2274.3,1678.1,2238.8z"/>
		<path class="st1" d="M1852.5,2225.9c0,0-61.6,89.1-36,285.5c9.5-31,57.3-85.9,38.6-122.4c-3.2-33.9,31.6-30.1,31.6-30.1
			s3.9-89.6,25.2-100.3C1933.2,2247.8,1852.5,2225.9,1852.5,2225.9z"/>
		<path class="st4" d="M1404.2,3056.5c-59.7,55.3-116.3,40-116.3,40s-337.2,41.3-386.3-33.6c-49.1-74.9-6-247,15.5-311.3
			c1.7-5.1,16.6-84,48.8-173.7c4.4,62.2,25,178.5,117.8,177.6c126.6-1.3,179.6-275.1,136.9-330.7c-42.6-55.5-65.8-82-111-79.1
			c14.1-10.8,29.1-19.6,45.1-25.7c0,0,0,0,0,0c1.4,0.2,50.5,9.5,101.5,73.2c51.7,64.6,87.2,68.8,87.2,68.8s56.6-88,3.1-146.2
			c52.3,20.3,65.1,67.3,77,133.6C1443,2557.9,1463.9,3001.2,1404.2,3056.5z"/>
		<path class="st1" d="M1343.5,2461.9c0,0-35.5-4.2-87.2-68.8c-50.9-63.7-100.1-73-101.5-73.2c10.8-4.2,22-7.2,33.7-8.8
			c75.4-10.5,124.8-8.4,158.1,4.6C1400.2,2373.9,1343.5,2461.9,1343.5,2461.9z"/>
		<path class="st1" d="M1083.9,2755.5c-92.8,1-113.4-115.4-117.8-177.6c30.8-85.8,77.5-181.6,143.7-232.2h0
			c45.2-2.9,68.4,23.6,111,79.1C1263.4,2480.4,1210.5,2754.2,1083.9,2755.5z"/>
		<path class="st1" d="M1228.2,2174.2c0,0-10.4,123-31.8,141.5c59.1,55.9,120.4,90.5,120.4,90.5s23.3-34.4,29.6-50.9
			c-16.5-9.2-13.8-65.4-5.1-105.6c37.3,8.2,104.8,1.3,101.6-68.5c-3.2-69.8,19.4-178.3-20.7-206c-40-27.8-138.9-25.8-185.4,32.3
			C1190.4,2065.7,1179.4,2134.8,1228.2,2174.2z"/>
		<path class="st3" d="M1277.6,2225.9c0,0,41,21.2,63.7,23.9c-9.5,38.1-6.9,61.9-6.9,61.9S1264.1,2269.1,1277.6,2225.9z"/>
		<path class="st3" d="M1244.7,2192.1c0,0-37.8-18.4-57.2-49.9s-33.9-90.1-13.6-139c20.3-48.9,71.4-104.2,152.1-104.2
			s152.4,14,145.3,146.5c-25,8.5-61.2-30.9-63.2-54.8c-18.2,54.9-84.7,58.1-104.8,67.1c0.6,25.8-16.8,27.4-16.8,27.4
			s2.6,36.5-17.4,33.9c-20-2.6,2.6-37.5-24.5-37.5s-34.2,11.6-32.9,29.7s25.8,51.7,36.8,53.6
			C1259.5,2167.1,1244.7,2192.1,1244.7,2192.1z"/>
		<path class="st3" d="M1195,1998.5c0,0-52.3-63.3-109.2-26.5c-56.8,36.8-38.1,159.5-1.9,202.2c36.2,42.6,7.8,79.4,22,100.8
			s45.9-6.5,45.9-6.5c14.2,11.6,38.8,18.7,56.2,7.1c-3.9-11.6-18.7-37.5-18.7-37.5s7.8-3.9,15.5-9.7c-29.1-26.5-24.4-83.4-4.3-88.5
			C1186.6,2083.1,1195,1998.5,1195,1998.5z"/>
	</g>
	<path class="st5" d="M3601.1,3208.9H1083.9l1751.7-652.8h776.1C3664.7,2776,3670.5,3016,3601.1,3208.9z"/>
	<path class="st1" d="M2712.6,2602c0,0,785.6-61.9,686.8,229.4s-1675.7,479.3-1845,202.2C2318.2,2739,2712.6,2602,2712.6,2602z"/>
	<path class="st1" d="M2166.4,2733.4c-16.9-100.6-45.8-262-36.2-308.4c7.7-37.6,33-74.7,36.9-99c0.9-5.7,0.7-10.7-1.2-14.8
		c-10.1-21.8-36.2-76.8-48.6-72.2c-12.4,4.6-50.9,32.7-58.4,45c-1.6,2.6-3.2,5.8-4.7,9.3c-5.6,12.9-9.9,29.6-7.6,36.1
		c2.8,8.2,25.8,4.2,23.6,9.1c-2.2,4.9-42.5,71.5-15.1,85.1c16.2,8,13.7,33.6,13.7,33.6s-11.8,222.2-22.8,278.9
		c-3.8,19.8-7.4,46.6-7.2,72.3c0,0.5,0,1.1,0,1.6c0.7,47.3,14.6,89.7,64.5,74.8C2180.7,2861.5,2183.2,2834,2166.4,2733.4z"/>
	<path class="st1" d="M3601.1,3208.9c-8.6,24-18.5,47.3-29.5,69.7H1083.9v-69.7H3601.1z"/>
	<g>
		<polygon class="st3" points="1892.9,2952.2 2212.6,2996.8 2207.7,3033.6 1902.5,2990.6 		"/>
		<polygon class="st1" points="2329.9,2798.2 1892.9,2952.2 2212.6,2996.8 2632.8,2837.9 		"/>
		<polygon class="st3" points="2050.1,2953 2420.3,2822.6 2566.2,2845.6 2210.7,2980 		"/>
		<polygon class="st1" points="2207.7,3033.6 2617.6,2866.9 2632.8,2837.9 2212.6,2996.8 		"/>
		<polygon class="st1" points="2281.4,2546.8 2714.1,2402.6 2733.5,2411.9 2626.3,2823.7 2227.1,2990.6 2207.7,2981.3 		"/>
		<polygon class="st1" points="2300.7,2556.1 2733.5,2411.9 2645.7,2833 2227.1,2990.6 		"/>
		<path class="st2" d="M2458.6,2696.6c0,0,20.7-40,46.5-24.5c25.8,15.5,16.8,31.7,1,24.5c-15.8-7.1-58.1,2.1-25.8,17.6
			c32.3,15.5,53.2,17.1,0,27.8C2446.3,2748.8,2458.6,2696.6,2458.6,2696.6z"/>
	</g>
	<path class="st1" d="M1115.8,2609.2c0,0,2.9,3.7,8.1,10.2h0c87.7,102.9,219.7,274.8,341.4,329.4c26.9,7.3,57.8,5.3,87.1,6.3
		c118.9-5,252.8-1.8,319.7-29.5c20.7-33.9,8.6-103.1-39.1-92.3c-64.9,2.5-266.5,18.6-303.5-2.9c-40-23.3-244.6-281-299.3-384.7
		c-16.4-24.9-32.3-40.7-48.6-49.1"/>
	<path class="st3" d="M1835.7,2841.4c0,0-46.5-1.5-47.8,56.1c-1.3,57.6,45.5,39.9,63.7,25.3
		C1869.9,2908.3,1873.8,2841.1,1835.7,2841.4z"/>
	<path class="st3" d="M2012.8,2879.1c-8.2-10.9-27.2-10.9-40.8-8.2c-56.3,17.1-114.9,27.7-173.7,33.5c2.1,7.3,6.6,14.2,14.1,20.1
		c0,0,39-13.1,58.1-6.9c40.6,13,71.4-5.5,89.5-14.2c18.1-8.7,25.2-11,33.6-3.2c8.4,7.8,53.6,44.9,75.6,43.6c5.3-0.3,11-1.9,16.6-4.3
		C2060.3,2922.2,2036.5,2901.4,2012.8,2879.1z"/>
	<path class="st1" d="M2012.8,2879.1c23.7,22.3,47.4,43.2,73,60.4c17.7-7.4,34.6-22.4,35.4-28c1-7.4-63.6-75.6-92.2-93.5
		c-28.6-17.9-43.6-22.3-78.7-2.4c-35.1,19.9-101.1,26.6-101.1,26.6c-33.9,4.5-58.4,35.9-50.9,62.2c58.8-5.9,117.3-16.4,173.7-33.5
		C1985.6,2868.2,2004.7,2868.2,2012.8,2879.1z"/>
	<g>
		<path class="st1" d="M2502.2,3516.7c0,0-111-61-12.8-116.5c98.2-55.5,195.1,51.7,195.1,51.7s-191.2-342.3,0-419.8
			c191.2-77.5,282.9,158.9,282.9,158.9s-84-294.5,124-320.4c87.8-9,117.6,134.3,117.6,134.3s58.1-421.1,271.3-387.5
			c213.1,33.6-107.2,531.5-107.2,531.5s139.4-112.9,180.4-17.4c41,95.6-142.9,200.2-142.9,200.2s107.3-27.6,73,77.9
			C3435.3,3518,2980.7,3786.9,2502.2,3516.7z"/>
		<path class="st2" d="M3410.4,3331.6c0,0,107.3-27.6,73,77.9c-27.1,61.1-182.9,172.9-399.3,210.9v0c-36.3,6.4-74.4,10.7-113.8,12.3
			c-5.2,0.2-10.4,0.4-15.5,0.5c-139.1,3.2-294.5-27.3-452.6-116.6c0,0-111-61-12.8-116.6c97-54.9,192.7,49,195,51.6
			c-2.6-4.7-189.8-342.8,0.1-419.8c188.4-76.4,280.2,152,282.9,158.7c-2.2-8-81-294.7,124.1-320.2c87.9-9.1,117.6,134.4,117.6,134.4
			s58.1-421.1,271.3-387.5c213.2,33.6-107.2,531.5-107.2,531.5s139.4-112.9,180.4-17.4C3594.3,3227,3410.4,3331.6,3410.4,3331.6z"/>
		<path class="st6" d="M2786.9,3223.8c92.7,117.2,151.2,260.9,167.8,409.4"/>
		<path class="st6" d="M2970.3,3632.7c99-110.9,162.7-250.8,224.1-387.3c60.8-135.1,121.5-270.3,182.3-405.4"/>
		<path class="st6" d="M3056.9,3051.5c46.3,109.1,63.7,226.9,66.6,345.4"/>
		<path class="st6" d="M3453.9,3208.4c-94.4,65.6-178.5,104.6-293.3,111.3"/>
		<path class="st6" d="M2572.7,3490.7c23.6,18.8,50.6,33.1,73.5,52.7c22.9,19.6,57.6,36.1,82.8,64.6"/>
		<path class="st6" d="M3084.1,3620.5c62.1-79.5,149.1-139.5,245.9-168.3"/>
	</g>
	
		<ellipse transform="matrix(0.1602 -0.9871 0.9871 0.1602 -1223.7711 2097.7063)" class="st3" cx="620.9" cy="1768" rx="119.3" ry="119.3"/>
	<circle class="st1" cx="453.3" cy="3009.2" r="210.5"/>
	
		<ellipse transform="matrix(0.7071 -0.7071 0.7071 0.7071 -1968.0364 2572.439)" class="st3" cx="2121.2" cy="3661.8" rx="62" ry="62"/>
	<circle class="st1" cx="3004" cy="3620.5" r="130.9"/>
</g>
</svg>
