<?xml version="1.0" encoding="utf-8"?>
<!-- Generator: Adobe Illustrator 22.0.0, SVG Export Plug-In . SVG Version: 6.00 Build 0)  -->
<svg version="1.1" id="Layer_1" xmlns="http://www.w3.org/2000/svg" xmlns:xlink="http://www.w3.org/1999/xlink" x="0px" y="0px"
	 viewBox="0 0 4000 4000" style="enable-background:new 0 0 4000 4000;" xml:space="preserve">
<style type="text/css">
	.st0{fill:url(#SVGID_1_);}
	.st1{fill:url(#SVGID_2_);}
	.st2{fill:url(#SVGID_3_);}
	.st3{fill:url(#SVGID_4_);}
	.st4{fill:url(#SVGID_5_);}
	.st5{fill:url(#SVGID_6_);}
	.st6{fill:url(#SVGID_7_);}
	.st7{fill:#FFFFFF;}
	.st8{fill:url(#SVGID_8_);}
	.st9{fill:#B080B0;}
	.st10{fill:#DBD2DB;}
	.st11{fill:#FFB114;}
	.st12{fill:#FFDE70;}
	.st13{fill:url(#SVGID_9_);}
	.st14{fill:url(#SVGID_10_);}
	.st15{fill:#572658;}
	.st16{fill:#1A1A1A;}
	.st17{fill:#152A52;}
	.st18{fill:#CCC4CC;}
	.st19{fill:#102140;}
	.st20{fill:#3B546B;}
	.st21{fill:#6584C6;}
	.st22{fill:#FFFFFF;stroke:#000000;stroke-miterlimit:10;}
	.st23{fill:#D9D9D9;}
	.st24{fill:#D1334A;}
	.st25{fill:#EB485C;}
	.st26{fill:#EF5668;}
	.st27{fill:#FC9590;}
	.st28{fill:#DB6767;}
	.st29{fill:#339E7E;}
	.st30{fill:#127755;}
	.st31{fill:none;stroke:#3DBE88;stroke-width:2;stroke-linecap:round;stroke-linejoin:round;stroke-miterlimit:10;}
	.st32{fill:#0B4F38;}
	.st33{fill:none;stroke:#10663F;stroke-width:2;stroke-linecap:round;stroke-linejoin:round;stroke-miterlimit:10;}
</style>
<g>
	<linearGradient id="SVGID_1_" gradientUnits="userSpaceOnUse" x1="485.2579" y1="1922.8607" x2="3582.1624" y2="1922.8607">
		<stop  offset="0" style="stop-color:#68B2FC"/>
		<stop  offset="1" style="stop-color:#529BF7"/>
	</linearGradient>
	<path class="st0" d="M494,1900.6c-63.8,204.8,243.1,333.1,269.3,700.2c11.9,166.7-49.7,163-41.9,335.1
		c11.9,261.5,166.7,544.4,395,688.2c139.7,88,213.9,65.3,867.7,65.8c583.2,0.5,708.9,18.7,987.4-35.9
		c278.2-54.6,558.7-109.6,604.4-275.3c42.7-154.9-148.4-303.4-155.6-610.4c-2.3-99.8,15.5-185.8,18-197.5
		c25.1-117.8,68.4-194.4,83.8-227.4c86.8-185.7-32-442-101.7-592.5c-211.4-456.1-506.6-514.8-478.8-754
		c18.4-158.2,152.8-179,149.6-353.1c-4-216.4-215-366.2-239.4-383c-119.2-82.2-247.8-103.6-377-107.7
		c-116.3-3.7-554.2-3.7-1196.9,395c-348,215.8-664.2,412-652.3,658.3c8,164.2,156.9,251.7,113.7,412.9
		C697.2,1776.4,537.9,1759.6,494,1900.6z"/>
	<linearGradient id="SVGID_2_" gradientUnits="userSpaceOnUse" x1="3339.801" y1="1773.0531" x2="3585.4463" y2="1773.0531">
		<stop  offset="0" style="stop-color:#4085F0"/>
		<stop  offset="1" style="stop-color:#275DC9"/>
	</linearGradient>
	<circle class="st1" cx="3462.6" cy="1773.1" r="122.8"/>
	<linearGradient id="SVGID_3_" gradientUnits="userSpaceOnUse" x1="232.7404" y1="2958.8328" x2="666.1957" y2="2958.8328">
		<stop  offset="0" style="stop-color:#68B2FC"/>
		<stop  offset="1" style="stop-color:#529BF7"/>
	</linearGradient>
	<circle class="st2" cx="449.5" cy="2958.8" r="216.7"/>
	<linearGradient id="SVGID_4_" gradientUnits="userSpaceOnUse" x1="3051.4565" y1="3783.6616" x2="3179.1331" y2="3783.6616">
		<stop  offset="0" style="stop-color:#4085F0"/>
		<stop  offset="1" style="stop-color:#275DC9"/>
	</linearGradient>
	<circle class="st3" cx="3115.3" cy="3783.7" r="63.8"/>
	<linearGradient id="SVGID_5_" gradientUnits="userSpaceOnUse" x1="3497.675" y1="3064.5845" x2="3767.2598" y2="3064.5845">
		<stop  offset="0" style="stop-color:#68B2FC"/>
		<stop  offset="1" style="stop-color:#529BF7"/>
	</linearGradient>
	<circle class="st4" cx="3632.5" cy="3064.6" r="134.8"/>
	<g>
		<linearGradient id="SVGID_6_" gradientUnits="userSpaceOnUse" x1="513.3103" y1="1988.3182" x2="3553.0566" y2="1988.3182">
			<stop  offset="0" style="stop-color:#4085F0"/>
			<stop  offset="1" style="stop-color:#275DC9"/>
		</linearGradient>
		<path class="st5" d="M3543.3,2727.4c-38.4,127.6-143.7,143.8-214,338.5c-43.6,120.8-17.5,154.5-44.8,253.9
			c-85.3,310.4-470.3,454.5-507.7,467.9c-133.7,48.1-309.8,32-662,0c-432.4-39.3-650.7-61.6-756.6-189.1
			c-27.1-32.7-51.5-73.8-219-298.7c-38.8-52.1-74.8-99.9-89.6-119.5c-35.3-46.5-67.3-86.5-96.6-121.5
			c-168.3-200.7-246.5-234.8-326.4-376.3c-102.5-181.2-160-453.6-64.7-667c10-22.4,53.2-89.6,139.4-224
			c127.7-198.9,173.9-255,184.1-353.4c5.7-54.5,1.4-132.3-44.8-229c-37.9-77.1-95.1-224.9-59.7-393.2
			c55.2-262.3,297.4-394.7,467.9-487.8c95.7-52.3,414.7-220.5,836.2-154.3c51.1,8,683.2,114.2,771.5,467.9
			c48,192.4-109.7,278.2-49.8,497.7c53.5,196,193.5,180.2,348.4,428.1c130.6,209.1,52.5,254.8,187.3,602.3
			c3.8,9.7,7.7,19.6,11.8,29.8C3483.4,2520.2,3585.7,2586.6,3543.3,2727.4z"/>
		<linearGradient id="SVGID_7_" gradientUnits="userSpaceOnUse" x1="1126.8459" y1="351.3307" x2="2527.9128" y2="351.3307">
			<stop  offset="0" style="stop-color:#4085F0"/>
			<stop  offset="1" style="stop-color:#275DC9"/>
		</linearGradient>
		<path class="st6" d="M2527.9,309.8l-530.2,234.1l-870.8-146.5c42.3-25.7,83.9-48.4,121.9-69.2c95.7-52.3,414.7-220.5,836.2-154.3
			C2114,178.5,2330.2,214.7,2527.9,309.8z"/>
		<path class="st7" d="M1992,1899.4c-28-16.8-47.6-42-75.6-56c-16.8-11.2-44.8-5.6-67.2,2.8c0,0,2.8,8.4,0,11.2
			c-11.2,5.6,0,19.6-14,19.6c0,14,0,28-5.6,39.2c-16.8,33.6-22.4,70-39.2,97.9c-67.2,117.5-215.5,70-330.2,70
			c-50.4-2.8-100.7-16.8-151.1-16.8c-16.8-2.8-33.6-11.2-50.4-14c-28,0-53.2-5.6-81.1-8.4c-8.4-2.8-11.2-11.2-19.6-14
			c-36.4-5.6-70-14-100.7-25.2c-72.8-25.2-167.9-30.8-232.3,25.2c-14,11.2-36.4,19.6-58.8,22.4c-79.2,7.4-176-7-236,55.5
			c-46.7,195.1,8.1,418.1,96.2,573.8c80,141.4,158.1,175.6,326.4,376.3c16.6,19.8,34.1,41.2,52.5,64.4l1039.8-555l-15.4-654.7
			c-7.3-3.9-14.4-8.6-21.1-14.2C2003.2,1896.6,1997.6,1902.2,1992,1899.4z"/>
		<linearGradient id="SVGID_8_" gradientUnits="userSpaceOnUse" x1="530.3885" y1="1253.0973" x2="2029.8971" y2="1253.0973">
			<stop  offset="0" style="stop-color:#68B2FC"/>
			<stop  offset="1" style="stop-color:#529BF7"/>
		</linearGradient>
		<path class="st8" d="M1126.8,397.4c-147.3,89.4-303.1,214.8-346,418.6c-35.4,168.3,21.9,316.1,59.7,393.2
			c46.2,96.6,50.5,174.5,44.8,229c-10.2,98.4-56.5,154.5-184.1,353.4c-86.2,134.4-129.4,201.6-139.4,224
			c-13.4,30-23.8,61.2-31.5,93.2c60-62.5,156.8-48,236-55.5c22.4-2.8,44.8-11.2,58.8-22.4c64.4-56,159.5-50.4,232.3-25.2
			c30.8,11.2,64.4,19.6,100.7,25.2c8.4,2.8,11.2,11.2,19.6,14c28,2.8,53.2,8.4,81.1,8.4c16.8,2.8,33.6,11.2,50.4,14
			c50.4,0,100.7,14,151.1,16.8c114.7,0,263,47.6,330.2-70c16.8-28,22.4-64.4,39.2-97.9c5.6-11.2,5.6-25.2,5.6-39.2
			c14,0,2.8-14,14-19.6c2.8-2.8,0-11.2,0-11.2c22.4-8.4,50.4-14,67.2-2.8c28,14,47.6,39.2,75.6,56c5.6,2.8,11.2-2.8,16.8,0
			c6.7,5.7,13.7,10.4,21.1,14.2l-32.2-1369.7L1126.8,397.4z"/>
		<path class="st9" d="M1397.7,1054L1382,1475l-501.8-3.6c2.3-10.7,4-21.6,5.2-33.1c0.1-0.8,0.2-1.6,0.2-2.5
			c5.3-54.3,0.5-131.3-45-226.5c-22.4-45.7-51.6-116.1-64.4-200.9c-2.4-16-4.2-32.4-5.3-49.3L1397.7,1054z"/>
		<path class="st10" d="M1334.5,1132.7c0,2.2,0,4.5,0.1,6.7C1334.9,1137.3,1334.9,1135.1,1334.5,1132.7z"/>
		<path class="st11" d="M1337.2,1157.9c-2.1-6.2-2.6-12.3-2.7-18.5c-1.8,10.1-12.2,17.1-16.8,24.1c-5.6,2.8-8.4-2.8-11.2-8.4
			c-5.6,22.4-2.8,47.6-5.6,70c-8.4-5.6-22.4-8.4-22.4,2.8c-2.8,58.8-44.8,61.6-89.5,78.4c-14,5.6-16.8,47.6-28,67.2
			c-28,39.2-97.9,33.6-128.7,5.6c-49.6-44.1-82.9-139.7-166.7-107.9c22.2,67.1,24.2,122.7,20.1,164.8l461.4,2.6l11.9-318.5
			C1349,1129.3,1341.5,1141.7,1337.2,1157.9z"/>
		<path class="st10" d="M776.2,1008.3c12.8,84.8,41.9,155.3,64.4,200.9c10.3,21.5,18.5,42.1,25,61.8
			c83.8-31.7,117.1,63.9,166.7,107.9c30.8,28,100.7,33.6,128.7-5.6c11.2-19.6,14-61.6,28-67.2c44.8-16.8,86.7-19.6,89.5-78.4
			c0-11.2,14-8.4,22.4-2.8c2.8-22.4,0-47.6,5.6-70c2.8,5.6,5.6,11.2,11.2,8.4c4.6-7,15-13.9,16.8-24.1c-0.1-2.2-0.1-4.5-0.1-6.7
			c0.5,2.4,0.4,4.6,0.1,6.7c0.1,6.2,0.7,12.3,2.7,18.5c4.2-16.1,11.8-28.6,21.6-38.1l1.3-34.7L776.2,1008.3z"/>
		<ellipse class="st12" cx="1033.2" cy="1147.9" rx="59.8" ry="50.5"/>
		<linearGradient id="SVGID_9_" gradientUnits="userSpaceOnUse" x1="2682.5657" y1="1402.1735" x2="2380.3538" y2="1282.4857">
			<stop  offset="0" style="stop-color:#68B2FC"/>
			<stop  offset="1" style="stop-color:#EBF0F7"/>
		</linearGradient>
		<path class="st13" d="M2342,765.4l57.6,1469.7l-124.8-36.4L2216,696.6L2765,476.7c25.9,28.6,47.9,59.7,64.8,93.4L2342,765.4z"/>
		<linearGradient id="SVGID_10_" gradientUnits="userSpaceOnUse" x1="1997.6776" y1="1611.241" x2="3553.0559" y2="1611.241">
			<stop  offset="0" style="stop-color:#68B2FC"/>
			<stop  offset="1" style="stop-color:#529BF7"/>
		</linearGradient>
		<path class="st14" d="M3543.3,2727.4c-24.7,82.1-77.2,118.1-130.2,185.3l-1367.9-344.4l-47.6-2024.4l530.2-234.1
			c89,42.8,174.3,97.7,237,166.9L2216,696.6l58.9,1502.2l124.8,36.4l1128.9,329.2c5.4,12.5,9.9,24.4,13.6,36.1
			C3555.5,2642.5,3557.3,2680.9,3543.3,2727.4z"/>
		<path class="st7" d="M3528.6,2564.4l-1128.9-329.2L2342,765.4l487.8-195.3c11.4,22.7,20.4,46.6,26.7,71.7
			c48,192.4-109.7,278.2-49.8,497.7c53.5,196,193.5,180.2,348.4,428.1c130.6,209.1,52.5,254.8,187.3,602.3
			c3.8,9.7,7.7,19.6,11.8,29.8C3428.9,2385.1,3494.7,2485.4,3528.6,2564.4z"/>
	</g>
	<g>
		<polygon class="st9" points="2419.6,2238.5 2369.8,2238.5 2348.8,1124.8 2398.6,1129.6 		"/>
		<polygon class="st9" points="2619.1,2238.5 2569.4,2238.5 2548.3,1141.3 2598.1,1141.3 		"/>
		<polygon class="st9" points="3020.7,2198.8 2970.9,2198.8 2951.1,1085.1 3000.9,1085.1 		"/>
		<polygon class="st15" points="2971.2,2198.8 2942.1,2198.8 2930.6,1085.1 2959.6,1085.1 		"/>
		<polygon class="st15" points="2373.8,2238.5 2344.7,2238.5 2333.1,1124.8 2362.2,1124.8 		"/>
		<polygon class="st16" points="3171.8,2213.5 3142.7,2213.5 3124.1,1104.6 3160.2,1099.8 		"/>
		<polygon class="st16" points="2572.2,2206.5 2543.1,2206.5 2525.4,1148.1 2561.2,1148.1 		"/>
		<polygon class="st9" points="3220.3,2198.8 3170.5,2198.8 3150.7,1100.6 3200.5,1100.6 		"/>
		<polygon class="st9" points="2362.2,1124.8 2598.1,1141.3 2599.9,1174.3 2362.6,1158.7 		"/>
		<polygon class="st9" points="3200.5,1100.6 2959.6,1085.1 2960.1,1133.3 3201.3,1148.1 		"/>
		<polygon class="st15" points="2293.5,1313.6 3115.3,1205.9 3115.3,1262.9 2295.3,1358.6 		"/>
		<polygon class="st15" points="2302.3,1543.2 3124.1,1435.6 3124.1,1492.6 2304.1,1588.2 		"/>
		<polygon class="st16" points="3115.3,1205.9 3302.8,1236.6 3298.6,1288.9 3115.3,1262.9 		"/>
		<polygon class="st16" points="3124.1,1435.6 3302.8,1460.6 3302.8,1502.9 3124.1,1492.6 		"/>
	</g>
	<path class="st10" d="M3543.3,2727.4c-38.4,127.6-143.7,143.8-214,338.5c-43.6,120.8-17.5,154.5-44.8,253.9
		c-85.3,310.4-470.3,454.5-507.7,467.9c-133.7,48.1-309.8,32-662,0c-432.4-39.3-650.7-61.6-756.6-189.1
		c-27.1-32.7-51.5-73.8-219-298.7c-38.8-52.1-74.8-99.9-89.6-119.5c-35.3-46.5-67.3-86.5-96.6-121.5l1271.3-888.9h1118.1
		c3.8,9.7,7.7,19.6,11.8,29.8C3483.4,2520.2,3585.7,2586.6,3543.3,2727.4z"/>
	<path class="st16" d="M878.3,2789.3c-11.2-14-19.6-30.8-30.8-44.8c-11.2-8.4-19.6-16.8-28-25.2c-48.1-50.1-38.8-120.2-5-175.5
		c-30.5,28.9-55.6,62.1-72.6,100.1c-8.6,19.3-4.8,42,9.8,57.3c71,74.3,285.8,305.6,281.5,377.5c5.9-3.9,11.7-7.8,17.4-11.6
		C1023.6,2960.7,961.5,2865.5,878.3,2789.3z"/>
	<path class="st17" d="M1382,2349.6c0,0-383.1,19.5-567.5,194.2c-33.8,55.3-43,125.4,5,175.5c8.4,8.4,16.8,16.8,28,25.2
		c11.2,14,19.6,30.8,30.8,44.8c83.1,76.2,145.3,171.5,172.3,277.9c212.3-140.8,320.9-203.9,320.9-203.9L1382,2349.6z"/>
	<path class="st18" d="M1631.1,3306.9c16.8-8.4,39.2-14,56-22.4c11.2-5.6,22.4-11.2,33.6-16.8c11.2-2.8,25.2-5.6,30.8-11.2
		c50.4-33.6,142.7-58.8,120.3-120.3c-42-103.5-193.1-72.8-293.8-109.1c0-2.8-14-8.4-16.8-14c-5.6-16.8,8.4-30.8,22.4-39.2
		c42-19.6,89.5-2.8,125.9,11.2c131.5,47.6,265.8,64.4,402.9,39.2c78.4-14,142.7-53.2,193.1-120.3c64.4-81.1,120.3-156.7,193.1-223.9
		c39.2-36.4,78.4-86.7,123.1-103.5c92.3-33.6,251.8,30.8,293.8-92.3c-47.6-109.1-193.1-109.1-279.8-61.6
		c-36.4,22.4-75.6,33.6-114.7,50.4c-14,5.6-28,0-42,2.8c-36.4,8.4-70,5.6-103.5,16.8c-14,2.8-30.8,5.6-44.8,5.6
		c-78.4,5.6-151.1,14-229.5,28c-22.4,2.8-47.6,11.2-61.6-2.8c-36.4-44.8,14-81.1,56-103.5c61.6-30.8,86.7-111.9,81.1-181.9
		c-1.8-7.1-5.8-17.5-12-26.4L953,3058.9c29.3,35,61.4,75,96.6,121.5c14.8,19.5,50.8,67.4,89.6,119.5
		c67,89.9,111.1,150.4,141.6,192.8c80.7-37.1,157-77.2,238.3-129.7C1555.5,3340.5,1591.9,3326.5,1631.1,3306.9z"/>
	<path class="st10" d="M3354.2,2199.8c-4.1-10.2-8-20.1-11.8-29.8H2224.3l-59.6,41.7c6.3,8.8,10.3,19.3,12,26.4
		c5.6,70-19.6,151.1-81.1,181.9c-42,22.4-92.3,58.8-56,103.5c14,14,39.2,5.6,61.6,2.8c78.4-14,151.1-22.4,229.5-28
		c14,0,30.8-2.8,44.8-5.6c33.6-11.2,67.2-8.4,103.5-16.8c14-2.8,28,2.8,42-2.8c39.2-16.8,78.4-28,114.7-50.4
		c86.7-47.6,232.3-47.6,279.8,61.6c-42,123.1-201.5,58.8-293.8,92.3c-44.8,16.8-83.9,67.2-123.1,103.5
		c-72.8,67.2-128.7,142.7-193.1,223.9c-50.4,67.2-114.7,106.3-193.1,120.3c-137.1,25.2-271.4,8.4-402.9-39.2
		c-36.4-14-83.9-30.8-125.9-11.2c-14,8.4-28,22.4-22.4,39.2c2.8,5.6,16.8,11.2,16.8,14c100.7,36.4,251.8,5.6,293.8,109.1
		c22.4,61.6-70,86.7-120.3,120.3c-5.6,5.6-19.6,8.4-30.8,11.2c-11.2,5.6-22.4,11.2-33.6,16.8c-16.8,8.4-39.2,14-56,22.4
		c-39.2,19.6-75.6,33.6-111.9,56c-81.3,52.4-157.6,92.6-238.3,129.7c45.8,63.6,61.1,86.3,77.4,105.9
		c105.9,127.5,324.2,149.8,756.6,189.1c352.2,32,528.3,48.1,662,0c37.4-13.4,422.4-157.5,507.7-467.9
		c27.3-99.3,1.2-133.1,44.8-253.9c70.3-194.6,175.7-210.9,214-338.5C3585.7,2586.6,3483.4,2520.2,3354.2,2199.8z"/>
	<g>
		<path class="st19" d="M1758.7,3137.5l7,25.3c-1.5,10.6-11.9,22-21.4,26.9l-128.4,75.4c-4.4,2.3-9.3,3.3-14.2,3l-15.6-0.8
			l19.5-28.9L1758.7,3137.5z"/>
		<path class="st20" d="M1283.5,3171.1l302.4,96.2c9.3,3,18.9-3.9,19.2-13.7l0.4-15.2l-340.4-118.5l4.2,34
			C1270.2,3162,1275.8,3168.7,1283.5,3171.1z"/>
		<path class="st21" d="M1382.8,3064.7l370.4,69.4c8.5,1.6,10.5,13,3,17.3l-147.1,84.9c-2.3,1.3-5,1.6-7.5,0.8l-329.9-104.4
			c-8.1-2.6-8.9-13.8-1.1-17.4l106.6-49.9C1378.9,3064.6,1380.9,3064.4,1382.8,3064.7z"/>
		<polygon class="st7" points="1287.1,3123 1381.7,3078.8 1738.3,3145.6 1603.8,3223.2 		"/>
	</g>
	<g>
		<polygon class="st12" points="973.3,3064.2 1371.5,3311.4 648.1,3432.5 633.2,3125.6 		"/>
		<polygon class="st7" points="729.4,3291.9 742.3,3352.8 1219.1,3284 1100.4,3223.2 		"/>
		<polygon class="st9" points="722.4,3237.6 1062.5,3186.2 1028,3164.9 717.4,3218.1 		"/>
		<polygon class="st11" points="1363.2,3376.1 654.8,3497.2 648.1,3432.5 1371.5,3311.4 		"/>
	</g>
	<g>
		<g>
			<g>
				<polygon class="st19" points="1480.2,2904.1 2023.6,2926.5 2023.6,2958.8 1480.2,2931.5 				"/>
			</g>
			<g>
				<polygon class="st21" points="1942.3,2611.2 1480.2,2904.1 2023.6,2926.5 2446.7,2611.2 				"/>
			</g>
			<polygon class="st20" points="1963.4,2653.3 1634.2,2866.7 1974.9,2881.3 2311.2,2646.6 			"/>
			<g>
				<line class="st22" x1="1992.1" y1="2664.6" x2="1698.8" y2="2860"/>
				<line class="st22" x1="2047.8" y1="2666.2" x2="1754.5" y2="2861.7"/>
				<line class="st22" x1="2103.5" y1="2667.9" x2="1810.2" y2="2863.3"/>
				<line class="st22" x1="2159.1" y1="2669.5" x2="1865.9" y2="2865"/>
				<line class="st22" x1="2214.8" y1="2671.2" x2="1921.6" y2="2866.6"/>
				<path class="st22" d="M1737.9,2815.8c3.3-0.7,290.4,14.1,290.4,14.1"/>
				<path class="st22" d="M1777.7,2792.9c3.3-0.7,290.4,14.1,290.4,14.1"/>
				<path class="st22" d="M1817.6,2770c3.3-0.7,290.4,14.1,290.4,14.1"/>
				<path class="st22" d="M1857.5,2747.1c3.3-0.7,290.4,14.1,290.4,14.1"/>
				<path class="st22" d="M1897.4,2724.3c3.3-0.7,290.4,14.1,290.4,14.1"/>
				<path class="st22" d="M1927.2,2701.4c3.3-0.7,290.4,14.1,290.4,14.1"/>
				<path class="st22" d="M1962.2,2678c3.3-0.7,290.4,14.1,290.4,14.1"/>
				<path class="st22" d="M1701.7,2839.3c3.3-0.7,290.4,14.1,290.4,14.1"/>
			</g>
			<polygon class="st20" points="2109.8,2433.7 2023.6,2926.5 2456.6,2611.2 2526.3,2130.1 			"/>
			<path class="st12" d="M2285.8,2517.8l19.4-55.5c2.7-7.8,12.8-10,18.6-4l25.1,26.1c4.8,5,3.9,13.2-1.9,17l-44.5,29.3
				C2293.6,2536.6,2282.3,2527.8,2285.8,2517.8z"/>
			<g>
				<polygon class="st21" points="2023.6,2958.8 2435,2659.9 2435,2626.9 2023.6,2926.5 				"/>
			</g>
			<g>
				<polygon class="st19" points="2109.8,2433.7 2083.3,2433.7 1998.7,2896.6 2023.6,2926.5 				"/>
			</g>
			<g>
				<polygon class="st21" points="2526.3,2130.1 2496.4,2130.1 2083.3,2433.7 2109.8,2433.7 				"/>
			</g>
		</g>
	</g>
	<path class="st7" d="M2674.8,2302.6l12.2,210.7c0,6.1,21.7,11.2,50.4,12.3c38.2-70.1,39-147,42.4-223H2674.8z"/>
	<path class="st23" d="M2779.7,2302.6c-3.3,76-4.2,152.8-42.4,223c3.8,0.1,7.7,0.2,11.7,0.2c34.3,0,62.1-5.6,62.1-12.5l12.2-210.7
		H2779.7z"/>
	<path class="st17" d="M2823.3,2302.6c0,8.2-33.2,14.9-74.2,14.9s-74.2-6.7-74.2-14.9c0-8.2,33.2-14.9,74.2-14.9
		S2823.3,2294.4,2823.3,2302.6z"/>
	<path class="st24" d="M1239.3,2652.1c-11.2-16.8-28-30.8-28-47.6c-19-116.3-17.9-256.7-104.1-337.6
		c-36.7,211.6-65.4,427.5,39.5,480.3c85.9,43.3,175.5,74,261.1,78.8C1339,2784.7,1280.9,2722.5,1239.3,2652.1z"/>
	<path class="st25" d="M1751.9,2507.7c-2.2-10.4-4.5-21.1-6.6-31.9c-41.8,0.1-83.6,8.4-125.4,19.6c-25.2,5.6-50.4,16.8-72.8,33.6
		c-5.6,2.8-19.6,0-16.8,11.2c-5.6,0-11.2-2.8-16.8,0c-5.6,5.6-14,2.8-16.8,11.2c-8.4-2.8-19.6,2.8-19.6,5.6
		c-14,14-33.6,16.8-47.6,19.6c-61.6,14-131.5,0-148.3-56c-33.6-109.1,5.6-226.7-25.2-341.4c-2.8-11.2-11.2-25.2-22.4-36.4
		c-2.8-5.6,2.8-14,0-19.6c-27.7-30-55.4-54.2-90.9-66.6c-9.4,65-22.9,137.4-35.5,210.2c86.2,81,85.1,221.4,104.1,337.6
		c0,16.8,16.8,30.8,28,47.6c41.6,70.4,99.7,132.5,168.5,173.9c60.2,3.4,118.5-6.1,172-33.2C1709.2,2727.4,1782.2,2649,1751.9,2507.7
		z"/>
	<path class="st26" d="M1705,2049.3c7-100.1-3-157.3-41.3-187.7c0,0,0,0,0,0c-16.7-13.3-38.8-21.4-67.3-25.8
		c-93.7-14.4-194.9-42.6-194.9-42.6s-222.3-19.1-254.7,234.8c-1.2,9.4-2.5,19-3.9,28.7c35.5,12.3,63.2,36.6,90.9,66.6
		c2.8,5.6-2.8,14,0,19.6c11.2,11.2,19.6,25.2,22.4,36.4c30.8,114.7-8.4,232.3,25.2,341.4c16.8,56,86.7,70,148.3,56
		c14-2.8,33.6-5.6,47.6-19.6c0-2.8,11.2-8.4,19.6-5.6c2.8-8.4,11.2-5.6,16.8-11.2c5.6-2.8,11.2,0,16.8,0
		c-2.8-11.2,11.2-8.4,16.8-11.2c22.4-16.8,47.6-28,72.8-33.6c41.8-11.1,83.6-19.5,125.4-19.6c-4.1-20.4-8.2-41.3-12-62.7
		C1711.9,2293.6,1697.1,2162.3,1705,2049.3z"/>
	<path class="st24" d="M1706.7,1978.3c0.8,20.9,0.1,44.4-1.7,71.1c-7.9,113,6.9,244.3,28.3,363.9c33.5,34.2,70.9,50.5,70.9,50.5
		c0.5-0.4,1.2-0.9,2.1-1.5c-104.8-125.4-68-303.5-94-462.1C1710.9,1992.8,1709.1,1985.5,1706.7,1978.3z"/>
	<path class="st26" d="M2097.9,2225.3c-33.5,2.4-120.8,74-202.1,73.2c-81.3-0.8-84.6-73.3-125.5-250.2
		c-40.4-174.9-105.1-186.4-106.6-186.6c28.1,22.3,41,59.1,43.1,116.7c2.4,7.2,4.2,14.5,5.5,21.9c26,158.7-10.8,336.7,94,462.1
		c19.6,6.8,14.9,4.1,47.5,9.5c81.1,3.6,199.8-59.2,234.5-107.7c33.2-3.3,66.9-42.9,70.2-82.1
		C2161.8,2242.6,2131.4,2223,2097.9,2225.3z"/>
	<path class="st12" d="M1382,1841.4c0,0,50.5,127.2,114.9,175.3c32.8-7.2,32.8-7.2,32.8-7.2s64.5-129.2,58.1-152.6
		c-6.4-23.4-29.4-22.7-29.4-22.7L1382,1841.4z"/>
	<path class="st27" d="M1558.4,1762.9c50.5,11.4,99.1-11.3,123.4-70.9c32.1-78.5,13.3-223.4,13.3-223.4l-169.2-28.8
		c0,0-134.9,71.9-134.9,76.3c0,4.4-1.1,170.3,0,173.7c1.1,3.3,19.9,12.2,15.5,42c-4.4,29.9-54.2,64.2-54.2,64.2s26.5,79.6,92.9,94
		c66.4,14.4,121.7-48.1,121.7-48.1C1558.2,1815.4,1551.4,1788.9,1558.4,1762.9z"/>
	<path class="st28" d="M1500.9,1738c0,0,39.7,19.5,57.4,25c-2.6,15.5-7.5,31.3-0.7,45.2C1527.5,1797.1,1483.2,1766.7,1500.9,1738z"
		/>
	<path class="st24" d="M1093.8,2822.8c-30.8,0-61.6-11.2-75.6-36.4c-30.8-50.4-39.2-109.1-39.2-170.7
		c10.5-221.2,50.8-437.4,106.8-651c-81.8,136.8-116.7,347-155.7,550.2c-61.4,320.2,122.8,381.6,199.1,363.4
		c76.3-18.3,248.9-24.9,367.6-31.5c19.5-6.4,32.6-19.8,39.8-36.1C1387.4,2801.7,1240.6,2822.8,1093.8,2822.8z"/>
	<path class="st26" d="M1526.3,2729c-24.4-24.9-259.4-44.8-378.8-73c-73-92.9,101.2-579,101.2-579l34.6-260.2
		c-87.8,14.7-150.4,69.2-197.5,148c-56,213.6-96.3,429.8-106.8,651c0,61.6,8.4,120.3,39.2,170.7c14,25.2,44.8,36.4,75.6,36.4
		c146.8,0,293.6-21.1,442.9-12.1C1548.3,2784.7,1544.4,2751.5,1526.3,2729z"/>
	<path class="st7" d="M1343.3,1780c0,0-72.5,33.2-64.2,62.5c29.9,40.4,48.1,76.9,86.8,73.6c38.7-3.3,38.7-3.3,38.7-3.3l-2.2,80.2
		c0,0,85.2,9.4,92.9,27.1c7.7,17.7,21.6,44.2,21.6,44.2s-0.6-49.6-22.1-75.9c-21.6-26.4-83.6-98.3-97.1-130.9
		C1384.2,1824.8,1353.3,1775,1343.3,1780z"/>
	<path class="st7" d="M1566.7,1816.8c0,0,12.2,65.5-3.3,96.5c-15.5,31-56.3,97.4-56.3,97.4s6.1,21,6.8,25.5
		c18.5-20,83.2-63.1,65.5-102.9c25.4-14.9,31-35.9,34.3-63c3.3-27.1,4.4-35.4,3.9-37.1C1617.1,1831.4,1583.7,1805.8,1566.7,1816.8z"
		/>
	<path class="st16" d="M2065,2247.3c0,0-86.7,81.9-2.2,110.6c69.1,7.2,88.5-60.3,88.5-76C2151.3,2266.1,2125.9,2204.2,2065,2247.3z"
		/>
	<path class="st11" d="M1989.2,2274.4c-38.7-38.7-43.9-102.4-48.3-160.6h-33.7l14.8,256.5c0,8.4,33.8,15.2,75.6,15.2
		c41.7,0,75.6-6.8,75.6-15.2l5.1-88.4C2049.7,2299.3,2009.1,2296.4,1989.2,2274.4z"/>
	<path class="st12" d="M1941,2113.8c4.3,58.1,9.6,121.9,48.3,160.6c19.8,22,60.4,25,89.1,7.5l9.7-168.1H1941z"/>
	<ellipse class="st16" cx="1997.7" cy="2113.8" rx="90.4" ry="18.2"/>
	<path class="st27" d="M2053.6,2316.3c50,15.4,72.2-24.7,76.7-70.3c-5.2-5.8-12.9-9.9-23.8-11.4c0,0-23.9-49.1-61.2-50.3
		c-37.3-1.1-85.9,5.5-93.1,40.9c-1.9,9.2-0.2,21.7,4.1,35.3C1979.5,2288.8,2020.4,2305.9,2053.6,2316.3z"/>
	<path class="st28" d="M2130.3,2246c-4.5,45.6-26.7,85.7-76.7,70.3c-33.2-10.5-74.1-27.5-97.3-55.9c12.3,38.8,46.8,86.1,86.1,88.6
		c53.1,3.4,44.2-8.8,67.5-18.7C2130.3,2320.5,2151.5,2269.5,2130.3,2246z"/>
	<path class="st16" d="M1499.3,2731.8c0,0-55.3,58.6-13.8,106.7c18.8,5.4,48.7-18.5,49.2-57
		C1535.2,2743.1,1525.3,2722.4,1499.3,2731.8z"/>
	<path class="st27" d="M1521.9,2814.4c92.3-19.6,179.1-8.4,268.6,14c14,2.8,28-2.8,42,2.8c8.4,2.8,19.6,8.4,28,8.4
		c22,6.6,42.2-4.1,62.1-11.7c1.1-3.8-1.2-7-6.9-11.5c-13.3-10.5-133.3-111.2-169.2-111.2s-239.5,42-239.5,42s-40.3,20.4-21.7,68.8
		C1497.4,2817.8,1510,2817.1,1521.9,2814.4z"/>
	<path class="st28" d="M1860.5,2839.6c-8.4,0-19.6-5.6-28-8.4c-14-5.6-28,0-42-2.8c-89.5-22.4-176.3-33.6-268.6-14
		c-12,2.7-24.5,3.4-36.6,1.7c1.7,4.5,3.9,9.2,6.7,14.1c68.6,18.3,144.9,18.3,183.6,7.2c45.4,19.4,200.8,32.6,224.5,12.7
		c13.5-11.3,20.9-17.2,22.4-22.2C1902.8,2835.5,1882.5,2846.2,1860.5,2839.6z"/>
	<path class="st24" d="M1512.3,2028.9c0,0,77.7,275.9,14.1,587.9c-22.6,80.7-22.6,80.7-22.6,80.7l-23.5,7.7c0,0,40-128.3,46.2-219
		c6.1-90.7,14.4-263.2-21.7-457.3C1514,2036.1,1512.3,2028.9,1512.3,2028.9z"/>
	<ellipse class="st24" cx="1496" cy="2188.2" rx="11.2" ry="13.3"/>
	<path class="st24" d="M1502.6,2049.4c0,7.3-5,13.3-11.2,13.3c-6.2,0-11.2-5.9-11.2-13.3c0-7.3,5-13.3,11.2-13.3
		C1497.6,2036.1,1502.6,2042,1502.6,2049.4z"/>
	<path class="st24" d="M1515.8,2366.7c0,6.7-5.5,12.2-12.2,12.2c-6.7,0-12.2-5.5-12.2-12.2s5.5-12.2,12.2-12.2
		C1510.3,2354.5,1515.8,2359.9,1515.8,2366.7z"/>
	<path class="st24" d="M1506.3,2540.1c0,5.8-4,10.6-8.9,10.6c-4.9,0-8.9-4.7-8.9-10.6c0-5.8,4-10.6,8.9-10.6
		C1502.3,2529.5,1506.3,2534.3,1506.3,2540.1z"/>
	<path class="st17" d="M1443.4,1617.4c0,0-57.5-19.4-34.3-76.3s58.6,3.9,58.6,3.9v8.3l14.4-3.3c0,0-10.5-61.9,22.1-66.9
		c32.6-5,34.8-35.9,45.9-27.1c11.1,8.8,13.3,20.5,37.6,17.7c24.3-2.8,36.5-17.1,46.5-4.4c10,12.7,20.5,30.4,39.8,25.4
		c19.4-5,12.2,1.7,25.4,14.4c13.3,12.7,48.7,37.6,54.2,22.7c5.5-14.9-2.2-12.2-14.9-25.4c-12.7-13.3-20.5-32.1,5-28.2
		c25.4,3.9,35.9,7.2,25.4,16c-10.5,8.8-22.1,8.3,10.5,22.1c32.6,13.8,32.1,23.8,42.6,13.8c10.5-10,32.6-21.6,18.3-33.2
		c-14.4-11.6-24.3-5-23.8-15.5c0.6-10.5,8.3-3.9,14.4-19.4c6.1-15.5,0-42.6-11.1-47c-11.1-4.4-16-12.2-14.4-23.8
		c1.7-11.6,2.8-16.6-22.1-17.1c-24.9-0.6-32.1-6.1-18.8-14.9c13.3-8.8,45.9-35.4,11.1-42c-34.8-6.6-69.7,0-69.7-13.8
		s-28.2-37.1-60.8-21c-32.6,16-24,28.2-20.9,36.5c3.2,8.3-24,22.7-28.1,22.7c-4.1,0,6.9-35.4-9.7-41.5c-16.6-6.1-49.2-16-61.4-8.3
		c-12.2,7.7-21.6-3.1-19.4-14.8c2.2-11.7-53.6-24.2-77.4,0c-23.8,24.2-30.4,36.4-15.5,57.4c14.9,21-2.8,48.7-18.3,38.2
		c-15.5-10.5-28.8,1.1-57.5,7.7c-28.8,6.6-61.9,8.3-73,43.7c-11.1,35.4-20.5,51.4,0,65.8c20.5,14.4,49.2,12.7,46.5,34.8
		c-2.8,22.1-3.3,13.3,0,27.7c3.3,14.4,28.8,3.9,1.1,28.2c-27.7,24.3-48.7,22.1-38.7,60.3c10,38.2,26.5,73,71.9,74.7
		c45.4,1.7,49.8,8.3,61.9,6.6c12.2-1.7,21.6,3.3,26-10c4.4-13.3,9.4-18.8,6.1-26.5c-3.3-7.7-19.9-25.4-11.1-41.5
		C1436.8,1627.9,1443.4,1617.4,1443.4,1617.4z"/>
	<path class="st29" d="M2309,3529.7c-66.1,28-142.2,5.2-179.5-51.9c-39.6-60.5-25.5-143.8,23.9-183.5c39-31.4,95.4-32,135.6-16
		c73.5,29.2,85.1,110.2,127.7,107.7c24.6-1.4,21.9-35.8,59.8-63.8c43-31.8,116.3-42.2,147.6-12c39,37.6-15.2,110.8,27.9,159.6
		c28.5,32.2,80.1,32,103.7,31.9c80.6-0.3,114.1-49.3,139.6-31.9c27.6,18.8-6.2,79.8,19.9,179.5c7.2,27.5,16.7,49.2,23.9,63.8
		c-11.4,13.6-29.6,32.2-55.9,47.9c-84.8,50.6-213.4,46.9-263.3-16c-35.7-44.9-15.6-100.2-39.9-107.7
		c-31.9-9.9-58.4,87.6-143.6,115.7c-51.5,17-132.8,11.4-167.6-43.9C2237.9,3659.7,2251.5,3582.1,2309,3529.7z"/>
	<path class="st30" d="M3069.3,3590.2c0,0-98.6-39.9-118.1-135.6c-19.5-95.8,126.1-49.9,74.2-146.6s-133.7,37.5-167.6-71.5
		c-33.9-109,59.8-128,105.7-116.5c45.9,11.5,69.7-48.4-5-72.3c-74.7-23.9-2.9-152.4,116.8-127.1c119.7,25.4,140.7,77.8,92.3,134.3
		c-48.4,56.6,33.4,66.6,61.3,40.6c27.9-25.9,173.5,85.1,103.7,158.2c-69.8,73.2-121.7-26.6-129.7,47.2s59.8,75.8,59.8,75.8
		s-18,62.1-64.9,115.8C3151,3546.3,3091.2,3640,3069.3,3590.2z"/>
	<path class="st31" d="M3051.5,2993.9c0,0,136.2,241.1,97.8,528.5c-0.4,3.2-0.9,6.4-1.3,9.6"/>
	<path class="st30" d="M2868.5,3586.8c0,0-87.6-321.3-278.2-460.1c-6.5-4.7-1.1-15,6.5-12.4c235.6,80.3,384.2,361.4,342.6,598.9
		C2895.1,3633.4,2868.5,3586.8,2868.5,3586.8z"/>
	<path class="st30" d="M2768,3766.9c-33.1-67.1-171.4-270.5-611.2-197.9c-18.6,3.1-19.8,29.3-1.6,34.2
		c302.1,79.8,443.6,183.3,473.4,207.2c4,3.2,9.2,4.5,14.2,3.5l112.9-22C2767,3789.5,2773.1,3777.2,2768,3766.9z"/>
	<path class="st32" d="M3020.7,3644.3c0,0,74.7-238.7,282.1-178.8c149.8,43.2,166.6,156.8,164.4,216.5c-0.5,14.1-18.1,20.1-27.2,9.4
		c-57.7-67.6-213.9-222.5-338.9-87.1c-78.6,88.6-80.2,55.1-80.2,55.1"/>
	<path class="st33" d="M2274.9,3404.3c0,0,433.8,132.2,575.6,352.5"/>
	<path class="st32" d="M2547.6,3817.9c0,0-128.7-48.2-153.6-34.2c117.7-29.9,231.4-41.9,297.2,4.5c-21.9-62.3-39.5-165.9-87.6-178.4
		c119.5,44.3,136.4,141,136.4,141s-27.9-77.8,54.9-92.8c-12,39.9,10,103.7,10,103.7s80-16.9,93.8-56.9c-69.8-137.6,0-184.5,0-184.5
		s-31.9,116.7,35.9,156.6c16-71.8,88.8-97.7,121.7-84.8c-18,38.9-13.5,67.5-13.5,67.5s-80.6,33.1-127.3,78.1
		c-46.7,45-108.5,76.7-190.3,64.8C2662.3,3799.6,2687.2,3854.6,2547.6,3817.9z"/>
	<g>
		<path class="st30" d="M2647,1455.1c0,0-218.1,76.4,11.3,282.9c-16-110.7-13.3-225.7,29.3-245.7
			C2678.3,1465.7,2647,1455.1,2647,1455.1z"/>
		<path class="st30" d="M2642.9,1476.2c0,0-73.8-95.3-192-42.9c-118.2,52.4-127.7,58.3-127.7,58.3s26.9-138.6,180-120.7
			c153.1,18,166.1,80.8,166.1,80.8S2664.3,1480.2,2642.9,1476.2z"/>
		<path class="st30" d="M2672.3,1479.2c0,0,81-61.3,103.1,27.9c22.1,89.3,5.1,119.7,5.1,119.7s-19.9-98.7-47.9-112.2
			c-27.9-13.5-58.3-22.9-58.3-22.9L2672.3,1479.2z"/>
		<path class="st30" d="M2680.9,1455.1c-66.8-60.2-58.6-154.4-26.6-259.3c-147.9,73.9-13.5,247.5-13.5,247.5L2680.9,1455.1z"/>
		<path class="st30" d="M2721.5,1478.3c0,0,20.6-61.8,93.8-35.2c-32.6-36.6-106.4-35.9-127.7,0.7c18-73.1,63.8-90.4,63.8-90.4
			s-86.1,1.2-86.5,97c-12.6,20.7-12.6,20.7-12.6,20.7l19.9,11.3L2721.5,1478.3z"/>
		<g>
			<g>
				<path class="st30" d="M2623.1,1501.9c-45.2,9.5-82.9,39.3-109.4,76.2c-30.8,42.9-45.3,94.5-52.7,146.2
					c-4.5,31.6-6.6,63.5-8.6,95.4c-0.1,1.9,2.9,1.9,3,0c6.3-100.1,15.9-214.1,100.1-281.9c20-16.1,43.2-27.8,68.4-33
					C2625.8,1504.4,2625,1501.5,2623.1,1501.9L2623.1,1501.9z"/>
			</g>
		</g>
		<g>
			<g>
				<path class="st30" d="M2630.3,1504.9c32.4,20.5,52.7,54.5,64,90.5c13.3,42.4,13.7,87.1,14.2,131.1c0.3,27.5,0.7,55,4,82.3
					c0.2,1.9,3.2,1.9,3,0c-10.7-87.4,9.8-184.1-40.3-262.6c-11.2-17.6-25.7-32.7-43.3-43.9
					C2630.2,1501.2,2628.7,1503.8,2630.3,1504.9L2630.3,1504.9z"/>
			</g>
		</g>
		<g>
			<g>
				<path class="st30" d="M2651.9,1474.1c-15.9-22.8-41.4-37.9-69-41.3c-28.1-3.4-56.3,6.6-76.8,26c-11.4,10.7-20,24-25.2,38.7
					c-0.6,1.8,2.3,2.6,2.9,0.8c8.7-25,28.3-45.5,52.5-55.9c25.3-10.9,54.4-9.1,78.8,3.5c13.6,7,25.4,17.2,34.2,29.7
					C2650.4,1477.2,2653,1475.7,2651.9,1474.1L2651.9,1474.1z"/>
			</g>
		</g>
		<g>
			<g>
				<path class="st30" d="M2656.7,1474.9c8.7-38.8,17.5-77.6,26.2-116.3c3.8-17,6.8-34.5,12.2-51.2c4.4-13.9,11.7-28.2,26-33.9
					c1.8-0.7,1-3.6-0.8-2.9c-12.6,5-20.3,15.9-25.2,28.1c-6.7,16.3-9.4,34.3-13.3,51.4c-9.3,41.4-18.6,82.7-28,124.1
					C2653.4,1475.9,2656.3,1476.7,2656.7,1474.9L2656.7,1474.9z"/>
			</g>
		</g>
		<g>
			<g>
				<path class="st30" d="M2704.3,1464.5c0.4-21,24-36.3,40.1-45.9c17.8-10.6,37.5-17.8,57.9-21.2c1.9-0.3,1.1-3.2-0.8-2.9
					c-22.3,3.7-43.8,11.9-62.9,24.1c-15.9,10.1-36.9,25-37.3,45.8C2701.2,1466.4,2704.2,1466.4,2704.3,1464.5L2704.3,1464.5z"/>
			</g>
		</g>
		<g>
			<g>
				<path class="st30" d="M2674.7,1472.7c64.5-13.9,132.1,15,166.3,71.4c9.1,14.9,15.5,31.3,19.2,48.3c0.4,1.9,3.3,1.1,2.9-0.8
					c-14-64.4-67.4-114.6-132.7-123.8c-18.8-2.7-38-2-56.6,2C2672.1,1470.2,2672.9,1473.1,2674.7,1472.7L2674.7,1472.7z"/>
			</g>
		</g>
	</g>
	<g>
		<path class="st30" d="M3064.5,1431.3c0,0,165.5,70.8-8.6,262.2c12.1-102.6,10.1-209.2-22.2-227.7
			C3040.8,1441.2,3064.5,1431.3,3064.5,1431.3z"/>
		<path class="st29" d="M3044.7,1432.7c0,0-169.2,61.7-173.3-197c61.4,83.1,135.9,159.4,172.1,150.8
			C3055.2,1409.3,3044.7,1432.7,3044.7,1432.7z"/>
		<path class="st29" d="M3067.6,1450.9c0,4.6,56.2-43,145.7-39.8c101.9,3.7,96.9,54.1,96.9,54.1s-20.4-128.5-136.6-111.9
			c-116.2,16.6-126,74.9-126,74.9S3051.4,1454.6,3067.6,1450.9z"/>
		<path class="st30" d="M3045.3,1453.7c0,0-61.5-56.9-78.2,25.9c-16.8,82.7-3.9,110.9-3.9,110.9s15.1-91.5,36.3-104
			c21.2-12.5,44.3-21.3,44.3-21.3L3045.3,1453.7z"/>
		<path class="st30" d="M3038.8,1431.3c20.7-39.9,13.8-126.9,20.2-240.4c112.3,68.5,10.2,229.4,10.2,229.4L3038.8,1431.3z"/>
		<path class="st30" d="M3008,1452.9c0,0-15.6-57.3-71.2-32.7c24.7-33.9,80.8-33.3,96.9,0.6c-13.6-67.8-48.5-83.8-48.5-83.8
			s65.4,1.1,65.7,89.9c9.5,19.2,9.5,19.2,9.5,19.2l-15.1,10.5L3008,1452.9z"/>
		<g>
			<g>
				<path class="st30" d="M3063.1,1450.4c13.9-24.2,41.3-42.5,70.1-36.3c27.7,6,47.3,31.2,54.8,57.3c0.5,1.9,3.4,1.1,2.9-0.8
					c-7.9-27.5-28.9-54-58.2-59.7c-29.7-5.7-57.8,12.8-72.2,37.9C3059.5,1450.6,3062.1,1452.1,3063.1,1450.4L3063.1,1450.4z"/>
			</g>
		</g>
		<g>
			<g>
				<path class="st30" d="M3059.7,1448.9c-6.9-37.3-13.8-74.6-20.7-112c-3-16.1-5.1-32.7-9.9-48.4c-3.4-11.1-8.8-22.9-19.8-28.2
					c-1.7-0.8-3.2,1.7-1.5,2.6c12.1,5.9,16.9,20,20,32.2c4.1,15.9,6.4,32.4,9.4,48.5c6.5,35.4,13.1,70.7,19.6,106.1
					C3057.2,1451.6,3060.1,1450.8,3059.7,1448.9L3059.7,1448.9z"/>
			</g>
		</g>
		<g>
			<g>
				<path class="st30" d="M3023.7,1440c-0.3-18-14.9-31.9-28.2-42.3c-14.1-11.1-30.5-19-48.1-22.6c-1.9-0.4-2.7,2.5-0.8,2.9
					c16.1,3.3,31.2,10.3,44.5,20.1c13.4,9.9,29.3,24,29.6,42C3020.7,1442,3023.7,1442,3023.7,1440L3023.7,1440z"/>
			</g>
		</g>
		<g>
			<g>
				<path class="st30" d="M3044.2,1444.9c-26.2-6.8-53.9-2.8-77.4,10.5c-23.1,13.1-40.8,34.4-52.4,58.2c-6.8,14-11.6,29-14.3,44.3
					c-0.3,1.9,2.6,2.7,2.9,0.8c5.7-32.2,20.6-63.5,44.9-85.8c25.7-23.5,61.5-34,95.5-25.1C3045.2,1448.3,3046,1445.4,3044.2,1444.9
					L3044.2,1444.9z"/>
			</g>
		</g>
	</g>
</g>
</svg>
