<?xml version="1.0" encoding="utf-8"?>
<!-- Generator: Adobe Illustrator 24.0.0, SVG Export Plug-In . SVG Version: 6.00 Build 0)  -->
<svg version="1.1" id="Vector" xmlns="http://www.w3.org/2000/svg" xmlns:xlink="http://www.w3.org/1999/xlink" x="0px" y="0px"
	 viewBox="0 0 3000 3000" style="enable-background:new 0 0 3000 3000;" xml:space="preserve">
<style type="text/css">
	.st0{fill:none;stroke:#1A1A1A;stroke-width:4.8365;stroke-linecap:round;stroke-linejoin:round;stroke-miterlimit:10;}
	.st1{fill:#FFFFFF;stroke:#1A1A1A;stroke-width:3.2243;stroke-linecap:round;stroke-linejoin:round;stroke-miterlimit:10;}
	.st2{fill:#1A1A1A;stroke:#1A1A1A;stroke-width:3.2243;stroke-linecap:round;stroke-linejoin:round;stroke-miterlimit:10;}
	.st3{fill:none;stroke:#1A1A1A;stroke-width:3.2243;stroke-linecap:round;stroke-linejoin:round;stroke-miterlimit:10;}
	.st4{fill:none;stroke:#FFFFFF;stroke-width:4.8365;stroke-linecap:round;stroke-linejoin:round;stroke-miterlimit:10;}
	.st5{fill:none;stroke:#FFFFFF;stroke-width:3.2243;stroke-linecap:round;stroke-linejoin:round;stroke-miterlimit:10;}
	.st6{fill:#8E9DF4;stroke:#1A1A1A;stroke-width:3.2243;stroke-linecap:round;stroke-linejoin:round;stroke-miterlimit:10;}
	.st7{fill:#D9DBDA;stroke:#1A1A1A;stroke-width:3.2243;stroke-miterlimit:10;}
	.st8{fill:#5067EF;stroke:#1A1A1A;stroke-width:3.2243;stroke-linecap:round;stroke-linejoin:round;stroke-miterlimit:10;}
</style>
<g>
	<path class="st0" d="M322.7,1207.8c-60.8,116.9-157.3,342-152.4,634c3.2,192.2,7.3,436,158.5,566.9
		c226.9,196.5,517.1-93.5,1133.8-61c602.1,31.8,858.1,336.3,1060.7,176.8c134.4-105.8,16.2-229.4,180.7-635.3
		c110.5-272.6-66.5-318.4-215-488.2c-143.6-164.3-389.6-604.7-800.8-662.7c-468.6-66-800.1-112.7-1079,91.4
		C449.2,947,366,1103.1,322.7,1207.8z"/>
	<path class="st1" d="M31.6,1409.6c76.6,61,183.2,163.3,249.9,317c122.6,282.1-10.6,457.3,103.6,634
		c128.9,199.4,447.7,207.3,688.8,213.4c363.1,9.1,415.8-96.3,914.4-164.6c516.1-70.7,690.6,10.6,780.3-121.9
		c55.4-81.8,34.8-180.8-201.2-798.6c-165.8-434.1-249.8-652.3-304.8-713.2c-345.9-382.7-1046.4-490-1298.4-237.7
		c-133.6,133.7-88,315.1-274.3,451.1c-88.2,64.4-137.9,14-396.2,97.5c-164.5,53.2-226.8,94.2-256,158.5
		C10,1306,20.4,1369.6,31.6,1409.6z"/>
	<g>
		<path class="st2" d="M2470.9,1026.2c0,0,34.4,346.5,19.9,389.3s-82,241.9-59.7,278.6c22.4,36.7,62.8,117.5,42.3,144.7
			s-53.4,93.2-9.2,210.3c44.2,117.1-9.5,310.3-9.5,310.3l-23.9-3.3c0,0,26.8-191.4,17.3-236.6c-9.5-45.2-31.7-180.8-17.1-245.9
			s14.6-65.1,14.6-65.1s-45.5-0.9-58.5-21.4c10-6,21.5,1.5,21.5,1.5s22.5,2.3,35.5-3.9c-37.5-60.5-50.2-108-46.5-137.9
			c3.6-29.9,3.6-29.9,3.6-29.9s44.5-129.8,39.1-148.8c-35.3-45.1-29.3-58.8-29.3-58.8l6.6-1.5c0,0,29.5,53.6,33.4,52.9
			c3.8-0.8,37.5-16.9,26.8-74.3c-10.7-57.5,6.4-140.8-1.8-171.2s-11.8-127.7-11.8-127.7l-1.2-67.9L2470.9,1026.2z"/>
		<g>
			<g>
				<path class="st1" d="M2635.1,1435c-12.3,23-170.9,21-250.8,18.6c-0.9-3.5-1.7-6.9-2.4-10.4c-1.4-6.2-2.8-12.3-4-18.4
					C2438.9,1420.7,2649.2,1408.6,2635.1,1435z"/>
			</g>
			<g>
				<path class="st1" d="M2647.3,1225.9c3,13.7,13.2,24.1,21,30.2c4.9,0.6,9.8,1.1,14.9,1.4c22.2,1.4,43.4-8.2,62.2-22.3
					c-13.2-3.2-41.9-11.3-49.5-22.2c-9.9-14.3-0.7-16.8,4.2-10.7c5.1,9.2,39.7,20.2,55.3,24.8c9.3-8.1,17.8-17,25.4-25.8
					c-12.8-0.6-30-4.9-34.9-11.2c-6.3-8.2,1.4-12.8,7.6-7.6c4.6,3.8,26,5.9,37.1,6.7c14.5-18.7,24-35,26.5-39.3
					c0.4-0.7,0.6-1.1,0.6-1.1s-15.4-18.4-38.1-38.7c-8.9,1.9-22.3,5.1-29.4,8.4c-11.1,5.3-18.4,10.9-21.7,6.7
					c-5.5-9.9,25.3-19,41.9-23.1c-10.1-8.5-21.3-16.9-33-24.1c-51.9,4.2-49.7,39.6-61.1,27.9c-9.9-10.1,31.6-28.1,48.6-35
					c-11.6-6-23.5-10.4-35.1-12.2c-10.7-1.2-20.5-2-29.4-2.3c-24.7,16.4-10.3,44.3-24.3,39.1c-10.9-4.1,2.7-27.2,10.6-39.2
					c-120.8,2.4-61.8,97-61.8,97c-0.2,0.4-0.3,0.8-0.5,1.2c-23.4,51.7,10.3,85.1,63.4,97.8c-3.1-9.7-8.6-27.5-9-30.9
					C2638,1216.6,2645.5,1214.1,2647.3,1225.9z"/>
				<path class="st3" d="M2794.8,1150.7c0,0-146,10.2-210,2.8L2794.8,1150.7z"/>
				<path class="st3" d="M2734.4,1188.4c0,0-24.4-12-43.8-32.8L2734.4,1188.4z"/>
				<path class="st3" d="M2705.2,1117.1c0,0-35.3,23.7-36.1,38.9L2705.2,1117.1z"/>
				<path class="st3" d="M2673.6,1216.2c0,0-30.3-40-35.4-60.1L2673.6,1216.2z"/>
				<path class="st3" d="M2614.7,1110.1c0,0-19.8,23-12.2,44.9L2614.7,1110.1z"/>
			</g>
			<g>
				<path class="st2" d="M2267.5,1161.3c8.3-1.8,16.5-3.3,24.6-4.4c13.6,6.3,31.9,18.6,39,39.3c4.8,18.4,16.7,10.9,14.8,3.3
					c-1.3-5.4-13-31.6-19.5-45.9c89.5-3.7,150.1,35.5,118,131.2c0,0,110.9,126-86.4,185c11.2-22.9,29.9-66.5,11.4-68.1
					c-23.7-2.1,4.1,36.5-33.9,74.2c-14.7,3.6-30.8,6.9-48.5,9.8c-19.3,2.4-39.5,0.6-59.3-3.8c26.9-18.8,92.1-66.8,74.3-78.7
					c-20.6-13.6-11.5,42.4-95.8,72.9c-20.2-6.3-39.9-14.8-57.7-23.9c26.5-14.2,75.5-42.9,65-56.4c-6.1-5.3-17.1,7.2-34.6,20.8
					c-11.1,8.6-32.6,19.9-46.8,27c-40.2-22.5-68.2-45.2-68.2-45.2s13.8-34.7,38.2-77.6c18.3-3.7,53.7-10.2,61.7-6
					c11,5.6,22.8-5.3,11.3-15.7c-8.9-8-37.7-7-58.8-2.2c11.1-17.8,23.7-36.1,37.6-53.3c26.2,0.3,84.5,2.4,94.3,14.9
					c9,7.7,23.7-0.6,5.3-19.2c-14.1-14.2-62.4-14.2-84.4-13.4C2197.6,1194.3,2230.9,1169,2267.5,1161.3z"/>
				<path class="st4" d="M2101,1384.9c0,0,237.5-82.9,343.3-100.2L2101,1384.9z"/>
				<path class="st5" d="M2194.2,1296.4c0,0,41.8,8.2,76.7,33.1L2194.2,1296.4z"/>
				<path class="st5" d="M2252.8,1398.3c0,0,54.2-54.3,53.2-79.2L2252.8,1398.3z"/>
				<path class="st5" d="M2289.5,1223.7c0,0,55.6,50.8,67.1,81L2289.5,1223.7z"/>
				<path class="st5" d="M2402.1,1368.4c0,0,28.9-46.2,13.2-78.1L2402.1,1368.4z"/>
			</g>
			<g>
				<path class="st0" d="M2584.3,1154.6c0,0-74.1,22-57.4,181.8L2584.3,1154.6z"/>
				<path class="st2" d="M2507,1348.1c0,0-78.1-87.9,66.9-176.5c-20.1,34.5-93.7,73.3-41.7,161.2c21.6,50-10.2,71.2-10.2,71.2
					S2474.9,1408,2507,1348.1z"/>
				<path class="st6" d="M2389.7,1454.2c-0.9-6.2-1.5-12.2-1.8-18.2c7.5-10.7,21.3-25.3,42.1-32c18.3-4.8,12.2-13.3,4.7-11.4
					c-5.4,1.3-32,11.9-46.5,17.8c5.5-67.1,49.7-115.4,139.4-97.7c0,0,133.6-92,170.8,52.6c-21.1-6.9-61.5-18-65-4
					c-4.5,18,35.8-5.6,68.6,20.5c2,10.8,3.5,22.7,4.5,35.9c0.3,14.4-3.4,29.7-9.7,44.9c-15.5-19-55.5-64.8-68.8-50.6
					c-15.3,16.4,40,5.8,61.1,67.2c-8.2,15.7-18.4,31-29.1,45.1c-11.1-19-33.9-53.9-48.2-45.2c-5.7,5,5.2,12.4,16.6,24.6
					c7.3,7.8,16,23.2,21.4,33.4c-25.9,31.8-50.8,54.4-50.8,54.4s-32.3-8.1-71.5-23.6c-1.7-13.5-4.4-39.7,0.4-46.1
					c6.6-8.6-2.8-16.8-14.1-7.4c-8.7,7.2-10.7,28.9-8.1,44.4c-16.1-7.1-32.6-15.4-47.9-24.7c3-19.7,10.9-63.8,24-72
					c8.4-7.3,1.9-17.8-18.1-2.7c-15.2,11.5-20.1,47.9-21.6,64.5C2414.7,1504.6,2393.6,1481.2,2389.7,1454.2z"/>
				<path class="st4" d="M2590,1564.4c0,0-56.4-173.2-62.5-251.7L2590,1564.4z"/>
				<path class="st5" d="M2513.5,1500.3c0,0,12.2-32,39.9-59.9L2513.5,1500.3z"/>
				<path class="st5" d="M2618.4,1449.3c0,0-47.2-37.1-71.5-34.7L2618.4,1449.3z"/>
				<path class="st5" d="M2452.6,1433.4c0,0,55-45.3,85.5-56L2452.6,1433.4z"/>
				<path class="st5" d="M2604.5,1338.9c0,0-42-18.6-74.5-4.7L2604.5,1338.9z"/>
			</g>
			<g>
				<path class="st1" d="M2347.7,943.8c4.8,3.4,9.5,7,13.9,10.6c2.9,10.9,4.7,27.6-3.3,43.1c-7.8,13,1.8,15.1,5.1,9.8
					c2.4-3.8,11.2-25,16-36.5c43.7,45.6,50.5,100.3-16.8,137.6c0,0-17.2,130.9-141.4,59.2c17.8-7.1,50.3-21.9,42.6-32.7
					c-9.9-13.8-18,22.9-56.3,24.2c-8.8-5.8-18.1-12.5-27.9-20.3c-10.3-9-18.7-20.7-25.6-33.8c22.8,3.6,79.4,11.1,77.6-5.1
					c-2.1-18.7-28.5,18-84.5-9.6c-6-14.4-10.5-29.7-13.8-44.4c20.1,6.1,58.6,15.9,61.1,2.6c0-6.3-11.9-5.1-27.4-6.6
					c-9.9-1-26-6.1-36.5-9.6c-6.5-34.2-7-62.1-7-62.1s25.4-12.3,60.2-23.8c10.5,7.6,30.6,22.9,32.1,29.5c2,9,13.5,9.2,13.8-2.9
					c0.3-9.3-13.7-24.1-26.2-32.6c14.9-4.2,30.7-7.9,46.7-10.3c12,14.1,38,46.5,35.8,58.8c0,9.2,11.4,12.3,12.9-8.1
					c1.2-15.6-21.3-41.3-32-52.7C2297.2,925.4,2326.5,928.8,2347.7,943.8z"/>
				<path class="st3" d="M2148,982.3c0,0,155.9,79.5,214.7,126.1L2148,982.3z"/>
				<path class="st3" d="M2239.7,981.7c0,0,15,27,17.6,59.7L2239.7,981.7z"/>
				<path class="st3" d="M2211.3,1070.9c0,0,54.9-2,68.1-16.7L2211.3,1070.9z"/>
				<path class="st3" d="M2323.9,991.2c0,0-1.9,58.6-13.1,81.9L2323.9,991.2z"/>
				<path class="st3" d="M2297.2,1133.5c0,0,38.7-10.9,48.8-37.4L2297.2,1133.5z"/>
			</g>
			<g>
				<path class="st1" d="M2577.1,1049.1c10.7-2.7,17.9-10.8,21.9-16.9c-0.1-3.7-0.4-7.5-0.7-11.4c-1.7-16.9-12.2-32.8-26.1-46.6
					c-0.9,10.1-3.8,32.2-11.7,38.3c-10.4,8-13.6,1.1-9.2-2.9c6.8-4.2,11.4-30.8,13.1-42.8c-7.7-6.8-16.1-13-24.3-18.5
					c1.1,9.8-0.1,23-4.6,26.9c-5.9,5-10.6-0.7-7.1-5.6c2.5-3.6,1.5-20,0.7-28.4c-17.1-10.5-31.5-17.2-35.4-19c-0.6-0.3-1-0.4-1-0.4
					s-13,12.3-26.6,30.1c2.7,6.7,7,16.8,10.6,22.1c5.7,8.3,11.2,13.7,8.3,16.3c-7.4,4.5-18.7-18.7-24.2-31.2
					c-5.6,8-11,16.7-15.4,25.9c10.1,39.4,38.6,36.6,30.5,45.7c-7,7.9-26.9-23.2-34.7-35.9c-3.4,9-5.5,18.2-5.5,27.1
					c0.4,8.2,1,15.6,1.9,22.5c16.5,18.3,37.4,6.5,34.9,17.3c-1.9,8.4-22.5-1.2-33.2-6.9c17.5,91.8,86.9,44.1,86.9,44.1
					c0.3,0.1,0.7,0.2,1,0.4c45,16.2,67.9-10.4,71.4-51.2c-7.5,2.6-21.2,7.4-24,7.8C2570.7,1056.4,2567.7,1050.8,2577.1,1049.1z"/>
				<path class="st3" d="M2496.9,939.1c0,0,27,110.8,29.2,159.7L2496.9,939.1z"/>
				<path class="st3" d="M2535.4,983.9c0,0-6.6,18.9-21.1,34.3L2535.4,983.9z"/>
				<path class="st3" d="M2481.1,1008.3c0,0,23.8,26.1,36.3,26.3L2481.1,1008.3z"/>
				<path class="st3" d="M2565.8,1029.4c0,0-28.6,24.2-44.4,28.8L2565.8,1029.4z"/>
				<path class="st3" d="M2487,1077.4c0,0,21.3,14.3,38.1,7.9L2487,1077.4z"/>
			</g>
			<path class="st0" d="M2526.2,1098.8c0,0,12.5,1.8-19.1,154.2L2526.2,1098.8z"/>
			<path class="st0" d="M2361.4,1110c0,0,135.2,40,145.6,145.8L2361.4,1110z"/>
			<path class="st0" d="M2434.2,1288.2c3.3-1.2,60.2-6.4,79.1,7L2434.2,1288.2z"/>
		</g>
		<path class="st1" d="M2239.7,1726.7c0,0,2.5,21,6.4,53.9l343.6-1.7l5.6-57C2393.3,1702.1,2239.7,1726.7,2239.7,1726.7z"/>
		<path class="st1" d="M2638.2,1726.7c-14.5-1.8-28.8-3.4-42.9-4.8l-5.6,57l42.6-0.2C2634.2,1762.1,2636.1,1744.7,2638.2,1726.7z"/>
		<path class="st1" d="M2246.1,1780.6c13.4,113.6,43.4,368.8,43.4,389.7c0,20.9,179.4,15.3,260.9,11.7l39.3-403.1L2246.1,1780.6z"/>
		<path class="st2" d="M2632.3,1778.7l-42.6,0.2l-39.3,403.1c24-1.1,39.5-2,39.5-2S2595,2111.8,2632.3,1778.7z"/>
	</g>
	<path class="st1" d="M2768.6,2287.4c-89.6,132.5-264.1,51.2-780.3,121.9c-498.6,68.3-551.3,173.7-914.4,164.6
		c-241.1-6-560-14-688.8-213.4c-58.4-90.4-52.1-180.4-48.4-284.6h2437.2C2805.6,2197.8,2797.3,2244.9,2768.6,2287.4z"/>
	<path class="st7" d="M920.4,2088.3c0,0,27.6,100.4,197.7,91.2c170.1-9.2,103.4-58.5,181.6-53.4c78.2,5.1,139.1-3.8,173.5-22.3
		c34.5-18.5,332.1,39,414.9,42.4c82.7,3.4,321.8,0.3,359.7-40.3c34.4-30.5,34.4-30.5,34.4-30.5L925,2076L920.4,2088.3z"/>
	<polygon class="st1" points="1795.2,2190.4 1562.1,2361.1 1193.7,2314.5 1515.9,2158.9 	"/>
	<path class="st8" d="M2282.2,2075.5l-711.4,0.4l-223.9-30.3l-116.7-94.1c0,0,10-10.6,60-307.6c50-297,281.1-298,281.1-298l164-22.6
		c18.5-23.5,179.6-15.1,306.7,46.9C2150.2,1423.1,2366,1852.3,2282.2,2075.5z"/>
	<path class="st3" d="M1741.1,1991.4c-50.7-76.2-90.8-418.1-66.4-507.1L1741.1,1991.4z"/>
	<path class="st1" d="M1772.5,1074.8c8.9-100-198.9-165.5-277.1-126.1c-78.1,39.3-91.2,66.5-91.2,66.5s17.9,233.9,89.8,283.6
		c57.4,39.7,102.5,3.7,102.5,3.7c3.7,70.3,34.7,128.6,50.1,172.5c0,0,38.2,11.9,57.5-5.7c34.6-31.7,105.6-64.8,113.7-139.5
		C1803.2,1341.4,1767.5,1131.4,1772.5,1074.8z"/>
	<path class="st2" d="M1645.6,1256.7c0,0-24.6,33.4-48.9,45.8c6.4,50.7,0.4,15.1,0.4,15.1S1658.2,1290.6,1645.6,1256.7z"/>
	<path class="st2" d="M1348.6,935.9c0,0-14.4,112.6,89.2,81.2c103.6-31.4,130.9-48,133.3-47.2c2.3,0.9,15,85.2,45.2,80.3
		c30.2-5,59.7-5.7,60.1,27.2c0.4,32.9-3.7,66-3.7,66l13.6-5.7c0,0,6.2-92.6,43.7-66.5c52.7,36.6-3.6,92.6,1.9,104.3
		c5.5,11.7,45.9,5.3,45.9,5.3l11.5-7.3c0,0-7-100,5.8-135.2c12.8-35.2-16.6-144.3-79.4-188.4c-62.8-44.1-196.2-20.9-232.9,11.8
		S1348.6,935.9,1348.6,935.9z"/>
	<path class="st3" d="M2773.9,2076H336.7H2773.9z"/>
	<path class="st3" d="M2384.7,2076h-813.9H2384.7z"/>
	<g>
		<path class="st1" d="M721.4,2069.4c0,0.1,0,0.2,0,0.4c-2.1,7.9-69.8,14.3-153.1,14.3c-79.5,0-144.9-5.8-152.4-13.2
			c-0.5-0.9-0.7-1.4-0.7-1.4c0-8.1,68.5-14.7,153.1-14.7S721.4,2061.3,721.4,2069.4z"/>
		<path class="st1" d="M415.9,2070.9c-0.5-0.5-0.7-1-0.7-1.4C415.1,2069.4,415.4,2069.9,415.9,2070.9z"/>
		<path class="st1" d="M661.2,1953.2c0,0-3.7,104.3-17.7,129c-14,24.7-122.8,25.1-150.6,0c-16.1-12.2-21.6-109.8-22.2-126.7
			c4.2,16.7,92.9,13.4,92.9,13.4S659.2,1973.4,661.2,1953.2z"/>
		<path class="st2" d="M661.2,1953.2c-2,20.2-97.5,15.7-97.5,15.7s-88.7,3.2-92.9-13.4c0-1.1-0.1-1.9-0.1-2.3
			c3.5-19.2,79.3-17.7,93-18.2C577.3,1934.5,663.2,1933,661.2,1953.2z"/>
		<path class="st1" d="M470.8,1955.5c-0.2-0.7-0.2-1.5-0.1-2.3C470.7,1953.6,470.7,1954.3,470.8,1955.5z"/>
		<path class="st1" d="M721.3,2069.8c-3.9,33.6-57.1,51.2-57.1,51.2s-130.9,6.1-179.4,0c-43.4-5.4-64.9-42.3-69-50.1
			c7.5,7.4,72.9,13.2,152.4,13.2C651.5,2084.1,719.2,2077.7,721.3,2069.8z"/>
	</g>
	<path class="st1" d="M1659.8,1483l-22.1,4.9c0,0-92.6-125.4-115.9-138.2c-5-2.7,69.8-30,74.3-35.3c10.5,34.1,59.6,157.6,79.6,171.2
		C1659.8,1483,1659.8,1483,1659.8,1483z"/>
	<path class="st2" d="M1494.4,2011.4c-39.4-72.9-27.8-216.9-25-244.9c0.3-3.1,0.5-4.8,0.5-4.8s-42.2,221-27,243.2
		C1458.1,2027.1,1494.4,2011.4,1494.4,2011.4z"/>
	<path class="st8" d="M1832.9,1300.3c0,0,227,25.4,308.8,101.2c93.5,86.6,196,415.5,145.5,612.8c-41.8,163.4-195,102.7-195,102.7
		l-50.5-169.1c15.4-6.7,21.5-93.7-29.4-293.7c0,0-20.2-66.7-6.1-107.1L1832.9,1300.3z"/>
	<g>
		<path class="st1" d="M1044.5,2036.6l-20.9-23.2c0,0-24.9,14.3-28.9,26.1c-4,11.8,11.7,22.2,11.7,22.2s-18.7,37.5,26.1,41.4
			c-8,17.5,12.4,24.7,25.8,26.8c-5,18.2,10.4,18.2,31.1,14.3c12.3-2.3,74.4,4.8,115.2-30c36-30.2,87.4-24.2,92.3-25.9
			c3.8-1.4,20.5-8.6,3.5-17.7c-36.8-19.8-141.1-31.1-141.1-31.1L1044.5,2036.6z"/>
		<path class="st1" d="M722.8,1682.5c0,0,275.9,290.6,306.9,328.9c40.9,88.6,60.7,116.4,60.7,116.4s133.8-52.9,199.5-49
			c7.4-86-149.9-280.5-198.3-374.4c-48.3-93.9-62.7-140.2-62.7-140.2S761.3,1673.2,722.8,1682.5z"/>
		<path class="st1" d="M1166.2,1981.9c0,0,31.9-50.8,54.4-60.9c22.5-10.1,96.1-20.1,102-20.1s155,51.3,155,51.3s394.6,14.9,506.5,2
			c97.9,79.4,42.7,161.6,42.7,161.6c2.6,24.9-399.7-17.6-511.5-47.3c-41.8-8.6-108.1,36.9-132.2,43.3
			c-76.6-10.9-114.3-17.1-118.8-40.6c-4.5-23.5-24.7-90.7-30.1-91.6s-2.7,1.4-29.2,13S1161.4,1989.3,1166.2,1981.9z"/>
		<path class="st1" d="M1020.9,2029.2c0,0,28.6,8.6,30.6,21.2c2,12.6-11.6,23.1-45.1,11.2L1020.9,2029.2z"/>
		<path class="st1" d="M1065.7,2145.7c0,0,66.8-14.8,68.8-35.5c2-20.7-28.1-25-39.2-20l-46.5,13.6L1065.7,2145.7z"/>
		<path class="st1" d="M1032.5,2103.1c0,0,57.8,5.5,62.9-12.9c5.1-18.3-4.9-24.2-20.7-24.6c-15.8-0.4-30.1-1.4-30.1-1.4
			L1032.5,2103.1z"/>
		<path class="st2" d="M1543.6,1952c0,0,26,3.2,16.4,64c-9.5,60.7-32.5,61.1-32.5,61.1l45.7,7.3c0,0,24.4-39.4,25.4-84.3
			c0.9-44.9-10.6-47.7-10.6-47.7L1543.6,1952z"/>
		
			<ellipse transform="matrix(0.9968 -7.966834e-02 7.966834e-02 0.9968 -155.834 131.7334)" class="st1" cx="1573" cy="2018.8" rx="47" ry="50"/>
	</g>
	<path class="st1" d="M1710,1487.9c0,0,45-16,115.6-105.8c39.3-50,64.3-73.2,64.3-73.2s-36.9-44.7-91.8-29.4
		c-1.5,93.1-120.4,168.8-123.3,204.9C1674.7,1485.2,1710,1487.9,1710,1487.9z"/>
	<path class="st2" d="M1952.5,1956.7c0,0,22.2-8.8,35.7,25.6c13.5,34.4-10.4,145.8-10.4,145.8s48.8,0,52.3,0s5.2-154.5,5.2-165.3
		s-76.2-15.2-76.2-15.2L1952.5,1956.7z"/>
	<path class="st1" d="M1947.7,1948.5c0,0,99.3-48.9,144.1-0.7c37.1,39.9,61.4,167.9,29.7,180c-57.8,12.4-128,14.6-129.5,0.2
		c-12.4,3,59.3-138-31.2-178.8c-1.1-0.5-9.1,7.6-11.8,7.6S1948.9,1949,1947.7,1948.5z"/>
	<ellipse class="st1" cx="2042.2" cy="2526.4" rx="108.1" ry="85"/>
	<ellipse class="st2" cx="314.7" cy="910.6" rx="78.1" ry="78.9"/>
	<ellipse class="st2" cx="182.4" cy="1999.8" rx="54.2" ry="55"/>
	<ellipse class="st1" cx="427.7" cy="2306.5" rx="146.4" ry="134.9"/>
	<ellipse class="st2" cx="2745.7" cy="2018.1" rx="123.3" ry="113.6"/>
	<g>
		<path class="st2" d="M536.9,1032.5c-6.4,0.7-13,1.5-19.9,2.3v291.7h19.9V1032.5z"/>
		<path class="st2" d="M907.2,614c-7.4,13.2-13.9,26.7-19.9,40.4v357.1h19.9V614z"/>
		<g>
			<path class="st1" d="M756.1,1331.5c0,0-120.7,10.7-153.2,12.6c-32.6,1.9-49.8,20.3-49.8,20.3l-39.4,62.8l-53.6-8
				c0,0,14.8-24.1,27.7-46.7c1.7-2.9,3.3-5.7,4.8-8.5c11-19.5-4.3-28.8-10.9-31.8c-1.7-0.8-2.9-1.1-2.9-1.1l-123.7-54
				c0,0,21.5-10.7,31-17.6c4.8-3.5,9.8-3.4,13.6-2.6c3.8,0.9,6.3,2.6,6.3,2.6s58.8,25.3,90.4,41.4c2.3,1.2,4.5,2.3,6.5,3.4
				c12.8,6.9,31.4,10.5,48.3,12.3c21.7,2.4,40.6,1.9,40.6,1.9l154.8-18.8L756.1,1331.5z"/>
			<path class="st1" d="M746.5,1248.9v50.8l-154.8,18.8c0,0-18.9,0.5-40.6-1.9c-16.9-1.9-35.5-5.4-48.3-12.3c-2-1.1-4.2-2.2-6.5-3.4
				c-31.6-16.2-90.4-41.4-90.4-41.4s-2.5-1.7-6.3-2.6v-50.8c3.8,0.9,6.3,2.6,6.3,2.6s67.8,29.1,96.9,44.8
				c29.1,15.7,88.9,14.2,88.9,14.2L746.5,1248.9z"/>
			<path class="st2" d="M492.5,1364.1c-1.6,2.8-3.2,5.6-4.8,8.5c-13,22.6-27.7,46.7-27.7,46.7v-50.8c0,0,10.5-17.2,21.6-36.1
				C488.2,1335.3,503.5,1344.6,492.5,1364.1z"/>
			<polygon class="st1" points="756.1,1280.7 756.1,1331.5 746.5,1299.7 746.5,1248.9 			"/>
			<path class="st2" d="M399.6,1206.1v50.8c-3.8-0.9-8.8-0.9-13.6,2.6c-9.6,6.9-31,17.6-31,17.6v-50.8c0,0,21.5-10.7,31-17.6
				C390.8,1205.2,395.8,1205.2,399.6,1206.1z"/>
		</g>
		<g>
			<path class="st1" d="M1107.7,1036.5c0,0-120.7,10.7-153.2,12.6c-32.6,1.9-49.8,20.3-49.8,20.3l-39.4,62.8l-53.6-8
				c0,0,14.8-24.1,27.7-46.7c1.7-2.9,3.3-5.7,4.8-8.5c11-19.5-4.3-28.8-10.9-31.8c-1.7-0.8-2.9-1.1-2.9-1.1l-123.7-54
				c0,0,21.5-10.7,31-17.6c4.8-3.5,9.8-3.4,13.6-2.6c3.8,0.9,6.3,2.6,6.3,2.6s58.8,25.3,90.4,41.4c2.3,1.2,4.5,2.3,6.5,3.4
				c12.8,6.9,31.4,10.5,48.3,12.3c21.7,2.4,40.6,1.9,40.6,1.9l154.8-18.8L1107.7,1036.5z"/>
			<path class="st1" d="M1098.2,953.9v50.8l-154.8,18.8c0,0-18.9,0.5-40.6-1.9c-16.9-1.9-35.5-5.4-48.3-12.3c-2-1.1-4.2-2.2-6.5-3.4
				c-31.6-16.2-90.4-41.4-90.4-41.4s-2.5-1.7-6.3-2.6v-50.8c3.8,0.9,6.3,2.6,6.3,2.6s67.8,29.1,96.9,44.8
				c29.1,15.7,88.9,14.2,88.9,14.2L1098.2,953.9z"/>
			<path class="st2" d="M844.2,1069.1c-1.6,2.8-3.2,5.6-4.8,8.5c-13,22.6-27.7,46.7-27.7,46.7v-50.8c0,0,10.5-17.2,21.6-36.1
				C839.9,1040.2,855.2,1049.6,844.2,1069.1z"/>
			<polygon class="st1" points="1107.7,985.7 1107.7,1036.5 1098.2,1004.7 1098.2,953.9 			"/>
			<path class="st2" d="M751.3,911.1v50.8c-3.8-0.9-8.8-0.9-13.6,2.6c-9.6,6.9-31,17.6-31,17.6v-50.8c0,0,21.5-10.7,31-17.6
				C742.5,910.2,747.5,910.2,751.3,911.1z"/>
		</g>
	</g>
	<path class="st1" d="M2402.6,539.5h-478.4c-50.4,0-91.3,40.9-91.3,91.3v69.1c0,50.4,40.9,91.3,91.3,91.3h0c0.1,0,0.1,0.1,0.1,0.1
		v43.2c0,16,19.2,24.1,30.7,12.9l57.5-56.2c0,0,0.1,0,0.1,0h390c50.4,0,91.3-40.9,91.3-91.3v-69.1
		C2493.9,580.4,2453,539.5,2402.6,539.5z"/>
	<path class="st1" d="M2404.6,634.9H1944c-3.6,0-6.5-2.9-6.5-6.5v-7.9c0-3.6,2.9-6.5,6.5-6.5h460.6c3.6,0,6.5,2.9,6.5,6.5v7.9
		C2411,632,2408.1,634.9,2404.6,634.9z"/>
	<path class="st1" d="M2404.6,710H1944c-3.6,0-6.5-2.9-6.5-6.5v-7.9c0-3.6,2.9-6.5,6.5-6.5h460.6c3.6,0,6.5,2.9,6.5,6.5v7.9
		C2411,707.1,2408.1,710,2404.6,710z"/>
</g>
</svg>
