<?xml version="1.0" encoding="utf-8"?>
<!-- Generator: Adobe Illustrator 22.0.0, SVG Export Plug-In . SVG Version: 6.00 Build 0)  -->
<svg version="1.1" id="Layer_1" xmlns="http://www.w3.org/2000/svg" xmlns:xlink="http://www.w3.org/1999/xlink" x="0px" y="0px"
	 viewBox="0 0 4000 4000" style="enable-background:new 0 0 4000 4000;" xml:space="preserve">
<style type="text/css">
	.st0{fill:url(#SVGID_1_);}
	.st1{fill:#FFFFFF;}
	.st2{fill:#B080B0;}
	.st3{fill:#CCC4CC;}
	.st4{fill:url(#SVGID_2_);}
	.st5{fill:#572658;}
	.st6{fill:url(#SVGID_3_);}
	.st7{fill:url(#SVGID_4_);}
	.st8{fill:#1A1A1A;}
	.st9{fill:#3B546B;}
	.st10{fill:#D9D9D9;}
	.st11{fill:#1B51C6;}
	.st12{fill:#CF8A00;}
	.st13{fill:#102140;}
	.st14{fill:#EB485C;}
	.st15{fill:#D1334A;}
	.st16{fill:#FFB114;}
	.st17{fill:#912433;}
	.st18{fill:#FC9590;}
	.st19{fill:#DB6767;}
	.st20{fill:#FFDE70;}
	.st21{fill:#DBD2DB;}
	.st22{fill:#FFF5FF;}
	.st23{fill:#152A52;}
	.st24{fill:#6584C6;}
	.st25{fill:#ED9F00;}
	.st26{fill:#AD780E;}
	.st27{fill:#127755;}
	.st28{fill:none;stroke:#3DBE88;stroke-width:2;stroke-linecap:round;stroke-linejoin:round;stroke-miterlimit:10;}
	.st29{opacity:0.1;fill:url(#SVGID_5_);}
	.st30{fill:url(#SVGID_6_);}
	.st31{fill:url(#SVGID_7_);}
	.st32{fill:url(#SVGID_8_);}
	.st33{fill:url(#SVGID_9_);}
</style>
<g>
	<linearGradient id="SVGID_1_" gradientUnits="userSpaceOnUse" x1="2266.3953" y1="316.5504" x2="2114.7859" y2="3884.4229">
		<stop  offset="0" style="stop-color:#68B2FC"/>
		<stop  offset="1" style="stop-color:#529BF7"/>
	</linearGradient>
	<path class="st0" d="M789.4,1263c-170.5,233.9-237.5,489.9-260.5,594.3c-17.3,78.5-63,313.3-24.4,578
		c96.9,664.8,699.2,1339.5,1123.5,1266c206-35.7,278.7-232,512.9-211.7c151.1,13.1,185.1,100.3,386.7,199.5
		c100.7,49.5,418.3,205.6,744.9,109.9c242.8-71.2,486.9-280.4,553.6-549.5c78.5-316.5-88.5-715.8-313.4-936.2
		c-67.3-66-157.8-133.5-179.1-256.4c-23.8-137,56.6-237,118-362.3c113.8-232.1,158-541.5,101.8-704.2
		C3416.1,593.6,2484,499.7,1807.1,664.6C1563.6,724,1093.8,845.5,789.4,1263z"/>
	<g>
		<path class="st1" d="M1039.2,3341.7v-70.8l1838.7-685.2h813.8c28.7,119.5,43,237.9,42.4,352c-0.6,122.9-18.7,234.6-53.7,331.7
			c-9,25.1-19.3,49.5-30.6,72.3H1039.2z"/>
		<path d="M3690.6,2587c28.5,119,42.7,236.9,42.1,350.6c-0.6,122.8-18.7,234.2-53.6,331.3c-8.9,24.8-19,48.8-30.1,71.4H1040.6v-68.4
			L2878.1,2587H3690.6 M3692.8,2584.2h-815.2l-1839.9,685.7v73.3h2613c11.6-23.6,21.9-48,31-73.3
			C3754.6,3067.2,3748.5,2815.1,3692.8,2584.2L3692.8,2584.2z"/>
	</g>
	<path class="st2" d="M3524.9,3514.1c-224.5,206.7-627.2,216.6-895.6,122.1c-259.8-91.4-379.3-275.5-639.1-244.2
		c-99,11.9-203.6,53.3-305.3,93.6c-230.2,91.2-246.2,143.8-337.9,162.8c-281.8,58.7-608.3-339-749-574
		c-105.5-176.2-302.7-505.4-191.3-810c40.7-111.5,181.8-259,460.5-545.1v968.4h2846.9C3767.4,2998.6,3726.9,3328.1,3524.9,3514.1z"
		/>
	<path class="st3" d="M1904.5,3408.6c-72.6,18.8-146.8,48.2-219.6,77c-115.4,45.7-177,81.7-221.2,108.6l-59.7-213.4
		c0,0,9.2-1-71.2,3.1c-293.1,59-493.6-9.2-517-135.4c-23.4-126.2,37.7-163.8,37.7-163.8h473.1c0,0,311.5-1.8,418.4,36.6
		C1811.7,3145.2,1870.1,3297.6,1904.5,3408.6z"/>
	<linearGradient id="SVGID_2_" gradientUnits="userSpaceOnUse" x1="867.3057" y1="2046.1355" x2="3714.186" y2="2046.1355">
		<stop  offset="0" style="stop-color:#68B2FC"/>
		<stop  offset="1" style="stop-color:#EBF0F7"/>
	</linearGradient>
	<path class="st4" d="M3714.2,2687.7H867.3v-968.4c11.8-12.1,23.8-24.4,36.1-37c37.2-38.2,68.9-70,96-97.6c1.2-1.2,2.4-2.4,3.5-3.6
		c9.3-9.5,18-18.5,26.2-27c2.1-2.1,4.1-4.3,6.1-6.4c7.9-8.4,15.4-16.4,22.3-24.1c1.7-1.9,3.5-3.8,5.1-5.7c0.2-0.2,0.3-0.4,0.5-0.6
		c1.5-1.7,3-3.4,4.4-5.1c1.9-2.1,3.7-4.2,5.4-6.3c1.3-1.6,2.7-3.1,3.9-4.7c2.8-3.3,5.4-6.6,8-9.8c1-1.2,1.9-2.4,2.8-3.5
		c1.2-1.6,2.4-3.1,3.6-4.7c1.1-1.4,2.1-2.7,3.1-4.1c1.3-1.7,2.5-3.4,3.7-5c1-1.4,2-2.8,3-4.2c1.7-2.4,3.3-4.8,4.9-7.2
		c1.5-2.3,3-4.5,4.4-6.8c2.7-4.3,5.3-8.6,7.7-12.9c0.8-1.3,1.5-2.7,2.2-4c2.2-4.1,4.3-8.1,6.2-12.2c0.7-1.4,1.3-2.7,1.9-4.1
		c0.6-1.4,1.3-2.7,1.9-4.1c1.5-3.3,2.9-6.7,4.2-10.1c0.5-1.2,0.9-2.4,1.4-3.6c0.1-0.1,0.1-0.2,0.1-0.3c43.4,9.7,74.4,27,97.2,45.7
		c28.3,23.3,43.9,49,70.2,78.3c16.5,18.4,37.3,38.4,68.2,60.1c50.6,35.7,94.2,66.3,146.6,61.1c29-2.9,47.2-15.4,64.2-31.8
		c25.9-24.9,49-58.9,102.6-82.2c79.9-34.7,196.6-32.2,240.2,24.4c40.1,52.2-2.2,123.7,9.9,170.8c2.4,9.3,6.9,17.6,14.5,24.6
		c21.8,20.1,59.9,21.1,99.3,11.8c30.9-7.2,62.7-20.8,88-36.3c92.1-56.6,83.8-130.6,154.7-150.6c68-19.2,144.4,29.5,183.2,73.3
		c9.5,10.6,34.6,41.3,61.1,158.7c10.9,48.5,16.4,86.6,19.5,117.1c7.9,77.6,0.5,105.8,29.4,131.2c56.2,49.5,128.1-18.8,248.3,36.6
		c30.3,14,86.1,39.7,105.8,93.6c26.1,71.5-37.3,121.5-8.1,166.9c30.1,47,130.5,44.3,191.3,28.5c56.3-14.6,58.3-35.2,93.6-32.6
		c57.4,4.3,100.3,62.2,150.6,130.3c45.8,61.9,34.7,65.5,57,85.5c59.7,53.5,174.4,59.4,270.3,16.8c2.2,9.2,4.3,18.4,6.4,27.6l1.6,7.5
		c1.1,5.1,2.2,10.2,3.2,15.3c1.1,5.1,2.1,10.2,3.1,15.3c0,0.3,0.1,0.5,0.1,0.8c1.1,5.7,2.2,11.4,3.2,17.1
		C3712.1,2676,3713.2,2681.9,3714.2,2687.7z"/>
	<polygon class="st5" points="903.4,1682.3 903.4,2661.6 3637.8,2661.6 3637.8,2747.7 842.3,2747.7 842.3,1745 	"/>
	<linearGradient id="SVGID_3_" gradientUnits="userSpaceOnUse" x1="2585.5732" y1="335.7704" x2="2357.6204" y2="1703.4917">
		<stop  offset="0" style="stop-color:#68B2FC"/>
		<stop  offset="1" style="stop-color:#EBF0F7"/>
	</linearGradient>
	<path class="st6" d="M3693.4,2586.5c-95.9,42.6-210.6,36.7-270.3-16.8c-22.3-20-11.2-23.6-57-85.5c-50.3-68.1-93.2-126-150.6-130.3
		c-35.3-2.6-37.3,18-93.6,32.6c-60.8,15.8-161.2,18.5-191.3-28.5c-29.1-45.4,34.2-95.4,8.1-166.9c-19.7-53.9-75.6-79.7-105.8-93.6
		c-120.2-55.4-192.1,12.8-248.3-36.6c-28.9-25.4-21.5-53.6-29.4-131.2c-3.1-30.5-8.5-68.6-19.5-117.1
		c-26.4-117.4-51.6-148.1-61.1-158.7c-38.8-43.8-115.2-92.5-183.2-73.3c-70.9,20-62.6,94.1-154.7,150.6c-25.3,15.5-57,29-88,36.3
		c-39.4,9.2-77.5,8.2-99.3-11.8c-7.6-7-12.1-15.4-14.5-24.6c-12.1-47.1,30.1-118.6-9.9-170.8c-43.5-56.6-160.3-59.1-240.2-24.4
		c-53.6,23.3-76.8,57.3-102.6,82.2c-17,16.4-35.3,28.9-64.2,31.8c-52.4,5.2-95.9-25.4-146.6-61.1c-30.9-21.7-51.7-41.7-68.2-60.1
		c-26.3-29.3-41.9-55-70.2-78.3c-22.8-18.8-53.8-36-97.2-45.7c4.6-12.4,8.5-25.6,11.7-39.7c44.7-196.9-102.4-277.4-114-521.1
		c-9.1-190.6,66.7-440.1,256.4-578c280-203.5,656.4-54,720.5-28.5c170.1,67.6,117.7,107.2,464,337.8
		c174.2,116,251.9,148.9,594.3,366.4c159.5,101.3,239.6,152.5,256.4,179.1c141.6,223.6-79.9,465.6,40.7,801.9
		c43,119.8,87.8,135.8,162.8,256.4C3599.5,2292.5,3657.1,2435,3693.4,2586.5z"/>
	<linearGradient id="SVGID_4_" gradientUnits="userSpaceOnUse" x1="2585.574" y1="335.7659" x2="2357.6206" y2="1703.4901">
		<stop  offset="0" style="stop-color:#68B2FC"/>
		<stop  offset="1" style="stop-color:#EBF0F7"/>
	</linearGradient>
	<path class="st7" d="M3693.4,2586.5c-95.9,42.6-210.6,36.7-270.3-16.8c-22.3-20-11.2-23.6-57-85.5c-50.3-68.1-93.2-126-150.6-130.3
		c-35.3-2.6-37.3,18-93.6,32.6c-40,10.4-97.1,15.1-140,3.8c-8.2-2.2-16-4.9-22.9-8.4c-12-5.9-21.8-13.7-28.4-23.9
		c-29.1-45.4,34.2-95.4,8.1-166.9c-19.7-53.9-75.6-79.7-105.8-93.6c-120.2-55.4-192.1,12.8-248.3-36.6
		c-28.9-25.4-21.5-53.6-29.4-131.2c-3.1-30.5-8.5-68.6-19.5-117.1c-26.4-117.4-51.6-148.1-61.1-158.7
		c-38.8-43.8-115.2-92.5-183.2-73.3c-30.5,8.6-46.3,27.3-61.8,50.2c-7.2,10.7-14.4,22.4-22.9,34.3c-15.7,22-36,45.3-69.9,66.1
		c-25.3,15.5-57,29-88,36.3c-39.4,9.2-77.5,8.2-99.3-11.8c-7.6-7-12.1-15.4-14.5-24.6c-12.1-47.1,30.1-118.6-9.9-170.8
		c-43.5-56.6-160.3-59.1-240.2-24.4c-53.6,23.3-76.8,57.3-102.6,82.2c-17,16.4-35.3,28.9-64.2,31.8c-14,1.4-27.5,0.2-40.6-3
		c-7.7-1.9-15.4-4.4-23-7.6c-27.3-11.3-54-30.1-83-50.5c-30.9-21.7-51.7-41.7-68.2-60.1c-26.3-29.3-41.9-55-70.2-78.3
		c-22.8-18.8-53.8-36-97.2-45.7c4.6-12.4,8.5-25.6,11.7-39.7c44.7-196.9-102.4-277.4-114-521.1c-9.1-190.6,66.7-440.1,256.4-578
		c52.3-38.1,108-63.8,164.5-80.2c7.7-2.3,15.3-4.3,23-6.2c238.3-59.2,482.6,37.9,533.1,58c100.3,39.8,123.3,70,196.1,135.2
		c7.1,6.4,14.7,13.1,22.9,20.2c50.2,43.4,122.8,101,245,182.4c153.8,102.4,232.3,140,484.3,297.1c7.5,4.7,15.1,9.4,22.9,14.3
		c27,16.9,56,35.2,87.1,55c159.5,101.3,239.6,152.5,256.4,179.1c141.6,223.6-79.9,465.6,40.7,801.9c43,119.8,87.8,135.8,162.8,256.4
		C3599.5,2292.5,3657.1,2435,3693.4,2586.5z"/>
	<g>
		<path class="st3" d="M1477.5,179.3v2525.9h-23V185.5C1462.2,183.2,1469.8,181.2,1477.5,179.3z"/>
		<path class="st3" d="M2229.7,392.7v2312.6h-22.9V372.4C2213.9,378.8,2221.5,385.6,2229.7,392.7z"/>
		<path class="st3" d="M2981.8,886.5v1818.7h-22.9v-1833C2966.4,876.8,2974,881.6,2981.8,886.5z"/>
	</g>
	<g>
		<polygon class="st8" points="2767.7,755.7 2767.7,1772.6 2787.1,1821.4 2787.1,766.6 		"/>
		<path class="st9" d="M2976.5,1750.1c0-17-89.1-30.8-199.1-30.8c-109.9,0-199.1,13.8-199.1,30.8l-133.2,183h664.5L2976.5,1750.1z"
			/>
		<ellipse class="st10" cx="2777.4" cy="1933.1" rx="332.3" ry="51.4"/>
		<ellipse class="st1" cx="2777.4" cy="1933.1" rx="294.8" ry="35.5"/>
	</g>
	<g>
		<polygon class="st8" points="2303.7,452.1 2303.7,1039.1 2323,1088 2323,468.1 		"/>
		<path class="st9" d="M2602.9,1055.7c0-23.9-125.3-43.3-279.9-43.3s-279.9,19.4-279.9,43.3l-187.2,257.2h934.2L2602.9,1055.7z"/>
		<ellipse class="st10" cx="2323" cy="1312.9" rx="467.1" ry="72.3"/>
		<ellipse class="st1" cx="2323" cy="1312.9" rx="414.5" ry="49.9"/>
	</g>
	<path class="st11" d="M1487.5,3580l-68.9-222.6c0,0-500.9-77.3-551.3-77.3c-25.7,0-56,28.1-79.6,55.6
		c159.9,185.2,369.7,352.3,559.3,312.8C1400.4,3637.3,1428.2,3614.8,1487.5,3580z"/>
	<path class="st12" d="M1337.9,2360c0,0,43.1-29.2,73.6,65.8c30.5,95-25.8,608.9,216.4,652.7c-158.8,110.9-322.6,94.6-296.1-61.1
		C1358.3,2861.7,1337.9,2360,1337.9,2360z"/>
	<path class="st8" d="M1573.8,3482.9c-45.7-42.8-97.1-77.1-157-88.5c-99.9-17.1-197,0-296.9-8.6c-5.7,0-11.4-8.6-17.1-8.6
		c-119.9,0-208.4-108.5-174.2-222.7c8.6-22.8,0-48.5,14.3-65.7c2.9-4.3,4.5-8.3,5.5-12l-94.8,7.7c0,0-61,37.6-37.7,163.8
		c23.4,126.2,180.4,277.7,473.5,218.7c46.9,46.9,97.2,169.5,97.2,169.5c34.6-21.1,126.9-73.6,220.7-117.3
		C1597.5,3506.5,1586.5,3494.3,1573.8,3482.9z"/>
	<path class="st13" d="M1904.5,3408.6c-34.4-111-92.8-263.4-159.5-287.3c-106.9-38.4-376.2-78.4-376.2-78.4l-420.5,34.1
		c-1,3.7-2.6,7.7-5.5,12c-14.3,17.1-5.7,42.8-14.3,65.7c-34.3,114.2,54.2,222.7,174.2,222.7c5.7,0,11.4,8.6,17.1,8.6
		c99.9,8.6,197-8.6,296.9,8.6c60,11.4,111.3,45.7,157,88.5c12.7,11.3,23.7,23.5,33.4,36.4c26.2-12.2,52.5-23.8,77.7-33.7
		C1757.7,3456.8,1831.9,3427.3,1904.5,3408.6z"/>
	<g>
		<path class="st14" d="M2143.6,2782.7c-28.7-64.3-139.1-355.5-158.9-413.5c-19.8-58-65.7-49.4-65.7-49.4l12.9,361.2v0
			c0,0,89.6,238.8,143.8,236.2c17.4-0.8,33.5-8.3,46.4-20.2C2149.8,2871.7,2163.1,2826.5,2143.6,2782.7z"/>
		<path class="st15" d="M1981.5,2537.1c-3.4-81.9-35.3-116.3-55.9-130.1l9.8,273.9v0c0,0,59,157.4,110.3,215.2
			c11.3-4.9,17.1-11.4,10.5-19.8C2034.1,2848.2,1986.6,2659.2,1981.5,2537.1z"/>
		<path class="st14" d="M1593.8,2537.9c37.1,5.7,62.8,28.6,74.2,57.1c34.3,94.2,157,117.1,231.3,77.1c32.4-18.5,53.2-47.9,66.3-81.4
			c-1.3-127.2-11.1-259.8-45.5-284.6c-69.2-49.9-189.3-39.7-303.3-7.1c-114,32.6-127.2,142.5-127.2,142.5s0,0,0,120.5
			C1519.2,2542.5,1552.9,2531.1,1593.8,2537.9z"/>
		<path class="st16" d="M1642.3,2281.7c0,0,149.8,194.7,159.3,264.2c11.3-22.7,16.4-99.4,21.6-119.2c5.2-19.8,45.9-155.1,45.9-155.1
			S1719.8,2257.3,1642.3,2281.7z"/>
		<path class="st17" d="M1899.3,2672.1c-74.2,40-197,17.1-231.3-77.1c-11.4-28.6-37.1-51.4-74.2-57.1c-40.8-6.8-74.6,4.6-104.2,24.1
			c0,9.7,0,20.1,0,31.4c0,30.8,0,67.9,0,112.5c0,264.5,156.7,360.4,156.7,360.4l291-83.7l21.9-139.7c0,0,1.9-30.1,3.6-76
			c1.8-47.1,3.4-111,2.8-176.2C1952.4,2624.2,1931.7,2653.6,1899.3,2672.1z"/>
		<path class="st18" d="M1830.8,2269.8c0,0-11.7-52.2-7.5-73.3c52.3,4.1,102.5-29.9,114.1-109.9c11.5-80.1,0-117.4,0-117.4
			s-55.6-77.8-147.2-42.3c-91.6,35.5-116,70.8-102.4,131.2c13.6,60.4,26.5,106.5,26.5,106.5s-25.1,68.5-42.1,88.9
			c42.1,72.6,79.4,89,104.5,83.5C1801.6,2331.6,1851.2,2340.4,1830.8,2269.8z"/>
		<path class="st19" d="M1773.5,2164.7c1.5,1,20.2,24.1,49.8,31.9c0,21-1,23.7,2.1,42.5c-30.5-9.3-54.9-41.9-48.8-74.7"/>
		<path class="st13" d="M1708.9,2164.1c0,0-0.8-0.4-2.2-1.3c-8.1-5.1-35.7-25.1-34.4-63.3c1.5-44.8-20.4-80.4-4.6-103.8
			c15.8-23.4-15.1-69.7,15.6-96.7c30.7-27,113.2-56.5,181.9-44.8c68.7,11.7,130.3,53.4,118,112.5c-15.8,29-40.7,28.5-67.7,14.8
			c-27-13.7-66.7-36.1-66.7-36.1s-4.6,18.3-19.8,32.6s-41.2,75.8-50.4,70c-9.2-5.9-18.3-39.5-35.1-40c-16.8-0.5-32.1,16.8-31,40
			c1,23.2,34.1,38.4,34.1,38.4s-7.6,63.6-18.8,72.3C1716.5,2167.2,1708.9,2164.1,1708.9,2164.1z"/>
		<path class="st14" d="M1705.1,2817.7c93.2,15.9,184.1-17.7,269.3-52c-2-20.3-8.8-28.4-8.8-40.9c-96.5,55.1-214.5,49.4-250.8,81.9
			c-13.4-46.7-64.9-176.5-86.9-218.1c-4.6,42.1,5.6,70.4,21.1,123.5C1657.7,2752.2,1662.3,2809.1,1705.1,2817.7z"/>
		<path class="st14" d="M1974.5,2765.7c-85.2,34.3-176.1,67.9-269.3,52c-42.8-8.6-65.5-152.1-74.1-183.4
			c-3.1-23.6-3.1-45.6-3.1-45.6v-291.4c0,0-97.8,27.3-151.4,71.2c-16.6,13.6-29,28.8-32.8,45.2c-16.3,69.5-6.8,396.4,92.1,503.5
			c90.6,98.1,404.3-54.1,456.4-80.4c4.8-2.4,7.4-3.8,7.4-3.8S1991.2,2796.1,1974.5,2765.7z"/>
		<path class="st17" d="M1999.7,2832.9c0,0-6.5-28.1-19.3-55.4c-86.7,49.3-248,101.5-338.1,98.8c-118.9-3.6-152.8-313-160.3-420.6
			c-6.2-88.2,105.4-128.4,145.9-140.1v-17c0,0-5.9,1.3-15.8,3.6c-29.9,9.7-95.3,33.3-135.6,66.3c-16.6,13.6-29,28.8-32.8,45.2
			c-16.3,69.5-6.8,396.4,92.1,503.5c90.6,98.1,404.3-54.1,456.4-80.4C1997.1,2834.3,1999.7,2832.9,1999.7,2832.9z"/>
		<path class="st15" d="M1661.8,2250.8c0,0-90.2,25.1-90.2,40.7c0,15.6,59,29.5,108.5,64.3c49.5,34.8,2,80.9,44.1,101.9
			c42.1,21,68.5,53.6,77.3,88.2C1787.4,2475.4,1737.8,2288.1,1661.8,2250.8z"/>
		<path class="st15" d="M1845.1,2237.2c0,0-64.8,93.6-37.8,299.9c10-32.6,60.2-90.2,40.5-128.5c-3.4-35.6,33.2-31.6,33.2-31.6
			s4.1-94.1,26.5-105.4C1929.9,2260.3,1845.1,2237.2,1845.1,2237.2z"/>
		<path class="st20" d="M1374.2,3109.7c-62.7,58-122.1,42.1-122.1,42.1s-354.1,43.4-405.7-35.3c-51.6-78.7-6.3-259.4,16.3-327
			c1.8-5.3,17.4-88.2,51.3-182.5c4.6,65.4,26.3,187.5,123.7,186.5c133-1.3,188.6-289,143.8-347.3c-44.8-58.3-69.1-86.2-116.6-83.1
			c14.8-11.4,30.6-20.6,47.3-27c0,0,0,0,0,0c1.4,0.3,53.1,10,106.6,76.9c54.3,67.8,91.6,72.2,91.6,72.2s59.5-92.5,3.3-153.6
			c55,21.4,68.4,70.7,80.9,140.4C1414.9,2586,1436.9,3051.6,1374.2,3109.7z"/>
		<path class="st16" d="M1310.4,2485.2c0,0-37.3-4.4-91.6-72.2c-53.5-66.9-105.2-76.7-106.6-76.9c11.3-4.4,23.1-7.5,35.3-9.3
			c79.2-11.1,131.1-8.8,166.1,4.8C1369.9,2392.7,1310.4,2485.2,1310.4,2485.2z"/>
		<path class="st16" d="M1037.7,2793.6c-97.5,1-119.1-121.2-123.7-186.5c32.3-90.1,81.4-190.7,150.9-243.9h0
			c47.5-3.1,71.9,24.8,116.6,83.1C1226.3,2504.6,1170.7,2792.2,1037.7,2793.6z"/>
		<path class="st18" d="M1189.3,2183c0,0-11,129.2-33.4,148.7c62.1,58.7,126.5,95.1,126.5,95.1s24.4-36.1,31-53.4
			c-17.3-9.7-14.5-68.7-5.3-110.9c39.2,8.6,110.1,1.3,106.7-71.9c-3.4-73.3,20.4-187.2-21.7-216.4c-42.1-29.2-145.9-27.1-194.7,33.9
			C1149.7,2069,1138.1,2141.6,1189.3,2183z"/>
		<path class="st19" d="M1241.2,2237.2c0,0,43,22.3,66.9,25.1c-10,40-7.3,65-7.3,65S1227,2282.7,1241.2,2237.2z"/>
		<path class="st13" d="M1206.6,2201.8c0,0-39.7-19.3-60-52.4c-20.4-33.1-35.6-94.6-14.2-146c21.4-51.4,75-109.4,159.8-109.4
			c84.8,0,160.1,14.8,152.6,153.9c-26.2,8.9-64.3-32.5-66.3-57.6c-19.1,57.6-89,61-110,70.5c0.7,27.1-17.6,28.8-17.6,28.8
			s2.7,38.4-18.3,35.6c-21-2.7,2.7-39.3-25.8-39.3c-28.5,0-36,12.2-34.6,31.2s27.1,54.3,38.7,56.3
			C1222.3,2175.5,1206.6,2201.8,1206.6,2201.8z"/>
		<path class="st13" d="M1154.4,1998.4c0,0-55-66.5-114.7-27.8c-59.7,38.7-40,167.6-2,212.3c38,44.8,8.1,83.4,23.1,105.8
			s48.2-6.8,48.2-6.8c14.9,12.2,40.7,19.7,59,7.5c-4.1-12.2-19.7-39.3-19.7-39.3s8.1-4.1,16.3-10.2c-30.5-27.8-25.6-87.6-4.5-92.9
			C1145.6,2087.3,1154.4,1998.4,1154.4,1998.4z"/>
	</g>
	<path class="st21" d="M3681.7,3269.8h-2644l1839.9-685.7h815.2C3748.5,2815.1,3754.6,3067.2,3681.7,3269.8z"/>
	<path class="st22" d="M2748.5,2632.3c0,0,825.2-65,721.4,241c-103.8,306-1760.1,503.4-1937.9,212.4
		C2334.2,2776.3,2748.5,2632.3,2748.5,2632.3z"/>
	<path class="st19" d="M2175.4,2342.5c-27,12.4-47.1,42.5-50.6,72.6c-20,114.2,14.3,217,34.3,331.2c11.4,48.5,14.3,108.5-34.3,125.6
		c-27.4,9.1-65.6,0-84.3-22.9c0,0.6,0,1.2,0,1.7c0.7,49.6,15.3,94.2,67.8,78.5c81.5-24.4,84.1-53.3,66.4-158.9
		c-17.7-105.7-48.1-275.1-38.1-323.9C2144.8,2406.9,2171.3,2368,2175.4,2342.5z"/>
	<path class="st18" d="M2124.8,2872c48.5-17.1,45.7-77.1,34.3-125.6c-20-114.2-54.2-217-34.3-331.2c3.5-30.1,23.6-60.3,50.6-72.6
		c1-6,0.7-11.2-1.3-15.6c-10.6-22.9-38.1-80.7-51.1-75.8c-13,4.8-53.4,34.3-61.4,47.3c-1.7,2.7-3.4,6.1-5,9.7
		c-5.9,13.5-10.4,31.1-8,37.9c3,8.6,27.2,4.4,24.8,9.5c-2.4,5.1-44.6,75.2-15.8,89.4c17,8.4,14.4,35.3,14.4,35.3
		s-12.4,233.4-23.9,292.9c-4,20.7-7.8,49-7.6,75.9C2059.2,2872,2097.5,2881.1,2124.8,2872z"/>
	<path class="st5" d="M3681.7,3269.8c-9.1,25.2-19.4,49.7-31,73.3h-2613v-73.3H3681.7z"/>
	<g>
		<polygon class="st23" points="1887.5,3000.1 2223.3,3047 2218.2,3085.6 1897.6,3040.5 		"/>
		<polygon class="st9" points="2346.5,2838.4 1887.5,3000.1 2223.3,3047 2664.7,2880.1 		"/>
		<polygon class="st13" points="2052.7,3001 2441.4,2864 2594.7,2888.2 2221.3,3029.4 		"/>
		<polygon class="st9" points="2218.2,3085.6 2648.7,2910.6 2664.7,2880.1 2223.3,3047 		"/>
		<polygon class="st23" points="2295.5,2574.4 2750.1,2422.8 2770.4,2432.6 2657.8,2865.2 2238.5,3040.5 2218.2,3030.7 		"/>
		<polygon class="st24" points="2315.9,2584.1 2770.4,2432.6 2678.2,2875 2238.5,3040.5 		"/>
		<path class="st20" d="M2481.7,2731.7c0,0,21.7-42,48.9-25.8c27.1,16.3,17.6,33.2,1,25.8c-16.6-7.5-61.1,2.2-27.1,18.5
			s55.9,18,0,29.2C2468.8,2786.5,2481.7,2731.7,2481.7,2731.7z"/>
	</g>
	<path class="st16" d="M1071.3,2639.9c0,0,273.7,349.1,382.6,360.2c108.9,11.2,383-10.5,406-22.7c23.1-12.2,24.4-102.4-21.7-102.4
		c-3.5,0-8.1,0.1-13.7,0.3c-68.2,2.7-279.9,19.5-318.8-3.1c-42.1-24.4-256.9-295.2-314.3-404c-36.9-55.9-71-68.2-113.1-54.6"/>
	<path class="st25" d="M1514,2972.7c-134.3-4.1-287.7-206.2-359.6-280.9c-34.5-35.8-58.7-43.2-74.6-41.2
		c47,58.7,276.6,339.5,374.1,349.5c108.9,11.2,383-10.5,406-22.7c8.1-4.3,13.5-18.3,15.2-34.6
		C1863.5,2944.5,1644.7,2976.6,1514,2972.7z"/>
	<path class="st26" d="M1827.4,2883.8c0,0-48.8-1.6-50.2,58.9c-1.4,60.5,47.8,41.9,67,26.6C1863.4,2954,1867.4,2883.5,1827.4,2883.8
		z"/>
	<path class="st19" d="M2013.5,2923.3c-8.6-11.4-28.6-11.4-42.8-8.6c-59.2,18-120.7,29.1-182.4,35.2c2.2,7.7,6.9,15,14.8,21.1
		c0,0,40.9-13.7,61.1-7.3c42.6,13.6,75-5.8,94-14.9c19-9.2,26.5-11.5,35.3-3.4c8.8,8.1,56.3,47.2,79.4,45.8c5.6-0.3,11.6-2,17.5-4.5
		C2063.3,2968.7,2038.4,2946.8,2013.5,2923.3z"/>
	<path class="st18" d="M2013.5,2923.3c24.9,23.4,49.8,45.4,76.7,63.5c18.6-7.8,36.4-23.5,37.1-29.4c1-7.8-66.8-79.4-96.8-98.2
		c-30-18.8-45.8-23.4-82.6-2.5c-36.8,20.9-106.1,28-106.1,28c-35.6,4.8-61.3,37.7-53.4,65.4c61.7-6.2,123.2-17.2,182.4-35.2
		C1984.9,2911.9,2004.9,2911.9,2013.5,2923.3z"/>
	<g>
		<path class="st27" d="M2527.4,3593.1c0,0-116.6-64.1-13.5-122.4c103.1-58.3,204.9,54.3,204.9,54.3s-200.8-359.6,0-441
			c200.8-81.4,297.2,166.9,297.2,166.9s-88.2-309.4,130.3-336.5c92.3-9.5,123.5,141.1,123.5,141.1s61.1-442.3,284.9-407
			c223.9,35.3-112.6,558.3-112.6,558.3s146.5-118.6,189.5-18.2c43,100.4-150.1,210.3-150.1,210.3s112.7-29,76.7,81.8
			C3507.6,3594.5,3030.1,3876.9,2527.4,3593.1z"/>
		<path class="st27" d="M3481.4,3398.7c0,0,112.7-29,76.7,81.8c-28.5,64.1-192.1,181.6-419.4,221.5v0
			c-38.2,6.7-78.1,11.2-119.5,12.9c-5.4,0.2-10.9,0.4-16.3,0.5c-146.1,3.3-309.3-28.7-475.4-122.4c0,0-116.6-64.1-13.4-122.4
			c101.8-57.6,202.4,51.5,204.8,54.2c-2.7-4.9-199.4-360.1,0.1-440.9c197.9-80.2,294.3,159.6,297.1,166.7
			c-2.3-8.4-85.1-309.5,130.3-336.3c92.3-9.5,123.5,141.1,123.5,141.1s61.1-442.3,284.9-407c223.9,35.3-112.6,558.3-112.6,558.3
			s146.4-118.6,189.5-18.2C3674.6,3288.8,3481.4,3398.7,3481.4,3398.7z"/>
		<path class="st28" d="M2826.5,3285.5c97.4,123.1,158.8,274.1,176.3,430"/>
		<path class="st28" d="M3019.1,3714.9c104-116.5,170.9-263.4,235.4-406.8c63.8-142,127.7-283.9,191.5-425.8"/>
		<path class="st28" d="M3110.1,3104.5c48.6,114.6,66.9,238.3,70,362.8"/>
		<path class="st28" d="M3527.1,3269.2c-99.1,68.9-187.5,109.8-308,116.9"/>
		<path class="st28" d="M2601.6,3565.8c24.8,19.7,53.1,34.8,77.2,55.4c24.1,20.6,60.5,37.9,87,67.8"/>
		<path class="st28" d="M3138.7,3702.1c65.2-83.5,156.6-146.6,258.2-176.8"/>
	</g>
	<linearGradient id="SVGID_5_" gradientUnits="userSpaceOnUse" x1="2558.2314" y1="1121.4069" x2="2466.6426" y2="3276.7954">
		<stop  offset="0" style="stop-color:#FFDE70"/>
		<stop  offset="1" style="stop-color:#FFFFFF"/>
	</linearGradient>
	<path class="st29" d="M1925.6,1298.7l-393.6,1787c0,0,537.1,254,1438,31.8c795.1-205.9,313.4-455.9,313.4-455.9
		s-197.8-701.2-211.2-728.5c-13.3-27.3-133.7-73.1-294.8-51.4c-62.6-236-57-583-57-583S2101.2,1224.4,1925.6,1298.7z"/>
	<linearGradient id="SVGID_6_" gradientUnits="userSpaceOnUse" x1="426.1212" y1="1756.3562" x2="676.7538" y2="1756.3562">
		<stop  offset="0" style="stop-color:#4085F0"/>
		<stop  offset="1" style="stop-color:#275DC9"/>
	</linearGradient>
	<circle class="st30" cx="551.4" cy="1756.4" r="125.3"/>
	<linearGradient id="SVGID_7_" gradientUnits="userSpaceOnUse" x1="154.2617" y1="3059.9956" x2="596.5168" y2="3059.9956">
		<stop  offset="0" style="stop-color:#68B2FC"/>
		<stop  offset="1" style="stop-color:#529BF7"/>
	</linearGradient>
	<circle class="st31" cx="375.4" cy="3060" r="221.1"/>
	<linearGradient id="SVGID_8_" gradientUnits="userSpaceOnUse" x1="2062.1594" y1="3745.5457" x2="2192.4282" y2="3745.5457">
		<stop  offset="0" style="stop-color:#4085F0"/>
		<stop  offset="1" style="stop-color:#275DC9"/>
	</linearGradient>
	<circle class="st32" cx="2127.3" cy="3745.5" r="65.1"/>
	<linearGradient id="SVGID_9_" gradientUnits="userSpaceOnUse" x1="2917.0781" y1="3702.064" x2="3192.136" y2="3702.064">
		<stop  offset="0" style="stop-color:#68B2FC"/>
		<stop  offset="1" style="stop-color:#529BF7"/>
	</linearGradient>
	<circle class="st33" cx="3054.6" cy="3702.1" r="137.5"/>
</g>
</svg>
