<?xml version="1.0" encoding="utf-8"?>
<!-- Generator: Adobe Illustrator 22.0.0, SVG Export Plug-In . SVG Version: 6.00 Build 0)  -->
<svg version="1.1" id="Layer_1" xmlns="http://www.w3.org/2000/svg" xmlns:xlink="http://www.w3.org/1999/xlink" x="0px" y="0px"
	 viewBox="0 0 4000 4000" style="enable-background:new 0 0 4000 4000;" xml:space="preserve">
<style type="text/css">
	.Graphic_x0020_Style_x0020_218{fill:#102140;}
	.Graphic_x0020_Style_x0020_85{fill:#1A1A1A;}
	.Graphic_x0020_Style_x0020_91{fill:#DB6767;}
	.Graphic_x0020_Style_x0020_88{fill:#D1334A;}
	.Graphic_x0020_Style_x0020_86{fill:#572658;}
	.Graphic_x0020_Style_x0020_206{fill:url(#SVGID_1_);}
	.Graphic_x0020_Style_x0020_207{fill:url(#SVGID_2_);}
	.Graphic_x0020_Style_x0020_84{fill:#FFFFFF;}
	
		.Graphic_x0020_Style_x0020_209{fill:none;stroke:#1A1A1A;stroke-width:2;stroke-linecap:round;stroke-linejoin:round;stroke-miterlimit:10;}
	.Graphic_x0020_Style_x0020_79{fill:#DBD2DB;}
	.Graphic_x0020_Style_x0020_83{fill:#3B546B;}
	.Graphic_x0020_Style_x0020_220{fill:#152A52;}
	.Graphic_x0020_Style_x0020_99{fill:#B080B0;}
	.Graphic_x0020_Style_x0020_39{fill:#EF5668;}
	.Graphic_x0020_Style_x0020_219{fill:#DB6767;}
	.Graphic_x0020_Style_x0020_89{fill:#EB485C;}
	.Graphic_x0020_Style_x0020_69{fill:#1A1A1A;}
	
		.Graphic_x0020_Style_x0020_27{fill:#1A1A1A;stroke:#1A1A1A;stroke-width:2;stroke-linecap:round;stroke-linejoin:round;stroke-miterlimit:10;}
	.Graphic_x0020_Style_x0020_40{fill:#DB6767;}
	.Graphic_x0020_Style_x0020_68{fill:#102140;}
	.Graphic_x0020_Style_x0020_80{fill:#FFB114;}
	.Graphic_x0020_Style_x0020_87{fill:#6584C6;}
	.Graphic_x0020_Style_x0020_216{fill:#1A1A1A;}
	.Graphic_x0020_Style_x0020_82{fill:#152A52;}
	.Graphic_x0020_Style_x0020_92{fill:#FC9590;}
	.Graphic_x0020_Style_x0020_78{fill:#FFDE70;}
	.Graphic_x0020_Style_x0020_42{fill:#FFCF4A;}
	
		.Graphic_x0020_Style_x0020_95{fill:none;stroke:#10663F;stroke-width:2;stroke-linecap:round;stroke-linejoin:round;stroke-miterlimit:10;}
	
		.Graphic_x0020_Style_x0020_33{fill:none;stroke:#FFFFFF;stroke-width:2;stroke-linecap:round;stroke-linejoin:round;stroke-miterlimit:10;}
	.Graphic_x0020_Style_x0020_43{fill:#00593B;}
	.Graphic_x0020_Style_x0020_212{fill:#FFFFFF;}
	.Graphic_x0020_Style_x0020_210{fill:#CCC4CC;}
	.Graphic_x0020_Style_x0020_211{fill:#FFDE70;}
	.st0{fill:#FFCF4A;}
	.st1{fill:url(#SVGID_3_);}
	.st2{fill:url(#SVGID_4_);}
	.st3{opacity:0.5;fill:#152A52;}
	.st4{fill:#127755;}
	.st5{fill:#339E7E;}
	.st6{fill:#FFFFFF;stroke:#1A1A1A;stroke-width:2;stroke-linecap:round;stroke-linejoin:round;stroke-miterlimit:10;}
	.st7{fill:#504650;}
	.st8{fill:#3C353C;}
	.st9{fill:#152A52;}
	.st10{fill:#445575;}
	.st11{fill:#FC9590;}
	.st12{fill:#102140;}
	.st13{fill:#DBD2DB;}
	.st14{fill:#FFFFFF;}
	.st15{fill:#1A1A1A;}
	.st16{fill:#3B546B;}
	.st17{fill:#D1334A;}
	.st18{fill:#EF5668;}
	.st19{fill:#B9B4B9;}
	.st20{fill:#545154;}
	.st21{fill:#691A25;}
	.st22{fill:#9E2738;}
	.st23{fill:#1A1A1A;stroke:#1A1A1A;stroke-width:2;stroke-linecap:round;stroke-linejoin:round;stroke-miterlimit:10;}
	.st24{fill:#DB6767;}
	.st25{fill:#340D13;}
	.st26{fill:url(#SVGID_5_);}
	.st27{fill:url(#SVGID_6_);}
	.st28{fill:url(#SVGID_7_);}
</style>
<linearGradient id="SVGID_1_" gradientUnits="userSpaceOnUse" x1="0" y1="0" x2="1" y2="0">
	<stop  offset="0" style="stop-color:#4085F0"/>
	<stop  offset="1" style="stop-color:#275DC9"/>
</linearGradient>
<linearGradient id="SVGID_2_" gradientUnits="userSpaceOnUse" x1="0" y1="0" x2="1" y2="0">
	<stop  offset="0" style="stop-color:#68B2FC"/>
	<stop  offset="1" style="stop-color:#529BF7"/>
</linearGradient>
<g>
	<rect x="3250.2" y="844.5" class="Graphic_x0020_Style_x0020_216" width="290" height="320.2"/>
	<path class="Graphic_x0020_Style_x0020_211" d="M3429.3,1069.6c-27.1,2.5-51.7-22.1-78.7-12.3c-34.4,9.8-56.6,34.4-88.6,54.1
		c-0.7,0.5-1.3,1.1-2,1.6v41.9h270.3V979c-15.9,10.8-32.5,21-49.4,31.5C3463.7,1022.8,3461.2,1064.6,3429.3,1069.6z"/>
	<path class="Graphic_x0020_Style_x0020_212" d="M3260,854.3v258.6c0.7-0.5,1.3-1,2-1.6c32-19.7,54.1-44.3,88.6-54.1
		c27.1-9.8,51.7,14.8,78.7,12.3c32-4.9,34.4-46.7,51.7-59c16.9-10.5,33.6-20.7,49.4-31.5V854.3H3260z"/>
	<rect x="160.5" y="822.3" class="Graphic_x0020_Style_x0020_216" width="260.2" height="345.2"/>
	<rect x="170.3" y="890.6" class="Graphic_x0020_Style_x0020_84" width="240.5" height="228.5"/>
	<rect x="170.3" y="832.1" class="Graphic_x0020_Style_x0020_210" width="240.5" height="58.4"/>
	<rect x="170.3" y="1119.1" class="Graphic_x0020_Style_x0020_210" width="240.5" height="38.5"/>
	<rect x="442.9" y="1173.9" class="Graphic_x0020_Style_x0020_216" width="260.2" height="350.1"/>
	<rect x="452.8" y="1183.7" class="Graphic_x0020_Style_x0020_42" width="43.8" height="52.8"/>
	<rect x="452.8" y="1236.6" class="Graphic_x0020_Style_x0020_212" width="43.8" height="277.6"/>
	<rect x="496.6" y="1236.6" class="st0" width="196.7" height="277.6"/>
	<rect x="496.6" y="1183.7" class="Graphic_x0020_Style_x0020_212" width="196.7" height="52.8"/>
	<linearGradient id="SVGID_3_" gradientUnits="userSpaceOnUse" x1="2126.4604" y1="1920.1039" x2="2126.4604" y2="2972.5139">
		<stop  offset="0" style="stop-color:#68B2FC"/>
		<stop  offset="1" style="stop-color:#EBF0F7"/>
	</linearGradient>
	<path class="st1" d="M331.8,3021.5c112-137.6,344-382.6,718.9-533c619.8-248.7,1179.6-58.3,1325.7-3.5
		c45.8-62.7,187.9-239.1,424.4-284.1c307.2-58.4,648.8,128.7,824.2,473.4c72.1-49.9,164.8-50.7,228-3.5
		c80.7,60.2,81.5,174.8,45.6,249c-41.4,85.6-128.6,111.5-143.8,115.7C2613.7,3030.9,1472.7,3026.2,331.8,3021.5z"/>
	<linearGradient id="SVGID_4_" gradientUnits="userSpaceOnUse" x1="37.1744" y1="3139.0244" x2="3810.136" y2="3139.0244">
		<stop  offset="0" style="stop-color:#68B2FC"/>
		<stop  offset="1" style="stop-color:#529BF7"/>
	</linearGradient>
	<path class="st2" d="M3810.1,3041.5c0-74-844.6-133.9-1886.5-133.9s-1886.5,60-1886.5,133.9c0,27.4,116.2,52.9,315.4,74.2
		c-29.9,15.9-45.8,32.5-45.8,49.7c0,113.3,693.6,205.1,1549.3,205.1s1549.3-91.8,1549.3-205.1c0-13.2-9.4-26.1-27.3-38.5
		C3648,3103.6,3810.1,3073.9,3810.1,3041.5z"/>
	<path class="st3" d="M1596.4,3059.6c-95.1,0-183.8,5.1-259.1,13.9c-54-40.1-246.8-69.8-476.4-69.8c-271.5,0-491.5,41.5-491.5,92.6
		c0,51.2,220.1,92.6,491.5,92.6c95.1,0,183.8-5.1,259.1-13.9c54,40.1,246.8,69.8,476.4,69.8c271.5,0,491.5-41.5,491.5-92.6
		C2087.9,3101.1,1867.9,3059.6,1596.4,3059.6z"/>
	<ellipse class="st3" cx="2793.5" cy="3197.7" rx="491.5" ry="92.6"/>
	<g>
		<path class="Graphic_x0020_Style_x0020_99" d="M3357.6,2296.4l-43.4,668.3c25.7-2,50.8-3.2,74,5.4c44.4,13.1,102.9,34.6,144.3,21
			l-14.5-694.7H3357.6z"/>
		<path class="Graphic_x0020_Style_x0020_84" d="M3403.6,2389c0,0-1,282-12.3,271.2c-11.3-10.7,1.3-289.4,6.2-287.3
			C3402.3,2375,3403.6,2389,3403.6,2389z"/>
		<path class="Graphic_x0020_Style_x0020_69" d="M3388.2,2970.1c-23.2-8.5-48.3-7.3-74-5.4l-6,92c76.9,15.1,152.1,18.9,225.8,11.6
			l-1.6-77.3C3491.1,3004.6,3432.6,2983.2,3388.2,2970.1z"/>
		<path class="Graphic_x0020_Style_x0020_86" d="M3517.9,2296.4l14.5,694.7c16.2-5.3,29.8-16,38.8-34.7c11.3-22.6,17.1-54.4,27-81.7
			l-37.5-578.2H3517.9z"/>
		<path class="Graphic_x0020_Style_x0020_69" d="M3532.5,2991.1l1.6,77.3c25.5-2.5,50.9-6.4,76-11.6l-11.8-182.1
			c-9.9,27.4-15.7,59.1-27,81.7C3562.2,2975,3548.7,2985.7,3532.5,2991.1z"/>
		<g>
			<g>
				<path class="Graphic_x0020_Style_x0020_43" d="M3531.7,2087.3c-8.1-64-14.9-118.2,14.9-142c1.8-1.4,20.1-15.6,42-10.3
					c22.1,5.3,32.1,26.5,33.6,29.9c-11-67.4,2.6-118.9,29-128c11.4-3.9,29.1-1.3,42,9.3c18.8,15.4,17.9,39.9,17.8,43
					c2.8-18.2,15.5-88.1,65.4-112.1c9.9-4.8,28.9-13.9,43.9-4.7c17.2,10.6,16,37.1,15.9,39.2c24.8-44.8,62.3-66.7,87.8-57.9
					c11.5,4,21.8,14.6,25.2,27.1c6.1,22.3-9.5,50.8-41.1,66.3c18.4-1,35.1,6.3,43,19.6c12.7,21.6-4.7,47.3-7.5,51.4
					c-17.5,25.8-55.3,36.4-96.2,29c33.5,26.7,49.2,59.2,40.2,81.3c-5.9,14.3-20.8,20.9-37.4,28c-16.9,7.2-51.2,18.5-100,11.2
					c29.9,15.8,50.1,38.1,47.6,57.9c-3.3,26.5-46,38-78.5,46.7c-23.7,6.4-130.7,35.2-171.9-17.7
					C3538.7,2143.2,3536.4,2124.5,3531.7,2087.3z"/>
				<path class="Graphic_x0020_Style_x0020_33" d="M3450.3,2180c23.2,13.3,52.7,8.8,77.2-2c45.9-20.2,80.4-59.5,109.2-100.6
					c28.7-41.1,53.4-85.3,87.3-122.2c32.1-34.9,71.5-62.2,106.4-94.3c26.3-24.2,50.1-51.2,70.9-80.3"/>
				<path class="Graphic_x0020_Style_x0020_33" d="M3580.4,2002.4c27.1,42.4,35.7,90.9,8.1,133"/>
				<path class="Graphic_x0020_Style_x0020_33" d="M3614,2108.3c35.1-17.9,104.8,12.6,141,7.3"/>
				<path class="Graphic_x0020_Style_x0020_33" d="M3668.3,2029.9c15.1-44.3,4.5-85.7,7.6-123.5"/>
				<path class="Graphic_x0020_Style_x0020_33" d="M3788.3,1820.7c-3.1,34.1-12,67.7-26.1,98.9"/>
				<path class="Graphic_x0020_Style_x0020_33" d="M3802.5,1885.4c32.3-11.9,68.5-12.7,101.3-2.1"/>
				<path class="Graphic_x0020_Style_x0020_33" d="M3694.6,1991.4c36.1-18,78.4-20.1,116.1-5.6"/>
			</g>
			<g>
				<path class="st4" d="M3482.6,2224.4c40-71.3,68.5-86,64.2-114.3c-2.7-17.7-17.5-36.5-36.2-38.7c-23.1-2.7-40.3,21.4-41.1,22.6
					c33.1-68.6,32.3-127.7,7.4-143.8c-11.8-7.7-35.4-9.8-54.5,1.1c-14.9,8.6-21.6,22-24.1,27.8c1.2-71.4-15-123.2-39.6-128.1
					c-9.6-1.9-27.3,2-38.5,14.9c-9.1,10.5-10.3,22.9-10.5,28c-10.7-43.7-43.5-66.6-66.6-61.1c-14.4,3.4-25.9,18-29.3,32.9
					c-4.8,20.8,5.7,43.6,26.7,55.6c-2.1-0.5-34-8.3-47.8,8c-15,17.8,1.4,52.5,20.6,70c19.1,17.4,42.6,19.1,50.9,19.3
					c-3.5-0.2-36.8-2-49.6,18.2c-17.6,27.8,20.6,70,23.1,72.6c35.2,38.1,90,34.4,101,33.4c-31.2,14.9-49.4,41.5-45.8,64.2
					c4.5,28.4,41.6,40.2,61.7,46.6c49.1,15.6,94.4,1.1,116.7-8.2C3473.6,2240.9,3477.5,2233.4,3482.6,2224.4z"/>
				<path class="Graphic_x0020_Style_x0020_95" d="M3252.6,1875.2c19,39,42.9,75.6,71,108.7c40.5,47.6,90.4,89.2,115.7,146.4
					c7.7,17.4,12.9,35.8,18,54.1c5.9,20.9,11.8,42.2,11.1,63.9c-0.6,20.1-8.5,28.1-18.3,45.7"/>
				<path class="Graphic_x0020_Style_x0020_95" d="M3461.3,2198.5c-1.9-2.4-45.1-28.2-103.6,10.5"/>
				<path class="Graphic_x0020_Style_x0020_95" d="M3388.9,2054.9c-18-11.5-41.2-9.9-62.4-6.8c-21.2,3-43.5,7-63.4-0.8"/>
				<path class="Graphic_x0020_Style_x0020_95" d="M3337.7,1998.9c-8.7-7.7-9.7-21.2-6.7-32.4c3.1-11.2,9.5-21.3,13.5-32.2
					c4.1-10.9,5.6-23.9-0.7-33.6"/>
				<path class="Graphic_x0020_Style_x0020_95" d="M3305.7,1961c-2.1-2.9-4.2-5.8-7.1-7.9c-4.3-3.1-9.8-4-15.1-4.4
					c-10.9-0.8-21.9,0.2-32.9-0.3c-10.9-0.5-22.2-2.7-31.1-9.1"/>
				<path class="Graphic_x0020_Style_x0020_95" d="M3428.5,2107.7c-2.9-8.2-5.8-16.5-6.6-25.1c-1.5-16.6,5-32.7,10.7-48.3
					c5.7-15.6,10.8-32.6,6.6-48.6"/>
				<path class="Graphic_x0020_Style_x0020_95" d="M3492.7,2117.7c-11.5,3.1-21.9,10.1-29,19.7c-7.1,9.6-10,22.9-9.7,34.8"/>
			</g>
			<g>
				<path class="st5" d="M3487.2,2359.7c70.9,57.4,81.6,91.5,113.5,92.1c19.9,0.4,43.4-12.4,49.3-32.5c7.4-24.9-15.9-48.3-17.1-49.4
					c69.2,49.3,134.2,59.5,156.7,35.3c10.6-11.5,17.5-37.1,9-60.1c-6.6-18-20.1-27.9-26.1-31.8c78.3,14.8,138.2,6.7,148.3-19.3
					c3.9-10.2,3-30.4-9.2-45.1c-9.9-12-23.2-15.6-28.8-16.8c50.1-3.6,81.4-35.3,79.8-61.7c-1-16.4-14.9-31.8-30.6-38.4
					c-21.9-9.2-49-1.9-66.2,18.8c1-2.2,15.6-35.8,0.2-54c-16.7-19.8-58-8.4-80.8,9.4c-22.7,17.7-29,43.2-30.8,52.3
					c0.9-3.8,9.1-40.1-10.7-57.9c-27.2-24.5-80.8,9.5-84.2,11.7c-48.5,31.6-54.7,92.4-55.7,104.7c-10.5-37.1-36.3-62.1-62-62.4
					c-32.1-0.4-52,38.1-62.9,59c-26.4,51-19,103.6-13,129.8C3470.8,2346.8,3478.3,2352.4,3487.2,2359.7z"/>
				<path class="Graphic_x0020_Style_x0020_95" d="M3914.5,2172.8c-46.5,13.5-91.2,32.9-132.8,57.5c-60,35.5-115.1,82.6-182.7,99.6
					c-20.6,5.2-41.8,7.4-62.9,9.6c-24.1,2.5-48.6,5-72.4,0.2c-22-4.5-18.8-15.4-36.3-29.4c0,0-11.7-31.6-32.1-13.2"/>
				<path class="Graphic_x0020_Style_x0020_95" d="M3521.2,2341.9c3-1.6,5.2-4.4,7-7.2c10.9-16.9,12.2-38.1,11.7-58.2
					c-0.5-20.1-2.2-40.7,3.8-59.9"/>
				<path class="Graphic_x0020_Style_x0020_95" d="M3691.2,2288.7c16-17.7,18.6-43.4,19.3-67.3c0.6-23.8,0.5-49.1,12.8-69.5"/>
				<path class="Graphic_x0020_Style_x0020_95" d="M3762.4,2243c10.1-8.1,25.2-6.7,36.9-1.2c11.8,5.5,21.6,14.4,32.8,20.9
					s25.2,10.7,37.1,5.5"/>
				<path class="Graphic_x0020_Style_x0020_95" d="M3810.1,2215c3.6-1.7,7.2-3.5,10-6.3c4.2-4.1,6.3-10,7.7-15.7
					c2.9-11.9,3.9-24.1,6.6-36c2.6-11.9,7.2-23.9,15.9-32.5"/>
				<path class="Graphic_x0020_Style_x0020_95" d="M3625.8,2322.2c9.5-1.6,19.2-3.3,28.8-2.5c18.5,1.5,34.9,11.7,51,20.9
					c16.1,9.2,33.8,18,52.2,16.4"/>
				<path class="Graphic_x0020_Style_x0020_95" d="M3602.6,2390.9c-1.2-13.2-7-26-16.2-35.6c-9.2-9.6-21.6-16.1-34.8-18"/>
			</g>
		</g>
	</g>
	<path class="st6" d="M897.2,2581.1c-10.4,1.1-20.7,2-30.9,2.7l-47.2-316.6l74.2,5.1L897.2,2581.1z"/>
	<path class="st6" d="M1564.2,2284l-14,150.7c-24.9,3.1-49.5,6.8-73.6,11l-24.1-161.8H1564.2z"/>
	<path class="st7" d="M2015.3,2209.9l33.2,824.1c5.1,1.6,10.1,1.2,15,0.5l-2.2-831.9L2015.3,2209.9z"/>
	<path class="st8" d="M2061.3,2202.5l2.2,831.9c6.8-1,13.4-2.7,20-0.5l5.2-835.9L2061.3,2202.5z"/>
	<g>
		<path class="Graphic_x0020_Style_x0020_42" d="M1769.5,1042c4.4,5.3,51.2,11.2,58.3,80.7s11.5,353,14.2,454.5
			c2.6,101.6-8.8,197.8-8.8,197.8l-86.6-190.8L1769.5,1042z"/>
		<path class="Graphic_x0020_Style_x0020_80" d="M1807.5,1107c-2.8-27.8-10.2-44.4-17.4-54.1c-7.4-4.7-13.9-7.1-17.7-9
			c-0.9,2.6-2.1,6.1-3.5,10.2l-21.1,498.5c-0.2,12.2-0.4,23.4-0.5,33.5l40.2,88.7c3.7-2,6.9-7,9.1-16.4
			C1807.8,1609.7,1813.7,1167,1807.5,1107z"/>
		<path class="Graphic_x0020_Style_x0020_27" d="M1392.1,2971.3c0,0-23.9,72.5-19.1,115.5c2.8,25.4,8.7,34.8,8.7,34.8
			s63.5,50.9,85.6,38.2c8.3-9.1,11-8.5,11-8.5s90.3,62.8,194.5,42.4c30.5-1.7-30.2-70.4-85.6-103.5c-51.8-30.9-65.7-84.8-65.7-84.8
			L1392.1,2971.3z"/>
		<path class="Graphic_x0020_Style_x0020_27" d="M1663.3,2981.8c0,0-30.3,94.2-26.6,137.2c3.8,43,3.8,43,3.8,43s72.8,18.4,95.6,5.3
			c7.9-14.9,7.9-14.9,7.9-14.9s82.4,55.2,190.3,34.2c31.6-1.8-22.7-55.2-79.3-81.5c-56.6-26.3-78.5-75.4-78.5-75.4L1663.3,2981.8z"
			/>
		<path class="st9" d="M1794.4,3023.3c-60.9,14.6-97.7-7.3-152.2-18c9.8-85-5.2-761.7-14.6-857c-4.9-49.8,30.9-100.7,16.7-146.2
			c-60.5-194-52.3-301.9-43-347.1c3.6-17.6,7.5-25.7,7.5-25.7l181,17.2c0,0,75.2,133.8,91.1,292.8
			C1890,2031.2,1818.7,2849.1,1794.4,3023.3z"/>
		<path class="Graphic_x0020_Style_x0020_218" d="M1596.4,1769.9c4.1,57.2,17.1,133.5,47.9,232.2c14.2,45.5-21.5,96.4-16.7,146.2
			c9.4,95.3,24.4,772,14.6,857c12.3,2.4,23.7,5.4,34.7,8.4c1.7-17.4,3.1-34.9,4-50.4c4-65.1,35.5-674,49.5-901.4
			C1741.9,1876.9,1636.2,1794.3,1596.4,1769.9z"/>
		<path class="Graphic_x0020_Style_x0020_220" d="M1706.5,1934.9c-4.5,59-17.3,133-34.2,211.3c-20.4,94.3-104.3,768.4-129,856.6
			c-71.8,6.3-105.6,0.7-166.6-16.4c1.7-7.8,31.3-585.7,33.8-603.5c30.9-216.7-38-383.3-33.6-541.6c4.8-171.3,59.7-212,59.7-212
			l164.8,25.7l79,12.3l4.4,13.3C1684.7,1680.6,1720.9,1744.2,1706.5,1934.9z"/>
		<path class="st9" d="M1706.5,1935c-4.5,59-17.3,133-34.3,211.3c-20.4,94.3-104.3,768.4-129,856.6c-56.1,4.9-89,2.6-130-6.9
			c-11.4-2.6-23.4-5.8-36.7-9.5c1.7-7.8,31.3-585.7,33.8-603.5c30.9-216.7-38-383.3-33.6-541.6c4.8-171.3,59.7-212,59.7-212l31,4.8
			l133.8,20.8l79,12.3l4.4,13.2C1684.7,1680.6,1720.9,1744.2,1706.5,1935z"/>
		<path class="Graphic_x0020_Style_x0020_218" d="M1436,1971.8c28.2,263.9,1.6,822.9-14.5,958.1c-3.2,26.7-5.9,48.5-8.2,66.1
			c-11.4-2.6-23.4-5.8-36.7-9.5c1.7-7.8,31.3-585.7,33.8-603.5c30.9-216.7-38-383.3-33.6-541.6c4.8-171.3,59.7-212,59.7-212l31,4.8
			C1445.3,1692.8,1418,1803.9,1436,1971.8z"/>
		<path class="Graphic_x0020_Style_x0020_216" d="M1692.7,1699.1c111-20.9,106.7-33.9,106.7-33.9l-9.4-23.6
			c0,0-353.7-22.2-353.7-21.6c0,0.6-9.1,19.2-9.1,19.2S1581.7,1720,1692.7,1699.1z"/>
		<path class="st10" d="M1448.2,1584.3c0,0-23.2,41.7-19.2,49.7c178.2,70.9,282.9,86.1,367.7,16.6c-7.5-42.2-13.2-43.7-13.2-43.7
			L1448.2,1584.3z"/>
		<polygon class="Graphic_x0020_Style_x0020_216" points="1673.8,1646.9 1667.7,1702.6 1733.7,1695.6 1731.4,1641 		"/>
		<path class="Graphic_x0020_Style_x0020_78" d="M1505.2,1547c77.8,59.5,196.8,89.2,276.8,22.9c4.2-3.4,8.1-7.1,11.6-11
			c11.8-151.9,21.5-460.8-10.9-513.8c-53-76.8-211.3-67.6-211.3-67.6s-153.7,9.9-168.3,166.9c-7.1,76.5,1.9,185.2,12.9,276.5
			C1439.7,1467.6,1461.6,1514.7,1505.2,1547z"/>
		<path class="Graphic_x0020_Style_x0020_80" d="M1782.1,1569.9c-80.1,66.4-199.1,36.6-276.8-22.9c-43.6-32.3-65.5-79.4-89.1-126
			c11.6,95.9,25.5,172.6,25.5,172.6s242.2,118.8,346.5,24.3c1.8-14.6,3.7-34.8,5.6-59C1790.2,1562.8,1786.3,1566.5,1782.1,1569.9z"
			/>
		<path class="Graphic_x0020_Style_x0020_42" d="M1796.8,1099.3c-67.4,74.5-196.3,18.7-196.3,18.7s1.2,13.2,29.5,115.5
			c24.8,89.4-175.1-55.4-226.3-93.6c-0.2,1.5-0.4,3-0.5,4.6c-1.7,18-2.4,37.7-2.5,58.5c41.6,55.9,142.3,183.6,236.1,243
			c71.3,45.1,129.5,0.7,165.5-43.9C1806.2,1292,1806.4,1170.5,1796.8,1099.3z"/>
		<path class="Graphic_x0020_Style_x0020_78" d="M1421.5,1140.1c0,0,155,282.6,255.9,281.7c75.8-0.7,170.3-174.9,235.9-269.3
			c-26.9-11.9-50.4-28.4-57.1-54.7c-16.5,15.1-32.9,29.2-47.1,39.6c-51.9,38-140.2,85.7-140.2,85.7s-64.5-84.8-85.7-120.1
			c-21.2-35.3-45-60.9-71.5-57.4"/>
		<path class="Graphic_x0020_Style_x0020_80" d="M1902,1147.1c-102.2,158.2-221,287.3-324.1,159.8
			c-62.1-76.8-111.6-119.5-141.9-141.6c40.8,69.2,159.1,257.2,241.4,256.5c75.8-0.7,170.3-174.9,235.9-269.3
			C1909.4,1150.8,1905.7,1149,1902,1147.1z"/>
		<path class="st11" d="M1810.1,703.8c-36.8-48-197.8-65.8-209.3,83c-2.4,30.8,9.1,60.9,27.7,87.2l-25.7,103.2
			c24.8,48,60.7,89.8,108.5,124.9l20.3-19.9l0.9-58.3l12.3-64.6c27.8,7.6,54.2,7.1,63.2-12.2
			C1830.1,899.4,1864.9,775.3,1810.1,703.8z"/>
		<g>
			<path class="Graphic_x0020_Style_x0020_40" d="M1645.7,887.7c6.1-31,2.9-97,13.9-93.4c11,3.7,22,31.4,22,31.4l17.5-5.7
				c0,0-9.4-48.9-2-49.9c7.3-1,73,16.9,117.4,6.7c8.4-1.9,15.9-3.6,22.6-5c-3.7-24.8-11.9-48.4-26.9-68
				c-36.8-48-197.8-65.8-209.3,83c-2.4,30.8,9.1,60.9,27.7,87.2l-8.4,33.6C1631.1,907.2,1642.7,902.9,1645.7,887.7z"/>
			<path class="st11" d="M1814.5,776.8c-44.4,10.2-110.1-7.7-117.4-6.7c-7.3,1,2,49.9,2,49.9l-17.5,5.7c0,0-11-27.7-22-31.4
				c-11-3.7-7.7,62.4-13.9,93.4c-3,15.2-14.6,19.5-25.6,20l-17.4,69.6c24.8,48,60.7,89.8,108.5,124.9l20.3-19.9l0.9-58.3l12.3-64.6
				c27.8,7.6,54.2,7.1,63.2-12.2c16.1-34.6,38.8-109.5,29.1-175.3C1830.4,773.2,1822.9,774.8,1814.5,776.8z"/>
		</g>
		<path class="Graphic_x0020_Style_x0020_91" d="M1690,925.2c0,0,37.6,37,54.7,34.1c-4.7,32.2-4.7,32.2-4.7,32.2
			S1693.3,960.7,1690,925.2z"/>
		<path class="st12" d="M1602.7,846c0,0,7.7,51.2,19.7,52.3s20.8-24.1,18.1-43.9c-2.6-19.9,13.2-82.6,24.3-70.7
			c11,11.9,18.5,34.9,18.5,34.9l11.5-2.4c0,0-12.8-42.2,0-50.2c12.8-7.9,160.2,29.6,170.9-28.7c8-33.6-16.8-90.1-16.8-90.1
			s-28.3,22.1-83.9,2.6c-55.6-19.4-110-2.2-108.6,32.2C1636.6,675.5,1557.4,736.5,1602.7,846z"/>
	</g>
	<g>
		<path class="Graphic_x0020_Style_x0020_40" d="M799,1131c-3.6,43.4,5.5,95.6,22,145c12.8,7.4,27.4,12.7,42.8,16
			c-17.9-60.9-26-125.5-28.6-187.6C816.5,1121,799.1,1129.9,799,1131z"/>
		<path class="st13" d="M912.7,1430.2c3.7-1.5,7.5-4.1,11.4-7.7c-27.1-39.5-46.6-84-60.3-130.6c-15.4-3.2-30-8.5-42.8-16
			C842.8,1341.5,877.6,1402,912.7,1430.2z"/>
		<path class="st11" d="M1059.9,876.7c0,0-4-50.2-62.1-44.5c-58.1,5.7-128.2,87.2-138.5,187.5c7.6,4.9,14.5,8.9,20.6,12.3
			c-5.6,31.5-25.8,55.8-44.6,72.3c2.5,62.1,10.6,126.7,28.6,187.6c44.8,9.4,96.7,1.1,133.8-24.2c13-43.3,24-90.8,31-136.5
			c-14.5-13.3-41.9-36.1-46.9-60.3c16.5,6.2,34.7,7.4,50.2-5C1071.8,1034,1059.9,876.7,1059.9,876.7z"/>
		<path class="st14" d="M863.8,1292c13.7,46.6,33.2,91,60.3,130.6c24.4-22.4,51.8-82.9,73.5-154.8
			C960.5,1293,908.6,1301.3,863.8,1292z"/>
		<path class="Graphic_x0020_Style_x0020_86" d="M695.3,2933.5c11.4-11.4,25.2,6.9,22.9,20.6c-4.2,69.5,43.9,127.3,105.1,146.8
			c-0.6-5.1-3.1-11.3-8.7-18.6c-19.7-25.6-37.5-63.7-37.3-95.3c0.1-9.4-1.8-24.3-4-42c-7-0.1-13.5-2-18.4-7.1
			c-37.4-37.3-52.9-86.5-61.3-137.9l-10.6,51.2l-42.9,118.4c0.9,0.4,1.8,0.6,2.6,0.6C665.6,2972.4,677,2947.2,695.3,2933.5z"/>
		<path class="Graphic_x0020_Style_x0020_85" d="M718.2,2954.1c2.3-13.7-11.4-32-22.9-20.6c-18.3,13.7-29.7,38.9-52.6,36.6
			c-0.8,0-1.6-0.2-2.6-0.6l-18.6,51.4l24.7,8.9c0,0,58-112.5,53.4-88.9c-4.6,23.6,15.8,127,57.8,152.5
			c42.1,25.5,57.6,26.4,57.6,26.4s9.9-6.2,8.3-19C762.1,3081.4,714,3023.6,718.2,2954.1z"/>
		<path class="Graphic_x0020_Style_x0020_92" d="M772,2806c15.9-56.7,114.4-325.3,114.4-325.3L807,2435c-2.9,5.8-5.4,11.7-6.4,18
			c-16,68.6-29.7,135-50.3,201.3c-25.3,77.8-29.2,159.9-26.3,241.7c8.2,15,18.4,29.1,31.1,41.8c4.9,5.1,11.4,7,18.4,7.1
			C768.2,2903.2,760.9,2845.8,772,2806z"/>
		<path class="Graphic_x0020_Style_x0020_40" d="M750.2,2654.4c20.6-66.4,34.3-132.7,50.3-201.3c1.1-6.3,3.6-12.2,6.4-18l-16.5-9.5
			l-96.9,374.4c5.6,34,14.3,66.9,30.3,96.2C721,2814.2,724.9,2732.1,750.2,2654.4z"/>
		<path class="Graphic_x0020_Style_x0020_86" d="M999.6,2990.7c0-2.3,6.9-13.7,13.7-9.2c34.3,29.7,41.2,77.8,82.4,103
			c25.7,16.5,57.3,21.2,86.5,14.2c-2.4-2.7-5.7-5.4-9.9-8.1c-27.2-17.3-57-47.1-67.5-77c-3.1-8.9-9.9-22.2-18.1-38.1
			c-6.6,2.3-13.4,2.8-19.7-0.4c-47.9-22.3-79.2-63.3-104.7-108.8l7.5,51.8v132.7c0.8-0.1,1.5-0.3,2.3-0.6
			C992.7,3036.4,990.4,3011.3,999.6,2990.7z"/>
		<path class="st15" d="M1095.7,3084.5c-41.2-25.2-48-73.2-82.4-103c-6.9-4.6-13.7,6.9-13.7,9.2c-9.2,20.6-6.9,45.8-27.5,59.5
			c-0.8,0.3-1.6,0.5-2.3,0.6v47.9h26.3c0,0,16.2-125.5,19.9-101.8c3.7,23.8,58.1,114.1,106.3,123.7c48.2,9.6,63.1,5.3,63.1,5.3
			s10-12.8-3.3-27.2C1153,3105.7,1121.4,3101,1095.7,3084.5z"/>
		<path class="Graphic_x0020_Style_x0020_40" d="M970,2473.2l-22.1-1.1l14.5,394.2c18.9,33.8,41.1,65.1,70.8,88.1
			c-17.2-31.4-28.7-65.7-33.6-98.7C984.4,2727.4,971.3,2601.2,970,2473.2z"/>
		<path class="Graphic_x0020_Style_x0020_92" d="M1086.7,2975.5c-19.1-37.4-45.5-89-48.6-130.2c-4.4-58.7,30.1-367.5,30.1-367.5
			l-98.3-4.7c1.3,128,14.4,254.2,29.6,382.5c4.9,33,16.3,67.3,33.6,98.7c10.3,8,21.5,15,33.8,20.7
			C1073.3,2978.3,1080.1,2977.8,1086.7,2975.5z"/>
		<path class="st12" d="M844,2091.5c-24.6-112.6-65.6-234.4-21.5-337.5c-47.7,16-90.3,40.3-90.3,40.3c-10.6,0.4-53.2,48.7,11,567.4
			c3.9,31.1-3.6,179.4,2.3,213.2c9.8,0.9,21,1.9,33.1,2.8C838.1,2422.2,880.5,2259.5,844,2091.5z"/>
		<path class="st9" d="M1144.5,1754.6l-219.9-14.3l-0.1,6.2c-25.7-12.1-65.3-4.7-101.9,7.6c-44.1,103.1-3.1,224.8,21.5,337.5
			c36.4,168-5.9,330.7-65.3,486.3c43.7,3.4,98.4,6,135.3,1.3c6.7-0.9,13.5-1.8,20.3-2.9c48.2-7.3,97.5-18.7,148.4-31.9
			c34.7-207.7,76.6-426.4,83.4-573.6C1172.5,1828.9,1144.5,1754.6,1144.5,1754.6z"/>
		<path class="Graphic_x0020_Style_x0020_85" d="M725.3,1827.6c41.9,36.7,141.3,3.1,191.6-49.9c0,0,17.8,18.9,62.7,27.8
			c55.1,11,141.8-0.3,165.5-25.7c0.3-11.9,4.3-36.9,4.3-36.9l-241.2-29.7L795,1756.9l-76.5,41.7L725.3,1827.6z"/>
		<path class="st14" d="M703.5,1480.6c-5.3-27.9-53.8-259.2-53.8-259.2s-125.6,169.3-76.6,370.8c4.3,17.7,20.6,11.4,27.8,29.7
			c25.6-51.4,41-76.7,76.3-122.3C675.9,1498.6,704.5,1481.6,703.5,1480.6z"/>
		<path class="Graphic_x0020_Style_x0020_82" d="M821.2,1112c0,0-185.8,98.1-171.6,109.3c14.9,11.8,79,532.9,65.6,582.9
			c-10,37.4,204.7,63.7,212.6-128.1s-10.6-252.8-33.8-282.6C870.9,1363.7,788.7,1208.1,821.2,1112z"/>
		<path class="st16" d="M831.3,1107.8l-72,23.2l44.2,95.2l-26.9,65.4c0,0,118.5,145.1,134.4,133.6
			C871.6,1353.2,819.8,1183.3,831.3,1107.8z"/>
		<path class="Graphic_x0020_Style_x0020_40" d="M1177.2,1828l-7,2.6c1.1,17.7,2.3,35.4,3.4,53.1c0.9,14,1.8,28.1,5.4,41.6
			c3.3,12.6,8.9,24.6,16.5,35.3c0.6,0.8,1.4,1.6,2.3,1.4c0.6-0.2,0.9-0.7,1.2-1.2c2.8-5.4,2-11.6,0.6-17.7
			C1167.5,1921.7,1181.8,1866.6,1177.2,1828z"/>
		<path class="st11" d="M1235.3,1894.8c-8.5-25.5-21-51.1-20.8-80.3l-37.2,13.6c4.5,38.6-9.7,93.7,22.4,115
			c-0.5-2.2-1.1-4.5-1.6-6.6c-1.5-6.2-2.4-12.6-2.1-18.9c0.1-2.5,0.4-5.1,1.7-7.3c1.3-2.2,3.8-3.8,6.3-3.3c2.4,0.4,4.1,2.6,5.4,4.7
			c8.5,13.6,10.9,30.1,13.1,46.1c1.1,8.2,2.2,16.3,3.4,24.5C1249.7,1964.9,1245,1920,1235.3,1894.8z"/>
		<path class="Graphic_x0020_Style_x0020_92" d="M1246.1,1877.6c-4.3-11.1-10.9-21.1-16-31.8c-5.1-10.7-8.9-22.6-7.3-34.4l-8.4,3.1
			c-0.1,29.2,12.3,54.8,20.8,80.3c9.7,25.2,14.5,70.2-9.4,87.4c0.9,6.6,1.8,13.3,2.7,19.9c0.6,4.6,1.4,9.4,4.5,12.8
			c0.7,0.8,1.7,1.5,2.7,1.1c0.6-0.2,1-0.8,1.4-1.4c7.8-13.2,12.8-27.9,14.9-43c1-7.7,1.3-15.5,1.5-23.3
			C1254.2,1924.5,1254.8,1899.8,1246.1,1877.6z"/>
		<path class="st14" d="M1118.6,1175.9c0,0,90.1,9.1,83.5,139.9c-6.6,130.7,27.8,505.6,27.8,505.6l-67.6,17.2
			c0,0-74.2-209.7-80.8-331.4S1118.6,1175.9,1118.6,1175.9z"/>
		<path class="st13" d="M1185.8,1832.7c-2.9-14.2-8.9-33.1-15.5-54.6c-12.9-42-49.1-353-28.4-429.1c11.7-43.2-4.3-94.3,14.2-157.5
			c-19.3-13.7-37.4-15.6-37.4-15.6s-43.7,209.7-37.1,331.4c6.6,121.7,80.8,331.4,80.8,331.4L1185.8,1832.7z"/>
		<path class="Graphic_x0020_Style_x0020_82" d="M1017.9,1124.6c0.4-4.8,142.7,39.3,137.4,64.5c-5.3,25.2-84.4,372.7,7,551.6
			c14.6,17.2-13.2,41.1-90.1,47.7c-76.8,6.6-144.4,22.5-159-53c-14.6-75.5-2.3-308.2-2.3-308.2S1008.7,1235.9,1017.9,1124.6z"/>
		<path class="st16" d="M1008.1,1112c0.1-1.6,71.3,24.1,71.3,24.1l-39.7,62.7l21.8,75.5c0,0-152.5,131.2-152.5,197.1
			C902.4,1369.3,1004.7,1214.5,1008.1,1112z"/>
		<path class="st17" d="M1001.9,1434.9c-16-6.9-36.6-4.6-52.6,4.6c-38.1,23.3-80.2,21.1-120.7,38.8l-15.4,133.3
			c41.5-12.2,82.9-15.6,120-44c6.9-4.6,18.3-4.6,25.2-2.3c11.1,4,21.4,10.3,31.7,15.7l20.7-141.7
			C1007.9,1437.7,1004.9,1436.3,1001.9,1434.9z"/>
		<path class="st18" d="M933.2,1567.6c-37.2,28.4-78.5,31.8-120,44l-2.5,21.9l169.6,15l9.8-67.5c-10.3-5.4-20.6-11.6-31.7-15.7
			C951.6,1563,940.1,1563,933.2,1567.6z"/>
		<path class="st18" d="M839.7,1381.9l-11.1,96.4c40.5-17.7,82.5-15.5,120.7-38.8c16-9.2,36.6-11.4,52.6-4.6c3,1.4,6,2.9,8.9,4.4
			l6.6-45.2L839.7,1381.9z"/>
		<path class="Graphic_x0020_Style_x0020_40" d="M846.1,1543c0,8.4,0.1,14.8,0.3,15.5c0.7,2,100.7-13.2,113.9-15.2
			c7.9-1.2,27.9,11.9,42.9,22.7c0.5-0.4,0.9-1,1.4-1.4C966.9,1518.5,901.2,1528.6,846.1,1543z"/>
		<path class="st11" d="M1022.3,1475.9c-12.8-10.3-29.3-16.6-47.4-16.5c-49,0.3-128.5,40.1-128.5,40.1s-0.3,26-0.3,43.5
			c55.1-14.5,120.8-24.5,158.5,21.5C1026,1543,1027.6,1505.1,1022.3,1475.9z"/>
		<path class="st14" d="M573,1592.2c2.6,12,20.8,43.6,38.4,48.4c69.6,18.9,265.7-78.3,265.7-78.3c6.7-28.9-1.8-54.8-20.3-78.6
			c0,0-121.3,46.4-163.8,14.3l-1.1-9l-2.7-22.3"/>
		<path class="st13" d="M598.1,1588.5c-61.3-91.5-1.4-258.5,38-346.7c-31,50.9-102,190.5-63.1,350.3c2.6,12,20.8,43.6,38.4,48.4
			c69.6,18.9,265.7-78.3,265.7-78.3c1.9-8.2,2.5-16.2,2.1-24C807.8,1569.1,637.9,1635.6,598.1,1588.5z"/>
		<path class="st12" d="M792.9,1152c0.4-2.3-19.4-49.4,0-79.4c-24.7,27.4-26.6,32.7-26.6,32.7s9.5-75.6,39.5-94.6
			c30-19,49.8-44.5,50.9-44.8c1.1-0.4,42.6,25.5,19,98.4C852.2,1137.2,792.9,1152,792.9,1152z"/>
		<path class="st12" d="M851.8,976.1c0,0,111.1,4.4,125.4-81.1c14.2-85.5,84.3-31.9,84.3-31.9s-23.9-73-113.4-65.5
			C858.7,804.9,819.9,894.2,851.8,976.1z"/>
		<path class="Graphic_x0020_Style_x0020_40" d="M934.4,1052c0,0,34.9,18.8,47.4,18.9c9.4,34.2,9.4,34.2,9.4,34.2
			S945.2,1098.7,934.4,1052z"/>
	</g>
	<path class="st7" d="M819.1,2267.2l39,884.6c5.4-0.3,12.9,0,20.4,0.2l-1.5-880.8L819.1,2267.2z"/>
	<path class="st8" d="M897.2,3151.9l-3.9-879.5l-16.2-1.1l1.5,880.8C885.5,3152.3,892.3,3152.4,897.2,3151.9z"/>
	<path class="st7" d="M1452.4,2284l38.9,1010.2c17.5-3.1,24.4-0.1,36.4,0.6l-6.1-1010.8H1452.4z"/>
	<path class="st8" d="M1521.6,2284l6.1,1010.8c4.5,0.3,9.8,0.2,16.6-0.6l19.8-1010.2H1521.6z"/>
	<polygon class="st19" points="754,2231.5 754,2277.2 1544.3,2303 1543.1,2257.3 	"/>
	<path class="st7" d="M2660.4,2199.8l-5.2,835.9c-9.1,6.9-19.1,10.1-31.5,6.2l-36.7-830.3L2660.4,2199.8z"/>
	<g>
		<polygon class="st13" points="2661.8,2167.9 1545,2257.3 754,2231.5 2067.4,2136.9 		"/>
		<polygon class="st20" points="2661.8,2213.6 2661.8,2167.9 1545,2257.3 1543.1,2257.3 1544.3,2303 1545,2303 		"/>
	</g>
	<g>
		<polygon class="Graphic_x0020_Style_x0020_87" points="832.2,2201 1234.4,2167.9 1230.5,2206.9 1090.7,2215.5 		"/>
		<path class="Graphic_x0020_Style_x0020_216" d="M835,2201c2.6-0.7,312.7,7.3,312.7,7.3v27.2l-312.7-9.6V2201z"/>
		<polygon class="Graphic_x0020_Style_x0020_220" points="1412.8,2190 1409.3,2209.3 1144.8,2235.5 1144.8,2208.3 		"/>
		<polygon class="Graphic_x0020_Style_x0020_87" points="1307.6,1898.3 1154.8,2225.5 1421.5,2201 1564.2,1895.6 		"/>
		<path class="Graphic_x0020_Style_x0020_80" d="M1389.2,2016.2c0,0-48.6,21.7-34.1,34.3c14.5,12.5,48.2,7.6,50.4,6
			S1389.2,2016.2,1389.2,2016.2z"/>
		<polygon class="Graphic_x0020_Style_x0020_83" points="1137.6,2222.2 1297.5,1887.4 1307.6,1898.3 1154.8,2225.5 		"/>
		<polygon class="Graphic_x0020_Style_x0020_68" points="1563.9,1895.3 1541.6,1887.4 1297.5,1887.4 1307.6,1898.3 		"/>
	</g>
	<path class="st11" d="M2025.2,1118c-0.7-2.6-39.1-31.1-62.9-41.1c-23.8-9.9-68.2-22.5-70.9-37.8c-2.6-15.2,3-72.2,14.4-79.5
		c11.4-7.3,84.9-12.5,100.2,3.4c15.2,15.9,68.7,119.2,68.7,119.2"/>
	<path class="st11" d="M1935.4,1029.9c39-1.8,76.7,3.3,115.1,6.8c-16.2-29.9-36.1-64.9-44.5-73.6c-15.2-15.9-88.8-10.6-100.2-3.4
		c-6.9,4.4-11.7,26.9-13.8,47.4C1906.5,1015.4,1920.9,1032,1935.4,1029.9z"/>
	<path class="Graphic_x0020_Style_x0020_91" d="M1935.4,1029.9c-14.5,2.1-28.9-14.5-43.4-22.8c-1.4,13.4-1.7,26-0.6,32.1
		c2.6,15.2,47,27.8,70.9,37.8c23.8,9.9,62.3,38.4,62.9,41.1l49.5-35.8c0,0-10.9-21-24.2-45.5
		C2012.1,1033.2,1974.4,1028.1,1935.4,1029.9z"/>
	<path class="st21" d="M1990.5,1092.3c0,0,55.8-15,64.8-32c-5.5-3.5-8.2-7-8.2-7l-70.1,29L1990.5,1092.3z"/>
	<path class="st11" d="M2003.4,943.8c-18.5-8.4-79.4-20.4-95.6-15.8c17.3,17.5,47.4,8,64.2,31c8.2,11.9,13.9,24.1,17.6,36.6l88,86.6
		C2077.5,1082.2,2025.2,953.7,2003.4,943.8z"/>
	<path class="st22" d="M1907.8,928c-3,0.8-4.4,2.2-3.8,4.3c4,13.5,45.7,24.1,45.7,24.1l39.8,39.2c-3.7-12.5-9.3-24.7-17.6-36.6
		C1955.2,936,1925.1,945.5,1907.8,928z"/>
	<path class="st11" d="M2041.3,937.5c-23.4,5.1-47.4,6.5-68.5,15.5l-23.2,14.8l-6.2,43.3c0,0-43.6,46.6-87.4,86.7
		c4.9,18.9,18.4,32.7,35.6,43.4c17.8-29.3,25.1-67.1,61.9-79.3c38.9-11.4,100.7,4.6,112.1-41.2
		C2073.8,990.5,2055.3,963.8,2041.3,937.5z"/>
	<path class="st21" d="M1907.8,1048c0,0,37.2,9.2,46.1-7.3c9-16.5,34.2-70.9,18.9-87.7c-21.4,15.8-21.4,15.8-21.4,15.8l-35.5,60.3
		L1907.8,1048z"/>
	<path class="Graphic_x0020_Style_x0020_91" d="M2037.6,930.2l-43.7,9.4l-21,13.4c21.1-9,45.1-10.4,68.5-15.5
		C2040,935.1,2038.8,932.7,2037.6,930.2z"/>
	<path class="Graphic_x0020_Style_x0020_40" d="M2043.3,929l-5.7,1.2c14,28.7,37,57.5,28.2,90.5c-11.4,45.8-73.2,29.7-112.1,41.2
		c-36.8,12.3-44.1,50-61.9,79.3c6.7,4.2,14,7.9,21.5,11.2c21.8-31.4,40.4-53.9,54.1-58.3c54.8-17.7,85.7-35.3,85.7-35.3l39.7-35.3
		L2043.3,929z"/>
	<path class="Graphic_x0020_Style_x0020_39" d="M2454.7,1235.8c46.5-31.6,79.7-71.5,104.1-118.2c-65.3,29.4-158.8,67.6-220.5,75.5
		c-103.3,13.2-254.4-137.8-254.4-137.8s-77.7,33.6-68,68c3.7,13.2,37.5,53.9,84.8,97.9C2219.8,1252.4,2342.6,1312.8,2454.7,1235.8z"
		/>
	<path class="Graphic_x0020_Style_x0020_89" d="M2558.8,1117.6c-24.4,46.7-57.6,86.7-104.1,118.2c-112.2,77-234.9,16.5-354-14.7
		c75.3,70.1,185,148.5,262.3,138c125.9-17.2,234.5-71.5,234.5-71.5l36.5-205.7C2634.1,1081.9,2602.8,1097.8,2558.8,1117.6z"/>
	<path class="Graphic_x0020_Style_x0020_88" d="M2612.7,1202.4c-38,26.9-99.1,67.1-182.7,112.6c-146.6,64-353.7-142.1-413.7-205.1
		c-1.4,4.4-1.6,8.9-0.3,13.4c9.7,34.2,221.3,253,347.1,235.8c125.9-17.2,234.5-71.5,234.5-71.5L2612.7,1202.4z"/>
	<path class="st17" d="M2516.8,1314.5c0,0,33.3-147.5,71-186.5c29-37.5,51.3-18.1,51.3-18.1s-40.8,177.9-40.8,180.7
		c0,2.7-37,15.2-37,15.2l-46.9,15.8L2516.8,1314.5z"/>
	<path class="Graphic_x0020_Style_x0020_27" d="M2706,3112.7c0,0-160.2,58.4-163.7,90c-3.5,31.6,147.9,17.5,213.9-8.2
		c5.3,11.7,5.3,11.7,5.3,11.7s73.6-12.3,79.5-19.9c9.4-47.9-7-97-18.7-102.9C2810.7,3077.7,2706,3112.7,2706,3112.7z"/>
	<path class="Graphic_x0020_Style_x0020_220" d="M2813.5,1867.8c-38.2,120.9-41.4,497.8-40.6,684.1c-4.8,1.1,54.1,532.7,54.1,532.7
		c5.2,24.4-116.1,71.3-154.3,32.9c-69.5-543.7-85.8-1369-85.8-1369l129.5-51.9l91.8-36.8l5.2-2.1c0,0,1.1,1,2.8,3.1
		C2826.2,1673.8,2857.6,1728.5,2813.5,1867.8z"/>
	<path class="Graphic_x0020_Style_x0020_218" d="M2827,3084.7c0,0-58.9-531.6-54.1-532.7c-0.7-148.8,1.2-419.2,21.5-583.7
		c-61.3-5.3-137.5,29-125.9,240c15.9,291.5,105.6,760.8,133.6,902C2818.3,3101.7,2828.6,3092.1,2827,3084.7z"/>
	<path class="st23" d="M2871.8,3101.3c0,0-22.8,69.3-33.3,93.8c-10.5,24.5-32.4,49.1-27.2,62.2c5.3,13.2,30.4,53.2,121.6-35.4
		c21.6-18.4,31.9-33.6,31.9-33.6l2.6,10.2c0,0,30.2-0.9,43.4-19.3c3.6-36.8-13.6-107-13.6-107L2871.8,3101.3z"/>
	<path class="st9" d="M3017.5,1934.1c-16.1,135.3-38.6,882.6-10.2,1147.1c-18,9.9-35.3,17-51.4,22c-50.1,15.9-88.1,12.6-98,14.4
		c-20.8-121-178.6-895.3-179.4-1061.6l40.9-408l88.9,12l7.9,1.1l95,12.8l50.6,6.8C2961.9,1680.6,3037,1770.7,3017.5,1934.1z"/>
	<path class="Graphic_x0020_Style_x0020_218" d="M3017.5,1934.1c-16.1,135.3-38.6,882.6-10.2,1147.1c-18,9.9-35.3,17-51.4,22
		c-8.9-85.1-22.1-284.1-0.4-613.9c24.6-373.6-25.4-706.7-44.3-815.6l50.6,6.8C2961.9,1680.6,3037,1770.7,3017.5,1934.1z"/>
	<path class="Graphic_x0020_Style_x0020_69" d="M2761.8,1736.5c68.2-9.1,153.8-19.4,205.2-67.4c-11.3-27.6-11.3-32.7-11.3-32.7
		l-381.6,57.4c0,0-1.2,13.4-0.8,28.6C2633,1742.7,2698.9,1744.8,2761.8,1736.5z"/>
	<path class="st10" d="M2761.8,1736.5c-63,8.3-128.9,6.2-188.5-14.1c0.4,16.4,2.7,34.8,10.5,40.3c15,10.6,361.2,10.6,390.4-76.4
		c-2.8-6.5-5.2-12.2-7.2-17.2C2915.6,1717,2830.1,1727.4,2761.8,1736.5z"/>
	<path class="Graphic_x0020_Style_x0020_39" d="M2789.7,985.5c-2.3,1.6-177,50.3-223.6,208.3c-21.8,73.9-46.7,462,11.6,511
		c58.3,49,385.5,11.9,385.5-64.9c0-76.8,79.5-522,25.2-569.7C2934.1,1022.6,2857.2,936.5,2789.7,985.5z"/>
	<path class="Graphic_x0020_Style_x0020_88" d="M2684,1727c116.4,1.6,279.2-32.8,279.2-87c0-23.3,7.3-80.4,16-150.1
		c-22.2,65.7-32.9,138.1-78.3,192.1C2829.8,1698.6,2756.8,1718.2,2684,1727z"/>
	<path class="Graphic_x0020_Style_x0020_89" d="M2998.1,1086.5c-4.2,130.5-32.9,257.3-122.4,357.5c-83.1,96.2-214.2,96.3-333.5,92.1
		c3.7,83.1,14.5,151.1,35.5,168.7c17.2,14.4,57.7,21.4,106.3,22.1c72.9-8.7,145.8-28.4,216.9-45c45.4-54,56.1-126.4,78.3-192.1
		C2997.1,1346.3,3020.7,1149.6,2998.1,1086.5z"/>
	<path class="st17" d="M2881,1210.1c0.5,1.6,73.4,188.1,73.4,243s19.5,79.5,19.5,79.5l11-106.1l-51.9-222.9L2881,1210.1z"/>
	<path class="st11" d="M2866.5,815.2c23.8-108.4-41.6-154.4-101.7-164.1c-60.1-9.7-123.3,34.2-135.1,71.3c0,0-46,221.9,9.7,232.7
		c10.5,2,24.4,2.2,40.1,0.3c5.2,39,0.1,91,1.5,121.9c-0.3,5.4,1.2,12.3,5.6,14.9c2.3,1.3,6.8-1.9,8.9-2.9
		c48.7-22.8,131-82.9,139.6-110.7c-4.9-26.9-12.2-60.7-10-90.3C2844.9,868.4,2860.1,844.2,2866.5,815.2z"/>
	<path class="Graphic_x0020_Style_x0020_91" d="M2825,888.2c20-19.8,35.2-44,41.5-73c23.8-108.4-41.6-154.4-101.7-164.1
		c-60.1-9.7-123.3,34.2-135.1,71.3c0,0-1.7,8.3-4.1,21.7c22.4,9.7,59,17.5,104.8-1c11.5-6,26.2-1.1,24,39.1
		c-2.2,40.2,12.5,48.9,29.4,41.9c16.9-7.1,29.7-13.1,32.9,2.2c3.3,15.2-28,55.5-18.3,71.2c9.8,15.8,18.5,19,18.5,19
		s-0.4,71-0.1,87.5c9.5-9.8,16.1-18.6,18.2-25.5C2830,951.6,2822.8,917.9,2825,888.2z"/>
	<path class="st24" d="M2740.2,936.1c0,0-44.9,18.2-60.8,19.4c1.1,23,1.2,27,1.2,27S2735.7,967,2740.2,936.1z"/>
	<path class="Graphic_x0020_Style_x0020_219" d="M3088.4,1852.1l-24.4,5.6c-22.4,43.3-19.3,97.3-21.3,144.5
		c-2.3,27.5-18.3,54.9-45.8,61.8c-7.7,2.1-17,3.3-26.2,3.1c-0.1,8.4,2.2,16.4,10.1,21.1c9.5,5.6,22.8,3.2,33.2-1.3
		c29.8-13,47.2-40.6,53.6-68.2c6.4-27.7,3.6-56.1,3.2-84.3C3070.4,1906.3,3072.8,1877.1,3088.4,1852.1z"/>
	<path class="st11" d="M2997,2064.1c27.5-6.9,43.5-34.3,45.8-61.8c2-47.2-1.1-101.2,21.3-144.5l-45,10.4
		c-22.6,37.8-77.9,115.4-59.8,148.7c7.5,13.1,22.5-34.9,30-37.3c-5.5,24.5-11,48.9-16.5,73.4c-1,4.5-1.9,9.5-1.9,14.3
		C2980,2067.4,2989.2,2066.2,2997,2064.1z"/>
	<path class="Graphic_x0020_Style_x0020_39" d="M2950.4,1035.8c0,0,109.5,77.7,136,231.4c32.9,190.5,86.1,339.6,11.9,636.3
		c-54.3,5.3-107.3-18.5-107.3-18.5s31.1-210.8-18-434.8c-39.4-179.4-99.5-232.9-99.5-232.9"/>
	<g>
		<path class="Graphic_x0020_Style_x0020_86" d="M2009,2032.7h-15.8c-22,45.2,2.6,115.4-14.3,164.1c-0.1,0.2-0.2,0.4-0.2,0.5
			c4.9,0.2,9.9,0.1,15-0.4c9.4-0.9,19-3,27.7-7.2c8.2-102.6,12.1-157.1,12.1-157.1H2009z"/>
		<path class="Graphic_x0020_Style_x0020_99" d="M1993.1,2032.7h-71.9l14.6,157.1c0,0,19.5,6.7,42.8,7.6c0.1-0.2,0.2-0.4,0.2-0.5
			C1995.7,2148,1971.1,2077.8,1993.1,2032.7z"/>
		<path class="Graphic_x0020_Style_x0020_220" d="M2033.4,2032.7c0,4.8-25.1,8.7-56.1,8.7s-56.1-3.9-56.1-8.7
			c0-4.8,25.1-8.7,56.1-8.7S2033.4,2027.8,2033.4,2032.7z"/>
	</g>
	<path class="Graphic_x0020_Style_x0020_85" d="M2846,810.3c-9.2-29.7-50.3-2.3-61.8-22.9c-11.4-20.6,9.2-68.6-20.6-73.2
		c-55.8-12.4-120.9,18.1-171.7-9.5c-0.7,2.1-1.1,4.1-1.3,6.2c0,0,74.3,58.9,128.1,23.1c53.8-35.9,42.9,71.1,42.9,71.1
		s15.4,19.9,19.9,12.2c4.5-7.7,50.6-23.1,38.4,24.3c-12.2,47.4-21.8,44.8-5.8,60.8c7.2,7.2,23.5-7.4,39.1-29.8
		c-1.9-2.1-3.5-4.5-4.9-7.3C2841.4,851.5,2852.8,828.6,2846,810.3z"/>
	<path class="st12" d="M2889.7,778.7c-1.9-47.4-17.9-104.9-99.9-139.2c-78.2-32.8-184.3,22.2-197.9,65.2
		c50.8,27.6,115.9-2.9,171.7,9.5c29.7,4.6,9.2,52.6,20.6,73.2c11.4,20.6,52.6-6.9,61.8,22.9c6.9,18.3-4.6,41.2,2.3,54.9
		c1.4,2.8,3.1,5.2,4.9,7.3C2872.5,844.7,2890.8,804.9,2889.7,778.7z"/>
	<path class="st25" d="M2687.6,1092.2l42.8-52.3c0,0,98.9-65.4,110-91.9c5.5,23.8,17.5,26.8,17.5,26.8S2791,1055.1,2687.6,1092.2z"
		/>
	<path class="Graphic_x0020_Style_x0020_88" d="M2764.5,1082.2c0,0-35.7-39.1-34-42.4c1.8-3.6,99.4-70.6,110-91.9
		c7.8,18.7,17.5,26.8,17.5,26.8S2786.3,1073.6,2764.5,1082.2z"/>
	<path class="st25" d="M2660.7,1043.4l-21.6,41.1c0,0,36.8-4.2,40.4-5.6c-15.9-38.6-7.7-25.3-7.7-25.3L2660.7,1043.4z"/>
	<path class="st17" d="M2683.2,1088.9l-28.2-45.5l29.5-21.2C2684.5,1022.2,2676.5,1073.4,2683.2,1088.9z"/>
	<path class="Graphic_x0020_Style_x0020_84" d="M1904.1,1138.2c-18.8-14.4-44-36.4-43.3-50.4c-21.7,13.9-24.4,11.9-24.4,11.9
		c0,1.7-16.6,46,16.6,72.5c3.3,2.7,6.4,5,9.3,7.2c8.6-1.4,17.1-4.2,25-7.7C1900.4,1166.2,1904.3,1152.9,1904.1,1138.2z"/>
	<path class="Graphic_x0020_Style_x0020_79" d="M1904.1,1138.2c0.3,14.7-3.7,27.9-16.8,33.5c-7.9,3.5-16.5,6.3-25,7.7
		c25.9,19.2,34.8,18.5,35.1,17.3c0.3-1.3,26.5-44.3,26.5-44.3S1915.1,1146.7,1904.1,1138.2z"/>
	<path class="Graphic_x0020_Style_x0020_83" d="M1585.4,980l17.4-32.7c0,0,100.8,121.7,101.6,132.5c0.9,10.8,6,22.3,6,22.3
		S1592.2,1021.3,1585.4,980z"/>
	<path class="st16" d="M1712.5,1101.3c0,0,16.8-11.8,13.9-27.7c8.8-26.1,14.1-85.7,14.1-85.7s2.4,20.1,1.8,32.7
		c-0.4,7.7,4.2,36.4-4.3,57.4C1732.7,1091.3,1712.5,1101.3,1712.5,1101.3z"/>
	<path class="st14" d="M1748.6,1002.6c-8.4-13.4-8-14.7-8-14.7c-9.9,18.9-13.5,49.5-14.1,85.7l19.7,11.3
		C1758.4,1063,1751.5,1028.9,1748.6,1002.6z"/>
	<path class="Graphic_x0020_Style_x0020_79" d="M1754.1,1011.1c-2.1-3.3-3.9-6.1-5.4-8.5c2.9,26.3,9.8,60.4-2.4,82.3l5.1,2.9
		C1751.3,1087.9,1758.5,1020,1754.1,1011.1z"/>
	<path class="Graphic_x0020_Style_x0020_84" d="M1683.9,1092.6l19.6-15.2c-20-38.4-56.9-83-100.8-130.1l-17.5,16.6
		C1586.7,1020.5,1634.6,1064.6,1683.9,1092.6z"/>
	<path class="Graphic_x0020_Style_x0020_79" d="M1585.2,964l-15.1,14.3c-4,32.5,108.4,118.6,108.4,118.6l5.4-4.2
		C1634.6,1064.6,1586.7,1020.5,1585.2,964z"/>
	<path class="Graphic_x0020_Style_x0020_209" d="M1491.3,1720.3c0,0-30.9,73.3-75.1,83"/>
	<path class="Graphic_x0020_Style_x0020_209" d="M1794.4,1702.6c0,0,18.7,42.2,36.5,49.5"/>
	<path class="Graphic_x0020_Style_x0020_209" d="M2774,1803.4c0,0,32.4,122.8,119.8,118.3"/>
	
		<ellipse transform="matrix(1.086374e-02 -0.9999 0.9999 1.086374e-02 -474.4909 4845.7485)" class="Graphic_x0020_Style_x0020_84" cx="2212.1" cy="2662.7" rx="41" ry="41"/>
	<linearGradient id="SVGID_5_" gradientUnits="userSpaceOnUse" x1="3614.0405" y1="1406.0068" x2="3842.7256" y2="1406.0068">
		<stop  offset="0" style="stop-color:#68B2FC"/>
		<stop  offset="1" style="stop-color:#529BF7"/>
	</linearGradient>
	<path class="st26" d="M3842.7,1406c0-63.1-51.2-114.3-114.3-114.3S3614,1342.9,3614,1406s51.2,114.3,114.3,114.3
		S3842.7,1469.2,3842.7,1406z"/>
	<linearGradient id="SVGID_6_" gradientUnits="userSpaceOnUse" x1="244.967" y1="2472.1423" x2="401.9089" y2="2472.1423">
		<stop  offset="0" style="stop-color:#4085F0"/>
		<stop  offset="1" style="stop-color:#275DC9"/>
	</linearGradient>
	<path class="st27" d="M401.9,2472.1c0-43.3-35.1-78.5-78.5-78.5s-78.5,35.1-78.5,78.5c0,43.3,35.1,78.5,78.5,78.5
		S401.9,2515.5,401.9,2472.1z"/>
	<linearGradient id="SVGID_7_" gradientUnits="userSpaceOnUse" x1="3377.541" y1="1605.9279" x2="3503.9604" y2="1605.9279">
		<stop  offset="0" style="stop-color:#4085F0"/>
		<stop  offset="1" style="stop-color:#275DC9"/>
	</linearGradient>
	<path class="st28" d="M3504,1605.9c0-34.9-28.3-63.2-63.2-63.2c-34.9,0-63.2,28.3-63.2,63.2c0,34.9,28.3,63.2,63.2,63.2
		C3475.7,1669.1,3504,1640.8,3504,1605.9z"/>
	<rect x="228.3" y="976.1" class="Graphic_x0020_Style_x0020_86" width="129.8" height="10.6"/>
	<path class="Graphic_x0020_Style_x0020_88" d="M2976.1,1058.1c86.5,127.5,130.9,314.4,140.3,496.9c5.7,172.1-13,273.8-41.5,349.3
		c7.7,0.3,15.6,0.2,23.5-0.6c74.2-296.8,20.9-445.8-11.9-636.3C3068.1,1161.1,3010.2,1091.1,2976.1,1058.1z"/>
	<path class="st11" d="M1949.1,1018.5c9.8-15.7,26.3-51.6,10.6-65.8c-14.5-2.2-34.4,2.1-34.4,2.1c-42.4-0.8-36.3,64.1-36.5,77.1
		C1910.6,1041,1937,1038.7,1949.1,1018.5z"/>
	<path class="Graphic_x0020_Style_x0020_91" d="M1959.7,952.7c15.7,14.2-0.8,50.1-10.6,65.8c-12.1,20.2-38.5,22.6-60.3,13.4
		c0,0.4,0,0.7,0,1c-0.5,10.3,11,10.5,11,10.5s25.6,6.8,41.5,1.9c15.9-5,33.6-60.4,33.2-80.7C1974.3,957.2,1967.9,953.9,1959.7,952.7
		z"/>
	<path class="st21" d="M1904.4,1050.6c0,0,0-6.1,4.6-5.3c-1.2,2.8-1.2,2.8-1.2,2.8l-3.1,3.1l-0.3-1"/>
	<path class="Graphic_x0020_Style_x0020_85" d="M1865.9,704.3c-2,4-3.8,9.6-5.3,17.4c-9,45.7-58.3,34.3-109.3,35.5
		c-51,1.2-64.8-11.4-84.8,7.3c-19.6-12.2-24.9,22.4-36.7,84.8c-4.3,22.8-11,32.3-17.6,35.2c2.9,7.6,6.4,13.4,10.3,13.7
		c12,1.1,20.8-24.1,18.1-43.9c-2.6-19.9,13.2-82.6,24.3-70.7c11,11.9,18.5,34.9,18.5,34.9l11.5-2.4c0,0-12.8-42.2,0-50.2
		c12.8-7.9,160.2,29.6,170.9-28.7C1868.1,727.6,1867.7,716,1865.9,704.3z"/>
	<path class="Graphic_x0020_Style_x0020_218" d="M2644.9,1735.8c0,0,2.3,35.6,10.1,36.5c7.7,0.8,49.1-1.4,49.1-1.4l-7.3-35.7
		L2644.9,1735.8z"/>
</g>
</svg>
