<?xml version="1.0" encoding="utf-8"?>
<!-- Generator: Adobe Illustrator 22.0.0, SVG Export Plug-In . SVG Version: 6.00 Build 0)  -->
<svg version="1.1" id="Layer_1" xmlns="http://www.w3.org/2000/svg" xmlns:xlink="http://www.w3.org/1999/xlink" x="0px" y="0px"
	 viewBox="0 0 4000 4000" style="enable-background:new 0 0 4000 4000;" xml:space="preserve">
<style type="text/css">
	.st0{fill:url(#SVGID_1_);}
	.st1{fill:url(#SVGID_2_);}
	.st2{fill:url(#SVGID_3_);}
	.st3{fill:url(#SVGID_4_);}
	.st4{fill:url(#SVGID_5_);}
	.st5{fill:#DBD2DB;}
	.st6{fill:#CCC4CC;}
	.st7{clip-path:url(#SVGID_6_);}
	.st8{fill:none;stroke:#855B87;stroke-linecap:round;stroke-linejoin:round;stroke-miterlimit:10;}
	.st9{fill:#8A848A;}
	.st10{fill:#3B546B;}
	.st11{fill:#1A1A1A;}
	.st12{fill:#102140;}
	.st13{fill:#FFDE70;}
	.st14{fill:#FFB114;}
	.st15{fill:#EB485C;}
	.st16{fill:#EF5668;}
	.st17{fill:#FC9590;}
	.st18{fill:#DB6767;}
	.st19{fill:#FFFFFF;}
	.st20{fill:url(#SVGID_7_);}
	.st21{fill:#572658;}
	.st22{fill:#6584C6;}
	.st23{fill:#4D73C6;}
	.st24{fill:#152A52;}
	.st25{fill:#2E2E2E;}
	.st26{fill:#912433;}
	.st27{fill:#127755;}
	.st28{fill:none;stroke:#3DBE88;stroke-width:2;stroke-linecap:round;stroke-linejoin:round;stroke-miterlimit:10;}
	.st29{fill:#339E7E;}
	.st30{fill:none;stroke:#10663F;stroke-width:2;stroke-linecap:round;stroke-linejoin:round;stroke-miterlimit:10;}
	.st31{fill:url(#SVGID_8_);}
	.st32{fill:url(#SVGID_9_);}
	.st33{fill:url(#SVGID_10_);}
	.st34{fill:url(#SVGID_11_);}
</style>
<g>
	<linearGradient id="SVGID_1_" gradientUnits="userSpaceOnUse" x1="516.2925" y1="1997.5875" x2="3516.7229" y2="1997.5875">
		<stop  offset="0" style="stop-color:#68B2FC"/>
		<stop  offset="1" style="stop-color:#529BF7"/>
	</linearGradient>
	<path class="st0" d="M730.4,2830.2c201,470,301.5,705,427.5,784.4c158.1,99.6,429.6,92.6,972.7,78.4
		c172.6-4.5,325.5-16.8,545.2,27.5c193.4,39,211.8,76.2,302,66.7c250.5-26.4,491.9-353.6,533.4-678.5
		c32.8-256.5-86.5-295.5-196.1-815.8c-38.1-181-93.5-443.8-82.4-768.7c17-497.9,170.3-567.5,90.2-784.4
		C3161.5,302.4,2408,231.4,2307.1,221.9c-222.6-21-624.3-58.8-839.3,188.3c-138.4,159-155.7,385.8-176.5,658.9
		c-25.9,340.2,48.5,363.2-7.8,502c-142.2,350.5-641.4,266.5-757,576.6C486.3,2255.3,567.2,2448.4,730.4,2830.2z"/>
	<linearGradient id="SVGID_2_" gradientUnits="userSpaceOnUse" x1="607.363" y1="3253.929" x2="3379.0337" y2="3253.929">
		<stop  offset="0" style="stop-color:#68B2FC"/>
		<stop  offset="1" style="stop-color:#EBF0F7"/>
	</linearGradient>
	<path class="st1" d="M607.4,2679.2c1.1,5.9,2.3,11.7,3.5,17.6c16.7,78.9,44,160.4,86.2,241.2c144.2,277.1,386.5,403.2,617.7,523.6
		c121.3,63.2,261.3,106.8,541.3,194.2c422.7,131.9,636.8,197.1,770.7,164.7c288.5-69.8,444.6-351.4,553-547.1
		c22.7-41,124.2-229.7,179.5-485.4c7.6-35.1,14.3-71.4,19.8-108.8H607.4z"/>
	<linearGradient id="SVGID_3_" gradientUnits="userSpaceOnUse" x1="1361.6637" y1="557.4311" x2="3076.4297" y2="557.4311">
		<stop  offset="0" style="stop-color:#68B2FC"/>
		<stop  offset="1" style="stop-color:#EBF0F7"/>
	</linearGradient>
	<path class="st2" d="M3060.2,900.5c-59.4-262-253-556-553-694.2C2150,41.7,1619.7,87.8,1440.3,390.6
		c-94.6,159.6-105.6,414.1-23.5,607.9c0.6,1.3,1.1,2.6,1.7,3.9h1658C3073.6,971.2,3068.6,937.6,3060.2,900.5z"/>
	<linearGradient id="SVGID_4_" gradientUnits="userSpaceOnUse" x1="2736.8962" y1="702.7289" x2="3006.7092" y2="702.7289">
		<stop  offset="0" style="stop-color:#68B2FC"/>
		<stop  offset="1" style="stop-color:#EBF0F7"/>
	</linearGradient>
	<path class="st3" d="M3006.7,736.4h-269.8l16.3-67.3h222.1c2.9,5.7,5.8,11.5,8.6,17.3c6.7,13.7,13,27.4,19,41.2
		C3004.2,730.5,3005.5,733.4,3006.7,736.4z"/>
	<linearGradient id="SVGID_5_" gradientUnits="userSpaceOnUse" x1="588.6227" y1="1840.798" x2="3395.4189" y2="1840.798">
		<stop  offset="0" style="stop-color:#4085F0"/>
		<stop  offset="1" style="stop-color:#275DC9"/>
	</linearGradient>
	<path class="st4" d="M3099.4,1535.8c-27.7-117.7-31.8-203.2-29.4-277.5c2.8-89.2,14.8-162.4,6.5-255.9h-1658
		c45.8,106.1,96,137.9,106.9,188.3c2.3,10.6,2.9,22.1,1.2,35.3c-20.8,170.1-344.9,157.4-615.8,423.6
		c-162.4,159.6-225,340.1-254.9,429.5c-20.1,60.1-104.2,311.4-48.5,600.1H3379c28.3-191.5,25.3-410.7-52.2-629.5
		C3248.2,1827.6,3161.4,1799.7,3099.4,1535.8z"/>
	<g>
		<path class="st5" d="M1962,1190.7v1506.1h-1351c-62.7-296,24.5-556.4,45-617.7c29.9-89.4,92.5-269.9,254.9-429.5
			c270.9-266.2,595-253.5,615.8-423.6c1.6-13.2,1.1-24.6-1.2-35.3H1962z"/>
		<path class="st6" d="M1962,1940.3c-64.9,17.8-145.6,27.1-186.3-18.8c-74.5-84.1-543.2-245.3-752.1,81.6
			c-125.5,196.5-298.8,255.2-417.1,270.8c-19.5,113.4-29.4,263,4.5,423h1351V1940.3z"/>
		<g>
			<defs>
				<path id="SVGID_18_" d="M1962,1190.7v1506.1h-1351c-62.7-296,24.5-556.4,45-617.7c29.9-89.4,92.5-269.9,254.9-429.5
					c270.9-266.2,595-253.5,615.8-423.6c1.6-13.2,1.1-24.6-1.2-35.3H1962z"/>
			</defs>
			<clipPath id="SVGID_6_">
				<use xlink:href="#SVGID_18_"  style="overflow:visible;"/>
			</clipPath>
			<g class="st7">
				<rect x="497" y="1258.4" class="st8" width="1412.6" height="1495.8"/>
				<line class="st8" x1="1570.1" y1="1258.4" x2="1570.1" y2="2756.2"/>
				<line class="st8" x1="1176.5" y1="1258.4" x2="1176.5" y2="2756.2"/>
				<line class="st8" x1="783" y1="1258.4" x2="783" y2="2756.2"/>
			</g>
		</g>
		<polygon class="st9" points="2028.6,1328 1962,1190.7 1962,2696.8 2028.6,2696.8 		"/>
		<path class="st10" d="M1617.8,1915L1617.8,1915c-8.1,0-14.7-6.6-14.7-14.7v-55.9c0-8.1,6.6-14.7,14.7-14.7l0,0
			c8.1,0,14.7,6.6,14.7,14.7v55.9C1632.5,1908.4,1625.9,1915,1617.8,1915z"/>
		<path class="st10" d="M1134.7,1915L1134.7,1915c-8.1,0-14.7-6.6-14.7-14.7v-55.9c0-8.1,6.6-14.7,14.7-14.7l0,0
			c8.1,0,14.7,6.6,14.7,14.7v55.9C1149.4,1908.4,1142.8,1915,1134.7,1915z"/>
	</g>
	<path class="st5" d="M3359.2,2788h-514.8V1258.4H3070c-2.3,74.3,1.8,159.8,29.4,277.5c62,263.8,148.8,291.8,227.5,513.8
		C3419.5,2311.2,3405.7,2573.2,3359.2,2788z"/>
	<g>
		<path class="st11" d="M2263.9,3159.1l-0.3,618.8c45.7,16.8,86.1,29.7,122.1,39.4l-61.9-663.7
			C2287.3,3156.5,2263.9,3159.1,2263.9,3159.1z"/>
		<path class="st12" d="M2747.4,3214.3c-6.9-84.5-295.8-70.9-423.6-60.7l61.9,663.7c206.1,55.5,266.1,5,325-24.4
			C2715,3611.6,2756.2,3322.9,2747.4,3214.3z"/>
		<path class="st13" d="M1820.6,2170.2c0,0-61.9-3.8-76.6,39.3c-14.7,43.1,7.2,104.9,51.3,125.5c44.1,20.6,282.4,289.3,478.5,52
			l143.2-355c0,0-113.7,130.4-167.7,164.7C2195.3,2231.1,2066.7,2332.9,1820.6,2170.2z"/>
		<path class="st14" d="M2082.6,2429.1c-98.5,15.5-273.8-122.3-342.7-180.5c3.3,35.3,23.6,71.5,55.4,86.4
			c44.1,20.6,282.4,289.3,478.5,52l54.8-136C2288.3,2296.4,2182.3,2413.4,2082.6,2429.1z"/>
		<path class="st13" d="M2694.8,1921.4c-22-17.3-55.4-25.5-119-3.6c-113.3,42.6-152,216.2-169,250.5c-14.2,28.7-70.1-1.7-88-12.3
			c11-36.1,22.4-68.9,34.1-98.5c71.9-183,270.6-219.6,270.6-219.6C2635.2,1837.9,2663.2,1871.5,2694.8,1921.4z"/>
		<path class="st15" d="M2691.2,2945.5c-8.3-2.8-16.5-11-22-13.8c-112.8-27.5-217.3-66-286.1-159.6c-22-30.3-46.8-52.3-60.5-82.5
			c-2.8-8.3,0-19.3-5.5-27.5c-39.8-65.6-57.7-137.2-63.8-211.4c-24,152.5-40.5,336.6-44.2,555.9c7.8,409.9,7.8,409.9,7.8,409.9
			s358.2,84.3,551.7-100c6.1-75.3,14-200.6,21-343.6c-4.4-0.8-8.7-1.7-13.1-2.6C2743.5,2962,2718.7,2956.5,2691.2,2945.5z"/>
		<path class="st16" d="M2642.5,2513.4c-91.2-30.4-198.3-181.9-199.1-235.3c22.6-189.3,70.1-261.8,103-300
			c32.8-38.2,101-47.1,117.7-44.6c11.2,1.7,40.9,22.2,59.1,35.4c-9.5-16.9-19.1-32.9-28.3-47.5c-22-17.3-55.4-25.5-119-3.6
			c-113.3,42.6-152,216.2-169,250.5c-14.2,28.7-70.1-1.7-88-12.3c-24.7,80.9-47.3,178.7-65.6,294.7c6.1,74.2,24,145.8,63.8,211.4
			c5.5,8.3,2.8,19.3,5.5,27.5c13.8,30.3,38.5,52.3,60.5,82.5c68.8,93.5,173.3,132,286.1,159.6c5.5,2.8,13.8,11,22,13.8
			c27.5,11,52.3,16.5,85.3,24.8c4.4,0.9,8.7,1.8,13.1,2.6c6.6-137,12.3-290.2,14.5-431C2785.9,2541.8,2719.8,2539.2,2642.5,2513.4z"
			/>
		<path class="st13" d="M2804.1,2541.9c-18.2-0.1-84.3-2.7-161.7-28.4c-91.2-30.4-198.3-181.9-199.1-235.3
			c22.6-189.3,70.1-261.8,103-300c32.8-38.2,101-47.1,117.7-44.6c11.2,1.7,40.9,22.2,59.1,35.4c19.9,35.2,39.7,74.6,56.6,114.1
			C2802.5,2136.2,2807.5,2324.3,2804.1,2541.9z"/>
		<path class="st13" d="M2694.8,1921.4c-22-17.3-55.4-25.5-119-3.6c-0.4,0.1-0.8,0.3-1.2,0.5c-34.9-25.7-60.9-38.4-60.9-38.4
			c59.3-32.7,109.8-42,109.8-42C2635.2,1837.9,2663.2,1871.5,2694.8,1921.4z"/>
		<path class="st14" d="M2694.8,1921.4c-22-17.3-55.4-25.5-119-3.6c-0.4,0.1-0.8,0.3-1.2,0.5c-34.9-25.7-60.9-38.4-60.9-38.4
			c59.3-32.7,109.8-42,109.8-42C2635.2,1837.9,2663.2,1871.5,2694.8,1921.4z"/>
		<path class="st13" d="M2804.1,2541.9c-9.1-0.1-30-0.7-58.2-4.5c1.7-80.2,3.4-186,4.4-299.9c1.1-139.8-78.2-237.5-145.3-295.1
			c25.6-8.3,50-10.3,59-9c11.2,1.7,40.9,22.2,59.1,35.4c19.9,35.2,39.7,74.6,56.6,114.1C2802.5,2136.2,2807.5,2324.3,2804.1,2541.9z
			"/>
		<path class="st14" d="M2804.1,2541.9c-9.1-0.1-30-0.7-58.2-4.5c1.7-80.2,3.4-186,4.4-299.9c1.1-139.8-78.2-237.5-145.3-295.1
			c25.6-8.3,50-10.3,59-9c11.2,1.7,40.9,22.2,59.1,35.4c19.9,35.2,39.7,74.6,56.6,114.1C2802.5,2136.2,2807.5,2324.3,2804.1,2541.9z
			"/>
		<path class="st17" d="M2594.4,1772.2c0,0-41.2-20.6-40.7-81.4c0.5-60.8,80.9-222.3-71.4-255.6c-152.3-33.3-177.8,75.8-173.9,131.4
			c3.9,55.6,11.1,228.4,105.9,196.9c1.3,55.4-4.6,120.1-2.6,116.2C2413.7,1875.8,2594.4,1772.2,2594.4,1772.2z"/>
		<path class="st18" d="M2457.1,1734.4l-45.3,29.8l1.9,56C2435.3,1794.7,2451.3,1766.7,2457.1,1734.4z"/>
		<path class="st12" d="M2268.9,1441.2c-3.3,2.4,43.1,89.7,117.7,55.4c-2.9,51.5-0.5,69.6,24.5,79.9c25,10.3,22.1,61.8,22.1,61.8
			s16.1-10.8,14.7-30.4c-1.5-19.6,5.4-66.2,36.8-59.3c31.4,6.9,49,56.9,35.3,75.5c-13.7,18.6-31.4,18.5-27.5,30.3
			c3.9,11.8,56.9,55,73.5,40.3c8.3-26,36.3-77,53.9-91.2c17.6-14.2,16.7-91.7-13.7-128c-30.4-36.3-78.8-88.4-111.5-75.3
			c-28.8-11.8-46.1-15.7-57.2-5.9C2398.9,1387.5,2368.6,1369.5,2268.9,1441.2z"/>
		<path class="st14" d="M1821.3,2180.6c0,0-63.2-23-71.6,46.6c-8.3,69.6,35.8,93.2,56.9,85.8
			C1827.6,2305.6,1850.7,2196.2,1821.3,2180.6z"/>
		<path class="st17" d="M1812.9,2192.8c0,0-71.3-46.4-141.9-37.3c-70.6,9.2-142.5,69.6-156.2,82.4c0,0.1,0.1,0.2,0.1,0.4
			c36.3-2.8,72.1-26.1,100.6-8c13.8,8.3,13.8,44,41.3,41.3c48-3.2,116.5-12.9,164.3,3.9C1826,2255,1831.5,2200.7,1812.9,2192.8z"/>
		<path class="st18" d="M1656.8,2271.6c-27.5,2.8-27.5-33-41.3-41.3c-28.5-18.1-64.4,5.2-100.6,8c3.1,12.2,64.7,2.6,75.4-0.4
			c10.8-2.9-15.7,39.2,45.1,50c60.8,10.8,89.2-23.5,143.2,0c43.1,16.7,36.6,7.5,41.5-8.5c0.3-1.1,0.7-2.5,1.1-4
			C1773.3,2258.6,1704.9,2268.4,1656.8,2271.6z"/>
		<path class="st13" d="M2034.5,2763.5c0,0,415.1,31.4,488.3-92.8c73.2-124.2,201-463.5,173.6-586.4
			c-27.5-122.9-163.3-137.6-190.5-26.8c-27.2,110.8-64.4,323.6-98.8,386.3c-34.3,62.8-60.8,186.3-329,188.3
			C2041.4,2638,2016.9,2735,2034.5,2763.5z"/>
		<path class="st14" d="M2715.6,2082.6c-7.4-33-54.4-83-73.2-100.1l12.6,26.5c65.6,181-69.5,393.5-140.1,568.9
			c-54.2,134.6-351.3,156.9-486.3,159.9c0.3,10.6,2.1,19.6,5.8,25.6c0,0,415.1,31.4,488.3-92.8
			C2596,2546.5,2743.1,2205.5,2715.6,2082.6z"/>
		<path class="st17" d="M1703.6,2772.2c73.8-43.1,159.9-64.7,241.1-54.7c9.1-24.3,20.2-61.3,6.8-69.1c0,0-94.1-16.3-156.2,7.8
			c-61.3,23.9-151.2,99.3-145.3,130.2C1669.4,2787.4,1688.9,2780.6,1703.6,2772.2z"/>
		<path class="st18" d="M1703.6,2772.2c-14.7,8.4-34.2,15.2-53.7,14.2c0.1,0.4,0.1,0.8,0.2,1.2c8.5,30.1,109.2-19.6,155.6-20.2
			c46.4-0.7,53.6-5.3,85-17.7c31.4-12.4,45.1-10.5,45.1-10.5s4.2-9.2,8.9-21.8C1863.5,2707.5,1777.4,2729.2,1703.6,2772.2z"/>
		<path class="st19" d="M1971.1,2629.5c0,0-52.9,4.6-56.2,67.3c-3.3,62.8,5.9,77.1,56.2,76.5c50.3-0.7,82.4-5.2,82.4-5.2
			s-20.6-103.9,24.7-136C2032.6,2632.1,1971.1,2629.5,1971.1,2629.5z"/>
		<path class="st19" d="M2399.3,1996.7c0,0-9.8-68.6-16.3-79.8s-17-17.6,17.6-46.4c34.6-28.8,165.4-124.9,192.3-114.1
			c27,10.8,48.5,23.5,41.2,44.6c-7.4,21.1-8.3,42.7-8.3,42.7S2415,1937.9,2399.3,1996.7z"/>
	</g>
	<g>
		<linearGradient id="SVGID_7_" gradientUnits="userSpaceOnUse" x1="1095.9563" y1="3299.6643" x2="2044.3177" y2="3299.6643">
			<stop  offset="0" style="stop-color:#4085F0"/>
			<stop  offset="1" style="stop-color:#275DC9"/>
		</linearGradient>
		<path class="st20" d="M2044.3,2947.8v173.6l-164.1,541.9c-8-2.5-16-5-24.1-7.5c-13-4.1-25.7-8-38.2-11.9
			c-254.8-79.5-387.4-122-503.1-182.3c-73-38-147.1-76.6-218.8-120.3l301.2-405.3C1410.9,2936,2044.3,2947.8,2044.3,2947.8z"/>
		<path class="st5" d="M2044.3,2947.8l-226.4,696c-254.8-79.5-387.4-122-503.1-182.3c-73-38-147.1-76.6-218.8-120.3l301.2-405.3
			C1410.9,2936,2044.3,2947.8,2044.3,2947.8z"/>
		<path class="st21" d="M2044.3,2947.8v173.6l-164.1,541.9c-8-2.5-16-5-24.1-7.5c-13-4.1-25.7-8-38.2-11.9L2044.3,2947.8z"/>
		<g>
			<polygon class="st22" points="1452.1,3043.3 1909.7,3051.1 1803.6,3294.3 1291.3,3270.7 			"/>
			<polygon class="st23" points="1291.3,3270.7 1291.3,3325.7 1799.2,3351.8 1803.6,3294.3 			"/>
			<polygon class="st24" points="1909.7,3051.1 1909.7,3089 1799.2,3351.8 1803.6,3294.3 			"/>
			<path class="st11" d="M1466.5,2350.3l-44.5,788.4c0,10.9,8.3,17,19.9,19.3l46.4-807.7H1466.5z"/>
			<path class="st25" d="M1488.3,2350.3l-46.4,807.7c17.5,3.5,42.6-1.4,58.6-11.5l22.2-796.2H1488.3z"/>
			<polygon class="st23" points="1455,3107.7 1768.8,3111.6 1775.7,3243.9 1434.5,3226.6 			"/>
			<polygon class="st22" points="1564.1,2961.6 1455,3107.7 1768.8,3111.6 1840.6,2968.7 			"/>
			<polygon class="st24" points="1775.7,3243.9 1854.4,3067.4 1840.6,2968.7 1768.8,3111.6 			"/>
			<polygon class="st24" points="1422,2353 1555.4,2456.9 1654.7,2422.3 1422,2225.6 			"/>
			<polygon class="st10" points="1488,2209.2 1673.7,2368 1654.7,2422.3 1422,2225.6 			"/>
			<polygon class="st19" points="1451.4,2232.4 1484.5,2224.2 1657.6,2372.3 1648.3,2398.8 			"/>
			<polygon class="st10" points="1494.2,1975.1 1404.3,1997.6 1428.9,2231.4 1494.2,2214.5 			"/>
			<polygon class="st19" points="1419.3,2008 1480.5,1992.7 1480.5,2203.8 1440.9,2214.1 			"/>
			<polygon class="st24" points="1372.7,2032 1392.3,2219.3 1428.9,2231.4 1404.3,1997.6 			"/>
		</g>
		<polygon class="st13" points="1550.1,3024.3 1752.1,3024.3 1739.4,2793.9 1583.5,2797.3 		"/>
		<path class="st14" d="M1791.9,2978.2l-39.8,46.1l-12.7-230.4c0,0,34.3-12.7,36.3-8.8C1777.6,2789,1791.9,2978.2,1791.9,2978.2z"/>
	</g>
	<path class="st26" d="M2318.8,3420.4c-57.2-49-91.4-255.7-109.7-415.4c0,0.5,0,1.1,0,1.6c7.8,409.9,7.8,409.9,7.8,409.9
		s39.7,9.3,99.7,15C2317.3,3427.9,2318,3424.3,2318.8,3420.4z"/>
	<polyline class="st8" points="3379,2679.2 2930.7,2679.2 2930.7,1341.3 3070.3,1341.3 	"/>
	<g>
		<polygon class="st10" points="1909.7,736.4 1570.1,736.4 1586.4,669.1 1888.4,669.1 		"/>
		<polygon class="st19" points="1888.4,727.6 1591.4,727.6 1605.6,686.4 1869.8,686.4 		"/>
	</g>
	<g>
		<path class="st10" d="M3006.7,736.4h-269.8l16.3-67.3h222.1c2.9,5.7,5.8,11.5,8.6,17.3c6.7,13.7,13,27.4,19,41.2
			C3004.2,730.5,3005.5,733.4,3006.7,736.4z"/>
		<path class="st19" d="M3002.9,727.6h-244.8l14.2-41.2h211.5C2990.6,700.1,2996.9,713.8,3002.9,727.6z"/>
	</g>
	<path class="st10" d="M2972.9,1926L2972.9,1926c-8.1,0-14.7-6.6-14.7-14.7v-55.9c0-8.1,6.6-14.7,14.7-14.7l0,0
		c8.1,0,14.7,6.6,14.7,14.7v55.9C2987.6,1919.5,2981,1926,2972.9,1926z"/>
	<g>
		<path class="st27" d="M3248,2885.5c-10.9-29.7-21.9-59.8-25.6-91.2c-3.7-31.4,0.3-64.8,17.7-91.3c17.3-26.5,49.5-44.4,80.7-39
			c25.6,4.4,50.6,23.4,75.2,14.8c23.3-8.1,32-37.1,30.3-61.8c-1.7-24.6-10.3-48.9-7.6-73.4c4.3-39.4,41.6-72.2,81.2-71.6
			c39.6,0.6,75.8,34.7,78.9,74.2c1.9,24.6-7.5,48.6-9.3,73.2c-1.8,24.6,8,53.9,31.8,60.3c17.2,4.6,35.2-4.7,48.7-16.3
			c13.5-11.6,25.1-25.9,40.7-34.6c24.8-13.7,57.2-10.1,80.8,5.7c30,20,46.1,58.7,39.2,94.1c-6.9,35.3-36.4,65.2-71.7,72.4
			c-28.2,5.8-62.5,0.2-81.1,22.1c-20.6,24.5-4.3,63.7-17.8,92.7c-12.8,27.6-48.8,36.7-78.8,31.2c-29.9-5.5-56.6-21.8-85.3-32
			c-28.7-10.2-63.2-13.3-87.2,5.3c-20.2,15.7-28.1,42.9-46.9,60.2c-21.7,19.9-57.3,22.6-81.6,6.1c-24.4-16.5-35.2-50.5-24.8-78"/>
		<path class="st28" d="M3221.1,2997.4c5.1-3.9,118.8-270.6,535.9-277.1"/>
		<path class="st29" d="M3166.1,3244.9c18.5-30.8,63.5-45.7,35.9-68.7c-23.7-19.8-56.8-23.4-87.7-22.8c-30.9,0.6-62.4,4.5-92.2-3.7
			s-58.1-32.5-58.6-63.4c-0.4-24.2,15.7-45.1,28.3-65.8c12.6-20.7,21.9-48,8.6-68.3c-9.4-14.4-27.5-20.3-44.6-22.6
			c-17-2.3-34.7-2-50.8-8c-24.5-9.2-42.4-33.9-43.4-60.1c-1.1-26.2,14.7-52.2,38.4-63.4c17.8-8.4,38.2-8.6,57.6-11.6
			c19.4-3,40.2-10.5,49.9-27.6c11.3-20,3.2-45.7-9.6-64.8c-12.8-19.1-30.1-35.4-39.4-56.5c-18.2-41.4,1.4-93.2,38.3-119.5
			c36.8-26.3,86.5-29.8,130.1-18c24.4,6.6,50,20.2,57.2,44.4c6.8,22.8-5,46.5-14.8,68.2c-9.8,21.7-17.6,48.4-4.3,68.1
			c10.7,15.9,31.9,21.4,51.1,21.3s38.4-4.3,57.6-2.3c35.8,3.7,67.9,31.2,77,66c9.1,34.8-5.4,74.5-34.7,95.3
			c-16.5,11.6-36.5,17.4-53.3,28.5s-30.9,31.1-25.3,50.5c7,24.3,37.4,30.8,60.1,41.9c36.6,17.8,60.7,58.4,58.8,99
			c-1.9,40.6-29.7,78.8-67.7,93.2c-11.4,4.3-25.3,8.3-28.7,20c-4,14,10.6,25.9,15.8,39.5c4.6,12.2,0.8,27.2-9.3,35.7
			c-10,8.4-69.3-0.4-80.6-7.1"/>
		<path class="st30" d="M3073.2,2587c0,3.9,2.6,476.1,159.5,534.2"/>
		<path class="st27" d="M3133.2,3267.6c-4.6-48.3-9.1-97.5,1.6-144.8c10.7-47.3,39.4-93.1,84.1-111.8
			c62.3-26.1,137.4,5.8,199.8-20.2c20.5-8.5,38.1-22.8,56.8-34.9c18.7-12.1,39.9-22.3,62.1-21.2c22.2,1.1,45,17,47,39.2
			c1.6,17.3-9,33.1-16.1,49c-7.1,15.9-9.6,37.5,4.1,48.2c10.4,8.2,26.1,6,37.3-1.2c11.2-7.1,19.2-18.2,27.8-28.2
			c24.1-27.8,56.7-49.9,93.3-54.4c36.5-4.5,76.6,11.3,94.7,43.4c18,32.1,7.4,79.1-25.7,95.2c-12.3,6-26.2,7.6-39.1,12.4
			c-12.8,4.8-25.5,14.4-27.2,27.9c-2.3,17.1,13,30.9,20.7,46.3c13.3,27,1.2,62.1-23.2,79.7c-24.4,17.6-57.9,19.2-86.3,9.5
			c-28.5-9.7-52.6-29.4-72.9-51.6c-15.6-17.1-29.8-36-49.1-48.8c-19.3-12.8-45.9-18.1-65.4-5.6c-18.9,12.1-26,36.9-44,50.3
			c-26.1,19.4-63.7,7.3-90.5-11.1c-26.8-18.4-51.3-43-83.2-49.2c-41.2-8-85.9,22.6-93.3,63.9"/>
		<path class="st28" d="M3726.9,3052.4c0,0-111.1,105.9-285,54.9s-282.5,59.7-287,107"/>
		<path class="st12" d="M3130.9,3360.2c0,0-79.6-47.6-60-134.9c28.4,5.9,57.3,56.9,57.3,56.9s-66.7-103-19.4-189.2
			c56.2,38.2,48.4,107.9,48.4,107.9s-13.7-108.8,49-132.4c23.4,74-5.7,181.3-12.7,185.5L3130.9,3360.2z"/>
	</g>
	<linearGradient id="SVGID_8_" gradientUnits="userSpaceOnUse" x1="3489.0605" y1="1734.4099" x2="3730.5522" y2="1734.4099">
		<stop  offset="0" style="stop-color:#4085F0"/>
		<stop  offset="1" style="stop-color:#275DC9"/>
	</linearGradient>
	<circle class="st31" cx="3609.8" cy="1734.4" r="120.7"/>
	<linearGradient id="SVGID_9_" gradientUnits="userSpaceOnUse" x1="165.5636" y1="2984.3892" x2="591.6898" y2="2984.3892">
		<stop  offset="0" style="stop-color:#68B2FC"/>
		<stop  offset="1" style="stop-color:#529BF7"/>
	</linearGradient>
	<circle class="st32" cx="378.6" cy="2984.4" r="213.1"/>
	<linearGradient id="SVGID_10_" gradientUnits="userSpaceOnUse" x1="1953.7489" y1="3824.8188" x2="2079.2666" y2="3824.8188">
		<stop  offset="0" style="stop-color:#4085F0"/>
		<stop  offset="1" style="stop-color:#275DC9"/>
	</linearGradient>
	<circle class="st33" cx="2016.5" cy="3824.8" r="62.8"/>
	<linearGradient id="SVGID_11_" gradientUnits="userSpaceOnUse" x1="3284.824" y1="3443.7878" x2="3549.8501" y2="3443.7878">
		<stop  offset="0" style="stop-color:#68B2FC"/>
		<stop  offset="1" style="stop-color:#529BF7"/>
	</linearGradient>
	<circle class="st34" cx="3417.3" cy="3443.8" r="132.5"/>
</g>
</svg>
