<?xml version="1.0" encoding="utf-8"?>
<!-- Generator: Adobe Illustrator 24.0.0, SVG Export Plug-In . SVG Version: 6.00 Build 0)  -->
<svg version="1.1" id="Vector" xmlns="http://www.w3.org/2000/svg" xmlns:xlink="http://www.w3.org/1999/xlink" x="0px" y="0px"
	 viewBox="0 0 3000 3000" style="enable-background:new 0 0 3000 3000;" xml:space="preserve">
<style type="text/css">
	.st0{fill:none;stroke:#1A1A1A;stroke-width:5.3994;stroke-linecap:round;stroke-linejoin:round;stroke-miterlimit:10;}
	.st1{fill:#FFFFFF;stroke:#1A1A1A;stroke-width:3.5996;stroke-linecap:round;stroke-linejoin:round;stroke-miterlimit:10;}
	
		.st2{clip-path:url(#XMLID_2_);fill:none;stroke:#1A1A1A;stroke-width:3.5996;stroke-linecap:round;stroke-linejoin:round;stroke-miterlimit:10;}
	.st3{fill:#1A1A1A;stroke:#1A1A1A;stroke-width:3.5996;stroke-linecap:round;stroke-linejoin:round;stroke-miterlimit:10;}
	.st4{fill:#5067EF;stroke:#1A1A1A;stroke-width:3.5996;stroke-linecap:round;stroke-linejoin:round;stroke-miterlimit:10;}
	.st5{fill:none;stroke:#1A1A1A;stroke-width:3.5996;stroke-linecap:round;stroke-linejoin:round;stroke-miterlimit:10;}
	.st6{fill:none;stroke:#FFFFFF;stroke-width:5.3994;stroke-linecap:round;stroke-linejoin:round;stroke-miterlimit:10;}
	.st7{fill:none;stroke:#FFFFFF;stroke-width:3.5996;stroke-linecap:round;stroke-linejoin:round;stroke-miterlimit:10;}
	.st8{fill:#8E9DF4;stroke:#1A1A1A;stroke-width:3.5996;stroke-linecap:round;stroke-linejoin:round;stroke-miterlimit:10;}
</style>
<g>
	<g>
		<path class="st0" d="M541.8,1129.7c-15,26-164.7,294.4-85.9,594.3c83.7,318.5,371.5,468.9,515.6,544.2
			c540.2,282.3,1092.3,65,1145.8,43c149.4-61.6,734.3-302.8,730.4-773.4c-2.7-325.7-286.2-625.9-572.9-687.4
			c-227.2-48.8-257.6,95-615.8,121.7c-479,35.8-727.8-198.7-966.7-28.6C619.3,995.4,581.8,1060.3,541.8,1129.7z"/>
		<path class="st1" d="M484.5,1950.8c6.8,125.8-425.6,217.9-415.3,281.7c13.3,82.9,756.3-0.1,778.2,105
			c13.8,66.4-275.7,133.6-267.3,210.1c13,119,742.7,212.6,1456.1,4.8c326.3-95,625.7-182.3,706.6-424.9
			c99.2-297.8-193.4-642.2-381.9-797.2c-503.4-413.9-1269.9-303.4-1699.5-9.5c-160.4,109.7-391.6,325.5-343.7,463.1
			C348.5,1873.1,480.8,1881.7,484.5,1950.8z"/>
		<path class="st1" d="M2480.7,1450.4v42.2h-175.9v97.9h-192.7v106.8h-189.2v100h-172.7v101h-154v87.8h-199.9v76.6h1361.8
			c33.1-221.6-123.8-459-277.4-620.1V1450.4z"/>
		<g>
			<defs>
				<path id="XMLID_3_" d="M2758.1,2062.5c-3.3,21.8-8.4,43.5-15.5,65c-80.8,242.6-380.3,329.8-706.6,424.9
					C1322.7,2760.1,593,2666.5,580,2547.6c-8.3-76.4,281.2-143.6,267.3-210.1c-21.8-105.2-764.8-22.1-778.2-105
					c-6.9-43.1,188.8-99.2,313.9-170H2758.1z"/>
			</defs>
			<use xlink:href="#XMLID_3_"  style="overflow:visible;fill:#FFFFFF;"/>
			<clipPath id="XMLID_2_">
				<use xlink:href="#XMLID_3_"  style="overflow:visible;"/>
			</clipPath>
			<path class="st2" d="M726.8,1947l-879.6,638.5L726.8,1947z"/>
			<path class="st2" d="M984.8,1964.4l-879.6,638.5L984.8,1964.4z"/>
			<path class="st2" d="M1242.7,1981.8l-879.6,638.5L1242.7,1981.8z"/>
			<path class="st2" d="M1500.6,1999.2l-879.6,638.5L1500.6,1999.2z"/>
			<path class="st2" d="M1758.6,2016.6L879,2655.1L1758.6,2016.6z"/>
			<path class="st2" d="M2016.5,2034l-879.6,638.5L2016.5,2034z"/>
			<path class="st2" d="M2274.4,2051.4l-879.6,638.5L2274.4,2051.4z"/>
			<path class="st2" d="M2532.4,2068.8l-879.6,638.5L2532.4,2068.8z"/>
			<path class="st2" d="M2790.3,2086.2l-879.6,638.5L2790.3,2086.2z"/>
			
				<use xlink:href="#XMLID_3_"  style="overflow:visible;fill:none;stroke:#1A1A1A;stroke-width:3.5996;stroke-linecap:round;stroke-linejoin:round;stroke-miterlimit:10;"/>
		</g>
		<path class="st3" d="M1552,739.8c0,0,8.7,196.7-33.3,230.7c67.8,19.9,104.4-61.2,104.4-61.2l-48.5-175.2L1552,739.8z"/>
		<g>
			<path class="st1" d="M1315,789.8c0,0,75,24,77.4,121.9c2.4,97.9,30.2,317.1-14.5,318.3s-71-23.3-73.4-97.3
				c-2.4-74,3.6-319.3,3.6-319.3L1315,789.8z"/>
			<path class="st3" d="M1083.7,2417.1c0,0-31.8,114.6-20.7,125.7c11.1,11.1,86.7,25.5,112.6,12.7c25.9-12.7,8.4-47.5,6.8-66.7
				s-28.6-71.7-28.6-71.7H1083.7z"/>
			<path class="st1" d="M1179.1,1432.3c0,0,7.1,78.9-28.8,229.2c-9.6,144.9,10.9,748.2,9.2,762.5c-1.6,14.3-82.5,0-82.5,0
				s-112.8-576.4-118.5-834.2s46.3-312.9,46.3-312.9l185,22.3L1179.1,1432.3z"/>
			<path class="st3" d="M1189.6,2252.8c0,0-34.3,28.6-23,40.6c11.3,11.9,32.2,91.3,33.4,113.4c1.2,22.1,49.5,60.3,71,53.1
				c21.5-7.2,22.7-56.1,16.7-77c-6-20.9-36.4-77.6-41.2-88.3c-4.8-10.7-12.5-26.9-12.5-26.9L1189.6,2252.8z"/>
			<path class="st1" d="M1146.9,1309.9l177-16.3c0,0,33,89.5,31.8,187.2c-1.2,97.7,12,321.1,0,372.9
				c-12,51.8-114.6,418.2-114.6,418.2s-58.5,13.1-69.2-11.9c-3.6-109.8,43-344.9,43-344.9s-57.6-299.6-57.6-344.9L1146.9,1309.9z"/>
			<path class="st3" d="M986.4,1302.2c0,0,59.1,44.8,179.6,48.9s167.7-26.3,167.7-26.3l-1.7-25.6l-336-18.5L986.4,1302.2z"/>
			<path class="st1" d="M988.3,970.1c4.4,83.2-19.3,174.7-19.3,174.7c14.6,105.2-36.4,120.9-77,103.3
				c-28.2-21.5-33.7-58.9-25.3-106.1c3.4-53.7,15.8-135.7,18.8-196.1c6-121.7,123.3-180.6,123.3-180.6l43.8,119.3L988.3,970.1z"/>
			<path class="st1" d="M1329,1005.2c3.7-24.7-30.2-54.1-25.1-63.4c0,0,0-114.6,7.8-154c-41.4-30.2-123.8-74.1-127-73.3
				c-3.2,0.8-55.7,0-55.7,0s-61.9,26.9-111,60.5L1329,1005.2z"/>
			<path class="st1" d="M986.4,937.6c4.2,15.4-2.7,3.5,0,23.9c15.5,115,22.9,277.9,10.1,315.1c82.4,71.6,275.7,53.7,331.2,25.1
				c-13.7-77.8-10.5-217.1,1.2-296.4L986.4,937.6z"/>
			<path class="st3" d="M1185.5,835.8l-18,77.9l34.9,39.4c0,0,29.1-20.3,30.8-21.8c1.7-1.5-1.9-33.7-1.9-33.7l-28.9-61.8H1185.5z"/>
			<path class="st4" d="M1078.9,734.1c0,0,125.3,162.9,126.5,210.6l57.9-186.7l58.3,31.8c0,0,3.6,158.5,18.3,193.1
				c-18.7,102.5-17.5,264.2-4.8,318.7c-31,24.7-242.3,55.7-342.9-17.9c3.2-33,3-306.3-5.8-322.2c49.3-19.9,47.1-76.8,44-106.2
				s-37.7-88.4-37.7-88.4L1078.9,734.1z"/>
			<path class="st5" d="M1202.4,960.2c0,0-25.4,289.7-9.4,366.3L1202.4,960.2z"/>
			<path class="st1" d="M1261.9,1107.8c0,0,42.2-61.7,68-43.8c25.9,17.9,79.1,84.1,71.4,112.9c-7.7,28.8-9.2,46.6-45,51.8
				c-35.8,5.2-58.2-105.8-60.2-108.6C1294.1,1117.4,1261.9,1107.8,1261.9,1107.8z"/>
			<polygon class="st1" points="1182.1,1078.4 1378.5,1126.1 1315.8,1217.4 1128,1188 			"/>
			<path class="st1" d="M854.2,1170.2c0,0,60.4-82.2,122.8-42.5c-2.8,23.9-2.8,23.9-2.8,23.9s-22.3,84.7-25.9,91.5
				c-3.6,6.8-21.9,21.9-42.2,19.5S839.1,1229.5,854.2,1170.2z"/>
			<path class="st1" d="M1327.1,1171.9c-18.7,4-109,7.2-120.9,7.2c-9.5-5.2,16.3-29,6.8-44.2c-9.5-15.1-22.3-13.5-25.1,4.4
				c-2.8,17.9-38.6,19.9-50.1,31s-5.2,27.1-26.7,24.7c-19-2.1-115.3-39.6-137.5-48.3c-26.5,1.8-53,5.6-70.5,26.1
				c-15.4,17.4-15.7,39.3-9.7,60.5c2,1.4,4.2,2.7,6.5,3.9c60.9,29.8,154-10.7,238.7-6c84.7,4.8,161.5,13.9,183.4-15.1
				S1345.8,1167.9,1327.1,1171.9z"/>
			<path class="st1" d="M1241.5,716.6c0,0,12.9,7.9,28.4,1.5c24-10,72.8-129.5,72.8-129.5c-11-76.2-168.3-143.5-180.6,1.2
				c-6.5,76-38.2,159.7-46.5,149.2c0,0,46.9,55.3,103,44c18.5-25.1,18.5-25.1,18.5-25.1C1240.6,735.6,1231.6,731.6,1241.5,716.6z"/>
			<path class="st1" d="M1126.5,708.5c20.1,30.3,10.5,49.8,61.9,76c-23.6,11.3-32.9,26.2-40.9,18.8s-68-50.1-57.9-78.2
				C1117.1,696.5,1126.5,708.5,1126.5,708.5z"/>
			<path class="st1" d="M1238.7,731.7c0,0,6.8,45.8-36.3,52.8c11.9,29.2,37.3,17.6,37.3,17.6s14.6-39.1,20.6-48.6
				C1256.7,744.5,1238.7,731.7,1238.7,731.7z"/>
			<path class="st3" d="M1350,559.2c0.1-4.8-1.4-8.1-3.4-10.5c-6.3-27.1-20.1-58.5-45.6-70.6c-47.8-22.7-132.3-4.2-148.2,53.1
				c-15.9,57.3-13.1,119.3-13.1,119.3l13.1,14.9c0,0,19.1-35.2,26.6-39.3c7.5-4.2-24.2-21-2.9-48.4c21.3-27.4,27.3,15.7,27.3,15.7
				s-5.4,16.3-1.3,15.7s8.1-6.3,8.1-9.9s7.5-18.5,15.3-15.5c7.8,3,13-16.7,14.1-28.6c1.2-11.9,23.6,29.8,42.6,44.8
				c8.2,6.4,20.6,7,32.6,5.3l0,0c0,0,51.3,0.7,54.1-25.8C1360.9,586.1,1349.8,575.6,1350,559.2z"/>
			<polygon class="st3" points="1187.2,789.8 1173.2,817.9 1185.4,834.9 1202.4,834.9 1212.9,818.5 1200.3,789.8 			"/>
			<path class="st3" d="M1202.4,693.5c0,0,33.3,20.9,39.1,23.2c-4.1,7.3-5,11.5-5,11.5C1231.7,726,1201.2,715.3,1202.4,693.5z"/>
		</g>
		<g>
			<g>
				<path class="st1" d="M1673.3,2373.1c-14.4,3.6-32.1,2-44.2-7.7c15.1,52.3,42,68.6,59.2,65c11.2-2.4,12.1-38.8,10.7-74.1
					C1692.2,2364.6,1682.5,2370.4,1673.3,2373.1z"/>
				<path class="st1" d="M1673.3,2373.1c9.2-2.8,18.9-8.5,25.8-16.8c-1.1-27.4-3.5-54-3.5-63.4c0-21.5-20.7-52.5-20.7-52.5
					l-36.6-14.3c0,0-25.5,31.8-15.1,113c1.7,9.7,3.7,18.4,6,26.3C1641.2,2375.2,1658.9,2376.7,1673.3,2373.1z"/>
				<path class="st4" d="M1764.5,1383.9c3.1,15.7,73.5,96.7,42.1,279.3c-31.4,182.6-42.1,316.9-42.1,316.9l-76.9,272.7
					c-20.8,3.2-41,0.5-60.5-9.5l-30.8-873.6l109.2-10.7L1764.5,1383.9z"/>
				<path class="st1" d="M1653.5,2480.9c-7.3,9-17.8,14.4-32.1,14.4c-18.2,0-43.4,0-58-13.7c-0.7,7.6-0.9,13.6-0.3,17
					c3.2,19.5,14.2,45.7,57.6,43.4c43.4-2.4,34.3-51.7,34.3-51.7L1653.5,2480.9z"/>
				<path class="st1" d="M1653.5,2480.9l-18.4-116l-53.3,4.8c0,0-15,75.1-18.4,111.9c14.6,13.7,39.8,13.7,58,13.7
					C1635.7,2495.3,1646.1,2489.9,1653.5,2480.9z"/>
				<path class="st4" d="M1627.1,1573.7c4,43,20.6,800.2,20.6,800.2c-25.6,23.8-51.1,26.3-76.5,7.2c0,0-55.5-393.8-118.8-667.7
					s42.4-365.2,42.4-365.2l143.7,32.2L1627.1,1573.7z"/>
			</g>
			<path class="st1" d="M1470.3,1356.5c0,2.4,189,70.8,328.8,37.4c-30.4-156.7,7.5-453.9,7.5-453.9L1686,895l-120.1,26.3
				c0,0-58.9,28.6-60.5,37.4C1503.8,967.4,1470.3,1356.5,1470.3,1356.5z"/>
			<path class="st3" d="M1539.1,642c0,0,31,13.1,14.9,36.4c-16.1,23.3-11.9,89.5-26,116.4c-2.1-24.5,5.1-42.4-12.8-64.4
				C1497.3,708.2,1506.3,625.3,1539.1,642z"/>
			<path class="st1" d="M1533,671.2c0,0-38.2,181.9,44.2,191c19.1-7.8,19.1-7.8,19.1-7.8l6.6,37c0,0-114,46.2-52.5,89.9
				c61.5,43.8,192.2,37.8,210.1-19.5c8.1-26.1-14.6-47.1-35.3-54.2c-9.2-3-12.8,0.1-27.1-17l-32.5-69.6c0,0,24.5-49.9,16.7-86.9
				c-7.8-37-23.9-77.8-90.1-83.1S1533,671.2,1533,671.2z"/>
			<path class="st4" d="M1468.8,953.1c0,0-24.7,9.5-31,41.4s-40.6,242.7-22.3,265.7s59.7,40.6,73.2,35.8
				C1502.2,1291.2,1492.6,988.9,1468.8,953.1z"/>
			<path class="st4" d="M1460.1,958.2c15.6-17.3,71.7-35.6,119.3-53.7c0,0-54.1,233.1,47.7,353.3c-27.1,86.7-96.3,195.7-132.1,182.2
				c-35.8-13.5-57.3-31.8-57.3-31.8s37.4-115.4,39.8-131.3c2.4-15.9,8-53.3,10.3-81.2c0.8-9.9-2.4-42.8-7-81.2L1460.1,958.2z"/>
			<path class="st4" d="M1757.4,925.6l60.3,118.2c-4.6,38.3,13.5,104.8,22,133.2c32.1,13,58.3,44.1,83,69.2
				c-2.6-88.1-29.1-251.9-50.6-282.1C1850.7,934,1760.1,928.5,1757.4,925.6z"/>
			<path class="st4" d="M1838.9,943.7l-115.7-39.2c0,0,32.5,263.4-84.7,360.4c0,0,33.2,179,79.3,184.6c46.1,5.6,96.8-19.9,96.8-19.9
				s-22-287.2,13-397.8L1838.9,943.7z"/>
			<polygon class="st1" points="1825.2,960.2 1655.7,1230 1647.7,1251.4 1814.7,1269 1994.7,988.1 			"/>
			<path class="st1" d="M1842.7,1179.7c0.8,2.4,1.2,3.8,1.2,3.8S1850.3,1185.7,1842.7,1179.7z"/>
			<path class="st4" d="M1886.9,1203.3c-31.1-20.3-70.1-41.3-87.7-52.1c-32.8,6-34.7,61.5-34.7,61.5s50.2,75.2,74,88.9
				s51.1-4.8,77.4-24.7c5.7-4.3,7.6-21.7,6.8-46.3L1886.9,1203.3z"/>
		</g>
		<path class="st4" d="M1410.5,1237.7c-1.2-11.6-0.3-85.3-0.3-85.3s19.8-36.4,40-33.4c20.2,3,23.2,23.3,23.2,37.6s4.8,51.9,4.8,51.9
			L1410.5,1237.7z"/>
		<path class="st3" d="M1414,1154.8c0,0,0.3,16.8,18.5,15.7c18.2-1.1,41.2-24.3,32.8-38.3S1425.3,1131.5,1414,1154.8z"/>
		<path class="st1" d="M1414.1,1148.9c0,0-15.1-54.3-9.9-69c5.2-14.7,13.8-37,26.9-39.3c25.4-13.3,42.1-16.2,46-4.1
			c4,12.1,16.2,50.1,12.7,57.1c-3.6,7-27.5,20.7-30.6,27.8c-3.1,7.1,6.5,8.1,1.6,24.1S1424.1,1169.7,1414.1,1148.9z"/>
		<path class="st3" d="M1804.2,1157.5c0,0,14,14.3-1.5,41.8c-15.5,27.4-32.8,17.3-34,11.9c-1.2-5.4,7.5-31,14.9-42.4
			S1800.1,1154.2,1804.2,1157.5z"/>
		<path class="st1" d="M1801.5,1164.3c0,0-11.3-22.3-20.5-54.9s-68.4-22.7-68.4-22.7s-30.6,60.9-23.9,69.6
			c6.8,8.8,76,40.1,83.5,51.6C1787.6,1231.2,1813.4,1176.6,1801.5,1164.3z"/>
		<path class="st3" d="M1618.9,843.6l-22.7,10.8l4.3,24.2C1600.6,878.7,1621,853.4,1618.9,843.6z"/>
		<path class="st3" d="M1543.6,650.2c0,0,10,49.6,57.3,37.1c47.3-12.5,53.1,27.8,45.6,43.8c-7.5,15.9-0.1,20.3,10.7,10.1
			c10.7-10.1,35.2,16.1,6.6,36.8c-11.1,8-9.2,19.5,1.8,43s-1,72.4,52.3,89.1s62.1,28.6,61.3,43c0,0,31-5.6,6.4-27.1
			c42.2,17.5,29.8,6.2,50.4,16.7c0-38.1-82.6-57.7-97.1-102.6c-14.6-44.9,0-163.9-39.5-201.2C1634.8,578.3,1542,628.2,1543.6,650.2z
			"/>
		<g>
			<g>
				<path class="st1" d="M2727.3,2121.5c3.2,14.6,14.1,25.7,22.4,32.2c5.2,0.7,10.5,1.2,15.9,1.5c23.7,1.5,46.3-8.7,66.3-23.7
					c-14-3.4-44.7-12.1-52.8-23.7c-10.6-15.2-0.8-17.9,4.5-11.4c5.4,9.8,42.4,21.6,59,26.4c9.9-8.6,19-18.1,27.1-27.5
					c-13.7-0.7-32-5.2-37.2-11.9c-6.7-8.8,1.5-13.6,8.1-8.1c4.9,4.1,27.7,6.3,39.5,7.2c15.5-19.9,25.6-37.3,28.2-41.9
					c0.4-0.8,0.7-1.2,0.7-1.2s-16.4-19.7-40.6-41.3c-9.5,2-23.8,5.4-31.3,9c-11.9,5.6-19.6,11.6-23.2,7.2
					c-5.8-10.6,27-20.3,44.7-24.6c-10.8-9-22.7-18-35.2-25.7c-55.4,4.5-52.9,42.2-65.2,29.7c-10.6-10.8,33.6-30,51.8-37.3
					c-12.4-6.4-25-11.1-37.4-13c-11.4-1.3-21.8-2.1-31.4-2.4c-26.3,17.5-11,47.2-25.9,41.6c-11.6-4.4,2.8-29,11.3-41.8
					c-128.8,2.6-65.9,103.4-65.9,103.4c-0.2,0.4-0.4,0.8-0.6,1.2c-25,55.1,11,90.7,67.6,104.2c-3.3-10.3-9.1-29.3-9.6-33
					C2717.4,2111.5,2725.4,2108.8,2727.3,2121.5z"/>
				<path class="st5" d="M2884.6,2041.2c0,0-155.6,10.8-223.9,3L2884.6,2041.2z"/>
				<path class="st5" d="M2820.2,2081.4c0,0-26-12.8-46.7-35L2820.2,2081.4z"/>
				<path class="st5" d="M2789.1,2005.5c0,0-37.6,25.2-38.5,41.4L2789.1,2005.5z"/>
				<path class="st5" d="M2755.3,2111.1c0,0-32.3-42.6-37.7-64.1L2755.3,2111.1z"/>
				<path class="st5" d="M2692.5,1998c0,0-21.1,24.6-13.1,47.8L2692.5,1998z"/>
			</g>
			<g>
				<path class="st3" d="M2376,2002.1c9,1.1,17.8,2.4,26.3,4c11.5,11.1,25.8,29.8,25.7,53.1c-1.5,20.2,13,16.7,13.8,8.5
					c0.6-5.9-2.2-36.4-3.8-53c91.5,27.2,139,87.8,73.5,173.2c0,0,68.2,165.5-151.2,156.5c19.2-19.3,53.2-56.7,35.1-64.7
					c-23.1-10.4-8.5,38.2-59.8,63.1c-16.1-1.5-33.5-3.7-52.3-7c-20.3-4.3-40-13.1-58.5-24.4c33.6-9.7,116-35.5,102.1-53.6
					c-16-20.9-26.3,38.8-121.9,40.3c-18.2-13.4-35.1-28.7-49.9-44.1c31.6-5.1,91-17.1,85.1-34.4c-4.4-7.4-19.8,1.3-42,9
					c-14.2,4.9-39.7,8.8-56.5,11c-32.8-36.6-53.1-69.2-53.1-69.2s26-30.2,65.4-65c19.7,2.6,57.7,8.4,64.3,15.3
					c9.1,9.5,24.9,2.6,16.8-11.9c-6.2-11.2-35.6-20.2-58.5-22.6c17.3-14.1,36.4-28.1,56.4-40.7c26.3,9.4,84.4,31.7,89.9,47.7
					c6.4,10.9,24.1,7.6,12-17.5c-9.3-19.2-58-35.9-80.5-42.7C2294.2,2011.2,2336.4,1997.2,2376,2002.1z"/>
				<path class="st6" d="M2130.7,2169.9c0,0,268.1-1.4,380.9,17.9L2130.7,2169.9z"/>
				<path class="st7" d="M2255.3,2112.9c0,0,39.3,22.8,65.8,60L2255.3,2112.9z"/>
				<path class="st7" d="M2279.1,2235.9c0,0,73.5-36,81.1-61.5L2279.1,2235.9z"/>
				<path class="st7" d="M2376.6,2072.7c0,0,38.5,70.5,39.6,104.9L2376.6,2072.7z"/>
				<path class="st7" d="M2440,2257.5c0,0,45.1-36.6,40.4-74.1L2440,2257.5z"/>
			</g>
			<g>
				<path class="st1" d="M2410.9,1784.9c6.5,4.6,12.6,9.3,18.5,14.1c3.8,14.5,6.3,36.8-4.4,57.5c-10.4,17.3,2.4,20.1,6.8,13.1
					c3.2-5,15-33.2,21.3-48.7c58.3,60.8,67.2,133.6-22.3,183.4c0,0-23,174.4-188.4,78.8c23.7-9.4,67-29.2,56.7-43.6
					c-13.1-18.4-24,30.6-75.1,32.2c-11.7-7.7-24.1-16.7-37.2-27.1c-13.7-11.9-24.9-27.6-34.1-45.1c30.4,4.8,105.8,14.8,103.4-6.9
					c-2.8-25-38,24-112.6-12.8c-8-19.2-13.9-39.5-18.4-59.1c26.7,8.1,78.1,21.2,81.5,3.4c0-8.4-15.9-6.7-36.6-8.8
					c-13.2-1.3-34.7-8.1-48.7-12.8c-8.6-45.6-9.4-82.8-9.4-82.8s33.8-16.5,80.3-31.7c14,10.2,40.7,30.5,42.7,39.3
					c2.7,12,18,12.2,18.4-3.9c0.3-12.4-18.3-32.2-34.9-43.5c19.8-5.6,41-10.5,62.2-13.7c16,18.8,50.7,61.9,47.7,78.3
					c0,12.2,15.1,16.4,17.3-10.8c1.6-20.8-28.4-55.1-42.6-70.2C2343.6,1760.3,2382.6,1764.8,2410.9,1784.9z"/>
				<path class="st5" d="M2144.8,1836.2c0,0,207.8,105.9,286.1,168L2144.8,1836.2z"/>
				<path class="st5" d="M2267,1835.3c0,0,19.9,35.9,23.4,79.6L2267,1835.3z"/>
				<path class="st5" d="M2229.2,1954.2c0,0,73.2-2.7,90.7-22.3L2229.2,1954.2z"/>
				<path class="st5" d="M2379.1,1848c0,0-2.5,78-17.4,109.2L2379.1,1848z"/>
				<path class="st5" d="M2343.6,2037.7c0,0,51.6-14.5,65.1-49.8L2343.6,2037.7z"/>
			</g>
			<g>
				<path class="st1" d="M2652.5,1932.9c11.4-2.9,19.1-11.5,23.3-18c-0.1-4-0.4-8-0.8-12.1c-1.8-18-13-34.9-27.8-49.7
					c-1,10.8-4.1,34.4-12.5,40.9c-11,8.5-14.5,1.1-9.8-3.1c7.2-4.4,12.1-32.9,14-45.7c-8.3-7.3-17.2-13.9-25.9-19.8
					c1.2,10.4-0.1,24.5-4.9,28.7c-6.3,5.4-11.3-0.7-7.6-5.9c2.7-3.8,1.6-21.3,0.8-30.3c-18.2-11.2-33.6-18.4-37.7-20.2
					c-0.7-0.3-1.1-0.5-1.1-0.5s-13.9,13.1-28.4,32.1c2.8,7.1,7.4,17.9,11.3,23.6c6.1,8.9,12,14.6,8.8,17.4
					c-7.9,4.8-20-19.9-25.8-33.2c-6,8.5-11.8,17.8-16.4,27.6c10.8,42,41.1,39,32.6,48.7c-7.4,8.4-28.7-24.7-37-38.3
					c-3.6,9.6-5.8,19.4-5.8,28.9c0.4,8.7,1.1,16.7,2.1,23.9c17.6,19.5,39.9,7,37.2,18.5c-2.1,9-24-1.3-35.4-7.3
					c18.6,97.9,92.6,47,92.6,47c0.4,0.1,0.7,0.3,1.1,0.4c48,17.3,72.4-11.1,76.1-54.6c-8,2.8-22.7,7.8-25.6,8.3
					C2645.7,1940.7,2642.4,1934.7,2652.5,1932.9z"/>
				<path class="st5" d="M2567,1815.7c0,0,28.8,118.1,31.2,170.2L2567,1815.7z"/>
				<path class="st5" d="M2608,1863.5c0,0-7,20.2-22.5,36.6L2608,1863.5z"/>
				<path class="st5" d="M2550.2,1889.4c0,0,25.4,27.9,38.6,28L2550.2,1889.4z"/>
				<path class="st5" d="M2640.5,1911.9c0,0-30.5,25.8-47.3,30.7L2640.5,1911.9z"/>
				<path class="st5" d="M2556.5,1963.1c0,0,22.7,15.3,40.6,8.5L2556.5,1963.1z"/>
			</g>
			<path class="st0" d="M2598.2,1985.9c0,0,13.3,1.9-20.4,164.4L2598.2,1985.9z"/>
			<path class="st0" d="M2422.6,1997.9c0,0,144.2,42.6,155.2,155.5L2422.6,1997.9z"/>
			<path class="st0" d="M2500.2,2187.8c3.5-1.3,64.2-6.8,84.3,7.4L2500.2,2187.8z"/>
			<path class="st3" d="M2539.2,2363.1c0,0,56.9-145.7,29.9-232.8c28.7,36.2,26.4,143.6,7.3,185c-7.2,31.8-7.2,31.8-7.2,31.8
				L2539.2,2363.1z"/>
			<g>
				<path class="st0" d="M2577.8,2153.3c0,0,100.4-32.2,118.2,138.2L2577.8,2153.3z"/>
				<path class="st8" d="M2549.7,2417.1c-0.9-6.6-1.6-13-1.9-19.4c8-11.4,22.7-27,44.8-34.1c19.5-5.2,13-14.1,5-12.1
					c-5.8,1.4-34.2,12.7-49.6,19c5.8-71.6,53-123,148.6-104.1c0,0,142.4-98.1,182.1,56.1c-22.5-7.3-65.6-19.2-69.3-4.3
					c-4.8,19.2,38.2-5.9,73.1,21.8c2.1,11.5,3.8,24.2,4.8,38.2c0.4,15.3-3.7,31.6-10.3,47.9c-16.6-20.2-59.2-69.1-73.4-54
					c-16.3,17.5,42.6,6.2,65.1,71.7c-8.7,16.7-19.6,33-31,48c-11.8-20.2-36.2-57.5-51.4-48.1c-6.1,5.3,5.6,13.2,17.7,26.2
					c7.7,8.3,17.1,24.7,22.8,35.6c-27.6,33.9-54.2,58-54.2,58s-34.4-8.6-76.2-25.1c-1.9-14.4-4.7-42.4,0.4-49.1c7-9.2-3-18-15-7.9
					c-9.3,7.7-11.4,30.8-8.6,47.4c-17.2-7.6-34.8-16.4-51.1-26.4c3.2-21,11.7-68,25.6-76.7c8.9-7.8,2-19-19.3-2.9
					c-16.2,12.3-21.4,51.1-23,68.7C2576.3,2470.7,2553.8,2445.8,2549.7,2417.1z"/>
				<path class="st6" d="M2763.2,2534.5c0,0-60.1-184.6-66.6-268.3L2763.2,2534.5z"/>
				<path class="st7" d="M2681.7,2466.1c0,0,13-34.1,42.6-63.9L2681.7,2466.1z"/>
				<path class="st7" d="M2793.4,2411.8c0,0-50.4-39.6-76.3-37L2793.4,2411.8z"/>
				<path class="st7" d="M2616.8,2394.9c0,0,58.6-48.3,91.1-59.7L2616.8,2394.9z"/>
				<path class="st7" d="M2778.7,2294.1c0,0-44.7-19.8-79.4-5L2778.7,2294.1z"/>
			</g>
			<path class="st0" d="M2574.3,2221.2c0,0,0.3-220.5,83.6-177.1L2574.3,2221.2z"/>
		</g>
		<g>
			<path class="st1" d="M735.1,1835.3V2079h-383c75-38.1,134.9-80.8,132.3-128.2c-2.8-52.8-80.8-70.3-131.2-115.5H735.1z"/>
			<polygon class="st1" points="792.4,2067.8 735.1,2079 735.1,1835.3 787.7,1860.1 			"/>
		</g>
		<path class="st1" d="M2448.8,610h-375.4c-50.1,0-90.8,40.6-90.8,90.8v2.8h-146.8l146.8,59.8v106.1c0,50.1,40.6,90.8,90.8,90.8
			h375.4c50.1,0,90.8-40.6,90.8-90.8V700.7C2539.5,650.6,2498.9,610,2448.8,610z"/>
		<path class="st1" d="M2033,858.1c0,0,16-45.7,44.2-38.8c28.2,6.9,67.1-2.3,84.8-46.7c17.7-44.4,51,7.4,69.9,14.9
			c18.8,7.5,24.3-56.3,42.4-75.8c18.1-19.5,31.4-16.5,45.5,9.8c14.1,26.3,27.5-25.5,40.8-39.8s25.1-14.3,40.8-9.8
			c15.7,4.5,10.2,23.3,29.8,26.3c19.6,3,54.2-35.3,54.2-35.3v204.2H2033V858.1z"/>
		<rect x="2033" y="877.8" class="st1" width="452.5" height="22.3"/>
		<path class="st1" d="M985.7,1424.1c0,0,43-11.9,46.2-48.5L985.7,1424.1z"/>
		<path class="st1" d="M1308.8,1370.8c0,0,10.4,39.8,31,53.3L1308.8,1370.8z"/>
	</g>
	<path class="st1" d="M2709.7,1589.4c0,0,134.9,93.1,109.7,196.6c-25.2,103.5,77.6,65.2,73.9-26.5s-61.4-187.7-134.2-203.3
		S2696.3,1579.3,2709.7,1589.4z"/>
	<ellipse class="st1" cx="2267" cy="2534.5" rx="120.6" ry="94.9"/>
	<ellipse class="st3" cx="486.8" cy="1238.4" rx="87.2" ry="88.1"/>
	<ellipse class="st3" cx="2460.3" cy="2428.5" rx="60.6" ry="61.4"/>
	<ellipse class="st1" cx="352.2" cy="2480.9" rx="163.4" ry="150.6"/>
	<ellipse class="st3" cx="2539.2" cy="1497.6" rx="137.7" ry="126.8"/>
</g>
</svg>
