<?xml version="1.0" encoding="utf-8"?>
<!-- Generator: Adobe Illustrator 22.0.0, SVG Export Plug-In . SVG Version: 6.00 Build 0)  -->
<svg version="1.1" id="Layer_1" xmlns="http://www.w3.org/2000/svg" xmlns:xlink="http://www.w3.org/1999/xlink" x="0px" y="0px"
	 viewBox="0 0 4000 4000" style="enable-background:new 0 0 4000 4000;" xml:space="preserve">
<style type="text/css">
	.st0{fill:none;stroke:#1A1A1A;stroke-width:3;stroke-linecap:round;stroke-linejoin:round;stroke-miterlimit:10;}
	.st1{fill:#FFFFFF;stroke:#1A1A1A;stroke-width:2;stroke-linecap:round;stroke-linejoin:round;stroke-miterlimit:10;}
	.st2{fill:#5067EF;stroke:#1A1A1A;stroke-width:2;stroke-linecap:round;stroke-linejoin:round;stroke-miterlimit:10;}
	.st3{fill:#1A1A1A;stroke:#1A1A1A;stroke-width:2;stroke-linecap:round;stroke-linejoin:round;stroke-miterlimit:10;}
	.st4{fill:#8E9DF4;stroke:#1A1A1A;stroke-width:2;stroke-linecap:round;stroke-linejoin:round;stroke-miterlimit:10;}
	.st5{fill:none;stroke:#1A1A1A;stroke-width:2;stroke-linecap:round;stroke-linejoin:round;stroke-miterlimit:10;}
</style>
<g>
	<path class="st0" d="M263.9,1839.5c-100.3-170.9-157.1-374.9-118.7-569.4c38.4-194.5,185.3-373.2,379.4-413.4
		C663.4,828,808,870.1,934.7,933.6s241.7,148.4,367.4,213.8c482.2,250.8,992.5-66.8,1523-185.1c636.1-142,783.5,553.8,642.4,831.9
		c-67.2,132.5-239.9,350.7-211.7,442.9c51.8,169.3,95.2,344.2,88.4,521.2c-6.8,176.9-69.5,358-201.5,476.1
		c-196.2,175.6-488.4,175-751.5,164.5c-282.7,74.9-578.6,99.7-869.8,72.7c-166.1-15.4-336.5-49.9-472.4-146.7
		c-167.2-119.2-259.9-316-327.6-509.9c-67.8-193.8-119.5-397.2-233.6-567.9C487.7,2247.1,364.2,2010.5,263.9,1839.5z"/>
	<path class="st1" d="M882.8,3126.9c-59,9.9-116.7,30.1-176.6,30.8c-77.9,0.8-153.7-32.5-213.4-82.5
		c-59.7-50-116.2-111.1-139.6-185.4c-188.4-596,194.6-958,194.6-958c8.9-108.3,66-211.8,153-276.9c101.5-76,242.8-104.9,311.5-211.5
		c43.4-67.4,47.6-153.7,32.6-232.4c-15-78.7-47.3-153-72.6-229c-25.3-76.1-43.8-157.1-30.1-236.1c13.8-79,66.3-155.4,143.4-177.3
		c228.6-65,448.8-186.1,671.9-104.1c79.3,29.2,153.9,72,236.1,91.7c85,20.4,173.7,15,260.9,20.6c239,15.3,471.5,116.5,645.6,280.9
		s288.3,390.9,317.2,628.6c29.7,244.7,254.3,436.5,292.3,680.1c24.8,158.8,8.3,322.3-33,477.6c-41.3,155.3-106.8,303.3-180.4,446.2
		c-103.1,200.2-309.8,349.6-534,328.6c-136-12.7-260.2-78.8-387-129.9c-73-29.5-265.5,89.3-339.2,66.5
		c-285.3-88.2-456.6-265.3-752.8-192.7C1283.2,3162.6,1003.6,3106.6,882.8,3126.9z"/>
	<path class="st2" d="M2036,1865.4c0,0,130.2,5.6,148.1,159c17.8,153.4,32.1,520.9,26.8,520.9c-5.4,0-105.2,10.7-105.2,10.7
		L2036,1865.4z"/>
	<path class="st2" d="M2153.7,2472.2c-0.8,25.9-1.7,52.1-2.5,78.5c-3.1,97.8-6.2,197.2-8.2,287.6c-3.2,147-3.5,270.2,3.5,324.3
		c-76.7,21.4-433.5,108.8-576.2,60.7c-142.7-48.2-287.2-60.7-287.2-60.7l35.7-540.5c0,0-27.2-720.8,136.2-791.2
		c163.5-70.4,315.3-73.5,354.4-67.5c39.2,6,215.8,56,265.7,132.7C2125.2,1972.7,2162.7,2193.9,2153.7,2472.2z"/>
	<path class="st2" d="M1647.1,1769.3c0,0-378.2,82.1-437.1,260.4c-58.9,178.4-96.3,542.3-44.6,638.6
		c39.2-112.4,142.7-228.3,237.3-217.6c5.4-87.4,10.7-162.3,10.7-162.3"/>
	<path class="st1" d="M1402.7,2450.8c0,0,233.1-36.3,329.4-43.4c96.3-7.1,280.7-34.5,373.4-129.6c92.8-95.1,217.6-98.7,217.6-98.7
		l-182,264c-41.6-1.2-78.5,21.4-151,42.8s-442.4,236.7-635.1,245c-192.7,8.3-187.9-88-187.9-88S1260.9,2424.5,1402.7,2450.8z"/>
	<path class="st1" d="M1918.5,1700.2l4,100.6c0,0,1.8,60.1-107.6,74.9c-109.4,14.9-167.7-129.6-167.7-129.6s83-114.2,75.8-205.1
		c-7.1-91-36.6-242.6,79.4-266.7c116-24.1,310.4,6.2,310.4,107s2.7,333.6-124,328.2c-126.7-5.4-159.7-58.9-159.7-58.9"/>
	<path class="st3" d="M1836.2,1431.3c0,0-37.5-74-74.3-34.2c-36.9,39.8,11.3,108.2,11.3,108.2s-23.5,23.8-36.9,29.7
		c-13.4,5.9-26.8-3.6-26.8-3.6s-51.1-273.2,7.1-315.7c57.7-42.2,104.7-23.8,104.7-23.8s73.7-128.4,224.8-72.5
		c151,55.9,143.9,88,148.7,140.3c4.8,52.3,48.8,64.2,28.5,96.3c-20.2,32.1-111.8,76.1-147.5,53.5c-35.7-22.6-46.5-93.4-78.6-101.4
		c-32.1-8-106.6,12.9-103.5,59.8c3.1,46.8-11.6,123.5-18.3,135.6c-30.8,9.4-42.4,0-39.7-6.2C1838.4,1491,1846,1440.6,1836.2,1431.3z
		"/>
	<path class="st1" d="M1661.8,1709.5c0,0-14.1-20.9-30.5-5.6c-16.4,15.2-84.1,87-76.2,88.7s34.5,29.2,44.1,62.5
		c9.6,33.3,41.7,74.4,88,95.9c46.2,21.4,54.1,11.8,50.8-2.8c-3.4-14.7,8.5-64.3,71.6-56.4c-2.8-19.2-39.5-29.9-82.9-74.4
		C1683.2,1772.6,1661.8,1709.5,1661.8,1709.5z"/>
	<path class="st1" d="M1851.4,1859.4c0,0,70.5,50.4,70.9,103.9c9.8,17.8,24.5-26.3,32.6-32.1c8-5.8,56.2-73.1,52.2-103
		c-17.4-35.2-86.1-64.9-86.1-64.9s2.6,32.4,1.4,39.4C1921.2,1809.7,1899.5,1858.1,1851.4,1859.4z"/>
	<path class="st3" d="M3362.6,2324.4c-155.6,32.9-320.9,61.3-478.4,90.4c-27.7,4.9-56.2,10.1-76.8,13.4
		c-43.4,6.5-66.8-31.9-34.7-58.4c0,0,557.3-103.1,587.9-105.7C3391.3,2261.3,3395.5,2314.9,3362.6,2324.4z"/>
	<path class="st3" d="M3358.5,2325.9l-71.7,730.1l-48.8,7.4l71.4-727.7C3329.3,2331.8,3346,2328.5,3358.5,2325.9z"/>
	<path class="st1" d="M3340.2,2329.4l-71.7,730.1l-48.8,7.4l71.4-727.7C3311,2335.4,3327.7,2332,3340.2,2329.4z"/>
	<path class="st3" d="M3218.7,2355.4l-71.1,724.1l-48.8,7.4l70.9-722.3C3186.5,2361.5,3202.9,2358.4,3218.7,2355.4z"/>
	<path class="st1" d="M3200.4,2356.6l-71.1,724.1l-48.8,7.4l70.9-722.3C3168.2,2362.6,3184.6,2359.5,3200.4,2356.6z"/>
	<path class="st3" d="M3076.2,2377.2l-70.6,719.1l-48.8,7.4l70.4-717.5C3043.3,2383.3,3059.7,2380.3,3076.2,2377.2z"/>
	<path class="st1" d="M3058.4,2383l-70.6,719.1l-48.8,7.4l70.4-717.5C3025.5,2389.1,3041.8,2386.1,3058.4,2383z"/>
	<path class="st1" d="M3151.4,2365.8c-15.3,2.9-76.6,14.2-93,17.3"/>
	<path class="st3" d="M2901.5,2414.8l-70,713.7l-48.8,7.4l69.9-712.5C2865.5,2421.2,2882.2,2418.2,2901.5,2414.8z"/>
	<path class="st1" d="M2884.2,2414.8l-70,713.7l-48.8,7.4l69.9-712.5C2848.3,2421.2,2864.9,2418.2,2884.2,2414.8z"/>
	<path class="st1" d="M3009.4,2392c-41.3,7.5-83.9,15.3-125.2,22.7"/>
	<path class="st1" d="M3200.4,2356.6c26.6-5,64.1-12.2,90.6-17.3"/>
	<path class="st4" d="M489.4,2293.8c0,0-183.7,415.6,0,569.1c183.7,153.4,347.9,171.3,353.2,171.3c5.4,0,95.4-41.9,81.2-118.6
		s-197.1-229.2-237.3-271.2C646.4,2602.4,472.4,2366,489.4,2293.8z"/>
	<path class="st5" d="M481.3,2415.2c0,0,13.4,420.3,336.9,548.8c20.8,11.3,43.4,20.8,43.4,20.8"/>
	<path class="st1" d="M801,1931.7c0,0,1.2,444.8-17.8,494.7c-14.3,63,40,640.3,45.9,711.6c46.4-11.9,46.4-11.9,46.4-11.9
		s-37.6-629.6-42.4-662.9c-4.8-33.3,21.4-398.4,20.2-448.4c-1.2-49.9,13.1-66.6,21.4-107c8.3-40.4,5.9-166.5,7.1-216.4
		c1.2-49.9,15.5-67.8,0-65.4c-15.5,2.4-14.3,20.2-25,60.7c-10.7,40.4-16.6,79.7-38.1,110.6C797.4,1828.2,801,1931.7,801,1931.7z"/>
	<path class="st5" d="M445.7,2673.8c0,0,65.1,15.7,117.7,47.1"/>
	<path class="st5" d="M636.5,2687.1c0,0,35.5,110.7,19.5,165.9"/>
	<path class="st5" d="M504.5,2796c1.8,2.7,72.3,34.2,117.7,17.5"/>
	<path class="st5" d="M748,2833.4c0,0-21.7,87.8,28.5,111.4"/>
	<path class="st5" d="M648.4,2919.1c0,0,52.2-13.4,74.1-7.6"/>
	<path class="st1" d="M803.9,2223.6c0,0-64.2-78.5-16.1-139.1c48.2-60.7,173.6-174.2,201.6-262.2s42.2-67.2,51.7-55.9
		c9.5,11.3,46.4,111.2,8.9,242.6c-37.5,131.4-110.6,184.3-171.8,184.9C817,2194.5,803.9,2223.6,803.9,2223.6z"/>
	<path class="st1" d="M807.5,2195.7c0,0,19-108.8,105.2-138.5c86.2-29.7,111.8-204.6,111.8-204.6"/>
	<path class="st4" d="M813.2,1888.9c0,0-118.6-21.4-149.8-91.9c-31.2-70.5-17.8-259.6-54.4-297.9c62.4-4.5,115.1,77.6,144.5,138.3
		c29.4,60.7,91,123.1,89.2,177.5C840.8,1869.2,813.2,1888.9,813.2,1888.9z"/>
	<path class="st5" d="M669.5,1571.3c0,0,75.8,229.8,148.1,281.3"/>
	<path class="st5" d="M673.1,1656.1c0,0,9.2,30.3,44.7,39.7"/>
	<path class="st5" d="M753.4,1693.9c0,0,14.7,38.5,0,74.6"/>
	<path class="st5" d="M698.5,1786.3c0,0,18.1,35.9,82.2,26.4"/>
	<path class="st1" d="M839.1,2117.7c0,0,45.8-29.1,114.1-8.1"/>
	<path class="st1" d="M925.3,1980.7c0,0,13.5,59.6-12.5,76.4"/>
	<path class="st1" d="M1018.3,1989.7c0,0-24.7-4-45.4,13.3"/>
	<path class="st1" d="M985.3,1906.2c0,0,17.8,3.1,17.4,32.5"/>
	<polyline class="st5" points="992.3,633 1604.3,633 1796,479.7 	"/>
	<polyline class="st5" points="1052.3,582.1 1604.3,582.1 1745.2,460.2 	"/>
	<polyline class="st5" points="949.3,911.3 1789.8,911.3 2184.7,574 	"/>
	<polyline class="st5" points="1033.9,1157.5 1958.7,1157.5 2619.8,669.5 	"/>
	<g>
		<line class="st1" x1="1188.7" y1="536.1" x2="1188.7" y2="876.8"/>
		<rect x="1145.9" y="876.8" class="st3" width="83.2" height="228.5"/>
	</g>
	<g>
		<line class="st1" x1="1632.3" y1="438.1" x2="1632.3" y2="666.7"/>
		<rect x="1589.4" y="666.7" class="st3" width="83.2" height="228.5"/>
	</g>
	<g>
		<line class="st1" x1="2382.7" y1="592" x2="2382.7" y2="972.5"/>
		<rect x="2339.9" y="972.5" class="st3" width="83.2" height="228.5"/>
	</g>
	<g>
		<line class="st1" x1="2776.9" y1="770.3" x2="2776.9" y2="1150.9"/>
		<rect x="2734.1" y="1150.9" class="st3" width="83.2" height="228.5"/>
	</g>
	<path class="st3" d="M3315.2,3052.5c-139.5,271.2-376.3,435.7-695.8,335.1l51.6-237.4c178-27,370.7-56.2,548.6-83.2v0
		C3243.5,3063.4,3291.4,3056.1,3315.2,3052.5z"/>
	<g>
		<path class="st1" d="M2611.3,2282l-150.6,242.2c-1.6-5.7-4.2-12.6-7.9-21.1c-23.2-52.4-60.1-214.7-15.5-273.5
			c44.6-58.9,74.9-73.1,108.8-37.5C2567.7,2214.8,2596.4,2245.3,2611.3,2282z"/>
		<polygon class="st3" points="2375,1992.3 2028.7,2590.9 2007.3,2578.8 2353.6,1980.2 		"/>
		<polygon class="st3" points="2819.2,1947.7 2375,1992.3 2353.6,1980.2 2797.8,1935.6 		"/>
	</g>
	<path class="st1" d="M2819.2,1947.7L2611.3,2282c-14.9-36.7-43.6-67.2-65.1-89.9c-33.9-35.7-64.2-21.4-108.8,37.5
		c-44.6,58.9-7.7,221.2,15.5,273.5c3.8,8.5,6.3,15.4,7.9,21.1l-13.6,21.9l-6.2,9.9l-290.7,24.6l-121.6,10.3l346.3-598.6
		L2819.2,1947.7z"/>
	<path class="st1" d="M2619.3,2350.9c-12.5,67.8-1.8,167.7-82.1,237.3c-76.9,66.7-267,258-394.2,250.1c1.8-81.2,4.4-169.6,7.2-257.6
		L2441,2556l6.2-9.9l5.7,3.4c0,0,16.3,4.2,7.9-25.3c-1.6-5.7-4.2-12.6-7.9-21.1c-23.2-52.4-60.1-214.7-15.5-273.5
		c44.6-58.9,74.9-73.1,108.8-37.5c21.5,22.6,50.2,53.2,65.1,89.9C2619.9,2303,2623.9,2326.1,2619.3,2350.9z"/>
	<line class="st1" x1="2146.6" y1="3162.6" x2="2155.1" y2="3336.9"/>
	<ellipse class="st1" cx="3712.5" cy="1418.2" rx="154.3" ry="153.1"/>
	<ellipse class="st1" cx="1024.5" cy="3374.2" rx="190.4" ry="188.8"/>
	
		<ellipse transform="matrix(0.1602 -0.9871 0.9871 0.1602 -1802.7324 1916.3187)" class="st3" cx="224.8" cy="2017.6" rx="76.2" ry="76.2"/>
</g>
</svg>
