<?xml version="1.0" encoding="utf-8"?>
<!-- Generator: Adobe Illustrator 22.0.0, SVG Export Plug-In . SVG Version: 6.00 Build 0)  -->
<svg version="1.1" id="Layer_1" xmlns="http://www.w3.org/2000/svg" xmlns:xlink="http://www.w3.org/1999/xlink" x="0px" y="0px"
	 viewBox="0 0 4000 4000" style="enable-background:new 0 0 4000 4000;" xml:space="preserve">
<style type="text/css">
	.st0{fill:none;stroke:#1A1A1A;stroke-width:3;stroke-linecap:round;stroke-linejoin:round;stroke-miterlimit:10;}
	.st1{fill:#FFFFFF;stroke:#1A1A1A;stroke-width:2;stroke-linecap:round;stroke-linejoin:round;stroke-miterlimit:10;}
	.st2{fill:#1A1A1A;stroke:#1A1A1A;stroke-width:2;stroke-linecap:round;stroke-linejoin:round;stroke-miterlimit:10;}
	.st3{fill:none;stroke:#FFFFFF;stroke-width:3;stroke-linecap:round;stroke-linejoin:round;stroke-miterlimit:10;}
	.st4{fill:#5067EF;stroke:#1A1A1A;stroke-width:2;stroke-linecap:round;stroke-linejoin:round;stroke-miterlimit:10;}
	.st5{fill:#8E9DF4;stroke:#1A1A1A;stroke-width:2;stroke-linecap:round;stroke-linejoin:round;stroke-miterlimit:10;}
	.st6{fill:none;stroke:#1A1A1A;stroke-width:2;stroke-linecap:round;stroke-linejoin:round;stroke-miterlimit:10;}
	.st7{fill:#969096;}
	.st8{fill:#152A52;}
	.st9{fill:#FF0000;}
</style>
<g>
	<g>
		<path class="st0" d="M485,2807.8c57.7,102.5,190.4,67.2,346.5,157.6c172.3,99.9,149.6,223.4,318.4,405.8
			c24.2,26.2,203.6,215.6,465.1,284.1c310.6,81.4,402-95.6,839.7-65.6c288.1,19.8,323.3,101.6,496.3,56.2
			c265.5-69.6,411.6-322.1,474.5-430.8c190-328.4,164.8-660,159.2-721.1c-33.9-373.4-220.1-436.8-196.7-786.7
			c7-104.6,35.9-211.3,93.6-424.5c86.9-321,142.2-389.7,115.5-527.6c-39.8-205.6-216.1-327.9-265.3-362.1
			c-201.7-140-494.7-181.8-689.9-68.7c-98.9,57.3-103.7,114.5-202.9,137.4c-147.9,34.1-218.3-74.3-362.1-40.6
			c-78.9,18.5-73,54.6-227.9,168.6c-141.2,103.9-238.2,175.2-365.2,196.7c-200.5,33.8-285.3-88.8-377.7-25
			c-105.2,72.6-81.6,291.2-53.1,402.7c32.4,126.6,76.7,136.2,131.1,262.2c131.2,303.8,28.5,605.5,21.9,624.3
			c-65.6,184-185.3,302.4-262.2,365.2c-147.8,49.9-295.5,99.9-443.3,149.8C471.7,2632.7,441.8,2731.2,485,2807.8z"/>
		<path class="st1" d="M466.2,2547.2c162.1,493.1,344.5,628.8,487,655.5c79.3,14.9,102-12.3,362.1-25c256.8-12.5,385.2-18.7,487,25
			c159.4,68.5,131.1,158.5,362.1,355.9c121.8,104.1,246.2,210.4,430.8,249.7c272.4,58.1,499.7-67,524.4-81.2
			c393.4-224.2,409.1-744.5,412.1-842.8c1.4-47.8-48.7-229.5-137.4-593.1c-22.7-93-44.8-181.4-29.1-297.6
			c18.8-140.1,76.2-198.7,135.3-326.7c19.7-42.7,138.1-306.7,102-559.8c-28-196.4-139.2-318.1-318.4-514
			c-157-171.7-377.1-412.5-695.1-439.1c-71.6-6-222.7-18.7-299.7,70.8c-55.1,64-24.1,124.3-91.6,297.6
			c-36.6,94.1-61.2,154.9-122.8,195.6c-86.5,57.3-190.7,38.5-231,31.2c-181.7-32.7-201-155.2-387.1-197.7
			c-29.3-6.7-187.6-42.9-247.7,31.2c-22.3,27.4-18.4,54.4-8.3,243.5c9.4,176.5,8.2,194.4,2.1,218.5
			c-31,121.4-117.2,120.2-170.7,220.6c-93.5,175.7,100.1,312.3,56.2,622.3c-18.9,133-71.8,229.6-104.1,287.2
			c-45.1,80.6-124.5,222.3-291.4,308C603.2,2528.8,519.5,2542.6,466.2,2547.2z"/>
	</g>
	<g>
		<path class="st1" d="M2639.2,1002.6c-143.4-28.7-71-156.2,0-242.9V1002.6z M3152.2,448.6v962.9h27v-936
			C3170.4,466.6,3161.4,457.6,3152.2,448.6z M2869.2,513.9c-131.1,97.8-351.7,276.8-355.9,407.9c-3.5,110.4,94.7,113.1,125.9,111.2
			v769.8h27.1V728.4c13.8-15.2,26.3-27.9,35.7-36.8c23.3-22.3,114-92.4,218.5-171.5v1058.1h27.1V499.5
			c47.6-36,97.1-73.1,143.7-107.8c-9-8-18.1-15.9-27.3-23.7C2992.1,421.9,2918.8,476.9,2869.2,513.9z"/>
		<path class="st2" d="M3370.7,1993.6c-15.6,116.2,6.5,204.6,29.1,297.6c37.6,154.3,68.3,275.8,91,368.2l-1010.6-104.3l-45-4.6
			l166.8-772.7h312.2v-230.3H3146v-232.4h212.3v-218.5h248.2c0.6,3.4,1.1,6.9,1.6,10.4c2.5,17.4,4.2,34.9,5.3,52.3
			c14.9,236.1-89,467.7-107.3,507.5C3446.9,1794.9,3389.5,1853.5,3370.7,1993.6z"/>
		<path class="st1" d="M3370.7,1993.6c-15.6,116.2,6.5,204.6,29.1,297.6c37.6,154.3,68.3,275.8,91,368.2l-1010.6-104.3l154.3-714.6
			h312.2v-230.3h231.7v-232.4h212.3v-218.5h222.6c14.9,236.1-89,467.7-107.3,507.5C3446.9,1794.9,3389.5,1853.5,3370.7,1993.6z"/>
	</g>
	<g>
		<path class="st2" d="M973.3,2579.4c-55.8-61.4-94.2-70.2-119.7-65.6c-32.2,5.9-40.7,32.9-87.4,39.5c-18.9,2.7-37.9,0.4-76-4.2
			c-45.2-5.4-43.9-9.7-62.4-8.3c-36.2,2.8-65,21-81.2,31.2c-24.7,15.6-23.3,21.1-41.6,29.1c-33.2,14.6-65.3,8.4-70.8,7.3
			c-5.5-1.1-75.9-16.7-87.4-73.9c-10.9-54.3,41.6-94.7,45.8-97.8c23.7-17.7,48.5-21,62.4-22.9c37.1-5,47.4,6.9,108.2,10.4
			c31.7,1.8,47.8,2.6,65.6-3.1c32.2-10.5,51.8-33.2,67.6-52c37.3-44.4,27-63.3,58.3-89.5c30-25.1,64.8-28.9,78-30.2
			c43.7-4.2,76.1,11.5,90.5,18.7c34.9,17.5,54.5,41.6,69.7,60.4c7.5,9.2,27,33.6,40.6,67.6c27.3,68.5,13.8,133.7,6.2,161.3
			C1017.7,2564.9,995.5,2572.2,973.3,2579.4z"/>
		<path class="st3" d="M530.7,2478.5c0,0,151.2,19.4,253.9-48.6c102.7-68,187.3,34.7,187.3,34.7"/>
		<path class="st4" d="M722.2,2393.9c-40.8,2.7-105.4,1.8-179-22.2c-51.3-16.8-95.9-31.3-130.4-72.1c-9.3-11-26.1-33.6-49.9-195.6
			c-18.4-124.9-14.5-152.9-2.8-180.4c7.8-18.2,29.7-69.5,81.9-84.6c52.2-15.1,112.3,12.5,134.6,52.7c11.5,20.7,3.7,28.1,11.1,112.4
			c6.5,73.7,14.1,86.4,20.8,94.3c18.3,21.6,43.7,23.7,97.1,30.5c105.6,13.5,158.4,20.3,185.9,31.9c69.8,29.4,108.9,84.4,124.9,106.8
			c41.4,58.2,53,113.7,58.3,140.1c9.3,46.6,8.2,86.5,5.5,113.8c-26.4,15.7-50.7,23-70.8,26.4
			C856.7,2573.5,731.1,2406.1,722.2,2393.9z"/>
		<path class="st3" d="M455.8,2034.5c0,9.7,5.5,148.5,151.2,177.6s167.9-9.9,265,23.5c97.1,33.4,154,202.3,154,202.3"/>
		<path class="st2" d="M1223,1770.9c22-96.6,17.9-146.4,58.3-168.6c29.4-16.1,51.5-0.6,99.9-23.9c14-6.7,44.6-23.7,69.7-56.2
			c37.6-48.8,22.8-80.9,52-99.9c31.7-20.6,89.8-9.1,119.7,27.1c38.8,46.9,11.5,112.7,7.3,122.8c-9.9,23.8-19.4,28.3-89.5,100.9
			c-57.8,59.9-63,68.9-66.6,81.2c-3.1,10.7-6.6,28.8,17.7,120.7c22.5,85.2,29,82.6,29.1,108.2c0.3,53.8-28,93.7-60.4,139.4
			c-33.5,47.3-61.3,86.6-112.4,98.9c-34,8.2-64.3,0.9-82.2-5.2c-54.5-9.4-108.9-18.7-163.4-28.1c5.7-35.4,16-91.9,34.3-160.2
			C1175.8,1881.7,1196.8,1885.6,1223,1770.9z"/>
		<path class="st5" d="M1181.4,2495.6c6.5-45.1,42.4-335.9,70.8-414.5c39.9-110.8,70.1-131.7,68.7-195.6
			c-1.8-79.4-50.9-161.8-116.5-203.9c-55-35.3-79.8-15.5-137.4-58.3c-16.6-12.3-87.3-64.9-88.4-136.3
			c-0.8-48.5,31.3-54.8,54.1-130.1c9.9-32.7,28.3-93.1,6.2-157.1c-19.1-55.4-70.6-120-149.8-133.2c-76.5-12.7-133.9,30-143.6,37.5
			c-12.3,9.5-67.3,52-60.4,97.8c5.4,35.2,41.8,35.8,57.2,78c10.4,28.3,2.8,52.2-16.6,116.5c-21.1,69.7-36.6,120.8-42.7,142.6
			c-21.6,77.4-43.4,155.4-17.7,231c2.4,7,38,103.4,126.9,141.5c53.9,23.1,77.2,3.3,121.7,32.3c57.9,37.7,76.6,109,80.1,123.8
			c14.2,59.6-3.9,98.7,27.1,163.4c6.7,13.9,47.3,256.3,55.5,264.7C1124.6,2544.7,1164,2501.4,1181.4,2495.6z"/>
		<path class="st1" d="M705.5,1976.3c-13-43.7-5.8-106,33.3-136c41.1-31.6,98.9-13,160.9,6.9c37.2,12,97.8,31.5,147.1,87.4
			c40,45.4,50.6,90.1,69.4,169.3c7.6,32,29.2,132.3,16.6,266.4c-4.9,51.8-13.5,94.6-20.8,124.9c-33.3,12-66.6,24-99.9,36.1
			c-8.5-173.3-72-274.6-99.9-313.6c-53.9-75.1-115.2-134.6-115.2-134.6C745.4,2032.9,717.8,2017.6,705.5,1976.3z"/>
		<path class="st6" d="M805.4,1938.8c0,0,166.5,83.9,227.5,253.8c42.6,118.5,55.5,321.9,55.5,321.9"/>
		<path class="st3" d="M831.8,1281.2c0,0,105.4,65.2,68,180.4c-37.5,115.2-172,249.7,26.4,342.7c198.4,93,252.7,209.2,203.3,372.4"
			/>
		<path class="st3" d="M1486.6,1582.2c0,0-108.5,18-113.9,109.6c-5.4,91.6,82,123.5,32.8,252.5c-49.3,129-175.5,206.3-175.5,206.3"
			/>
	</g>
	<g>
		<polygon class="st1" points="655.9,2650.2 2753.7,2865.6 2753.7,2965.5 655.9,2740.7 		"/>
		<polygon class="st2" points="2753.7,2865.6 3218.8,2547.2 3218.8,2650.2 2753.7,2965.5 		"/>
		<polygon class="st1" points="655.9,2650.2 1233.4,2437.9 3218.8,2547.2 2753.7,2865.6 		"/>
		<path class="st1" d="M2753.7,2965.5l-2.5,858.1c-47.8,0.3-98.3-4.1-150.5-15.3c-184.6-39.4-309-145.6-430.8-249.7
			c-231.1-197.4-202.7-287.4-362.1-355.9c-101.7-43.7-230.1-37.5-487-25c-260.1,12.7-282.8,39.9-362.1,25
			c-83.2-15.6-180-68.4-278.4-207.8v-251.6L2753.7,2965.5z"/>
		<path class="st1" d="M2762.9,3681c2.9-67.1-2.9-131.4,11.7-201.4c2.9-11.7,11.7-20.4,11.7-29.2c2.9-26.3,2.9-52.5,8.8-78.8
			c20.4-87.6,38-172.2,73-251.1c63-146.1,217.3-211.8,354.1-287.1l-3.3-183.2l-465.1,315.3l-2.5,858.1c3.5,0,7.1-0.1,10.6-0.1
			C2759.1,3776.3,2758.9,3728.9,2762.9,3681z"/>
		<path class="st1" d="M2868,3120.5c-35,78.8-52.5,163.5-73,251.1c-5.8,26.3-5.8,52.5-8.8,78.8c0,8.8-8.8,17.5-11.7,29.2
			c-14.6,70.1-8.8,134.3-11.7,201.4c-4,47.9-3.7,95.3-1.1,142.4c196.3-3.8,343.7-85,363.4-96.3c41.2-23.4,78.2-50.2,111.5-79.3
			l-14.5-814.5C3085.3,2908.7,2930.9,2974.4,2868,3120.5z"/>
		<polyline class="st6" points="655.9,2683.5 2753.7,2899.2 3218.8,2579.8 		"/>
	</g>
	<polygon class="st2" points="1233.4,2703.3 1807.1,2732.7 2167.8,2596.8 2167.8,2543.7 1549,2567.6 1233.4,2650.2 	"/>
	<g>
		<polygon class="st1" points="1233.4,2650.2 1807.1,2679.7 2167.8,2543.7 1549,2514.6 		"/>
	</g>
	<g>
		<polygon class="st2" points="1388.3,2632.6 1771.8,2652.3 2012.9,2561.4 1599.3,2541.9 		"/>
	</g>
	<path class="st2" d="M1309,752.6v58.3c2.8,8.3,0,523.1,0,523.1l101.3,23.6l5.6-1.5V735.2L1309,752.6z"/>
	<polygon class="st1" points="1685,759.7 1415.9,735.2 1415.9,1355.9 1685,1281.2 	"/>
	<polygon class="st1" points="1670.3,791 1430.6,769.2 1430.6,1321.9 1670.3,1255.4 	"/>
	<g>
		<path class="st1" d="M1828.6,2143.4c-39.5,158.2-220.6,181.1-220.6,181.1s-16.4,39.5,4.9,72.8c17.9-7.2,37.3-5.4,58.1-9.6
			c5.8-2.9,8.8-8.8,14.6-11.7c8.8-2.9,17.5,2.9,26.3,0c35-23.4,75.9-26.3,110.9-46.7c46.7-26.3,110.9-40.9,122.6-87.6
			c32.1-140.1-2.9-280.3-8.8-420.4c0-26.3,26.3-49.6,49.6-35c18.4,9.2,35.1,20.2,50,33c0.7-55.9,1.6-134.2,2.9-244.1
			C1804.3,1633.6,1868.2,1985.3,1828.6,2143.4z"/>
		<path class="st2" d="M1936.7,1821.4c5.8,140.1,40.9,280.3,8.8,420.4c-11.7,46.7-75.9,61.3-122.6,87.6
			c-35,20.4-75.9,23.4-110.9,46.7c-8.8,2.9-17.5-2.9-26.3,0c-5.8,2.9-8.8,8.8-14.6,11.7c-20.9,4.2-40.3,2.4-58.1,9.6
			c8,12.5,21.4,24.2,43,32.5c104.1-15.4,249.7-74.1,320.5-170.6c70.8-96.4,58.3-301.1,58.3-301.1s0,0,1.6-138.8
			c-14.9-12.8-31.5-23.8-50-33C1963,1771.8,1936.7,1795.1,1936.7,1821.4z"/>
		<path class="st1" d="M2132.8,1527.4c0,0-57.9,35.9-93.6,47.9c-35.8,12-98.9,252.5-68.3,402.3c30.5,149.8,45.8,409.3,31.9,466.2
			c306.6,87.4,500.9,33,500.9,33s-22.2-338.5-11.4-527.9s0.3-330.9-62.1-373.6c-62.4-42.7-161.3-90.5-161.3-90.5L2132.8,1527.4z"/>
		<path class="st4" d="M1968,2478.4l567.8,31.2c-21.5-109.5-27-417-46.5-492.1c-22-84.3-54-78.7-54-78.7c-23.9,0-66.2-87.4-70.4-136
			c-4.1-48.5,50.6-249.4,50.6-249.4l-1.9-1.5l-20-16.2c0,0-60.7,199.1-100.2,229.6c-39.6,30.5-232.4,34-247-14.6
			c-11.3-37.5,14.7-141.8,26.7-188.9c0.8-3.3,5.8-2.3,6.5-5c2.2-8.5-4.3-13-4.3-13l-32.1,11.3c0,0-34.6,110.6-47.1,182.5
			c-12.5,71.8-73.9,127.6-85,215.4c-11.1,87.7,55.5,156.4,64.6,321.6c1.8,32.9,2.4,61.7,2.1,86.6
			C1977.3,2420,1972.1,2457.5,1968,2478.4z"/>
		<path class="st1" d="M2442.1,1906.5"/>
		<path class="st1" d="M2439.8,1850.5c-7.9,51.8,24.4,217.9,1.3,300.1c-47.8,123-262.9,188.4-350.3,261.2
			c-59,49.2-24.6,68.9,19.7,75.5c132.4-33.2,248.4-100.1,375-152.2c29.2-11.7,61.3-35,73-64.2c55.5-169.3,43.8-341.6,11.7-519.6
			c-8.8-47.3-21.8-93.6-46.5-133.1c-49.9-35.7-106.7-51.6-106.7-51.6"/>
		<path class="st2" d="M2592.4,1704.3c-11.4-36.3-38.9-64.8-68.7-86.1c24.8,39.5,37.8,85.8,46.5,133.1
			c32.1,178.1,43.8,350.3-11.7,519.6c-11.7,29.2-43.8,52.5-73,64.2c-126.6,52.1-242.6,119-375,152.2c21.3,3.2,45,3.3,61.6,2.2
			c65.7-33.7,334.9-96.4,420.2-189.2C2677.7,2207.5,2622.9,1801.4,2592.4,1704.3z"/>
		<path class="st7" d="M2075.6,2444.2c0,0-5.5-22.4,48.6-19.9c54.1,2.5,46.5,56.5,40.9,65.9c-5.5,9.4-109.7,9.8-97.1-28
			C2071.4,2451.8,2075.6,2444.2,2075.6,2444.2z"/>
		<path class="st1" d="M2095,2434.1c0,0-119.7,41.7-146.7,50.7c-27.1,9-73.9,106.7-73.9,112.3s37.4,4,74.4,4.5
			c75.4,1,115-51,136.8-72.8c21.9-21.8,70.8-44,70.8-44s8.3-24.2-8.8-40.3C2130.4,2428.4,2095,2434.1,2095,2434.1z"/>
		<path class="st8" d="M2059.4,1106c0,0-34.2-0.7-29-36.7c5.2-36.1-22.9-46.5,37.5-90.2c60.4-43.7,117.7-46.8,159.3-20.8
			c73.8,0,136.2,3.1,159.1,80.1c22.9,77,46.8,85.3,48.9,98.9s-2.1,26-15.6,26c30.2,12.5,40.6,27.1,22.9,46.8s-6.6,35-31.9,35
			s-78.4,3.8-102.3,0C2284.4,1241.3,2059.4,1106,2059.4,1106z"/>
		<path class="st1" d="M2130.4,1530.9c0,0,80.1,71.8,170.7,11.8c29.1-17.4,13.5-149.5,10.4-183.8c-3.1-34.3,3.5-70.1,3.5-70.1
			s52.7,0,47.2-51.3c-5.5-51.3-29.8-70.8-59.7-36.8c-19.4-6.9-26.4-48.6-71.6-27.4c-45.3,21.2-107.7-21-94.2-52.2
			c13.5-31.2,6.2-113.9-53.4-68.9c-36.8,25-36.1,38.2-36.1,38.2s-56.7,328,106.8,335.1C2158.8,1494.8,2130.4,1530.9,2130.4,1530.9z"
			/>
		<path class="st9" d="M2301,1542.7c-9.8,6.5-19.4,11.4-28.8,15.1c18.7-56.3,39.7-124.7,39.3-199
			C2314.6,1393.2,2330.2,1525.3,2301,1542.7z"/>
		<path class="st8" d="M2467.5,1462.9c-4.4,118.4,5.5,336.5-65.2,360.4c-70.8,23.9-165.7-107.5-157.8-169.5
			c3.2-25.1,14.9-57.7,27.6-96c18.7-56.3,39.7-124.7,39.3-199c0.2-7.1-0.2-13.8-0.8-20c0-26.9,4.3-50.1,4.3-50.1s47.4,0,47.6-43.7
			h48.2C2410.6,1245.1,2471.9,1344.5,2467.5,1462.9z"/>
	</g>
	<g>
		<polygon class="st1" points="1039.9,2170.5 1632.3,2210.7 1771,2671.4 1753.9,2683.5 1180,2635.3 1022.7,2182.7 		"/>
		<polygon class="st1" points="1022.7,2182.7 1615.2,2222.9 1753.9,2683.5 1162.9,2647.5 		"/>
		
			<ellipse transform="matrix(0.901 -0.4338 0.4338 0.901 -909.3909 830.964)" class="st2" cx="1366" cy="2408" rx="34.3" ry="41.2"/>
	</g>
	<g>
		<path class="st2" d="M2915,2682.4v-290.3l-56.2-122.8c-4.7-2.7-9.4-4.9-14.1-6.8c80.4,133,55.1,296.5,15.1,447.5
			C2885.5,2705.3,2906.6,2696.1,2915,2682.4z"/>
		<path class="st1" d="M2844.6,2262.6c-25.8-10.4-51.6-9.2-77.4,6.8l-51,119.7l9.4,304.9c30.4,19.2,89.4,24.5,134.2,16.2
			C2899.7,2559,2925.1,2395.5,2844.6,2262.6z"/>
		<path class="st2" d="M2996.1,2146.2c19.5-16.7,75-44.1,79.8-51.3c20.1-40.7-35-91.1-78.4-66.6c40.8-36.7-1.1-123.7-65.9-76.3
			c38.3-63.5-55.4-56.4-86-36.1c22.8-67.4-82.2-60.5-55.5,9.7c-11.3-14.9-28.5-25.5-55.5-22.2c-30.7-0.3-54.9,10.2-71.5,26.3
			c13-2.4,27.3-1.7,38.4-0.3c40.9,5.8,75.9,52.5,102.2,67.1c40.9,14.6,125.5-35,148.9,20.4c8.8,20.4-23.4,55.5,8.8,81.7
			c17.5,14.6-29.2,32.1-35,55.5c0,11.7,17.5,23.4,11.7,38c-2.9,5.8-14.6,5.8-20.4,11.7c-11.7,17.5,26.3,23.4,14.6,29.2
			c-38,20.4-105.1-26.3-119.7,20.4c-4.2,12-7.8,25.3-10.2,39c11.4,3.9,23.3,6,29.4,1.4c10-8-3.9-27.3,7.6-40.9
			c14.8-13.5,51.8-18.8,54.8,6.9c5.9,37.2,26.4,51.8,55.5,30.5c8.4-7.3,9-15.9,16-16.7c11.2,2.3,22,17.7,41.6,11.1
			c39.1-18.3,12.1-72.1-12.5-83.9c-11.4-2.5-18.9,7.2-26.4,2.8c-5.7-3.4-8.1-13.1-4.9-17.3c3-4,9.1-1,26.4-0.7
			c18.5,0.3,21.2-3,31.2,0C3114.9,2240.5,3100.2,2119.8,2996.1,2146.2z"/>
		<path class="st5" d="M2961.4,2098.8c-32.1-26.3,0-61.3-8.8-81.7c-23.4-55.5-108-5.8-148.9-20.4c-26.3-14.6-61.3-61.3-102.2-67.1
			c-11.1-1.4-25.5-2.1-38.4,0.3c-3.7,3.6-7,7.5-9.9,11.6c-23.6,33-22.3,80.8,10,114.7c-28.8,4.4-66.9,2.5-83.2,16.6
			c-9.7,15.7-16.8,76.2-14.7,100c0,0.4,0.1,0.9,0.1,1.3c13.8,50.8,47.7,64,74.2,68.7c21.5,1.3,28.1-10.6,50.6-15.3
			c31.5-9.5,82,11.1,88.8,54.8c5.3,2.9,14.2,7.2,23.3,10.3c2.4-13.8,5.9-27,10.2-39c14.6-46.7,81.7,0,119.7-20.4
			c11.7-5.8-26.3-11.7-14.6-29.2c5.8-5.8,17.5-5.8,20.4-11.7c5.8-14.6-11.7-26.3-11.7-38C2932.2,2130.9,2978.9,2113.4,2961.4,2098.8
			z"/>
		<path class="st6" d="M2693.3,2174.7c0,0,92.6,35.4,114.5,102"/>
		<path class="st6" d="M2772.4,2074.8c0,0,48.9,126.9,43.2,193.5"/>
		<path class="st6" d="M2855.6,2129.9c0,0-56.9,83.9-61.4,143.9"/>
		<path class="st6" d="M2869.2,2179.5c0,0-42.7,34-41.6,90.5"/>
		<path class="st2" d="M2765.8,2288.5c-9.6-1.9-17.9-8.9-21.7-18.4c-0.5,2.8-0.2,6.3,1.9,10.4c7.3,14.2,35.7,20.1,67.3,20.2
			c25,0.1,47.3-5.8,57.2-14.8C2838.7,2298.6,2800.7,2297.2,2765.8,2288.5z"/>
		<path class="st1" d="M2869.8,2264.1c-10.8-10.8-21.5-4.4-21.5-4.4s-71.8,12.8-96.1,0c0,0-2.1,1.1-4.2,3.2
			C2787.7,2278.5,2832,2280,2869.8,2264.1z"/>
		<path class="st1" d="M2869.8,2264.1c-37.8,15.9-82.2,14.4-121.7-1.2c-1.7,1.7-3.4,4.1-4,7.3c3.8,9.5,12.1,16.5,21.7,18.4
			c34.9,8.7,72.9,10.1,104.7-2.6c6-5.4,7.4-11.8,2.2-18.6C2871.7,2266,2870.8,2265,2869.8,2264.1z"/>
	</g>
	<path class="st2" d="M2233.2,1397.4c0,0-16.8,26.4-79.2,28.1c-0.4,35.8-0.5,49.2-5.7,65.2
		C2177.5,1477.1,2243.7,1468.8,2233.2,1397.4z"/>
	<circle class="st2" cx="3529.4" cy="1566.6" r="128.1"/>
	<circle class="st1" cx="415.5" cy="2865.6" r="226.1"/>
	
		<ellipse transform="matrix(0.232 -0.9727 0.9727 0.232 -2122.7603 4878.8857)" class="st2" cx="2028.4" cy="3783.8" rx="66.6" ry="66.6"/>
	<circle class="st1" cx="3670" cy="2514.6" r="140.6"/>
</g>
</svg>
