<?xml version="1.0" encoding="utf-8"?>
<!-- Generator: Adobe Illustrator 22.0.0, SVG Export Plug-In . SVG Version: 6.00 Build 0)  -->
<svg version="1.1" id="Layer_1" xmlns="http://www.w3.org/2000/svg" xmlns:xlink="http://www.w3.org/1999/xlink" x="0px" y="0px"
	 viewBox="0 0 4000 4000" style="enable-background:new 0 0 4000 4000;" xml:space="preserve">
<style type="text/css">
	.st0{fill:#FFFFFF;stroke:#1A1A1A;stroke-width:2;stroke-linecap:round;stroke-linejoin:round;stroke-miterlimit:10;}
	.st1{fill:none;stroke:#1A1A1A;stroke-width:3;stroke-linecap:round;stroke-linejoin:round;stroke-miterlimit:10;}
	.st2{fill:#1A1A1A;stroke:#1A1A1A;stroke-width:2;stroke-linecap:round;stroke-linejoin:round;stroke-miterlimit:10;}
	.st3{fill:#1A1A1A;}
	.st4{fill:#102140;}
	.st5{fill:#5067EF;stroke:#1A1A1A;stroke-width:2;stroke-linecap:round;stroke-linejoin:round;stroke-miterlimit:10;}
	.st6{fill:#8E9DF4;stroke:#1A1A1A;stroke-width:2;stroke-linecap:round;stroke-linejoin:round;stroke-miterlimit:10;}
	.st7{fill:#14B7DD;stroke:#1A1A1A;stroke-width:2;stroke-linecap:round;stroke-linejoin:round;stroke-miterlimit:10;}
	.st8{clip-path:url(#SVGID_1_);}
	.st9{fill:none;stroke:#FFFFFF;stroke-width:2;stroke-linecap:round;stroke-linejoin:round;stroke-miterlimit:10;}
	.st10{fill:#EB485C;}
	.st11{fill:#D9D9D9;}
	.st12{fill:#ADADAD;}
	.st13{fill:#FFFFFF;}
	.st14{fill:none;stroke:#FFFFFF;stroke-width:3;stroke-linecap:round;stroke-linejoin:round;stroke-miterlimit:10;}
</style>
<g>
	<path class="st0" d="M3043.1,1173.6c-30.9-199.2,22.7-331.6,27.3-461c0.5-14.2,0.5-28.3-0.4-42.5H1245.4
		c-14.1,14-27.7,28.2-40.8,42.5c-235.4,256.7-320.5,552.1-349.4,671.3c37.2,328.6,11.9,587.7-20.2,768.4
		c-43.9,247.3-107.6,387.4-36.4,574.3c5.2,13.6,25.9,65.9,66.6,127.4h2541.6c54.9-133.7,83.5-272.2,89.2-394.3
		c13.1-279.6-91.7-515.1-206.2-772.4C3147.2,1366.8,3074,1372.8,3043.1,1173.6z"/>
	<path class="st1" d="M576.2,1931.9c-256.7,338.6,109.3,1238.9,558.1,1322.4c194,36.1,291.1-101.3,515.6-36.4
		c251.8,72.8,275,287.5,467.1,400.4c368.1,216.4,1228.4-16.5,1462-661.2c185.9-513-94.6-1094.8-351.8-1249.6
		c-22.3-13.4-64.6-35.8-103.1-84.9c-151.4-193.1-15.1-544.9,36.4-679.4C3258.8,686,3347,638.5,3312,548.8
		c-54.7-140.4-334.9-189.4-539.9-163.8c-227.6,28.4-286,139.3-497.4,127.4c-134.2-7.5-174.7-55.8-315.4-103.1
		c-38.9-13.1-560.1-181.8-818.9,54.6c-212.2,193.7-214.1,628.6-78.9,897.8c48.4,96.4,97.9,138.7,84.9,212.3
		C1112.8,1765.3,736.7,1720.1,576.2,1931.9z"/>
	<path class="st0" d="M3496,2459.7c-13.3,284.5-150.6,658-457,853.3c-43.7,27.8-308.8,68.8-837.1,149.6
		c-284.3,43.5-428.7,63.5-537.9-20.2c-118.1-90.6-91.4-209.5-234.6-299.3c-123.9-77.6-188.4-16.4-335.7-84.9
		c-201.2-93.6-284-302.2-295.2-331.6c-71.1-186.9-7.5-326.9,36.4-574.3c32.1-180.7,57.4-439.8,20.2-768.4
		c28.9-119.2,113.9-414.6,349.4-671.3c21.3-23.3,43.9-46.3,67.8-68.8c40.4-38,84.6-74.7,132.8-109.2
		c150.3-107.5,355.1-254.1,602.6-226.5c171.2,19.1,231.9,107,416.5,84.9c174.7-20.9,230.7-112.7,359.9-84.9
		c144,30.9,224.8,177.2,238.6,202.2c25.9,46.9,39.2,90.6,44.7,133.5c3,23.1,3.7,45.9,2.8,68.8c-4.7,129.4-58.2,261.9-27.3,461
		c30.9,199.2,104.1,193.2,246.7,513.6C3404.3,1944.6,3509.1,2180.1,3496,2459.7z"/>
	<path class="st2" d="M3070.4,712.6H1204.6c21.3-23.3,43.9-46.3,67.8-68.8h1795.2C3070.6,666.9,3071.3,689.7,3070.4,712.6z"/>
	<rect x="1338.8" y="712.6" class="st2" width="24.3" height="1810.3"/>
	<rect x="2150.1" y="712.6" class="st2" width="24.3" height="1810.3"/>
	<g>
		<path class="st3" d="M1814.9,1609l47.3,229.8c0,0,23,13.8,92.1,34C1945.8,1762.4,1919,1650,1814.9,1609z"/>
		<path class="st2" d="M1983.5,1638.7c-22.7-83.8-56.4-210.8-133.8-218.4c-77.3-7.6-81.1,20.2-81.1,20.2l36.9,123.3l9.3,45.2
			c104.1,41,130.9,153.4,139.4,263.8c25.5,7.5,57.2,15.8,96.5,24.7C2053.8,1846,2006.3,1722.5,1983.5,1638.7z"/>
		<path class="st0" d="M1443,2466.4c0,0,35-450.2,145.6-562.1c110.5-111.9,215.7-89,215.7-89s204.9-49.9,328.9,144.2
			c124,210.3,141.5,506.9,141.5,506.9l-121.3,40.4L1443,2466.4z"/>
		<path class="st3" d="M1869.8,2220.1c0,0-30.9-33.4,0-71.8c30.9-38.4,31.2-97-6.1-130.3c-37.3-33.4-28.4-51.6-2.8-91.1
			c25.6-39.4-36.1-55.6-36.1-55.6s35.4,20.2,18.2,61.7s-32,80.9,7.8,114.2c39.8,33.4,8.1,79.5-13,110.5c-21.1,31,6.2,63.4,30,67.4"
			/>
		<path class="st0" d="M1747.8,1755.3c-2.1,30.1-3.6,70.6,2.7,75c0,0,71.8,44.5,123.3-18.2c-6.5-29.5-11.5-50.8-15.1-66
			C1826.6,1765.2,1782.5,1768.3,1747.8,1755.3z"/>
		<path class="st2" d="M1750.5,1722.6c0,0-1.4,14.4-2.7,32.6c34.7,13,78.8,10,110.9-9.2c-6.5-26.9-9-34.6-9-34.6L1750.5,1722.6z"/>
		<path class="st3" d="M1615.5,2497.4c-0.6-3.9-0.7-11.3-0.8-21.2c-0.1-69.8,10.2-265.9,10.2-265.9s31.1,188.4,103.8,196.7
			c72.8,8.2,225.1,163.9,404.4,50.4c-103.8,119.6-103.8,119.6-103.8,119.6S1626.3,2572.9,1615.5,2497.4z"/>
		<path class="st3" d="M2139.9,2521.7c-6.7-296.6-94.4-457-94.4-457s28.9,126.6,31.2,152.3c3.8,68.7,24.3,235.2,6.9,297.4
			C2066.1,2576.6,2139.9,2521.7,2139.9,2521.7z"/>
		<path class="st2" d="M1748.6,1778.5c-5.5-22.6,2.8-15.1-2.6-37.7c-0.5-2.1-33.7-37.1-35.8-42.8c-12.9-20.8-19.2-39.1-19.2-39.1
			s-6.4-18.5-10.7-44.3c-1.6-9.3-2.8-19.5-3.4-30.2c16.7-23.9,50.7-58.3,65.7-81.2c10.3-15.8,24.4-37,16.4-56.5
			c-6.3-15.5-20.9-20.4-36.4-20.2c-19.4,0.2-39.3,6.4-54,19.4c-32,28.6-44,78.3-48,119.4c-3.3,34.1,2,67.8,4.4,101.8
			c0.1,1.1,0.1,2.1,0.2,3.2c1.5,25.3,1.1,52.6-4.7,77.3c-4.1,17.4-8.8,34.3-12.3,51.6c-1.2,22.8,0.7,45.5,8.3,67
			c14.2,45.4,22.7,96.4,62.4,127.6c15.6,12.5,44.2,16.4,66.2,8.8c4-23.3,3.8-47.9,3.8-69.2C1749.2,1881.2,1760.8,1829,1748.6,1778.5
			z"/>
		<path class="st3" d="M1679,1993.9c-39.7-31.2-48.2-82.3-62.4-127.6c-7.6-21.5-9.5-44.2-8.3-67c-1.5,7.3-2.8,14.7-3.8,22.2
			c-6.6,50.1-4.9,101.9,8.1,150.9c9.1,34.2,25.8,67.1,52,91c9.3,8.4,21.9,16,33.6,11.8c6-2.1,11.5-5.5,16.3-9.8
			c17.9-15.9,26.5-38.6,30.6-62.6C1723.2,2010.2,1694.7,2006.4,1679,1993.9z"/>
	</g>
	<g>
		<path class="st2" d="M1367.7,1425.9c-75.8,180.4-161.8,330.3-161.8,330.3l-51.7-24.2c0,0-19.9-261.7,25.4-370.4
			C1286.8,1104.9,1443.5,1245.5,1367.7,1425.9z"/>
		<path class="st0" d="M1054.5,1875.7c-64.9-1-66-4.5-66-4.5s-117.6,309.1,36.4,681.4h106.2c-31.5-35.1-52.6-77.9-64.3-124.8
			C1026.4,2242.3,1001.4,2054.3,1054.5,1875.7z"/>
		<path class="st0" d="M1104.3,1876c-19.8,0.1-36.2,0-49.8-0.3c-53.1,178.5-28.1,366.6,12.2,552.1c11.7,46.9,32.9,89.7,64.3,124.8
			h54.9c-44.4-92.4-78.5-187.3-90.9-286.5C1079.2,2136.4,1070.8,2001.7,1104.3,1876z"/>
		<path class="st0" d="M1188.7,2325.7c-22.7-70.9-51.1-139-53.9-209.9c-5.3-78.9-15.4-162.8,10.4-240.2c-15,0.2-28.6,0.3-40.9,0.3
			c-33.5,125.8-25.1,260.5-9.2,390.2c12.4,99.2,46.5,194.1,90.9,286.5h127.1c0,0,2.4-4.2,6.5-12.4
			C1236.8,2521.9,1216,2397.7,1188.7,2325.7z"/>
		<path class="st0" d="M1394.2,2192.3c-0.6,56.5-6,107.4-13.8,151.8c-32.1,0.9-61.2-13.5-82-34.7c-3.7-3.8-7.2-7.9-10.4-12.1
			c-5-6.8-9.8-13.8-14.4-20.7c-79.3-119.9-108.3-261.4-98.1-400c0.1-0.5,0.1-0.9,0.1-1.4c16.9-0.3,35.3-0.7,55.4-1.1
			c-2.6,115.8-1.5,277,122.2,318.3C1368.1,2197.4,1382,2196.8,1394.2,2192.3z"/>
		<path class="st0" d="M1380.3,2344.2c-17.7,101.4-47.7,169.7-60.8,196.1c-82.7-18.4-103.5-142.6-130.8-214.6
			c-22.7-70.9-51.1-139-53.9-209.9c-5.3-78.9-15.4-162.8,10.4-240.2c9.4-0.1,19.3-0.2,29.9-0.4h0.6c0,0.5-0.1,0.9-0.1,1.4
			c-1,12.6-2.7,27.9-2.9,40.1c-2.8,126.2,28.5,250.9,101,359.9c4.7,7,9.4,13.9,14.4,20.7c3.2,4.2,6.6,8.3,10.4,12.1
			C1319.1,2330.7,1348.3,2345,1380.3,2344.2z"/>
		<path class="st0" d="M1288,2010.9c-16.3-42-19.2-91.7-7.1-138c-17.7,0.5-34.3,0.9-49.9,1.2c-2.6,115.8-1.5,277,122.2,318.3
			c14.9,5,28.8,4.4,40.9-0.1c0.4-32.9-0.9-67.8-4.3-104.4C1339.2,2113.8,1304.4,2051.8,1288,2010.9z"/>
		<path class="st0" d="M1305,1954.1c0,36.9,45.4,87.9,73.7,59.6c0.5-0.4,0.9-0.9,1.4-1.4c-7.4-44.9-18-92.1-32.6-141.4
			c-12.6,0.4-24.7,0.8-36.4,1.1C1297.7,1898.1,1302.5,1926.1,1305,1954.1z"/>
		<path class="st0" d="M1378.8,2013.7c-28.4,28.4-73.7-22.7-73.7-59.6c-2.5-28-7.3-56.1,6.1-82.1c-10.4,0.3-20.5,0.6-30.2,0.8
			c-12.1,46.3-9.3,96,7.1,138c16.4,41,51.2,103,101.9,77.1c-2.2-24.4-5.4-49.7-9.7-75.6C1379.7,2012.8,1379.2,2013.3,1378.8,2013.7z
			"/>
		<ellipse class="st4" cx="1168.6" cy="1871" rx="179" ry="31.1"/>
		<path class="st2" d="M1023.2,1871c0,0-284.4-227.8-237.3-369.4c47.2-141.5,246.7,121.3,330.3,353.8
			C1069.1,1888.1,1033.1,1884.9,1023.2,1871z"/>
		<path class="st5" d="M1032.7,1729.7c-17.5-72.9-32-146.2-42.3-221.7c-8.3-60.7-14.9-122.1-14.2-183.4
			c0.4-36.1-0.5-91.9,27.4-119.8c3.4-3.4,7.1-6.3,11.5-8.3c95.7-43.1,200.9,490.6,151,667.9c-47.5,39.2-82.7,23.5-95.2,10.7
			C1057.2,1826.5,1044.3,1778.2,1032.7,1729.7z"/>
		<path class="st6" d="M1224.8,1886.1c0,0,111.2-219.7,37.7-276.3c-73.5-56.6-127.4,121.3-121.3,266.9
			C1187,1907,1224.8,1886.1,1224.8,1886.1z"/>
		<path class="st2" d="M1292.8,1889.4c0,0,113.9-31.7,107.2-117.3c-6.7-85.6-110.5-27.6-138.2,112.6
			C1277.3,1888.8,1292.8,1889.4,1292.8,1889.4z"/>
		<path class="st5" d="M1309.4,1543.3c79.9-7.1,77.6,115.3,21.2,235.6c-56.4,120.3-60,106.5-60,106.5l-37.4,7.8
			C1233.2,1893.1,1229.5,1550.3,1309.4,1543.3z"/>
	</g>
	<g>
		<g>
			<path class="st0" d="M1965.3,2942.4l-301.4,499.9c0,0,0.1,0.1,0.1,0.1c92.5,71,210.3,67.4,416.9,38.2
				c25.4-155.1,79.5-441,161.6-653.7C2091.4,2889.7,1965.3,2942.4,1965.3,2942.4z"/>
			<path class="st2" d="M2637.8,2864.7c70.9,25.5,147.5,17,224.1,5.7c39.7-5.7,70.9-28.4,110.6-45.4
				c79.8-36.1,108.2-121.2,97.9-204.5c-116.2,0-308.9,0-319.5,0c-9,0-285.9,114.2-508.4,206.5c-10.8,27.9-21,57-30.8,87
				c36.3-35.1,80.6-58.7,133.9-60.6C2439.2,2853.3,2549.8,2830.6,2637.8,2864.7z"/>
			<path class="st2" d="M3271.6,2815.5c-28.3-115.3-114.2-195.1-114.2-195.1s-36.2,0-86.9,0c10.3,83.3-18.1,168.5-97.9,204.5
				c-39.7,17-70.9,39.7-110.6,45.4c-76.6,11.3-153.2,19.9-224.1-5.7c-87.9-34-198.6-11.3-292.2-11.3c-53.3,1.9-97.6,25.5-133.9,60.6
				c-64.9,198.4-108.7,431.9-130.8,566.7c37.3-5.3,77.5-11.4,121-18c85.1-13,163.4-25,235-36.1l34.9-44.8
				c89.9-68.8,108.2-197.2,108.2-197.2s89,45.5,253.9,48.5C3280.9,3254.3,3299.9,2930.8,3271.6,2815.5z"/>
			<path class="st2" d="M2580,3184.6c29.7-59.3,36.8-78.9,21.3-146.6c0,0,347.7,200.2,552,21.2c204.2-179,0-412.5,0-412.5l18.1-11.8
				c0,0,211.1,201.7,60.1,439.9S2662.9,3248.3,2580,3184.6z"/>
		</g>
		<path class="st7" d="M2446.6,2299.9c-14-41.3-26.4-80.5-36.3-115.3"/>
		<path class="st5" d="M3022.9,1901.6c-22.9-60.7-55.3-106.7-91.2-141.4c-109.8-106.4-251.9-108-251.9-108
			c-52.4-6.4-214.3,66.1-266.2,114.6c-5.1,4.7-9.7,10.3-13.9,16.6c0,0-0.1,0.1-0.1,0.1c-38.7,58.2-40.4,180.9-7.6,330.5
			c4.4,20.2,10.6,44.2,18.3,70.7l36.3,115.3c3.8,11.4,7.8,22.9,11.9,34.5c7.8,22.3,16,45,24.5,67.7c12.3,33,25.2,66.1,38.2,98.1
			c148.4,4.1,299.5,11.1,434.3-78c70.9-48.2,102.1-119.1,116.3-198.6c6.1-31.2,11.5-61.7,16.6-92
			C3077.5,2071.1,3058.7,1996.8,3022.9,1901.6z"/>
		<path class="st5" d="M3117.9,2342.4c-14.9-53.4-12.3-114.4-29.6-210.7c-5,30.2-10.5,60.8-16.6,92
			c-14.2,79.4-45.4,150.3-116.3,198.6c-134.8,89.1-285.9,82.1-434.3,78c50,122.5,102.7,229.4,137.8,258.8
			c74.8,62.7,440.8-36.4,495.4-91C3208.9,2613.3,3142.2,2429.3,3117.9,2342.4z"/>
		<g>
			<path class="st2" d="M2857,2594.8l-1220.5,823.6c8.2,8.2,17.3,16.2,27.5,24c12.2,9.4,24.8,17.4,38,24.3h11.5l1138.1-770.4
				L2857,2594.8z"/>
			<g>
				<defs>
					<path id="SVGID_3_" d="M2857,2594.8l-1220.5,823.6c8.2,8.2,17.3,16.2,27.5,24c12.2,9.4,24.8,17.4,38,24.3h11.5l1138.1-770.4
						L2857,2594.8z"/>
				</defs>
				<clipPath id="SVGID_1_">
					<use xlink:href="#SVGID_3_"  style="overflow:visible;"/>
				</clipPath>
				<g class="st8">
					<path class="st9" d="M2211.1,3032.4c5.7-11.7,20.6-17.9,32.9-13.8c3.5,9,2.7,19.1-0.2,28.3s-7.8,17.5-12.5,25.9
						c-14.1,25.1-27.1,50.9-38.8,77.3"/>
					<path class="st9" d="M2238.8,3114.5c4.2-7.7,8.5-15.3,12.7-23c4.2-7.5,8.3-15.1,13.5-22c12.7-16.8,30.7-28.7,45.6-43.7
						c12.9-13,23.4-28.3,30.9-45.1c1.6-3.5,2.8-8.1,0-10.7c-1.1-1.1-2.7-1.5-4.3-1.9c-36.2-9.2-76.1-3-107.8,16.9"/>
					<path class="st9" d="M2330.7,3060.5c3.2-21.1,15.8-39.4,28-56.9c24.8-35.6,49.7-71.1,77-104.9c12.7-15.7,26.1-31.2,43.1-42.2
						c4-2.6,8.4-5,13.2-4.8c8.3,0.4,14.4,8.9,14.7,17.2c0.4,8.3-3.5,16.1-7.7,23.3c-11.3,19.1-26,36.2-43.1,50.3
						c-7.6,6.2-15.9,12-25.5,14.2c-1.9,0.4-4,0.6-5.5-0.5c-1.6-1.3-1.8-3.7-1.5-5.7c0.9-7.5,5.1-14.2,9.4-20.4
						c14.7-21.6,32.6-43.7,57.9-49.9c2.2,4-1.2,8.7-4.4,12c-8.3,8.6-16.6,17.1-24.9,25.7"/>
					<path class="st9" d="M2473.4,2963c24.7-30.4,46.5-63.3,64.8-98c5.4-10.2,10.6-20.7,13.4-31.9c1.6-6.4,2.5-12.9,3.3-19.4
						c0.2-1.5,0.4-3.1-0.1-4.6c-0.9-2.8-3.8-4.5-6.5-5.5c-11.9-4.5-25.8-3.5-36.9,2.8"/>
					<path class="st9" d="M2544.7,2918.4c8.1-6.8,16-14.2,21.2-23.4c7.5-13.1,9.1-28.6,13.5-43c3.4-11,8.4-21.4,13.9-31.5
						c6.6-12,13.9-23.7,22.5-34.3c8.3-10.3,17.9-19.6,28.3-27.7c12.3-9.5,26-17.5,35.9-29.5c9.9-11.9,15.2-29.5,7.7-43.1"/>
					<path class="st9" d="M2605.7,2880.8c1.3-15.5,8.2-30,15-44c4.9-10.2,9.9-20.5,17.1-29.3c13.6-16.6,33.9-26.1,50.4-39.9
						c18.6-15.5,32.1-36.2,45.3-56.5c7.4-11.4,14.8-22.9,19.8-35.5s7.3-26.7,4-39.9"/>
					<path class="st9" d="M2676.7,2832.9c-5-12.4,3.3-25.8,11.2-36.6c7-9.5,14-19,22.1-27.5c11.1-11.5,24.2-21,35.1-32.7
						c17.1-18.3,28-41.3,38.2-64.2c4.2-9.5,8.6-19.4,16.8-25.8c8.2-6.4,21.4-7.6,28.2,0.2c2.4,2.7,3.7,6.2,4.5,9.7
						c2.4,10.6,0,21.7-4.5,31.6c-4.5,9.8-11.1,18.5-17.7,27.1c-4.4,5.8-10.2,12.2-17.5,11.4c-1.4-15.2-2.6-31.5,4.7-44.8
						c3.1-5.6,9.7-10.9,15.4-7.9c4.1,2.1,5.3,7.7,3.9,12.1c-1.4,4.4-4.7,7.9-8,11.2"/>
					<path class="st9" d="M2820,2620.1c5.3-0.5,10.7,0.3,15.6,2.5c1.9,0.9,3.8,2,5.1,3.6c1,1.2,1.6,2.6,2.2,4
						c4.1,9.2,7.8,18.7,11,28.2c1.6,4.8,3.1,9.7,6.2,13.8"/>
					<path class="st9" d="M1689.5,3346.7c-9.2,24.8-15.4,50.7-18.4,76.9c-0.9,8-1.1,17.2,4.8,22.7c2.7,2.5,6.4,3.8,10.1,4.1
						c10.5,1,20.3-5.3,28.4-12.2c8.1-6.8,15.8-14.7,25.9-17.9c6.2-2,12.8-2,19.3-1.8c6,0.2,12.7,1.1,16.2,5.9c2,2.6,2.6,6,3.1,9.3
						c1,5.7,2,11.3,2.9,17c1,5.7,1.4,12.9-3.6,15.9"/>
					<path class="st9" d="M1746.7,3326c-9.1,16.8-13.2,36.3-11.7,55.4c30-4.1,51.3-30.7,78.5-44c12.5-6.2,26.4-9.5,40.4-9.6
						c0,7.1-2.6,14.2-7.2,19.7c-6.6,7.9-16.6,12-24,19.1c-4.7,4.4-8.3,9.9-11.8,15.3c-3.1,4.7-6.3,10-5.3,15.5
						c1.1,5.9,6.9,10,12.8,10.9c5.9,0.9,11.9-0.9,17.5-3c9.5-3.6,18.6-8.3,27-14"/>
					<path class="st9" d="M1809.6,3293.5c14.1-0.4,27.2-9.1,41.3-8.9c7.9,0.1,15.5,3,23.2,4.8c26.4,6,53.7-1.5,79.7-9
						c28.3-8.1,56.6-16.2,84.9-24.4c16.2-4.6,34.6-11.3,40.1-27.2"/>
					<path class="st9" d="M2170,3039.7c4.7-2.3,8.7,4.3,9.6,9.5c2.5,15.4,1.5,31.4-2.9,46.3c-3,10.2-7.5,19.9-12,29.5
						c-10.9,23.3-21.8,46.6-32.7,69.9c-7.9,17-16,34.1-27.1,49.1"/>
					<path class="st9" d="M1874.3,3249.6c40.8,8.3,84.7,0.6,120.2-21.1c16.1-9.8,30.9-22.5,48.9-27.7c7.8-2.2,15.9-3,23.9-4.5
						c29.1-5.5,57.3-22.5,70-49.2c5.7-12,8.1-25.2,10-38.3c1.6-10.4,2.9-20.9,4-31.4c0.7-7,0.8-15.3-5-19.4"/>
					<path class="st9" d="M2132.6,3069.3c-2.9,16.6-5.8,33.4-12.9,48.6c-9.1,19.2-24.3,34.7-39.9,49.1c-10.3,9.5-21.2,19-34.5,23.3
						c-9.1,3-18.7,3.4-28.3,3.3c-31.2-0.2-65.7-4.1-90.5,14.8"/>
					<path class="st9" d="M1975.5,3168.8c24.4,1.7,50.6,2.9,71.5-9.7c14.2-8.5,24.2-22.5,33.8-36c7.8-11,15.9-23.3,14.2-36.6
						c-1.6-12.4-11.3-22-20.4-30.5"/>
				</g>
			</g>
			<path class="st0" d="M779.4,2466.4c0,0-2.9,5.4-8.2,15.1c-9.6,81.9-5.6,158.5,27.4,245.2c11.2,29.4,94,238,295.2,331.6
				c147.3,68.5,211.8,7.3,335.7,84.9c130.8,82,119.8,188.4,207.1,275.2L2857,2594.8L779.4,2466.4z"/>
			<path class="st0" d="M1083.4,2734.2c34-11.3,110.6-2.8,99.3-45.4c-2.8-17-36.9-17-59.6-19.9c-51.1-11.3-96.4,0-147.5-8.5
				c-68.9-11.2-136-25.1-203.3-32.1c5,31.8,13.4,64.2,26.3,98.2c1.6,4.3,4.8,12.5,9.7,23.6c59.5-0.4,119.1-6.8,178.6-13.2
				C1018.1,2734.2,1052.2,2742.7,1083.4,2734.2z"/>
			<path class="st0" d="M1313.1,2589.5c28.4,82.3,5.7,204.2,93.6,249.6c226.9,122,490.7,51.1,737.5,73.7
				c113.5-73.7,207.1-161.7,326.2-235.4c114.8-68.9,246.4-80.1,376.6-75.9l10-6.7l-1628.1-100.6
				C1267.2,2516.4,1297.9,2548.5,1313.1,2589.5z"/>
			<path class="st10" d="M2406.5,2220.1c-1.9-8-3.6-13.9-4.7-21.2c0.1,0.7,0.3,1.4,0.5,2.1
				C2403.8,2207.3,2405.2,2213.7,2406.5,2220.1z"/>
			<path class="st10" d="M2415.3,2272.5c-1.3-9-2.8-18.8-4.4-29.6C2412.7,2252.8,2414.2,2262.7,2415.3,2272.5z"/>
			<path class="st5" d="M2399.6,1783.4c-0.4,0.5-2.2,2.7-5.2,6.6c-21.5,28-101.8,140.3-103.5,260.2c-1.8,125,29.3,255-141.6,360.9
				c1.9,1.3,3.8,2.6,5.7,4c-1.9-1.4-3.8-2.7-5.7-4c-18.4,11.5-39.2,22.6-62.7,33.4c-14.2,74.8,22.2,143.6,85.9,131.4
				c63.7-12.1,205.2-51.6,248.7-116.3c27.4-40.8,37.9-66.7,37.2-125.3l-54-197.3 M2175.4,2432.8c-0.1-0.1-0.2-0.2-0.3-0.3
				C2175.2,2432.6,2175.3,2432.7,2175.4,2432.8z M2160.4,2419.2C2160.4,2419.2,2160.4,2419.2,2160.4,2419.2
				C2160.4,2419.2,2160.4,2419.2,2160.4,2419.2C2160.4,2419.2,2160.4,2419.2,2160.4,2419.2z M2170.7,2428.3
				c-0.3-0.3-0.5-0.5-0.8-0.8C2170.1,2427.8,2170.4,2428,2170.7,2428.3z M2165.7,2423.7c-0.3-0.3-0.6-0.5-0.9-0.8
				C2165.1,2423.2,2165.4,2423.4,2165.7,2423.7z M2204.4,2462.7c0.2,0.2,0.4,0.4,0.6,0.6C2204.8,2463.1,2204.6,2462.9,2204.4,2462.7
				z M2209.5,2467.6c0.5,0.5,1,0.9,1.5,1.4C2210.5,2468.5,2210,2468.1,2209.5,2467.6z M2214.8,2472.4c0.6,0.6,1.3,1.1,1.9,1.7
				C2216.1,2473.5,2215.4,2472.9,2214.8,2472.4z M2220.3,2477c0.7,0.6,1.4,1.1,2.1,1.7C2221.7,2478.1,2221,2477.5,2220.3,2477z
				 M2226.1,2481.3c0.7,0.5,1.5,1.1,2.2,1.6C2227.5,2482.4,2226.8,2481.9,2226.1,2481.3z M2232.4,2485.5c0.7,0.4,1.3,0.8,2,1.2
				C2233.7,2486.4,2233,2486,2232.4,2485.5z"/>
			<path class="st2" d="M2092.7,2452.2c0,0-5.6,48.8,9.4,79.5s47.9,42.1,77.5,34.7c29.7-7.4-3.4-90.3-23.9-102.8
				S2104.5,2431,2092.7,2452.2z"/>
			<path class="st0" d="M2104.1,2428.3c0,0,124.1,21.9,99.8,153.3c61.3-14.8,91-28.3,91-28.3s-1.3-168.5-112.6-171.2
				C2109.6,2419.9,2104.1,2428.3,2104.1,2428.3z"/>
			<path class="st0" d="M2164.6,2501.9c-4-19.4-17.8-42.1-60.6-38.7c0,0-104-0.8-152,32.2c-40.6,27.9-53.2,106-51.3,138
				c0.4,5.8,1.2,10.1,2.4,12.3c8.1,14.2,67.3,29,118.9-23.6c51.6-52.6,61.9-70.8,102.3-80c40.4-9.2,40.9-14.3,40.9-14.3
				S2167.5,2515.7,2164.6,2501.9z"/>
		</g>
		<path class="st2" d="M2549.8,1540c5,39.9-29.4,62.2-57.1,84.4c2,10.5,4.7,24.1,7.3,38C2543.8,1640.6,2570.6,1586.7,2549.8,1540z"
			/>
		<path class="st0" d="M2665.6,1651.6c-21.1,0.9-92.3-254.6-97.1-287.9c-3.4-23.5-210.3-13.5-242.6-1.3c-32.4,12.1-30,35.7-30,35.7
			s26.3,157.7,109.2,232.5c42.5,30.3,83.9-25.2,83.9-25.2s1.5,7.6,3.7,18.9c27.7-22.1,62.1-44.5,57.1-84.4
			c20.8,46.7-6,100.5-49.8,122.4c5.3,28.3,10.6,57.6,10.6,63.2c0,11.5,62.7,48.5,72.1,47.9
			C2592.2,1772.8,2688.3,1650.6,2665.6,1651.6z"/>
		<path class="st0" d="M2587.6,1760.1c0,0-79.4-67.1-88-60.2c0,0-1.4,0.8-3.6,2c-13.4,7.6-60.1,34.1-60.1,35.9
			c0,1.8,102.9,73.6,141.6,81.7c4.2,0.9,7.6,1,10.1,0.2C2602.3,1777.7,2587.6,1760.1,2587.6,1760.1z"/>
		<path class="st0" d="M2695.8,1631.3c-21-6.9-45-5.2-45-5.2c-2,22.2-29.3,82.9-72.3,132.4c-12.1,13.1,4.5,67.7,4.5,67.7
			s4.4-2.1,11.9-7.1c23.8-16,79.1-62.5,125.6-171.4C2714.9,1639.7,2705.7,1634.6,2695.8,1631.3z"/>
		<path class="st2" d="M2233.5,1311.6c0,0-8.8,111.2,82.2,103.8c84.3-24.3,84.3-24.3,84.3-24.3s43.8,56,64,35.4
			c33.7,53.6,45.2,74.5,41.1,102.8c-4,28.3-68.8,46.1-86.9,43.6c-18.2-2.5-43.1,29.7-43.1,29.7s24.3,64.9,67.4,55.5
			c43.1-9.4,95.7-31.7,95.7-80.9s-14.2-90.3-25.6-125.4c-11.5-35,0.7-61.3,37.1-55.9c36.4,5.4,31,59.3,15.5,93
			c-8.8,21.6,14.8,62,41.1,62c26.3,0,41.1-40.4,41.1-73.5c0-33-24.3-198.8-59.3-206.3c-35-7.4-61.3-4.7-74.8,23.6
			c-39.1-37.1-84.3-59.3-137.5-32.4C2322.4,1289.3,2251.7,1325,2233.5,1311.6z"/>
		<path class="st5" d="M2886.5,2064.7c124.1,229,45,297.7,14.5,318.6c-30.8,21.2-210.8,59.7-279.6,51.6
			c-68.7-8.1-144.6,27.3-144.6,27.3s-11.1,45.5-0.5,99.1c1.3,6.4,3.1,11.9,5.5,16.7c17.3,35,62.9,27.6,123.4,11.1
			c68.8-18.7,176.9-13.1,238.6-18.2c61.7-5.1,317.6-54.7,339.7-211.3c18.6-131.8-31.4-369.2-170.8-531
			c-39.9-46.3-87.2-86.5-142.2-116.1"/>
		<path class="st0" d="M2626.6,2435.4c0,0,58.5,34.4,43,120.6c-10.1,33.7-10.1,33.7-10.1,33.7l-117.3,19.5c0,0-64,15.5-77.5-68.8
			s13.5-90,49.9-97.6C2551,2435.4,2626.6,2435.4,2626.6,2435.4z"/>
		<path class="st2" d="M2490.7,2467.1c15.4-4.4,78.9,11.1,83.2,62.7c4.4,51.6,2,61.7-20.2,66.4s-67,4.4-74.5-38.8
			C2471.8,2514.3,2475.3,2471.5,2490.7,2467.1z"/>
		<path class="st0" d="M2555.8,2555.8c-1.7-28.3-18.4-59.5-51.9-59.1c0,0-113.9-6.7-165.1,38.4c-51.2,45.2-162.4,137.5-153.7,153
			c0.7,1.3,1.7,2.3,2.9,3.1c12.8,8.6,50.9-12.4,94.2-46.9c8.1,18.9,58,50.6,103.1,31.7c45.2-18.9,100.2-85.2,168.7-98.7
			C2555.6,2570.8,2556.2,2563.4,2555.8,2555.8z"/>
	</g>
	<g>
		<polygon class="st11" points="1851.1,2453.3 1313.5,2422.3 1287.9,2435.4 1818.2,2462.9 		"/>
		<polygon class="st0" points="1888.5,2643 2307,2703 2083.6,2874.2 1821.1,2779 		"/>
		<polygon class="st2" points="1920.2,2682.1 2217.4,2723.2 2080.9,2824.3 1873.9,2787.2 		"/>
		<line class="st9" x1="1929.9" y1="2710.9" x2="2166.2" y2="2748.3"/>
		<line class="st9" x1="1887.3" y1="2744.3" x2="2123.6" y2="2781.7"/>
		<line class="st9" x1="2166.2" y1="2727.6" x2="2056.8" y2="2803.9"/>
		<line class="st9" x1="2111.5" y1="2720.4" x2="2002.1" y2="2796.8"/>
		<line class="st9" x1="2056.8" y1="2713.3" x2="1947.5" y2="2789.6"/>
		<line class="st9" x1="2002.1" y1="2706.1" x2="1892.8" y2="2782.4"/>
		<polygon class="st0" points="2092.7,2909.2 1558.9,2868.8 1535.3,2841.2 2083.6,2874.2 		"/>
		<polygon class="st0" points="1287.9,2435.4 1818.2,2462.9 2050.9,2892.4 1515.7,2849.2 		"/>
		<path class="st2" d="M1625.7,2690.9l10-57.6c1.4-8,11.3-10.9,16.8-4.9l53.6,59c5.8,6.3,1.1,16.5-7.4,16.3l-63.6-1.4
			C1629.1,2702.2,1624.6,2696.8,1625.7,2690.9z"/>
		<polygon class="st2" points="1851.1,2453.3 2083.6,2874.2 2050.9,2892.4 1818.2,2462.9 		"/>
		<polygon class="st2" points="2310.4,2739.4 2307,2703 2083.6,2874.2 2092.7,2909.2 		"/>
	</g>
	<path class="st0" d="M1931.4,1568.9c-6.6-2.8-16.6,1.2-23.2,4.7c0.6-53.8-19.1-119.7-118.9-118.9c-10.4,0.1-19.9,0.9-28.5,2.4
		c0.1,2.8,0,5.5-0.5,8.2c-2.2,13.9-10.1,26.1-17.8,37.8c-15,22.9-49,57.3-65.7,81.2c0.2,3.1,0.4,6.2,0.7,9.3
		c-10.4-5.8-32.2-14.3-36.5,13.6c-4.7,30.5,33.4,40,47.1,42.4c1.6,5.8,2.8,9.1,2.8,9.1s6.3,18.4,19.2,39.1
		c18.3,29.4,49.9,63.8,95.3,57.4c77.5-10.8,92.4-113.4,92.4-113.4s0.8-2.6,2-7.3c3.1-0.7,7.4-1.6,13-2.7
		C1945.1,1622.5,1942.1,1573.5,1931.4,1568.9z"/>
	<path class="st2" d="M1769,1432.7c0,0-13.1,24-1.3,50.8c11.9,26.8,101.9,51.8,101.9,51.8s4.6,4,16.9,13.1
		c12.3,9.1,16.2,37.7,16.2,37.7s20.6-49.9,20.6-57S1836.9,1414.4,1769,1432.7z"/>
	<path class="st2" d="M1742.4,1450.1c0,0,23.3-6.6,24.8,30.8c1.5,37.4-48.1,52.2-64.7,79.7c-16.2,27.5-7.4,50.3-7.4,50.3
		s-19.4-8.2-24.5-35C1665.5,1549.2,1742.4,1450.1,1742.4,1450.1z"/>
	<circle class="st2" cx="3526.2" cy="1369.6" r="119.2"/>
	
		<ellipse transform="matrix(0.7071 -0.7071 0.7071 0.7071 -1610.4767 1017.0803)" class="st0" cx="422.5" cy="2452.6" rx="210.3" ry="210.3"/>
	
		<ellipse transform="matrix(0.7071 -0.7071 0.7071 0.7071 -1512.7952 3308.3735)" class="st2" cx="3237.2" cy="3480.3" rx="61.9" ry="61.9"/>
	<circle class="st0" cx="3657" cy="2833.8" r="130.8"/>
	<g>
		<path class="st12" d="M1131.1,2699.3c0,12.7-61.8,22.9-137.9,22.9c-76.2,0-137.9-10.3-137.9-22.9c0-12.7,61.8-22.9,137.9-22.9
			C1069.3,2676.4,1131.1,2686.6,1131.1,2699.3z"/>
		<path class="st13" d="M1131.1,2690.8c0,12.7-61.8,22.9-137.9,22.9c-76.2,0-137.9-10.3-137.9-22.9s61.8-22.9,137.9-22.9
			C1069.3,2667.9,1131.1,2678.2,1131.1,2690.8z"/>
		<path class="st2" d="M1100.7,2690.8c0,9.9-48.1,17.9-107.5,17.9c-59.4,0-107.5-8-107.5-17.9c0-9.9,48.1-17.9,107.5-17.9
			C1052.5,2673,1100.7,2681,1100.7,2690.8z"/>
		<path class="st0" d="M1077.5,2627.4c0,34.6-41,62.7-91.6,62.7c-50.6,0-91.6-28.1-91.6-62.7c0-6.9,1.6-13.6,4.7-19.9
			c0.3-0.6,0.6-1.2,0.9-1.8c0,0,0.1,0,0.1-0.1c6.4-6.2,42.4-10.9,85.9-10.9c43.5,0,79.5,4.7,85.9,10.9c0,0,0,0,0.1,0.1
			c0.3,0.6,0.7,1.2,0.9,1.8C1075.9,2613.8,1077.5,2620.5,1077.5,2627.4z"/>
		<path class="st0" d="M1072.9,2607.6C1072.9,2607.6,1072.9,2607.6,1072.9,2607.6c0,7.1-38.9,12.8-86.9,12.8
			c-48,0-86.9-5.7-86.9-12.8v-0.1c0-0.6,0.4-1.2,0.9-1.8c0,0,0.1,0,0.1-0.1c6.4-6.2,42.4-10.9,85.9-10.9c43.5,0,79.5,4.7,85.9,10.9
			c0,0,0,0,0.1,0.1C1072.5,2606.3,1072.8,2606.9,1072.9,2607.6z"/>
		<path class="st2" d="M1059.1,2607.6C1059.1,2607.6,1059.1,2607.6,1059.1,2607.6c0,4.3-32.8,7.8-73.2,7.8
			c-40.4,0-73.1-3.5-73.1-7.7v-0.1c0-0.4,0.3-0.7,0.8-1.1c0,0,0,0,0,0c5.4-3.7,35.7-6.6,72.3-6.6c36.6,0,67,2.8,72.3,6.6
			c0,0,0,0,0,0C1058.8,2606.8,1059.1,2607.2,1059.1,2607.6z"/>
		<path class="st0" d="M964.4,2607.6c0,0-172.9-86.3-100.1-200.5c72.8-114.2-105.1-213-117.3-211.2c85.9,29.2,189.9,98.9,149,190.9
			C855.2,2478.9,916.9,2584.7,964.4,2607.6z"/>
		<path class="st0" d="M993.1,2607.6c0,0-106.1-106.3-52.8-290.9c53.3-184.6-193.3-240.5-193.3-240.5s250.6,52.8,231,197.4
			C958.3,2418.2,931.9,2521,993.1,2607.6z"/>
		<path class="st0" d="M1028.1,2607.6c0,0,25.7-64.9-7.6-113.5C1084.7,2545.1,1028.1,2607.6,1028.1,2607.6z"/>
	</g>
	<g>
		<path class="st0" d="M3462.9,825.8h-648.8c-76.2,0-138,61.8-138,138v59.7c0,76.2,61.7,137.9,137.9,138l-32,133.6
			c-4.3,18,18.7,29.3,30.4,15l120.4-148.6h530.2c76.2,0,138-61.8,138-138v-59.7C3600.9,887.6,3539.1,825.8,3462.9,825.8z"/>
		<g>
			<rect x="2865.5" y="1010.6" class="st6" width="44.5" height="99.8"/>
			<rect x="2990.9" y="956.6" class="st6" width="44.5" height="153.7"/>
			<rect x="3116.3" y="1001.1" class="st6" width="44.5" height="109.2"/>
			<rect x="3241.6" y="970.1" class="st6" width="44.5" height="140.2"/>
			<rect x="3367" y="891.9" class="st6" width="44.5" height="218.4"/>
		</g>
		<polygon class="st2" points="3134.1,907.7 3134.1,944.1 3109.8,944.1 3142.7,976.5 3175.5,943.6 3150.8,943.6 3150.8,907.7 		"/>
	</g>
	<line class="st14" x1="837" y1="1537.6" x2="1077.5" y2="1871"/>
</g>
</svg>
