<?xml version="1.0" encoding="utf-8"?>
<!-- Generator: Adobe Illustrator 22.0.0, SVG Export Plug-In . SVG Version: 6.00 Build 0)  -->
<svg version="1.1" id="Layer_1" xmlns="http://www.w3.org/2000/svg" xmlns:xlink="http://www.w3.org/1999/xlink" x="0px" y="0px"
	 viewBox="0 0 4000 4000" style="enable-background:new 0 0 4000 4000;" xml:space="preserve">
<style type="text/css">
	
		.Graphic_x0020_Style_x0020_27{fill:#1A1A1A;stroke:#1A1A1A;stroke-width:2;stroke-linecap:round;stroke-linejoin:round;stroke-miterlimit:10;}
	
		.Graphic_x0020_Style_x0020_26{fill:#FFFFFF;stroke:#1A1A1A;stroke-width:2;stroke-linecap:round;stroke-linejoin:round;stroke-miterlimit:10;}
	
		.Graphic_x0020_Style_x0020_21{fill:#5067EF;stroke:#1A1A1A;stroke-width:2;stroke-linecap:round;stroke-linejoin:round;stroke-miterlimit:10;}
	
		.Graphic_x0020_Style_x0020_35{fill:none;stroke:#1A1A1A;stroke-width:3;stroke-linecap:round;stroke-linejoin:round;stroke-miterlimit:10;}
	
		.Graphic_x0020_Style_x0020_36{fill:none;stroke:#FFFFFF;stroke-width:2;stroke-linecap:round;stroke-linejoin:round;stroke-miterlimit:10;}
	.st0{fill:#1A1A1A;stroke:#1A1A1A;stroke-width:2;stroke-linecap:round;stroke-linejoin:round;stroke-miterlimit:10;}
	.st1{fill:#8E9DF4;stroke:#1A1A1A;stroke-linecap:round;stroke-linejoin:round;stroke-miterlimit:10;}
	.st2{fill:none;stroke:#1A1A1A;stroke-width:2;stroke-linecap:round;stroke-linejoin:round;stroke-miterlimit:10;}
	.st3{fill:#FFFFFF;stroke:#1A1A1A;stroke-width:2;stroke-linecap:round;stroke-linejoin:round;stroke-miterlimit:10;}
	.st4{fill:#5067EF;stroke:#1A1A1A;stroke-width:2;stroke-linecap:round;stroke-linejoin:round;stroke-miterlimit:10;}
</style>
<g>
	<path class="Graphic_x0020_Style_x0020_26" d="M539,3067.3c-5.2-46.8-11.7-166.8,62.5-273.9c100.8-145.7,309.2-207.9,516.6-146.6
		c32.7-44.6,228.9-303,583.8-343.6c273.8-31.3,478,85.7,540.6,124.9c101.3-45.7,268.4-104.8,480.5-108.1
		c343-5.4,593.6,138.4,694.4,204.2c137.2-86.2,226.4-59.2,245.1-52.9c147.9,50.5,246.8,304.6,158.6,615.1
		C2727,3080.1,1633,3073.7,539,3067.3z"/>
	<g>
		<g>
			<path class="st0" d="M779.3,3047.4c107.8,3.8,142.2,28.4,172.8,6.3c19.1-13.8,32.2-42.6,23.5-65.8
				c-10.8-28.8-49.4-34.3-51.3-34.6c100.5-2.6,169.2-39.2,173.2-78.1c1.9-18.5-9.8-47.5-34.2-63.2c-19-12.3-38.9-12.1-47.2-11.5
				c84.5-41.7,135.4-92,126.4-123.7c-3.5-12.5-18.8-30.8-40.7-36.1c-17.8-4.3-33.1,1.7-39.2,4.6c44.8-39,51.9-91.2,31.5-115.1
				c-12.7-14.8-36.7-19.5-56.3-14.5c-27.3,6.9-47.7,33.1-49.1,64.9c-0.6-2.8-10.8-44.9-38.2-51.2c-29.9-6.8-60.8,33.3-69.7,66.4
				c-8.9,32.9,3.3,61.4,8.1,71.3c-1.8-4.2-19.9-44.4-51.3-47.2c-43.1-3.8-69.6,66.4-71.2,70.9c-23.4,64.3,14,126.3,21.8,138.6
				c-36.2-27.6-78.5-32.9-103-14.9c-30.6,22.5-22.1,73-17.5,100.5c11.3,67,55.7,111.4,80,132
				C754.6,3046.9,765.7,3046.9,779.3,3047.4z"/>
			<path class="Graphic_x0020_Style_x0020_36" d="M1050.2,2567c-34.3,45.8-62.8,96-84.7,148.9c-31.4,76.2-50.1,159.9-101.8,224.1
				c-15.8,19.5-34.2,36.7-52.6,53.8c-21,19.5-42.4,39.3-68.3,51.6"/>
			<path class="Graphic_x0020_Style_x0020_36" d="M796.9,3006.9c1.7-3.7,5.9-69.9-74.9-115.2"/>
			<path class="Graphic_x0020_Style_x0020_36" d="M921.6,2835.2c2.6-28.1-13.3-54.3-29.6-77.3c-16.3-23-34.4-46.8-37.3-74.8"/>
			<path class="Graphic_x0020_Style_x0020_36" d="M956.4,2741.4c3.8-14.9,19-24.2,34-27.4c15-3.2,30.6-1.7,45.9-3.5
				c15.3-1.8,31.4-7.8,39-21.1"/>
			<path class="Graphic_x0020_Style_x0020_36" d="M981.6,2681c2.1-4.2,4.3-8.4,5-13c1.1-6.9-1.2-13.9-3.9-20.4
				c-5.6-13.3-13.4-25.6-19.4-38.7c-6-13.1-10.2-27.7-8.1-42"/>
			<path class="Graphic_x0020_Style_x0020_36" d="M883.6,2913.5c7.9-8.3,15.8-16.7,25.5-22.8c18.5-11.7,41.3-13.8,63.1-16.6
				c21.8-2.7,44.7-7,61-21.7"/>
			<path class="Graphic_x0020_Style_x0020_36" d="M910.6,2994.9c-10.6-11.6-25.1-19.6-40.6-22.2c-15.5-2.6-32.9,2.1-46.7,9.7"/>
		</g>
		<g>
			<path class="st1" d="M581.9,2798.8c-87.8-62-131.3-63.4-140.8-99.3c-6-22.4,2.7-53,24.9-66.1c27.5-16.2,61.8,2.7,63.4,3.6
				c-77.7-62.7-107.9-133-85.3-166.1c10.7-15.7,39.2-31.5,68.9-29.2c23.2,1.8,38.7,13.9,45,19.4c-39.3-83.9-46.3-154.3-18.2-173.9
				c11-7.7,35.3-13,56.1-3.9c16.9,7.4,25,21.3,28,27.2c-9.7-57.8,19.3-103.3,51.2-109.8c19.8-4,41.9,6.8,54.1,22.5
				c17,21.9,15.9,54.9-4,80.8c2.3-1.8,38.2-28.9,64.1-17.3c28.2,12.7,26.1,63,11.2,94.4c-14.8,31.3-43.3,46.5-53.6,51.4
				c4.2-2.2,45-23,71.7-6.2c36.7,23,11.1,94.4,9.4,98.9c-24,64.8-94.6,91.2-108.9,96.2c46.9,0.1,83.8,21.4,91.3,50.4
				c9.4,36.2-30.8,70.9-52.6,89.8c-53.3,46-117.7,54.3-150.6,55.8C601.8,2813.3,593,2806.6,581.9,2798.8z"/>
			<path class="st2" d="M685.4,2256.3c-3.2,56.8-13.8,113.6-31.5,168.5c-25.5,79.1-66.1,156.4-67.7,238.2c-0.5,24.9,2.8,49.6,6,74.2
				c3.7,28.1,7.5,56.6,19.9,82c11.5,23.5,29.9,43.2,51.4,58.7"/>
			<path class="st2" d="M593.6,2754.8c1.1-3.9,3.8-7.2,6.6-10.2c17-17.7,41.9-25.9,65.9-31.7s49-10.4,70.1-23.2"/>
			<path class="st2" d="M609.6,2545.5c16.5-23.7,46.4-34.8,74.6-43.1c28.1-8.3,58.2-16.1,79-36.5"/>
			<path class="st2" d="M644.3,2450.5c6.9-14,1-30.6-8.8-42.1s-23.1-19.9-34-30.5c-10.9-10.6-19.6-25.1-16.9-40.2"/>
			<path class="st2" d="M664.2,2387.7c1.1-4.6,2.2-9.2,4.6-13.3c3.7-6.1,10.1-10.3,16.6-13.7c13.3-7.1,27.6-12.1,41-18.8
				c13.4-6.8,26.4-15.7,34.2-28.2"/>
			<path class="st2" d="M588,2630.2c-0.7-11.3-1.4-22.7-5.1-33.4c-6.9-20.4-23.5-35.8-39-51.1c-15.4-15.3-30.7-32.5-33.9-53.9"/>
			<path class="st2" d="M512.8,2678.1c16.1-2.8,32.8-0.3,46.8,7c14,7.3,25.1,19.4,31,33.7"/>
		</g>
		<g>
			<path class="Graphic_x0020_Style_x0020_26" d="M704.1,2957.7c-9.6-125.3,14.3-168.4-15.3-200.9c-18.5-20.3-53.5-31.8-79.3-18.6
				c-31.9,16.2-33.3,61.7-33.4,63.9c-16.2-116-67.5-190.9-113.1-190.4c-21.6,0.2-53.7,17.6-68.8,47.9c-11.7,23.6-8.9,46.6-7.1,56.2
				c-59.3-92.4-124.2-144.8-159.8-130.2c-14,5.7-33.2,25.8-36.5,51.9c-2.6,21.2,6.3,38.1,10.4,44.8c-51-46.8-112.5-48.2-137.4-21.4
				c-15.5,16.6-17.7,45.1-9.4,67.1c11.6,30.7,44.5,50.9,81.5,48.4c-3.1,1.1-50.6,18.3-54.3,51c-4,35.6,46.5,66.1,86,72.1
				c39.3,6,70.7-11.9,81.5-18.7c-4.6,2.7-48.8,28.8-47.9,65.6c1.2,50.5,86,71.9,91.4,73.2c77.5,18.7,144.4-32.7,157.7-43.3
				c-27.2,45.6-27.8,95.2-3.8,121.2c30,32.5,87.5,16,118.7,7.1c76.1-21.9,121.8-79.1,142.4-110
				C706.7,2986.4,705.3,2973.6,704.1,2957.7z"/>
			<path class="st2" d="M112.2,2706.8c57.6,33.7,119.4,60.2,183.5,78.6c92.4,26.4,191.8,37.1,272.8,88.6
				c24.7,15.7,47,34.8,69.2,53.9c25.4,21.7,51.1,44,68.7,72.3c16.3,26.3,27.3,23.2,29.8,54.1"/>
			<path class="st2" d="M654.8,2942.7c-4.5-1.5-81.7,2.3-123.6,101.8"/>
			<path class="st2" d="M439.7,2820.6c-32.9,0.7-61.2,22.5-85.7,44.4c-24.5,21.9-49.7,46-81.8,53"/>
			<path class="st2" d="M326.5,2792.7c-17.7-2.4-30.6-18.8-36.2-35.8c-5.6-17-6-35.3-10.1-52.7s-13.2-35.3-29.6-42.4"/>
			<path class="st2" d="M253.2,2771.4c-5.1-1.9-10.3-3.9-15.8-4.1c-8.2-0.3-16,3.2-23.1,7.2c-14.7,8.3-27.9,18.9-42.3,27.6
				c-14.4,8.7-30.7,15.5-47.5,14.9"/>
			<path class="st2" d="M535.3,2854.4c-10.7-8-21.4-16.1-29.8-26.5c-16-19.9-21.4-46.1-27.4-70.9s-13.9-50.9-33.1-67.8"/>
			<path class="st2" d="M626,2812.5c-12.1,13.8-19.4,31.7-20.4,50c-1,18.3,6.8,37.8,17.3,52.8"/>
		</g>
	</g>
	<ellipse class="st3" cx="2071.2" cy="3151.6" rx="1802.1" ry="173.2"/>
	<ellipse class="st3" cx="3119.2" cy="3153.3" rx="496" ry="68.7"/>
	<ellipse class="st3" cx="1280.1" cy="3153.3" rx="496" ry="68.7"/>
	<circle class="Graphic_x0020_Style_x0020_27" cx="3130.4" cy="1868.1" r="22.4"/>
	<g>
		<polyline class="Graphic_x0020_Style_x0020_35" points="873,1949 1198.7,2005 1497.6,2174.1 1756.6,1931.6 2124.2,1931.6 
			2375.9,1634.1 2879.3,1504.6 3115.1,1161.8 3380,1098.1 		"/>
		<circle class="Graphic_x0020_Style_x0020_27" cx="870.3" cy="1949" r="15.8"/>
		<path class="Graphic_x0020_Style_x0020_27" d="M1215.9,2004.1c0-8.7-7.1-15.8-15.8-15.8c-8.7,0-15.8,7.1-15.8,15.8
			c0,8.7,7.1,15.8,15.8,15.8C1208.8,2019.9,1215.9,2012.8,1215.9,2004.1z"/>
		<circle class="Graphic_x0020_Style_x0020_27" cx="1497.6" cy="2174.1" r="15.8"/>
		<path class="Graphic_x0020_Style_x0020_27" d="M1769.3,1934.9c0-8.7-7.1-15.8-15.8-15.8c-8.7,0-15.8,7.1-15.8,15.8
			c0,8.7,7.1,15.8,15.8,15.8C1762.2,1950.7,1769.3,1943.6,1769.3,1934.9z"/>
		<circle class="Graphic_x0020_Style_x0020_27" cx="2122.4" cy="1931.8" r="15.8"/>
		<path class="Graphic_x0020_Style_x0020_27" d="M2390.9,1634.1c0-8.7-7.1-15.8-15.8-15.8c-8.7,0-15.8,7.1-15.8,15.8
			c0,8.7,7.1,15.8,15.8,15.8C2383.9,1649.9,2390.9,1642.8,2390.9,1634.1z"/>
		<path class="Graphic_x0020_Style_x0020_27" d="M3130.3,1163.5c0-8.7-7.1-15.8-15.8-15.8c-8.7,0-15.8,7.1-15.8,15.8
			c0,8.7,7.1,15.8,15.8,15.8C3123.2,1179.3,3130.3,1172.2,3130.3,1163.5z"/>
		<path class="Graphic_x0020_Style_x0020_27" d="M3395.2,1099c0-8.7-7.1-15.8-15.8-15.8c-8.7,0-15.8,7.1-15.8,15.8
			c0,8.7,7.1,15.8,15.8,15.8C3388.2,1114.8,3395.2,1107.7,3395.2,1099z"/>
	</g>
	<g>
		<path class="Graphic_x0020_Style_x0020_26" d="M943.8,2153.4c-4.5,6.7,91.8,435.6,223,416.9c87.1-12.4,140.8-392.1,140.8-392.1
			l-127.7-52.5c0,0-40.7,241.4-49.4,273.3c3.5-59.6-157.4-264.4-157.4-264.4L943.8,2153.4z"/>
		<path class="Graphic_x0020_Style_x0020_27" d="M986.8,2146.9c0,0-2.5-19.1-18.6-47.2c-22.3-38.9-49.1-61.1-49.1-61.1
			s-16.5,9.1-14.5,13.6c25.5,39.7,11.3,46.4,11.3,46.4s-24.1-3.5-58.2,12.2c-24.7,11.4-65.4,69-65.4,69s6.4,13,40.5-2.7
			c34.1-15.7,75.6-41.3,91.9-28.5c16.3,12.8,21.7,22.4,21.7,22.4L986.8,2146.9z"/>
		<path class="Graphic_x0020_Style_x0020_26" d="M1486.3,2208.6l-106.8,809.2l-32.5,11.4c0,0-63.7-293-22.5-420.5
			c-6.5-142.6-9.3-300.4-2-364.8C1405.6,2148.9,1486.3,2208.6,1486.3,2208.6z"/>
		<path class="Graphic_x0020_Style_x0020_27" d="M1341,3008.2c0,0-8.8,17.2-11.5,49.4c-3.8,44.7,5.6,78.2,5.6,78.2
			s18.7,1.9,19.7-2.9c1.7-47.1,17.2-44.6,17.2-44.6s17.8,16.6,54.8,23.1c26.8,4.7,93.1-19.5,93.1-19.5s2.1-14.3-34.9-20.8
			c-37-6.5-85.7-9-91.8-28.8c-6.1-19.8-5-30.8-5-30.8L1341,3008.2z"/>
		<path class="Graphic_x0020_Style_x0020_27" d="M1207.1,1790.2c0,0-105.7,272.3-60.7,460.6c224.3,135.2,338,58.5,337.8,52.3
			c-0.2-6.2,115.1-434.8,38.9-494.6C1268.6,1797.4,1207.1,1790.2,1207.1,1790.2z"/>
		<path class="Graphic_x0020_Style_x0020_27" d="M1278,1176.3c0,0-84.8,6.6-63.7,132.7s37.7,198.5,6.7,231.4
			c-31,32.9-95,77.3-55,148.5c40,71.2,308-88.9,295.5-197.5c-12.5-108.6-55-152.6-64.8-206.8c-9.8-54.2-4.3-73.8-27.5-101.5
			S1283.4,1151.5,1278,1176.3z"/>
		<path class="st3" d="M1286.6,1445.5c0,0,47.3-22.1,68.9-30.1c21.6-8,71.5-0.6,71.5-0.6l48.8,422.6c0,0-111.6,57.8-215.7-8.4
			C1252,1767.8,1286.6,1445.5,1286.6,1445.5z"/>
		<path class="Graphic_x0020_Style_x0020_26" d="M1311.3,1368.9c0,0,21.5,51.6,2,67c40.9,40.1,89.7-1.7,95.8-17.7
			c-22.3-9.5-31.5-60-31.5-60"/>
		<path class="Graphic_x0020_Style_x0020_21" d="M1305.9,1427.9c0,0,117.8,236.9,4.2,387.4s-197.4,74.5-197.4,74.5
			s150.2-254.5,113.7-340.9C1189.9,1462.6,1305.9,1427.9,1305.9,1427.9z"/>
		<path class="Graphic_x0020_Style_x0020_21" d="M1403.6,1415.4c0,0-18.6,384,59.1,456.4c77.6,72.4,133.5,17.6,133.5,17.6
			s-89.3-388.7-89.1-457.9C1507.2,1362.3,1403.6,1415.4,1403.6,1415.4z"/>
		<path class="st3" d="M1084.9,1136.7c0,0,12.4-10.7,9-30.5c-3.4-19.8-31.1-60.5-20.3-65.6c10.7-5.1,23.2,31.1,28.8,31.1
			c5.7,0,59.9-51.4,65-48.6c5.1,2.8-18.7,30.5-26,37.3c22.6,14.1,41,36.7,26.7,57.1s-27.8,11.3-33.5,19.2c-5.7,7.9-22,37.9-22,37.9
			L1084.9,1136.7z"/>
		<path class="Graphic_x0020_Style_x0020_21" d="M1231,1624.3c0,0,9.6-77.7-81.6-94.8c-133.8-25-138.9-55.3-135.5-139.6
			c2.6-63.8,66.8-257.9,66.8-257.9c23.7-1.6,42.6,6.2,54.6,27.8c0,0-50.5,175.9-49,245.4c8.1,19.6,138.7,39.1,138.7,39.1
			s54.2-0.1,80.9-16.5"/>
		<path class="Graphic_x0020_Style_x0020_21" d="M1507.9,1625.2c-15.5-15.2-77-116.1-77-116.1c-16.5-11.8-31-8.4-43.7,9.7
			c0,0,87.9,252.4,160,228.5c83-27.6-29.6-333.2-29.6-333.2s-14.9-14.7-42.4-17.9"/>
		<path class="Graphic_x0020_Style_x0020_26" d="M1248.6,1238.3c0,0,8.2,170.8,100.8,148.4c92.6-22.5,13.2-173.7,13.2-173.7
			l-36.3,8.1L1248.6,1238.3z"/>
		<path class="Graphic_x0020_Style_x0020_27" d="M1319.2,1199.2c0,0,24.1-2.1,8.6,44.8c-15.5,47-67.2,73.4-64.3,97.5
			c-17.1-18.9-39.5-101.9-11.2-120.9C1280.7,1201.7,1319.2,1199.2,1319.2,1199.2z"/>
		<path class="st0" d="M1326.3,1201.6c0,0,5.5,27.3,29.9,33.9c24.4,6.6,29,13.1,29,13.1s2.3-36.2-21.9-44.9
			C1339.2,1194.9,1326.3,1201.6,1326.3,1201.6z"/>
		<path class="st3" d="M1395.9,1522.7c0,0-27-25.1-25.1-40c1.9-14.9,37.1-41.1,44.7-45.5c7.6-4.4,14.4,23.6,12.4,37.6
			c-2,14-0.4,34.7,4.8,45.2C1417.6,1530.6,1395.9,1522.7,1395.9,1522.7z"/>
	</g>
	<circle class="st0" cx="510" cy="1845.7" r="62.1"/>
	<circle class="Graphic_x0020_Style_x0020_26" cx="306" cy="2435" r="40.3"/>
	<circle class="Graphic_x0020_Style_x0020_27" cx="3873.3" cy="2465.2" r="77"/>
	<g>
		
			<ellipse transform="matrix(0.7071 -0.7071 0.7071 0.7071 -188.6791 1757.9917)" class="Graphic_x0020_Style_x0020_21" cx="2027.7" cy="1106.8" rx="431.6" ry="431.6"/>
		<circle class="Graphic_x0020_Style_x0020_26" cx="2027.7" cy="1106.8" r="360.5"/>
		
			<ellipse transform="matrix(0.7071 -0.7071 0.7071 0.7071 -188.6791 1757.9917)" class="Graphic_x0020_Style_x0020_21" cx="2027.7" cy="1106.8" rx="289.3" ry="289.3"/>
		<circle class="Graphic_x0020_Style_x0020_26" cx="2027.7" cy="1106.8" r="218.2"/>
		
			<ellipse transform="matrix(0.7071 -0.7071 0.7071 0.7071 -188.6791 1757.9917)" class="Graphic_x0020_Style_x0020_26" cx="2027.7" cy="1106.8" rx="147.1" ry="147.1"/>
		
			<ellipse transform="matrix(0.7071 -0.7071 0.7071 0.7071 -188.6791 1757.9917)" class="Graphic_x0020_Style_x0020_21" cx="2027.7" cy="1106.8" rx="76" ry="76"/>
		<polygon class="Graphic_x0020_Style_x0020_27" points="2563.3,754.7 2501.7,799.9 2454,807.1 2523.3,756.7 		"/>
		<path class="st3" d="M2027.7,1106.8l487.8-360.5l11.6,8.5l-491.3,362C2026.5,1118.1,2020.2,1117.4,2027.7,1106.8z"/>
		<path class="Graphic_x0020_Style_x0020_27" d="M2454,799.9c0,0,15.2-44.4,17.6-45.2c2.4-0.8,63.7-50.1,63.7-50.1l-19.2,47.7
			L2454,799.9z"/>
	</g>
	<g>
		<path class="Graphic_x0020_Style_x0020_27" d="M3471.4,2670.7l104.7,56.6c0,0-1.7,70.4-24,84.1c-24-3.4-24-3.4-24-3.4
			s-49.8,157.9-90.9,159.6c-29.2-20.6,0-193.9,0-193.9l-13-30.9L3471.4,2670.7z"/>
		<path class="Graphic_x0020_Style_x0020_27" d="M3024,3012.8l22.4,116.9c0,0-55.6,43.2-80.3,34.6c-12.5-20.8-12.5-20.8-12.5-20.8
			s-153.7,61.4-181.1,30.5c-2.5-35.6,150.2-122.7,150.2-122.7l15.7-29.6L3024,3012.8z"/>
		<path class="Graphic_x0020_Style_x0020_26" d="M2856.7,1929.8c0,0-78.7,439.5,46.1,551.3s504.1,276.5,504.1,276.5
			c45.8-11.7,77.8-40.7,84.7-101.3c0,0-447.7-231.9-453.1-312.7c-5.4-80.8-2.7-346.3-2.7-346.3L2856.7,1929.8z"/>
		<path class="Graphic_x0020_Style_x0020_26" d="M2940.8,2025c41.9-47.6,260.5-41.2,260.5-41.2s84.1,72,13.6,315.2
			c-70.5,243.2-170.9,735.5-170.9,735.5h-133c0,0-6.1-611.9,8.1-902.6"/>
		<path class="Graphic_x0020_Style_x0020_27" d="M2837.6,1994.6l5,37.7c0,0,166.6,44.7,247.9,33.3c81.2-11.4,138.3-34.5,138.3-34.5
			l-18.3-36.4H2837.6z"/>
		<path class="Graphic_x0020_Style_x0020_26" d="M2869.1,1664.5c-47.3,25.3-100.3,33.2-130.2,21.7c-70.1-27-176-133.3-201.7-159.7
			c0,0-24.8-25.5-18.8-37.2c6-11.7,38.2-31.8,40.6-37.6c2.4-5.9,2.5-15.4-11.3-9.4c-13.8,6.1-42.8,26-42.4,23.9
			c0.4-2.1-21.2-83-30.4-77.1c-9.2,5.9,1,50.7-3.1,54.5c-4,3.9-59.5,14.1-52.3,45.2c7.2,31.1,64.8,85,64.8,85s192.7,224.9,293.2,212
			c41.3-5.3,96.2-10.5,151.6-35.7L2869.1,1664.5z"/>
		<path class="st4" d="M2782.4,1417.1c0,0-76.4,22.7-89,171.4c-2.3,25.2-19.4,73.2-19.4,73.2s34.3,80.1,70.9,80.1
			s61.8-40.4,65.2-45.9S2782.4,1417.1,2782.4,1417.1z"/>
		<path class="st4" d="M2772.3,1423.4c35.4-20.1,59.9-58,212.8-24.5c152.9,33.5,228.9,530.9,257.9,598
			c-75.1,107.3-424.2,3.9-424.2,3.9s-89.4-359.8-87.7-426C2732.8,1508.6,2736.9,1443.5,2772.3,1423.4z"/>
		<path class="Graphic_x0020_Style_x0020_21" d="M2959.3,1514.1c-3.9,37.8-12.3,101.7-28.1,158.2l155,23.6
			c32-91.8,38.2-197-44.4-261.3"/>
		<path class="Graphic_x0020_Style_x0020_26" d="M2941.7,1673.8c-14.4,51.6-45.3,95.5-74.3,109.1c-68,32-218,35.2-254.8,35.4
			c0,0-35.6,0.3-39.9-12.1c-4.3-12.4,3.4-49.5,0.9-55.3c-2.6-5.8-9.4-12.4-14.6,1.7c-5.1,14.2-10.7,48.9-12,47.2s-74.6-42-76.8-31.3
			c-2.1,10.7,37.3,34.3,37.3,39.9c0,5.6-30.9,52.8-3.4,69.1c27.5,16.3,61.7-1.1,81.9,3.9c6.3,1.8,13.1,3.4,20.1,4.9
			c0.1,0,0.1,0,0.1,0v0c108.4,23.4,299.8,19.2,359.9-62.4c24.7-33.5,58.9-76.8,78.9-134.3L2941.7,1673.8z"/>
		<path class="Graphic_x0020_Style_x0020_26" d="M2800.4,1442.5c4.6,3.4,93.2-2.7,118.4-37c-47.6-85.4-45.8-219.6-99.5-237.9
			c-53.8-18.3-129.3,8-120.1,93.8c9.2,85.8,33.2,136.1,77.8,129.3C2801,1405.4,2800.4,1442.5,2800.4,1442.5z"/>
		<path class="Graphic_x0020_Style_x0020_27" d="M2677.7,1223.2c0,0,28.2,15.4,79.8,7.7c51.5-7.7,19.8,31.7,32.6,51.5
			c20.6-0.9,18.9-44.6,42-13.7c23.2,30.9,6,42,6,42s20.9,4.5,36,7.7c15.2,3.2,23.2-15.9,23.2-15.9s-16.3-88.8-24-115.4
			c-7.7-26.6-20.6-60.1-79.8-53.2C2734.4,1140.9,2664,1136.6,2677.7,1223.2z"/>
		<path class="Graphic_x0020_Style_x0020_27" d="M2814.6,1367.8c0,0-18.7,16-39.6,23c18.4,19.1,18.4,19.1,18.4,19.1
			S2814.6,1385,2814.6,1367.8z"/>
	</g>
	<g>
		<path class="Graphic_x0020_Style_x0020_26" d="M2250.7,2904.2c-3.2,0-5.9,3.2-5.9,7.2v80.5c0,4,2.6,7.2,5.9,7.2h70.9v-94.8H2250.7
			z"/>
		<rect x="2321.5" y="2904.2" class="Graphic_x0020_Style_x0020_27" width="34.6" height="94.8"/>
		<rect x="2356.1" y="2904.2" class="Graphic_x0020_Style_x0020_26" width="193.5" height="94.8"/>
		<path class="Graphic_x0020_Style_x0020_26" d="M2691,2904.2h-141.3v94.8H2691c3.2,0,5.9-3.2,5.9-7.2v-80.5
			C2696.8,2907.4,2694.2,2904.2,2691,2904.2z"/>
		<rect x="2321.5" y="2809.4" class="Graphic_x0020_Style_x0020_27" width="34.6" height="94.8"/>
		<rect x="2356.1" y="2809.4" class="Graphic_x0020_Style_x0020_26" width="193.5" height="94.8"/>
		<path class="Graphic_x0020_Style_x0020_26" d="M2691,2809.4h-141.3v94.8H2691c3.2,0,5.9-3.2,5.9-7.2v-80.5
			C2696.8,2812.6,2694.2,2809.4,2691,2809.4z"/>
		<path class="Graphic_x0020_Style_x0020_26" d="M2250.7,2809.4c-3.2,0-5.9,3.2-5.9,7.2v80.5c0,4,2.6,7.2,5.9,7.2h70.9v-94.8H2250.7
			z"/>
		<path class="Graphic_x0020_Style_x0020_26" d="M2250.7,2714.5c-3.2,0-5.9,3.2-5.9,7.2v80.5c0,4,2.6,7.2,5.9,7.2h70.9v-94.8H2250.7
			z"/>
		<rect x="2321.5" y="2714.5" class="Graphic_x0020_Style_x0020_27" width="34.6" height="94.8"/>
		<rect x="2356.1" y="2714.5" class="Graphic_x0020_Style_x0020_26" width="193.5" height="94.8"/>
		<path class="Graphic_x0020_Style_x0020_26" d="M2691,2714.5h-141.3v94.8H2691c3.2,0,5.9-3.2,5.9-7.2v-80.5
			C2696.8,2717.7,2694.2,2714.5,2691,2714.5z"/>
		<path class="Graphic_x0020_Style_x0020_26" d="M2250.7,2619.7c-3.2,0-5.9,3.2-5.9,7.2v80.5c0,4,2.6,7.2,5.9,7.2h70.9v-94.8H2250.7
			z"/>
		<rect x="2356.1" y="2619.7" class="Graphic_x0020_Style_x0020_26" width="193.5" height="94.8"/>
		<path class="Graphic_x0020_Style_x0020_26" d="M2691,2619.7h-141.3v94.8H2691c3.2,0,5.9-3.2,5.9-7.2v-80.5
			C2696.8,2622.9,2694.2,2619.7,2691,2619.7z"/>
		<rect x="2321.5" y="2619.7" class="Graphic_x0020_Style_x0020_27" width="34.6" height="94.8"/>
		<path class="Graphic_x0020_Style_x0020_26" d="M2250.7,2524.8c-3.2,0-5.9,3.2-5.9,7.2v80.5c0,4,2.6,7.2,5.9,7.2h70.9v-94.8H2250.7
			z"/>
		<rect x="2356.1" y="2524.8" class="Graphic_x0020_Style_x0020_26" width="193.5" height="94.8"/>
		<path class="Graphic_x0020_Style_x0020_26" d="M2691,2524.8h-141.3v94.8H2691c3.2,0,5.9-3.2,5.9-7.2V2532
			C2696.8,2528,2694.2,2524.8,2691,2524.8z"/>
		<rect x="2321.5" y="2524.8" class="Graphic_x0020_Style_x0020_27" width="34.6" height="94.8"/>
	</g>
	<g>
		
			<ellipse transform="matrix(2.392402e-03 -1 1 2.392402e-03 152.0863 4775.5454)" class="Graphic_x0020_Style_x0020_27" cx="2469.5" cy="2311.5" rx="179" ry="179"/>
		
			<ellipse transform="matrix(2.809045e-03 -1 1 2.809045e-03 151.0599 4774.5801)" class="st3" cx="2469.5" cy="2311.5" rx="153.7" ry="153.7"/>
		<g>
			<g>
				<path class="st3" d="M2503.4,2355.9c0-7.4-2.6-13.7-7.8-18.7c-5.2-5.1-14-9.7-26.3-13.8c-17.2-5.2-29.7-12.1-37.5-20.5
					c-7.9-8.4-11.8-19.1-11.8-32.1c0-13.2,3.8-24,11.5-32.5c7.7-8.5,18.3-13.5,31.7-15.1v-26.5h18v26.6c13.5,1.9,24.1,7.5,31.6,17
					c7.5,9.5,11.3,22.5,11.3,39H2502c0-11.4-2.7-20.4-8.1-27.2c-5.4-6.7-12.7-10.1-21.9-10.1c-9.6,0-16.9,2.5-22,7.4
					c-5.1,5-7.6,11.9-7.6,20.8c0,8.2,2.7,14.8,8,19.7c5.4,4.9,14.2,9.3,26.5,13.3c12.3,4,21.9,8.4,28.8,13.2
					c6.9,4.8,12,10.4,15.2,16.7c3.3,6.4,4.9,13.8,4.9,22.4c0,13.6-4.1,24.6-12.3,32.9c-8.2,8.3-19.6,13.2-34.4,14.7v23.1h-17.9
					v-23.1c-15-1.4-26.7-6.7-35.2-16c-8.5-9.3-12.8-21.9-12.8-37.9h22.4c0,11.2,2.9,19.8,8.8,25.9c5.9,6,14.2,9.1,25,9.1
					c10.6,0,18.9-2.5,24.9-7.6C2500.4,2371.6,2503.4,2364.7,2503.4,2355.9z"/>
			</g>
		</g>
	</g>
	<g>
		<rect x="1525.1" y="2648.3" class="Graphic_x0020_Style_x0020_27" width="824.1" height="382"/>
		<path class="Graphic_x0020_Style_x0020_26" d="M2298.9,2999.6h-723.5c0-9.1-7.3-16.4-16.4-16.4v-287.8c9.1,0,16.4-7.3,16.4-16.4
			h723.5c0,9.1,7.3,16.4,16.4,16.4v287.8C2306.3,2983.2,2298.9,2990.6,2298.9,2999.6z"/>
		<circle class="st3" cx="1937.2" cy="2839.3" r="100.5"/>
		<g>
			<g>
				<path class="st3" d="M1956.1,2859.3c0-4.1-1.4-7.6-4.3-10.4c-2.9-2.8-7.8-5.4-14.6-7.7c-9.6-2.9-16.5-6.7-20.9-11.4
					c-4.4-4.7-6.6-10.6-6.6-17.9c0-7.4,2.1-13.4,6.4-18.1c4.3-4.7,10.2-7.5,17.7-8.4v-14.7h10v14.8c7.5,1,13.4,4.2,17.6,9.5
					c4.2,5.3,6.3,12.5,6.3,21.7h-12.4c0-6.3-1.5-11.4-4.5-15.1c-3-3.7-7.1-5.6-12.2-5.6c-5.3,0-9.4,1.4-12.3,4.1
					c-2.8,2.8-4.2,6.6-4.2,11.6c0,4.6,1.5,8.2,4.5,11c3,2.7,7.9,5.2,14.7,7.4c6.8,2.2,12.2,4.7,16,7.3c3.8,2.7,6.7,5.8,8.5,9.3
					c1.8,3.5,2.7,7.7,2.7,12.5c0,7.6-2.3,13.7-6.8,18.3c-4.6,4.6-10.9,7.4-19.2,8.2v12.9h-10v-12.9c-8.3-0.8-14.9-3.7-19.6-8.9
					c-4.7-5.2-7.1-12.2-7.1-21.1h12.5c0,6.2,1.6,11,4.9,14.4c3.3,3.4,7.9,5,13.9,5c5.9,0,10.5-1.4,13.9-4.2
					C1954.4,2868,1956.1,2864.2,1956.1,2859.3z"/>
			</g>
		</g>
		<g>
			<circle class="st3" cx="2185.7" cy="2839.3" r="42.7"/>
			<circle class="st3" cx="1695.8" cy="2839.3" r="42.7"/>
		</g>
	</g>
	<circle class="Graphic_x0020_Style_x0020_26" cx="3823" cy="2889.8" r="112.3"/>
</g>
</svg>
