<?xml version="1.0" encoding="utf-8"?>
<!-- Generator: Adobe Illustrator 22.0.0, SVG Export Plug-In . SVG Version: 6.00 Build 0)  -->
<svg version="1.1" id="Layer_1" xmlns="http://www.w3.org/2000/svg" xmlns:xlink="http://www.w3.org/1999/xlink" x="0px" y="0px"
	 viewBox="0 0 4000 4000" style="enable-background:new 0 0 4000 4000;" xml:space="preserve">
<style type="text/css">
	
		.Graphic_x0020_Style_x0020_27{fill:#1A1A1A;stroke:#1A1A1A;stroke-width:2;stroke-linecap:round;stroke-linejoin:round;stroke-miterlimit:10;}
	
		.Graphic_x0020_Style_x0020_26{fill:#FFFFFF;stroke:#1A1A1A;stroke-width:2;stroke-linecap:round;stroke-linejoin:round;stroke-miterlimit:10;}
	
		.Graphic_x0020_Style_x0020_21{fill:#5067EF;stroke:#1A1A1A;stroke-width:2;stroke-linecap:round;stroke-linejoin:round;stroke-miterlimit:10;}
	.st0{fill:none;stroke:#1A1A1A;stroke-width:2;stroke-linecap:round;stroke-linejoin:round;stroke-miterlimit:10;}
	.st1{fill:#FFFFFF;stroke:#1A1A1A;stroke-width:2;stroke-linecap:round;stroke-linejoin:round;stroke-miterlimit:10;}
	.st2{fill:#1A1A1A;stroke:#1A1A1A;stroke-width:2;stroke-linecap:round;stroke-linejoin:round;stroke-miterlimit:10;}
	.st3{fill:#5067EF;stroke:#1A1A1A;stroke-width:2;stroke-linecap:round;stroke-linejoin:round;stroke-miterlimit:10;}
	.st4{fill:none;stroke:#FFFFFF;stroke-width:3;stroke-linecap:round;stroke-linejoin:round;stroke-miterlimit:10;}
	.st5{fill:#8E9DF4;stroke:#1A1A1A;stroke-linecap:round;stroke-linejoin:round;stroke-miterlimit:10;}
</style>
<g>
	<path class="st0" d="M1566.9,948.3c-222.3,6.3-285.7,247.1-544.5,470.3c-386,332.8-710.7,198.6-804.4,439.3
		c-81.3,208.7,87.4,502.7,284.6,643.5c189.8,135.5,306.4,58,618.8,154.7c467.4,144.6,429.5,387.1,761.1,445.5
		c362.9,63.9,438.5-221.2,1082.9-309.4c373.2-51.1,476.7,27,594-86.6c154.1-149.2,39-345.4,92.8-983.9
		c31.7-375.3,83.3-447.7,12.4-563.1c-138-224.7-556.1-312.2-860.1-185.6c-340.4,141.7-324.9,463-655.9,538.3
		c-222.1,50.6-475.2-38-501.2-148.5c-25.8-109.6,178.9-210.7,142.3-315.6C1766,979.6,1654.2,945.8,1566.9,948.3z"/>
	<path class="st1" d="M1208,1046.4c-331.5,32.5-643.3,392.8-686.9,754.9c-36.3,301.6,119.5,555.2,204.2,693
		c49.4,80.4,118.9,193.6,235.1,284.6c228.2,178.8,481.8,151.1,909.6,142.3c1002.5-20.5,1107.5,101.5,1417-68.1
		c107.6-58.9,363.6-204.1,476.5-507.4c159.9-429.7-101.1-817.9-117.6-841.6c-203.2-291.8-544.6-417.2-823-408.4
		c-374.9,11.9-423.7,260.3-773.5,259.9C1638.8,1355.4,1550.1,1012.8,1208,1046.4z"/>
	<path class="st1" d="M2459.6,2613.2l4.7,57.8l-206.4,249.1c-17-0.3-34.3-0.5-52-0.7c-99.3-1-210.5-0.7-335.7,1.9
		c-427.9,8.7-681.4,36.5-909.6-142.3c-57.9-45.4-104.2-96.2-142.2-145.7l17.5-25.7h1628.4L2459.6,2613.2z"/>
	<circle class="Graphic_x0020_Style_x0020_26" cx="1669.2" cy="3082.1" r="108.4"/>
	<circle class="st2" cx="2254.7" cy="3142" r="59.9"/>
	<circle class="Graphic_x0020_Style_x0020_26" cx="554.7" cy="2739.5" r="38.9"/>
	
		<ellipse transform="matrix(0.9732 -0.2298 0.2298 0.9732 -256.334 918.2821)" class="Graphic_x0020_Style_x0020_27" cx="3815.2" cy="1559.9" rx="74.4" ry="74.4"/>
	<g>
		<path class="Graphic_x0020_Style_x0020_27" d="M2453.2,2099.1c0,0-35.5,148.4-40.6,299.4c-5.1,150.9,0,228.1,0,228.1
			s317.9,59.9,469.7,59.9c106.2-55.8,19.5-584.4,19.5-584.4L2453.2,2099.1z"/>
		<path class="Graphic_x0020_Style_x0020_27" d="M1331.4,2232.3c0,0-23.1,235.6-29.9,375.3c447.3,106.7,577.9,49.4,577.9,49.4
			s-16.5-303.7-15.6-375.6C1807.9,2258.4,1331.4,2232.3,1331.4,2232.3z"/>
		<path class="Graphic_x0020_Style_x0020_27" d="M2464.3,2671l-206.4,249.1c-17-0.3-34.3-0.5-52-0.7l253.8-306.3L2464.3,2671z"/>
		<path class="st1" d="M2464.3,2607.6l-4.7,5.7l-253.8,306.3c-99.3-1-210.5-0.7-335.7,1.9c-427.9,8.7-681.4,36.5-909.6-142.3
			c-57.9-45.4-104.2-96.2-142.2-145.7l-19.1-25.7h36.7H2464.3z"/>
		<path class="Graphic_x0020_Style_x0020_27" d="M1838.2,1092.1c0,0,109.8,36.3,120.2,163.8c10.4,127.5,49.8,280,6.8,341.3
			c-43,61.3-113.4,43.6-119.9,41.4c-6.6-2.2-19.7-63.5-19.7-63.5s39.4-24.8,33.6-37.2c-59.8,11.7-83.2,5.1-94.1,0
			c-10.9-5.1-13.9-82.4-13.9-82.4l70.3-363.4H1838.2z"/>
		<path class="st3" d="M1826.5,1518.9c0,0,26.2-10.5,56.7,44.4c30.4,55,20.1,357.6-8.1,415.8c-50.7,108.5-9.7,159.2-95.9,188.8
			c-87.7-44.7-60.5-175.9-70.9-230C1698,1883.9,1826.5,1518.9,1826.5,1518.9z"/>
		<path class="Graphic_x0020_Style_x0020_21" d="M1866.2,1718.9c0.6,1.7,1.2,3.4,1.8,5.1c40.8,128.1-5.8,192-39,244.4
			c-9.5,132.6,54.9,304.2,42.3,325.6c-29.2,49.5-491.7,17.8-531.1-15.2c-39.3-33,7.6-492.4,67.2-612.9
			c59.6-120.5,225.4-194.7,225.4-194.7s158,6.8,193.6,32.6c35.6,25.8,43.5,27.5,51.8,51.1"/>
		<path class="st1" d="M1404.5,2343.1c5.9,5.1,45.7,27.9,53.3,45.7s44,124.3,49,138.7c5.1,14.4-58.3,28.8-77,16.1
			c-18.6-12.7-56.7-74.6-60-97.8s-12.7-72.3-12.7-72.3L1404.5,2343.1z"/>
		<path class="st3" d="M1569.4,1490.6c0,0-304,21.8-344.6,460.2c-25.5,275.4,131.1,460.2,131.1,460.2c36.2-16.3,67.7-35.3,65.5-73.1
			c0,0-114.1-265.4-43.7-420.8c67.6-149.2,181.8-206.2,181.8-206.2"/>
		<path class="Graphic_x0020_Style_x0020_26" d="M2397.7,1221.5c0,0-79,51-74.8,170.2c4.2,119.2-79.7,339.1-93,381.2
			c-13.3,42.1-20.5,63.4-0.2,82.2c20.3,18.8,122.2,39.8,145.7,18.6c23.5-21.2,51.6-39.7,55.8-69.3
			C2435.4,1774.8,2465.4,1246,2397.7,1221.5z"/>
		<path class="st1" d="M2233.1,1863.2c0,0,2-53,42.2-69.7s101.4,57.6,101.2,84.2c34.7-29.2,34.7-29.2,34.7-29.2
			s-13.3-103.5-87.5-99.9S2214,1801,2214,1801s-5.6,17.3-2.2,32.7C2214.6,1846.1,2225.3,1856.3,2233.1,1863.2z"/>
		<path class="Graphic_x0020_Style_x0020_26" d="M2665,1152.8c14,10.1,340,116.7,351.4,318.4c11.4,201.7-142.1,667.2-142.1,667.2
			c-141.3,21.6-287.1,17.9-440.2-26.6c0,0-76.1-541.6-81.2-653.3c-5.1-111.6,30.4-229.6,57.1-253.7
			C2436.7,1180.7,2665,1152.8,2665,1152.8z"/>
		<path class="st1" d="M2555.3,1253.6c2.2,3.9-10.9,42.5,15.5,92.3c-15.5,25.1-25.1,42.8-25.1,42.8s-48.9-72.9-35.5-123
			C2533.2,1236.5,2555.3,1253.6,2555.3,1253.6z"/>
		<path class="Graphic_x0020_Style_x0020_26" d="M2819.7,1484.7l13.9,46c0,0,54.8,257.6,17.1,338.8c84.3,175.1,0.1,262.6,0.1,262.6
			s110.1,5.2,139,19.1c28.9,14,21.5-65.5,39.2-339.8c7.1-109.6,26.3-246.4,8.9-327.5c-26.2-121.9-95.4-164-95.4-164"/>
		<path class="Graphic_x0020_Style_x0020_26" d="M2577.3,1236.6c0,0-14.5,28.9-81,52.8c-74.1,26.6-151.1-234.3-151.1-234.3
			s216.9-172.8,295-60c24.6,73,61.5,176.1,61.5,176.1s-84.6,165.2-128.7,178.2c-18.1-26-23.1-78.8-23.1-78.8"/>
		<path class="Graphic_x0020_Style_x0020_26" d="M2821.8,2492.4c0,0-260.5,84-379.7,68.1c-71-33.6-93.4-44-133-29.6
			s-64.1,26.2-76.7,44c10.8,46.3,8.7,10.4,8.7,10.4l69.6-15.4c16.2-0.4,19.2-0.5,12.3,10.8l-52.6,11.6l-3.8,27.3
			c0,0,77.2-15.1,106.3-1.5c29.2,13.6,92,13.5,192.3,6.6c100.3-7,308.3,1.9,332.9-66.6C2922.5,2489.5,2821.8,2492.4,2821.8,2492.4z"
			/>
		<path class="Graphic_x0020_Style_x0020_27" d="M3253.1,2766.7c-55.7-45.6-406.9,30.2-406.9,30.2L2537,2928.7l0,0
			c410.8,18.1,528.3,45.3,747.3-73.9C3280.9,2815.1,3271.2,2781.5,3253.1,2766.7z"/>
		<path class="Graphic_x0020_Style_x0020_21" d="M2952.9,2081.3c3.8,1.3,128.1-82.5,156-73.6c27.9,8.9,102.7,272.7,86.3,416.1
			s85,303.1,74.9,357.6c-10.1,54.5-177.9,73.8-337.7,78.9c-159.8,5.1-167.2-200.6-171-208.2c-3.8-7.6-19.7-308.2,65-424.9
			C2911.1,2110.5,2952.9,2081.3,2952.9,2081.3z"/>
		<path class="st1" d="M2311.9,2319.4c0,0-125.9-33.7-188.5-4.6c-62.6,29.1-87.9,63.8-87.9,63.8s5.9,11,24.5,4.2
			c18.6-6.8,63.5-44,71.1-35.5c7.6,8.5-6.8,74,49,67.8c55.8-6.1,86.3-33.6,139.5-22.4s269.8,126.6,269.8,126.6l53.3-114.5
			L2311.9,2319.4z"/>
		<path class="Graphic_x0020_Style_x0020_21" d="M3083,2241.2c27.9,104-74.2,240-147.8,278.1c-124,64.2-215.6,43.4-383,7.9
			c-53.3-40.6,52-134.5,52-134.5s130,18.6,212.5-39.7c24.5-17.3,28.1-55.3,43.8-85.3"/>
		<path class="Graphic_x0020_Style_x0020_26" d="M2757.6,1732.8c0,0,5.2,250,60.7,269.9c55.4,20,81.4-4,83.4-16
			c1.1-6.4-9.8-129.9-48.6-195.9C2819.7,1733.9,2757.6,1732.8,2757.6,1732.8z"/>
		<path class="Graphic_x0020_Style_x0020_27" d="M2293.2,1062.3c0,0,104.1,54.2,181.1-38c33.6,66.2,96.5,65.1,96.5,65.1l20.6,44.5
			c0,0,9.1-52.1,8.3-58.6s29.1-35.8,42.1-28.7c13,7.1,26.4,38.8,17.6,59.8c19.6-1.8,19.6-1.8,19.6-1.8s22-220.1-55-272.1
			c-77-52.1-159.4-39-199.6,0S2281.2,958.2,2293.2,1062.3z"/>
		<path class="st1" d="M1979.4,2383.2c0,0-261.3-22.2-268.3-22.2l-13.7,12.3c7,0,268.3,22.2,268.3,22.2l0.1,0.3l13.7-12.3
			L1979.4,2383.2z"/>
		<polygon class="Graphic_x0020_Style_x0020_27" points="2132.2,2713 1979.6,2383.6 1965.9,2395.9 2118.6,2725.4 		"/>
		<path class="st1" d="M2118.6,2725.4l-286.7-49.9l-134.5-302.1c7,0,268.3,22.2,268.3,22.2L2118.6,2725.4z"/>
		<polygon class="Graphic_x0020_Style_x0020_26" points="1777.7,2518.7 2025.6,2554.5 1973.7,2733.7 1727.6,2680.5 		"/>
		<path class="Graphic_x0020_Style_x0020_26" d="M1676.5,1406.9c1.2,2.5-54.6,92.3-54.6,92.3s39.7,115.7,82,130.1
			c42.3,14.4,65.9-69.1,63.3-99.8c-2.5-30.7,27.5-66,27.5-66L1676.5,1406.9z"/>
		<path class="Graphic_x0020_Style_x0020_26" d="M1928.8,1244.6c0,0-4.5,79-36.1,142.3c-36.3,72.8-103.7,130.1-162,107.3
			c-108.9-42.7-70.8-254.6-20.4-294.8C1760.6,1159.2,1919.7,1195,1928.8,1244.6z"/>
		<path class="Graphic_x0020_Style_x0020_27" d="M1825.6,1089.2c0,0,22.6,102.1,7.3,116.7c-15.3,14.6-83.2,35-118.2,72.2
			c-35,37.2-34.2,86.4-29.9,135c4.2,48.6-41.6,117.5-103.6,92.7s-66.4-120.4-66.4-120.4s68.6,29.2,83.2-39.4
			C1612.5,1277.4,1695.7,1052.7,1825.6,1089.2z"/>
		<path class="Graphic_x0020_Style_x0020_26" d="M2241.3,1816.2c0,0,48.2-60.3,103.5-14.6c41,43.1,30.5,72.1,30.5,72.1l-120.1,160.7
			c0,0,18.8,29.7,20,59.2c1.2,29.5-31.5,74.4-31.5,74.4s-15.9,3.7-17.8-21.4c-1.9-25.1,18.2-55.7-7.2-42.5
			c-25.4,13.3-143.1,103.5-149.8,112c-6.7,8.6-26.3-4.7-18.5-19.7c13.4-25.7,22.3-22,56.2-62.6c-21.6-24.1,10.9-60.3,26.4-71
			C2148.7,2052.2,2241.3,1816.2,2241.3,1816.2z"/>
		<path class="st1" d="M2573,1369.2c-61.6-5.4-15.9,726,41.9,777.4"/>
		<path class="Graphic_x0020_Style_x0020_27" d="M3071.7,2060.2c-44-23.3-68.5-21.6-103.3,62.1c-46.1,110.9-152.2,169.9-152.2,169.9
			s28.9-210,28.7-335.9c-0.2-126-32.8-151.5-77.8-171c-45-19.5-3-93-3-99c0,0,131.5-126.5,251.5-35.5c120,91,13,140,139,332.9
			s42.3,369.4,42.3,369.4l-9.1-75c0,0-8.2-172.6-83.1-228.4c60.7,79.2,44.6,219.8,44.2,218.7
			C3140.7,2243.4,3115.7,2083.4,3071.7,2060.2z"/>
		<path class="Graphic_x0020_Style_x0020_27" d="M1838.2,1153.1c0,0-20.9,63,59,96.9c41.8,17.8,5.8,117.6,5.8,113.4
			c0-4.2,78.5-34.3,25.8-123.1C1876.2,1151.5,1846.5,1138.7,1838.2,1153.1z"/>
		<path class="st1" d="M2573.2,1384.9c0,0-7.6-37.2,0-44c7.6-6.8,123.3-162.5,128.5-187.8c61,15.3,69.7,47.7,69.7,47.7
			S2630.7,1385.8,2573.2,1384.9z"/>
	</g>
	<g>
		<path class="Graphic_x0020_Style_x0020_27" d="M826.2,1455.3c-9.5-75.7-17.6-139.8,17.7-168c2.1-1.7,23.8-18.4,49.7-12.2
			c26.1,6.3,38,31.4,39.8,35.4c-13-79.7,3.1-140.6,34.3-151.4c13.5-4.7,34.5-1.5,49.7,11c22.2,18.2,21.2,47.2,21,50.8
			c3.3-21.6,18.3-104.2,77.3-132.6c11.7-5.6,34.2-16.4,51.9-5.5c20.3,12.5,18.9,43.9,18.8,46.4c29.3-53,73.7-78.9,103.9-68.5
			c13.7,4.7,25.8,17.2,29.8,32c7.2,26.4-11.2,60.1-48.6,78.5c21.8-1.2,41.6,7.5,50.8,23.2c15,25.5-5.6,56-8.8,60.8
			c-20.7,30.6-65.4,43-113.8,34.3c39.6,31.6,58.2,70,47.5,96.1c-7,17-24.6,24.8-44.2,33.1c-20,8.5-60.5,21.9-118.2,13.3
			c35.4,18.7,59.3,45.1,56.4,68.5c-3.9,31.3-54.4,44.9-92.8,55.2c-28,7.5-154.6,41.7-203.3-21
			C834.6,1521.4,831.8,1499.4,826.2,1455.3z"/>
		<path class="st4" d="M730,1565c27.4,15.7,62.3,10.4,91.2-2.4c54.2-23.9,95.1-70.4,129.1-118.9c34-48.6,63.2-100.9,103.3-144.5
			c37.9-41.3,84.5-73.6,125.8-111.6c31.1-28.6,59.3-60.5,83.8-95"/>
		<path class="st4" d="M883.9,1355c32.1,50.2,42.3,107.5,9.6,157.3"/>
		<path class="st4" d="M923.6,1480.2c41.5-21.2,124,14.9,166.7,8.7"/>
		<path class="st4" d="M987.9,1387.4c17.9-52.4,5.4-101.3,9-146.1"/>
		<path class="st4" d="M1129.8,1140c-3.7,40.4-14.2,80.1-30.9,117"/>
		<path class="st4" d="M1146.6,1216.6c38.2-14.1,81.1-15,119.8-2.5"/>
		<path class="st4" d="M1019,1342c42.7-21.3,92.8-23.7,137.3-6.6"/>
	</g>
	<g>
		<path class="st5" d="M793.4,1632.4c91.3-57.4,133.6-56.4,146.5-91.9c8-22.1,2.7-53.3-17.5-67.7c-25.1-17.8-60.1-0.7-61.8,0.2
			c81.6-58.6,118-127.5,99.4-161.9c-8.8-16.3-34.8-33.7-63.8-33.1c-22.6,0.5-38.9,11.8-45.5,17c46.5-81.9,60.4-152.2,35.1-173.3
			c-9.9-8.3-32.9-14.9-54-7c-17.1,6.5-26.4,20-29.8,25.8c15.2-57.4-8.3-104.6-38.6-112.9c-18.8-5.1-41.3,4.5-54.7,19.6
			c-18.7,21-20.9,54.2-4.2,81.2c-2.1-2-34.1-31.1-60.4-20.9c-28.6,11.2-31.6,61.7-20.4,94.1c11.2,32.2,37.3,48.9,46.8,54.4
			c-3.9-2.5-41.3-25.5-68.9-10.2c-37.8,21.1-20.2,94-19.1,98.7c16.8,66.3,82.5,96.6,95.9,102.4c-45.5-2.5-83.4,16.9-93.6,45.5
			c-12.7,35.8,22.8,72.8,42,92.9c47,49.1,108.7,60.9,140.3,64.2C772.6,1645.9,781.8,1639.7,793.4,1632.4z"/>
		<path class="st0" d="M747.5,1082.8c-2.6,57.2,2,114.7,13.6,170.7c16.8,80.7,48.4,160.4,41.7,242.5c-2.1,25-7.7,49.6-13.3,74.1
			c-6.4,27.9-13,56.4-27.5,81.1c-13.5,22.9-33.3,41.7-55.7,56"/>
		<path class="st0" d="M786.4,1587.7c-0.7-4-2.9-7.5-5.4-10.6c-14.7-18.7-38-28.2-60.7-35.4c-22.7-7.2-46.4-13.1-65.6-27.1"/>
		<path class="st0" d="M791.9,1377c-13.7-24.7-41.5-37.4-67.9-47.3c-26.4-9.8-54.8-19.3-72.9-40.9"/>
		<path class="st0" d="M767.9,1279.9c-5.2-14.4,2.1-30.7,12.7-41.8c10.7-11.1,24.4-18.6,36-28.7c11.6-10,21.6-24.1,20.4-39.4"/>
		<path class="st0" d="M754.9,1215.7c-0.6-4.6-1.2-9.4-3.2-13.6c-3-6.3-8.8-10.9-14.7-14.6c-12.1-7.8-25.5-13.6-37.8-21.1
			c-12.3-7.5-24-17.1-30.3-30.2"/>
		<path class="st0" d="M804.4,1463.1c1.8-11.3,3.7-22.7,8.3-33.2c8.8-20.1,26.4-34.7,42.9-49.1c16.5-14.5,33.1-30.9,38.3-52.2"/>
		<path class="st0" d="M872.5,1515.2c-15.3-3.7-31.8-2.1-46.1,4.5c-14.3,6.6-26.2,18-33.4,32"/>
	</g>
	<g>
		<path class="Graphic_x0020_Style_x0020_26" d="M613.8,1568.8c-7.4-96.4,11-129.5-11.8-154.6c-14.2-15.6-41.2-24.4-61-14.3
			c-24.6,12.5-25.6,47.4-25.7,49.2c-12.4-89.3-51.9-146.8-87-146.4c-16.6,0.2-41.3,13.5-52.9,36.9c-9,18.2-6.9,35.8-5.5,43.2
			c-45.6-71.1-95.6-111.4-122.9-100.2c-10.7,4.4-25.6,19.9-28.1,39.9c-2,16.3,4.9,29.3,8,34.4c-39.2-36-86.5-37.1-105.7-16.5
			c-11.9,12.8-13.6,34.7-7.3,51.6c8.9,23.6,34.3,39.2,62.7,37.3c-2.4,0.8-38.9,14.1-41.8,39.2c-3.1,27.4,35.8,50.8,66.2,55.4
			c30.2,4.6,54.4-9.1,62.7-14.4c-3.6,2.1-37.5,22.2-36.8,50.4c0.9,38.8,66.2,55.3,70.3,56.3c59.6,14.4,111.1-25.2,121.3-33.3
			c-20.9,35.1-21.4,73.2-2.9,93.3c23.1,25,67.3,12.3,91.3,5.4c58.6-16.8,93.7-60.8,109.5-84.6C615.8,1590.8,614.7,1581,613.8,1568.8
			z"/>
		<path class="st0" d="M158.5,1375.7c44.3,26,91.8,46.3,141.2,60.4c71.1,20.3,147.5,28.5,209.9,68.2c19,12.1,36.2,26.8,53.2,41.4
			c19.5,16.7,39.3,33.8,52.9,55.7c12.6,20.3,19.2,43.9,21.2,67.6"/>
		<path class="st0" d="M575.9,1557.2c-3.4-1.1-62.9,1.8-95.1,78.3"/>
		<path class="st0" d="M410.4,1463.3c-25.3,0.5-47,17.3-65.9,34.2c-18.8,16.9-38.2,35.4-62.9,40.8"/>
		<path class="st0" d="M323.3,1441.8c-13.6-1.9-23.5-14.5-27.8-27.6c-4.3-13.1-4.6-27.1-7.8-40.5s-10.1-27.2-22.8-32.6"/>
		<path class="st0" d="M267,1425.4c-3.9-1.5-7.9-3-12.1-3.2c-6.3-0.3-12.3,2.4-17.8,5.5c-11.3,6.4-21.4,14.5-32.6,21.2
			c-11.1,6.7-23.6,11.9-36.6,11.4"/>
		<path class="st0" d="M484,1489.3c-8.2-6.2-16.5-12.4-22.9-20.4c-12.3-15.3-16.5-35.4-21.1-54.5c-4.6-19.1-10.7-39.1-25.4-52.2"/>
		<path class="st0" d="M553.8,1457.1c-9.3,10.6-14.9,24.4-15.7,38.4c-0.8,14.1,5.2,29.1,13.3,40.6"/>
	</g>
	<path class="st2" d="M937.1,1634l-394.3,4.6l85.9,277.4l0,0c68.7,0,200.5,0,200.5,0S913.6,1712.5,937.1,1634L937.1,1634z"/>
	<path class="Graphic_x0020_Style_x0020_26" d="M880.1,1916H594.6c-9.6,0-17.5,7.8-17.5,17.5v0c0,9.6,7.8,17.5,17.5,17.5h285.5
		c9.6,0,17.5-7.8,17.5-17.5v0C897.6,1923.8,889.8,1916,880.1,1916z"/>
	<polygon class="st1" points="844.5,1950.9 991.4,2607.6 971.3,2607.6 803.7,1950.9 	"/>
	<path class="st1" d="M665.5,1950.9l-74.4,291.6c-7-16.8-13.7-33.9-20-51.6l53.7-240H665.5z"/>
	<path class="st2" d="M2553.7,1295.5c0,0,28.8-58.5,23.8-70.5c-29.3,39.3-30.4,35.6-30.4,35.6L2553.7,1295.5z"/>
	<path class="Graphic_x0020_Style_x0020_26" d="M3501.9,1305.8h-297.6c-33.1,0-59.9,26.8-59.9,59.9v121.7c0,19.6,9.4,36.9,23.9,47.9
		l-80.5,73l146.5-60.9h267.7c33.1,0,59.9-26.8,59.9-59.9v-121.7C3561.8,1332.7,3535,1305.8,3501.9,1305.8z"/>
	<g>
		<path class="st1" d="M3214.5,1360h276.1c4.3,0,7.7-3.5,7.7-7.7c0-4.3-3.5-7.7-7.7-7.7h-276.1c-4.3,0-7.7,3.5-7.7,7.7
			C3206.8,1356.5,3210.2,1360,3214.5,1360z"/>
		<path class="st1" d="M3490.6,1402.5h-276.1c-4.3,0-7.7,3.5-7.7,7.7l0,0c0,4.3,3.5,7.7,7.7,7.7h276.1c4.3,0,7.7-3.5,7.7-7.7l0,0
			C3498.4,1406,3494.9,1402.5,3490.6,1402.5z"/>
		<path class="st1" d="M3490.6,1460.5h-276.1c-4.3,0-7.7,3.5-7.7,7.7c0,4.3,3.5,7.7,7.7,7.7h276.1c4.3,0,7.7-3.5,7.7-7.7
			C3498.4,1464,3494.9,1460.5,3490.6,1460.5z"/>
	</g>
</g>
<g>
	<path class="st0" d="M1566.9,948.3c-222.3,6.3-285.7,247.1-544.5,470.3c-386,332.8-710.7,198.6-804.4,439.3
		c-81.3,208.7,87.4,502.7,284.6,643.5c189.8,135.5,306.4,58,618.8,154.7c467.4,144.6,429.5,387.1,761.1,445.5
		c362.9,63.9,438.5-221.2,1082.9-309.4c373.2-51.1,476.7,27,594-86.6c154.1-149.2,39-345.4,92.8-983.9
		c31.7-375.3,83.3-447.7,12.4-563.1c-138-224.7-556.1-312.2-860.1-185.6c-340.4,141.7-324.9,463-655.9,538.3
		c-222.1,50.6-475.2-38-501.2-148.5c-25.8-109.6,178.9-210.7,142.3-315.6C1766,979.6,1654.2,945.8,1566.9,948.3z"/>
	<path class="st1" d="M1208,1046.4c-331.5,32.5-643.3,392.8-686.9,754.9c-36.3,301.6,119.5,555.2,204.2,693
		c49.4,80.4,118.9,193.6,235.1,284.6c228.2,178.8,481.8,151.1,909.6,142.3c1002.5-20.5,1107.5,101.5,1417-68.1
		c107.6-58.9,363.6-204.1,476.5-507.4c159.9-429.7-101.1-817.9-117.6-841.6c-203.2-291.8-544.6-417.2-823-408.4
		c-374.9,11.9-423.7,260.3-773.5,259.9C1638.8,1355.4,1550.1,1012.8,1208,1046.4z"/>
	<path class="st1" d="M2459.6,2613.2l4.7,57.8l-206.4,249.1c-17-0.3-34.3-0.5-52-0.7c-99.3-1-210.5-0.7-335.7,1.9
		c-427.9,8.7-681.4,36.5-909.6-142.3c-57.9-45.4-104.2-96.2-142.2-145.7l17.5-25.7h1628.4L2459.6,2613.2z"/>
	<circle class="Graphic_x0020_Style_x0020_26" cx="1669.2" cy="3082.1" r="108.4"/>
	<circle class="st2" cx="2254.7" cy="3142" r="59.9"/>
	<circle class="Graphic_x0020_Style_x0020_26" cx="554.7" cy="2739.5" r="38.9"/>
	
		<ellipse transform="matrix(0.9732 -0.2298 0.2298 0.9732 -256.334 918.2821)" class="Graphic_x0020_Style_x0020_27" cx="3815.2" cy="1559.9" rx="74.4" ry="74.4"/>
	<g>
		<path class="Graphic_x0020_Style_x0020_27" d="M2453.2,2099.1c0,0-35.5,148.4-40.6,299.4c-5.1,150.9,0,228.1,0,228.1
			s317.9,59.9,469.7,59.9c106.2-55.8,19.5-584.4,19.5-584.4L2453.2,2099.1z"/>
		<path class="Graphic_x0020_Style_x0020_27" d="M1331.4,2232.3c0,0-23.1,235.6-29.9,375.3c447.3,106.7,577.9,49.4,577.9,49.4
			s-16.5-303.7-15.6-375.6C1807.9,2258.4,1331.4,2232.3,1331.4,2232.3z"/>
		<path class="Graphic_x0020_Style_x0020_27" d="M2464.3,2671l-206.4,249.1c-17-0.3-34.3-0.5-52-0.7l253.8-306.3L2464.3,2671z"/>
		<path class="st1" d="M2464.3,2607.6l-4.7,5.7l-253.8,306.3c-99.3-1-210.5-0.7-335.7,1.9c-427.9,8.7-681.4,36.5-909.6-142.3
			c-57.9-45.4-104.2-96.2-142.2-145.7l-19.1-25.7h36.7H2464.3z"/>
		<path class="Graphic_x0020_Style_x0020_27" d="M1838.2,1092.1c0,0,109.8,36.3,120.2,163.8c10.4,127.5,49.8,280,6.8,341.3
			c-43,61.3-113.4,43.6-119.9,41.4c-6.6-2.2-19.7-63.5-19.7-63.5s39.4-24.8,33.6-37.2c-59.8,11.7-83.2,5.1-94.1,0
			c-10.9-5.1-13.9-82.4-13.9-82.4l70.3-363.4H1838.2z"/>
		<path class="st3" d="M1826.5,1518.9c0,0,26.2-10.5,56.7,44.4c30.4,55,20.1,357.6-8.1,415.8c-50.7,108.5-9.7,159.2-95.9,188.8
			c-87.7-44.7-60.5-175.9-70.9-230C1698,1883.9,1826.5,1518.9,1826.5,1518.9z"/>
		<path class="Graphic_x0020_Style_x0020_21" d="M1866.2,1718.9c0.6,1.7,1.2,3.4,1.8,5.1c40.8,128.1-5.8,192-39,244.4
			c-9.5,132.6,54.9,304.2,42.3,325.6c-29.2,49.5-491.7,17.8-531.1-15.2c-39.3-33,7.6-492.4,67.2-612.9
			c59.6-120.5,225.4-194.7,225.4-194.7s158,6.8,193.6,32.6c35.6,25.8,43.5,27.5,51.8,51.1"/>
		<path class="st1" d="M1404.5,2343.1c5.9,5.1,45.7,27.9,53.3,45.7s44,124.3,49,138.7c5.1,14.4-58.3,28.8-77,16.1
			c-18.6-12.7-56.7-74.6-60-97.8s-12.7-72.3-12.7-72.3L1404.5,2343.1z"/>
		<path class="st3" d="M1569.4,1490.6c0,0-304,21.8-344.6,460.2c-25.5,275.4,131.1,460.2,131.1,460.2c36.2-16.3,67.7-35.3,65.5-73.1
			c0,0-114.1-265.4-43.7-420.8c67.6-149.2,181.8-206.2,181.8-206.2"/>
		<path class="Graphic_x0020_Style_x0020_26" d="M2397.7,1221.5c0,0-79,51-74.8,170.2c4.2,119.2-79.7,339.1-93,381.2
			c-13.3,42.1-20.5,63.4-0.2,82.2c20.3,18.8,122.2,39.8,145.7,18.6c23.5-21.2,51.6-39.7,55.8-69.3
			C2435.4,1774.8,2465.4,1246,2397.7,1221.5z"/>
		<path class="st1" d="M2233.1,1863.2c0,0,2-53,42.2-69.7s101.4,57.6,101.2,84.2c34.7-29.2,34.7-29.2,34.7-29.2
			s-13.3-103.5-87.5-99.9S2214,1801,2214,1801s-5.6,17.3-2.2,32.7C2214.6,1846.1,2225.3,1856.3,2233.1,1863.2z"/>
		<path class="Graphic_x0020_Style_x0020_26" d="M2665,1152.8c14,10.1,340,116.7,351.4,318.4c11.4,201.7-142.1,667.2-142.1,667.2
			c-141.3,21.6-287.1,17.9-440.2-26.6c0,0-76.1-541.6-81.2-653.3c-5.1-111.6,30.4-229.6,57.1-253.7
			C2436.7,1180.7,2665,1152.8,2665,1152.8z"/>
		<path class="st1" d="M2555.3,1253.6c2.2,3.9-10.9,42.5,15.5,92.3c-15.5,25.1-25.1,42.8-25.1,42.8s-48.9-72.9-35.5-123
			C2533.2,1236.5,2555.3,1253.6,2555.3,1253.6z"/>
		<path class="Graphic_x0020_Style_x0020_26" d="M2819.7,1484.7l13.9,46c0,0,54.8,257.6,17.1,338.8c84.3,175.1,0.1,262.6,0.1,262.6
			s110.1,5.2,139,19.1c28.9,14,21.5-65.5,39.2-339.8c7.1-109.6,26.3-246.4,8.9-327.5c-26.2-121.9-95.4-164-95.4-164"/>
		<path class="Graphic_x0020_Style_x0020_26" d="M2577.3,1236.6c0,0-14.5,28.9-81,52.8c-74.1,26.6-151.1-234.3-151.1-234.3
			s216.9-172.8,295-60c24.6,73,61.5,176.1,61.5,176.1s-84.6,165.2-128.7,178.2c-18.1-26-23.1-78.8-23.1-78.8"/>
		<path class="Graphic_x0020_Style_x0020_26" d="M2821.8,2492.4c0,0-260.5,84-379.7,68.1c-71-33.6-93.4-44-133-29.6
			s-64.1,26.2-76.7,44c10.8,46.3,8.7,10.4,8.7,10.4l69.6-15.4c16.2-0.4,19.2-0.5,12.3,10.8l-52.6,11.6l-3.8,27.3
			c0,0,77.2-15.1,106.3-1.5c29.2,13.6,92,13.5,192.3,6.6c100.3-7,308.3,1.9,332.9-66.6C2922.5,2489.5,2821.8,2492.4,2821.8,2492.4z"
			/>
		<path class="Graphic_x0020_Style_x0020_27" d="M3253.1,2766.7c-55.7-45.6-406.9,30.2-406.9,30.2L2537,2928.7l0,0
			c410.8,18.1,528.3,45.3,747.3-73.9C3280.9,2815.1,3271.2,2781.5,3253.1,2766.7z"/>
		<path class="Graphic_x0020_Style_x0020_21" d="M2952.9,2081.3c3.8,1.3,128.1-82.5,156-73.6c27.9,8.9,102.7,272.7,86.3,416.1
			s85,303.1,74.9,357.6c-10.1,54.5-177.9,73.8-337.7,78.9c-159.8,5.1-167.2-200.6-171-208.2c-3.8-7.6-19.7-308.2,65-424.9
			C2911.1,2110.5,2952.9,2081.3,2952.9,2081.3z"/>
		<path class="st1" d="M2311.9,2319.4c0,0-125.9-33.7-188.5-4.6c-62.6,29.1-87.9,63.8-87.9,63.8s5.9,11,24.5,4.2
			c18.6-6.8,63.5-44,71.1-35.5c7.6,8.5-6.8,74,49,67.8c55.8-6.1,86.3-33.6,139.5-22.4s269.8,126.6,269.8,126.6l53.3-114.5
			L2311.9,2319.4z"/>
		<path class="Graphic_x0020_Style_x0020_21" d="M3083,2241.2c27.9,104-74.2,240-147.8,278.1c-124,64.2-215.6,43.4-383,7.9
			c-53.3-40.6,52-134.5,52-134.5s130,18.6,212.5-39.7c24.5-17.3,28.1-55.3,43.8-85.3"/>
		<path class="Graphic_x0020_Style_x0020_26" d="M2757.6,1732.8c0,0,5.2,250,60.7,269.9c55.4,20,81.4-4,83.4-16
			c1.1-6.4-9.8-129.9-48.6-195.9C2819.7,1733.9,2757.6,1732.8,2757.6,1732.8z"/>
		<path class="Graphic_x0020_Style_x0020_27" d="M2293.2,1062.3c0,0,104.1,54.2,181.1-38c33.6,66.2,96.5,65.1,96.5,65.1l20.6,44.5
			c0,0,9.1-52.1,8.3-58.6s29.1-35.8,42.1-28.7c13,7.1,26.4,38.8,17.6,59.8c19.6-1.8,19.6-1.8,19.6-1.8s22-220.1-55-272.1
			c-77-52.1-159.4-39-199.6,0S2281.2,958.2,2293.2,1062.3z"/>
		<path class="st1" d="M1979.4,2383.2c0,0-261.3-22.2-268.3-22.2l-13.7,12.3c7,0,268.3,22.2,268.3,22.2l0.1,0.3l13.7-12.3
			L1979.4,2383.2z"/>
		<polygon class="Graphic_x0020_Style_x0020_27" points="2132.2,2713 1979.6,2383.6 1965.9,2395.9 2118.6,2725.4 		"/>
		<path class="st1" d="M2118.6,2725.4l-286.7-49.9l-134.5-302.1c7,0,268.3,22.2,268.3,22.2L2118.6,2725.4z"/>
		<polygon class="Graphic_x0020_Style_x0020_26" points="1777.7,2518.7 2025.6,2554.5 1973.7,2733.7 1727.6,2680.5 		"/>
		<path class="Graphic_x0020_Style_x0020_26" d="M1676.5,1406.9c1.2,2.5-54.6,92.3-54.6,92.3s39.7,115.7,82,130.1
			c42.3,14.4,65.9-69.1,63.3-99.8c-2.5-30.7,27.5-66,27.5-66L1676.5,1406.9z"/>
		<path class="Graphic_x0020_Style_x0020_26" d="M1928.8,1244.6c0,0-4.5,79-36.1,142.3c-36.3,72.8-103.7,130.1-162,107.3
			c-108.9-42.7-70.8-254.6-20.4-294.8C1760.6,1159.2,1919.7,1195,1928.8,1244.6z"/>
		<path class="Graphic_x0020_Style_x0020_27" d="M1825.6,1089.2c0,0,22.6,102.1,7.3,116.7c-15.3,14.6-83.2,35-118.2,72.2
			c-35,37.2-34.2,86.4-29.9,135c4.2,48.6-41.6,117.5-103.6,92.7s-66.4-120.4-66.4-120.4s68.6,29.2,83.2-39.4
			C1612.5,1277.4,1695.7,1052.7,1825.6,1089.2z"/>
		<path class="Graphic_x0020_Style_x0020_26" d="M2241.3,1816.2c0,0,48.2-60.3,103.5-14.6c41,43.1,30.5,72.1,30.5,72.1l-120.1,160.7
			c0,0,18.8,29.7,20,59.2c1.2,29.5-31.5,74.4-31.5,74.4s-15.9,3.7-17.8-21.4c-1.9-25.1,18.2-55.7-7.2-42.5
			c-25.4,13.3-143.1,103.5-149.8,112c-6.7,8.6-26.3-4.7-18.5-19.7c13.4-25.7,22.3-22,56.2-62.6c-21.6-24.1,10.9-60.3,26.4-71
			C2148.7,2052.2,2241.3,1816.2,2241.3,1816.2z"/>
		<path class="st1" d="M2573,1369.2c-61.6-5.4-15.9,726,41.9,777.4"/>
		<path class="Graphic_x0020_Style_x0020_27" d="M3071.7,2060.2c-44-23.3-68.5-21.6-103.3,62.1c-46.1,110.9-152.2,169.9-152.2,169.9
			s28.9-210,28.7-335.9c-0.2-126-32.8-151.5-77.8-171c-45-19.5-3-93-3-99c0,0,131.5-126.5,251.5-35.5c120,91,13,140,139,332.9
			s42.3,369.4,42.3,369.4l-9.1-75c0,0-8.2-172.6-83.1-228.4c60.7,79.2,44.6,219.8,44.2,218.7
			C3140.7,2243.4,3115.7,2083.4,3071.7,2060.2z"/>
		<path class="Graphic_x0020_Style_x0020_27" d="M1838.2,1153.1c0,0-20.9,63,59,96.9c41.8,17.8,5.8,117.6,5.8,113.4
			c0-4.2,78.5-34.3,25.8-123.1C1876.2,1151.5,1846.5,1138.7,1838.2,1153.1z"/>
		<path class="st1" d="M2573.2,1384.9c0,0-7.6-37.2,0-44c7.6-6.8,123.3-162.5,128.5-187.8c61,15.3,69.7,47.7,69.7,47.7
			S2630.7,1385.8,2573.2,1384.9z"/>
	</g>
	<g>
		<path class="Graphic_x0020_Style_x0020_27" d="M826.2,1455.3c-9.5-75.7-17.6-139.8,17.7-168c2.1-1.7,23.8-18.4,49.7-12.2
			c26.1,6.3,38,31.4,39.8,35.4c-13-79.7,3.1-140.6,34.3-151.4c13.5-4.7,34.5-1.5,49.7,11c22.2,18.2,21.2,47.2,21,50.8
			c3.3-21.6,18.3-104.2,77.3-132.6c11.7-5.6,34.2-16.4,51.9-5.5c20.3,12.5,18.9,43.9,18.8,46.4c29.3-53,73.7-78.9,103.9-68.5
			c13.7,4.7,25.8,17.2,29.8,32c7.2,26.4-11.2,60.1-48.6,78.5c21.8-1.2,41.6,7.5,50.8,23.2c15,25.5-5.6,56-8.8,60.8
			c-20.7,30.6-65.4,43-113.8,34.3c39.6,31.6,58.2,70,47.5,96.1c-7,17-24.6,24.8-44.2,33.1c-20,8.5-60.5,21.9-118.2,13.3
			c35.4,18.7,59.3,45.1,56.4,68.5c-3.9,31.3-54.4,44.9-92.8,55.2c-28,7.5-154.6,41.7-203.3-21
			C834.6,1521.4,831.8,1499.4,826.2,1455.3z"/>
		<path class="st4" d="M730,1565c27.4,15.7,62.3,10.4,91.2-2.4c54.2-23.9,95.1-70.4,129.1-118.9c34-48.6,63.2-100.9,103.3-144.5
			c37.9-41.3,84.5-73.6,125.8-111.6c31.1-28.6,59.3-60.5,83.8-95"/>
		<path class="st4" d="M883.9,1355c32.1,50.2,42.3,107.5,9.6,157.3"/>
		<path class="st4" d="M923.6,1480.2c41.5-21.2,124,14.9,166.7,8.7"/>
		<path class="st4" d="M987.9,1387.4c17.9-52.4,5.4-101.3,9-146.1"/>
		<path class="st4" d="M1129.8,1140c-3.7,40.4-14.2,80.1-30.9,117"/>
		<path class="st4" d="M1146.6,1216.6c38.2-14.1,81.1-15,119.8-2.5"/>
		<path class="st4" d="M1019,1342c42.7-21.3,92.8-23.7,137.3-6.6"/>
	</g>
	<g>
		<path class="st5" d="M793.4,1632.4c91.3-57.4,133.6-56.4,146.5-91.9c8-22.1,2.7-53.3-17.5-67.7c-25.1-17.8-60.1-0.7-61.8,0.2
			c81.6-58.6,118-127.5,99.4-161.9c-8.8-16.3-34.8-33.7-63.8-33.1c-22.6,0.5-38.9,11.8-45.5,17c46.5-81.9,60.4-152.2,35.1-173.3
			c-9.9-8.3-32.9-14.9-54-7c-17.1,6.5-26.4,20-29.8,25.8c15.2-57.4-8.3-104.6-38.6-112.9c-18.8-5.1-41.3,4.5-54.7,19.6
			c-18.7,21-20.9,54.2-4.2,81.2c-2.1-2-34.1-31.1-60.4-20.9c-28.6,11.2-31.6,61.7-20.4,94.1c11.2,32.2,37.3,48.9,46.8,54.4
			c-3.9-2.5-41.3-25.5-68.9-10.2c-37.8,21.1-20.2,94-19.1,98.7c16.8,66.3,82.5,96.6,95.9,102.4c-45.5-2.5-83.4,16.9-93.6,45.5
			c-12.7,35.8,22.8,72.8,42,92.9c47,49.1,108.7,60.9,140.3,64.2C772.6,1645.9,781.8,1639.7,793.4,1632.4z"/>
		<path class="st0" d="M747.5,1082.8c-2.6,57.2,2,114.7,13.6,170.7c16.8,80.7,48.4,160.4,41.7,242.5c-2.1,25-7.7,49.6-13.3,74.1
			c-6.4,27.9-13,56.4-27.5,81.1c-13.5,22.9-33.3,41.7-55.7,56"/>
		<path class="st0" d="M786.4,1587.7c-0.7-4-2.9-7.5-5.4-10.6c-14.7-18.7-38-28.2-60.7-35.4c-22.7-7.2-46.4-13.1-65.6-27.1"/>
		<path class="st0" d="M791.9,1377c-13.7-24.7-41.5-37.4-67.9-47.3c-26.4-9.8-54.8-19.3-72.9-40.9"/>
		<path class="st0" d="M767.9,1279.9c-5.2-14.4,2.1-30.7,12.7-41.8c10.7-11.1,24.4-18.6,36-28.7c11.6-10,21.6-24.1,20.4-39.4"/>
		<path class="st0" d="M754.9,1215.7c-0.6-4.6-1.2-9.4-3.2-13.6c-3-6.3-8.8-10.9-14.7-14.6c-12.1-7.8-25.5-13.6-37.8-21.1
			c-12.3-7.5-24-17.1-30.3-30.2"/>
		<path class="st0" d="M804.4,1463.1c1.8-11.3,3.7-22.7,8.3-33.2c8.8-20.1,26.4-34.7,42.9-49.1c16.5-14.5,33.1-30.9,38.3-52.2"/>
		<path class="st0" d="M872.5,1515.2c-15.3-3.7-31.8-2.1-46.1,4.5c-14.3,6.6-26.2,18-33.4,32"/>
	</g>
	<g>
		<path class="Graphic_x0020_Style_x0020_26" d="M613.8,1568.8c-7.4-96.4,11-129.5-11.8-154.6c-14.2-15.6-41.2-24.4-61-14.3
			c-24.6,12.5-25.6,47.4-25.7,49.2c-12.4-89.3-51.9-146.8-87-146.4c-16.6,0.2-41.3,13.5-52.9,36.9c-9,18.2-6.9,35.8-5.5,43.2
			c-45.6-71.1-95.6-111.4-122.9-100.2c-10.7,4.4-25.6,19.9-28.1,39.9c-2,16.3,4.9,29.3,8,34.4c-39.2-36-86.5-37.1-105.7-16.5
			c-11.9,12.8-13.6,34.7-7.3,51.6c8.9,23.6,34.3,39.2,62.7,37.3c-2.4,0.8-38.9,14.1-41.8,39.2c-3.1,27.4,35.8,50.8,66.2,55.4
			c30.2,4.6,54.4-9.1,62.7-14.4c-3.6,2.1-37.5,22.2-36.8,50.4c0.9,38.8,66.2,55.3,70.3,56.3c59.6,14.4,111.1-25.2,121.3-33.3
			c-20.9,35.1-21.4,73.2-2.9,93.3c23.1,25,67.3,12.3,91.3,5.4c58.6-16.8,93.7-60.8,109.5-84.6C615.8,1590.8,614.7,1581,613.8,1568.8
			z"/>
		<path class="st0" d="M158.5,1375.7c44.3,26,91.8,46.3,141.2,60.4c71.1,20.3,147.5,28.5,209.9,68.2c19,12.1,36.2,26.8,53.2,41.4
			c19.5,16.7,39.3,33.8,52.9,55.7c12.6,20.3,19.2,43.9,21.2,67.6"/>
		<path class="st0" d="M575.9,1557.2c-3.4-1.1-62.9,1.8-95.1,78.3"/>
		<path class="st0" d="M410.4,1463.3c-25.3,0.5-47,17.3-65.9,34.2c-18.8,16.9-38.2,35.4-62.9,40.8"/>
		<path class="st0" d="M323.3,1441.8c-13.6-1.9-23.5-14.5-27.8-27.6c-4.3-13.1-4.6-27.1-7.8-40.5s-10.1-27.2-22.8-32.6"/>
		<path class="st0" d="M267,1425.4c-3.9-1.5-7.9-3-12.1-3.2c-6.3-0.3-12.3,2.4-17.8,5.5c-11.3,6.4-21.4,14.5-32.6,21.2
			c-11.1,6.7-23.6,11.9-36.6,11.4"/>
		<path class="st0" d="M484,1489.3c-8.2-6.2-16.5-12.4-22.9-20.4c-12.3-15.3-16.5-35.4-21.1-54.5c-4.6-19.1-10.7-39.1-25.4-52.2"/>
		<path class="st0" d="M553.8,1457.1c-9.3,10.6-14.9,24.4-15.7,38.4c-0.8,14.1,5.2,29.1,13.3,40.6"/>
	</g>
	<path class="st2" d="M937.1,1634l-394.3,4.6l85.9,277.4l0,0c68.7,0,200.5,0,200.5,0S913.6,1712.5,937.1,1634L937.1,1634z"/>
	<path class="Graphic_x0020_Style_x0020_26" d="M880.1,1916H594.6c-9.6,0-17.5,7.8-17.5,17.5v0c0,9.6,7.8,17.5,17.5,17.5h285.5
		c9.6,0,17.5-7.8,17.5-17.5v0C897.6,1923.8,889.8,1916,880.1,1916z"/>
	<polygon class="st1" points="844.5,1950.9 991.4,2607.6 971.3,2607.6 803.7,1950.9 	"/>
	<path class="st1" d="M665.5,1950.9l-74.4,291.6c-7-16.8-13.7-33.9-20-51.6l53.7-240H665.5z"/>
	<path class="st2" d="M2553.7,1295.5c0,0,28.8-58.5,23.8-70.5c-29.3,39.3-30.4,35.6-30.4,35.6L2553.7,1295.5z"/>
	<path class="Graphic_x0020_Style_x0020_26" d="M3501.9,1305.8h-297.6c-33.1,0-59.9,26.8-59.9,59.9v121.7c0,19.6,9.4,36.9,23.9,47.9
		l-80.5,73l146.5-60.9h267.7c33.1,0,59.9-26.8,59.9-59.9v-121.7C3561.8,1332.7,3535,1305.8,3501.9,1305.8z"/>
	<g>
		<path class="st1" d="M3214.5,1360h276.1c4.3,0,7.7-3.5,7.7-7.7c0-4.3-3.5-7.7-7.7-7.7h-276.1c-4.3,0-7.7,3.5-7.7,7.7
			C3206.8,1356.5,3210.2,1360,3214.5,1360z"/>
		<path class="st1" d="M3490.6,1402.5h-276.1c-4.3,0-7.7,3.5-7.7,7.7l0,0c0,4.3,3.5,7.7,7.7,7.7h276.1c4.3,0,7.7-3.5,7.7-7.7l0,0
			C3498.4,1406,3494.9,1402.5,3490.6,1402.5z"/>
		<path class="st1" d="M3490.6,1460.5h-276.1c-4.3,0-7.7,3.5-7.7,7.7c0,4.3,3.5,7.7,7.7,7.7h276.1c4.3,0,7.7-3.5,7.7-7.7
			C3498.4,1464,3494.9,1460.5,3490.6,1460.5z"/>
	</g>
</g>
</svg>
