<?xml version="1.0" encoding="utf-8"?>
<!-- Generator: Adobe Illustrator 22.0.0, SVG Export Plug-In . SVG Version: 6.00 Build 0)  -->
<svg version="1.1" id="Layer_1" xmlns="http://www.w3.org/2000/svg" xmlns:xlink="http://www.w3.org/1999/xlink" x="0px" y="0px"
	 viewBox="0 0 4000 4000" style="enable-background:new 0 0 4000 4000;" xml:space="preserve">
<style type="text/css">
	
		.Graphic_x0020_Style_x0020_22{fill:#8E9DF4;stroke:#1A1A1A;stroke-width:2;stroke-linecap:round;stroke-linejoin:round;stroke-miterlimit:10;}
	
		.Graphic_x0020_Style_x0020_27{fill:#1A1A1A;stroke:#1A1A1A;stroke-width:2;stroke-linecap:round;stroke-linejoin:round;stroke-miterlimit:10;}
	
		.Graphic_x0020_Style_x0020_26{fill:#FFFFFF;stroke:#1A1A1A;stroke-width:2;stroke-linecap:round;stroke-linejoin:round;stroke-miterlimit:10;}
	
		.Graphic_x0020_Style_x0020_21{fill:#5067EF;stroke:#1A1A1A;stroke-width:2;stroke-linecap:round;stroke-linejoin:round;stroke-miterlimit:10;}
	
		.Graphic_x0020_Style_x0020_29{fill:none;stroke:#1A1A1A;stroke-width:2;stroke-linecap:round;stroke-linejoin:round;stroke-miterlimit:10;}
	
		.Graphic_x0020_Style_x0020_30{fill:none;stroke:#FFFFFF;stroke-width:3;stroke-linecap:round;stroke-linejoin:round;stroke-miterlimit:10;}
	.st0{fill:#FFFFFF;stroke:#1A1A1A;stroke-width:2;stroke-linecap:round;stroke-linejoin:round;stroke-miterlimit:10;}
	.st1{fill:#8E9DF4;stroke:#1A1A1A;stroke-linecap:round;stroke-linejoin:round;stroke-miterlimit:10;}
	.st2{fill:#1A1A1A;stroke:#1A1A1A;stroke-width:2;stroke-linecap:round;stroke-linejoin:round;stroke-miterlimit:10;}
	.st3{fill:#5067EF;stroke:#1A1A1A;stroke-width:2;stroke-linecap:round;stroke-linejoin:round;stroke-miterlimit:10;}
	.st4{fill:#FFFFFF;}
	.st5{fill:none;stroke:#1A1A1A;stroke-width:2;stroke-linecap:round;stroke-linejoin:round;stroke-miterlimit:10;}
</style>
<g>
	<rect x="3231" y="862.2" class="Graphic_x0020_Style_x0020_27" width="285.6" height="315.3"/>
	<path class="Graphic_x0020_Style_x0020_22" d="M3407.4,1083.8c-26.6,2.4-50.9-21.8-77.5-12.1c-33.9,9.7-55.7,33.9-87.2,53.3
		c-0.6,0.5-1.3,1-1.9,1.5v41.3h266.2V994.6c-15.6,10.6-32,20.7-48.7,31C3441.3,1037.8,3438.9,1079,3407.4,1083.8z"/>
	<path class="Graphic_x0020_Style_x0020_26" d="M3240.7,871.9v254.7c0.7-0.5,1.3-1,1.9-1.5c31.5-19.4,53.3-43.6,87.2-53.3
		c26.6-9.7,50.9,14.5,77.5,12.1c31.5-4.8,33.9-46,50.9-58.1c16.7-10.3,33.1-20.4,48.7-31V871.9H3240.7z"/>
	<rect x="188.6" y="840.3" class="Graphic_x0020_Style_x0020_27" width="256.2" height="339.9"/>
	<rect x="198.3" y="907.5" class="Graphic_x0020_Style_x0020_26" width="236.9" height="225"/>
	<rect x="198.3" y="850" class="Graphic_x0020_Style_x0020_26" width="236.9" height="57.5"/>
	<rect x="198.3" y="1132.6" class="Graphic_x0020_Style_x0020_26" width="236.9" height="37.9"/>
	<rect x="466.8" y="1186.5" class="Graphic_x0020_Style_x0020_27" width="256.2" height="344.8"/>
	<rect x="476.5" y="1196.2" class="Graphic_x0020_Style_x0020_27" width="43.1" height="52"/>
	<rect x="476.5" y="1248.3" class="Graphic_x0020_Style_x0020_26" width="43.1" height="273.4"/>
	<rect x="519.6" y="1248.3" class="Graphic_x0020_Style_x0020_26" width="193.7" height="273.4"/>
	<rect x="519.6" y="1196.2" class="Graphic_x0020_Style_x0020_26" width="193.7" height="52"/>
	<path class="st0" d="M357.3,3005.9c110.3-135.5,338.7-376.7,707.9-524.9c610.3-244.9,1161.6-57.4,1305.4-3.5
		c45.1-61.7,185-235.4,417.9-279.7c302.5-57.5,638.9,126.7,811.5,466.2c71-49.2,162.2-49.9,224.5-3.5
		c79.5,59.3,80.2,172.1,44.9,245.2c-40.8,84.3-126.6,109.8-141.6,114C2604.3,3015.1,1480.8,3010.5,357.3,3005.9z"/>
	<path class="st0" d="M3782.4,3025.6c0-72.8-831.7-131.9-1857.6-131.9s-1857.6,59-1857.6,131.9c0,27,114.4,52.1,310.6,73
		c-29.4,15.7-45.1,32-45.1,48.9c0,111.6,683,202,1525.6,202s1525.6-90.4,1525.6-202c0-13-9.2-25.7-26.9-37.9
		C3622.8,3086.7,3782.4,3057.5,3782.4,3025.6z"/>
	<g>
		<path class="Graphic_x0020_Style_x0020_22" d="M3336.8,2291.8l-48.6,748.7c75.7,14.8,149.8,18.6,222.4,11.4l-15.9-760.1H3336.8z"
			/>
		<path class="Graphic_x0020_Style_x0020_27" d="M3536.8,2291.8h-42.1l15.9,760.1c25.1-2.5,50.1-6.3,74.8-11.4L3536.8,2291.8z"/>
		<g>
			<g>
				<path class="Graphic_x0020_Style_x0020_27" d="M3508.2,2085.9c-7.9-63-14.7-116.4,14.7-139.8c1.8-1.4,19.8-15.3,41.4-10.1
					c21.7,5.2,31.6,26.1,33.1,29.4c-10.8-66.4,2.6-117.1,28.5-126c11.2-3.9,28.7-1.2,41.4,9.2c18.5,15.2,17.6,39.3,17.5,42.3
					c2.8-17.9,15.2-86.7,64.4-110.4c9.8-4.7,28.5-13.7,43.2-4.6c16.9,10.4,15.8,36.5,15.6,38.6c24.4-44.1,61.3-65.6,86.5-57
					c11.4,3.9,21.5,14.3,24.8,26.7c6,22-9.4,50-40.5,65.3c18.2-1,34.6,6.2,42.3,19.3c12.5,21.2-4.6,46.6-7.4,50.6
					c-17.2,25.5-54.5,35.8-94.8,28.5c33,26.3,48.5,58.3,39.6,80c-5.8,14.1-20.5,20.6-36.8,27.6c-16.6,7.1-50.4,18.2-98.4,11
					c29.5,15.6,49.4,37.6,46.9,57c-3.3,26.1-45.3,37.4-77.3,46c-23.3,6.3-128.7,34.7-169.3-17.5
					C3515.2,2141,3512.8,2122.6,3508.2,2085.9z"/>
				<path class="Graphic_x0020_Style_x0020_30" d="M3428.1,2177.2c22.8,13.1,51.9,8.6,76-2c45.2-19.9,79.2-58.6,107.5-99
					c28.3-40.4,52.6-84,86-120.3c31.6-34.4,70.4-61.3,104.8-92.9c25.9-23.8,49.4-50.4,69.8-79.1"/>
				<path class="Graphic_x0020_Style_x0020_30" d="M3556.3,2002.4c26.7,41.8,35.2,89.5,8,131"/>
				<path class="Graphic_x0020_Style_x0020_30" d="M3589.3,2106.6c34.6-17.6,103.2,12.4,138.8,7.2"/>
				<path class="Graphic_x0020_Style_x0020_30" d="M3642.8,2029.4c14.9-43.6,4.5-84.4,7.5-121.6"/>
				<path class="Graphic_x0020_Style_x0020_30" d="M3761,1823.4c-3.1,33.6-11.8,66.7-25.7,97.4"/>
				<path class="Graphic_x0020_Style_x0020_30" d="M3774.9,1887.2c31.8-11.8,67.5-12.5,99.7-2.1"/>
				<path class="Graphic_x0020_Style_x0020_30" d="M3668.7,1991.6c35.5-17.8,77.2-19.8,114.3-5.5"/>
			</g>
			<g>
				<path class="st1" d="M3464.5,2354.2c69.8,56.5,80.4,90.1,111.8,90.7c19.6,0.4,42.7-12.2,48.6-32c7.2-24.5-15.7-47.6-16.8-48.7
					c68.2,48.5,132.2,58.6,154.3,34.7c10.5-11.3,17.2-36.5,8.9-59.2c-6.5-17.7-19.8-27.5-25.7-31.3c77.1,14.6,136.1,6.6,146-19
					c3.9-10.1,2.9-29.9-9-44.4c-9.7-11.8-22.9-15.4-28.3-16.6c49.3-3.5,80.2-34.7,78.5-60.8c-1-16.2-14.7-31.3-30.2-37.8
					c-21.6-9-48.3-1.9-65.1,18.5c1-2.2,15.3-35.2,0.2-53.2c-16.5-19.5-57.1-8.3-79.6,9.3c-22.4,17.5-28.5,42.5-30.3,51.5
					c0.9-3.7,9-39.4-10.5-57c-26.8-24.1-79.5,9.4-82.9,11.5c-47.7,31.1-53.9,91-54.9,103.1c-10.3-36.5-35.8-61.2-61-61.5
					c-31.6-0.4-51.2,37.5-61.9,58.1c-26,50.3-18.7,102-12.8,127.8C3448.3,2341.5,3455.7,2347.1,3464.5,2354.2z"/>
				<path class="Graphic_x0020_Style_x0020_29" d="M3885.1,2170.2c-45.7,13.3-89.8,32.4-130.8,56.7c-59,35-113.4,81.3-179.9,98.1
					c-20.3,5.1-41.1,7.3-61.9,9.5c-23.7,2.5-47.9,5-71.3,0.2c-21.7-4.4-18.5-15.1-35.8-29c0,0-11.5-31.1-31.7-13"/>
				<path class="Graphic_x0020_Style_x0020_29" d="M3497.9,2336.7c2.9-1.6,5.1-4.3,6.9-7.1c10.8-16.6,12-37.5,11.6-57.3
					s-2.2-40.1,3.7-59"/>
				<path class="Graphic_x0020_Style_x0020_29" d="M3665.4,2284.3c15.8-17.4,18.3-42.8,19-66.3c0.6-23.5,0.5-48.3,12.6-68.5"/>
				<path class="Graphic_x0020_Style_x0020_29" d="M3735.4,2239.2c10-8,24.8-6.6,36.3-1.2c11.6,5.4,21.2,14.2,32.3,20.6
					c11,6.4,24.8,10.5,36.5,5.5"/>
				<path class="Graphic_x0020_Style_x0020_29" d="M3782.4,2211.7c3.5-1.7,7.1-3.4,9.9-6.2c4.2-4.1,6.2-9.8,7.6-15.5
					c2.9-11.7,3.9-23.7,6.5-35.5s7-23.5,15.6-32"/>
				<path class="Graphic_x0020_Style_x0020_29" d="M3600.9,2317.3c9.4-1.6,18.9-3.2,28.4-2.4c18.2,1.5,34.4,11.5,50.3,20.6
					c15.8,9.1,33.2,17.7,51.4,16.1"/>
				<path class="Graphic_x0020_Style_x0020_29" d="M3578.1,2385c-1.2-13-6.9-25.6-15.9-35.1c-9-9.5-21.3-15.8-34.2-17.7"/>
			</g>
			<g>
				<path class="Graphic_x0020_Style_x0020_26" d="M3459.9,2221c39.4-70.2,67.4-84.7,63.2-112.5c-2.6-17.4-17.2-35.9-35.7-38.1
					c-22.8-2.7-39.7,21-40.5,22.2c32.6-67.6,31.8-125.7,7.3-141.6c-11.6-7.5-34.9-9.7-53.7,1.1c-14.6,8.4-21.3,21.7-23.8,27.4
					c1.2-70.3-14.8-121.3-39-126.2c-9.5-1.9-26.9,2-37.9,14.7c-8.9,10.4-10.1,22.5-10.3,27.6c-10.6-43.1-42.8-65.6-65.6-60.2
					c-14.2,3.4-25.5,17.7-28.8,32.4c-4.7,20.5,5.7,43,26.3,54.8c-2.1-0.5-33.5-8.2-47,7.9c-14.8,17.5,1.3,51.7,20.3,69
					c18.8,17.1,41.9,18.8,50.1,19c-3.4-0.2-36.2-2-48.8,17.9c-17.3,27.3,20.3,68.9,22.7,71.5c34.7,37.5,88.6,33.8,99.4,32.9
					c-30.7,14.6-48.6,40.9-45.1,63.3c4.5,28,40.9,39.6,60.7,45.9c48.4,15.4,93,1.1,114.9-8C3451.1,2237.2,3454.9,2229.9,3459.9,2221
					z"/>
				<path class="Graphic_x0020_Style_x0020_29" d="M3233.5,1877.1c18.7,38.4,42.2,74.5,69.9,107c39.8,46.9,89,87.9,114,144.1
					c7.6,17.1,12.7,35.2,17.8,53.3c5.8,20.6,11.6,41.6,11,63c-0.6,19.8-6.9,39.2-16.5,56.6"/>
				<path class="Graphic_x0020_Style_x0020_29" d="M3438.9,2195.5c-1.9-2.4-44.4-27.8-102,10.4"/>
				<path class="Graphic_x0020_Style_x0020_29" d="M3367.6,2054c-17.8-11.3-40.6-9.7-61.4-6.7s-42.8,6.9-62.4-0.8"/>
				<path class="Graphic_x0020_Style_x0020_29" d="M3317.2,1999c-8.6-7.6-9.6-20.9-6.6-31.9c3-11.1,9.3-20.9,13.3-31.7
					c4-10.7,5.5-23.5-0.7-33.1"/>
				<path class="Graphic_x0020_Style_x0020_29" d="M3285.7,1961.6c-2-2.8-4.1-5.7-6.9-7.8c-4.2-3.1-9.6-4-14.9-4.4
					c-10.8-0.8-21.6,0.2-32.4-0.3c-10.8-0.5-21.9-2.7-30.6-9"/>
				<path class="Graphic_x0020_Style_x0020_29" d="M3406.6,2106c-2.8-8.1-5.7-16.2-6.5-24.7c-1.4-16.3,4.9-32.2,10.6-47.5
					s10.6-32.1,6.5-47.9"/>
				<path class="Graphic_x0020_Style_x0020_29" d="M3469.8,2115.9c-11.3,3-21.6,10-28.6,19.4c-7,9.4-9.8,22.6-9.5,34.3"/>
			</g>
		</g>
	</g>
	<path class="st0" d="M914.1,2572.2c-10.2,1.1-20.3,2-30.5,2.7l-46.4-311.7l73.1,5L914.1,2572.2z"/>
	<path class="st0" d="M1570.8,2279.7l-13.8,148.4c-24.6,3.1-48.7,6.7-72.5,10.9l-23.7-159.3H1570.8z"/>
	<path class="st2" d="M2087.3,2195.1l-5.2,823.1c-11.1-3.8-22.3,3.8-34.4,0l-32.7-811.5L2087.3,2195.1z"/>
	<g>
		<path class="st3" d="M1773,1056.7c4.3,5.2,50.4,11,57.4,79.4s11.3,347.6,14,447.6c2.6,100-8.7,194.8-8.7,194.8l-85.2-187.8
			L1773,1056.7z"/>
		<path class="Graphic_x0020_Style_x0020_27" d="M1401.4,2956.4c0,0-23.5,71.4-18.8,113.7c2.8,25.1,8.6,34.2,8.6,34.2
			s62.6,50.1,84.3,37.6c8.1-9,10.8-8.4,10.8-8.4s89,61.8,191.6,41.8c30-1.7-29.7-69.3-84.3-101.9c-51-30.4-64.7-83.5-64.7-83.5
			L1401.4,2956.4z"/>
		<path class="Graphic_x0020_Style_x0020_27" d="M1668.4,2966.8c0,0-29.9,92.8-26.2,135.1c3.7,42.3,3.7,42.3,3.7,42.3
			s71.7,18.1,94.1,5.2c7.8-14.7,7.8-14.7,7.8-14.7s81.2,54.4,187.3,33.7c31.1-1.7-22.3-54.4-78.1-80.3s-77.3-74.2-77.3-74.2
			L1668.4,2966.8z"/>
		<path class="Graphic_x0020_Style_x0020_26" d="M1797.6,3007.6c-60,14.3-96.2-7.2-149.9-17.7c9.6-83.7-5.2-750-14.4-843.9
			c-4.8-49,30.4-99.2,16.4-144c-59.6-191-51.5-297.3-42.3-341.8c3.6-17.3,7.3-25.3,7.3-25.3l178.2,16.9c0,0,74,131.8,89.7,288.3
			C1891.7,2030.8,1821.5,2836.1,1797.6,3007.6z"/>
		<path class="Graphic_x0020_Style_x0020_26" d="M1711,1935.9c-4.4,58.1-17.1,130.9-33.7,208.1c-20.1,92.9-102.7,756.6-127,843.5
			c-70.7,6.2-104,0.7-164.1-16.1c1.6-7.7,30.8-576.7,33.3-594.3c30.4-213.4-37.4-377.5-33.1-533.3c4.7-168.7,58.8-208.7,58.8-208.7
			l162.3,25.3l77.8,12.1l4.4,13C1689.6,1685.5,1725.2,1748.1,1711,1935.9z"/>
		<path class="st2" d="M1697.4,1703.7c109.3-20.5,105.1-33.4,105.1-33.4l-9.2-23.3c0,0-348.3-21.9-348.3-21.3c0,0.5-9,18.9-9,18.9
			S1588.1,1724.3,1697.4,1703.7z"/>
		<path class="Graphic_x0020_Style_x0020_26" d="M1456.7,1590.7c0,0-22.8,41.1-18.9,48.9c175.5,69.8,278.5,84.8,362,16.3
			c-7.4-41.5-13-43-13-43L1456.7,1590.7z"/>
		<path class="st3" d="M1578,993.2c0,0-151.3,9.8-165.7,164.4c-14.4,154.6,37.8,442.2,37.8,442.2s238.5,117,341.2,23.9
			c13-104.4,31.8-503.5-5.2-564C1733.9,984.1,1578,993.2,1578,993.2z"/>
		<path class="st3" d="M1430.4,1153.2c0,0,152.6,278.3,252,277.4c74.6-0.7,167.7-172.3,232.3-265.2c-26.5-11.7-49.6-27.9-56.3-53.8
			c-16.2,14.8-32.4,28.8-46.4,39c-51.1,37.4-138.1,84.4-138.1,84.4s-63.5-83.5-84.4-118.3c-20.9-34.8-44.4-60-70.4-56.5"/>
		<path class="Graphic_x0020_Style_x0020_26" d="M1813,723.6c-36.2-47.3-194.8-64.8-206.1,81.7c-2.3,30.3,8.9,59.9,27.2,85.9
			l-25.3,101.6c24.4,47.3,59.7,88.4,106.8,123l20-19.6l0.9-57.4l12.1-63.6c27.4,7.5,53.4,7,62.2-12
			C1832.7,916.3,1867,794.1,1813,723.6z"/>
		<path class="st2" d="M1694.8,941.7c0,0,37,36.4,53.9,33.5c-4.7,31.7-4.7,31.7-4.7,31.7S1698,976.6,1694.8,941.7z"/>
		<path class="st2" d="M1608.8,863.6c0,0,7.6,50.4,19.4,51.5c11.8,1.1,20.5-23.7,17.9-43.3c-2.6-19.6,13-81.3,23.9-69.6
			c10.9,11.7,18.3,34.4,18.3,34.4l11.3-2.4c0,0-12.6-41.6,0-49.4c12.6-7.8,157.8,29.1,168.3-28.3c7.9-33-16.5-88.7-16.5-88.7
			s-27.8,21.7-82.6,2.6c-54.8-19.1-108.3-2.2-107,31.7C1642.1,695.8,1564.2,755.8,1608.8,863.6z"/>
	</g>
	<g>
		<path class="Graphic_x0020_Style_x0020_26" d="M1074.2,893.9c0,0-4-49.4-61.2-43.8c-57.2,5.6-126.3,85.9-136.4,184.6
			c7.5,4.8,14.2,8.8,20.3,12.1c-11,62.1-79.4,95.3-79.5,97.4c-8.2,99.5,51.3,246,111.9,294.6c40.4-16.5,94-162.7,114.2-294.4
			c-14.3-13.1-41.3-35.5-46.2-59.4c16.2,6.1,34.2,7.3,49.4-4.9C1086,1048.8,1074.2,893.9,1074.2,893.9z"/>
		<path class="st2" d="M774,2923.5c4.8,5,11.2,6.9,18.1,7c2.2,17.4,4,32.1,3.9,41.4c-0.3,31.1,17.3,68.7,36.7,93.9
			c19.3,25.2,0.4,37.1,0.4,37.1s-15.3-0.9-56.7-26c-41.4-25.1-61.5-126.9-57-150.2c4.5-23.2-52.6,87.5-52.6,87.5l-24.3-8.8
			l60.6-167.2l10.4-50.4C722,2838.3,737.2,2886.8,774,2923.5z"/>
		<path class="st0" d="M903.5,2473.3c0,0-97,264.4-112.7,320.3c-11,39.2-3.8,95.8,1.3,136.8c-6.9-0.1-13.3-1.9-18.1-7
			c-36.8-36.7-52.1-85.2-60.4-135.8L809,2419L903.5,2473.3z"/>
		<path class="st2" d="M1081.3,2960.2c6.2,3.1,12.9,2.7,19.4,0.4c8,15.6,14.7,28.8,17.8,37.5c10.4,29.4,39.7,58.7,66.5,75.8
			c26.8,17.1,13,34.7,13,34.7s-14.7,4.3-62.2-5.2c-47.5-9.5-101-98.4-104.7-121.8c-3.7-23.4-19.6,100.2-19.6,100.2h-25.9V2904
			l-7.4-51C1003.3,2897.9,1034.1,2938.2,1081.3,2960.2z"/>
		<path class="st0" d="M1082.5,2470.6c0,0-34,304-29.6,361.8c3,40.6,29,91.4,47.8,128.2c-6.5,2.3-13.2,2.7-19.4-0.4
			c-47.1-22-78-62.3-103.1-107.1l-14.3-388.2L1082.5,2470.6z"/>
		<path class="Graphic_x0020_Style_x0020_26" d="M1157.6,1758.3L941,1744.2l-0.1,6.1c-58.4-27.5-189.3,47.2-189.3,47.2
			c-10.4,0.4-52.4,47.9,10.9,558.7c3.8,30.6-3.5,176.7,2.3,209.9c44.6,4.2,119.5,10,165.8,4c6.6-0.9,13.3-1.8,20-2.8
			c47.4-7.2,96-18.4,146.1-31.5c34.2-204.5,75.5-419.8,82.1-564.9C1185.2,1831.5,1157.6,1758.3,1157.6,1758.3z"/>
		<path class="Graphic_x0020_Style_x0020_27" d="M744.8,1830.3c41.3,36.1,139.1,3,188.7-49.1c0,0,17.6,18.6,61.8,27.4
			c54.2,10.8,139.6-0.3,163-25.4c0.3-11.7,4.2-36.4,4.2-36.4l-237.5-29.3l-111.5,43l-75.3,41.1L744.8,1830.3z"/>
		<path class="Graphic_x0020_Style_x0020_26" d="M723.3,1488.5c-5.2-27.5-53-255.3-53-255.3s-123.7,166.7-75.4,365.1
			c4.2,17.4,20.3,11.2,27.3,29.2c25.2-50.6,40.4-75.5,75.1-120.4C696.2,1506.3,724.3,1489.5,723.3,1488.5z"/>
		<path class="Graphic_x0020_Style_x0020_21" d="M839.2,1125.6c0,0-182.9,96.6-168.9,107.6c14.7,11.6,77.8,524.8,64.6,574
			c-9.9,36.8,201.6,62.7,209.4-126.1c7.8-188.9-10.4-248.9-33.3-278.3C888.2,1373.5,807.3,1220.2,839.2,1125.6z"/>
		<path class="st3" d="M849.2,1121.5l-70.9,22.8l43.5,93.7l-26.5,64.4c0,0,116.7,142.9,132.4,131.6
			C888.9,1363.1,837.8,1195.8,849.2,1121.5z"/>
		<path class="Graphic_x0020_Style_x0020_26" d="M1182.9,1833.2c1.1,17.4,2.2,34.8,3.3,52.3c0.9,13.8,1.8,27.7,5.3,41
			c3.3,12.4,8.8,24.3,16.2,34.7c0.5,0.8,1.3,1.6,2.3,1.4c0.6-0.2,0.9-0.7,1.2-1.2c3.8-7.2,0.9-16-1-23.9c-1.5-6.1-2.3-12.4-2-18.6
			c0.1-2.5,0.4-5.1,1.7-7.2c1.3-2.1,3.8-3.7,6.2-3.3c2.4,0.4,4.1,2.6,5.3,4.6c8.4,13.4,10.8,29.7,12.9,45.4c2,14.6,4,29.2,6,43.7
			c0.6,4.5,1.4,9.3,4.4,12.6c0.7,0.8,1.7,1.5,2.7,1.1c0.6-0.2,1-0.8,1.3-1.4c7.6-13,12.6-27.5,14.6-42.4c1-7.6,1.3-15.3,1.5-22.9
			c0.7-23.5,1.3-47.8-7.3-69.7c-4.3-10.9-10.7-20.8-15.7-31.4s-8.8-22.3-7.2-33.8L1182.9,1833.2z"/>
		<path class="Graphic_x0020_Style_x0020_26" d="M1132.1,1188.5c0,0,88.7,9,82.2,137.7c-6.5,128.7,27.4,497.9,27.4,497.9l-66.5,17
			c0,0-73.1-206.5-79.6-326.3C1089.1,1395,1132.1,1188.5,1132.1,1188.5z"/>
		<path class="Graphic_x0020_Style_x0020_21" d="M1033,1138c0.4-4.7,140.6,38.7,135.3,63.5c-5.2,24.8-83.2,367,6.9,543.1
			c14.4,17-13,40.4-88.7,47c-75.7,6.5-142.2,22.2-156.6-52.2c-14.4-74.4-2.3-303.5-2.3-303.5S1023.8,1247.6,1033,1138z"/>
		<path class="st3" d="M1023.3,1125.6c0.1-1.6,70.2,23.7,70.2,23.7l-39.1,61.7l21.5,74.4c0,0-150.2,129.1-150.2,194
			C919.2,1378.9,1020,1226.5,1023.3,1125.6z"/>
		<polygon class="st0" points="857.5,1391.4 1032.4,1403.3 995.9,1653.9 828.9,1639.1 		"/>
		<path class="Graphic_x0020_Style_x0020_26" d="M1037.2,1484c-12.6-10.1-28.9-16.4-46.7-16.3c-48.3,0.3-126.5,39.5-126.5,39.5
			s-0.7,56.1,0,58.1c0.7,2,99.1-13,112.2-15c7.7-1.2,27.5,11.7,42.2,22.4C1040.9,1551.7,1042.6,1513.3,1037.2,1484z"/>
		<path class="Graphic_x0020_Style_x0020_26" d="M594.9,1598.4c2.6,11.9,20.5,43,37.8,47.6c68.5,18.6,261.6-77.1,261.6-77.1
			c6.6-28.5-1.8-53.9-20-77.4c0,0-119.5,45.7-161.3,14.1l-1-8.9l-2.6-21.9"/>
		<path class="Graphic_x0020_Style_x0020_27" d="M811.4,1165c0.4-2.2-19.1-48.6,0-78.2c-24.3,26.9-26.2,32.2-26.2,32.2
			s9.4-74.5,38.9-93.2c29.6-18.7,49-43.8,50.1-44.1c1.1-0.4,41.9,25.1,18.7,96.9C869.8,1150.4,811.4,1165,811.4,1165z"/>
		<path class="Graphic_x0020_Style_x0020_27" d="M869.4,991.7c0,0,109.4,4.3,123.5-79.9c14-84.2,83-31.4,83-31.4
			s-23.5-71.8-111.7-64.5C876.1,823.2,838,911.1,869.4,991.7z"/>
		<path class="Graphic_x0020_Style_x0020_27" d="M950.7,1066.5c0,0,34.4,18.5,46.7,18.6c9.2,33.6,9.2,33.6,9.2,33.6
			S961.4,1112.5,950.7,1066.5z"/>
	</g>
	<path class="Graphic_x0020_Style_x0020_27" d="M914.1,3134.2c-10.2,1.1-28.3-0.7-38.4,0l-38.4-871.1l73.1,5L914.1,3134.2z"/>
	<path class="Graphic_x0020_Style_x0020_27" d="M1570.8,2279.7l-19.5,994.7c-24.6,3.1-28.5-4.2-52.2,0l-38.3-994.7H1570.8z"/>
	<polygon class="Graphic_x0020_Style_x0020_26" points="773.1,2227.9 773.1,2272.9 1551.3,2298.4 1550.1,2253.3 	"/>
	<path class="Graphic_x0020_Style_x0020_27" d="M2650.3,2196.7l-5.2,823.1c-9,6.8-18.8,10-31,6.1l-36.1-817.6L2650.3,2196.7z"/>
	<g>
		<g>
			<polygon class="st4" points="2651.7,2165.3 1551.9,2253.4 773.1,2227.9 2066.4,2134.8 			"/>
			<polygon class="st4" points="2651.7,2210.3 2651.7,2165.3 1551.9,2253.4 1550.1,2253.3 1551.3,2298.4 1551.9,2298.4 			"/>
		</g>
		<g>
			<polygon class="Graphic_x0020_Style_x0020_26" points="2651.7,2165.3 1551.9,2253.4 773.1,2227.9 2066.4,2134.8 			"/>
			<polygon class="Graphic_x0020_Style_x0020_27" points="2651.7,2210.3 2651.7,2165.3 1551.9,2253.4 1550.1,2253.3 1551.3,2298.4 
				1551.9,2298.4 			"/>
		</g>
		<g>
			<polygon class="st5" points="2651.7,2165.3 1551.9,2253.4 773.1,2227.9 2066.4,2134.8 			"/>
			<polygon class="st5" points="2651.7,2210.3 2651.7,2165.3 1551.9,2253.4 1550.1,2253.3 1551.3,2298.4 1551.9,2298.4 			"/>
		</g>
	</g>
	<g>
		<polygon class="st0" points="850,2197.9 1246.1,2165.3 1242.2,2203.7 1104.6,2212.2 		"/>
		<path class="Graphic_x0020_Style_x0020_26" d="M850,2197.9c2.6-0.7,307.9,7.2,307.9,7.2v26.8l-307.9-9.5V2197.9z"/>
		<polygon class="st0" points="1421.8,2187.1 1418.4,2206.1 1157.9,2231.9 1157.9,2205.1 		"/>
		<polygon class="Graphic_x0020_Style_x0020_26" points="1318.2,1899.9 1167.7,2222.1 1430.4,2197.9 1570.8,1897.2 		"/>
		<polygon class="Graphic_x0020_Style_x0020_26" points="1150.8,2218.8 1308.3,1889.1 1318.2,1899.9 1167.7,2222.1 		"/>
		<polygon class="Graphic_x0020_Style_x0020_26" points="1570.6,1896.9 1548.7,1889.1 1308.3,1889.1 1318.2,1899.9 		"/>
	</g>
	<path class="Graphic_x0020_Style_x0020_26" d="M2024.8,1131.5c-0.7-2.6-38.5-30.7-62-40.4c-23.5-9.8-67.2-22.2-69.8-37.2
		c-2.6-15,3-71.1,14.2-78.3c11.2-7.2,83.6-12.3,98.6,3.3c15,15.6,67.6,117.4,67.6,117.4"/>
	<path class="Graphic_x0020_Style_x0020_26" d="M2076.4,1096.3c0,0-51.5-126.5-73.1-136.3c-21.5-9.8-101.8-24.6-97.8-11.3
		c3.9,13.3,45,23.7,45,23.7"/>
	<path class="st0" d="M2042.7,945.4l-48.7,10.4l-43.5,27.8l-6.1,42.6c0,0-42.9,45.9-86,85.4c6.7,25.9,29.8,42.1,56.3,53.8
		c21.5-30.9,39.8-53.1,53.3-57.4c53.9-17.4,84.4-34.8,84.4-34.8l39.1-34.8L2042.7,945.4z"/>
	<path class="Graphic_x0020_Style_x0020_21" d="M2015.7,1136.7c9.5,33.7,217.9,249.2,341.8,232.2c123.9-17,230.9-70.4,230.9-70.4
		l36-202.6c0,0-189.5,96.5-291.2,109.5c-101.8,13-250.5-135.7-250.5-135.7S2006.1,1102.8,2015.7,1136.7z"/>
	<path class="Graphic_x0020_Style_x0020_27" d="M2695.2,3095.7c0,0-157.7,57.6-161.2,88.6c-3.5,31.1,145.6,17.3,210.7-8.1
		c5.2,11.5,5.2,11.5,5.2,11.5s72.5-12.1,78.3-19.6c9.2-47.2-6.9-95.5-18.4-101.3C2798.3,3061.2,2695.2,3095.7,2695.2,3095.7z"/>
	<path class="Graphic_x0020_Style_x0020_26" d="M2801.1,1869.8c-37.6,119-40.8,490.2-40,673.6c-4.7,1.1,53.3,524.6,53.3,524.6
		c5.1,24-114.3,70.2-151.9,32.4c-68.4-535.3-84.5-1348.1-84.5-1348.1l127.6-51.1l90.4-36.2l5.1-2c0,0,1.1,1,2.7,3.1
		C2813.6,1678.8,2844.4,1732.6,2801.1,1869.8z"/>
	<path class="st2" d="M2858.4,3084.5c0,0-22.4,68.2-32.8,92.4c-10.4,24.2-31.9,48.3-26.8,61.3c5.2,12.9,29.9,52.4,119.7-34.8
		c21.3-18.1,31.4-33.1,31.4-33.1l2.6,10.1c0,0,29.7-0.9,42.7-19c3.5-36.3-13.4-105.3-13.4-105.3L2858.4,3084.5z"/>
	<path class="Graphic_x0020_Style_x0020_26" d="M2708.4,1653.3l87.5,11.8l7.8,1l143.4,19.3c0,0,73.9,88.7,54.8,249.6
		c-15.8,133.2-38,869.1-10,1129.5c-72.9,40-134.2,33.5-147.1,35.9c-20.5-119.2-175.8-881.6-176.7-1045.4"/>
	<path class="Graphic_x0020_Style_x0020_27" d="M2750.2,1740.5c67.2-9,151.4-19.2,202-66.3c-11.1-27.2-11.1-32.2-11.1-32.2
		l-375.7,56.5c0,0-1.2,13.2-0.8,28.1C2623.3,1746.6,2688.2,1748.7,2750.2,1740.5z"/>
	<path class="Graphic_x0020_Style_x0020_26" d="M2750.2,1740.5c-62,8.2-126.9,6.1-185.6-13.9c0.4,16.2,2.7,34.3,10.4,39.7
		c14.8,10.4,355.7,10.4,384.4-75.2c-2.8-6.4-5.1-12-7.1-16.9C2901.6,1721.4,2817.4,1731.6,2750.2,1740.5z"/>
	<path class="Graphic_x0020_Style_x0020_21" d="M2777.6,1001c-2.2,1.6-181.8,91.3-214,160s-52.2,500.1,5.2,548.3
		c57.4,48.3,379.6,11.7,379.6-63.9c0-75.7,78.3-514,24.8-560.9S2844.1,952.8,2777.6,1001z"/>
	<path class="Graphic_x0020_Style_x0020_26" d="M2853.2,833.3c23.4-106.7-40.9-152.1-100.2-161.6c-59.2-9.5-121.4,33.6-133.1,70.2
		c0,0-45.3,218.5,9.5,229.2c10.4,2,24,2.1,39.5,0.3c5.1,38.4,0.1,89.6,1.5,120c-0.3,5.3,1.1,12.1,5.5,14.6c2.3,1.3,6.7-1.9,8.8-2.9
		c47.9-22.4,129-81.6,137.4-109c-4.9-26.5-12-59.7-9.9-89C2832,885.7,2847,861.9,2853.2,833.3z"/>
	<path class="st2" d="M2728.8,952.3c0,0-44.2,17.9-59.9,19.1c1,22.7,1.2,26.6,1.2,26.6S2724.5,982.8,2728.8,952.3z"/>
	<path class="Graphic_x0020_Style_x0020_26" d="M3003.4,1870.1c-22.3,37.2-76.7,113.6-58.9,146.4c7.4,12.9,22.2-34.3,29.6-36.7
		c-5.4,24.1-10.8,48.2-16.3,72.3c-2.8,12.3-4.2,27.6,8.1,34.8c9.4,5.5,22.5,3.2,32.7-1.3c29.4-12.8,46.5-40,52.8-67.2
		c6.3-27.2,3.5-55.3,3.1-83c-0.4-27.7,2-56.5,17.3-81L3003.4,1870.1z"/>
	<path class="Graphic_x0020_Style_x0020_21" d="M2935.9,1050.6c0,0,107.8,76.6,133.9,227.9c32.3,187.6,84.8,334.4,11.7,626.6
		c-53.5,5.2-105.7-18.3-105.7-18.3s30.7-207.5-17.8-428.2c-38.8-176.7-98-229.3-98-229.3"/>
	<g>
		<path class="Graphic_x0020_Style_x0020_26" d="M2008.8,2032.2h-86.4l14.4,154.7c0,0,28,9.7,56.9,7.1c9.3-0.8,18.7-3,27.2-7.1
			c8.1-101.1,12-154.7,12-154.7H2008.8z"/>
		<path class="st0" d="M2032.9,2032.2c0,4.7-24.7,8.6-55.2,8.6c-30.5,0-55.2-3.8-55.2-8.6c0-4.7,24.7-8.6,55.2-8.6
			C2008.1,2023.6,2032.9,2027.4,2032.9,2032.2z"/>
	</g>
	<path class="Graphic_x0020_Style_x0020_27" d="M2581.6,730.5c0,0,73.2,58,126.1,22.7c53-35.3,42.3,70,42.3,70s15.1,19.5,19.6,12
		c4.4-7.6,49.8-22.7,37.8,24c-12,46.7-21.4,44.1-5.7,59.9c15.8,15.8,76.3-75,74.4-121.7c-1.9-46.7-17.7-103.2-98.4-137.1
		C2697,626.5,2586,687.6,2581.6,730.5z"/>
	<path class="Graphic_x0020_Style_x0020_21" d="M2677.1,1106.1l42.2-51.5c0,0,97.4-64.4,108.3-90.4c5.4,23.5,17.2,26.4,17.2,26.4
		S2778.9,1069.6,2677.1,1106.1z"/>
	<path class="st3" d="M2752.8,1096.3c0,0-36.5-39.7-33.5-41.7c3-2,101.5-64.8,108.3-90.4c7.7,18.4,17.2,26.4,17.2,26.4
		S2774.3,1087.8,2752.8,1096.3z"/>
	<path class="st3" d="M2650.6,1058l-21.3,40.4c0,0,36.2-4.1,39.8-5.5c-15.7-38-7.6-24.9-7.6-24.9L2650.6,1058z"/>
	<path class="st3" d="M2672.7,1102.8l-27.8-44.8l29-20.9C2674,1037.1,2666.2,1087.6,2672.7,1102.8z"/>
	<path class="st3" d="M1838.9,1113.6c0,1.6-16.3,45.3,16.3,71.4s43.4,25.4,43.7,24.1c0.3-1.3,26.1-43.7,26.1-43.7
		s-63.2-41.8-62.1-63.6C1841.5,1115.5,1838.9,1113.6,1838.9,1113.6z"/>
	<path class="st0" d="M1926.5,970.7c0,0,48-10.4,48.4,9.6c0.4,20-17,74.6-32.7,79.5c-15.7,4.9-40.9-1.9-40.9-1.9"/>
	<path class="st0" d="M1591.7,995.6l17.1-32.2c0,0,99.2,119.8,100.1,130.5c0.9,10.7,5.9,22,5.9,22S1598.4,1036.3,1591.7,995.6z"/>
	<path class="st0" d="M1716.9,1115.1c0,0,16.5-11.6,13.7-27.3c8.7-25.7,13.9-84.4,13.9-84.4s2.4,19.8,1.7,32.2
		c-0.4,7.6,4.2,35.9-4.2,56.5C1736.8,1105.2,1716.9,1115.1,1716.9,1115.1z"/>
	<path class="st0" d="M1730.6,1087.8l24.5,14c0,0,7.1-66.9,2.7-75.6c-13.8-21.2-13.3-22.8-13.3-22.8L1730.6,1087.8z"/>
	<path class="st0" d="M1576.7,993.9l32.1-30.4l99.3,128.1l-24.6,19C1683.5,1110.6,1572.8,1025.8,1576.7,993.9z"/>
	<path class="st0" d="M1499.1,1724.6c0,0-30.4,72.2-73.9,81.7"/>
	<path class="st0" d="M1797.6,1707.1c0,0,23.1,39.6,40.6,46.8"/>
	<path class="st0" d="M2762.2,1806.4c0,0,31.9,120.9,118,116.5"/>
	
		<ellipse transform="matrix(1.086374e-02 -0.9999 0.9999 1.086374e-02 -467.5595 4832.4702)" class="st5" cx="2208.8" cy="2652.6" rx="40.4" ry="40.4"/>
	
		<ellipse transform="matrix(3.876007e-03 -1 1 3.876007e-03 2272.4937 5111.5151)" class="Graphic_x0020_Style_x0020_26" cx="3701.9" cy="1415.1" rx="112.6" ry="112.6"/>
	
		<ellipse transform="matrix(1.269394e-03 -1 1 1.269394e-03 -2116.259 2810.885)" class="Graphic_x0020_Style_x0020_27" cx="349.1" cy="2464.9" rx="77.3" ry="77.3"/>
	
		<ellipse transform="matrix(6.944181e-03 -1 1 6.944181e-03 1783.0394 5019.3828)" class="st2" cx="3418.7" cy="1612" rx="62.2" ry="62.2"/>
	<rect x="255.4" y="991.8" class="Graphic_x0020_Style_x0020_22" width="127.8" height="10.4"/>
</g>
</svg>
