<svg id="Layer_1" data-name="Layer 1" xmlns="http://www.w3.org/2000/svg" xmlns:xlink="http://www.w3.org/1999/xlink" viewBox="0 0 6000 4000"><defs><style>.cls-1{fill:url(#linear-gradient);}.Graphic-Style-167{fill:url(#linear-gradient-2);}.cls-2{fill:url(#linear-gradient-3);}.Graphic-Style-183{fill:url(#linear-gradient-4);}.Graphic-Style-182{fill:#572658;}.Graphic-Style-164,.cls-9{fill:#1a1a1a;}.Graphic-Style-165,.cls-3{fill:#fff;}.cls-3,.cls-9{stroke:#1a1a1a;}.cls-3,.cls-5,.cls-7,.cls-8,.cls-9{stroke-linecap:round;stroke-linejoin:round;}.cls-3,.cls-5,.cls-7,.cls-9{stroke-width:5.12366px;}.cls-4{fill:#339e7e;}.cls-5,.cls-7,.cls-8{fill:none;}.cls-5{stroke:#10663f;}.cls-6{fill:#00593b;}.cls-7{stroke:#3dbe88;}.cls-8{stroke:#134411;stroke-width:7.68549px;}.cls-10{fill:#102140;}.cls-11{fill:#9daecc;}.Graphic-Style-177{fill:#152a52;}.Graphic-Style-175{fill:#912433;}.Graphic-Style-176{fill:#d1334a;}.Graphic-Style-174{fill:#eb485c;}.cls-12{fill:#a43d3e;}.cls-13{fill:#f27a66;}.Graphic-Style-61{fill:#736e73;}.Graphic-Style-171{fill:#d9d9d9;}.cls-14{fill:#fc9590;}.Graphic-Style-170{fill:#db6767;}.cls-15{fill:#df9b12;}.cls-16{fill:#edc951;}.cls-17{fill:#de9a11;}.cls-18{fill:#201c0e;}.cls-19{fill:#60532a;}.Graphic-Style-60{fill:#664708;}.Graphic-Style-172{fill:#ffde70;}.cls-20{fill:#f5cf51;}.Graphic-Style-169{fill:#ffb114;}.cls-21{fill:#ffe8b9;}.Graphic-Style-166{fill:url(#linear-gradient-6);}.Graphic-Style-168{fill:url(#linear-gradient-7);}</style><linearGradient id="linear-gradient" x1="732.28664" y1="2417.07486" x2="4255.90255" y2="2417.07486" gradientUnits="userSpaceOnUse"><stop offset="0" stop-color="#68b2fc"/><stop offset="1" stop-color="#ebf0f7"/></linearGradient><linearGradient id="linear-gradient-2" x1="1033.39126" y1="1905.3984" x2="5350.67949" y2="1905.3984" gradientUnits="userSpaceOnUse"><stop offset="0" stop-color="#68b2fc"/><stop offset="1" stop-color="#529bf7"/></linearGradient><linearGradient id="linear-gradient-3" x1="2837.06472" y1="2324.28596" x2="2953.94508" y2="-174.03189" gradientUnits="userSpaceOnUse"><stop offset="0" stop-color="#4085f0"/><stop offset="1" stop-color="#275dc9"/></linearGradient><linearGradient id="linear-gradient-4" x1="939.87693" y1="2357.08608" x2="5078.8723" y2="2357.08608" xlink:href="#linear-gradient"/><linearGradient id="linear-gradient-6" x1="565.04126" y1="1964.66314" x2="813.29653" y2="1964.66314" xlink:href="#linear-gradient-3"/><linearGradient id="linear-gradient-7" x1="4891.1582" y1="2206.48002" x2="5063.56985" y2="2206.48002" xlink:href="#linear-gradient-3"/></defs><title>5</title><path class="cls-1" d="M947.57555,1351.04128c-79.91336,134.81838-252.25341,425.56509-208.19317,788.94246,42.28522,348.73768,262.64834,589.23347,525.96154,876.60261,240.31238,262.26744,368.53026,402.19933,580.74944,504.04681,510.276,244.89034,783.05653-77.45505,1742.24833-43.83039,325.963,11.4266,515.96,56.41376,667.56086,74.71934L1033.39126,1220.956Q988.27371,1282.73567,947.57555,1351.04128Z"/><path class="Graphic-Style-167" d="M4914.20305,836.0371c-829.99759-954.69342-2381.1312-474.13574-2673.63838-383.51379-275.47314,85.34444-842.94,269.68322-1207.17341,768.43265L4255.90255,3551.52211c132.10942,15.952,235.06175,11.644,373.405-52.8043,430.38042-200.49642,585.5141-695.17779,635.53673-854.68758C5442.34458,2078.02742,5353.528,1341.36452,4914.20305,836.0371Z"/><path class="cls-2" d="M1320.13182,737.41928c-569.70842,407.244-658.82649,661.66555-624.57952,821.815,40.94552,191.47466,246.1009,191.44355,361.59844,438.30139,184.28546,393.88213-196.69245,696.02136-32.87224,997.13563,148.92957,273.74409,621.26965,313.4853,1062.8809,350.64123,292.39148,24.601,336.91517-15.06076,646.49456,21.915,401.51884,47.95678,515.95438,137.28781,777.98478,186.27814,455.92711,85.24248,1179.944,14.93192,1391.60679-361.59876,177.48873-315.73722-177.37646-540.66079-109.57519-1205.3288,58.81078-576.53206,355.13444-694.83028,273.93829-1008.09315-153.30614-591.46988-1357.08024-738.47245-1501.182-756.06985C2576.79435,101.56325,1758.71216,480.70091,1320.13182,737.41928Z"/><path class="Graphic-Style-183" d="M5078.8723,1128.24016c-153.78835,74.37113-314.52135,190.46738-385.21876,365.92075-154.80376,384.18568-2420.216,481.45973-3151.39921,314.81328-215.60722-49.13981-420.54807-28.4802-602.3774,25.06886,42.51038,40.81213,83.68481,91.70163,117.27381,163.49263,184.28546,393.88213-196.69245,696.02136-32.87224,997.13563,148.92957,273.74409,621.26965,313.4853,1062.8809,350.64123,292.39148,24.601,336.91517-15.06076,646.49456,21.915,401.51884,47.95678,515.95438,137.28781,777.98478,186.27814,455.92711,85.24248,1179.944,14.93192,1391.60679-361.59876,177.48873-315.73722-177.37646-540.66079-109.57519-1205.3288C4842.211,1510.72681,5052.54192,1347.03607,5078.8723,1128.24016Z"/><path class="Graphic-Style-182" d="M4200.852,3563.11352v-1024.482l-27.39333-11.157v1039.515Q4187.18406,3565.14778,4200.852,3563.11352Z"/><path class="Graphic-Style-182" d="M4777.94879,3339.59971q14.15512-11.81486,27.39395-24.27579V2683.4642l-27.39395-11.15735Z"/><path class="Graphic-Style-182" d="M2220.47594,3353.07027q14.10069.41092,27.394.6192V2176.55018l-27.394-11.15719Z"/><path class="Graphic-Style-182" d="M1615.98515,3293.57713q13.62316,2.24364,27.394,4.355V2031.71761l-27.394-11.1572Z"/><path class="Graphic-Style-164" d="M1908.5402,1207.31115s54.72684,550.60043,31.68633,618.6363-130.37543,384.44069-94.789,442.77988,99.83768,186.7788,67.25783,229.87058-84.81224,148.14643-14.59322,334.25269-15.0385,493.049-15.0385,493.049l-38.03137-5.16808s42.639-304.20969,27.56752-376.04242-50.37909-287.3309-27.24651-390.81873l23.13257-103.48782s-72.31-1.37858-93.00759-34.0255c15.82755-9.51435,34.09011,2.435,34.09011,2.435s35.78491,3.58791,56.48247-6.15212c-59.65769-96.1828-79.74664-171.668-73.96343-219.15069l5.78322-47.48265s70.71832-206.22539,62.14424-236.42936c-56.05672-71.59911-46.57565-93.51417-46.57565-93.51417l10.565-2.435s46.91667,85.22527,53.00418,84.00776,59.65769-26.78508,42.61264-118.09787,10.152-223.76127-2.83777-271.98239-18.81367-202.8441-18.81367-202.8441l-1.944-107.92384Z"/><path class="cls-3" d="M2091.33834,1373.2264c-19.54946,36.54713-271.53321,33.42935-398.55632,29.49084q-2.03958-8.26347-3.89089-16.45669-3.41133-14.769-6.32935-29.30341C1779.60459,1350.51039,2113.77034,1331.26386,2091.33834,1373.2264Z"/><path class="cls-4" d="M2110.80884,1041.05c4.80618,21.697,21.05173,38.298,33.35562,47.99647q11.60973,1.51716,23.66931,2.30072c35.26077,2.30075,68.98492-13.01771,98.79878-35.37448-20.93836-5.121-66.63715-17.98642-78.67-35.34281-15.77739-22.72448-1.12356-26.71567,6.72954-16.94391,8.12,14.54611,63.13666,32.133,87.86966,39.41836a395.46692,395.46692,0,0,0,40.35636-41.02474c-20.35727-.97959-47.72878-7.71423-55.43078-17.79473-9.98693-13.06968,2.22363-20.321,12.08748-12.02167,7.23628,6.09482,41.33757,9.3585,58.94256,10.67456a555.37485,555.37485,0,0,0,42.09926-62.40551c.65278-1.148.998-1.7765.998-1.7765a659.2389,659.2389,0,0,0-60.49673-61.53716c-14.0935,2.98255-35.43448,8.02972-46.67915,13.34962-17.6911,8.36767-29.21186,17.355-34.54945,10.67431-8.68184-15.80042,40.24087-30.23728,66.55513-36.73541a449.43184,449.43184,0,0,0-52.4683-38.289c-82.52707,6.74475-78.925,62.86106-97.16716,44.30719-15.8071-16.08223,50.15357-44.7046,77.28238-55.56514-18.42757-9.50306-37.3043-16.56183-55.79975-19.45051-16.991-1.9559-32.54259-3.12458-46.75361-3.5872-39.27594,26.04253-16.442,70.43292-38.64327,62.06927-17.33912-6.53166,4.22378-43.24607,16.867-62.24572-191.94469,3.83133-98.2569,154.17-98.2569,154.17-.28747.61433-.553,1.22208-.83028,1.833-37.22425,82.07662,16.38248,135.20423,100.75071,155.34386-4.86709-15.395-13.62705-43.63559-14.35964-49.17987C2096.02027,1026.203,2107.92756,1022.15969,2110.80884,1041.05Z"/><path class="cls-5" d="M2345.20464,921.41954s-232.00663,16.14965-333.70577,4.49528"/><path class="cls-5" d="M2249.19894,981.38056s-38.80532-19.02593-69.56137-52.18292"/><path class="cls-5" d="M2202.8499,868.15528s-56.10633,37.59378-57.36211,61.74218"/><path class="cls-5" d="M2152.54583,1025.60614s-48.08373-63.49328-56.24827-95.54273"/><path class="cls-5" d="M2058.9487,856.99161s-31.4326,36.59928-19.45479,71.28533"/><path class="cls-6" d="M1507.20749,938.24186q19.8649-4.21485,39.09754-7.063c21.61953,10.06919,50.74416,29.497,61.91873,62.37083,7.59612,29.21463,26.472,17.25719,23.58559,5.27355-2.04423-8.6259-20.68881-50.27351-31.00291-72.93525,142.23165-5.92666,238.485,56.45734,187.52718,208.48949,0,0,176.28183,200.27747-137.34725,293.89827,17.80123-36.46318,47.50323-105.61658,18.1236-108.27392-37.618-3.40326,6.52726,57.93225-53.79833,117.90763-23.33377,5.7251-48.96981,10.92027-77.082,15.4982-30.71738,3.75676-62.69436.948-94.30884-6.01637,42.75416-29.90728,146.3692-106.20625,118.0414-124.9958-32.69035-21.67431-18.23995,67.37036-152.30872,115.86027-32.17116-9.99921-63.32534-23.51527-91.7265-37.97756,42.08591-22.48709,119.97192-68.10127,103.35107-89.68042-9.75558-8.3652-27.2453,11.40649-54.93028,32.9869-17.5966,13.7188-51.76259,31.59569-74.37905,42.83533-63.93218-35.68139-108.41259-71.88972-108.41259-71.88972s21.99974-55.099,60.767-123.35042c29.02018-5.89258,85.34122-16.15075,98.11621-9.59782,17.412,8.91959,36.29547-8.361,17.95479-24.93277-14.14464-12.78222-59.97813-11.19782-93.45249-3.50912a851.23418,851.23418,0,0,1,59.81007-84.67847c41.59805.50718,134.3412,3.86912,149.85092,23.67734,14.34452,12.21458,37.72477-.91032,8.43353-30.44735-22.34352-22.56723-99.113-22.54275-134.16982-21.28136C1396.26388,990.70088,1449.13537,950.58506,1507.20749,938.24186Z"/><path class="cls-7" d="M1242.75328,1293.6408s377.33255-131.77516,545.59013-159.26439"/><path class="cls-7" d="M1390.77482,1153.01238s66.42419,13.071,121.82568,52.64452"/><path class="cls-7" d="M1483.9063,1314.87608s86.1157-86.30852,84.49061-125.905"/><path class="cls-7" d="M1542.25462,1037.518s88.39081,80.70524,106.64125,128.7792"/><path class="cls-7" d="M1721.17374,1267.37123s45.87645-73.46273,20.98184-124.0606"/><path class="cls-8" d="M2010.67458,927.74909s-117.68244,35.01285-91.13527,288.96482"/><path class="cls-9" d="M1887.93313,1235.09672s-124.06426-139.7304,106.34365-280.43194c-31.93834,54.82472-148.90251,116.543-66.191,256.14264,34.25266,79.43773-16.15481,113.21807-16.15481,113.21807S1836.92175,1330.3531,1887.93313,1235.09672Z"/><path class="cls-4" d="M1701.51507,1403.81473q-2.076-14.67-2.88932-28.95614c11.96983-16.95394,33.78722-40.18866,66.83707-50.8173,29.13412-7.68807,19.44081-21.09147,7.51349-18.11063-8.582,2.12048-50.908,18.96405-73.95607,28.25638,8.68069-106.67139,79.015-183.33642,221.44495-155.22639,0,0,212.331-146.20727,271.3942,83.5782-33.59394-10.94214-97.71762-28.639-103.27916-6.343-7.1218,28.548,56.90635-8.81971,109.01161,32.54918a536.23184,536.23184,0,0,1,7.22372,56.98185c.52988,22.87053-5.44228,47.132-15.41213,71.40069-24.6967-30.16856-88.25652-103.02485-109.37338-80.433-24.36028,26.07044,63.55586,9.18852,97.02642,106.84516-12.97274,24.89241-29.25664,49.25638-46.1798,71.61168-17.56058-30.16581-53.941-85.72235-76.57808-71.75533-9.11147,7.90794,8.309,19.741,26.45086,39.127,11.53317,12.32162,25.42168,36.83621,34.03849,53.10389a871.56969,871.56969,0,0,1-80.79707,86.45935,1023.81626,1023.81626,0,0,1-113.58854-37.42816c-2.77569-21.44889-7.01906-63.15533.63938-73.21408,10.42674-13.709-4.43378-26.75924-22.384-11.83516-13.8452,11.50981-16.95846,45.90612-12.891,70.587-25.60412-11.34524-51.7973-24.46906-76.14074-39.31523,4.714-31.34892,17.39022-101.392,38.19518-114.40316,13.3144-11.622,2.94478-28.33756-28.70412-4.29581-24.17712,18.34163-31.94444,76.13153-34.27761,102.437C1741.186,1483.79529,1707.605,1446.69878,1701.51507,1403.81473Z"/><path class="cls-5" d="M2019.718,1578.93152s-89.64056-275.16847-99.25275-399.97817"/><path class="cls-5" d="M1898.21012,1476.9837s19.43122-50.885,63.474-95.259"/><path class="cls-5" d="M2064.80819,1395.96144s-75.05361-59.008-113.66106-55.1149"/><path class="cls-5" d="M1801.45479,1370.73788s87.32373-71.98148,135.84883-88.96163"/><path class="cls-5" d="M2042.76729,1220.55114s-66.666-29.58231-118.3157-7.43029"/><path class="cls-4" d="M1634.77615,592.75016q11.55536,8.19744,22.06914,16.83542c4.56362,17.263,7.50618,43.8558-5.26141,68.5264-12.43367,20.67919,2.89385,23.94241,8.10092,15.58236,3.76365-5.99979,17.84893-39.64855,25.43445-58.048,69.47786,72.4957,80.199,159.34426-26.646,218.69044,0,0-27.3936,208.01816-224.633,94.0066,28.224-11.25727,79.86147-34.77184,67.632-51.95585-15.65832-22.003-28.63093,36.45346-89.51245,38.40928-13.99646-9.18823-28.77539-19.90614-44.37-32.29618-16.359-14.247-29.71527-32.90271-40.63094-53.73013,36.26064,5.7843,126.2261,17.62936,123.3057-8.1751-3.375-29.77336-45.3248,28.61382-134.26987-15.30309-9.51582-22.85163-16.63542-47.16237-21.95563-70.54314,31.89294,9.651,93.10136,25.23576,97.158,4.0883.02992-9.96478-18.924-8.04119-43.6147-10.52651-15.69467-1.57838-41.37894-9.62861-58.05606-15.29566a668.34878,668.34878,0,0,1-11.18712-98.74463,844.93666,844.93666,0,0,1,95.73328-37.7898c16.7362,12.12615,48.57311,36.3304,50.94009,46.87435,3.23261,14.36436,21.47376,14.602,21.992-4.61291.40064-14.8199-21.81037-38.36652-41.60281-51.84635a600.53238,600.53238,0,0,1,74.14627-16.29039c19.0951,22.47777,60.448,73.862,56.84211,93.40883.00276,14.60345,18.06623,19.60494,20.57264-12.83028,1.93171-24.76239-33.83354-65.69864-50.84921-83.68062C1554.4307,563.42759,1600.98388,568.79854,1634.77615,592.75016Z"/><path class="cls-5" d="M1317.32742,653.95836s247.76479,126.27683,341.151,200.383"/><path class="cls-5" d="M1463.14111,652.878s23.7883,42.87106,27.95473,94.94614"/><path class="cls-5" d="M1418.02432,794.67943s87.288-3.18626,108.178-26.58915"/><path class="cls-5" d="M1596.82494,667.94716s-2.95642,93.082-20.73844,130.178"/><path class="cls-5" d="M1554.4909,894.20493s61.52584-17.33947,77.59343-59.41608"/><path class="cls-4" d="M1999.29379,759.95485c17.04126-4.31779,28.4676-17.183,34.78211-26.83916q-.2547-8.87863-1.16414-18.07716c-2.65119-26.89567-19.44442-52.08525-41.464-74.08542-1.48149,16.08548-6.0891,51.24417-18.67068,60.92749-16.46994,12.69573-21.59807,1.66911-14.65292-4.60319,10.79644-6.62091,18.05116-49.0123,20.80728-68.05063a380.43675,380.43675,0,0,0-38.56482-29.45163c1.81443,15.51718-.155,36.546-7.37076,42.7128-9.35536,7.9962-16.82326-1.07227-11.33439-8.82942,4.03184-5.691,2.31307-31.73387,1.12558-45.16743a541.35822,541.35822,0,0,0-56.18888-30.12587c-1.01807-.46162-1.57381-.70507-1.57381-.70507a430.87126,430.87126,0,0,0-42.32008,47.9002c4.23538,10.63108,11.0808,26.71293,16.85292,35.10543,9.07952,13.2039,17.87172,21.69467,13.11952,25.959-11.74518,7.08656-29.77076-29.69259-38.43505-49.51376a287.57671,287.57671,0,0,0-24.42982,41.08371c16.07658,62.579,61.284,58.12808,48.52448,72.57184-11.06041,12.51588-42.8165-36.79293-55.13559-57.10082-5.36986,14.30892-8.69284,28.885-8.671,43.044.588,12.98592,1.632,24.85284,3.07866,35.67834,26.23312,29.08635,59.4303,10.36177,55.47186,27.50688-3.09126,13.39027-35.73714-1.89514-52.82178-10.93468,27.74279,145.91005,138.07479,70.05208,138.07479,70.05208.53683.2,1.06551.38347,1.59827.57578,71.57254,25.81746,107.93254-16.58465,113.49927-81.38382-11.9046,4.172-33.764,11.69721-38.18221,12.42355C1989.108,771.65819,1984.28977,762.72266,1999.29379,759.95485Z"/><path class="cls-5" d="M1871.86324,585.2788S1914.77071,761.2915,1918.333,839.017"/><path class="cls-5" d="M1932.97839,656.48987s-10.50565,30.10208-33.54433,54.51122"/><path class="cls-5" d="M1846.77758,695.20239s37.79314,41.5384,57.60712,41.75768"/><path class="cls-5" d="M1981.37051,728.67312s-45.5045,38.51631-70.54011,45.70462"/><path class="cls-5" d="M1856.15334,805.0192s33.81838,22.79754,60.51054,12.62783"/><path class="cls-8" d="M1918.33327,839.01237s19.82835,2.88361-30.40014,245.05088"/><path class="cls-8" d="M1656.54743,856.8598s214.90822,63.50092,231.3857,231.73149"/><path class="cls-8" d="M1772.24028,1139.909c5.28557-1.89627,95.72038-10.09568,125.64232,11.0724"/><path class="cls-10" d="M4861.78,3253.8381l-3770.8532-874.48375q-3.10254,14.15347-6.586,28.17263l3749.01071,879.6143Q4848.321,3270.98318,4861.78,3253.8381Z"/><path class="cls-10" d="M989.7238,1888.40111a528.75573,528.75573,0,0,1,52.32928,79.19692l3853.77621,771.723c-14.9363-46.11859-31.10911-95.08155-46.37064-148.07849Z"/><ellipse class="cls-11" cx="4368.60924" cy="2536.73775" rx="17.80599" ry="42.46045" transform="translate(1229.9329 6495.08285) rotate(-81.73079)"/><ellipse class="cls-11" cx="4648.92592" cy="2598.82518" rx="17.80662" ry="99.65457" transform="matrix(0.14368, -0.98962, 0.98962, 0.14368, 1409.09643, 6826.10674)"/><path class="cls-10" d="M1108.00146,2198.24115l3833.897,899.53041a353.62833,353.62833,0,0,0,7.7668-38.38619L1105.55784,2167.91354Q1107.22966,2183.16679,1108.00146,2198.24115Z"/><path class="Graphic-Style-177" d="M3247.54187,3210.98122c5.12366-66.6076,17.93281-128.09155,25.61831-194.69915,5.12366-38.42747,20.49464-74.2931,23.05647-110.15873,7.6855-66.60761,33.30381-166.519-35.86563-192.13733-73.17167-24.39055-155.93645-14.25049-235.01109-21.04472A4572.92375,4572.92375,0,0,0,3003.63,3246.309q1.806,84.80921,6.7886,168.54265c99.34788,23.26131,177.04841,48.95655,253.44239,73.2683q3.19541,1.017,6.38644,2.02708c-4.24616-16.71695-8.356-33.72724-12.45828-51.16282C3242.4182,3362.12925,3244.98,3287.83615,3247.54187,3210.98122Z"/><path class="cls-10" d="M3467.808,2603.34053H3035.115q-5.35413,44.9583-9.77511,89.60076c79.07464,6.79423,161.83942-3.34583,235.01109,21.04472,69.16944,25.61831,43.55113,125.52972,35.86563,192.13733-2.56183,35.86563-17.93281,71.73126-23.05647,110.15873-7.6855,66.6076-20.49465,128.09155-25.61831,194.69915-2.56183,76.85493-5.12367,151.148,10.24732,228.003,4.10231,17.43558,8.21212,34.44587,12.45828,51.16282,62.63476,19.8792,124.74353,38.75519,197.56057,54.51271Z"/><path class="cls-10" d="M2768.88977,2541.80561l-98.96386-4.61158s-140.26024,289.89657-184.88776,813.35569c36.76127.1301,76.86681,1.32908,124.18688,4.65646,13.76484-116.00729,36.94828-232.58936,54.21937-349.17144C2684.2818,2848.596,2749.04934,2699.52443,2768.88977,2541.80561Z"/><path class="Graphic-Style-164" d="M2914.50384,2744.728c43.86135-43.86167,95.38755-53.23524,149.88963-48.60881l9.61-140.09575-305.11369-14.21782c-8.08078,64.23935-23.61626,127.04408-40.59964,189.56408C2785.18516,2756.34691,2853.54152,2740.37362,2914.50384,2744.728Z"/><path class="Graphic-Style-177" d="M2914.50384,2744.728c-60.96232-4.35437-129.31868,11.61892-186.21371-13.3583-24.71392,90.97752-52.49565,181.35149-64.84573,274.66505-17.27109,116.58208-40.45453,233.16415-54.21937,349.17144,36.573,2.57152,77.45411,6.41458,124.43956,12.02109,93.19911,11.11826,170.92466,24.49125,238.60866,39.04228Q2988.528,3327.57018,3003.63,3246.309c15.3197-83.33644,29.25591-168.74811,40.60527-256.337l20.15816-293.85283C3009.89139,2691.49275,2958.36519,2700.86632,2914.50384,2744.728Z"/><path class="Graphic-Style-164" d="M2653.29854,2603.34053s430.99635,146.423,807.205,43.03l7.30446-43.03s-551.14468,57.7348-797.8812-57.92807C2660.60356,2588.0251,2653.29854,2603.34053,2653.29854,2603.34053Z"/><path class="Graphic-Style-175" d="M3365.38609,2083.7756c-69.16944,102.47323-51.23662,240.81211-135.777,327.91436-81.97859,5.12366-163.95718-12.80916-240.81211-35.86563-112.72056-30.742-184.45183-122.96789-204.94648-243.37395-10.24732-53.79845-48.67479-94.78774-64.04577-146.02436-6.67853-22.8984-15.847-44.01818-25.51511-64.55426q-3.09785,11.19894-6.87992,22.17319c-41.07186,380.82389-4.47382,596.73321,54.80354,623.90231,60.27183,27.624,692.28479,95.42946,750.04482,10.04531,11.9354-270.94365,32.03227-447.21135,48.09187-554.34808-6.22633.33993-12.45953.72959-18.69211,1.209C3465.2975,2029.97714,3398.68989,2029.97714,3365.38609,2083.7756Z"/><path class="Graphic-Style-176" d="M3104.07933,2073.52827c-61.48394-110.15873-179.32817-148.5862-284.36324-197.261-33.18309-14.93239-72.81454-21.22205-112.62862-20.35361a458.18246,458.18246,0,0,1-12.79789,65.95808c9.66816,20.53608,18.83658,41.65586,25.51511,64.55426,15.371,51.23662,53.79845,92.22591,64.04577,146.02436,20.49465,120.40606,92.22592,212.632,204.94648,243.37395,76.85493,23.05647,158.83352,40.98929,240.81211,35.86563,39.24617-40.43531,56.40594-91.914,70.45035-145.71884a208.07061,208.07061,0,0,1-55.07936-25.92384C3180.93426,2199.058,3139.945,2137.57405,3104.07933,2073.52827Z"/><path class="Graphic-Style-174" d="M3521.65778,2024.85348c6.23258-.4794,12.46578-.86906,18.69211-1.209,12.33569-82.29334,22.28968-123.80958,24.33051-136.05286l-10.298-402.10583c-117.6322-53.29825-289.1304-104.87042-538.56992-59.73019,0,0-127.31162,6.86679-241.8391,41.78737-58.4449,84.35529-63.91568,194.65991-61.81293,295.57594,0,30.65175-1.25715,61.91675-5.073,92.79476,39.81408-.86844,79.44553,5.42122,112.62862,20.35361,105.03507,48.67478,222.8793,87.10225,284.36324,197.261,35.86564,64.04578,76.85493,125.52972,140.90071,166.519a208.07061,208.07061,0,0,0,55.07936,25.92384c16.20909-62.097,28.2677-127.29316,65.32669-182.19552C3398.68989,2029.97714,3465.2975,2029.97714,3521.65778,2024.85348Z"/><path class="cls-12" d="M3068.2137,2632.00742c-74.2931-51.23662-23.05648-151.148-20.49465-228.003,5.12366-128.09155,10.24732-253.62127,40.9893-384.27465,7.68549-35.86563,0-69.16944,2.56183-105.03507,6.30513-44.13529,16.04271-86.54857,17.92906-130.06436-41.50216,214.03281-145.77669,832.28844-145.77669,832.28844l90.23449,88.62271,109.93983-70.89817s.03628-1.26559.10633-3.66809C3132.21194,2647.72428,3099.30717,2653.151,3068.2137,2632.00742Z"/><path class="cls-13" d="M3151.25743,1711.42228s-14.69488-9.87972-25.97419,1.3996c-1.89323,1.89291-7.71427,28.643-16.084,71.80851-1.88635,43.51579-11.62393,85.92907-17.92906,130.06436-2.56183,35.86563,5.12366,69.16944-2.56183,105.03507-30.742,130.65338-35.86564,256.1831-40.9893,384.27465-2.56183,76.85493-53.79845,176.76633,20.49465,228.003,31.09347,21.14355,63.99824,15.71686,95.4895-1.03214,1.39036-47.688,15.9858-547.59262,20.47088-663.173C3188.88494,1846.39906,3151.25743,1711.42228,3151.25743,1711.42228Z"/><path class="Graphic-Style-176" d="M3693.30045,1958.24588c-21.3759-71.9-80.38807-133.62681-138.76855-181.23052-3.04468,29.56332,4.0898,152.85336,7.07506,171.621,4.64269,29.19165,12.57211,57.84994,19.92236,86.49026q-.97194-10.73268-1.94389-21.46519,2.25255,15.77229,4.50572,31.54473-1.26-5.04007-2.56183-10.07954c4.02037,44.4,8.087,88.79674,11.91539,133.21286,3.71453,43.09658,7.4841,86.1902,10.98473,129.30476,47.54773,8.00994,85.93079,6.45821,116.78034-.3135C3724.9168,2182.24378,3728.14286,2068.27561,3693.30045,1958.24588Z"/><path class="Graphic-Style-174" d="M3683.05313,1699.501c-14.36151-59.83949-13.07872-119.67694-46.2787-173.24789-23.97088-12.55209-51.22474-26.71393-82.24253-40.76726l-5.91148,273.72357c-.177,1.06232-2.56551,23.96263-2.73939,25.65556,58.38048,47.60371,126.04352,101.481,147.41942,173.38095,34.84241,110.02973,31.61635,223.9979,27.90933,339.08485,2.26849-.49786,4.50447-1.01776,6.69165-1.5705C3741.72632,2096.70968,3728.59255,1902.15079,3683.05313,1699.501Z"/><path class="Graphic-Style-176" d="M3579.58543,2013.66142q.96539,10.73291,1.94389,21.46519,1.2928,5.03961,2.56183,10.07954Q3581.83767,2029.43388,3579.58543,2013.66142Z"/><path class="Graphic-Style-174" d="M3837.70179,2211.34114s-49.94633-610.24818-157.93288-662.98572c-12.98491-6.34156-27.292-13.87976-42.99448-22.10236,33.2,53.571,31.91719,113.4084,46.2787,173.24789,45.53942,202.64984,58.67319,397.20873,44.8483,596.25928C3813.80908,2274.05378,3837.70179,2211.34114,3837.70179,2211.34114Z"/><path class="Graphic-Style-175" d="M2594.275,1842.96348c-15.371,35.86564-38.42747,66.60761-46.113,102.47324-25.69837,95.94185-65.13655,197.61171-66.996,295.81627,39.12359-20.26605,81.54328-22.38772,123.01855-4.79859-24.36929-97.94125,62.16381-286.84735,85.4467-311.68151-.56979,5.32209,35.29084-119.46882,48.10187-172.505C2683.24293,1773.8605,2619.97021,1785.14951,2594.275,1842.96348Z"/><path class="Graphic-Style-174" d="M2774.12351,1467.543c-66.50628,20.2784-128.70511,50.00808-159.15,93.36907-82.873,118.03155-349.072,537.4202-210.95014,750.88151,23.00206-32.41238,49.23519-56.0843,77.14263-70.54057,1.85946-98.20456,41.29764-199.87442,66.996-295.81627,7.68549-35.86563,30.742-66.6076,46.113-102.47324,25.69524-57.814,88.968-69.103,143.45815-90.6956,2.7526-11.39627,4.44631-19.49534,4.48008-22.26091Z"/><path class="Graphic-Style-61" d="M2409.39243,2327.1749s-33.68476-36.71506,10.14537-75.428,182.62558-53.323,191.75686-25.016,0,43.83013-34.69886,60.26644S2433.03279,2350.0031,2409.39243,2327.1749Z"/><polygon class="Graphic-Style-171" points="2614.613 2249.037 2926.42 2047.431 3007.62 2544.49 2686.046 2650.927 2614.613 2249.037"/><path class="cls-14" d="M2878.63821,2662.74939c20.27136-6.75733,38.40494-19.21592,57.40728-30.23426,9.19657-24.783,16.777-52.586,7.51412-58.95464-17.51377-12.04063-86.47431,25.17581-128.069-35.02737s-39.40566-66.77085,0-71.14929,98.51416-55.82475,73.33867-102.89276c-33.933-30.64894-37.2166,58.014-99.062,63.48709-61.84483,5.473-70.60171,5.473-92.49361-12.04079-21.89252-17.51361-89.69786-178.20549-97.84993-181.4034-46.3475-18.18143-137.796,6.95184-174.45594,43.73751,108.14855,113.06049,220.0873,216.97539,317.89345,351.17411C2773.60314,2672.99672,2837.64891,2675.55855,2878.63821,2662.74939Z"/><path class="Graphic-Style-170" d="M2878.63821,2662.74939c-40.9893,12.80916-105.03507,10.24733-135.77705-33.3038-97.80615-134.19872-209.7449-238.11362-317.89345-351.17411-8.84257,8.8729-14.51162,18.42066-15.57488,28.20563,0,0,236.16066,226.03561,274.47179,294.99568,38.31114,68.96022,42.96321,90.30485,87.84216,106.72409,44.87833,16.41892,146.67671-33.933,146.67671-33.933s9.47177-19.67656,17.662-41.74874C2917.04315,2643.53347,2898.90957,2655.99206,2878.63821,2662.74939Z"/><path class="cls-14" d="M3265.01185,1153.47382c3.68326-2.0757,10.38805-5.85449,22.63493-12.75646,27.11751-15.283,38.627-140.31732-9.05084-135.75171a15.257,15.257,0,0,0-2.86268.58135c-16.57184-222.46509-258.147-187.46335-343.01765-169.5099-94.96538,20.08874-87.38121,167.59416-87.38121,167.59416l176.86766,304.18858c18.33686,83.49585,16.91334,156.33822,8.523,154.01422,0,0-35.9163,164.97165,108.35744,146.70922,144.27437-18.26258,180.79922-220.06384,180.79922-220.06384S3250.56653,1341.2105,3265.01185,1153.47382Z"/><path class="cls-14" d="M3154.91012,1279.20848c-23.61412,24.822-64.31646,49.90447-110.6279,48.70016-179.79171-12.45549-193.13931-312.89849-193.13931-312.89849s-28.91571-102.72688,19.93663-120.53288,272.56867-59.35331,309.09378-21.91507,65.74521,120.53288,65.74521,120.53288"/><path class="cls-14" d="M3702.78684,1053.97027s-43.22139,439.51889,163.14551,355.51112c78.529,73.05023,29.22009,235.587,29.22009,235.587l250.197-136.96918s-81.51612-59.3031-74.87649-132.70792c21.91507-242.28326-17.34468-406.20586-118.70662-422.47382C3803.83966,929.17613,3746.617,971.36749,3702.78684,1053.97027Z"/><path class="Graphic-Style-170" d="M2599.424,2125.37361s81.26838,94.96533,210.01941,101.35723c15.52317-42.917,23.74132-96.79156,23.74132-96.79156l-178.97306-94.9653Z"/><path class="cls-15" d="M3602.99028,1889.46609a352.8971,352.8971,0,0,0-50.59053,130.26373c-15.71873,87.32726-31.42558,172.27375-34.15629,258.08524,103.038-95.61537,212.54629-258.08524,212.54629-258.08524l144.8823-327.78755S3732.81932,1767.09082,3602.99028,1889.46609Z"/><path class="cls-16" d="M3309.02581,2281.03658c77.09072-5.05518,146.69422-31.947,213.43567-66.80321,6.29012-64.40838,18.10857-128.78173,29.93827-194.50355a352.8971,352.8971,0,0,1,50.59053-130.26373c-36.249,34.16786-71.483,72.01585-102.30874,112.93963a342.26947,342.26947,0,0,1-27.03557,31.6606c-149.1072,154.65178-420.33542,143.86548-628.31157,80.34977-43.01574-3.99708-62.44588,51.03913-65.97653,102.38239-.46095,6.70745-.648,13.34907-.58354,19.79055C2952.68926,2271.16843,3130.85722,2293.075,3309.02581,2281.03658Z"/><path class="cls-17" d="M3309.02581,2281.03658c-178.16859,12.03845-356.33655-9.86815-530.25148-44.44755.2727,27.42554,5.15118,51.17627,13.31952,60.45258,0,0,508.91686,70.61532,622.14466,47.48269,30.13153-6.15581,66.64263-32.03852,104.005-66.70924.67549-21.23049,2.15029-42.408,4.218-63.58169C3455.72,2249.08953,3386.11653,2275.9814,3309.02581,2281.03658Z"/><path class="cls-18" d="M4051.29069,3035.75192s0,231.897-28.94882,545.92612a2267.671,2267.671,0,0,1-252.21213,1.40913c-48.75172-2.45926-96.37576-6.48151-142.20726-11.93822l9.069-603.46474.6661-44.24287Z"/><path class="cls-19" d="M4012.94016,3033.0109l-41.09187,200.89858c-7.25019,120.1243-155.40045,296.73709-201.71855,349.17769-48.75172-2.45926-96.37576-6.48151-142.20726-11.93822-40.27191-4.79061-79.16033-10.70859-116.28123-17.651q-22.59585-4.22692-43.83321-8.83819c-75.29193-16.29321-139.13319-35.91692-203.947-56.53979,52.00467-273.83384,108.28864-564.67858,112.64363-564.67858,1.92138,0,37.65879,5.96895,91.30338,15.11455,46.42068,7.94193,106.23906,18.26618,169.18342,29.12832C3812.80962,2998.09282,4012.94016,3033.0109,4012.94016,3033.0109Z"/><path class="Graphic-Style-60" d="M3335.40506,3097.85482s-31.95948,126.92478,95.87843,113.53224,422.47382-130.27291,543.0067-85.22527c81.57276,34.09011,74.4576,34.05676,74.4576,34.05676l2.54952-68.14687-680.889-116.88037S3343.92759,3061.32971,3335.40506,3097.85482Z"/><path class="cls-9" d="M3999.249,890.82476s-9.13128-89.48653,60.26644-87.66027,211.84567,204.54064,206.3669,515.00411,82.18151,518.65664,82.18151,518.65664-242.892-317.7685-242.892-429.1701S3999.249,890.82476,3999.249,890.82476Z"/><path class="Graphic-Style-172" d="M4054.03669,869.82282s-61.77138-55.83151-84.92089-40.17763c-1.82625,46.56953,42.917,62.0927,47.48265,70.31085s31.04635,46.39244,31.04635,46.39244S4137.13133,959.30935,4054.03669,869.82282Z"/><path class="cls-20" d="M3690.73862,2532.096c122.96789-17.93281,245.93578-58.92211,335.59986-153.70985,5.12366-5.12367,15.371-2.56183,20.49465-7.6855,128.09155-133.21521,222.87929-315.10521,204.94648-499.557-76.85493-25.61831-153.70986-20.49464-233.12662-10.24732-76.85493,12.80916-143.46254,51.23662-199.82282,102.47324-96.10056,84.38093-181.48908,230.92051-316.96966,225.81405-40.063,105.86-75.67847,219.57943-100.03963,325.5522C3495.68985,2540.14427,3591.54648,2548.628,3690.73862,2532.096Z"/><path class="Graphic-Style-169" d="M4190.29566,2265.66559c-10.24732,12.80916-10.24732,30.742-20.49464,43.55113-17.93282,23.05648-30.742,43.55113-46.113,66.60761-7.6855,12.80915-15.371,25.61831-23.05648,35.86563-84.54042,107.5969-99.91141,233.12662-120.40606,361.21817-15.371,92.22591-23.05648,179.32816-33.3038,271.55408a256.35472,256.35472,0,0,0-.47409,41.86867c32.32873,2.053,57.5674,9.86455,71.97707,26.134,84.92132,95.87822,41.09062-249.2841,73.96349-441.04084,18.10794-105.62956,90.8862-296.03236,151.19118-459.4074A360.17858,360.17858,0,0,0,4190.29566,2265.66559Z"/><path class="Graphic-Style-172" d="M4329.80162,1926.92052c-8.523-81.57283-42.613-418.82137-184.45183-428.56145-141.8395-9.73993-342.72745,197.23565-442.56255,304.376-59.17855,63.50821-135.89463,214.6098-200.92673,386.44855,135.48058,5.10646,220.8691-141.43312,316.96966-225.81405,56.36028-51.23662,122.96789-89.66408,199.82282-102.47324,79.41676-10.24732,156.27169-15.371,233.12662,10.24732,17.93281,184.45183-76.85493,366.34183-204.94648,499.557-5.12366,5.12367-15.371,2.56183-20.49465,7.6855-89.66408,94.78774-212.632,135.777-335.59986,153.70985-99.19214,16.532-195.04877,8.04826-288.91774-17.36022q-4.21051,18.31709-7.9757,36.31017s-79.44178,553.20085,0,607.98845c65.96214,45.49095,394.41439-82.75008,552.60245-72.70353a256.35472,256.35472,0,0,1,.47409-41.86867c10.24732-92.22592,17.93282-179.32817,33.3038-271.55408,20.49465-128.09155,35.86564-253.62127,120.40606-361.21817,7.68549-10.24732,15.371-23.05648,23.05648-35.86563,15.371-23.05648,28.18014-43.55113,46.113-66.60761,10.24732-12.80915,10.24732-30.742,20.49464-43.55113a360.17858,360.17858,0,0,1,53.28371-53.649C4292.75014,2078.80532,4333.62936,1963.55874,4329.80162,1926.92052Z"/><path class="Graphic-Style-165" d="M2419.5378,1762.5575c0,6.08752,160.71051,381.53526,160.71051,381.53526l412.7338,39.72107L2817.66156,1768.645Z"/><path class="cls-14" d="M2469.96612,1884.91394l-16.84891-39.9606s-41.69355-35.76259-60.38253-35.978C2398.557,1842.69454,2434.23746,1870.49629,2469.96612,1884.91394Z"/><path class="Graphic-Style-170" d="M2392.73468,1808.97529c-4.35749-.0502-7.46847,1.82474-8.50483,6.54358-5.47829,24.95877,92.86512,86.30152,92.86512,86.30152l-7.12885-16.90645C2434.23746,1870.49629,2398.557,1842.69454,2392.73468,1808.97529Z"/><path class="cls-14" d="M2450.98381,1925.31938c-.07443,11.05931,4.39439,21.91816,15.19961,20.11734,20.40271-1.70028,41.93435-12.41856,63.845-15.69747-1.05013-9.51758-11.26368-20.4726-11.26368-20.4726C2512.479,1909.26665,2464.31771,1913.33018,2450.98381,1925.31938Z"/><path class="Graphic-Style-170" d="M2450.98381,1925.31938c-2.16342,1.94529-3.44371,4.09167-3.44371,6.47118,0,17.045,44.43926,43.83008,44.43926,43.83008s1.21712-27.3938,26.78539-33.177c9.39734-2.12574,11.87411-7.17294,11.26368-12.7044-21.91066,3.27891-43.4423,13.99719-63.845,15.69747C2455.3782,1947.23754,2450.90938,1936.37869,2450.98381,1925.31938Z"/><path class="Graphic-Style-170" d="M2504.45077,1983.0891c-10.72579-1.40522-18.25867-1.03965-19.77663,2.27163-2.32792,5.07988,2.61124,11.96777,10.03717,18.79265a85.14216,85.14216,0,0,0-10.61821,35.99494c-1.85383,27.3938,51.71633,80.964,91.8938,85.22529l-19.48017-45.04767s30.28664,7.81606,48.29952-8.93185c-25.71588-22.75767-65.07526-11.19691-89.948-28.60779C2496.34935,2031.21819,2496.67209,2005.03948,2504.45077,1983.0891Z"/><path class="cls-14" d="M2608.85977,2066.9334c7.314-9.66472,9.46551-17.75425,9.54557-23.84782,4.37875-5.7169,9.8633-17.26031-3.4581-29.72234,0,0-73.89656-25.4793-110.49647-30.27414-7.77868,21.95038-8.10142,48.12909,10.40744,59.6972,24.87278,17.41088,64.23216,5.85012,89.948,28.60779A34.54,34.54,0,0,0,2608.85977,2066.9334Z"/><path class="Graphic-Style-170" d="M2983.67328,2214.429c-79.41676-43.55112-146.02437-107.5969-176.76634-189.57549-4.44255-12.2167-5.02734-25.39752-4.27118-38.9139-16.82265,18.32763-22.71311,43.26217-16.02082,64.55754,89.48645,105.00974,132.404,209.10633,188.10444,220.06385,55.70106,10.95752,177.14723,52.96144,177.14723,52.96144l13.6066-83.81646C3102.04663,2243.26474,3039.39685,2244.67872,2983.67328,2214.429Z"/><path class="cls-14" d="M3081.55573,2122.63415c-42.00377-60.26636-179.88606-136.056-245.6318-157.971a78.46738,78.46738,0,0,0-33.28817,21.27646c-.75616,13.51638-.17137,26.6972,4.27118,38.9139,30.742,81.97859,97.34958,146.02437,176.76634,189.57549,55.72357,30.24975,118.37335,28.83577,181.79993,25.277l9.22159-56.80529S3123.5595,2182.90066,3081.55573,2122.63415Z"/><path class="Graphic-Style-169" d="M4205.66665,1853.21081c-74.2931,99.91141-125.52972,197.261-187.01366,302.296-69.16944,117.84423-192.13732,174.20451-322.7907,199.82282-138.33888,28.18014-271.55409-5.12366-409.893-12.80916-10.24732,0-17.93282-7.68549-28.18014-10.24732-20.49465-7.68549-43.55113,0-64.04577-10.24732-26.78039-15.30313-56.4172-19.18293-85.71189-26.564,2.33417,17.23576,5.75662,35.15763,10.04906,53.628,0,0,541.48513,165.27609,698.543,105.00973s395.756-520.78486,395.756-520.78486,31.70454-67.67181,30.4305-148.44985A305.32956,305.32956,0,0,1,4205.66665,1853.21081Z"/><path class="cls-21" d="M3521.65778,2247.73278a175.3619,175.3619,0,0,0,50.39414-10.19979c-174.05189,7.17982-443.92665-82.02613-443.92665-82.02613-1.38724,2.10416-2.6938,4.25961-3.94782,6.4482,22.78566,12.72238,44.084,29.90794,69.566,34.5411C3306.464,2219.55264,3411.49905,2252.85644,3521.65778,2247.73278Z"/><path class="Graphic-Style-172" d="M4207.44229,1659.67843c-93.02336-100.50074-208.773,21.69331-322.84449,127.43326,0,0-78.932,323.65194-198.0947,418.61716-25.754,20.5242-66.46376,29.8246-114.45118,31.80414a175.3619,175.3619,0,0,1-50.39414,10.19979c-110.15873,5.12366-215.1938-28.18014-327.91436-51.23662-25.482-4.63316-46.78031-21.81872-69.566-34.5411-20.15566,35.18765-23.23786,81.13987-16.14592,133.50683,29.29469,7.38106,58.9315,11.26086,85.71189,26.564,20.49464,10.24732,43.55112,2.56183,64.04577,10.24732,10.24732,2.56183,17.93282,10.24732,28.18014,10.24732,138.33887,7.6855,271.55408,40.9893,409.893,12.80916,130.65338-25.61831,253.62126-81.97859,322.7907-199.82282,61.48394-105.03507,112.72056-202.38464,187.01366-302.296a305.32956,305.32956,0,0,0,37.14342-68.34588C4242.16774,1744.1366,4233.15254,1700.08043,4207.44229,1659.67843Z"/><path class="cls-12" d="M3132.25947,1679.0063c-20.21069-13.47385-18.76716-42.695-12.92674-70.40907l-26.81979,1.35769,3.9572,16.24208,24.86215,89.99275h38.672l12.60338-38.7799C3158.38,1684.54229,3142.18344,1686.09481,3132.25947,1679.0063Z"/><path class="cls-13" d="M3190.21777,1605.00857l-70.885,3.58866c-5.84042,27.714-7.284,56.93522,12.92674,70.40907,9.924,7.08851,26.12055,5.536,40.34821-1.59645l16.07837-49.47333Z"/><path class="Graphic-Style-171" d="M2983.80962,1559.45117c16.03709.812,38.27736,4.61845,54.36573,18.04571,38.18542,59.9849,88.4207,27.70605,88.4207,27.70605l-9.88519-20.401s-4.22364-5.95378-10.73079-15.77549C3068.07923,1555.94647,3023.6531,1547.82176,2983.80962,1559.45117Z"/><path class="Graphic-Style-165" d="M2982.75887,1392.85116l-2.95649,5.07753c-40.28316,53.0476-44.5656,107.067-16.37983,161.963a130.73767,130.73767,0,0,1,20.38707-.44047c39.84348-11.62941,84.26961-3.5047,122.17045,9.57528-21.10321-31.85355-66.24047-104.42682-69.36646-146.84C3004.59448,1395.6996,2982.75887,1392.85116,2982.75887,1392.85116Z"/><path class="Graphic-Style-171" d="M3186.05792,1586.78039c-3.23293,1.61646-7.4841,1.19319-11.46944.66047-3.81523,4.11841-8.68621,9.81139-14.58418,17.56771,82.51585-4.268,82.07616-9.3301,114.11344-44.669C3248.09226,1545.46148,3210.74557,1563.99144,3186.05792,1586.78039Z"/><path class="Graphic-Style-165" d="M3373.77271,1418.6324c-29.00385-66.60135-70.32276-48.13706-70.32276-48.13706-37.02209,168.85443-118.86808,207.45811-118.86808,207.45811s-3.41995,2.39156-9.99339,9.48741c3.98534.53272,8.23651.956,11.46944-.66047,24.68765-22.78895,62.03434-41.31891,88.05982-26.44078,4.24741-4.68553,9.059-9.89629,14.718-15.71529,40.8198-21.77728,64.79569,16.87863,64.79569,16.87863S3402.77656,1485.23359,3373.77271,1418.6324Z"/><path class="cls-9" d="M2851.14291,1015.01015s-70.666-126.01164-5.80851-177.75556c-.88776-63.3102,77.03249-137.57793,221.91544-135.14292,108.35784-.05833,152.188,7.305,152.188,7.305s-36.52512,9.74-75.48524,37.74262c35.30761,2.435,110.79285,18.26256,132.70792,63.3102s36.84351,137.0253,20.84958,198.14875c-1.24026,4.7398-17.06407-12.91431-21.77682-3.07126-24.36616,50.8913-21.27169,102.27327-21.27169,102.27327l-13.10868-5.14984s9.74-76.70274-32.87261-73.05023c-37.74261-30.4376-47.48264-132.70792-47.48264-132.70792s-81.57276,26.78508-135.14293,52.35267-157.058-40.2068-157.058-40.2068S2838.35912,969.96251,2851.14291,1015.01015Z"/><path class="cls-9" d="M4100.86921,994.09948c-13.89032-59.50339-57.31454-111.34293-113.4614-135.44946s-147.29568-32.14674-200.00446-1.23752-129.66415,79.06865-84.61651,196.55777c0,0,238.63075-41.39513,198.45312,73.05023,49.91766-1.2175,57.22268,67.61788,35.30761,88.59661,59.65769-72.99352,109.57535-5.80635,107.14034,27.06626s-43.83014,85.22527-43.83014,85.22527,71.30276,39.62774,111.706-16.13193C4191.00587,1112.77932,4100.86921,994.09948,4100.86921,994.09948Z"/><path class="Graphic-Style-170" d="M3926.19879,1357.12873s-20.69756,34.0901-60.26644,52.35266c30.40644,45.1845,34.67126,57.01705,34.67126,57.01705S3934.11257,1388.78383,3926.19879,1357.12873Z"/><path class="Graphic-Style-170" d="M3155.51887,1277.07785s-12.66124,90.36722-122.98271,91.06829c-3.83175-26.48407-6.7048-42.61874-6.7048-42.61874S3127.89977,1322.612,3155.51887,1277.07785Z"/><path class="cls-15" d="M3621.21408,2958.14626c-18.41262-9.45328-69.19522-51.36913-68.68772-187.00382,122.25789,9.24826,198.96063,4.37825,214.78818-16.31932,23.13257,81.57276,46.26515,168.01553,4.87,181.40807S3640.45305,2968.02379,3621.21408,2958.14626Z"/><path class="Graphic-Style-169" d="M3548.16385,2741.43058s142.448,37.74262,220.3682-7.305c6.08751,24.35007,35.30761,54.78767,30.43759,54.78767s-126.05907,64.5277-244.43761-6.08752C3549.38136,2753.60562,3548.16385,2741.43058,3548.16385,2741.43058Z"/><ellipse class="Graphic-Style-167" cx="2220.47594" cy="3665.60622" rx="171.71765" ry="135.13221"/><ellipse class="Graphic-Style-166" cx="689.1689" cy="1964.66314" rx="124.12763" ry="125.38484"/><ellipse class="Graphic-Style-168" cx="4977.36403" cy="2206.48002" rx="86.20582" ry="87.46188"/><ellipse class="Graphic-Style-167" cx="1288.94219" cy="3320.62791" rx="232.65088" ry="214.32699"/><ellipse class="Graphic-Style-166" cx="5238.96867" cy="2833.24781" rx="195.99007" ry="180.55363"/><path class="Graphic-Style-165" d="M2614.61254,2167.91354s-216.07668-59.88933-268.125,50.59915c19.17569,88.5734,62.90486,108.66221,62.90486,108.66221s-26.39539-83.57792,85.4706-98.85945,119.38183,11.12636,119.38183,11.12636Z"/><polygon class="Graphic-Style-164" points="3028.126 3102.557 2963.423 3406.27 3022.202 3420.189 3028.126 3102.557"/></svg>