<svg id="Layer_1" data-name="Layer 1" xmlns="http://www.w3.org/2000/svg" xmlns:xlink="http://www.w3.org/1999/xlink" viewBox="0 0 6000 4000"><defs><style>.cls-1{fill:url(#linear-gradient);}.cls-2{fill:url(#linear-gradient-2);}.cls-3{fill:url(#linear-gradient-3);}.cls-4{fill:url(#linear-gradient-4);}.cls-5{fill:url(#linear-gradient-5);}.cls-6{fill:url(#linear-gradient-6);}.cls-7{fill:url(#linear-gradient-7);}.Graphic-Style-269,.cls-8{fill:#fff;}.cls-8{stroke:#1a1a1a;}.cls-14,.cls-19,.cls-21,.cls-22,.cls-8{stroke-linecap:round;stroke-linejoin:round;}.cls-19,.cls-21,.cls-8{stroke-width:5.47007px;}.Graphic-Style-274{fill:#1a1a1a;}.Graphic-Style-278{fill:#102140;}.cls-9{fill:#152a52;}.cls-10{fill:#919191;}.Graphic-Style-279{fill:#d9d9d9;}.Graphic-Style-276{fill:#db6767;}.cls-11{fill:#fc9590;}.cls-12{fill:#83202e;}.cls-13{fill:#d1334a;}.Graphic-Style-281{fill:#6584c6;}.cls-14,.cls-19,.cls-21,.cls-22{fill:none;}.cls-14{stroke:#855b87;stroke-width:2.73503px;}.Graphic-Style-275{fill:#e8766f;}.Graphic-Style-268{fill:#ffb114;}.cls-15{fill:#ffde70;}.cls-16{fill:#9f6f0d;}.cls-17{fill:#fffdf8;}.Graphic-Style-76{fill:#572658;}.cls-18{fill:#2c132c;}.Graphic-Style-62{fill:#7d5b7d;}.Graphic-Style-271{fill:#339e7e;}.cls-19{stroke:#10663f;}.cls-20{fill:#00593b;}.cls-21{stroke:#3dbe88;}.cls-22{stroke:#134411;stroke-width:8.2051px;}.cls-23{fill:#fff4cf;}.cls-24{fill:url(#linear-gradient-8);}.Graphic-Style-266{fill:url(#linear-gradient-9);}.Graphic-Style-265{fill:url(#linear-gradient-10);}.cls-25{fill:url(#linear-gradient-11);}.Graphic-Style-264{fill:#eb485c;}.cls-26{fill:#1d293f;}</style><linearGradient id="linear-gradient" x1="636.66492" y1="2018.6228" x2="5203.12529" y2="2018.6228" gradientUnits="userSpaceOnUse"><stop offset="0" stop-color="#68b2fc"/><stop offset="1" stop-color="#529bf7"/></linearGradient><linearGradient id="linear-gradient-2" x1="482.92037" y1="1893.62527" x2="5098.61201" y2="1893.62527" gradientUnits="userSpaceOnUse"><stop offset="0" stop-color="#4085f0"/><stop offset="1" stop-color="#275dc9"/></linearGradient><linearGradient id="linear-gradient-3" x1="1766.19165" y1="1215.69719" x2="4440.55823" y2="1215.69719" gradientUnits="userSpaceOnUse"><stop offset="0" stop-color="#68b2fc"/><stop offset="1" stop-color="#ebf0f7"/></linearGradient><linearGradient id="linear-gradient-4" x1="637.37146" y1="1493.1844" x2="2815.46266" y2="1493.1844" xlink:href="#linear-gradient-3"/><linearGradient id="linear-gradient-5" x1="482.9358" y1="1651.53456" x2="2784.90904" y2="1651.53456" xlink:href="#linear-gradient-3"/><linearGradient id="linear-gradient-6" x1="3238.15089" y1="1415.06901" x2="4931.83531" y2="1415.06901" xlink:href="#linear-gradient-3"/><linearGradient id="linear-gradient-7" x1="3236.60375" y1="1666.86137" x2="5098.59813" y2="1666.86137" xlink:href="#linear-gradient-3"/><linearGradient id="linear-gradient-8" x1="3025.33413" y1="3539.89098" x2="3391.98872" y2="3539.89098" xlink:href="#linear-gradient"/><linearGradient id="linear-gradient-9" x1="1929.81207" y1="3104.56301" x2="2129.57603" y2="3104.56301" xlink:href="#linear-gradient-2"/><linearGradient id="linear-gradient-10" x1="4813.77075" y1="2919.4433" x2="4997.83897" y2="2919.4433" xlink:href="#linear-gradient-3"/><linearGradient id="linear-gradient-11" x1="5098.59813" y1="2627.79683" x2="5517.07963" y2="2627.79683" xlink:href="#linear-gradient"/></defs><title>10</title><path class="cls-1" d="M662.03127,1754.07881C535.37171,2353.63744,904.863,3050.46671,1285.944,3103.28972c238.55122,33.0668,307.632-210.34652,694.10275-265.16271,173.5496-24.616,340.53531-1.19057,881.27657,218.36933,897.09357,364.25159,885.0649,481.50681,1146.43944,483.532,506.63935,3.9256,1150.3832-431.99375,1193.233-1021.65658,21.96958-302.32739-129.09963-532.92958-311.95642-795.4888C4759.67653,1537.13442,4189.7124,718.73737,3095.29053,537.44925c-220.16645-36.4699-1012.8823-155.67623-1723.5586,319.75488C1170.37226,991.91054,765.87725,1262.51127,662.03127,1754.07881Z"/><path class="cls-2" d="M548.22669,1380.79114C372.69275,1670.1792,573.00408,2198.89271,887.4792,2492.13492c276.64905,257.97056,449.787,154.80117,1321.91483,520.57719,415.45184,174.24355,429.63886,220.08341,672.6558,280.76095,211.31127,52.76091,624.72214,150.46291,1105.49519,0,184.66039-57.7916,679.87575-212.77439,947.56725-713.6,53.30962-99.73724,232.9648-466.45277,134.53113-912.47225-136.36222-617.87921-700.58685-908.45917-924.17051-1023.60669-95.92049-49.39988-675.60464-337.58735-1368.70829-187.17386-518.40957,112.5023-497.18584,339.4954-1187.3837,579.06925C954.52074,1256.05531,688.05979,1150.25972,548.22669,1380.79114Z"/><path class="cls-3" d="M4440.55823,813.86508c-116.50936-78.1007-223.33709-133.11988-295.08532-170.07088C4049.55243,594.394,3469.8682,306.20652,2776.7647,456.62,2307.085,558.54742,2280.35343,754.45289,1766.19165,968.54873l1049.271,1049.27134h421.14109Z"/><path class="cls-4" d="M2815.46266,2017.82007,1766.19165,968.54873c-53.34484,22.2128-111.93305,44.62057-176.81064,67.14053-520.7109,180.74326-793.55939,142.11024-952.00955,249.5598l2147.53758,732.571Z"/><path class="cls-5" d="M637.37146,1285.24906c-34.73512,23.55494-64.00235,54.0917-89.14466,95.54188-99.601,164.20351-78.15813,405.45672,16.45126,637.02913H2784.909Z"/><path class="cls-6" d="M4440.55823,813.86508,3238.15089,2016.27293l1693.68442-700.37026C4799.56679,1089.56194,4609.8442,927.34427,4440.55823,813.86508Z"/><path class="cls-7" d="M5069.64334,1667.40056a1209.88587,1209.88587,0,0,0-137.808-351.49789L3238.15089,2016.27293l-1.54714,1.54714H5095.87806C5102.89577,1909.88106,5097.08165,1791.72841,5069.64334,1667.40056Z"/><path class="cls-8" d="M3049.95967,3331.79724c-64.8477-12.85519-121.29867-26.66658-167.90375-38.31852-230.1256-57.46241-255.04188-101.63361-609.803-254.08435,18.5982-196.01965,63.234-341.66019,63.234-341.66019l58.25618-177.14818,576.05277-177.17556Z"/><path class="Graphic-Style-274" d="M3242.74956,2873.52368c.46842-29.48174,3.98336-59.45894,9.29-88.86923-25.63677.846-41.0684,1.47569-41.0684,1.47569a624.89318,624.89318,0,0,0-13.38688,80.18c.57809.04741,1.14.07412,1.67668.07412Q3221.08656,2870.4047,3242.74956,2873.52368Z"/><path class="Graphic-Style-278" d="M3314.13237,3066.04173c-55.17092-50.57341-72.53448-120.041-71.38281-192.51805q-21.67035-3.156-43.4886-7.1394c-.53669,0-1.09859-.02671-1.67668-.07412-16.35645,166.65609,49.86211,265.40977,55.45171,496.52946a1943.63137,1943.63137,0,0,0,232.772,10.60694q-1.00436-18.25114-2.10353-36.6365C3475.49935,3224.67368,3398.91841,3145.35771,3314.13237,3066.04173Z"/><path class="Graphic-Style-274" d="M3719.07426,2855.84412c2.35677-25.41725,5.7789-47.379,10.514-64.517-97.09169-17.22617-372.82879-10.13017-477.54866-6.67265-5.30664,29.41029-8.82158,59.38749-9.29,88.86923C3406.088,2897.309,3563.058,2885.09616,3719.07426,2855.84412Z"/><path class="cls-9" d="M3719.07426,2855.84412c-156.01627,29.252-312.98623,41.46487-476.3247,17.67956-1.15167,72.47705,16.21189,141.94464,71.38281,192.51805,84.786,79.316,161.367,158.63195,169.57208,270.76833q1.11478,18.39237,2.10353,36.6365a1793.84669,1793.84669,0,0,0,250.23488-21.24593C3724.10262,3222.32994,3706.593,2990.45037,3719.07426,2855.84412Z"/><path class="Graphic-Style-278" d="M3376.70112,977.43747l67.05412,76.12023,43.25111,544.81219,142.65277,132.0297,9.79294-27.36369s-88.70724-159.7213-55.32042-236.90686,71.89334-394.21107,18.45377-450.21069C3508.07659,920.89539,3376.70112,977.43747,3376.70112,977.43747Z"/><path class="cls-10" d="M3316.8674,2494.41971c32.61541,37.765,81.39213,42.13127,130.77648,46.23248-10.49993-80.9192,3.60542-167.9742-37.78533-237.68484-36.71813-64.694-96.92743-111.4613-167.01551-134.669,1.66049,93.37175,1.66082,177.57954-1.51976,231.77207,22.112,15.06138,48.2427,23.77128,70.07406,39.64863C3325.0725,2450.65917,3308.6623,2483.47957,3316.8674,2494.41971Z"/><path class="Graphic-Style-269" d="M3745.52416,2815.47165c-1.50206-2.53538-8.04151-44.01761-15.81308-96.75181-92.7955,18.98164-200.00935-9.64807-249.70319-82.24866a41.18037,41.18037,0,0,1-1.7735,5.64034c-8.2051,30.08537-21.88027,60.17074-10.94014,87.52108,15.96232,39.18056,38.85554,78.35911,68.67649,110.59525C3653.11044,2836.63678,3752.90828,2827.93355,3745.52416,2815.47165Z"/><path class="Graphic-Style-279" d="M3478.23439,2642.11152a41.18037,41.18037,0,0,0,1.7735-5.64034,156.7868,156.7868,0,0,1-18.1837-35.38516c-7.23556-19.48044-11.4977-39.76015-14.18031-60.43383-49.38435-4.10121-98.16107-8.46752-130.77648-46.23248-8.2051-10.94014,8.2051-43.76054-5.47006-54.70068-21.83136-15.87735-47.96208-24.58725-70.07406-39.64863-1.65347,28.17231-4.16565,48.241-7.75321,57.25141-28.42288,71.388-45.52752,367.25505-45.52752,367.25505,8.2298,16.21789,193.207,20.39389,347.92819,15.651-29.821-32.23614-52.71417-71.41469-68.67649-110.59525C3456.35412,2702.28226,3470.02929,2672.19689,3478.23439,2642.11152Z"/><path class="Graphic-Style-279" d="M3609.516,2133.39527c-71.11087-98.46121-142.22175-172.30712-240.683-243.418-42.66746-29.19328-87.18287-60.20613-136.56571-62.809,4.1578,102.62719,8.57318,228.52688,10.57571,341.13,70.08808,23.20772,130.29738,69.97506,167.01551,134.669,51.96564,87.52108,16.4102,202.39249,51.96564,298.11867,35.53924,98.41647,161.25179,139.44665,267.88689,117.63382-13.90721-94.368-31.76071-224.77556-31.76071-232.564,0-7.26293,21.17865-149.21959,35.27449-292.5451C3686.32,2192.33471,3639.1428,2172.28,3609.516,2133.39527Z"/><path class="Graphic-Style-279" d="M3412.59358,1575.44841c68.25014,12.63885,127.16337,46.2839,189.67869,70.74629-34.73212-50.944-62.15057-85.75625-62.15057-85.75625l-171.48681-60.71161-94.95594,79.17308A304.80286,304.80286,0,0,1,3412.59358,1575.44841Z"/><path class="Graphic-Style-269" d="M3743.47789,1943.37721c-8.46651-88.10735-84.56719-214.10853-141.20562-297.18251-62.51532-24.46239-121.42855-58.10744-189.67869-70.74629a304.80286,304.80286,0,0,0-138.91463,3.45151l-50.67275,42.25013s4.45879,87.483,9.26113,206.01828c49.38284,2.60282,93.89825,33.61567,136.56571,62.809,98.46121,71.11087,169.57209,144.95678,240.683,243.418,29.6268,38.88475,76.804,58.93944,123.70886,60.21548C3742.69147,2097.35506,3748.96532,2000.48305,3743.47789,1943.37721Z"/><path class="Graphic-Style-269" d="M3221.14123,2037.66909c19.14523,87.52108,46.49557,166.837,87.52107,243.418a78.419,78.419,0,0,0,25.16869,27.349c34.339-44.36618,57.56758-115.1739,57.56758-115.1739s46.73546-347.17633,38.25275-480.31023l-171.8-123.68749s-21.28682,9.82836-41.92511,42.11124C3206.726,1765.51055,3191.25234,1898.18772,3221.14123,2037.66909Z"/><path class="Graphic-Style-279" d="M3308.6623,2281.08708c-41.0255-76.58094-68.37584-155.89691-87.52107-243.418-29.88889-139.48137-14.41519-272.15854-5.215-406.29338-20.72125,32.41309-40.78862,87.461-38.00084,177.93811,5.56439,180.59234,8.59957,479.55636,79.926,526.60147,27.74764,18.30123,54.11524.7699,75.97965-27.4792A78.419,78.419,0,0,1,3308.6623,2281.08708Z"/><path class="Graphic-Style-276" d="M3429.00378,1474.25217c30.49085,15.24567,61.571,22.21614,92.14563,21.21187l-18.96729-71.61635-131.3998-62.57124C3359.11636,1405.50908,3388.97086,1453.05833,3429.00378,1474.25217Z"/><path class="cls-11" d="M3429.00378,1474.25217c-40.03292-21.19384-69.88742-68.74309-58.22146-112.97572l-27.94629-13.30791V1545.2542c72.31831,29.409,140.50284,45.36577,201.83844,39.03433l-23.52506-88.82449C3490.57476,1496.46831,3459.49463,1489.49784,3429.00378,1474.25217Z"/><path class="cls-11" d="M3350.4239,1067.21594s217.01433-168.45168,239.77807,69.80881-33.38682,328.89265-103.19562,329.104-169.96927-139.40622-169.96927-139.40622Z"/><path class="Graphic-Style-278" d="M3378.49918,980.71373l65.25606,72.844s-81.19068,36.422-85.74343,139.61761,21.07116,336.98063-15.17582,352.07941c-46.0054,19.16326-153.5462,115.6827-144.17036,120.18723,0,0-5.42509-372.79863,21.87109-554.93895C3240.01653,980.51927,3378.49918,980.71373,3378.49918,980.71373Z"/><polygon class="cls-12" points="3576.544 1802.232 4054.997 1980.786 3780.912 2627.797 3765.021 2634.635 3358.012 2467.945 3561.368 1809.34 3576.544 1802.232"/><polygon class="cls-13" points="3561.368 1809.34 4039.821 1987.894 3765.736 2634.905 3342.836 2475.053 3561.368 1809.34"/><polygon class="Graphic-Style-281" points="3579.756 2121.854 3846.868 2226 3838.094 2240.098 3573.906 2142.393 3579.756 2121.854"/><polygon class="Graphic-Style-281" points="3552.459 2180.976 3819.572 2285.121 3810.798 2299.219 3546.61 2201.515 3552.459 2180.976"/><polygon class="Graphic-Style-281" points="3525.163 2240.098 3792.276 2344.243 3783.502 2358.341 3519.314 2260.636 3525.163 2240.098"/><path class="Graphic-Style-269" d="M3717.37288,2005.83426c-27.88135,8.54031-48.27074,35.70034-48.27074,67.90776,0,39.0557,29.97035,70.71625,66.94072,70.71625a64.11134,64.11134,0,0,0,36.94966-11.75344C3733.71948,2095.84865,3702.69544,2053.40488,3717.37288,2005.83426Z"/><path class="Graphic-Style-279" d="M3802.9834,2073.742c0-39.05569-29.97035-70.71624-66.94054-70.71624a63.59759,63.59759,0,0,0-18.67,2.80848c-14.67744,47.57062,16.3466,90.01439,55.61964,126.87057C3791.06287,2120.04128,3802.9834,2098.366,3802.9834,2073.742Z"/><path class="cls-11" d="M3317.03708,2369.30191s305.03413,44.0099,497.76713,33.38682c132.0297,33.38682,159.34619,1.65443,159.34619,1.65443V2246.37771h-37.93957l37.93957-50.08023v-19.72857s-145.68794,72.94814-182.10993,120.69991c-179.07476,6.777-323.24512-59.99661-323.24512-59.99661Z"/><path class="Graphic-Style-279" d="M3511.28766,2231.2021l-46.73746-30.41656c-13.41759,88.98608-70.69838,167.022-136.74567,227.83644l30.20723,19.59395C3419.95984,2381.40259,3472.60022,2309.853,3511.28766,2231.2021Z"/><path class="Graphic-Style-269" d="M3464.5502,2200.78554,3415.68,2168.98075c-52.18716,31.23655-104.89749,87.067-157.82867,153.27607l-12.14055,53.11547,82.09374,53.24969C3393.85182,2367.80755,3451.13261,2289.77162,3464.5502,2200.78554Z"/><path class="Graphic-Style-278" d="M3426.74411,1009.41926s-37.46773,33.17086,17.01113,44.13844c73.97612-7.22988,146.116,16.16684,131.818,78.5581s35.09509,77.33917,35.09509,77.33917,20.79709-124.13261-18.19745-159.87761S3483.9361,997.20725,3426.74411,1009.41926Z"/><path class="Graphic-Style-278" d="M3474.50827,1052.36893s-62.31313,5.65725-64.29985,139.21354c-1.01186,132.58144-5.88617,120.88307-5.88617,120.88307l-17.54754-26.32131s-55.57137-215.84156,59.46459-250.25084Z"/><path class="Graphic-Style-274" d="M2501.82739,2951.17032c73.8459-19.14523,150.42685-38.29047,202.39248-92.99114,57.43571-62.90578,90.25611-150.42685,79.316-237.94793,35.55544,0,73.84591,10.94014,109.40134-8.2051-8.2051,117.60645-16.4102,262.56323,109.40135,311.79383a64.85981,64.85981,0,0,0,14.85538,3.9877l-47.398-584.39709-576.05277,177.17556L2335.487,2697.73433s-32.70071,106.71239-53.78538,260.38041C2355.854,2967.899,2426.69676,2968.13541,2501.82739,2951.17032Z"/><path class="Graphic-Style-278" d="M2444.56179,2960.96129c-54.53525,6.40222-107.78627,4.42039-162.86021-2.84655-3.54833,25.86063-6.76964,53.04336-9.44858,81.27978,60.876,26.15977,112.03655,49.13111,156.19122,69.52835.77924-2.42254,1.57585-4.82972,2.27229-7.3257C2444.8646,3055.61575,2445.28845,3008.48984,2444.56179,2960.96129Z"/><path class="Graphic-Style-278" d="M3017.19392,2927.80768a64.85981,64.85981,0,0,1-14.85538-3.9877c-21.85223-8.551-39.65315-19.99525-54.12142-33.6771,2.55942,139.88268-10.81309,278.25027,7.61917,421.26462,28.97593,6.76347,60.40278,13.70522,94.12345,20.38989Z"/><path class="cls-9" d="M2955.83629,3311.4075c-18.43226-143.01435-5.05975-281.38194-7.61917-421.26462-68.83173-65.08926-62.05992-180.93756-55.27993-278.11673-35.55543,19.14524-73.8459,8.2051-109.40134,8.2051,10.94013,87.52108-21.88027,175.04215-79.316,237.94793-51.96563,54.70067-128.54658,73.84591-202.39248,92.99114a551.24271,551.24271,0,0,1-57.2656,9.791c.72666,47.52855.30281,94.65446-13.84528,140.63588-.69644,2.496-1.49305,4.90316-2.27229,7.3257,174.99374,80.8404,239.91523,121.24959,363.024,159.46594-15.82777-74.45354-18.603-149.052,19.418-218.75728,2.735-8.2051,16.41021,2.735,19.14524,10.94013,9.911,75.32294,14.06713,149.21292,16.64992,223.74525,11.25864,3.02817,23.01508,6.0757,35.37465,9.162C2904.42654,3299.0718,2929.08892,3305.1642,2955.83629,3311.4075Z"/><path class="Graphic-Style-278" d="M2810.88618,3049.63153c-38.021,69.7053-35.24577,144.30374-19.418,218.75728,17.12818,5.31716,35.37849,10.59292,55.21316,15.9281-2.58279-74.53233-6.73893-148.42231-16.64992-223.74525C2827.29639,3052.36656,2813.62122,3041.42643,2810.88618,3049.63153Z"/><path class="Graphic-Style-274" d="M2398.5881,2576.86346s237.71052,82.8099,608.31481-36.71986l-7.79891-71.165-583.61826,31.19563Z"/><path class="Graphic-Style-269" d="M2789.00592,2043.13916c-13.67517-114.87141-32.82041-221.53772-51.96564-336.40913-8.2051-62.90578-5.47007-125.81155,0-188.71732,0-13.67517,5.47006-30.08537,5.47006-43.76054,5.95718-41.69992,16.22374-80.52391,23.5042-120.644-125.53561-31.75471-267.96619-52.17865-267.96619-52.17865s-21.8412,9.49516-54.52839,25.45731c21.58429,25.4246,39.95245,56.04549,58.30743,78.98946,270.17421,321.75307,337.39554,747.16431,265.11112,1139.57886,36.93414-3.93094,67.30981-8.72593,92.11341-13.6972-29.22249-63.40524-31.10716-136.23886-48.16574-206.91037C2791.741,2229.12145,2799.94605,2138.86534,2789.00592,2043.13916Z"/><path class="Graphic-Style-279" d="M2904.7604,1399.56625c-24.12986-11.6486-55.53784-22.65417-90.19951-32.791-15.63981-4.574-31.94735-8.96832-48.54635-13.167-7.28046,40.12-17.547,78.944-23.5042,120.644,0,13.67517-5.47006,30.08537-5.47006,43.76054-5.47007,62.90577-8.2051,125.81154,0,188.71732,19.14523,114.87141,38.29047,221.53772,51.96564,336.40913,10.94013,95.72618,2.735,185.98229,21.88026,281.70846,17.05858,70.67151,18.94325,143.50513,48.16574,206.91037,73.34194-14.69747,97.808-30.93406,97.808-30.93406S3022.12029,1456.22271,2904.7604,1399.56625Z"/><path class="Graphic-Style-279" d="M2443.52,1326.88687c-14.55458,7.10668-31.25307,15.49274-49.1423,24.89909-105.82914,55.64886-253.0856,146.89989-241.32649,218.76129,18.21108,111.2897,185.49418,306.55213,160.02668,571.62336-25.46766,265.07124-29.51463,414.80565,267.93163,412.78242,75.2398-.51216,136.44386-4.23143,185.929-9.49784,72.28442-392.41455,5.06309-817.82579-265.11112-1139.57886C2483.47241,1382.93236,2465.10425,1352.31147,2443.52,1326.88687Z"/><path class="cls-14" d="M2676.74915,1446.78024s180.63271,672.22235,117.30857,1093.36336"/><path class="cls-11" d="M2553.72219,1159.74986s55.7091,60.68631,157.42389,47.22408c73.92154-9.78371,109.26637-361.24662-31.89-380.371s-254.9446,55.46107-240.37362,163.83274c2.17028,16.14148,53.58825,81.5294,54.61,102.2991,5.8379,118.67517-13.67662,217.44255-13.67662,217.44255s109.50747,132.96019,196.93335,136.60294c52.8198-56.46255,30.82957-134.34386,30.82957-134.34386s-22.40411-79.89167-21.03808-103.56951"/><path class="Graphic-Style-276" d="M2581.4954,1189.83575s45.13954,58.44177,109.17014,52.78008l-2.59764-33.7779S2617.56534,1210.95779,2581.4954,1189.83575Z"/><path class="Graphic-Style-278" d="M2498.73164,1125.81952s-7.30274-13.42-4.68-49.14049c1.57123-21.39967-22.64461-36.86337-23.9735-56.34757-1.59017-23.31509,1.94973-44.84372,20.11057-45.09813,32.82666-1.77494,27.68145,60.91561,27.68145,60.91561l12.94412-33.18065s-50.08775-101.68911-9.10687-113.528,60.1053-15.48167,68.30147-25.49921c42.80226,19.12441,90.15794-9.10687,90.15794-9.10687s75.26834,32.3025,81.64314,58.7124,17.538,86.1809,13.99945,125.30078c29.12143-51.96367,81.94123-189.47729,23.65731-255.95739v19.12441s-78.319-89.24725-164.83421-74.67627v10.92823s-147.53117-14.571-185.78,49.17706-58.28392,99.2648-24.58853,203.083c0,42.80226,53.71926,122.423,53.71926,122.423Z"/><path class="cls-9" d="M2789.877,2096.4002c24.56773,127.01814,97.94005,303.15471,99.2019,335.12241,1.51759,38.44539,50.25357,459.32206,82.542,441.111s86.92145-200.32118,80.85109-200.32118c-3.23917,0-16.27265-289.21645-30.1852-571.60133C2952.32986,2113.21972,2862.80425,2094.99529,2789.877,2096.4002Z"/><path class="Graphic-Style-278" d="M2898.40726,1859.89191c-31.69644,40.03726-72.56035,40.58667-118.22794,52.30671,1.14216,38.42936,1.80822,95.55871,1.77317,114.63517-.03689,20.09609,2.946,43.82665,7.92448,69.56641,72.92728-1.40491,162.45289,16.81952,232.40975,4.31088-6.95594-141.18676-14.13156-280.66546-20.41259-381.43435C2963.45412,1761.40666,2936.27789,1814.80792,2898.40726,1859.89191Z"/><path class="cls-9" d="M2931.06524,1379.38269c-16.18751-14.21469-176.03958-52.66008-176.03958-52.66008s19.15525,387.3977,25.15366,589.224c45.66759-11.72005,86.5315-16.01739,118.22794-56.05465,37.87063-45.084,65.04686-98.48525,103.46687-140.61518-4.699-75.389-8.898-129.13552-12.129-145.694C2973.55758,1490.62164,2947.25275,1393.59739,2931.06524,1379.38269Z"/><path class="Graphic-Style-279" d="M2459.76956,1319.0442c3.37241,14.83859,113.2033,221.786,115.22675,211.66881s49.61529-130.9159,46.23138-132.57313c-48.99169-23.99318-93.9121-63.593-135.76082-123.85982Z"/><path class="Graphic-Style-269" d="M2450.02093,1306.95762c3.37241,14.83859,115.99242,208.1688,118.01586,198.05158s53.1909-106.86932,53.1909-106.86932c-53.056-22.19544-100.77019-71.51686-145.50946-135.9464Z"/><path class="Graphic-Style-279" d="M2701.44569,1277.69541l50.043,58.49181,11.918,166.90466-11.918-13.20118-56.613-98.983C2700.48945,1359.566,2709.02817,1331.74839,2701.44569,1277.69541Z"/><path class="Graphic-Style-269" d="M2704.98267,1265.34714l50.043,58.49181v153.70348l-60.15-86.63475C2700.48945,1359.566,2712.56515,1319.40012,2704.98267,1265.34714Z"/><path class="Graphic-Style-278" d="M2285.75973,2814.41864c-43.76054-24.6153-38.29047-71.11087-30.08537-112.13638,24.6153-142.22175,90.25611-268.03329,54.70067-412.99007-6.46348-22.62212-19.61348-46.19309-38.31417-61.70052-14.421,222.26889-119.67225,661.2291-119.67225,661.2291s438.73819,80.9379,517.65236-64.75a627.37518,627.37518,0,0,0,29.06975-61.78866c-59.56611,22.56937-120.58955,42.85509-178.1381,68.54678C2447.12671,2863.64924,2359.60564,2855.44414,2285.75973,2814.41864Z"/><path class="cls-9" d="M2745.24538,2152.5405c-90.25611,24.61531-185.98229,2.735-281.70846-8.2051-35.55544-2.735-68.37584,2.735-103.93128-2.735-30.89216-4.41305-60.17441-12.83316-86.62515-26.43487.93032,31.49762,1.15284,59.8342.46558,83.66091-.26259,9.10186-.73334,18.71788-1.38521,28.76526,18.70069,15.50743,31.85069,39.0784,38.31417,61.70052,35.55544,144.95678-30.08537,270.76832-54.70067,412.99007-8.2051,41.02551-13.67517,87.52108,30.08537,112.13638,73.84591,41.0255,161.367,49.2306,235.21289,16.4102,57.54855-25.69169,118.572-45.97741,178.1381-68.54678,58.44164-143.188,86.74049-347.53623,82.3812-633.34591C2771.42718,2140.0953,2759.62667,2148.54546,2745.24538,2152.5405Z"/><path class="Graphic-Style-278" d="M2736.957,1885.06811c-167.2831.10884-330.75294-45.5928-486.68307-108.49457,10.45686,117.37608,19.87389,242.68749,22.70658,338.592,26.45074,13.60171,55.733,22.02182,86.62515,26.43487,35.55544,5.47007,68.37584,0,103.93128,2.735,95.72617,10.94014,191.45235,32.82041,281.70846,8.2051,14.38129-3.995,26.1818-12.4452,36.24654-23.60435-.05626-3.68856-.09432-7.33171-.16143-11.047C2779.99553,2044.01856,2762.86468,1964.37473,2736.957,1885.06811Z"/><path class="Graphic-Style-278" d="M2378.75087,1728.61029c-44.55914-13.71055-90.19217-26.34473-136.22617-35.88863,2.59114,27.11863,5.201,55.24821,7.74921,83.85188,90.14576,36.36473,182.81522,66.95624,277.28089,86.29512q-9.45536-16.80383-20.25735-33.06212C2474.47705,1780.57593,2430.71651,1745.0205,2378.75087,1728.61029Z"/><path class="cls-9" d="M2442.69046,1326.72261l-227.86182,100.413s13.56967,117.742,27.69606,265.586c46.034,9.5439,91.667,22.17808,136.22617,35.88863,51.96564,16.41021,95.72618,51.96564,128.54658,101.19625q10.83205,16.24794,20.25735,33.06212c68.93673,14.1132,138.82816,22.24552,209.40218,22.19945C2645.06125,1603.76629,2442.69046,1326.72261,2442.69046,1326.72261Z"/><path class="cls-9" d="M3106.26982,2130.66024c24.6153,2.735,46.49557-27.35034,49.2306-54.70068,0-38.29047-10.94013-76.58094-13.67517-114.87141-2.42136-33.90013-4.60752-67.5592-6.904-101.12413-33.81332-116.66026-77.10044-241.73-98.637-326.84987-42.49218-167.94615-171.22339-177.5595-171.22339-177.5595l104.41839,365.46619s48.59409,192.5007,38.47693,243.0868c-10.11732,50.5861-252.93051,74.63116-252.93051,74.63116s-88.6639,12.46724-68.4558,80.568C2826.86319,2119.36487,2965.49154,2128.233,3106.26982,2130.66024Z"/><path class="Graphic-Style-278" d="M3134.92123,1859.964c2.2965,33.56493,4.48266,67.224,6.904,101.12413,2.735,38.29047,13.67517,76.58094,13.67517,114.87141-2.735,27.35034-24.6153,57.43571-49.2306,54.70068-140.77828-2.42721-279.40663-11.29537-419.7-11.35347,3.07691,10.36856,8.65215,22.01449,17.47557,35.11541,127.47687,2.02389,445.83752,85.1386,473.88-22.36905C3191.755,2079.03381,3167.82293,1973.47994,3134.92123,1859.964Z"/><path class="cls-11" d="M3087.12458,1931.00278c21.88027,5.47007,49.23061,16.4102,65.64081-5.47007,13.67516-16.4102-19.14524-27.35033-5.47007-41.0255h10.94013c5.47007-13.67517-24.6153-19.14523-16.4102-24.6153a90.19158,90.19158,0,0,1,20.234-9.61936,20.822,20.822,0,0,0,2.97341-12.91462c-1.50156-20.26636-30.09756-18.96695-30.09756-18.96695s24.75169-12.03455,18.71238-32.3383c-6.03914-20.30442-49.45062-13.583-72.49241-3.40677-2.687-10.2497-28.21689-26.3207-71.165,9.74889-14.934,12.5427-52.8786,72.891-52.8786,72.891-32.65881,27.35969-61.66779,51.89152-61.66779,51.89152s12.86136,23.97963,27.14667,46.145c27.33248-6.3241,54.34327-16.103,82.4832-21.37947C3032.42391,1933.73782,3059.77424,1922.79768,3087.12458,1931.00278Z"/><path class="Graphic-Style-276" d="M3162.05923,1850.27255a90.19158,90.19158,0,0,0-20.234,9.61936c-8.2051,5.47007,21.88027,10.94013,16.4102,24.6153h-10.94013c-13.67517,13.67517,19.14523,24.6153,5.47007,41.0255-16.4102,21.88027-43.76054,10.94014-65.64081,5.47007-27.35034-8.2051-54.70067,2.735-82.051,10.94014-28.13993,5.27642-55.15072,15.05537-82.4832,21.37947,13.9209,21.59982,29.19378,41.47555,35.24461,35.74373,12.26008-11.61521,76.54338-34.14585,143.02637-41.28391,15.77535-1.31811,71.76825-8.86482,75.01794-29.60928,3.24952-20.74445-21.44708-23.66846-21.44708-23.66846s20.78586-4.6147,19.97907-19.36759c-.80662-14.75289-30.05265-16.053-30.05265-19.95252C3144.35863,1862.31978,3156.30287,1859.558,3162.05923,1850.27255Z"/><path class="Graphic-Style-278" d="M2351.40054,2106.04493c-71.11088-136.75168-98.46121-284.44349-147.69182-432.13531-13.67517-38.29047-30.08537-73.84591-35.55543-114.87141-4.493-31.45155-3.22131-68.63225,7.80913-101.23631-35.77395,33.91148-75.6134,93.912-61.481,186.9505,24.28127,159.8519,128.613,707.85621,381.54354,635.01191,252.93034-72.84364,473.7626-273.11141,473.7626-273.11141l-21.05261-30.20756c-107.06728,35.4279-202.61217,108.24683-304.68582,170.6251C2548.323,2207.24118,2408.83624,2220.91635,2351.40054,2106.04493Z"/><path class="cls-9" d="M2485.90763,1964.10764c-82.77015-173.30872-86.34469-255.84717-86.34469-255.84717l-174.31566-285.7162s-23.59451,10.90408-49.28486,35.25763c-11.03044,32.60406-12.30214,69.78476-7.80913,101.23631,5.47006,41.0255,21.88026,76.58094,35.55543,114.87141,49.23061,147.69182,76.58094,295.38363,147.69182,432.13531,57.4357,114.87142,196.92242,101.19625,292.64859,41.02551,102.07365-62.37827,197.61854-135.1972,304.68582-170.6251l-62.18546-89.22914S2576.96269,2045.04487,2485.90763,1964.10764Z"/><path class="Graphic-Style-276" d="M2507.29745,1944.678c-40.33239-13.44413-80.66479,2.18148-120.99719,7.9113a15.15584,15.15584,0,0,0,5.85452.72649s107.917-1.34882,107.917,0c0,.32318,4.27583,24.87772,12.2761,26.06428,8.40676,1.24733,23.95658,3.93295,39.023,4.69083a65.00223,65.00223,0,0,1-16.723-12.04256C2529.17772,1963.82319,2520.97262,1947.413,2507.29745,1944.678Z"/><path class="cls-11" d="M2575.45678,1982.81885c4.10122-30.32041-1.57351-58.84729-13.45865-87.3715-36.858-86.002-122.7737-106.08138-209.54074-109.595-6.291,6.99517-5.67389,17.54,7.7861,19.56924l100.411,20.30976-125.15617,19.66741c-12.95284,9.38231-11.67664,16.42422,4.047,21.08967l123.54626-.78792-127.59323,16.1204c-10.90791,12.745-9.38632,21.58981,12.81513,23.94423l133.5474-.00067-.67458,7.75706-93.07845,14.6801c-15.36336,2.02791-13.62659,20.4186-1.80755,24.38761,40.3324-5.72982,80.6648-21.35543,120.99719-7.9113,13.67517,2.735,21.88027,19.14524,27.35034,27.35034a65.00223,65.00223,0,0,0,16.723,12.04256C2560.04517,1984.50754,2568.56077,1984.3099,2575.45678,1982.81885Z"/><path class="Graphic-Style-275" d="M2561.99813,1895.44735c11.88514,28.52421,17.55987,57.05109,13.45865,87.3715a31.13688,31.13688,0,0,0,8.35551-2.89329c25.88767-14.25543-36.39494-167.84265-89.03766-178.56578L2370.31707,1779.75a19.91437,19.91437,0,0,0-17.85968,6.10241C2439.22443,1789.366,2525.14011,1809.44536,2561.99813,1895.44735Z"/><path class="Graphic-Style-274" d="M2780.99473,3265.08806q7.12187,2.27863,14.51834,4.54459l38.51417-445.05594s-33.87927,184.15136-43.26108,228.02007C2786.32741,3073.35259,2783.13114,3169.51746,2780.99473,3265.08806Z"/><path class="Graphic-Style-268" d="M1333.968,1895.44735a15.76757,15.76757,0,0,0,2.31-3.49692c-45.5549.14089-109.71317,2.22422-169.74819,10.80124q.757,11.35513,1.48036,22.349C1209.16159,1892.122,1295.66337,1940.934,1333.968,1895.44735Z"/><path class="cls-15" d="M1216.36159,2171.68574c30.08537,68.37584,114.87141,123.07651,188.71732,84.786a61.17254,61.17254,0,0,0,14.24691-10c-74.62682.61965-168.34646-.14891-205.02669-144.07939C1209.6275,2125.506,1206.20838,2149.34874,1216.36159,2171.68574Z"/><path class="Graphic-Style-268" d="M1446.95477,2246.46647c-8.786-.17561-18.05249-.07411-27.629.00535a61.17254,61.17254,0,0,1-14.24691,10c-73.84591,38.29047-158.63195-16.4102-188.71732-84.786-10.15321-22.337-6.73409-46.17973-2.06246-69.29331-10.777-42.28751-16.64308-96.90071-15.6373-167.50878,138.26509-10.71111,186.95-6.81622,186.95-6.81622s23.36882-7.78977,12.65822-35.0533c0,0-24.79593-1.17922-61.992-1.0637a15.76757,15.76757,0,0,1-2.31,3.49692c-38.30466,45.48662-124.80644-3.32531-165.95781,29.65334,16.34977,247.48849,24.723,362.84268,251.681,349.60354,9.737,130.47566,185.00272,114.89611,185.00272,114.89611v-42.84307S1459.613,2388.62679,1446.95477,2246.46647Z"/><path class="cls-15" d="M1629.35166,2456.12924c-16.4102,76.58094-13.67516,147.69181-5.47006,221.53772,0,10.94013,10.94013,27.35034,21.88027,27.35034,1.47084.16359,2.97257.35723,4.49551.56957v-282.019C1639.78031,2431.33231,1632.61638,2444.703,1629.35166,2456.12924Z"/><path class="Graphic-Style-268" d="M1653.967,2765.188c-3.06506-13.79268,6.75228-22.43248,19.34422-30.251a159.33227,159.33227,0,0,0-23.05381-4.25747v-25.09273c-1.52294-.21234-3.02467-.406-4.49551-.56957-10.94014,0-21.88027-16.41021-21.88027-27.35034-8.2051-73.84591-10.94014-144.95678,5.47006-221.53772,3.26472-11.42625,10.42865-24.79693,20.90572-32.56133V2237.70315a238.63253,238.63253,0,0,0,23.993-2.93936c-16.85007-3.32665-32.11711-10.66036-44.89869-24.78758-19.14523-19.14523-13.67516-57.43571-41.0255-68.37584-133.10853-59.42355-169.1217-207.67025-178.06715-342.41606H1322.3216s5.35522,311.22893,129.50178,369.51867c0,2.64889,10.99205,6.83291,27.66684,11.41289V2204.207s58.99236,32.52259,116.15629,33.49615V2730.6796s-44.20875,4.18-53.31045,21.90832a315.15555,315.15555,0,0,0-42.3608,8.15568c62.46357,17.90927,132.11611,38.79261,210.78422,64.55641C1717.78687,2797.59444,1661.68529,2793.48855,1653.967,2765.188Z"/><path class="cls-15" d="M1880.40268,2876.93579s-58.51159-32.1313-68.91354-73.02726c-10.40227-40.89463-107.92131-51.32061-107.92131-51.32061-4.57447-8.91023-18.01577-14.39632-30.25664-17.65085-12.59194,7.81848-22.40928,16.45828-19.34422,30.251,7.71832,28.30052,63.8199,32.40641,56.79251,60.112,51.337,16.81285,106.50372,35.69834,166.05063,57.21C1880.51185,2879.0939,1880.40268,2876.93579,1880.40268,2876.93579Z"/><path class="cls-15" d="M1766.41351,2180.72284c18.01576-4.78564,30.09889-9.21071,30.09889-12.01986h11.68432c124.14655-58.28974,129.50194-369.51867,129.50194-369.51867H1410.259c8.94545,134.74581,44.95862,282.99251,178.06715,342.41606,27.35034,10.94013,21.88027,49.23061,41.0255,68.37584,12.78158,14.12722,28.04862,21.46093,44.89869,24.78758,53.03051-9.18533,92.16316-33.412,92.16316-33.412Z"/><ellipse class="Graphic-Style-268" cx="1624.16781" cy="1799.18472" rx="301.84633" ry="28.72793"/><ellipse class="cls-16" cx="1624.16781" cy="1799.18472" rx="291.47183" ry="20.20647"/><path class="Graphic-Style-268" d="M2039.60671,1925.53271c-54.70068-21.88026-114.87142,10.94014-169.57209-24.6153-1.61524-1.61524-1.28622-5.14555.35073-8.88619-24.5285.25775-39.79354.98291-39.79354.98291-10.71077,27.26353,12.65805,35.0533,12.65805,35.0533s48.6849-3.89489,186.95,6.81622c1.02147,71.70715-5.05023,126.90328-16.15028,169.4599C2060.84462,2076.15187,2039.60671,1973.80312,2039.60671,1925.53271Z"/><path class="cls-15" d="M1870.38535,1892.03122c-1.637,3.74064-1.966,7.27095-.35073,8.88619,54.70067,35.55544,114.87141,2.735,169.57209,24.6153,0,48.27041,21.23791,150.61916-25.55714,178.81084-41.80442,160.27324-155.20231,140.58447-232.14266,142.12292-12.658,142.16032-157.739,100.2908-157.739,100.2908-14.83436,12.92531-12.432,27.42646,0,42.84307,0,0,175.2655,15.57955,185.00255-114.89611a482.62114,482.62114,0,0,0,65.83245-.21167,16.21407,16.21407,0,0,1,3.23683-9.81568c13.67517-21.88027,41.02551-19.14523,62.90578-27.35033,27.35033-10.94014,49.2306-35.55544,62.90577-62.90578,2.22789-6.68333,13.52893-13.362,25.03464-11.17651,21.097-61.43943,25.75662-148.15322,33.24591-260.49259C1991.72843,1892.66557,1915.42459,1891.55847,1870.38535,1892.03122Z"/><path class="cls-17" d="M2004.05127,2174.42077c-13.67517,27.35034-35.55544,51.96564-62.90577,62.90578-21.88027,8.2051-49.23061,5.47006-62.90578,27.35033a16.21407,16.21407,0,0,0-3.23683,9.81568c88.05626-6.95912,130.96043-43.91011,154.083-111.2483C2017.5802,2161.05877,2006.27916,2167.73744,2004.05127,2174.42077Z"/><path class="Graphic-Style-76" d="M4824.03336,2640.81774c-15.8533,29.63416-220.19523,27.10612-323.20246,23.91259q-1.654-6.70042-3.15525-13.34388-2.76636-11.97537-5.13268-23.7606C4571.23819,2622.39851,4842.22421,2606.79251,4824.03336,2640.81774Z"/><path class="Graphic-Style-274" d="M4804.74688,2641.076c-14.0037,26.17676-194.5051,23.94366-285.4945,21.12272q-1.461-5.91869-2.78713-11.787-2.4436-10.57823-4.53385-20.98846C4581.44526,2624.80575,4820.8154,2611.0205,4804.74688,2641.076Z"/><path class="Graphic-Style-274" d="M4659.08537,2528.81558s-100.6078-113.3001,86.23757-227.38765c-25.89985,44.4545-120.75,94.49863-53.67646,207.69272,27.77661,64.41192,1.49523,145.88421,1.49523,145.88421S4617.71856,2606.054,4659.08537,2528.81558Z"/><path class="cls-18" d="M4589.36533,2666.48377c-32.70772-.24973-63.59337-.98357-88.53069-1.76014,18.49754,75.58268-7.43554,278.66961,33.82785,369.24089a1403.3788,1403.3788,0,0,0,147.808-122.44417,141.811,141.811,0,0,1-17.23151-6.8456C4576.79993,2865.11024,4557.71212,2754.2666,4589.36533,2666.48377Z"/><path class="Graphic-Style-62" d="M4814.42367,2765.82505l9.61452-124.99691c-12.01585,22.44918-132.29573,26.43621-234.67286,25.65563-31.65321,87.78283-12.5654,198.62647,75.87365,238.191a141.811,141.811,0,0,0,17.23151,6.8456A1318.81126,1318.81126,0,0,0,4814.42367,2765.82505Z"/><path class="Graphic-Style-271" d="M4874.3271,2313.85314c12.985,12.49431,31.40821,16.41249,44.07107,17.43885q8.52169-4.18679,17.01793-9.07089c24.8463-14.274,40.74612-39.75617,50.84581-68.236-16.43952,5.94052-53.07735,17.76569-68.99453,11.44639-20.85568-8.26345-12.75065-17.53636-3.06077-14.46268,12.01321,6.17791,57.06322-6.64146,77.037-12.82373a320.66045,320.66045,0,0,0,8.84015-45.8183c-14.18812,8.47634-35.6966,16.21488-45.423,12.8649-12.61131-4.34289-7.61973-14.7206,2.76719-13.5438,7.62284.86756,32.11831-12.23569,44.59869-19.24939a450.30109,450.30109,0,0,0,.42-61.03875c-.07447-1.06827-.12344-1.6476-.12344-1.6476a534.60347,534.60347,0,0,0-68.479-14.39974c-8.17935,8.34027-20.32658,21.32795-25.53279,29.96783-8.1918,13.59163-11.9383,24.832-18.54181,22.71654-12.95566-6.77274,13.60432-38.48185,28.459-54.68171a364.475,364.475,0,0,0-52.62154-2.30435c-52.70762,41.59884-25.086,77.87646-45.73426,73.53574-17.89424-3.76469,13.805-52.70095,27.25161-72.21232-16.7108,1.85438-32.62778,5.561-46.41543,11.9124-12.35289,6.306-23.38035,12.49752-33.1855,18.56407-14.83554,35.21606,20.511,54.94268,1.763,59.26039-14.64194,3.37234-16.55929-31.09937-16.54895-49.60477-127.91121,88.74613,2.84386,148.21364,2.84386,148.21364.0816.54388.17506,1.07348.262,1.61048,11.70207,72.13409,71.75306,83.94773,137.7717,59.67706-10.19735-8.21129-28.78979-23.34964-31.77321-26.76477C4857.67518,2310.46537,4863.90192,2302.39011,4874.3271,2313.85314Z"/><path class="cls-19" d="M4978.9292,2127.8544s-149.43795,115.04725-223.35235,152.82728"/><path class="cls-19" d="M4941.00586,2211.43959s-34.74756,4.57076-70.402-4.01408"/><path class="cls-19" d="M4858.88039,2155.78512s-21.017,50.57116-11.02565,67.4419"/><path class="cls-19" d="M4895.58213,2284.68949s-60.97382-21.29255-80.87381-39.27022"/><path class="cls-19" d="M4756.68484,2212.83989s-4.79988,38.82421,18.85891,56.87066"/><path class="cls-20" d="M4415.14343,2227.15636q16.34561,2.00166,31.84617,4.88473c13.92746,13.41764,31.14483,35.98931,31.05278,64.14275-1.8723,24.40456,15.75492,20.20823,16.69892,10.25811.70512-7.15337-2.61993-44.00309-4.55881-64.09869,110.64336,32.92888,168.02488,106.12786,88.88376,209.28779,0,0,82.4232,200.02758-182.77713,189.18887,23.26024-23.27169,64.26134-68.47635,42.42942-78.25477-27.95359-12.521-10.259,46.145-72.3279,76.24316q-29.10586-2.63618-63.20022-8.424c-24.548-5.21222-48.332-15.7911-70.743-29.46117,40.66993-11.66995,140.24-42.88034,123.46554-64.75262-19.36009-25.23384-31.74068,46.85725-147.339,48.71865-22.03825-16.144-42.36988-34.717-60.3408-53.29024,38.20223-6.15584,109.95455-20.61444,102.89357-41.54149-5.27763-8.98515-23.90081,1.56875-50.81963,10.82351-17.11023,5.88408-48.02366,10.59126-68.33051,13.25162-39.62955-44.20645-64.2021-83.692-64.2021-83.692s31.3907-36.45636,79.10653-78.58093c23.80912,3.12722,69.70641,10.09964,77.77726,18.49057,11.00346,11.42751,30.03917,3.15116,20.33978-14.38913-7.47987-13.52873-43.04843-24.38947-70.74686-27.31287a690.2914,690.2914,0,0,1,68.18268-49.1775c31.76915,11.34876,102.01078,38.36188,108.68623,57.63814,7.78273,13.1461,29.17212,9.24126,14.49073-21.12655-11.18952-23.19251-70.0728-43.40018-97.29126-51.66929C4316.23466,2238.15425,4367.35379,2221.3215,4415.14343,2227.15636Z"/><path class="cls-21" d="M4118.67892,2430.01815s324.11-1.636,460.39511,21.61469"/><path class="cls-21" d="M4269.25627,2361.17653s47.49853,27.52423,79.56007,72.4678"/><path class="cls-21" d="M4298.03093,2509.83894s88.78676-43.49676,97.974-74.28947"/><path class="cls-21" d="M4415.86312,2312.52006s46.52394,85.17708,47.85338,126.851"/><path class="cls-21" d="M4492.51581,2535.92267s54.54126-44.2478,48.78124-89.60772"/><path class="Graphic-Style-271" d="M4457.40118,1964.69277q11.71214,8.30778,22.36857,17.062c4.62554,17.49541,7.608,44.44615-5.3328,69.44885-12.60236,20.95755,2.93311,24.2647,8.21083,15.79212,3.81472-6.08057,18.0911-40.18227,25.77953-58.82943,70.4205,73.47157,81.2871,161.48921-27.00749,221.63427,0,0-27.76526,210.81832-227.68071,95.272,28.60692-11.40881,80.945-35.23991,68.54958-52.65523-15.87076-22.29919-29.01938,36.94416-90.72691,38.92631-14.18635-9.31192-29.16579-20.17411-44.972-32.73093-16.58093-14.43883-30.11843-33.34562-41.1822-54.4534,36.75261,5.86217,127.93867,17.86668,124.97865-8.28514-3.42079-30.17415-45.93974,28.999-136.09158-15.50909-9.64492-23.15924-16.86111-47.79723-22.2535-71.49273,32.32564,9.7809,94.36451,25.57546,98.47615,4.14334.03033-10.09893-19.18075-8.14944-44.20644-10.66822-15.90761-1.59962-41.94035-9.75822-58.84373-15.50155a677.27641,677.27641,0,0,1-11.3389-100.07385s40.91485-19.8883,97.03214-38.2985c16.96326,12.28939,49.23212,36.81945,51.63122,47.50534,3.27647,14.55772,21.7651,14.79861,22.29036-4.675.40607-15.01939-22.10628-38.883-42.16725-52.54427a608.736,608.736,0,0,1,75.15224-16.50968c19.35418,22.78035,61.26816,74.85626,57.61331,94.66623.0028,14.8,18.31135,19.86884,20.85177-13.003,1.95791-25.09572-34.29258-66.583-51.53911-84.807C4375.96565,1934.97548,4423.15044,1940.41873,4457.40118,1964.69277Z"/><path class="cls-19" d="M4135.64548,2026.7249s251.12633,127.97666,345.77953,203.08042"/><path class="cls-19" d="M4283.43749,2025.63s24.111,43.44815,28.334,96.22423"/><path class="cls-19" d="M4237.70858,2169.34023s88.47229-3.22914,109.64573-26.94706"/><path class="cls-19" d="M4418.93507,2040.902s-2.99653,94.335-21.0198,131.93033"/><path class="cls-19" d="M4376.02667,2270.20547s62.36059-17.57288,78.64617-60.21589"/><path class="Graphic-Style-271" d="M4786.05786,1948.49319c21.33125-5.40419,35.63408-21.50647,43.53822-33.59217q-.31883-11.1126-1.4572-22.62557c-3.31861-33.66289-24.33939-65.19042-51.90226-92.72608-1.85444,20.13277-7.622,64.13774-23.37086,76.25748-20.61611,15.89012-27.03521,2.08909-18.34168-5.76139,13.51436-8.28681,22.5954-61.34431,26.04534-85.17288a476.205,476.205,0,0,0-48.27318-36.862c2.27118,19.42146-.194,45.7414-9.2263,53.45978-11.71049,10.00813-21.05837-1.34206-14.18773-11.051,5.04683-7.12287,2.89537-39.71844,1.40894-56.532a677.66589,677.66589,0,0,0-70.334-37.70584c-1.27436-.57777-1.97-.88248-1.97-.88248a539.30359,539.30359,0,0,0-52.9738,59.95238c5.3016,13.306,13.8703,33.43418,21.0955,43.93833,11.36522,16.52613,22.37078,27.15327,16.42225,32.49057-14.70192,8.8696-37.2653-37.16356-48.11075-61.97194a359.92547,359.92547,0,0,0-30.57982,51.4208c20.12372,78.32451,76.71175,72.7537,60.74011,90.83167-13.84477,15.665-53.5952-46.05042-69.01552-71.468-6.72167,17.90919-10.88119,36.15282-10.85381,53.87429.736,16.25332,2.04287,31.10608,3.85369,44.65539,32.83709,36.40478,74.39138,12.96889,69.43644,34.42789-3.86947,16.7594-44.73367-2.372-66.11922-13.686,34.7268,182.62252,172.834,87.6779,172.834,87.6779.672.25029,1.33376.48,2.00063.72066,89.59033,32.3134,135.10365-20.75753,142.07176-101.86084-14.90148,5.22174-42.26387,14.64035-47.79426,15.54944C4773.30784,1963.14121,4767.27671,1951.95741,4786.05786,1948.49319Z"/><path class="cls-21" d="M4626.54774,1729.86683s53.70906,220.29933,58.16813,317.58132"/><path class="cls-21" d="M4703.04812,1818.99535s-13.15036,37.67608-41.98884,68.22681"/><path class="cls-21" d="M4595.147,1867.44834s47.30724,51.98989,72.10922,52.26435"/><path class="cls-21" d="M4763.62255,1909.34065s-56.95989,48.20742-88.298,57.20438"/><path class="cls-21" d="M4606.883,2004.89619s42.33186,28.53364,75.74355,15.80512"/><path class="cls-22" d="M4684.7162,2047.4424s15.10111,162.54718-25.63083,358.908"/><path class="cls-22" d="M4471.44708,2222.123s174.27616,51.48959,187.63829,187.899"/><path class="cls-19" d="M4565.26622,2451.63284c13.88527-4.981,82.49075-4.74263,101.8875,8.978"/><path class="cls-22" d="M4763.82661,2276.3155s-100.63872,31.678-79.11074,237.59441"/><path class="Graphic-Style-271" d="M4368.11222,2546.77026q-1.6835-11.89512-2.34305-23.479c9.70673-13.74707,27.39917-32.58689,54.20038-41.2051,23.62582-6.23386,15.7652-17.102,6.09294-14.685-6.95941,1.71939-41.283,15.377-59.97341,22.91163,7.03945-86.49428,64.07591-148.658,179.577-125.865,0,0,172.1862-118.55186,220.0825,67.76921-27.24243-8.87241-79.24244-23.22186-83.75247-5.14323-5.77531,23.14808,46.14723-7.15145,88.4011,26.39243a434.76153,434.76153,0,0,1,5.858,46.20361c.42969,18.54452-4.41333,38.21685-12.49821,57.8951-20.02737-24.46212-71.57012-83.53748-88.69448-65.21894-19.75455,21.13917,51.53954,7.4505,78.68192,86.63518-10.52,20.184-23.72517,39.93943-37.44872,58.06618-14.24045-24.45988-43.74255-69.50779-62.09969-58.18266-7.38879,6.41214,6.73807,16.00694,21.44988,31.72606,9.35262,9.991,20.61527,29.86855,27.60293,43.05917a706.74282,706.74282,0,0,1-65.521,70.10539,830.30967,830.30967,0,0,1-92.11269-30.34855c-2.2509-17.39179-5.692-51.20936.5185-59.36548,8.45538-11.11592-3.59551-21.69768-18.15191-9.59652-11.22752,9.33271-13.75217,37.22288-10.45376,57.2353a538.61734,538.61734,0,0,1-61.745-31.87867c3.82278-25.4192,14.1023-82.21348,30.97373-92.76356,10.79708-9.42368,2.388-22.97745-23.27712-3.48325-19.606,14.87227-25.90479,61.73109-27.79684,83.06082C4400.28265,2611.62234,4373.05075,2581.54271,4368.11222,2546.77026Z"/><path class="cls-19" d="M4626.15342,2688.76335s-72.69249-223.11978-80.48733-324.32147"/><path class="cls-19" d="M4527.61871,2606.09917s15.75742-41.26,51.47314-77.24059"/><path class="cls-19" d="M4662.71858,2540.40244s-60.86344-47.84652-92.1715-44.6898"/><path class="cls-19" d="M4449.15663,2519.95s70.81369-58.366,110.16429-72.13435"/><path class="cls-19" d="M4644.84489,2398.17137s-54.06161-23.98676-95.9461-6.02484"/><circle class="cls-23" cx="4167.60094" cy="3137.53136" r="279.4285"/><circle class="cls-15" cx="4167.60094" cy="3137.53136" r="228.97808"/><path class="Graphic-Style-268" d="M4194.37671,3299.25788h-52.11195q-6.83338,0-9.88394-3.05576-3.05681-3.05679-3.05576-9.88394v-19.40644h-49.23484q-6.83338,0-9.88395-3.05575-3.05679-3.04745-3.05575-9.88187v-42.04935q0-6.824,3.05575-9.88395,3.04744-3.04745,9.88395-3.05367h96.67487q4.66776,0,7.00892-3.05576a11.76675,11.76675,0,0,0,2.33492-7.36622q0-6.10736-2.33492-8.98654-2.34324-2.86983-7.00892-3.2344l-53.90884-7.547q-25.15857-3.58651-40.43111-16.53141-15.28086-12.93762-15.27462-43.12748v-37.73474q0-28.03463,16.53348-44.027,16.52413-15.98506,45.64106-18.509v-20.12519q0-6.824,3.05576-9.88394,3.05055-3.04745,9.88394-3.05368h52.11195q6.82092,0,9.88187,3.05368,3.05057,3.05991,3.05575,9.88394v19.40644H4242.174q6.824,0,9.88394,3.05575,3.05057,3.05679,3.05576,9.88395v42.766q0,6.83339-3.05576,9.88394-3.05679,3.05681-9.88394,3.05576h-83.73725a8.78729,8.78729,0,0,0-7.18757,3.05368,11.75437,11.75437,0,0,0-2.51565,7.72767,12.477,12.477,0,0,0,2.51565,7.90633,9.54085,9.54085,0,0,0,7.18757,3.59378l53.54946,7.18757q25.15234,3.59586,40.61184,16.53141,15.446,12.94074,15.45327,43.12748v37.73682q0,27.31483-16.172,43.48686-16.17514,16.172-44.565,19.04706v20.12519q0,6.824-3.05575,9.88394Q4201.20179,3299.25269,4194.37671,3299.25788Z"/><circle class="cls-23" cx="1179.35844" cy="2615.58826" r="206.9627"/><circle class="cls-15" cx="1179.35844" cy="2615.58826" r="169.59588"/><path class="Graphic-Style-268" d="M1199.19029,2735.37331h-38.59746q-5.06124,0-7.32068-2.26328-2.26405-2.26407-2.26329-7.32069v-14.37365h-36.46649q-5.06124,0-7.32068-2.26329-2.26407-2.25714-2.26329-7.31915V2670.6888q0-5.05431,2.26329-7.32068,2.25712-2.25714,7.32068-2.26175H1186.146a6.12592,6.12592,0,0,0,5.19126-2.26329,8.71526,8.71526,0,0,0,1.72939-5.4559q0-4.52349-1.72939-6.656a7.06385,7.06385,0,0,0-5.19126-2.3956l-39.92835-5.58976q-18.63405-2.65639-29.94588-12.24422-11.318-9.58243-11.31336-31.943v-27.94877q0-20.76424,12.24576-32.6092,12.23883-11.83958,33.8047-13.709v-14.906q0-5.05431,2.26329-7.32068,2.25944-2.25714,7.32068-2.26175h38.59746q5.052,0,7.31915,2.26175,2.25944,2.26636,2.26329,7.32068v14.37366h25.81933q5.05433,0,7.32069,2.26328,2.25943,2.26407,2.26329,7.32069v31.67527q0,5.06124-2.26329,7.32068-2.26406,2.26407-7.32069,2.26329h-62.02118a6.50846,6.50846,0,0,0-5.32358,2.26175,8.70609,8.70609,0,0,0-1.86325,5.72362,9.24123,9.24123,0,0,0,1.86325,5.85593,7.06661,7.06661,0,0,0,5.32358,2.66179l39.66217,5.32357q18.62943,2.66333,30.07974,12.24422,11.44029,9.58475,11.44568,31.943v27.95031q0,20.23113-11.978,32.20917-11.98035,11.978-33.0077,14.10747v14.906q0,5.05433-2.26329,7.32069Q1204.24537,2735.36947,1199.19029,2735.37331Z"/><path class="Graphic-Style-269" d="M4644.98452,315.84067H3972.08613c-111.38234,0-201.67551,90.2935-201.67551,201.67534V680.18374c0,106.681,82.84728,193.957,187.70453,201.13982l-82.41926,180.53559,211.99616-180.00007h557.29247c111.38218,0,201.67535-90.29283,201.67535-201.67534V517.516C4846.65987,406.13417,4756.3667,315.84067,4644.98452,315.84067Z"/><rect class="Graphic-Style-268" x="3962.92725" y="708.89274" width="60.50873" height="101.41866"/><rect class="Graphic-Style-268" x="4129.61157" y="662.01355" width="60.50873" height="148.01722"/><rect class="Graphic-Style-268" x="4296.29588" y="611.66074" width="60.50873" height="198.16311"/><rect class="Graphic-Style-268" x="4462.98019" y="568.29519" width="60.50873" height="241.39541"/><rect class="Graphic-Style-268" x="4629.66451" y="526.42931" width="60.50873" height="283.26129"/><rect class="Graphic-Style-268" x="3962.92725" y="708.89274" width="60.50873" height="101.41866"/><rect class="Graphic-Style-268" x="4129.61157" y="662.01355" width="60.50873" height="148.01722"/><rect class="Graphic-Style-268" x="4296.29588" y="611.66074" width="60.50873" height="198.16311"/><rect class="Graphic-Style-268" x="4462.98019" y="568.29519" width="60.50873" height="241.39541"/><rect class="Graphic-Style-268" x="4629.66451" y="526.42931" width="60.50873" height="283.26129"/><path class="cls-15" d="M3967.75124,607.19235s465.98474-60.44153,710.67547-187.17378l-2.92459,46.79344,24.37159-19.49727,9.74863-66.29071-61.4164-13.64809-18.54143,8.77377,35.11411,22.42186s-338.22837,149.15411-697.02738,165.7297A257.93436,257.93436,0,0,0,3967.75124,607.19235Z"/><ellipse class="cls-24" cx="3208.66142" cy="3539.89098" rx="183.3273" ry="144.26835"/><ellipse class="Graphic-Style-266" cx="2029.69405" cy="3104.56301" rx="99.88198" ry="100.89362"/><ellipse class="Graphic-Style-265" cx="4905.80486" cy="2919.4433" rx="92.03411" ry="93.37508"/><ellipse class="cls-25" cx="5307.83888" cy="2627.79683" rx="209.24075" ry="192.76067"/><path class="cls-13" d="M1301.14763,2330.31769c-5.47007-21.88027-16.4102-41.0255-35.55544-43.76054-117.60644-16.4102-227.00779,41.02551-303.58873,125.81155-24.02436,27.4565-41.59157,58.14083-61.47783,87.32877l42.70569,40.705s298.71395-328.5606,310.52714-213.1283c8.78269,85.8197,22.28776,126.24023,81.51215,163.051a129.772,129.772,0,0,1-23.18285-45.13607C1298.4126,2406.89863,1306.6177,2368.60816,1301.14763,2330.31769Z"/><path class="cls-13" d="M2001.66362,2657.35119c15.59924,80.18135-5.08628,184.71359-5.08628,184.71359l31.00817-26.82349C2037.37331,2757.65534,2035.76006,2694.21538,2001.66362,2657.35119Z"/><path class="Graphic-Style-264" d="M2072.42711,2614.76119c-5.47007-21.88027-27.35034-35.55544-46.49557-46.49558-46.49557-21.88026-95.72618-27.35033-144.95678-41.0255-103.93128-30.08537-210.59759-8.2051-319.99894-32.8204-25.43578-5.87-52.26211-11.76813-77.49356-22.64416-283.10035-62.05642-62.034-180.12894-192.83957-249.65261-131.45239-69.86756-475.86313,195.84537-475.86313,195.84537l85.74607,81.72916c19.88626-29.18794,37.45347-59.87227,61.47783-87.32877,76.58094-84.786,185.98229-142.22175,303.58873-125.81155,19.14524,2.735,30.08537,21.88027,35.55544,43.76054,5.47007,38.29047-2.735,76.58094,10.94013,114.87141a129.772,129.772,0,0,0,23.18285,45.13607c20.43563,12.70161,46.30176,24.97454,79.31331,38.53352,128.682,52.85239,388.97039,26.111,511.43025,38.62034,45.1157,4.60869,66.55026,43.10081,75.64945,89.87216,34.09644,36.86419,35.70969,100.30415,25.92189,157.8901l34.74631-30.05733,32.80972,60.19411C2108.08805,2769.567,2098.11813,2687.88194,2072.42711,2614.76119Z"/><path class="cls-13" d="M2129.576,2908.55294s-1.392-23.10489-39.41176-241.97836-312.93115-132.07755-602.4656-193.88023c-1.42511-.30448-2.816-.61231-4.2164-.9188,25.23145,10.876,52.05778,16.77412,77.49356,22.64416,109.40135,24.6153,216.06766,2.735,319.99894,32.8204,49.2306,13.67517,98.46121,19.14524,144.95678,41.0255,19.14523,10.94014,41.0255,24.61531,46.49557,46.49558,25.691,73.12075,35.66094,154.80584,22.71443,230.61688Z"/><ellipse class="cls-17" cx="1591.52154" cy="1935.72999" rx="48.25574" ry="53.81876"/><ellipse class="cls-17" cx="1706.4939" cy="2027.08099" rx="19.92316" ry="23.88415"/><path class="cls-26" d="M2373.52453,2621.06725c78.046,12.44721,162.62457,3.15237,250.86484-18.32926l12.9982-57.2828-284.93018,37.78541Z"/></svg>