<?xml version="1.0" encoding="utf-8"?>
<!-- Generator: Adobe Illustrator 22.0.0, SVG Export Plug-In . SVG Version: 6.00 Build 0)  -->
<svg version="1.1" id="Layer_1" xmlns="http://www.w3.org/2000/svg" xmlns:xlink="http://www.w3.org/1999/xlink" x="0px" y="0px"
	 viewBox="0 0 4000 4000" style="enable-background:new 0 0 4000 4000;" xml:space="preserve">
<style type="text/css">
	
		.Graphic_x0020_Style_x0020_27{fill:#1A1A1A;stroke:#1A1A1A;stroke-width:2;stroke-linecap:round;stroke-linejoin:round;stroke-miterlimit:10;}
	
		.Graphic_x0020_Style_x0020_26{fill:#FFFFFF;stroke:#1A1A1A;stroke-width:2;stroke-linecap:round;stroke-linejoin:round;stroke-miterlimit:10;}
	
		.Graphic_x0020_Style_x0020_21{fill:#5067EF;stroke:#1A1A1A;stroke-width:2;stroke-linecap:round;stroke-linejoin:round;stroke-miterlimit:10;}
	.st0{fill:#FFFFFF;stroke:#1A1A1A;stroke-width:2;stroke-linecap:round;stroke-linejoin:round;stroke-miterlimit:10;}
	.st1{fill:#1A1A1A;stroke:#1A1A1A;stroke-width:2;stroke-linecap:round;stroke-linejoin:round;stroke-miterlimit:10;}
	.st2{fill:#5067EF;stroke:#1A1A1A;stroke-width:2;stroke-linecap:round;stroke-linejoin:round;stroke-miterlimit:10;}
	.st3{fill:none;stroke:#FFFFFF;stroke-width:3;stroke-linecap:round;stroke-linejoin:round;stroke-miterlimit:10;}
	.st4{fill:#8E9DF4;stroke:#1A1A1A;stroke-linecap:round;stroke-linejoin:round;stroke-miterlimit:10;}
	.st5{fill:none;stroke:#1A1A1A;stroke-width:2;stroke-linecap:round;stroke-linejoin:round;stroke-miterlimit:10;}
</style>
<g>
	<path class="st0" d="M530,2722.1c51.6-46.7,162.5-134.2,329.1-172.5c222-51.1,401.5,17.7,463.3,44.7
		c55.6-49.2,285.5-241.3,635.9-242.8c343.4-1.5,571.8,181.1,629.5,230.1c188.7-28.3,436-43.1,718.9,0
		c120.3,18.3,276.9,118.2,252.4,140.6C2549.4,2722.1,1539.7,2722.1,530,2722.1z"/>
	<path class="Graphic_x0020_Style_x0020_26" d="M3729.2,2690.1c-50.3,67.4-108.5,125.6-170.9,175.8
		c-68.1,54.9-141.2,100.3-214.3,137.8c-238.5,122.4-477.1,161-544.4,171.8c-369.7,59.7-390.9-68.4-935.5-76
		c-745.1-10.4-985.4,225.6-1239.5,46.8c-142.1-100-211.7-275.6-238.8-456.2H3729.2z"/>
	<polygon class="Graphic_x0020_Style_x0020_26" points="2911.8,1093.5 2926.8,1151 3053.3,1151 3071.9,1093.5 	"/>
	<polygon class="Graphic_x0020_Style_x0020_27" points="2986.4,752.4 2986.4,1005.2 2891.3,1099.5 3089,1099.5 2997.2,1005.1 
		2997.2,752.4 	"/>
	<polygon class="Graphic_x0020_Style_x0020_26" points="3249.9,1093.5 3264.9,1151 3391.5,1151 3410,1093.5 	"/>
	<polygon class="Graphic_x0020_Style_x0020_27" points="3324.6,752.4 3324.6,1005.2 3229.4,1099.5 3427.2,1099.5 3335.4,1005.1 
		3335.4,752.4 	"/>
	<ellipse class="st0" cx="878.6" cy="2877.7" rx="708.1" ry="66.5"/>
	<ellipse class="st0" cx="2724.4" cy="2906.4" rx="708.1" ry="95.2"/>
	<g>
		<path class="st0" d="M3401.8,2502.7c-26,56.1-57.1,107.4-92.1,154.3c-42.4,56.9-90.5,107.2-142,151.7
			c-61.7-102.9-83.7-204.9-52.3-303.3L3401.8,2502.7z"/>
	</g>
	<g>
		<polygon class="st1" points="1158.9,2169.7 1003.9,2834.3 1021.5,2834.3 1210,2169.7 		"/>
		<polygon class="st1" points="2310.8,2169.7 2465.8,2834.3 2448.2,2834.3 2259.7,2169.7 		"/>
	</g>
	<rect x="912.9" y="2129.9" class="Graphic_x0020_Style_x0020_27" width="1610.3" height="56.9"/>
	<path class="Graphic_x0020_Style_x0020_26" d="M264.8,1266.1h222.3c23.5,0,42.5,19,42.5,42.5v112.2c0,23.5-19,42.5-42.5,42.5h-17.9
		l14.6,28c5.6,10.7-7.9,21.1-16.9,13c-15.4-13.9-31.9-29-44.7-41H264.8c-23.5,0-42.5-19-42.5-42.5v-112.2
		C222.3,1285.1,241.4,1266.1,264.8,1266.1z"/>
	<g>
		<path class="Graphic_x0020_Style_x0020_27" d="M746,2728.6c0,0-20.9,52.3-8.1,103.6c16.3,4.9,42.4,8.4,42.4,8.4l15-10.9
			c0,0,8.6,19.5,33.2,26.5c24.6,7,116.1,23.4,131.4,7.1c4-11.1-11.8-15.8-61.6-42.1c-49.8-26.4-82.6-89.5-82.6-89.5L746,2728.6z"/>
		<path class="Graphic_x0020_Style_x0020_26" d="M778.2,2272.8c0,0,54.5,369.6,47.1,460.2c-54.2,23.7-86.1,7-86.1,7l-74-334.3
			l-77.5-143.5L778.2,2272.8z"/>
		<path class="Graphic_x0020_Style_x0020_27" d="M1081.6,2758.4c0,0-27.7,63.4,8.5,111.8c17,0.5,43.1-2.7,43.1-2.7l11.7-14.4
			c0,0,13.3,16.6,38.9,17.1s118.2-7,128.9-26.7c1.1-11.7-15.4-12.2-70.3-25c-54.9-12.8-91.1-66.6-91.1-66.6L1081.6,2758.4z"/>
		<path class="Graphic_x0020_Style_x0020_26" d="M467.1,2260.6c0,0-41.5,119.7,118.2,136.2c319.5,24.5,319.5,24.5,319.5,24.5
			s139,322.7,174.1,348.3c91.4,2.8,87.8-8.1,86.3-12.8c0,0-78.3-377-177.3-444.1c-99.1-67.1-287.6-110.2-287.6-110.2L467.1,2260.6z"
			/>
		<path class="Graphic_x0020_Style_x0020_26" d="M929.9,2401.6H418.6c-9.4,0-17.5,5.6-21.2,13.6h553.7
			C947.4,2407.2,939.3,2401.6,929.9,2401.6z"/>
		<path class="Graphic_x0020_Style_x0020_27" d="M685.8,2789c-55.1,65.3-147.3,65.6-219.2,105.7c84.1-4.3,220.7-73.5,220.7-73.5
			s140.7,76.1,217.7,73.1c-3.4-2-7-3.5-10.8-4.5C820.3,2862.9,735.1,2856.2,685.8,2789z"/>
		<path class="Graphic_x0020_Style_x0020_26" d="M700.3,2770.2v-334.5h-26.1v333.9l-233,124.1c7.7,1.2,16.2,1.5,25.3,1
			c71.9-40.1,164.1-40.4,219.2-105.7c49.3,67.2,134.5,74,208.4,100.8c3.7,0.9,7.3,2.5,10.8,4.5c2.8-0.1,5.5-0.3,8.1-0.6
			L700.3,2770.2z"/>
		<path class="Graphic_x0020_Style_x0020_27" d="M397.4,2415.2c-1.4,3-2.2,6.3-2.2,9.8c0,12.9,10.5,23.4,23.4,23.4h511.2
			c12.9,0,23.4-10.5,23.4-23.4c0-3.5-0.8-6.8-2.2-9.8H397.4z"/>
		<path class="Graphic_x0020_Style_x0020_26" d="M552.8,1593.2c0,0,8,122.4-35.1,144c55.9,13.6,144.9-5,144.9-5s-20.2-34.6-17-51.7
			c25.6,8.5,61.5-43.1,48.9-119.3c-12.6-76.2-69.3-83.1-126.3-62.8C511.1,1518.7,552.8,1593.2,552.8,1593.2z"/>
		<path class="Graphic_x0020_Style_x0020_27" d="M622.2,1667.7c0.7,0.7,23.3,12.9,23.3,12.9v15.3L622.2,1667.7z"/>
		<path class="Graphic_x0020_Style_x0020_21" d="M535.8,1723.9c0,0-149.4,3.2-120.6,236.4c28.8,233.2,58.5,323.5,58.5,323.5
			s190.8-16,261.9-83.9c-36.7-78.3,27.7-373-5.3-438.5C697.1,1696,535.8,1723.9,535.8,1723.9z"/>
		<path class="Graphic_x0020_Style_x0020_26" d="M1107.8,2077.6c0,0,82-6.4,105.4,6.9s29.8,42.7,29.8,42.7h-90
			c0,0-28.2-12.4-39.9-12.4S1107.8,2077.6,1107.8,2077.6z"/>
		<path class="Graphic_x0020_Style_x0020_21" d="M674.2,1860.5c0,0,92.4,270.5,200.7,269.3c73.3-0.8,258.5-2.7,258.5-2.7
			c19.3-10.2,4.5-29.9-6.9-53c0,0-196.4-37.7-240.3-48.3c-53.3-19.2-108.9-268.3-190.4-294"/>
		<path class="Graphic_x0020_Style_x0020_26" d="M192.3,1901.7H507c0,0,19.2,139.4,46.3,268.8c27.2,129.4,120.9,218.9,120.9,218.9
			h-327C347.3,2389.3,235.4,2387,192.3,1901.7z"/>
		<path class="Graphic_x0020_Style_x0020_27" d="M170.5,1901.7h314.7c0,0,19.2,139.4,46.3,268.8c27.2,129.4,120.9,218.9,120.9,218.9
			h-327C325.5,2389.3,213.6,2387,170.5,1901.7z"/>
		<path class="Graphic_x0020_Style_x0020_27" d="M540.4,1646.1c0,0,30.8,0,41.2-14.9s9.4-45.8,9.4-45.8s-26.6-13.3-17-34.6
			c9.6-21.3,36.7,10.1,36.7,10.1l12.5,14.5l18.1-13.8c0,0,37.3-21.3,65.5-25.6c-17.6-91.6-93.5-92.7-145.6-65.6
			C520.2,1491.7,483.4,1535.4,540.4,1646.1z"/>
		
			<ellipse transform="matrix(0.9997 -2.377611e-02 2.377611e-02 0.9997 -68.7027 13.3747)" class="Graphic_x0020_Style_x0020_27" cx="528.1" cy="2895.8" rx="25.6" ry="25.6"/>
		
			<ellipse transform="matrix(0.9997 -2.377611e-02 2.377611e-02 0.9997 -68.6167 20.6056)" class="Graphic_x0020_Style_x0020_27" cx="832.2" cy="2895.8" rx="25.6" ry="25.6"/>
	</g>
	<g>
		<path class="st0" d="M2791.5,2761.7l-18.4-71.3l-0.4,0.1c-37.7-280.2-59.7-320.9-87-353.1c-33.3,7.2-52.6,3.2-82.8-15.3
			c6.8,107,108.7,345.3,125.1,383.1l0,0c0,0,11.3,55.3-1.4,93.8c-3.5,10.6-30.4,57.2-24.3,54.9c6.3-2.3,22.8,28.6,37.8,12.5
			c14.6-15.7,13.5-49.4,22.2-73.6C2767.5,2778.6,2794.7,2776.6,2791.5,2761.7z"/>
		<path class="st1" d="M2781,2743.5c-11.1,5.5-34.9,59.7-37,94.1c-2.1,34.4-44.4,13-44.4,13s-41.3,50.9-23.9,57.4
			c17.4,6.6,87.9-24.4,91.3-59.4c3.4-35.1-5.4-42,6.6-49.7c1-0.6,2-1.3,3.1-1.9l30.5,43.6l19.6-10.7l-21.9-48
			C2804.8,2782,2792.1,2738,2781,2743.5z"/>
		<path class="Graphic_x0020_Style_x0020_27" d="M3052.1,2260.6l-233.3-58.2c0,0-188.5,43.1-287.6,110.2
			c-8.6,5.9-17.1,14.1-25.4,24.2c13.7,35.7,46,64,83.4,79.4c5.5-12.1,8.6-19.1,8.6-19.1s44.7,4.5,360.9-16.3
			C3118.5,2364.3,3052.1,2260.6,3052.1,2260.6z"/>
		<path class="Graphic_x0020_Style_x0020_26" d="M2589.3,2401.6h511.2c9.4,0,17.5,5.6,21.2,13.6h-553.7
			C2571.8,2407.2,2579.9,2401.6,2589.3,2401.6z"/>
		<path class="Graphic_x0020_Style_x0020_27" d="M2833.4,2789c55.1,65.3,147.3,65.6,219.2,105.7c-84.1-4.3-220.7-73.5-220.7-73.5
			s-140.7,76.1-217.7,73.1c3.4-2,7-3.5,10.8-4.5C2698.9,2862.9,2784.1,2856.2,2833.4,2789z"/>
		<path class="Graphic_x0020_Style_x0020_26" d="M3065.5,2887.1c9.1,9.4,9,13.9-11.4,7.7c-0.5,0-1.1,0-1.6-0.1
			c-61-34.1-136.8-39.4-191.9-80.2c-9.8-7.2-19-15.6-27.3-25.5c-6.6,9.1-13.9,17-21.7,24c-50.3,45.4-122.7,53.5-186.7,76.8
			c-3.7,0.9-7.4,2.5-10.8,4.5c-2.8-0.1-5.5-0.3-8.1-0.6l141.2-81.9l71.6-41.5v-334.5h26.1v333.9l90,48L3065.5,2887.1z"/>
		<path class="Graphic_x0020_Style_x0020_27" d="M3121.8,2415.2c1.4,3,2.2,6.3,2.2,9.8c0,12.9-10.5,23.4-23.4,23.4h-511.2
			c-12.9,0-23.4-10.5-23.4-23.4c0-3.5,0.8-6.8,2.2-9.8H3121.8z"/>
		<path class="Graphic_x0020_Style_x0020_26" d="M2904.4,1611.3c0,0,40.8,102.4,68.1,140.3c-55.9,13.6-105.6,17-105.6,17
			s-18.8-59.6-22-76.7c-25.6,8.5-52.2-13.8-72.1-103.1c-17.1-76.4,31.1-110,88.1-89.7C2917.9,1519.5,2904.4,1611.3,2904.4,1611.3z"
			/>
		<polygon class="Graphic_x0020_Style_x0020_27" points="2862.2,1683 2844.9,1692 2847.4,1702.3 		"/>
		<path class="Graphic_x0020_Style_x0020_21" d="M2983.4,1723.9c0,0,51.2,36.8,82.4,245.2c34.7,232.4-20.2,314.7-20.2,314.7
			s-190.8-16-261.9-83.9c11.2-23.8,46.2-94.5,44.2-145.9c-1-25.8-39.6-27.2-44.3-53.2c-16.6-92.2-12.5-203.9,5.4-239.5
			C2822,1696,2983.4,1723.9,2983.4,1723.9z"/>
		<path class="st2" d="M2838.3,1727.3c-1.5-12.7,6.7-15.6,6.7-15.6s92.4-34.6,102.5-29.8c14.4,44.7,10.8,46.7,10.8,46.7
			S2838.4,1729.1,2838.3,1727.3z"/>
		<path class="Graphic_x0020_Style_x0020_26" d="M2411.4,2077.6c0,0-82-6.4-105.4,6.9s-29.8,42.7-29.8,42.7h90
			c0,0,28.2-12.4,39.9-12.4S2411.4,2077.6,2411.4,2077.6z"/>
		<path class="Graphic_x0020_Style_x0020_21" d="M2844.9,1860.5c0,0-92.4,270.5-200.7,269.3c-73.3-0.8-258.5-2.7-258.5-2.7
			c-19.3-10.2-4.5-29.9,6.9-53c0,0,196.4-37.7,240.3-48.3c53.3-19.2,108.9-268.3,190.4-294"/>
		<path class="st1" d="M3348.7,1901.7c-43.1,485.3-155,487.6-155,487.6h-327c0,0,93.7-89.5,120.9-218.9
			c27.1-129.4,46.3-268.7,46.3-268.7H3348.7z"/>
		<path class="st0" d="M3034,1901.7c0,0-19.2,139.3-46.3,268.7c-27.2,129.4-120.9,218.9-120.9,218.9H2845c0,0,93.7-89.5,120.9-218.9
			c27.2-129.4,46.3-268.7,46.3-268.7H3034z"/>
		
			<ellipse transform="matrix(2.377611e-02 -0.9997 0.9997 2.377611e-02 24.9462 5817.2417)" class="Graphic_x0020_Style_x0020_27" cx="2991.1" cy="2895.8" rx="25.6" ry="25.6"/>
		
			<ellipse transform="matrix(2.377611e-02 -0.9997 0.9997 2.377611e-02 -271.9483 5513.2026)" class="Graphic_x0020_Style_x0020_27" cx="2687" cy="2895.8" rx="25.6" ry="25.6"/>
		<path class="st2" d="M2395.7,2064l50.6-7.5c0,0-27.2,50.1-16.5,66c-58.3,0-58.3,0-58.3,0S2359.8,2097.3,2395.7,2064z"/>
	</g>
	<g>
		<path class="Graphic_x0020_Style_x0020_27" d="M987.5,1770.4V781c0-20.5,16.6-37.1,37.1-37.1h1506.2c20.5,0,37.1,16.6,37.1,37.1
			v989.4c0,20.5-16.6,37.1-37.1,37.1H1024.6C1004.1,1807.5,987.5,1790.9,987.5,1770.4z"/>
		<path class="Graphic_x0020_Style_x0020_26" d="M956.7,1770.4V781c0-20.5,16.6-37.1,37.1-37.1H2500c20.5,0,37.1,16.6,37.1,37.1
			v989.4c0,20.5-16.6,37.1-37.1,37.1H993.8C973.3,1807.5,956.7,1790.9,956.7,1770.4z"/>
		<path class="Graphic_x0020_Style_x0020_26" d="M2479.6,1775.1H1014.2c-13.9,0-25.1-11.3-25.1-25.1V801.4
			c0-13.9,11.3-25.1,25.1-25.1h1465.4c13.9,0,25.1,11.3,25.1,25.1V1750C2504.7,1763.9,2493.5,1775.1,2479.6,1775.1z"/>
		<path class="Graphic_x0020_Style_x0020_27" d="M1523.8,1760.4c0,0-57.7-496.5-23.1-523.5s472.2-35.9,600.5-5.1
			c71.9,14.1,18,124.5,11.5,215.5c-6.4,91.1-12.8,327.8-12.8,327.8L1523.8,1760.4z"/>
		<polygon class="st0" points="1706.4,1230 1746.9,1220.2 1846.4,1218 1889.7,1224 1921,1237.7 1851.2,1775.1 1623.1,1775.1 
			1673.9,1290.2 		"/>
		<path class="Graphic_x0020_Style_x0020_27" d="M1876.3,1187.7v-82.3l-99.1,18.3c-0.3,1.7-3.3,19-6.9,40.6
			C1799.9,1190.3,1838.6,1194.9,1876.3,1187.7z"/>
		<path class="Graphic_x0020_Style_x0020_26" d="M1770.3,1164.2c-6.5,38.8-15.3,91.3-15.3,91.3s21.2,36.6,55.8,34.6
			c34.6-1.9,65.4-31.8,65.4-31.8v-70.7C1838.6,1194.9,1799.9,1190.3,1770.3,1164.2z"/>
		<path class="Graphic_x0020_Style_x0020_26" d="M1736.5,972.6c0,0-34.4,207.9,61.9,214.6c96.2,6.7,121.3-117.4,126.1-179.9
			C1929.3,944.7,1736.5,972.6,1736.5,972.6z"/>
		<path class="Graphic_x0020_Style_x0020_21" d="M1548.6,1641.4l-8.7-9.3c0,0,46.8-73.1,57.1-89.8c10.3-16.7,47-296.4,47-296.4
			s-79.1,7.8-103.4,52.1c-24.4,44.3-125.7,353.4-125.7,353.4s-21.2,52.6,1.9,82.4C1463.7,1705.7,1511.5,1680.9,1548.6,1641.4z"/>
		<path class="Graphic_x0020_Style_x0020_21" d="M1581.6,1454.3c-2.7,74.1-6.5,147-11.6,171.3c-11.5,55.2-33.4,149.5-33.4,149.5
			h115.5c0,0,21.8-417.6,42.3-468.9s30.8-86,30.8-86l-129.7,37"/>
		<path class="Graphic_x0020_Style_x0020_21" d="M1904.9,1225.3c0,0-11.5,215.5-60.3,295.1c-48.8,79.5-41.1,254.7-41.1,254.7H1996
			c0,0-6.4-189.2,24.4-263.7c30.8-74.4,14.1-235.8,14.1-235.8L1904.9,1225.3z"/>
		<path class="st2" d="M1973.7,1252.1l-44.5,75.1l18.8,37.5c0,0-67,149.6-120.4,185.2c26.1-65.4,58.5-194.9,73.1-326.7
			C1914.3,1229,1973.7,1252.1,1973.7,1252.1z"/>
		<path class="Graphic_x0020_Style_x0020_21" d="M2010.8,1266.5c0,0,92.9,11.4,113.5,157.7c13.4,95.7,65.5,207.4,70.9,279.4
			c2.9,38-37.6,71.5-37.6,71.5H2039h-71.2l101.4-98.2c0,0-51.3-168.1-62.9-222c-11.5-53.9-11.5-53.9-11.5-53.9"/>
		<path class="Graphic_x0020_Style_x0020_21" d="M1539.9,1632.1l134.1,143.1h-163c0,0-43.6-5.8-83.4-31.4c-4.4-2.9-8-6.3-10.9-10
			l-7.7-14.9"/>
		<path class="Graphic_x0020_Style_x0020_26" d="M1812.5,1290c0,0,55.8,8.5,55.8,41.8c31.9-48.8,30.2-111.6,30.2-111.6l-19.5-5.7
			C1878.9,1214.5,1852.3,1286.2,1812.5,1290z"/>
		<path class="Graphic_x0020_Style_x0020_26" d="M1759.6,1214.5l-24.7,3.8c0,0-41.7,74.1,20.2,102.6c4.8-24.4,32.6-34.5,38.8-33
			C1764.7,1263.8,1756.4,1234.8,1759.6,1214.5z"/>
		<path class="Graphic_x0020_Style_x0020_27" d="M1691.9,944.4c0,0,22.2,55.8,111.2,55.8c89,0,89,0,89,0v43.6c0,0,21.2,4.5,16.7,25
			c-4.5,20.5-16,60.2-16,60.2s5.7,1.4,16.7-6.3c10.9-7.7,63.5-154,22.5-179c-41.1-25-77.6-57.7-159.1-34.6
			C1694.5,936.7,1691.9,944.4,1691.9,944.4z"/>
		<path class="Graphic_x0020_Style_x0020_26" d="M2330.8,724.6h-267.8c-28.3,0-51.2,22.9-51.2,51.2V911c0,28.3,22.9,51.2,51.2,51.2
			h21.6l-17.6,33.8c-6.7,12.9,9.5,25.5,20.3,15.7c18.5-16.7,38.4-34.9,53.9-49.5h189.7c28.3,0,51.2-22.9,51.2-51.2V775.8
			C2382,747.5,2359,724.6,2330.8,724.6z"/>
		<path class="st0" d="M2342.5,771.2h-277.1c-6.2,0-11.2,5-11.2,11.2s5,11.2,11.2,11.2h277.1c6.2,0,11.2-5,11.2-11.2
			S2348.7,771.2,2342.5,771.2z"/>
		<path class="st0" d="M2342.5,831.5h-277.1c-6.2,0-11.2,5-11.2,11.2c0,6.2,5,11.2,11.2,11.2h277.1c6.2,0,11.2-5,11.2-11.2
			C2353.7,836.5,2348.7,831.5,2342.5,831.5z"/>
		<path class="st0" d="M2342.5,891.8h-277.1c-6.2,0-11.2,5-11.2,11.2s5,11.2,11.2,11.2h277.1c6.2,0,11.2-5,11.2-11.2
			S2348.7,891.8,2342.5,891.8z"/>
		<path class="st2" d="M1741,1221.6l-67.9,13.5l0.8,57l-33.7,28.9c0,0-5,183.8,26.4,223.2C1679.9,1435.4,1741,1221.6,1741,1221.6z"
			/>
	</g>
	<path class="Graphic_x0020_Style_x0020_27" d="M2816.4,1515.5c-2.5,4.6-24.1,45.1-7.2,65.8c3.8,4.6,8.1,8.3,18.4,10.9
		c47.9,12,62.3,12,62.3,12l0,0c5.2,70.9,18.4,84.7,18.4,84.7c9.8,10.2,15.1,7.4,20.8,16.8c12.9,21.3-10.3,42.5-5.6,65.5
		c8.1,39.5,97.3,77.6,154.2,43.1c6.4-3.9,33.9-20.6,35.9-46.3c3.3-42.2-62.8-93.5-109.4-111c-5.8-2.2-14.8-5.2-23.2-13.6
		c-19.4-19.6-12-45.5-16.8-72.7c-9.2-52.2-61.2-97.8-106.2-100.6c-21.7-1.4-51.4,6.6-54.3,21.6
		C2801.9,1500.5,2810.1,1509.8,2816.4,1515.5z"/>
	<path class="Graphic_x0020_Style_x0020_27" d="M2752.3,1550.6c6.3,7.2,34.9-7.5,51.1-20c3.2-2.4,29.5-22.6,24.8-33.5
		c-3-6.8-17-7.9-26.4-6.4C2768.3,1496,2744.5,1541.7,2752.3,1550.6z"/>
	<path class="st0" d="M2568.1,2401.6c0,44.3-9.9,92.5-169.4,353.8c0,0-9.8,44.4-14,69.2c-0.6-0.3-1.3-0.5-2.2-0.6
		c-14.3-0.5-70.7,40.5-93.7,73.5c-23,33-51.5-6.4-51.5-6.4s-4.6,1.5-11.4,4.1l-0.5-0.4c0,0,75.1-75.5,99.1-112.8
		c12-18.6,20.3-32.1,25.5-40.8c5.3-8.8,7.6-12.9,7.6-12.9c18.2-61.1,92.4-302.6,155.2-391.6
		C2524.3,2371.3,2537,2386.7,2568.1,2401.6z"/>
	<path class="st1" d="M2382.6,2824.1c-14.2-0.5-70.7,40.5-93.7,73.5c-23,33-51.6-11.1-51.6-11.1s-71.6,28.2-58.5,44.1
		c13.1,16,101.3,23.4,126-9.6c24.6-33,20.3-44.7,36.7-45.8c1.4-0.1,2.8-0.2,4.2-0.2l3.4,59.9h25.7l7.7-59.6
		C2382.6,2875.2,2396.8,2824.6,2382.6,2824.1z"/>
	<g>
		<path class="st0" d="M316.6,1365.3c0-5.7-4.6-10.4-10.4-10.4c-5.7,0-10.4,4.6-10.4,10.4c0,5.7,4.6,10.4,10.4,10.4
			C312,1375.7,316.6,1371,316.6,1365.3z"/>
		<path class="st0" d="M386.4,1365.3c0-5.7-4.6-10.4-10.4-10.4c-5.7,0-10.4,4.6-10.4,10.4c0,5.7,4.6,10.4,10.4,10.4
			C381.7,1375.7,386.4,1371,386.4,1365.3z"/>
		<path class="st0" d="M456.2,1365.3c0-5.7-4.6-10.4-10.4-10.4c-5.7,0-10.4,4.6-10.4,10.4c0,5.7,4.6,10.4,10.4,10.4
			C451.5,1375.7,456.2,1371,456.2,1365.3z"/>
	</g>
	<path class="st2" d="M526.2,1696.8c0,0-8.3,26-2.2,28.6c140.2-12.6,145.9-1.8,145.9-1.8s-19.6-16.2-35.6-18.3
		C618.3,1703.2,526.2,1696.8,526.2,1696.8z"/>
	<path class="st2" d="M1073.1,2055.5c0,0,9.1,55.7,15.7,63.9c45.3-2.1,56.7,0,56.7,0s-8-48.2-22.9-52.7
		C1109.9,2062.6,1073.1,2055.5,1073.1,2055.5z"/>
	<g>
		<path class="Graphic_x0020_Style_x0020_27" d="M3297.4,2349.3c-7.8-62.1-14.4-114.6,14.5-137.7c1.7-1.4,19.5-15.1,40.8-10
			c21.4,5.2,31.1,25.7,32.6,29c-10.6-65.3,2.6-115.3,28.1-124.1c11.1-3.8,28.3-1.2,40.8,9.1c18.2,14.9,17.4,38.7,17.2,41.7
			c2.7-17.7,15-85.4,63.4-108.7c9.6-4.6,28-13.5,42.6-4.5c16.7,10.2,15.5,36,15.4,38c24-43.5,60.4-64.6,85.2-56.2
			c11.2,3.8,21.1,14.1,24.5,26.3c5.9,21.6-9.2,49.3-39.9,64.3c17.9-1,34.1,6.1,41.7,19c12.3,20.9-4.6,45.9-7.2,49.8
			c-17,25.1-53.6,35.3-93.3,28.1c32.5,25.9,47.7,57.4,39,78.8c-5.7,13.9-20.1,20.3-36.2,27.2c-16.4,7-49.6,17.9-96.9,10.9
			c29,15.4,48.6,37,46.2,56.2c-3.2,25.7-44.6,36.8-76.1,45.3c-23,6.2-126.7,34.2-166.7-17.2
			C3304.3,2403.6,3302,2385.5,3297.4,2349.3z"/>
		<path class="st3" d="M3218.5,2439.3c22.5,12.9,51.1,8.5,74.8-1.9c44.5-19.6,78-57.7,105.9-97.5c27.9-39.8,51.8-82.7,84.7-118.5
			c31.1-33.9,69.3-60.3,103.2-91.5c25.5-23.5,48.6-49.6,68.7-77.9"/>
		<path class="st3" d="M3344.7,2267.1c26.3,41.2,34.7,88.1,7.9,129"/>
		<path class="st3" d="M3377.2,2369.7c34-17.3,101.7,12.2,136.7,7.1"/>
		<path class="st3" d="M3430,2293.7c14.6-43,4.4-83.1,7.4-119.8"/>
		<path class="st3" d="M3546.3,2090.8c-3,33.1-11.6,65.7-25.3,95.9"/>
		<path class="st3" d="M3560.1,2153.6c31.3-11.6,66.5-12.3,98.2-2.1"/>
		<path class="st3" d="M3455.5,2256.4c35-17.5,76.1-19.5,112.6-5.4"/>
	</g>
	<g>
		<path class="st4" d="M3411.1,2523.6c68.7,55.6,79.1,88.7,110.1,89.3c19.3,0.4,42.1-12,47.9-31.5c7.1-24.2-15.4-46.8-16.5-47.9
			c67.1,47.8,130.2,57.7,151.9,34.2c10.3-11.2,17-35.9,8.7-58.3c-6.4-17.4-19.5-27.1-25.3-30.8c75.9,14.3,134.1,6.5,143.8-18.7
			c3.8-9.9,2.9-29.5-8.9-43.7c-9.6-11.6-22.5-15.2-27.9-16.3c48.6-3.5,79-34.2,77.3-59.8c-1-16-14.5-30.8-29.7-37.2
			c-21.3-8.9-47.6-1.9-64.2,18.3c1-2.1,15.1-34.7,0.2-52.4c-16.2-19.2-56.3-8.2-78.4,9.1c-22,17.2-28.1,41.9-29.8,50.7
			c0.9-3.7,8.8-38.8-10.4-56.2c-26.4-23.8-78.3,9.2-81.6,11.3c-47,30.6-53.1,89.6-54,101.5c-10.1-35.9-35.2-60.2-60.1-60.5
			c-31.1-0.4-50.5,36.9-61,57.2c-25.6,49.5-18.4,100.4-12.6,125.9C3395.2,2511.1,3402.4,2516.6,3411.1,2523.6z"/>
		<path class="st5" d="M3825.4,2342.4c-45.1,13.1-88.4,31.9-128.8,55.8c-58.1,34.4-111.6,80.1-177.1,96.6c-20,5-40.5,7.2-61,9.3
			c-23.4,2.4-47.2,4.9-70.2,0.2c-21.4-4.4-41.2-14.8-58.2-28.4"/>
		<path class="st5" d="M3444,2506.3c2.9-1.6,5-4.3,6.8-7c10.6-16.4,11.8-37,11.4-56.5s-2.2-39.5,3.6-58.1"/>
		<path class="st5" d="M3608.9,2454.8c15.5-17.1,18.1-42.1,18.7-65.2c0.6-23.1,0.5-47.6,12.4-67.4"/>
		<path class="st5" d="M3677.9,2410.4c9.8-7.9,24.4-6.5,35.8-1.2s20.9,14,31.8,20.3c10.9,6.3,24.4,10.3,36,5.4"/>
		<path class="st5" d="M3724.2,2383.3c3.5-1.7,7-3.4,9.7-6.1c4.1-4,6.1-9.7,7.5-15.3c2.9-11.5,3.8-23.4,6.4-35
			c2.5-11.6,6.9-23.2,15.4-31.5"/>
		<path class="st5" d="M3545.4,2487.3c9.2-1.6,18.6-3.2,28-2.4c17.9,1.5,33.9,11.3,49.5,20.3s32.7,17.5,50.6,15.9"/>
		<path class="st5" d="M3523,2553.9c-1.2-12.8-6.8-25.2-15.7-34.6c-8.9-9.3-21-15.6-33.7-17.4"/>
	</g>
	<g>
		<path class="Graphic_x0020_Style_x0020_26" d="M3348.4,2420c-7-91.5,10.5-123-11.2-146.8c-13.5-14.8-39.1-23.2-57.9-13.6
			c-23.3,11.8-24.3,45-24.4,46.7c-11.8-84.7-49.3-139.4-82.6-139c-15.8,0.2-39.2,12.9-50.2,35c-8.6,17.3-6.5,34-5.2,41
			c-43.3-67.5-90.7-105.8-116.7-95.1c-10.2,4.2-24.3,18.9-26.7,37.9c-1.9,15.5,4.6,27.8,7.6,32.7c-37.3-34.2-82.1-35.2-100.3-15.6
			c-11.3,12.1-12.9,32.9-6.9,49c8.5,22.4,32.5,37.2,59.6,35.4c-2.3,0.8-37,13.4-39.6,37.2c-2.9,26,34,48.3,62.8,52.6
			c28.7,4.4,51.6-8.7,59.5-13.7c-3.4,1.9-35.6,21-35,47.9c0.9,36.9,62.8,52.5,66.8,53.5c56.6,13.6,105.5-23.9,115.2-31.7
			c-19.9,33.3-20.3,69.5-2.8,88.5c21.9,23.8,63.9,11.7,86.7,5.2c55.6-16,88.9-57.8,104-80.3C3350.3,2441,3349.3,2431.6,3348.4,2420z
			"/>
		<path class="st5" d="M2916.1,2236.8c42,24.6,87.2,44,134,57.4c67.5,19.3,140.1,27.1,199.3,64.7c18,11.5,34.3,25.4,50.5,39.3
			c18.5,15.9,37.3,32.1,50.2,52.8c11.9,19.2,18.2,41.6,20.1,64.2"/>
		<path class="st5" d="M3312.4,2409c-3.3-1.1-59.7,1.7-90.3,74.3"/>
		<path class="st5" d="M3155.3,2319.9c-24,0.5-44.7,16.4-62.6,32.5c-17.9,16-36.3,33.6-59.7,38.7"/>
		<path class="st5" d="M3072.6,2299.5c-13-1.8-22.3-13.8-26.4-26.2s-4.4-25.7-7.4-38.5c-3-12.7-9.6-25.8-21.6-31"/>
		<path class="st5" d="M3019.2,2283.9c-3.7-1.4-7.5-2.8-11.5-3c-6-0.3-11.7,2.3-16.9,5.3c-10.7,6-20.4,13.8-30.9,20.1
			c-10.5,6.3-22.4,11.3-34.7,10.9"/>
		<path class="st5" d="M3225.2,2344.6c-7.8-5.8-15.7-11.8-21.8-19.4c-11.7-14.6-15.6-33.6-20-51.8s-10.2-37.2-24.2-49.5"/>
		<path class="st5" d="M3291.4,2314c-8.8,10-14.2,23.1-14.9,36.5s4.9,27.6,12.7,38.6"/>
	</g>
	<path class="st1" d="M3401.8,2502.7l-151.1,1.4l-151.1-1.4c3.4,7.3,6.9,14.5,10.4,21.7c-23.1,92.5,0,188,57.7,284.3
		c0,0-44,75.6,83,75.6s83-75.6,83-75.6c57.7-96.3,80.7-191.8,57.7-284.3C3395,2517.2,3398.4,2510,3401.8,2502.7z"/>
	
		<ellipse transform="matrix(1 -5.316042e-03 5.316042e-03 1 -16.7269 7.436)" class="Graphic_x0020_Style_x0020_26" cx="1390.4" cy="3150.2" rx="112" ry="112"/>
	
		<ellipse transform="matrix(1.165017e-03 -1 1 1.165017e-03 -1337.0635 5088.376)" class="st1" cx="1878.6" cy="3213.5" rx="61.9" ry="61.9"/>
	
		<ellipse transform="matrix(1.067818e-02 -0.9999 0.9999 1.067818e-02 -2549.7883 2903.1926)" class="Graphic_x0020_Style_x0020_27" cx="192.3" cy="2740.2" rx="64.6" ry="64.6"/>
	
		<ellipse transform="matrix(7.687486e-03 -1 1 7.687486e-03 877.0523 6461.7485)" class="Graphic_x0020_Style_x0020_27" cx="3694.3" cy="2789" rx="76.8" ry="76.8"/>
	<rect x="1165.7" y="1807.5" class="st0" width="102.3" height="36.9"/>
	<rect x="2197.6" y="1805.3" class="st0" width="102.3" height="36.9"/>
</g>
</svg>
