<?xml version="1.0" encoding="utf-8"?>
<!-- Generator: Adobe Illustrator 22.0.0, SVG Export Plug-In . SVG Version: 6.00 Build 0)  -->
<svg version="1.1" id="Layer_1" xmlns="http://www.w3.org/2000/svg" xmlns:xlink="http://www.w3.org/1999/xlink" x="0px" y="0px"
	 viewBox="0 0 4000 4000" style="enable-background:new 0 0 4000 4000;" xml:space="preserve">
<style type="text/css">
	.st0{fill:#1A1A1A;stroke:#1A1A1A;stroke-width:2;stroke-linecap:round;stroke-linejoin:round;stroke-miterlimit:10;}
	.st1{fill:none;stroke:#1A1A1A;stroke-width:3;stroke-linecap:round;stroke-linejoin:round;stroke-miterlimit:10;}
	.st2{fill:#FFFFFF;stroke:#1A1A1A;stroke-width:2;stroke-linecap:round;stroke-linejoin:round;stroke-miterlimit:10;}
	.st3{fill:#8E9DF4;stroke:#1A1A1A;stroke-width:2;stroke-linecap:round;stroke-linejoin:round;stroke-miterlimit:10;}
	.st4{fill:#D9DBDA;}
	.st5{fill:#5067EF;stroke:#1A1A1A;stroke-width:2;stroke-linecap:round;stroke-linejoin:round;stroke-miterlimit:10;}
</style>
<g>
	
		<ellipse transform="matrix(1.470134e-02 -0.9999 0.9999 1.470134e-02 2820.8521 4498.7622)" class="st0" cx="3693.1" cy="818.1" rx="85.7" ry="85.7"/>
	<path class="st1" d="M360.1,2423.5c6.3,115.3,43.5,539.2,385.1,890.5c320.1,329.1,705.7,387,810.3,401.1
		c333.7,45,626.3-76.9,1211.5-320.9c442.9-184.6,666.3-280.6,762.2-457.3c122-224.7,7.6-353.5-24.1-938.7
		c-39.7-732.3,120.4-882.1-32.1-1131.2c-185.6-303.3-592.7-358.4-1026.9-417.2c-681.4-92.2-1396.2-189-1853.3,296.8
		C14.8,1361.1,345.1,2379.4,360.1,2423.5z"/>
	<path class="st2" d="M3624.2,2356.4c-6,135.7-274,122.6-311.2,333.3c-4.8,27.3-4.1,55,0.7,82.8H654.3c0.2-0.4,0.4-0.8,0.6-1.2
		c72.7-139.9,140.1-300.8,91.7-450.9c-34-105.5-119.6-185-179.6-278.3c-60-93.2-90.7-226.4-16.1-308.5
		c3.7-198.5,4.5-413.1,62.8-602.9c109.1-355.2,407.4-636.8,756.1-765.1c301.1-110.8,634.5-114.2,947.4-39
		c49.5,11.8,98.4,25.7,146.6,41.4c148.6,48.3,288.4,72.6,442.9,96.1c0.6,0.1,1.2,0.2,1.9,0.3c60.6,9.3,126.6,22,165,69.6
		c55,68,26.5,170.3,55.7,252.7c37.2,105,154.5,152.7,245.5,216.9c116.1,82,200.5,207.6,232.6,346c32.1,138.4-8.6,297.6-76.8,422.3
		C3604.6,2035.9,3636.2,2082.6,3624.2,2356.4z"/>
	<path class="st3" d="M2939.5,614.4c0,208.6-169.1,377.6-377.6,377.6c-208.6,0-377.7-169.1-377.7-377.6
		c0-115.2,51.6-218.4,133-287.7c49.5,11.8,98.4,25.7,146.6,41.4c148.6,48.3,288.4,72.6,442.9,96.1c0.6,0.1,1.2,0.2,1.9,0.3
		C2928.5,510.4,2939.5,561.1,2939.5,614.4z"/>
	<path class="st0" d="M654.3,2772.5c-72.6,139.5-154.1,287.6-135.7,443.7c13.2,111.5,78.5,213,166.1,283.2
		c87.6,70.2,196,111,306.4,131.2c181.3,33.2,372.1,12.6,542-58.7c74.2-31.1,146.5-72.2,226.7-80.1c124.1-12.2,239.7,56.5,358.2,95.3
		c209.6,68.6,436.8,43.8,655.8,18.3c108.6-12.7,217.3-25.3,325.9-38c85.8-10,173.7-20.6,250.8-59.5
		c100.8-50.9,175.6-150.7,196.1-261.8c17.9-96.7-200.7-287-233.1-473.7H654.3z"/>
	<path class="st4" d="M3552.5,1848.5H3280v-393.8l-99.1-141.6h-255v551.2h-144.5v-225.4h-249.3v238H1268.7v-664.3h-229.5v675.9
		H883.4v-317.5H625.6v345.6H513.9c9.7,44.4,29.1,88.3,53.2,125.7c41.7,64.8,95.7,122.9,136.2,187.8h2923.2
		C3624,2081.1,3599.2,2008.8,3552.5,1848.5z"/>
	<path class="st2" d="M3625.9,2206H687.5c12.6,18.3,24.3,37.1,34.5,56.6h2904.6C3626.7,2242.5,3626.5,2223.7,3625.9,2206z"/>
	<polygon class="st0" points="797.1,781.5 819.6,751.6 819.6,2230 797.1,2230 	"/>
	<polygon class="st0" points="1443,341.1 1465.5,334.4 1465.5,2230 1443,2230 	"/>
	<polygon class="st0" points="2734.7,435.6 2757.3,439.9 2757.3,2230 2734.7,2230 	"/>
	<path class="st0" d="M3403.1,1025.1V2230h-22.5V1007.9C3382.2,1010.7,3395.5,1018.9,3403.1,1025.1z"/>
	<path class="st0" d="M621,3438.2h2824.6c-27.7,28.2-59.7,51.9-95,69.7c-77.1,39-165,49.6-250.8,59.5
		c-108.6,12.7-217.2,25.3-325.9,38c-219,25.5-446.2,50.3-655.8-18.3c-118.6-38.8-234.1-107.5-358.2-95.3
		c-80.1,7.9-152.4,49-226.7,80.1c-170,71.3-360.8,91.9-542,58.7c-110.4-20.2-218.8-61-306.4-131.2
		C661.8,3481.1,640.3,3460.5,621,3438.2z"/>
	<g>
		<path class="st2" d="M2091.6,2066.7l136,372.5l-398,31.2l-15.6-420.7c0,0,106.8-85.5,105.4-80.6
			C1918.1,1974,2091.6,2066.7,2091.6,2066.7z"/>
		<path class="st2" d="M1957.1,2148.8c0,0-13.4,76.1-36.8,116.1c-4.2,48.2-52.4,242.2-52.4,242.2h-352.7c0,0,42.5-104.8,53.1-155.8
			c10.6-51-14.9-138.8-14.9-188.4c0-49.6,39.7-96.3,39.7-96.3l231.7-15.2"/>
		<path class="st2" d="M1611.7,2219.6c0,0,93.7-7.3,108.4-78.2"/>
		<path class="st2" d="M3504.8,3360c-16.3,28.5-36.2,54.8-59.2,78.2H621c-46.8-53.9-81.4-118-96.5-187.1l803.7-819h1348.4
			L3504.8,3360z"/>
		<path class="st2" d="M2735.4,2708.3h-462.9c-63.6-36.9-107.7-93.5-140.5-161.5h460.6C2662.2,2590.5,2706.2,2646,2735.4,2708.3z"/>
		<path class="st0" d="M2139.1,2551.8c0,0,109.1,99.2,132.4,145.2c-0.7,4.6-0.7,4.6-0.7,4.6s-69.4-55.6-85.7-77.6
			S2139.1,2551.8,2139.1,2551.8z"/>
		<path class="st2" d="M2459.5,2609.7l24.5-0.9c0,0,31.9,105.2,85.7,122.5c53.8,17.4-66.9,39.3-66.9,39.3l-4.2-15.2
			c0,0,47.8-7.4,44.3-17.4c-3.5-9.9-36.5-31.9-57.4-68C2464.5,2633.9,2459.5,2609.7,2459.5,2609.7z"/>
		<path class="st0" d="M1633.1,2046.9c0,0,126.9,50.4,334.2,35.7c120.4-9.4,120.4-9.4,120.4-9.4l-28.1-44.1
			c0,0-399.8-31.4-401.8-25.7C1655.8,2009,1633.1,2046.9,1633.1,2046.9z"/>
		<path class="st2" d="M1657.8,2003.4c0,0,200.6,77.4,428.7,25.7c-29.6-83.8-90.9-754.6-90.9-754.6s-39.4-13.7-56.2-15
			c-16.9-1.2-107.8-41.4-172.2,24.8C1673.9,1342.5,1657.8,2003.4,1657.8,2003.4z"/>
		<path class="st5" d="M1787.5,1253.8c0,0-182.2,50.6-175.8,133.4c6.4,82.9,61.4,343.7,27.4,467c-34,123.2-68,218.8-68,218.8
			s156.7,51,246.2,27.6c89.5-23.4,115-150.9,121.3-267.7c6.4-116.9-37.2-391.2-51.5-440.3c-14.3-49.1-30.2-115.4-61.3-127.7
			C1794.6,1252.7,1787.5,1253.8,1787.5,1253.8z"/>
		<path class="st2" d="M1793.2,1246.3l-38,16c0,0,39,121.6,47.1,125c74.2,104.7,113.7,166.3,113.7,166.3s-15.4-143.8-30.5-191.9
			c-15-48.1-58.2-111.6-72.2-115.2C1799.2,1242.7,1793.2,1246.3,1793.2,1246.3z"/>
		<path class="st5" d="M2035,1610.6c0,0,126,199.2,198.7,162.4c72.7-36.8,217.2-156.8,231.3-195.5c-6.6-49.1-80.7-48.2-109.7-30.2
			c-29.1,17.9-131.9,84-131.9,84s-92-300.4-168.6-334.1C2003.7,1274.7,2035,1610.6,2035,1610.6z"/>
		<path class="st0" d="M2364.8,1553.5c0,0-16.4,30,16.4,45.7c32.8,15.7,48.8,11.4,60.2,2c11.4-9.4,16.4-29.4-9.3-46.8
			C2406.3,1537,2373.9,1546.2,2364.8,1553.5z"/>
		<path class="st5" d="M2091.6,1577.3c-6.7,41.2-12.7,79.8-14.6,108.8c-6.6,100.1,40.8,343,43,373.5c2.1,30.5-86.4,30.7-112.6,23.1
			c-26.2-7.5-62.9-51.5-59.4-113.1c3.5-61.6-11.9-481.5-16-597.7c-2.8-80,29.4-114.3,29.4-114.3s56.1,18.2,100.6,43.5"/>
		<path class="st2" d="M1966.7,1254.7l46.4,16.1l-29.7,128.2c0,0-42.4,119.2-49.9,149.3c-8.9-127.7-19-234,5.8-268.1
			C1964,1246.2,1966.7,1254.7,1966.7,1254.7z"/>
		<path class="st2" d="M2374.9,1558.1c0,0,10.9,46,48.5,36.8c37.5-9.2,64.9-43.2,71.9-54.5c7.1-11.3,9.9-99.9,9.9-99.9l-114,53.8
			c0,0-8.5,37.4-5,51.3C2374.9,1558.1,2374.9,1558.1,2374.9,1558.1z"/>
		<polygon class="st2" points="2246.5,1540.2 2546.8,1387.2 2561.8,1410.8 2264.1,1561.7 		"/>
		<path class="st2" d="M2091.6,1512.8c0,0,84.3-82.9,129.6-99.9s92.1,21.2,116.1,34c24.1,12.7,20.5,13.5,9.2,19.8
			c-11.3,6.4-72.2-17.7-77.9-21.6c12.7,28.7,22,35.1,5.7,53.5c-16.3,18.4-58.1,27.6-78.6,27.6c-20.5,0-58.1,38.2-58.1,38.2
			L2091.6,1512.8z"/>
		<path class="st5" d="M1654.5,1316.4c0,0-118.3,86.8-50.8,245.3c73.9,173.7,133.4,257.6,258,195.2
			c124.6-62.3,298.4-175.6,298.4-175.6s-41.1-86.9-57.9-86.9c-122.5,68-205.9,122.5-252.3,113.8c-47.7-9-82.6-143.1-82.6-143.1"/>
		<path class="st2" d="M1894.7,1168.6c0,0-4.8,40,86,29c89.6-10.9,75.5-232.9,75.5-232.9c-234.2-89.7-214.4,119.7-214.4,119.7
			l-33,137.1v19.4l73.2,43.4h19.8l39.7-57.1c0,0-11.2-14.6-6.8-27.9"/>
		<path class="st0" d="M1894.1,1169.4c0,0-4.1,44.8,39.7,46.5c-2.1-17.4-2.1-17.4-2.1-17.4
			C1916.1,1200.9,1908.9,1188.6,1894.1,1169.4z"/>
		<path class="st2" d="M1794.2,1212.5l95.6,70.8l51-65.2c16.6-2.1,27.6,6.7,37.1,18.9c-9.9,33.9-22.8,63.8-42.5,85.3
			c-7.9-19.7-24-30.2-44.9-35.5c-20.5,7.7-30,22.5-31.6,42.3c-40.7-18.6-73.7-42.7-91.6-77.3
			C1772.4,1234.8,1781.2,1221.5,1794.2,1212.5z"/>
		<path class="st0" d="M1818.2,1112c0,0,39.7,27.6,58.8,9.2c19.1-33.3,19.1-33.3,19.1-33.3s-28.1-36.8-15.1-53.1
			c13-16.3,36.3-7.8,42,7.1c5.7,14.9,5.7,14.9,5.7,14.9l14.9,1.4c0,0,24.1-39.7,24.1-65.2c71.5,28.3,106.8,51.9,140.1-18.9
			c21.2-51.7-7.7-55.5-7.7-55.5s-91.4,15.6-123.9-2.8c-32.6-18.4-81.4-3.6-80.7,26.5c-34.7-17.3-75.1,2.5-77.2,47.1
			c-2.1,44.6,0,119,0,119"/>
	</g>
	<ellipse class="st2" cx="3642.2" cy="2730.8" rx="214" ry="212.3"/>
	<ellipse class="st2" cx="317.3" cy="2230" rx="173.5" ry="172.1"/>
</g>
</svg>
