<?xml version="1.0" encoding="utf-8"?>
<!-- Generator: Adobe Illustrator 22.0.0, SVG Export Plug-In . SVG Version: 6.00 Build 0)  -->
<svg version="1.1" id="Layer_1" xmlns="http://www.w3.org/2000/svg" xmlns:xlink="http://www.w3.org/1999/xlink" x="0px" y="0px"
	 viewBox="0 0 4000 4000" style="enable-background:new 0 0 4000 4000;" xml:space="preserve">
<style type="text/css">
	.st0{fill:none;stroke:#1A1A1A;stroke-width:3;stroke-linecap:round;stroke-linejoin:round;stroke-miterlimit:10;}
	.st1{fill:#FFFFFF;stroke:#1A1A1A;stroke-width:2;stroke-linecap:round;stroke-linejoin:round;stroke-miterlimit:10;}
	.st2{fill:#1A1A1A;stroke:#1A1A1A;stroke-width:2;stroke-linecap:round;stroke-linejoin:round;stroke-miterlimit:10;}
	.st3{fill:#8E9DF4;stroke:#1A1A1A;stroke-width:2;stroke-linecap:round;stroke-linejoin:round;stroke-miterlimit:10;}
	.st4{fill:#5067EF;stroke:#1A1A1A;stroke-width:2;stroke-linecap:round;stroke-linejoin:round;stroke-miterlimit:10;}
	.st5{fill:#D9DBDA;}
	.st6{fill:none;stroke:#1A1A1A;stroke-width:2;stroke-linecap:round;stroke-linejoin:round;stroke-miterlimit:10;}
</style>
<g>
	<path class="st0" d="M676.1,1334.7c-58.3,142.9-126.7,347.2-163,600.1c-23.9,166.3-57.2,412.5,0,703.8
		c23.9,121.8,103.1,524.9,392.6,800.1c353.2,335.8,935.1,401.2,1489,207.4c248.9,76.6,564.9,131.4,740.8-29.6
		c138.4-126.7,94.2-299.4,133.3-607.5c98.3-774.6,540.4-968.9,444.5-1370.6c-39.3-164.3-175.7-393.1-659.3-600.1
		c-90.7-141-325.9-460.6-748.2-600.1c-513.6-169.7-1200.3-38.9-1489,422.3C709.9,1031.6,681.9,1209.1,676.1,1334.7z"/>
	<ellipse class="st1" cx="3675.3" cy="1445.5" rx="160.2" ry="158.9"/>
	<path class="st1" d="M3104.8,3285.1c82.6-9.7,156.3-59.4,211.5-121.5s94.4-136.5,133.1-210.1c75.3-143.3,150.7-286.7,226-430
		c47.4-90.2,95.3-181.6,118.2-280.9c37.2-161.1,3.4-337.2-90.8-473.1c-78.4-113-192.7-194.9-295.2-286.6
		c-102.5-91.7-198.9-203.1-220.7-338.9c-8.4-52.6-5.2-106.8-17.5-158.6c-33.6-142.2-176-234.1-317.9-268.6
		c-142-34.5-290.8-26.8-435-50.5c-144.2-23.7-245.7-141-364.2-226.4c-99.3-71.6-201.3-144.6-319.1-177.7
		c-117.9-33.2-256.8-19-344.1,66.8c-100.2,98.5-107.5,260.4-194.5,370.7C1071,856.4,828.7,863.4,683.1,1000.2
		c-106.1,99.6-143.8,254.7-137.9,400.1c5.9,145.4,49.6,286.2,82.9,427.8c33.4,141.6,56.5,290.6,21.2,431.8
		c-15.3,61.4-42.9,120-81.7,170c-15.3,19.7-32.5,43-53.4,56.4c-24.2,15.6-51.6,25.9-75.5,42.5c-100,69.4-176.7,179.6-194.5,300.8
		c-11,75-25.6,142.2-1.8,217.7c37,117.6,140.2,206,255.5,249.7c115.3,43.6,241.8,47.6,364.7,39.1c90.3-6.3,181.9-18.9,270.7-1.3
		c158.9,31.5,282.3,152.9,424.2,230.9c286.3,157.5,666.6,123.3,920.3-82.6c93.4,47.9,191,76.5,295.9,76.7
		c81.2,0.2,164.6-15.5,232.4-60.2C3073.9,3455.1,3107.6,3366.3,3104.8,3285.1z"/>
	<polygon class="st2" points="712.6,2917.8 794.1,2988.1 898.7,2851 871.4,2723.6 	"/>
	<path class="st2" d="M2168.8,1405.5l371.6,363.5c0,0,97.3-156,101.7-164.6c4.5-8.6-348-289.9-348-289.9L2168.8,1405.5z"/>
	<path class="st2" d="M2837.7,2037.8l371.6,363.5c0,0,97.3-156,101.7-164.6c4.5-8.6-348-289.9-348-289.9L2837.7,2037.8z"/>
	<path class="st2" d="M1541,3559.2l183.4-201.9c0,0,11,207.4,129.5,242.6c118.5,35.2,307.4,0,307.4,0l6.9,37
		C2168.3,3637,1839.8,3747.3,1541,3559.2z"/>
	<polygon class="st1" points="1921.1,1627.2 2074.1,1740.5 2227,1547.7 2084.4,1449.2 	"/>
	<polygon class="st3" points="2060.2,2089.9 1872.4,2266.2 2130.2,2544.8 2327.3,2376.3 	"/>
	<polygon class="st3" points="2255.9,2350.4 2123.5,2469.5 2110.5,2458.1 2246.6,2341.4 	"/>
	<polygon class="st3" points="2219.3,2311.5 2086.9,2430.6 2073.9,2419.2 2210,2302.5 	"/>
	<g>
		<path class="st1" d="M672.5,2877.9l232.7-273.1c0,0,35.3-28.4,76.9,13.2c41.6,41.6-83.8,150.3-115.7,182.9s-133,137.9-133,137.9
			L672.5,2877.9z"/>
		<path class="st1" d="M1093.6,3240.7l232.7-273.1c0,0,35.3-28.4,76.9,13.2c41.6,41.6-83.8,150.3-115.7,182.9
			c-31.9,32.6-133,137.9-133,137.9L1093.6,3240.7z"/>
		<path class="st1" d="M614.4,2989.2c0,8.3,440.5,388.6,440.5,388.6c61.2,44.8,170.2-39.3,99.1-107.6l-452.5-399
			C638.6,2825,566.6,2922.9,614.4,2989.2z"/>
	</g>
	<g>
		<path class="st1" d="M1469.9,3511.9l275.9-305.3c0,0,35.3-28.4,76.9,13.2c41.6,41.6-83.8,150.3-115.7,182.9
			c-31.9,32.6-149.4,163.1-149.4,163.1L1469.9,3511.9z"/>
	</g>
	<path class="st4" d="M982.9,2638.2c0,0,123.2-0.5,197.1,46.4c73.9,46.9,199.6,123.4,203.5,172.6c3.9,49.3-36.3,142.6-94.6,190.5
		c-58.3,48-290.4-24.8-316.3-42.9c-25.9-18-77.8-56.4-73.9-153.9C902.5,2753.5,955.8,2637.1,982.9,2638.2z"/>
	<path class="st1" d="M2355.8,1204c0,0,66.5-209.3,124.7-221c58.1-11.7,172.9,14.9,283.7,127.7c110.8,112.8,268.4,256.3,165.3,374.1
		c-103.1,117.8-254.7,152.8-254.7,152.8l-364.3-369.7L2355.8,1204z"/>
	<path class="st1" d="M3070.1,1773.4c0,0,103.3-171.5,161.4-183.2c58.1-11.7,172.9,14.9,283.7,127.7
		c110.8,112.8,268.4,256.3,165.3,374.1c-103.1,117.8-245.4,188.2-245.4,188.2l-118.2,105l-392-490.1L3070.1,1773.4z"/>
	<path class="st4" d="M2971.2,2024.7c0,0-5,89.9-15.5,118.8c196.8,191.6,245.4,238.9,245.4,238.9s119-268.7,110.5-332.6
		c-8.5-63.9-75.9-96.3-75.9-96.3s-182.4-24.2-209.2-8C2999.7,1961.6,2971.2,2024.7,2971.2,2024.7z"/>
	<path class="st1" d="M3259.3,2439c0,0,187-178.4,214.6-186.4c27.7-7.9,44.9,2.4,54.4,19.7c9.5,17.3,0,44.9-9.5,53.6
		c-9.5,8.6-194.5,176.4-194.5,176.4L3259.3,2439z"/>
	<path class="st5" d="M1955.3,1235l-934.6,990.3l1323.2,1345.2c-13.9,7.2-27.9,13.9-42.2,20.3L955.7,2226l998.2-1057.7L3564,2735.6
		c-7.6,14.4-15.1,28.8-22.7,43.2L1955.3,1235z"/>
	<path class="st6" d="M3541.3,2778.8c-30.6,58.3-61.2,116.5-91.8,174.7c-38.7,73.6-77.9,148-133.1,210.1
		c-55.2,62.1-128.9,111.8-211.5,121.5c2.8,81.1-30.9,169.9-98.7,214.5c-67.8,44.6-151.2,60.3-232.4,60.2
		c-105-0.2-202.5-28.8-295.9-76.7c-40.7,33-84.6,61.6-130.9,85.7c-1,0.6-2.1,1.1-3.1,1.6L1020.7,2225.3l934.6-990.3L3541.3,2778.8z"
		/>
	<path class="st6" d="M2347,3568.8c-1,0.6-2.1,1.1-3.1,1.6l0,0C2344.9,3570,2346,3569.4,2347,3568.8z"/>
	<path class="st1" d="M1952.6,2174.1c0,0,43.2,0.9,92.9,38c49.7,37.2,108.5,69.6,107.2,79.9c-1.3,10.4-8.2,22-29,11.7
		c-20.7-10.4-60.5-32.8-60.5-32.8s-3.9,28.9-31.5,38.9c-27.7,9.9-76.5-25.1-84.7-39.3s-12.1-31.1-19.9-34.1
		C1944,2204.4,1952.6,2174.1,1952.6,2174.1z"/>
	<path class="st1" d="M1083.6,1439.7c0,0,7.8-185.8,98.5-219.5c67.4,151.2,67.4,151.2,67.4,151.2L1083.6,1439.7z"/>
	<path class="st4" d="M1635,1449.2c0,0,59.6-93.3,28.5-172c-31.1-78.6-132.2-257.5-229-230.7c-96.8,26.8-61.4,139.1-61.4,139.1
		L1635,1449.2z"/>
	<path class="st1" d="M1649.7,1422.3"/>
	<path class="st4" d="M1657.5,1482.4L1310.5,1850c0,0-269.3-224.2-228.4-488.6c105-23.3,105-23.3,105-23.3l-66.3-81.7
		c0,0,47.5-109,228.2-102.8c151.2,5.2,186.2,112.6,186.2,112.6"/>
	<path class="st4" d="M1255.2,1515c0,0,83.6,556.1,521.1,680.5C1928,2250,1928,2250,1928,2250s61.4-71.5,31.1-86.2
		c-30.2-14.7-247.6-118-316.3-216.5c-68.7-98.5-132.2-164.6-55.3-288.2l16.4-20.3l40.2-63.3"/>
	<path class="st1" d="M1703.7,1469.7c0,0-40.2-21.9-54-38.8c-38.4,14.6-70.4,13.5-82.1,49.1c-11.7,35.6-33.1,111.2-18.1,117.5
		s52.7,37.9,52.7,37.9L1703.7,1469.7z"/>
	<path class="st1" d="M2256.8,1592.6c0,1.7,60.9,93.8,61.8,115.8c0.9,22,1.7,36.7-13,43.6c-14.7,6.9-28.2,11.3-47.8,8.7
		c-19.1-2.5-71.5-34.2-58.1-50.6c13.4-16.4,21.2-26.8,16.4-40.6c-4.8-13.8-19.4-63.1-19.4-63.1L2256.8,1592.6z"/>
	<path class="st1" d="M2140.6,1353l183.4-174.3c0,0,9.1-12.3,41.5,14.3c32.4,26.6,14.3,41.5,7.1,49.9c-7.1,8.4-180,162.7-180,162.7
		L2140.6,1353z"/>
	<path class="st1" d="M2439.6,1279.8c6.9,1.7,100.3,7.8,171.1,51c70.9,43.2,148.7,143.4,130.5,229c-18.1,85.5-67.2,147.8-94.4,160.7
		c-27.2,13-75.8,48.6-75.8,48.6l-234.2-227.9c0,0,12.4-116.1,22.8-153.7C2370.1,1349.8,2439.6,1279.8,2439.6,1279.8z"/>
	<path class="st1" d="M2368.1,1414.6c0,0-70,30.2-116.7,27.7c-47.3,0.1-47.3,0.1-47.3,0.1s46,108.2,54.4,134.8
		c7.1,20.1,7.1,20.1,7.1,20.1s-55.1,41.5-84.9,19.4c0,0-121.9-213.2-95.9-241.7c25.9-28.5,258.6-109.5,293.6-106.9
		c43.4-3.5,128.6,24.6,128.6,24.6"/>
	<path class="st1" d="M2564.5,1763.2l183.4-174.3c0,0,9.1-12.3,41.5,14.3c32.4,26.6,14.3,41.5,7.1,49.9s-180,162.7-180,162.7
		L2564.5,1763.2z"/>
	<path class="st1" d="M2594.3,1610.3c0,0-101.1,125.7-200.5,186.2c-99.4,60.5-155.6,118.4-155.6,118.4s51,39.7,84.7,38.5
		c32-25.5,169.6-119,221.3-139.6c51.7-20.6,128.3-85.5,157.3-154.7c22.8-54.4,36.5-95.2,7.1-131.5"/>
	<path class="st1" d="M2516.6,1510.5c26-0.4,47.9-35,47.9-35l-8.2-38h-159.9c0,0,29.8,89.9,70,94.2c40.2,4.3,63.5-38.9,63.5-38.9"/>
	<path class="st3" d="M2449.5,1524.4c0,0,10,70.3,21,80.1"/>
	<path class="st1" d="M2252.7,1916.2c0,0-70.7,51.2-81.7,88.1c-11,36.9-19.4,123.1-3.9,124.4c15.6,1.3,25.6-10.4,25.5-38.9
		c-0.2-28.5,14.1-65.4,16-63.5c29.2,26.6,40.2,26.6,71.9,8.4c31.8-17.5,38.2-58.3,35-64.2c-3.2-7.8-2.6-24-2.6-24L2252.7,1916.2z"/>
	<g>
		<ellipse class="st1" cx="1944.1" cy="1391.9" rx="55.1" ry="55.1"/>
		<ellipse class="st2" cx="1944.1" cy="1391.9" rx="39" ry="39"/>
	</g>
	<g>
		
			<ellipse transform="matrix(3.597371e-03 -1 1 3.597371e-03 -829.2127 3347.554)" class="st1" cx="1265.2" cy="2089.9" rx="55.1" ry="55.1"/>
		
			<ellipse transform="matrix(5.050763e-03 -1 1 5.050763e-03 -831.0385 3344.5085)" class="st2" cx="1265.2" cy="2089.9" rx="39" ry="39"/>
	</g>
	<g>
		<ellipse class="st1" cx="1953.3" cy="2723.6" rx="55.1" ry="55.1"/>
		<ellipse class="st2" cx="1953.3" cy="2723.6" rx="39" ry="39"/>
	</g>
	<g>
		<ellipse class="st1" cx="2756.1" cy="3427.5" rx="55.1" ry="55.1"/>
		
			<ellipse transform="matrix(5.796394e-03 -1 1 5.796394e-03 -687.3329 6163.647)" class="st2" cx="2756.1" cy="3427.5" rx="39" ry="39"/>
	</g>
	<g>
		<ellipse class="st1" cx="3316.1" cy="2684.6" rx="55.1" ry="55.1"/>
		<ellipse class="st2" cx="3316.1" cy="2684.6" rx="39" ry="39"/>
	</g>
	<path class="st1" d="M2756,1953.4c0,0,203.1-193.7,230.8-201.7c27.7-7.9,44.9,2.4,54.4,19.7c9.5,17.3,0,44.9-9.5,53.6
		c-9.5,8.6-214.3,194.4-214.3,194.4L2756,1953.4z"/>
	<polygon class="st1" points="1636.3,2447.6 1807.4,2447.6 1812.6,2723.6 1636.3,2723.6 	"/>
	<polygon class="st1" points="2409.9,2900.3 2515.7,3034.7 2302,3209.4 2193,3070.9 	"/>
	<polygon class="st1" points="2758.3,3078.2 2849.7,3222.9 2619.1,3374.6 2525,3225.5 	"/>
	<polygon class="st1" points="3084.5,2590.8 3224.1,2689.8 3068.5,2917.8 2924.8,2815.8 	"/>
	<polygon class="st1" points="2822.2,2179.6 2907.1,2328.1 2670,2469.5 2582.5,2316.4 	"/>
	<polygon class="st1" points="2763.7,2116.8 2848.6,2265.3 2611.5,2406.7 2524.1,2253.6 	"/>
	<path class="st1" d="M1616,1671.7c0,0-34.6,5.6-17.7,35.4c16.9,29.8,42.8,36.7,59.2,15.1C1641.9,1700.2,1616,1671.7,1616,1671.7z"
		/>
	<path class="st1" d="M2642.7,2350.4c0,0-31.3,119.2-5.7,157.3c25.6,38,55,48.4,62.8,48.4c7.8,0,25.1-28.5,13-49.3
		s-20.7-51.8-13.8-53.6c9.5,6.5,9.1,21.7,21.2,16.3s3.5-40.4-3.5-52.1c-6.9-11.7-13.4-35.4-11.2-42.3
		C2707.6,2368.1,2642.7,2350.4,2642.7,2350.4z"/>
	<path class="st4" d="M3079.2,1916.2c0,0-53.2-43.5-167.9-5.6c-114.7,38-199,58.7-215.8,139.1c-16.9,80.4-72.9,309.4-58.8,321.4
		c39.9,18.7,54.9,22.5,84.7,11.2c12.5-95.7,64.5-275.6,97.1-301.5c32.5-25.9,167.4-40.2,167.4-40.2"/>
	<path class="st1" d="M2881.7,2526.7c0,0-35,3.9-46.7-6c-11.7-9.9-32.4-38.9-44.1-30.2c-9.1,13-0.4,30,9.9,37
		c-9.5,3.6-46.5-23.6-56.1-30.1c-9.6-6.5-25.6-4.3-39,4.8c-13.4,9.1-26.4,35-24.6,43.2c1.7,8.2,33.7,61.8,79.7,58.5
		c54.8-3.9,60.6-12.3,89.4-15.3c28.8-3,36.6-3.5,36.6-3.5L2881.7,2526.7z"/>
	<path class="st4" d="M3231.5,1945.4c0,0,51.2,13,90.7,40.8c39.5,27.9,99.2,152.9,93.3,205c-5.8,52.1-99.2,241.5-147.5,289.9
		c-48.3,48.5-288.1,116.8-391.2,109.6c-15.6-16.9,0-70.4,0-70.4s157.5-52.7,202.2-72.8c44.7-20.1,103.4-83.3,122.5-123.1
		c19.1-39.8,22.4-145,22.4-145"/>
	<path class="st1" d="M3108.6,1986.4c0,0-21.6,19.6-7.8,36.1c13.8,16.4,13.4,70.4,10.4,83.4c6,18.1,12.5,15.1,12.5,15.1
		s14.3-39.3,43.6-47.5c29.4-8.2,63.5-32.4,70.4-45.4c6.9-13-4.3-48.8-4.3-48.8l-94.2-7.3L3108.6,1986.4z"/>
	<path class="st1" d="M3171.9,1987.9c0,0-13,17.1-64.2,10.6c-51.2-6.5-62.6-114.3-62.6-114.3s144.3-51,165-19.2
		c20.7,31.8,16.2,127,16.2,127s-44.8,26.4-68.1,26.1c-23.3-0.2-36.2-18.4-36.2-18.4"/>
	<path class="st1" d="M2077.1,2835.8c0,0,88.8-60.9,126.4-70c37.6-9.1,34.4-9.7,60.3,0c25.9,9.7,57.7,41.5,57.7,51.2
		c0,9.7-44.7,27.9-97.2,2.6c23.3,15.6,27.2,13.6,14.3,24c-13,10.4-33.1-1.9-49.6,1.3c-16.5,3.2-45.7,16.2-74.2,36.3
		C2086.8,2870.2,2077.1,2835.8,2077.1,2835.8z"/>
	<path class="st1" d="M1916.1,3396.4c-27.5-50.6-65.9-149.1-17.9-260.5c48-111.5,181.5-203.5,226.9-250.2
		c-1.3-53.8-54.4-58.3-54.4-58.3s-333.8,264-357.8,487.8c-24,223.8,22.7,250.5,132.9,311.3c0,0,192.1,47.8,258.6-7
		c35-32.5,42.4-53.8,42.4-53.8"/>
	<path class="st1" d="M2315.6,3029.2c0,0-67-95.5-104.1-102.4s-65.3,5.2-72.2,30.2c-0.4,21.2,54.9,35.9,73.9,42.8
		c19,6.9,3.9,11.7-4.8,16.4c-8.6,4.8,9.9,11.7,41.9,28.5c32,16.9,39.3,40.2,39.3,40.2S2321.2,3047.8,2315.6,3029.2z"/>
	<path class="st1" d="M2113.8,3440.1c0,0,97.7,19.9,121.9,0c24.2-19.9,52.7-55.3,61.8-152.9s-16.9-181.9-31.5-208.9
		c-3.2-29.9,43.1-74.1,50.4-67.2c0,0,68,118,78.4,226.4c10.4,108.4,25.6,188.4-21.6,259c-66.4,99.4-311.6,130-311.6,130"/>
	<path class="st1" d="M1095.7,2528.6c0,0,0-32.4,9.1-36.3s77.8-9.1,84.9,36.3c-19.4,28.5-19.4,28.5-19.4,28.5L1095.7,2528.6z"/>
	<path class="st1" d="M1489.8,2495.5c0,0,62.9,84.4,47.3,107.7c-15.6,23.3-69.4,57-81.7,44.7c-12.3-12.3-15.6-42.9-13.6-74.9
		c1.9-32-0.5-49.5-0.5-49.5L1489.8,2495.5z"/>
	<path class="st4" d="M941.4,2988.1c0,0-70-97.2-70-160.7s15.6-163.3,81.7-263.1s128.3-221.6,197.1-238.5
		c68.7-16.9,177.6,0,247.6,64.8c70,64.8,106.3,91.8,106.3,104.9c-22,39-46.7,54.6-71.3,49.4c-72.6-84.3-150.4-128.3-189.9-110.2
		c-39.5,18.1-147.1,173.7-147.1,173.7"/>
	<path class="st1" d="M1570.8,2504c0,0-13.6-108.2-63.5-156.8c-27.2-27.5-97.9-33.7-95.3-19.4c2.6,14.3,34.4,44.7,54.4,57
		c8.4,9.1,8.4,9.1,8.4,9.1s-35-18.8-40.8-14.3c-5.8,4.5,10.4,33.1,28.5,40.8s44.1,31.8,48,51.8c3.9,20.1,5.2,36.8,5.2,36.8
		L1570.8,2504z"/>
	<path class="st4" d="M1189.7,2745.8c0,0,65.2,80.7,145.1,89.9s161.5-93.8,169.3-134.7c7.8-40.8,13-186.2,5.8-198.3
		c33.1-26.6,59.6-19.1,68.1-7.3c8.4,11.8,16.9,82.4,19.4,131.7c2.6,49.3,1.3,171.7-63.5,246.3c-64.8,74.5-156.9,128.3-240.5,114.7"
		/>
	<path class="st2" d="M1574.1,1609c0,0,35.6,51.8,42.4,85.5c6.8,33.7,56.1,55.7,85.9,53.1c29.8-2.6,57-0.9,77.8,0.2
		c20.7,1.1,64.2-59.2,75.2-64.4c11-5.2,31.1-53.8,18.8-99.8c-12.3-46-54.4-100.5-75.2-113.4c-20.7-13-53.8-33.1-95.3-17.5
		c-41.5,15.6-53.2,42.1-64.8,51.8c-11.7,9.7-56.4,31.1-60.9,57.7C1573.4,1588.9,1569.1,1601.5,1574.1,1609z"/>
	<path class="st2" d="M2388.2,1380.9c0,0-22,64.5,18.1,72.4c40.2,7.9,59.6,24.5,112.1,6.5c44.1,12.5,67.4-44.6,86.9-47.8
		s78.4,37.6,100.5,44.7c22,7.1,90.1,12,101.8-18.3c11.7-30.3-9.7-45.2-32.4-75.7c-22.7-30.5-33.1-48-61.6-57
		c-7.8-36.9-21.4-60.3-43.4-60.9c-35.7-33.1-62.2-57.7-102.4-62.9c-48.6-28.5-74.5-25.9-94-10.4c-43.4,18.1-31.6,88.3-29.4,112.9
		C2446.6,1309,2389.5,1363.7,2388.2,1380.9z"/>
	<path class="st2" d="M3079.2,1756.8c0,0-95.9,78.6-52.7,121.8c43.2,43.2,82.1,54.6,144.3,16.5c0,0-16.4,41.5,8.6,58.3
		c25.1,16.8,37.2,21.1,43.2,30.6c14.7,9.5,57,2.6,72.6-35.4c15.6-38,33.7-121.8-17.3-161.6C3227,1747.3,3138,1711,3079.2,1756.8z"/>
	<path class="st2" d="M1961.7,3508.1c0,0-31.1-11-70-1.5c-38.9,9.5-65.7-125.3-27.7-155.5s140-151.2,212.6-102
		c24.2,17.3,24.2,17.3,24.2,17.3s48.4-4.3,58.8,33.7c10.4,38,50.1,55.3,0,137.4c-40.6,63.9-13.8,87.3-41.5,104.6
		C2090.5,3559.3,2000.6,3543.3,1961.7,3508.1z"/>
	<path class="st1" d="M1316.1,2495.5c0,0,20.1,99.3-7.1,147.9s-66.8,42.1-73.2,38.9c-6.5-3.2,30.5-202.2,30.5-202.2L1316.1,2495.5z"
		/>
	<path class="st2" d="M1196.8,2693.3l29,52.5c0,0,63.1-90.9,63.1-160.2c0-69.3,0-69.3,0-69.3l-111.5,7.2"/>
	<path class="st2" d="M1089.2,2516.3c0,0,15.6-63.5,57.7-92c42.1-28.5,88.2-55.7,142.6-33.7c54.4,22,40.8,174.3-3.9,217.8"/>
	<path class="st2" d="M1104.8,2508.4c0,0,93.9,2.7,105.3,100c11.4,97.2,28.8,151.7,0,200.9c-19.7,75.2-13.3,114.1-27.5,160.7
		c-14.3,46.7-41.5,116.7-116.7,146.5c-75.2,62.2-75.2,62.2-75.2,62.2s-79.1-186.2-79.1-253.8c0-67.6-1.3-107.9,28.5-162.3
		c29.8-54.4,57-106.2,84.3-165.8C1051.6,2537.1,1084.3,2505.8,1104.8,2508.4z"/>
	<ellipse class="st2" cx="3532.3" cy="3301.5" rx="79.1" ry="79.1"/>
	<ellipse class="st1" cx="362.1" cy="2022.5" rx="197.6" ry="196"/>
</g>
</svg>
