<?xml version="1.0" encoding="utf-8"?>
<!-- Generator: Adobe Illustrator 22.0.0, SVG Export Plug-In . SVG Version: 6.00 Build 0)  -->
<svg version="1.1" id="Layer_1" xmlns="http://www.w3.org/2000/svg" xmlns:xlink="http://www.w3.org/1999/xlink" x="0px" y="0px"
	 viewBox="0 0 4000 4000" style="enable-background:new 0 0 4000 4000;" xml:space="preserve">
<style type="text/css">
	.st0{fill:url(#SVGID_1_);}
	.st1{fill:url(#SVGID_2_);}
	.st2{fill:#DBD2DB;}
	.st3{fill:url(#SVGID_3_);}
	.st4{fill:url(#SVGID_4_);}
	.st5{fill:#3B546B;}
	.st6{fill:#127755;}
	.st7{fill:#083022;}
	.st8{fill:#1C0C1C;}
	.st9{fill:#634963;}
	.st10{fill:#572658;}
	.st11{fill:#B080B0;}
	.st12{fill:#1A1A1A;}
	.st13{fill:#DB6767;}
	.st14{fill:#FC9590;}
	.st15{fill:#102140;}
	.st16{fill:#EF5668;}
	.st17{fill:#D1334A;}
	.st18{fill:#EB485C;}
	.st19{fill:#FFFFFF;}
	.st20{fill:#912433;}
	.st21{fill:#6584C6;}
	.st22{fill:#FFB114;}
	.st23{fill:#BF840F;}
	.st24{fill:#2C3E4F;}
	.st25{fill:#081426;}
	.st26{fill:#C7C7C7;}
	.st27{fill:#D9D9D9;}
	.st28{fill:#4C6C8A;}
	.st29{fill:#D99611;}
	.st30{fill:url(#SVGID_5_);}
	.st31{fill:url(#SVGID_6_);}
	.st32{fill:url(#SVGID_7_);}
	.st33{fill:url(#SVGID_8_);}
	.st34{fill:url(#SVGID_9_);}
</style>
<g>
	<linearGradient id="SVGID_1_" gradientUnits="userSpaceOnUse" x1="651.3367" y1="2000" x2="3510.5999" y2="2000">
		<stop  offset="0" style="stop-color:#68B2FC"/>
		<stop  offset="1" style="stop-color:#529BF7"/>
	</linearGradient>
	<path class="st0" d="M884.7,1842.9c-42.2,51.3-246.9,311.5-232.7,639.8c17.3,400.6,351,682.2,370.1,698
		c76.3,62.6,138.3,91.6,216.8,190.4c126.9,159.8,91.6,244.1,185.1,354.3c167.2,197.1,488.5,173.4,544.6,169.2
		c33.6-2.5,278.3-23.9,475.9-200.9c102.8-92.1,93.9-137.7,237.9-264.4c97.8-86.1,171.2-150.6,285.5-185.1
		c153.6-46.3,208.1,13.8,317.3-47.6c96.9-54.4,139.3-149.7,169.2-216.8c74-166.2,56.8-321.4,47.6-396.6
		c-19.4-157.7-62.2-169.6-137.5-460c-35.1-135.3-52.5-204.3-47.6-269.7c11.7-155.8,87.3-192.9,126.9-359.6
		c32.9-138.4,13.5-250.7-5.3-359.6c-22.2-128.5-52.6-304.1-190.4-465.3c-42.6-49.9-212.9-235.5-465.3-264.4
		c-182.7-20.9-253.1,58.1-449.4,0c-43.6-12.9-130.4-38.6-222.1-105.8c-124.7-91.3-131.6-166.5-222.1-190.4
		c-86.6-22.8-167.7,23-248.5,68.7c-143.8,81.3-227.1,193.1-264.4,248.5c-147.7,219.7-176.1,453-200.9,676.8
		c-29.7,267.4,3.1,353.1-79.3,502.3C1031.8,1721.6,979.4,1727.8,884.7,1842.9z"/>
	<linearGradient id="SVGID_2_" gradientUnits="userSpaceOnUse" x1="843.8002" y1="1963.1654" x2="3597.5039" y2="1963.1654">
		<stop  offset="0" style="stop-color:#4085F0"/>
		<stop  offset="1" style="stop-color:#275DC9"/>
	</linearGradient>
	<path class="st1" d="M921.7,2665.1c-120,251.3-68.3,495-58.2,539.3c18.7,81.5,58.3,254.5,211.5,364.8
		c24.2,17.5,133.7,96.3,275,89.9c44.2-2,59.7-10.9,126.9-26.4c123.6-28.6,177.9-23.1,312-37c111.7-11.6,245.2-25.4,396.6-74
		c182.3-58.6,165.6-95.4,290.8-119c167.3-31.5,226.1,28.8,407.1,13.2c169.7-14.6,253.5-56.3,304-89.9c28.5-18.9,72.6-48.8,111-103.1
		c14.1-20,45.6-68.8,79.3-253.8c29.5-162.1,14.9-176.4,44.9-224.7c55.4-89,122.4-67.8,158.6-145.4c41.6-89.1-7.2-201.8-34.4-264.4
		c-32.8-75.7-60.8-91.2-87.2-177.1c-13.8-45-27.2-88.4-23.8-140.1c8.8-134,118.4-151.4,145.4-296.1c10.6-56.7,3.2-104.9-10.6-195.6
		c0,0-13.6-89.6-39.7-166.6c-49-144.9-147.4-256.5-230-338.4c-182.2-180.7-246.9-176.5-523.5-393.9
		c-233.7-183.7-223.6-215-349-272.3c-199.7-91.2-393.4-88.6-491.7-87.2c-81.7,1.1-213.5,4-372.8,58.2
		c-78.9,26.9-261.7,91.4-423,264.4c-27.3,29.3-275.8,303.7-259.1,676.8c7.3,164,64.5,316,89.9,383.3
		c51.5,136.8,92.2,183.3,134.8,333.1c35.5,124.5,57.6,202.2,44.9,296.1C1128.5,2451.7,1016.5,2466.5,921.7,2665.1z"/>
	<path class="st2" d="M863.5,3204.4c18.7,81.5,58.3,254.5,211.5,364.8c24.2,17.5,133.7,96.3,275,89.9c44.2-2,59.7-10.9,126.9-26.4
		c123.6-28.6,177.9-23.1,312-37c111.7-11.6,245.2-25.4,396.6-74c182.3-58.6,165.6-95.4,290.8-119c167.3-31.5,226.1,28.8,407.1,13.2
		c169.7-14.6,253.5-56.3,304-89.9c3.4-2.2,7-4.7,10.8-7.2l-2344.5-431C829.4,3046.7,856.5,3173.6,863.5,3204.4z"/>
	<linearGradient id="SVGID_3_" gradientUnits="userSpaceOnUse" x1="2666.5532" y1="3466.2117" x2="1751.8014" y2="875.3024">
		<stop  offset="0" style="stop-color:#68B2FC"/>
		<stop  offset="1" style="stop-color:#EBF0F7"/>
	</linearGradient>
	<path class="st3" d="M3547,2334.6c-32.8-75.7-60.8-91.2-87.2-177.1c-13.8-45-27.2-88.4-23.8-140.1c8.8-134,118.4-151.4,145.4-296.1
		c10.6-56.7,3.2-104.9-10.6-195.6c0,0-13.6-89.6-39.7-166.6c-49-144.9-147.4-256.5-230-338.4c-13.6-13.5-26.6-26-39.1-37.6
		l-1603.6-685c-30.2,7.2-61.6,16.2-94.3,27.3c-78.9,26.9-261.7,91.4-423,264.4c-27.3,29.3-275.8,303.7-259.1,676.8
		c7.3,164,64.5,316,89.9,383.3c51.5,136.8,92.2,183.3,134.8,333.1c35.5,124.5,57.6,202.2,44.9,296.1
		c-23.2,172.6-135.2,187.4-230,386c-36.6,76.8-57.3,152.8-68,222.7l2344.5,431c28.1-19.1,66.4-48,100.3-95.9
		c14.1-20,45.6-68.8,79.3-253.8c29.5-162.1,14.9-176.4,44.9-224.7c55.4-89,122.4-67.8,158.6-145.4
		C3623,2509.9,3574.1,2397.2,3547,2334.6z"/>
	<linearGradient id="SVGID_4_" gradientUnits="userSpaceOnUse" x1="1658.4663" y1="624.926" x2="3262.0579" y2="624.926">
		<stop  offset="0" style="stop-color:#4085F0"/>
		<stop  offset="1" style="stop-color:#275DC9"/>
	</linearGradient>
	<path class="st4" d="M2777.6,626.7c-233.7-183.7-223.6-215-349-272.3c-199.7-91.2-393.4-88.6-491.7-87.2
		c-65,0.9-161.5,2.9-278.5,30.9l1603.6,685C3108,839.3,3033.5,827.9,2777.6,626.7z"/>
	<g>
		<path class="st5" d="M1919.3,1698.3h38.8l7.5-1246.9l1340.1,581.7c-1.5-1.5-3-3-4.5-4.5c-33.1-32.8-62.3-59.5-89.6-82.6
			L1965.9,403.2l0.8-128.5c-10.7,0.1-20.6,0.2-29.7,0.3c-2.9,0-5.9,0.1-9,0.1l-0.7,111.2L1715.2,294c-23.8,4.3-48.7,9.7-74.5,16.4
			L1927,434.7L1919.3,1698.3z"/>
		<path class="st5" d="M1159.8,2902.8l2105.1,368.7c-0.7,0.7-1.4,1.5-2.2,2.2c-0.7,0.7-1.4,1.5-2.2,2.2c-3.9,3.9-7.8,7.7-11.7,11.2
			c-1.5,1.4-3,2.7-4.4,4c-1.1,0.9-2.1,1.9-3.2,2.8c-1.5,1.3-2.9,2.5-4.4,3.7c-2.8,2.3-5.5,4.6-8.2,6.7c-11.6,9.3-22.5,17-32.2,23.6
			h0L849.5,2927.8c0-0.1,0-0.2,0-0.3c0.3-3,0.7-6.1,1.1-9.1c0.3-2.3,0.6-4.7,0.9-7c0-0.4,0.1-0.8,0.2-1.2c0.3-2.5,0.7-5,1-7.5
			c0.1-0.7,0.2-1.4,0.3-2.2c2.4-16.3,5.4-33,8.9-49.9l224.8,39.4l15.5-469.5l0,0l13.2-399v0l19-574.9L891.5,1369
			c-0.4-2.5-0.7-5-1.1-7.5c-1.6-11.3-3.1-22.7-4.3-34.3c-0.2-2-0.4-4-0.6-6c-0.8-8.3-1.6-16.7-2.2-25.2l253.3,84.4l17.5-804.3
			l52.1-49.6l-17.1,875.8L3453.5,2145c2,6.8,4.1,13.6,6.2,20.4c3.5,11.4,7.1,21.6,10.7,30.9L1187.8,1469h0L1159.8,2902.8z"/>
	</g>
	<g>
		<path class="st6" d="M3061.1,1407.4c1.5-2.2,3.1-4.5,4.7-6.9C3064.2,1402.7,3062.6,1405,3061.1,1407.4z"/>
		<path class="st6" d="M3080.7,1245.5c2,16.2,3.6,25.7,3.6,25.7C3084.6,1263.2,3083.3,1254.6,3080.7,1245.5z"/>
		<path class="st7" d="M3395.9,1176.4c-80.3,39.3-218.8,49.1-223.6,157.5c2.7-0.2,5.3-0.4,7.9-0.6c2.3-4.2,6.7-12.2,15.1-27.6
			C3212.7,1273.9,3385.4,1208.7,3395.9,1176.4z"/>
		<path class="st7" d="M3006.7,1242.4c-23-96.4-82.2-188.5-177.6-219c132.6,104,64.2,236.7,161,268.7c-6.6,1.5-12.7,2.9-18.3,4.3
			c2.6,0.9,5.2,1.9,7.8,2.9C3016.6,1314.1,3014.1,1264.7,3006.7,1242.4z"/>
		<path class="st6" d="M3395.9,1176.4c0.2-0.5,0.3-1,0.4-1.5c-187.7-32.6-257.3,119.9-257.3,119.9c-0.4-6-0.7-11.8-1-17.6
			c-1.9,0.1-3.7-0.7-5.2-2.6c-49.4-69.2-29.7-153.3-12.4-237.4c14-69.8,45.4-137.4,113-161.6c0.9-1.9,1.7-3.7,2.5-5.6
			c-184,14.8-165.6,289.3-155.2,375.6c2.6,9,3.9,17.7,3.6,25.7c0,0-1.7-9.6-3.6-25.7c-27.6-95.4-205.1-236.4-259.9-228.4
			c2.8,2.1,5.6,4.2,8.2,6.3c95.4,30.5,154.7,122.6,177.6,219c7.4,22.3,9.9,71.7-27.2,56.9c-2.6-1-5.2-2-7.8-2.9
			c-65.1,16.2-65.2,31.4-103.3,128.8c4.7-7.7,10.8-14,18-19.3c49.7-54.2,126.4-74.9,199.4-62c-58.4,27.4-81.8,92.6-86,157.6
			c6.5-26.9,19.6-32.3,61.4-94c1.5-2.4,3-4.7,4.7-6.9c-1.6,2.4-3.1,4.7-4.7,6.9c-40.8,65.8-11.2,181.5,36.4,226.6
			c-3.6-19.4-4.5-36.7-3.4-53c-22.5-71.3-2.1-157.9,43.5-215c98.9-4.9,175.5,54.4,225,136c5.1,8.2,9.6,17.4,13.2,27
			c2-12.6,3.5-33.4,2.8-67.7c-25.6-142.8-200.9-123.4-200.9-123.4s0,0,2.5-4.6c-2.6,0.2-5.3,0.4-7.9,0.6
			C3177.1,1225.5,3315.6,1215.7,3395.9,1176.4z"/>
		<path class="st7" d="M3085.8,1343.8c-73-12.9-149.7,7.8-199.4,62c29.1-21.4,76.2-24.6,122.1-20.3c-57.3,31.7-28.2,119-15,164.8
			c2-23.4,3.6-37.9,6.2-48.9C3004,1436.3,3027.4,1371.2,3085.8,1343.8z"/>
		<path class="st7" d="M3120.4,1037.2c-17.3,84.1-37.1,168.1,12.4,237.4c1.5,1.9,3.3,2.6,5.2,2.6c-15-293.5,59.7-324.6,95.4-401.6
			C3165.9,899.8,3134.4,967.4,3120.4,1037.2z"/>
		<path class="st8" d="M3160,2149.8c17.3-153.3-29.7-299.2-9.9-452.5c15.1-109.2,15.7-221.2-19.7-323.1l-21.8,13.9
			c20.5,363.1,18.3,755.5,0,1168.6c0,0,9.1,2.1,20.1,2.8c4.2-23.4,11.6-46.4,19-68.5C3179.7,2377.3,3147.6,2266,3160,2149.8z"/>
		<path class="st9" d="M3142.5,1366.5l-12.1,7.7c35.4,101.8,34.8,213.9,19.7,323.1c-19.8,153.3,27.2,299.2,9.9,452.5
			c-12.4,116.2,19.8,227.5-12.4,341.2c-7.4,22.1-14.7,45.2-19,68.5c9,0.6,19.3,0.3,27.1-2.8
			C3198.1,2539.5,3188.9,1368,3142.5,1366.5z"/>
		<path class="st7" d="M3137.7,1366c-45.7,57.1-66,143.7-43.5,215c3.9-54.8,31.1-98.4,56.2-171.7
			c111.9-31.7,217.7,139.2,217.7,139.2s4.6,0.3,7.8-19.5c-3.5-9.6-8.1-18.8-13.2-27C3313.3,1420.4,3236.6,1361.1,3137.7,1366z"/>
		<path class="st10" d="M3163.8,2469.4c3.4,40,9.5,79.8,11,120.5c0,59.3,2.5,121.1-2.5,180.5c-2.5,29.7-4.9,59.3-12.4,91.5
			c-22.3,113.7-56.9,207.7-121.1,304.1c-29.7,44.5-76.6,54.4-121.1,42c-7.4-2.5-12.4-14.8-14.8-24.7c-19.8-47-9.9-98.9-24.7-145.9
			c-6.5-19.4-12.5-38.8-19.6-57.8l32.3,443.6c164.7-15.2,246.9-56.2,296.7-89.2c1.3-0.8,2.6-1.7,3.9-2.6l78.1-832.8
			C3269.4,2498.5,3229,2481.2,3163.8,2469.4z"/>
		<path class="st11" d="M2902.8,3183.3c2.5,9.9,7.4,22.3,14.8,24.7c44.5,12.4,91.5,2.5,121.1-42c64.3-96.4,98.9-190.4,121.1-304.1
			c7.4-32.1,9.9-61.8,12.4-91.5c4.9-59.3,2.5-121.1,2.5-180.5c-1.5-40.7-7.6-80.5-11-120.5c-83.5-15.1-207.7-21.3-340.3,29.1
			l35,481.1c7.2,19,13.2,38.4,19.6,57.8C2892.9,3084.4,2883.1,3136.3,2902.8,3183.3z"/>
	</g>
	<path class="st12" d="M2356.4,1366.5c0,0-89.9-34.8-106.6-122.9c-16.7-88.1-4.4-114.6-59-151.6c-54.6-37-59-232.2,44.9-196.3
		c45.8,70.2,194.8,281.8,194.8,281.8l16.7,130.4l-7.9,30L2356.4,1366.5z"/>
	<path class="st12" d="M2228.9,919.3c0,0-87.5-115.2,19.4-149.8c18.2-57,173.3-85.2,254.4,17c81.1,102.2,54.1,158.6,82.3,211.5
		s173.9,142.2,172.7,253.8c-105.8,35.3-206.8,11.8-206.8,11.8L2228.9,919.3z"/>
	<path class="st13" d="M2591.3,1264.7c4.5,3.5,9.2,6.4,14.1,8.9c10.1-17.2,17.1-37.1,19.8-59.9c-68.7-49.4-88.1-68.7-95.2-102.2
		c-5.5-26-1.9-84.3-33.4-110.4C2501.4,1096.3,2501.4,1204,2591.3,1264.7z"/>
	<path class="st14" d="M2591.3,1264.7c-89.9-60.7-89.9-168.4-94.7-263.6c-9.1-7.5-21.1-12.4-37.1-13c-71.4-2.6-82-18.5-86.4-52
		c-4.4-33.5,19.8-77.8-5.3-90.8c-49.4-25.6-106.6,25.6-106.6,25.6s-60.8,30-30,122.5c30.8,92.5,89,218.6,166.6,177.1
		c0,0,18.5,134.2-5,193.6c58.7,10.8,167.1-12.5,212.6-90.5C2600.5,1271.1,2595.8,1268.1,2591.3,1264.7z"/>
	<g>
		<path class="st5" d="M2998,1740.6c0.4-20.6,0.8-50.9,1.4-85.1c1.6-103.2,4.6-241.4,13.9-251.5c7.2-7.9,12.7-20.6,24.4-28
			c-54.5-17.8-185.9,6-185.9,6l-108.1,912.1l31.4,58.2l25.7,10.1c10-20.6,15.9-32.8,19.4-40.1c5.1-10.6,5.1-10.6,5.1-10.6
			s236.2,15.8,211.5-137.5C3012.1,2020.9,2996.2,1823.5,2998,1740.6z"/>
		<path class="st15" d="M3046.4,1853.4c-18.9-178.4,4.9-311.5,13.9-390.4c-0.5,1.5-1.1,2.9-1.8,4.4c0.7-1.4,1.2-2.9,1.8-4.4
			c1.4-12.3,2.5-23.2,2.9-32.8c-3-19.9-13.5-39.3-25.2-54.5c-0.2,0.1-0.3,0.2-0.5,0.3c-11.7,7.4-17.2,20.1-24.4,28
			c-9.3,10.1-12.2,148.3-13.9,251.5c-0.5,34.2-0.9,64.5-1.4,85.1c-1.8,82.9,14.1,280.2,38.8,433.6
			c24.7,153.3-211.5,137.5-211.5,137.5s0,0-5.1,10.6c-3.5,7.2-9.4,19.5-19.4,40.1c-1.2,2.4-2.4,4.9-3.6,7.5
			c68.7,3.5,190.4,30,264.8-84.6C3136.3,2170.7,3073.8,2110.8,3046.4,1853.4z"/>
	</g>
	<path class="st16" d="M2232.8,1667.7c-37.1-59.3-7.4-133.5,37.1-178c20.3-21.6,46.5-36.6,75.5-45.8l4-115c0,0-131.6,40-150.4,114
		c-18.8,74-54.1,526.1-54.1,526.1l74.4-2.1c10.1-19.9,19.7-38.8,25.9-59.3C2272.4,1830.8,2279.8,1744.3,2232.8,1667.7z"/>
	<path class="st17" d="M2269.9,1489.7c-44.5,44.5-74.2,118.7-37.1,178c47,76.6,39.6,163.2,12.4,239.8c-6.2,20.5-15.7,39.3-25.9,59.3
		l142.1-4l-19.1-430.1l3.1-88.8C2316.4,1453,2290.2,1468.1,2269.9,1489.7z"/>
	<path class="st17" d="M2710,1714.6c-61.8,89-148.3,140.9-244.8,170.6c-44.9,12.8-97.1,9-147.2-1.8c0.5,12.5,0.5,20.3,0.5,20.3
		l22,96.3c0,0,160.4,100.2,428.3,61.4c84.3-144.6,57.7-437.5,18.1-641.2c-18.1,39.7-27.3,84.6-30,128.8
		C2754.5,1605.9,2744.6,1665.2,2710,1714.6z"/>
	<path class="st16" d="M2578.3,1245.9c-30.1,30.7-64.4,72.2-72,82.9c-12.3,17.3-29.8,16.2-29.8,16.2s-62.7-33.5-95.3-27.3
		c-32.6,6.2-41.6,14.5-61.9,28.3c-20.3,13.8-30.6,120.7-30.6,120.7s-41.4,79.8-52.9,122.5c-11.7,43.6,9.7,73.2,32.4,105.6
		c61,16.3,125.4,16.5,189.7,5.2c138.5-24.7,242.3-128.6,267-272c2.5-7.4,9.9-4.9,14.8-4.9c-4.9,24.7,22.3,34.6,22.3,59.3
		c0.3,4.4,0.9,8.4,1.9,12.2c5-25.7,12.5-50.9,23.1-74.2c-8.1-41.6-16.7-79.4-25.1-111.6c-0.8-0.6-1.6-1.3-2.4-1.9
		C2702,1266.5,2641.6,1248.5,2578.3,1245.9z"/>
	<path class="st18" d="M2722.1,1200.7c-30.8-11.2-79.3,8.4-100.1,10.4c-8,0.8-25,15.7-43.7,34.8c63.4,2.6,123.7,20.6,181.2,60.8
		c0.8,0.6,1.6,1.3,2.4,1.9C2745.3,1244.8,2729.9,1203.5,2722.1,1200.7z"/>
	<path class="st18" d="M2739.7,1422.9c-4.9,0-12.4-2.5-14.8,4.9c-24.7,143.4-128.6,247.2-267,272c-64.4,11.4-128.7,11.1-189.7-5.2
		c5.1,7.3,10.3,14.7,15.2,22.5c26.7,41.4,33.2,127.1,34.7,166.3c50.1,10.8,102.3,14.7,147.2,1.8c96.4-29.7,183-81.6,244.8-170.6
		c34.6-49.4,44.5-108.8,47-165.7c1.1-18.2,3.3-36.5,6.8-54.6c-1-3.8-1.6-7.8-1.9-12.2C2761.9,1457.5,2734.7,1447.6,2739.7,1422.9z"
		/>
	<path class="st19" d="M2361.4,1257.7l-12,71.1c0,0,36.6,15,60.4,13.1c23.7-2,62,16.7,66.7,15c4.7-1.8,5.1-15.9,5.1-19.4
		c0-3.5-49.8-61.7-59.9-61.2C2411.5,1276.7,2366.8,1244,2361.4,1257.7z"/>
	<path class="st19" d="M2496.2,1341.1c-1.7,0.8-9.8-72,6.8-91.4c16.6-19.4,70.1-59,77.8-78.9c19.4,1.2,44.4,35.8,44.4,35.8
		S2556.7,1311.8,2496.2,1341.1z"/>
	<path class="st17" d="M2913.4,1515c-33.7-152.3-68.1-239.4-116.1-281.3c80.8,124.1,81.4,266.7,108,409.2
		c7.4,39.6,22.3,74.2,29.7,113.7c7.4,51.9,4.9,106.3-32.1,145.9c-37.1,34.6-86.5,42-133.5,47c-112.3,10.8-219,38.6-329.9,37.2
		c16.2,23.1,43.3,27.1,43.3,27.1s265-7,402.4-47.6C3022.6,1925.7,2955.7,1706.3,2913.4,1515z"/>
	<path class="st16" d="M2848.4,1786.3c39.6-133.5-24.7-264.6-44.5-400.5c-4.9-29.7-17.3-59.3-44.5-79.1
		c-43.2-30.3-88.1-47.9-134.7-55.9l72.7,292.4l41.4,64c0,0,22.3,131,36.4,180.4c-49.4-8.2-277.9,74-294.3,75.8
		c-15.6,1.7-48.4,16-53,70.2c24.3-5.2,48.8-10.3,74.3-13.8C2625.9,1900.1,2806.4,1927.3,2848.4,1786.3z"/>
	<path class="st18" d="M2935,1756.7c-7.4-39.6-22.3-74.2-29.7-113.7c-26.6-142.6-27.2-285.1-108-409.2
		c-12.2-10.7-25.4-18.5-39.6-23.6c-69.9-25.3-141,8.2-141,8.2l8.1,32.4c46.6,8,91.5,25.6,134.7,55.9c27.2,19.8,39.6,49.4,44.5,79.1
		c19.8,136,84.1,267,44.5,400.5c-42,140.9-222.5,113.7-346.1,133.5c-25.5,3.5-50,8.6-74.3,13.8c-0.3,3.1-0.4,6.3-0.5,9.7
		c-0.4,19.1,4.7,33.1,11.9,43.4c110.9,1.4,217.6-26.4,329.9-37.2c47-4.9,96.4-12.4,133.5-47C2939.9,1863,2942.4,1808.6,2935,1756.7z
		"/>
	<path class="st20" d="M2444.5,1895.2c0,0,6.5-18.9,25.9-23c19.4-4,47,32.4,49.4,71.7c2.3,39.4-11.5,63.7-27.6,67
		c-16.2,3.2-61.4-30.6-58.2-62.9C2437.2,1915.7,2444.5,1895.2,2444.5,1895.2z"/>
	<path class="st14" d="M2478.6,1894.6c0,0-118.1-14.1-158.6,56.4c-40.5,70.5,112.8,59.9,112.8,59.9s53.4-21.2,76.9-24.1
		C2522.7,1915.1,2492.7,1894.6,2478.6,1894.6z"/>
	<g>
		<polygon class="st21" points="1577.4,1607.2 2037.4,1486.8 2232.3,1885.2 1797.7,1987.4 		"/>
		<polygon class="st5" points="2037.4,1486.8 2072.6,1493.9 2258.6,1876.4 2232.3,1885.2 		"/>
		<path class="st5" d="M2522.7,2020.9l-34.5-0.3c0,0,0,0-0.1,0l-228.5-121l15.8-24.4L2522.7,2020.9z"/>
		<polygon class="st5" points="2275.4,1875.2 2259.6,1899.6 1899,1978.6 1935.6,1953.4 		"/>
		<path class="st15" d="M2488.2,2020.6l-287.4,52.6l-301.7-94.6l360.6-79L2488.2,2020.6C2488.1,2020.6,2488.2,2020.6,2488.2,2020.6z
			"/>
	</g>
	<path class="st14" d="M1387.2,2928.6c34.8-7,64.9-25.7,96.1-42.1c0.7-29.2,0-53.1,0-53.1l-85.2-77.6c0,0-45.5,96.7-83.4,165.7
		C1333.1,2936.3,1366.1,2932.4,1387.2,2928.6z"/>
	<path class="st12" d="M1483.3,2886.5c-31.2,16.4-61.3,35.1-96.1,42.1c-21.1,3.8-54.1,7.7-72.5-7c-12.4,22.5-23.9,42.1-32.9,54.4
		c-36.4,50.1-133.4,144.7-121,159.4c12.3,14.7,103.4,82.8,246.8-132.2c13.5,60.5,23.5,102.2,23.5,102.2s22.9,9.4,33.5-1.2
		c10.6-10.6-5.3-89.9,8.2-124.6C1480,2961.1,1482.6,2920.3,1483.3,2886.5z"/>
	<path class="st22" d="M2007.8,2172c49.4,29.7,91.5,66.8,145.9,86.5c197.8,71.7,405.5,140.9,613.2,89c50.7-12.4,78.5-55,93.6-106.6
		c-1.6-146.3-59.9-241.3-59.9-241.3l-405.4,22.9l-63.5,24.7c0,0-481.2-183.3-562.2-52.9c-81.1,130.4-400.1,703.2-401.9,757.9
		c0,0,51.7,123.4,144.5,104.6c53-56.7,111.8-125.4,169.2-196.8c71.8-121.5,84.9-271.1,111.4-413.9
		C1812.5,2142.4,1928.7,2130,2007.8,2172z"/>
	<path class="st23" d="M2766.9,2347.6c-207.7,51.9-415.4-17.3-613.2-89c-54.4-19.8-96.4-56.9-145.9-86.5
		c-79.1-42-195.3-29.7-215.1,74.2c-26.5,142.8-39.6,292.3-111.4,413.9c106.5-132.7,208.1-274.8,258.5-367.2
		c118.7,75.2,358.4,151,575.2,121c216.8-30,343.7-7.1,345.5-160.4c0-4.2,0-8.4,0-12.5C2845.3,2292.6,2817.5,2335.2,2766.9,2347.6z"
		/>
	<path class="st5" d="M2002,2416.2c0,0,431.4-48.1,530.1-44.6c98.7,3.5,337.7,48.8,337.7,48.8s41.2,8.4,21.2,80.1
		c-20,71.7-78.2-4.3-167.5-2c-89.3,2.3-202.1-9.4-202.1-9.4s-505.9,64.5-537.6,49.2C1952.2,2523.1,2002,2416.2,2002,2416.2z"/>
	<path class="st15" d="M1996.9,2512l556.2-60.3c0,0,306.6,40.2,305.4,70.8c-1.1,30.5-513.3,85.3-583,72.8
		C2205.7,2582.7,1993.7,2539.5,1996.9,2512z"/>
	<path class="st5" d="M2160,2549.1c-1.2,10.5-12.3,47.9,1.8,66.5c19.1,25.3,155.8-17.4,172.9-14.3c16.9,3,88.3,11.9,166.3,17.6
		l3.2-107.1L2160,2549.1z"/>
	<path class="st24" d="M2700.2,2555.6c0.7-19.1-191.5-44.4-191.5-44.4l-4.6,0.5l-3.2,107.1c74.2,5.3,154.4,7.7,199.2-0.8
		C2703.3,2593.8,2700,2560.3,2700.2,2555.6z"/>
	<path class="st25" d="M2160,2611.5l79.8-8.7l268.9-29.2c0,0,192.2,25.2,191.5,44.4c-0.7,19.1-321.8,53.5-365.6,45.7
		C2290.9,2655.9,2158,2628.8,2160,2611.5z"/>
	<path class="st25" d="M2201.1,2612.7l67.7-7.3l228-24.7c0,0,163,21.4,162.3,37.6c-0.6,16.2-272.8,45.4-309.9,38.7
		C2312.1,2650.3,2199.4,2627.4,2201.1,2612.7z"/>
	<path class="st26" d="M2390.1,2782.4c0-2.9,5.8-8.8,8.8-14.6c7.4-49.4,14.8-115.5,54-148.8c-32-4.6-75.9,6.8-92.9,23.1
		c0,0-7.5,349.5-9,518.6C2405.7,3043.9,2374.3,2910.8,2390.1,2782.4z"/>
	<path class="st27" d="M2452.9,2619c-39.2,33.3-46.6,99.4-54,148.8c-2.9,5.8-8.8,11.7-8.8,14.6c-15.7,128.4,15.6,261.5-39.1,378.2
		c-0.4,49.5-0.3,83.5,0.7,88.8c5.4,17.2,20.4,26.4,37.5,29.1c7.9-9.5,13.3-21.9,15.5-37.8c31.6-206.6-4.6-416,74.6-611.6
		C2472.7,2623.7,2463.4,2620.5,2452.9,2619z"/>
	<path class="st15" d="M2479.3,2629.1c-79.1,195.6-43,405-74.6,611.6c-2.2,15.9-7.7,28.3-15.5,37.8c32.3,5.1,72.4-12.9,70.9-44.4
		l28.1-592.4C2486.5,2636.6,2483.4,2632.4,2479.3,2629.1z"/>
	<path class="st21" d="M2419.3,3360.4c-2.8-41.6-16-80.5-7.4-121.9l-60.7,5.6c0,0-148.3,128.8-230.6,218.9
		c-44.9,49.2-52.7,58.2-83.8,95.7c0,0,104.6-15,148.7-29.2c137.6-44.2,161.9-76,219.4-99.1
		C2414.8,3409.2,2420.2,3385.5,2419.3,3360.4z"/>
	<path class="st25" d="M2460,3234.1l-48.1,4.4c-8.7,41.3,4.6,80.3,7.4,121.9c0.9,25.2-4.4,48.9-14.5,70.1
		c18.7-7.5,40.8-14.1,71.5-19.8c126.1-23.8,190.6,4.7,292.2,13.4L2460,3234.1z"/>
	<path class="st14" d="M1765.5,3437.9c33.7-24.4,47.6-58.7,67.4-90c-1-6.2-2.4-11.5-4.1-15.7c-17-41.1-9.4-62.3-9.4-62.3
		l-121.6-20.6c0,0-20.9,185.1-24.2,203.9c-0.5,2.2-1.1,4.3-1.7,6.4C1703.3,3465.9,1738.5,3456.5,1765.5,3437.9z"/>
	<path class="st12" d="M1832.9,3347.9c-19.8,31.3-33.7,65.6-67.4,90c-27.1,18.6-62.2,27.9-93.6,21.7
		c-34.9,134.8-78.9,198.9-55.2,218c24.1,19.4,146.9-38.2,165.7-179.2c15.9,97.5,15.9,97.5,15.9,97.5s23.5,4.7,37.6-15.9
		C1826.4,3529.5,1842,3402.9,1832.9,3347.9z"/>
	<path class="st15" d="M2680.3,1838.3c-7.4-2.5-19.8,0-19.8,7.4c-4.9,32.1-9.9,61.8-4.9,94c22.5,130.5,8.2,254.8,25.9,380.4
		c33.4,10.7,62.1-26,62.1-26s-22.6-242.9-24.8-289.7c-2.2-46.8,28.4-22.8,84.8,42.3c75,87.9,151,84.5,160.8,53.4
		C2870.5,2008.6,2793.9,1909.9,2680.3,1838.3z"/>
	<path class="st28" d="M2906.9,2000c0,0-108.1-106.6-210.9-184.2c-102.8-77.6-83.4,28.2-83.4,28.2l47,461.8
		c7.4,7.5,14.7,11.9,21.9,14.2c-17.7-125.6-3.4-249.9-25.9-380.4c-4.9-32.1,0-61.8,4.9-94c0-7.4,12.4-9.9,19.8-7.4
		c113.6,71.6,190.2,170.3,284,261.7c0.3-1.1,0.6-2.2,0.8-3.3C2970.4,2062.6,2906.9,2000,2906.9,2000z"/>
	<path class="st17" d="M2471.8,1842c0,0,9.7-57.3-40.9-129.5c-70.9-96.1-31.3-151.6,0-198.3c31.3-46.7,45.5-140.1,45.5-140.1
		l14.2-1.2c0,0-3.5,64.6-29.4,104c-25.9,39.4-57.2,101.7-50.2,159.3C2418.2,1693.7,2487.4,1720.1,2471.8,1842z"/>
	<path class="st22" d="M1866.9,3153.6c39.6-108.8,64.3-217.6,91.5-331.3c4.9-19.8,7.4-42,9.9-61.8c19.8-165.7,51.9-326.4,39.6-492
		c-2.5-19.8-14.8-39.6-27.2-56.9c-5.9-9.8-8.7-22.7-13.3-28.8c-129.2-22.1-161.9,58.5-175,146.6c-14.1,95.2-143.7,892.4-114.6,916.5
		c0,0,57.1,66.4,140.2,40.1c7.8-18.3,17.4-35.8,24.2-53.2C1852.1,3208,1857,3178.3,1866.9,3153.6z"/>
	<path class="st29" d="M2000.4,2190.1c-11.7-3.1-22.6-5.6-33-7.3c4.6,6.2,7.4,19,13.3,28.8c12.4,17.3,24.7,37.1,27.2,56.9
		c12.4,165.7-19.8,326.4-39.6,492c-2.5,19.8-4.9,42-9.9,61.8c-27.2,113.7-51.9,222.5-91.5,331.3c-9.9,24.7-14.8,54.4-24.7,79.1
		c-6.7,17.5-16.4,35-24.2,53.2c12.6-4,25.9-10.1,39.6-19C1922.8,3087.2,2157.2,2232.4,2000.4,2190.1z"/>
	<path class="st13" d="M2444.5,1136.1l-50.4,36.2c0,0,4.7,8.3,7.4,36.9C2443.4,1200.2,2449.2,1144.2,2444.5,1136.1z"/>
	<linearGradient id="SVGID_5_" gradientUnits="userSpaceOnUse" x1="1884.6346" y1="1760.245" x2="1961.4908" y2="1760.245">
		<stop  offset="0" style="stop-color:#68B2FC"/>
		<stop  offset="1" style="stop-color:#529BF7"/>
	</linearGradient>
	<path class="st30" d="M1884.6,1790.1v-59.7c0-9.3,10.6-14.5,18-8.8l54.6,42.4c7.1,5.5,5.1,16.7-3.5,19.4l-54.6,17.2
		C1891.9,1803,1884.6,1797.6,1884.6,1790.1z"/>
	<circle class="st15" cx="2442.6" cy="1463.1" r="8.8"/>
	<path class="st15" d="M2391.2,1561.3c0,4.9-4,8.8-8.8,8.8c-4.9,0-8.8-4-8.8-8.8c0-4.9,4-8.8,8.8-8.8
		C2387.3,1552.5,2391.2,1556.4,2391.2,1561.3z"/>
	<path class="st15" d="M2412.8,1700.4c0,4.9-4,8.8-8.8,8.8c-4.9,0-8.8-4-8.8-8.8c0-4.9,4-8.8,8.8-8.8
		C2408.9,1691.6,2412.8,1695.5,2412.8,1700.4z"/>
	<circle class="st15" cx="2449.8" cy="1821.7" r="8.8"/>
	<polygon class="st19" points="1399.2,658.4 1640.7,1357 1619.3,1222.7 1488.9,880.6 	"/>
	<polygon class="st19" points="1570.9,701.9 1698.1,1112.6 1673.6,935.8 1543.1,593.8 	"/>
	<polygon class="st19" points="1395.4,1836.1 1522.6,2246.8 1498.1,2070 1367.6,1728 	"/>
	<linearGradient id="SVGID_6_" gradientUnits="userSpaceOnUse" x1="3647.6025" y1="1400.4716" x2="3903.8669" y2="1400.4716">
		<stop  offset="0" style="stop-color:#4085F0"/>
		<stop  offset="1" style="stop-color:#275DC9"/>
	</linearGradient>
	<circle class="st31" cx="3775.7" cy="1400.5" r="128.1"/>
	<linearGradient id="SVGID_7_" gradientUnits="userSpaceOnUse" x1="96.1332" y1="2322.2578" x2="548.3267" y2="2322.2578">
		<stop  offset="0" style="stop-color:#68B2FC"/>
		<stop  offset="1" style="stop-color:#529BF7"/>
	</linearGradient>
	<circle class="st32" cx="322.2" cy="2322.3" r="226.1"/>
	<linearGradient id="SVGID_8_" gradientUnits="userSpaceOnUse" x1="3729.9509" y1="3564.0359" x2="3863.147" y2="3564.0359">
		<stop  offset="0" style="stop-color:#4085F0"/>
		<stop  offset="1" style="stop-color:#275DC9"/>
	</linearGradient>
	<circle class="st33" cx="3796.5" cy="3564" r="66.6"/>
	<linearGradient id="SVGID_9_" gradientUnits="userSpaceOnUse" x1="3589.3318" y1="2932.0962" x2="3870.5703" y2="2932.0962">
		<stop  offset="0" style="stop-color:#68B2FC"/>
		<stop  offset="1" style="stop-color:#529BF7"/>
	</linearGradient>
	<circle class="st34" cx="3730" cy="2932.1" r="140.6"/>
</g>
</svg>
