<?xml version="1.0" encoding="utf-8"?>
<!-- Generator: Adobe Illustrator 24.0.0, SVG Export Plug-In . SVG Version: 6.00 Build 0)  -->
<svg version="1.1" id="Vector" xmlns="http://www.w3.org/2000/svg" xmlns:xlink="http://www.w3.org/1999/xlink" x="0px" y="0px"
	 viewBox="0 0 3000 3000" style="enable-background:new 0 0 3000 3000;" xml:space="preserve">
<style type="text/css">
	.st0{fill:none;stroke:#1A1A1A;stroke-width:4.5974;stroke-linecap:round;stroke-linejoin:round;stroke-miterlimit:10;}
	.st1{fill:#FFFFFF;stroke:#1A1A1A;stroke-width:3.0649;stroke-linecap:round;stroke-linejoin:round;stroke-miterlimit:10;}
	.st2{fill:#1A1A1A;stroke:#1A1A1A;stroke-width:3.0649;stroke-linecap:round;stroke-linejoin:round;stroke-miterlimit:10;}
	.st3{fill:none;stroke:#1A1A1A;stroke-width:3.0649;stroke-linecap:round;stroke-linejoin:round;stroke-miterlimit:10;}
	.st4{fill:#5067EF;stroke:#1A1A1A;stroke-width:3.0649;stroke-linecap:round;stroke-linejoin:round;stroke-miterlimit:10;}
	.st5{fill:#8E9DF4;stroke:#1A1A1A;stroke-width:3.0649;stroke-linecap:round;stroke-linejoin:round;stroke-miterlimit:10;}
	.st6{fill:#1A1A1A;}
</style>
<g>
	<path class="st0" d="M188.7,1452.5c-71,335.9,136.1,726.4,349.6,756c133.7,18.5,172.4-117.9,388.9-148.6
		c97.2-13.8,190.8-0.7,493.8,122.4c502.6,204.1,495.9,269.8,642.4,270.9c283.9,2.2,644.6-242,668.6-572.4
		c12.3-169.4-72.3-298.6-174.8-445.7c-72.5-104.1-391.8-562.6-1005-664.2c-123.4-20.4-567.5-87.2-965.7,179.2
		C473.5,1025.4,246.9,1177,188.7,1452.5z"/>
	<path class="st1" d="M124.9,1243.3C26.6,1405.5,138.8,1701.7,315,1866c155,144.5,252,86.7,740.7,291.7
		c232.8,97.6,240.7,123.3,376.9,157.3c118.4,29.6,350,84.3,619.4,0c103.5-32.4,380.9-119.2,530.9-399.8
		c29.9-55.9,130.5-261.4,75.4-511.3c-76.4-346.2-392.5-509-517.8-573.5c-53.7-27.7-378.5-189.2-766.9-104.9
		c-290.5,63-278.6,190.2-665.3,324.5C352.6,1173.4,203.3,1114.1,124.9,1243.3z"/>
	<path class="st1" d="M2305.8,925.7c-65.3-43.8-125.1-74.6-165.3-95.3c-53.7-27.7-378.5-189.2-766.9-104.9
		c-263.2,57.1-278.1,166.9-566.2,286.8l587.9,587.9h236L2305.8,925.7z"/>
	<path class="st1" d="M1395.3,1600.2l-587.9-587.9c-29.9,12.4-62.7,25-99.1,37.6c-291.8,101.3-444.6,79.6-533.4,139.8l1203.3,410.5
		H1395.3z"/>
	<path class="st1" d="M174.9,1189.8c-19.5,13.2-35.9,30.3-49.9,53.5c-55.8,92-43.8,227.2,9.2,356.9h1244L174.9,1189.8z"/>
	<path class="st1" d="M2305.8,925.7l-673.7,673.7l949-392.4C2507,1080.1,2400.7,989.2,2305.8,925.7z"/>
	<path class="st1" d="M2658.3,1403.9c-16.3-73.7-43.4-139.1-77.2-196.9l-949,392.4l-0.9,0.9H2673
		C2676.9,1539.8,2673.7,1473.6,2658.3,1403.9z"/>
	<path class="st1" d="M1526.7,2336.5c-36.3-7.2-68-14.9-94.1-21.5c-128.9-32.2-142.9-56.9-341.7-142.4
		c10.4-109.8,35.4-191.4,35.4-191.4l32.6-99.3l322.8-99.3L1526.7,2336.5z"/>
	<path class="st1" d="M1911.1,2347.9c-99.7,15.6-191.4,14.3-270.6,6c-3.6-148.9-52.1-199.7-23.6-323.1c0,0,222.9-9.1,290.6,2.9
		C1890.8,2094.1,1903.1,2261.4,1911.1,2347.9z"/>
	<g>
		<g>
			<path class="st1" d="M1911.1,2347.9c-99.7,15.6-191.4,14.3-270.6,6c-3.6-148.9-52.1-199.7-23.6-323.1c0,0,222.9-9.1,290.6,2.9
				C1890.8,2094.1,1903.1,2261.4,1911.1,2347.9z"/>
			<path class="st2" d="M1709.7,1017.3l37.6,42.7l24.2,305.3l79.9,74l5.5-15.3c0,0-49.7-89.5-31-132.7
				c18.7-43.2,40.3-220.9,10.3-252.3C1783.3,985.6,1709.7,1017.3,1709.7,1017.3z"/>
			<path class="st1" d="M1623.6,1378l81.6-68l96.1,34c0,0,106.3,134.9,113.9,214.6c7.7,79.6-25.5,297.3-25.5,304.1
				s24.3,180.6,26.7,184.5c9.6,16.2-304.3,21.1-312.4,5.1c0,0,9.6-165.8,25.5-205.8C1645.5,1806.5,1623.6,1378,1623.6,1378z"/>
			<path class="st1" d="M1643.1,1360.1c0,0-47.9,22.1-44.8,123.3s4.8,268.7,44.8,295.1c40,26.4,74.8-79.9,74.8-79.9
				s26.2-194.5,21.4-269.1L1643.1,1360.1z"/>
			<polygon class="st1" points="1690.8,1224.9 1690.8,1335.5 1803.9,1357.3 1780,1267.4 			"/>
			<path class="st1" d="M1695,1067.6c0,0,121.6-94.4,134.3,39.1c12.8,133.5-18.7,184.3-57.8,184.4s-95.2-78.1-95.2-78.1L1695,1067.6
				z"/>
			<path class="st2" d="M1710.7,1019.2l36.6,40.8c0,0-45.5,20.4-48,78.2c-2.6,57.8,11.8,188.8-8.5,197.3
				c-25.8,10.7-86,64.8-80.8,67.3c0,0-3-208.9,12.3-310.9C1633.2,1019,1710.7,1019.2,1710.7,1019.2z"/>
			<polygon class="st2" points="1821.7,1479.5 2089.8,1579.5 1936.2,1942 1699.3,1852.5 			"/>
			<path class="st1" d="M1676.3,1797.2c0,0,170.9,24.7,278.9,18.7c74,18.7,89.3,0.9,89.3,0.9v-88.5h-21.3l21.3-28.1v-11.1
				c0,0-81.6,40.9-102,67.6c-100.3,3.8-181.1-33.6-181.1-33.6L1676.3,1797.2z"/>
			<polygon class="st1" points="1643.1,1770.8 1636.3,1800.6 1699.3,1841.4 1785.1,1719.8 1731.6,1684.9 			"/>
		</g>
		<path class="st2" d="M1737.8,1035.2c0,0-21,18.6,9.5,24.7c41.4-4.1,81.9,9.1,73.9,44c-8,35,19.7,43.3,19.7,43.3
			s11.7-69.6-10.2-89.6S1769.8,1028.4,1737.8,1035.2z"/>
		<path class="st2" d="M1764.5,1059.3c0,0-34.9,3.2-36,78c-0.6,74.3-3.3,67.7-3.3,67.7l-9.8-14.7c0,0-31.1-120.9,33.3-140.2
			L1764.5,1059.3z"/>
	</g>
	<g>
		<path class="st1" d="M1526.7,2336.5c-36.3-7.2-68-14.9-94.1-21.5c-128.9-32.2-142.9-56.9-341.7-142.4
			c10.4-109.8,35.4-191.4,35.4-191.4l32.6-99.3l322.8-99.3L1526.7,2336.5z"/>
		<path class="st2" d="M1161.7,1913.5c0,0,133.2,46.4,340.8-20.6c-4.4-39.9-4.4-39.9-4.4-39.9l-327,17.5L1161.7,1913.5z"/>
		<path class="st1" d="M1217.4,1198.8c0,0-203.5,88.4-193.3,150.8c10.2,62.4,103.9,171.8,89.7,320.3
			c-14.3,148.5-16.5,232.4,150.1,231.3c166.7-1.1,210.6-30.3,210.6-30.3s36.6-585.3-29.2-617
			C1379.6,1222.1,1217.4,1198.8,1217.4,1198.8z"/>
		<path class="st3" d="M1317.6,1280.3c0,0,101.2,376.6,65.7,612.6L1317.6,1280.3z"/>
		<path class="st1" d="M1248.6,1119.5c0,0,31.2,34,88.2,26.5c41.4-5.5,61.2-202.4-17.9-213.1c-79.1-10.7-142.8,31.1-134.7,91.8
			c1.2,9,30,45.7,30.6,57.3c3.3,66.5-7.7,121.8-7.7,121.8s61.4,74.5,110.3,76.5c29.6-31.6,17.3-75.3,17.3-75.3s-12.6-44.8-11.8-58
			L1248.6,1119.5z"/>
		<path class="st2" d="M1217.8,1100.5c0,0-4.1-7.5-2.6-27.5c0.9-12-12.7-20.7-13.4-31.6c-0.9-13.1,1.1-25.1,11.3-25.3
			c18.4-1,15.5,34.1,15.5,34.1l7.3-18.6c0,0-28.1-57-5.1-63.6c23-6.6,33.7-8.7,38.3-14.3c24,10.7,50.5-5.1,50.5-5.1
			s42.2,18.1,45.7,32.9c3.6,14.8,9.8,48.3,7.8,70.2c16.3-29.1,45.9-106.2,13.3-143.4c0,10.7,0,10.7,0,10.7s-43.9-50-92.4-41.8
			c0,6.1,0,6.1,0,6.1s-82.7-8.2-104.1,27.6c-21.4,35.7-32.7,55.6-13.8,113.8c0,24,30.1,68.6,30.1,68.6L1217.8,1100.5z"/>
		<path class="st4" d="M1361.4,1213c0,0,15.2,325.5,15.1,392.3s59.2,205.2,60,226.7s28.2,257.4,46.2,247.2
			c18.1-10.2,48.7-112.2,45.3-112.2s-26.1-569.1-35.1-615.6c-9.1-46.5-23.8-100.8-32.9-108.8S1361.4,1213,1361.4,1213z"/>
		<path class="st1" d="M1196,1208.7c1.9,8.3,65,116.6,66.1,111c1.1-5.7,29.8-59.9,29.8-59.9c-29.7-12.4-56.5-40.1-81.5-76.2
			L1196,1208.7z"/>
		<path class="st1" d="M1331.4,1185.6l28,32.8v86.1l-33.7-48.5C1328.9,1238.3,1335.6,1215.8,1331.4,1185.6z"/>
		<path class="st4" d="M1186.4,1213c0,0,186.3,255.1,189.7,443.3s-18.1,314-62.4,395.7c-44.2,81.6-290,36.3-290,36.3
			s64.4-268.7,67.8-386.6s-32.8-432.4-32.8-432.4L1186.4,1213z"/>
		<path class="st4" d="M1423.1,1229.2c0,0,72.1,5.4,95.9,99.5s95.1,275.4,79.4,335.6c-15.7,60.2-194.1,13.7-265.5,12.5
			c-37.4-55.6,28.6-64.8,28.6-64.8s136-13.5,141.7-41.8c5.7-28.3-21.6-136.2-21.6-136.2L1423.1,1229.2z"/>
		<path class="st1" d="M1585.2,1537.7c0,0,11.6-2.6,11.2-10.9c-0.5-8.3-16.8-9-16.8-11.2c0-2.2,12.4-4.2,11.6-15.6
			c-0.8-11.4-16.9-10.6-16.9-10.6s13.9-6.7,10.5-18.1c-3.4-11.4-27.7-7.6-40.6-1.9c-1.5-5.7-15.8-14.7-39.9,5.5
			c-8.4,7-29.6,40.8-29.6,40.8l0,0c-18.3,15.3-34.6,29.1-34.6,29.1s28.1,52.4,35,45.9c6.9-6.5,42.9-19.1,80.1-23.1
			c8.8-0.7,40.2-5,42-16.6S1585.2,1537.7,1585.2,1537.7z"/>
		<path class="st4" d="M1064.6,1266.7c0,0-75.7,34.9-62.1,124.5c13.6,89.6,72.1,396.6,213.8,355.8c141.7-40.8,265.5-153,265.5-153
			l-46.6-66.9c0,0-173.5,88.4-224.5,43.1c-46.4-97.1-48.4-143.4-48.4-143.4L1064.6,1266.7z"/>
		<path class="st1" d="M1215.6,1479l-69.7-12.1c-11.3-1.6-17.8,12.6-5.6,14.4l56.3,11.4l-70.1,11c-7.3,5.3-6.5,9.2,2.3,11.8
			l69.2-0.4l-71.5,9c-6.1,7.1-5.3,12.1,7.2,13.4l74.8,0l-0.4,4.3l-52.2,8.2c-9.9,1.3-7.1,14.7,2.3,14.1c0,0,60.5-0.8,60.5,0
			c0,0.2,2.4,13.9,6.9,14.6c8.7,1.3,30.9,5.3,40,0.3C1280,1571,1245.1,1485,1215.6,1479z"/>
		<path class="st2" d="M1376,2299.1c2.7,0.9,5.4,1.7,8.1,2.5l21.6-249.4c0,0-19,103.2-24.2,127.8
			C1378.9,2191.7,1377.2,2245.5,1376,2299.1z"/>
	</g>
	<g>
		<path class="st1" d="M601.2,1530.3c0,0-68.7-3.3-129.8,5.5c9.8,147.3,10.9,216,141.8,208.4c5.5,73.1,103.7,64.4,103.7,64.4v-24
			c0,0-81.3,23.5-88.4-56.2c-54.6-1.1-141.8,16.9-139.1-174.6c77.5-6,104.7-3.8,104.7-3.8S607.2,1545.6,601.2,1530.3z"/>
		<path class="st1" d="M807.5,1703.1v-11.6c10.1-2.7,16.9-5.2,16.9-6.7c2.1,0,4.3,0,6.5,0c69.6-32.7,72.6-207,72.6-207H731.1H558.7
			c0,0,3,174.4,72.6,207c0,1.5,6.2,3.8,15.5,6.4v13.5c0,0,33.1,18.2,65.1,18.8c0,267.3,0,276.2,0,276.2s-24.8,2.3-29.9,12.3
			c0,0-11,1.2-23.7,4.6c57.8,16.6,126.7,37.7,211.1,68.2c2.1-1.9,2-3.1,2-3.1s-32.8-18-38.6-40.9c-5.8-22.9-60.5-28.8-60.5-28.8
			c-5.1-9.9-29.9-12.3-29.9-12.3s0-8.9,0-276.2C778.7,1720.9,807.5,1703.1,807.5,1703.1z"/>
		<ellipse class="st1" cx="727.8" cy="1477.7" rx="169.1" ry="16.1"/>
		<path class="st1" d="M843.4,1530.3c0,0,68.7-3.3,129.8,5.5c-9.8,147.3-10.9,216-141.8,208.4c-5.5,73.1-103.7,64.4-103.7,64.4v-24
			c0,0,81.3,23.5,88.4-56.2c54.6-1.1,141.8,16.9,139.1-174.6c-77.5-6-104.7-3.8-104.7-3.8S837.4,1545.6,843.4,1530.3z"/>
	</g>
	<g>
		<path class="st1" d="M2428.3,1886.6c0,0-56.4-63.5,48.3-127.4c-14.5,24.9-67.7,52.9-30.1,116.4c15.6,36.1-7.3,51.4-7.3,51.4
			S2405.1,1929.8,2428.3,1886.6z"/>
		<g>
			<path class="st1" d="M2520.7,1949.3c-8.9,16.6-123.4,15.2-181.1,13.4c-0.6-2.5-1.2-5-1.8-7.5c-1-4.5-2-8.9-2.9-13.3
				C2379,1939,2530.9,1930.2,2520.7,1949.3z"/>
			<path class="st1" d="M2339.6,1962.7c10.4,42.3-4.2,156.1,19,206.9c54.6-39.3,108.8-88.5,156.8-150.2l5.4-70
				C2511.8,1965.9,2397.3,1964.5,2339.6,1962.7z"/>
		</g>
		<g>
			<path class="st5" d="M2548.9,1766.1c7.3,7,17.6,9.2,24.7,9.8c3.2-1.6,6.4-3.3,9.5-5.1c13.9-8,22.8-22.3,28.5-38.2
				c-9.2,3.3-29.7,10-38.7,6.4c-11.7-4.6-7.1-9.8-1.7-8.1c6.7,3.5,32-3.7,43.2-7.2c2.4-8.5,3.9-17.3,5-25.7
				c-7.9,4.7-20,9.1-25.5,7.2c-7.1-2.4-4.3-8.2,1.6-7.6c4.3,0.5,18-6.9,25-10.8c1.3-17,0.5-30.6,0.2-34.2c0-0.6-0.1-0.9-0.1-0.9
				s-16.6-4.9-38.4-8.1c-4.6,4.7-11.4,12-14.3,16.8c-4.6,7.6-6.7,13.9-10.4,12.7c-7.3-3.8,7.6-21.6,15.9-30.6
				c-9.5-1.1-19.6-1.6-29.5-1.3c-29.5,23.3-14.1,43.6-25.6,41.2c-10-2.1,7.7-29.5,15.3-40.5c-9.4,1-18.3,3.1-26,6.7
				c-6.9,3.5-13.1,7-18.6,10.4c-8.3,19.7,11.5,30.8,1,33.2c-8.2,1.9-9.3-17.4-9.3-27.8c-71.7,49.7,1.6,83,1.6,83
				c0,0.3,0.1,0.6,0.1,0.9c6.6,40.4,40.2,47,77.2,33.4c-5.7-4.6-16.1-13.1-17.8-15C2539.5,1764.2,2543,1759.7,2548.9,1766.1z"/>
			<path class="st3" d="M2607.5,1661.9c0,0-83.7,64.5-125.1,85.6L2607.5,1661.9z"/>
			<path class="st3" d="M2586.2,1708.7c0,0-19.5,2.6-39.4-2.2L2586.2,1708.7z"/>
			<path class="st3" d="M2540.2,1677.5c0,0-11.8,28.3-6.2,37.8L2540.2,1677.5z"/>
			<path class="st3" d="M2560.8,1749.8c0,0-34.2-11.9-45.3-22L2560.8,1749.8z"/>
			<path class="st3" d="M2482.9,1709.5c0,0-2.7,21.8,10.6,31.9L2482.9,1709.5z"/>
		</g>
		<g>
			<path class="st1" d="M2291.6,1717.5c6.1,0.7,12.1,1.7,17.8,2.7c7.8,7.5,17.5,20.2,17.4,35.9c-1,13.7,8.8,11.3,9.4,5.7
				c0.4-4-1.5-24.7-2.6-35.9c62,18.5,94.1,59.5,49.8,117.3c0,0,46.2,112.1-102.4,106c13-13,36-38.4,23.8-43.8
				c-15.7-7-5.7,25.9-40.5,42.7c-10.9-1-22.7-2.5-35.4-4.7c-13.8-2.9-27.1-8.8-39.6-16.5c22.8-6.5,78.6-24,69.2-36.3
				c-10.8-14.1-17.8,26.3-82.6,27.3c-12.3-9-23.7-19.5-33.8-29.9c21.4-3.4,61.6-11.6,57.7-23.3c-3-5-13.4,0.9-28.5,6.1
				c-9.6,3.3-26.9,5.9-38.3,7.4c-22.2-24.8-36-46.9-36-46.9s17.6-20.4,44.3-44c13.3,1.8,39.1,5.7,43.6,10.4
				c6.2,6.4,16.8,1.8,11.4-8.1c-4.2-7.6-24.1-13.7-39.6-15.3c11.7-9.5,24.6-19.1,38.2-27.6c17.8,6.4,57.2,21.5,60.9,32.3
				c4.4,7.4,16.3,5.2,8.1-11.8c-6.3-13-39.3-24.3-54.5-29C2236.2,1723.7,2264.8,1714.3,2291.6,1717.5z"/>
			<path class="st1" d="M2125.5,1831.2c0,0,181.6-0.9,258,12.1L2125.5,1831.2z"/>
			<path class="st1" d="M2209.8,1792.6c0,0,26.6,15.4,44.6,40.6L2209.8,1792.6z"/>
			<path class="st1" d="M2226,1875.9c0,0,49.7-24.4,54.9-41.6L2226,1875.9z"/>
			<path class="st1" d="M2292,1765.4c0,0,26.1,47.7,26.8,71.1L2292,1765.4z"/>
			<path class="st1" d="M2334.9,1890.5c0,0,30.6-24.8,27.3-50.2L2334.9,1890.5z"/>
		</g>
		<g>
			<path class="st5" d="M2315.3,1570.5c4.4,3.1,8.6,6.3,12.5,9.6c2.6,9.8,4.3,24.9-3,38.9c-7.1,11.7,1.6,13.6,4.6,8.8
				c2.1-3.4,10.1-22.5,14.4-33c39.5,41.2,45.5,90.5-15.1,124.2c0,0-15.6,118.1-127.6,53.4c16-6.4,45.4-19.7,38.4-29.5
				c-8.9-12.5-16.3,20.7-50.8,21.8c-7.9-5.2-16.3-11.3-25.2-18.3c-9.3-8.1-16.9-18.7-23.1-30.5c20.6,3.3,71.7,10,70-4.6
				c-1.9-16.9-25.7,16.2-76.3-8.7c-5.4-13-9.4-26.8-12.5-40.1c18.1,5.5,52.9,14.3,55.2,2.3c0-5.7-10.7-4.6-24.8-6
				c-8.9-0.9-23.5-5.5-33-8.7c-5.8-30.9-6.4-56.1-6.4-56.1s22.9-11.1,54.4-21.5c9.5,6.9,27.6,20.6,28.9,26.6
				c1.8,8.2,12.2,8.3,12.5-2.6c0.2-8.4-12.4-21.8-23.6-29.4c13.4-3.8,27.7-7.1,42.1-9.3c10.8,12.8,34.3,41.9,32.3,53
				c0,8.3,10.3,11.1,11.7-7.3c1.1-14.1-19.2-37.3-28.9-47.5C2269.6,1553.8,2296.1,1556.9,2315.3,1570.5z"/>
			<path class="st3" d="M2135,1605.2c0,0,140.7,71.7,193.7,113.8L2135,1605.2z"/>
			<path class="st3" d="M2217.8,1604.6c0,0,13.5,24.3,15.9,53.9L2217.8,1604.6z"/>
			<path class="st3" d="M2192.2,1685.1c0,0,49.6-1.8,61.4-15.1L2192.2,1685.1z"/>
			<path class="st3" d="M2293.7,1613.2c0,0-1.7,52.9-11.8,73.9L2293.7,1613.2z"/>
			<path class="st3" d="M2269.7,1741.7c0,0,34.9-9.8,44.1-33.7L2269.7,1741.7z"/>
		</g>
		<g>
			<path class="st1" d="M2499.4,1561.4c12-3,20-12.1,24.4-18.8c-0.1-4.2-0.4-8.4-0.8-12.7c-1.9-18.9-13.6-36.5-29.1-52
				c-1,11.3-4.3,35.9-13.1,42.7c-11.6,8.9-15.1,1.2-10.3-3.2c7.6-4.6,12.7-34.4,14.6-47.7c-8.6-7.6-17.9-14.5-27-20.7
				c1.3,10.9-0.1,25.6-5.2,30c-6.6,5.6-11.8-0.8-7.9-6.2c2.8-4,1.6-22.3,0.8-31.7c-19-11.7-35.2-19.2-39.4-21.1
				c-0.7-0.3-1.1-0.5-1.1-0.5s-14.5,13.7-29.7,33.6c3,7.5,7.8,18.7,11.8,24.6c6.4,9.3,12.5,15.2,9.2,18.2c-8.2,5-20.9-20.8-27-34.7
				c-6.2,8.9-12.3,18.6-17.1,28.8c11.3,43.9,43,40.8,34,50.9c-7.8,8.8-30-25.8-38.7-40c-3.8,10-6.1,20.3-6.1,30.2
				c0.4,9.1,1.1,17.4,2.2,25c18.4,20.4,41.7,7.3,38.9,19.3c-2.2,9.4-25.1-1.3-37-7.7c19.5,102.3,96.8,49.1,96.8,49.1
				c0.4,0.1,0.7,0.3,1.1,0.4c50.2,18.1,75.7-11.6,79.6-57.1c-8.3,2.9-23.7,8.2-26.8,8.7C2492.3,1569.6,2488.9,1563.3,2499.4,1561.4z
				"/>
			<path class="st1" d="M2410,1438.9c0,0,30.1,123.4,32.6,177.9L2410,1438.9z"/>
			<path class="st1" d="M2452.9,1488.8c0,0-7.4,21.1-23.5,38.2L2452.9,1488.8z"/>
			<path class="st1" d="M2392.4,1516c0,0,26.5,29.1,40.4,29.3L2392.4,1516z"/>
			<path class="st1" d="M2486.8,1539.5c0,0-31.9,27-49.5,32.1L2486.8,1539.5z"/>
			<path class="st1" d="M2399,1593c0,0,23.7,16,42.4,8.9L2399,1593z"/>
		</g>
		<g>
			<g>
				<path class="st6" d="M2438,1616.8c0.3,3.3,0.5,6.6,0.7,9.8c0.5,9.1,0.7,18.2,0.8,27.4c0.1,14-0.1,27.9-0.8,41.9
					c-0.8,17.6-2.2,35.2-4.1,52.7c-0.5,4.9-1.1,9.8-1.8,14.6c-0.1,0.6-0.2,1.2-0.2,1.8c-0.1,0.9,0,0.3,0,0.1c0,0.3-0.1,0.6-0.1,0.9
					c-0.2,1.3-0.4,2.6-0.5,3.9c-0.4,2.5-0.7,5.1-1.1,7.6c-1.6,10.5-3.4,20.9-5.4,31.3c-0.5,2.6-1,5.2-1.6,7.8c3,0.4,6,0.8,9,1.2
					c0.1-1.8,0.3-3.6,0.4-5.4c0.3-4.9,0.7-9.8,1-14.7c0.5-7.2,1-14.4,1.5-21.6c0.6-8.8,1.3-17.6,1.9-26.4c0.7-9.6,1.4-19.3,2.1-28.9
					c0.7-9.8,1.4-19.5,2.1-29.3c0.6-9.1,1.3-18.1,1.9-27.2c0.5-7.7,1.1-15.3,1.6-23c0.4-5.5,0.8-11,1.2-16.5
					c0.2-2.6,0.4-5.2,0.6-7.8c0-0.1,0-0.2,0-0.3c0.2-2.4-2.2-4.7-4.6-4.6C2440,1612.4,2438.2,1614.3,2438,1616.8
					c-0.1,1.8-0.3,3.6-0.4,5.4c-0.3,4.9-0.7,9.8-1,14.7c-0.5,7.2-1,14.4-1.5,21.6c-0.6,8.8-1.3,17.6-1.9,26.4
					c-0.7,9.6-1.4,19.3-2.1,28.9c-0.7,9.8-1.4,19.5-2.1,29.3c-0.6,9.1-1.3,18.1-1.9,27.2c-0.5,7.7-1.1,15.3-1.6,23
					c-0.4,5.5-0.8,11-1.2,16.5c-0.2,2.6-0.4,5.2-0.6,7.8c0,0.1,0,0.2,0,0.3c-0.2,2.3,1.9,4.2,4,4.5c2.1,0.3,4.6-1,5-3.3
					c4.3-20.7,7.6-41.6,10.2-62.6c2.2-18,3.8-36.2,4.7-54.3c0.8-14.5,1.2-29,1.1-43.5c0-9.8-0.2-19.7-0.7-29.5
					c-0.2-4.1-0.4-8.2-0.8-12.2c0-0.1,0-0.1,0-0.2c-0.2-2.4-2-4.7-4.6-4.6C2440.3,1612.3,2437.8,1614.3,2438,1616.8z"/>
			</g>
		</g>
		<g>
			<g>
				<path class="st6" d="M2321.9,1719.2c3.3,1,6.5,2.2,9.7,3.4c1.7,0.6,3.3,1.3,4.9,2c0.2,0.1,0.4,0.2,0.6,0.2
					c0.9,0.4-1.1-0.5-0.3-0.1c0.5,0.2,1,0.4,1.5,0.6c1,0.4,1.9,0.8,2.9,1.3c4.4,2,8.7,4.1,12.9,6.3c4.9,2.6,9.7,5.4,14.3,8.4
					c2.5,1.6,4.9,3.3,7.4,5c1.2,0.9,2.5,1.8,3.7,2.7c0.3,0.3,0.7,0.5,1,0.8c0.1,0.1,0.3,0.2,0.4,0.3c0,0-0.9-0.7-0.3-0.2
					c0.6,0.5,1.3,1,1.9,1.5c4.9,4,9.6,8.2,14,12.8c2.3,2.4,4.4,4.8,6.5,7.4c0.5,0.6,0.9,1.1,1.4,1.7c0.8,1-0.5-0.7,0.3,0.4
					c0.3,0.4,0.5,0.7,0.8,1.1c1,1.3,1.9,2.7,2.8,4c1.9,2.7,3.6,5.6,5.2,8.5c0.8,1.5,1.6,3,2.3,4.5c0.3,0.7,0.7,1.4,1,2.2
					c0.2,0.4,0.3,0.8,0.5,1.2c0.1,0.2,0.1,0.4,0.2,0.5c-0.6-1.2-0.1-0.3,0-0.1c2.7,6.5,4.6,13.2,5.7,20.2c0.1,0.4,0.1,0.9,0.2,1.3
					c0,0.2,0,0.6,0.1,0.8c0-0.1-0.1-1.2,0-0.3c0.1,0.9,0.2,1.8,0.3,2.7c2.6-1.1,5.2-2.2,7.8-3.3c-3.5-3.5-7-7-10.5-10.5
					c-8.4-8.4-16.7-16.8-25.1-25.1c-10.1-10.1-20.2-20.2-30.3-30.4c-8.7-8.8-17.5-17.5-26.2-26.3c-4.3-4.3-8.4-8.6-12.8-12.8
					c-0.1-0.1-0.1-0.1-0.2-0.2c-1.7-1.7-4.8-1.8-6.5,0c-1.7,1.8-1.8,4.7,0,6.5c3.5,3.5,7,7,10.5,10.5c8.4,8.4,16.7,16.8,25.1,25.1
					c10.1,10.1,20.2,20.2,30.3,30.4c8.7,8.8,17.5,17.5,26.2,26.3c4.3,4.3,8.4,8.7,12.8,12.8c0.1,0.1,0.1,0.1,0.2,0.2
					c1.3,1.3,3.3,1.7,5,1c1.5-0.7,3-2.4,2.8-4.2c-1.5-14.7-6.1-28.9-13.8-41.6c-6.9-11.5-16-21.7-26.2-30.4
					c-9.3-8-19.5-14.9-30.2-20.9c-8.4-4.7-17.1-8.8-26-12.4c-3.9-1.6-8-3.3-12.1-4.4c-0.1,0-0.1,0-0.2-0.1c-2.3-0.7-5.1,0.8-5.7,3.2
					C2318.1,1716,2319.4,1718.4,2321.9,1719.2z"/>
			</g>
		</g>
		<g>
			<g>
				<path class="st6" d="M2376.9,1847.7c1-0.4,2.1-0.6,3.1-0.7c0.3-0.1,0.6-0.1,1-0.1c0.6-0.1-1.4,0.2-0.6,0.1c0.2,0,0.4,0,0.6-0.1
					c0.8-0.1,1.7-0.2,2.5-0.2c3.9-0.3,7.9-0.4,11.8-0.4c4.5,0,9,0.2,13.5,0.7c1.1,0.1,2.2,0.2,3.3,0.3c0.6,0.1,1.2,0.1,1.8,0.2
					c0.8,0.1-0.3,0-0.3,0c0.4,0.1,0.8,0.1,1.2,0.2c2.1,0.3,4.2,0.7,6.3,1.2c2,0.4,3.9,1,5.9,1.7c0.2,0.1,0.4,0.2,0.6,0.2
					c0.2,0.1,1.1,0.4,0.2,0.1c-0.9-0.4,0.5,0.2,0.7,0.4c0.7,0.4,1.4,0.8,2,1.2c0.8-2.9,1.5-5.7,2.3-8.6c-6.4-0.6-12.8-1.1-19.2-1.7
					c-10.3-0.9-20.5-1.8-30.8-2.7c-2.3-0.2-4.7-0.4-7-0.6c-2.4-0.2-4.7,2.3-4.6,4.6c0.1,2.7,2,4.4,4.6,4.6
					c6.4,0.6,12.8,1.1,19.2,1.7c10.3,0.9,20.5,1.8,30.8,2.7c2.3,0.2,4.7,0.4,7,0.6c1.9,0.2,4-1.5,4.4-3.4c0.5-2.1-0.4-4-2.1-5.2
					c-3-2.1-6.7-3.2-10.2-4.1c-4.5-1.1-9.1-1.8-13.7-2.3c-8.8-1-17.7-1.2-26.6-0.6c-3.4,0.2-7,0.4-10.2,1.5c-2.3,0.8-4,3.2-3.2,5.7
					C2372,1846.8,2374.5,1848.6,2376.9,1847.7z"/>
			</g>
		</g>
		<g>
			<g>
				<path class="st6" d="M2485.7,1740.6c-2.3,0.7-4.6,1.9-6.6,3.1c-5.1,2.9-9.7,6.7-13.7,10.9c-6.3,6.5-11.4,14.2-15.3,22.4
					c-5.7,11.8-9.2,24.4-11.2,37.3c-2.9,18.4-3,37-1.6,55.5c0.2,2.8,0.5,5.6,0.8,8.4c0.2,2.3,1.6,4.2,4,4.5c2.3,0.3,4.3-1.1,5-3.3
					c1.5-4.4,3-8.9,4.4-13.3c3.5-10.6,7-21.2,10.6-31.8c4.3-12.8,8.5-25.6,12.8-38.4c3.7-11.1,7.4-22.2,11.1-33.3
					c1.8-5.4,3.8-10.7,5.4-16.2c0-0.1,0-0.1,0.1-0.2c0.8-2.3-0.9-5.1-3.2-5.7c-2.5-0.6-4.8,0.8-5.7,3.2c-1.5,4.4-3,8.9-4.4,13.3
					c-3.5,10.6-7,21.2-10.6,31.8c-4.3,12.8-8.5,25.6-12.8,38.4c-3.7,11.1-7.4,22.2-11.1,33.3c-1.8,5.4-3.8,10.7-5.4,16.2
					c0,0.1,0,0.1-0.1,0.2c3,0.4,6,0.8,9,1.2c-2-18.9-2.5-38-0.2-56.8c0.1-0.4,0.1-0.8,0.2-1.2c0-0.1,0.2-1.1,0-0.3
					c-0.2,0.8,0-0.2,0-0.3c0.1-1,0.3-1.9,0.4-2.9c0.3-1.8,0.6-3.6,0.9-5.4c0.6-3.4,1.4-6.7,2.3-10c0.8-3,1.7-6,2.7-9
					c0.5-1.4,1-2.7,1.5-4.1c0.2-0.6,0.5-1.3,0.8-1.9c0.1-0.4,0.7-1.4,0,0c0.2-0.3,0.3-0.7,0.4-1c2-4.6,4.3-9,7-13.2
					c1.1-1.8,2.4-3.5,3.6-5.2c0.2-0.3,1-1.2-0.1,0.2c0.1-0.2,0.3-0.3,0.4-0.5c0.3-0.4,0.7-0.8,1-1.2c0.6-0.7,1.2-1.5,1.9-2.2
					c2.2-2.4,4.5-4.7,7-6.8c0.3-0.2,0.5-0.4,0.8-0.7c0.4-0.3,1.6-1.2,0,0c0.5-0.4,1.1-0.8,1.6-1.2c0.9-0.7,1.9-1.3,2.9-1.9
					c1.5-0.9,3-1.7,4.5-2.5c0.3-0.1,0.5-0.2,0.8-0.4c0.7-0.3-1.4,0.6-0.7,0.3c0.1,0,0.2-0.1,0.3-0.1c0.2-0.1,0.5-0.2,0.7-0.3
					c0,0,0.1,0,0.1,0c2.3-0.7,4-3.2,3.2-5.7C2490.6,1741.6,2488.2,1739.9,2485.7,1740.6z"/>
			</g>
		</g>
		<g>
			<path class="st5" d="M2265.2,1896.6c-0.6-4.4-1.1-8.8-1.3-13.2c5.4-7.7,15.4-18.3,30.4-23.1c13.2-3.5,8.8-9.6,3.4-8.2
				c-3.9,1-23.1,8.6-33.6,12.8c3.9-48.5,35.9-83.3,100.6-70.5c0,0,96.5-66.4,123.3,38c-15.3-5-44.4-13-46.9-2.9
				c-3.2,13,25.9-4,49.5,14.8c1.4,7.8,2.6,16.4,3.3,25.9c0.2,10.4-2.5,21.4-7,32.4c-11.2-13.7-40.1-46.8-49.7-36.5
				c-11.1,11.8,28.9,4.2,44.1,48.5c-5.9,11.3-13.3,22.4-21,32.5c-8-13.7-24.5-38.9-34.8-32.6c-4.1,3.6,3.8,9,12,17.8
				c5.2,5.6,11.6,16.7,15.5,24.1c-18.7,23-36.7,39.3-36.7,39.3s-23.3-5.8-51.6-17c-1.3-9.7-3.2-28.7,0.3-33.3
				c4.7-6.2-2-12.2-10.2-5.4c-6.3,5.2-7.7,20.9-5.9,32.1c-11.6-5.2-23.5-11.1-34.6-17.9c2.1-14.2,7.9-46.1,17.4-52
				c6-5.3,1.3-12.9-13-2c-11,8.3-14.5,34.6-15.6,46.5C2283.3,1933,2268,1916.1,2265.2,1896.6z"/>
			<path class="st3" d="M2409.8,1976.2c0,0-40.7-125-45.1-181.7L2409.8,1976.2z"/>
			<path class="st3" d="M2354.6,1929.9c0,0,8.8-23.1,28.8-43.3L2354.6,1929.9z"/>
			<path class="st3" d="M2430.3,1893.1c0,0-34.1-26.8-51.6-25L2430.3,1893.1z"/>
			<path class="st3" d="M2310.6,1881.6c0,0,39.7-32.7,61.7-40.4L2310.6,1881.6z"/>
			<path class="st3" d="M2420.3,1813.4c0,0-30.3-13.4-53.8-3.4L2420.3,1813.4z"/>
		</g>
	</g>
	<g>
		<circle class="st1" cx="2152.9" cy="2227.6" r="156.6"/>
		<circle class="st1" cx="2152.9" cy="2227.6" r="128.3"/>
		<g>
			<path class="st1" d="M2167.9,2318.2h-29.2c-2.6,0-4.4-0.6-5.5-1.7c-1.1-1.1-1.7-3-1.7-5.5v-10.9h-27.6c-2.6,0-4.4-0.6-5.5-1.7
				c-1.1-1.1-1.7-3-1.7-5.5v-23.6c0-2.5,0.6-4.4,1.7-5.5c1.1-1.1,3-1.7,5.5-1.7h54.2c1.7,0,3.1-0.6,3.9-1.7c0.9-1.1,1.3-2.5,1.3-4.1
				c0-2.3-0.4-4-1.3-5c-0.9-1.1-2.2-1.7-3.9-1.8l-30.2-4.2c-9.4-1.3-16.9-4.4-22.7-9.3c-5.7-4.8-8.6-12.9-8.6-24.2v-21.1
				c0-10.5,3.1-18.7,9.3-24.7c6.2-6,14.7-9.4,25.6-10.4v-11.3c0-2.5,0.6-4.4,1.7-5.5c1.1-1.1,3-1.7,5.5-1.7h29.2
				c2.5,0,4.4,0.6,5.5,1.7c1.1,1.1,1.7,3,1.7,5.5v10.9h19.5c2.5,0,4.4,0.6,5.5,1.7c1.1,1.1,1.7,3,1.7,5.5v24c0,2.6-0.6,4.4-1.7,5.5
				c-1.1,1.1-3,1.7-5.5,1.7h-46.9c-1.7,0-3.1,0.6-4,1.7c-0.9,1.1-1.4,2.6-1.4,4.3c0,1.7,0.5,3.2,1.4,4.4c0.9,1.2,2.3,1.9,4,2l30,4
				c9.4,1.3,17,4.4,22.8,9.3c5.8,4.8,8.7,12.9,8.7,24.2v21.1c0,10.2-3,18.3-9.1,24.4c-6,6-14.4,9.6-25,10.7v11.3
				c0,2.5-0.6,4.4-1.7,5.5C2172.3,2317.7,2170.4,2318.2,2167.9,2318.2z"/>
		</g>
	</g>
	<g>
		<circle class="st1" cx="478.6" cy="1935.2" r="116"/>
		<circle class="st1" cx="478.6" cy="1935.2" r="95"/>
		<g>
			<path class="st1" d="M489.7,2002.3H468c-1.9,0-3.3-0.4-4.1-1.3c-0.8-0.8-1.3-2.2-1.3-4.1v-8.1h-20.4c-1.9,0-3.3-0.4-4.1-1.3
				c-0.8-0.8-1.3-2.2-1.3-4.1v-17.5c0-1.9,0.4-3.3,1.3-4.1c0.8-0.8,2.2-1.3,4.1-1.3h40.1c1.3,0,2.3-0.4,2.9-1.3c0.6-0.8,1-1.9,1-3.1
				c0-1.7-0.3-2.9-1-3.7c-0.6-0.8-1.6-1.2-2.9-1.3l-22.4-3.1c-7-1-12.6-3.3-16.8-6.9c-4.2-3.6-6.3-9.5-6.3-17.9v-15.7
				c0-7.8,2.3-13.8,6.9-18.3c4.6-4.4,10.9-7,18.9-7.7v-8.4c0-1.9,0.4-3.3,1.3-4.1c0.8-0.8,2.2-1.3,4.1-1.3h21.6
				c1.9,0,3.3,0.4,4.1,1.3c0.8,0.8,1.3,2.2,1.3,4.1v8.1h14.5c1.9,0,3.3,0.4,4.1,1.3c0.8,0.8,1.3,2.2,1.3,4.1v17.7
				c0,1.9-0.4,3.3-1.3,4.1c-0.8,0.8-2.2,1.3-4.1,1.3h-34.8c-1.3,0-2.3,0.4-3,1.3c-0.7,0.8-1,1.9-1,3.2c0,1.3,0.3,2.4,1,3.3
				c0.7,0.9,1.7,1.4,3,1.5l22.2,3c7,1,12.6,3.3,16.9,6.9c4.3,3.6,6.4,9.5,6.4,17.9v15.7c0,7.6-2.2,13.6-6.7,18
				c-4.5,4.5-10.6,7.1-18.5,7.9v8.4c0,1.9-0.4,3.3-1.3,4.1C492.9,2001.9,491.6,2002.3,489.7,2002.3z"/>
		</g>
	</g>
	<path class="st1" d="M2420.4,646.6h-377c-62.4,0-113,50.6-113,113v91.1c0,59.8,46.4,108.7,105.2,112.7l-46.2,101.2l118.8-100.9
		h312.3c62.4,0,113-50.6,113-113v-91.1C2533.4,697.2,2482.8,646.6,2420.4,646.6z"/>
	<g>
		<rect x="2038.2" y="866.8" class="st5" width="33.9" height="56.8"/>
		<rect x="2131.6" y="840.6" class="st5" width="33.9" height="82.9"/>
		<rect x="2225" y="812.4" class="st5" width="33.9" height="111"/>
		<rect x="2318.4" y="788.1" class="st5" width="33.9" height="135.3"/>
		<rect x="2411.8" y="764.6" class="st5" width="33.9" height="158.7"/>
	</g>
	<path class="st1" d="M2040.9,809.9c0,0,261.1-33.9,398.2-104.9c-1.6,26.2-1.6,26.2-1.6,26.2l13.7-10.9l5.5-37.1l-34.4-7.6
		l-10.4,4.9l19.7,12.6c0,0-189.5,83.6-390.5,92.9C2039.8,799.5,2040.9,809.9,2040.9,809.9z"/>
	<ellipse class="st1" cx="1615.6" cy="2453.1" rx="102.7" ry="80.8"/>
	<ellipse class="st2" cx="955" cy="2209.2" rx="56" ry="56.5"/>
	<ellipse class="st2" cx="2566.5" cy="2105.4" rx="51.6" ry="52.3"/>
	<ellipse class="st1" cx="2791.8" cy="1942" rx="117.2" ry="108"/>
	<path class="st1" d="M274.3,1824.5c0,0,193-148.9,266.6-109.7c73.7,39.1-51.8,105.8,110.4,140.4c162.2,34.6,316.3-14,337.6,108.6
		s22.1,135.6,22.1,135.6l-37.7-69.1l-36.8,31.9c0,0,29.1-146.8-39.5-153.9s-214.5,8-286.6-21.6c-72.1-29.6-83.5-48.3-90.1-112.9
		c-6.6-64.7-174,119.4-174,119.4L274.3,1824.5z"/>
</g>
</svg>
