<?xml version="1.0" encoding="utf-8"?>
<!-- Generator: Adobe Illustrator 22.0.0, SVG Export Plug-In . SVG Version: 6.00 Build 0)  -->
<svg version="1.1" id="Layer_1" xmlns="http://www.w3.org/2000/svg" xmlns:xlink="http://www.w3.org/1999/xlink" x="0px" y="0px"
	 viewBox="0 0 4000 4000" style="enable-background:new 0 0 4000 4000;" xml:space="preserve">
<style type="text/css">
	.Graphic_x0020_Style_x0020_218{fill:#102140;}
	.Graphic_x0020_Style_x0020_88{fill:#D1334A;}
	.Graphic_x0020_Style_x0020_86{fill:#572658;}
	.Graphic_x0020_Style_x0020_207{fill:url(#SVGID_1_);}
	.Graphic_x0020_Style_x0020_84{fill:#FFFFFF;}
	.Graphic_x0020_Style_x0020_79{fill:#DBD2DB;}
	.Graphic_x0020_Style_x0020_83{fill:#3B546B;}
	.Graphic_x0020_Style_x0020_220{fill:#152A52;}
	.Graphic_x0020_Style_x0020_99{fill:#B080B0;}
	.Graphic_x0020_Style_x0020_39{fill:#EF5668;}
	.Graphic_x0020_Style_x0020_219{fill:#DB6767;}
	.Graphic_x0020_Style_x0020_89{fill:#EB485C;}
	.Graphic_x0020_Style_x0020_68{fill:#102140;}
	.Graphic_x0020_Style_x0020_80{fill:#FFB114;}
	.Graphic_x0020_Style_x0020_87{fill:#6584C6;}
	.Graphic_x0020_Style_x0020_216{fill:#1A1A1A;}
	.Graphic_x0020_Style_x0020_78{fill:#FFDE70;}
	.Graphic_x0020_Style_x0020_42{fill:#FFCF4A;}
	
		.Graphic_x0020_Style_x0020_95{fill:none;stroke:#10663F;stroke-width:2;stroke-linecap:round;stroke-linejoin:round;stroke-miterlimit:10;}
	.Graphic_x0020_Style_x0020_43{fill:#00593B;}
	.Graphic_x0020_Style_x0020_212{fill:#FFFFFF;}
	.Graphic_x0020_Style_x0020_210{fill:#CCC4CC;}
	
		.Graphic_x0020_Style_x0020_32{fill:none;stroke:#FFFFFF;stroke-width:2;stroke-linecap:round;stroke-linejoin:round;stroke-miterlimit:10;}
	
		.Graphic_x0020_Style_x0020_36{fill:none;stroke:#FFFFFF;stroke-width:2;stroke-linecap:round;stroke-linejoin:round;stroke-miterlimit:10;}
	.st0{fill:url(#SVGID_2_);}
	.st1{fill:url(#SVGID_3_);}
	.st2{opacity:0.5;fill:#152A52;}
	.st3{fill:#C1CEE8;}
	.st4{fill:#8892A8;}
	.st5{fill:#2A3853;}
	.st6{fill:#B080B0;}
	.st7{fill:url(#SVGID_4_);}
	.st8{fill:url(#SVGID_5_);}
	.st9{fill:#160A16;}
	.st10{fill:#FFDE70;}
	.st11{fill:#FFB114;}
	.st12{fill:#152A52;}
	.st13{fill:#FC9590;}
	.st14{fill:#102140;}
	.st15{fill:#666266;}
	.st16{fill:#8998A6;}
	.st17{fill:none;stroke:#1A1A1A;stroke-width:3;stroke-linecap:round;stroke-linejoin:round;stroke-miterlimit:10;}
	.st18{fill:#1A1A1A;stroke:#1A1A1A;stroke-width:2;stroke-linecap:round;stroke-linejoin:round;stroke-miterlimit:10;}
	.st19{fill:#9D2638;}
	.st20{fill:#691A25;}
	.st21{fill:#EF5668;}
	.st22{fill:#1E2A36;}
	.st23{fill:#3B546B;}
	.st24{fill:#572658;}
	.st25{fill:#0F151B;}
	.st26{fill:#2C132C;}
	.st27{fill:#00593B;}
	.st28{fill:#339E7E;}
	.st29{fill:#127755;}
	.st30{fill:#A49EA4;}
	.st31{fill:url(#SVGID_6_);}
</style>
<linearGradient id="SVGID_1_" gradientUnits="userSpaceOnUse" x1="0" y1="0" x2="1" y2="0">
	<stop  offset="0" style="stop-color:#68B2FC"/>
	<stop  offset="1" style="stop-color:#529BF7"/>
</linearGradient>
<g>
	<linearGradient id="SVGID_2_" gradientUnits="userSpaceOnUse" x1="286.1378" y1="2536.9761" x2="3772.8044" y2="2536.9761">
		<stop  offset="0" style="stop-color:#68B2FC"/>
		<stop  offset="1" style="stop-color:#EBF0F7"/>
	</linearGradient>
	<path class="st0" d="M3571,2239.9c-133.9-122.3-327.4-175.4-528.7-150.5v275.2v-275.2c-146.2,18-296.6,77.1-431.4,180.5
		c-116.8-53.5-359-144.3-667-113.7c-179.2,17.8-322.2,71-418.7,116.6c-30-20.9-247.3-167.1-508.5-89.7
		C856,2230.6,762,2338.1,726.6,2383.4c-229.2-7.3-409.1,127.1-436.7,287.1c-20.9,121.5,51.7,224.1,74.8,254.2
		c1105.7,21.9,2211.4,43.9,3317,65.8c30.7-47.6,73.2-127.7,86.7-233.3C3797.6,2531.1,3675.5,2335.3,3571,2239.9z"/>
	<linearGradient id="SVGID_3_" gradientUnits="userSpaceOnUse" x1="71.5415" y1="2995.9695" x2="3718.8267" y2="2995.9695">
		<stop  offset="0" style="stop-color:#68B2FC"/>
		<stop  offset="1" style="stop-color:#529BF7"/>
	</linearGradient>
	<ellipse class="st1" cx="1895.2" cy="2996" rx="1823.6" ry="169.6"/>
	<ellipse class="st2" cx="1054.6" cy="2959.7" rx="572.8" ry="56"/>
	<ellipse class="st2" cx="2528.5" cy="2959.7" rx="572.8" ry="56"/>
	<g>
		<g>
			<polygon class="st3" points="3493.4,1526.9 3042.3,1522.2 3042.3,2364.5 3042.3,1522.2 2908.8,1520.8 2908.8,2883.9 
				3500.9,2930.9 			"/>
			<polygon class="st4" points="2936.1,1548.3 2936.1,2222.6 3042.3,2225.8 3042.3,1549.4 			"/>
			<polygon class="st5" points="3466.3,1553.9 3042.3,1549.4 3042.3,2225.8 3469.9,2238.7 			"/>
			<polygon class="Graphic_x0020_Style_x0020_99" points="3473.5,2901.3 2936.1,2858.7 2936.1,2222.6 3042.3,2225.8 3469.9,2238.7 
							"/>
			<path class="Graphic_x0020_Style_x0020_216" d="M3413.4,2549.4c0-6.9-5.6-12.6-12.6-12.6c-6.9,0-12.6,5.6-12.6,12.6
				c0,6.9,5.6,12.6,12.6,12.6C3407.7,2562,3413.4,2556.4,3413.4,2549.4z"/>
			<polygon class="st3" points="2936.1,1929.7 2936.1,1957.9 3042.3,1962.1 3042.3,1932.9 			"/>
			<polygon class="st3" points="3468.4,1945.9 3042.3,1932.9 3042.3,1962.1 3468.4,1978.8 			"/>
			<polygon class="st3" points="3468.4,2224.9 3042.3,2212 3042.3,2241.1 3468.4,2257.8 			"/>
			<polygon class="st3" points="2936.1,2208.8 2936.1,2237 3042.3,2241.1 3042.3,2212 			"/>
			<polygon class="Graphic_x0020_Style_x0020_79" points="3214.9,1703.3 3120.7,1927.5 3087.5,1927.5 3180.3,1703.3 			"/>
			<polygon class="Graphic_x0020_Style_x0020_79" points="3264.9,1703.3 3170.7,1927.5 3137.4,1927.5 3230.2,1703.3 			"/>
			<polygon class="Graphic_x0020_Style_x0020_79" points="3314.8,1703.3 3220.6,1927.5 3187.3,1927.5 3280.1,1703.3 			"/>
			<polygon class="Graphic_x0020_Style_x0020_79" points="3364.7,1703.3 3270.5,1927.5 3237.2,1927.5 3330,1703.3 			"/>
			<polygon class="Graphic_x0020_Style_x0020_79" points="3414.6,1703.3 3320.4,1927.5 3287.1,1927.5 3379.9,1703.3 			"/>
			<polygon class="Graphic_x0020_Style_x0020_79" points="3464.5,1703.3 3370.3,1927.5 3337.1,1927.5 3429.9,1703.3 			"/>
			<g>
				<g>
					<polygon class="Graphic_x0020_Style_x0020_78" points="3232.3,2218.6 3183.2,2216.9 3183.2,1998.3 3232.3,2000 					"/>
					<polygon class="Graphic_x0020_Style_x0020_87" points="3217.7,2049.2 3199.3,2048.5 3199.3,2022.3 3217.7,2022.9 					"/>
				</g>
				<g>
					<polygon class="Graphic_x0020_Style_x0020_86" points="3300.5,2221 3251.5,2219.3 3251.5,2000.7 3300.5,2002.4 					"/>
					<polygon class="Graphic_x0020_Style_x0020_84" points="3286,2051.5 3267.6,2050.9 3267.6,2024.7 3286,2025.3 					"/>
				</g>
				<g>
					<polygon class="Graphic_x0020_Style_x0020_86" points="3368.8,2223.4 3319.8,2221.7 3319.8,2003 3368.8,2004.7 					"/>
					<polygon class="Graphic_x0020_Style_x0020_84" points="3354.3,2053.9 3335.9,2053.3 3335.9,2027 3354.3,2027.7 					"/>
				</g>
				<g>
					<polygon class="Graphic_x0020_Style_x0020_78" points="3437.1,2225.7 3388,2224 3388,2005.4 3437.1,2007.1 					"/>
					<polygon class="Graphic_x0020_Style_x0020_87" points="3422.6,2056.3 3404.2,2055.6 3404.2,2029.4 3422.6,2030 					"/>
				</g>
			</g>
		</g>
		<path class="st5" d="M3547,2493.7c-2,20-8,44-28,54c-6.4,3.2-13.1,5.9-20.1,8.2l2,375.1l136.8-29.5v-820.2
			c-19.9,25.2-33.9,54.3-40.7,84.8C3569,2275.8,3565,2381.8,3547,2493.7z"/>
		<path class="st4" d="M3493.4,1526.9l5.5,1028.9c7-2.3,13.8-5,20.1-8.2c20-10,26-34,28-54c18-111.9,22-217.9,50-327.8
			c6.8-30.5,20.8-59.6,40.7-84.8v-532.8L3493.4,1526.9z"/>
	</g>
	<path class="st6" d="M2089.9,3117.3c45.4-3.2,98.7-7.8,136.4-38.2c-6.9-12.5-15.3-23.6-25.4-30.8c-58.7,5.4-668.9-18.9-712.2,6.6
		c-26.7,15.7-38.8,51.9-44.2,77.5c7.1-3.9,14.2-7.1,21.8-7.1C1674.2,3119.3,1882.1,3133.3,2089.9,3117.3z"/>
	<path class="Graphic_x0020_Style_x0020_86" d="M2226.3,3079.1c-37.7,30.4-91,35-136.4,38.2c-207.9,16-415.7,2-623.6,8
		c-7.6,0-14.7,3.2-21.8,7.1c-3.4,16-4.1,27.9-4.1,27.9s305.3,0.1,409.3,5.3c139.7,7,278.2,0,404-3.3
		C2253.8,3162.1,2246.2,3114.9,2226.3,3079.1z"/>
	<linearGradient id="SVGID_4_" gradientUnits="userSpaceOnUse" x1="3718.8267" y1="2570.3386" x2="3928.4585" y2="2570.3386">
		<stop  offset="0" style="stop-color:#68B2FC"/>
		<stop  offset="1" style="stop-color:#529BF7"/>
	</linearGradient>
	<ellipse class="st7" cx="3823.6" cy="2570.3" rx="104.8" ry="104.8"/>
	<ellipse class="Graphic_x0020_Style_x0020_84" cx="533.9" cy="2706.5" rx="57.9" ry="57.9"/>
	<linearGradient id="SVGID_5_" gradientUnits="userSpaceOnUse" x1="141.6037" y1="2383.2988" x2="216.8323" y2="2383.2988">
		<stop  offset="0" style="stop-color:#68B2FC"/>
		<stop  offset="1" style="stop-color:#529BF7"/>
	</linearGradient>
	<path class="st8" d="M216.8,2383.3c0,20.8-16.8,37.6-37.6,37.6c-20.8,0-37.6-16.8-37.6-37.6s16.8-37.6,37.6-37.6
		C200,2345.7,216.8,2362.5,216.8,2383.3z"/>
	<g>
		<path class="st9" d="M2551.2,2300.3c0,4.4,46.8,40.2,42.4,63.1s-88.1,143.6-88.1,143.6s-42.4,16.3-42.4,0
			c0-16.3,5.4-144.7,5.4-144.7L2551.2,2300.3z"/>
		<path class="Graphic_x0020_Style_x0020_220" d="M2353.8,1832.1c74-16,139.9-40,211.9-58c31-8.4,59.2-22,86.8-37
			c-17.7-13.7-29.6-22.1-29.6-22.1s-492,91.5-446.5,215.5c0.1,0.4,0.3,0.7,0.4,1.1C2219.3,1876.9,2284.4,1847.3,2353.8,1832.1z"/>
		<path class="Graphic_x0020_Style_x0020_220" d="M2443.7,2097.9c49.8,80.8,65.7,170.4,85.7,260c17.1-12.4,35.8-30.5,45.5-54.6
			c-55-120-85.2-189.7-101.7-230.1c-18.3-10.3-37.4-18.8-59.4-21.2C2421.7,2068,2433.7,2081.9,2443.7,2097.9z"/>
		<path class="Graphic_x0020_Style_x0020_216" d="M2652.4,1737.2c-27.6,14.9-55.8,28.6-86.8,37c-72,18-137.9,42-211.9,58
			c-69.4,15.2-134.5,44.8-177.1,99.6C2223.3,2056.5,2492,2379,2492,2379s17.7-6.8,37.4-21c-20-89.6-35.8-179.2-85.7-260
			c-10-16-22-30-30-46c22,2.4,41.1,10.9,59.4,21.2c-20.7-50.6-20.1-55.4-20.1-55.4s266-10.8,336.3-73.5
			C2843.9,1895.7,2713.6,1784.5,2652.4,1737.2z"/>
		<path class="Graphic_x0020_Style_x0020_80" d="M2135.9,1568.3c12-26,32-54,12-79.9c-1.7-2.3-3.6-4.4-5.6-6.3
			c-29-1.9-43.7-4.5-43.7-4.5c-45.3,26-45.5,58.3-10.3,95.7c0,0,0.1,0,0.3,0c-1.9-4-1.2-10.5-2.7-15c1.5,4.4,0.8,11,2.7,15
			c2.1,0.3,16,2,37.3,4C2130.4,1575.6,2134,1572.8,2135.9,1568.3z"/>
		<path class="Graphic_x0020_Style_x0020_80" d="M2501.7,1476.3c-60,28-117.9,54-183.9,62c-58.4,8-120.4,25.6-179.4,24.9
			c-0.8,1.7-1.7,3.4-2.4,5.1c-1.9,4.5-5.5,7.3-10,9c71.7,6.8,226.7,17.2,293.6-12.5c88.5-39.2,221.6-97.2,243.3-178.3
			c1.6-6.1,3.1-12.6,4.5-19.5c-12.5,7.6-24.5,17.7-35.8,25.5C2585.6,1420.4,2547.6,1454.4,2501.7,1476.3z"/>
		<path class="Graphic_x0020_Style_x0020_42" d="M2656.2,1212.8c-5.5,1.1-10.7,2.6-15.6,4.5c-5.8,8.6-12.8,16.5-19,25.2
			c-14,22-24,42-30,66c-10,32-6,64-12,95.9c-2.6,13.8-10.1,25.4-19,36.4c23-16,45.8-33.1,71-48.4c11.3-7.8,23.3-17.9,35.8-25.5
			C2680.6,1301.6,2682.7,1207.4,2656.2,1212.8z"/>
		<path class="st10" d="M2591.6,1308.4c6-24,16-44,30-66c6.2-8.7,13.2-16.6,19-25.2c-46.7,17.5-69.2,67-129.2,137.5
			c-66.3,77.8-147.5,124.1-253.4,128.2c-50.6,2-89.2,0.8-115.7-0.9c2,1.9,3.9,4,5.6,6.3c18.7,24.3,2.4,50.3-9.5,74.8
			c59,0.8,121-16.9,179.4-24.9c66-8,123.9-34,183.9-62c20.8-9.9,40-22.4,59-35.5c8.9-11,16.4-22.6,19-36.4
			C2585.6,1372.4,2581.6,1340.4,2591.6,1308.4z"/>
		<path class="st11" d="M2276.7,1512c0,0,16.9-20.7,17.8-20.9c0.9-0.2,152.9,8.8,156.7,10.4c3.8,1.7-1.4,12.3-1.7,14.2
			s-111.8,17.8-114.9,18.4c-3.1,0.6-51.8-10.3-51.8-10.3L2276.7,1512z"/>
		<path class="st12" d="M2361.8,2032c-16-56,54-89.9,99.9-93.9c103.9-10,207.9,6,305.8-32c67.3-24,120.4-78.9,136.8-148.2l-165.8-19
			c-10.8,0-538.5,126.1-573.1,242.5c-34.6,116.4,277.2,458.2,277.2,458.2l71.1-29c-34.1-53.9-56.2-112.3-80-170.7
			C2405.7,2169.9,2385.8,2101.9,2361.8,2032z"/>
		<path class="Graphic_x0020_Style_x0020_68" d="M2946.1,1762.7l-41.8-4.8c-16.4,69.2-69.5,124.1-136.8,148.2
			c-97.9,38-201.9,22-305.8,32c-46,4-115.9,38-99.9,93.9c24,70,44,137.9,72,207.9c23.7,58.4,45.9,116.9,80,170.7l21.2-8.6
			l-151-384.1c194.6,58.4,452,0,551.4-41.1C3034.8,1935.7,2946.1,1762.7,2946.1,1762.7z"/>
		<path class="st10" d="M2687.6,1690.2c48,16,103.9,4,145.9-28c50-40,77.9-97.9,91.9-159.9c21.7-110.5-13.1-207.3-50.5-304
			c-154.4-18.2-242.3,23-242.3,23l-28.2,189c-12.4,89.3-24.9,190.9-28.4,259.1C2611.2,1663.6,2652.7,1677.3,2687.6,1690.2z"/>
		<path class="Graphic_x0020_Style_x0020_42" d="M2671.6,1744.2c85.9,54,181.9,52,273.8,50c18.4,0,33-8.5,43.6-21.4
			c0.5-3,0.8-6.1,1.1-9.3c8.6-102.4,57.7-542-103.8-563.7c-3.8-0.5-7.6-1-11.4-1.4c37.4,96.7,72.2,193.5,50.5,304
			c-14,62-42,119.9-91.9,159.9c-42,32-97.9,44-145.9,28c-34.9-12.9-76.4-26.6-111.7-20.7c-1.3,24.7-1.4,44.9,0.1,58.7
			C2610.1,1724.4,2644.6,1726.7,2671.6,1744.2z"/>
		<path class="Graphic_x0020_Style_x0020_80" d="M2945.4,1794.1c-91.9,2-187.9,4-273.8-50c-27-17.5-61.5-19.8-95.6-16
			c0.7,6.6,1.8,11.7,3.3,15.1c294.5,68.4,395.7,119.2,409.8,29.5C2978.4,1785.6,2963.8,1794.1,2945.4,1794.1z"/>
		<path class="Graphic_x0020_Style_x0020_42" d="M2898.4,1246.8c0,0-49.2,17.1-104,105.4c-54.9,88.3-214.2,144.8-214.2,144.8
			l-7.5,110.3c0,0,255.2-42.7,293.7-73c38.5-30.3,86.2-77.4,89.1-88.8c2.8-11.4,38.3-84.7,12.4-128.2
			C2941.8,1273.8,2965.3,1233.9,2898.4,1246.8z"/>
		<path class="Graphic_x0020_Style_x0020_219" d="M2319.6,1541.4c-19.8-5.7-39.1-11.1-45.8-3.1c-22.1,31.6-61.7,34.5-96.1,30.3
			c10.3,4,21.2,5.9,23.6,5.9c4.5,0,56.6,5.4,73-6.9c16.3-12.2,40.5-1.3,39.2-2.5C2312.9,1564.5,2317.5,1553.4,2319.6,1541.4z"/>
		<path class="st13" d="M2273.8,1538.3c6.7-8,26-2.6,45.8,3.1c2-11.1,1.9-22.9-6.1-28c0,0-73-14.7-95.9,0
			c-22.8,14.7-64.9,27.7-59.1,41.2c2.6,6.1,10.7,10.8,19.2,14.1C2212.1,1572.8,2251.7,1569.9,2273.8,1538.3z"/>
		<path class="Graphic_x0020_Style_x0020_78" d="M2967.8,1351.8c0,0-0.9,11.8-7.4,30.2c-17.5,49.3-75.6,146.6-266.1,195.4
			c-261.7,67-405.3,0-405.3,0c-3.3-9.8-5.7-19.4-6.8-28.8c-2.2-18.4,0.9-35.5,12.9-50.5c0,0,65.5,1,201.8,12.5
			c253-20.9,353.5-206.1,353.5-206.1C2903.1,1230.9,2940.4,1258.3,2967.8,1351.8z"/>
		<path class="Graphic_x0020_Style_x0020_80" d="M2960.3,1382c-17.5,49.3-75.6,146.6-266.1,195.4c-261.7,67-405.3,0-405.3,0
			c-3.3-9.8-5.7-19.4-6.8-28.8c72.3,23.4,263.9,74.8,406.8,14.7C2837.9,1500.6,2919.5,1424.6,2960.3,1382z"/>
		<path class="Graphic_x0020_Style_x0020_219" d="M2825.1,1205.8c0,0-19.4-137.7-20-149.9c-4.7-112.8-43.6-140.4-82.4-136.7
			c74.2,66.3,52.3,182.5,78.8,275.3c2.7,8,5.2,16.2,7.9,24.4C2818.7,1212,2824.8,1206.7,2825.1,1205.8z"/>
		<path class="st13" d="M2722.7,919.2c-26.3,2.5-52.5,19.5-67.9,34.1c-38.1,36.1,3,164.7,18.2,175.2c15.2,10.5,48-0.1,48-0.1
			l6.4,73.8c-2.4,14.8-8.7,51.2,1.7,52.9c21.5,3.5,59.1-20.4,80.3-36.1c-2.7-8.2-5.3-16.4-7.9-24.4
			C2775,1101.7,2796.9,985.6,2722.7,919.2z"/>
		<path class="Graphic_x0020_Style_x0020_219" d="M2754,1106.1l-33,22.3l3.9,34.7C2724.9,1163.1,2750.7,1121,2754,1106.1z"/>
		<path class="st14" d="M2612.8,989.5c0,0,100.6,3.7,124.1-5.5c7.7,59.9,7.7,59.9,7.7,59.9l14.3-8.1c0,0-4.9-29.1,14-26.6
			c18.9,2.5,29.3,45.3,16,53.7c15.3,34.5,32.6,32.2,32.6,32.2s44.7-141.5-16.7-183.2c-20.7-4.1-32-3.6-32-3.6s-8.7-27.3-36.5-36.5
			C2708.4,862.6,2615.1,892,2612.8,989.5z"/>
		<path class="Graphic_x0020_Style_x0020_84" d="M2740,1263.9l15-26.9c0,0,68.3-47.4,72.3-62.8c14,17.9,15.4,21.2,15.4,21.2
			S2796.9,1261.4,2740,1263.9z"/>
		<path class="Graphic_x0020_Style_x0020_84" d="M2724.9,1189.1c0,0-30.3,40.9-23.3,56.3c27.4,9.6,27.4,9.6,27.4,9.6
			s-11.5-32.6,0-50.5C2726.5,1192,2724.9,1189.1,2724.9,1189.1z"/>
	</g>
	<g>
		<path class="Graphic_x0020_Style_x0020_210" d="M2369.5,1606.3c0-15.9-12.9-28.9-28.9-28.9H1143.1c-15.9,0-28.9,12.9-28.9,28.9
			v23.7h1255.3V1606.3z"/>
		<path class="st15" d="M1114.2,1630v6.1c0,15.9,12.9,28.9,28.9,28.9h1197.6c15.9,0,28.9-12.9,28.9-28.9v-6.1H1114.2z"/>
		<rect x="1712.7" y="1665" class="Graphic_x0020_Style_x0020_83" width="58.4" height="352.8"/>
		<rect x="1712.7" y="2017.8" class="st16" width="58.4" height="834.2"/>
		<rect x="1529.4" y="2852.1" class="st17" width="424.9" height="48.7"/>
	</g>
	<path class="st18" d="M1139.9,2366.5c0,0-65,150.3-68.7,158.4c-3,20,12.9,9.7,18.4,8.4l42.1-54.2c0,0,24.8,143.3,87.7,184.2
		c34.6-3.9,3.1-130.1-7.6-182C1174.5,2415.2,1139.9,2366.5,1139.9,2366.5z"/>
	<g>
		<path class="Graphic_x0020_Style_x0020_219" d="M1120.4,1914.2l-10.5-2.4c0,0-25.2-32.5-78,93.7c-53.8,128.7-89,458.1-95,454.1
			l19.5,12.2c5.3-23.4,10.2-46.8,10.2-70.2C960.9,2224,1032,2062.6,1120.4,1914.2z"/>
		<path class="st13" d="M1120.4,1914.2c-88.4,148.4-159.5,309.7-153.7,487.5c0,23.4-4.9,46.8-10.2,70.2l26.6,16.6
			c0,0,33.2-126.9,100.2-248.7c67-121.8,84.3-315,84.3-315L1120.4,1914.2z"/>
		<path class="st18" d="M947.5,2347.5c0,0-60.3,141.5-63.4,148.3c-2.5,16.7,10.8,8.1,15.3,7l35.1-45.2c0,0,20.5,119.4,72.9,153.4
			c28.8-3.3,4.2-142.2-4.7-185.4C972.8,2401.9,947.5,2347.5,947.5,2347.5z"/>
		<path class="Graphic_x0020_Style_x0020_219" d="M1164.5,2255.8c16-60,14-117.9,24-179.9c6.8-45.6,34.9-98.3,27.8-142.4l-10.7,12.5
			c-18.9-10.9-64.5,329.5-67.4,418.3c-0.5,15.7,1.8,30,5.8,42.8c0.1-30.6,1.6-61.1,4.5-91.2
			C1150.5,2295.8,1158.5,2275.8,1164.5,2255.8z"/>
		<path class="st13" d="M1293,1844.1l-76.7,89.4c7.1,44.2-21.1,96.9-27.8,142.4c-10,62-8,119.9-24,179.9c-6,20-14,40-16,60
			c-2.9,30.1-4.4,60.7-4.5,91.2c17.5,55.3,67.9,83.5,67.9,83.5s-8.5-47.1-8.9-98.1c-0.4-50.9,101.3-275.9,121.7-403.9
			C1352.5,1814,1298.8,1847,1293,1844.1z"/>
		<path class="Graphic_x0020_Style_x0020_216" d="M582.9,1796.1c36.3,11.2,72.6,18.9,109.1,22.1c-0.4-0.7-0.8-1.4-1.2-2.1
			c-17.1-27.9-6.4-58.2,0.1-89.1l-120.2,15.1c0,0-5.3,15.7-9.7,39C566.6,1787.9,573.7,1793.1,582.9,1796.1z"/>
		<path class="Graphic_x0020_Style_x0020_218" d="M1202.5,1966c-4-18-20-42-38-46c-121.9-36-245.8,6-371.8-22
			c-41.2-9.8-78.6-40.9-100.7-79.8c-36.5-3.2-72.8-10.9-109.1-22.1c-9.2-3.1-16.3-8.3-21.9-15c-12.3,65.7-16.8,191.8,127.9,198.5
			c196.1,9,487.3,9,487.3,9s11.9-3.9,29-11.2C1204.4,1973.6,1203.5,1969.8,1202.5,1966z"/>
		<path class="Graphic_x0020_Style_x0020_216" d="M818.8,1810.1c65-15,128.6-53.7,170-107.8c-24.4-5.1-39.6-7.8-39.6-7.8L691,1727
			c-6.5,30.9-17.2,61.2-0.1,89.1c0.4,0.7,0.8,1.4,1.2,2.1C733.9,1821.9,776,1819.7,818.8,1810.1z"/>
		<path class="st12" d="M1327.6,1844.1c-19.4-68.6-245.8-122.4-338.8-141.9c-41.4,54.2-105,92.8-170,107.8
			c-42.7,9.6-84.9,11.8-126.7,8.1c22.1,39,59.5,70,100.7,79.8c125.9,28,249.8-14,371.8,22c18,4,34,28,38,46
			c0.9,3.8,1.9,7.6,2.7,11.4C1254.1,1956.6,1345.7,1908.2,1327.6,1844.1z"/>
		<path class="st19" d="M1075.4,1487.5c-0.7-0.3-1.4-0.6-2.1-1c-24-33.4-91.2-128-113.5-174.2l-80.8,45.8c0,0,4.5,41,20,85.4
			c24.4,42.4,53,83,96.8,96C1008.3,1509.3,1041.9,1492.5,1075.4,1487.5z"/>
		<path class="st20" d="M899,1443.5c16.3,46.6,44.9,96.9,93.4,107c0.8-3.8,2-7.5,3.4-10.9C952,1526.5,923.4,1486,899,1443.5z"/>
		<path class="Graphic_x0020_Style_x0020_219" d="M1007.2,1521.1c-7.1,8.3-12.3,18-14.8,29.4c0.6,0.1,1.3,0.3,1.9,0.4
			c0,0,50.6,28.8,229.3,29.9c178.7,1.1,190.9-7.9,190.9-7.9l54.7,4.5l44.6-3.7c-121.7-8.1-243.4-10.3-365.2-15.5
			C1101.8,1554.5,1049.8,1543.8,1007.2,1521.1z"/>
		<path class="st13" d="M1423.5,1526.4c-60.4,3.8-244.7,8.9-348.1-38.9c-25.9,3.8-51.9,14.8-68.2,33.6
			c42.5,22.7,94.5,33.4,141.3,37.2c121.7,5.1,243.4,7.4,365.2,15.5l52.5-4.4C1566.2,1569.4,1488.7,1522.4,1423.5,1526.4z"/>
		<path class="Graphic_x0020_Style_x0020_219" d="M1000.6,1020.6c21.2-5,40.8-12.3,59.8-21c-4.1-27-10.1-47.3-10.1-47.3
			s-71.4-38.3-123.7,13.9c-5.8,5.8-10,12.2-12.9,19C938,1007.6,967.8,1027.5,1000.6,1020.6z"/>
		<path class="st13" d="M1000.6,1020.6c-32.8,6.9-62.7-13.1-86.9-35.4c-8.1,18.9-6.3,40.9-0.4,61.7l-2.3-0.5l-98.2,145.2
			c0,0,108.5,56,112.1,28.6c1.9-14.5,20.4-57.4,37.3-94.4c4.3,1.4,10.2,3.4,18.3,6.1c88.8,15.8,88.8-73.9,79.9-132.3
			C1041.4,1008.3,1021.8,1015.7,1000.6,1020.6z"/>
		<polygon class="Graphic_x0020_Style_x0020_219" points="952.4,1121.7 961.1,1126.2 950.9,1149.2 		"/>
		<path class="Graphic_x0020_Style_x0020_89" d="M660.9,1620.2c-28-16-36-48-38-76c-1.6-28.1-3.2-56.9-2.2-85.4
			c-58,125.9-93.6,253.3-49.1,302.5c92.3,102,345.2,9.2,391.3-48.4c19.2-24,4.4-58.5-10-94.8c-0.1,0-0.2,0-0.2,0.1
			C858.7,1652.2,752.8,1670.2,660.9,1620.2z"/>
		<path class="Graphic_x0020_Style_x0020_39" d="M906.7,1508.3c-8-56-28-111.9-62-159.9c30,32,79.9,54,115.9,38
			c27.4-13.2,38.6-40.1,42.1-70.4c-8.3-37.3-19.6-71.5-29.8-90.3c-28.8-53.3-119.6-97-158.6-67.9
			c-42.7,31.9-131.2,165.5-193.7,301.1c-1,28.5,0.6,57.3,2.2,85.4c2,28,10,60,38,76c91.9,50,197.9,32,291.8-2c0.1,0,0.2,0,0.2-0.1
			c-1.7-4.2-3.3-8.4-4.9-12.7C924.3,1584.1,912.7,1544.1,906.7,1508.3z"/>
		<path class="Graphic_x0020_Style_x0020_89" d="M991,1477.8c31.7-14.4,26.9-93.3,11.8-161.7c-3.5,30.2-14.7,57.2-42.1,70.4
			c-36,16-85.9-6-115.9-38c34,48,54,103.9,62,159.9c6,35.8,17.6,75.8,41.3,97.2C930.4,1558.5,920.3,1509.9,991,1477.8z"/>
		<path class="Graphic_x0020_Style_x0020_212" d="M823.3,1152.8c0,0-16.5-22.4,6.8-21.9c23.4,0.5,114.4,31.6,124.2,69.7
			C932.6,1187.6,823.3,1152.8,823.3,1152.8z"/>
		<path class="st13" d="M1541.3,1389.4c-0.1,0.1-0.1,0.1-0.2,0.2c-44.9,45.2-94.7,7.1-130.8,26c-36.2,18.9-210.8,120-300,104.9
			S991,1465.7,991,1465.7l19.6-10.2l83.4-43.5c0,0,7.2,51.9,217.7-13c126.9-36,126.9-36,126.9-36s63.4-62.8,69.4-49.2
			c6.1,13.6-41.3,43.8,5.5,34.7c15.2-3,33.2-41,51.9-45.9C1584.1,1297.6,1575.5,1354.8,1541.3,1389.4z"/>
		<path class="Graphic_x0020_Style_x0020_219" d="M1541.1,1389.6c-44.9,45.2-94.7,7.1-130.8,26c-36.2,18.9-210.8,120-300,104.9
			S991,1465.7,991,1465.7l19.6-10.2c36.2,21.1,103.7,52,165.9,34.9c90.5-24.9,218.7-91.9,264.3-92.6
			C1477.4,1397.2,1520.4,1395.7,1541.1,1389.6z"/>
		<path class="st21" d="M1117.1,1426.1c0,0-117.8-147.6-151.9-212.2l-100.4,52.2c0,0,3.6,15,11,37.5
			c38.3,50.5,72.1,101.7,118.8,144.8c21.6,21.6,55,35.8,86.7,36.1C1115.2,1458.2,1117.1,1426.1,1117.1,1426.1z"/>
		<path class="Graphic_x0020_Style_x0020_88" d="M875.9,1303.5c21.1,63.8,73.1,188.4,161.6,203.3c18.6-6,32.9-13.9,43.9-22.3
			c-31.7-0.3-65.1-14.5-86.7-36.1C947.9,1405.2,914.1,1354.1,875.9,1303.5z"/>
		<path class="st14" d="M924.7,1088.6c38-18,52-62,68-99.9c7.1,10.4,15.2,16,23.9,18.3c63.8-7.1,75-32.8,70.2-93.8
			c-5.4-68.6-101.8-67-165.2,7.5c-43.5,12.3-101.5,92.3-88.7,148.2C858.6,1090.8,892.2,1103.4,924.7,1088.6z"/>
		<path class="Graphic_x0020_Style_x0020_216" d="M992.6,988.7c-16,38-30,81.9-68,99.9c-32.5,14.8-66.1,2.2-91.9-19.8
			c4.9,21.3,20.1,39.2,50.4,48.4c109.8,33.2,106.8-108.4,106.8-108.4c9.7-0.3,18.5-1,26.5-1.8
			C1007.9,1004.7,999.8,999.1,992.6,988.7z"/>
	</g>
	<g>
		<path class="st22" d="M847.5,2021.4v857.7c5.4,3.7,10.8,6.8,16.2,9.6v-867.3H847.5z"/>
		<path class="st23" d="M897.3,2021.4h-33.5v867.3c11.3,6,22.4,11,33.5,18.4V2021.4z"/>
		<path class="st6" d="M1153,2021.4c0-18.2-16-32.9-35.7-32.9H627.5c-9.9,0-18.8,3.7-25.2,9.7c-6.5,5.9-10.4,14.2-10.4,23.2
			c0,7.5,2.8,14.4,7.3,19.9h546.5C1150.2,2035.8,1153,2028.9,1153,2021.4z"/>
		<path class="st24" d="M599.2,2041.3c6.5,7.9,16.8,13,28.3,13h489.8c9.8,0,18.7-3.7,25.2-9.6c1.1-1,2.1-2.2,3.1-3.3H599.2z"/>
		<path class="st23" d="M1122.2,2499c0-10.5-9.2-18.9-20.5-18.9h-74.8H722.4h-74.8c-11.3,0-20.5,8.5-20.5,18.9c0,2.9,0.7,5.6,1.9,8
			h491.2C1121.5,2504.6,1122.2,2501.9,1122.2,2499z"/>
		<path class="st22" d="M629,2507c1,2,2.4,3.9,4.1,5.4c3.7,3.4,8.9,5.6,14.5,5.6h127.1h199.8h127.1c5.7,0,10.8-2.1,14.5-5.6
			c1.7-1.6,3.1-3.4,4.1-5.4H629z"/>
	</g>
	<g>
		<path class="Graphic_x0020_Style_x0020_83" d="M2718.8,2021.4v844.2c9.8,8,19.5,18.9,29.3,13.5v-857.7H2718.8z"/>
		<path class="st22" d="M2698.4,2021.4v838.1c6.8-3.7,13.7,0.5,20.5,6.1v-844.2H2698.4z"/>
		<path class="Graphic_x0020_Style_x0020_99" d="M3003.8,2021.4c0-18.2-16-32.9-35.7-32.9h-489.8c-9.9,0-18.8,3.7-25.2,9.7
			c-6.5,5.9-10.4,14.2-10.4,23.2c0,7.5,2.8,14.4,7.3,19.9h546.5C3001,2035.8,3003.8,2028.9,3003.8,2021.4z"/>
		<path class="Graphic_x0020_Style_x0020_86" d="M2450,2041.3c6.5,7.9,16.8,13,28.3,13h489.8c9.8,0,18.7-3.7,25.2-9.6
			c1.1-1,2.1-2.2,3.1-3.3H2450z"/>
		<path class="Graphic_x0020_Style_x0020_83" d="M2973,2499c0-10.5-9.2-18.9-20.5-18.9H2494c-5.7,0-10.8,2.1-14.5,5.5
			c-3.7,3.4-6,8.2-6,13.4c0,3.6,1.1,7,3,9.9H2970C2971.9,2506,2973,2502.7,2973,2499z"/>
		<path class="st25" d="M2476.5,2508.9c3.6,5.4,10.1,9.1,17.5,9.1h458.4c5.7,0,10.8-2.1,14.5-5.6c1.1-1.1,2.1-2.3,3-3.5H2476.5z"/>
		<path class="st26" d="M2556.2,2470.3c-15.2,34.9-115.9,127.3-136.6,125.1c-20.8-2.2-29.9-19.6-17.9-40.2
			c12-20.7,56.6-99.5,56.6-99.5l-10.8-18l82.9-33.8C2547.8,2425.1,2567.3,2444.9,2556.2,2470.3z"/>
	</g>
	<g>
		<g>
			<path class="Graphic_x0020_Style_x0020_43" d="M1819.4,3024.5c100.6,3.6,132.8,26.6,161.3,5.9c17.8-12.9,30.1-39.7,22-61.5
				c-10-26.9-46.1-32.1-47.9-32.3c93.8-2.4,158-36.6,161.7-72.9c1.7-17.2-9.2-44.3-32-59c-17.7-11.5-36.3-11.3-44.1-10.7
				c78.9-38.9,126.5-85.9,118-115.5c-3.3-11.6-17.6-28.8-38-33.7c-16.6-4-30.9,1.6-36.6,4.3c41.8-36.4,48.5-85.2,29.4-107.4
				c-11.8-13.8-34.3-18.2-52.5-13.5c-25.4,6.5-44.6,30.9-45.9,60.5c-0.6-2.6-10-41.9-35.7-47.8c-27.9-6.4-56.8,31.1-65.1,62
				c-8.3,30.7,3.1,57.4,7.6,66.6c-1.7-3.9-18.5-41.4-47.9-44c-40.3-3.6-65,62-66.5,66.2c-21.8,60,13.1,117.9,20.3,129.4
				c-33.8-25.8-73.3-30.7-96.2-13.9c-28.6,21-20.6,68.2-16.3,93.8c10.6,62.6,52,104,74.7,123.2
				C1796.3,3024,1806.7,3024,1819.4,3024.5z"/>
			<path class="Graphic_x0020_Style_x0020_32" d="M2072.4,2575.9c-32,42.8-58.7,89.6-79,139c-29.4,71.1-46.8,149.3-95.1,209.2
				c-14.7,18.2-31.9,34.3-49.1,50.2c-19.6,18.2-39.6,36.7-63.8,48.2"/>
			<path class="Graphic_x0020_Style_x0020_32" d="M1835.8,2986.6c1.6-3.4,5.5-65.3-69.9-107.5"/>
			<path class="Graphic_x0020_Style_x0020_32" d="M1952.3,2826.4c2.4-26.2-12.4-50.7-27.7-72.2c-15.3-21.5-32.1-43.7-34.8-69.9"/>
			<path class="Graphic_x0020_Style_x0020_32" d="M1984.7,2738.8c3.5-13.9,17.7-22.6,31.8-25.6c14-3,28.6-1.6,42.8-3.3
				c14.2-1.7,29.3-7.3,36.4-19.7"/>
			<path class="Graphic_x0020_Style_x0020_32" d="M2008.3,2682.4c2-3.9,4-7.9,4.7-12.2c1-6.5-1.1-13-3.7-19
				c-5.3-12.4-12.5-23.9-18.1-36.2c-5.6-12.3-9.5-25.8-7.6-39.2"/>
			<path class="Graphic_x0020_Style_x0020_32" d="M1916.8,2899.4c7.3-7.8,14.8-15.6,23.8-21.3c17.3-10.9,38.6-12.9,58.9-15.5
				c20.3-2.6,41.7-6.5,57-20.2"/>
			<path class="Graphic_x0020_Style_x0020_32" d="M1942,2975.4c-9.9-10.9-23.5-18.3-37.9-20.7s-30.7,2-43.6,9"/>
		</g>
		<g>
			<path class="st27" d="M2032.5,2958.8c-7.7-61.4-14.3-113.4,14.3-136.3c1.7-1.4,19.3-14.9,40.3-9.9c21.2,5.1,30.8,25.4,32.3,28.7
				c-10.5-64.7,2.5-114.1,27.8-122.8c10.9-3.8,28-1.2,40.3,9c18,14.8,17.2,38.3,17,41.2c2.7-17.5,14.8-84.5,62.8-107.6
				c9.5-4.6,27.7-13.3,42.1-4.5c16.5,10.1,15.4,35.6,15.2,37.7c23.8-43,59.8-64,84.3-55.6c11.1,3.8,20.9,14,24.2,26
				c5.8,21.4-9.1,48.8-39.4,63.6c17.7-1,33.7,6.1,41.2,18.8c12.2,20.7-4.5,45.4-7.2,49.3c-16.8,24.8-53.1,34.9-92.3,27.8
				c32.2,25.7,47.3,56.8,38.6,78c-5.6,13.8-19.9,20.1-35.9,26.9c-16.2,6.9-49.1,17.7-95.9,10.8c28.7,15.2,48.1,36.6,45.7,55.6
				c-3.2,25.4-44.2,36.4-75.3,44.8c-22.7,6.1-125.4,33.8-165-17C2039.2,3012.4,2037,2994.5,2032.5,2958.8z"/>
			<path class="Graphic_x0020_Style_x0020_36" d="M2028.4,3045.9c44-19.4,77.2-57.1,104.8-96.5c27.6-39.4,51.2-81.8,83.8-117.3
				c30.8-33.5,68.6-59.7,102.1-90.5c25.3-23.2,48.1-49.1,68-77.1"/>
			<path class="Graphic_x0020_Style_x0020_36" d="M2079.3,2877.4c26,40.7,34.3,87.2,7.8,127.6"/>
			<path class="Graphic_x0020_Style_x0020_36" d="M2111.4,2978.9c33.7-17.2,100.6,12.1,135.3,7"/>
			<path class="Graphic_x0020_Style_x0020_36" d="M2163.6,2903.7c14.5-42.5,4.4-82.2,7.3-118.5"/>
			<path class="Graphic_x0020_Style_x0020_36" d="M2278.8,2703c-3,32.7-11.5,65-25.1,94.9"/>
			<path class="Graphic_x0020_Style_x0020_36" d="M2292.4,2765.1c31-11.5,65.8-12.2,97.2-2.1"/>
			<path class="Graphic_x0020_Style_x0020_36" d="M2188.8,2866.8c34.6-17.3,75.3-19.3,111.4-5.4"/>
		</g>
		<g>
			<path class="st28" d="M1635.1,2792.4c-82-57.9-122.6-59.2-131.5-92.7c-5.6-20.9,2.5-49.5,23.3-61.7c25.7-15.1,57.7,2.5,59.2,3.4
				c-72.6-58.5-100.8-124.2-79.7-155.1c10-14.6,36.6-29.4,64.3-27.3c21.6,1.7,36.2,13,42,18.1c-36.6-78.3-43.2-144-17-162.3
				c10.3-7.2,32.9-12.1,52.4-3.7c15.8,6.9,23.3,19.9,26.1,25.4c-9-54,18-96.4,47.8-102.5c18.5-3.8,39.1,6.4,50.5,21
				c15.9,20.5,14.8,51.2-3.8,75.5c2.2-1.7,35.7-27,59.8-16.2c26.3,11.8,24.3,58.8,10.5,88.2c-13.8,29.3-40.4,43.4-50,47.9
				c4-2.1,42.1-21.5,67-5.8c34.2,21.5,10.4,88.1,8.8,92.4c-22.4,60.5-88.3,85.1-101.7,89.8c43.8,0.1,78.3,20,85.3,47
				c8.7,33.8-28.8,66.2-49.2,83.8c-49.8,43-109.9,50.7-140.6,52.1C1653.7,2805.9,1645.4,2799.7,1635.1,2792.4z"/>
			<path class="Graphic_x0020_Style_x0020_95" d="M1731.7,2285.9c-3,53.1-12.9,106.1-29.4,157.3c-23.8,73.8-61.8,146-63.2,222.4
				c-0.4,23.3,2.6,46.3,5.6,69.3c3.4,26.2,7,52.9,18.5,76.5c10.7,21.9,27.9,40.4,48,54.8"/>
			<path class="Graphic_x0020_Style_x0020_95" d="M1646,2751.3c1-3.6,3.5-6.8,6.2-9.6c15.9-16.5,39.1-24.2,61.5-29.6
				c22.4-5.5,45.7-9.7,65.5-21.7"/>
			<path class="Graphic_x0020_Style_x0020_95" d="M1661,2555.9c15.4-22.1,43.4-32.5,69.6-40.2c26.3-7.7,54.3-15,73.8-34.1"/>
			<path class="Graphic_x0020_Style_x0020_95" d="M1693.3,2467.2c6.4-13.1,0.9-28.6-8.2-39.4c-9.1-10.8-21.5-18.5-31.7-28.4
				c-10.2-9.9-18.3-23.4-15.8-37.6"/>
			<path class="Graphic_x0020_Style_x0020_95" d="M1712,2408.5c1-4.3,2-8.6,4.3-12.4c3.5-5.7,9.5-9.6,15.5-12.8
				c12.4-6.6,25.7-11.3,38.3-17.6c12.5-6.3,24.6-14.6,31.9-26.4"/>
			<path class="Graphic_x0020_Style_x0020_95" d="M1640.8,2635c-0.7-10.6-1.4-21.2-4.7-31.2c-6.5-19.1-22-33.5-36.4-47.7
				c-14.4-14.3-28.7-30.3-31.7-50.3"/>
			<path class="Graphic_x0020_Style_x0020_95" d="M1570.6,2679.7c15-2.6,30.6-0.3,43.7,6.5s23.4,18.1,28.9,31.4"/>
		</g>
		<g>
			<path class="st29" d="M1749.1,2940.8c-9-117,13.4-157.2-14.3-187.6c-17.3-19-50-29.6-74.1-17.4c-29.8,15.1-31.1,57.6-31.1,59.7
				c-15.1-108.3-63-178.2-105.6-177.7c-20.2,0.2-50.1,16.4-64.2,44.7c-11,22.1-8.3,43.5-6.7,52.5c-55.4-86.3-116-135.2-149.2-121.6
				c-13,5.4-31,24.1-34.1,48.5c-2.5,19.8,5.9,35.5,9.7,41.8c-47.6-43.7-105-45-128.3-20c-14.5,15.5-16.6,42.1-8.8,62.6
				c10.8,28.6,41.6,47.6,76.1,45.2c-2.9,1-47.2,17.1-50.7,47.6c-3.7,33.2,43.4,61.7,80.3,67.3c36.7,5.6,66-11.1,76.1-17.5
				c-4.3,2.5-45.5,26.9-44.7,61.2c1.1,47.1,80.3,67.1,85.4,68.4c72.4,17.4,134.8-30.6,147.2-40.5c-25.4,42.6-26,88.9-3.6,113.2
				c28,30.4,81.7,15,110.8,6.6c71.1-20.4,113.7-73.8,133-102.7C1751.6,2967.5,1750.3,2955.5,1749.1,2940.8z"/>
			<path class="Graphic_x0020_Style_x0020_95" d="M1196.5,2706.5c53.7,31.5,111.4,56.2,171.3,73.3c86.2,24.7,179.1,34.6,254.7,82.8
				c23.1,14.7,43.9,32.5,64.6,50.3c23.7,20.3,47.7,41.1,64.2,67.5c15.3,24.6,25.5,21.6,27.9,50.5"/>
			<path class="Graphic_x0020_Style_x0020_95" d="M1703.2,2926.7c-4.2-1.4-76.3,2.1-115.4,95"/>
			<path class="Graphic_x0020_Style_x0020_95" d="M1502.3,2812.7c-30.7,0.6-57.1,21-80,41.5c-22.9,20.5-46.4,42.9-76.4,49.5"/>
			<path class="Graphic_x0020_Style_x0020_95" d="M1396.6,2786.7c-16.6-2.3-28.5-17.6-33.8-33.4c-5.3-15.9-5.6-32.9-9.4-49.2
				c-3.8-16.3-12.3-33-27.6-39.6"/>
			<path class="Graphic_x0020_Style_x0020_95" d="M1328.2,2766.7c-4.8-1.8-9.6-3.6-14.7-3.8c-7.6-0.3-14.9,3-21.5,6.7
				c-13.7,7.7-26,17.7-39.5,25.7c-13.5,8.1-28.7,14.4-44.4,13.9"/>
			<path class="Graphic_x0020_Style_x0020_95" d="M1591.6,2844.3c-10-7.5-20-15.1-27.8-24.8c-14.9-18.6-20-43-25.6-66.2
				c-5.6-23.2-13-47.5-30.9-63.3"/>
			<path class="Graphic_x0020_Style_x0020_95" d="M1676.3,2805.2c-11.3,12.8-18.1,29.6-19,46.6c-0.9,17.1,6.3,35.3,16.2,49.3"/>
		</g>
	</g>
	<path class="Graphic_x0020_Style_x0020_219" d="M2072,1534.3c-19.2,24.4-50.5,23-75.4,15.6c1.8,2.5,4.1,4.6,7,6.5
		c18.5,12,102.3,5,103.9,4.9c12.1-0.7,18.8-12.4,20.1-25.5C2109.9,1521.5,2083.8,1518,2072,1534.3z"/>
	<path class="st13" d="M2103,1498.1c0,0-68.5-43.5-91.4-11.4c-19.3,27.2-25,49.6-15.1,63.2c24.9,7.4,56.2,8.8,75.4-15.6
		c11.8-16.3,37.9-12.8,55.6,1.4C2129.2,1518.2,2121.2,1498.1,2103,1498.1z"/>
	<polygon class="Graphic_x0020_Style_x0020_220" points="1808.8,1299.9 1663.8,1561.6 1682.5,1561.6 1826.8,1299.9 	"/>
	<rect x="1359.2" y="1563.3" class="Graphic_x0020_Style_x0020_220" width="323.8" height="12.4"/>
	<path class="Graphic_x0020_Style_x0020_84" d="M1944,1518.3c11.1-9.7,11.6-23.3,10.9-37.5h-78.3v47.5c0,3.8,0.5,7.6,1.3,11.2
		C1901.8,1543.6,1926.2,1536.1,1944,1518.3z"/>
	<path class="st30" d="M1954.9,1480.9c0.7,14.1,0.3,27.7-10.9,37.5c-17.8,17.8-42.2,25.3-66.1,21.1c5,20.8,23.8,36.3,46.1,36.3
		c26.2,0,47.5-21.2,47.5-47.4v-47.5H1954.9z"/>
	<path class="Graphic_x0020_Style_x0020_210" d="M1625,802.8h-287.7c-32,0-58,25.9-58,57.9v117.7c0,18.9,9.1,35.7,23.1,46.3
		l-77.8,70.5l141.6-58.9H1625c32,0,58-25.9,58-57.9V860.7C1683,828.7,1657,802.8,1625,802.8z"/>
	<g>
		<path class="Graphic_x0020_Style_x0020_84" d="M1347.2,855.1h266.9c4.1,0,7.5-3.3,7.5-7.5c0-4.1-3.3-7.5-7.5-7.5h-266.9
			c-4.1,0-7.5,3.3-7.5,7.5C1339.7,851.8,1343.1,855.1,1347.2,855.1z"/>
		<path class="Graphic_x0020_Style_x0020_84" d="M1614.2,896.2h-266.9c-4.1,0-7.5,3.3-7.5,7.5l0,0c0,4.1,3.3,7.5,7.5,7.5h266.9
			c4.1,0,7.5-3.3,7.5-7.5l0,0C1621.6,899.6,1618.3,896.2,1614.2,896.2z"/>
		<path class="Graphic_x0020_Style_x0020_84" d="M1614.2,952.3h-266.9c-4.1,0-7.5,3.3-7.5,7.5c0,4.1,3.3,7.5,7.5,7.5h266.9
			c4.1,0,7.5-3.3,7.5-7.5C1621.6,955.7,1618.3,952.3,1614.2,952.3z"/>
	</g>
	<path class="st22" d="M880.7,2923.4c17.3-26-1.4-55.1-8-83.2l-0.3-0.2l-245.3,114c65.9,9.7,133.5,16.1,198.9,18.7
		C846.6,2959.9,865.5,2944.4,880.7,2923.4z"/>
	<path class="st23" d="M1107.9,2954.1l-235.2-113.8c6.6,28.1,25.4,57.2,8,83.2c-15.2,21-34.1,36.5-54.7,49.4
		C930.3,2977,1029.3,2971.5,1107.9,2954.1z"/>
	<path class="st22" d="M2729.4,2840.7l-1.2-0.6l-245.3,114c63.1,9.3,127.8,15.5,190.6,18.4c22.3-8.7,42.9-21.1,60.1-37
		C2760.7,2911.4,2745.7,2873.4,2729.4,2840.7z"/>
	<path class="st23" d="M2963.6,2954.1l-234.3-113.4c16.3,32.7,31.3,70.7,4.2,94.7c-17.2,15.9-37.8,28.3-60.1,37
		C2780.8,2977.3,2883,2972,2963.6,2954.1z"/>
	<linearGradient id="SVGID_6_" gradientUnits="userSpaceOnUse" x1="3328.8691" y1="3125.2993" x2="3472.7349" y2="3125.2993">
		<stop  offset="0" style="stop-color:#4085F0"/>
		<stop  offset="1" style="stop-color:#275DC9"/>
	</linearGradient>
	<ellipse class="st31" cx="3400.8" cy="3125.3" rx="71.9" ry="71.9"/>
</g>
</svg>
