<?xml version="1.0" encoding="utf-8"?>
<!-- Generator: Adobe Illustrator 22.0.0, SVG Export Plug-In . SVG Version: 6.00 Build 0)  -->
<svg version="1.1" id="Layer_1" xmlns="http://www.w3.org/2000/svg" xmlns:xlink="http://www.w3.org/1999/xlink" x="0px" y="0px"
	 viewBox="0 0 4000 4000" style="enable-background:new 0 0 4000 4000;" xml:space="preserve">
<style type="text/css">
	
		.Graphic_x0020_Style_x0020_22{fill:#8E9DF4;stroke:#1A1A1A;stroke-width:2;stroke-linecap:round;stroke-linejoin:round;stroke-miterlimit:10;}
	
		.Graphic_x0020_Style_x0020_27{fill:#1A1A1A;stroke:#1A1A1A;stroke-width:2;stroke-linecap:round;stroke-linejoin:round;stroke-miterlimit:10;}
	
		.Graphic_x0020_Style_x0020_26{fill:#FFFFFF;stroke:#1A1A1A;stroke-width:2;stroke-linecap:round;stroke-linejoin:round;stroke-miterlimit:10;}
	
		.Graphic_x0020_Style_x0020_21{fill:#5067EF;stroke:#1A1A1A;stroke-width:2;stroke-linecap:round;stroke-linejoin:round;stroke-miterlimit:10;}
	
		.Graphic_x0020_Style_x0020_33{fill:none;stroke:#FFFFFF;stroke-width:2;stroke-linecap:round;stroke-linejoin:round;stroke-miterlimit:10;}
	.st0{fill:#1A1A1A;stroke:#1A1A1A;stroke-width:2;stroke-linecap:round;stroke-linejoin:round;stroke-miterlimit:10;}
	.st1{fill:#FFFFFF;stroke:#1A1A1A;stroke-width:2;stroke-linecap:round;stroke-linejoin:round;stroke-miterlimit:10;}
	.st2{fill:#FFFFFF;}
	.st3{fill:none;stroke:#1A1A1A;stroke-width:3;stroke-linecap:round;stroke-linejoin:round;stroke-miterlimit:10;}
	.st4{fill:none;stroke:#1A1A1A;stroke-width:2;stroke-linecap:round;stroke-linejoin:round;stroke-miterlimit:10;}
	.st5{fill:none;stroke:#FFFFFF;stroke-width:3;stroke-linecap:round;stroke-linejoin:round;stroke-miterlimit:10;}
	.st6{fill:#8E9DF4;stroke:#1A1A1A;stroke-linecap:round;stroke-linejoin:round;stroke-miterlimit:10;}
</style>
<g>
	<path class="Graphic_x0020_Style_x0020_26" d="M341.1,2938.1c-23.4-30.5-97.1-134.7-75.9-257.9c28-162.3,210.5-298.6,443-291.3
		c35.9-46,131.3-155,294.3-203.3c265-78.5,485.4,69.8,515.8,91c98-46.3,242.9-100.2,424.8-118.3c312.5-31.1,558.1,61,676.6,115.3
		c324.9-249.3,739.6-244.6,974-30.3c105.9,96.8,229.8,295.4,200.3,524.9c-13.8,107.1-56.8,188.3-88,236.7
		C2584.3,2982.6,1462.7,2960.4,341.1,2938.1z"/>
	<ellipse class="Graphic_x0020_Style_x0020_26" cx="1893.7" cy="3010.3" rx="1850" ry="172"/>
	<g>
		<g>
			<polygon class="Graphic_x0020_Style_x0020_26" points="3522.5,2944.3 2921.9,2896.7 2921.9,1513.8 3515,1520.1 			"/>
			<polygon class="Graphic_x0020_Style_x0020_26" points="2949.6,2871.1 2949.6,1541.8 3487.4,1547.5 3494.7,2914.3 			"/>
			<path class="st0" d="M3433.8,2557.4c0-7-5.7-12.7-12.7-12.7c-7,0-12.7,5.7-12.7,12.7s5.7,12.7,12.7,12.7
				C3428,2570.1,3433.8,2564.4,3433.8,2557.4z"/>
			<polygon class="st1" points="2949.6,1928.7 3489.6,1945.1 3489.6,1978.5 2949.6,1957.3 			"/>
			<polygon class="st1" points="2949.6,2211.8 3489.6,2228.2 3489.6,2261.5 2949.6,2240.4 			"/>
			<g>
				<polygon class="st1" points="3232.5,1699 3136.9,1926.5 3103.2,1926.5 3197.3,1699 				"/>
				<polygon class="st1" points="3283.1,1699 3187.6,1926.5 3153.8,1926.5 3247.9,1699 				"/>
				<polygon class="st1" points="3333.8,1699 3238.2,1926.5 3204.4,1926.5 3298.6,1699 				"/>
				<polygon class="st1" points="3384.4,1699 3288.8,1926.5 3255.1,1926.5 3349.2,1699 				"/>
				<polygon class="st1" points="3435,1699 3339.5,1926.5 3305.7,1926.5 3399.9,1699 				"/>
				<polygon class="st1" points="3485.7,1699 3390.1,1926.5 3356.4,1926.5 3450.5,1699 				"/>
			</g>
			<g>
				<g>
					<polygon class="st1" points="3250,2221.8 3200.3,2220 3200.3,1998.3 3250,2000 					"/>
					<polygon class="Graphic_x0020_Style_x0020_27" points="3235.3,2049.9 3216.6,2049.2 3216.6,2022.6 3235.3,2023.2 					"/>
				</g>
				<g>
					<polygon class="Graphic_x0020_Style_x0020_22" points="3319.3,2224.2 3269.5,2222.5 3269.5,2000.7 3319.3,2002.4 					"/>
					<polygon class="Graphic_x0020_Style_x0020_27" points="3304.6,2052.3 3285.9,2051.6 3285.9,2025 3304.6,2025.7 					"/>
				</g>
				<g>
					<polygon class="Graphic_x0020_Style_x0020_22" points="3388.6,2226.6 3338.8,2224.9 3338.8,2003.1 3388.6,2004.8 					"/>
					<polygon class="Graphic_x0020_Style_x0020_27" points="3373.8,2054.7 3355.1,2054 3355.1,2027.4 3373.8,2028.1 					"/>
				</g>
				<g>
					<polygon class="st1" points="3457.8,2229 3408.1,2227.3 3408.1,2005.5 3457.8,2007.2 					"/>
					<polygon class="Graphic_x0020_Style_x0020_27" points="3443.1,2057.1 3424.4,2056.4 3424.4,2029.8 3443.1,2030.5 					"/>
				</g>
			</g>
		</g>
		<polygon class="st0" points="3661.3,1541.8 3515,1520.1 3522.5,2944.3 3661.3,2914.3 		"/>
	</g>
	<path class="st1" d="M2758.9,2021.7v809.2c-16.7,9.3-33.5,18.5-50.5,27.6v-836.8H2758.9z"/>
	<path class="Graphic_x0020_Style_x0020_26" d="M2203.8,3063.4c-59.6,5.5-678.5-19.2-722.5,6.7c-44,25.9-49,106.9-49,106.9
		s309.7,0.1,415.2,5.4c141.7,7.1,282.2,0,409.8-3.3C2257.4,3178.8,2243.4,3091.9,2203.8,3063.4z"/>
	<ellipse class="Graphic_x0020_Style_x0020_26" cx="3850" cy="2578.6" rx="106.3" ry="106.3"/>
	<ellipse class="st0" cx="512.7" cy="2716.7" rx="58.8" ry="58.8"/>
	
		<ellipse transform="matrix(1.190259e-02 -0.9999 0.9999 1.190259e-02 -2237.5283 2513.3354)" class="Graphic_x0020_Style_x0020_26" cx="153" cy="2388.8" rx="38.2" ry="38.2"/>
	<g>
		<path class="st1" d="M2559.2,2304.7c0,4.4,47.5,40.8,43,64c-4.4,23.2-89.4,145.7-89.4,145.7s-43,16.6-43,0
			c0-16.6,5.5-146.8,5.5-146.8L2559.2,2304.7z"/>
		<path class="Graphic_x0020_Style_x0020_27" d="M2631.8,1711c0,0-499.1,92.9-453,218.6s320.3,454.8,320.3,454.8
			s62.9-24.1,84.1-76.8c-125.8-274.2-123.6-289.5-123.6-289.5s269.8-11,341.1-74.6C2872,1879.9,2631.8,1711,2631.8,1711z"/>
		<path class="Graphic_x0020_Style_x0020_21" d="M2518.9,1345.4c-67.3,79-149.6,125.9-257.1,130c-107.5,4.2-161.7-5.5-161.7-5.5
			c-46,26.3-46.2,59.2-10.5,97.1c0,0,246.3,31.3,336-8.6c89.7-39.8,224.8-98.6,246.8-180.9c17.3-64.8,22.9-182.1-6.7-176.1
			C2606.9,1213.4,2586.1,1266.4,2518.9,1345.4z"/>
		<path class="Graphic_x0020_Style_x0020_27" d="M2749.2,1735.1c-11,0-546.2,127.9-581.3,246c-35.1,118.1,281.2,464.8,281.2,464.8
			l93.6-38.2l-153.2-389.6c197.4,59.2,458.5,0,559.4-41.7c100.9-41.7,11-217.2,11-217.2L2749.2,1735.1z"/>
		<path class="Graphic_x0020_Style_x0020_21" d="M2613,1401.8c-19.2,139-38.8,307.6-25.5,337.7c308.6,71.7,408,124.3,416.8,20.5
			c8.8-103.8,58.5-549.8-105.3-571.8c-163.8-21.9-257.4,21.9-257.4,21.9"/>
		<path class="st1" d="M2318.1,1506.4c0,0-74.1-14.9-97.2,0c-23.2,14.9-65.8,28.1-60,41.8c5.8,13.7,38.9,20.3,43.4,20.3
			c4.6,0,57.5,5.4,74-7c16.6-12.4,41-1.3,39.8-2.5S2335,1517.1,2318.1,1506.4z"/>
		<path class="Graphic_x0020_Style_x0020_21" d="M2862.6,1294.5c0,0-102,187.9-358.6,209.1c-138.2-11.7-204.7-12.7-204.7-12.7
			c-18.4,22.9-16.1,50.8-6.2,80.4c0,0,145.7,68,411.2,0c265.4-68,277.4-228.9,277.4-228.9"/>
		<path class="Graphic_x0020_Style_x0020_26" d="M2816.7,1042.3c0.5,12.4,20.2,152.1,20.2,152.1c-0.9,2.9-66.1,55-97.4,49.9
			c-10.6-1.7-4.2-38.6-1.7-53.7l-6.4-74.8c0,0-33.3,10.8-48.7,0.1c-15.4-10.7-57.1-141.1-18.5-177.7
			C2702.9,901.6,2808.7,850.2,2816.7,1042.3z"/>
		<path class="Graphic_x0020_Style_x0020_27" d="M2621.6,974.9c0,0,102,3.7,125.8-5.5c7.8,60.8,7.8,60.8,7.8,60.8l14.5-8.2
			c0,0-5-29.5,14.2-27c19.1,2.6,29.7,46,16.2,54.4c15.5,35,33,32.7,33,32.7s45.3-143.5-17-185.8c-21-4.2-32.4-3.7-32.4-3.7
			s-8.8-27.7-37-37.1C2718.6,846.2,2624,876,2621.6,974.9z"/>
		<path class="Graphic_x0020_Style_x0020_33" d="M2602.2,1793.3c0,0-265.1,28.4-417.8,157.5"/>
		<path class="st1" d="M2750.7,1253.2l15.2-27.3c0,0,69.3-48,73.3-63.7c14.2,18.2,15.7,21.5,15.7,21.5S2808.3,1250.7,2750.7,1253.2z
			"/>
		<path class="st1" d="M2735.4,1177.4c0,0-30.7,41.5-23.6,57.1c27.8,9.8,27.8,9.8,27.8,9.8s-11.6-33,0-51.2
			C2737,1180.3,2735.4,1177.4,2735.4,1177.4z"/>
	</g>
	<g>
		<g>
			<path class="st2" d="M2360.4,1660.2H1115.9c-8,0-14.4-6.5-14.4-14.4v-60c0-8,6.5-14.4,14.4-14.4h1244.5c8,0,14.4,6.5,14.4,14.4
				v60C2374.9,1653.7,2368.4,1660.2,2360.4,1660.2z"/>
			<rect x="1708.6" y="1660.2" class="st2" width="59.2" height="357.9"/>
			<rect x="1708.6" y="2018.1" class="st2" width="59.2" height="846.2"/>
			<rect x="1522.6" y="2864.3" class="st2" width="431.1" height="49.4"/>
		</g>
		<g>
			<path class="st3" d="M2360.4,1660.2H1115.9c-8,0-14.4-6.5-14.4-14.4v-60c0-8,6.5-14.4,14.4-14.4h1244.5c8,0,14.4,6.5,14.4,14.4
				v60C2374.9,1653.7,2368.4,1660.2,2360.4,1660.2z"/>
			<rect x="1708.6" y="1660.2" class="Graphic_x0020_Style_x0020_27" width="59.2" height="357.9"/>
			<rect x="1708.6" y="2018.1" class="st3" width="59.2" height="846.2"/>
			<rect x="1522.6" y="2864.3" class="st3" width="431.1" height="49.4"/>
		</g>
		<g>
			<path class="st4" d="M2360.4,1660.2H1115.9c-8,0-14.4-6.5-14.4-14.4v-60c0-8,6.5-14.4,14.4-14.4h1244.5c8,0,14.4,6.5,14.4,14.4
				v60C2374.9,1653.7,2368.4,1660.2,2360.4,1660.2z"/>
			<rect x="1708.6" y="1660.2" class="st4" width="59.2" height="357.9"/>
			<rect x="1708.6" y="2018.1" class="st4" width="59.2" height="846.2"/>
			<rect x="1522.6" y="2864.3" class="st4" width="431.1" height="49.4"/>
		</g>
	</g>
	<path class="st0" d="M1127.5,2371.7c0,0-65.9,152.4-69.7,160.7c-3,20.3,13.1,9.9,18.7,8.5l42.7-55c0,0,25.1,145.3,89,186.9
		c35.1-4,3.1-132-7.8-184.7C1162.6,2421.2,1127.5,2371.7,1127.5,2371.7z"/>
	<g>
		<path class="st1" d="M1155.6,1923.8c0,0-17.5,196-85.6,319.5c-68,123.6-101.6,252.3-101.6,252.3l-46.8-29.2
			c0,0,21.7-343.7,96.4-460.6c74.7-117,79.1-95.1,79.1-95.1L1155.6,1923.8z"/>
		<path class="st0" d="M932.3,2352.5c0,0-61.2,143.6-64.4,150.5c-2.5,16.9,10.9,8.2,15.6,7.1l35.6-45.8c0,0,20.8,121.1,73.9,155.6
			c29.2-3.3,4.2-144.2-4.8-188.1C958,2407.7,932.3,2352.5,932.3,2352.5z"/>
		<path class="st1" d="M1191.6,2398.1c-0.4-51.7,102.8-279.9,123.4-409.8c28.1-177-26.3-143.5-32.2-146.4l-88.6,103.3
			c0,0-54.1,340.7-68.3,424.3c-14.2,83.6,74.8,128.1,74.8,128.1S1192,2449.8,1191.6,2398.1z"/>
		<path class="Graphic_x0020_Style_x0020_27" d="M550.1,1738.4c0,0-79,231.8,119.9,240.9s494.3,9.1,494.3,9.1
			s178.4-58.9,153.6-146.6C1293,1754.1,934,1690.1,934,1690.1L550.1,1738.4z"/>
		<path class="st1" d="M1062.1,1480.1c-0.7-0.3-1.4-0.7-2.1-1c-24.4-33.9-92.5-129.9-115.2-176.7l-81.9,46.5
			c0,0,19.1,175.2,115.1,195.2C986.2,1506.2,1024.2,1485.7,1062.1,1480.1z"/>
		<path class="st1" d="M1415.1,1519.6c-61.3,3.8-248.2,9.1-353.1-39.5c-37.9,5.6-75.9,26.1-84.2,63.9c0.6,0.1,1.3,0.3,1.9,0.4
			c0,0,51.3,29.2,232.6,30.3c181.2,1.1,193.7-8,193.7-8l55.4,4.6l98.5-8.2C1560,1563.2,1481.3,1515.5,1415.1,1519.6z"/>
		<path class="st1" d="M1036.6,937.3c0,0-72.5-38.8-125.5,14.1c-22.1,22-21.6,53.1-13.5,81.9l-2.3-0.5L795.7,1180
			c0,0,110,56.8,113.7,29.1c2-14.7,20.7-58.2,37.8-95.8c4.4,1.5,10.4,3.5,18.6,6.2C1097.6,1143,1036.6,937.3,1036.6,937.3z"/>
		<polygon class="Graphic_x0020_Style_x0020_27" points="937.3,1109 946.1,1113.6 935.8,1136.9 		"/>
		<path class="st1" d="M550.9,1757.9c93.6,103.5,350.2,9.4,397-49.1c46.8-58.5-105.5-177.6,28.5-238.6
			c49.7-22.6,11-201.6-18.3-255.7c-29.2-54.1-121.3-98.4-160.9-68.9C713.7,1208.1,457.3,1654.5,550.9,1757.9z"/>
		<path class="st1" d="M806.3,1140.5c0,0-16.8-22.7,6.9-22.2c23.7,0.6,116.1,32,126,70.7C917.2,1175.9,806.3,1140.5,806.3,1140.5z"
			/>
		<path class="st1" d="M1081,1403.5c0,0,7.3,52.6,220.8-13.2c128.7-36.6,128.7-36.6,128.7-36.6s64.3-63.7,70.4-49.9
			c6.2,13.8-41.9,44.4,5.6,35.2c15.4-3,33.7-41.5,52.6-46.5c18.9-5,10.1,53-24.5,88.1c-45.6,46.2-96.2,7.4-132.9,26.6
			s-213.9,121.7-304.4,106.4s-121-55.6-121-55.6L1081,1403.5z"/>
		<path class="st1" d="M848.5,1255.5c0,0,53.7,223.7,175.1,244.2c77.5-24.9,80.8-81.9,80.8-81.9s-119.5-149.8-154.1-215.3"/>
		<path class="Graphic_x0020_Style_x0020_27" d="M975.5,994.5c0,0,3,143.7-108.3,109.9S845,922.4,906,905
			c64.3-75.6,162.1-77.3,167.6-7.6C1079.1,967,1064.1,991.4,975.5,994.5z"/>
	</g>
	<g>
		<path class="Graphic_x0020_Style_x0020_27" d="M881.4,2021.7v898.5c-16.6-11-33.5-16.9-50.4-28.4v-870.1H881.4z"/>
		<path class="Graphic_x0020_Style_x0020_26" d="M1140.8,2021.7c0-18.4-16.2-33.4-36.2-33.4H607.7c-10,0-19,3.7-25.6,9.8
			c-6.6,6-10.6,14.4-10.6,23.6c0,7.6,2.8,14.6,7.4,20.2h554.3C1138,2036.3,1140.8,2029.3,1140.8,2021.7z"/>
		<path class="Graphic_x0020_Style_x0020_26" d="M579,2041.9c6.6,8,17,13.1,28.7,13.1h496.9c10,0,19-3.7,25.6-9.8
			c1.1-1.1,2.2-2.2,3.2-3.4H579z"/>
		<path class="st1" d="M1088.7,2487h-75.8H704h-75.8c-11.5,0-20.8,8.6-20.8,19.2c0,5.3,2.3,10.1,6.1,13.6c3.8,3.5,9,5.6,14.7,5.6
			H757h202.7h128.9c5.7,0,11-2.1,14.7-5.6c3.8-3.5,6.1-8.3,6.1-13.6C1109.5,2495.6,1100.2,2487,1088.7,2487z"/>
	</g>
	<g>
		<path class="Graphic_x0020_Style_x0020_27" d="M2758.9,2021.7v870.1c-16.7,9.3-33.5-28.9-50.5-19.8v-850.2H2758.9z"/>
		<path class="Graphic_x0020_Style_x0020_26" d="M3018.3,2021.7c0-18.4-16.2-33.4-36.2-33.4h-496.9c-10,0-19,3.7-25.6,9.8
			c-6.6,6-10.6,14.4-10.6,23.6c0,7.6,2.8,14.6,7.4,20.2h554.3C3015.5,2036.3,3018.3,2029.3,3018.3,2021.7z"/>
		<path class="Graphic_x0020_Style_x0020_26" d="M2456.5,2041.9c6.6,8,17,13.1,28.7,13.1h496.9c10,0,19-3.7,25.6-9.8
			c1.1-1.1,2.2-2.2,3.2-3.4H2456.5z"/>
		<path class="st1" d="M2987,2506.2c0,5.3-2.3,10.1-6.1,13.6c-3.8,3.5-9,5.6-14.7,5.6h-465.1c-11.5,0-20.8-8.6-20.8-19.2
			c0-5.3,2.3-10.1,6.1-13.6c3.8-3.5,9-5.6,14.7-5.6h465.1C2977.7,2487,2987,2495.6,2987,2506.2z"/>
		<path class="Graphic_x0020_Style_x0020_26" d="M2564.3,2477.1c-15.4,35.4-117.5,129.1-138.6,126.9c-21.1-2.2-30.3-19.9-18.2-40.8
			c12.1-21,57.4-101,57.4-101l-11-18.3l84.1-34.3C2555.7,2431.2,2575.5,2451.4,2564.3,2477.1z"/>
	</g>
	<g>
		<g>
			<path class="Graphic_x0020_Style_x0020_26" d="M1816.8,3039.2c102.1,3.6,134.7,26.9,163.7,6c18.1-13.1,30.5-40.3,22.3-62.3
				c-10.2-27.3-46.8-32.5-48.6-32.8c95.2-2.5,160.3-37.1,164-73.9c1.8-17.5-9.3-45-32.4-59.9c-18-11.6-36.8-11.4-44.7-10.9
				c80-39.5,128.3-87.1,119.7-117.2c-3.4-11.8-17.8-29.2-38.6-34.2c-16.9-4.1-31.3,1.6-37.1,4.3c42.4-36.9,49.2-86.4,29.8-109
				c-12-14-34.8-18.4-53.3-13.7c-25.8,6.6-45.2,31.3-46.5,61.4c-0.6-2.6-10.2-42.5-36.2-48.5c-28.3-6.5-57.6,31.5-66,62.9
				c-8.4,31.2,3.2,58.2,7.7,67.5c-1.7-4-18.8-42-48.6-44.7c-40.9-3.6-65.9,62.9-67.5,67.2c-22.1,60.9,13.2,119.6,20.6,131.3
				c-34.3-26.1-74.3-31.2-97.5-14.2c-29,21.3-20.9,69.2-16.5,95.2c10.7,63.5,52.7,105.5,75.8,125
				C1793.4,3038.8,1803.9,3038.8,1816.8,3039.2z"/>
			<path class="st4" d="M2073.4,2584.2c-32.5,43.4-59.5,90.9-80.2,141c-29.8,72.2-47.5,151.5-96.5,212.2
				c-14.9,18.5-32.4,34.8-49.8,51c-19.9,18.5-40.2,37.3-64.7,48.9"/>
			<path class="st4" d="M1833.4,3000.8c1.6-3.5,5.6-66.2-70.9-109.1"/>
			<path class="st4" d="M1951.6,2838.3c2.4-26.6-12.6-51.4-28.1-73.2c-15.5-21.8-32.6-44.3-35.3-70.9"/>
			<path class="st4" d="M1984.5,2749.4c3.6-14.1,18-23,32.2-26c14.2-3,29-1.6,43.5-3.3c14.4-1.7,29.7-7.4,37-20"/>
			<path class="st4" d="M2008.4,2692.2c2-3.9,4.1-8,4.8-12.4c1-6.6-1.1-13.2-3.7-19.3c-5.3-12.6-12.7-24.2-18.4-36.7
				c-5.7-12.5-9.7-26.2-7.7-39.8"/>
			<path class="st4" d="M1915.6,2912.4c7.4-7.9,15-15.8,24.1-21.6c17.6-11.1,39.1-13.1,59.8-15.7c20.6-2.6,42.4-6.6,57.8-20.5"/>
			<path class="st4" d="M1941.1,2989.5c-10-11-23.8-18.6-38.5-21s-31.2,2-44.2,9.2"/>
		</g>
		<g>
			<path class="Graphic_x0020_Style_x0020_27" d="M2032.9,2972.6c-7.9-62.3-14.5-115.1,14.6-138.2c1.7-1.4,19.6-15.2,40.9-10
				c21.5,5.2,31.2,25.8,32.7,29.1c-10.7-65.6,2.6-115.8,28.2-124.6c11.1-3.8,28.4-1.2,40.9,9.1c18.3,15,17.4,38.8,17.3,41.8
				c2.7-17.7,15.1-85.7,63.7-109.1c9.6-4.6,28.1-13.5,42.7-4.5c16.7,10.3,15.6,36.1,15.5,38.2c24.1-43.6,60.6-64.9,85.5-56.4
				c11.2,3.9,21.2,14.2,24.6,26.4c5.9,21.7-9.3,49.5-40,64.6c18-1,34.2,6.2,41.8,19.1c12.4,21-4.6,46.1-7.3,50
				c-17,25.2-53.8,35.4-93.7,28.2c32.6,26,47.9,57.6,39.1,79.1c-5.7,14-20.2,20.4-36.4,27.3c-16.4,7-49.8,18-97.3,10.9
				c29.1,15.4,48.8,37.1,46.4,56.4c-3.2,25.8-44.8,37-76.4,45.5c-23,6.2-127.2,34.3-167.3-17.3
				C2039.8,3027,2037.5,3008.9,2032.9,2972.6z"/>
			<path class="st5" d="M2028.8,3060.9c44.6-19.7,78.3-57.9,106.3-97.9s52-83,85-118.9c31.2-34,69.6-60.6,103.6-91.8
				c25.6-23.6,48.8-49.8,69-78.2"/>
			<path class="st5" d="M2080.4,2890c26.4,41.3,34.8,88.5,7.9,129.5"/>
			<path class="st5" d="M2113,2993c34.2-17.4,102.1,12.3,137.2,7.1"/>
			<path class="st5" d="M2166,2916.7c14.7-43.1,4.4-83.4,7.4-120.2"/>
			<path class="st5" d="M2282.8,2713.1c-3.1,33.2-11.7,65.9-25.4,96.3"/>
			<path class="st5" d="M2296.6,2776.1c31.4-11.6,66.7-12.4,98.6-2.1"/>
			<path class="st5" d="M2191.6,2879.3c35.1-17.6,76.4-19.5,113-5.4"/>
		</g>
		<g>
			<path class="st6" d="M1629.8,2803.8c-83.1-58.7-124.3-60-133.4-94c-5.7-21.2,2.5-50.2,23.6-62.6c26.1-15.4,58.5,2.6,60.1,3.5
				c-73.6-59.4-102.2-126-80.8-157.3c10.2-14.9,37.1-29.9,65.3-27.7c21.9,1.7,36.7,13.2,42.6,18.4c-37.2-79.4-43.8-146.1-17.2-164.7
				c10.5-7.3,33.4-12.3,53.1-3.7c16,7,23.7,20.2,26.5,25.8c-9.1-54.7,18.3-97.8,48.5-104c18.8-3.8,39.7,6.5,51.2,21.3
				c16.1,20.7,15,52-3.8,76.5c2.2-1.7,36.2-27.4,60.7-16.4c26.7,12,24.7,59.6,10.6,89.5c-14,29.7-41,44-50.8,48.6
				c4-2.1,42.7-21.8,68-5.9c34.7,21.8,10.5,89.4,8.9,93.7c-22.8,61.4-89.6,86.3-103.1,91.1c44.4,0.1,79.4,20.3,86.5,47.7
				c8.9,34.3-29.2,67.2-49.9,85c-50.5,43.6-111.5,51.4-142.6,52.9C1648.7,2817.5,1640.3,2811.2,1629.8,2803.8z"/>
			<path class="st4" d="M1727.8,2290c-3,53.8-13.1,107.6-29.8,159.6c-24.2,74.9-62.7,148.1-64.1,225.6c-0.4,23.6,2.6,47,5.7,70.3
				c3.5,26.6,7.1,53.6,18.8,77.6c10.9,22.2,28.3,40.9,48.7,55.6"/>
			<path class="st4" d="M1640.9,2762.1c1-3.7,3.6-6.9,6.3-9.7c16.1-16.8,39.7-24.5,62.4-30c22.7-5.5,46.4-9.8,66.4-22"/>
			<path class="st4" d="M1656.1,2563.9c15.7-22.5,44-33,70.6-40.8c26.6-7.8,55.1-15.3,74.8-34.6"/>
			<path class="st4" d="M1688.9,2474c6.5-13.3,1-29-8.3-39.9c-9.3-11-21.9-18.8-32.2-28.9c-10.3-10.1-18.6-23.8-16-38.1"/>
			<path class="st4" d="M1707.8,2414.4c1-4.3,2-8.8,4.4-12.6c3.5-5.8,9.6-9.7,15.7-13c12.6-6.7,26.1-11.4,38.8-17.8
				c12.7-6.4,25-14.8,32.4-26.7"/>
			<path class="st4" d="M1635.6,2644.1c-0.7-10.7-1.4-21.5-4.8-31.6c-6.6-19.3-22.3-33.9-36.9-48.4s-29.1-30.8-32.1-51.1"/>
			<path class="st4" d="M1564.4,2689.5c15.2-2.7,31.1-0.3,44.3,6.6c13.2,6.9,23.8,18.3,29.3,31.9"/>
		</g>
		<g>
			<path class="Graphic_x0020_Style_x0020_26" d="M1745.5,2954.3c-9.1-118.7,13.6-159.5-14.5-190.3c-17.5-19.2-50.7-30.1-75.1-17.6
				c-30.2,15.4-31.6,58.4-31.6,60.5c-15.3-109.9-63.9-180.8-107.1-180.3c-20.5,0.2-50.9,16.7-65.1,45.4
				c-11.1,22.4-8.4,44.1-6.8,53.2c-56.2-87.5-117.7-137.2-151.4-123.3c-13.2,5.4-31.5,24.4-34.6,49.1c-2.5,20.1,6,36,9.9,42.4
				c-48.3-44.3-106.5-45.6-130.1-20.3c-14.7,15.8-16.8,42.7-8.9,63.5c11,29,42.2,48.2,77.2,45.9c-3,1-47.9,17.4-51.4,48.3
				c-3.8,33.7,44.1,62.6,81.5,68.3c37.2,5.7,67-11.3,77.2-17.7c-4.4,2.5-46.2,27.3-45.4,62.1c1.1,47.8,81.5,68.1,86.6,69.3
				c73.4,17.7,136.8-31,149.3-41.1c-25.8,43.2-26.4,90.2-3.6,114.8c28.4,30.8,82.8,15.2,112.4,6.7c72.1-20.7,115.3-74.9,134.9-104.1
				C1748,2981.5,1746.7,2969.3,1745.5,2954.3z"/>
			<path class="st4" d="M1184.9,2716.7c54.5,32,113.1,57,173.8,74.4c87.5,25,181.6,35.1,258.4,83.9c23.4,14.9,44.5,33,65.5,51
				c24,20.6,48.4,41.6,65.1,68.5c15.5,24.9,25.8,22,28.3,51.2"/>
			<path class="st4" d="M1698.9,2940.1c-4.2-1.4-77.4,2.2-117.1,96.4"/>
			<path class="st4" d="M1495.2,2824.5c-31.1,0.7-57.9,21.3-81.1,42.1c-23.2,20.8-47,43.6-77.5,50.2"/>
			<path class="st4" d="M1387.9,2798c-16.8-2.3-28.9-17.8-34.3-33.9c-5.3-16.1-5.7-33.4-9.6-49.9c-3.8-16.5-12.5-33.5-28-40.2"/>
			<path class="st4" d="M1318.5,2777.8c-4.8-1.8-9.8-3.7-14.9-3.9c-7.7-0.3-15.1,3-21.9,6.8c-13.9,7.8-26.4,17.9-40.1,26.1
				c-13.7,8.2-29.1,14.6-45,14.1"/>
			<path class="st4" d="M1585.7,2856.5c-10.1-7.6-20.3-15.3-28.2-25.1c-15.1-18.9-20.3-43.6-26-67.2c-5.7-23.5-13.2-48.2-31.3-64.2"
				/>
			<path class="st4" d="M1671.6,2816.8c-11.5,13-18.4,30-19.3,47.3c-0.9,17.3,6.4,35.8,16.4,50"/>
		</g>
	</g>
	<path class="Graphic_x0020_Style_x0020_26" d="M2104.5,1490.9c0,0-69.5-44.1-92.7-11.6c-23.2,32.6-27,58.5-8.3,70.6
		c18.8,12.1,103.7,5.1,105.4,5C2137.7,1553.2,2136.6,1490.8,2104.5,1490.9z"/>
	<polygon class="st0" points="1806.1,1289.8 1658.9,1555.3 1677.9,1555.3 1824.3,1289.8 	"/>
	<rect x="1349.9" y="1557" class="st0" width="328.4" height="12.6"/>
	<path class="st0" d="M1971.1,1473.4v48.1c0,26.6-21.6,48.1-48.1,48.1s-48.1-21.5-48.1-48.1v-48.1H1971.1z"/>
	<path class="Graphic_x0020_Style_x0020_26" d="M1619.6,785.5h-291.9c-32.5,0-58.8,26.3-58.8,58.8v119.4c0,19.2,9.2,36.2,23.4,47
		l-78.9,71.6l143.7-59.7h262.5c32.5,0,58.8-26.3,58.8-58.8V844.3C1678.4,811.8,1652.1,785.5,1619.6,785.5z"/>
	<g>
		<path class="st1" d="M1337.8,838.6h270.8c4.2,0,7.6-3.4,7.6-7.6c0-4.2-3.4-7.6-7.6-7.6h-270.8c-4.2,0-7.6,3.4-7.6,7.6
			C1330.2,835.2,1333.6,838.6,1337.8,838.6z"/>
		<path class="st1" d="M1608.6,880.3h-270.8c-4.2,0-7.6,3.4-7.6,7.6l0,0c0,4.2,3.4,7.6,7.6,7.6h270.8c4.2,0,7.6-3.4,7.6-7.6l0,0
			C1616.2,883.7,1612.8,880.3,1608.6,880.3z"/>
		<path class="st1" d="M1608.6,937.2h-270.8c-4.2,0-7.6,3.4-7.6,7.6c0,4.2,3.4,7.6,7.6,7.6h270.8c4.2,0,7.6-3.4,7.6-7.6
			C1616.2,940.6,1612.8,937.2,1608.6,937.2z"/>
	</g>
	<path class="st0" d="M856.1,2852.2l-248.9,115.6c173.5,25.4,358,28.8,487.8,0L856.1,2852.2z"/>
	<path class="st0" d="M2738.6,2852.2l-248.9,115.6c173.5,25.4,358,28.8,487.8,0L2738.6,2852.2z"/>
	<ellipse class="Graphic_x0020_Style_x0020_27" cx="3421" cy="3141.5" rx="73" ry="73"/>
</g>
</svg>
