<?xml version="1.0" encoding="utf-8"?>
<!-- Generator: Adobe Illustrator 22.0.0, SVG Export Plug-In . SVG Version: 6.00 Build 0)  -->
<svg version="1.1" id="Layer_1" xmlns="http://www.w3.org/2000/svg" xmlns:xlink="http://www.w3.org/1999/xlink" x="0px" y="0px"
	 viewBox="0 0 4000 4000" style="enable-background:new 0 0 4000 4000;" xml:space="preserve">
<style type="text/css">
	.st0{fill:url(#SVGID_1_);}
	.st1{fill:url(#SVGID_2_);}
	.st2{fill:url(#SVGID_3_);}
	.st3{fill:#FFFFFF;}
	.st4{fill:#1A1A1A;stroke:#1A1A1A;stroke-width:2;stroke-linecap:round;stroke-linejoin:round;stroke-miterlimit:10;}
	
		.st5{clip-path:url(#XMLID_2_);fill:none;stroke:#1A1A1A;stroke-width:2;stroke-linecap:round;stroke-linejoin:round;stroke-miterlimit:10;}
	.st6{fill:#FFFFFF;stroke:#1A1A1A;stroke-width:2;stroke-linecap:round;stroke-linejoin:round;stroke-miterlimit:10;}
	.st7{fill:url(#SVGID_4_);}
	.st8{fill:#572658;}
	.st9{fill:#79357A;}
	.st10{fill:#864487;}
	.st11{fill:#A152A3;}
	.st12{fill:#471F47;}
	.st13{fill:#1A1A1A;}
	.st14{fill:#FFBDC4;}
	.st15{fill:#EF5164;}
	.st16{fill:#D1334A;}
	.st17{fill:none;stroke:#99112B;stroke-width:2;stroke-linecap:round;stroke-linejoin:round;stroke-miterlimit:10;}
	.st18{fill:#DBD2DB;}
	.st19{fill:#CCC4CC;}
	.st20{fill:none;stroke:#203560;stroke-width:3;stroke-linecap:round;stroke-linejoin:round;stroke-miterlimit:10;}
	.st21{fill:#FC9590;}
	.st22{fill:#DB6767;}
	.st23{fill:#4F5766;}
	.st24{fill:#C1CDE6;}
	.st25{fill:#969FB3;}
	.st26{fill:#102140;}
	.st27{fill:#9EA8BD;}
	.st28{fill:#5C7199;}
	.st29{fill:#7B96CC;}
	.st30{fill:#B0CAFF;}
	.st31{fill:#A1A1A1;}
	.st32{fill:#13382B;}
	.st33{fill:#339975;}
	.st34{fill:#FFD44A;}
	.st35{fill:#FFDE70;}
	.st36{fill:#FFB114;}
	.st37{fill:url(#SVGID_5_);}
	.st38{fill:url(#SVGID_6_);}
</style>
<g>
	<linearGradient id="SVGID_1_" gradientUnits="userSpaceOnUse" x1="329.0495" y1="2005.4951" x2="3708.1191" y2="2005.4951">
		<stop  offset="0" style="stop-color:#68B2FC"/>
		<stop  offset="1" style="stop-color:#529BF7"/>
	</linearGradient>
	<path class="st0" d="M443.1,1054.9c-11.8,182.8,50.2,263.2,75,408.1c53.3,312-148.8,438.2-184.1,785.5
		c-15.8,155.3-1.1,382.9,150,677.7c92.6,463.5,260.2,653.3,402.3,739.3c182.7,110.5,318.2,46.2,750.1,123.2
		c355.7,63.4,386.6,128.9,572.8,154c441.5,59.5,1099.8-196.9,1377.4-839.4c321.4-743.7-90.8-1487.5-143.2-1578.6
		c-184.2-320.4-423.8-497.7-566-585.3c-135.2-411.6-350.7-602.6-450-677.7C1721.9-271.4,704.1,378.9,525,754.6
		C452.7,906.2,443.1,1054.9,443.1,1054.9z"/>
	<linearGradient id="SVGID_2_" gradientUnits="userSpaceOnUse" x1="3437.562" y1="3484.6077" x2="3583.1858" y2="3484.6077">
		<stop  offset="0" style="stop-color:#4085F0"/>
		<stop  offset="1" style="stop-color:#275DC9"/>
	</linearGradient>
	<ellipse class="st1" cx="3510.4" cy="3484.6" rx="72.8" ry="82.2"/>
	<linearGradient id="SVGID_3_" gradientUnits="userSpaceOnUse" x1="410.3077" y1="1996.002" x2="3535.8691" y2="1996.002">
		<stop  offset="0" style="stop-color:#4085F0"/>
		<stop  offset="1" style="stop-color:#275DC9"/>
	</linearGradient>
	<path class="st2" d="M429.9,2999.2c-50.6-228.9,4.6-470.1,75.9-691.9c71.3-221.8,160-441.1,178.8-676.1
		c28.1-350.8-100.6-719.6,11.2-1048.4c84.6-248.6,299.7-422.7,530.3-478.3c230.6-55.6,473.5-4.8,691.6,96.7
		c121.9,56.8,238.7,129.4,365.6,169.7c134.1,42.6,275.4,47.9,410.6,85.5c135.2,37.6,272.1,117.2,333.5,258.4
		c75.4,173.3,16.5,382.1,47.7,572c31.6,192.6,151.9,348.2,243.3,514.6c262.6,478,289.5,1110.1,68.7,1614.4
		c-64.6,147.6-154.2,289.7-284.6,363.4c-137.7,77.8-301,68.5-452.7,39c-151.8-29.5-302.7-77.5-456.6-71
		c-193.1,8.1-374.8,101-564.3,144.1c-189.5,43-413.9,21.5-534.8-148.7c-58.4-82.2-86-189.7-152.2-265.5
		c-48.6-55.6-103-58.6-167.5-76.2C603,3354.1,472.2,3190.7,429.9,2999.2z"/>
	<path class="st3" d="M3076.3,1293.5c-292,263.2-509.8,336.9-961.3,245.3c-488.9-99.1-522.8,8.6-955.2,599.9
		C936.6,2444,673.8,2468,471.9,2419.8c-52.8,189.4-84.1,388.6-42,579.4c42.3,191.5,173.1,354.9,344.5,401.6
		c64.5,17.6,118.9,20.6,167.5,76.2c66.2,75.7,93.8,183.2,152.2,265.5c120.9,170.3,345.3,191.8,534.8,148.7
		c189.5-43,371.2-136,564.3-144.1c153.9-6.4,304.9,41.5,456.6,71c151.8,29.5,315,38.8,452.7-39c130.4-73.6,220-215.8,284.6-363.4
		c220.8-504.3,193.9-1136.3-68.7-1614.4C3228.1,1637,3109.6,1483,3076.3,1293.5z"/>
	<path class="st4" d="M1249.5,3164.2H705.7c0,0-24.2,16.6-44.6,49.7h589.3C1250,3185.4,1249.5,3164.2,1249.5,3164.2z"/>
	<g>
		<defs>
			<path id="XMLID_9_" d="M661.1,3214c-17,27.6-31.4,66.6-26.8,117.1c0,0,37.3,43.6,143.8,72.5c106.5,28.9,185.4,101.1,185.4,101.1
				s283.4-123.2,285.9-181.9c1.4-31.7,1.3-75.3,0.9-108.8H661.1z"/>
		</defs>
		<use xlink:href="#XMLID_9_"  style="overflow:visible;fill:#572658;"/>
		<clipPath id="XMLID_2_">
			<use xlink:href="#XMLID_9_"  style="overflow:visible;"/>
		</clipPath>
		<path class="st5" d="M736.4,3274.5c-18.1,48.2-17.5,105,1.5,152.7"/>
		<path class="st5" d="M812.9,3313.5c11.3,52.9,17.1,107.2,17.4,161.6"/>
		<path class="st5" d="M936,3330.1c6.8,37,13.6,74.3,14.7,112.1c1.1,37.8-3.8,76.5-19.2,110.1"/>
		<path class="st5" d="M1057.5,3358.1c8,38.7,5.6,80-6.9,117.2"/>
	</g>
	<path class="st6" d="M1650.9,108.3v1185.3H676.7c-21.5-243.2-57.2-486.3,19.2-710.7c84.6-248.6,299.7-422.7,530.3-478.4
		C1366,70.8,1510.4,76.2,1650.9,108.3z"/>
	<linearGradient id="SVGID_4_" gradientUnits="userSpaceOnUse" x1="649.2964" y1="687.624" x2="1650.9424" y2="687.624">
		<stop  offset="0" style="stop-color:#68B2FC"/>
		<stop  offset="1" style="stop-color:#EBF0F7"/>
	</linearGradient>
	<path class="st7" d="M1650.9,108.3v1185.3H676.7c-2-23.1-4.2-46.2-6.4-69.3c-0.8-8.7-1.6-17.3-2.4-26c-1.7-18.3-3.5-36.6-5.1-54.8
		c-0.8-8.7-1.6-17.3-2.3-26c-1.6-18.3-3.1-36.6-4.4-54.9c-0.6-8.7-1.2-17.3-1.8-26c-1.2-18.3-2.2-36.6-3-54.9
		c-0.4-8.7-0.7-17.3-1-26c-0.6-18.4-0.9-36.6-0.9-54.9c0-8.7,0.1-17.3,0.3-26c0.3-18.4,1-36.7,2.1-54.9c0.5-8.7,1.2-17.3,1.9-26
		c1.5-18.4,3.5-36.7,6-54.9c1.2-8.7,2.5-17.3,3.9-26c3-18.4,6.6-36.7,10.9-54.9c2-8.7,4.2-17.3,6.5-26c4.4-16.6,9.4-33.1,15-49.4
		c0.6-1.8,1.2-3.6,1.9-5.4c3-8.8,6.3-17.4,9.7-26c7.4-18.8,15.5-37.1,24.4-54.9c4.4-8.8,8.9-17.4,13.6-26
		c10.4-18.9,21.5-37.2,33.5-54.9c5.9-8.8,12-17.5,18.3-26c14.1-19.1,29-37.4,44.7-54.9c8-8.9,16.1-17.6,24.5-26
		c19.2-19.5,39.4-37.8,60.4-54.9c11-9,22.3-17.7,33.8-26c28-20.3,57.1-38.6,87.2-54.8c17.4-9.4,35.1-18.1,53.1-26
		c40.8-18.1,82.8-32.4,125.4-42.6C1366,70.8,1510.4,76.2,1650.9,108.3z"/>
	<path class="st6" d="M3532.3,2799.1H2034.5v-465.9h762c0,0,59.7-71.2,164.5-73.2c104.8-1.9,169.6,54.9,169.6,54.9l40.1,3.8
		c0,0,49.5-50,109.1-58.7c45.2-6.6,145.4-9.8,211.9,10c4.6,21,8.8,42,12.7,63.2C3532.3,2486.1,3541.7,2643.4,3532.3,2799.1z"/>
	<g>
		<path class="st8" d="M1817.2,2235.4c-22.2,3.1-47.1,6.3-66.5,9.4c-27.9,5-53.5,13.5-78.8,21.3l24.8,100.6l311.4-16.7l2.4-143.9
			c-58.4,1-117.2,4.5-176.7,13.7C1828.2,2222.9,1822.7,2232.2,1817.2,2235.4z"/>
		<path class="st9" d="M1939.1,1875.7c25.1,3.5,49.2,10.1,72.5,20.2c-5.4-37.2-19.5-81.5-56-81.2c-13,0.1-238.4,13.3-340.3,19.2
			c-30,1.8-49.3,2.9-49.3,2.9l14.6,59.1C1701.4,1865.2,1817.7,1854.8,1939.1,1875.7z"/>
		<path class="st8" d="M1939.1,1875.7c-121.3-20.8-237.6-10.5-358.5,20.2l91.3,370.1c25.3-7.8,50.9-16.3,78.8-21.3
			c19.4-3.1,44.3-6.3,66.5-9.4c5.5-3.1,11.1-12.5,16.6-15.6c59.5-9.2,118.3-12.7,176.7-13.7l3.6-215.9l0.8-44.5c0,0,0.6-23-3.3-49.8
			C1988.3,1885.8,1964.1,1879.2,1939.1,1875.7z"/>
		<path class="st10" d="M1548.4,1944.5c-12.7-38.2,5.3-72.7,23.1-106.4c-18.8,2.9-37.7,10.7-54.4,24.1
			c-54.6,43.6,52.3,515.9,52.3,515.9l99.7-15.8c-50.9-100.4-71.3-220.8-101.3-330.2C1562.3,2003.9,1556.7,1972.6,1548.4,1944.5z"/>
		<path class="st11" d="M1669.4,1889.5c-14.2-38.8-55.6-57.9-97.8-51.5c-17.8,33.7-35.8,68.2-23.1,106.4
			c8.3,28.2,13.9,59.4,19.4,87.6c30,109.5,50.4,229.8,101.3,330.2l45.7-7.3C1714.9,2355,1689.9,1945.6,1669.4,1889.5z"/>
		<path class="st12" d="M1864.3,2651.4c-99.7,40.7-171.8,106.3-235.5,200.2c-13.6,21-23.9,43.2-32.6,65.9l30.1,70.3l528.5-215.6
			c0,0-1.8-73-4.4-155.7c-88,1.3-176.4,6.4-266.6,22.4C1875.3,2642,1869.8,2651.4,1864.3,2651.4z"/>
		<path class="st8" d="M1733.1,2337.1c-46.7,1-88.4,2.3-115.4,3.8c-102.3,5.8-105.7,121.3-105.7,121.3l40.9,354.2l43.2,101
			c8.7-22.7,19-44.9,32.6-65.9c63.7-93.8,135.7-159.5,235.5-200.2c5.5,0,11.1-9.4,19.4-12.5c90.2-16,178.6-21.2,266.6-22.4
			c-1.6-49.5-3.5-102.5-5.5-145.5c-92.5-4.8-185.1-11.1-277.7-19.7C1810.3,2445.6,1744.9,2405.4,1733.1,2337.1z"/>
		<path class="st10" d="M2031.9,2333.2c0,0-168.8,1-298.8,3.9c11.8,68.3,77.2,108.5,133.9,114.1c92.7,8.6,185.3,15,277.7,19.7
			c-2-43.2-4.2-76.3-6.3-85.7C2130.8,2350.5,2031.9,2333.2,2031.9,2333.2z"/>
		<path class="st10" d="M3504.4,2333.2H2034.5v34.7h1475.9C3508.5,2356.3,3506.5,2344.7,3504.4,2333.2z"/>
		<path class="st8" d="M2034.5,2464.5v194.3c20.2-10.6,42.1-18,62.5-26.2c8.3-3.1,16.6,3.1,24.9,0c116.4-56.3,246.6-81.3,371.2-84.5
			c268.7-6.3,537.4-21.9,808.9,9.4c78.1,8.2,154.8,17.2,231.5,29.8c-1.8-37.6-4.7-75-8.7-112.4
			C3028.3,2476.5,2532.9,2497.7,2034.5,2464.5z"/>
		<path class="st10" d="M2034.5,2367.9v96.6c498.4,33.2,993.8,12,1490.3,10.5c-3.8-35.9-8.6-71.6-14.4-107.1H2034.5z"/>
		<path class="st12" d="M2493.1,2548.2c-124.7,3.1-254.9,28.2-371.2,84.5c-8.3,3.1-16.6-3.1-24.9,0c-20.4,8.2-42.3,15.6-62.5,26.2
			v140.3h1497.9c4.2-70.5,4.6-141.2,1.2-211.8c-76.7-12.6-153.3-21.6-231.5-29.8C3030.6,2526.3,2761.8,2541.9,2493.1,2548.2z"/>
		<g>
			<g>
				<g>
					<path class="st13" d="M2329.5,2671.2c3.5,46.8,6.9,93.6,10.4,140.4c0.1,1.9,3.1,1.9,3,0c-3.5-46.8-6.9-93.6-10.4-140.4
						C2332.3,2669.3,2329.3,2669.3,2329.5,2671.2L2329.5,2671.2z"/>
				</g>
			</g>
			<g>
				<g>
					<path class="st13" d="M3138.4,2711.8c25.1,20.8,42.7,49.2,51.8,80.3c0.5,1.8,3.4,1.1,2.9-0.8c-9.3-31.6-27.1-60.6-52.6-81.6
						C3139.1,2708.4,3136.9,2710.5,3138.4,2711.8L3138.4,2711.8z"/>
				</g>
			</g>
			<g>
				<g>
					<path class="st13" d="M3309.6,2683.1c-34.8,27.7-54.6,71.4-57.1,115.3c-0.1,1.9,2.9,1.9,3,0c2.5-43.2,22.1-86,56.3-113.2
						C3313.2,2684,3311.1,2681.9,3309.6,2683.1L3309.6,2683.1z"/>
				</g>
			</g>
		</g>
		<path class="st8" d="M3216.2,2219.7c-5.5,3.1-11.1-3.1-16.6,0c-16.6,18.8-36,21.9-58.2,18.8c-2.8-3.1-5.5-6.3-8.3-9.4
			c-5.5,0-13.9,3.1-16.6,0c-19.4-25-44.3-43.8-66.5-46.9c-207.8-18.8-412.8-12.5-620.6,15.6c-148,18.6-292.9,4.4-440.5,8.7v127
			l1515.9,0c-3.2-48.8-9.7-97.6-20.6-147.6c-82.3,2.1-164.9,7-248.7,18.1C3227.2,2207.2,3221.7,2213.5,3216.2,2219.7z"/>
		<path class="st9" d="M2980.7,1897.6c5.5-46.9,41.6-65.7,80.3-71.9c89.5-13.6,177.8-18.7,265.8-17.7
			c-15.6-26.3-32.4-53.3-50.5-81.1c0,0-156.2-4.5-231.8,13.5c-75.6,18-79,71.2-79,71.2s-5.7-17.3-30.1-46.2
			c-38.4-40.4-255.7-20.2-255.7-20.2l-128.2,24.3c109.2,58.8,232.7,41.4,351.6,49.9C2939.1,1822.5,2966.8,1856.9,2980.7,1897.6z"/>
		<path class="st8" d="M3061,1825.6c-38.8,6.3-74.8,25-80.3,71.9c-13.9-40.7-41.6-75.1-77.6-78.2c-118.9-8.6-242.4,8.9-351.6-49.9
			l-562.6,106.8v330.3c147.5-4.2,292.5,9.9,440.5-8.7c207.8-28.2,412.8-34.4,620.6-15.6c22.2,3.1,47.1,21.9,66.5,46.9
			c2.8,3.1,11.1,0,16.6,0c2.8,3.1,5.5,6.3,8.3,9.4c22.2,3.1,41.6,0,58.2-18.8c5.5-3.1,11.1,3.1,16.6,0c5.5-6.3,11.1-12.5,19.4-15.6
			c83.7-11.1,166.4-16.1,248.7-18.1c-24.9-114.5-72.8-235.3-157.4-378C3238.9,1806.9,3150.5,1812,3061,1825.6z"/>
		<path class="st10" d="M3504.4,2333.2h-707.9c0,0,59.7-71.2,164.5-73.2c104.8-1.9,169.6,54.9,169.6,54.9l40.1,3.8
			c0,0,49.5-50,109.1-58.7c45.2-6.6,145.4-9.8,211.9,10C3496.4,2291,3500.6,2312.1,3504.4,2333.2z"/>
	</g>
	<path class="st14" d="M2396.2,1681.7c48.3-28.5,71.9-85.9,78.1-142.9c-62-27.9-167.9-6.9-241.1,8.1
		C2240.4,1634.1,2322.1,1723.6,2396.2,1681.7z"/>
	<path class="st15" d="M2572.2,1730.4c-20.4-79.7-45.4-144.3-65.5-166.2c-8.4-9.2-20.4-16.2-34.8-21.4c-6.2,57-27.5,110.6-75.8,139
		c-74.1,41.8-155.8-47.6-162.9-134.8c-21.5,4.4-40.3,9.2-54.5,13.6l-60.7,260.4c-8.3,65.8,2.1,184.4,12.4,274.2
		c91.9,52.1,200.4,44.8,296.2,5.8c63.7-28.2,141.3-75.1,144.1-162.6C2575.2,1868.9,2568.6,1799.6,2572.2,1730.4z"/>
	<path class="st16" d="M2572.2,1730.4c-3.6,69.3,3,138.6-1.5,207.9c-2.8,87.6-80.3,134.5-144.1,162.6c-95.8,39-204.3,46.3-296.2-5.8
		c7.8,67.6,15.7,118.8,15.7,118.8c68.4,33.1,421.1-19.3,421.1-19.3s0,0,20.5-57.8C2628.6,2049.2,2607.2,1867.4,2572.2,1730.4z"/>
	<path class="st17" d="M2236.3,1559.7c0,0,6.1,120.9,105.9,128.6c-5.9,47.2-11.9,315,6.9,412.6"/>
	<path class="st4" d="M2884.3,2333.2c-3.4-111.7-245.5-190.6-245.5-190.6l-366.5,25c0,0-250.6,36.6-340.9,117.4
		c-90.4,80.9,40.9,514,40.9,514l276.2-23.1c0,0-98.9-221.4-96.3-275.3c2.5-53.9,191.8-102,191.8-102c47.7,27,176.1,3.9,176.1,3.9
		s62.6,52,118.9,64.5c-58,66.4-118.9,332.1-118.9,332.1l267.2-15.4l22.2-61.6C2809.3,2722.1,2887.7,2444.9,2884.3,2333.2z"/>
	<path class="st18" d="M3091.5,3142.4c-52.6-9.4-47.1-81.3-60.9-128.2c-19.4-75.1-108-34.4-163.4-25c-94.2,21.9-188.4,18.8-266,62.6
		c-99.7,53.2-196.7,97-310.3,109.5c-38.8,3.1-83.1-12.5-116.4,18.8c-13.9,12.5-11.1,40.7-2.8,56.3c16.6,34.4,33.2,68.8,38.8,103.2
		c24.9,115.7-33.2,244-138.5,256.5c-302.7,38.9-673.2-3.7-872.6-281.2l-235.9,189.9c7.1,10,13.7,20.4,19.9,31
		c39.5,66.8,66.1,144.2,110.6,206.8c121,170.3,345.4,191.8,534.8,148.7c189.5-43,371.2-136,564.3-144c153.9-6.5,304.9,41.5,456.6,71
		s315,38.8,452.7-39c130.4-73.6,220-215.8,284.6-363.4c37-84.5,67-172.5,90.1-262.8C3349.3,3159.4,3223.1,3165.1,3091.5,3142.4z"/>
	<path class="st19" d="M2579.2,2772.1c-67.6,53.7-141.6,95.2-224.6,88.8c-83.1-6.3-180.1-53.2-249.3,6.3
		c-91.4,78.2-185.6,115.7-293.7,118.9c-13.9,0-33.2,0-47.1,9.4c-95.1,76.3-197.1,132.2-307.9,112.2l-257.2,207.1
		c199.4,277.6,569.8,320.1,872.6,281.2c105.3-12.5,163.4-140.8,138.5-256.5c-5.5-34.4-22.2-68.8-38.8-103.2
		c-8.3-15.6-11.1-43.8,2.8-56.3c33.2-31.3,77.6-15.6,116.4-18.8c113.6-12.5,210.5-56.3,310.3-109.5c77.6-43.8,171.8-40.7,266-62.6
		c55.4-9.4,144.1-50,163.4,25c13.9,46.9,8.3,118.9,60.9,128.2c131.6,22.7,257.8,16.9,385.8,10.6c28.5-111.4,46.6-226.2,54.3-342
		c0.9-13,1.6-26,2.2-38.9H2579.2z"/>
	<path class="st18" d="M1764.5,2995.4c13.9-9.4,33.2-9.4,47.1-9.4c108-3.1,202.2-40.7,293.7-118.9c69.3-59.4,166.2-12.5,249.3-6.3
		c83,6.4,156.9-35.1,224.6-88.8h-705.7l-416.7,335.5C1567.4,3127.6,1669.4,3071.8,1764.5,2995.4z"/>
	<g>
		<path class="st8" d="M1665.4,147.2v26h-617.7c17.4-9.4,35.1-18.1,53.1-26H1665.4z"/>
		<path class="st8" d="M1665.4,228v26H926.7c11-9,22.3-17.7,33.8-26H1665.4z"/>
		<path class="st8" d="M1665.4,308.9v26H841.8c8-8.9,16.1-17.6,24.5-26H1665.4z"/>
		<path class="st8" d="M1665.4,389.8v26H778.8c5.9-8.8,12-17.5,18.3-26H1665.4z"/>
		<path class="st8" d="M1665.4,470.6v26H731.8c4.4-8.8,8.9-17.4,13.6-26H1665.4z"/>
		<path class="st8" d="M1665.4,551.5v26H697.7c3-8.8,6.3-17.4,9.7-26H1665.4z"/>
		<path class="st8" d="M1665.4,632.3v26H674.4c2-8.7,4.2-17.3,6.5-26H1665.4z"/>
		<path class="st8" d="M1665.4,713.2v26H659.6c1.2-8.7,2.5-17.3,3.9-26H1665.4z"/>
		<path class="st8" d="M1665.4,794v26H651.7c0.5-8.7,1.2-17.3,1.9-26H1665.4z"/>
		<path class="st8" d="M1665.4,874.9v26H649.3c0-8.7,0.1-17.3,0.3-26H1665.4z"/>
		<path class="st8" d="M1665.4,955.8v26H651.1c-0.4-8.7-0.7-17.3-1-26H1665.4z"/>
		<path class="st8" d="M1665.4,1036.6v26H655.9c-0.6-8.7-1.2-17.3-1.8-26H1665.4z"/>
		<path class="st8" d="M1665.4,1117.5v26H662.7c-0.8-8.7-1.6-17.3-2.3-26H1665.4z"/>
		<path class="st8" d="M1665.4,1198.3v26H670.2c-0.8-8.7-1.6-17.3-2.4-26H1665.4z"/>
	</g>
	<line class="st20" x1="1814.6" y1="49" x2="1814.6" y2="1293.6"/>
	<path class="st4" d="M1804.5,1286.6l-45.7,134.1c7.7,22.5,97.5,25.1,111.5,0l-45.7-134.1H1804.5z"/>
	<path class="st21" d="M2357,1518.2c0,0-21.7,41.1-75.1,26.1c-4-1.1-8.1-2.5-12.4-4.3c-77-31.6-23.9-246.4-23.9-246.4
		s64.8-61.6,136.4-18c71.6,43.6,36.4,102.7,36.4,102.7s14.8-6.4,27.3,1.3c12.5,7.7,17,30.8-1.1,55.2c-18.2,12.8-22.7,3.7-22.7,3.7
		s-3.4,84.9,25,91.3c-28.4,104-104.6,121.9-104.6,121.9s-65.9-38.5-65.9-84.7l3.5-23.3"/>
	<path class="st22" d="M2279.8,1543.7c0,0,60.1,15.7,80.9-20.6c4.2,41.5-42,63.1-84.2,42.3C2278,1549.6,2279.8,1543.7,2279.8,1543.7
		z"/>
	<path class="st15" d="M2024.9,2138.4c120.2,26.5,171.3-149.9,216.3-267.1c-10.9-21.5-33.6-27.5-54.9-12.7c-0.2,0.2-0.4,0.4-0.6,0.5
		c-13.8,13.3-41.1,40.8-67.8,72.6l95.3-380.5c0,0-141.6,29.8-160.9,100.4c-5,18.3-18.3,60-33.5,112.9c-6.9,51.6-14.9,103.9-24.5,158
		C1980.6,1997.7,1952.9,2122.8,2024.9,2138.4z"/>
	<path class="st16" d="M2024.9,2138.4c-72-15.6-44.3-140.8-30.5-215.8c9.6-54.1,17.5-106.3,24.5-158
		c-43.6,151.2-103.5,393.7-33.6,440.3c94.3,62.9,236.6-209.4,251.8-266.8c0.6-1.6,4.8-12.8,9.6-20.2c2.8-19.4,0.3-35.2-5.5-46.6
		C2196.3,1988.5,2145.1,2164.9,2024.9,2138.4z"/>
	<path class="st4" d="M2187.6,1863.8c0,0,2.4,53.6,36.5,68c15.4-3.4,21.3-24.6,21.3-24.6s-22.3-47.5-31.7-51.4
		c-9.4-3.9-26.4-1.3-26.1,6.2"/>
	<path class="st15" d="M2603.9,1638c-38.3-31.5-75.6-60.5-112.4-90.9c-6.1-2.9-11.8-5.7-17.2-8.2c-2.2,17.6-3.2,38.1-9.8,52.1
		l115.5,275.4c0,0,21.3,72.8,16.7,206.6c-67.3-4.8-213.6,39.8-246,55.2c-26.6,12.6-39.4,53.1-29,90.1c11,0.8,21.9,0.1,32.9-1.7
		c8.3-3.1,16.6-9.4,24.9-9.4c121.9-28.2,290.9-37.5,313-197.1C2709.2,1875.7,2703.7,1719.3,2603.9,1638z"/>
	<path class="st16" d="M2720.7,1887.5c-3.4-128-39.2-208.9-73.3-248.3c-21.5-24.9-100.5-65.6-155.8-92.1
		c36.8,30.4,74.1,59.4,112.4,90.9c99.7,81.3,105.3,237.7,88.7,372.2c-22.2,159.5-191.2,168.9-313,197.1c-8.3,0-16.6,6.3-24.9,9.4
		c-11,1.8-21.9,2.5-32.9,1.7c2.3,8.1,5.6,16,10.2,23.5c35.8,15.4,265.9-21.2,329-57.8C2724.1,2147.4,2724.1,2015.6,2720.7,1887.5z"
		/>
	<path class="st4" d="M2349,2138.8c0,0,18.2,5.1,22.2,38.5c4,33.4-5.1,60-22.2,62.2c-17,2.2-25.6-16-23.3-44.3
		C2328,2167,2329.1,2142,2349,2138.8z"/>
	<path class="st21" d="M2174.5,2175.9c24.9,34.4,69.3,25,105.3,31.3c19.4,3.1,44.3,18.8,66.5,9.4c1.5-0.4,2.9-0.9,4.4-1.3
		c2.4-32.6-6.8-51.5-6.8-51.5s-30.9,3.2-51.3-22.5c-18-22.7-88,0.5-121.3,16.7C2170.4,2164.3,2170.9,2170.4,2174.5,2175.9z"/>
	<path class="st22" d="M2346.3,2216.6c-22.2,9.4-47.1-6.3-66.5-9.4c-36-6.3-80.3,3.1-105.3-31.3c-3.7-5.5-4.1-11.7-3.2-17.9
		c-4.3,2.1-8.1,4.1-11,5.9c-13.6,9.5-15.3,26.8,15.9,41.6c31.3,14.8,47.7,10.3,69.3,8.4c15.4,12.1,30,31.9,103.4,15.3
		c0.8-4.9,1.3-9.6,1.7-14C2349.2,2215.8,2347.7,2216.2,2346.3,2216.6z"/>
	<g>
		<ellipse class="st23" cx="1887.7" cy="3174.8" rx="207.1" ry="62.2"/>
		<ellipse class="st3" cx="1887.9" cy="3164.2" rx="207.1" ry="62.2"/>
		<ellipse class="st23" cx="1887.9" cy="3164.2" rx="141.8" ry="42.6"/>
		<path class="st24" d="M1878.1,3126.8c-60-28.2-65.8-94.6-66.4-157.9l-49.9,1.5c0,0-17,208.6,126.2,193.8
			c34.8,3.6,60.1-6,78.5-22.6C1936.9,3145.6,1904.4,3138.7,1878.1,3126.8z"/>
		<path class="st3" d="M2014,2970.4l-126.2-3.9l-76.2,2.3c0.6,63.3,6.4,129.7,66.4,157.9c26.3,11.9,58.8,18.8,88.3,14.8
			C2023.8,3089.9,2014,2970.4,2014,2970.4z"/>
		<ellipse class="st25" cx="1887.7" cy="2972.1" rx="126.6" ry="25.7"/>
		<path class="st26" d="M1887.7,2987.4c-60.9,0-95.5-9.5-102.7-15.3c7.2-5.8,41.7-15.3,102.7-15.3c60.9,0,95.4,9.5,102.7,15.3
			C1983.2,2977.9,1948.7,2987.4,1887.7,2987.4z"/>
		<path class="st3" d="M1995.3,2997.8c0,0,96.4-30.3,98.9,31.8c2.5,62.1-113.4,77.5-113.4,77.5l3.8-18.8c0,0,81.8-19.3,86.1-48.1
			c4.3-28.9-14.5-29.4-26-29.4c-11.5,0-44.7,10.1-44.7,10.1L1995.3,2997.8z"/>
	</g>
	<g>
		<ellipse class="st23" cx="2774.5" cy="2886.5" rx="207.1" ry="62.2"/>
		<ellipse class="st3" cx="2774.5" cy="2876.9" rx="207.1" ry="62.2"/>
		<ellipse class="st23" cx="2774.5" cy="2876.9" rx="133.7" ry="40.2"/>
		<path class="st3" d="M2914.3,2683.1l-126.2-3.9l-49.8,1.5c-1,20.3,2.4,39,9.6,51.9c32.8,50.8,76.9,89.6,126.3,113.9
			C2923.2,2791.7,2914.3,2683.1,2914.3,2683.1z"/>
		<path class="st24" d="M2748,2732.7c-7.1-12.9-10.6-31.7-9.6-51.9l-76.4,2.3c0,0-17,208.6,126.2,193.8c39.9,4.1,67.3-9.1,86.2-30.3
			C2824.9,2822.3,2780.8,2783.5,2748,2732.7z"/>
		<ellipse class="st27" cx="2788" cy="2684.8" rx="126.6" ry="25.7"/>
		<path class="st26" d="M2788,2700.2c-61.5,0-96.3-9.5-103.6-15.4c7.3-5.8,42.1-15.4,103.6-15.4c61.5,0,96.3,9.5,103.6,15.4
			C2884.3,2690.6,2849.5,2700.2,2788,2700.2z"/>
		<path class="st3" d="M2895.6,2710.5c0,0,96.4-30.3,98.9,31.8c2.5,62.1-113.4,77.5-113.4,77.5l3.8-18.8c0,0,81.8-19.3,86.1-48.1
			c4.3-28.9-14.5-29.4-26-29.4s-44.7,10.1-44.7,10.1L2895.6,2710.5z"/>
	</g>
	<polygon class="st26" points="2436.8,3041.7 2436.8,3071.5 2243.3,3095.6 2121.8,3029.7 2122.4,3000.2 2243.3,3065.8 	"/>
	<polygon class="st28" points="2436.8,3041.7 2243.3,3065.8 2122.4,3000.2 2121.8,2999.9 2300.4,2983 	"/>
	<polygon class="st29" points="2152.9,3006.4 2299.2,2992.5 2401.7,3036.6 2244.8,3056.2 	"/>
	<polygon class="st28" points="2302.6,2983 2365.6,2909.8 2511,2972.9 2436.8,3041.7 	"/>
	<polygon class="st30" points="2317.3,2979.3 2367.8,2920.8 2494.7,2975.8 2435.3,3031 	"/>
	<polygon class="st26" points="2520.8,2994.5 2511,2972.9 2436.8,3041.7 2436.8,3071.5 	"/>
	<polygon class="st31" points="3141.7,2819.8 3085.5,3065.8 3421.3,3082.1 3378.7,2814.6 	"/>
	<polygon class="st3" points="3145.7,2814.6 3089.4,3060.6 3425.3,3076.9 3382.6,2809.4 	"/>
	<polygon class="st31" points="1642.1,3266.3 2069.2,3351 1904.6,3574.3 1440.2,3428.1 	"/>
	<polygon class="st3" points="1633.5,3266.3 2060.6,3351 1896,3574.3 1431.6,3428.1 	"/>
	<path class="st26" d="M2252.4,1314.2c0,0-24.4,3.2-33.5-28.9s-6.3-53.3,2.8-60.3c9.1-7.1,40.9-21.8,60.2,0
		c10.8-30.8,19.3-31.4,27.3-29.5c11.9-33.4,39.8-23.1,39.8-23.1s22.7-9,53.4,0c30.7,9,35.2,46.2,35.2,46.2s22.7-8.4,33.5,22.8
		c10.8,31.2-1.7,33.7,0,38.2c1.7,4.5,35.2-9,38.6,18.6c3.4,27.6-2.8,32.1-2.8,32.1s16.2,7.1,3.9,43.6
		c-12.4,36.6-23.2,20.5-19.8,37.9c3.4,17.3,11.9,52.6-5.1,57.1c-17,4.5-57.4,2.3-66.5-12.9c-9.1-15.3,0-21.1,0-21.1
		s34.4,2.2,29.3-32.7c-5.1-35-36.1-16.4-36.1-16.4s16.2-39.5,7.1-57.1c-13.4,1.9-30.4,13.2-42.9-2.9c-12.5-16-34.1-32.7-58.5-21.8
		c-24.4,10.9-35.3-34-35.3-34S2273.5,1313.5,2252.4,1314.2z"/>
	<path class="st32" d="M1313,2929.8c-113.6,112.6-299.2,150.1-418.3,28.2c-74-78-57.9-198.2-28.1-300.9l-84.2,13.1
		c0,0-168.8,438.9,206.3,437c206.3-17.3,242.1-35.6,242.1-35.6s59.1,15.3,30.7,93.5c-28.4,78.2-52.3,142-52.3,142l122.9-99
		C1342.9,3115.4,1330.5,3021.6,1313,2929.8z"/>
	<path class="st33" d="M1667.1,2670.1c-40.9-132.8-199.5-171.3-303.4-144.4c-104,27-160.2,78.9-160.2,78.9L866.5,2657
		c-29.8,102.7-45.9,222.9,28.1,300.9c119.1,122,304.7,84.5,418.3-28.2c17.6,91.8,29.9,185.6,19,278.3l306.5-246.7
		C1638.5,2961.3,1708,2803,1667.1,2670.1z"/>
	<path class="st21" d="M1288.7,1825.3c17,19.6,50,49.6,98.8,11.5c48.9-38.1,58-214,58-214s-152.3-46.8-196.6,37.9
		c-44.3,84.7-95.9,269.2-95.9,269.2l117.5,56.8c0,0,31.9-125.2,41-145.2"/>
	<path class="st22" d="M1276.2,1820.6l32.8,27.3c0,0-13,47.2-14,46.7C1294,1894,1272.9,1839.5,1276.2,1820.6z"/>
	<path class="st34" d="M842,2651.4c0,0-2.8-12.5,2.8-18.8c55.4-65.7,99.7-137.6,113.6-228.3c27.6-169.7,66.5-326.7,122.9-480
		c-45.5,17.5-95,45.3-118.2,101c0,0-42.6,63.5-51.1,177.1c-8.5,113.6,0,150.2-63.1,252.2c-63.1,102-137.1,172.6-112.5,230.3
		c24.6,57.7,66.5,10.2,124.4,25.7c58,15.5,114.2,63.6,163.7,88.6c15.4,7.8,42.8,15.4,73.8,17.9
		C1064.9,2709.5,920.7,2723.6,842,2651.4z"/>
	<path class="st35" d="M1207.7,2667c-24.9-81.3-88.7-175.2-30.5-240.8c112.4-133.1,105.4-312,99.9-473.3
		c-44.2-50.4-92.2-63.8-132.5-49.9c-17.2,5.9-39.8,12.2-63.4,21.3c-56.4,153.4-95.3,310.3-122.9,480
		c-13.9,90.7-58.2,162.6-113.6,228.3c-5.5,6.3-2.8,18.8-2.8,18.8c78.7,72.2,222.9,58.1,256.2,165.6c30.6,2.5,64.5-0.1,93.7-12.4
		C1216.1,2767.9,1221.2,2712.8,1207.7,2667z"/>
	<path class="st34" d="M1264,2366.6c0,0,97.2-282.7,45.2-369.3c-10.3-17.2-21.1-31.9-32-44.4c5.5,161.3,12.5,340.3-99.9,473.3
		c-58.2,65.7,5.5,159.5,30.5,240.8c13.5,45.8,8.4,100.9-15.8,137.6c35.9-15.2,64.5-45.1,70.4-98.9c15.3-141.5,0.9-173.3-15.3-219.5
		C1230.7,2440.1,1264,2366.6,1264,2366.6z"/>
	<path class="st36" d="M1304.9,2018.5c0,0,40.1,16.3,50.3,100.6c10.2,84.2,2.3,227,39.2,261c36.9,34,145.5,19.9,145.5,19.9
		s13.5,2,11.4,25.7c-30.7,30.2-119.3,32.7-169.3,8.3C1331.9,2409.6,1304.9,2018.5,1304.9,2018.5z"/>
	<path class="st21" d="M1558.5,2427.1c0,0,10.4-29,34.2-36.7c23.9-7.7,43.8,0.6,47.7,11.6c4,10.9,10.2,41.7,5.1,62.9
		s-27.2,36.6-45.4,36.6s-33.3-9-41.7-9s-10.1-57.8-10.1-57.8L1558.5,2427.1z"/>
	<path class="st21" d="M1543.8,2507.4c0,0,45.5,28,64.8,29.3c19.3,1.3,63.8-27.3,64.6-49c0.8-21.6-20.3-47.3-33.9-50.5
		c-13.6-3.2-45.9,16.3-48.3,20.5c0,0-9.1,13.5-4.5,22.5c4.5,9,6.8,19.1-1.7,27.2"/>
	<path class="st35" d="M1552.3,2419.2c0,0-108,41.1-160.2-7.7c-52.3-48.8-48.3-196.9-56-284.5c-7.7-87.7-6.8-99.7-27-129.7
		l-30.4-42.6l-77.4,176.5c4.7,4.2,8.1,9,9.1,13.4c19.4,103.2,27.7,200.2,58.2,297.1c11.1,28.2,24.9,62.6,49.9,78.2
		c84.3,56.5,183.5,14,255-52.1C1574.8,2447.4,1568.1,2424.7,1552.3,2419.2z"/>
	<path class="st36" d="M1318.5,2520c-24.9-15.6-38.8-50-49.9-78.2c-30.5-97-38.8-193.9-58.2-297.1c-1-4.4-4.4-9.2-9.1-13.4
		l-13.4,30.6c-4.4,72.6,24.3,204.7,24.3,204.7c16.8,120.2,105,189.3,163.9,192.5c102.2,5.6,107.7-14.9,138.8-29.3
		c31.8-14.8,37.3-25.8,37.3-25.8c12.8-1.5,20.1-17.9,21.2-36C1502,2534.1,1402.8,2576.5,1318.5,2520z"/>
	<path class="st11" d="M722.9,3139.3c189.9-44.1,372.6-27.4,557-27.8c-5.9-23.1-24.7-40-47.1-40H705.3c-27.1,0-49,24.8-49,55.4l0,0
		c0,30.6,22,55.4,49,55.4h0.6C705.2,3162.5,705.5,3144.2,722.9,3139.3z"/>
	<path class="st10" d="M722.9,3139.3c-17.3,4.9-17.7,23.2-17.1,42.9h527c27.1,0,49-24.8,49-55.4l0,0c0-5.3-0.7-10.5-2-15.4
		C1095.4,3111.9,912.8,3095.3,722.9,3139.3z"/>
	<path class="st26" d="M874.4,2095.1c0,0-76.1,105.4-19.9,139.3c56.3,33.9,71,21.1,88.1,69.2c17,48.1,72.7,54.5,97.7,29.5
		c25-25,39.8-66.7,39.8-66.7s103.5,91.3,127.6-12.8c24.1-104-23-137.4,0-206.7s17.3-176.2,57-228.8c24.7-30.3,34.1-79.9,34.1-79.9
		s-29-25-13.6-54.5c15.3-29.5,41.5-16.7,43.2,3.2c5.1,15.4,13.1,3.2,13.1,3.2s13.1-44.3,32.4-53.3c19.3-9,49.4,55.2,78.4,27.6
		c14.8-5.1,12.8-40.7,12.8-40.7s2.5-55.8-42.6-80.9c-55.1-30.6-157.7-72-229.3,67.7c0,0-71.6,168.6-113.6,203.4
		C1037.5,1848.9,871,1954.9,874.4,2095.1z"/>
	<path class="st6" d="M2118,1931.8c16.8-65.1,17.7-110.9,28.1-156.9"/>
	<line class="st6" x1="2060.9" y1="2007.9" x2="2121.8" y2="1927.3"/>
	<g>
		<path class="st21" d="M2386.1,1775.4c-14.1-24.9-90.4-22.6-127,11.1c-33,30.3-46.8,49.2-68,70.3c3,25.5,8.6,51.3,39.4,59.2
			c7.5-12.5,17.6-29.3,33.3-30.2c25.9-1.5,45.4-30.1,62.6-32.4c29.4-3.8,7.9-27.2-14.5-27.4
			C2349.9,1805.7,2398.9,1798,2386.1,1775.4z"/>
		<path class="st22" d="M2313.1,1825.3c-13.9,9.2-38,25.1-38,25.1s-30.1,28.3-38,48.1"/>
	</g>
	<path class="st12" d="M2965.6,1811.5c0,0-2.4,61.6,11.9,150.2c4.6-71.7-8.9-162.7-8.9-162.7L2965.6,1811.5z"/>
	<linearGradient id="SVGID_5_" gradientUnits="userSpaceOnUse" x1="3353.9641" y1="1559.681" x2="3717.7739" y2="1559.681">
		<stop  offset="0" style="stop-color:#68B2FC"/>
		<stop  offset="1" style="stop-color:#529BF7"/>
	</linearGradient>
	<ellipse class="st37" cx="3535.9" cy="1559.7" rx="181.9" ry="203.8"/>
	<linearGradient id="SVGID_6_" gradientUnits="userSpaceOnUse" x1="282.2261" y1="1873.6233" x2="577.2069" y2="1873.6233">
		<stop  offset="0" style="stop-color:#68B2FC"/>
		<stop  offset="1" style="stop-color:#529BF7"/>
	</linearGradient>
	<ellipse class="st38" cx="429.7" cy="1873.6" rx="147.5" ry="165.2"/>
	<g>
		<path class="st3" d="M3048.7,903.5h-268.2c-78.2,0-141.7,71.6-141.7,160v1.7c0,83.3,56.4,151.8,128.5,159.3
			c-4.4,19-10,42.4-15.2,63.6c-4.3,17.8,14.3,31.1,26.7,19.1l84.8-82h185c78.2,0,141.7-71.6,141.7-160v-1.7
			C3190.3,975.1,3126.9,903.5,3048.7,903.5z"/>
		<ellipse class="st35" cx="2785.8" cy="1055.1" rx="24.8" ry="28"/>
		<ellipse class="st35" cx="2923.9" cy="1055.1" rx="24.8" ry="28"/>
		<ellipse class="st35" cx="3064.9" cy="1055.1" rx="24.8" ry="28"/>
	</g>
</g>
</svg>
