<?xml version="1.0" encoding="utf-8"?>
<!-- Generator: Adobe Illustrator 22.0.0, SVG Export Plug-In . SVG Version: 6.00 Build 0)  -->
<svg version="1.1" id="Layer_1" xmlns="http://www.w3.org/2000/svg" xmlns:xlink="http://www.w3.org/1999/xlink" x="0px" y="0px"
	 viewBox="0 0 4000 4000" style="enable-background:new 0 0 4000 4000;" xml:space="preserve">
<style type="text/css">
	.st0{fill:#DB6767;}
	.st1{fill:url(#SVGID_1_);}
	.st2{fill:url(#SVGID_2_);}
	.st3{fill:url(#SVGID_3_);}
	.st4{fill:#DBD2DB;}
	.st5{fill:#CCC4CC;}
	.st6{clip-path:url(#XMLID_2_);}
	.st7{fill:none;stroke:#918451;stroke-width:2;stroke-linecap:round;stroke-linejoin:round;stroke-miterlimit:10;}
	.st8{fill:#403D40;}
	.st9{fill:#FFFFFF;stroke:#1A1A1A;stroke-width:2;stroke-linecap:round;stroke-linejoin:round;stroke-miterlimit:10;}
	.st10{fill:url(#SVGID_4_);}
	.st11{fill:url(#SVGID_5_);}
	.st12{fill:url(#SVGID_6_);}
	.st13{fill:#D9D9D9;}
	.st14{fill:#1A1A1A;stroke:#1A1A1A;stroke-width:2;stroke-linecap:round;stroke-linejoin:round;stroke-miterlimit:10;}
	.st15{fill:none;stroke:#FFFFFF;stroke-width:2;stroke-linecap:round;stroke-linejoin:round;stroke-miterlimit:10;}
	.st16{fill:#D1334A;}
	.st17{fill:#EF5164;}
	.st18{fill:#E8465A;}
	.st19{fill:#FC9590;}
	.st20{fill:#102140;}
	.st21{fill:#FFFFFF;}
	.st22{fill:#FFB114;}
	.st23{fill:#FFDE70;}
	.st24{fill:#FFC859;}
	.st25{fill:#CFBACF;}
	.st26{fill:#572658;}
	.st27{fill:url(#SVGID_7_);}
	.st28{fill:url(#SVGID_8_);}
	.st29{fill:none;stroke:#D18B0D;stroke-width:2;stroke-linecap:round;stroke-linejoin:round;stroke-miterlimit:10;}
	.st30{fill:none;stroke:#1A1A1A;stroke-width:2;stroke-linecap:round;stroke-linejoin:round;stroke-miterlimit:10;}
</style>
<path class="st0" d="M1950.1,1954.7c0,0,32.7,82.2,99.8,90.6c-1.5-37.4-1.5-37.4-1.5-37.4S1969,1985.5,1950.1,1954.7z"/>
<g>
	<linearGradient id="SVGID_1_" gradientUnits="userSpaceOnUse" x1="352.6823" y1="2000" x2="3938.8865" y2="2000">
		<stop  offset="0" style="stop-color:#68B2FC"/>
		<stop  offset="1" style="stop-color:#529BF7"/>
	</linearGradient>
	<path class="st1" d="M413.3,2581.1c112,299.3,341.7,446,676.7,653.1c457.8,283,884.8,547,1447.8,456.4
		c578.7-93.2,925.4-500.6,1015-613.7c53.8-67.9,572.4-744.3,314.7-1495c-200-582.7-733.4-818.9-1140.9-999.3
		c-602.3-266.6-1632.7-479.4-1943.5-31.5c-120.6,173.8-98.3,397.3-70.8,535c-21.3,15.7-306.8,231.9-259.7,480
		c5.7,30.1,17.2,65,39.3,102.3C434.5,1786.2,262,2176.9,413.3,2581.1z"/>
	<linearGradient id="SVGID_2_" gradientUnits="userSpaceOnUse" x1="334.2346" y1="1043.667" x2="502.2682" y2="1043.667">
		<stop  offset="0" style="stop-color:#4085F0"/>
		<stop  offset="1" style="stop-color:#275DC9"/>
	</linearGradient>
	<circle class="st2" cx="418.3" cy="1043.7" r="84"/>
	<linearGradient id="SVGID_3_" gradientUnits="userSpaceOnUse" x1="505.4577" y1="1537.4786" x2="3763.677" y2="1537.4786">
		<stop  offset="0" style="stop-color:#4085F0"/>
		<stop  offset="1" style="stop-color:#275DC9"/>
	</linearGradient>
	<path class="st3" d="M3676.7,2514.2c-65-166.7-132.2-324.6-104.2-413.1c47.2-149.5,35.4-350.1-88.5-958
		c-40.5-198.3-131.8-335.7-236.5-430.8c-216.2-196.4-489.3-212.4-489.3-212.4C2145,27.8,703.9,448.8,893.3,1060.3
		c-106.2,41.3-248.3,185.4-189.4,468.6c-382.8,340.8-126.9,992,60.5,1248.9h2999.2C3745,2693.4,3711.2,2602.5,3676.7,2514.2z"/>
	<path class="st4" d="M3776,2851.5c-2.5-23.8-6.8-48.5-12.4-73.8H764.4c23.5,32.2,46,58.3,65.9,76.7c-110.2,14-149.7,82-163.1,140.5
		c7.4,7,14.8,14.1,20.7,24.4c5.5,8.2,16.4,11,24.7,16.4c2.7,2.7,2.7,11,5.5,13.7c8.2,5.5,19.2,5.5,24.7,11
		c21.9,27.4,46.6,52.1,74,63c85,27.4,153.5,79.5,241.2,98.7c38.4,8.2,74,21.9,112.4,27.4c49.3,11,87.7,32.9,134.3,35.6
		c139.8,13.7,276.8,13.7,416.5,24.7c85,8.2,167.2,21.9,252.1,21.9c523.1,3.6,1045,4.8,1567.3,3.7
		C3757.8,3196.9,3791.5,2999.6,3776,2851.5z"/>
	<path class="st5" d="M1973.3,3331.8c-85,0-167.2-13.7-252.1-21.9c-139.8-11-276.8-11-416.5-24.7c-46.6-2.7-85-24.7-134.3-35.6
		c-38.4-5.5-74-19.2-112.4-27.4c-87.7-19.2-156.2-71.3-241.2-98.7c-27.4-11-52.1-35.6-74-63c-5.5-5.5-16.4-5.5-24.7-11
		c-2.7-2.7-2.7-11-5.5-13.7c-8.2-5.5-19.2-8.2-24.7-16.4c-5.9-10.3-13.4-17.5-20.7-24.4c-10.9,48-4.1,89.6-4.1,89.6
		c35.4,542.9,1144.8,419,2083.1,419c390.8,0,639.3-69.1,794.3-168.1C3018.3,3336.6,2496.4,3335.4,1973.3,3331.8z"/>
	<g>
		<defs>
			<path id="XMLID_5_" d="M962.7,712.4c-78.1,103.8-108.5,221.8-69.4,347.9c-106.2,41.3-248.3,185.4-189.4,468.6
				c-325,289.4-189.6,802.5-26.6,1108.1h469.7V712.4H962.7z"/>
		</defs>
		<use xlink:href="#XMLID_5_"  style="overflow:visible;fill:#DBD2DB;"/>
		<clipPath id="XMLID_2_">
			<use xlink:href="#XMLID_5_"  style="overflow:visible;"/>
		</clipPath>
		<g class="st6">
			<line class="st7" x1="872.6" y1="800.9" x2="967.1" y2="800.9"/>
			<line class="st7" x1="941.8" y1="850.1" x2="1023.1" y2="850.1"/>
			<line class="st7" x1="1036.2" y1="801.5" x2="1107.1" y2="801.5"/>
			<line class="st7" x1="1011.3" y1="899.9" x2="1091.3" y2="899.9"/>
			<line class="st7" x1="948.4" y1="905.1" x2="893.3" y2="905.1"/>
		</g>
		<g class="st6">
			<line class="st7" x1="891" y1="947.8" x2="985.4" y2="947.8"/>
			<line class="st7" x1="960.2" y1="996.9" x2="1041.5" y2="996.9"/>
			<line class="st7" x1="1054.6" y1="948.4" x2="1125.4" y2="948.4"/>
			<line class="st7" x1="1029.7" y1="1046.8" x2="1109.7" y2="1046.8"/>
			<line class="st7" x1="966.7" y1="1052" x2="911.7" y2="1052"/>
		</g>
		<g class="st6">
			<line class="st7" x1="909.4" y1="1094.6" x2="1003.8" y2="1094.6"/>
			<line class="st7" x1="978.5" y1="1143.8" x2="1059.8" y2="1143.8"/>
			<line class="st7" x1="1073" y1="1095.3" x2="1143.8" y2="1095.3"/>
			<line class="st7" x1="1048" y1="1193.6" x2="1128" y2="1193.6"/>
			<line class="st7" x1="985.1" y1="1198.9" x2="930" y2="1198.9"/>
		</g>
		<g class="st6">
			<line class="st7" x1="895.3" y1="1267.6" x2="989.7" y2="1267.6"/>
			<line class="st7" x1="964.4" y1="1316.8" x2="1045.7" y2="1316.8"/>
			<line class="st7" x1="1058.9" y1="1268.3" x2="1129.7" y2="1268.3"/>
			<line class="st7" x1="1033.9" y1="1366.6" x2="1113.9" y2="1366.6"/>
			<line class="st7" x1="971" y1="1371.9" x2="915.9" y2="1371.9"/>
		</g>
		<g class="st6">
			<line class="st7" x1="675" y1="1141.3" x2="769.4" y2="1141.3"/>
			<line class="st7" x1="744.1" y1="1190.5" x2="825.4" y2="1190.5"/>
			<line class="st7" x1="838.5" y1="1142" x2="909.4" y2="1142"/>
			<line class="st7" x1="813.6" y1="1240.4" x2="893.6" y2="1240.4"/>
			<line class="st7" x1="750.7" y1="1245.6" x2="695.6" y2="1245.6"/>
		</g>
		<g class="st6">
			<line class="st7" x1="669.7" y1="1308.4" x2="764.1" y2="1308.4"/>
			<line class="st7" x1="738.9" y1="1357.6" x2="820.2" y2="1357.6"/>
			<line class="st7" x1="833.3" y1="1309" x2="904.1" y2="1309"/>
			<line class="st7" x1="808.4" y1="1407.4" x2="888.4" y2="1407.4"/>
			<line class="st7" x1="745.4" y1="1412.6" x2="690.4" y2="1412.6"/>
		</g>
		<g class="st6">
			<line class="st7" x1="880.8" y1="1450.8" x2="975.3" y2="1450.8"/>
			<line class="st7" x1="950" y1="1500" x2="1031.3" y2="1500"/>
			<line class="st7" x1="1044.4" y1="1451.5" x2="1115.3" y2="1451.5"/>
			<line class="st7" x1="1019.5" y1="1549.9" x2="1099.5" y2="1549.9"/>
			<line class="st7" x1="956.6" y1="1555.1" x2="901.5" y2="1555.1"/>
		</g>
		<g class="st6">
			<line class="st7" x1="880.8" y1="1613.3" x2="975.3" y2="1613.3"/>
			<line class="st7" x1="950" y1="1662.5" x2="1031.3" y2="1662.5"/>
			<line class="st7" x1="1044.4" y1="1613.9" x2="1115.3" y2="1613.9"/>
			<line class="st7" x1="1019.5" y1="1712.3" x2="1099.5" y2="1712.3"/>
			<line class="st7" x1="956.6" y1="1717.5" x2="901.5" y2="1717.5"/>
		</g>
		<g class="st6">
			<line class="st7" x1="880.8" y1="1775.7" x2="975.3" y2="1775.7"/>
			<line class="st7" x1="950" y1="1824.9" x2="1031.3" y2="1824.9"/>
			<line class="st7" x1="1044.4" y1="1776.4" x2="1115.3" y2="1776.4"/>
			<line class="st7" x1="1019.5" y1="1874.7" x2="1099.5" y2="1874.7"/>
			<line class="st7" x1="956.6" y1="1880" x2="901.5" y2="1880"/>
		</g>
		<g class="st6">
			<line class="st7" x1="880.8" y1="1938.1" x2="975.3" y2="1938.1"/>
			<line class="st7" x1="950" y1="1987.3" x2="1031.3" y2="1987.3"/>
			<line class="st7" x1="1044.4" y1="1938.8" x2="1115.3" y2="1938.8"/>
			<line class="st7" x1="1019.5" y1="2037.1" x2="1099.5" y2="2037.1"/>
			<line class="st7" x1="956.6" y1="2042.4" x2="901.5" y2="2042.4"/>
		</g>
		<g class="st6">
			<line class="st7" x1="880.8" y1="2100.6" x2="975.3" y2="2100.6"/>
			<line class="st7" x1="950" y1="2149.7" x2="1031.3" y2="2149.7"/>
			<line class="st7" x1="1044.4" y1="2101.2" x2="1115.3" y2="2101.2"/>
			<line class="st7" x1="1019.5" y1="2199.6" x2="1099.5" y2="2199.6"/>
			<line class="st7" x1="956.6" y1="2204.8" x2="901.5" y2="2204.8"/>
		</g>
		<g class="st6">
			<line class="st7" x1="880.8" y1="2263" x2="975.3" y2="2263"/>
			<line class="st7" x1="950" y1="2312.2" x2="1031.3" y2="2312.2"/>
			<line class="st7" x1="1044.4" y1="2263.7" x2="1115.3" y2="2263.7"/>
			<line class="st7" x1="1019.5" y1="2362" x2="1099.5" y2="2362"/>
			<line class="st7" x1="956.6" y1="2367.3" x2="901.5" y2="2367.3"/>
		</g>
		<g class="st6">
			<line class="st7" x1="880.8" y1="2425.4" x2="975.3" y2="2425.4"/>
			<line class="st7" x1="950" y1="2474.6" x2="1031.3" y2="2474.6"/>
			<line class="st7" x1="1044.4" y1="2426.1" x2="1115.3" y2="2426.1"/>
			<line class="st7" x1="1019.5" y1="2524.4" x2="1099.5" y2="2524.4"/>
			<line class="st7" x1="956.6" y1="2529.7" x2="901.5" y2="2529.7"/>
		</g>
		<g class="st6">
			<line class="st7" x1="600.1" y1="2269" x2="694.5" y2="2269"/>
			<line class="st7" x1="669.3" y1="2318.1" x2="750.6" y2="2318.1"/>
			<line class="st7" x1="763.7" y1="2269.6" x2="834.5" y2="2269.6"/>
			<line class="st7" x1="738.8" y1="2368" x2="818.8" y2="2368"/>
			<line class="st7" x1="675.8" y1="2373.2" x2="620.8" y2="2373.2"/>
		</g>
		<g class="st6">
			<line class="st7" x1="600.1" y1="2431.4" x2="694.5" y2="2431.4"/>
			<line class="st7" x1="669.3" y1="2480.6" x2="750.6" y2="2480.6"/>
			<line class="st7" x1="763.7" y1="2432" x2="834.5" y2="2432"/>
			<line class="st7" x1="738.8" y1="2530.4" x2="818.8" y2="2530.4"/>
			<line class="st7" x1="675.8" y1="2535.6" x2="620.8" y2="2535.6"/>
		</g>
		<g class="st6">
			<line class="st7" x1="560.2" y1="1920.2" x2="654.6" y2="1920.2"/>
			<line class="st7" x1="629.3" y1="1969.4" x2="710.7" y2="1969.4"/>
			<line class="st7" x1="723.8" y1="1920.9" x2="794.6" y2="1920.9"/>
			<line class="st7" x1="698.8" y1="2019.2" x2="778.8" y2="2019.2"/>
			<line class="st7" x1="635.9" y1="2024.5" x2="580.8" y2="2024.5"/>
		</g>
		<g class="st6">
			<line class="st7" x1="560.2" y1="2082.6" x2="654.6" y2="2082.6"/>
			<line class="st7" x1="629.3" y1="2131.8" x2="710.7" y2="2131.8"/>
			<line class="st7" x1="723.8" y1="2083.3" x2="794.6" y2="2083.3"/>
			<line class="st7" x1="698.8" y1="2181.6" x2="778.8" y2="2181.6"/>
			<line class="st7" x1="635.9" y1="2186.9" x2="580.8" y2="2186.9"/>
		</g>
		<g class="st6">
			<line class="st7" x1="577.9" y1="1569.1" x2="672.3" y2="1569.1"/>
			<line class="st7" x1="647" y1="1618.2" x2="728.4" y2="1618.2"/>
			<line class="st7" x1="741.5" y1="1569.7" x2="812.3" y2="1569.7"/>
			<line class="st7" x1="716.6" y1="1668.1" x2="796.5" y2="1668.1"/>
			<line class="st7" x1="653.6" y1="1673.3" x2="598.5" y2="1673.3"/>
		</g>
		<g class="st6">
			<line class="st7" x1="577.9" y1="1731.5" x2="672.3" y2="1731.5"/>
			<line class="st7" x1="647" y1="1780.7" x2="728.4" y2="1780.7"/>
			<line class="st7" x1="741.5" y1="1732.1" x2="812.3" y2="1732.1"/>
			<line class="st7" x1="716.6" y1="1830.5" x2="796.5" y2="1830.5"/>
			<line class="st7" x1="653.6" y1="1835.7" x2="598.5" y2="1835.7"/>
		</g>
	</g>
	<rect x="1147.1" y="712.4" class="st8" width="76.7" height="1924.6"/>
	<path class="st9" d="M3769.6,2807.3H787c-22.2-27.5-45.9-61.3-69.7-100.3c-13.3-21.8-26.7-45.2-39.9-70h3045.1
		c8.2,23.5,15.8,46.9,22.7,70C3755.3,2741.2,3763.8,2774.8,3769.6,2807.3z"/>
	<linearGradient id="SVGID_4_" gradientUnits="userSpaceOnUse" x1="1223.7566" y1="1613.2762" x2="3676.6936" y2="1613.2762">
		<stop  offset="0" style="stop-color:#68B2FC"/>
		<stop  offset="1" style="stop-color:#EBF0F7"/>
	</linearGradient>
	<path class="st10" d="M3572.4,2101.1c35.4-112.2,37.6-253.2-15.8-573.3c-17.8-106.5-41.7-232.9-72.7-384.6
		c-30.8-151.2-91.2-266.9-164.5-355.5c-8.6-10.3-17.3-20.3-26.2-30c-14.8-16.1-30.1-31.2-45.7-45.3H1223.8v667.8v1134.1h2452.9
		C3611.7,2347.5,3544.5,2189.6,3572.4,2101.1z"/>
	<linearGradient id="SVGID_5_" gradientUnits="userSpaceOnUse" x1="1223.7566" y1="1879.8896" x2="3676.6936" y2="1879.8896">
		<stop  offset="0" style="stop-color:#68B2FC"/>
		<stop  offset="1" style="stop-color:#A8C9F7"/>
	</linearGradient>
	<path class="st11" d="M3432.3,1599.2c-55.2,71.7-113.1,121.4-182.1,173.8c-8.3,8.3-24.8,8.3-33.1,8.3c-138,13.8-273.2,11-411.1,2.8
		c-24.8-2.8-46.9-27.6-71.7-30.4c-88.3,0-176.6-8.3-256.6-35.9c-38.6-11-82.8-30.4-121.4-52.4c-41.4-22.1-71.7-60.7-118.7-82.8
		c-5.5-2.8-5.5-13.8-11-19.3c-11-5.5-24.8-5.5-35.9-13.8c-38.6-33.1-63.5-74.5-107.6-102.1c-126.9-82.8-253.9-138-389.1-184.9
		c-74.5-24.8-162.8-19.3-245.6-2.8c-30.4,5.5-55.2,19.3-82.8,22.1c-13.8,2.8-24.8,22.1-38.6,30.4c-35.3,24.4-68,46.2-103.2,67.9
		v1134.1h2452.9c-65-166.7-132.2-324.6-104.2-413.1c35.4-112.2,37.6-253.2-15.8-573.3c-14.8,7.4-29.5,5.8-44.3,10.7
		C3482,1555,3451.6,1571.6,3432.3,1599.2z"/>
	<linearGradient id="SVGID_6_" gradientUnits="userSpaceOnUse" x1="2432.2888" y1="2397.2522" x2="2444.0093" y2="1723.2802">
		<stop  offset="0" style="stop-color:#68B2FC"/>
		<stop  offset="1" style="stop-color:#529BF7"/>
	</linearGradient>
	<path class="st12" d="M3548.8,1900.9h-109.4v169.3H2997h-364.8v-63l-149.5-25.3v82.9h-332.4l-110.7-110.7h-237.4v-165.9h-27.7v-175
		h-176.8L1426.5,1883h-182.4h-20.3v560.4H3649c-54.5-139.6-100.5-266.4-76.5-342.3c23-72.9,32-158,20.8-296.6h-44.4V1900.9z"/>
	<rect x="1708.3" y="712.4" class="st13" width="26.2" height="1801.8"/>
	<rect x="2236.6" y="712.4" class="st13" width="26.2" height="1801.8"/>
	<rect x="2764.9" y="712.4" class="st13" width="26.2" height="1801.8"/>
	<path class="st13" d="M3319.4,787.6v1726.5h-26.2V757.7C3302.1,767.3,3310.8,777.3,3319.4,787.6z"/>
	<path class="st14" d="M1597.8,2063.1c0,0-2.1,1.6-5.7,4.9c-19.8,18.4-84.4,88.8-79.3,223.3c6,158.7,34.9,241.3,34.9,241.3h545.5
		v-261l-342.3-238.7l-155.3,31.8"/>
	<path class="st15" d="M1888.6,2343.1c0,0-38.4,21.6-59,56.1c-27.4,101.3-27.4,101.3-27.4,101.3"/>
	<path class="st16" d="M2228.1,2032.9c-90.4,54.8-139.8,142.5-202.8,222c-22.5,30-49.6,59.9-85.4,71.2
		c46.9,40.1,96.5,53.4,149.3,34.7c0,0,48.2-108.2,68.8-140.6c15.2-23.9,68.1-157.2,95.1-226.2
		C2247.1,2008.9,2242.1,2024.2,2228.1,2032.9z"/>
	<path class="st17" d="M2360.7,1729.6c-28.9-45.4-74.5-84.1-79.3-84.1l-93.7,104.3l-283.3,540.3c11.7,13.8,23.6,25.8,35.6,36.1
		c35.8-11.3,62.9-41.2,85.4-71.2c63-79.5,112.4-167.2,202.8-222c13.9-8.7,19-24,25.1-39c9.7-24.8,16.1-41.3,16.1-41.3v160.3
		l68.7,4.9C2372.8,1992.6,2374,1859.7,2360.7,1729.6z"/>
	<path class="st16" d="M2383,1781.1c-3.2-17-11.6-34.8-22.3-51.6c13.3,130.1,12.1,263-22.7,388.2l23.7,1.7
		C2361.7,2119.5,2394.8,1844.1,2383,1781.1z"/>
	<path class="st18" d="M1789.7,2164.4c-21.9-123.3,63-216.5,112.4-323.4c24.7-49.3,27.4-106.9,41.1-164.4
		c5.5-16.4,19.2-27.4,32.9-35.6c30.7-24.6,67.5-44.5,93.3-71.4c-34.8,0.3-74.6,6.6-104,28.9c-64.9,49.2-131.8,209.5-170.2,264.6
		c-38.4,55.1-223.3,143.6-256.7,196.7c0,0,123.1,168.7,293.2,217.5c-15.3-30.3-27.2-62.7-31-99.2
		C1800.6,2172.6,1789.7,2169.9,1789.7,2164.4z"/>
	<path class="st17" d="M2187.6,1747l-41.3-169.2c0,0-34.8-8.6-77-8.2c-25.8,26.8-62.6,46.8-93.3,71.4c-13.7,8.2-27.4,19.2-32.9,35.6
		c-13.7,57.5-16.4,115.1-41.1,164.4c-49.3,106.9-134.3,200-112.4,323.4c0,5.5,11,8.2,11,13.7c3.8,36.5,15.8,68.9,31,99.2
		c23.4,6.7,47.7,11.2,72.7,12.6C2044.7,2122.1,2190.3,1792.3,2187.6,1747z"/>
	<path class="st16" d="M2092,2147.3l1.2-6.8c0,0-80.7-92.3-98.4-169.2c-8.1-35.5-11.8-81.7-10.2-120
		C1961.9,1957.4,2009.6,2077.5,2092,2147.3z"/>
	<path class="st17" d="M1984.7,1851.3c1.1-26.4,4.8-49.1,11.2-62l8.9-210.5c0,0-26.7,5-58.2,24.6c-32.6,47.4-46.9,106.9-52.7,163.6
		c-13.7,134.3,24.7,254.9,101.4,367.2c19.8,32.2,50.9,59.9,87,69l9.8-56C2009.6,2077.5,1961.9,1957.4,1984.7,1851.3z"/>
	<path class="st16" d="M1995.2,2134.3c-76.7-112.4-115.1-232.9-101.4-367.2c5.9-56.7,20.1-116.3,52.7-163.6
		c-46,28.7-102.2,88.5-99.9,209.2c3.9,203.3,80,342.3,156.1,376.4c76.1,34.1,76.1,34.1,76.1,34.1l3.5-19.8
		C2046.1,2194.2,2015,2166.5,1995.2,2134.3z"/>
	<path class="st19" d="M2147,1589.8l63.2-57.9c0,0,10.8-153,84.1-158.9c73.3-5.9,148.3,12.4,157.6,60.1
		c-0.6,63.5-27.3,177.2-56.3,193.4c-29,16.2-107.4-9-107.4-9s-7.7,11.5-4.8,22c-1.6,77-78.7,129.3-78.7,129.3l-28.6-6.3l-54.5-160.3
		L2147,1589.8z"/>
	<path class="st0" d="M2244.4,1587.3c0,0,15.2,18.7,43.7,30.2c-6.6,18.8-3.4,24.5-3.4,24.5l-38.3,34
		C2246.4,1676,2226.6,1617.5,2244.4,1587.3z"/>
	<path class="st20" d="M2282.4,1530.7c0,0-65.1,18.1-87.2-7.9c-22.2-26.9,26-140.1,46.1-153.5c20.1-13.4,78.9-19.3,139.5-14.1
		c60.6,5.3,103.3-10,129.6-6.4c-7.1,46-8.4,122-61,101.9c-52.6-20.1-85.5-25.9-88.1,1.2c-2.5,27.1-16.9,54.7-16.7,56.1
		c0.2,1.5-14.9-4.1-14.9-4.1s11.9-39.2-6-39.9C2305.6,1463.4,2255.5,1474.1,2282.4,1530.7z"/>
	<path class="st21" d="M2135.6,1564.7c-22.8-6.1-61.8-14.6-75.9-5.8c26.9,94.4,26.9,94.4,26.9,94.4l33.4,10.5l-26.9,33.4
		c0,0,40.7,119.3,35.4,157.4c-1.9,13.6-5.3,30.2-8.8,46C2190,1815.8,2157.9,1672.9,2135.6,1564.7z"/>
	<path class="st13" d="M2152.9,1569.6c0,0-1.1-0.4-3.1-1c-3-0.9-8-2.4-14.2-4c22.2,108.2,54.4,251.2-15.9,335.9
		c-6.4,28.3-13.4,53.7-13.4,53.7s79.4-150.8,81.3-215.7C2189.6,1673.6,2152.9,1569.6,2152.9,1569.6z"/>
	<path class="st21" d="M2325.6,1684.5l-28.5-31.9c-2.4,1.4-4.5,3.4-5.9,4.8c-5.5,8.2-8.2,13.7-13.7,21.9
		c-30.1,30.1-71.2,49.3-90.4,87.7c-17.4,34.9-19.3,104.4-55.1,120.4c-19.9,50.8-37,94.5-37,94.5s42.9-35,64.5-61.9
		c21.6-26.9,113.4-124.6,113.4-124.6l-19-46.6l31.5,10.5L2325.6,1684.5z"/>
	<path class="st13" d="M2187,1767.1c19.2-38.4,60.3-57.5,90.4-87.7c5.5-8.2,8.2-13.7,13.7-21.9c1.4-1.4,3.5-3.5,5.9-4.8l-11.7-13.1
		c0,0-82,74.1-92.4,95.7c-5.8,12.1-35.8,87.8-61,152.2C2167.8,1871.4,2169.6,1801.9,2187,1767.1z"/>
	<path class="st14" d="M2783,2091.3c0,0-33,393.3-18.1,422.9c136.8,33.4,468.1,7.9,468.1,7.9v-451.8L2783,2091.3z"/>
	<path class="st22" d="M3274.8,1650.4c-17.7,31.4-37.9,61.3-54.6,92c-60.4,107.8-58,229.2-56.9,349.5c22.5-1.1,44.9-2.4,67.4-3.7
		C3243.9,1983.9,3268.9,1776.5,3274.8,1650.4z"/>
	<path class="st23" d="M3220.2,1742.4c16.7-30.6,37-60.6,54.6-92c2.1-45.6,1.7-80.6-2.6-96.2c-21-74.7-186.9-131.8-186.9-131.8
		s-134.3-6.8-162.9,2c-27.9,8.5-136.7,63.9-164.3,87.5c-10,8.5-11.8,93.1-10.2,197.5c15.8,3.4,31.3,5.3,39.2,16.5
		c68.5,93.2,49.3,211,57.5,320.6c71.2,82.2,197.3,52.1,293.2,46.6c8.4-0.4,16.9-0.9,25.3-1.3
		C3162.2,1971.6,3159.8,1850.2,3220.2,1742.4z"/>
	<path class="st22" d="M3137.9,2093.2c-95.9,5.5-222,35.6-293.2-46.6c-8.2-109.6,11-227.5-57.5-320.6c-8-11.2-23.4-13.1-39.2-16.5
		c3,184.4,16.9,431,16.9,431c116,72.5,281,52.9,457.4,11.8c0,0,3.3-24.7,8.4-64C3199.8,2090,3168.9,2091.7,3137.9,2093.2z"/>
	<path class="st23" d="M2830.2,1466.7c0,0-129.2,46.9-130.5,153.1c-0.7,56.1-11.8,111.3-22.1,150.8c7.9,6.8,1,12.4-6.4,23.1
		c-6.5,21.9-11.4,35.2-11.4,35.2c0-16.3,5.9-27.2,11.4-35.2c2-6.9,4.2-14.6,6.4-23.1c-0.3-0.2-0.5-0.4-0.8-0.7
		c0,0-47.9-22.5-74.9,1.5c-1.9,57.6,6.5,117.5,51.1,157.3c21.9,16.4,68.5,24.7,87.7-2.7c32.1-48.1,50-99.9,57.8-153.9
		c-2.6-28-5.7-57.5-7.3-87.2L2830.2,1466.7z"/>
	<path class="st22" d="M2769.4,1500.4c0,0-49.5,72.1-47.5,165.2s-0.1,151.7-0.1,151.7s-24.1-30.5-28.3-48.5
		c-4.2-17.9-2.9-180,14.7-212.6C2725.8,1523.7,2769.4,1500.4,2769.4,1500.4z"/>
	<path class="st23" d="M2677.6,1770.7c-2.2,8.5-4.4,16.2-6.4,23.1C2678.6,1783.1,2685.5,1777.4,2677.6,1770.7z"/>
	<path class="st24" d="M2652.9,1928.8c-44.5-39.8-53-99.7-51.1-157.3c-1.4,1.3-2.8,2.6-4.1,4.1c0,0-25.4,193.6,95.8,193.8
		c117.8,0.1,115-87.9,104.9-197.2c-7.8,53.9-25.7,105.8-57.8,153.9C2721.4,1953.4,2674.8,1945.2,2652.9,1928.8z"/>
	<path class="st21" d="M3016.8,1721.9c-0.4-15.3-0.5-31.5-0.2-47.9C3017.1,1688.8,3017.1,1704.8,3016.8,1721.9z"/>
	<path class="st21" d="M2912.2,1405.4c0,0,4.3,5,10.8,13c-6.1-2.2-11.6-5.6-16.6-9.8L2912.2,1405.4z"/>
	<path class="st21" d="M3016.8,1721.9c-0.4-15.3-0.5-31.5-0.2-47.9C3017.1,1688.8,3017.1,1704.8,3016.8,1721.9z"/>
	<path class="st13" d="M3087.9,1402.4c0,0-2.5,4.8-6.6,12.6c-10.1,19.2-29.4,56.6-42.5,84.2c-4.4,9.3-8.3,24.6-11.5,43.6
		c17.9-51.5,52.2-94,90.4-133.4C3101.2,1405.3,3087.9,1402.4,3087.9,1402.4z"/>
	<path class="st21" d="M3179.7,1432.3c-2.4-6.8-36.1-16.4-62-22.9c-38.1,39.4-72.5,81.9-90.4,133.4c-4.6,27.5-7.9,62.8-9.5,99.1
		c-0.5,10.7-0.8,21.5-1,32.1c0.4,14.8,0.4,30.7,0.2,47.9c0,0,0,0,0,0.1c0.4,14.5,1.1,28.3,2.2,40.8c-2.6-58.3,77.4-183.6,72.1-187.5
		c-5.2-3.9-32.1-30.1-32.1-30.1s28.9-13.1,69.5,0C3121.3,1522.8,3153.5,1436.2,3179.7,1432.3z"/>
	<path class="st13" d="M3000.9,1556.1c2.9,10.4,5.9,20.5,9,30.5c-5.7-38.6-14.2-63.4-23-80.2c-10.7-20.6-37.5-55.2-55.9-78
		c-2.9-3.6-5.6-7-8-9.9c-6.1-2.2-11.6-5.6-16.6-9.8l-13.6,7.6C2939.1,1454.7,2985.6,1494.6,3000.9,1556.1z"/>
	<path class="st21" d="M3016.7,1674c-0.3-11.8-0.7-22.8-1.3-33.1c-1.2-20.7-3.1-38.6-5.4-54.3c-3.1-10-6.1-20.1-9-30.5
		c-15.4-61.4-61.8-101.3-108-139.8l-62.7,35.1c0,0,65.6,79.3,67.6,82.6c2,3.3,42.6-13.1,54.4-8.5c-32.1,42-31.5,52.5-31.5,52.5
		s88.7,131.1,95.8,161.3c0.2-5.9,0.3-11.6,0.4-17.2c0,0,0-0.1,0-0.1C3016.4,1706.6,3016.4,1690.4,3016.7,1674z"/>
	<path class="st19" d="M3085.6,1332c-7.1,39.1-7.5,50.6-4.4,83.1c-10.1,19.2-29.4,56.6-42.5,84.2c-10.8,22.8-18.2,81.4-21,142.7
		l-2.4-1c-4.3-71.5-16.1-110.9-28.4-134.5c-10.7-20.6-37.5-55.2-55.9-78l3.6-6.2l1.5-0.6c-4.7-0.5-9-1.5-13.1-3.1
		c-6.1-2.2-11.6-5.6-16.6-9.8c-57.3-49.1-42.8-218.3-42.8-218.3s59.7-102.3,146.2-47.2C3096.4,1198.2,3093.5,1288.7,3085.6,1332z"/>
	<path class="st0" d="M2934.5,1433.3c0,0,29.8,15.1,53.4-2c23.6-17,15.4-37.7,15.4-37.7s-9.2,18.1-31.1,22.9
		c-21.9,4.8-37.7,7.2-37.7,7.2V1433.3z"/>
	<path class="st20" d="M3041.3,1288.7c0,0,1.3-24.3,17-27.5s19,50.5,0,71.5c-5.2,26.2,21.2,44.6,21.2,44.6s17.5-5.9,29.3-20.3
		c11.8-14.4,5.9-82.6,0-131.1c-5.9-48.5-39.6-107.5-97.2-114.7c-57.6-7.2-124.5-0.7-163.1,79.3c-14.4,15.7-22.3,20.3-22.3,20.3
		s21,52.5,70.8,31.5c49.8-21,78.7-34.8,89.8-21c11.1,13.8,34.8,30.2,36.7,52.5c2,22.3,3.3,28.2,11.1,28.2
		C3042.7,1301.8,3041.3,1288.7,3041.3,1288.7z"/>
	<path class="st23" d="M3321.6,1937c-13.7,0,2.7-16.4-11-16.4c2.5-124.8-22.3-245.1-32.9-369.1c-5.6-9.2-11.7-16.9-18.3-22.5
		l-49.8,145.8l4.9,454.3l104.8-9.1C3325.1,2059.5,3324.6,1998.3,3321.6,1937z"/>
	<path class="st22" d="M3277.6,1551.4c10.6,124,35.4,244.3,32.9,369.1c13.7,0-2.7,16.4,11,16.4c3.1,61.3,3.6,122.6-2.4,182.9
		l19.8-1.7C3339,2118.2,3354.5,1678.5,3277.6,1551.4z"/>
	<g>
		<rect x="1050.7" y="2119.9" class="st21" width="751.5" height="423.9"/>
		<rect x="1359.4" y="2266" class="st25" width="134.1" height="277.7"/>
		<rect x="1391.3" y="2300.8" class="st14" width="70.3" height="300.7"/>
		<rect x="1255.2" y="2601.5" class="st14" width="342.6" height="35.5"/>
	</g>
	<g>
		<rect x="2039.6" y="2119.9" class="st21" width="751.5" height="423.9"/>
		<rect x="2348.3" y="2266" class="st25" width="134.1" height="277.7"/>
		<rect x="2380.2" y="2314.1" class="st14" width="70.3" height="276.9"/>
		<rect x="2244.1" y="2601.5" class="st14" width="342.6" height="35.5"/>
	</g>
	<g>
		<rect x="3028.5" y="2119.9" class="st21" width="751.5" height="423.9"/>
		<rect x="3334.9" y="2266" class="st25" width="134.1" height="277.7"/>
		<rect x="3369.1" y="2314.1" class="st14" width="70.3" height="276.9"/>
		<rect x="3232.9" y="2601.5" class="st14" width="342.6" height="35.5"/>
	</g>
	<path class="st26" d="M3745.2,2707H717.3c-13.3-21.8-26.7-45.2-39.9-70h3045.1C3730.6,2660.5,3738.3,2683.8,3745.2,2707z"/>
	<path class="st14" d="M3769.6,2807.3H787c-22.2-27.5-45.9-61.3-69.7-100.3h3027.9C3755.3,2741.2,3763.8,2774.8,3769.6,2807.3z"/>
	<g>
		<path class="st21" d="M2778,1642.1c-3.5,0-81-3.4-82.5,2.6c-1.1,4.5-12.5,78,35.9,80c48.4,2,51.7,0,51.7,0V1711
			c0,0-66.3,2-69.2-22.9c-2.9-24.9,0-31.6,0-31.6l64.2-3.8V1642.1z"/>
		<path class="st21" d="M2762.1,1622.8v90.7c0,18.5,15,33.6,33.6,33.6h43c18.5,0,33.6-15,33.6-33.6v-90.7H2762.1z"/>
	</g>
	<path class="st19" d="M2638.6,1788.3c0,0-22.8-54.2-30.7-77.9c-19.7-58.6,43.6-84.3,71.4-93.9c42.4,5.6,67.6,70.4,41.5,81.6
		c-16.4,7-26.9,8.3-35.9,30.6c-4.2,10.4,6,31.8,6,31.8S2650.5,1772.4,2638.6,1788.3z"/>
	<path class="st23" d="M2738.9,1849.3c0,0,0.8-64.9-33.3-89.2c-34.1-24.3-102.3-33.5-107.9,15.4c-5.6,48.8,7.6,107.5,7.6,107.5"/>
	<line class="st15" x1="2997" y1="2313.5" x2="2975.8" y2="2532.5"/>
	<linearGradient id="SVGID_7_" gradientUnits="userSpaceOnUse" x1="61.1134" y1="2402.3018" x2="480.9099" y2="2402.3018">
		<stop  offset="0" style="stop-color:#68B2FC"/>
		<stop  offset="1" style="stop-color:#529BF7"/>
	</linearGradient>
	<ellipse class="st27" cx="271" cy="2402.3" rx="209.9" ry="208.2"/>
	<linearGradient id="SVGID_8_" gradientUnits="userSpaceOnUse" x1="3501.2058" y1="836.1584" x2="3841.5815" y2="836.1584">
		<stop  offset="0" style="stop-color:#68B2FC"/>
		<stop  offset="1" style="stop-color:#529BF7"/>
	</linearGradient>
	<ellipse class="st28" cx="3671.4" cy="836.2" rx="170.2" ry="168.8"/>
	<line class="st29" x1="3019" y1="1762.8" x2="3016.5" y2="2186.9"/>
</g>
<line class="st30" x1="2000" y1="1815.8" x2="2000" y2="2184.2"/>
<line class="st30" x1="2000" y1="1815.8" x2="2000" y2="2184.2"/>
<line class="st30" x1="2000" y1="1815.8" x2="2000" y2="2184.2"/>
<path class="st20" d="M2088.1,1979.3h-176.2c-16.4,0-29.6,9.3-29.6,20.7c0,11.4,13.3,20.7,29.6,20.7h176.2
	c16.4,0,29.6-9.3,29.6-20.7C2117.7,1988.6,2104.5,1979.3,2088.1,1979.3z"/>
<path class="st20" d="M2088.1,1979.3h-176.2c-16.4,0-29.6,9.3-29.6,20.7c0,11.4,13.3,20.7,29.6,20.7h176.2
	c16.4,0,29.6-9.3,29.6-20.7C2117.7,1988.6,2104.5,1979.3,2088.1,1979.3z"/>
</svg>
