<?xml version="1.0" encoding="utf-8"?>
<!-- Generator: Adobe Illustrator 22.0.0, SVG Export Plug-In . SVG Version: 6.00 Build 0)  -->
<svg version="1.1" id="Layer_1" xmlns="http://www.w3.org/2000/svg" xmlns:xlink="http://www.w3.org/1999/xlink" x="0px" y="0px"
	 viewBox="0 0 4000 4000" style="enable-background:new 0 0 4000 4000;" xml:space="preserve">
<style type="text/css">
	
		.Graphic_x0020_Style_x0020_22{fill:#8E9DF4;stroke:#1A1A1A;stroke-width:2;stroke-linecap:round;stroke-linejoin:round;stroke-miterlimit:10;}
	
		.Graphic_x0020_Style_x0020_27{fill:#1A1A1A;stroke:#1A1A1A;stroke-width:2;stroke-linecap:round;stroke-linejoin:round;stroke-miterlimit:10;}
	
		.Graphic_x0020_Style_x0020_26{fill:#FFFFFF;stroke:#1A1A1A;stroke-width:2;stroke-linecap:round;stroke-linejoin:round;stroke-miterlimit:10;}
	
		.Graphic_x0020_Style_x0020_21{fill:#5067EF;stroke:#1A1A1A;stroke-width:2;stroke-linecap:round;stroke-linejoin:round;stroke-miterlimit:10;}
	
		.Graphic_x0020_Style_x0020_37{fill:none;stroke:#1A1A1A;stroke-width:2;stroke-linecap:round;stroke-linejoin:round;stroke-miterlimit:10;}
	.st0{fill:none;stroke:#1A1A1A;stroke-width:3;stroke-linecap:round;stroke-linejoin:round;stroke-miterlimit:10;}
	.st1{fill:#FFFFFF;stroke:#1A1A1A;stroke-width:2;stroke-linecap:round;stroke-linejoin:round;stroke-miterlimit:10;}
	.st2{fill:none;stroke:#1A1A1A;stroke-width:2;stroke-linecap:round;stroke-linejoin:round;}
	.st3{fill:none;stroke:#1A1A1A;stroke-width:2;stroke-linecap:round;stroke-linejoin:round;stroke-dasharray:12.3085,12.3085;}
	.st4{fill:none;stroke:#1A1A1A;stroke-width:2;stroke-linecap:round;stroke-linejoin:round;stroke-dasharray:12.0265,12.0265;}
	.st5{fill:none;stroke:#1A1A1A;stroke-width:2;stroke-linecap:round;stroke-linejoin:round;stroke-dasharray:12.1207,12.1207;}
	.st6{fill:none;stroke:#1A1A1A;stroke-width:2;stroke-linecap:round;stroke-linejoin:round;stroke-dasharray:12.461,12.461;}
	.st7{fill:none;stroke:#1A1A1A;stroke-width:2;stroke-linecap:round;stroke-linejoin:round;stroke-dasharray:11.8134,11.8134;}
	.st8{fill:none;stroke:#1A1A1A;stroke-width:2;stroke-linecap:round;stroke-linejoin:round;stroke-dasharray:12.3611,12.3611;}
	.st9{fill:none;stroke:#1A1A1A;stroke-width:2;stroke-linecap:round;stroke-linejoin:round;stroke-dasharray:12.1348,12.1348;}
	.st10{fill:none;stroke:#1A1A1A;stroke-width:2;stroke-linecap:round;stroke-linejoin:round;stroke-dasharray:11.8717,11.8717;}
	.st11{fill:none;stroke:#1A1A1A;stroke-width:2;stroke-linecap:round;stroke-linejoin:round;stroke-dasharray:11.8094,11.8094;}
	.st12{fill:none;stroke:#1A1A1A;stroke-width:2;stroke-linecap:round;stroke-linejoin:round;stroke-dasharray:11.7152,11.7152;}
	.st13{fill:none;stroke:#1A1A1A;stroke-width:2;stroke-linecap:round;stroke-linejoin:round;stroke-dasharray:11.6692,11.6692;}
	.st14{fill:#1A1A1A;stroke:#1A1A1A;stroke-width:2;stroke-linecap:round;stroke-linejoin:round;stroke-miterlimit:10;}
	.st15{fill:none;stroke:#FFFFFF;stroke-width:3;stroke-linecap:round;stroke-linejoin:round;stroke-miterlimit:10;}
	.st16{fill:#8E9DF4;stroke:#1A1A1A;stroke-linecap:round;stroke-linejoin:round;stroke-miterlimit:10;}
	.st17{fill:none;stroke:#1A1A1A;stroke-width:2;stroke-linecap:round;stroke-linejoin:round;stroke-miterlimit:10;}
</style>
<g>
	<g>
		<path class="st0" d="M953.3,2772.8c596.3,341.1,592.6,436.3,815.8,499.1c475.5,133.8,944.9-171.3,1065.4-249.5
			c447.1-290.5,606.6-711.9,729.4-1036.6c121.1-319.9,217.9-575.8,107.8-859.9c-91.5-235.9-315.7-465.4-578.1-503.1
			c-131.5-18.9-185.4,23-624.3,164.7c-326.2,105.3-489.3,158-575.4,171.2c-518.7,79.8-742.2-159.6-1007.8-9.6
			c-134.8,76.1-185.1,205.6-287.9,460.7c-81.4,201.8-306.8,760.9-57.6,1103.8C603.2,2599.9,637.7,2592.3,953.3,2772.8z"/>
		<path class="st1" d="M799.7,1745.8c-33.5,18.3-454.7,257-451.1,671.9c2.6,304.7,233.1,555.9,460.7,652.7
			c226.4,96.2,301.6-23.5,671.9,19.2c493.6,57,589,296.2,844.6,220.8c241.3-71.2,55.4-69.1,389.8-368.6
			c359-321.5,901.6,76.7,1110.1-182.4c243.5-302.6,80.3-1365.9-194.6-1685.3c-203.3-236.2-496.8-251.7-998.2-278.3
			c-407.8-21.6-778.3-41.3-988.6,192c-180.2,199.8-76.7,401.1-287.9,575.9C1176.5,1712.4,1049,1609.7,799.7,1745.8z"/>
		<path class="st1" d="M3825.7,2759.3c-208.4,259-751.1-139.2-1110.1,182.4c-334.4,299.5-148.5,297.4-389.8,368.6
			c-255.6,75.4-351-163.8-844.6-220.7c-360.8-41.6-441.4,71-654.8-12.3c-5.6-2.2-11.3-4.5-17.1-7c-1.3-0.5-2.5-1.1-3.8-1.6h0
			c-134.5-58.2-269.6-170.2-357.6-315.1c-6.2-10.3-12.3-20.7-18-31.3c-49.6-91.4-80.3-194.5-81.3-304.6
			c-3.6-414.9,417.6-653.5,451.1-671.8c249.2-136.2,376.7-33.5,556.7-182.4c211.2-174.8,107.7-376,287.9-575.9
			c210.3-233.3,580.8-213.6,988.6-192c501.4,26.6,794.9,42.2,998.2,278.3C3906,1393.4,4069.1,2456.8,3825.7,2759.3z"/>
		<path class="st1" d="M1483.8,2558.3l-252,525.2c-9.5,0.7-18.7,1.5-27.7,2.4c-26.6,2.6-51.2,5.8-74.3,8.9l265.6-598.8l58.1,43.6
			L1483.8,2558.3z"/>
		<path class="st1" d="M2430.4,3271.5c-21.8,12-53.7,23.8-104.6,38.8c-2.7,0.8-5.5,1.6-8.1,2.3c-8.2,2.2-16.2,4.2-24.1,5.7
			c-29.1-158.5-128.5-698.5-129.9-701.9l24.8-5.8l141.8-18.7L2430.4,3271.5z"/>
	</g>
	<path class="st1" d="M902.6,1266.8c0,0,734.8-817.6,2030.3-494.3c-57.9,587.3-57.9,628.7-57.9,628.7s-956.6-14.4-1630,527.9
		C1051.4,1741.9,902.6,1266.8,902.6,1266.8z"/>
	<path class="Graphic_x0020_Style_x0020_22" d="M1231.3,1744.3l180-254.7l146.4,38.6l62.4-292.6l96,79.9l67.2-250.3l74.4,28.8
		l134.4,38.4l31.2-132l50.1-108l115.2,81.6l121-81.6l71.2-79.2l72,84l105.6-84l110.4,86.4l96-100.8l94.7,9.7l-54.7,538.2
		c0,0-995,31.9-1515.7,481.5C1252.9,1776.4,1231.3,1744.3,1231.3,1744.3z"/>
	<g>
		<g>
			<g>
				<g>
					<path class="st2" d="M1173.3,1240.8c0,0,1.8,4.4,5.1,12.5"/>
					<path class="st3" d="M1188.9,1278.8c38.9,93.5,141.3,334.6,205.8,436.9"/>
					<path class="st2" d="M1402.2,1727.3c2.7,4,5.3,7.6,7.8,11"/>
				</g>
			</g>
		</g>
		<g>
			<g>
				<path class="st2" d="M1323.6,1165.1c0,0,1.6,4.5,4.6,12.7"/>
				<path class="st4" d="M1337.4,1203.1c34.3,92.9,124.9,331.2,187.5,432.9"/>
				<path class="st2" d="M1532.2,1647.4c2.6,4,5.2,7.6,7.7,11"/>
			</g>
		</g>
		<g>
			<g>
				<path class="st2" d="M1473.9,1089.3c0,0,1.4,4.6,3.9,12.9"/>
				<path class="st5" d="M1485.9,1128.2c29.9,95.3,109.8,340.6,170.8,443.5"/>
				<path class="st2" d="M1663.8,1583.3c2.6,4,5.2,7.7,7.7,11.1"/>
			</g>
		</g>
		<g>
			<g>
				<path class="st2" d="M1624.2,1013.6c0,0,1.2,4.6,3.5,13"/>
				<path class="st6" d="M1635.1,1053.6c27.5,99.1,101.9,355.9,162.2,460.8"/>
				<path class="st2" d="M1804.5,1526.3c2.6,4,5.1,7.7,7.6,11.1"/>
			</g>
		</g>
		<g>
			<g>
				<path class="st2" d="M1774.5,937.9c0,0,1.1,4.6,3.2,13.1"/>
				<path class="st7" d="M1784,976.7c25.8,102.9,99.1,382.5,159.8,490.6"/>
				<path class="st2" d="M1950.6,1478.7c2.6,4.1,5.1,7.8,7.6,11.1"/>
			</g>
		</g>
		<g>
			<g>
				<g>
					<path class="st2" d="M1924.8,862.1c0,0,1,4.7,2.9,13.1"/>
					<path class="st8" d="M1933.8,902.3c24.8,108.3,96.1,405.4,156.7,516.6"/>
					<path class="st2" d="M2097.5,1430.9c2.5,4.1,5,7.8,7.5,11.2"/>
				</g>
			</g>
		</g>
		<g>
			<g>
				<path class="st2" d="M2075.4,844.2c0,0,0.8,4.7,2.3,13.3"/>
				<path class="st9" d="M2082.4,884.3c19.4,108,75.4,404.7,125,515.3"/>
				<path class="st2" d="M2213.3,1411.8c2.2,4.3,4.4,8.2,6.6,11.7"/>
			</g>
		</g>
		<g>
			<g>
				<path class="st2" d="M2225.9,826.3c0,0,0.6,4.7,1.7,13.4"/>
				<path class="st10" d="M2231,866.1c13.9,107.1,54.3,401,93,510.5"/>
				<path class="st2" d="M2328.7,1389.1c1.9,4.6,3.7,8.7,5.6,12.2"/>
			</g>
		</g>
		<g>
			<g>
				<path class="st2" d="M2376.5,808.4c0,0,0.4,4.8,1,13.4"/>
				<path class="st11" d="M2379.7,848.2c8.8,107.6,34.6,403.3,62.4,512.6"/>
				<path class="st2" d="M2445.6,1373.6c1.4,4.8,2.9,9.1,4.3,12.7"/>
			</g>
		</g>
		<g>
			<g>
				<path class="st2" d="M2527.1,790.5c0,0,0.1,4.8,0.4,13.4"/>
				<path class="st12" d="M2528.3,830.2c3.6,107.4,14.6,402.8,31.4,511.5"/>
				<path class="st2" d="M2562,1354.6c0.9,5,1.9,9.4,2.9,13.1"/>
			</g>
		</g>
		<g>
			<g>
				<g>
					<path class="st2" d="M2679.3,772.5c0,0-0.1,4.8-0.2,13.5"/>
					<path class="st13" d="M2678.6,812.2c-1.6,107.3-5.3,402.7,0.7,510.6"/>
					<path class="st2" d="M2680.1,1335.8c0.4,5.1,0.8,9.6,1.3,13.4"/>
				</g>
			</g>
		</g>
	</g>
	
		<ellipse transform="matrix(0.9871 -0.1602 0.1602 0.9871 -502.356 306.716)" class="Graphic_x0020_Style_x0020_26" cx="1651.3" cy="3269.3" rx="112.1" ry="112.1"/>
	<circle class="st14" cx="801.1" cy="1585.5" r="62"/>
	<circle class="Graphic_x0020_Style_x0020_26" cx="315.9" cy="1818.7" r="40.2"/>
	
		<ellipse transform="matrix(0.7071 -0.7071 0.7071 0.7071 -1225.306 3213.4492)" class="Graphic_x0020_Style_x0020_27" cx="3266.3" cy="3085.8" rx="76.9" ry="76.9"/>
	<path class="Graphic_x0020_Style_x0020_27" d="M2932.9,2707c0,0,5.3-300.7,140.8-392.4c135.4-91.7,596.1-183.4,613.7-44.8
		c-11.2,72.5-73.1,178.1-73.1,178.1S3283.7,2658,3280.5,2659C3277.3,2660.1,2932.9,2707,2932.9,2707z"/>
	<polygon class="Graphic_x0020_Style_x0020_26" points="2896.2,2399.7 2951.5,2536.9 2889.7,2554.8 2838,2443.2 	"/>
	<polygon class="Graphic_x0020_Style_x0020_27" points="2807.7,2462.1 2865.4,2557.4 2889.7,2554.8 2838,2443.2 	"/>
	<g>
		<path class="Graphic_x0020_Style_x0020_26" d="M1453.5,2539.4l-249.4,546.4c-26.6,2.6-51.2,5.8-74.3,8.9l265.6-598.8
			L1453.5,2539.4z"/>
		<path class="Graphic_x0020_Style_x0020_27" d="M1483.8,2558.3l-252,525.2c-9.5,0.7-18.7,1.5-27.7,2.4l249.4-546.4L1483.8,2558.3z"
			/>
	</g>
	<path class="Graphic_x0020_Style_x0020_26" d="M2537.2,2707c-0.8,100,61.6,259.8,87.3,321.3c25.1-25.7,55.1-54.4,91.1-86.7
		c131.5-117.8,287.7-139,443.1-131.3l107.6-223.3l-141.5-128.5C3124.8,2458.6,2538.3,2581.2,2537.2,2707z"/>
	<path class="Graphic_x0020_Style_x0020_27" d="M3428.1,1535.9c0,0,38.5,91.7,2.8,194.5c-35.6,102.8-5.4,160.1-43,188.4
		c-37.5,28.4-67.1-110.5-67.1-110.5l-2.7-69.6c0,0,74.6-105.9,71.1-180.6C3411.1,1522.8,3428.1,1535.9,3428.1,1535.9z"/>
	<g>
		<path class="st1" d="M2859.3,1582.6c-32.7-91.2-89.4-260.8-106-308.8l0,0c0,0-5.9-74.8-13.1-135.6c-7.2-60.8-63.2-126.4-72-115.2
			c-8.8,11.2-2.4,117.6,8.8,134.4c-33.6-43.2-46.4-64-53.6-60.8c-7.2,3.2,28.8,116.8,51.2,156.8c22.4,40,28,57.6,29.6,60
			c20.2,74.1,12.6,178.1,31.7,295.9c0.2-0.2,0.4-0.3,0.6-0.5C2772.6,1584.7,2817.2,1571.1,2859.3,1582.6z"/>
	</g>
	<path class="Graphic_x0020_Style_x0020_21" d="M2874.7,1609.3c-4.2-9.6-9.2-22.8-14.9-38.6c-42.1-11.6-83.5,10.7-119.7,34.7
		c-9.9,7.1-18.9,15.5-26.6,24.9c9.6,50.2,22.7,92.9,40,116.4c6.3,8.6,16.1,17.4,28.5,26.2c7.1-50.5,28-99.4,61.3-140.6
		C2852.2,1621.5,2862.9,1613.7,2874.7,1609.3z"/>
	<path class="Graphic_x0020_Style_x0020_21" d="M3299.8,1711.5c-49.6-25.7-87.5-35.6-87.5-35.6s-307.9-14.7-331.3-53.8
		c-1.7-2.9-3.8-7.3-6.3-12.8c-11.8,4.4-22.4,12.2-31.3,23.1c-33.2,41.1-51.3,73.6-58.4,124.1c107.3,76.4,409.3,172.1,409.3,172.1
		S3454.5,1823.4,3299.8,1711.5z"/>
	<path class="Graphic_x0020_Style_x0020_21" d="M3144.5,1713.1c-40,47.4-149.8,280.5-142.3,338.1c7.5,57.6,92.8,377.5,91.7,455.4
		c56.5,132.2,279.4,124.8,357.3,53.3c77.8-71.5,20.3-88.5,16-179.2c-4.3-90.6,17.1-263.4,24.5-417c7.5-153.6-82.1-245.3-157.8-287.9
		S3184.5,1665.7,3144.5,1713.1z"/>
	<path class="Graphic_x0020_Style_x0020_26" d="M3159.4,1728.1c-0.4-2-1.3-61.9-8.2-98.2c-77.6,22.6-129,19.4-117.9-120
		c3.6-45.3,21.9-111,37-145.5c31.5-71.7,94.6-84.2,167-68.7c107.3,23,128.8,119.9,88.6,233s-4.3,176.2-4.3,176.2
		s-43.9,22.7-89.2,53.8c-32.3,22.1-65.3,58.4-83.8,48.8C3139.4,1802.8,3162.7,1742.5,3159.4,1728.1z"/>
	<path class="Graphic_x0020_Style_x0020_26" d="M3057.1,2610.6c-195.4,41.9-213,206.7-214.3,248c233.9-105.3,512-11.2,725.9-6.3
		c3.6-33.4,7.3-78.8,7.3-124c0-87.4,56.5-263.4,90.6-328.5c34.1-65.1,20.8-130.1,20.8-130.1
		C3673,2463.4,3281.1,2562.5,3057.1,2610.6z"/>
	<path class="Graphic_x0020_Style_x0020_26" d="M2430.4,3271.5c-21.8,12-53.7,23.8-104.6,38.8c-2.7,0.8-5.5,1.6-8.1,2.3l-129.2-702
		l141.8-18.7L2430.4,3271.5z"/>
	<path class="Graphic_x0020_Style_x0020_27" d="M2317.7,3312.6c-8.2,2.2-16.2,4.2-24.1,5.7c-29.1-158.5-128.5-698.5-129.9-701.9
		l24.8-5.8L2317.7,3312.6z"/>
	
		<ellipse transform="matrix(0.9985 -5.536693e-02 5.536693e-02 0.9985 -126.2334 120.9281)" class="Graphic_x0020_Style_x0020_27" cx="2119.3" cy="2338.7" rx="882.6" ry="287.8"/>
	
		<ellipse transform="matrix(0.9985 -5.536679e-02 5.536679e-02 0.9985 -124.0517 120.8674)" class="Graphic_x0020_Style_x0020_26" cx="2119.3" cy="2299.3" rx="882.6" ry="287.8"/>
	<path class="st1" d="M1792,2241c0,0,313.5,59.2,316.7,83.2c-88,25.6-137.6,146.2-21.6,153.1c116,6.9,256.8,36.8,263.2-59.7
		c6.4-96.5,51-124.5,198.4-119.8c147.4,4.7,347.5,102,347.5,102l94.7-100.4c0,0-413.5-43.2-464.7-87.5s-448-40.4-563.1-15.1
		C1848,2221.8,1754.5,2233.7,1792,2241z"/>
	<path class="Graphic_x0020_Style_x0020_27" d="M3070.4,1314.5c0,0,2.4,158.4,142.1,193.3c45.2-39.3,73.2,11.5,60,40.3
		c18.9,47.4,21.3,63.6,49.3,69.8c36.2-2.6,28-71.3,28-71.3c29.9-17,60.7-113.6,35-192.4S3166.1,1178.7,3070.4,1314.5z"/>
	<path class="Graphic_x0020_Style_x0020_27" d="M3178.7,1460.8l1.6,90.7c2.5,9.6,7.4,9.6,14,2.4c0,0,21.8-67.6,34.7-73.2
		C3241.8,1475,3178.7,1460.8,3178.7,1460.8z"/>
	<path class="Graphic_x0020_Style_x0020_27" d="M3380.8,1489.6c0,0,61.8,31.2,54.2,54.4c-22.7,19.8-42,22.9-42,22.9l-47.7-27.8
		L3380.8,1489.6z"/>
	<polygon class="Graphic_x0020_Style_x0020_27" points="1878.3,2250.4 2174.6,2312.6 2532.9,2187.9 2532.9,2172.9 2255.4,2140.7 
		1879.5,2235.1 	"/>
	<polygon class="Graphic_x0020_Style_x0020_26" points="1878.3,2235.5 2174.6,2297.7 2532.9,2172.9 2255.4,2125.7 	"/>
	<polygon class="Graphic_x0020_Style_x0020_27" points="1952.2,2232.6 2256.4,2144.1 2377.5,2161.5 2089.8,2261.7 	"/>
	<polygon class="Graphic_x0020_Style_x0020_27" points="2228.9,2233.3 2314.8,2201.4 2371.2,2209.5 2274.9,2243 	"/>
	<path class="Graphic_x0020_Style_x0020_26" d="M1760.3,1859c0,0,108.8,375.1,110.4,372.7c1.6-2.4,377.5-105.6,377.5-105.6
		L2157,1819l-380.7,31.6L1760.3,1859z"/>
	<path class="Graphic_x0020_Style_x0020_26" d="M1776.3,1850.6c0,0,108.8,375.1,110.4,372.7c1.6-2.4,377.5-105.6,377.5-105.6
		l-91.2-307.1L1776.3,1850.6z"/>
	<path class="Graphic_x0020_Style_x0020_22" d="M1890.7,2214.8c-11.4-35.1-67-225.2-105.7-358.3l383.1-38.6l87.6,295.2
		c-23.1,6.3-102.7,28.2-181.5,50.1c-54.7,15.2-98.3,27.3-129.7,36.2C1914.1,2207.9,1898.7,2212.3,1890.7,2214.8z"/>
	<path class="st1" d="M3019.8,2409c-24.4-43.7-17.2-81.7-10.3-130.3c-121.3-11.3-359.3-47.5-367.3-57.9c0,0-0.3,0.9-0.8,2.5
		c-27.6-10.2-70.5-24.5-100.1-26.5c-46.8-3.2-129.7,40.7-130.5,41.9s0.4,23.2,18.5,24.8c18.1,1.6,100.8,25.5,131.2,14.3
		c20.9-7.6,65.9,0.8,93.2,6.8C2692.6,2299.3,2861,2380.6,3019.8,2409z"/>
	<path class="Graphic_x0020_Style_x0020_21" d="M3070.2,2280.9c-14.7,1.1-40-0.2-71-3.1c-6.9,48.6-0.7,119.3,23.7,163
		c42.5,7.6,79.9,4.4,109.6,3.5C3136.4,2387.8,3106.8,2326.7,3070.2,2280.9z"/>
	<path class="Graphic_x0020_Style_x0020_21" d="M3272,1896.5c-37.3,41.6-56.5,75.7-56.5,75.7s-91.7,294.3-135.4,307.1
		c-2.4,0.7-5.7,1.2-9.9,1.5c36.7,45.8,61.6,103.3,57.7,159.8c16.7-0.5,30.5-2.6,40.7-6.6c96-38.4,286.9-380.7,286.9-380.7
		S3419.2,1775,3272,1896.5z"/>
	<path class="st1" d="M2310.5,2379.3l-230.8-9.6c-4.4-0.2-7.9,3.4-7.8,7.7l1.3,46.1c0.1,4.1,3.4,7.3,7.5,7.3h229.5
		c4.1,0,7.5-3.4,7.5-7.5v-36.5C2317.7,2382.8,2314.5,2379.5,2310.5,2379.3z"/>
	<path class="st1" d="M2310.5,2366l-230.8-9.6c-4.4-0.2-7.9,3.4-7.8,7.7l1.3,46.1c0.1,4.1,3.4,7.3,7.5,7.3h229.5
		c4.1,0,7.5-3.4,7.5-7.5v-36.5C2317.7,2369.5,2314.5,2366.2,2310.5,2366z"/>
	<path class="st14" d="M749.7,2435.7c9.1-3.3,18.5-8.1,27.5-14.2c-42.1-20.2-101.2-32.8-166.6-32.8c-72.7,0-137.5,15.5-180,39.8
		c16.1,14.8,44.3,16.2,63.3,16.2C579.2,2446.9,666.7,2462.6,749.7,2435.7z"/>
	<path class="st14" d="M826.4,3077.3c-5.6-2.2-11.3-4.5-17.1-7c-1.3-0.5-2.5-1.1-3.8-1.6h0c-23-146.1-79-501-78.2-499.8
		c1,1.6,21.8-14.4,21.8-14.4L826.4,3077.3z"/>
	<path class="st14" d="M476.5,2569c0.4-0.6-12.6,82.4-28.6,184.7c-6.2-10.3-12.3-20.7-18-31.3l24.8-167.8
		C454.7,2554.5,475.5,2570.5,476.5,2569z"/>
	<path class="Graphic_x0020_Style_x0020_26" d="M777.3,2421.5c-9,6-18.4,10.9-27.5,14.2c-83,26.9-170.5,11.2-255.8,9
		c-18.9,0-47.1-1.3-63.3-16.2c-29.5,16.9-48.1,37.9-51,61c9.7,18.3,28.3,32,47,38.2c123.4,45.4,293.9,62.8,410.3-9.4
		c3.3-7.2,5.1-14.7,5.1-22.4C842,2467,817.4,2440.8,777.3,2421.5z"/>
	<path class="Graphic_x0020_Style_x0020_27" d="M426.6,2527.7c-18.6-6.2-37.2-19.9-47-38.2c-0.3,2.1-0.5,4.2-0.5,6.4
		c0,59.2,103.6,107.2,231.4,107.2c111.2,0,204.1-36.3,226.3-84.7C720.5,2590.5,550.1,2573.1,426.6,2527.7z"/>
	<g>
		<g>
			<path class="Graphic_x0020_Style_x0020_27" d="M610,2252.4c-11.5-91.2-21.2-168.4,21.3-202.3c2.6-2,28.6-22.2,59.9-14.6
				c31.5,7.6,45.7,37.8,47.9,42.6c-15.6-96,3.8-169.4,41.3-182.3c16.3-5.6,41.5-1.8,59.9,13.3c26.7,22,25.5,56.8,25.3,61.2
				c4-26,22-125.5,93.2-159.7c14.1-6.8,41.2-19.8,62.5-6.7c24.5,15.1,22.8,52.9,22.6,55.9c35.3-63.9,88.7-95,125.1-82.5
				c16.5,5.6,31.1,20.7,35.9,38.6c8.7,31.8-13.5,72.4-58.6,94.5c26.3-1.5,50.1,9,61.2,27.9c18.1,30.7-6.7,67.4-10.6,73.2
				c-24.9,36.8-78.8,51.8-137.1,41.3c47.8,38.1,70.1,84.3,57.2,115.8c-8.4,20.4-29.6,29.8-53.2,39.9c-24.1,10.3-72.9,26.3-142.4,16
				c42.6,22.6,71.4,54.3,67.9,82.5c-4.7,37.7-65.5,54.1-111.8,66.5c-33.7,9.1-186.2,50.2-244.9-25.3
				C620.1,2332,616.7,2305.4,610,2252.4z"/>
			<path class="st15" d="M494.1,2384.5c33,18.9,75.1,12.5,109.9-2.8c65.3-28.8,114.6-84.8,155.5-143.3
				c40.9-58.5,76.1-121.5,124.4-174.1c45.7-49.8,101.8-88.6,151.5-134.4c37.5-34.5,71.4-72.9,100.9-114.4"/>
			<path class="st15" d="M679.5,2131.5c38.7,60.5,50.9,129.5,11.6,189.5"/>
			<path class="st15" d="M727.3,2282.3c50-25.5,149.4,18,200.8,10.5"/>
			<path class="st15" d="M804.7,2170.6c21.5-63.1,6.5-122.1,10.8-176"/>
			<path class="st15" d="M975.7,1872.6c-4.5,48.6-17.1,96.4-37.2,140.9"/>
			<path class="st15" d="M995.9,1964.8c46-17,97.6-18.1,144.3-3.1"/>
			<path class="st15" d="M842.2,2115.8c51.4-25.7,111.7-28.6,165.4-7.9"/>
		</g>
		<g>
			<path class="st16" d="M569.7,2235.4c-81.3-57.4-121.6-58.7-130.5-92c-5.5-20.8,2.5-49.1,23.1-61.3c25.5-15,57.2,2.5,58.8,3.4
				c-72-58.1-100-123.3-79.1-153.9c9.9-14.5,36.3-29.2,63.8-27.1c21.5,1.7,35.9,12.9,41.7,18c-36.4-77.7-42.9-143-16.8-161.1
				c10.2-7.1,32.7-12,52-3.6c15.7,6.8,23.2,19.7,25.9,25.2c-9-53.5,17.9-95.7,47.4-101.7c18.4-3.7,38.8,6.3,50.1,20.9
				c15.7,20.3,14.7,50.8-3.7,74.9c2.2-1.7,35.4-26.8,59.4-16c26.1,11.7,24.2,58.3,10.4,87.5c-13.7,29-40.1,43-49.7,47.6
				c3.9-2.1,41.7-21.3,66.5-5.8c34,21.3,10.3,87.5,8.7,91.7c-22.3,60.1-87.6,84.5-100.9,89.1c43.5,0.1,77.7,19.8,84.6,46.7
				c8.7,33.6-28.6,65.7-48.8,83.2c-49.4,42.7-109.1,50.3-139.5,51.7C588.1,2248.9,580,2242.7,569.7,2235.4z"/>
			<path class="st17" d="M665.6,1732.8c-2.9,52.7-12.8,105.3-29.2,156.1c-23.7,73.3-61.3,144.9-62.7,220.7
				c-0.4,23.1,2.6,46,5.6,68.7c3.4,26,7,52.5,18.4,75.9c10.6,21.8,27.7,40.1,47.7,54.3"/>
			<path class="st17" d="M580.6,2194.7c1-3.6,3.5-6.7,6.2-9.5c15.8-16.4,38.8-24,61.1-29.4c22.2-5.4,45.4-9.6,65-21.5"/>
			<path class="st17" d="M595.4,2000.7c15.3-22,43-32.3,69.1-39.9c26.1-7.7,53.9-14.9,73.2-33.8"/>
			<path class="st17" d="M627.5,1912.7c6.4-13,0.9-28.3-8.1-39.1c-9.1-10.7-21.4-18.4-31.5-28.2c-10.1-9.8-18.2-23.3-15.6-37.3"/>
			<path class="st17" d="M646,1854.5c1-4.2,2-8.6,4.3-12.4c3.4-5.7,9.4-9.5,15.3-12.7c12.3-6.6,25.5-11.2,38-17.4
				c12.5-6.3,24.5-14.5,31.7-26.2"/>
			<path class="st17" d="M575.3,2079.2c-0.7-10.5-1.3-21.1-4.7-30.9c-6.4-18.9-21.8-33.2-36.1-47.4c-14.3-14.2-28.5-30.1-31.4-50"/>
			<path class="st17" d="M505.7,2123.6c14.9-2.6,30.4-0.3,43.4,6.5c13,6.8,23.2,17.9,28.7,31.2"/>
		</g>
		<g>
			<path class="Graphic_x0020_Style_x0020_26" d="M573.5,2324.4c-23.4-91.4-11.3-126.4-37.5-146.6c-16.3-12.6-43.7-16.5-61.1-3.5
				c-21.5,16.2-16.6,49.9-16.3,51.6c-27.1-83.7-74.8-132.4-108.4-126.1c-16,3-37.4,20-44.6,44.4c-5.6,19-0.5,35.6,2,42.5
				c-55.9-60.6-110.7-90.9-135.1-75.5c-9.6,6.1-21.2,23.4-20.2,43.1c0.8,16,9.6,27.3,13.5,31.7c-43.8-28-89.4-21-104.4,2
				c-9.3,14.3-7.2,35.7,1.8,50.8c12.6,21.2,39.6,31.9,66.6,25.2c-2.2,1.2-35,20.1-33.5,44.8c1.7,26.8,43,42.8,73,42.1
				c29.8-0.7,50.7-18,57.8-24.5c-3.1,2.6-32.3,27.6-26.9,54.7c7.5,37.2,73,42,77.1,42.2c59.8,3.7,102.5-43,111-52.6
				c-14.2,37.3-8.2,74,12.9,90.1c26.4,20.2,66.8,0.5,88.7-10.2c53.5-26.1,79.7-74.3,91-99.8C579.2,2345.3,576.5,2336,573.5,2324.4z"
				/>
			<path class="st17" d="M103.2,2215.9c46.9,17.5,96.1,29,145.9,34.2c71.7,7.5,146.6,2.5,213.3,30c20.3,8.4,39.3,19.6,58.2,30.8
				c21.6,12.8,43.5,25.9,60.2,44.6"/>
			<path class="st17" d="M535.1,2319.7c-3.5-0.5-60.1,12.3-78.2,91.3"/>
			<path class="st17" d="M360.2,2257.4c-24.2,4.8-42.3,24.6-57.6,44c-15.3,19.4-30.7,40.5-53.6,49.8"/>
			<path class="st17" d="M272.8,2251.5c-13.4,0.5-25-10-31.4-21.8c-6.4-11.8-9-25.3-14.3-37.6c-5.3-12.4-14.3-24.4-27.4-27.5"/>
			<path class="st17" d="M215.9,2245.3c-4-0.8-8.1-1.5-12.2-1c-6.1,0.8-11.4,4.4-16.1,8.3c-9.8,8-18.2,17.6-27.7,25.9
				s-20.7,15.4-33.2,17.2"/>
			<path class="st17" d="M435.3,2270c-8.9-4.5-18-9.1-25.5-15.7c-14.4-12.7-21.8-31.3-29.5-48.9c-7.7-17.6-16.9-35.8-33.3-45.9"/>
			<path class="st17" d="M496.9,2227.2c-7.2,11.8-10.2,25.9-8.6,39.6c1.7,13.7,9.9,27.1,19.7,36.8"/>
		</g>
		<g>
			<path class="st16" d="M653.5,2356.3c71.6-28.7,89.5-54.3,114.8-46.1c15.8,5.2,30.9,22.3,30.1,40.9c-1,22.9-25.7,36.2-27,36.8
				c68.1-22.3,122.3-13.1,133.4,13.5c5.3,12.6,3.7,35.9-9.3,52.9c-10.1,13.3-23.5,17.9-29.3,19.5c65.9,9.1,111,32.4,111.9,57
				c0.3,9.7-6,26.3-19.6,35.3c-11,7.3-22.6,6.7-27.3,6.2c38.6,16.8,54.7,52,46.1,73.7c-5.3,13.5-20.5,22.6-34.7,23.8
				c-19.8,1.7-39.3-11.9-47.1-34c0.2,2.1,2.5,34.3-14.6,45.4c-18.6,12-48.1-8.9-61.3-30.1c-13.1-21.1-11.1-44.2-10-52.3
				c-0.3,3.4-3.7,36.1-24.3,45.7c-28.2,13.1-61.2-30.2-63.3-33c-29.7-39.8-18-92.6-15.4-103.2c-18.4,28.2-45.7,42.1-66,35.4
				c-25.5-8.5-30.7-46.3-33.5-66.8c-6.9-50.1,13.3-92.1,25.2-112.5C637,2362.6,644.5,2359.9,653.5,2356.3z"/>
			<path class="st17" d="M940,2630.6c-33-24.1-63.1-52.7-89.2-84.8c-37.7-46.3-68.4-100.9-117.1-133.8c-14.8-10-31-17.7-47-25.4
				c-18.3-8.7-37.1-17.6-57.1-20c-18.6-2.3-37.7,1.1-55.4,8.1"/>
			<path class="st17" d="M675.4,2380.5c1.9,2.2,2.9,5.1,3.6,8c4,17.2-0.8,35.4-6.6,52.1s-12.9,33.6-13.4,51.3"/>
			<path class="st17" d="M795.3,2471.9c7.8,19.2,2.8,41.6-3.2,61.8c-6,20.2-13,41.3-8.9,61.9"/>
			<path class="st17" d="M839,2529.9c5.8,9.6,18,12.6,28.8,11.2c10.8-1.4,21-6.1,31.6-8.6c10.6-2.4,22.8-2,30.8,5.5"/>
			<path class="st17" d="M869.1,2566.5c2.3,2.4,4.7,4.9,6.2,8c2.2,4.6,2.2,10.1,1.8,15.3c-0.9,10.8-3.5,21.3-4.7,32.1
				c-1.2,10.7-0.9,22,3.7,31.6"/>
			<path class="st17" d="M752.7,2425.8c7.1,4,14.3,8,22.1,10c15,3.8,30.8-0.2,46-3.5c15.2-3.3,31.6-5.8,45.7,0.6"/>
			<path class="st17" d="M753.2,2361.8c-4.6,10.8-12.6,19.9-22.5,25.5c-9.9,5.6-21.5,7.5-32.4,5.5"/>
		</g>
	</g>
	<polyline class="Graphic_x0020_Style_x0020_37" points="1251.9,1774.5 1385.7,1420.4 1542.5,1489.2 1652.9,1315.5 1760.3,1358 
		1760.3,1014.1 1976,1086.9 2004,937.3 2058.4,839.7 2218.3,1021.8 2299.9,857.3 2368.7,754.9 2458.3,827.7 2551.9,783.4 
		2667.8,861.3 2761.4,853.3 2853.7,863.9 	"/>
	<path class="st17" d="M1020.2,1274c0,0,216.8-196,392.2-271.1c6.4,27.7,6.4,27.7,6.4,27.7s-248.6,116.1-379.8,287.8
		C1027.9,1300,1020.2,1274,1020.2,1274z"/>
</g>
</svg>
