<?xml version="1.0" encoding="utf-8"?>
<!-- Generator: Adobe Illustrator 24.0.0, SVG Export Plug-In . SVG Version: 6.00 Build 0)  -->
<svg version="1.1" id="Vector" xmlns="http://www.w3.org/2000/svg" xmlns:xlink="http://www.w3.org/1999/xlink" x="0px" y="0px"
	 viewBox="0 0 3000 3000" style="enable-background:new 0 0 3000 3000;" xml:space="preserve">
<style type="text/css">
	.st0{fill:none;stroke:#1A1A1A;stroke-width:4.6867;stroke-linecap:round;stroke-linejoin:round;stroke-miterlimit:10;}
	.st1{fill:#FFFFFF;stroke:#1A1A1A;stroke-width:3.1244;stroke-linecap:round;stroke-linejoin:round;stroke-miterlimit:10;}
	.st2{fill:#1A1A1A;stroke:#1A1A1A;stroke-width:3.1244;stroke-linecap:round;stroke-linejoin:round;stroke-miterlimit:10;}
	.st3{fill:#D9DBDA;}
	.st4{fill:#1A1A1A;}
	.st5{fill:#8E9DF4;stroke:#1A1A1A;stroke-width:3.1244;stroke-linecap:round;stroke-linejoin:round;stroke-miterlimit:10;}
	
		.st6{fill:none;stroke:#1A1A1A;stroke-width:3.1244;stroke-linecap:round;stroke-linejoin:round;stroke-miterlimit:10;stroke-dasharray:18.7466;}
	.st7{fill:#5067EF;stroke:#1A1A1A;stroke-width:3.1244;stroke-linecap:round;stroke-linejoin:round;stroke-miterlimit:10;}
	.st8{fill:#FFFFFF;stroke:#000000;stroke-width:1.5622;stroke-miterlimit:10;}
	.st9{fill:none;stroke:#1A1A1A;stroke-width:3.1244;stroke-linecap:round;stroke-linejoin:round;stroke-miterlimit:10;}
	.st10{fill:none;stroke:#FFFFFF;stroke-width:4.6867;stroke-linecap:round;stroke-linejoin:round;stroke-miterlimit:10;}
	.st11{fill:none;stroke:#FFFFFF;stroke-width:3.1244;stroke-linecap:round;stroke-linejoin:round;stroke-miterlimit:10;}
	.st12{fill:#FFFFFF;}
</style>
<g>
	<path class="st0" d="M447.6,1678.8C339,2054.7,395,2215,473.2,2290.3c130.7,126,318.3,10.1,838.1,55.6
		c343.2,30.1,353.2,88.6,564.4,68.4c91.2-8.7,444.2-42.5,701.3-329.3c65.8-73.4,296.2-330.4,230.9-615.8
		c-59.6-260.5-329.7-387.5-551.6-491.8c-209.6-98.5-429.1-121.2-868-166.8C937.2,764,741.8,788.6,571.6,892
		c-113.7,69-158.7,138.1-171,158.2C244.2,1304.1,425.7,1639.6,447.6,1678.8z"/>
	<path class="st1" d="M2699.7,1462.9c-4-177.9-261.6-224.4-321.4-476.1c-34.6-145.9,34.5-203.4-20.1-271.2
		c-89.3-110.9-287.7,25.9-616.6-8c-345.8-35.7-429.3-218.1-638.7-168.7C993.4,564.7,850,653.7,719.2,944.6
		c-310.4,192.2-476.3,475.3-421.8,711.1c19.7,85.1,65,151,111.8,201.7c12.6,85.6,41.7,183.1,103.1,276.4
		c184.1,279.6,556.3,365.9,823.5,317.4c190.3-34.5,247.1-122.9,371.1-175.3c152.1,31.4,329.3,44.9,483.8,15.6
		c74.4,27,136.4,47.9,213.7,19c210.3-78.5,341.5-453.7,271.4-749.3C2695.1,1522.9,2700.3,1489.9,2699.7,1462.9z"/>
	<path class="st1" d="M988.8,587.6l-15.2,841.2l-679.4,56.1c5.7-32.3,14.7-64.8,27-97.3c60.6-160.8,199.9-320.4,398-443
		c51.3-114.1,104.5-197.1,156.9-257.5C914.5,642.9,952.5,610.8,988.8,587.6z"/>
	<g>
		<path class="st1" d="M2442.4,1936.9l-11.3,361.9c0,0-94.8,55.5-180.7,12.8c-0.4-240.5-0.4-240.5-0.4-240.5L2442.4,1936.9z"/>
		<polygon class="st1" points="1164,1801.6 2249.9,2071.2 2250.4,2311.6 1192.8,2011.2 		"/>
		<polygon class="st1" points="1493.5,1936.9 1994.5,2066.4 1990.1,2205.8 1493.5,2068.5 		"/>
		<polygon class="st2" points="1698.9,2011.8 1798.3,2035.9 1798.3,2053 1698.9,2025.7 		"/>
		<polygon class="st1" points="2184.7,2063.7 2193.6,2295.5 2250.4,2311.6 2249.9,2076.5 		"/>
		<polygon class="st1" points="1404.5,1756.6 1245.7,1773.9 1254,1843.9 2289.2,2099.3 2298.5,1850.9 		"/>
		<polygon class="st2" points="2298.5,1850.9 2289.2,2099.3 2289.8,2099.4 2457.3,1941.4 2462.8,1868.3 		"/>
		<polygon class="st1" points="1227.5,1737.5 1224,1768.5 2288.3,2031.1 2284.9,2004.7 		"/>
		<polygon class="st1" points="2470.8,1860.8 2474.3,1829.7 2285.8,2004.9 2284.9,2004.7 2288.3,2031.1 2289.8,2031.5 		"/>
		<polygon class="st1" points="2474.3,1829.7 2285.8,2004.9 1227.5,1737.5 1408,1657.6 		"/>
		<g>
			<path class="st2" d="M1429.7,1722.3c2.4,0,488.9,102.3,488.9,102.3l-94.2,56.4l-476.8-116v-7.7L1429.7,1722.3z"/>
			<path class="st1" d="M1429.7,1714.6c2.4,0,488.9,102.3,488.9,102.3l-94.2,56.4l-476.8-116L1429.7,1714.6z"/>
			<polygon class="st2" points="1784.3,1799.3 1747.7,1838.6 1810.9,1855.4 1853.6,1816.5 			"/>
			<polygon class="st2" points="1433.7,1722.9 1681.2,1776.7 1637.9,1818.9 1373.3,1751.1 			"/>
			<polygon class="st2" points="1703.7,1781.5 1677.3,1809.6 1722.9,1821.7 1750,1792.9 			"/>
		</g>
	</g>
	<g>
		<g>
			<path class="st3" d="M296.2,1483.2c5.6-31.3,14.6-63.3,26.6-95c30.5-80.8,80-160,147.1-235.3c68.7-77.1,152.9-146.7,250.2-206.9
				l0.4-0.3l0.2-0.4c47.4-105.5,100.1-192,156.6-257.1c34.8-40.1,71.8-72.9,109.9-97.6l-15.1,836.9L296.2,1483.2z"/>
			<path class="st4" d="M985.6,593.4l-15,832.5l-672.6,55.5c5.6-30.6,14.4-61.8,26.1-92.7c15-39.9,35.1-80,59.6-119.2
				c24.6-39.4,54-78.3,87.2-115.6c68.6-77,152.6-146.5,249.8-206.7l0.8-0.5l0.4-0.9c47.4-105.3,100-191.7,156.4-256.7
				C912.4,650,948.4,617.9,985.6,593.4 M988.8,587.6c-36.4,23.2-74.3,55.2-112.7,99.5c-52.4,60.4-105.6,143.4-156.9,257.5
				c-198.1,122.6-337.3,282.3-398,443c-12.3,32.5-21.3,65-27,97.3l679.4-56.1L988.8,587.6L988.8,587.6z"/>
		</g>
		<path class="st1" d="M876.1,687.1l-11.8,655.7l-543,44.8c60.6-160.8,199.9-320.4,398-443C770.5,830.5,823.7,747.5,876.1,687.1z"/>
	</g>
	<g>
		<path class="st2" d="M1643.9,1706.1c0,0-55.3,6.5-62.6,9.4c-3,1.2,0.3,11.6,0,12.9c-0.4,1.9,3.2,3.8,14,5.6
			c18.3,3,299.1,59.9,299.1,59.9s14.5,4.8,22.6,0s61.7-31.1,61.7-31.1v-13.6L1643.9,1706.1z"/>
		<g>
			<path class="st3" d="M1907.5,1780.9c-6.4,0-12.6-2-12.6-2.1l-0.1,0l-0.1,0c-2.8-0.6-281.1-57-299.1-59.9
				c-10.8-1.7-12.4-3.4-12.7-3.8c0.1-0.2,0.8-1.2,4.4-2.6c6.8-2.8,52.2-17,56.7-18.4l329.6,55.8c-13,6.4-50.8,25-57.5,29.1
				C1914,1780.3,1911.1,1780.9,1907.5,1780.9L1907.5,1780.9z"/>
			<path class="st4" d="M1644.1,1695.7l324.5,54.9c-15.6,7.7-47.1,23.3-53.3,27c-1.9,1.1-4.5,1.7-7.8,1.7c-6.1,0-12.1-2-12.1-2
				l-0.2-0.1l-0.2,0c-11.5-2.3-281.1-57-299.2-59.9c-5.7-0.9-8.6-1.8-10.1-2.4c0.5-0.3,1.3-0.6,2.2-1
				C1594.5,1711.3,1638,1697.7,1644.1,1695.7 M1643.9,1692.5c0,0-49.9,15.6-57.2,18.5s-9.7,6.4,8.6,9.4
				c18.3,3,299.1,59.9,299.1,59.9s6.4,2.1,13.1,2.1c3.3,0,6.7-0.5,9.4-2.1c8.1-4.8,61.7-31.1,61.7-31.1L1643.9,1692.5L1643.9,1692.5
				z"/>
		</g>
		<path class="st2" d="M1798,1638.6c1.5,23.4,2.3,49.8-17.2,61.5c-10.5,6-15,18-22.5,21c-11,4.1-20,1.2-27.2-5.4
			c0.6,4.1,5.8,10,28,14.6c37.5,7.7,51.5,2,51.9,0c0.4-2,5.2-89,5.2-89L1798,1638.6z"/>
		<path class="st1" d="M1758.3,1721.1c7.5-3,12-15,22.5-21c19.5-11.7,18.7-38.1,17.2-61.5l-61.9-9l-3.6,81.3c0,0-1.8,1.9-1.4,4.8
			C1738.3,1722.2,1747.3,1725.1,1758.3,1721.1z"/>
		<polygon class="st1" points="1489.7,1212.2 2073.2,1220.8 2052.6,1678.7 1472.7,1597.8 		"/>
		<polygon class="st1" points="1509.2,1228.3 2052.4,1236.3 2033.3,1662.6 1493.5,1587.3 		"/>
		<polygon class="st2" points="2030.2,1253 1530.2,1245.6 1529,1274.9 2028.4,1293.7 		"/>
		<polygon class="st1" points="1529,1274.9 1515.7,1576 2012.6,1645.3 2028.8,1292.4 		"/>
		<path class="st5" d="M1515.8,1514.2c0,0,59.7-64.4,104-31.1s101.7,48.2,140.8-31.2c39.1-79.5,59.5-17.4,77.8,11.1
			c18.3,28.5,66.8-20.7,70.3-66.3c3.5-45.6,48.3-56.3,63.5-30.6c15.2,25.7,53,0.1,53,0.1l-13,279.2l-501.9-67.7L1515.8,1514.2z"/>
		<polygon class="st2" points="2073.2,1220.8 2087.3,1237.3 2063.8,1672.7 2052.6,1678.7 		"/>
		<path class="st6" d="M1581.4,1256.9l-20,320.6L1581.4,1256.9z"/>
		<path class="st6" d="M1633.4,1261.1l-20,320.6L1633.4,1261.1z"/>
		<path class="st6" d="M1685.3,1263.1l-20,320.6L1685.3,1263.1z"/>
		<path class="st6" d="M1737.3,1263.1l-20,320.6L1737.3,1263.1z"/>
		<path class="st6" d="M1789.2,1269.4l-20,320.6L1789.2,1269.4z"/>
		<path class="st6" d="M1841.2,1279.8l-20,320.6L1841.2,1279.8z"/>
		<path class="st6" d="M1893.1,1290.2l-20,320.6L1893.1,1290.2z"/>
		<path class="st6" d="M1945,1291.3l-20,320.6L1945,1291.3z"/>
		<path class="st6" d="M1997,1295.4l-20,320.6L1997,1295.4z"/>
		<path class="st7" d="M1821.5,1397h-45.6c-2.5,0-4.6-2.1-4.6-4.6v-5.2c0-2.5,2.1-4.6,4.6-4.6h45.6c2.5,0,4.6,2.1,4.6,4.6v5.2
			C1826.1,1395,1824,1397,1821.5,1397z"/>
		<path class="st7" d="M1618.5,1455.4h-45.6c-2.5,0-4.6-2.1-4.6-4.6v-5.2c0-2.5,2.1-4.6,4.6-4.6h45.6c2.5,0,4.6,2.1,4.6,4.6v5.2
			C1623.1,1453.3,1621.1,1455.4,1618.5,1455.4z"/>
		<path class="st7" d="M1974.2,1337.2h-45.6c-2.5,0-4.6-2.1-4.6-4.6v-5.2c0-2.5,2.1-4.6,4.6-4.6h45.6c2.5,0,4.6,2.1,4.6,4.6v5.2
			C1978.8,1335.2,1976.8,1337.2,1974.2,1337.2z"/>
		<path class="st1" d="M1915.9,1610.1l-49.2-6.8l3.3-25.8c1.1-8.9,9.1-15.3,18.1-14.5l14.3,1.3c9,0.8,15.7,8.6,15.1,17.6
			L1915.9,1610.1z"/>
		<circle class="st1" cx="1899" cy="1543.6" r="13.9"/>
		<path class="st1" d="M1977,1619.7l-49.2-6.8l3.3-25.8c1.1-8.9,9.1-15.3,18.1-14.5l14.3,1.3c9,0.8,15.7,8.6,15.1,17.6L1977,1619.7z
			"/>
		<circle class="st1" cx="1960.2" cy="1553.2" r="13.9"/>
	</g>
	<g>
		<g>
			<path class="st1" d="M677.6,1907.2c-12.5,23.4-173.7,21.4-255,18.9c-0.9-3.5-1.7-7-2.5-10.5c-1.5-6.3-2.8-12.5-4-18.7
				C478.2,1892.7,692,1880.4,677.6,1907.2z"/>
			<path class="st1" d="M422.6,1926.1c16.5,67.2,44.2,138.6,89.7,207.7c13.2,20.1,27.4,39.1,42.4,57.2c7.7,5.5,15.9,10.5,24.8,14.5
				c4.5,3,6,9,10.5,9c19.5,6,40.5,3,45-21c8.5-38.8,8.2-79.5,29.1-111.1l13.5-175.2C665.1,1930.6,503.9,1928.6,422.6,1926.1z"/>
			<path class="st2" d="M590.1,2214.5c-4.5,0-6-6-10.5-9c-9-4-17.1-9-24.8-14.5c28.5,34.3,60,65.1,93.9,92.5l15.5-201.1
				c-20.9,31.6-20.6,72.3-29.1,111.1C630.6,2217.5,609.6,2220.5,590.1,2214.5z"/>
		</g>
		<g>
			<path class="st8" d="M717.3,1649.3c10.2,9.9,24.8,12.9,34.8,13.8c4.5-2.2,9-4.6,13.4-7.2c19.6-11.3,32.1-31.4,40.1-53.8
				c-13,4.7-41.9,14-54.4,9c-16.5-6.5-10.1-13.8-2.4-11.4c9.5,4.9,45-5.2,60.8-10.1c3.3-12,5.5-24.4,7-36.1
				c-11.2,6.7-28.2,12.8-35.8,10.1c-9.9-3.4-6-11.6,2.2-10.7c6,0.7,25.3-9.7,35.2-15.2c1.8-24,0.7-43.1,0.3-48.2
				c-0.1-0.8-0.1-1.3-0.1-1.3s-23.4-7-54-11.4c-6.5,6.6-16,16.8-20.1,23.6c-6.5,10.7-9.4,19.6-14.6,17.9
				c-10.2-5.3,10.7-30.4,22.5-43.1c-13.4-1.5-27.6-2.3-41.5-1.8c-41.6,32.8-19.8,61.4-36.1,58c-14.1-3,10.9-41.6,21.5-57
				c-13.2,1.5-25.7,4.4-36.6,9.4c-9.7,5-18.4,9.9-26.2,14.6c-11.7,27.8,16.2,43.3,1.4,46.8c-11.6,2.7-13.1-24.5-13.1-39.1
				c-100.9,70,2.2,116.9,2.2,116.9c0.1,0.4,0.1,0.8,0.2,1.3c9.2,56.9,56.6,66.2,108.7,47.1c-8-6.5-22.7-18.4-25.1-21.1
				C704.2,1646.6,709.1,1640.2,717.3,1649.3z"/>
			<path class="st9" d="M799.8,1502.5c0,0-117.9,90.8-176.2,120.6L799.8,1502.5z"/>
			<path class="st9" d="M769.9,1568.5c0,0-27.4,3.6-55.5-3.2L769.9,1568.5z"/>
			<path class="st9" d="M705.1,1524.6c0,0-16.6,39.9-8.7,53.2L705.1,1524.6z"/>
			<path class="st9" d="M734.1,1626.3c0,0-48.1-16.8-63.8-31L734.1,1626.3z"/>
			<path class="st9" d="M624.5,1569.6c0,0-3.8,30.6,14.9,44.9L624.5,1569.6z"/>
		</g>
		<g>
			<path class="st2" d="M355,1580.9c8.6,1.1,17,2.3,25.1,3.9c11,10.6,24.6,28.4,24.5,50.6c-1.5,19.3,12.4,15.9,13.2,8.1
				c0.6-5.6-2.1-34.7-3.6-50.6c87.3,26,132.6,83.7,70.1,165.1c0,0,65,157.8-144.2,149.3c18.4-18.4,50.7-54,33.5-61.7
				c-22.1-9.9-8.1,36.4-57.1,60.2c-15.3-1.4-31.9-3.6-49.9-6.6c-19.4-4.1-38.1-12.5-55.8-23.2c32.1-9.2,110.6-33.8,97.4-51.1
				c-15.3-19.9-25,37-116.2,38.4c-17.4-12.7-33.4-27.4-47.6-42c30.1-4.9,86.7-16.3,81.2-32.8c-4.2-7.1-18.9,1.2-40.1,8.5
				c-13.5,4.6-37.9,8.4-53.9,10.5c-31.3-34.9-50.6-66-50.6-66s24.8-28.8,62.4-62c18.8,2.5,55,8,61.4,14.6c8.7,9,23.7,2.5,16-11.4
				c-5.9-10.7-34-19.2-55.8-21.5c16.5-13.4,34.7-26.8,53.8-38.8c25.1,9,80.5,30.3,85.7,45.5c6.1,10.4,23,7.3,11.4-16.7
				c-8.8-18.3-55.3-34.2-76.8-40.8C277,1589.6,317.3,1576.3,355,1580.9z"/>
			<path class="st10" d="M121.2,1740.9c0,0,255.7-1.3,363.2,17.1L121.2,1740.9z"/>
			<path class="st11" d="M239.9,1686.6c0,0,37.5,21.7,62.8,57.2L239.9,1686.6z"/>
			<path class="st11" d="M262.6,1803.9c0,0,70-34.3,77.3-58.6L262.6,1803.9z"/>
			<path class="st11" d="M355.6,1648.2c0,0,36.7,67.2,37.8,100.1L355.6,1648.2z"/>
			<path class="st11" d="M416.1,1824.5c0,0,43-34.9,38.5-70.7L416.1,1824.5z"/>
		</g>
		<g>
			<path class="st2" d="M428.2,1926.8c-0.9-6.3-1.5-12.4-1.8-18.5c7.7-10.8,21.6-25.7,42.8-32.5c18.6-4.9,12.4-13.5,4.8-11.6
				c-5.5,1.4-32.6,12.1-47.3,18.1c5.6-68.2,50.5-117.3,141.7-99.3c0,0,135.8-93.5,173.6,53.5c-21.5-7-62.5-18.3-66.1-4.1
				c-4.6,18.3,36.4-5.6,69.7,20.8c2,11,3.6,23.1,4.6,36.5c0.3,14.6-3.5,30.2-9.9,45.7c-15.8-19.3-56.5-65.9-70-51.5
				c-15.6,16.7,40.7,5.9,62.1,68.4c-8.3,15.9-18.7,31.5-29.5,45.8c-11.2-19.3-34.5-54.8-49-45.9c-5.8,5.1,5.3,12.6,16.9,25
				c7.4,7.9,16.3,23.6,21.8,34c-26.3,32.3-51.7,55.3-51.7,55.3s-32.8-8.2-72.7-23.9c-1.8-13.7-4.5-40.4,0.4-46.8
				c6.7-8.8-2.8-17.1-14.3-7.6c-8.9,7.4-10.8,29.4-8.2,45.2c-16.4-7.3-33.1-15.7-48.7-25.2c3-20.1,11.1-64.9,24.4-73.2
				c8.5-7.4,1.9-18.1-18.4-2.7c-15.5,11.7-20.4,48.7-21.9,65.5C453.6,1978,432.1,1954.2,428.2,1926.8z"/>
			<path class="st10" d="M631.8,2038.8c0,0-57.3-176-63.5-255.9L631.8,2038.8z"/>
			<path class="st11" d="M554.1,1973.6c0,0,12.4-32.6,40.6-60.9L554.1,1973.6z"/>
			<path class="st11" d="M660.6,1921.8c0,0-48-37.7-72.7-35.3L660.6,1921.8z"/>
			<path class="st11" d="M492.2,1905.6c0,0,55.9-46,86.9-56.9L492.2,1905.6z"/>
			<path class="st11" d="M646.5,1809.6c0,0-42.6-18.9-75.7-4.8L646.5,1809.6z"/>
		</g>
		<g>
			<g>
				<path class="st12" d="M311.7,1684.6c-23.9,0-51.6-8.9-82.3-26.4c19.3-7.8,50.4-22.1,54.2-34.7c0.8-2.7,0.4-5.1-1.2-7.4
					c-2-2.9-4.2-4.3-6.6-4.3c-4,0-8.1,3.9-13.7,9.4c-10.1,9.7-25.2,24.4-51.7,25.3c-11.3-7.4-23.1-16-35.2-25.6
					c-11.8-10.2-22.4-24.2-31.6-41.3c15,2.4,41.7,6,63.2,6c17.5,0,28.5-2.4,32.8-7.2c1.6-1.8,2.3-4,2-6.4c-0.6-5.4-2.8-7.8-7.2-7.8
					c-3.1,0-7.1,1.2-12.2,2.6c-8.6,2.5-20.3,5.9-35.2,5.9c-17.2,0-34.5-4.4-52.9-13.4c-6.7-16.1-12.4-34.5-17.1-54.7
					c17.6,5.3,41.5,11.4,58.1,11.4c11.6,0,18.1-3.1,19.3-9.1l0-0.1l0-0.1c0-6.8-8.9-7.4-22.5-8.2c-3.9-0.2-8.4-0.5-13.1-1
					c-12-1.2-31.5-7.2-45.8-12c-7.5-40-8.7-73.4-8.8-77.9c4.1-1.9,34.9-16.4,75.6-29.8c24.2,17.5,38.8,30.9,40.1,36.8
					c1.4,6.1,5.8,8.9,9.6,8.9c4.6,0,9.3-3.9,9.6-12.7c0.3-11.5-15.9-29.7-32.2-41.2c20.1-5.6,39.3-9.8,57.2-12.5
					c14.7,17.3,47.8,58.4,45,73.7l0,0.1v0.1c0,5.5,3.2,9.9,7.3,9.9c0,0,0,0,0,0c4.4,0,9.6-5.3,10.7-20.1
					c1.5-19.1-23.7-49.3-39.8-66.3c7.2-0.6,14.2-0.9,20.9-0.9c33.3,0,60.1,7.1,79.8,21c6.1,4.3,12,8.8,17.4,13.3
					c3,11.5,6.4,33.6-4.2,54c-5,8.4-4.1,12.7-3.1,14.5c0.9,1.6,2.6,2.5,4.5,2.5c2.5,0,4.9-1.4,6.4-3.8c3.1-4.9,14.6-32.6,19.9-45.4
					c31.1,32.8,45.1,66.5,40.4,97.5c-4.4,29.5-25.4,54.8-62.4,75.3l-0.3,0.2l-0.1,0.4c0,0.3-3.5,25.8-16.9,51
					C377.3,1657,353.7,1684.6,311.7,1684.6C311.8,1684.6,311.7,1684.6,311.7,1684.6z"/>
				<path d="M308.1,1352.6v1.6c33.1,0,59.8,7,79.4,20.9c6,4.3,11.8,8.7,17.2,13.1c3,11.4,6.2,33.1-4.2,53.1
					c-5,8.3-4.4,12.9-3.1,15.3c1.1,1.9,3,2.9,5.2,2.9c2.7,0,5.4-1.6,7-4.1c3-4.9,14-31.1,19.5-44.4c14.4,15.3,25.1,31.1,31.9,46.8
					c7.3,17,9.8,33.5,7.5,49.2c-2.1,14-8.1,27.3-17.9,39.4c-10.4,13-25.3,24.9-44,35.3l-0.7,0.4l-0.1,0.8c0,0.3-3.5,25.7-16.9,50.8
					c-7.8,14.7-17.4,26.3-28.6,34.7c-13.9,10.4-30.2,15.7-48.6,15.7c-23.4,0-50.5-8.6-80.5-25.5c22.9-9.3,49.6-22.6,53.1-34.6
					c0.9-2.9,0.4-5.6-1.3-8.1c-2.2-3.1-4.6-4.6-7.2-4.6c-4.3,0-8.5,4-14.3,9.6c-9.9,9.6-24.9,24.1-50.9,25.1
					c-11.2-7.4-22.9-15.9-34.9-25.4c-11.4-9.9-21.7-23.3-30.6-39.7c15.2,2.4,40.9,5.8,61.7,5.8c18,0,28.9-2.4,33.3-7.5
					c1.8-2,2.5-4.4,2.2-7.1c-0.7-5.8-3.2-8.5-8-8.5c-3.2,0-7.3,1.2-12.4,2.7c-8.5,2.5-20.2,5.8-35,5.8c-17,0-34.1-4.3-52.3-13.2
					c-6.5-15.7-12.1-33.5-16.6-53c17.5,5.2,40.7,11,57.1,11c12.1,0,18.8-3.3,20-9.7l0-0.1l0-0.1c0-7.6-9.7-8.2-23.2-9
					c-3.9-0.2-8.4-0.5-13.1-1c-11.9-1.2-31-7-45.2-11.9c-7.2-38.5-8.5-70.8-8.7-76.8c5.5-2.6,35.5-16.5,74.7-29.5
					c23.8,17.3,38.2,30.5,39.5,36.1c1.5,6.6,6.3,9.5,10.3,9.5c5,0,10.1-4.2,10.3-13.5c0.3-12.5-17.2-30.6-31.2-40.9
					c19.4-5.3,37.9-9.4,55.1-12c29.8,35.2,46.5,62.4,44.5,72.7l0,0.1l0,0.1c0,6,3.5,10.6,8.1,10.6c4.8,0,10.3-5.5,11.5-20.8
					c1.5-19-22.7-48.4-38.9-65.7c6.6-0.5,13.1-0.7,19.2-0.7L308.1,1352.6 M308.1,1352.6c-7.4,0-15,0.3-22.6,1
					c13.6,14.4,42.2,47.1,40.7,66.9c-1.1,14.1-5.8,19.3-10,19.3c-3.5,0-6.5-3.7-6.5-9.1c2.9-15.6-30.2-56.7-45.5-74.7
					c-20.2,3-40.4,7.7-59.3,13c15.8,10.8,33.6,29.6,33.3,41.5c-0.2,8.2-4.5,12-8.8,12c-3.8,0-7.6-2.9-8.8-8.3
					c-1.9-8.4-27.3-27.8-40.7-37.5c-44.3,14.5-76.5,30.2-76.5,30.2s0.7,35.4,8.9,79c13.3,4.5,33.9,11,46.4,12.2
					c19.7,2,34.9,0.4,34.9,8.4c-1.2,6.2-8.5,8.4-18.5,8.4c-17.4,0-43-6.8-59.2-11.7c4.3,18.7,9.9,38.1,17.6,56.4
					c21.1,10.4,38.9,13.6,53.5,13.6c23.8,0,39.3-8.5,47.4-8.5c3.7,0,5.8,1.8,6.4,7.1c1.1,9.7-14.3,12.8-34,12.8
					c-22,0-49.3-3.8-64.6-6.2c8.7,16.7,19.4,31.6,32.5,43c12.5,9.9,24.3,18.5,35.5,25.8c41-1.3,54.8-34.7,65.6-34.7c2,0,4,1.2,5.9,4
					c9.8,13.7-31.5,32.5-54.1,41.5c33.9,19.6,61.6,27.3,84.1,27.3c82.1,0,95.6-102.5,95.6-102.5c85.4-47.5,76.9-116.9,21.3-174.9
					c-6.1,14.7-17.3,41.6-20.3,46.4c-1.4,2.2-3.7,3.4-5.7,3.4c-4.1,0-7.4-4.8-0.8-15.9c10.2-19.7,7.9-41,4.2-54.8
					c-5.6-4.6-11.5-9.1-17.6-13.5C366.7,1358.4,338.4,1352.6,308.1,1352.6L308.1,1352.6z"/>
			</g>
			<path class="st9" d="M134.5,1422.7c0,0,198.1,101,272.8,160.2L134.5,1422.7z"/>
			<path class="st9" d="M251.1,1421.9c0,0,19,34.3,22.4,75.9L251.1,1421.9z"/>
			<path class="st9" d="M215.1,1535.3c0,0,69.8-2.5,86.5-21.3L215.1,1535.3z"/>
			<path class="st9" d="M358,1433.9c0,0-2.4,74.4-16.6,104.1L358,1433.9z"/>
			<path class="st9" d="M324.2,1614.8c0,0,49.2-13.9,62-47.5L324.2,1614.8z"/>
		</g>
		<g>
			<path class="st8" d="M647.7,1361c16.8-4.3,28.1-17,34.3-26.5c-0.2-5.8-0.6-11.8-1.1-17.9c-2.6-26.6-19.2-51.4-40.9-73.2
				c-1.5,15.9-6,50.6-18.4,60.2c-16.3,12.5-21.3,1.6-14.5-4.5c10.7-6.5,17.8-48.4,20.5-67.2c-12.2-10.7-25.3-20.4-38.1-29.1
				c1.8,15.3-0.2,36.1-7.3,42.2c-9.2,7.9-16.6-1.1-11.2-8.7c4-5.6,2.3-31.3,1.1-44.6c-26.8-16.4-49.5-27-55.5-29.7
				c-1-0.5-1.6-0.7-1.6-0.7s-20.4,19.2-41.8,47.3c4.2,10.5,10.9,26.4,16.6,34.7c9,13,17.6,21.4,13,25.6c-11.6,7-29.4-29.3-38-48.9
				c-8.8,12.5-17.3,26.3-24.1,40.6c15.9,61.8,60.5,57.4,47.9,71.7c-10.9,12.4-42.3-36.3-54.4-56.4c-5.3,14.1-8.6,28.5-8.6,42.5
				c0.6,12.8,1.6,24.5,3,35.2c25.9,28.7,58.7,10.2,54.8,27.2c-3.1,13.2-35.3-1.9-52.2-10.8c27.4,144.1,136.3,69.2,136.3,69.2
				c0.5,0.2,1.1,0.4,1.6,0.6c70.7,25.5,106.6-16.4,112.1-80.4c-11.8,4.1-33.3,11.6-37.7,12.3C637.6,1372.6,632.8,1363.8,647.7,1361z
				"/>
			<path class="st9" d="M521.8,1188.5c0,0,42.4,173.8,45.9,250.6L521.8,1188.5z"/>
			<path class="st9" d="M582.2,1258.9c0,0-10.4,29.7-33.1,53.8L582.2,1258.9z"/>
			<path class="st9" d="M497,1297.1c0,0,37.3,41,56.9,41.2L497,1297.1z"/>
			<path class="st9" d="M630,1330.1c0,0-44.9,38-69.7,45.1L630,1330.1z"/>
			<path class="st9" d="M506.3,1405.5c0,0,33.4,22.5,59.8,12.5L506.3,1405.5z"/>
		</g>
		<path class="st0" d="M567.7,1439.1c0,0,11.9,128.2-20.2,283.2L567.7,1439.1z"/>
		<path class="st0" d="M399.5,1576.9c0,0,137.5,40.6,148,148.2L399.5,1576.9z"/>
		<path class="st0" d="M473.5,1758c3.4-1.2,61.2-6.5,80.4,7.1L473.5,1758z"/>
		<path class="st2" d="M547.5,1818.9c0,0-79.4-89.4,68-179.4c-20.4,35.1-95.3,74.6-42.3,163.9c21.9,50.8-10.3,72.4-10.3,72.4
			S514.9,1879.8,547.5,1818.9z"/>
		<path class="st0" d="M630.1,1619.7c0,0-79.4,25-62.4,187.4L630.1,1619.7z"/>
	</g>
	<g>
		<path class="st9" d="M1929.3,1740.8c0,0,166.7,15.7,123.4,31.9c-43.3,16.2-36.6,20.3-12.5,33c24.1,12.7-46.2,24-46.2,24
			L1929.3,1740.8z"/>
		<path class="st2" d="M1908.2,1869.4c0,0,7.7-35.5,41-49.5c33.3-14.1,82.8,2.8,85.5,13.8c2.7,11-46.2,59.1-75.7,62.2
			S1909.5,1886.8,1908.2,1869.4z"/>
		<path class="st1" d="M1832.1,1847.5c0,0,65.5-54.5,78.1-59.6c12.6-5.1,82.7,4.6,96.4,11.8c13.7,7.2,22.6,33.6,25.2,55.3
			c2.7,21.7-36.8,37.6-36.8,37.6s-11.3,3-7.8-16.9c3.5-19.9-30.1-18.5-36.8-8.1c-6.7,10.5-42.1,35.4-86.7,35.4
			C1819.2,1903,1832.1,1847.5,1832.1,1847.5z"/>
		<path class="st1" d="M1312.5,1640.2c0,0,83.4-1.5,103.9,15.5c20.4,17,39.4,35.2,50.7,83c-5.4,4.5-23.6-2.3-39-22.3
			c-15.4-20.1-27.1-35.2-30-26.1c-2.9,9.1,38.5,52.2,36.4,60.9c-2.1,8.7-22.5,13.4-32.4-5.9c-9.9-19.3-42.3-40.9-51.7-42.8
			c-9.5-1.9-21.1-10.3-21.1-10.3L1312.5,1640.2z"/>
		<path class="st7" d="M1105.9,1702.5c2.4,0,192.1-81.8,213.4-69.7c21.3,12.1,20.5,77.7,20.5,77.7s-109.9,32.6-122,67.6
			C1145.4,1773.4,1105.9,1702.5,1105.9,1702.5z"/>
		<path class="st1" d="M998,1168.9c0,0-87-11.9-123.2,104.5c-31.7,101.9,18.1,169,66.5,207.9l-58.6-23.3c4.7,30-5.9,85.8-17.2,142.5
			c0,0,54,69.8,149.4,22.7c-15.3-43.4-0.7-81.2,9.3-99.8c73.1-1,87.6-14.6,94.8-161.2C1125.1,1240.2,998,1168.9,998,1168.9z"/>
		<path class="st2" d="M881.7,1506c1.5,1.5-4.8,52.8,49.5,60.3c54.2,7.5,56.7,26.2,56.7,26.2l-8.5,34.1l-118.2-20.6L881.7,1506z"/>
		<path class="st2" d="M861.4,1181.8c0,0,4.6-6.7-18.1-13.4c-22.8-6.7-50.3-36.4-26.8-63.2c23.4-26.8,56.9-40.2,87.3-28.5
			c30.4,11.7,6,35.2,26.1,42.7c20.1,7.4,40.2,25.3,18.6,38.7c-21.6,13.4-16.4,23.8-16.4,23.8S871.9,1186.2,861.4,1181.8z"/>
		<path class="st2" d="M1100.1,1277c-17.1-21.6-64.7,11.9-62.5,77.3c0.5,13.9-1.5,24.1-5.3,31.5c9.4,111.9-93,114.6-112.4,110.2
			c-28.8-6.6-90.4-31.2-119.2-107s30-144.5,30-144.5s-12.6,5.2-34.1,22.1c12.6-64.4,77.5-93,77.5-93s0,0,52-7.2
			c52-7.2,127.2,10.9,153.2,39.9C1105.4,1235.3,1109.8,1254.7,1100.1,1277z"/>
		<path class="st2" d="M851,2316.4c90-28.5,180-9,272.9-28.5c40.5-9,77.7-23.1,106.4-49.2c-8.9-3-15.6-7-19.5-12.5
			c-21.4-29.9-421.7,23.7-434,49.2c0,0-15.2,17.5-14,43.1C792.9,2325,824,2326.3,851,2316.4z"/>
		<path class="st1" d="M840.6,2319.6c-24.4,6.2-51.5,4.5-77.8-1.2c0.8,16.2,8.1,35.7,30.1,56.1c61.1,39.2,146.2,69.1,237.2,86.5
			c-43.3-38.4-96.9-53.3-147.5-71.2C854.5,2378.9,841.3,2350.2,840.6,2319.6z"/>
		<path class="st1" d="M1488,2255.8c-20.4-7.6-41.9-12.5-63.3-12.5c-73.3,0-155,8.5-194.3-4.6c-28.7,26.1-65.8,40.2-106.4,49.2
			c-93,19.5-183,0-272.9,28.5c-3.4,1.2-6.9,2.3-10.4,3.2c0.7,30.5,13.9,59.3,41.9,70.3c50.6,17.9,104.2,32.8,147.5,71.2
			c175.1,33.5,372.3,20.7,463.4-61.2c19.9-12,36.2-22,49.8-30.2c63.9-38.7,63.9-38.7,63.9-38.7S1553.3,2280.1,1488,2255.8z"/>
		<path class="st7" d="M870.4,1578c0,0-164-78.9-111.1,262.5c52.8,341.5-132.2,490.1,72.8,458s345.4-12.1,395.4-68.3
			c49.9-56.2-37.7-457.5-37.7-457.5S965.2,1555.6,870.4,1578z"/>
		<path class="st7" d="M899.2,1577.5c0,0,27.4,0,98.7,6.3c125.5,11,213.4,79.6,323.3,157c109.9,77.4,366.9,136.2,512.1,95.6
			c30.6,4.3,59.3,40.5,45.4,71.1c-39.2,15.8-297.7,126.7-469.3,58.3s-228.7-83.8-228.7-83.8L899.2,1577.5z"/>
		<path class="st7" d="M843.8,1589.5c0,0-8.6-29.7,6.4-30.5c15-0.7,140.4,29,169.6,15.2c29.9-4.5,17.8,22.2,10,21
			c-7.8-1.3-106.2,0.5-125.4-5.7c-19.2-6.2-32.8,0-32.8,0H843.8z"/>
	</g>
	<g>
		<g>
			<polygon class="st3" points="2114.8,1914.6 2111.8,1902.1 2202.2,1874.4 2220.6,1922.4 2223.6,1935 			"/>
			<path class="st4" d="M2201.3,1876.3l17.9,46.6l2.4,10.1l-105.5-19.7l-2.4-10.1L2201.3,1876.3 M2203.1,1872.5l-93.2,28.5l3.6,15
				l112.2,20.9l-3.6-15L2203.1,1872.5L2203.1,1872.5z"/>
		</g>
		<polygon class="st2" points="2306.9,1875.4 2305.2,1889.8 2225.7,1936.9 2220.7,1920.3 		"/>
		<polygon class="st1" points="2199.6,1857.5 2109.9,1901 2222.1,1922 2306.9,1875.4 		"/>
	</g>
	<g>
		<path class="st1" d="M2325.1,1824.5c17.2,0.8,33.6-4.6,48.5-13c-4.4-16.3-10.5-40.3-10.5-40.3h-136.9l-11,37.5
			C2244.3,1832.5,2290,1824.5,2325.1,1824.5z"/>
		<path class="st2" d="M2325.1,1824.5c-35.2,0-80.9,7.9-109.9-15.8l-1.7,5.9c0,0,8.1,18.1,75.1,18.9c67,0.8,89.2-7.5,89.2-7.5
			c-0.2,0-2-6.3-4.2-14.6C2358.7,1820,2342.3,1825.3,2325.1,1824.5z"/>
		<ellipse class="st1" cx="2294.7" cy="1771.2" rx="68.5" ry="11.3"/>
		<path class="st2" d="M2288.2,1771.2l152.2-337l16.9-8l-150.6,345C2300.9,1778.4,2294.7,1777.2,2288.2,1771.2z"/>
		<path class="st2" d="M2313.7,1771.2l148.9-325.6l16.9-8l-146.3,335.2C2325.8,1777.8,2319.3,1777.1,2313.7,1771.2z"/>
		<polygon class="st2" points="2170.4,1328.2 2446.6,1434.3 2442,1443.1 2165.8,1337.9 		"/>
		<polygon class="st2" points="2181.1,1297.8 2457.3,1403.8 2452.8,1412.7 2176.5,1307.5 		"/>
		<polygon class="st2" points="2017.6,1063.4 2188.3,1305.1 2179.6,1309.9 2008.4,1068.9 		"/>
		<polygon class="st2" points="1999.4,1089 2170.2,1330.7 2161.4,1335.5 1990.3,1094.5 		"/>
		<circle class="st1" cx="2441.8" cy="1438.5" r="13"/>
		<circle class="st1" cx="2457.3" cy="1412.7" r="34.2"/>
		<circle class="st1" cx="2457.3" cy="1412.7" r="17"/>
		<circle class="st1" cx="2179.7" cy="1300.8" r="11.9"/>
		<circle class="st1" cx="2167.8" cy="1332.2" r="14.2"/>
		<polygon class="st1" points="2002.6,1022.1 2019,1051.3 1976.3,1104.1 1952.7,1067.3 1945.6,1071.2 1975.5,1114.7 2028.7,1053.2 
			2012.3,1019.6 		"/>
		<circle class="st1" cx="2014.6" cy="1067.1" r="14.2"/>
		<polygon class="st1" points="2335.3,1773.8 2344,1767.4 2354.5,1769.6 2347.7,1775 		"/>
		<circle class="st1" cx="1994.3" cy="1089" r="14.2"/>
	</g>
	<path class="st1" d="M855.1,1176.4c0,0,74.3,4.6,89.1-15.6c4.8,5.6,1.2,8.7,1.2,8.7s-32.1,25.9-93.2,14.3
		C846.8,1181.2,855.1,1176.4,855.1,1176.4z"/>
	<path class="st2" d="M1099.6,1234.9c0,0,23.2,11.8,22.6,45.3c-0.7,33.5-1.3,29.5-25.4,18.7s-41.5,24.1-42.2,60.3
		C1036.5,1307.6,1063,1228.5,1099.6,1234.9z"/>
	<path class="st2" d="M882.6,2271.6c-130.6,6.3-106.6-216.2-104.3-241.5c2.3-25.3-1.8-61.3-9.2-74.9c4.2,259.9-117.4,371.6,63,343.3
		c57.7-9,110.3-14,157.2-17.6C970.7,2273.6,938.4,2269,882.6,2271.6z"/>
	<path class="st2" d="M1093.4,1863.6c0,0,152.8,33.4,198.9,56.9C1258.1,1892.8,1140.6,1855.4,1093.4,1863.6z"/>
	<g>
		<path class="st1" d="M2179.2,1833.6c0,0,28.2,16,76.5,3.1c15.6-99.3,19.9-132.9,19.9-132.9H2158L2179.2,1833.6z"/>
		<ellipse class="st2" cx="2216.8" cy="1703.8" rx="58.8" ry="6.7"/>
		<polygon class="st1" points="2180.9,1701.7 2150.9,1598.7 2158,1596.6 2189.1,1701.7 		"/>
		<polygon class="st1" points="2200.8,1701.7 2216.8,1596.6 2226.2,1578 2228.6,1598.7 2213.5,1703.8 		"/>
		<polygon class="st1" points="2226.2,1701.7 2285.4,1542.6 2298.7,1531.7 2298.7,1549.4 2240.1,1701.7 		"/>
		<polygon class="st1" points="2250.4,1703.8 2275.6,1652.1 2286.6,1640.9 2288.2,1655.4 2266.5,1701.7 		"/>
	</g>
	<path class="st1" d="M1986.6,974.3l-83.4,67c0,0,15.3,16.6,25.6,28.5c26.5-30.7,65-47,94.8-76c-1.5-2.2-3.3-4.5-5.6-7.1
		C2000.1,967.5,1986.6,974.3,1986.6,974.3z"/>
	<g>
		<path class="st3" d="M1938.6,1079.5c-0.9-1.5-3-4.2-7.7-9.7c14.2-16.1,31.5-28.1,49.8-40.7c14.5-10,29.4-20.3,42.6-32.9
			c7.1,11.7,2.5,18.1,1.8,18.9C1993.8,1039.3,1946.8,1074.8,1938.6,1079.5z"/>
		<path class="st4" d="M2022.9,998.8c4.9,9.2,1.8,14.3,1,15.3c-28.7,22.1-74.1,56.4-84.9,63.3c-1.2-1.6-3-4-6.1-7.6
			c13.9-15.5,30.8-27.1,48.6-39.4C1995.5,1020.8,2010,1010.8,2022.9,998.8 M2023.6,993.8c-29.8,28.9-68.3,45.3-94.8,76
			c5.1,6,9,10.7,9,11.7c0,0.1,0,0.1,0.1,0.1c3.4,0,88.3-65.2,88.3-65.2S2033.4,1008.5,2023.6,993.8L2023.6,993.8z"/>
	</g>
	<path class="st1" d="M1900.9,1037c0,0-88.2-11.9-109,5.2c106.4,123.5,137.4,133.1,137.4,133.1s23-44.9,14.4-104.2
		C1929.9,1037,1900.9,1037,1900.9,1037z"/>
	<path class="st1" d="M1791.9,1042.2c-30.5,32.6,75,174.4,137.4,133.1C1964.8,1138.4,1822.3,1009.6,1791.9,1042.2z"/>
	<path class="st2" d="M1801.5,1051.7c-26.2,28,64.4,149.9,118,114.4C1950.2,1134.4,1827.7,1023.7,1801.5,1051.7z"/>
	<path class="st1" d="M1823.7,1074.8c0,0-35.6,27.4-12.8,65.9s62,42.8,99.1,17.1C1910,1119.3,1854.9,1064.8,1823.7,1074.8z"/>
	<polygon class="st2" points="1164,1021.5 1633,1037.4 1642.7,761.6 1630.4,754.6 1164,768 1151.7,1014.5 	"/>
	<polygon class="st1" points="1151.7,1014.5 1623.8,1027 1630.4,754.6 1151.7,761 	"/>
	<path class="st1" d="M1205,793.6c0,0-2.7,54-33.1,62c38,7.5,83.4-4.3,94.6-42.8c1.1-17.6,1.1-17.6,1.1-17.6L1205,793.6z"/>
	<path class="st1" d="M1215.8,830c0,0,5.4,20.9-10.6,27.2c21.2-4.7,35.8-10.3,44-17.5C1236,842.6,1226.9,847.1,1215.8,830z"/>
	<path class="st1" d="M1325.7,795l70.6-1.3l0,72c-27.7,6.1-61.7,21-69.8,0L1325.7,795z"/>
	<path class="st1" d="M1543.3,793.6l-70.6,1.3c0,0-8.2,58.5-15.3,68.5c15.7,17.1,89.1,5.7,89.1,5.7
		C1549.4,854.2,1543.3,793.6,1543.3,793.6z"/>
	<path class="st1" d="M1267.5,985v-75.2h-62.3l-21.4,81.2C1183.8,991.1,1263.2,996.8,1267.5,985z"/>
	<path class="st1" d="M1200.2,909.8h67.3c0,0-12.8,73.8-30.6,75.5c-45.6,3.6-62.7,1.4-62.7,1.4S1200.5,926.6,1200.2,909.8z"/>
	<path class="st1" d="M1340.6,909.8c-0.6-3.1,60.6,5.7,69.1,0c4.3,37.8-21.4,77.6-21.4,77.6h-62.6
		C1325.7,987.4,1344.1,929.8,1340.6,909.8z"/>
	<path class="st1" d="M1472.7,909.8l74.5-0.7c0,0-0.8,39.9,11.4,55.6c12.1,15.7-3.6,27.8-3.6,27.8h-75.5
		C1479.5,992.4,1487.3,937.6,1472.7,909.8z"/>
	<path class="st1" d="M1483.1,916.9c0,0-11.4,74.7-26.4,80.5c24.9,9.3,64.1,11.3,75.5-10c11.4-21.3,8.6-70.5,8.6-70.5H1483.1z"/>
	<path class="st1" d="M2439,948.1c0,0,55.1-180.7-26.5-273.5s24.9-116.2,76-17.8c51.1,98.4,60.7,234.5,10.5,295.7
		C2448.7,1013.6,2434,967,2439,948.1z"/>
	<ellipse class="st1" cx="2206.1" cy="530.4" rx="65.2" ry="51.3"/>
	<ellipse class="st1" cx="1821.8" cy="2422.7" rx="107" ry="84.2"/>
	<ellipse class="st1" cx="393.4" cy="2270.5" rx="145" ry="133.6"/>
	<ellipse class="st2" cx="393.4" cy="1047.2" rx="77.4" ry="60.9"/>
	<ellipse class="st2" cx="2839.3" cy="1680.5" rx="53.7" ry="42.3"/>
</g>
</svg>
