<?xml version="1.0" encoding="utf-8"?>
<!-- Generator: Adobe Illustrator 22.0.0, SVG Export Plug-In . SVG Version: 6.00 Build 0)  -->
<svg version="1.1" id="Layer_1" xmlns="http://www.w3.org/2000/svg" xmlns:xlink="http://www.w3.org/1999/xlink" x="0px" y="0px"
	 viewBox="0 0 4000 4000" style="enable-background:new 0 0 4000 4000;" xml:space="preserve">
<style type="text/css">
	.st0{fill:none;stroke:#1A1A1A;stroke-width:3;stroke-linecap:round;stroke-linejoin:round;stroke-miterlimit:10;}
	.st1{fill:#1A1A1A;stroke:#1A1A1A;stroke-width:2;stroke-linecap:round;stroke-linejoin:round;stroke-miterlimit:10;}
	.st2{fill:#FFFFFF;stroke:#1A1A1A;stroke-width:2;stroke-linecap:round;stroke-linejoin:round;stroke-miterlimit:10;}
	.st3{fill:url(#SVGID_1_);}
	.st4{fill:#DBD2DB;}
	.st5{fill:#8E9DF4;stroke:#1A1A1A;stroke-width:2;stroke-linecap:round;stroke-linejoin:round;stroke-miterlimit:10;}
	.st6{fill:#1A1A1A;}
	.st7{fill:#D9DBDA;stroke:#1A1A1A;stroke-width:2;stroke-miterlimit:10;}
	.st8{fill:#102140;}
	.st9{fill:none;stroke:#FFFFFF;stroke-width:2;stroke-linecap:round;stroke-linejoin:round;stroke-miterlimit:10;}
	.st10{fill:#5067EF;stroke:#1A1A1A;stroke-width:2;stroke-linecap:round;stroke-linejoin:round;stroke-miterlimit:10;}
	.st11{fill:none;stroke:#1A1A1A;stroke-width:2;stroke-linecap:round;stroke-linejoin:round;stroke-miterlimit:10;}
</style>
<g>
	<path class="st0" d="M624.8,1909.2c-58.3,187,222,304.2,245.9,639.3c10.9,152.2-45.4,148.8-38.3,306
		c10.9,238.7,152.2,497.1,360.7,628.4c127.5,80.3,195.3,59.6,792.4,60.1c532.5,0.5,647.3,17.1,901.6-32.8
		c254-49.8,510.2-100.1,551.9-251.4c39-141.5-135.5-277.1-142.1-557.4c-2.1-91.1,14.1-169.6,16.4-180.3
		c22.9-107.6,62.4-177.5,76.5-207.7c79.2-169.6-29.2-403.6-92.9-541c-193-416.5-462.6-470.1-437.2-688.5
		c16.8-144.4,139.5-163.4,136.6-322.4c-3.6-197.6-196.3-334.4-218.6-349.7c-108.9-75-226.3-94.6-344.3-98.4
		c-106.2-3.4-506-3.3-1092.9,360.7c-317.8,197.1-606.5,376.2-595.6,601.1c7.3,149.9,143.3,229.8,103.8,377.1
		C810.4,1795.8,665,1780.4,624.8,1909.2z"/>
	<circle class="st1" cx="3335.6" cy="1792.8" r="112.2"/>
	
		<ellipse transform="matrix(0.7071 -0.7071 0.7071 0.7071 -1862.2111 1255.2947)" class="st2" cx="584.2" cy="2875.5" rx="197.9" ry="197.9"/>
	
		<ellipse transform="matrix(0.9263 -0.3768 0.3768 0.9263 -1144.8136 1404.7697)" class="st1" cx="3018.4" cy="3628.7" rx="58.3" ry="58.3"/>
	<circle class="st2" cx="3490.6" cy="2972.1" r="123.1"/>
	<g>
		<linearGradient id="SVGID_1_" gradientUnits="userSpaceOnUse" x1="642.4652" y1="1989.333" x2="3418.1362" y2="1989.333">
			<stop  offset="0" style="stop-color:#4085F0"/>
			<stop  offset="1" style="stop-color:#275DC9"/>
		</linearGradient>
		<path class="st3" d="M3409.3,2664.2c-35,116.5-131.2,131.3-195.4,309.1c-39.8,110.3-16,141.1-40.9,231.8
			c-77.9,283.4-429.4,415-463.6,427.2c-122.1,43.9-282.9,29.2-604.5,0c-394.8-35.9-594.2-56.2-690.9-172.7
			c-24.8-29.9-47.1-67.4-200-272.7c-35.4-47.5-68.3-91.3-81.8-109.1c-32.2-42.5-61.5-79-88.2-110.9
			c-153.7-183.3-225.1-214.4-298.1-343.6c-93.6-165.4-146.1-414.2-59.1-609c9.2-20.5,48.5-81.8,127.3-204.5
			c116.6-181.6,158.8-232.8,168.1-322.7c5.2-49.8,1.3-120.8-40.9-209.1c-34.6-70.4-86.9-205.3-54.6-359.1
			c50.4-239.5,271.6-360.4,427.2-445.4c87.3-47.7,378.7-201.3,763.6-140.9c46.7,7.3,623.8,104.3,704.5,427.2
			c43.9,175.7-100.2,254-45.5,454.5c48.9,179,176.7,164.5,318.1,390.9c119.3,191,47.9,232.7,171,550c3.4,8.9,7,17.9,10.8,27.2
			C3354.5,2475,3447.9,2535.7,3409.3,2664.2z"/>
		<path class="st2" d="M2482.1,456.6l-484.2,213.8l-795.2-133.8c38.6-23.5,76.6-44.2,111.3-63.2c87.3-47.7,378.7-201.3,763.6-140.9
			C2104.1,336.7,2301.5,369.8,2482.1,456.6z"/>
		<path class="st2" d="M2027.3,1921.1l-29.4-1250.7l-795.2-133.8c-134.5,81.7-276.8,196.1-315.9,382.2
			c-32.3,153.7,20,288.6,54.6,359.1c42.2,88.2,46.1,159.3,40.9,209.1c-9.4,89.9-51.6,141.1-168.1,322.7
			c-78.7,122.7-118.1,184-127.3,204.5c-12.2,27.4-21.7,55.9-28.7,85.1c-42.7,178.1,7.4,381.8,87.8,524
			c73,129.2,144.4,160.3,298.1,343.6c15.2,18.1,31.1,37.6,47.9,58.8l949.5-506.8L2027.3,1921.1z"/>
		<path class="st2" d="M1450.1,1136.2l-14.4,384.4l-458.2-3.3c2.1-9.7,3.6-19.7,4.7-30.3c0.1-0.7,0.2-1.5,0.2-2.2
			c4.9-49.6,0.4-119.9-41.1-206.8c-20.5-41.7-47.1-106-58.8-183.5c-2.2-14.6-3.8-29.6-4.8-45L1450.1,1136.2z"/>
		<path class="st4" d="M1392.3,1208c0,2,0,4.1,0.1,6.1C1392.7,1212.2,1392.7,1210.2,1392.3,1208z"/>
		<path class="st2" d="M1394.8,1231c-1.9-5.6-2.4-11.2-2.5-16.9c-1.7,9.3-11.1,15.6-15.4,22c-5.1,2.6-7.7-2.6-10.2-7.7
			c-5.1,20.4-2.6,43.4-5.1,63.9c-7.7-5.1-20.4-7.7-20.4,2.6c-2.6,53.7-40.9,56.2-81.8,71.5c-12.8,5.1-15.3,43.4-25.6,61.3
			c-25.6,35.8-89.4,30.7-117.5,5.1c-45.3-40.2-75.7-127.5-152.2-98.6c20.3,61.3,22.1,112.1,18.3,150.5l421.3,2.4l10.9-290.9
			C1405.6,1204.9,1398.7,1216.3,1394.8,1231z"/>
		<path class="st2" d="M882.5,1094.5c11.7,77.4,38.3,141.8,58.8,183.5c9.4,19.7,16.9,38.5,22.8,56.4c76.5-29,106.9,58.3,152.2,98.6
			c28.1,25.6,92,30.7,117.5-5.1c10.2-17.9,12.8-56.2,25.6-61.3c40.9-15.3,79.2-17.9,81.8-71.5c0-10.2,12.8-7.7,20.4-2.6
			c2.6-20.4,0-43.4,5.1-63.9c2.6,5.1,5.1,10.2,10.2,7.7c4.2-6.4,13.7-12.7,15.4-22c0-2-0.1-4.1-0.1-6.1c0.4,2.2,0.4,4.2,0.1,6.1
			c0.1,5.6,0.6,11.2,2.5,16.9c3.8-14.7,10.7-26.1,19.7-34.7l1.2-31.7L882.5,1094.5z"/>
		<ellipse class="st5" cx="1117.2" cy="1221.9" rx="54.6" ry="46.1"/>
		<path class="st2" d="M3395.8,2515.3L2365,2214.7l-52.6-1342.1l445.4-178.4c10.4,20.7,18.6,42.5,24.4,65.5
			c43.9,175.7-100.2,254-45.5,454.5c48.9,179,176.7,164.5,318.1,390.9c119.3,191,47.9,232.7,171,550c3.4,8.9,7,17.9,10.8,27.2
			C3304.8,2351.6,3364.8,2443.3,3395.8,2515.3z"/>
		<path class="st2" d="M2312.3,872.7l52.6,1342.1l-113.9-33.2l-53.8-1371.7l501.2-200.7c23.7,26.1,43.8,54.5,59.2,85.2L2312.3,872.7
			z"/>
		<path class="st2" d="M3409.3,2664.2c-22.5,75-70.5,107.9-118.9,169.2l-1249-314.5l-43.5-1848.5l484.2-213.8
			c81.3,39.1,159.2,89.2,216.5,152.4l-501.2,200.7l53.8,1371.7l113.9,33.2l1030.9,300.6c4.9,11.4,9.1,22.3,12.4,32.9
			C3420.4,2586.7,3422,2621.8,3409.3,2664.2z"/>
	</g>
	<g>
		<polygon class="st1" points="2886.8,2181.5 2860.3,2181.5 2849.7,1164.6 2876.3,1164.6 		"/>
		<polygon class="st1" points="2341.3,2217.8 2314.8,2217.8 2304.2,1200.8 2330.7,1200.8 		"/>
		<polygon class="st1" points="3070,2194.9 3043.4,2194.9 3026.5,1182.4 3059.4,1178 		"/>
		<polygon class="st1" points="2522.5,2188.6 2495.9,2188.6 2479.7,1222.1 2512.4,1222.1 		"/>
		<polygon class="st2" points="2519.9,2217.8 2565.3,2217.8 2546.7,1246 2547.8,1246 2546.2,1215.9 2330.7,1200.8 2330.7,1202 
			2318.5,1200.8 2337.7,2217.8 2383.1,2217.8 2364.5,1234 2501.2,1243 		"/>
		<polygon class="st2" points="3068.8,2181.5 3114.3,2181.5 3097,1222.1 3097,1222.1 3096.2,1178.7 2914,1167 2914,1164.6 
			2868.5,1164.6 2886.6,2181.5 2932,2181.5 2914.8,1210.9 3051.5,1219.3 		"/>
		<polygon class="st1" points="2268,1373.2 3018.4,1274.9 3018.4,1327 2269.7,1414.3 		"/>
		<polygon class="st1" points="2276.1,1582.9 3026.5,1484.6 3026.5,1536.7 2277.7,1624 		"/>
		<polygon class="st6" points="3018.4,1274.9 3189.6,1302.9 3185.8,1350.7 3018.4,1327 		"/>
		<polygon class="st6" points="3026.5,1484.6 3189.6,1507.5 3189.6,1546.1 3026.5,1536.7 		"/>
	</g>
	<path class="st4" d="M3409.3,2664.2c-35,116.5-131.2,131.3-195.4,309.1c-39.8,110.3-16,141.1-40.9,231.8
		c-77.9,283.4-429.4,415-463.6,427.2c-122.1,43.9-282.9,29.2-604.5,0c-394.8-35.9-594.2-56.2-690.9-172.7
		c-24.8-29.9-47.1-67.4-200-272.7c-35.4-47.5-68.3-91.3-81.8-109.1c-32.2-42.5-61.5-79-88.2-110.9l1160.9-811.7h1021
		c3.4,8.9,7,17.9,10.8,27.2C3354.5,2475,3447.9,2535.7,3409.3,2664.2z"/>
	<path class="st1" d="M975.8,2720.7c-10.2-12.8-17.9-28.1-28.1-40.9c-10.2-7.7-17.9-15.3-25.6-23c-43.9-45.7-35.4-109.7-4.6-160.2
		c-27.9,26.4-50.8,56.7-66.3,91.4c-7.9,17.7-4.4,38.3,9,52.3c64.8,67.9,261,279.1,257,344.7c5.4-3.6,10.7-7.1,15.9-10.6
		C1108.4,2877.3,1051.7,2790.3,975.8,2720.7z"/>
	<path class="st2" d="M1435.7,2319.2c0,0-349.9,17.8-518.2,177.3c-30.8,50.5-39.3,114.5,4.6,160.2c7.7,7.7,15.3,15.3,25.6,23
		c10.2,12.8,17.9,28.1,28.1,40.9c75.9,69.6,132.7,156.6,157.4,253.8c193.8-128.5,293-186.2,293-186.2L1435.7,2319.2z"/>
	<path class="st7" d="M1663.1,3193.4c15.3-7.7,35.8-12.8,51.1-20.4c10.2-5.1,20.4-10.2,30.7-15.3c10.2-2.6,23-5.1,28.1-10.2
		c46-30.7,130.3-53.7,109.9-109.9c-38.3-94.5-176.3-66.4-268.3-99.7c0-2.6-12.8-7.7-15.3-12.8c-5.1-15.3,7.7-28.1,20.4-35.8
		c38.3-17.9,81.8-2.6,115,10.2c120.1,43.4,242.7,58.8,367.9,35.8c71.5-12.8,130.3-48.5,176.3-109.9
		c58.8-74.1,109.9-143.1,176.3-204.4c35.8-33.2,71.5-79.2,112.4-94.5c84.3-30.7,230,28.1,268.3-84.3
		c-43.4-99.7-176.3-99.7-255.5-56.2c-33.2,20.4-69,30.7-104.8,46c-12.8,5.1-25.6,0-38.3,2.6c-33.2,7.7-63.9,5.1-94.5,15.3
		c-12.8,2.6-28.1,5.1-40.9,5.1c-71.5,5.1-138,12.8-209.5,25.6c-20.4,2.6-43.4,10.2-56.2-2.6c-33.2-40.9,12.8-74.1,51.1-94.5
		c56.2-28.1,79.2-102.2,74.1-166.1c-1.6-6.5-5.3-16-11-24.1L1044,2966.9c26.8,31.9,56,68.5,88.2,110.9
		c13.5,17.8,46.4,61.5,81.8,109.1c61.2,82.1,101.4,137.3,129.3,176c73.7-33.9,143.4-70.5,217.6-118.4
		C1594.1,3224.1,1627.3,3211.3,1663.1,3193.4z"/>
	<path class="st2" d="M3236.6,2182.4c-3.7-9.3-7.3-18.4-10.8-27.2h-1021l-54.5,38.1c5.7,8.1,9.4,17.6,11,24.1
		c5.1,63.9-17.9,138-74.1,166.1c-38.3,20.4-84.3,53.7-51.1,94.5c12.8,12.8,35.8,5.1,56.2,2.6c71.5-12.8,138-20.4,209.5-25.6
		c12.8,0,28.1-2.6,40.9-5.1c30.7-10.2,61.3-7.7,94.5-15.3c12.8-2.6,25.6,2.6,38.3-2.6c35.8-15.3,71.5-25.6,104.8-46
		c79.2-43.4,212.1-43.4,255.5,56.2c-38.3,112.4-184,53.7-268.3,84.3c-40.9,15.3-76.7,61.3-112.4,94.5
		c-66.4,61.3-117.5,130.3-176.3,204.4c-46,61.3-104.8,97.1-176.3,109.9c-125.2,23-247.9,7.7-367.9-35.8
		c-33.2-12.8-76.7-28.1-115-10.2c-12.8,7.7-25.6,20.4-20.4,35.8c2.6,5.1,15.3,10.2,15.3,12.8c92,33.2,230,5.1,268.3,99.7
		c20.4,56.2-63.9,79.2-109.9,109.9c-5.1,5.1-17.9,7.7-28.1,10.2c-10.2,5.1-20.4,10.2-30.7,15.3c-15.3,7.7-35.8,12.8-51.1,20.4
		c-35.8,17.9-69,30.7-102.2,51.1c-74.2,47.9-144,84.5-217.6,118.4c41.8,58,55.8,78.8,70.7,96.7c96.7,116.5,296,136.8,690.9,172.7
		c321.6,29.2,482.4,43.9,604.5,0c34.2-12.3,385.7-143.8,463.6-427.2c24.9-90.7,1.1-121.5,40.9-231.8
		c64.2-177.7,160.4-192.5,195.4-309.1C3447.9,2535.7,3354.5,2475,3236.6,2182.4z"/>
	<g>
		<path class="st8" d="M1779.7,3038.7l6.4,23.1c-1.4,9.7-10.9,20.1-19.6,24.6l-117.3,68.8c-4,2.1-8.5,3-13,2.8l-14.3-0.7l17.8-26.4
			L1779.7,3038.7z"/>
		<path class="st1" d="M1345.8,3069.4l276.1,87.8c8.5,2.7,17.3-3.5,17.5-12.5l0.3-13.9l-310.8-108.2l3.8,31.1
			C1333.6,3061,1338.7,3067.2,1345.8,3069.4z"/>
		<path class="st2" d="M1436.4,2972.2l338.2,63.4c7.8,1.5,9.6,11.8,2.7,15.8l-134.3,77.5c-2.1,1.2-4.6,1.5-6.8,0.7l-301.3-95.3
			c-7.4-2.3-8.1-12.6-1-15.9l97.4-45.6C1432.8,2972.1,1434.6,2971.9,1436.4,2972.2z"/>
		<polygon class="st2" points="1349.1,3025.5 1435.4,2985.1 1761,3046.1 1638.2,3116.9 		"/>
	</g>
	<g>
		<polygon class="st2" points="1062.5,2971.7 1426.1,3197.5 765.6,3308.1 751.9,3027.8 		"/>
		<polygon class="st5" points="839.7,3179.7 851.6,3235.3 1286.9,3172.4 1178.5,3116.9 		"/>
		<polygon class="st1" points="833.4,3130.1 1143.9,3083.2 1112.4,3063.7 828.8,3112.3 		"/>
		<polygon class="st2" points="1418.5,3256.6 771.6,3367.2 765.6,3308.1 1426.1,3197.5 		"/>
	</g>
	<g>
		<g>
			<polygon class="st1" points="1525.4,2825.5 2021.5,2846 2021.5,2875.5 1525.4,2850.5 			"/>
			<polygon class="st2" points="1947.3,2558.1 1525.4,2825.5 2021.5,2846 2407.9,2558.1 			"/>
			<polygon class="st5" points="1966.6,2596.5 1666,2791.5 1977.1,2804.7 2284.1,2590.5 			"/>
			<g>
				<line class="st9" x1="1992.8" y1="2606.8" x2="1725" y2="2785.3"/>
				<line class="st9" x1="2043.6" y1="2608.3" x2="1775.9" y2="2786.8"/>
				<line class="st9" x1="2094.5" y1="2609.9" x2="1826.7" y2="2788.3"/>
				<line class="st9" x1="2145.3" y1="2611.4" x2="1877.6" y2="2789.8"/>
				<line class="st9" x1="2196.2" y1="2612.9" x2="1928.4" y2="2791.3"/>
				<path class="st9" d="M1760.6,2744.9c3-0.6,265.2,12.9,265.2,12.9"/>
				<path class="st9" d="M1797,2724c3-0.6,265.2,12.9,265.2,12.9"/>
				<path class="st9" d="M1833.5,2703.1c3-0.6,265.2,12.9,265.2,12.9"/>
				<path class="st9" d="M1869.9,2682.2c3-0.6,265.2,12.9,265.2,12.9"/>
				<path class="st9" d="M1906.3,2661.3c3-0.6,265.2,12.9,265.2,12.9"/>
				<path class="st9" d="M1933.6,2640.5c3-0.6,265.2,12.9,265.2,12.9"/>
				<path class="st9" d="M1965.5,2619.1c3-0.6,265.2,12.9,265.2,12.9"/>
				<path class="st9" d="M1727.6,2766.4c3-0.6,265.2,12.9,265.2,12.9"/>
			</g>
			<polygon class="st2" points="2100.3,2396 2021.5,2846 2416.9,2558.1 2480.6,2118.8 			"/>
			<path class="st5" d="M2261,2472.8l17.7-50.7c2.5-7.2,11.7-9.2,16.9-3.7l22.9,23.9c4.4,4.6,3.6,12-1.7,15.5l-40.6,26.8
				C2268.1,2490,2257.8,2482,2261,2472.8z"/>
			<polygon class="st2" points="2021.5,2875.5 2397.2,2602.6 2397.2,2572.5 2021.5,2846 			"/>
			<polygon class="st1" points="2100.3,2396 2076.1,2396 1998.8,2818.7 2021.5,2846 			"/>
			<polygon class="st2" points="2480.6,2118.8 2453.3,2118.8 2076.1,2396 2100.3,2396 			"/>
		</g>
	</g>
	<path class="st2" d="M2616.2,2276.3l11.1,192.4c0,5.6,19.8,10.2,46,11.2c34.9-64,35.6-134.2,38.7-203.6H2616.2z"/>
	<path class="st2" d="M2712,2276.3c-3,69.4-3.8,139.6-38.7,203.6c3.5,0.1,7,0.2,10.7,0.2c31.3,0,56.7-5.1,56.7-11.4l11.1-192.4H2712
		z"/>
	<path class="st1" d="M2751.8,2276.3c0,7.5-30.4,13.6-67.8,13.6s-67.8-6.1-67.8-13.6c0-7.5,30.4-13.6,67.8-13.6
		S2751.8,2268.8,2751.8,2276.3z"/>
	<path class="st1" d="M1305.4,2595.5c-10.2-15.3-25.6-28.1-25.6-43.4c-17.3-106.2-16.3-234.4-95-308.3
		c-33.5,193.2-59.8,390.4,36,438.6c78.5,39.5,160.3,67.6,238.4,71.9C1396.4,2716.5,1343.4,2659.8,1305.4,2595.5z"/>
	<path class="st10" d="M1773.4,2463.6c-2-9.5-4.1-19.3-6.1-29.1c-0.1,0-0.1,0-0.2,0c-3.7-18.4-7.4-37.2-10.8-56.4
		c-19.5-109.2-33-229.1-25.8-332.3c6.4-91.4-2.7-143.7-37.7-171.4c0,0,0,0,0,0c-15.3-12.1-35.5-19.5-61.4-23.5
		c-85.6-13.1-178-38.9-178-38.9s-203-17.4-232.6,214.4c-1.1,8.3-2.2,16.8-3.5,25.4c0,0-0.1,0-0.1,0c-8.5,59.3-20.9,125.4-32.5,192
		c78.7,73.9,77.7,202.1,95,308.3c0,15.3,15.3,28.1,25.6,43.4c38,64.3,91,121,153.8,158.8c55,3.1,108.2-5.6,157-30.3
		C1734.4,2664.2,1801.1,2592.6,1773.4,2463.6z M1571,2493.3c-0.1-0.6-0.2-1.2-0.2-1.7c0,0.5,0.1,1.1,0.3,1.7
		C1571.1,2493.3,1571,2493.3,1571,2493.3z"/>
	<path class="st10" d="M1732.2,1980.2c0.7,19,0.1,40.6-1.6,64.9c-7.2,103.2,6.3,223.1,25.8,332.3c30.6,31.2,64.8,46.1,64.8,46.1
		c0.5-0.3,1.1-0.8,1.9-1.3c-95.7-114.5-62.1-277.1-85.9-422C1736,1993.4,1734.3,1986.7,1732.2,1980.2z"/>
	<path class="st10" d="M2089.4,2205.8c-30.6,2.1-110.3,67.6-184.6,66.8c-74.2-0.8-77.3-66.9-114.6-228.5
		c-36.9-159.7-96-170.2-97.4-170.4c25.7,20.4,37.4,53.9,39.3,106.5c2.2,6.6,3.8,13.3,5,20c23.8,144.9-9.9,307.5,85.9,422
		c17.9,6.2,13.6,3.8,43.4,8.6c74.1,3.3,182.4-54.1,214.1-98.4c30.3-3,61.1-39.1,64.1-75C2147.8,2221.6,2120,2203.6,2089.4,2205.8z"
		/>
	<path class="st2" d="M1435.7,1855.2c0,0,46.1,116.2,104.9,160.1c30-6.6,30-6.6,30-6.6s58.9-118,53-139.4
		c-5.9-21.4-26.8-20.7-26.8-20.7L1435.7,1855.2z"/>
	<path class="st2" d="M1596.7,1783.5c46.1,10.4,90.5-10.3,112.7-64.7c29.3-71.7,12.1-204,12.1-204l-154.5-26.3
		c0,0-123.2,65.7-123.2,69.7c0,4-1,155.5,0,158.6c1,3,18.2,11.1,14.1,38.4c-4,27.3-49.5,58.6-49.5,58.6s24.2,72.7,84.8,85.9
		c60.6,13.1,111.1-43.9,111.1-43.9C1596.5,1831.5,1590.4,1807.3,1596.7,1783.5z"/>
	<path class="st1" d="M1544.3,1760.7c0,0,36.2,17.8,52.4,22.8c-2.4,14.2-6.8,28.6-0.6,41.3C1568.5,1814.8,1528.1,1787,1544.3,1760.7
		z"/>
	<path class="st1" d="M1172.5,2751.3c-28.1,0-56.2-10.2-69-33.2c-28.1-46-35.8-99.7-35.8-155.9c9.6-202,46.4-399.4,97.5-594.4
		c-74.7,124.9-106.6,316.9-142.2,502.4c-56.1,292.4,112.1,348.5,181.8,331.8c69.7-16.7,227.3-22.7,335.7-28.8
		c17.8-5.8,29.8-18.1,36.4-32.9C1440.6,2732.1,1306.6,2751.3,1172.5,2751.3z"/>
	<path class="st10" d="M1345.6,1832.7c-80.2,13.5-137.3,63.2-180.3,135.1c-51.1,195-87.9,392.5-97.5,594.4
		c0,56.2,7.7,109.9,35.8,155.9c12.8,23,40.9,33.2,69,33.2c134,0,268.1-19.3,404.4-11c10.6-23.8,7-54.1-9.5-74.6
		c-22.2-22.7-236.8-40.9-345.9-66.7c-37.5-47.8-3.5-209.5,33.4-341.6"/>
	<path class="st2" d="M1400.4,1799.1c0,0-66.2,30.3-58.6,57.1c27.3,36.9,43.9,70.2,79.3,67.2c35.4-3,35.4-3,35.4-3l-2,73.2
		c0,0,77.8,8.6,84.8,24.7c7.1,16.2,19.7,40.4,19.7,40.4s-0.5-45.3-20.2-69.4c-19.7-24.1-76.4-89.7-88.7-119.5
		C1437.7,1840,1409.4,1794.6,1400.4,1799.1z"/>
	<path class="st2" d="M1604.4,1832.7c0,0,11.1,59.8-3,88.1c-14.1,28.3-51.4,88.9-51.4,88.9s5.6,19.2,6.2,23.2
		c16.9-18.2,76-57.6,59.8-94c23.2-13.6,28.3-32.8,31.3-57.6c3-24.7,4-32.3,3.5-33.8C1650.3,1846.1,1619.9,1822.7,1604.4,1832.7z"/>
	<path class="st6" d="M2059.4,2225.8c0,0-79.2,74.8-2,101c63.1,6.6,80.8-55,80.8-69.4C2138.2,2243,2114.9,2186.5,2059.4,2225.8z"/>
	<path class="st2" d="M1990.2,2250.5c-35.3-35.3-40.1-93.5-44.1-146.6h-30.7l13.5,234.2c0,7.7,30.9,13.9,69,13.9s69-6.2,69-13.9
		l4.7-80.7C2045.3,2273.3,2008.3,2270.6,1990.2,2250.5z"/>
	<path class="st2" d="M1946.1,2103.9c3.9,53.1,8.8,111.3,44.1,146.6c18.1,20.1,55.2,22.8,81.4,6.9l8.9-153.5H1946.1z"/>
	<ellipse class="st1" cx="1997.9" cy="2103.9" rx="82.5" ry="16.6"/>
	<path class="st2" d="M2048.9,2288.9c45.6,14,65.9-22.6,70.1-64.2c-4.7-5.3-11.8-9.1-21.7-10.4c0,0-21.8-44.9-55.9-45.9
		c-34-1-78.5,5-85,37.3c-1.7,8.4-0.2,19.8,3.7,32.2C1981.3,2263.7,2018.6,2279.3,2048.9,2288.9z"/>
	<path class="st1" d="M2119,2224.6c-4.1,41.7-24.4,78.3-70.1,64.2c-30.3-9.6-67.6-25.1-88.9-51c11.2,35.4,42.7,78.6,78.6,80.9
		c48.5,3.1,40.4-8,61.6-17.1C2119,2292.7,2138.3,2246.1,2119,2224.6z"/>
	<path class="st6" d="M1542.8,2668.2c0,0-50.5,53.5-12.6,97.5c17.1,5,44.4-16.9,44.9-52C1575.6,2678.6,1566.5,2659.6,1542.8,2668.2z
		"/>
	<path class="st2" d="M1923,2745.5c-12.1-9.6-121.7-101.5-154.5-101.5c-32.8,0-218.7,38.4-218.7,38.4s-36.8,18.6-19.8,62.8
		c1.6,4.1,3.6,8.4,6.1,12.9c62.6,16.7,132.3,16.7,167.7,6.6c41.4,17.7,183.3,29.8,205,11.6c12.3-10.3,19.1-15.7,20.5-20.3
		C1930.4,2752.6,1928.3,2749.6,1923,2745.5z"/>
	<path class="st2" d="M1554.6,2026.4c0,0,70.9,252,12.9,536.8c-20.7,73.7-20.7,73.7-20.7,73.7l-21.5,7.1c0,0,36.6-117.2,42.1-200
		s13.2-240.3-19.8-417.6C1556.2,2033,1554.6,2026.4,1554.6,2026.4z"/>
	<ellipse class="st1" cx="1539.7" cy="2171.8" rx="10.2" ry="12.1"/>
	<path class="st1" d="M1545.8,2045.1c0,6.7-4.6,12.1-10.2,12.1c-5.6,0-10.2-5.4-10.2-12.1c0-6.7,4.6-12.1,10.2-12.1
		C1541.2,2033,1545.8,2038.4,1545.8,2045.1z"/>
	<path class="st1" d="M1557.8,2334.8c0,6.1-5,11.1-11.1,11.1c-6.1,0-11.1-5-11.1-11.1s5-11.1,11.1-11.1
		C1552.9,2323.7,1557.8,2328.7,1557.8,2334.8z"/>
	<path class="st1" d="M1549.2,2493.2c0,5.3-3.6,9.7-8.1,9.7c-4.5,0-8.1-4.3-8.1-9.7s3.6-9.7,8.1-9.7
		C1545.6,2483.5,1549.2,2487.8,1549.2,2493.2z"/>
	<path class="st1" d="M1491.8,1650.6c0,0-52.5-17.7-31.3-69.7c21.2-52,53.5,3.5,53.5,3.5v7.6l13.1-3c0,0-9.6-56.6,20.2-61.1
		c29.8-4.5,31.8-32.8,41.9-24.7c10.1,8.1,12.1,18.7,34.3,16.2c22.2-2.5,33.3-15.7,42.4-4s18.7,27.8,36.4,23.2
		c17.7-4.5,11.1,1.5,23.2,13.1c12.1,11.6,44.4,34.3,49.5,20.7c5.1-13.6-2-11.1-13.6-23.2c-11.6-12.1-18.7-29.3,4.5-25.8
		c23.2,3.5,32.8,6.6,23.2,14.6c-9.6,8.1-20.2,7.6,9.6,20.2c29.8,12.6,29.3,21.7,38.9,12.6c9.6-9.1,29.8-19.7,16.7-30.3
		c-13.1-10.6-22.2-4.5-21.7-14.1c0.5-9.6,7.6-3.5,13.1-17.7c5.6-14.1,0-38.9-10.1-42.9c-10.1-4-14.6-11.1-13.1-21.7
		c1.5-10.6,2.5-15.2-20.2-15.7c-22.7-0.5-29.3-5.6-17.2-13.6c12.1-8.1,41.9-32.3,10.1-38.4c-31.8-6.1-63.6,0-63.6-12.6
		s-25.8-33.8-55.6-19.2c-29.8,14.6-22,25.8-19.1,33.3c2.9,7.6-21.9,20.7-25.7,20.7c-3.8,0,6.3-32.3-8.8-37.9
		c-15.2-5.6-44.9-14.6-56.1-7.6c-11.1,7.1-19.7-2.9-17.7-13.5c2-10.7-49-22.1-70.7,0c-21.7,22.1-27.8,33.2-14.1,52.4
		c13.6,19.2-2.5,44.4-16.7,34.8c-14.1-9.6-26.3,1-52.5,7.1c-26.3,6.1-56.6,7.6-66.7,39.9c-10.1,32.3-18.7,47,0,60.1
		c18.7,13.1,44.9,11.6,42.4,31.8c-2.5,20.2-3,12.1,0,25.3c3,13.1,26.3,3.5,1,25.8c-25.3,22.2-44.4,20.2-35.4,55
		c9.1,34.8,24.2,66.7,65.7,68.2c41.4,1.5,45.5,7.6,56.6,6.1c11.1-1.5,19.7,3,23.7-9.1c4-12.1,8.6-17.2,5.6-24.2
		c-3-7.1-18.2-23.2-10.1-37.9C1485.7,1660.2,1491.8,1650.6,1491.8,1650.6z"/>
	<path class="st10" d="M2282.1,3396.8c-60.4,25.6-129.8,4.7-163.9-47.4c-36.2-55.3-23.2-131.3,21.9-167.6
		c35.6-28.7,87.1-29.2,123.9-14.6c67.1,26.7,77.7,100.6,116.6,98.4c22.4-1.3,20-32.7,54.6-58.3c39.2-29,106.2-38.5,134.8-10.9
		c35.6,34.3-13.9,101.2,25.5,145.7c26,29.4,73.2,29.2,94.7,29.1c73.6-0.3,104.2-45,127.5-29.1c25.2,17.2-5.7,72.9,18.2,163.9
		c6.6,25.1,15.3,45,21.9,58.3c-10.4,12.5-27,29.4-51,43.7c-77.4,46.2-194.8,42.8-240.4-14.6c-32.6-41-14.2-91.5-36.4-98.4
		c-29.1-9-53.3,80-131.1,105.6c-47.1,15.5-121.2,10.4-153-40.1C2217.2,3515.5,2229.6,3444.7,2282.1,3396.8z"/>
	<path class="st5" d="M2976.4,3452c0,0-90.1-36.4-107.9-123.9c-17.8-87.4,115.2-45.5,67.8-133.9c-47.4-88.3-122,34.2-153-65.3
		c-31-99.5,54.6-116.8,96.5-106.4s63.6-44.2-4.6-66c-68.2-21.9-2.7-139.2,106.6-116c109.3,23.1,128.5,71,84.3,122.7
		c-44.2,51.7,30.5,60.8,56,37.1c25.5-23.7,158.5,77.7,94.7,144.5c-63.8,66.8-111.1-24.3-118.4,43.1c-7.3,67.4,54.6,69.2,54.6,69.2
		s-16.5,56.7-59.2,105.8C3051.1,3411.9,2996.4,3497.6,2976.4,3452z"/>
	<path class="st0" d="M2960.1,2907.6c0,0,124.4,220.2,89.3,482.5c-0.4,2.9-0.8,5.8-1.2,8.8"/>
	<path class="st1" d="M2793,3449c0,0-80-293.4-254-420.2c-5.9-4.3-1-13.7,5.9-11.3c215.1,73.4,350.8,330,312.8,546.9
		C2817.3,3491.5,2793,3449,2793,3449z"/>
	<path class="st5" d="M2701.3,3613.4c-30.2-61.3-156.5-247-558.1-180.7c-17,2.8-18.1,26.8-1.5,31.2
		c275.9,72.9,405,167.4,432.3,189.2c3.7,2.9,8.4,4.1,13,3.2l103.1-20.1C2700.3,3634,2705.9,3622.8,2701.3,3613.4z"/>
	<path class="st1" d="M2932,3501.5c0,0,68.2-217.9,257.6-163.3c136.8,39.5,152.1,143.2,150.1,197.7c-0.5,12.8-16.5,18.4-24.9,8.6
		c-52.7-61.7-195.4-203.1-309.5-79.5c-71.7,80.9-73.3,50.3-73.3,50.3"/>
	<path class="st0" d="M2251,3282.3c0,0,396.1,120.7,525.6,321.9"/>
	<path class="st1" d="M2500,3659.9c0,0-117.5-44-140.2-31.2c107.5-27.3,211.3-38.3,271.4,4.1c-20-56.9-36.1-151.5-80-162.9
		c109.1,40.4,124.6,128.8,124.6,128.8s-25.5-71,50.1-84.7c-10.9,36.4,9.1,94.7,9.1,94.7s73.1-15.4,85.6-51.9
		c-63.8-125.7,0-168.5,0-168.5s-29.1,106.6,32.8,143c14.6-65.6,81.1-89.3,111.1-77.4c-16.4,35.5-12.4,61.6-12.4,61.6
		s-73.6,30.2-116.2,71.3c-42.6,41.1-99.1,70-173.8,59.2C2604.8,3643.3,2627.5,3693.5,2500,3659.9z"/>
	<g>
		<path class="st5" d="M2590.8,1502.4c0,0-199.2,69.8,10.3,258.3c-14.6-101.1-12.1-206.1,26.7-224.3
			C2619.4,1512.1,2590.8,1502.4,2590.8,1502.4z"/>
		<path class="st5" d="M2587,1521.7c0,0-67.4-87-175.3-39.2c-107.9,47.8-116.6,53.3-116.6,53.3s24.6-126.6,164.4-110.2
			c139.8,16.4,151.6,73.8,151.6,73.8S2606.6,1525.3,2587,1521.7z"/>
		<path class="st2" d="M2613.9,1524.4c0,0,73.9-56,94.1,25.5c20.2,81.5,4.7,109.3,4.7,109.3s-18.2-90.2-43.7-102.5
			c-25.5-12.3-53.3-20.9-53.3-20.9L2613.9,1524.4z"/>
		<path class="st5" d="M2621.8,1502.4c-61-55-53.5-141-24.3-236.8c-135.1,67.5-12.3,226-12.3,226L2621.8,1502.4z"/>
		<path class="st2" d="M2658.8,1523.7c0,0,18.8-56.5,85.6-32.2c-29.8-33.4-97.1-32.8-116.6,0.6c16.4-66.8,58.3-82.6,58.3-82.6
			s-78.6,1.1-79,88.6c-11.5,18.9-11.5,18.9-11.5,18.9l18.2,10.3L2658.8,1523.7z"/>
		<path class="st11" d="M2569.4,1546.5c-57.8,11.8-102.3,60.8-124.7,115.4c-22.4,54.6-26.4,114.6-30.1,173.5"/>
		<path class="st11" d="M2576.3,1546.7c42.6,26.6,62.5,78.6,68.5,128.4c6,49.8,0.9,100.5,7.1,150.3"/>
		<path class="st11" d="M2594.1,1520.5c-18.1-26.4-51.6-41.2-83.3-36.9c-31.7,4.3-60,27.7-70.3,58"/>
		<path class="st11" d="M2598.3,1520.1c10.4-46,20.7-92.1,31.1-138.1c4.2-18.6,10.7-40.1,28.6-46.8"/>
		<path class="st11" d="M2641.7,1511c-0.1-11.4,8.2-21.1,16.9-28.5c20.8-17.8,46.6-29.7,73.6-34.1"/>
		<path class="st11" d="M2615.8,1517.2c36.8-8.1,76.8-1,108.6,19.5c31.7,20.4,54.8,53.9,62.6,90.8"/>
	</g>
	<g>
		<path class="st5" d="M2972,1480.7c0,0,151.2,64.7-7.8,239.5c11.1-93.7,9.2-191.1-20.3-207.9
			C2950.4,1489.7,2972,1480.7,2972,1480.7z"/>
		<path class="st5" d="M2953.9,1482c0,0-154.5,56.3-158.2-179.9c56.1,75.9,124.1,145.6,157.1,137.7
			C2963.6,1460.6,2953.9,1482,2953.9,1482z"/>
		<path class="st5" d="M2974.9,1498.6c0,4.2,51.3-39.3,133.1-36.3c93.1,3.4,88.5,49.4,88.5,49.4s-18.7-117.3-124.8-102.1
			c-106.1,15.2-115.1,68.4-115.1,68.4S2960,1502,2974.9,1498.6z"/>
		<path class="st2" d="M2954.5,1501.1c0,0-56.1-51.9-71.4,23.6c-15.3,75.6-3.6,101.3-3.6,101.3s13.8-83.6,33.2-95
			c19.4-11.4,40.4-19.4,40.4-19.4L2954.5,1501.1z"/>
		<path class="st2" d="M2948.5,1480.7c18.9-36.5,12.6-115.9,18.4-219.5c102.5,62.6,9.3,209.5,9.3,209.5L2948.5,1480.7z"/>
		<path class="st2" d="M2920.4,1500.4c0,0-14.3-52.3-65-29.8c22.6-31,73.7-30.4,88.5,0.6c-12.4-61.9-44.2-76.5-44.2-76.5
			s59.7,1,60,82.1c8.7,17.5,8.7,17.5,8.7,17.5l-13.8,9.6L2920.4,1500.4z"/>
		<path class="st11" d="M2969.6,1497.5c13.7-24.5,39.2-38.2,63.2-34.2c24,4,45.5,25.7,53.3,53.7"/>
		<path class="st11" d="M2966.3,1497.1c-7.9-42.7-15.7-85.3-23.6-128c-3.2-17.3-8.2-37.2-21.7-43.4"/>
		<path class="st11" d="M2933.4,1488.7c0.1-10.6-6.2-19.5-12.8-26.4c-15.8-16.5-35.4-27.5-55.9-31.6"/>
		<path class="st9" d="M2953.1,1494.4c-28-7.6-58.3-0.9-82.4,18c-24.1,18.9-41.6,50-47.5,84.2"/>
	</g>
</g>
</svg>
