<?xml version="1.0" encoding="utf-8"?>
<!-- Generator: Adobe Illustrator 22.0.0, SVG Export Plug-In . SVG Version: 6.00 Build 0)  -->
<svg version="1.1" id="Layer_1" xmlns="http://www.w3.org/2000/svg" xmlns:xlink="http://www.w3.org/1999/xlink" x="0px" y="0px"
	 viewBox="0 0 4000 4000" style="enable-background:new 0 0 4000 4000;" xml:space="preserve">
<style type="text/css">
	.st0{fill:none;stroke:#1A1A1A;stroke-width:3;stroke-linecap:round;stroke-linejoin:round;stroke-miterlimit:10;}
	.st1{fill:#1A1A1A;stroke:#1A1A1A;stroke-width:2;stroke-linecap:round;stroke-linejoin:round;stroke-miterlimit:10;}
	.st2{fill:#FFFFFF;stroke:#1A1A1A;stroke-width:2;stroke-linecap:round;stroke-linejoin:round;stroke-miterlimit:10;}
	.st3{fill:#5067EF;stroke:#1A1A1A;stroke-width:2;stroke-linecap:round;stroke-linejoin:round;stroke-miterlimit:10;}
	.st4{fill:none;stroke:#1A1A1A;stroke-width:2;stroke-linecap:round;stroke-linejoin:round;stroke-miterlimit:10;}
</style>
<g>
	<path class="st0" d="M334.7,1104.6c-12.6,173.2,53.7,249.3,80.2,386.7c57,295.6-159.1,415.2-196.9,744.2
		c-16.9,147.1-1.2,362.8,160.5,642c99,439.1,278.3,618.9,430.3,700.4c195.5,104.7,340.4,43.8,802.3,116.7
		c380.5,60.1,413.6,122.2,612.7,145.9c472.2,56.4,1176.4-186.6,1473.4-795.2C4041,2340.7,3600,1636,3544,1549.6
		c-197-303.6-453.3-471.5-605.4-554.5c-144.6-389.9-375.1-570.9-481.4-642c-754.7-505.1-1843.5,111-2035,466.9
		C344.9,963.7,334.7,1104.6,334.7,1104.6z"/>
	<ellipse class="st1" cx="3615.6" cy="3406.5" rx="77.9" ry="77.9"/>
	<path class="st2" d="M320.5,2946.7c-54.1-216.9,4.9-445.4,81.2-655.5c76.3-210.1,171.1-417.9,191.3-640.5
		c30.1-332.3-107.7-681.7,12-993.2c90.5-235.5,320.6-400.5,567.3-453.2c246.7-52.7,506.5-4.6,739.7,91.6
		c130.4,53.8,255.3,122.6,391.1,160.8c143.4,40.4,294.6,45.4,439.3,81c144.7,35.6,291.1,111.1,356.8,244.8
		c80.6,164.2,17.6,362,51,541.9c33.8,182.5,162.5,329.9,260.3,487.6c280.9,452.9,309.7,1051.7,73.5,1529.4
		c-69.1,139.8-165,274.5-304.4,344.3c-147.3,73.7-321.9,64.9-484.3,36.9c-162.3-27.9-323.8-73.4-488.4-67.3
		c-206.6,7.7-401,95.7-603.6,136.5c-202.7,40.8-442.7,20.4-572.1-140.9c-62.5-77.9-92-179.8-162.8-251.5
		c-52-52.7-110.2-55.5-179.2-72.2C505.7,3282.9,365.8,3128,320.5,2946.7z"/>
	<path class="st1" d="M1197.2,3103H615.5c0,0-25.9,15.8-47.7,47.1h630.3C1197.8,3123.1,1197.2,3103,1197.2,3103z"/>
	<path class="st2" d="M567.8,3150.1c-18.2,26.1-33.5,63.1-28.7,111c0,0,39.9,41.3,153.9,68.7c114,27.4,198.3,95.8,198.3,95.8
		s303.1-116.7,305.8-172.4c1.5-30,1.4-71.3,0.9-103.1H567.8z"/>
	<path class="st2" d="M1626.6,207.8v1122.9H584.5c-22.9-230.4-61.2-460.7,20.5-673.4c90.5-235.5,320.6-400.5,567.3-453.2
		C1321.8,172.3,1476.2,177.4,1626.6,207.8z"/>
	<path class="st2" d="M1626.6,207.8v1122.9H584.5c-2.2-21.9-4.5-43.8-6.9-65.7c-0.9-8.2-1.7-16.4-2.6-24.6
		c-1.9-17.3-3.7-34.7-5.5-52c-0.8-8.2-1.7-16.4-2.5-24.6c-1.7-17.4-3.3-34.7-4.7-52c-0.7-8.2-1.3-16.4-1.9-24.6
		c-1.3-17.4-2.4-34.7-3.2-52c-0.4-8.2-0.7-16.4-1-24.6c-0.6-17.4-0.9-34.7-0.9-52c0-8.2,0.1-16.4,0.3-24.6c0.4-17.4,1.1-34.7,2.3-52
		c0.6-8.2,1.3-16.4,2-24.6c1.6-17.4,3.7-34.7,6.4-52c1.3-8.2,2.7-16.4,4.2-24.6c3.2-17.4,7.1-34.7,11.6-52
		c2.1-8.2,4.5-16.4,6.9-24.6c4.8-15.7,10.1-31.3,16-46.8c0.7-1.7,1.3-3.4,2-5.1c3.2-8.3,6.7-16.5,10.3-24.6
		c7.9-17.8,16.6-35.1,26.1-52c4.7-8.3,9.5-16.5,14.5-24.6c11.1-17.9,23-35.2,35.8-52c6.3-8.4,12.8-16.6,19.6-24.6
		c15-18.1,31-35.4,47.8-52c8.5-8.4,17.3-16.6,26.2-24.6c20.5-18.4,42.1-35.8,64.6-52c11.8-8.5,23.9-16.8,36.1-24.6
		c29.9-19.2,61.1-36.6,93.3-52c18.6-8.9,37.6-17.1,56.8-24.6c43.6-17.1,88.6-30.7,134.1-40.4
		C1321.8,172.3,1476.2,177.4,1626.6,207.8z"/>
	<path class="st2" d="M3639.1,2757.1H2036.9v-441.4H2852c0,0,63.8-67.5,176-69.3c112.1-1.8,181.4,52,181.4,52l42.8,3.6
		c0,0,52.9-47.4,116.7-55.6c48.4-6.2,155.5-9.3,226.7,9.4c4.9,19.9,9.4,39.8,13.5,59.9C3639.1,2460.5,3649.1,2609.5,3639.1,2757.1z"
		/>
	<g>
		<path class="st2" d="M1535.7,1845.4c0,0,398.8-20.8,416.7-20.9c67.1-0.6,63.5,124,63.5,124l-7.3,383l-333.1,15.8L1535.7,1845.4z"
			/>
		<path class="st2" d="M1539.4,2358.2c0,0-114.3-447.5-55.9-488.8c58.4-41.3,141-27.2,162.9,25.9c21.9,53.1,48.6,441,48.6,441
			L1539.4,2358.2z"/>
		<path class="st2" d="M1478,2437.9c0,0,3.6-109.4,113.1-114.9c109.4-5.5,443.1-7.3,443.1-7.3s105.7,16.4,113.9,49.2
			c8.2,32.8,17.3,366.6,17.3,366.6l-565.3,204.3l-78.4-162.3L1478,2437.9z"/>
		<path class="st2" d="M3609.2,2315.7H2036.9v32.8h1578.7C3613.6,2337.6,3611.5,2326.6,3609.2,2315.7z"/>
		<path class="st2" d="M2036.9,2348.5v408.5h1602.2c9.3-136.4,1.3-274.1-23.5-408.5H2036.9z"/>
		<path class="st2" d="M3365.3,1741.2c0,0-167.1-4.3-248,12.7c-80.8,17-84.5,67.5-84.5,67.5s-6.1-16.4-32.2-43.8
			c-41-38.3-273.5-19.2-273.5-19.2l-738.9,124.3V2316l1621.5,0C3596.9,2144.2,3536.1,1973.5,3365.3,1741.2z"/>
		<path class="st2" d="M3609.2,2315.7H2852c0,0,63.8-67.5,176-69.3c112.1-1.8,181.4,52,181.4,52l42.8,3.6c0,0,52.9-47.4,116.7-55.6
			c48.4-6.2,155.5-9.3,226.7,9.4C3600.6,2275.7,3605.1,2295.7,3609.2,2315.7z"/>
	</g>
	<path class="st3" d="M2191.2,1583.6c78.6-21.6,292.5-53.1,350.8,3.4c58.4,56.5,155.9,411.3,86.6,542.6
		c-21.9,54.7-21.9,54.7-21.9,54.7s-377.2,49.6-450.4,18.3c0,0-45.6-263-30.1-372.3"/>
	<path class="st4" d="M2252.7,1582.8c0,0,6.6,114.5,113.3,121.8c-6.3,44.7-12.7,298.5,7.3,390.9"/>
	<path class="st1" d="M2945.9,2315.7c-3.6-105.8-262.6-180.6-262.6-180.6l-392.1,23.7c0,0-268.1,34.7-364.7,111.3
		c-96.6,76.6,43.8,487,43.8,487l295.4-21.9c0,0-105.8-209.7-103.1-260.8c2.7-51.1,205.2-96.7,205.2-96.7
		c51.1,25.5,188.3,3.6,188.3,3.6s67,49.2,127.1,61.1c-62,62.9-127.1,314.6-127.1,314.6l285.8-14.6l23.7-58.4
		C2865.7,2684.1,2949.6,2421.5,2945.9,2315.7z"/>
	<path class="st2" d="M3640.6,2731.5c-0.6,12.3-1.4,24.6-2.4,36.9c-14.9,198.6-66.1,394.2-154.5,573
		c-69.1,139.8-165,274.5-304.4,344.3c-147.3,73.7-321.9,64.9-484.3,36.9c-162.3-27.9-323.8-73.4-488.4-67.3
		c-206.6,7.6-401,95.7-603.7,136.5c-202.7,40.8-442.7,20.4-572.1-140.9c-47.6-59.4-76.1-132.7-118.3-196
		c-6.7-10.1-13.8-19.9-21.3-29.4l973.3-694H3640.6z"/>
	<g>
		<path class="st2" d="M1642.1,244.6v24.6H981.3c18.6-8.9,37.6-17.1,56.8-24.6H1642.1z"/>
		<path class="st2" d="M1642.1,321.2v24.6H851.9c11.8-8.5,23.9-16.8,36.1-24.6H1642.1z"/>
		<path class="st2" d="M1642.1,397.9v24.6h-881c8.5-8.4,17.3-16.6,26.2-24.6H1642.1z"/>
		<path class="st2" d="M1642.1,474.5v24.6H693.7c6.3-8.4,12.8-16.6,19.6-24.6H1642.1z"/>
		<path class="st2" d="M1642.1,551.1v24.6H643.4c4.7-8.3,9.5-16.5,14.5-24.6H1642.1z"/>
		<path class="st2" d="M1642.1,627.7v24.6H607c3.2-8.3,6.7-16.5,10.3-24.6H1642.1z"/>
		<path class="st2" d="M1642.1,704.3v24.6H582c2.1-8.2,4.5-16.4,6.9-24.6H1642.1z"/>
		<path class="st2" d="M1642.1,780.9v24.6H566.2c1.3-8.2,2.7-16.4,4.2-24.6H1642.1z"/>
		<path class="st2" d="M1642.1,857.5v24.6H557.7c0.6-8.2,1.3-16.4,2-24.6H1642.1z"/>
		<path class="st2" d="M1642.1,934.1v24.6H555.2c0-8.2,0.1-16.4,0.3-24.6H1642.1z"/>
		<path class="st2" d="M1642.1,1010.7v24.6h-1085c-0.4-8.2-0.7-16.4-1-24.6H1642.1z"/>
		<path class="st2" d="M1642.1,1087.3v24.6H562.3c-0.7-8.2-1.3-16.4-1.9-24.6H1642.1z"/>
		<path class="st2" d="M1642.1,1163.9v24.6H569.5c-0.8-8.2-1.7-16.4-2.5-24.6H1642.1z"/>
		<path class="st2" d="M1642.1,1240.5v24.6H577.6c-0.9-8.2-1.7-16.4-2.6-24.6H1642.1z"/>
	</g>
	<line class="st2" x1="1801.7" y1="151.6" x2="1801.7" y2="1330.8"/>
	<path class="st1" d="M1790.9,1324.1l-48.8,127c8.2,21.3,104.3,23.8,119.2,0l-48.8-127H1790.9z"/>
	<path class="st2" d="M2381.9,1543.6c0,0-26.7,45-93.6,20.7c-82.4-30-25.5-233.5-25.5-233.5s69.3-58.4,145.9-17
		c76.6,41.3,38.9,97.3,38.9,97.3s15.8-6.1,29.2,1.2c13.4,7.3,18.2,29.2-1.2,52.3c-19.5,12.2-24.3,3.5-24.3,3.5s-3.6,80.4,26.7,86.5
		C2447.5,1653,2366,1670,2366,1670s-70.5-36.5-70.5-80.3l3.8-22"/>
	<path class="st3" d="M2228.2,1574.9c0,0-151.5,28.2-172.1,95.1c-20.7,66.9-172.6,464.5-71.7,524.1
		c100.9,59.6,253-198.4,269.4-252.8c0.7-1.6,5.1-12.2,10.2-19.2c8.6-52.9-29.8-77.7-64.6-56.1c-0.2,0.2-0.4,0.3-0.6,0.5
		c-14.7,12.6-44,38.6-72.5,68.8"/>
	<path class="st1" d="M2200.7,1871c0,0,2.6,50.8,39.1,64.4c16.4-3.2,22.8-23.3,22.8-23.3s-23.9-45-33.9-48.7
		c-10-3.6-28.3-1.2-28,5.9"/>
	<path class="st3" d="M2465.4,1546c0,0,190.6,74.7,227.1,112.1c36.5,37.4,74.8,114,78.4,235.3c3.6,121.3,3.6,246.2-63.8,280.9
		c-67.5,34.7-313.6,69.3-351.9,54.7c-27.4-39.2-14.6-93,20.1-107.6c34.6-14.6,191.1-56.8,263.2-52.3
		c4.9-126.8-17.9-195.8-17.9-195.8"/>
	<path class="st1" d="M2373.3,2131.5c0,0,19.5,4.9,23.7,36.5c4.3,31.6-5.5,56.8-23.7,59c-18.2,2.1-27.4-15.2-24.9-41.9
		C2350.9,2158.2,2352.1,2134.5,2373.3,2131.5z"/>
	<path class="st2" d="M2367.9,2155.2c0,0-33.1,3-54.8-21.3c-21.7-24.3-114.7,6.9-141.5,21.4c-14.6,9-16.4,25.4,17,39.4
		c33.4,14,51.1,9.8,74.2,8c16.4,11.4,32.1,30.3,110.6,14.5C2380.6,2178.3,2367.9,2155.2,2367.9,2155.2z"/>
	<g>
		<ellipse class="st2" cx="1880.1" cy="3103" rx="221.6" ry="59"/>
		<path class="st2" d="M2015,2919.4l-134.9-3.6l-134.9,3.6c0,0-18.2,197.6,134.9,183.6C2033.3,3117,2015,2919.4,2015,2919.4z"/>
		<ellipse class="st2" cx="1879.9" cy="2921" rx="135.4" ry="24.3"/>
		<path class="st1" d="M1879.9,2935.5c-65.2,0-102.1-9-109.8-14.5c7.7-5.5,44.6-14.5,109.8-14.5c65.2,0,102.1,9,109.8,14.5
			C1982,2926.5,1945.1,2935.5,1879.9,2935.5z"/>
		<path class="st2" d="M1995,2945.4c0,0,103.1-28.7,105.8,30.1c2.7,58.8-121.3,73.4-121.3,73.4l4.1-17.8c0,0,87.5-18.2,92.1-45.6
			c4.6-27.4-15.5-27.8-27.8-27.8c-12.3,0-47.9,9.6-47.9,9.6L1995,2945.4z"/>
	</g>
	<g>
		<ellipse class="st2" cx="2828.5" cy="2830.8" rx="221.6" ry="59"/>
		<path class="st2" d="M2978,2647.2l-134.9-3.6l-134.9,3.6c0,0-18.2,197.6,134.9,183.6C2996.2,2844.7,2978,2647.2,2978,2647.2z"/>
		<ellipse class="st2" cx="2842.9" cy="2648.8" rx="135.4" ry="24.3"/>
		<path class="st1" d="M2842.9,2663.3c-65.8,0-103-9-110.8-14.6c7.8-5.5,45-14.6,110.8-14.6c65.8,0,103,9,110.8,14.6
			C2945.9,2654.3,2908.6,2663.3,2842.9,2663.3z"/>
		<path class="st2" d="M2958,2673.1c0,0,103.1-28.7,105.8,30.1c2.7,58.8-121.3,73.4-121.3,73.4l4.1-17.8c0,0,87.5-18.2,92.1-45.6
			c4.6-27.4-15.5-27.8-27.8-27.8c-12.3,0-47.9,9.6-47.9,9.6L2958,2673.1z"/>
	</g>
	<polygon class="st1" points="2467.2,2986.9 2467.2,3015.1 2260.3,3038 2130.3,2975.6 2130.9,2947.6 2260.3,3009.7 	"/>
	<polygon class="st2" points="2467.2,2986.9 2260.3,3009.7 2130.9,2947.6 2130.3,2947.3 2321.4,2931.2 	"/>
	<polygon class="st2" points="2323.7,2931.2 2391.1,2861.9 2546.6,2921.7 2467.2,2986.9 	"/>
	<polygon class="st1" points="2557.1,2942.2 2546.6,2921.7 2467.2,2986.9 2467.2,3015.1 	"/>
	<polygon class="st2" points="3221.3,2776.6 3161.1,3009.7 3520.3,3025.2 3474.7,2771.8 	"/>
	<polygon class="st2" points="1643.9,3253.2 2100.8,3333.4 1924.8,3545 1428,3406.5 	"/>
	<path class="st1" d="M2270,1350.2c0,0-26.1,3-35.9-27.4s-6.7-50.5,3-57.1c9.7-6.7,43.8-20.7,64.4,0c11.5-29.2,20.7-29.8,29.2-28
		c12.8-31.6,42.5-21.9,42.5-21.9s24.3-8.5,57.1,0c32.8,8.5,37.7,43.8,37.7,43.8s24.3-8,35.9,21.6c11.5,29.5-1.8,31.9,0,36.2
		c1.8,4.3,37.7-8.5,41.3,17.6c3.6,26.1-3,30.4-3,30.4s17.4,6.7,4.1,41.3c-13.2,34.7-24.8,19.5-21.1,35.9
		c3.6,16.4,12.8,49.9-5.5,54.1c-18.2,4.3-61.4,2.2-71.1-12.3c-9.7-14.5,0-20,0-20s36.8,2.1,31.3-31c-5.5-33.1-38.6-15.5-38.6-15.5
		s17.3-37.4,7.6-54.1c-14.3,1.8-32.5,12.5-45.9-2.7c-13.4-15.2-36.5-31-62.6-20.7c-26.1,10.3-37.7-32.2-37.7-32.2
		S2292.5,1349.6,2270,1350.2z"/>
	<path class="st3" d="M697.5,2634.9c0,0-180.5,415.9,220.6,414c220.6-16.4,258.9-33.8,258.9-33.8s63.2,14.5,32.8,88.6
		c-30.4,74.1-56,134.5-56,134.5l459.3-327.5c0,0,74.4-150,30.7-275.9c-43.8-125.8-213.3-162.3-324.6-136.8
		c-111.2,25.5-171.4,74.8-171.4,74.8L697.5,2634.9z"/>
	<path class="st2" d="M1239.1,1834.5c18.2,18.6,65.3,26.1,117.6-10.1c52.3-36.1,50.2-181.8,50.2-181.8s-162.9-44.4-210.3,35.9
		c-47.4,80.3-102.6,255-102.6,255l125.7,53.8c0,0,34.1-118.7,43.8-137.5"/>
	<path class="st2" d="M890.8,2023.9c0,0-45.6,60.2-54.7,167.8c-9.1,107.6,0,142.3-67.5,238.9S622,2594.1,648.3,2648.8
		c26.3,54.6,71.1,9.7,133.1,24.3c62,14.7,122.2,60.3,175.1,84c52.9,23.7,238,45.6,254.4-88.5c16.4-134.1,0.9-164.2-16.4-207.9
		c-17.3-43.8,18.2-113.4,18.2-113.4s103.9-267.8,48.3-349.9c-55.6-82.1-122.2-105.8-176-89.4
		C1031.2,1924.5,928.5,1943.7,890.8,2023.9z"/>
	<path class="st2" d="M1256.4,2017.5c0,0,42.9,15.5,53.8,95.3c10.9,79.8,2.4,215.1,41.9,247.3c39.5,32.2,155.6,18.8,155.6,18.8
		s14.4,1.9,12.2,24.3c-32.8,28.6-127.6,31-181.1,7.9C1285.3,2388,1256.4,2017.5,1256.4,2017.5z"/>
	<path class="st2" d="M1527.7,2404.6c0,0,11.1-27.5,36.6-34.8s46.8,0.6,51.1,10.9c4.3,10.3,10.9,39.5,5.5,59.6
		c-5.5,20.1-29.1,34.7-48.6,34.7c-19.5,0-35.6-8.5-44.6-8.5c-9,0-10.8-54.7-10.8-54.7L1527.7,2404.6z"/>
	<path class="st2" d="M1512,2480.7c0,0,48.6,26.5,69.3,27.7c20.7,1.2,68.3-25.9,69.1-46.4c0.8-20.5-21.7-44.8-36.3-47.8
		c-14.6-3-49.1,15.5-51.7,19.5c0,0-9.7,12.8-4.9,21.3c4.9,8.5,7.3,18.1-1.8,25.8"/>
	<path class="st2" d="M1157.4,2347.3c17.9,113.8,112.3,179.3,175.3,182.4c109.3,5.3,115.2-14.1,148.5-27.8
		c34-14,39.9-24.5,39.9-24.5c29.2-3,31.6-70.5,0-80.3c0,0-115.5,38.9-171.4-7.3c-55.9-46.2-51.7-186.5-59.9-269.6
		c-8.2-83-7.3-94.5-28.9-122.9l-32.5-40.3"/>
	<path class="st2" d="M1179.4,3120H615.1c-29,0-52.4-23.5-52.4-52.4l0,0c0-29,23.5-52.4,52.4-52.4h564.3c29,0,52.4,23.5,52.4,52.4
		l0,0C1231.8,3096.5,1208.4,3120,1179.4,3120z"/>
	<path class="st1" d="M796,2090.1c0,0-81.4,99.8-21.3,132c60.2,32.2,76,20,94.2,65.6c18.2,45.6,77.8,51.7,104.5,28
		c26.7-23.7,42.5-63.2,42.5-63.2s110.8,86.5,136.5-12.1c25.8-98.6-24.6-130.2,0-195.8c24.6-65.7,18.5-166.9,61-216.7
		c26.4-28.7,36.5-75.7,36.5-75.7s-31-23.7-14.6-51.7c16.4-28,44.4-15.8,46.2,3c5.5,14.6,14,3,14,3s14-42,34.6-50.5
		c20.7-8.5,52.9,52.3,83.9,26.1c15.8-4.9,13.7-38.6,13.7-38.6s2.6-52.9-45.6-76.6c-58.9-29-168.7-68.3-245.3,64.1
		c0,0-76.6,159.7-121.6,192.7C970.5,1856.8,792.4,1957.3,796,2090.1z"/>
	<path class="st2" d="M2126.2,1935.4c17.9-61.7,19-105.1,30.1-148.6"/>
	<line class="st2" x1="2065.2" y1="2007.4" x2="2130.3" y2="1931.2"/>
	<g>
		<path class="st2" d="M2413,1787.2c-15.1-23.6-96.6-21.4-135.9,10.5c-35.2,28.7-50,46.6-72.7,66.6c3.2,24.2,9.2,48.6,42.2,56.1
			c8-11.9,18.9-27.7,35.6-28.6c27.7-1.5,48.5-28.5,67-30.7c31.5-3.6,8.4-25.7-15.5-26C2374.3,1815.9,2426.7,1808.6,2413,1787.2z"/>
		<path class="st4" d="M2334.9,1834.5c-14.9,8.7-40.6,23.8-40.6,23.8s-32.1,26.8-40.6,45.6"/>
	</g>
	<path class="st1" d="M3032.8,1821.4c0,0-2.5,58.4,12.7,142.3c4.9-68-9.5-154.1-9.5-154.1L3032.8,1821.4z"/>
	<ellipse class="st2" cx="3642.9" cy="1582.8" rx="194.6" ry="193"/>
	<ellipse class="st2" cx="320.3" cy="1880.3" rx="157.8" ry="156.5"/>
	<g>
		<path class="st2" d="M3121.7,961.1h-286.8c-83.7,0-151.5,67.9-151.5,151.6v1.6c0,79,60.4,143.8,137.5,150.9
			c-4.7,18-10.7,40.1-16.2,60.2c-4.6,16.8,15.3,29.5,28.6,18.1l90.8-77.7h197.8c83.7,0,151.5-67.9,151.5-151.6v-1.6
			C3273.3,1029,3205.4,961.1,3121.7,961.1z"/>
		<ellipse class="st2" cx="2840.6" cy="1104.8" rx="26.5" ry="26.5"/>
		<ellipse class="st2" cx="2988.2" cy="1104.8" rx="26.5" ry="26.5"/>
		<ellipse class="st2" cx="3139.1" cy="1104.8" rx="26.5" ry="26.5"/>
	</g>
</g>
</svg>
