<?xml version="1.0" encoding="utf-8"?>
<!-- Generator: Adobe Illustrator 24.0.0, SVG Export Plug-In . SVG Version: 6.00 Build 0)  -->
<svg version="1.1" id="Vector" xmlns="http://www.w3.org/2000/svg" xmlns:xlink="http://www.w3.org/1999/xlink" x="0px" y="0px"
	 viewBox="0 0 3000 3000" style="enable-background:new 0 0 3000 3000;" xml:space="preserve">
<style type="text/css">
	.st0{fill:none;stroke:#1A1A1A;stroke-width:4.4609;stroke-linecap:round;stroke-linejoin:round;stroke-miterlimit:10;}
	.st1{fill:#FFFFFF;stroke:#1A1A1A;stroke-width:2.9739;stroke-linecap:round;stroke-linejoin:round;stroke-miterlimit:10;}
	.st2{fill:none;stroke:#1A1A1A;stroke-width:2.9739;stroke-linecap:round;stroke-linejoin:round;stroke-miterlimit:10;}
	.st3{fill:#1A1A1A;stroke:#1A1A1A;stroke-width:2.9739;stroke-linecap:round;stroke-linejoin:round;stroke-miterlimit:10;}
	.st4{fill:none;stroke:#FFFFFF;stroke-width:4.4609;stroke-linecap:round;stroke-linejoin:round;stroke-miterlimit:10;}
	.st5{fill:none;stroke:#FFFFFF;stroke-width:2.9739;stroke-linecap:round;stroke-linejoin:round;stroke-miterlimit:10;}
	.st6{fill:#8E9DF4;stroke:#1A1A1A;stroke-width:2.9739;stroke-linecap:round;stroke-linejoin:round;stroke-miterlimit:10;}
	.st7{fill:#5067EF;stroke:#1A1A1A;stroke-width:2.9739;stroke-linecap:round;stroke-linejoin:round;stroke-miterlimit:10;}
</style>
<g>
	<path class="st0" d="M493.1,855.1c-53,43.3-99.7,105.9-193.8,466.3c-85.3,326.7-128,490-110,565.8
		c81.4,343.4,566.7,600.1,948.3,534.4c202.6-34.9,184.6-127.7,403.4-178.1c451.8-104.2,711.1,249.3,964,99.5
		c151.3-89.6,200.7-300.1,204.3-419.1c7.2-232.6-154.9-296.3-183.4-602.5c-21-225.6,60.7-258.5,10.5-372
		c-122.9-277.8-699.1-277.7-874.9-277.7c-268.2,0-213.9,52.6-696.8,89.1C696.7,781,595.9,771.1,493.1,855.1z"/>
	<path class="st1" d="M325.5,1086.3c-178.4,121.3-187.6,443.6-125.7,654.9c83.2,284.1,312.5,426.9,361.5,455.8
		c126.9,75,189.1,63.2,728.2,120.5c463.5,49.2,502.4,67,644.4,47.2c185.2-25.8,428.7-59.8,581.5-251.5
		c212.9-267.1,96.8-648.3,62.9-759.7c-30-98.6-141.6-413.3-471.5-607.7c-25.5-15-492.4-281.9-859.2-89.1
		c-220.4,115.8-204.1,292.2-445.3,377.2C574.9,1114,466.4,990.5,325.5,1086.3z"/>
	<g>
		<g>
			<g>
				<path class="st1" d="M2537.4,1246.9c-11.3,21.2-157.6,19.4-231.3,17.1c-0.8-3.2-1.5-6.4-2.3-9.6c-1.3-5.7-2.5-11.4-3.7-17
					C2356.4,1233.7,2550.4,1222.5,2537.4,1246.9z"/>
			</g>
			<g>
				<path class="st1" d="M2548.7,1054.1c2.8,12.6,12.2,22.2,19.4,27.9c4.5,0.6,9.1,1,13.7,1.3c20.5,1.3,40-7.6,57.3-20.5
					c-12.2-3-38.7-10.4-45.7-20.5c-9.2-13.2-0.7-15.5,3.9-9.8c4.7,8.4,36.6,18.7,51,22.9c8.6-7.4,16.4-15.7,23.4-23.8
					c-11.8-0.6-27.7-4.5-32.2-10.3c-5.8-7.6,1.3-11.8,7-7c4.2,3.5,24,5.4,34.2,6.2c13.4-17.2,22.2-32.3,24.4-36.2
					c0.4-0.7,0.6-1,0.6-1s-14.2-17-35.1-35.7c-8.2,1.7-20.6,4.7-27.1,7.7c-10.3,4.9-17,10.1-20.1,6.2c-5-9.2,23.4-17.6,38.6-21.3
					c-9.3-7.8-19.7-15.6-30.5-22.2c-47.9,3.9-45.8,36.5-56.4,25.7c-9.2-9.3,29.1-25.9,44.9-32.3c-10.7-5.5-21.7-9.6-32.4-11.3
					c-9.9-1.1-18.9-1.8-27.1-2.1c-22.8,15.1-9.5,40.9-22.4,36c-10.1-3.8,2.5-25.1,9.8-36.1c-111.4,2.2-57,89.5-57,89.5
					c-0.2,0.4-0.3,0.7-0.5,1.1c-21.6,47.6,9.5,78.5,58.5,90.2c-2.8-8.9-7.9-25.3-8.3-28.5C2540.1,1045.4,2547,1043.1,2548.7,1054.1z
					"/>
				<path class="st2" d="M2684.7,984.6c0,0-134.7,9.4-193.7,2.6L2684.7,984.6z"/>
				<path class="st2" d="M2629,1019.4c0,0-22.5-11-40.4-30.3L2629,1019.4z"/>
				<path class="st2" d="M2602.1,953.7c0,0-32.6,21.8-33.3,35.8L2602.1,953.7z"/>
				<path class="st2" d="M2572.9,1045.1c0,0-27.9-36.9-32.6-55.5L2572.9,1045.1z"/>
				<path class="st2" d="M2518.6,947.2c0,0-18.2,21.2-11.3,41.4L2518.6,947.2z"/>
			</g>
			<g>
				<path class="st3" d="M2198.3,994.4c7.7-1.6,15.2-3,22.7-4.1c12.5,5.8,29.5,17.1,35.9,36.2c4.4,17,15.4,10,13.7,3.1
					c-1.2-5-12-29.2-18-42.3c82.6-3.4,138.4,32.8,108.8,121c0,0,102.3,116.2-79.7,170.6c10.3-21.2,27.6-61.3,10.5-62.8
					c-21.8-2,3.8,33.6-31.2,68.4c-13.5,3.3-28.4,6.3-44.7,9c-17.8,2.2-36.4,0.6-54.7-3.5c24.8-17.4,85-61.6,68.5-72.6
					c-19-12.6-10.6,39.1-88.4,67.2c-18.7-5.8-36.8-13.6-53.2-22c24.4-13.1,69.6-39.5,60-52.1c-5.7-4.9-15.8,6.6-31.9,19.1
					c-10.2,8-30,18.3-43.2,24.9c-37.1-20.7-62.9-41.7-62.9-41.7s12.8-32,35.3-71.6c16.8-3.4,49.5-9.4,56.9-5.6
					c10.1,5.2,21.1-4.9,10.4-14.5c-8.2-7.4-34.8-6.5-54.2-2c10.2-16.4,21.8-33.3,34.7-49.1c24.1,0.3,78,2.2,87,13.7
					c8.3,7.1,21.9-0.5,4.9-17.7c-13-13.1-57.5-13.1-77.9-12.4C2133.9,1024.8,2164.6,1001.6,2198.3,994.4z"/>
				<path class="st4" d="M2044.8,1200.7c0,0,219-76.5,316.7-92.4L2044.8,1200.7z"/>
				<path class="st5" d="M2130.7,1119c0,0,38.6,7.6,70.7,30.6L2130.7,1119z"/>
				<path class="st5" d="M2184.8,1213c0,0,50-50.1,49-73.1L2184.8,1213z"/>
				<path class="st5" d="M2218.7,1052c0,0,51.3,46.8,61.9,74.7L2218.7,1052z"/>
				<path class="st5" d="M2322.5,1185.4c0,0,26.6-42.6,12.2-72L2322.5,1185.4z"/>
			</g>
			<g>
				<path class="st0" d="M2490.5,988.3c0,0-68.3,20.3-52.9,167.7L2490.5,988.3z"/>
				<path class="st3" d="M2419.3,1166.7c0,0-72-81.1,61.7-162.8c-18.5,31.8-86.4,67.6-38.4,148.7c19.9,46.1-9.4,65.7-9.4,65.7
					S2389.7,1222,2419.3,1166.7z"/>
				<path class="st3" d="M2418.4,1153.7c0,0-42.5,330-26,486.7c16.5,156.6,5.8,521-30.9,604.5c34.9-21.9,40.3-25.6,40.3-25.6
					s40.6-309.1,28.7-475.1s-20.1-279.3-6.8-369.6c13.3-90.3,19.3-224.8,9-233.8C2422.2,1145.6,2418.4,1153.7,2418.4,1153.7z"/>
				<path class="st6" d="M2311.1,1264.6c-0.8-5.7-1.4-11.3-1.7-16.8c6.9-9.8,19.6-23.3,38.8-29.5c16.9-4.5,11.3-12.2,4.4-10.5
					c-5,1.2-29.5,11-42.9,16.4c5-61.9,45.9-106.4,128.5-90.1c0,0,123.2-84.9,157.5,48.5c-19.5-6.4-56.7-16.6-59.9-3.7
					c-4.1,16.6,33-5.1,63.3,18.9c1.9,10,3.3,21,4.2,33.1c0.3,13.3-3.2,27.4-8.9,41.4c-14.3-17.5-51.2-59.8-63.5-46.7
					c-14.1,15.1,36.9,5.3,56.3,62c-7.5,14.4-17,28.6-26.8,41.6c-10.2-17.5-31.3-49.8-44.4-41.6c-5.3,4.6,4.8,11.5,15.4,22.7
					c6.7,7.2,14.8,21.4,19.8,30.8c-23.9,29.3-46.9,50.2-46.9,50.2s-29.8-7.5-65.9-21.7c-1.6-12.4-4.1-36.7,0.4-42.5
					c6.1-8-2.6-15.5-13-6.9c-8,6.7-9.8,26.6-7.5,41c-14.9-6.6-30.1-14.2-44.2-22.8c2.7-18.2,10.1-58.9,22.2-66.4
					c7.7-6.7,1.7-16.4-16.7-2.5c-14,10.6-18.5,44.2-19.9,59.5C2334.1,1311,2314.6,1289.5,2311.1,1264.6z"/>
				<path class="st4" d="M2495.8,1366.3c0,0-52-159.7-57.6-232.2L2495.8,1366.3z"/>
				<path class="st5" d="M2425.3,1307.1c0,0,11.3-29.5,36.8-55.3L2425.3,1307.1z"/>
				<path class="st5" d="M2522,1260.1c0,0-43.6-34.2-66-32L2522,1260.1z"/>
				<path class="st5" d="M2369.1,1245.4c0,0,50.7-41.8,78.9-51.6L2369.1,1245.4z"/>
				<path class="st5" d="M2509.2,1158.3c0,0-38.7-17.2-68.7-4.3L2509.2,1158.3z"/>
			</g>
			<g>
				<path class="st1" d="M2272.4,793.9c4.5,3.2,8.7,6.4,12.8,9.8c2.6,10,4.4,25.5-3.1,39.8c-7.2,12,1.7,13.9,4.7,9
					c2.2-3.5,10.4-23,14.8-33.7c40.3,42.1,46.5,92.5-15.5,126.9c0,0-15.9,120.7-130.4,54.6c16.4-6.5,46.4-20.2,39.3-30.2
					c-9.1-12.8-16.6,21.2-52,22.3c-8.1-5.3-16.7-11.6-25.8-18.7c-9.5-8.3-17.2-19.1-23.6-31.2c21,3.4,73.3,10.2,71.6-4.7
					c-2-17.3-26.3,16.6-77.9-8.9c-5.5-13.3-9.7-27.4-12.7-40.9c18.5,5.6,54,14.6,56.4,2.4c0-5.8-11-4.7-25.3-6.1
					c-9.1-0.9-24-5.6-33.7-8.9c-6-31.6-6.5-57.3-6.5-57.3s23.4-11.4,55.6-21.9c9.7,7,28.2,21.1,29.6,27.2c1.9,8.3,12.5,8.5,12.8-2.7
					c0.2-8.6-12.7-22.3-24.1-30.1c13.7-3.9,28.4-7.3,43-9.5c11.1,13,35.1,42.9,33,54.2c0,8.5,10.5,11.4,11.9-7.4
					c1.1-14.4-19.6-38.1-29.5-48.6C2225.7,776.8,2252.8,780,2272.4,793.9z"/>
				<path class="st2" d="M2088.1,829.4c0,0,143.8,73.3,198,116.3L2088.1,829.4z"/>
				<path class="st2" d="M2172.7,828.8c0,0,13.8,24.9,16.2,55.1L2172.7,828.8z"/>
				<path class="st2" d="M2146.6,911.1c0,0,50.7-1.8,62.8-15.4L2146.6,911.1z"/>
				<path class="st2" d="M2250.3,837.5c0,0-1.7,54-12,75.6L2250.3,837.5z"/>
				<path class="st2" d="M2225.8,968.8c0,0,35.7-10.1,45-34.5L2225.8,968.8z"/>
			</g>
			<g>
				<path class="st1" d="M2483.9,890.9c9.9-2.5,16.5-10,20.2-15.6c-0.1-3.4-0.3-6.9-0.7-10.5c-1.5-15.6-11.3-30.2-24.1-43
					c-0.9,9.3-3.5,29.7-10.8,35.4c-9.6,7.4-12.5,1-8.5-2.7c6.3-3.8,10.5-28.4,12.1-39.5c-7.1-6.3-14.8-12-22.4-17.1
					c1.1,9-0.1,21.2-4.3,24.8c-5.4,4.6-9.8-0.6-6.6-5.1c2.3-3.3,1.3-18.4,0.7-26.2c-15.7-9.6-29.1-15.9-32.6-17.5
					c-0.6-0.3-0.9-0.4-0.9-0.4s-12,11.3-24.6,27.8c2.5,6.2,6.4,15.5,9.8,20.4c5.3,7.7,10.4,12.6,7.6,15.1
					c-6.8,4.1-17.3-17.2-22.3-28.7c-5.2,7.3-10.2,15.4-14.2,23.8c9.3,36.3,35.6,33.7,28.2,42.1c-6.4,7.3-24.9-21.4-32-33.1
					c-3.1,8.3-5,16.8-5,25c0.3,7.5,0.9,14.4,1.8,20.7c15.2,16.9,34.5,6,32.2,16c-1.8,7.8-20.7-1.1-30.7-6.3
					c16.1,84.7,80.1,40.7,80.1,40.7c0.3,0.1,0.6,0.2,0.9,0.3c41.5,15,62.6-9.6,65.9-47.2c-6.9,2.4-19.6,6.8-22.2,7.2
					C2478,897.7,2475.2,892.5,2483.9,890.9z"/>
				<path class="st2" d="M2410,789.5c0,0,24.9,102.2,27,147.3L2410,789.5z"/>
				<path class="st2" d="M2445.4,830.9c0,0-6.1,17.5-19.5,31.6L2445.4,830.9z"/>
				<path class="st2" d="M2395.4,853.3c0,0,21.9,24.1,33.4,24.2L2395.4,853.3z"/>
				<path class="st2" d="M2473.5,872.8c0,0-26.4,22.4-40.9,26.5L2473.5,872.8z"/>
				<path class="st2" d="M2400.9,917.1c0,0,19.6,13.2,35.1,7.3L2400.9,917.1z"/>
			</g>
			<path class="st0" d="M2436.9,936.8c0,0,11.5,1.7-17.6,142.2L2436.9,936.8z"/>
			<path class="st0" d="M2285,947.2c0,0,124.7,36.9,134.3,134.5L2285,947.2z"/>
			<path class="st0" d="M2352.2,1111.4c3.1-1.1,55.6-5.9,72.9,6.4L2352.2,1111.4z"/>
		</g>
		<path class="st0" d="M2388.5,2182.1c0.7-3.5-8.5-66.4-4.9-113.8c3.5-47.3,79-150,54.3-214.9c-24.6-64.9-52.2-97.4-48-176.6
			c4.2-79.1,58.5-91.2,48-129.3s-33.8-67.7-33.8-67.7L2388.5,2182.1z"/>
		<path class="st0" d="M2408.5,1566.4c0,0,41.4-41.2,22.3-86.6c-19.1-45.4-61.9-31.9-48.2-69.4c13.7-37.5,25.8-96.8,25.8-96.8
			V1566.4z"/>
	</g>
	<g>
		<polygon class="st3" points="2508.5,1894.2 1626.6,2134.4 1626.6,2192.5 2508.5,1952.2 		"/>
		<polygon class="st3" points="1544,2119.2 1523.9,2340.8 1499.2,2340.8 1515.9,2119.2 		"/>
		<polygon class="st1" points="1467.6,2093.8 1455.1,2335.7 1499.2,2340.8 1516.4,2111.8 		"/>
		<polygon class="st1" points="1626.1,2134.6 803.3,1697.7 803.3,1755.8 1626.1,2192.6 1626.6,2192.5 1626.6,2134.4 		"/>
		<polygon class="st1" points="2508.5,1894.2 1626.1,2134.6 803.3,1697.7 1332.4,1620.4 		"/>
	</g>
	<polygon class="st3" points="1140.5,1712 1451.3,1824.3 1603.4,1783.5 1605.1,1772.6 1286.6,1678.5 1142.2,1701 	"/>
	<polygon class="st1" points="1142.2,1701 1453.1,1813.4 1605.1,1772.6 1288.4,1667.5 	"/>
	<path class="st1" d="M879.9,1612.5c0,0,32.3,31.8,69.4,49.8c37.1,18,244.9,162,244.9,162s55.7,11.3,84.3,23.5
		c28.6,12.2,70.5,75.8,58.8,83.7s-46.1,5.8-60.4-4.2s-55.7-52-55.1-49.8c0.5,2.1-2.7,16.4,10.1,27.6c11.7,11.1,17.9,21.8,9,24.9
		c-9,3.2-47.4-30.8-55.6-45.6c-11.1-20-40.8-31.8-57.8-39.2s-251.2-65.7-295.7-150.5C820.6,1642.7,879.9,1612.5,879.9,1612.5z"/>
	<path class="st7" d="M902.7,1617.8c-52-41-139.1-223.8-177.7-219.2l-24.9,252.8c0,0,54.6,61.5,130.3,81.7
		C868.4,1715.2,896.3,1659.7,902.7,1617.8z"/>
	<path class="st7" d="M884,1590.6c0,0-66.6,140.8-84.9,126.6c46,32.4,54.5,32.4,65.8,34.2c11.3,1.8,56.5-120.5,50.2-138.9
		C908.7,1594.1,884,1590.6,884,1590.6z"/>
	<path class="st1" d="M700.1,1368.5c11.4-37.3,28.4-72.4,56.8-103c0,0,47.2,27.5,78.6,16.4c31.4-11.1,108.2-208.5,48.9-273.1
		s-204.3-19.2-239.2,131c-34.9,150.2-82.9,214.4-82.9,214.4L700.1,1368.5z"/>
	<path class="st7" d="M861.6,2304.6c0,0,6.5-857.7-151.9-953.5c-87.3-52.8-170.7-41.5-170.7-41.5s-217.8,154-269.6,753
		c82,118.9,211.7,218.1,358.8,283.7C778.8,2368.3,861.6,2304.6,861.6,2304.6z"/>
	<path class="st7" d="M644.3,1697.7c0,0,47.7,256.8,169.3,328.3c55.4-10.2,84.4-56.4,106.7-102.6c4.5-10.2,7.3-22.1,11-33.7
		c-11.6-7.7-19.2-18-26.9-30.4c-21.8-34.9-96.2-331.8-126.9-399.9L644.3,1697.7z"/>
	<path class="st3" d="M305.4,1554.1c0,0-49.8,245.2,161.5,209.7s43.7-273,122.2-395.3c78.6-122.2,118.5-209,170.9-210.7
		c52.4-1.7,153.9-65.2,146-150.8c-81.2-80.3-203.5-80.3-268.1,40.2C573.5,1167.7,347.8,1346.2,305.4,1554.1z"/>
	<path class="st1" d="M1063.8,1473.7c0,0-7-21-14.8-15.8c-14.3,3.6-12.4,59.2-4.9,86.8s7.4,27.6,7.4,27.6L1063.8,1473.7z"/>
	<path class="st1" d="M1140.5,1418.5c-2.1-11.7-40.6-43.5-50.1-26.5c-9.5,17-27.6,47.7-38.2,96.5c-10.6,48.8-4.2,102.2-4.2,102.2
		c-3.6,42.4-37,119.3-69,199.7c-26.9,67.6-56.5,86.6-49.8,95.5c19.9,28-130.6,86.2-125.9,119.4c2.3,16.4,78.5,96.8,162,51
		c83.5-45.8,146.7-387.1,144.7-459.3c0-8.1,22.6-22.8,30.5-39.5C1156,1524.9,1142.6,1430.2,1140.5,1418.5z"/>
	<path class="st1" d="M908.6,1865.8c0,0,36.1,31.5-21.8,69S754.4,1973,754.4,1973s17.2,55.7,62.4,74.8c45.2,19.1,57.9,4.2,79.9-24
		c21.9-28.3,55-54.4,43.7-127.4C925.7,1854.2,908.6,1865.8,908.6,1865.8z"/>
	<path class="st3" d="M726.2,1232.5c0,0,6.8,21.9,30.6,33c-18.3,22.5-18.3,22.5-18.3,22.5S720.4,1253.7,726.2,1232.5z"/>
	<path class="st3" d="M909.1,1027.4c0,0-10.1,15.9-13.8,38.7c1.6,15.4,16.3,25.2,11.3,36.6C934.5,1082.5,919.1,1027.4,909.1,1027.4z
		"/>
	<g>
		<path class="st1" d="M1467.6,1714.9c3.5,0,158.5,48.9,158.5,48.9l172.7-44.2c0,0,26.9-16.6,13-67.8
			c-131.6-24.4-138.7-23.6-138.7-23.6s8.1,54.1-20.4,58.8c-23.4,3.8-191.8,15.6-191.8,15.6
			C1458.4,1707.9,1467.6,1714.9,1467.6,1714.9z"/>
		<path class="st1" d="M1461,1702.5c3.5,0,158.5,48.9,158.5,48.9l172.7-44.2c0,0,19.8-15.7,5.8-66.9
			c-131.6-24.4-131.6-24.4-131.6-24.4s8.1,54.1-20.4,58.8S1461,1702.5,1461,1702.5z"/>
		<polygon class="st1" points="1342.9,1488.6 1344.4,1557.7 1869.1,1669.8 1888.9,1665.2 1891.8,1566.4 		"/>
		<polygon class="st3" points="1911.2,913.6 1891.8,904.8 1352.4,1046.3 1342.9,1488.6 1891.8,1566.4 		"/>
		<polygon class="st3" points="1323.5,1479.8 1321.6,1566.7 1869.1,1669.8 1872.5,1557.7 		"/>
		<polygon class="st1" points="1891.8,904.8 1333,1037.6 1323.5,1479.8 1872.5,1557.7 		"/>
		<polygon class="st1" points="1604.5,986.1 1346.8,1047.3 1342.3,1255 1592.4,1243.6 		"/>
		<polygon class="st1" points="1342.3,1255 1337.8,1467.3 1580.2,1501.7 1592.4,1243.6 		"/>
		<polygon class="st1" points="1592.4,1243.6 1580.2,1501.7 1859.2,1541.3 1868.4,1230.9 		"/>
		<polygon class="st1" points="1877.6,921.2 1604.5,986.1 1592.4,1243.6 1868.4,1230.9 		"/>
	</g>
	<g>
		<path class="st1" d="M1831.8,1700.9l0,162.4c0,0-7.8,62.9,99.1,62.9c93.3,0,89.5-62.9,89.5-62.9v-160.4L1831.8,1700.9z"/>
		<ellipse class="st1" cx="1926.1" cy="1702.8" rx="94.3" ry="15.5"/>
		<path class="st1" d="M1854.9,1881.4c0,0-83.8-17.9-91.2-98.2c-7.4-80.3,75.5-56.8,75.5-56.8l1.3,12.7c-14.9-3-62.7-8.1-57.5,47.5
			c5.1,55.8,55.2,74.8,70.4,79.4L1854.9,1881.4z"/>
	</g>
	<ellipse class="st1" cx="2393.8" cy="2384.9" rx="99.7" ry="78.4"/>
	<ellipse class="st3" cx="185.2" cy="1027.4" rx="72" ry="72.8"/>
	<ellipse class="st3" cx="2489" cy="1742.6" rx="50" ry="50.8"/>
	<ellipse class="st1" cx="1911.2" cy="2404.4" rx="135" ry="124.4"/>
	<ellipse class="st3" cx="2699.2" cy="1628.1" rx="113.8" ry="104.8"/>
	<g>
		<polygon class="st1" points="2126.5,1608.2 2089.8,1917.3 2193.3,1947.1 2183,1616.4 		"/>
		<polygon class="st1" points="2216.3,1611.2 2183,1616.4 2193.3,1947.1 2256.1,1918.6 		"/>
		<ellipse class="st1" cx="2153.8" cy="1710.8" rx="19.9" ry="39"/>
		<ellipse class="st1" cx="2146.3" cy="1853.4" rx="32.9" ry="46.6"/>
		<ellipse class="st3" cx="2146.3" cy="1853.4" rx="13.3" ry="18.8"/>
		<polygon class="st1" points="2154.8,1603.8 2216.3,1611.2 2183,1616.4 2126.5,1608.2 		"/>
	</g>
	<g>
		<path class="st1" d="M1554.4,1875.7c0,0-67.2-7.4-88.2,41.5c-18.2,42.5,41.3,65.8,82.4,58.7c19.6-40.5,64.8-50.5,100.6-76
			C1643.3,1892.7,1622.7,1876.7,1554.4,1875.7z"/>
		<path class="st3" d="M1548.6,1975.8c6.2-1.1,12.1-2.9,17.1-5.4c38.4-19.2,85.6-67.2,85.6-67.2s-0.4-1.3-2.1-3.4
			C1613.4,1925.4,1568.2,1935.3,1548.6,1975.8z"/>
		<path class="st1" d="M1598.5,1885.3c0,0-18.4-1.8-32.5,5.3L1598.5,1885.3z"/>
	</g>
	<g>
		<path class="st3" d="M1675.2,1149.3c0,0-7.9-113.4,36-117.7c43.8-4.2,53.5,48.3,38.8,126.5
			C1710.1,1155.7,1675.2,1149.3,1675.2,1149.3z"/>
		<path class="st1" d="M1657.8,1239.7c0,0-38.7-84.7,27.3-111.5c66-26.9,117.9,105.1,117.9,105.1L1657.8,1239.7z"/>
		<ellipse class="st1" cx="1719.2" cy="1078.3" rx="30.7" ry="41.2"/>
		<path class="st3" d="M1689.6,1424.5c0,0-11.8-97.9,22.7-99.7c5.5-22.2,25.7-43.4,54.3-17.3c28.6,26.1-1.8,126.6-1.8,126.6
			L1689.6,1424.5z"/>
		<path class="st1" d="M1640.3,1510.2c0,0,20.9-125.9,77.9-128.8c68.2-3.5,84.9,151.9,84.9,151.9L1640.3,1510.2z"/>
		<ellipse class="st1" cx="1730.6" cy="1358.4" rx="23.2" ry="35.5"/>
		<g>
			<path class="st1" d="M1375,1253.5c0,0-0.8-66.4,24.9-96c25.7-29.6,86.1-21.8,105.5-4.7c19.5,17.1,30.7,93.3,30.7,93.3
				L1375,1253.5z"/>
			<ellipse class="st1" cx="1436.5" cy="1114.7" rx="28" ry="42.8"/>
			<path class="st3" d="M1408.6,1086.9c0,0,16.4,27,67.9,18.6C1460.8,1078.9,1436.5,1055.6,1408.6,1086.9z"/>
			<path class="st3" d="M1406.7,1086.7c0,0-8.2,24.4,1.1,35C1419.7,1110.8,1411.5,1091,1406.7,1086.7z"/>
		</g>
		<path class="st3" d="M1718.6,1318.4c0,0,3.1,27.3,35.2,28.4C1751.8,1329.2,1723.3,1317.3,1718.6,1318.4z"/>
		<path class="st3" d="M1718.4,1035.2c0,0,14.8,55.7,34.6,58.5C1753.4,1067.8,1745.9,1033.9,1718.4,1035.2z"/>
		<path class="st3" d="M1713.6,1035.1c0,0-0.7,38.2-28.6,44.2C1687.3,1058.7,1701,1034.4,1713.6,1035.1z"/>
		<path class="st1" d="M1652.3,1211c-16.6-24.7-27.9-57.1-21.8-98.7c0,0,2.5-50.3,6.4-50.6c3.9-0.4,10.2-2.1,10.2-2.1
			s1,65.3,14.1,83.3c13.1,18.1,13.1,18.1,13.1,18.1L1652.3,1211z"/>
		<g>
			<path class="st1" d="M1381.6,1472c0,0-11.1-96.3,30.4-106.3c20.7-5,42.8-8,61-6.5s18.3,8.6,23.8,22.1
				c11.1,26.9-5.8,107.2-5.8,107.2L1381.6,1472z"/>
			<path class="st1" d="M1413.3,1446.5l-2.3,30L1413.3,1446.5z"/>
			<ellipse class="st1" cx="1445.3" cy="1331.6" rx="25.5" ry="33.4"/>
			<path class="st3" d="M1419.8,1333.3c0,0-1.3-2.9,1.3-11c0.4-1.3,5.7,0.7,5.5-1.2c-1.1-13.6,4.4-13.2,4.4-13.2s7.1,0.6,21.7,1.5
				c14.5,0.9,18.1,22.2,18.1,22.2s1.1-16,5.2-28.5c4.3-13.1-30.2-11.1-48.8-7.1C1406.6,1300.4,1419.8,1333.3,1419.8,1333.3z"/>
			<path class="st1" d="M1472.9,1359.3c0,0,34.4,4.4,38-26.4c3.5-30.7,2.9-45.6,2.9-45.6l14.7,2.5c0,0,6.7,74.5-4.9,101.1
				c-11.7,26.6-26.9,17-26.9,17L1472.9,1359.3z"/>
			<path class="st1" d="M1518.3,1292.1c0,0-10.9-26.5-4.5-32.5c6.4-6,13.7,2.5,13.7,16.3c0,13.8-3.5,16.3-3.5,16.3H1518.3z"/>
		</g>
		<path class="st1" d="M1642.9,1064.4c0,0,11-17.6,6.9-19.2c-4.1-1.6-8.3-14-18.4-11.5c-10.1,2.5-1.9,14.3,0,17.7
			c1.9,3.4,5.3,16.6,5.3,16.6S1641.1,1067.6,1642.9,1064.4z"/>
	</g>
	<path class="st1" d="M1504.3,1224"/>
</g>
</svg>
