<?xml version="1.0" encoding="utf-8"?>
<!-- Generator: Adobe Illustrator 22.0.0, SVG Export Plug-In . SVG Version: 6.00 Build 0)  -->
<svg version="1.1" id="Layer_1" xmlns="http://www.w3.org/2000/svg" xmlns:xlink="http://www.w3.org/1999/xlink" x="0px" y="0px"
	 viewBox="0 0 4000 4000" style="enable-background:new 0 0 4000 4000;" xml:space="preserve">
<style type="text/css">
	.st0{fill:url(#SVGID_1_);}
	.st1{fill:url(#SVGID_2_);}
	.st2{fill:#D1334A;}
	.st3{fill:#EF5164;}
	.st4{fill:#EB485C;}
	.st5{fill:#DB6767;}
	.st6{fill:#FC9590;}
	.st7{fill:#ED8C88;}
	.st8{fill:#FFFFFF;}
	.st9{fill:#5C7199;}
	.st10{fill:#102140;}
	.st11{fill:#DBD2DB;}
	.st12{fill:#127755;}
	.st13{fill:none;stroke:#3DBE88;stroke-width:2;stroke-linecap:round;stroke-linejoin:round;stroke-miterlimit:10;}
	.st14{fill:#BECCE6;}
	.st15{fill:#339E7E;}
	.st16{fill:none;stroke:#10663F;stroke-width:2;stroke-linecap:round;stroke-linejoin:round;stroke-miterlimit:10;}
	.st17{fill:none;stroke:#FFFFFF;stroke-width:3;stroke-linecap:round;stroke-linejoin:round;stroke-miterlimit:10;}
	.st18{fill:#FFFFFF;stroke:#1A1A1A;stroke-width:2;stroke-linecap:round;stroke-linejoin:round;stroke-miterlimit:10;}
	.st19{fill:#FFDE70;}
	.st20{fill:url(#SVGID_3_);}
	.st21{fill:url(#SVGID_4_);}
	.st22{fill:url(#SVGID_5_);}
</style>
<g>
	<linearGradient id="SVGID_1_" gradientUnits="userSpaceOnUse" x1="45.2531" y1="2172.6057" x2="3587.9546" y2="2172.6057">
		<stop  offset="0" style="stop-color:#68B2FC"/>
		<stop  offset="1" style="stop-color:#529BF7"/>
	</linearGradient>
	<path class="st0" d="M182.2,1832C77.1,1653,17.7,1439.4,57.9,1235.8c40.2-203.6,194-390.8,397.3-432.9
		c145.3-30.1,296.7,13.9,429.4,80.5s253,155.4,384.7,223.9c504.9,262.6,1039.3-69.9,1594.7-193.8
		c666.1-148.6,820.3,579.8,672.6,871.1c-70.4,138.7-251.2,367.2-221.7,463.8c54.2,177.3,99.7,360.4,92.6,545.7
		c-7.1,185.3-72.8,374.9-210.9,498.5c-205.4,183.9-511.4,183.2-786.9,172.2c-296,78.5-605.8,104.3-910.7,76.1
		c-174-16.1-352.3-52.2-494.6-153.6c-175.1-124.8-272.1-330.9-343.1-533.9S536,2437.5,416.5,2258.7
		C416.5,2258.7,287.2,2011,182.2,1832z"/>
	<linearGradient id="SVGID_2_" gradientUnits="userSpaceOnUse" x1="221.0241" y1="1925.4854" x2="3592.7817" y2="1925.4854">
		<stop  offset="0" style="stop-color:#4085F0"/>
		<stop  offset="1" style="stop-color:#275DC9"/>
	</linearGradient>
	<path class="st1" d="M830.2,3180c-61.8,10.4-122.2,31.6-184.9,32.2c-81.6,0.9-161-34-223.5-86.4
		c-62.5-52.4-121.6-116.3-146.2-194.1C78.3,2307.6,479.4,1928.6,479.4,1928.6c9.3-113.4,69.1-221.8,160.2-290
		c106.2-79.6,254.2-109.8,326.1-221.4c45.4-70.6,49.8-160.9,34.1-243.3c-15.7-82.5-49.5-160.2-76-239.8
		c-26.5-79.6-45.9-164.5-31.5-247.2c14.4-82.7,69.4-162.7,150.1-185.7c239.4-68,470-194.8,703.5-109c83.1,30.5,161.2,75.4,247.2,96
		c89,21.3,181.8,15.7,273.1,21.6c250.2,16,493.7,121.9,676,294.1c182.3,172.2,301.9,409.3,332.1,658.2
		c31.1,256.3,266.2,457,306.1,712.1c26,166.3,8.7,337.4-34.6,500.1s-111.8,317.6-188.9,467.2c-107.9,209.6-324.3,366-559.1,344.1
		c-142.5-13.3-272.5-82.5-405.2-136.1c-76.5-30.9-278,93.5-355.1,69.6c-298.8-92.4-478.1-277.8-788.2-201.8
		C1249.5,3217.3,956.7,3158.7,830.2,3180z"/>
	<path class="st2" d="M2037.7,1859.1c0,0,136.4,5.8,155,166.5c18.7,160.6,33.6,545.4,28,545.4c-5.6,0-110.2,11.2-110.2,11.2
		L2037.7,1859.1z"/>
	<path class="st2" d="M1495.5,3203.4c-15.7-2.6-36.7-10.5-36.7-26.2c-5.2,0-10.5,0-13.1-2.6c-2.6-86.5-5.2-170.3,2.6-256.8
		c13.1-172.9,44.5-338,10.5-510.9c-16.2-89.1-84-151.5-159.9-201.9c-20.8,217.8-12.1,446.3-12.1,446.3l-37.4,566
		c0,0,151.3,13.1,300.7,63.5c63.1,21.3,166.3,17.3,270.5,3.8c-106.8-13.4-212.6-36.5-317.3-68.1
		C1500.8,3213.9,1498.1,3206,1495.5,3203.4z"/>
	<path class="st3" d="M2078.8,1891.1c-52.3-80.3-237.2-132.6-278.2-138.9c-41-6.3-199.9-3.1-371.1,70.7
		c-77,33.1-113.5,204.1-130.5,382.1c75.9,50.4,143.7,112.9,159.9,201.9c34.1,172.9,2.6,338-10.5,510.9
		c-7.9,86.5-5.2,170.3-2.6,256.8c2.6,2.6,7.9,2.6,13.1,2.6c0,15.7,21,23.6,36.7,26.2c2.6,2.6,5.2,10.5,7.9,13.1
		c104.7,31.6,210.5,54.7,317.3,68.1c142.3-18.4,286.5-54.4,332.8-67.3c-7.3-56.6-7-185.7-3.7-339.6c2.1-94.7,5.3-198.7,8.5-301.1
		c0.9-27.6,1.8-55.1,2.6-82.2C2170.3,2203,2131.1,1971.4,2078.8,1891.1z"/>
	<path class="st4" d="M1168,2577.2c-10.5-78.6-13.1-157.2,0-235.8c7.9-65.5,10.5-128.4,26.2-193.9c5.2-26.2,13.1-49.8,18.3-76
		c2.6-21,13.1-41.9,18.3-62.9c5.2-10.5,2.6-23.6,7.9-34.1c2.6-5.2,7.9-13.1,10.5-21c2.6-7.9-2.6-18.3,0-26.2
		c0.3-0.5,0.6-0.9,0.9-1.4c-36.1,30.7-64.2,65.7-77.2,105.2c-61.6,186.8-100.9,567.8-46.7,668.7c12.8-36.6,32.1-73.6,55.6-106.8
		c-1.2-2.7-2.3-5.3-3.3-8C1175.9,2582.4,1168,2579.8,1168,2577.2z"/>
	<path class="st3" d="M1250.1,1926c-0.3,0.5-0.6,0.9-0.9,1.4c-2.6,7.9,2.6,18.3,0,26.2c-2.6,7.9-7.9,15.7-10.5,21
		c-5.2,10.5-2.6,23.6-7.9,34.1c-5.2,21-15.7,41.9-18.3,62.9c-5.2,26.2-13.1,49.8-18.3,76c-15.7,65.5-18.3,128.4-26.2,193.9
		c-13.1,78.6-10.5,157.2,0,235.8c0,2.6,7.9,5.2,10.5,7.9c1,2.7,2.1,5.4,3.3,8c52-73.6,124.6-128.8,192.8-121.1
		c5.6-91.5,11.2-170,11.2-170l244.7-543.6C1630.5,1758.5,1384.5,1811.9,1250.1,1926z"/>
	<path class="st5" d="M2043.2,2454c-104.8,26.2-201.8,81.2-306.6,115.3c-91.7,31.4-178.2,76-269.9,110c-15.7,7.9-34.1,18.3-49.8,21
		c-96.8,12.1-198,8.5-281.1-43.7c-5.1,10.2-7.8,16.5-7.8,16.5s-5,100.9,196.7,92.1c201.7-8.7,589-234.1,665-256.5
		c76-22.4,114.6-46.1,158.1-44.8l20.9-30.3C2126.4,2433.7,2082.9,2442.7,2043.2,2454z"/>
	<path class="st6" d="M2110.6,2290.8c-97.1,99.6-290.1,128.3-391,135.7c-100.9,7.5-344.9,45.5-344.9,45.5
		c-124-22.9-212.9,132.7-238.8,184.6c83,52.2,184.3,55.8,281.1,43.7c15.7-2.6,34.1-13.1,49.8-21c91.7-34.1,178.2-78.6,269.9-110
		c104.8-34.1,201.8-89.1,306.6-115.3c39.7-11.3,83.3-20.4,125.7-20.5l169.6-246.1C2338.4,2187.5,2207.7,2191.2,2110.6,2290.8z"/>
	<path class="st6" d="M1914.6,1686.1l-93.6-51.8C1821,1634.3,1842.1,1668.5,1914.6,1686.1z"/>
	<path class="st7" d="M1744.4,1639.2c18.1-92.3-0.8-176.8-43.5-251.4c-0.7,45.6,6,93.7,8.9,131.6c7.5,95.3-79.4,214.8-79.4,214.8
		s7.7,19.1,22.8,43.1C1701.4,1745.8,1731.2,1700.8,1744.4,1639.2z"/>
	<path class="st6" d="M2118,1352.2c0-105.5-203.6-137.3-325-112.1c-73,15.2-91,78.7-92.1,147.6c42.7,74.6,61.5,159.1,43.5,251.4
		c-13.2,61.6-43.1,106.6-91.1,138.1c27.3,43.4,78.9,102.7,152.8,92.7c114.6-15.6,112.7-78.5,112.7-78.5l-4.2-105.4h0
		c-72.5-17.6-93.6-51.8-93.6-51.8l93.6,51.8c20.3,4.9,44.6,8.6,73.6,9.8C2120.8,1701.5,2118,1457.7,2118,1352.2z"/>
	<path class="st8" d="M1645.9,1695.8c0,0-14.8-21.8-31.9-5.9c-17.1,15.9-88,91.1-79.8,92.9c8.2,1.8,36.1,30.6,46.2,65.4
		c10,34.8,43.7,77.9,92.1,100.4c48.4,22.4,56.7,12.4,53.1-3c-3.5-15.4,8.9-67.3,75-59.1c-3-20.1-41.3-31.3-86.8-77.9
		C1668.3,1761.9,1645.9,1695.8,1645.9,1695.8z"/>
	<path class="st8" d="M1844.4,1852.8c0,0,73.8,52.8,74.2,108.8c10.3,18.7,25.7-27.6,34.1-33.6c8.4-6.1,58.8-76.6,54.6-107.9
		c-18.2-36.9-90.1-67.9-90.1-67.9s2.7,34,1.5,41.3C1917.5,1800.8,1894.8,1851.4,1844.4,1852.8z"/>
	<path class="st9" d="M3426.8,2339.7c-162.9,34.5-336,64.1-500.9,94.6c-29,5.2-58.8,10.6-80.4,14c-45.5,6.8-69.9-33.4-36.3-61.2
		c0,0,583.5-107.9,615.6-110.7C3456.8,2273.6,3461.2,2329.7,3426.8,2339.7z"/>
	<path class="st10" d="M3422.4,2341.2l-75.1,764.5l-51.1,7.8l74.8-762C3391.8,2347.4,3409.4,2343.9,3422.4,2341.2z"/>
	<path class="st11" d="M3403.3,2344.9l-75.1,764.5l-51.1,7.8l74.8-762C3372.7,2351.2,3390.3,2347.7,3403.3,2344.9z"/>
	<path class="st10" d="M3276.1,2372.2l-74.4,758.2l-51.1,7.8l74.2-756.3C3242.3,2378.5,3259.6,2375.3,3276.1,2372.2z"/>
	<path class="st11" d="M3257,2373.3l-74.4,758.2l-51.1,7.8l74.2-756.3C3223.2,2379.7,3240.4,2376.5,3257,2373.3z"/>
	<path class="st10" d="M3126.9,2395l-73.9,753l-51.1,7.8l73.8-751.3C3092.4,2401.3,3109.6,2398.2,3126.9,2395z"/>
	<path class="st11" d="M3108.2,2401.1l-73.9,753l-51.1,7.8l73.8-751.3C3073.7,2407.4,3090.9,2404.3,3108.2,2401.1z"/>
	<path class="st10" d="M3205.6,2383c-16,3-80.2,14.9-97.4,18.1"/>
	<path class="st10" d="M2943.9,2434.3l-73.3,747.3l-51.1,7.8l73.2-746C2906.3,2441,2923.7,2437.9,2943.9,2434.3z"/>
	<path class="st11" d="M2925.9,2434.3l-73.3,747.3l-51.1,7.8l73.2-746C2888.2,2441,2905.7,2437.9,2925.9,2434.3z"/>
	<path class="st10" d="M3056.9,2410.5c-43.2,7.9-87.8,16-131.1,23.8"/>
	<path class="st10" d="M3257,2373.3c27.9-5.3,67.1-12.8,94.9-18.1"/>
	<path class="st12" d="M418.3,2307.6c0,0-192.4,435.2,0,595.9c192.4,160.6,364.2,179.3,369.8,179.3c5.6,0,99.9-43.9,85-124.2
		c-14.9-80.3-206.4-240-248.4-283.9S400.5,2383.3,418.3,2307.6z"/>
	<path class="st13" d="M409.8,2434.7c0,0,14,440.1,352.7,574.6c21.8,11.8,45.5,21.8,45.5,21.8"/>
	<path class="st14" d="M744.5,1928.4c0,0,1.2,465.7-18.7,518c-14.9,66,41.9,670.4,48.1,745.1c48.6-12.5,48.6-12.5,48.6-12.5
		s-39.4-659.2-44.4-694.1c-5-34.9,22.4-417.2,21.2-469.5c-1.2-52.3,13.7-69.7,22.4-112.1c8.7-42.3,6.2-174.3,7.5-226.6
		c1.2-52.3,16.2-71,0-68.5c-16.2,2.5-14.9,21.2-26.2,63.5c-11.2,42.3-17.4,83.4-39.8,115.8C740.8,1820.1,744.5,1928.4,744.5,1928.4z
		"/>
	<path class="st13" d="M372.5,2705.5c0,0,68.2,16.4,123.3,49.3"/>
	<path class="st13" d="M572.4,2719.5c0,0,37.2,115.9,20.5,173.7"/>
	<path class="st13" d="M434.1,2833.4c1.9,2.8,75.7,35.8,123.3,18.4"/>
	<path class="st13" d="M689.1,2872.7c0,0-22.7,92,29.9,116.7"/>
	<path class="st13" d="M584.8,2962.3c0,0,54.6-14,77.6-8"/>
	<path class="st15" d="M747.6,2234.2c0,0-67.2-82.2-16.8-145.7c50.4-63.5,181.8-182.4,211.1-274.6c29.3-92.1,44.2-70.4,54.2-58.5
		c10,11.8,48.6,116.4,9.3,254c-39.2,137.6-115.8,193-179.9,193.6C761.3,2203.6,747.6,2234.2,747.6,2234.2z"/>
	<path class="st16" d="M751.4,2204.9c0,0,19.9-113.9,110.2-145.1c90.3-31.1,117.1-214.2,117.1-214.2"/>
	<path class="st15" d="M757.3,1883.6c0,0-124.2-22.4-156.9-96.2c-32.7-73.8-18.7-271.8-57-311.9c65.4-4.7,120.5,81.3,151.3,144.8
		c30.8,63.5,95.3,128.9,93.4,185.9C786.2,1863.1,757.3,1883.6,757.3,1883.6z"/>
	<path class="st16" d="M606.9,1551.1c0,0,79.4,240.6,155,294.5"/>
	<path class="st16" d="M610.7,1639.9c0,0,9.6,31.7,46.8,41.6"/>
	<path class="st16" d="M694.7,1679.5c0,0,15.4,40.3,0,78.1"/>
	<path class="st16" d="M637.3,1776.2c0,0,18.9,37.6,86,27.7"/>
	<path class="st16" d="M784.5,2123.3c0,0,48-30.4,119.4-8.5"/>
	<path class="st16" d="M874.7,1979.8c0,0,14.1,62.4-13.1,80"/>
	<path class="st16" d="M972.1,1989.2c0,0-25.9-4.2-47.5,14"/>
	<path class="st16" d="M937.5,1901.8c0,0,18.7,3.3,18.2,34.1"/>
	<polyline class="st17" points="944.9,568.6 1585.7,568.6 1786.4,408.2 	"/>
	<polyline class="st17" points="1007.7,515.3 1585.7,515.3 1733.2,387.7 	"/>
	<polyline class="st17" points="899.8,860 1779.9,860 2193.4,506.9 	"/>
	<polyline class="st17" points="988.4,1117.8 1956.8,1117.8 2649,606.9 	"/>
	<g>
		<line class="st18" x1="1150.5" y1="467.2" x2="1150.5" y2="823.9"/>
		<rect x="1105.6" y="823.9" class="st10" width="87.2" height="53"/>
		<rect x="1105.6" y="876.9" class="st19" width="87.2" height="186.3"/>
	</g>
	<g>
		<line class="st18" x1="1614.9" y1="364.6" x2="1614.9" y2="603.9"/>
		<rect x="1570.1" y="603.9" class="st10" width="87.2" height="52.6"/>
		<rect x="1570.1" y="656.5" class="st19" width="87.2" height="186.7"/>
	</g>
	<g>
		<line class="st18" x1="2400.7" y1="525.7" x2="2400.7" y2="924.1"/>
		<rect x="2355.9" y="961.6" class="st19" width="87.2" height="201.8"/>
		<rect x="2355.9" y="924.1" class="st10" width="87.2" height="37.5"/>
	</g>
	<g>
		<line class="st18" x1="2813.5" y1="712.5" x2="2813.5" y2="1110.9"/>
		<rect x="2768.7" y="1110.9" class="st10" width="87.2" height="35"/>
		<rect x="2768.7" y="1145.9" class="st19" width="87.2" height="204.3"/>
	</g>
	<path class="st10" d="M3377.1,3102c-146.1,283.9-394,456.2-728.5,350.8l54.1-248.5c186.4-28.3,388.1-58.9,574.4-87.1v0
		C3302,3113.4,3352.2,3105.8,3377.1,3102z"/>
	<g>
		<path class="st18" d="M2640.1,2295.3l-157.7,253.6c-1.7-5.9-4.3-13.2-8.3-22.1c-24.3-54.8-62.9-224.8-16.2-286.4
			c46.7-61.7,78.4-76.6,113.9-39.2C2594.4,2224.9,2624.5,2256.9,2640.1,2295.3z"/>
		<polygon class="st10" points="2392.6,1991.9 2030,2618.8 2007.6,2606.1 2370.2,1979.3 		"/>
		<polygon class="st10" points="2857.7,1945.3 2392.6,1991.9 2370.2,1979.3 2835.3,1932.6 		"/>
	</g>
	<path class="st8" d="M2857.7,1945.2l-217.6,350c-15.6-38.4-45.7-70.4-68.2-94.1c-35.5-37.4-67.2-22.4-113.9,39.2
		c-46.7,61.6-8.1,231.6,16.2,286.4c3.9,8.9,6.6,16.1,8.3,22.1l-14.3,22.9l-6.5,10.4l-304.4,25.8l-127.3,10.8l362.6-626.8
		L2857.7,1945.2z"/>
	<path class="st5" d="M2601.3,2469.8c-26.2,99.6-104.8,157.2-188.7,209.6c-80.1,52-169.2,84.2-259.9,82
		c-1.1,39.8-2.1,78.8-2.9,116.3c133.2,8.3,332.2-192,412.8-261.9c84.1-72.9,72.8-177.5,85.9-248.4c4.8-25.9,0.6-50.1-8.4-72.1
		c-11.3-27.9-30.3-52.3-48.4-72.8c0.6,1.2,1.1,2.4,1.7,3.6C2630.1,2299.4,2622.2,2393.8,2601.3,2469.8z"/>
	<path class="st6" d="M2458,2240.4c-46.7,61.6-8.1,231.6,16.2,286.4c3.9,8.9,6.6,16.1,8.3,22.1c8.8,30.9-8.3,26.5-8.3,26.5l-6-3.6
		l-6.5,10.4l-304.4,25.8c-1.6,51.5-3.2,103.1-4.6,153.4c90.6,2.2,179.7-30.1,259.9-82c83.8-52.4,162.5-110,188.7-209.6
		c21-76,28.8-170.3-7.9-243.7c-0.6-1.2-1.1-2.4-1.7-3.6c-6.9-7.7-13.6-14.8-19.8-21.3C2536.4,2163.8,2504.7,2178.7,2458,2240.4z"/>
	<path class="st10" d="M2162.4,3399.9l-8.9-182.6c0,0-334.2,73.2-415.4,75.8c81.9,69.4,297.1,152.2,345.9,134.1
		C2132.9,3409,2162.4,3399.9,2162.4,3399.9z"/>
	<linearGradient id="SVGID_3_" gradientUnits="userSpaceOnUse" x1="3631.5352" y1="1390.8396" x2="3954.7468" y2="1390.8396">
		<stop  offset="0" style="stop-color:#68B2FC"/>
		<stop  offset="1" style="stop-color:#529BF7"/>
	</linearGradient>
	<ellipse class="st20" cx="3793.1" cy="1390.8" rx="161.6" ry="160.3"/>
	<linearGradient id="SVGID_4_" gradientUnits="userSpaceOnUse" x1="779.3099" y1="3438.9226" x2="1177.9374" y2="3438.9226">
		<stop  offset="0" style="stop-color:#68B2FC"/>
		<stop  offset="1" style="stop-color:#529BF7"/>
	</linearGradient>
	<ellipse class="st21" cx="978.6" cy="3438.9" rx="199.3" ry="197.7"/>
	<linearGradient id="SVGID_5_" gradientUnits="userSpaceOnUse" x1="61.4639" y1="2018.4163" x2="221.0241" y2="2018.4163">
		<stop  offset="0" style="stop-color:#4085F0"/>
		<stop  offset="1" style="stop-color:#275DC9"/>
	</linearGradient>
	<circle class="st22" cx="141.2" cy="2018.4" r="79.8"/>
	<path class="st10" d="M1828.5,1404.5c0,0-39.2-77.5-77.8-35.8c-38.6,41.7,11.8,113.3,11.8,113.3s-24.6,24.9-38.6,31.1
		c-14,6.2-28-3.7-28-3.7s-53.5-286,7.5-330.6c60.4-44.2,109.6-24.9,109.6-24.9s77.2-134.5,235.4-76
		c158.1,58.5,150.7,92.1,155.7,146.9c5,54.8,51.1,67.2,29.9,100.9c-21.2,33.6-117.1,79.7-154.4,56c-37.4-23.7-48.7-97.8-82.3-106.2
		c-33.6-8.4-111.6,13.5-108.3,62.6c3.3,49-12.1,129.4-19.1,142c-32.2,9.8-44.4,0-41.6-6.5
		C1830.8,1467.1,1838.8,1414.3,1828.5,1404.5z"/>
</g>
<path class="st5" d="M1950.1,1954.7c0,0,32.7,82.2,99.8,90.6c-1.5-37.4-1.5-37.4-1.5-37.4S1969,1985.5,1950.1,1954.7z"/>
</svg>
