<svg id="Layer_1" data-name="Layer 1" xmlns="http://www.w3.org/2000/svg" xmlns:xlink="http://www.w3.org/1999/xlink" viewBox="0 0 6000 4000"><defs><style>.Graphic-Style-163{fill:url(#linear-gradient);}.Graphic-Style-148{fill:url(#linear-gradient-2);}.cls-1{fill:#fc9590;}.Graphic-Style-159{fill:#db6767;}.Graphic-Style-146{fill:#102140;}.Graphic-Style-155{fill:#152a52;}.cls-2{fill:#a7505c;}.cls-3{fill:#bd7c85;}.cls-4{fill:#d3a7ad;}.Graphic-Style-154,.cls-14{fill:#fff;}.Graphic-Style-157{fill:#d1334a;}.Graphic-Style-156{fill:#eb485c;}.cls-5{fill:#912433;}.cls-6,.cls-9{fill:#1a1a1a;}.cls-10,.cls-16,.cls-18,.cls-19,.cls-7{fill:none;}.cls-7{stroke:#6a6ec6;stroke-dasharray:34.35635;}.cls-10,.cls-14,.cls-16,.cls-18,.cls-19,.cls-7,.cls-9{stroke-linecap:round;stroke-linejoin:round;}.cls-14,.cls-16,.cls-18,.cls-7,.cls-9{stroke-width:5.72606px;}.cls-8{fill:#471219;}.cls-14,.cls-9{stroke:#1a1a1a;}.Graphic-Style-162{fill:#d9d9d9;}.cls-10{stroke:#855b87;stroke-width:2.86303px;}.Graphic-Style-60{fill:#664708;}.Graphic-Style-153{fill:#ffb114;}.cls-11{fill:#bf850f;}.cls-12{fill:#ccb25a;}.Graphic-Style-160{fill:#ffde70;}.cls-13{fill:#404d66;}.cls-15{fill:#339e7e;}.cls-16{stroke:#10663f;}.cls-17{fill:#00593b;}.cls-18{stroke:#3dbe88;}.cls-19{stroke:#134411;stroke-width:8.58909px;}.Graphic-Style-147{fill:url(#linear-gradient-3);}</style><linearGradient id="linear-gradient" x1="900.8368" y1="1893.7802" x2="4928.93513" y2="1893.7802" gradientUnits="userSpaceOnUse"><stop offset="0" stop-color="#68b2fc"/><stop offset="1" stop-color="#529bf7"/></linearGradient><linearGradient id="linear-gradient-2" x1="975.76951" y1="2019.4232" x2="4715.04413" y2="2019.4232" gradientUnits="userSpaceOnUse"><stop offset="0" stop-color="#4085f0"/><stop offset="1" stop-color="#275dc9"/></linearGradient><linearGradient id="linear-gradient-3" x1="3927.09573" y1="416.40877" x2="4154.92539" y2="416.40877" gradientUnits="userSpaceOnUse"><stop offset="0" stop-color="#68b2fc"/><stop offset="1" stop-color="#ebf0f7"/></linearGradient></defs><title>4</title><path class="Graphic-Style-163" d="M1010.45263,1771.4136C823.02848,2194.77172,858.8655,2821.741,1251.687,3156.645c268.5978,228.99626,605.15856,237.08833,778.17675,241.24822,412.924,9.92807,464.97388-155.07169,832.64786-171.20836,594.26914-26.08157,726.15083,393.20811,1245.08013,342.41672,348.46558-34.10668,770.01235-270.254,817.08526-568.10046,66.50384-420.8-668.32042-623.92625-645.886-1159.54781,14.73377-351.79126,339.32176-445.69957,311.26937-840.47732-23.30859-328.01927-266.99744-538.96489-311.26937-575.8827-376.92572-314.31243-975.81874-252.86537-1245.08147,23.34656-152.31735,156.24755-59.98778,238.46125-194.54386,412.45642-342.93291,443.44946-1070.55752,74.81808-1587.4787,560.31821C1107.08894,1557.02252,1041.75639,1700.7026,1010.45263,1771.4136Z"/><path class="Graphic-Style-148" d="M4711.98806,2949.95c-6.57736,82.25734-22.70495,127.07033-36.3234,160.01148-98.54449,238.22971-315.147,457.60073-575.71368,555.11406a856.42091,856.42091,0,0,1-124.66072,36.3253c-156.183,32.72277-274.02119,9.8796-384.60108-36.3253-217.74851-90.90878-407.36068-272.34438-805.98929-298.29868-628.711-40.93761-832.92369,366.337-1322.91847,186.75735-203.61171-74.61569-449.03284-247.83628-482.46332-474.71253-7.06773-48.06072-3.16609-88.53441,8.05114-127.64352,25.70714-89.68062,89.78445-172.34724,147.58554-323.73461,168.65282-441.41658-47.73117-597.82553,62.24775-941.64682C1353.08439,1198.61188,1973.663,930.96159,2348.90305,853.1255c358.94858-74.47893,402.66751,43.53052,723.70831-62.27961,461.83312-152.17877,505.60668-440.598,848.20646-466.93428,344.4027-26.44554,717.45875,232.93493,723.70831,451.37779,4.61322,161.07591-193.48716,184.16494-272.35553,412.46042-86.59171,250.64725,125.75339,402.36194,225.6624,863.81089C4706.28484,2552.30951,4723.45047,2807.378,4711.98806,2949.95Z"/><path class="cls-1" d="M4193.27069,745.235c-12.85986,15.39577-22.33525,36.22926-22.33525,36.22926l10.17018,33.82617s4.73071,39.74025,15.13854,45.41738,5.67713,52.04023,5.67713,52.04023l35.76969,26.3586c9.38313-39.721,38.67605-77.523,53.535-116.52723C4306.09751,780.4427,4243.72738,744.77262,4193.27069,745.235Z"/><path class="Graphic-Style-159" d="M4216.11341,729.18743c-7.96559.9957-15.89624,7.73039-22.84272,16.04757,50.45669-.46238,112.82682,35.2077,97.95529,77.34441-14.85895,39.00423-44.15187,76.8062-53.535,116.52723l36.13595,26.62841s7.57-55.82557,14.19212-72.857c6.62355-17.03138,44.46922-42.57846,48.2535-77.58766C4340.05684,780.28159,4238.82053,726.34886,4216.11341,729.18743Z"/><path class="Graphic-Style-146" d="M3710.36805,1242.84247c-61.62222-4.80585-104.36914-15.28253-104.36914-15.28253s-173.9332,164.059,51.80013,252.01258c352.14-61.04765,504.85766-169.15635,576.91428-303.81516-79.64057,69.92263-164.17821,128.01884-258.4205,182.20844C3872.90924,1417.81959,3769.52985,1330.31059,3710.36805,1242.84247Z"/><path class="Graphic-Style-155" d="M4183.26268,896.61974s-1.56153,164.80449-148.69157,275.13176c-97.01586,72.74791-231.82984,78.295-324.20306,71.091,59.1618,87.46812,162.54119,174.97712,265.92477,115.12333,94.24229-54.1896,178.77993-112.28581,258.4205-182.20844,33.0786-61.81724,49.17056-129.22563,59.73077-200.25125C4272.545,939.28558,4183.26268,896.61974,4183.26268,896.61974Z"/><path class="cls-2" d="M4410.10636,2949.95H1038.29182q-26.72986,0-50.92258,1.22816a288.75871,288.75871,0,0,0-11.57168,80.95172H4326.31962Z"/><path class="cls-3" d="M1461.78142,3553.53424c489.99478,179.57962,694.20746-227.695,1322.91847-186.75735,398.62861,25.9543,588.24078,207.3899,805.98929,298.29868h90.31213L4159.6989,3195.556H1016.38372C1099.55216,3364.70552,1294.725,3492.31439,1461.78142,3553.53424Z"/><path class="cls-4" d="M975.79756,3032.12991a320.84,320.84,0,0,0,3.52054,46.6918c6.00171,40.73122,18.86727,79.7219,37.06562,116.73432H4159.6989l166.62072-163.42612Z"/><polygon class="Graphic-Style-154" points="5249.577 2949.95 4509.945 2949.95 3776.87 3665.076 4534.466 3665.076 5249.577 2949.95"/><polygon class="Graphic-Style-155" points="4410.106 2949.95 3681.001 3665.076 3776.87 3665.076 4509.945 2949.95 4410.106 2949.95"/><path class="Graphic-Style-157" d="M2693.65592,1655.72079c-146.01447-45.80846-297.755-45.80846-443.76946-94.48-25.76726-8.58909-51.53452-17.17817-77.30178-20.0412-20.0412,0-37.21937-17.17818-57.26057-20.0412-283.43985-77.30178-555.42759-197.549-724.34629-446.63249-66.61854-99.92782-122.87677-206.75073-143.445-321.793-40.73385-4.68143-87.33636-20.9324-138.49342-56.88207,0,0,78.00635,827.17242,1742.10688,1022.59405,6.66689-13.12268,12.27831-25.012,17.0202-35.712C2808.34762,1678.46286,2747.95561,1672.42855,2693.65592,1655.72079Z"/><path class="Graphic-Style-156" d="M1390.97782,808.26427c14.31515,48.67149,40.08241,97.343,74.43875,134.56235,2.863,5.72606,2.863,14.31515,5.72606,20.0412a178.11813,178.11813,0,0,0,34.854,34.56255c-105.289-180.12338-83.62616-301.57947-83.62616-301.57947s-15.899,16.48373-44.69708,31.93332c.90448,14.22358,2.61419,28.54851,4.71533,43.26067A88.16069,88.16069,0,0,0,1390.97782,808.26427Z"/><path class="Graphic-Style-157" d="M1533.5519,1041.43685q-15.06654-22.53271-27.55525-44.00648a178.11813,178.11813,0,0,1-34.854-34.56255c-2.863-5.72605-2.863-14.31514-5.72606-20.0412-34.35634-37.21937-60.1236-85.89086-74.43875-134.56235a88.16069,88.16069,0,0,1-8.58908-37.21938c-2.10114-14.71216-3.81085-29.03709-4.71533-43.26067a219.62357,219.62357,0,0,1-130.1406,24.94875c20.56824,115.04225,76.82647,221.86516,143.445,321.793,168.9187,249.0835,440.90644,369.33071,724.34629,446.63249,20.0412,2.863,37.21937,20.0412,57.26057,20.0412,25.76726,2.863,51.53452,11.45211,77.30178,20.0412,146.01447,48.67149,297.755,48.67149,443.76946,94.48,54.29969,16.70776,114.6917,22.74207,174.51055,27.01214,21.435-48.36813,24.83622-72.10694,24.83622-72.10694S1922.689,1508.31954,1533.5519,1041.43685Z"/><path class="cls-5" d="M1865.75481,2556.72043c-22.95281-23.34474-56.947-55.2881-83.14846-68.72258-9.16779,8.537-20.92869,14.03532-30.18444,23.29209-8.187,8.18752-13.64509,19.10422-16.37411,30.02091-16.37411,76.41688-70.95448,128.27118-130.9929,171.938-57.08552,41.34022-72.98925,106.81957-76.39919,172.88094,29.766,1.75071,63.48566-57.2152,131.302-102.83492,37.496-25.2232,81.8679-48.738,116.7415-65.89546C1766.74127,2656.82518,1813.517,2592.84017,1865.75481,2556.72043Z"/><path class="cls-6" d="M1891.346,2583.90173s-10.37373-11.70477-25.59121-27.1813c-52.23779,36.11974-99.01354,100.10475-89.05556,160.67895,34.5085-16.97821,59.71461-27.73133,59.71461-27.73133Z"/><path class="Graphic-Style-154" d="M1751.06673,2485.53769c-28.88922,27.37969-46.7571,111.814-125.36829,177.85006-78.61386,66.03605-138.09261,204.22914-105.88806,220.337a22.50149,22.50149,0,0,0,8.84533,2.405c3.40994-66.06137,19.31367-131.54072,76.39919-172.88094,60.03842-43.66679,114.61879-95.52109,130.9929-171.938,2.729-10.91669,8.18706-21.83339,16.37411-30.02091,9.25575-9.25677,21.01665-14.7551,30.18444-23.29209C1769.21311,2481.13043,1757.85863,2479.10021,1751.06673,2485.53769Z"/><path class="Graphic-Style-146" d="M2184.0368,2611.9724c131.69932,8.58909,260.53562,8.58909,392.23494,22.90423,2.863-42.94543-5.72606-85.89086,5.72606-125.97326,45.80846-134.56236,111.65812-254.80957,183.23384-380.78283,65.84966-117.38418,105.93206-234.76836,180.37081-352.15254a223.10454,223.10454,0,0,1,55.611-57.89525c-113.0421-47.3983-229.49943-53.5371-229.49943-53.5371s-215.626,232.48408-195.4115,478.44594c-60.64365,286.39357-104.44324,427.9059-104.44324,427.9059s-458.05245-23.58539-594.57894,0c-11.13478,12.365-20.5277,23.64235-28.45554,33.94814C1960.64646,2601.06881,2071.45881,2602.9662,2184.0368,2611.9724Z"/><path class="cls-6" d="M2691.00581,2211.57358s-176.04824-111.05721-78.08163-300.44513,78.08163-145.13741,78.08163-145.13741l-42.36464,179.23582s11.89577,240.7365,79.93309,274.46156C2702.7269,2223.8194,2691.00581,2211.57358,2691.00581,2211.57358Z"/><path class="Graphic-Style-155" d="M3001.21343,1718.07275a223.10454,223.10454,0,0,0-55.611,57.89525c-74.43875,117.38418-114.52115,234.76836-180.37081,352.15254-71.57572,125.97326-137.42538,246.22047-183.23384,380.78283-11.45212,40.0824-2.863,83.02783-5.72606,125.97326-131.69932-14.31514-260.53562-14.31514-392.23494-22.90423-112.578-9.0062-223.39034-10.90359-335.212-7.13677-67.68519,87.98221-27.21,104.19457-27.21,104.19457s724.36585,144.88159,805.22545,77.49487,522.21756-747.993,522.21756-967C3109.56677,1773.44957,3055.78712,1740.956,3001.21343,1718.07275Z"/><path class="cls-7" d="M1876.57588,2631.86328c196.54309,31.9885,639.78936,94.71357,723.30091,25.18,107.97187-89.89982,211.74119-475.31434,211.74119-475.31434"/><path class="cls-6" d="M3514.01814,3156.99845c-17.34019-12.06906-28.04573-20.06236-28.04573-20.06236l-119.04278,5.6156s-3.787,11.44224-8.59614,28.40479C3410.27146,3182.57213,3463.91373,3175.42787,3514.01814,3156.99845Z"/><path class="Graphic-Style-154" d="M3624.52874,3313.6671c-90.05761-27.29174-180.11523-5.45835-272.90187-16.375a49.82007,49.82007,0,0,1-11.65163-1.547c1.90952,9.18914,5.76452,15.58114,12.35521,17.51975,38.18227,11.23119,120.16477-15.72357,216.74778,19.09289,95.50366,34.428,242.5975,17.23857,243.69817-17.899C3757.16065,3338.80418,3683.29725,3331.47686,3624.52874,3313.6671Z"/><path class="cls-5" d="M3446.63249,3259.01691c94.47995,20.0412,186.09687,42.94543,280.57682,34.35634,12.05743-1.096,20.74717-7.65734,26.73185-16.93265-27.607-7.58046-62.317-16.396-98.38865-33.93189-52.79269-25.66434-108.91951-62.80909-141.534-85.51027-50.1044,18.42935-103.747,25.57364-155.68557,13.958-6.07415,21.42605-13.76715,51.64985-17.54165,78.79183C3375.68585,3245.36422,3414.05435,3252.90833,3446.63249,3259.01691Z"/><path class="cls-8" d="M3753.94116,3276.4406c-5.98468,9.27531-14.67442,15.83665-26.73185,16.93265-94.48,8.58909-186.09687-14.31514-280.57682-34.35634-32.57814-6.10858-70.94664-13.65269-105.8412-9.26867-2.4702,17.76409-3.26564,34.2113-.81641,45.99683a49.82912,49.82912,0,0,0,11.652,1.547c92.787,10.9167,182.84381-10.91669,272.902,16.37505,58.76758,17.8097,132.63176,25.13712,188.24694.79159.014-.39667.02935-.79282.00419-1.19386C3811.53585,3293.35822,3788.21922,3285.85256,3753.94116,3276.4406Z"/><path class="Graphic-Style-146" d="M3389.37191,2620.56149c-11.45211-68.71269-8.58908-131.69933-8.58908-197.549-114.52115-28.63029-231.90533-48.67149-337.8374-105.93206-114.52115-60.12361-254.80956-111.65812-292.02893-243.35745-25.76726-85.89086,31.49331-168.9187,77.30177-243.35745,18.58453-26.84508,28.27381-56.64337,45.0997-81.92624L2768.3449,1718.445s-289.74746,333.56453-53.90686,491.92336,609.81535,266.17762,609.81535,266.17762-45.48274,545.83284,37.903,680.60629c25.60369,2.19078,46.78423,3.12916,64.34265,3.17442C3437.56111,2980.02048,3423.31726,2803.86645,3389.37191,2620.56149Z"/><path class="Graphic-Style-155" d="M3563.46308,2291.23245c-97.70505-128.03492-421.14343-303.24026-414.40525-330.19508S3122.1051,1819.525,3122.1051,1819.525L2873.318,1748.4393c-16.82589,25.28287-26.51517,55.08116-45.0997,81.92624-45.80846,74.43875-103.069,157.46659-77.30177,243.35745,37.21937,131.69933,177.50778,183.23384,292.02893,243.35745,105.93207,57.26057,223.31625,77.30177,337.8374,105.93206,0,65.84966-2.863,128.8363,8.58908,197.549,33.94535,183.305,48.1892,359.459,37.12711,539.76515,90.45661.23329,84.18116-23.39054,84.18116-23.39054S3661.16813,2419.26718,3563.46308,2291.23245Z"/><path class="cls-7" d="M2833.978,1997.09734s284.0341,254.21851,547.31686,329.44643c116.72634,32.42583,54.881,850.05207,54.881,850.05207"/><path class="cls-9" d="M2691.00581,1771.41836s230.10026,197.46851,418.20557,199.41406c67.4881-73.93089-384.97766-247.466-384.97766-247.466Z"/><path class="cls-6" d="M3455.65019,1189.45894s161.719-36.73262,230.78651,82.71382,60.64463,367.09277-67.38292,458.06489-321.75345,15.162-321.75345,15.162Z"/><path class="Graphic-Style-155" d="M3410.16672,1272.17276s316.64174,103.59072,316.67073,237.86875c21.92845-160.539-21.99266-330.09011-185.274-339.11393-112.86639-15.162-116.23374-6.73868-116.23374-6.73868Z"/><path class="Graphic-Style-154" d="M3428.69662,1155.76579s-9.78434-35.33353-53.44413-49.24955a236.25092,236.25092,0,0,1,39.88668,73.94177c22.90423,60.12361,2.863,128.8363-31.49331,188.9599-124.00354,217.00549-320.27758,389.699-563.56653,436.09045,107.12872,49.51586,250.26758,97.00991,342.45487,101.61935,168.45737,8.42343,316.70019-389.15838,353.7602-535.72469C3553.3558,1224.83705,3452.28026,1177.66628,3428.69662,1155.76579Z"/><path class="Graphic-Style-162" d="M3383.64586,1369.41791c34.35634-60.1236,54.39754-128.83629,31.49331-188.9599a236.25092,236.25092,0,0,0-39.88668-73.94177c-21.6908-6.914-51.73583-8.54575-93.11275,2.07877-124.65918,32.00847-582.86261,547.51721-604.7617,593.00344-9.91576,20.59409,54.069,62.944,142.70129,103.90991C3063.36828,1759.117,3259.64232,1586.4234,3383.64586,1369.41791Z"/><path class="cls-10" d="M3461.7063,1290.86277s-4.8636,122.56964-35.99062,194.555-144.93521,340.47121-263.607,374.51833"/><path class="cls-1" d="M3731.07788,893.238c2.83742,8.59872,26.95317,304.36351-38.18365,308.856s-106.68963-30.324-106.68963-30.324-92.93228,81.14489-101.91666,100.2378c-31.44537,5.61556-122.13155-133.93118-122.13155-133.93118s47.89394-13.06152,68.22521-74.12543c26.68031-80.13291,51.26019-193.0254,80.57874-217.88384C3562.62058,802.26587,3694.01728,780.92673,3731.07788,893.238Z"/><path class="Graphic-Style-159" d="M3524.37712,1115.0619s39.63239,43.00253,61.82748,56.708l-40.62173,36.50846S3518.41358,1133.43064,3524.37712,1115.0619Z"/><path class="Graphic-Style-154" d="M3352.76171,1114.79051l41.82694-26.26492s28.20887,104.08691,49.6087,131.32461l12.64535,61.28482S3364.33856,1190.77437,3352.76171,1114.79051Z"/><path class="cls-9" d="M3593.78518,995.722s-42.11432-26.49666-43.7989,24.65672l9.26515,37.676s-45.48347,13.47735-77.49035,10.95035-51.37948-7.387-55.59091-39.91389,6.73829-179.09307,48.01033-207.73244,74.9635-16.84669,134.76584-16.00435c136.45041-15.162,177.72245-32.851,177.72245-32.851s-18.5303,153.62049-85.91322,148.40868c-67.38292,3.21152-74.9635-9.42349-68.22521,29.32389s2.52686,88.06082-5.896,91.20114-20.63512-10.337-20.63512-10.337S3609.78863,1006.67236,3593.78518,995.722Z"/><path class="Graphic-Style-60" d="M1995.96519,1026.58515l16.00345-10.95035s59.16342,15.162,63.69431,35.37805,6.777,320.92943,37.09931,524.2128c39.3067,169.59,34.8145,175.20557-12.35354,202.16027s-400.92838,134.77351-400.92838,134.77351-85.3517,19.09292-84.22865-24.70847C1670.28108,1794.23261,1995.96519,1026.58515,1995.96519,1026.58515Z"/><path class="Graphic-Style-153" d="M1697.3219,1861.85886c-57.26057-223.31624-54.39754-449.49552-42.94543-678.53782,0-27.298,10.39945-51.999,16.33241-79.05482-33.55532,12.33493-55.45721,20.83245-55.45721,20.83245s-32.00637,750.55949,0,762.35236c8.68275,3.19923,44.342-3.65673,92.11041-16.00249C1702.177,1868.84309,1698.57727,1865.62672,1697.3219,1861.85886Z"/><path class="cls-11" d="M2011.96849,1015.63465c-32.27059-20.88208-239.93244,51.38353-341.25961,88.63157-5.933,27.05583-16.33241,51.75679-16.33241,79.05482-11.45211,229.0423-14.31514,455.22158,42.94543,678.53782,1.25537,3.76786,4.85513,6.98423,10.04018,9.58968,128.31066-33.16214,344.16038-106.01105,360.50676-130.56383C2090.30056,1707.19135,2054.9251,1043.43175,2011.96849,1015.63465Z"/><path class="cls-12" d="M1869.10363,1738.74862c-22.90423,5.72606-57.26058,8.58909-65.84966-5.726-85.89087-157.46659-100.206-340.70043-83.02784-518.20821,5.29269-47.64119,10.52667-95.28238,11.29694-142.92358-27.88517,8.67227-28.11164,8.04214-28.11164,8.04214s-19.092,13.47741-16.84546,47.73241c2.24513,34.255-5.86865,693.7564,9.5453,718.23054,15.41394,24.47379,352.38041-146.12176,393.5001-135.95508,41.11969,10.16634,54.93017,20.83665,40.72546,45.264,17.93028-4.42945,20.11669-23.42008,18.57055-51.73093C2072.51987,1652.35589,1958.5621,1716.98863,1869.10363,1738.74862Z"/><path class="Graphic-Style-160" d="M2144.20743,1615.658c1.12256-74.12561-60.64505-560.43369-60.64505-560.43369s15.72289-105.57209-164.729-44.92425c-106.17671,35.68511-160.00389,53.09814-187.31031,61.59076-.77027,47.6412-6.00425,95.28239-11.29694,142.92358-17.17817,177.50778-2.863,360.74162,83.02784,518.20821,8.58908,14.31514,42.94543,11.45211,65.84966,5.726,89.45847-21.76,203.41624-86.39273,279.80375-35.2748C2147.61147,1679.7392,2143.69577,1649.46141,2144.20743,1615.658Z"/><path class="cls-13" d="M2178.74131,1430.0633c-2.52752-76.65242-7.65385-178.67753-51.83648-198.00017-44.184-19.322-59.036-21.60238-59.036-21.60238a47.00341,47.00341,0,0,0-4.6636,9.91051c89.13693,33.2198,85.90764,157.12338,66.434,237.80054-7.08348,23.02306-27.3176,36.1765-50.528,41.51357-1.31968,27.4885,3.04476,22.39537,6.23212,28.55585C2112.20106,1532.82793,2181.26883,1506.71573,2178.74131,1430.0633Z"/><path class="Graphic-Style-146" d="M2129.63925,1458.1718c19.47363-80.67716,22.70292-204.58074-66.434-237.80054-3.734,11.35705-1.493,21.97773,4.6636,33.77759,0,0,52.75494-3.5026,48.54288,86.62689-4.21066,90.13019,1.68455,113.71523-34.53389,125.50774-1.51958,14.637-2.38352,25.39051-2.76656,33.40189C2102.32165,1494.3483,2122.55577,1481.19486,2129.63925,1458.1718Z"/><path class="cls-1" d="M2209.80406,1420.95243c5.72605,2.863,14.31514,0,20.0412,0,31.42342-8.72888,55.39988-31.28362,81.65783-47.56745-8.21024-34.00441-32.52781-76.10722-32.52781-76.10722-13.47637,18.5314-56.433-11.79287-84.22729-29.48164-27.7957-17.68913-90.96826,16.00423-91.80984,20.63708-.657,3.61373-1.31408,59.75524,2.02705,91.47747,26.3572,6.96815,52.7144,8.55309,79.0716,18.13753C2195.48891,1400.91123,2198.35194,1415.22637,2209.80406,1420.95243Z"/><path class="Graphic-Style-159" d="M2229.84526,1420.95243c-5.72606,0-14.31515,2.863-20.0412,0-11.45212-5.72606-14.31515-20.0412-25.76726-22.90423-26.3572-9.58444-52.7144-11.16938-79.0716-18.13753.94223,8.94627,2.20179,15.95426,3.86956,19.28945,7.57976,15.16231,70.75092,27.7971,94.336,37.0628,0,3.39705-26.86746-1.95889-27.37492,3.79058,0,28.21789.42079,43.80133-32.42855,67.80786,21.05752,24.80266,36.21843,1.68489,72.43686-21.05857,36.21844-22.74277,68.2262-74.96753,96.86348-83.391,2.57365-7.72409,1.64121-18.40453-1.1645-30.02685C2285.24514,1389.66881,2261.26868,1412.22355,2229.84526,1420.95243Z"/><path class="cls-5" d="M1886.2818,1993.55819c-88.75389,2.863-183.23384,11.45211-271.98773,37.21937-94.47995,28.63029-188.9599,71.57572-277.71379,125.97327-11.45212,5.72605-28.63029,5.72605-40.08241,14.31514-60.1236,37.21937-120.24721,68.71269-171.78172,117.38418-5.72606,2.863-14.31515,0-17.17818,2.863-48.67149,57.26057-97.343,114.52115-148.87749,166.05567-11.56955,13.22159-22.18568,29.30568-32.9472,45.49794,4.18131,38.36535,12.2154,69.00486,26.66195,78.12867,0,0,414.83862-476.80805,995.7986-534.06339,243.95857-24.04252,494.18561-28.18608,710.266-31.07777-28.03895-7.80553-56.06532-14.79884-85.03112-19.43309C2341.50338,1953.47578,2115.32411,1982.10607,1886.2818,1993.55819Z"/><path class="Graphic-Style-157" d="M2785.27284,1873.311c-80.1648-17.17818-151.74052-28.63029-231.90533-40.08241-14.31514,0-25.76726-11.45211-40.0824-14.31514-11.45212-2.545-22.86789-4.60909-34.2543-6.33347-235.48691.93139-466.9379,9.01931-599.223,36.00873C1485.54165,1929.02855,927.10565,2282.809,927.10565,2282.809s-11.10961,130.91157-1.39237,220.05777c10.76152-16.19226,21.37765-32.27635,32.9472-45.49794,51.53452-51.53452,100.206-108.7951,148.87749-166.05567,2.863-2.863,11.45212,0,17.17818-2.863,51.53451-48.67149,111.65812-80.16481,171.78172-117.38418,11.45212-8.58909,28.63029-8.58909,40.08241-14.31514,88.75389-54.39755,183.23384-97.343,277.71379-125.97327,88.75389-25.76726,183.23384-34.35635,271.98773-37.21937,229.04231-11.45212,455.22158-40.08241,687.12691,2.863,28.9658,4.63425,56.99217,11.62756,85.03112,19.43309,298.49172-3.995,531.81458-5.60129,593.37669-53.97466,42.2143-33.16948,70.00022-68.32091,88.2003-98.65077a331.58356,331.58356,0,0,1-56.577,18.67119C3117.38418,1921.98247,2957.05457,1904.80429,2785.27284,1873.311Z"/><path class="Graphic-Style-156" d="M3239.18313,1817.84049c-67.58873,7.13206-418.12662-6.61306-760.15232-5.26053,11.38641,1.72438,22.80218,3.78848,34.2543,6.33347,14.31514,2.863,25.76726,14.31514,40.0824,14.31514,80.16481,11.45212,151.74053,22.90423,231.90533,40.08241,171.78173,31.49331,332.11134,48.67149,498.167,8.58908a331.58356,331.58356,0,0,0,56.577-18.67119c27.55526-45.921,33.08979-80.76663,33.08979-80.76663S3353.30586,1805.79774,3239.18313,1817.84049Z"/><path class="Graphic-Style-146" d="M2925.56125,1418.0894c111.65812-77.30178,146.01447-211.86413,223.31625-323.52225,24.737-39.16639,59.86358-63.48885,100.03685-78.31425-38.73616-6.13007-125.33859,4.41966-221.14521,174.89044L2918.27087,1371.403s-26.38655-12.01829-66.32636-27.85512C2880.66706,1364.02317,2905.90309,1387.70956,2925.56125,1418.0894Z"/><path class="Graphic-Style-155" d="M3270.34653,1022.67689s-7.72375-4.25471-21.43218-6.424c-40.17327,14.8254-75.29989,39.14786-100.03685,78.31425-77.30178,111.65812-111.65813,246.22047-223.31625,323.52225-19.65816-30.37984-44.89419-54.06623-73.61674-74.5415-62.23453-24.67755-157.37852-58.62638-236.89047-70.82921-34.6639,96.69922-62.3953,192.34437-44.50836,297.11124,5.72606,37.21937,42.94543,57.26057,77.30178,62.98663,206.13807,48.67149,377.9198-42.94543,543.97547-151.74053,91.22409-61.47683,171.44342-143.56384,206.43444-242.44387C3408.26818,1053.8284,3270.34653,1022.67689,3270.34653,1022.67689Z"/><path class="Graphic-Style-146" d="M3191.82293,1481.076c-166.05567,108.7951-337.8374,200.412-543.97547,151.74053-34.35635-5.72606-71.57572-25.76726-77.30178-62.98663-17.88694-104.76687,9.84446-200.412,44.50836-297.11124-63.34591-9.72213-116.77467-5.64707-135.72686,27.92851-4.33788,7.68671-111.40509,448.32822,46.973,464.502,158.37806,16.17443,795.3754-203.26246,858.657-441.02176,7.7545-31.6429,11.92043-60.01632,13.30022-85.49524C3363.26635,1337.51219,3283.047,1419.5992,3191.82293,1481.076Z"/><path class="cls-6" d="M2459.8228,1388.909s3.22276-14.87354,5.1132-15.524,107.47515-38.13176,129.00727-38.015c-5.21632,17.47215-9.05309,31.24151-9.05309,31.24151C2557.63549,1365.26212,2509.84192,1376.40738,2459.8228,1388.909Z"/><path class="cls-6" d="M2707.82933,1399.26711s-38.77845,133.70012,0,183.18541l-36.73748-3.58s-22.11062-91.84369,5.27246-171.44156Z"/><path class="Graphic-Style-146" d="M2593.44991,1294.97916c-106.36823,25.32585-214.962,39.48268-305.99459,93.92985,4.29035,19.16748,5.905,37.79184,2.4702,53.25017,215.75606-92.01883,409.87724-161.61189,773.65944-144.08143a147.04412,147.04412,0,0,0-54.99587-14.5507C2868.30068,1269.2119,2733.73832,1263.48585,2593.44991,1294.97916Z"/><path class="Graphic-Style-155" d="M3383.84716,1130.38017c-16.63716-73.168-40.51717-130.6893-162.80261-114.74552-60.22845,7.85305-239.4767,65.25622-310.35343,74.429-214.78308,27.7971-671.30337,182.10918-671.30337,182.10918s35.52505,60.70166,48.06757,116.73622c91.03258-54.44717,199.62636-68.604,305.99459-93.92985,140.28841-31.49331,274.85077-25.76726,415.13918-11.45211a147.04412,147.04412,0,0,1,54.99587,14.5507q33.75243,1.62618,69.469,4.254Z"/><path class="Graphic-Style-154" d="M3472.40622,1281.135s17.41552-15.65389,31.54863-42.19792c.68576-1.288,12.79639-4.00282,31.51587-21.27261-12.48309,31.73527-12.96945,37.93519-19.29213,42.79906S3472.40622,1281.135,3472.40622,1281.135Z"/><path class="Graphic-Style-153" d="M5024.03591,3012.50271l-78.63454,73.78333-43.35254.19429,60.10312-56.28617-133.55545.16765-56.28216,52.394-43.61506.18477,56.53126-52.52432-186.11141.23363,19.589-18.051Z"/><path class="Graphic-Style-153" d="M4899.43053,3129.4208l-410.59235,2.8516,19.78033-18.22733,409.78839-2.42993Z"/><path class="Graphic-Style-153" d="M4454.20006,3164.191l412.002-3.5917-20.819,19.53463-254.96983,47.11184c-60.08069,11.09357-113.05843,19.87486-163.48956,27.2108l.16741.41514c58.05964-2.46026,109.43631-3.57607,174.21765-4.46064l171.67482-2.34417-18.117,16.99927-416.74295,6.08785,20.27109-18.67956,261.58932-47.64828c56.40469-10.28436,113.2375-20.10633,164.88169-27.57171l.0587-.61451c-52.48378,1.52851-102.17271,2.42028-170.72036,3.08337l-178.736,1.729Z"/><path class="Graphic-Style-153" d="M4701.88671,3314.77754l-419.00854,7.28448,20.14015-18.55891,418.18192-6.84759Z"/><path class="Graphic-Style-153" d="M4317.82456,3350.713c-24.24027,8.6174-50.16871,21.05862-64.0896,33.90819-20.68183,19.09019-2.74884,29.58572,40.52594,28.61409,39.91061-.8961,70.90542-9.08161,113.7509-28.91792,49.48375-23.82524,100.38438-38.88155,159.1281-39.9928,64.48176-1.2198,92.69417,16.07333,63.4468,43.52433-15.43631,14.48821-36.45323,25.22441-53.63438,31.78058l-38.35969-4.053c12.3657-4.8111,34.81906-14.57271,48.52357-27.411,20.63858-19.334-5.28939-26.00781-33.63158-25.44273-38.96566.77689-67.49892,9.82656-111.07819,29.99088-53.59876,24.83848-101.5491,38.00772-164.28129,39.48086-66.374,1.55866-106.18186-13.69043-69.04383-47.90336,15.14725-13.95419,43.80525-29.408,67.45821-37.39969Z"/><path class="Graphic-Style-153" d="M4538.07026,3468.48766l-175.81071,4.54764-75.03133,69.876,177.11877-5.24855-19.982,18.74928-430.10907,13.18215,20.84858-19.21172,203.78585-6.03877,75.39027-70.0673-202.26332,5.23188,20.44112-18.83625,425.20723-10.57079Z"/><path class="Graphic-Style-153" d="M5024.03591,3012.50271l-78.63454,73.78333-43.35254.19429,60.10312-56.28617-133.55545.16765-56.28216,52.394-43.61506.18477,56.53126-52.52432-186.11141.23363,19.589-18.051Z"/><path class="Graphic-Style-153" d="M4899.43053,3129.4208l-410.59235,2.8516,19.78033-18.22733,409.78839-2.42993Z"/><path class="Graphic-Style-153" d="M4454.20006,3164.191l412.002-3.5917-20.819,19.53463-254.96983,47.11184c-60.08069,11.09357-113.05843,19.87486-163.48956,27.2108l.16741.41514c58.05964-2.46026,109.43631-3.57607,174.21765-4.46064l171.67482-2.34417-18.117,16.99927-416.74295,6.08785,20.27109-18.67956,261.58932-47.64828c56.40469-10.28436,113.2375-20.10633,164.88169-27.57171l.0587-.61451c-52.48378,1.52851-102.17271,2.42028-170.72036,3.08337l-178.736,1.729Z"/><path class="Graphic-Style-153" d="M4701.88671,3314.77754l-419.00854,7.28448,20.14015-18.55891,418.18192-6.84759Z"/><path class="Graphic-Style-153" d="M4317.82456,3350.713c-24.24027,8.6174-50.16871,21.05862-64.0896,33.90819-20.68183,19.09019-2.74884,29.58572,40.52594,28.61409,39.91061-.8961,70.90542-9.08161,113.7509-28.91792,49.48375-23.82524,100.38438-38.88155,159.1281-39.9928,64.48176-1.2198,92.69417,16.07333,63.4468,43.52433-15.43631,14.48821-36.45323,25.22441-53.63438,31.78058l-38.35969-4.053c12.3657-4.8111,34.81906-14.57271,48.52357-27.411,20.63858-19.334-5.28939-26.00781-33.63158-25.44273-38.96566.77689-67.49892,9.82656-111.07819,29.99088-53.59876,24.83848-101.5491,38.00772-164.28129,39.48086-66.374,1.55866-106.18186-13.69043-69.04383-47.90336,15.14725-13.95419,43.80525-29.408,67.45821-37.39969Z"/><path class="Graphic-Style-153" d="M4538.07026,3468.48766l-175.81071,4.54764-75.03133,69.876,177.11877-5.24855-19.982,18.74928-430.10907,13.18215,20.84858-19.21172,203.78585-6.03877,75.39027-70.0673-202.26332,5.23188,20.44112-18.83625,425.20723-10.57079Z"/><path class="cls-14" d="M4958.0285,2652.15442c-21.84791,40.844-303.45771,37.35969-445.4151,32.95813q-2.27938-9.235-4.34835-18.39153-3.8124-16.50537-7.0735-32.74865C4609.64381,2626.76767,4983.09786,2605.2583,4958.0285,2652.15442Z"/><path class="cls-15" d="M4979.78817,2280.92364c5.37125,24.248,23.52682,42.80074,37.27729,53.63949q12.9747,1.69552,26.45214,2.57122c39.40643,2.57125,77.09558-14.54822,110.41468-39.53351-23.4001-5.72312-74.47176-20.10111-87.91928-39.4981-17.63236-25.39623-1.25566-29.85668,7.52073-18.936,9.07472,16.25631,70.55973,35.91088,98.20062,44.05282a441.96245,441.96245,0,0,0,45.10111-45.84807c-22.75071-1.09476-53.34032-8.6212-61.94785-19.88688-11.16111-14.60629,2.48507-22.71017,13.50862-13.43507,8.08706,6.81139,46.19768,10.45879,65.87251,11.92958a620.67323,620.67323,0,0,0,47.04893-69.74261c.72952-1.283,1.11529-1.98536,1.11529-1.98536a736.74624,736.74624,0,0,0-67.60941-68.77217c-15.7505,3.33322-39.60056,8.97379-52.16727,14.91915-19.77108,9.35147-32.64635,19.39541-38.61149,11.92931-9.70257-17.6581,44.97205-33.79233,74.38011-41.05445a502.2731,502.2731,0,0,0-58.63706-42.79067c-92.22989,7.53774-88.20429,70.25172-108.59123,49.51644-17.66557-17.973,56.05019-49.96058,86.36857-62.098-20.59413-10.62034-41.69023-18.509-62.36021-21.73733-18.98861-2.18585-36.36866-3.49193-52.25049-4.00894-43.89366,29.10438-18.37513,78.71381-43.18661,69.36683-19.3777-7.2996,4.72038-48.33057,18.85012-69.564-214.51188,4.28178-109.80909,172.296-109.80909,172.296-.32127.68655-.618,1.36576-.9279,2.04851-41.60075,91.72647,18.3086,151.10037,112.5961,173.60784-5.43931-17.205-15.2292-48.76588-16.04792-54.962C4963.2609,2264.331,4976.56815,2259.81235,4979.78817,2280.92364Z"/><path class="cls-16" d="M5241.7422,2147.228s-259.28395,18.04839-372.94,5.0238"/><path class="cls-16" d="M5134.449,2214.23876s-43.36772-21.26283-77.7398-58.31813"/><path class="cls-16" d="M5082.65063,2087.70144s-62.70283,42.01373-64.10625,69.00129"/><path class="cls-16" d="M5026.43224,2263.664s-53.737-70.95826-62.86145-106.77581"/><path class="cls-16" d="M4921.83077,2075.22524s-35.12817,40.90231-21.74212,79.66644"/><path class="cls-17" d="M4305.22063,2166.02819q22.20045-4.7104,43.69429-7.89346c24.16136,11.253,56.71021,32.965,69.1986,69.70384,8.4892,32.64944,29.58432,19.28614,26.35857,5.89358-2.28458-9.64006-23.12122-56.18423-34.648-81.51034,158.954-6.62347,266.524,63.0951,209.575,233.00186,0,0,197.00751,223.82435-153.49535,328.45228,19.89414-40.75021,53.08825-118.03407,20.25441-121.00383-42.04075-3.80338,7.29468,64.74342-60.12347,131.77019-26.07714,6.3982-54.72725,12.20418-86.14463,17.32033-34.32887,4.19846-70.06543,1.05945-105.39686-6.72372,47.78082-33.42351,163.578-118.693,131.91968-139.69172-36.53379-24.22258-20.38445,75.29119-170.21585,129.48212-35.95357-11.17483-70.77059-26.28-102.51091-42.44263,47.034-25.13093,134.07718-76.108,115.50219-100.22427-10.90256-9.34871-30.44857,12.74757-61.38851,36.86521-19.66545,15.33174-57.84838,35.31044-83.12388,47.87154-71.44878-39.8765-121.15881-80.34189-121.15881-80.34189s24.58628-61.57706,67.91145-137.85289c32.43212-6.58537,95.37489-18.04961,109.65186-10.72625,19.45912,9.96829,40.56278-9.344,20.06575-27.86414-15.80764-14.285-67.02983-12.51436-104.43981-3.92169,19.66668-31.52921,42.06005-64.02152,66.842-94.63423,46.48879.56681,150.13587,4.324,167.46908,26.46111,16.031,13.65067,42.16012-1.01734,9.42508-34.02708-24.97049-25.22049-110.76589-25.19313-149.94434-23.78344C4181.23324,2224.65488,4240.3209,2179.8226,4305.22063,2166.02819Z"/><path class="cls-18" d="M4009.6742,2563.21184s421.696-147.26813,609.73587-177.98931"/><path class="cls-18" d="M4175.09881,2406.04956s74.23378,14.60775,136.1489,58.834"/><path class="cls-18" d="M4279.17989,2586.94378s96.24043-96.45592,94.42428-140.70783"/><path class="cls-18" d="M4344.38829,2276.97634s98.783,90.19387,119.1792,143.91994"/><path class="cls-18" d="M4544.34317,2533.85373s51.27021-82.09985,23.4487-138.64657"/><path class="cls-19" d="M4867.881,2154.30177s-131.51851,39.12935-101.85016,322.93879"/><path class="cls-6" d="M4730.70868,2497.78466S4592.058,2341.626,4849.55529,2184.382c-35.69337,61.27053-166.40918,130.2451-73.97316,286.25767,38.27979,88.77732-18.05415,126.52926-18.05415,126.52926S4673.69983,2604.24046,4730.70868,2497.78466Z"/><path class="cls-15" d="M4522.37321,2686.33906q-2.32006-16.39476-3.229-32.36054c13.37715-18.94724,37.75963-44.9137,74.69519-56.792,32.55946-8.592,21.7265-23.57122,8.39686-20.23992-9.591,2.36979-56.89334,21.19367-82.65117,31.57852,9.70128-119.21289,88.30495-204.89152,247.48052-173.47656,0,0,237.295-163.39705,303.30237,93.4046-37.54362-12.22862-109.20642-32.00611-115.42183-7.0888-7.95912,31.90443,63.5969-9.85665,121.82824,36.376a599.27456,599.27456,0,0,1,8.073,63.68128c.59218,25.55945-6.08213,52.67333-17.22415,79.79536-27.60033-33.71552-98.633-115.13761-122.23255-89.88962-27.22435,29.13557,71.0282,10.26882,108.43394,119.40708-14.498,27.819-32.69638,55.04751-51.60922,80.03116-19.6252-33.71244-60.28294-95.80084-85.58146-80.1917-10.18273,8.83769,9.28594,22.062,29.56072,43.72723,12.88914,13.77029,28.41053,41.16708,38.04043,59.34738a974.04121,974.04121,0,0,1-90.29648,96.62449,1144.18766,1144.18766,0,0,1-126.9433-41.82864c-3.102-23.97066-7.84429-70.58058.71456-81.822,11.65262-15.32079-4.95507-29.90537-25.01568-13.22664-15.473,12.863-18.95229,51.30336-14.40666,78.886-28.61443-12.67911-57.88718-27.34592-85.09271-43.93757,5.26829-35.03465,19.43481-113.31278,42.68585-127.85368,14.87978-12.98843,3.291-31.66925-32.07891-4.80088-27.01965,20.49807-35.70019,85.08241-38.30767,114.48063C4566.70826,2775.72305,4529.17915,2734.26505,4522.37321,2686.33906Z"/><path class="cls-16" d="M4877.98761,2882.04457s-100.17972-307.52039-110.922-447.00413"/><path class="cls-16" d="M4742.194,2768.11061s21.71577-56.86758,70.93669-106.45877"/><path class="cls-16" d="M4928.37917,2677.56245s-83.87776-65.94566-127.02434-61.59482"/><path class="cls-16" d="M4634.063,2649.37333s97.59049-80.44443,151.82075-99.421"/><path class="cls-16" d="M4903.74689,2481.52894s-74.50394-33.06034-132.22622-8.30389"/><path class="cls-15" d="M4447.7877,1779.91658q12.914,9.16122,24.66384,18.81478c5.10017,19.29267,8.38869,49.012-5.88,76.58314-13.89551,23.11046,3.23408,26.75735,9.05336,17.4144,4.20614-6.7052,19.94745-44.31009,28.42481-64.87281,77.64646,81.0191,89.6281,178.07856-29.77878,244.40216,0,0-30.61429,232.47513-251.0434,105.05907,31.54231-12.5808,89.25089-38.86,75.58356-58.06436-17.49929-24.58993-31.99711,40.73933-100.03655,42.92511-15.642-10.26851-32.15854-22.24654-49.58667-36.09329-18.28232-15.92209-33.20894-36.77113-45.408-60.04725,40.52386,6.46437,141.06667,19.70207,137.80293-9.13626-3.77181-33.27385-50.6537,31.978-150.05617-17.1023-10.6346-25.53832-18.59126-52.7073-24.537-78.837,35.64263,10.78567,104.04741,28.20276,108.581,4.569.03344-11.13636-21.14892-8.98661-48.74254-11.76413-17.53991-1.764-46.24391-10.76066-64.88178-17.094a746.9283,746.9283,0,0,1-12.50241-110.35417s45.1132-21.93137,106.98877-42.2328c18.70389,13.55184,54.28392,40.60182,56.92919,52.38543,3.61267,16.0532,23.99845,16.31884,24.57762-5.15525.44773-16.56229-24.37465-42.87732-46.49411-57.942a671.13938,671.13938,0,0,1,82.86373-18.20568c21.34015,25.12052,67.555,82.546,63.52512,104.391.00309,16.32039,20.1903,21.90992,22.9914-14.33876,2.15881-27.67374-37.8114-73.42291-56.82762-93.51906C4357.99593,1747.14651,4410.02244,1753.14893,4447.7877,1779.91658Z"/><path class="cls-16" d="M4093.01611,1848.3211s276.89482,141.12337,381.26054,223.94233"/><path class="cls-16" d="M4255.97331,1847.11371s26.58512,47.91147,31.2414,106.10909"/><path class="cls-16" d="M4205.55208,2005.58693s97.55058-3.56086,120.89666-29.71527"/><path class="cls-16" d="M4405.37452,1863.95458s-3.304,104.02573-23.17668,145.48319"/><path class="cls-16" d="M4358.06321,2116.81378s68.75952-19.3781,86.71619-66.4017"/><path class="cls-15" d="M4855.16216,1966.77974c19.04482-4.82544,31.81457-19.20327,38.87149-29.99467q-.28466-9.92251-1.301-20.20252c-2.9629-30.05782-21.73053-58.209-46.339-82.79574-1.65568,17.97668-6.805,57.269-20.86582,68.09081-18.40633,14.18839-24.13739,1.86536-16.37568-5.14439,12.06579-7.39934,20.17346-54.77474,23.25361-76.05143a425.16586,425.16586,0,0,0-43.09893-32.9143c2.02775,17.34156-.17319,40.84281-8.23735,47.7346-10.45528,8.93633-18.80119-1.19833-12.667-9.8675,4.50587-6.36006,2.585-35.46487,1.25791-50.47783a605.00664,605.00664,0,0,0-62.79508-33.6678c-1.13776-.51589-1.75884-.788-1.75884-.788a481.53145,481.53145,0,0,0-47.29571,53.53188c4.73334,11.881,12.38359,29.85361,18.83434,39.23283,10.147,14.7563,19.97293,24.24534,14.662,29.01105-13.12607,7.91973-33.27094-33.18359-42.95391-55.33516a321.38822,321.38822,0,0,0-27.30206,45.914c17.96672,69.93648,68.48926,64.96227,54.22957,81.1042-12.3608,13.98739-47.8505-41.11873-61.618-63.81424-6.0012,15.99124-9.71487,32.28109-9.69042,48.10472.65713,14.51269,1.82389,27.77482,3.44062,39.87309,29.31738,32.50607,66.41759,11.58,61.99376,30.7409-3.45471,14.96458-39.93881-2.11795-59.03211-12.22028,31.00455,163.06488,154.30842,78.28819,154.30842,78.28819.59995.22348,1.19079.42856,1.78619.64348,79.98742,28.85285,120.62231-18.53454,126.84352-90.95223-13.30424,4.66253-37.73373,13.07247-42.67134,13.8842C4843.77877,1979.85906,4838.3941,1969.873,4855.16216,1966.77974Z"/><path class="cls-16" d="M4712.74943,1771.5668s47.95216,196.70674,51.93327,283.5705"/><path class="cls-16" d="M4781.05,1851.15025s-11.74081,33.64122-37.48818,60.92017"/><path class="cls-16" d="M4684.71442,1894.41425s42.23653,46.42212,64.38006,46.66719"/><path class="cls-16" d="M4835.13162,1931.82018s-50.85453,43.04472-78.83361,51.07817"/><path class="cls-16" d="M4695.1925,2017.14236s37.79445,25.47788,67.62484,14.1125"/><path class="cls-19" d="M4764.683,2055.13216s22.1596,3.22263-33.97432,273.86183"/><path class="cls-19" d="M4472.11866,2075.07793s240.17526,70.96681,258.59,258.97646"/><path class="cls-19" d="M4601.41367,2391.40563c5.907-2.11922,106.97435-11.28265,140.41425,12.3742"/><ellipse class="Graphic-Style-147" cx="4041.01056" cy="416.40877" rx="113.91483" ry="111.29123"/><ellipse class="Graphic-Style-148" cx="3480.71608" cy="3638.69818" rx="186.94099" ry="147.11603"/><ellipse class="Graphic-Style-148" cx="783.12734" cy="1322.66318" rx="135.13196" ry="136.50424"/><ellipse class="cls-9" cx="5258.15637" cy="2403.77983" rx="93.84826" ry="95.21819"/><ellipse class="Graphic-Style-148" cx="1414.19576" cy="3461.73046" rx="253.27616" ry="233.33398"/><ellipse class="Graphic-Style-147" cx="4738.71607" cy="1210.46075" rx="137.40438" ry="126.58558"/><path class="Graphic-Style-146" d="M4195.01688,976.78611s57.14718,31.29489,72.79463,35.37683,16.69121,19.80505,16.69121,19.80505,20.24769-31.88983,9.94212-56.462c-36.33136-34.95106-65.78848-54.28318-111.18182-78.88645-6.33988,49.20243-12.328,74.00857-12.328,74.00857Z"/><path class="Graphic-Style-146" d="M2379.233,1361.84931l-19.72939,7.75479s-13.76722-94.08-45.3219-122.0112c13.29516-4.28031,18.34215-5.89892,18.34215-5.89892,40.03214,33.25767,46.70914,113.69225,46.70914,113.69225"/></svg>