<?xml version="1.0" encoding="utf-8"?>
<!-- Generator: Adobe Illustrator 22.0.0, SVG Export Plug-In . SVG Version: 6.00 Build 0)  -->
<svg version="1.1" id="Layer_1" xmlns="http://www.w3.org/2000/svg" xmlns:xlink="http://www.w3.org/1999/xlink" x="0px" y="0px"
	 viewBox="0 0 4000 4000" style="enable-background:new 0 0 4000 4000;" xml:space="preserve">
<style type="text/css">
	.st0{fill:none;stroke:#1A1A1A;stroke-width:3;stroke-linecap:round;stroke-linejoin:round;stroke-miterlimit:10;}
	.st1{fill:#FFFFFF;stroke:#1A1A1A;stroke-width:2;stroke-linecap:round;stroke-linejoin:round;stroke-miterlimit:10;}
	.st2{fill:#8E9DF4;stroke:#1A1A1A;stroke-width:2;stroke-linecap:round;stroke-linejoin:round;stroke-miterlimit:10;}
	.st3{fill:#1A1A1A;stroke:#1A1A1A;stroke-width:2;stroke-linecap:round;stroke-linejoin:round;stroke-miterlimit:10;}
	
		.st4{clip-path:url(#XMLID_2_);fill:#FFFFFF;stroke:#1A1A1A;stroke-width:2;stroke-linecap:round;stroke-linejoin:round;stroke-miterlimit:10;}
	.st5{fill:#5067EF;stroke:#1A1A1A;stroke-width:2;stroke-linecap:round;stroke-linejoin:round;stroke-miterlimit:10;}
</style>
<g>
	<path class="st0" d="M316.7,1772.4c61.3,1030,251.4,1303.9,422.7,1350.9c78.4,21.5,238.4,18.9,356.4,140.9
		c79.7,82.4,105.9,186.3,116,256.9c97.7,33.6,243.2,80.1,422.7,124.3c398.9,98.3,736,181.3,1110.6,116
		c207.9-36.2,557.2-97.1,754.2-364.7c242.6-329.4,180.1-871.4-140.9-1350.9c311.4-716.2-13.9-1502.4-605-1748.7
		C2299,107.9,1724.9,253.1,1344.4,670.1c-40.3-3.2-528.3-33.8-837.1,356.4C255.3,1344.9,306.9,1710.8,316.7,1772.4z"/>
	<path class="st1" d="M781.5,964.5c20.2,108.3,74.9,206.4,121.6,306.2c46.7,99.8,86.6,208.2,74.3,317.6
		c-18.8,167-151.5,294.5-235.1,440.3c-98.6,172.1-129.6,381.8-84.9,575c44.7,193.2,164.6,368,328.8,479.3
		c98.5,66.8,226.7,133.9,230.7,252.8c3.5,104.5-94.2,180.4-181.6,237.8c58,68.8,167,62.3,250.9,29.6
		c83.9-32.7,162.4-85.8,252.1-92.6c117-8.9,223.1,62.1,334.7,98.1c174,56,362.5,26.3,542.7-3.9c227.8-38.2,455.7-76.3,683.5-114.5
		c97.4-16.3,202.9-37,268.1-111.2c77.8-88.6,70.8-220.8,59.4-338.1c-39.5-407.2-79.1-814.4-118.6-1221.6
		c-29.3-301.4-58.5-602.8-87.8-904.1c-12.8-131.6-32.7-277.4-134.5-361.9c-62.2-51.6-144.5-70.5-223.4-87.8
		c-292.4-64-584.9-128-877.3-192c-133.1-29.1-267.8-58.4-404-54.7c-202.2,5.5-399.5,89.9-548.4,225.9
		C893.6,571.8,744.6,766.8,781.5,964.5z"/>
	<g>
		<path class="st1" d="M3186,2872.9c-449.2-251.7-1695.8-258.5-2232.9,0c-237.7-569-368.3-1157.1-304.9-1780.1
			c683.7-472.4,2270.9-460,2842.7,0C3560.7,1785.3,3466,2347.7,3186,2872.9z"/>
		<path class="st2" d="M1628.2,989.2c-208.4,28.9-384.9,74.2-522.9,118.9l5.4,44.2c315.9-108.1,523.8-121.7,523.8-121.7
			S1634.4,1030.6,1628.2,989.2z"/>
		<path class="st3" d="M764.2,1248.2c0,0,6.9,24.2,13.8,39.4c60.6-28.6,119.1-54,175.3-76.6l-6.5-46
			C828.4,1211.8,764.2,1248.2,764.2,1248.2z"/>
		<path class="st1" d="M1628.2,1192c-208.4,28.9-384.9,74.2-522.9,118.9l5.4,44.2c315.9-108.1,523.8-121.7,523.8-121.7
			S1634.4,1233.4,1628.2,1192z"/>
		<path class="st3" d="M764.2,1451c0,0,6.9,24.2,13.8,39.4c60.6-28.6,119.1-54,175.3-76.6l-6.5-46
			C828.4,1414.6,764.2,1451,764.2,1451z"/>
		<path class="st1" d="M1628.2,1394.8c-208.4,28.9-384.9,74.2-522.9,118.9l5.4,44.2c315.9-108.1,523.8-121.7,523.8-121.7
			S1634.4,1436.2,1628.2,1394.8z"/>
		<path class="st3" d="M764.2,1653.8c0,0,6.9,24.2,13.8,39.4c60.6-28.6,119.1-54,175.3-76.6l-6.5-46
			C828.4,1617.4,764.2,1653.8,764.2,1653.8z"/>
		<path class="st1" d="M687.8,2003.4c648.3-339.5,2132.7-488,2794.8-41"/>
		<g>
			<path class="st1" d="M2304.8,1166.7c0,120.8-97.9,218.8-218.8,218.8c-90.4,0-168-54.8-201.3-133.1l64.8-28.3
				c22.4,53.3,75.1,90.7,136.5,90.7c81.8,0,148.1-66.3,148.1-148.1c0-81.8-66.3-148.1-148.1-148.1c-1,0-2,0.1-3.1,0.1l-2-70.6
				c1.7,0,3.4-0.1,5.1-0.1C2206.8,947.9,2304.8,1045.9,2304.8,1166.7z"/>
			<path class="st2" d="M1937.9,1166.7c0,20.4,4.1,39.7,11.5,57.4l-64.8,28.3c-11.2-26.3-17.4-55.3-17.4-85.7
				c0-119.1,95.2-215.9,213.6-218.6l2,70.6C2002.6,1020.3,1937.9,1085.9,1937.9,1166.7z"/>
			<path class="st1" d="M2234.1,1166.7c0,81.8-66.3,148.1-148.1,148.1c-61.4,0-114.1-37.4-136.5-90.7c-7.4-17.7-11.5-37-11.5-57.4
				c0-80.7,64.6-146.4,145-148c1,0,2-0.1,3.1-0.1C2167.8,1018.6,2234.1,1084.9,2234.1,1166.7z"/>
			<path class="st1" d="M2234.1,1166.7c0,81.8-66.3,148.1-148.1,148.1c-61.4,0-114.1-37.4-136.5-90.7c-7.4-17.7-11.5-37-11.5-57.4
				c0-80.7,64.6-146.4,145-148c1,0,2-0.1,3.1-0.1C2167.8,1018.6,2234.1,1084.9,2234.1,1166.7z"/>
		</g>
		<g>
			<path class="st3" d="M2476,1281.4l-64,27.9c17.9,42.1,48.8,77.2,87.6,100.6l36.8-59.3C2509.6,1334.7,2488.2,1310.5,2476,1281.4z"
				/>
			<path class="st1" d="M2610.8,1008.8c-1.7,0-3.3,0.1-5,0.1l2,69.7c1,0,2-0.1,3-0.1c80.8,0,146.2,65.4,146.2,146.2
				c0,80.8-65.5,146.2-146.2,146.2c-27.2,0-52.6-7.4-74.4-20.3l-36.8,59.3c32.5,19.5,70.5,30.8,111.1,30.8c119.3,0,216-96.7,216-216
				C2826.8,1105.5,2730.1,1008.8,2610.8,1008.8z"/>
			<path class="st2" d="M2464.6,1224.8c0,20.1,4.1,39.2,11.4,56.7l-64,27.9c-11.1-26-17.2-54.6-17.2-84.6
				c0-117.6,94-213.1,210.9-215.8l2,69.7C2528.4,1080.3,2464.6,1145.1,2464.6,1224.8z"/>
		</g>
		<g>
			<path class="st1" d="M3349.4,1362.7c0,119.3-96.7,216-216,216c-89.2,0-165.8-54.1-198.7-131.4l64-27.9
				c22.1,52.6,74.2,89.5,134.8,89.5c80.8,0,146.2-65.4,146.2-146.2c0-80.8-65.5-146.2-146.2-146.2c-1,0-2,0.1-3,0.1l-2-69.7
				c1.7,0,3.3-0.1,5-0.1C3252.7,1146.7,3349.4,1243.4,3349.4,1362.7z"/>
			<path class="st3" d="M2987.2,1362.7c0,20.1,4.1,39.2,11.4,56.7l-64,27.9c-11.1-26-17.2-54.6-17.2-84.6
				c0-117.6,94-213.1,210.9-215.8l2,69.7C3051.1,1218.2,2987.2,1283,2987.2,1362.7z"/>
			<path class="st1" d="M3279.6,1362.7c0,80.8-65.5,146.2-146.2,146.2c-60.6,0-112.7-36.9-134.8-89.5c-7.3-17.4-11.4-36.6-11.4-56.7
				c0-79.7,63.8-144.5,143.2-146.1c1,0,2-0.1,3-0.1C3214.2,1216.5,3279.6,1282,3279.6,1362.7z"/>
			<path class="st1" d="M3279.6,1362.7c0,80.8-65.5,146.2-146.2,146.2c-60.6,0-112.7-36.9-134.8-89.5c-7.3-17.4-11.4-36.6-11.4-56.7
				c0-79.7,63.8-144.5,143.2-146.1c1,0,2-0.1,3-0.1C3214.2,1216.5,3279.6,1282,3279.6,1362.7z"/>
		</g>
		<path class="st2" d="M2304.8,1742.3c0,0,516.9,9.4,809,115.1c-8.3,33.2-8.3,33.2-8.3,33.2c-260.3-74.7-528.1-104.6-800.8-105.7
			L2304.8,1742.3z"/>
		<path class="st1" d="M2282.1,1872.2c0,0,516.9,9.4,809,115.1c-8.3,33.2-8.3,33.2-8.3,33.2c-260.3-74.7-528.1-104.6-800.8-105.7
			L2282.1,1872.2z"/>
		<path class="st2" d="M2259.5,2002.2c0,0,516.9,9.4,809,115.1c-8.3,33.2-8.3,33.2-8.3,33.2c-260.3-74.7-528.1-104.6-800.8-105.7
			L2259.5,2002.2z"/>
		<path class="st1" d="M2236.9,2132.1c0,0,516.9,9.4,809,115.1c-8.3,33.2-8.3,33.2-8.3,33.2c-260.3-74.7-528.1-104.6-800.8-105.7
			L2236.9,2132.1z"/>
		<path class="st2" d="M2214.3,2262.1c0,0,516.9,9.4,809,115.1c-8.3,33.2-8.3,33.2-8.3,33.2c-260.3-74.7-528.1-104.6-800.8-105.7
			V2262.1z"/>
		<path class="st1" d="M2191.6,2392c0,0,516.9,9.4,809,115.1c-8.3,33.2-8.3,33.2-8.3,33.2c-260.3-74.7-528.1-104.6-800.8-105.7V2392
			z"/>
		<path class="st1" d="M2169,2522c0,0,516.9,9.4,809,115.1c-8.3,33.2-8.3,33.2-8.3,33.2c-260.3-74.7-528.1-104.6-800.8-105.7V2522z"
			/>
		<g>
			<defs>
				<path id="XMLID_7_" d="M791.2,2020.4c0,0,638-253.8,1114.7-264.6c40.6,689.9,40.6,866.1,40.6,866.1s-498.5-14.5-908.7,149.2
					C913.4,2427.1,843,2260.2,791.2,2020.4z"/>
			</defs>
			<use xlink:href="#XMLID_7_"  style="overflow:visible;fill:#1A1A1A;"/>
			<clipPath id="XMLID_2_">
				<use xlink:href="#XMLID_7_"  style="overflow:visible;"/>
			</clipPath>
			<path class="st4" d="M1196.3,2720.5c8.2-25.7,13.6-54.9,0.8-78.7c-9.5-17.7-27.4-29.1-45.1-38.6c-17.7-9.5-36.5-18.2-50.1-33
				c-13.6-14.8-20.7-37.8-10.8-55.3c8.4-14.9,27.5-23.5,30.8-40.3c1.7-8.7-1.2-18.6,3.8-26c3.2-4.7,8.9-7,13.2-10.7
				c18.2-15.5,7.2-48.1,22.8-66.2c2.5-2.9,5.7-5.5,6.9-9.1c0.9-2.7,0.5-5.7-0.3-8.4c-4.3-13.6-19.7-20.4-33.8-22.2
				c-14.1-1.8-28.9-0.3-42.4-4.9c-25.5-8.6-40.1-36.2-64.3-48c1.4-12,22.4-16,20.4-27.9c-1.2-7-9.7-9.6-16.6-11.5
				c-52-14.4-85-68.5-136.4-85c7.3-23.2,23.9-43.3,45.2-55c7.8-4.3,16.4-7.7,22.2-14.4c12.2-14.3,6.4-35.8,7-54.7
				c0.1-3.2,0.5-6.5,2.5-9.1c2.3-3,6.2-4.1,9.9-4.8c15.2-3.2,30.9-4,46.3-2.4c15.1,1.6,30.2,5.6,45.2,3.2c9-1.4,17.5-5.1,26.1-8.2
				c29.8-10.8,61.8-15.5,93.4-13.7c1.4,15-6.5,29.6-17.4,40c-10.9,10.4-24.5,17.2-38,23.9c11.4,5.4,2.6,22.9,5.3,35.2
				c3.5,15.5,24,18.5,39.9,18c17.8-0.5,35.5-0.9,53.3-1.4c5.4,26.6,0.2,55.2-14.2,78.1c-4,6.4-8.8,12.7-9.4,20.2
				c-0.8,9.6,5.6,18.1,10.2,26.5c9,16.4,12.2,35.2,14.1,53.8c2.7,28.1,2.2,57.8-11.1,82.7c-14.2,26.7-42.8,49.2-39.8,79.3
				c2.7,26.9,36.9,45,60.7,32.1c4.6-2.5,9.5-6.1,14.6-4.8c4.7,1.1,7.4,5.7,10.6,9.3c9.8,10.8,26,12.9,40.5,11.9
				c14.5-1,29.3-4.2,43.5-1.3c14.3,3,28.2,14.9,27.1,29.4c-1.2,15.2-17.8,25.6-19.6,40.7c-1.7,14.4,10.7,26.8,23.7,33.3
				c13,6.5,27.8,9.9,39,19.3c13,10.9,18.7,28.1,21.7,44.8c0.8,4.5,1.4,9.4-0.7,13.5c-3.1,6.3-11,8.2-17.9,9.5
				c-35.9,7.2-71,18.2-104.5,33c-4.6,2-9.5,4.5-11.7,9c-2,4.2-1.1,9.1-1.7,13.7c-2,15.5-19.2,23.5-34.3,27.5
				c-21.8,5.8-44.4,8.9-66.9,9.4c-14.8,0.3-25.8,19.2-29.4-0.9C1177.2,2763.2,1190.8,2737.6,1196.3,2720.5z"/>
			<path class="st4" d="M1322.1,2045.6c-2-7.3-3.1-15.6,1.1-21.9c3.1-4.7,8.6-7.2,13.5-10c18.2-10.5,31.4-27.6,44.2-44.2
				c5.2-6.9,10.7-14.1,11.9-22.7c1.3-8.5-3.3-18.6-11.7-20.4c27.8-15.6,60.1-23,91.8-21c3.3,0.2,7,0.7,9.2,3.1
				c3.4,3.7,1.8,9.4,2.2,14.4c0.7,8.9,9.5,16.4,18.5,15.6c13.3-1.2,20.6-16.5,32.9-21.6c5.3-2.2,11.3-2.4,16.8-4.2
				c14.1-4.6,24.8-19.8,39.6-18.7c8.3,0.6,15.2,6.4,21.5,11.8c18.4,15.9,41.6,32.5,65,25.6c14.1-4.1,24.2-15.9,36-24.7
				c24.6-18.5,58.4-23.8,87.5-13.9c2.1,11.6,4.1,23.1,6.2,34.7c0.4,2.1,0.9,4.4,2.6,5.7c1.5,1.1,3.6,1.1,5.6,1.1
				c7-0.3,14-0.5,21-0.8c7.6,24.2,10.5,49.8,8.5,75c-0.6,8.2-1.8,16.6,0.3,24.5c3.2,12.2,14,22.9,12,35.4
				c-2.3,14.4-21,23.5-19.9,38.1c1.1,14.4,20.3,20.6,24.9,34.2c1.7,4.9,1.3,10.2,0.9,15.3c-1.3,16.3-2.6,32.7-3.9,49
				c-0.4,4.9-0.8,10-3.1,14.3c-7.2,13.9-28.1,13-41.7,5.1c-1.9-1.1-3.8-2.3-4.9-4.2c-1.6-2.7-1.3-6-1.2-9
				c0.2-19.1-13.5-37.5-31.9-42.8c1.9,9.3,3.7,18.8,2,28.1c-1.8,9.3-8,18.4-17.2,20.5c-10.6,2.5-20.8-4.5-29.4-11.2
				c-4.8-3.7-9.9-7.7-12.1-13.5c-1.4-3.8-1.5-8.2-3.9-11.5c-5-6.9-17-3.6-21.1,3.8c-4.1,7.4-2.9,16.6-1.6,25
				c1.4,8.6,2.8,17.2,4.2,25.8c0.8,4.9,1.5,10.2-1.2,14.4c-2,3.1-5.5,4.9-9,6c-11.9,3.8-25.7,1.2-35.3-6.8
				c-9.6-8-14.5-21.3-12.3-33.6c-19-3.7-39.7,2.5-53.4,16.2c-13.7,13.7-20.1,34.3-16.4,53.4c-7.7,0.9-15.4,1.8-23,2.7
				c1.4,8.9-9.9,14.2-18.9,14.1c-9-0.2-19-2.4-26.1,3.1c-3.7,2.8-6,7.5-10.3,9.2c-6.9,2.8-14.5-3.7-16.4-10.9s-0.3-14.8-0.5-22.2
				c-0.1-4.5-0.8-9.2,1.1-13.2c2.2-4.7,7.4-7.1,11.9-9.7c15.2-8.8,26.4-23,37.1-36.8c4.1-5.3,8.5-11.9,6.3-18.2
				c-2.3-6.7-10.6-9-17.6-10c-18.6-2.8-37.4-4.2-56.2-4.1c29.2-17.4,46.5-52.8,42.3-86.4c-0.9-7-3-14.5-8.8-18.5
				c-4-2.8-9.1-3.4-14-3.6c-15.4-0.7-31,1.6-45.6,6.7c-12.4,4.4-24.1,10.8-36.8,14.3C1354.9,2112.6,1331.8,2080.9,1322.1,2045.6z"/>
			<path class="st4" d="M1541,2366.7c-4.9-1.2-10.5-3.4-14.7-0.5c-3.5,2.4-4.2,7-5.6,11c-4.5,12.8-17.9,21.3-20.6,34.6
				c-1.6,7.6,0.7,15.6-0.4,23.3c-2.7,18.7-23.1,28.6-40.8,35.2c8.3,17.7,31.5,20.5,49.4,28.3c17.3,7.5,31.2,21.1,44.6,34.3
				c2.6,2.6,5.3,5.2,6.9,8.6c1.7,3.5,1.9,7.5,2.9,11.3c5.3,21.4,30.8,32.2,52.6,29.5c3.6-0.4,7.3-1.2,10.3-3.2
				c5.4-3.5,7.8-10,12.2-14.6c8.4-8.9,22.1-9.4,34.3-9.3c16.4,0.1,32.8,0.3,49.2,0.4c8.3,0.1,16.8,0.2,24.5,3.4
				c7.6,3.2,14.2,10.4,14.2,18.7c14.2-4.3,28.1-9.5,41.6-15.7c4.2-1.9,8.6-4.1,11.7-7.6c2.5-2.9,4.1-6.5,5.5-10
				c6.7-17.6,9.9-36.5,9.3-55.3c-0.2-7.3-0.9-15.2,2.9-21.5c4.2-7,12.7-9.9,19.2-14.9c16.1-12.4,18.1-35.5,18.1-55.8
				c0-25.7-1-51.4-3.1-77.1c-0.2-3-0.6-6.2-2.4-8.7c-2.8-3.8-8-4.5-12.7-4.7c-31-1.3-61.3,7.7-91.7,13.9
				c-41.1,8.4-82.1,5.7-123.1,11.2C1601.9,2336.1,1576.1,2375.3,1541,2366.7z"/>
			
				<use xlink:href="#XMLID_7_"  style="overflow:visible;fill:none;stroke:#1A1A1A;stroke-width:2;stroke-linecap:round;stroke-linejoin:round;stroke-miterlimit:10;"/>
		</g>
	</g>
	<g>
		<path class="st3" d="M1846.8,3479.6l-49.5,100.2c0,0,124.5,98.7,384.2,72.4s406.9-76.5,406.9-76.5l-38.1-134.4l-212.7-108.2
			L1846.8,3479.6z"/>
		<path class="st5" d="M1787.8,3532.4c0,0,64.9-150.9,62.2-305.6c-2.8-154.7-60.8-349.5-102.2-410.2
			c-41.4-60.8-230.7-482.1-230.7-555.3s24.9-367.4,172.7-535.9c66.3,9.7,87,37.3,87,37.3s-120.2,284.5-84.3,424
			c35.9,139.5,103.6,182.3,165.8,201c62.8-20,199-69.1,199-69.1s198.1-6.2,220.9-1.4c22.8,4.8,153.3,110.5,206.5,167.1
			c53.2,56.6,270,369.5,315.6,565.6s0,379.8,0,379.8l-139.5-34.5c0,0,2.8-179.6-34.5-265.2c-37.3-85.6-102.2-163-102.2-163
			s49.7,457.2,59.4,516.6c-138.8,120.2-287.1,85.3-323.2,69.1c-74.6-142.3-74.6-142.3-74.6-142.3l-51.1,160.2
			C2134.5,3570.8,1928.7,3622.6,1787.8,3532.4z"/>
		<path class="st1" d="M2063.3,2294c0,0,16.1-96.3,9.3-156.9c80.8,9.3,175.1-5.7,175.1-5.7s-8.8,117.1,4.7,157.5
			C2163.8,2300.7,2063.3,2294,2063.3,2294z"/>
		<path class="st1" d="M2038.5,2342.7c0,0-32,1-28.7-23.8c3.3-24.9,23-43,28.7-43.5c5.7-0.5,66.8,12.9,119.1,9.8
			c52.3-3.1,102-12.4,117.6-14.5s26.4,47.7,12.9,58C2274.7,2339,2066.3,2356.3,2038.5,2342.7z"/>
		<path class="st1" d="M1720.3,1676c0,0,77.9-150.3,144.5-211.4c66.6-61.1,78.4-88,81.5-63.7c3.1,24.3-53.1,116.9-62.3,137.2
			c28.4-13.8,42.6-2.6,37.6,26.3s-23.4,67-51.2,80.7c-27.8,13.8-75.9,69.7-79.6,74.5C1787.1,1724.6,1720.3,1676,1720.3,1676z"/>
		<path class="st1" d="M1652.4,1714.4c0,0,35.2-49,69.1-50.4c33.8-1.4,89.1,33.2,78.7,82.2c-10.4,49-24.2,75.3-31.1,71.8
			c-6.9-3.5-40.7-49-66.3-52.5c-25.6-3.5-57.3-6.9-62.2-14.5C1635.8,1743.4,1652.4,1714.4,1652.4,1714.4z"/>
		<path class="st1" d="M2318.2,2003.4c0,0,26.9-23.2,28.3,9.3c1.4,32.5-23.5,70.4-41.4,71.8
			C2287.1,2085.9,2318.2,2003.4,2318.2,2003.4z"/>
		<path class="st1" d="M2015.2,2003.4c0,0-26.2-23.2-27.6,9.3c-1.3,32.5,22.9,70.4,40.4,71.8S2015.2,2003.4,2015.2,2003.4z"/>
		<path class="st3" d="M2027.1,2068.7c0,0,8.3,133.6,100.5,135.7c92.2,2.1,167.8-17.6,179.2-94.3c11.4-76.7,49.7-194.8,12.4-237.2
			s-209.3-123.3-255.9-20.7c-6.1,9.6-10.4,16.6-10.4,16.6s-33.7-21-54.6,9.6C1977.3,1908.9,1970.1,2031.4,2027.1,2068.7z"/>
		<path class="st1" d="M2765.7,3492c0,0,0.8,71.8-42.8,129.8c-35.3,47-118.9-14.5-121.4-48.3c-2.5-33.9,35.3-70.1,35.3-70.1
			s9.9-3.1,13-3.1s19.7-43.5,19.7-43.5L2765.7,3492z"/>
		<path class="st1" d="M2677.3,3384.3c0,0-40.1-29-38.7,0s-9.7,69.1,9.7,88.4c19.3,19.3,118.8,49.7,142.3,34.5
			c23.5-15.2,55.7-81.5,29.9-91.2C2794.7,3406.4,2677.3,3384.3,2677.3,3384.3z"/>
	</g>
	<ellipse class="st1" cx="377.1" cy="2058.4" rx="221.1" ry="219.3"/>
	<ellipse class="st1" cx="3664.8" cy="2646.8" rx="179.3" ry="177.8"/>
	<ellipse class="st3" cx="3190.4" cy="635" rx="88.5" ry="88.5"/>
</g>
</svg>
