<?xml version="1.0" encoding="utf-8"?>
<!-- Generator: Adobe Illustrator 22.0.0, SVG Export Plug-In . SVG Version: 6.00 Build 0)  -->
<svg version="1.1" id="Layer_1" xmlns="http://www.w3.org/2000/svg" xmlns:xlink="http://www.w3.org/1999/xlink" x="0px" y="0px"
	 viewBox="0 0 4000 4000" style="enable-background:new 0 0 4000 4000;" xml:space="preserve">
<style type="text/css">
	.Graphic_x0020_Style_x0020_218{fill:#102140;}
	.Graphic_x0020_Style_x0020_88{fill:#D1334A;}
	.Graphic_x0020_Style_x0020_206{fill:url(#SVGID_1_);}
	.Graphic_x0020_Style_x0020_207{fill:url(#SVGID_2_);}
	.Graphic_x0020_Style_x0020_84{fill:#FFFFFF;}
	
		.Graphic_x0020_Style_x0020_209{fill:none;stroke:#1A1A1A;stroke-width:2;stroke-linecap:round;stroke-linejoin:round;stroke-miterlimit:10;}
	.Graphic_x0020_Style_x0020_83{fill:#3B546B;}
	.Graphic_x0020_Style_x0020_99{fill:#B080B0;}
	.Graphic_x0020_Style_x0020_39{fill:#EF5668;}
	.Graphic_x0020_Style_x0020_219{fill:#DB6767;}
	.Graphic_x0020_Style_x0020_89{fill:#EB485C;}
	.Graphic_x0020_Style_x0020_69{fill:#1A1A1A;}
	
		.Graphic_x0020_Style_x0020_27{fill:#1A1A1A;stroke:#1A1A1A;stroke-width:2;stroke-linecap:round;stroke-linejoin:round;stroke-miterlimit:10;}
	.Graphic_x0020_Style_x0020_80{fill:#FFB114;}
	.Graphic_x0020_Style_x0020_87{fill:#6584C6;}
	.Graphic_x0020_Style_x0020_216{fill:#1A1A1A;}
	.Graphic_x0020_Style_x0020_42{fill:#FFCF4A;}
	
		.Graphic_x0020_Style_x0020_95{fill:none;stroke:#10663F;stroke-width:2;stroke-linecap:round;stroke-linejoin:round;stroke-miterlimit:10;}
	.Graphic_x0020_Style_x0020_212{fill:#FFFFFF;}
	.Graphic_x0020_Style_x0020_210{fill:#CCC4CC;}
	.Graphic_x0020_Style_x0020_211{fill:#FFDE70;}
	
		.Graphic_x0020_Style_x0020_26{fill:#FFFFFF;stroke:#1A1A1A;stroke-width:2;stroke-linecap:round;stroke-linejoin:round;stroke-miterlimit:10;}
	
		.Graphic_x0020_Style_x0020_36{fill:none;stroke:#FFFFFF;stroke-width:2;stroke-linecap:round;stroke-linejoin:round;stroke-miterlimit:10;}
	.Graphic_x0020_Style_x0020_90{fill:#102140;}
	.Graphic_x0020_Style_x0020_213{fill:#FFB114;}
	.st0{fill:url(#SVGID_3_);}
	.st1{fill:#00593B;}
	.st2{fill:#127755;}
	.st3{fill:#339E7E;}
	.st4{fill:url(#SVGID_4_);}
	.st5{opacity:0.5;fill:#152A52;}
	.st6{fill:#FC9590;}
	.st7{fill:#152A52;}
	.st8{fill:#102140;}
	.st9{fill:#EB485C;}
	.st10{fill:#FFDE70;}
	.st11{fill:#FFB114;}
	.st12{fill:url(#SVGID_5_);}
	.st13{fill:url(#SVGID_6_);}
	.st14{fill:url(#SVGID_7_);}
	.st15{fill:#EF5668;}
	.st16{fill:#FFCF4A;}
	.st17{fill:#C29C2D;}
	.st18{fill:#C28F10;}
	.st19{fill:#C27E03;}
	.st20{fill:#D8DDE1;}
	.st21{fill:#6584C6;}
	.st22{fill:url(#SVGID_8_);}
</style>
<linearGradient id="SVGID_1_" gradientUnits="userSpaceOnUse" x1="0" y1="0" x2="1" y2="0">
	<stop  offset="0" style="stop-color:#4085F0"/>
	<stop  offset="1" style="stop-color:#275DC9"/>
</linearGradient>
<linearGradient id="SVGID_2_" gradientUnits="userSpaceOnUse" x1="0" y1="0" x2="1" y2="0">
	<stop  offset="0" style="stop-color:#68B2FC"/>
	<stop  offset="1" style="stop-color:#529BF7"/>
</linearGradient>
<g>
	<linearGradient id="SVGID_3_" gradientUnits="userSpaceOnUse" x1="588.4919" y1="2670.9702" x2="3804.5647" y2="2670.9702">
		<stop  offset="0" style="stop-color:#68B2FC"/>
		<stop  offset="1" style="stop-color:#EBF0F7"/>
	</linearGradient>
	<path class="st0" d="M591.3,3034.5c-5-45.4-11.3-161.6,60.5-265.5c97.7-141.2,299.6-201.5,500.7-142.1
		c31.7-43.3,221.8-293.7,565.9-333c265.4-30.3,463.3,83.1,524,121.1c98.2-44.2,260.1-101.6,465.7-104.8
		c332.4-5.2,575.3,134.1,673,197.9c133-83.6,219.4-57.4,237.5-51.2c143.4,49,239.2,295.2,153.7,596.1
		C2711.9,3046.9,1651.6,3040.7,591.3,3034.5z"/>
	<g>
		<g>
			<path class="st1" d="M824.2,3015.2c104.5,3.7,137.8,27.6,167.5,6.1c18.5-13.4,31.2-41.2,22.8-63.8
				c-10.4-27.9-47.8-33.3-49.7-33.5c97.4-2.5,164-38,167.9-75.7c1.8-17.9-9.5-46-33.2-61.3c-18.4-11.9-37.7-11.7-45.8-11.1
				c81.9-40.4,131.3-89.1,122.5-119.9c-3.4-12.1-18.2-29.9-39.5-35c-17.3-4.2-32,1.7-38,4.4c43.4-37.8,50.3-88.4,30.5-111.5
				c-12.3-14.3-35.6-18.9-54.5-14.1c-26.4,6.7-46.2,32-47.6,62.9c-0.6-2.7-10.4-43.5-37.1-49.6c-29-6.6-58.9,32.3-67.6,64.3
				c-8.6,31.9,3.2,59.5,7.9,69.1c-1.8-4.1-19.3-43-49.7-45.7c-41.8-3.7-67.5,64.4-69,68.7c-22.7,62.3,13.6,122.4,21.1,134.3
				c-35.1-26.7-76.1-31.9-99.8-14.5c-29.7,21.8-21.4,70.8-16.9,97.4c11,65,54,108,77.6,127.9C800.2,3014.7,811,3014.7,824.2,3015.2z
				"/>
			<path class="Graphic_x0020_Style_x0020_36" d="M1086.8,2549.5c-33.3,44.4-60.9,93-82,144.3c-30.5,73.9-48.6,155-98.7,217.2
				c-15.3,18.9-33.2,35.6-51,52.2c-20.3,18.9-41.1,38.1-66.2,50"/>
			<path class="Graphic_x0020_Style_x0020_36" d="M841.2,2975.9c1.6-3.5,5.7-67.8-72.6-111.6"/>
			<path class="Graphic_x0020_Style_x0020_36" d="M962.1,2809.5c2.5-27.2-12.9-52.6-28.7-74.9s-33.4-45.3-36.2-72.5"/>
			<path class="Graphic_x0020_Style_x0020_36" d="M995.8,2718.6c3.7-14.4,18.4-23.5,33-26.6c14.6-3.1,29.7-1.7,44.5-3.4
				c14.8-1.7,30.4-7.6,37.8-20.5"/>
			<path class="Graphic_x0020_Style_x0020_36" d="M1020.3,2660.1c2.1-4,4.2-8.2,4.9-12.6c1.1-6.7-1.1-13.5-3.8-19.7
				c-5.5-12.9-13-24.8-18.8-37.5c-5.8-12.7-9.9-26.8-7.8-40.7"/>
			<path class="Graphic_x0020_Style_x0020_36" d="M925.3,2885.4c7.6-8.1,15.3-16.2,24.7-22.1c18-11.4,40.1-13.4,61.2-16
				c21.1-2.6,43.3-6.8,59.1-21"/>
			<path class="Graphic_x0020_Style_x0020_36" d="M951.4,2964.3c-10.2-11.3-24.4-19-39.4-21.5c-15-2.5-31.9,2.1-45.3,9.4"/>
		</g>
		<g>
			<path class="st2" d="M632.9,2774.2c-85.1-60.1-127.2-61.4-136.5-96.2c-5.8-21.7,2.6-51.4,24.2-64.1c26.7-15.7,59.9,2.6,61.5,3.5
				c-75.3-60.8-104.6-128.9-82.7-161c10.4-15.2,38-30.6,66.8-28.3c22.4,1.7,37.5,13.5,43.6,18.8c-38-81.3-44.9-149.5-17.6-168.5
				c10.7-7.5,34.2-12.6,54.4-3.8c16.4,7.1,24.2,20.7,27.1,26.4c-9.4-56,18.7-100.1,49.6-106.4c19.2-3.9,40.6,6.6,52.4,21.8
				c16.5,21.2,15.4,53.2-3.9,78.3c2.3-1.8,37-28,62.1-16.8c27.3,12.3,25.3,61,10.9,91.5c-14.3,30.4-41.9,45-51.9,49.8
				c4.1-2.2,43.7-22.3,69.5-6.1c35.5,22.3,10.8,91.5,9.1,95.9c-23.3,62.8-91.7,88.4-105.5,93.2c45.5,0.1,81.3,20.8,88.5,48.8
				c9.1,35.1-29.9,68.8-51,87c-51.6,44.6-114.1,52.6-146,54.1C652.1,2788.3,643.6,2781.8,632.9,2774.2z"/>
			<path class="Graphic_x0020_Style_x0020_95" d="M733.2,2248.4c-3.1,55.1-13.4,110.1-30.5,163.3c-24.7,76.6-64.1,151.6-65.6,230.9
				c-0.4,24.2,2.7,48.1,5.8,71.9c3.6,27.2,7.3,54.9,19.3,79.4c11.1,22.8,29,41.9,49.9,56.9"/>
			<path class="Graphic_x0020_Style_x0020_95" d="M644.2,2731.6c1.1-3.8,3.7-7,6.4-9.9c16.5-17.2,40.6-25.1,63.9-30.8
				c23.3-5.7,47.5-10.1,68-22.5"/>
			<path class="Graphic_x0020_Style_x0020_95" d="M659.7,2528.7c16-23,45-33.8,72.3-41.8c27.3-8,56.4-15.6,76.6-35.4"/>
			<path class="Graphic_x0020_Style_x0020_95" d="M693.3,2436.7c6.7-13.6,1-29.6-8.5-40.9c-9.5-11.2-22.4-19.2-32.9-29.5
				c-10.5-10.3-19-24.3-16.4-39"/>
			<path class="Graphic_x0020_Style_x0020_95" d="M712.6,2375.7c1-4.4,2.1-9,4.5-12.9c3.6-5.9,9.8-10,16.1-13.3
				c12.9-6.9,26.7-11.7,39.7-18.3c13-6.5,25.6-15.2,33.1-27.4"/>
			<path class="Graphic_x0020_Style_x0020_95" d="M638.7,2610.8c-0.7-11-1.4-22-4.9-32.4c-6.7-19.8-22.8-34.7-37.8-49.6
				c-14.9-14.8-29.8-31.5-32.9-52.3"/>
			<path class="Graphic_x0020_Style_x0020_95" d="M565.9,2657.3c15.6-2.7,31.8-0.3,45.4,6.8c13.5,7.1,24.3,18.8,30,32.6"/>
		</g>
		<g>
			<path class="st3" d="M751.3,2928.3c-9.4-121.5,13.9-163.2-14.8-194.8c-17.9-19.7-51.9-30.8-76.9-18.1
				c-30.9,15.7-32.3,59.8-32.3,61.9c-15.7-112.5-65.4-185-109.6-184.5c-20.9,0.2-52,17.1-66.7,46.4c-11.4,22.9-8.6,45.2-6.9,54.5
				c-57.5-89.6-120.4-140.4-154.9-126.2c-13.5,5.6-32.2,25-35.4,50.3c-2.6,20.5,6.1,36.9,10.1,43.4c-49.4-45.4-109-46.7-133.2-20.8
				c-15,16.1-17.2,43.7-9.1,65c11.2,29.7,43.2,49.4,79,46.9c-3.1,1.1-49,17.8-52.6,49.4c-3.9,34.5,45.1,64,83.4,69.9
				c38.1,5.8,68.5-11.5,79-18.2c-4.5,2.6-47.3,27.9-46.4,63.6c1.2,48.9,83.4,69.7,88.6,71c75.1,18.1,140-31.7,152.8-42
				c-26.4,44.2-27,92.3-3.7,117.5c29.1,31.5,84.8,15.5,115,6.9c73.8-21.2,118-76.6,138-106.6
				C753.8,2956.1,752.4,2943.6,751.3,2928.3z"/>
			<path class="Graphic_x0020_Style_x0020_95" d="M177.6,2685.1c55.8,32.7,115.7,58.3,177.8,76.1c89.5,25.6,185.9,36,264.4,85.9
				c23.9,15.2,45.6,33.7,67.1,52.2c24.6,21.1,49.5,42.6,66.6,70.1c15.8,25.5,26.4,22.5,28.9,52.4"/>
			<path class="Graphic_x0020_Style_x0020_95" d="M703.5,2913.7c-4.3-1.4-79.2,2.2-119.8,98.6"/>
			<path class="Graphic_x0020_Style_x0020_95" d="M495,2795.4c-31.9,0.7-59.3,21.8-83,43.1s-48.1,44.6-79.3,51.4"/>
			<path class="Graphic_x0020_Style_x0020_95" d="M385.3,2768.3c-17.2-2.3-29.6-18.3-35.1-34.7c-5.5-16.5-5.8-34.2-9.8-51.1
				s-12.8-34.2-28.7-41.1"/>
			<path class="Graphic_x0020_Style_x0020_95" d="M314.3,2747.6c-4.9-1.9-10-3.8-15.3-4c-7.9-0.3-15.5,3.1-22.4,7
				c-14.2,8-27,18.3-41,26.7c-14,8.4-29.8,15-46.1,14.4"/>
			<path class="Graphic_x0020_Style_x0020_95" d="M587.7,2828.2c-10.3-7.8-20.8-15.6-28.9-25.7c-15.5-19.3-20.8-44.6-26.6-68.7
				c-5.8-24.1-13.5-49.3-32.1-65.7"/>
			<path class="Graphic_x0020_Style_x0020_95" d="M675.6,2787.5c-11.7,13.3-18.8,30.7-19.8,48.4s6.6,36.7,16.8,51.2"/>
		</g>
	</g>
	<linearGradient id="SVGID_4_" gradientUnits="userSpaceOnUse" x1="329.7603" y1="3116.1575" x2="3822.9775" y2="3116.1575">
		<stop  offset="0" style="stop-color:#68B2FC"/>
		<stop  offset="1" style="stop-color:#529BF7"/>
	</linearGradient>
	<ellipse class="st4" cx="2076.4" cy="3116.2" rx="1746.6" ry="167.9"/>
	<ellipse class="st5" cx="3092.1" cy="3117.8" rx="480.7" ry="66.6"/>
	<ellipse class="st5" cx="1309.6" cy="3117.8" rx="480.7" ry="66.6"/>
	<circle class="Graphic_x0020_Style_x0020_27" cx="3102.9" cy="1872.2" r="21.7"/>
	<g>
		<polyline class="Graphic_x0020_Style_x0020_209" points="915,1950.6 1230.7,2004.8 1520.4,2168.7 1771.4,1933.7 2127.7,1933.7 
			2371.7,1645.4 2859.5,1519.8 3088.1,1187.6 3344.9,1125.8 		"/>
		<circle class="Graphic_x0020_Style_x0020_83" cx="912.3" cy="1950.6" r="15.3"/>
		<path class="Graphic_x0020_Style_x0020_27" d="M1247.3,2004c0-8.5-6.8-15.3-15.3-15.3s-15.3,6.8-15.3,15.3
			c0,8.4,6.9,15.3,15.3,15.3S1247.3,2012.4,1247.3,2004z"/>
		<circle class="Graphic_x0020_Style_x0020_27" cx="1520.4" cy="2168.7" r="15.3"/>
		<path class="Graphic_x0020_Style_x0020_83" d="M1783.7,1936.9c0-8.4-6.9-15.3-15.3-15.3s-15.3,6.9-15.3,15.3
			c0,8.4,6.9,15.3,15.3,15.3S1783.7,1945.4,1783.7,1936.9z"/>
		<circle class="Graphic_x0020_Style_x0020_83" cx="2126" cy="1933.9" r="15.3"/>
		<path class="Graphic_x0020_Style_x0020_83" d="M2386.2,1645.4c0-8.4-6.9-15.3-15.3-15.3s-15.3,6.9-15.3,15.3s6.8,15.3,15.3,15.3
			S2386.2,1653.8,2386.2,1645.4z"/>
		<path class="Graphic_x0020_Style_x0020_83" d="M3102.8,1189.3c0-8.4-6.8-15.3-15.3-15.3c-8.5,0-15.3,6.8-15.3,15.3
			c0,8.5,6.9,15.3,15.3,15.3C3096,1204.6,3102.8,1197.7,3102.8,1189.3z"/>
		<path class="Graphic_x0020_Style_x0020_83" d="M3359.6,1126.7c0-8.4-6.8-15.3-15.3-15.3s-15.3,6.8-15.3,15.3s6.9,15.3,15.3,15.3
			S3359.6,1135.2,3359.6,1126.7z"/>
	</g>
	<g>
		<path class="st6" d="M1336.2,2172.7c0,0-0.4,3.1-1.3,8.7c-8.5,55.6-58.5,360.4-135.2,371.4c-127.2,18.1-220.6-397.6-216.2-404.1
			l7.7-4.9l20.7-13.3c0,0,156,198.5,152.6,256.3c8.4-31,47.8-264.9,47.8-264.9L1336.2,2172.7z"/>
		<path class="Graphic_x0020_Style_x0020_219" d="M1335,2181.4c-8.5,55.6-58.5,360.4-135.2,371.4
			c-127.2,18.1-220.6-397.6-216.2-404.1l7.7-4.9c26.6,89.3,115.9,369.5,191.1,381.2c89.6,14,126-362.5,129.9-356.3
			C1313.9,2171.2,1323.7,2176.1,1335,2181.4z"/>
		<path class="st7" d="M1025.3,2142.4c0,0-2.5-18.5-18-45.7c-21.6-37.7-47.6-59.2-47.6-59.2s-16,8.8-14.1,13.2
			c24.7,38.5,10.9,45,10.9,45s-23.4-3.4-56.4,11.8c-24,11-63.4,66.9-63.4,66.9s6.2,12.6,39.3-2.6c33-15.2,73.2-40.1,89-27.6
			c15.8,12.4,21,21.8,21,21.8L1025.3,2142.4z"/>
		<path class="st6" d="M1509.5,2202.2L1406,2986.5l-12.5,4.4l-19,6.6c0,0-61.7-283.9-21.8-407.6c-6.3-138.2-9-291.2-2-353.6
			c17.3-19.8,34.5-32.6,50.8-40.6C1461.2,2166.6,1509.5,2202.2,1509.5,2202.2z"/>
		<path class="Graphic_x0020_Style_x0020_219" d="M1393.4,2990.9l-19,6.6c0,0-61.7-283.9-21.8-407.6c-6.3-138.2-9-291.2-2-353.6
			c17.3-19.8,34.5-32.6,50.8-40.6c-15.2,93.3-38.2,263.4-26.3,376.6C1369.5,2661.6,1384.9,2881.5,1393.4,2990.9z"/>
		<path class="st7" d="M1368.6,2977.2c0,0-8.5,16.6-11.2,47.9c-3.7,43.3,5.5,75.8,5.5,75.8s18.2,1.8,19.1-2.8
			c1.6-45.7,16.6-43.2,16.6-43.2s17.3,16.1,53.1,22.4c26,4.6,90.2-18.9,90.2-18.9s2-13.9-33.8-20.2c-35.8-6.3-83-8.7-88.9-28
			c-5.9-19.2-4.9-29.8-4.9-29.8L1368.6,2977.2z"/>
		<path class="Graphic_x0020_Style_x0020_216" d="M1317,1875.9c43.6,28.3,108.9,43.6,145.9,0c23.5,43.2,65.2,50.2,107.4,43.2
			c0.7-50.2-5.9-89.6-25.2-104.8c-246.7-10.7-306.3-17.7-306.3-17.7s-22,56.7-41.3,135.7C1243.2,1931.3,1291.9,1911.7,1317,1875.9z"
			/>
		<path class="Graphic_x0020_Style_x0020_218" d="M1247.3,2050.1c19.2-47.1,37-94.2,38.8-144.6c-25.4,17-57.7,26.2-88.5,26.8
			c-22.3,91.5-41,212.8-17.6,310.7c45.9,27.6,87,46.1,123.2,58.1c-14-64.4-42.8-125.1-60.4-190
			C1236.4,2091.5,1240.7,2069.7,1247.3,2050.1z"/>
		<path class="st7" d="M1462.9,1875.9c-37,43.6-102.4,28.3-145.9,0c-8.1,11.6-18.7,21.5-30.9,29.6c-1.9,50.4-19.6,97.5-38.8,144.6
			c-6.5,19.6-10.9,41.4-4.4,61c17.5,64.9,46.4,125.6,60.4,190c135.7,44.6,204.3-2.6,204.1-7.4c-0.1-4.4,60.8-232.5,62.9-374.6
			C1528.1,1926.1,1486.4,1919,1462.9,1875.9z"/>
		<path class="st8" d="M1485.3,1507.2c-12.1-105.3-53.3-147.9-62.8-200.5c-9.5-52.6-4.2-71.6-26.7-98.4c-22.5-26.8-83-30.8-88.3-6.7
			c0,0-82.2,6.4-61.8,128.7c20.4,122.2,36.5,192.4,6.5,224.3c-30,31.9-92.1,74.9-53.3,144
			C1237.7,1767.7,1497.5,1612.5,1485.3,1507.2z"/>
		<path class="st9" d="M1315.9,1462.6c0,0,45.8-21.4,66.8-29.2s69.3-0.6,69.3-0.6l47.3,409.6c0,0-108.1,56-209.1-8.1
			C1282.4,1774.9,1315.9,1462.6,1315.9,1462.6z"/>
		<path class="Graphic_x0020_Style_x0020_219" d="M1416.6,1415.8c-8.6-17-12.4-37.8-12.4-37.8l-64.3,10.3c0,0,5.7,13.7,8.4,28.8
			c2.5,1.4,5.2,2.7,7.9,3.6C1375.7,1425.9,1398.3,1424.9,1416.6,1415.8z"/>
		<path class="st6" d="M1416.6,1415.8c-18.3,9.1-40.9,10.1-60.4,4.9c-2.7-0.9-5.4-2.1-7.9-3.6c2.5,13.9,2.6,29-6.4,36.1
			c39.6,38.9,86.9-1.7,92.9-17.2C1427.2,1432.9,1421.2,1424.9,1416.6,1415.8z"/>
		<path class="Graphic_x0020_Style_x0020_42" d="M1334.6,1445.5C1334.6,1445.5,1334.6,1445.5,1334.6,1445.5
			c-0.9,0.3-10,3.1-21.9,8.8c-8.3,4-18,9.4-27.2,16.3c18.4-2.6,36.5-8.4,53-16.7C1336.1,1448.5,1334.6,1445.5,1334.6,1445.5z"/>
		<path class="st10" d="M1338.5,1453.9c-16.5,8.4-34.6,14.1-53,16.7c-20.2,15.2-38.1,37.8-34.4,69c0.9,7.3,2.9,15,6.4,23.2
			c6,14.2,6.8,33.2,3.9,54.8c-13.9,105.7-114.2,275.6-114.2,275.6s62.5,56.8,152.3-28c12.5-11.8,25.5-26.4,39-44.2
			C1436.3,1691.7,1357.6,1496.5,1338.5,1453.9z"/>
		<path class="st10" d="M1615.9,1892.8c0,0-54.1,53.1-129.3-17.1c-75.3-70.1-57.3-442.3-57.3-442.3s100.4-51.5,100.2,15.6
			c0,7.4,1,18.4,2.9,32.3c9.6,72.2,41.1,220.5,62.5,317.9C1607,1854.1,1615.9,1892.8,1615.9,1892.8z"/>
		<path class="Graphic_x0020_Style_x0020_42" d="M1594.9,1799.3c-14.4,1.3-35.4,0.8-51.5-10.4c-26.9-18.6-95.2-113.9-105.1-172.8
			c-9.8-59,76.6,26.9,73.5,3.1c-3.1-23.8,2.2-119.1,20.5-137.8C1542,1553.5,1573.5,1701.8,1594.9,1799.3z"/>
		<path class="Graphic_x0020_Style_x0020_80" d="M1446.6,1488.2c0,0,25.4,55.4,44,76.3c18.6,21,24.6,30.8,24.6,30.8l-2.6-100.4
			c0,0,26.4,123.2,26.4,137.9c0,14.7-2.3,24.3-13.2,15.8c-10.9-8.5-61.2-70.4-68.3-86.7c-7-16.3-21.5-55.1-20-66.5
			C1439.1,1484.1,1446.6,1488.2,1446.6,1488.2z"/>
		<path class="st6" d="M1158,1150.7c21.4-8.9,34-28,33.1-49c-4.7-4.6-10.2-8.7-15.9-12.3c7.1-6.6,30.1-33.4,25.2-36.2
			c-4.9-2.7-57.5,47.1-63,47.1s-17.5-35.1-27.9-30.1c-10.4,4.9,16.4,44.4,19.7,63.6c3.3,19.2-8.8,29.6-8.8,29.6l15.9,21.7
			C1142.3,1170.7,1146.1,1155.1,1158,1150.7z"/>
		<path class="Graphic_x0020_Style_x0020_219" d="M1191.1,1101.7c0.9,21-11.7,40.1-33.1,49c-11.9,4.5-15.7,20-21.7,34.3l11,15
			c0,0,15.9-29,21.3-36.7c5.5-7.7,18.6,1.1,32.5-18.6C1211.3,1130.1,1204.3,1114.4,1191.1,1101.7z"/>
		<path class="st10" d="M1187.8,1448.7c-31.3-7-62.3-16.1-66.1-25.2c-1.5-67.3,47.5-237.8,47.5-237.8c-9.4-17-23.2-25.2-40.4-26.9
			c-4-0.4-8.2-0.4-12.5-0.1c0,0-62.2,188.1-64.7,249.9c-3.3,81.8,1.7,111.2,131.3,135.3c60.6,11.3,75.3,50.2,78.6,73.6
			c1.5,10.7,0.6,18.2,0.6,18.2l22.4-58.7l45.4-119.1C1284,1478.1,1228.5,1478.5,1187.8,1448.7z"/>
		<path class="Graphic_x0020_Style_x0020_42" d="M1329.8,1458.1l4.8-12.5c0,0,0,0-0.1,0c-6.1,3.8-13.8,6.6-21.9,8.8
			c-26,7.1-56.5,7.1-56.5,7.1s-34.4-5.2-68.4-12.8C1228.5,1478.5,1284,1478.1,1329.8,1458.1z"/>
		<path class="st11" d="M1217.6,1874.8c-52-6.2,35.5-118,65.5-232.9c7.2-27.7,6.8-48.7,1.3-64.8c-6-17.7-18.3-29.4-33.3-37.5
			c-28-15-65.6-17.3-91.2-22c-51.7-9.3-79.7-25.9-89-103.2c-7.8-64.5,41.4-209.5,57.9-255.6c-4-0.4-8.2-0.4-12.5-0.1
			c0,0-62.2,188.1-64.7,249.9c-3.3,81.8,1.7,111.2,131.3,135.3c60.6,11.3,75.3,50.2,78.6,73.6c-13.9,105.7-114.2,275.6-114.2,275.6
			s62.5,56.8,152.3-28C1275.1,1870.2,1237.2,1876.8,1217.6,1874.8z"/>
		<path class="st10" d="M1543.5,1666.8c35.2-5.6,39.4-40.4,42.2-77.2c-17.1-79.5-45.8-157.5-45.8-157.5s-14.4-14.2-41.1-17.4
			l0.9,6.5l30.7,215.6c-15.1-14.7-74.6-112.5-74.6-112.5c-9.6-6.8-18.5-8.4-26.7-4.8C1447,1583.3,1477.8,1679.1,1543.5,1666.8z"/>
		<path class="Graphic_x0020_Style_x0020_42" d="M1585.6,1589.6c-2.7,36.8-7,71.6-42.2,77.2c-65.6,12.3-96.5-83.5-114.4-147.4
			c-1.5,0.6-2.9,1.4-4.3,2.4c-3.9,2.7-7.7,6.6-11.3,11.8c0,0,85.2,244.6,155.1,221.4C1607.6,1742,1601.9,1665.1,1585.6,1589.6z"/>
		<path class="Graphic_x0020_Style_x0020_213" d="M1568.5,1755c-69.9,23.2-155.1-221.4-155.1-221.4c3.6-5.2-1.9-0.1,2-2.7
			c18.8,48.3,109.7,240.8,152.3,214.6c63.1-38.8-25.5-285.3-29.3-301.8c-4.6-16.3-39.7-29-39.7-29c26.7,3.2,41.1,17.4,41.1,17.4
			S1648.9,1728.3,1568.5,1755z"/>
		<path class="st6" d="M1279,1261.7c0,0,8,165.6,97.7,143.8c89.7-21.8,12.7-168.3,12.7-168.3l-35.2,7.8L1279,1261.7z"/>
		<path class="st8" d="M1347.5,1223.9c0,0,23.4-2,8.4,43.5c-15,45.5-65.2,71.1-62.3,94.5c-16.6-18.3-38.3-98.8-10.8-117.2
			C1310.2,1226.2,1347.5,1223.9,1347.5,1223.9z"/>
		<path class="st8" d="M1354.3,1226.2c0,0,5.3,26.5,29,32.8c23.7,6.4,28.1,12.7,28.1,12.7s2.2-35.1-21.2-43.5
			C1366.9,1219.7,1354.3,1226.2,1354.3,1226.2z"/>
		<path class="Graphic_x0020_Style_x0020_219" d="M1428,1527.4c-21.7-14.5-16.4-33.4-12.7-53.1c-9,8.3-17,17.5-17.8,24.3
			c-1.8,14.5,24.3,38.8,24.3,38.8s5.8,2.1,13.5,2.6C1433.7,1534.4,1431.5,1529.7,1428,1527.4z"/>
		<path class="st6" d="M1457.6,1534.8c-5-10.2-6.6-30.3-4.7-43.9c1.9-13.6-4.7-40.8-12-36.5c-3.9,2.3-15.4,10.5-25.5,19.8
			c-3.7,19.7-9,38.7,12.7,53.1c3.4,2.3,5.7,7,7.3,12.6C1442.2,1540.4,1450.6,1539.6,1457.6,1534.8z"/>
	</g>
	<linearGradient id="SVGID_5_" gradientUnits="userSpaceOnUse" x1="503.0498" y1="1850.4208" x2="623.3499" y2="1850.4208">
		<stop  offset="0" style="stop-color:#4085F0"/>
		<stop  offset="1" style="stop-color:#275DC9"/>
	</linearGradient>
	<circle class="st12" cx="563.2" cy="1850.4" r="60.2"/>
	<linearGradient id="SVGID_6_" gradientUnits="userSpaceOnUse" x1="326.3896" y1="2421.5981" x2="404.4833" y2="2421.5981">
		<stop  offset="0" style="stop-color:#68B2FC"/>
		<stop  offset="1" style="stop-color:#529BF7"/>
	</linearGradient>
	<circle class="st13" cx="365.4" cy="2421.6" r="39"/>
	<linearGradient id="SVGID_7_" gradientUnits="userSpaceOnUse" x1="3516.0459" y1="2395.3013" x2="3665.3911" y2="2395.3013">
		<stop  offset="0" style="stop-color:#68B2FC"/>
		<stop  offset="1" style="stop-color:#529BF7"/>
	</linearGradient>
	<circle class="st14" cx="3590.7" cy="2395.3" r="74.7"/>
	<g>
		
			<ellipse transform="matrix(0.7071 -0.7071 0.7071 0.7071 -206.2199 1770.6157)" class="Graphic_x0020_Style_x0020_99" cx="2034.2" cy="1134.2" rx="418.3" ry="418.3"/>
		<circle class="Graphic_x0020_Style_x0020_212" cx="2034.2" cy="1134.2" r="349.4"/>
		
			<ellipse transform="matrix(0.7071 -0.7071 0.7071 0.7071 -206.2199 1770.6157)" class="Graphic_x0020_Style_x0020_99" cx="2034.2" cy="1134.2" rx="280.4" ry="280.4"/>
		<circle class="Graphic_x0020_Style_x0020_212" cx="2034.2" cy="1134.2" r="211.5"/>
		
			<ellipse transform="matrix(0.7071 -0.7071 0.7071 0.7071 -206.2199 1770.6157)" class="Graphic_x0020_Style_x0020_210" cx="2034.2" cy="1134.2" rx="142.6" ry="142.6"/>
		
			<ellipse transform="matrix(0.7071 -0.7071 0.7071 0.7071 -206.2199 1770.6157)" class="Graphic_x0020_Style_x0020_39" cx="2034.2" cy="1134.2" rx="73.7" ry="73.7"/>
		<polygon class="Graphic_x0020_Style_x0020_88" points="2553.3,793 2493.5,836.8 2447.4,843.8 2514.5,794.9 		"/>
		<path class="Graphic_x0020_Style_x0020_90" d="M2034.2,1134.2L2507,784.9l11.2,8.2L2042,1144
			C2033,1145.3,2026.9,1144.6,2034.2,1134.2z"/>
		<path class="Graphic_x0020_Style_x0020_88" d="M2447.4,836.8c0,0,14.7-43.1,17.1-43.9c2.3-0.8,61.7-48.5,61.7-48.5l-18.6,46.2
			L2447.4,836.8z"/>
	</g>
	<g>
		<path class="Graphic_x0020_Style_x0020_216" d="M3433.4,2650l101.5,54.9c0,0-1.7,68.2-23.3,81.5c-23.3-3.3-23.3-3.3-23.3-3.3
			s-48.2,153-88.1,154.7c-28.3-20,0-187.9,0-187.9l-12.6-29.9L3433.4,2650z"/>
		<path class="Graphic_x0020_Style_x0020_216" d="M2999.8,2981.6l21.7,113.3c0,0-53.9,41.9-77.8,33.5
			c-12.2-20.1-12.2-20.1-12.2-20.1s-149,59.5-175.5,29.6c-2.4-34.5,145.5-118.9,145.5-118.9l15.2-28.7L2999.8,2981.6z"/>
		<path class="Graphic_x0020_Style_x0020_216" d="M3158.2,2436.4c-11.4-9-22.3-17.9-32.5-26.6L3112,2470
			c9.6,10.9,19.5,21.4,29.6,31.5L3158.2,2436.4z"/>
		<path class="st7" d="M3050.9,2318.8c-5.3-78.3-39.6-321.3-39.6-321.3l-31.9-12.1c-22.7,74.5-28.7,149.2-15.9,228
			c13.1,71.9,58.8,124.1,98,187.3c8.7,10.9,15.2,26.1,24,37c8.7,11.2,17.6,21.9,26.7,32.2l13.6-60.1
			C3082.4,2373,3052.3,2340,3050.9,2318.8z"/>
		<path class="st7" d="M3158.2,2436.4l-16.5,65c47.8,47.5,101.3,85.6,161.4,114.9c45.6,21.7,95.6,34.8,141.3,56.5
			c4.1-10.6,7.1-22.8,8.7-36.6C3453,2636.2,3277.3,2530.3,3158.2,2436.4z"/>
		<path class="Graphic_x0020_Style_x0020_218" d="M3085.3,2437.7c-8.7-10.9-15.2-26.1-24-37c-39.2-63.2-84.9-115.4-98-187.3
			c-12.8-78.8-6.8-153.4,15.9-228l-141.6-53.5c0,0-76.3,426,44.7,534.4c44.2,39.6,121.2,85.9,201.2,128.9L3112,2470
			C3102.9,2459.6,3094,2448.9,3085.3,2437.7z"/>
		<path class="Graphic_x0020_Style_x0020_216" d="M3141.6,2501.4c-10.1-10.1-20-20.6-29.6-31.5l-28.4,125.2
			c10,5.4,20.1,10.7,30.1,16L3141.6,2501.4z"/>
		<path class="Graphic_x0020_Style_x0020_218" d="M3303.1,2616.3c-60.1-29.3-113.7-67.3-161.4-114.9l-27.9,109.7
			c129.6,67.7,257.2,123.1,257.2,123.1c33.9-8.6,60-27.1,73.4-61.5C3398.7,2651.1,3348.7,2638,3303.1,2616.3z"/>
		<path class="Graphic_x0020_Style_x0020_69" d="M2898.1,2450.9c39.7-214.6,0-323.1,0-323.1S2856.9,2390.7,2898.1,2450.9"/>
		<path class="Graphic_x0020_Style_x0020_218" d="M2908.9,2503.1c-2.2-100.2,19.6-198.2,6.5-300.5c-3.4-20.6-0.1-52-17.8-65.5
			c-13.3,285.2-7.5,865.5-7.5,865.5h78.3c-11.5-47.8-20.6-97.2-22.6-146.7C2941.6,2736.1,2913.3,2620.7,2908.9,2503.1z"/>
		<path class="st7" d="M3050.5,2627.2c6.5-47.9,8.7-93.6,19.6-141.6c37-137.2,76.2-270,67.5-411.6c-1.8-29.5-2.1-62-16.7-89.8
			c-65.4,1.3-173.9,8.3-201.8,40l-21,103.6c-0.2,3.1-0.3,6.2-0.4,9.3c17.6,13.4,14.3,44.9,17.8,65.5c13.1,102.4-8.7,200.4-6.5,300.5
			c4.4,117.6,32.7,233,37,352.8c2,49.4,11.1,98.9,22.6,146.7h40.8c2.4-104.8,24.1-209.6,30.3-314.4
			C3039.6,2668.6,3048.3,2646.8,3050.5,2627.2z"/>
		<path class="Graphic_x0020_Style_x0020_218" d="M3171.6,1984.2c0,0-20.8-0.6-50.7,0c14.5,27.8,14.8,60.4,16.7,89.8
			c8.7,141.6-30.5,274.4-67.5,411.6c-10.9,47.9-13.1,93.6-19.6,141.6c-2.2,19.6-10.9,41.4-10.9,61c-6.2,104.8-27.8,209.6-30.3,314.4
			h9.8c0,0,97.3-477.1,165.7-712.8C3253.2,2054,3171.6,1984.2,3171.6,1984.2z"/>
		<path class="Graphic_x0020_Style_x0020_27" d="M2819.1,1994.7l4.8,36.5c0,0,161.5,43.3,240.2,32.2
			c78.7-11.1,134.1-33.5,134.1-33.5l-17.7-35.3H2819.1z"/>
		<path class="Graphic_x0020_Style_x0020_219" d="M2665,1745.2c-76.2-78.4-176.4-135-228.7-235.2c-4.4-10.9,0-24,6.5-28.3
			c5.1-5.1,11.5-11.5,15.1-18.2c-15.1,5.3-49.7,16.5-44.1,41c7,30.2,62.8,82.4,62.8,82.4s186.8,218,284.2,205.4
			c40-5.1,93.3-10.2,147-34.6l-3.8-5.4C2829.1,1777.3,2739.8,1763.9,2665,1745.2z"/>
		<path class="st6" d="M2723.5,1695.8c-67.9-26.2-170.6-129.2-195.5-154.8c0,0-24.1-24.8-18.2-36.1c5.8-11.3,37-30.8,39.3-36.5
			c2.3-5.7,2.4-14.9-11-9.1c-13.4,5.9-41.4,25.2-41.1,23.2c0.3-2.1-20.5-80.5-29.5-74.8c-9,5.7,0.9,49.1-3,52.9
			c-0.7,0.7-3.2,1.6-6.6,2.8c-3.6,6.7-10,13.1-15.1,18.2c-6.5,4.4-10.9,17.4-6.5,28.3c52.3,100.2,152.4,156.8,228.7,235.2
			c74.8,18.7,164.1,32.1,239.1,7.1l-54.4-77.5C2803.9,1699.3,2752.5,1706.9,2723.5,1695.8z"/>
		<path class="st15" d="M2717.3,1520.9c9.3-18.5,31.1-37,53.5-40.8c-3-26.9-5.1-45.1-5.1-45.1s-74.1,22-86.3,166.1
			c-2.2,24.4-18.8,71-18.8,71s24.5,57.2,53.9,73.3C2721.3,1669.1,2682.2,1593.1,2717.3,1520.9z"/>
		<path class="Graphic_x0020_Style_x0020_88" d="M2770.8,1480.1c-22.4,3.8-44.2,22.3-53.5,40.8c-35.1,72.2,4.1,148.3-2.8,224.5
			c4.8,2.7,9.8,4.3,14.8,4.3c35.5,0,59.9-39.2,63.2-44.5C2795,1701.2,2779.2,1555.9,2770.8,1480.1z"/>
		<path class="st15" d="M3067.9,1836.7c32.7-87.1,15.2-187.3,2.2-283.1c-1.4-12.1-4-23.9-7.4-35.6c-28.9-53.6-62.2-92.2-100.6-100.6
			c-148.2-32.5-171.9,4.3-206.2,23.7c-34.3,19.5-38.3,82.7-39.9,146.8c-1.2,45,41.1,229.8,66.4,336.3c1.5,0.6,3,1.2,4.6,1.7
			C2887.1,1958.6,3028.7,1936.8,3067.9,1836.7z"/>
		<path class="Graphic_x0020_Style_x0020_89" d="M3062.7,1518c3.4,11.7,5.9,23.5,7.4,35.6c13.1,95.8,30.5,196-2.2,283.1
			c-39.2,100.2-180.8,122-280.9,89.3c-1.5-0.5-3.1-1.1-4.6-1.7c10.8,45.4,18.5,76.5,18.5,76.5s338.4,100.2,411.2-3.8
			C3191.3,1948.8,3145.4,1671.5,3062.7,1518z"/>
		<path class="Graphic_x0020_Style_x0020_88" d="M2937.1,1529.7c-3.8,36.7-11.9,98.2-27.1,152.6l5.2,0.8
			c17.1-47.3,22.3-99.9,24.2-149.2C2939.4,1532.3,2938.5,1531,2937.1,1529.7z"/>
		<path class="st15" d="M3030.9,1463.8c-4.3-4.1-8.9-8.1-13.8-11.9l-80,77.1c0,0.2,0,0.4-0.1,0.7c1.4,1.3,2.3,2.6,2.3,4.2
			c-1.9,49.3-7.1,101.9-24.2,149.2l101.3,15.4c12.5-14.6,22.8-30.5,25.3-49.1C3045.4,1587.4,3049,1523.8,3030.9,1463.8z"/>
		<path class="Graphic_x0020_Style_x0020_88" d="M3030.9,1463.8c18.1,60,14.5,123.5,10.8,185.5c-2.5,18.7-12.8,34.5-25.3,49.1
			l43.7,6.6C3089.3,1621.7,3096.4,1526.7,3030.9,1463.8z"/>
		<path class="st6" d="M2514.7,1858.4c-2.2,30.5,65.3,2.2,95.8,13.1c98,37,213.4,24,296.2-41.4c45-34.6,69.3-82.9,86.2-135.2
			l-72.9-11.1c-14,50-43.9,92.5-72,105.7c-65.9,31-211.3,34.1-247,34.3c0,0-34.5,0.3-38.7-11.8c-4.2-12.1,3.3-48,0.8-53.6
			c-2.5-5.6-9.1-12.1-14.1,1.7c-5,13.7-10.4,47.4-11.6,45.7c-1-1.4-48.2-27.4-66.9-31.6C2496.1,1795.9,2520.1,1819.1,2514.7,1858.4z
			"/>
		<path class="Graphic_x0020_Style_x0020_219" d="M2992.9,1694.9c-16.9,52.3-41.2,100.6-86.2,135.2
			c-82.8,65.3-198.2,78.4-296.2,41.4c-30.5-10.9-98,17.4-95.8-13.1c5.4-39.3-18.6-62.5-44.3-84c-4.3-1-7.1-0.7-7.5,1.2
			c-2.1,10.4,36.2,33.3,36.2,38.7c0,5.4-29.9,51.1-3.3,66.9c26.6,15.8,59.8-1.1,79.4,3.7c6.1,1.7,12.7,3.3,19.5,4.8
			c0.1,0,0.1,0,0.1,0v0c105.1,22.7,290.5,18.6,348.8-60.5c23.9-32.5,57.1-74.5,76.5-130.2L2992.9,1694.9z"/>
		<path class="Graphic_x0020_Style_x0020_219" d="M2897.9,1423.7c-46.2-82.8-44.4-212.9-96.5-230.6c-44.8-15.3-105.2,1.5-115.6,59.4
			c21.4,7.4,48.8,1.3,66.3,13.6c13.1,8.7,4.4,45.7,24,45.7c13.1,0,24-28.3,37-15.2c10.9,10.9-2.2,28.3,4.4,41.4
			c6.5,13.1,26.1,4.4,32.7,10.9c20,27.1,24.1,58.8,28.2,91C2886.4,1435.4,2893.2,1430,2897.9,1423.7z"/>
		<path class="st6" d="M2817.4,1338c-6.5-13.1,6.5-30.5-4.4-41.4c-13.1-13.1-24,15.2-37,15.2c-19.6,0-10.9-37-24-45.7
			c-17.5-12.3-44.9-6.2-66.3-13.6c-1.7,9.4-2.1,19.9-0.9,31.5c8.9,83.2,32.2,131.9,75.4,125.3c23.3,14.4,22.7,50.3,22.7,50.3
			c3.6,2.7,60.7-0.7,95.2-19.8c-4.1-32.1-8.2-63.9-28.2-91C2843.6,1342.3,2824,1351,2817.4,1338z"/>
		<path class="st8" d="M2664.2,1247.1c0,0,27.4,15,77.3,7.5c49.9-7.5,19.2,30.8,31.6,49.9c20-0.8,18.3-43.2,40.7-13.3
			c22.5,29.9,5.8,40.7,5.8,40.7s20.2,4.4,34.9,7.5c14.7,3.1,22.5-15.4,22.5-15.4s-15.8-86.1-23.3-111.9c-7.5-25.8-20-58.2-77.3-51.6
			C2719.1,1167.3,2650.9,1163.2,2664.2,1247.1z"/>
		<path class="Graphic_x0020_Style_x0020_219" d="M2796.8,1387.3c0,0-18.1,15.5-38.4,22.3c17.8,18.5,17.8,18.5,17.8,18.5
			S2796.8,1403.9,2796.8,1387.3z"/>
	</g>
	<g>
		<path class="Graphic_x0020_Style_x0020_26" d="M2250.3,2876.4c-3.1,0-5.7,3.1-5.7,6.9v78c0,3.8,2.6,6.9,5.7,6.9h68.7v-91.9H2250.3
			z"/>
		<rect x="2318.9" y="2876.4" class="Graphic_x0020_Style_x0020_27" width="33.5" height="91.9"/>
		<rect x="2352.4" y="2876.4" class="st16" width="187.6" height="91.9"/>
		<path class="st10" d="M2677,2876.4h-137v91.9h137c3.1,0,5.7-3.1,5.7-6.9v-78C2682.7,2879.5,2680.2,2876.4,2677,2876.4z"/>
		<rect x="2318.9" y="2784.5" class="Graphic_x0020_Style_x0020_27" width="33.5" height="91.9"/>
		<rect x="2352.4" y="2784.5" class="st16" width="187.6" height="91.9"/>
		<path class="st10" d="M2677,2784.5h-137v91.9h137c3.1,0,5.7-3.1,5.7-6.9v-78C2682.7,2787.6,2680.2,2784.5,2677,2784.5z"/>
		<path class="Graphic_x0020_Style_x0020_26" d="M2250.3,2784.5c-3.1,0-5.7,3.1-5.7,6.9v78c0,3.8,2.6,6.9,5.7,6.9h68.7v-91.9H2250.3
			z"/>
		<path class="Graphic_x0020_Style_x0020_26" d="M2250.3,2692.5c-3.1,0-5.7,3.1-5.7,6.9v78c0,3.8,2.6,6.9,5.7,6.9h68.7v-91.9H2250.3
			z"/>
		<rect x="2318.9" y="2692.5" class="Graphic_x0020_Style_x0020_27" width="33.5" height="91.9"/>
		<rect x="2352.4" y="2692.5" class="st16" width="187.6" height="91.9"/>
		<path class="st10" d="M2677,2692.5h-137v91.9h137c3.1,0,5.7-3.1,5.7-6.9v-78C2682.7,2695.6,2680.2,2692.5,2677,2692.5z"/>
		<path class="st10" d="M2250.3,2600.6c-3.1,0-5.7,3.1-5.7,6.9v78c0,3.8,2.6,6.9,5.7,6.9h68.7v-91.9H2250.3z"/>
		<rect x="2352.4" y="2600.6" class="st16" width="187.6" height="91.9"/>
		<path class="st10" d="M2677,2600.6h-137v91.9h137c3.1,0,5.7-3.1,5.7-6.9v-78C2682.7,2603.7,2680.2,2600.6,2677,2600.6z"/>
		<rect x="2318.9" y="2600.6" class="st11" width="33.5" height="91.9"/>
		<path class="st17" d="M2244.6,2580.1v13.5c0,3.8,2.6,6.9,5.7,6.9h68.7v-20.5H2244.6z"/>
		<path class="st10" d="M2318.9,2508.7h-68.7c-3.1,0-5.7,3.1-5.7,6.9v42h74.4V2508.7z"/>
		<rect x="2244.6" y="2557.6" class="st10" width="74.4" height="22.5"/>
		<rect x="2352.4" y="2508.7" class="st16" width="187.6" height="49"/>
		<rect x="2352.4" y="2557.6" class="st16" width="187.6" height="22.5"/>
		<rect x="2352.4" y="2580.1" class="st18" width="187.6" height="20.5"/>
		<path class="st10" d="M2682.7,2515.6c0-3.8-2.6-6.9-5.7-6.9h-137v49h142.7V2515.6z"/>
		<rect x="2540" y="2557.6" class="st10" width="142.7" height="22.5"/>
		<path class="st17" d="M2540,2580.1v20.5h137c3.1,0,5.7-3.1,5.7-6.9v-13.5H2540z"/>
		<rect x="2318.9" y="2508.7" class="st11" width="33.5" height="49"/>
		<rect x="2318.9" y="2557.6" class="st11" width="33.5" height="22.5"/>
		<rect x="2318.9" y="2580.1" class="st19" width="33.5" height="20.5"/>
		<path class="st17" d="M2244.6,2671v13.5c0,3.8,2.6,6.9,5.7,6.9h68.7V2671H2244.6z"/>
		<rect x="2352.4" y="2671" class="st18" width="187.6" height="20.5"/>
		<path class="st17" d="M2540,2671v20.5h137c3.1,0,5.7-3.1,5.7-6.9V2671H2540z"/>
		<rect x="2318.9" y="2671" class="st19" width="33.5" height="20.5"/>
		<path class="st17" d="M2244.6,2761.8v13.5c0,3.8,2.6,6.9,5.7,6.9h68.7v-20.5H2244.6z"/>
		<rect x="2352.4" y="2761.8" class="st18" width="187.6" height="20.5"/>
		<path class="st17" d="M2540,2761.8v20.5h137c3.1,0,5.7-3.1,5.7-6.9v-13.5H2540z"/>
		<rect x="2318.9" y="2761.8" class="st19" width="33.5" height="20.5"/>
		<rect x="2352.4" y="2854.9" class="st18" width="187.6" height="20.5"/>
		<path class="st17" d="M2540,2854.9v20.5h137c3.1,0,5.7-3.1,5.7-6.9v-13.5H2540z"/>
		<rect x="2318.9" y="2854.9" class="st19" width="33.5" height="20.5"/>
		<rect x="2352.4" y="2947.9" class="st18" width="187.6" height="20.5"/>
		<path class="st17" d="M2540,2947.9v20.5h137c3.1,0,5.7-3.1,5.7-6.9v-13.5H2540z"/>
		<rect x="2318.9" y="2947.9" class="st19" width="33.5" height="20.5"/>
	</g>
	<g>
		
			<ellipse transform="matrix(2.392402e-03 -1 1 2.392402e-03 154.5637 4758.856)" class="Graphic_x0020_Style_x0020_80" cx="2462.4" cy="2302" rx="173.5" ry="173.5"/>
		
			<ellipse transform="matrix(2.809045e-03 -1 1 2.809045e-03 153.5403 4757.8945)" class="Graphic_x0020_Style_x0020_211" cx="2462.4" cy="2302" rx="148.9" ry="148.9"/>
		<path class="Graphic_x0020_Style_x0020_212" d="M2495.3,2344.9c0-7.2-2.5-13.2-7.6-18.2c-5-4.9-13.5-9.4-25.5-13.4
			c-16.6-5.1-28.8-11.7-36.4-19.9c-7.6-8.2-11.4-18.5-11.4-31.1c0-12.8,3.7-23.3,11.2-31.5c7.5-8.2,17.7-13.1,30.7-14.6v-25.6h17.5
			v25.8c13.1,1.8,23.3,7.3,30.6,16.5c7.3,9.2,11,21.8,11,37.8h-21.6c0-11-2.6-19.8-7.8-26.3c-5.2-6.5-12.3-9.8-21.2-9.8
			c-9.3,0-16.4,2.4-21.3,7.2c-4.9,4.8-7.4,11.5-7.4,20.1c0,8,2.6,14.3,7.8,19.1c5.2,4.7,13.7,9,25.7,12.9
			c11.9,3.9,21.2,8.1,27.9,12.8c6.7,4.6,11.6,10.1,14.8,16.2c3.2,6.2,4.7,13.4,4.7,21.7c0,13.2-4,23.8-11.9,31.9
			c-7.9,8-19,12.8-33.3,14.3v22.4h-17.3v-22.4c-14.5-1.3-25.9-6.5-34.1-15.5c-8.2-9-12.4-21.3-12.4-36.7h21.7
			c0,10.9,2.8,19.2,8.5,25.1c5.7,5.9,13.8,8.8,24.2,8.8c10.2,0,18.3-2.5,24.1-7.4C2492.3,2360.2,2495.3,2353.5,2495.3,2344.9z"/>
	</g>
	<g>
		<rect x="1547.1" y="2628.4" class="st20" width="798.7" height="370.3"/>
		<path class="Graphic_x0020_Style_x0020_87" d="M2296.5,2968.9h-700.2c0-9.1-7.3-16.4-16.4-16.4v-278c9.1,0,16.4-7.3,16.4-16.4
			h700.2c0,9.1,7.3,16.4,16.4,16.4v278C2303.9,2952.5,2296.5,2959.8,2296.5,2968.9z"/>
		<circle class="Graphic_x0020_Style_x0020_84" cx="1946.4" cy="2813.5" r="97.4"/>
		<g>
			<g>
				<path class="st21" d="M1964.7,2832.8c0-4-1.4-7.4-4.2-10.1c-2.8-2.7-7.5-5.2-14.2-7.4c-9.3-2.8-16-6.5-20.3-11.1
					c-4.2-4.5-6.4-10.3-6.4-17.3c0-7.1,2.1-13,6.2-17.6c4.2-4.6,9.9-7.3,17.1-8.2v-14.3h9.7v14.4c7.3,1,13,4.1,17.1,9.2
					c4.1,5.1,6.1,12.2,6.1,21.1h-12c0-6.2-1.5-11-4.4-14.7c-2.9-3.6-6.9-5.4-11.8-5.4c-5.2,0-9.1,1.3-11.9,4
					c-2.7,2.7-4.1,6.4-4.1,11.2c0,4.4,1.4,8,4.3,10.6c2.9,2.6,7.7,5,14.3,7.2c6.6,2.2,11.8,4.5,15.5,7.1c3.7,2.6,6.5,5.6,8.2,9
					c1.8,3.4,2.6,7.5,2.6,12.1c0,7.4-2.2,13.3-6.6,17.7c-4.4,4.5-10.6,7.1-18.6,8v12.5h-9.7v-12.5c-8.1-0.7-14.4-3.6-19-8.6
					c-4.6-5-6.9-11.8-6.9-20.5h12.1c0,6,1.6,10.7,4.8,14c3.2,3.3,7.7,4.9,13.5,4.9c5.7,0,10.2-1.4,13.4-4.1
					C1963.1,2841.3,1964.7,2837.6,1964.7,2832.8z"/>
			</g>
		</g>
		<g>
			<circle class="Graphic_x0020_Style_x0020_212" cx="2187.3" cy="2813.5" r="41.4"/>
			<circle class="Graphic_x0020_Style_x0020_212" cx="1712.5" cy="2813.5" r="41.4"/>
		</g>
	</g>
	<linearGradient id="SVGID_8_" gradientUnits="userSpaceOnUse" x1="3665.3911" y1="2862.4663" x2="3883.0068" y2="2862.4663">
		<stop  offset="0" style="stop-color:#68B2FC"/>
		<stop  offset="1" style="stop-color:#529BF7"/>
	</linearGradient>
	<circle class="st22" cx="3774.2" cy="2862.5" r="108.8"/>
</g>
<path class="st8" d="M2000,2000"/>
</svg>
