<?xml version="1.0" encoding="utf-8"?>
<!-- Generator: Adobe Illustrator 22.0.0, SVG Export Plug-In . SVG Version: 6.00 Build 0)  -->
<svg version="1.1" id="Layer_1" xmlns="http://www.w3.org/2000/svg" xmlns:xlink="http://www.w3.org/1999/xlink" x="0px" y="0px"
	 viewBox="0 0 4000 4000" style="enable-background:new 0 0 4000 4000;" xml:space="preserve">
<style type="text/css">
	.st0{fill:none;stroke:#1A1A1A;stroke-width:3;stroke-linecap:round;stroke-linejoin:round;stroke-miterlimit:10;}
	.st1{fill:#FFFFFF;stroke:#1A1A1A;stroke-width:2;stroke-linecap:round;stroke-linejoin:round;stroke-miterlimit:10;}
	.st2{fill:#D9DBDA;stroke:#1A1A1A;stroke-width:2;stroke-miterlimit:10;}
	.st3{fill:#1A1A1A;stroke:#1A1A1A;stroke-width:2;stroke-linecap:round;stroke-linejoin:round;stroke-miterlimit:10;}
	.st4{fill:#5067EF;stroke:#1A1A1A;stroke-width:2;stroke-linecap:round;stroke-linejoin:round;stroke-miterlimit:10;}
	.st5{fill:#8E9DF4;stroke:#1A1A1A;stroke-width:2;stroke-linecap:round;stroke-linejoin:round;stroke-miterlimit:10;}
</style>
<g>
	<path class="st0" d="M882.6,3251.9c363.4,250,718.8,303.3,867.3,323.8c76.4,10.6,401.8,51.4,826.9-46.3
		c214.5-49.3,1004.7-230.8,1081.3-647.6c24.8-135.2-53.8-140.9-161.9-549.3c-97.7-369.2-56.8-452.4-144.6-682.3
		c0,0-116-303.8-370.1-543.5c-599.9-566.1-1838.8-452.2-1966-92.5c-94.2,266.5,471.3,527.3,375.9,867.3
		c-113.8,405.2-1000,330.6-1069.7,688.1C270.7,2831,695.2,3123.1,882.6,3251.9z"/>
	<path class="st1" d="M951.9,1563.5c-87.3,99.8-373.8,450.8-414.4,931c-14.9,176.9-40.9,484.6,169.6,740.1
		c20.5,24.9,255,301.4,574.4,293c226.7-6,279.3-149.9,501.1-131.1c181.5,15.4,204.8,116.7,424,200.5
		c360.9,137.9,703.4,18.3,732.4,7.7c34.6-12.6,515-194.3,547.4-512.7c11.3-111.3-39.8-162.8-77.1-520.4
		c-6.3-60.6-12.4-131.1,11.6-215.9c28.1-99.4,71.7-127.3,100.2-208.2c7.6-21.5,72.5-217.1-11.6-300.7c-59-58.7-132.9-3.7-196.6-57.8
		c-74.2-63-27.7-183.3-38.5-366.2c-3.4-57-16.7-281.1-127.2-424c-141.8-183.5-321.9-75.5-601.4-235.1
		c-300.2-171.5-224-371.2-508.8-512.7c-224-111.3-556.1-129.3-728.6,46.3c-16.9,17.2-110,112-111.8,246.7
		c-2.9,223.2,248.7,284.2,262.1,466.4C1472.4,1194.8,1223.6,1252.9,951.9,1563.5z"/>
	<path class="st1" d="M2037.1,250.9c-224-111.3-556.1-129.3-728.6,46.3c-16.9,17.2-110,112-111.8,246.7
		c-2.9,223.2,248.7,284.2,262.1,466.4c13.6,184.5-235.2,242.6-506.9,553.2c-87.3,99.8-373.8,450.8-414.4,931
		c-14.9,176.9-40.9,484.6,169.6,740.1c20.5,24.9,255,301.4,574.4,293c226.7-6,279.3-149.9,501.1-131.1
		c133.8,11.3,181.6,69.3,285.3,132.6V267.3C2058.1,261.7,2047.9,256.3,2037.1,250.9z"/>
	<path class="st1" d="M3521.2,2147.5c7.6-21.5,72.5-217.1-11.6-300.7c-59-58.7-132.9-3.7-196.6-57.8c-74.2-63-27.7-183.3-38.5-366.2
		c-3.4-57-16.7-281.1-127.2-424c-141.8-183.5-321.9-75.5-601.4-235.1c-288.8-165-229.3-356-478-496.3v3261.8
		c37,22.6,81.1,45.8,138.8,67.9c360.9,137.9,703.4,18.3,732.4,7.7c34.6-12.6,515-194.3,547.4-512.7
		c11.3-111.3-39.8-162.8-77.1-520.4c-6.3-60.6-12.4-131.1,11.6-215.9C3449.1,2256.2,3492.7,2228.4,3521.2,2147.5z"/>
	<g>
		<path class="st1" d="M3531.4,2114.6c-4.6,16.7-8.6,28.5-10.2,32.9c-5,14.1-10.4,26.7-16.2,38.2c-27.1,54.6-60.9,87.9-84.1,170
			c-21.1,74.6-18.9,138.2-13.8,193.7c0.7,7.5,1.4,15,2.2,22.2c1.8,17,3.6,33.3,5.4,48.9c23.5,201.1,50.8,294.5,64.5,363.7
			c1.6,8.1,3.1,95.2,4.2,102.8H2403.3l26-1847.3h821c6,27,10.4,52.9,13.8,76.4c6.9,48.4,9.2,87.3,10.4,106.7
			c6.4,106.6-6.8,191.9-4.2,257c1.1,27.2,4.9,50.9,14.1,71.1c6.5,14.4,15.8,27.1,28.7,38.1c63.7,54.1,137.5-0.8,196.6,57.8
			C3576.5,1913.2,3549.3,2050.2,3531.4,2114.6z"/>
		<polygon class="st2" points="2277.9,1321.3 2037.9,1450.7 2014.3,3098.9 2403.3,3087 2409.9,2622 2429.3,1239.7 		"/>
		<path class="st1" d="M3531.4,2114.6c-4.6,16.7-8.6,28.5-10.2,32.9c-5,14.1-10.4,26.7-16.2,38.2c-27.1,54.6-60.9,87.9-84.1,170
			c-21.1,74.6-18.9,138.2-13.8,193.7c0.7,7.5,1.4,15,2.2,22.2c1.8,17,3.6,33.3,5.4,48.9c23.5,201.1,50.8,294.5,64.5,363.7
			c1.6,8.1,17.4,78.4,4.2,102.8H2403.3l26-1847.3h821c6,27,10.4,52.9,13.8,76.4c6.9,48.4,9.2,87.3,10.4,106.7
			c6.4,106.6-6.8,191.9-4.2,257c1.1,27.2,4.9,50.9,14.1,71.1c6.5,14.4,15.8,27.1,28.7,38.1c63.7,54.1,137.5-0.8,196.6,57.8
			C3576.5,1913.2,3549.3,2050.2,3531.4,2114.6z"/>
		<rect x="2511.3" y="1316.1" class="st3" width="514" height="363.6"/>
		<rect x="2511.3" y="1750.9" class="st3" width="514" height="363.6"/>
		<rect x="2511.3" y="2185.7" class="st3" width="514" height="363.6"/>
		<rect x="2511.3" y="2620.5" class="st3" width="514" height="363.6"/>
		<rect x="2518" y="1323.4" class="st1" width="514" height="363.6"/>
		<rect x="2518" y="1758.1" class="st1" width="514" height="363.6"/>
		<rect x="2518" y="2192.9" class="st1" width="514" height="363.6"/>
		<rect x="2518" y="2627.7" class="st1" width="514" height="363.6"/>
		<path class="st3" d="M3270.3,1679.8h-165.4v-363.7h159.2c0.4,2.4,0.7,4.7,1,7.1c6.1,45.1,8.3,81.1,9.4,99.6
			C3280.9,1529.4,3267.7,1614.7,3270.3,1679.8z"/>
		<path class="st1" d="M3531.4,2114.6h-418.5V1758h175c6.2,11.5,14.4,21.9,25.2,31c0.9,0.8,1.8,1.5,2.6,2.2
			c62.7,50.2,134.9-1.6,193,54.8c0.3,0.3,0.6,0.6,0.9,0.9C3576.5,1913.2,3549.3,2050.2,3531.4,2114.6z"/>
		<path class="st3" d="M3287.9,1758h-175v356.6h-8v-363.7h179.5C3285.5,1753.3,3286.7,1755.7,3287.9,1758z"/>
		<path class="st3" d="M3505.1,2185.7c-1.2,2.4-2.4,4.8-3.6,7.1c-26.5,50.6-58.3,84.4-80.4,162.9c-21.1,74.6-18.9,138.2-13.8,193.7
			h-302.3v-363.6H3505.1z"/>
		<path class="st3" d="M3479.3,2984.1h-374.4v-363.7h309.9c0.3,2.4,0.5,4.7,0.8,7.1C3439,2823.7,3465.8,2915.8,3479.3,2984.1z"/>
		<path class="st1" d="M3270.3,1679.8h-157.4v-356.6h152.2c6.1,45.1,8.3,81.1,9.4,99.6C3280.9,1529.4,3267.7,1614.7,3270.3,1679.8z"
			/>
		<path class="st1" d="M3421,2355.7c-21.1,74.6-18.9,138.2-13.8,193.7h-294.3v-356.6h388.5C3475,2243.3,3443.2,2277.2,3421,2355.7z"
			/>
		<path class="st1" d="M3479.3,2984.1h-366.4v-356.6h302.7C3439,2823.7,3465.8,2915.8,3479.3,2984.1z"/>
		
			<ellipse transform="matrix(0.2271 -0.9739 0.9739 0.2271 801.1329 3764.053)" class="st3" cx="2771.9" cy="1377.3" rx="23.1" ry="23.1"/>
		
			<ellipse transform="matrix(0.2271 -0.9739 0.9739 0.2271 380.9106 4097.563)" class="st3" cx="2771.9" cy="1808.8" rx="23.1" ry="23.1"/>
		
			<ellipse transform="matrix(0.7168 -0.6972 0.6972 0.7168 -777.1299 2567.021)" class="st3" cx="2771.9" cy="2240.3" rx="23.1" ry="23.1"/>
		
			<ellipse transform="matrix(0.2271 -0.9739 0.9739 0.2271 -459.5342 4764.583)" class="st3" cx="2771.9" cy="2671.8" rx="23.1" ry="23.1"/>
		
			<ellipse transform="matrix(0.7373 -0.6755 0.6755 0.7373 -616.8364 2894.2004)" class="st3" cx="3413.3" cy="2240.3" rx="23.1" ry="23.1"/>
		<path class="st3" d="M3413.3,2648.7c-12.8,0-23.1,10.4-23.1,23.1c0,12.8,10.4,23.1,23.1,23.1c4,0,7.7-1,10.9-2.7l-5.9-42.9
			C3416.7,2648.9,3415,2648.7,3413.3,2648.7z"/>
	</g>
	<path class="st4" d="M2111.5,2569c10.8,35.1,18.9,70.3,29.7,108.2c16.2,64.9,83.8,94.6,137.9,67.6c18.2-8.6,36.1-22,51-38.5
		c-57.3-167.6-156.5-438.3-197.3-453.2l-31.6,235.7c2.3,11.9,3.7,23.8,7.6,34.3C2114.2,2536.6,2108.8,2552.8,2111.5,2569z"/>
	<path class="st4" d="M2368,2820.8c-6.8-21.7-20.4-63.3-37.9-114.6c-14.9,16.5-32.8,29.9-51,38.5c-54.1,27-121.7-2.7-137.9-67.6
		c-10.8-37.9-18.9-73-29.7-108.2c-2.7-16.2,2.7-32.4-2.7-46c-4-10.6-5.4-22.4-7.6-34.3l-17.8,132.9c0,0,28.3,286.5,123.4,322.5
		C2301.8,2980.2,2397,2913.3,2368,2820.8z"/>
	<g>
		<path class="st1" d="M1280.9,3076.5c1.9-203-175.4-490.8-175.4-490.8l350.8-30.8l45,538.1
			C1501.3,3092.9,1530.8,3099.7,1280.9,3076.5z"/>
		<path class="st4" d="M2143.8,2272.1c-52.7-116.9-308.4-145.8-392.6-134.9c-53.3,6.9-75.9,23.9-118,74
			c-24.4,29.1-55.3,69.3-102.6,125.2c-128.7,152.3-175.8,746.8-175.8,746.8s119.5-0.9,536.9-54.9c4.7-17.3,19.6-50.1,40.7-92
			c35.1-69.9,87.6-165.3,139.4-256.8C2154.7,2533,2196.4,2389.1,2143.8,2272.1z"/>
		<path class="st4" d="M1817.4,2997.5c136.4-284,148.4-666.3,148.4-666.3h-14.9c0,0-42.2,470.3-147.6,658.5
			C1811.6,3007.1,1817.4,2997.5,1817.4,2997.5z"/>
		<path class="st3" d="M1217.9,3099.7c26-197.6-133.9-412.5-133.9-412.5l21.5-101.5c0,0,177.3,287.8,175.4,490.8
			C1280.9,3076.5,1266.1,3087.1,1217.9,3099.7z"/>
	</g>
	<path class="st1" d="M3488.1,3056.8c0.2,11.3-0.4,22.9-1.6,35.2c-32.4,318.4-512.8,500-547.4,512.7c-29,10.6-371.6,130.2-732.4-7.7
		c-219.2-83.8-242.5-185.1-424-200.5c-221.8-18.8-274.4,125-501.1,131.1c-319.4,8.5-553.9-268.1-574.4-293
		c-47.2-57.3-82.5-117.3-108.7-177.8H3488.1z"/>
	<path class="st2" d="M1069.5,3056.8c0,0,385.5,15.9,474.2,154.7c88.7,138.8,734.4,289.1,816.3,250.6
		c81.9-38.5,534.9-226.2,511.7-232.6c-23.1-6.4-304.5-48.8-273.7-81.6c30.8-32.8,306.5-52,389.3-48.2s88.7-42.9,88.7-42.9H1069.5z"
		/>
	<g>
		<polygon class="st3" points="1789.1,3229.4 2330.1,3365.6 2322.4,3408.1 1789.1,3275.7 		"/>
		<polygon class="st1" points="2365.7,3092.9 1789.1,3229.4 2330.1,3365.6 2813.9,3211.5 		"/>
		<polygon class="st3" points="2456.1,3160.8 2028.4,3262.1 2322.7,3330.4 2681.5,3216.1 		"/>
		<polygon class="st1" points="2804.2,3249.3 2322.4,3408.1 2330.1,3365.6 2813.9,3211.5 		"/>
		<polygon class="st1" points="2507.4,2868.4 2330.1,3350.2 2346.1,3364.2 2813.9,3199.9 3007.6,2749.3 2993.1,2735.4 		"/>
		<polygon class="st1" points="2521.9,2882.3 2344.5,3364.2 2828.3,3213.8 3007.6,2749.3 		"/>
	</g>
	<path class="st1" d="M2374,624.3l-308.6,256.9h-661.7c-8-10.2-16.6-20.2-25.6-30.1c-77.8-85.7-183.3-162.3-181.4-307.2
		c1.8-134.7,94.9-229.6,111.8-246.7c172.5-175.6,504.5-157.6,728.6-46.3c194.3,96.6,220.6,220.2,313.1,343.5
		C2357.6,604.4,2365.6,614.4,2374,624.3z"/>
	<g>
		<path class="st1" d="M833.3,2823.4c33.8-181.8,33-382,11.4-593.2l23.1,6c22.4,212.3,27.6,412.2-10.3,580.8L833.3,2823.4z"/>
		<path class="st3" d="M735.3,2901.6c-26.3-22.3-37.5-62.8-34.6-98.7c-31.1,6-50.1,11.6-50.1,11.6V3056h364.3
			c0.9-24.1,1.4-54.4,0.9-91.5C920.2,2991,811.3,2962.8,735.3,2901.6z"/>
		<path class="st1" d="M735.3,2901.6c76,61.2,184.9,89.4,280.5,62.9c-0.6-41.4-2.5-91.2-6.6-150.1
			c-111.6-39.8-239.6-24.8-308.4-11.6C697.8,2838.8,709,2879.3,735.3,2901.6z"/>
		<path class="st5" d="M848.6,2169.7c-4.6-2.2-9.6-4.1-15.3-5.5c0,0-76,15.4-99.2,111.8c-23.1,96.4-34.7,201.7,5.1,201.7
			c2.3,0,5.1-1,8.2-2.7c16-68.4,36.9-131,41.9-198C794,2235.6,822,2202.1,848.6,2169.7z"/>
		<path class="st3" d="M848.6,2169.7c-26.6,32.4-54.7,66-59.2,107.4c-5,67.1-25.9,129.6-41.9,198
			C797.5,2447.8,947.8,2217.5,848.6,2169.7z"/>
		<path class="st3" d="M457.4,2348.8c6.4,4.6,14.4,7.3,22.3,8c12.4,1.1,24.7-1.7,36.7-5c87.8-24.1,167.3-71.2,245.5-117.8
			c12.7-7.6,26.7-16.9,29.1-31.5c1.2-7.2,22.8-24.8,38.9-39.1c-83.6,13-162.7,45.1-238,94.7C544.5,2288.9,503.3,2319.8,457.4,2348.8
			z"/>
		<path class="st5" d="M845.8,2142.4l-31.4-5.6c-33.9-22.5-158-20.4-198.5-15.9c-39.3,4.4-74.3,28.6-99.9,58.7
			c-25.6,30.1-43.2,66.1-60.6,101.7c-8.9,18.3-17.8,40.6-7.2,58.1c2.3,3.8,5.4,6.9,9,9.5c45.9-29,87.2-59.9,134.6-90.7
			c75.3-49.6,154.4-81.7,238-94.7C842.2,2152.6,851.3,2143.6,845.8,2142.4z"/>
		<path class="st5" d="M792.9,2128l27.2-6c0.6-18.5-8.6-35.9-18.6-51.5c-50.4-79.2-126.8-141.5-214.4-175.1
			c-22.1-8.5-48.9-14.6-68.1-0.7c-2.9,2.1-5.5,4.6-7.7,7.4C620,1955.6,725.9,2027.8,792.9,2128z"/>
		<path class="st3" d="M511.3,1902.2c-6.4,8-10.1,18.3-11.1,28.7c-1.3,13.9,1.8,27.9,6,41.2c16.7,52.2,52.1,98.2,98.3,127.7
			c46.2,29.5,102.9,42.1,157.3,35.1l31.1-6.8C725.9,2027.8,620,1955.6,511.3,1902.2z"/>
		<path class="st5" d="M773.2,1711.9c-2.9-10.2-9.7-18.8-17.5-27.1c-4.3-0.1-8.6,0.2-12.9,1c-21.9,4.2-39.8,21.7-48.6,42.2
			c-8.8,20.5-9.7,43.7-6.9,65.9c13.1,105.5,101.2,192,106.7,298.2l40.6,32.2C855.3,1986.9,811.4,1844.7,773.2,1711.9z"/>
		<path class="st5" d="M896.1,1772.6c-23.9-32.1-57.3-56.3-93.2-73.9c-14.8-7.3-31-13.5-47.2-13.9c7.8,8.3,14.6,16.9,17.5,27.1
			c38.3,132.8,82.1,275,61.4,412.5l3.2,2.6c23.1-56.3,46.3-112.5,69.4-168.8c9.7-23.7,19.6-47.8,22.3-73.2
			C933.9,1845.2,920,1804.7,896.1,1772.6z"/>
		<path class="st5" d="M870.5,2117.5c-1,2.5-1.8,5-2.5,7.6l53.7-15.2c63.8-6.1,126.7-21.2,186.3-44.9c27.5-10.9,55.3-24.4,73.5-47.7
			c27.1-34.9,25.4-86.8,1.6-124.2c-86.8,13.1-165.1,66.1-239.6,113.5C905.6,2033.7,886.7,2076.9,870.5,2117.5z"/>
		<path class="st3" d="M1048.3,1832.2c-42.7,3-84.2,21.7-114.8,51.7c-30.8,30.2-50.1,70.8-59.8,112.9c-9.7,42.1-10.3,85.7-7.7,128.8
			l2-0.6c0.7-2.5,1.5-5.1,2.5-7.6c16.2-40.6,35.1-83.8,73-110.9c74.5-47.4,152.8-100.5,239.6-113.5c-2-3.2-4.2-6.2-6.5-9.2
			C1146.7,1846.4,1096.1,1828.8,1048.3,1832.2z"/>
		<path class="st3" d="M1057,2155.3c-62.2-15-124.4-4.5-185.3-7.6l-25.9,8.2c33.2,38.4,78.3,66.3,127.4,79
			c49.1,12.7,102.1,10,149.7-7.5c1.3-0.5,2.6-1,3.9-1.5C1118.2,2192.7,1097.1,2165.4,1057,2155.3z"/>
		<path class="st5" d="M1158,2155.6c-18.5-51-68.9-88.9-123.1-92.5c-54.2-3.6-109.1,27.3-134.3,75.4l-28.9,9.1
			c60.9,3.1,123.1-7.4,185.3,7.6c40,10,61.1,37.4,69.8,70.6c12.8-5.1,25.4-12.2,31.8-24.2C1166.1,2187.8,1163.4,2170.5,1158,2155.6z
			"/>
		<path class="st5" d="M889.4,2255.4c-8.4-35.7-29.9-68.1-56.8-97.3l-7,111.2c1.9,61.9,22.1,123.2,57.6,174
			c11.9,17.1,26.2,33.5,44.8,42.7C940.5,2409.9,909.5,2329,889.4,2255.4z"/>
		<path class="st5" d="M1003,2406.3c-16-81.5-53.1-158.8-106.6-222.3l-63.1-36.4l-0.7,10.5c26.9,29.2,48.4,61.6,56.8,97.3
			c20.1,73.6,51.1,154.5,38.7,230.6c0.7,0.3,1.3,0.7,2,1c19.6,9,45,8.2,60.6-6.7C1009.6,2462.2,1008,2431.9,1003,2406.3z"/>
	</g>
	<g>
		<path class="st4" d="M1721,2144.9c0,0-13.7-1.3-35.6,2.6c-50.1,9-143.1,45.4-213.7,187.5c-101.5,204.3-100.2,353.4-100.2,353.4
			l120,28.9l42.6,10.3c0,0,41.4-156.1,81-191.8"/>
		<path class="st1" d="M1324.4,2720c0,0-4.3,39,17.3,52c21.7,13,41-21.7,64.6-26c23.6-4.3,93-13,123.4,12.5
			c34.2-2.4,36.6-42.4,19.3-57.8c-17.3-15.4-64.1-38.5-99.3-37.6C1414.5,2664.1,1331.2,2661.7,1324.4,2720z"/>
		<path class="st1" d="M1962.8,2988.1c61.6-11,78.4-59.5,75.3-110.7c-60.9,14.9-143.9,20.5-199.5-37.3L1691.4,3054
			c0,0-26.3,39.2,5.8,57.8c7,4,15.1,8.1,23.5,12.1C1750.3,3037.8,1869.8,3007.1,1962.8,2988.1z"/>
		<path class="st1" d="M2038.1,2877.4c3.1,51.2-13.7,99.7-75.3,110.7c-93.1,19-212.6,49.6-242.1,135.8
			c30.5,14.3,65.2,26.5,65.2,26.5s81.6-23.8,98.9,0c17.3,23.8,16.7,27,17.3,23.8c0.6-3.2,207.5-271.8,208.8-321.2
			C2099.3,2857.8,2072.1,2869,2038.1,2877.4z"/>
		<path class="st1" d="M1608.6,3128.7c40.6,32.4,100,48.7,151.4,29.7c37.9-16.2,81.1-59.5,59.5-100c-1.3-2.8-2.8-5.3-4.5-7.6
			c-28.3-0.8-67.9,18.8-90.2,20.6c-30.8,2.6-33.4-17.3-33.4-17.3l22.5-32.8c0,0-44.3-2.6-74.5,3.9c-32.8-29.6-115-195.3-106-281.4
			c-46-18.8-85.9-22.6-115.1-21.4C1438,2872.6,1482.4,3028.8,1608.6,3128.7z"/>
		<path class="st3" d="M1841.1,3063c-5.9-8.6-15.2-11.9-26.1-12.3c1.7,2.3,3.2,4.9,4.5,7.6c21.6,40.6-21.6,83.8-59.5,100
			c-51.4,18.9-110.9,2.7-151.4-29.7c-126.2-99.9-170.6-256.1-190.3-406.4c-32.1,1.3-51.3,8.6-51.3,8.6s-4.5,122.1,111.1,276.3
			c115.6,154.2,229.4,203,285.9,167C1820.6,3138.2,1862.3,3093.9,1841.1,3063z"/>
	</g>
	<path class="st3" d="M2152.6,2094.2c-0.5-10.5-0.1-19.3,2.1-23.8c-40.5,9.6-55.9,39.5-49.8,51.1c2.5,4.8,12.6,12.5,23.7,20
		C2132.7,2124.4,2134.2,2099.5,2152.6,2094.2z"/>
	<path class="st1" d="M2152.6,2094.2c-18.3,5.3-19.8,30.2-24,47.3c15.8,10.7,33.5,20.8,33.5,20.8S2153.9,2122.3,2152.6,2094.2z"/>
	<path class="st1" d="M1998.6,2095.5c0,0,81,24.1,140.7,3.9c59.8-20.2,56.9-246.7,56.9-246.7s-11.6-57.8-119.5-74.2
		c-107.9-16.4-180.2,52-186,99.3c-5.8,47.2-6.7,82.9,4.8,102.2c11.6,19.3,12.4,40.5,12.4,40.5l-29.8,96.1c0,0,22.2,201.7,81,205.6
		c58.8,3.9,83.8-125.3,83.8-125.3s29.2-92.5,39.5-96.4"/>
	<path class="st3" d="M1968.2,2058.4c0,0,51.1,45.7,109.4,41.9c-46.3,97.3-40.5,95.4-40.5,95.4S1983.3,2138.6,1968.2,2058.4z"/>
	<path class="st3" d="M1994.1,1929.1c0,0-56.7-65.5-86.2-24.4c-29.5,41.1,23.1,73.9,29,78.4c2.6,50.1-29,57.2-29,57.2
		s-49.4-66.8-41.7-134.3c7.7-67.5,21.8-179.3,122.1-195.3c44.3-9,88,12.2,88,12.2s39.2-36.6,81,1.3s60.4,108.7,50.8,149.5
		c-17.3-8.8-41.2-22.9-42.4-36.4c-36,0.6-89.9-19.3-92.5-34.7c-16.1,50.8-50.8,61-67.5,50.8
		C2009.5,1913.6,2014.6,1926.5,1994.1,1929.1z"/>
	<path class="st1" d="M1878.1,2116.3c0,0-63.6-8.8-97.3,12.8c32.3,8.7,85.3,148.9,83.8,216.4c12,5.3,30.4-79,64.6-58.3
		C1915.3,2277.1,1884.8,2139.5,1878.1,2116.3z"/>
	<path class="st1" d="M1983.6,2306c0,0,54.5-23.6,64.6,36.1c28.9-40.5,43.4-121.9,43.4-121.9l-64.6-7.2
		C2027,2213,2017.8,2267,1983.6,2306z"/>
	<circle class="st1" cx="1921.5" cy="2551.6" r="16.7"/>
	<circle class="st1" cx="1887.3" cy="2734.9" r="12.8"/>
	<path class="st1" d="M2199.3,2283.2c1.4,3,2.9,5.9,4.5,8.7C2202.2,2289.1,2200.7,2286.2,2199.3,2283.2z"/>
	<path class="st3" d="M2295.4,2863.7c-21.6,8.1-40.6-10.8-48.7-27c-62.2-127.1-78.4-262.3-89.2-400.2c-2-20.5-5.6-44-14.3-64.8
		c21.9,165.1,35.6,448.4,55.8,492.8c27,59.1,95.1,68.1,156.8-7.7c11.7-14.4,14.3-41.2,10.7-75.6
		C2354.3,2816.6,2331.8,2846.5,2295.4,2863.7z"/>
	<path class="st1" d="M2366.5,2781.2c-12.2,35.4-34.7,65.2-71.1,82.5c-21.6,8.1-40.6-10.8-48.7-27c-31-63.3-50.5-128.6-63.7-195.2
		c0,0,0,0,0-0.1c0,0,0-0.1,0-0.2c-11.4-57.7-18-116.4-23.1-175.7c-0.8-9.7-1.6-19.4-2.4-29.1c-1.6-15.6-4-33-8.9-49.6
		c-1.5-5.2-3.3-10.2-5.4-15.2c-2.4-18.1-4.9-34.8-7.5-49.6c-5.3-30.2-11.2-52.5-17.6-62.9c-9-34.7-39.5-43.4-65.5-33.3
		c-26,10.1-51.6-28.4-67.9-54.9c-5.7-9.1-0.4-18.2,9.7-26.2c11.9-9.4,30.6-17.1,46.3-21.7c5.1-1.5,9.9-2.6,14-3.3
		c3.8-0.6,7-1,9.5-0.9c-3.8-3-9.5-6.2-15.8-8.3l0,0c-6.7-2.2-14.1-3.3-20.8-1.8c-13,2.9-56.4,11.6-62.6,5.3c-3.1-3.1-1.5-7,1-10.2
		c0.8-1,1.6-1.9,2.4-2.7c1.8-1.8,3.4-3,3.4-3s67.5-21.7,84.3-16.9c16.8,4.8,84.3,34.7,95.4,51.1c2.5,3.7,6.2,10.8,10.5,20.4
		c14.9,32.7,37.8,93.9,49.7,145.4c0.5,2.1,1.1,4.5,1.9,7.2l0,0C2233.7,2373.8,2351.8,2640.8,2366.5,2781.2z"/>
	<path class="st1" d="M2048.3,2110.7c-1-0.9-2-1.6-3.1-2.3C2046.2,2109.1,2047.3,2109.9,2048.3,2110.7z"/>
	<path class="st1" d="M2183,2641.3c-11.4-57.7-18-116.4-23.1-175.7C2171.9,2552.7,2182.4,2636.6,2183,2641.3z"/>
	<path class="st1" d="M2765.6,3018.4c-7.9,15.4-23.7,23.1-35.4,17.1c-11.7-6-14.8-23.3-6.9-38.7s23.7-23.1,35.4-17.1
		C2770.4,2985.7,2773.5,3003,2765.6,3018.4z"/>
	<path class="st5" d="M826,2161.1c23.5-3.1,59.2-16.3,93.4-24.4c45.3-10.8,89.8-90.6,90.1-119.8
		C926.8,2028.9,847.9,2077.3,826,2161.1z"/>
	<path class="st5" d="M1006.3,2007.3c-17-12-83.2-56.1-141.6,23.6c-58.5,79.7-39,94.2-39,94.2c3.5,6.4-12.2,37.7,0.4,36.1
		c21.9-83.8,100.8-132.3,183.5-144.2C1009.6,2012.3,1008.6,2008.9,1006.3,2007.3z"/>
	<path class="st5" d="M839.7,2123.2c-14.9-10.6-75.4-46.8-76.9,64.8c-0.4,32,4.4,43.9,11.9,43.9
		C777.3,2181.5,787.2,2127.2,839.7,2123.2z"/>
	<path class="st3" d="M774.8,2231.9c22.3,0,68.3-106.3,68.3-106.3s-1.2-1-3.3-2.5C787.2,2127.2,777.3,2181.5,774.8,2231.9z"/>
	<path class="st5" d="M871.7,2124c0,0,85-18,120.7,45.7c35.7,63.6-149.4-32.9-149.4-32.9L871.7,2124z"/>
	
		<ellipse transform="matrix(0.1602 -0.9871 0.9871 0.1602 -856.9757 1747.3717)" class="st3" cx="598.4" cy="1377.3" rx="118.7" ry="118.7"/>
	<circle class="st1" cx="774.8" cy="3408.1" r="209.4"/>
	
		<ellipse transform="matrix(0.7071 -0.7071 0.7071 0.7071 -1822.6996 3143.915)" class="st3" cx="2883.7" cy="3772.2" rx="61.7" ry="61.7"/>
	<circle class="st1" cx="3552.3" cy="1612.7" r="130.2"/>
	<ellipse class="st3" cx="1774.2" cy="758.4" rx="130.6" ry="36.1"/>
	<ellipse class="st1" cx="1774.2" cy="779.6" rx="130.6" ry="36.1"/>
	<g>
		<path class="st1" d="M1168.4,1237.5h646.1c75.9,0,137.4,61.5,137.4,137.4v59.4c0,75.9-61.5,137.3-137.3,137.4l31.9,133.1
			c4.3,17.9-18.6,29.2-30.2,14.9l-119.9-148h-528c-75.9,0-137.4-61.5-137.4-137.4v-59.4C1031,1299,1092.5,1237.5,1168.4,1237.5z"/>
		<path class="st4" d="M1137.5,1465.2c50.3-57.6,102.6-94.7,151.6-86.1c43.8,7.7,48.2,45.6,102.8,63c81.7,26,167.9-28.2,179.9-36
			c64.4-41.7,55.3-79.2,111.8-96.4c49.5-15.1,109.4-2.4,120.8,0c18.3,3.9,33.2,8.9,43.7,12.8c0,67.3,0,134.5,0,201.8
			c-237.7,0-475.4,0-713.2,0C1135.7,1504.6,1136.6,1484.9,1137.5,1465.2z"/>
	</g>
	<path class="st5" d="M1136.1,1497.6c0,0,82.5-86.3,218.7-46.5c136.2,39.8,184.2-100.2,251.4-134.9c67.2-34.7,149.5-8.7,174.5,7.2
		c25.1,15.9,67.3,39,67.3,39v177.3h-713.2L1136.1,1497.6z"/>
	<polygon class="st3" points="1639.1,1322.9 1670.1,1284.9 1702.7,1322.9 	"/>
	<polygon class="st3" points="1677.1,1318.2 1677.1,1427.1 1662.7,1427.1 1662.7,1316.8 	"/>
</g>
</svg>
