<svg id="Layer_1" data-name="Layer 1" xmlns="http://www.w3.org/2000/svg" xmlns:xlink="http://www.w3.org/1999/xlink" viewBox="0 0 6000 4000"><defs><style>.cls-1{fill:url(#linear-gradient);}.cls-2{fill:url(#linear-gradient-2);}.cls-3{fill:#102140;}.cls-4{fill:#3b546b;}.Graphic-Style-241{fill:#ccc4cc;}.cls-5{fill:#dbd2db;}.cls-6{fill:#fff;}.cls-7{fill:#b080b0;}.Graphic-Style-240{fill:#6584c6;}.Graphic-Style-239{fill:#fc9590;}.cls-20,.cls-8{fill:#1a1a1a;}.cls-15,.cls-17,.cls-18,.cls-19,.cls-9{fill:none;}.cls-9{stroke:#203560;}.cls-15,.cls-17,.cls-18,.cls-19,.cls-20,.cls-9{stroke-linecap:round;stroke-linejoin:round;}.cls-17,.cls-19,.cls-9{stroke-width:8.48916px;}.cls-10{fill:#912433;}.cls-11{fill:#152a52;}.Graphic-Style-238{fill:#ffde70;}.Graphic-Style-237{fill:#ffb114;}.Graphic-Style-234{fill:#e8766f;}.Graphic-Style-236{fill:#db6767;}.Graphic-Style-233{fill:#d1334a;}.Graphic-Style-232{fill:#eb485c;}.cls-12{fill:#1f293e;}.cls-13{fill:#786835;}.cls-14{fill:#339e7e;}.cls-15,.cls-19,.cls-20{stroke:#1a1a1a;}.cls-15,.cls-18,.cls-20{stroke-width:5.65944px;}.cls-16{fill:#00593b;}.cls-17,.cls-18{stroke:#fff;}.cls-21{fill:url(#linear-gradient-3);}.cls-22{fill:url(#linear-gradient-4);}.cls-23{fill:url(#linear-gradient-5);}.cls-24{fill:url(#linear-gradient-6);}.cls-25{fill:url(#linear-gradient-7);}.cls-26{fill:#664708;}</style><linearGradient id="linear-gradient" x1="997.03178" y1="1925.36856" x2="5525.61989" y2="1925.36856" gradientUnits="userSpaceOnUse"><stop offset="0" stop-color="#68b2fc"/><stop offset="1" stop-color="#529bf7"/></linearGradient><linearGradient id="linear-gradient-2" x1="977.94821" y1="1992.93948" x2="5315.54603" y2="1992.93948" gradientUnits="userSpaceOnUse"><stop offset="0" stop-color="#4085f0"/><stop offset="1" stop-color="#275dc9"/></linearGradient><linearGradient id="linear-gradient-3" x1="3861.78286" y1="3562.14689" x2="4241.13095" y2="3562.14689" xlink:href="#linear-gradient"/><linearGradient id="linear-gradient-4" x1="840.84063" y1="2538.18941" x2="1115.05578" y2="2538.18941" xlink:href="#linear-gradient-2"/><linearGradient id="linear-gradient-5" x1="4694.89451" y1="3511.60166" x2="4885.33512" y2="3511.60166" xlink:href="#linear-gradient-2"/><linearGradient id="linear-gradient-6" x1="1115.39033" y1="3365.06869" x2="1629.34838" y2="3365.06869" xlink:href="#linear-gradient"/><linearGradient id="linear-gradient-7" x1="4991.76198" y1="1739.33359" x2="5424.73121" y2="1739.33359" xlink:href="#linear-gradient-2"/></defs><title>8</title><path class="cls-1" d="M1192.53918,1394.67484c-141.55784,456.22894-269.40232,868.2587-145.24007,1226.47353,105.186,303.46845,355.37578,464.85575,572.89253,605.16764,747.27264,482.03614,1623.31687,316.12931,1815.50292,274.34293,261.995-56.96469,297.43009-110.32833,572.89254-145.24042,512.26357-64.92431,655.89119,85.88815,968.2685-32.27545,260.536-98.55349,543.22607-348.18991,548.68516-613.23677,4.076-197.87537-149.94752-230.52613-314.6875-605.16781-118.76119-270.07952-78.88674-344.4626-177.51518-645.51239-36.13834-110.30812-171.13173-522.354-419.58334-782.68368-348.021-364.65994-866.63348-377.115-1291.02513-387.30737-139.34712-3.34661-1602.71021-21.3805-2025.2946,806.89036C1266.14091,1157.46119,1241.60746,1236.53238,1192.53918,1394.67484Z"/><path class="cls-2" d="M986.78207,1701.29322c57.802,462.26144,391.51965,602.13309,417.56606,1155.87043,12.94237,275.153-65.44694,325.84922,0,411.51422,230.9137,302.24669,1131.61712-427.1775,2051.51924-102.87855,387.53483,136.62033,409.65445,330.22678,744.35587,344.94568,502.54746,22.10027,1076.287-386.95,1113.50857-816.9766,25.04744-289.37857-215.14714-330.76271-357.049-810.92475-177.0302-599.03091,102.26784-854.53462-114.98086-1137.7155C4618.6349,454.36347,4127.60942,467.51128,3703.986,478.8543c-485.96016,13.01215-507.52158,126.80725-1065.09521,187.602C1819.83059,755.762,1573.10886,542.18055,1289.36589,769.33483,1018.242,986.38629,951.04857,1415.52244,986.78207,1701.29322Z"/><path class="cls-3" d="M1591.81154,661.212,1329.90771,2491.09922c10.0408,26.21515,19.37142,53.44775,27.81913,81.90989l280.72257-1912.427C1622.50737,660.45011,1606.97016,660.62783,1591.81154,661.212Z"/><path class="cls-4" d="M5221.13171,2393.53295l-62.70565,464.24383-3.28291,24.22222-2.97066,22.01531-11.43218,84.66534H1403.61445c1.69672-26.54279,2.5741-56.16987,2.03662-89.47573l3614.14636-16.58246,2.99966-26.967h.42419l96.74795-610.1725C5156.04816,2302.18951,5190.99548,2349.21944,5221.13171,2393.53295Z"/><path class="Graphic-Style-241" d="M3812.32779,2524.20939c-667.81388-8.48915-1335.62776-28.29719-2003.44164,8.48916-147.46322,8.04339-300.00005,23.72879-443.18276,68.67753,20.17,75.27031,34.10309,159.21285,38.64612,255.7779.28325,6.056.50847,11.97.70743,17.79905l3573.02975-16.35586,44.7104-.22626,93.89337-592.20454c-145.29534,128.369-293.92333,252.79222-489.40336,283.5105C4352.80427,2594.95239,4081.15117,2577.97407,3812.32779,2524.20939Z"/><path class="cls-5" d="M5088.47478,2193.66983c-46.32284-79.96791-92.78662-178.81-131.77955-310.8165-177.05646-599.05173,102.26508-854.54707-115.0002-1137.71715a505.28231,505.28231,0,0,0-51.58574-57.49993H2344.75052c-326.71934,10.89453-539.57147-25.66558-706.29834-27.05211l-280.7364,1912.43792q4.14717,13.9638,7.98761,28.354c143.18271-44.94874,295.71954-60.63414,443.18276-68.67753,667.81388-36.78635,1335.62776-16.97831,2003.44164-8.48916,268.82338,53.76468,540.47648,70.743,814.95931,25.46748,195.48-30.71828,344.108-155.14149,489.40336-283.5105l3.27877-20.68438Q5104.307,2220.86348,5088.47478,2193.66983Z"/><polygon class="Graphic-Style-241" points="3348.954 1837.12 3611.243 1845.636 3601.107 1874.775 3340.885 1864.901 3348.954 1837.12"/><polygon class="Graphic-Style-241" points="3333.879 1925.369 3596.168 1933.885 3586.032 1963.023 3325.81 1953.15 3333.879 1925.369"/><polygon class="Graphic-Style-241" points="3322.961 2027.748 3585.25 2036.264 3575.115 2065.403 3314.892 2055.529 3322.961 2027.748"/><polygon class="Graphic-Style-241" points="3307.886 2115.996 3570.176 2124.512 3560.04 2153.651 3299.817 2143.778 3307.886 2115.996"/><polygon class="Graphic-Style-241" points="3296.969 2218.376 3559.258 2226.892 3549.122 2256.03 3288.9 2246.157 3296.969 2218.376"/><polygon class="Graphic-Style-241" points="3281.894 2306.624 3544.183 2315.14 3534.047 2344.279 3273.825 2334.405 3281.894 2306.624"/><polygon class="Graphic-Style-241" points="3372.209 1678.095 4759.448 1685.054 4743.31 1723.177 3360.105 1716.219 3372.209 1678.095"/><polygon class="cls-6" points="1739.895 743.615 1656.502 1314.758 2960.333 1328.899 3048.129 743.615 1739.895 743.615"/><polygon class="cls-7" points="1643.197 1413.285 1559.804 1984.428 2863.636 1998.569 2951.431 1413.285 1643.197 1413.285"/><path class="Graphic-Style-240" d="M2383.31927,2280.85349c-50.93495,22.63776-90.551,56.5944-138.65627,93.38075-33.95664,28.2972-73.57271,50.935-116.01851,62.25384-42.4458,14.1486-96.21048,14.1486-141.486-5.65944-56.5944-22.63776-90.551-87.72131-152.80487-96.21047-99.0402-11.31888-200.91011-8.48916-297.12059,25.46747-30.70826,11.5156-57.36538,28.81983-83.37449,46.93615l-37.05993,253.82211,1303.83072,14.14065,60.83068-405.523c-18.36416-6.92939-37.6057-11.24582-58.57437-11.24582C2609.69686,2255.386,2490.84863,2238.40769,2383.31927,2280.85349Z"/><path class="Graphic-Style-239" d="M1944.7127,2314.81013c-8.48916-2.82972-19.808,0-28.2972-5.65944-33.95664-19.808-65.08356-42.4458-99.04019-48.10524-114.38949-28.59737-232.79282-13.03737-345.06831,19.62945l-18.44845,126.34689c26.00911-18.11632,52.66623-35.42055,83.37449-46.93615,96.21048-33.95663,198.08039-36.78635,297.12059-25.46747,62.25383,8.48916,96.21047,73.57271,152.80487,96.21047,45.27551,19.808,99.04019,19.808,141.486,5.65944,42.4458-11.31888,82.06187-33.95664,116.01851-62.25384,48.10524-36.78635,87.72132-70.743,138.65627-93.38075,107.52936-42.4458,226.37759-25.46748,339.56638-22.63776,20.96867,0,40.21021,4.31643,58.57437,11.24582l26.96524-179.76061H2518.90265a100.72032,100.72032,0,0,0-11.0757,12.8802C2377.65983,2283.68321,2156.94169,2396.872,1944.7127,2314.81013Z"/><path class="cls-6" d="M1472.307,2280.6749c112.27549-32.66682,230.67882-48.22682,345.06831-19.62945,33.95663,5.65944,65.08355,28.2972,99.04019,48.10524,8.48916,5.65944,19.808,2.82972,28.2972,5.65944,212.229,82.06187,432.94713-31.12692,563.11425-212.229a100.72032,100.72032,0,0,1,11.0757-12.8802H1500.19107Z"/><path class="cls-8" d="M4758.00965,659.22886l-1945.04274-15.8562c-51.85517,8.24753-109.33385,16.02442-174.07613,23.08352-107.4506,11.71578-205.022,18.20907-294.14578,21.18093H4790.11481Q4774.62044,672.78575,4758.00965,659.22886Z"/><path class="cls-4" d="M4646.86578,587.78448H3077.74468a2661.46307,2661.46307,0,0,1-264.77777,55.58818l1945.04274,15.8562C4724.15941,631.62061,4686.93229,607.9642,4646.86578,587.78448Z"/><path class="cls-3" d="M1405.05832,2874.9551q.42073,12.43011.60657,24.25849L5017.95654,2881.988l4.84332-23.60287Z"/><path class="cls-4" d="M1591.81154,661.212a652.59124,652.59124,0,0,0-83.50437,8.17672l-230.245,1704.7024c18.55622,37.10259,36.06649,75.81676,51.8455,117.00815Z"/><polygon class="Graphic-Style-240" points="3420.149 1411.801 3365.684 1411.801 3388.069 1306.374 3442.534 1306.374 3420.149 1411.801"/><polygon class="Graphic-Style-240" points="3603.842 1411.214 3549.377 1411.214 3618.645 1084.973 3673.11 1084.973 3603.842 1411.214"/><polygon class="Graphic-Style-240" points="3787.409 1411.214 3732.944 1411.214 3773.787 1218.85 3828.253 1218.85 3787.409 1411.214"/><polygon class="Graphic-Style-240" points="3970.977 1411.214 3916.512 1411.214 3973.616 1142.266 4028.081 1142.266 3970.977 1411.214"/><polygon class="Graphic-Style-240" points="4154.819 1409.923 4100.354 1409.923 4196.104 958.956 4250.569 958.956 4154.819 1409.923"/><polygon class="Graphic-Style-240" points="4338.386 1409.923 4283.921 1409.923 4360.39 1049.769 4414.855 1049.769 4338.386 1409.923"/><polygon class="Graphic-Style-240" points="4521.954 1409.923 4467.489 1409.923 4594.64 811.066 4649.105 811.066 4521.954 1409.923"/><polyline class="cls-9" points="3450.145 1142.266 3675.898 943.58 3833.28 1066.91 4031.63 997.288 4233.995 866.002 4415.237 919.71 4639.35 728.748"/><ellipse class="cls-10" cx="3449.56788" cy="1144.98556" rx="16.13812" ry="13.06934" transform="translate(73.22237 2490.6458) rotate(-40.09213)"/><ellipse class="cls-10" cx="3674.55054" cy="949.92844" rx="16.13812" ry="13.06934" transform="translate(251.71146 2589.70231) rotate(-40.09213)"/><ellipse class="cls-10" cx="3832.50713" cy="1070.55146" rx="16.13812" ry="13.06934" transform="translate(211.14624 2719.77449) rotate(-40.09213)"/><ellipse class="cls-10" cx="4032.22963" cy="994.46497" rx="16.13812" ry="13.06934" transform="translate(307.08015 2830.5199) rotate(-40.09213)"/><ellipse class="cls-10" cx="4236.54165" cy="863.51002" rx="16.13812" ry="13.06934" transform="translate(439.42886 2931.32751) rotate(-40.09213)"/><ellipse class="cls-10" cx="4415.20296" cy="919.87038" rx="16.13812" ry="13.06934" transform="translate(445.11538 3059.63282) rotate(-40.09213)"/><ellipse class="cls-10" cx="4639.35025" cy="728.74772" rx="16.13812" ry="13.06934" transform="translate(620.8743 3159.0759) rotate(-40.09213)"/><path class="cls-3" d="M2362.51571,927.89323s64.3162-232.3486,264.5067-98.30133,200.19049,534.40177,241.29832,618.40472S2890.9381,1624.939,2890.9381,1624.939l-206.70895-50.04431Z"/><path class="cls-3" d="M2416.13462,890.36s-87.57755-33.95864-135.83456,57.1935,4.76612,175.1551,43.49089,314.56425-47.32862,285.24441-47.32862,285.24441l220.10065-5.83629V1383.65393Z"/><path class="cls-3" d="M1998.65976,3269.75905c-1.20484,45.888-.64111,94.89751,2.15683,147.1406a2155.84085,2155.84085,0,0,0,211.17613,66.79409c-6.12783-47.34461-12.34271-95.29717-21.0944-144.525-.90639-4.74407-1.76028-9.49711-2.62246-14.24878C2119.2365,3326.85777,2053.55052,3310.02176,1998.65976,3269.75905Z"/><path class="cls-8" d="M2254.36391,2667.95118,2139.115,2726.43074s-130.5305,165.263-140.45524,543.32831c54.89076,40.26271,120.57674,57.09872,189.6161,55.16088C2147.95926,3103.07294,2154.58451,2873.18376,2254.36391,2667.95118Z"/><path class="cls-8" d="M2346.53291,3288.23375c186.76151-59.42412,192.421-282.972,243.35591-444.266,13.43564-42.99624,29.48684-85.96242,50.45-126.53515-230.59453-29.82915-374.00937-55.55311-374.00937-55.55311l-11.96552,6.0717c-99.7794,205.23258-106.40465,435.12176-66.088,656.96875a413.869,413.869,0,0,0,56.38714-5.55926C2281.44936,3313.70123,2315.406,3299.55263,2346.53291,3288.23375Z"/><path class="cls-11" d="M2881.35,3138.2586c-14.1486-84.8916,16.97832-166.95347,39.61608-249.01535,13.61526-46.29348,8.87742-92.58679.93679-138.88028-103.46716-10.833-198.21994-22.14915-281.564-32.93038-20.96314,40.57273-37.01434,83.53891-50.45,126.53515-50.935,161.294-56.5944,384.84189-243.35591,444.266-31.12691,11.31888-65.08355,25.46748-101.86991,31.12692a413.869,413.869,0,0,1-56.38714,5.55926c.86218,4.75167,1.71607,9.50471,2.62246,14.24878,8.75169,49.22786,14.96657,97.18042,21.0944,144.525,128.49112,33.57288,254.62643,54.29284,374.50956,65.94712,16.08159-71.64179,27.08406-145.82349,45.83234-216.13159,24.74761,71.76683,14.86708,145.69741,21.46193,221.79276a2763.68709,2763.68709,0,0,0,281.4908,5.45322c8.27638-25.88337,16.15345-50.64687,22.465-80.10055a1572.69634,1572.69634,0,0,0,28.66473-217.31986C2932.81687,3242.08189,2891.23326,3203.204,2881.35,3138.2586Z"/><path class="cls-3" d="M2586.50228,3549.64086q33.99808,3.30468,67.29427,5.66117c-6.59485-76.09535,3.28568-150.02593-21.46193-221.79276C2613.58634,3403.81737,2602.58387,3477.99907,2586.50228,3549.64086Z"/><path class="cls-8" d="M2948.44389,2753.11463q-13.37415-1.36944-26.54106-2.75166c7.94063,46.29349,12.67847,92.5868-.93679,138.88028-22.63776,82.06188-53.76468,164.12375-39.61608,249.01535,9.8833,64.94538,51.46691,103.82329,105.06717,125.07624C2997.19438,3090.733,2980.30725,2921.78918,2948.44389,2753.11463Z"/><path class="cls-8" d="M2948.44389,2753.11463c31.86336,168.67455,48.75049,337.61835,37.97324,510.22021a286.26669,286.26669,0,0,0,51.22511,14.64048c-1.68153-153.0667-14.73582-344.0341-57.8476-521.69Q2963.98524,2754.71015,2948.44389,2753.11463Z"/><path class="cls-3" d="M2957.7524,3480.6547c-6.3116,29.45368-14.18867,54.21718-22.465,80.10055,32.148-.99862,63.3136-2.49189,93.31029-4.39829,3.50537-42.81679,10.49262-146.54336,9.0446-278.38164a286.26669,286.26669,0,0,1-51.22511-14.64048A1572.69634,1572.69634,0,0,1,2957.7524,3480.6547Z"/><path class="cls-8" d="M2209.22146,2710.06455s308.63558,289.72568,810.92486,117.78019c-3.19059-9.00978-1.59315-58.40711-35.84329-69.06695-182.29355-56.73615-743.8006-89.38673-743.8006-89.38673Z"/><path class="Graphic-Style-238" d="M2984.30313,2784.9336c-32.2461-357.0523-168.4084-1210.33891-168.4084-1210.33891l-67.7986-18.43894s-51.57744,94.5944-98.62292,105.1796c-24.19355,5.44372-76.61245-26.39719-121.82994-58.6141,14.67918,107.03834,82.16136,201.58127,135.81827,296.12006,28.29719,50.935,39.61607,99.0402,53.76467,152.80487,25.46748,93.38076,11.31888,183.93179,31.12692,277.31255,8.48916,36.78635,0,70.743-14.1486,104.69963-48.10524,118.84823-79.23215,243.35591-121.67795,365.03386-2.66806,7.47154-4.93405,15.14446-7.08259,22.86677C2702.76673,2841.87792,2828.50135,2839.98361,2984.30313,2784.9336Z"/><path class="Graphic-Style-237" d="M2734.20453,2433.65836c14.1486-33.95664,22.63776-67.91328,14.1486-104.69963-19.808-93.38076-5.65944-183.93179-31.12692-277.31255-14.1486-53.76467-25.46748-101.86991-53.76467-152.80487-53.65691-94.53879-121.13909-189.08172-135.81827-296.12006-42.7097-30.43-78.9945-61.19545-78.9945-61.19545l-67.47113,37.10328s58.5039,895.64847-34.28825,1097.371c0,0,83.05532,108.91779,258.5546,145.55889,2.14854-7.72231,4.41453-15.39523,7.08259-22.86677C2654.97238,2677.01427,2686.09929,2552.50659,2734.20453,2433.65836Z"/><path class="Graphic-Style-237" d="M2758.30709,1628.0007l-21.83507,18.82745s12.37834,233.33854,63.30283,479.77S2936.36306,2597.279,2960.333,2691.1063l38.63241,63.17893L2808.42514,1665.32Z"/><path class="Graphic-Style-239" d="M2649.98859,1279.95184c-28.44228,22.99942-86.81769,56.54535-186.78776,58.42394,13.10679,102.47165-14.29921,208.51792-14.29921,208.51792,29.78805,109.6209,145.36719,121.53616,203.75227,128.68541,52.22408,6.39468,103.445-16.81614,97.483-101.07958-8.44909-4.80037-16.61355-9.90091-24.42153-15.2246C2632.00577,1498.49036,2649.3682,1381.03816,2649.98859,1279.95184Z"/><path class="Graphic-Style-234" d="M2671.72272,1258.55554s-6.67914,9.2225-21.73413,21.3963c-.62039,101.08632-17.98282,218.53852,75.72678,279.32309,7.808,5.32369,15.97244,10.42423,24.42153,15.2246a249.60461,249.60461,0,0,0-4.5444-32.372C2708.65553,1518.29685,2671.72272,1258.55554,2671.72272,1258.55554Z"/><path class="Graphic-Style-236" d="M2583.8005,1399.45037s-32.05,71.72549-120.13557,58.27732c3.13108-24.34727,2.60475-37.13689,2.60475-37.13689S2546.86542,1438.24791,2583.8005,1399.45037Z"/><path class="Graphic-Style-239" d="M2601.2077,1129.15752c-8.48916-25.46748-25.46748-53.76468-53.76468-62.25384-60.18405-22.56919-120.3377-54.05034-145.07288-112.12212-16.60111,19.4842-45.25341,48.90421-79.74753,67.19479,6.67361,64.02431-17.23946,128.04845,4.10227,192.07276a100.2235,100.2235,0,0,1,6.0546,30.66975c34.84093,114.29519,97.42637,182.01952,163.78385,179.69447,80.07638-2.805,116.59745-34.2354,158.80974-127.55191C2655.02626,1239.93818,2616.434,1187.88923,2601.2077,1129.15752Z"/><path class="Graphic-Style-234" d="M2322.62261,1021.97635c-3.70157,1.96322-7.4515,3.83767-11.28157,5.51747-4.81384,22.4141-6.61834,48.06258-4.23767,77.34648,4.2501,51.8987,13.18,98.882,25.67611,139.87856a100.2235,100.2235,0,0,0-6.0546-30.66975C2305.38315,1150.0248,2329.29622,1086.00066,2322.62261,1021.97635Z"/><path class="Graphic-Style-234" d="M2737.837,1199.56148c-50.04238,7.14563-101.86577,5.01453-110.79155-49.31612-8.95064-54.3557-92.94137-129.42065-146.57064-140.1264-53.62789-10.73062-62.55367-75.065-62.55367-75.065s-5.63595,8.089-15.551,19.72755c24.73518,58.07178,84.88883,89.55293,145.07288,112.12212,28.2972,8.48916,45.27552,36.78636,53.76468,62.25384,15.22632,58.73171,53.81856,110.78066,54.16537,167.7039,5.32783-11.77812,10.74133-24.48716,16.34965-38.30588C2725.32711,1260.33569,2741.42253,1237.09413,2737.837,1199.56148Z"/><path class="Graphic-Style-233" d="M2984.303,1641.83983s103.917,41.68508,140.2271,174.822,13.96012,523.41966,36.822,672.69438S3095.81994,2632.57926,3054.1306,2627.2s-121.57314-134.63589-122.918-144.11539S2984.303,1641.83983,2984.303,1641.83983Z"/><path class="cls-6" d="M2931.49772,2488.01139s92.12-125.068,230.63617-51.77546c22.8619,93.98942,20.84467,62.534,20.84467,62.534s-192.72015,17.48263-222.7729,103.55094C2926.11845,2524.32146,2931.49772,2488.01139,2931.49772,2488.01139Z"/><path class="Graphic-Style-234" d="M3815.15751,2784.54362c-76.40244-19.808-138.65627-67.91328-209.39927-110.35907-19.808-11.31888-45.27552-2.82972-70.743-8.48916-149.97515-22.63776-291.46114-25.46748-438.60657-39.61608-56.792-4.54337-100.7991-41.924-124.73842-90.1595-19.71132,33.4461-16.90923,72.05164,34.454,104.80672,94.51513,60.26022,456.47886,61.63518,603.83983,53.20647,7.59935,3.00779,15.24429,10.32872,22.74,14.14376,55.09663,34.29637,110.12418,71.31951,172.76489,90.44793,28.90377,10.25825,64.12051,8.04511,90.20976-7.76429C3871.03757,2796.54782,3844.35143,2792.22621,3815.15751,2784.54362Z"/><path class="Graphic-Style-239" d="M3926.90519,2754.66058c3.04112-14.06277-8.37724-15.18056-17.37072-21.90408-20.34552-16.12737-40.05684-33.15007-60.37335-49.43547-28.06645-23.958-60.27248-41.2337-92.04465-59.49458l106.12-3.04941c18.69577,3.56478,16.56934-22.077,0-25.25591-3.12264-.59914-48.08727-8.17914-51.89662-8.53527-60.54882-5.65512-122.29419,5.40711-181.58566,17.09853-148.219-37.52263-453.55794-120.92821-494.50874-142.73384-39.20157-20.86366-131.401,19.97453-163.57522,74.56926,23.93932,48.23547,67.94644,85.61613,124.73842,90.1595,147.14543,14.1486,288.63142,16.97832,438.60657,39.61608,25.46748,5.65944,50.935-2.82972,70.743,8.48916,70.743,42.44579,132.99683,90.551,209.39927,110.35907,29.19392,7.68259,55.88006,12.0042,80.52128,6.21678A74.903,74.903,0,0,0,3926.90519,2754.66058Z"/><path class="Graphic-Style-232" d="M2762.37826,1547.36215s253.22167,57.491,286.5059,169.447,36.31007,362.09207-44.379,622.31423,121.205,709.27606,136.33421,826.676c-80.08336,136.16275-142.69243,108.9302-173.41759,54.4651s60.28148-344.559-24.442-632.01366S2734.23136,1675.65555,2762.37826,1547.36215Z"/><path class="cls-6" d="M2750.84665,1542.54774s59.50816,13.50523,79.68042,13.50523,70.60291,145.24028,37.31869,157.34363c-35.30146-6.05167-41.35314-9.07751-41.35314-9.07751s53.41853,50.43065,52.4289,60.51678-45.36861,155.64056-43.35138,228.10361,11.09474,150.12627,11.09474,150.12627S2732.69161,1756.989,2750.84665,1542.54774Z"/><path class="cls-10" d="M2439.91367,2181.8133c-63.02759-46.68693-126.05932-85.66328-190.67586-121.71043,13.531,30.35369,28.23364,60.51808,43.53043,90.58351.58031,1.03558,1.13023,2.08429,1.69672,3.12592,43.2914,26.27456,96.69684,31.886,145.44871,42.14959C2439.91367,2190.30245,2442.74339,2184.643,2439.91367,2181.8133Z"/><path class="Graphic-Style-232" d="M2732.179,2123.2802c-38.4817-126.51994-288.93263-591.82733-288.93263-591.82733s-137.22069,9.32543-239.5134,52.55413c-6.5838,20.04034-11.12959,41.11436-15.66433,60.15953-34.53418,147.34439,2.114,283.44953,61.16921,415.93634,64.61654,36.04715,127.64827,75.0235,190.67586,121.71043,2.82972,2.82972,0,8.48915,0,14.14859-48.75187-10.2636-102.15731-15.875-145.44871-42.14959,38.13905,70.1119,46.11836,153.70988,26.60048,234.57054-33.95664,152.80487-152.80487,254.67479-234.86675,387.67162-59.42412,96.21047-161.294,172.61291-138.65627,299.9503,2.82972,16.97832,19.808,28.2972,31.12692,33.95664,129.36158,54.09663,268.49592,74.93645,406.033,73.93852C2561.71459,2990.78916,2769.00539,2244.35124,2732.179,2123.2802Z"/><path class="Graphic-Style-233" d="M2249.85957,2061.45383c-59.41168-132.91324-96.4426-269.441-61.791-417.2873,4.53474-19.04517,9.08053-40.11919,15.66433-60.15953-58.345,24.65625-105.33384,60.33431-108.99672,111.62126-5.00313,70.043,34.15422,183.26322,67.27217,297.07447C2185.57049,2021.56573,2216.3506,2043.904,2249.85957,2061.45383Z"/><path class="cls-10" d="M2162.00838,1992.70273c8.912,30.63019,17.39283,61.303,24.45054,91.18868,32.37183,27.07474,67.30395,49.1764,105.52037,65.23347-14.78418-29.10152-28.99081-58.29924-42.11972-87.671C2216.3506,2043.904,2185.57049,2021.56573,2162.00838,1992.70273Z"/><path class="Graphic-Style-233" d="M1978.66934,3109.9614c-11.31888-5.65944-28.2972-16.97832-31.12692-33.95664-22.63776-127.33739,79.23215-203.73983,138.65627-299.9503,82.06188-132.99683,200.91011-234.86675,234.86675-387.67162,19.808-82.06187,11.31888-166.95347-28.2972-237.69646-.26529-.52021-.525-1.04129-.78895-1.5615-38.21642-16.05707-73.14854-38.15873-105.52037-65.23347,19.587,82.93477,28.271,159.81061,5.104,212.8701-62.53432,143.22313-395.376,821.011-395.376,821.011s383.27229,236.01528,564.82341,88.75794a224.0869,224.0869,0,0,0,23.692-22.63051C2247.16526,3184.89785,2108.03092,3164.058,1978.66934,3109.9614Z"/><path class="cls-6" d="M2456.37555,1510.84834l-78.14024,2.84289s-30.83387,128.09385,47.838,196.67953l53.45649-12.10335s-28.98042,37.31868-30.628,54.4651c32.64524,60.51678,179.90274,239.04128,232.35062,254.17048C2664.10593,1937.30869,2506.7623,1665.99179,2456.37555,1510.84834Z"/><path class="cls-3" d="M2617.70381,3552.51134l17.62357-212.84384-72.09568,207.63069Q2590.6826,3550.21946,2617.70381,3552.51134Z"/><path class="cls-12" d="M3816.00173,1845.63588c-66.36992,171.23415-103.40775,376.883-116.10142,586.19587,120.74945,10.585,241.75866-3.06374,363.02349-13.60351,52.1771-184.18344,89.3379-372.41335,109.11-565.3305Z"/><path class="Graphic-Style-240" d="M3805.824,1845.63588c-66.36992,171.23415-103.40775,376.883-116.10142,586.19587,120.74945,10.585,241.75866-3.06374,363.02349-13.60351,52.1771-184.18344,89.3379-372.41335,109.11-565.3305Z"/><path class="cls-13" d="M4366.70417,1845.63588c-21.835,184.90537-59.99338,375.57743-116.10142,572.59236,143.17029,13.03857,280.45868,22.61582,363.02349,0,8.17551-129.412,57.89181-345.802,109.11-565.3305Z"/><path class="Graphic-Style-238" d="M4359.30767,1847.54764c-21.835,184.90537-59.99337,375.57743-116.10141,572.59235,143.17028,13.03858,280.45867,22.61583,363.02348,0,8.17552-129.412,57.89182-345.802,109.11-565.33049Z"/><path class="cls-8" d="M3217.83515,1541.5258l373.18613-68.17909h70.60291l-59.50816,40.34452-376.21314,67.57707C3210.89764,1575.30955,3204.61644,1564.18722,3217.83515,1541.5258Z"/><path class="Graphic-Style-234" d="M3308.63766,1723.39868c-107.52936,16.97832-183.93179,79.23216-243.35591,166.95347-5.65944,11.31888-14.1486,25.46748-22.63776,33.95664-45.27551,48.10524-73.57271,101.86991-118.84823,147.14543-56.5944,50.935-113.18879,93.38076-178.27235,130.16711-37.404,20.78007-80.91092,14.09144-123.80024,6.83078-4.26807,27.8478-6.68328,49.51561-5.198,56.19975v-6.72421s72.50051,72.6202,145.85354,16.1379c55.09525-42.42387,302.693-326.92349,419.5488-459.94381,0-.00052.163-.1437,38.823-34.29274,38.82436-34.29273,121.479-26.7604,184.01331-81.22543,35.96563-31.32484,40.32074-63.17957,31.79428-89.40854a99.55785,99.55785,0,0,1-11.902,29.31206C3399.18869,1683.78261,3356.74289,1717.73924,3308.63766,1723.39868Z"/><path class="Graphic-Style-239" d="M3488.14248,1439.93671c-30.20394-49.27588-302.58382,236.64327-302.58382,236.64327-101.82984,105.69843-528.68921,343.3151-528.68921,343.3151s-23.95452,115.55323-35.14628,188.557c42.88932,7.26066,86.39626,13.94929,123.80024-6.83078,65.08356-36.78635,121.678-79.23215,178.27235-130.16711,45.27552-45.27552,73.57272-99.04019,118.84823-147.14543,8.48916-8.48916,16.97832-22.63776,22.63776-33.95664,59.42412-87.72131,135.82655-149.97515,243.35591-166.95347,48.10523-5.65944,90.551-39.61607,116.01851-84.89159a99.55785,99.55785,0,0,0,11.902-29.31206c-6.29779-19.37557-19.61184-35.6867-32.46717-46.418C3373.83313,1537.5187,3517.72881,1484.77769,3488.14248,1439.93671Z"/><path class="Graphic-Style-233" d="M2142.79309,1777.16336c-2.82972-5.65944-8.48916-8.48916-11.31888-14.1486-2.82972-65.08356-11.31888-130.16711,22.63776-186.76151,11.10333-19.98559,27.88268-33.4176,47.40748-42.89761-61.96645,9.66032-121.80646,38.5083-145.11019,115.87637-50.43064,167.42981,123.05,544.65112,617.27132,647.5295-.724-26.02482-10.67086-62.08337-18.04913-101.4466-30.12519-3.89639-60.33328-10.722-88.38039-16.33133C2357.85179,2133.70806,2205.04692,1975.24375,2142.79309,1777.16336Z"/><path class="Graphic-Style-232" d="M2708.4469,1990.69874c-97.13483-4.03456-309.10959-212.36422-359.54023-274.89819l23.37559-184.34768c-23.62015,5.41833-98.63121-9.34254-170.76281,1.90277-19.5248,9.48-36.30415,22.912-47.40748,42.89761-33.95664,56.5944-25.46748,121.678-22.63776,186.76151,2.82972,5.65944,8.48916,8.48916,11.31888,14.1486,62.25383,198.08039,215.0587,356.5447,424.458,401.82022,28.04711,5.60935,58.2552,12.43494,88.38039,16.33133C2642.42378,2124.83841,2637.458,2043.76549,2708.4469,1990.69874Z"/><path class="cls-6" d="M2645.61469,1959.49818s-153.30918,65.22364-95.482,310.6528c24.20671,28.91358,112.96465,34.96526,119.68874,34.29285a44.91787,44.91787,0,0,0,13.44817-4.03445s-47.45-180.87794-17.6733-248.11881,42.85062-65.22364,42.85062-65.22364S2661.13889,1957.19733,2645.61469,1959.49818Z"/><path class="cls-10" d="M2006.666,2715.65812l248.95167,107.21279s-49.2538,58.04059-80.689,46.3962-176.84348-63.87882-199.70538-87.41313S2006.666,2715.65812,2006.666,2715.65812Z"/><path class="cls-14" d="M1492.65878,1949.36125c5.06946,22.88435,22.20493,40.39379,35.18281,50.623q12.2457,1.60017,24.9659,2.42662c37.19233,2.42666,72.76386-13.73009,104.21089-37.31029-22.08534-5.40128-70.28747-18.97071-82.97943-37.27689-16.64166-23.968-1.1851-28.17765,7.09818-17.87114,8.56484,15.34212,66.59523,33.89139,92.68309,41.57547a417.12126,417.12126,0,0,0,42.567-43.26976c-21.47243-1.0332-50.34332-8.13638-58.46723-18.76852-10.534-13.7849,2.34544-21.433,12.74962-12.67954,7.63268,6.42835,43.602,9.87063,62.17138,11.25871a585.76533,585.76533,0,0,0,44.40543-65.82056c.68853-1.21086,1.05262-1.87371,1.05262-1.87371a695.3296,695.3296,0,0,0-63.81069-64.9047c-14.86553,3.14578-37.37555,8.46914-49.23619,14.08017-18.6602,8.82557-30.81206,18.30468-36.442,11.25844-9.15743-16.66508,42.44523-31.892,70.201-38.7457a474.05028,474.05028,0,0,0-55.34247-40.3843c-87.04783,7.11385-83.24842,66.301-102.48989,46.73184-16.673-16.9623,52.90094-47.151,81.51584-58.60586-19.437-10.0231-39.34781-17.46815-58.85642-20.51491-17.92171-2.06293-34.32524-3.29556-49.31473-3.7835-41.42744,27.46767-17.3427,74.28726-40.76012,65.46592-18.28894-6.8891,4.45516-45.61265,17.791-65.652-202.45926,4.041-103.63933,162.60677-103.63933,162.60677-.30322.64794-.58331,1.289-.87576,1.9333-39.26336,86.56814,17.2799,142.60308,106.26974,163.84481-5.1337-16.23743-14.37353-46.02347-15.14625-51.87116C1477.06011,1933.70175,1489.61968,1929.43717,1492.65878,1949.36125Z"/><path class="cls-15" d="M1739.89458,1823.18416s-244.71575,17.03342-351.98588,4.74128"/><path class="cls-15" d="M1638.62978,1886.42646s-40.931-20.0671-73.37189-55.03855"/><path class="cls-15" d="M1589.74178,1767.00511s-59.17979,39.651-60.50436,65.12092"/><path class="cls-15" d="M1536.68209,1933.07222s-50.71771-66.96785-59.3295-100.77116"/><path class="cls-15" d="M1437.95779,1755.23052s-33.15445,38.60212-20.52051,75.18631"/><path class="cls-16" d="M926.20225,1705.62011q21.26068,2.60368,41.42225,6.35389c18.11542,17.45322,40.51,46.81367,40.3903,83.43471-2.43529,31.74463,20.4924,26.28618,21.72025,13.3434.91715-9.30485-3.40773-57.23772-5.92963-83.37739,143.91362,42.83277,218.54968,138.04751,115.611,272.23445,0,0,107.20772,260.1891-237.73791,246.09047,30.25456-30.271,83.58461-89.07172,55.18787-101.79116-36.35918-16.28687-13.34392,60.02392-94.07677,99.17453q-37.85795-3.42906-82.20442-10.95765c-31.92951-6.77989-62.86532-20.54053-92.01526-38.3221,52.89931-15.17988,182.40989-55.77729,160.59142-84.228-25.18163-32.82333-41.285,60.95032-191.64357,63.37156-28.66512-20.99959-55.11044-45.15868-78.48518-69.31813,49.68957-8.00731,143.0177-26.81457,133.83349-54.03577-6.86461-11.68758-31.08774,2.04058-66.101,14.07887-22.25524,7.65381-62.46429,13.77675-88.87737,17.23726-51.54609-57.50226-83.50756-108.86376-83.50756-108.86376s40.82983-47.42121,102.89373-102.21542c30.96848,4.06779,90.667,13.13728,101.16474,24.05191,14.31219,14.86453,39.0719,4.09893,26.45592-18.71689-9.72905-17.59771-55.993-31.725-92.02032-35.52766a897.86342,897.86342,0,0,1,88.6851-63.96842c41.32208,14.76209,132.68524,49.89984,141.368,74.97374,10.123,17.1,37.94412,12.02072,18.84806-27.4807-14.55418-30.168-91.14356-56.45348-126.54657-67.20966C797.55177,1719.92579,864.04234,1698.03032,926.20225,1705.62011Z"/><path class="cls-17" d="M540.59136,1969.49584s421.56932-2.128,598.83513,28.11566"/><path class="cls-18" d="M736.44706,1879.949s61.78126,35.80259,103.48364,94.26365"/><path class="cls-18" d="M773.87421,2073.324s115.48479-56.57911,127.43463-96.63323"/><path class="cls-18" d="M927.13834,1816.65832s60.51361,110.79545,62.24281,165.00347"/><path class="cls-18" d="M1026.84036,2107.25285s70.94173-57.556,63.44968-116.55868"/><path class="cls-14" d="M981.16683,1248.20949q15.234,10.80648,29.09475,22.19373c6.01643,22.75744,9.89574,57.814-6.93636,90.3367-16.39187,27.26087,3.8151,31.5627,10.67982,20.54185,4.96179-7.90939,23.53105-52.26773,33.53139-76.52332,91.59582,95.56933,105.73,210.05969-35.1286,288.29434,0,0-36.11422,274.22533-296.14391,123.92663,37.209-14.84019,105.285-45.83888,89.16232-68.49214-20.64307-29.006-37.74546,48.05571-118.00834,50.634-18.45216-12.11263-37.9359-26.2418-58.495-42.57529-21.56678-18.78153-39.175-43.37485-53.56561-70.83113,47.80406,7.6253,166.4096,23.24037,162.55952-10.777-4.44942-39.2495-59.75375,37.72092-177.01409-20.17369-12.54513-30.12475-21.93122-62.173-28.94509-92.99532,42.0459,12.72267,122.73975,33.26769,128.08776,5.38951.03945-13.13634-24.94838-10.60051-57.49924-13.87685-20.691-2.08074-54.55174-12.69316-76.53794-20.16389-13.53543-71.72782-14.7485-130.17268-14.7485-130.17268s53.21788-25.87,126.20954-49.81738c22.06409,15.98561,64.03615,47.89349,67.15664,61.79332,4.2617,18.9362,28.30983,19.24954,28.99305-6.08108.52817-19.53671-28.75361-50.57766-54.84688-68.34779,31.1374-8.79274,64.39385-16.51639,97.75039-21.47523,25.17395,29.6319,79.69139,97.37048,74.93754,123.13861.00364,19.25138,23.81753,25.84472,27.12185-16.91386,2.54665-32.64366-44.6043-86.60892-67.03682-110.31413C875.24377,1209.55424,936.617,1216.63464,981.16683,1248.20949Z"/><path class="cls-15" d="M562.65973,1328.89878s326.6396,166.4677,449.75484,264.16013"/><path class="cls-15" d="M754.89256,1327.47456s31.3612,56.51588,36.854,125.16521"/><path class="cls-15" d="M695.413,1514.408s115.07576-4.20036,142.616-35.05183"/><path class="cls-15" d="M931.134,1347.33988s-3.89757,122.7077-27.34042,171.6105"/><path class="cls-15" d="M875.32314,1645.61005s81.11231-22.85821,102.29494-78.32679"/><path class="cls-14" d="M1360.958,1480.858c17.97476-4.55407,30.027-18.12335,36.68744-28.30789q-.26865-9.36452-1.22791-19.06641c-2.79642-28.36748-20.50957-54.93553-43.73539-78.13963-1.56265,16.96574-6.42266,54.04843-19.69344,64.26166-17.37215,13.39048-22.7812,1.76045-15.4556-4.85509,11.38786-6.98324,19.04-51.69443,21.94708-71.7746a401.27624,401.27624,0,0,0-40.67736-31.06333c1.91381,16.36633-.16346,38.546-7.77453,45.05019-9.86784,8.43378-17.74482-1.13094-11.95528-9.31259,4.2527-6.00239,2.43978-33.47046,1.18724-47.63915a571.02485,571.02485,0,0,0-59.26686-31.77446c-1.07383-.48688-1.66-.74366-1.66-.74366a454.45852,454.45852,0,0,0-44.63834,50.52147c4.46739,11.21284,11.6878,28.17475,17.77611,37.02652,9.57689,13.92646,18.85072,22.88187,13.8382,27.37958-12.38857,7.47436-31.40158-31.31747-40.54049-52.22333a303.31123,303.31123,0,0,0-25.76806,43.332c16.95724,66.00353,64.6411,61.30905,51.18261,76.54322-11.66629,13.20079-45.162-38.80637-58.15588-60.22557-5.664,15.09195-9.169,30.46572-9.146,45.39949.62021,13.69656,1.72142,26.21288,3.24731,37.63078,27.67014,30.67806,62.68583,10.92881,58.51056,29.01216-3.2606,14.123-37.6948-1.99885-55.71532-11.53306,29.26252,153.89475,145.6384,73.88557,145.6384,73.88557.56625.21091,1.12389.40445,1.68584.60729,75.49322,27.23028,113.845-17.49223,119.71665-85.83743-12.55672,4.40032-35.61361,12.33732-40.27379,13.1034C1350.21421,1493.20182,1345.13208,1483.77731,1360.958,1480.858Z"/><path class="cls-15" d="M1226.54692,1296.6231s45.2579,185.64473,49.01533,267.6236"/><path class="cls-15" d="M1291.00991,1371.73109s-11.08114,31.74937-35.38187,57.49426"/><path class="cls-15" d="M1200.0871,1412.56209s39.86341,43.81153,60.76277,44.04281"/><path class="cls-15" d="M1342.05291,1447.86446s-47.99721,40.624-74.40424,48.20573"/><path class="cls-15" d="M1209.97645,1528.38846s35.67092,24.0451,63.82525,13.31886"/><path class="cls-19" d="M1275.56253,1564.24186s20.91454,3.0414-32.06542,258.46091"/><path class="cls-19" d="M999.4363,1583.066s226.6807,66.97592,244.06081,244.41265"/><path class="cls-19" d="M1121.4667,1997.6115c5.57511-2,100.96386-10.64815,132.5249,11.67832"/><path class="cls-20" d="M1173.15158,2186.14767s105.1393-260.93536,62.743-397.92027c45.1715,56.91,53.50524,204.50824,23.46866,269.55687-15.86617,135.71213-42.76473,202.9446-42.76473,202.9446Z"/><path class="cls-19" d="M1186.55228,2161.01034s157.81567-50.56383,185.81707,217.28528"/><path class="cls-14" d="M1142.40193,2575.63524q-2.1897-15.47277-3.0476-30.54071c12.62554-17.88172,35.63806-42.38793,70.49835-53.5982,30.73007-8.10879,20.50576-22.24566,7.92507-19.1017-9.05209,2.23652-53.69671,20.00182-78.00731,29.80266,9.1562-112.50882,83.34342-193.36922,233.57551-163.72092,0,0,223.9623-154.20824,286.26094,88.15189-35.43419-11.54093-103.07052-30.20621-108.93671-6.69015-7.51192,30.11025,60.02363-9.30235,114.98317,34.33039a565.5487,565.5487,0,0,1,7.61944,60.10009c.5589,24.12209-5.74041,49.71119-16.2564,75.308-26.04956-31.81949-93.09113-108.66272-115.36476-84.83458-25.69471,27.4971,67.0374,9.69135,102.34144,112.69209-13.68338,26.25462-30.85929,51.95186-48.70948,75.53053-18.52254-31.81659-56.89587-90.41338-80.773-75.682-9.6106,8.3407,8.76419,20.82129,27.89981,41.26818,12.16495,12.9959,26.81425,38.852,35.90309,56.00992a919.28683,919.28683,0,0,1-85.22306,91.19071,1079.93976,1079.93976,0,0,1-119.81083-39.47637c-2.92773-22.62264-7.40355-66.6114.67441-77.2206,10.9979-14.45921-4.67666-28.22361-23.61015-12.48283-14.60362,12.13968-17.88743,48.41827-13.59719,74.44975-27.0067-11.96609-54.63472-25.80809-80.31167-41.4667,4.97228-33.06444,18.34284-106.94051,40.28748-120.66369,14.04375-12.258,3.10609-29.88829-30.27651-4.5309-25.50152,19.34535-33.69432,80.29772-36.1553,108.0427C1184.246,2659.99262,1148.82547,2620.86606,1142.40193,2575.63524Z"/><path class="cls-17" d="M1478.03568,2760.335s-94.551-290.22665-104.68973-421.86637"/><path class="cls-18" d="M1349.87176,2652.80828s20.49565-53.66958,66.951-100.472"/><path class="cls-18" d="M1525.59593,2567.3522s-79.165-62.23714-119.88732-58.131"/><path class="cls-18" d="M1247.81626,2540.74832s92.10725-75.92055,143.29051-93.82992"/><path class="cls-18" d="M1502.34765,2382.34284s-70.31785-31.20115-124.79693-7.83691"/><path class="cls-19" d="M1252.02169,2106.24766s.49358-346.686,131.46307-278.46445"/><polygon class="cls-8" points="5140.74 2988.68 5206.135 2988.68 5275.753 2484.333 5221.132 2393.533 5140.74 2988.68"/><path class="cls-8" d="M4275.86952,2988.67965l183.56756,498.018s-50.437,18.14-80.52411,14.7058c-46.22492-127.1574-200.87892-512.72378-200.87892-512.72378Z"/><ellipse class="cls-8" cx="3977.32007" cy="1852.4171" rx="31.267" ry="27.73686"/><ellipse class="cls-7" cx="3983.87605" cy="1850.14772" rx="16.86523" ry="14.96109"/><ellipse class="cls-8" cx="4535.08306" cy="1855.94724" rx="31.267" ry="27.73686"/><ellipse class="cls-7" cx="4541.63904" cy="1853.67786" rx="16.86523" ry="14.96109"/><ellipse class="cls-21" cx="4051.45691" cy="3562.14689" rx="189.67404" ry="149.26289"/><ellipse class="cls-22" cx="977.94821" cy="2538.18941" rx="137.10757" ry="138.49624"/><ellipse class="cls-23" cx="4790.11481" cy="3511.60166" rx="95.22031" ry="96.6077"/><ellipse class="cls-24" cx="1372.36935" cy="3365.06869" rx="256.97902" ry="236.73902"/><ellipse class="cls-25" cx="5208.24659" cy="1739.33359" rx="216.48461" ry="199.434"/><circle class="cls-26" cx="1843.93731" cy="863.60879" r="71.44529"/><circle class="cls-26" cx="1763.91882" cy="1537.39363" r="71.44529"/></svg>