<?xml version="1.0" encoding="utf-8"?>
<!-- Generator: Adobe Illustrator 22.0.0, SVG Export Plug-In . SVG Version: 6.00 Build 0)  -->
<svg version="1.1" id="Layer_1" xmlns="http://www.w3.org/2000/svg" xmlns:xlink="http://www.w3.org/1999/xlink" x="0px" y="0px"
	 viewBox="0 0 4000 4000" style="enable-background:new 0 0 4000 4000;" xml:space="preserve">
<style type="text/css">
	.st0{fill:none;stroke:#1A1A1A;stroke-width:3;stroke-linecap:round;stroke-linejoin:round;stroke-miterlimit:10;}
	.st1{fill:#FFFFFF;stroke:#1A1A1A;stroke-width:2;stroke-linecap:round;stroke-linejoin:round;stroke-miterlimit:10;}
	.st2{fill:#D9DBDA;}
	.st3{fill:#1A1A1A;stroke:#1A1A1A;stroke-width:2;stroke-linecap:round;stroke-linejoin:round;stroke-miterlimit:10;}
	.st4{fill:#5067EF;stroke:#1A1A1A;stroke-width:2;stroke-linecap:round;stroke-linejoin:round;stroke-miterlimit:10;}
	.st5{clip-path:url(#XMLID_2_);}
	.st6{fill:none;stroke:#1A1A1A;stroke-linecap:round;stroke-linejoin:round;stroke-miterlimit:10;stroke-dasharray:12;}
</style>
<g>
	<path class="st0" d="M481.9,1878.4c-30.2,51.4-264.4,463.6-91.8,846.5c186.8,414.4,783.4,647,1376.7,418.1
		c168.1,86.2,509.5,231.1,948.4,204c235.6-14.6,554.2-34.3,795.4-275.4c348.6-348.4,257.3-881.3,244.7-948.4
		c-128.4-686.1-850.9-988.9-928-1019.8C2108.3,814.9,1173.2,1123.7,481.9,1878.4z"/>
	<path class="st1" d="M803.2,2745.3c-29-15.8-390.1-220.8-428.3-647.6c-34.8-389.3,227.8-643,260-673.1
		c-72.8-206.5-10.8-435.5,153-571.1c147.7-122.3,355.5-149.9,535.4-71.4c22.6-37.4,146.7-234.3,402.8-295.8
		c278.4-66.8,492.9,79.2,525.2,102c226.6-188.2,550.8-198.7,780.1-30.6c247.3,181.3,327.3,528.8,178.5,810.8
		c28.3,37.7,444,611.7,193.8,1239.1c-164.2,411.8-513.6,591.5-611.8,637.4c-471.9,220.3-1064.1,113.6-1524.5-260.1
		C1112.5,2905,957.8,2825.2,803.2,2745.3z"/>
	<polygon class="st1" points="2916.4,3177.4 2791.7,3245 1658.1,2187.2 1658.1,2100.5 	"/>
	<path class="st2" d="M1885.8,1670.2c0,0,34.2-162.4,300.9-108c266.7,54.4,640.7-156.4,732.4-435.1c91.8-278.8,210.7-47.6,244.7,0
		c34,47.6,120.6-44.4,120.6-44.4s22.2,132.8-74.7,285.8c-270.2,336.5-834.5,658.2-834.5,658.2l-506.1,82.9L1885.8,1670.2z"/>
	<polygon class="st1" points="3031.3,557.7 1871.4,879 1841.7,2150.2 1927.5,2161.7 1947.8,896.8 3070.7,589.2 	"/>
	<g>
		<line class="st0" x1="2233.2" y1="804.9" x2="2203.7" y2="2155"/>
		<line class="st0" x1="2603.6" y1="698" x2="2603.6" y2="2077.3"/>
		<line class="st0" x1="3010.9" y1="589.2" x2="3010.9" y2="1961.1"/>
	</g>
	<polygon class="st3" points="2916.4,3177.4 2791.7,3245 1658.1,2187.2 1658.1,2100.5 	"/>
	<path class="st1" d="M3410.9,2588.5c-0.8,2.1-1.5,4.1-2.3,6.2c-1.7,4.3-3.4,8.6-5.1,12.9c-164.2,411.8-513.6,591.5-611.8,637.4
		l124.7-67.6L1658.1,2100.5l846.4-132.6L3410.9,2588.5z"/>
	<path class="st0" d="M2741.3,2775.6c0,0-2.3-103.6,115-35.5s241.3,124.2,243,27.3s35.7-137.1,61.2-119.6"/>
	<polygon class="st1" points="2218.4,2301.2 2666.9,2648.9 2479,2703.8 2051.3,2344 	"/>
	<g>
		<line class="st1" x1="2203.7" y1="2328.8" x2="2598.8" y2="2642.9"/>
		<line class="st1" x1="2161.6" y1="2345.4" x2="2556.6" y2="2659.5"/>
		<line class="st1" x1="2119.4" y1="2362" x2="2514.5" y2="2676.1"/>
		<g>
			<line class="st1" x1="2584.3" y1="2617.8" x2="2467.9" y2="2663.7"/>
			<line class="st1" x1="2542.3" y1="2583.7" x2="2425.9" y2="2629.6"/>
			<line class="st1" x1="2500.3" y1="2549.7" x2="2383.9" y2="2595.6"/>
			<line class="st1" x1="2458.3" y1="2515.7" x2="2341.9" y2="2561.6"/>
			<line class="st1" x1="2416.3" y1="2481.6" x2="2299.9" y2="2527.5"/>
			<line class="st1" x1="2374.3" y1="2447.6" x2="2257.9" y2="2493.5"/>
			<line class="st1" x1="2332.3" y1="2413.5" x2="2215.9" y2="2459.4"/>
			<line class="st1" x1="2290.3" y1="2379.5" x2="2173.9" y2="2425.4"/>
			<line class="st1" x1="2248.3" y1="2345.4" x2="2131.9" y2="2391.3"/>
		</g>
	</g>
	<path class="st4" d="M1639,2382.6c7.2-11.9,9.5-23.8,14.3-35.8c10.7-26.8,8.1-54.9,7-83.3c-56-72.9-90.9-289.5-116.7-386.3
		c-30.6-114.4-198.3-218.5-198.3-218.5s125.8,377.1,123.2,754.5c22.2,26.5,50.4,43,81.3,52.5C1591.4,2453.3,1619.2,2420,1639,2382.6
		z"/>
	<path class="st1" d="M2256.3,2260.3c-41.9-53.3-102-69.1-219.8-14.7c-117.8,54.4-267.3,55.6-343.2,42c-11.7-2.1-22.7-10.6-33-24
		c1,28.4,3.7,56.6-7,83.3c-4.8,11.9-7.2,23.8-14.3,35.8c-19.8,37.3-47.7,70.6-89.2,83.1c94.6,29,215.3-8.5,272.6-29.8
		c75.9-28.3,205.1-83.9,240.2-80.5c35.1,3.4,45.3,24.9,80.4,58.8c35.1,33.9,49.9-15.7,27.2-33.9c-22.7-18.1-18.1-65.7-18.1-65.7
		s46.5,49.9,68,71.4c21.5,21.5,85,20.4,90.5,0C2316,2365.7,2298.2,2313.5,2256.3,2260.3z"/>
	<g>
		<path class="st1" d="M1495.6,1458.5l-63.1,223.9l-193.5-159.2c0,0,62.9-82.4,59.5-134.3c-3.4-51.8-30.6-277.9,85.8-349.3
			c116.4-71.4,238.8-27.2,289.8,22.9c51,50.1,7.6,247.3-16.1,303.4c-23.8,56.1-47.6,117.3-126.6,102L1495.6,1458.5z"/>
		<path class="st3" d="M1412.2,1404.8c0,0,60.8,47.7,83.5,53.7c-14.3,46-16.1,55.8-16.1,55.8S1414.4,1459.1,1412.2,1404.8z"/>
		<path class="st3" d="M1380.2,1302.2c0,0-45.9-45-14.4-81.6c31.4-36.5,71.4-19.5,91.8,19.5c17,5.9,24.6-22.9,22.1-48.4
			c-2.5-25.5-11-115.6,28.9-128.3c39.9-12.7,76.5,5.1,119,48.4c42.5,43.3,121.5,46.7,144.5-23.8c22.9-70.5-15.3-102.8-15.3-102.8
			s-1.7,19.7-43.3,17.1c-41.6-2.6-64.6-44.3-107.1-42.6c0,0-83.3-96-212.4,5.1c-76.5,2.5-165.7,108.8-154.7,193.8
			c11,85,22.1,191.2,73.1,204C1362.3,1354.1,1380.2,1302.2,1380.2,1302.2z"/>
	</g>
	<path class="st4" d="M1669.9,2995.1c0,0-226.9,99.6-466.5,79.1c-239.6-20.5-497.1-295.9-504.8-476.9s135.1-882.2,367.1-1017.3
		c147.9-56.1,355.5,72.8,416.7,240.5c61.2,167.7,95.2,371.7,103.1,443.1C1593.5,2335.1,1675.5,2957.1,1669.9,2995.1z"/>
	<path class="st1" d="M1070.8,1584.4c0,0,71.4-83.3,181-87.5c138.5,115.6,249.8,216.7,250.7,232c0.8,15.3-17.8,118.1-28.9,114.7
		C1436.3,1779,1280.7,1548.7,1070.8,1584.4z"/>
	<g>
		<polygon class="st1" points="3091.4,2582.1 3033.9,2596 2816,2648.9 2446.9,2364.9 2391.2,2321.9 2648.4,2267.1 		"/>
		<polygon class="st1" points="2816,2648.9 2816,2703.8 2391.2,2376.8 2391.2,2321.9 2446.9,2364.9 		"/>
		<polygon class="st3" points="3033.9,2596 2816,2648.9 2816,2703.8 3091.4,2636.9 3091.4,2582.1 		"/>
		<path class="st3" d="M3751.8,1348.2l-175.9,1348c-8.6,66.2-66,95.7-123.1,112.4c-25.4,7.4-71.2,8.6-99.2-3.2
			c70.8,16.5,146.7-30.4,157-109.2l175.9-1348c8.9-68-36.4-128.1-98.8-142.5l21.8-2.5C3692.7,1194,3762.6,1265.2,3751.8,1348.2z"/>
		<path class="st1" d="M3686.5,1348.2l-175.9,1348c-10.3,78.8-86.1,125.7-157,109.2c-15.1-3.5-30-9.9-43.9-19.5l-977.1-669.8
			c-36.8-25.3-58-67.8-55.9-112.4l25.5-551.5c2.9-63.4,51.4-115.2,114.5-122.3l1127.5-126.7c15.1-1.7,29.8-0.7,43.6,2.5
			C3650,1220.2,3695.3,1280.2,3686.5,1348.2z"/>
		<path class="st1" d="M2341.9,1984.6l22.9-495.4c2.4-51.3,41.7-93.3,92.7-99L3500.7,1273c67.4-7.6,124.1,50.1,115.3,117.4
			l-160.9,1233.1c-10.1,77.4-98.3,116.8-162.7,72.7l-905.2-620.5C2357.4,2055.2,2340.3,2020.8,2341.9,1984.6z"/>
		<path class="st4" d="M2341.9,1984.6l22.9-495.4c2.4-51.3,41.7-93.3,92.7-99L3500.7,1273c67.4-7.6,124.1,50.1,115.3,117.4
			l-160.9,1233.1c-10.1,77.4-98.3,116.8-162.7,72.7l-905.2-620.5C2357.4,2055.2,2340.3,2020.8,2341.9,1984.6z"/>
		<g>
			<defs>
				<path id="XMLID_9_" d="M3525.1,1571.6l-136.1,1043.2c-2.8,21.6-21.1,33-37.7,33c-7.5,0-14.5-2.3-21.1-6.7L2425,2020.6
					c-10.9-7.4-17-19.7-16.4-32.9l8.5-183.6c41.9-56.3,79.4-70.8,106-73.6c69.1-7.3,94.4,60.5,210.8,88.4
					c46.8,11.2,118.5,28.4,178.5-6.8c62.8-36.8,62-101.4,124.1-115.6c43.5-9.9,82.7,12.9,86.7,15.3c46.7,28,37.2,69,74.8,93.5
					c59.5,38.8,155.5-16.8,161.5-20.4c66.4-39.5,41.8-109,108.8-173.4C3486.7,1593.7,3506.6,1580.9,3525.1,1571.6z"/>
			</defs>
			<use xlink:href="#XMLID_9_"  style="overflow:visible;fill:#8E9DF4;"/>
			<clipPath id="XMLID_2_">
				<use xlink:href="#XMLID_9_"  style="overflow:visible;"/>
			</clipPath>
			<g class="st5">
				<line class="st6" x1="2479.8" y1="1682.1" x2="2456.9" y2="2057"/>
				<line class="st6" x1="2561.1" y1="1670.1" x2="2528.7" y2="2108.3"/>
				<line class="st6" x1="2642.3" y1="1658.2" x2="2600.5" y2="2159.6"/>
				<line class="st6" x1="2723.6" y1="1646.2" x2="2672.3" y2="2210.9"/>
				<line class="st6" x1="2804.9" y1="1634.2" x2="2744.2" y2="2262.3"/>
				<line class="st6" x1="2886.1" y1="1622.2" x2="2816" y2="2313.6"/>
				<line class="st6" x1="2967.4" y1="1610.3" x2="2887.8" y2="2364.9"/>
				<line class="st6" x1="3048.6" y1="1598.3" x2="2959.6" y2="2416.2"/>
				<line class="st6" x1="3129.9" y1="1586.3" x2="3031.5" y2="2467.5"/>
				<line class="st6" x1="3211.2" y1="1574.4" x2="3103.3" y2="2518.8"/>
				<line class="st6" x1="3292.4" y1="1562.4" x2="3175.1" y2="2570.1"/>
				<line class="st6" x1="3373.7" y1="1550.4" x2="3246.9" y2="2621.4"/>
				<line class="st6" x1="3455" y1="1538.4" x2="3318.8" y2="2672.7"/>
			</g>
			
				<use xlink:href="#XMLID_9_"  style="overflow:visible;fill:none;stroke:#1A1A1A;stroke-width:2;stroke-linecap:round;stroke-linejoin:round;stroke-miterlimit:10;"/>
		</g>
		<path class="st1" d="M3549.8,1381.7l-24.8,189.9c-18.5,9.3-38.3,22.1-57,40c-67,64.4-42.3,133.9-108.8,173.4
			c-6,3.6-102,59.2-161.5,20.4c-37.5-24.5-28.1-65.5-74.8-93.5c-4-2.4-43.2-25.2-86.7-15.3c-62.1,14.2-61.3,78.7-124.1,115.6
			c-59.9,35.2-131.6,18-178.5,6.8c-116.3-27.8-141.7-95.6-210.8-88.4c-26.7,2.8-64.1,17.2-106,73.6l14.4-311.8
			c0.9-18.6,14.9-33.7,33.5-35.8l1043.2-117.2c1.5-0.2,3-0.3,4.5-0.3c10.7,0,21,4.7,28.2,12.9
			C3545,1356.8,3551.7,1367,3549.8,1381.7z"/>
		<polygon class="st1" points="2482.4,1496.8 2730.5,1468.8 2730.5,1511.3 2482.4,1521.5 		"/>
	</g>
	<ellipse class="st1" cx="1971.3" cy="2091.8" rx="155.9" ry="58.4"/>
	<ellipse class="st1" cx="1971.3" cy="2091.8" rx="129.6" ry="48.5"/>
	<path class="st1" d="M2082.5,1949l-104-5v-0.1l-1.5,0.1l-1.5-0.1v0.1l-104,5c0,0-22.9,157.2,80.7,160.6h23.3h3h23.3
		C2105.4,2106.2,2082.5,1949,2082.5,1949z"/>
	<ellipse class="st3" cx="1976.9" cy="1947.5" rx="105.6" ry="26.8"/>
	<path class="st4" d="M939.1,1974.2c-16.6,96.7-12.2,280.5,162.4,516.1c112.6,152,223.3,300.2,349.9,409.3
		c75.9-12.6,133.7-80,173.4-147.4c28.4-46.8,44.1-97.8,49.6-151.1c-126.1-178.3-257.2-425.5-354.9-584.8c0,0-4.7-16.8-11.5-55.3"/>
	<g>
		<path class="st1" d="M2565.6,2735.1c0,0,84.4-66.3,175.6,0c34.3,26.3,36.8,63.7,36.8,63.7s-101.1,59.5-158.9,44.2
			C2561.4,2827.7,2565.6,2735.1,2565.6,2735.1z"/>
		<path class="st3" d="M2718.6,2743.6c0,0,26.2-0.8,37.2,5.3c-9.6-15.3-17.5-17.6-17.5-17.6l-33.9,0.4L2718.6,2743.6z"/>
	</g>
	<path class="st1" d="M2689.1,2720.3c-2.5-21.2-32.9-56.4-60.1-72.5c-27.2-16.1-117.6-13.4-130.3-4.9c-12.7,8.5-64,71.7-75.9,84.5
		c0,0-470.9,130-623.1,17.8c-35.6-26.2-78.7-78.1-125.5-144.2c-5.6,53.2-21.3,104.3-49.6,151.1c-39.7,67.4-97.4,134.8-173.4,147.4
		c168.5,145.3,365.2,221.2,631.6,144c298.3-107.1,334-170.8,367.1-170.8c31.1,0,142.8-9.7,169.3-41c1.8-2.1,3.1-4.3,4.1-6.6
		C2623.4,2825.2,2691.7,2741.6,2689.1,2720.3z"/>
	<ellipse class="st3" cx="3338.4" cy="732.3" rx="72.6" ry="72.6"/>
	<ellipse class="st1" cx="371.7" cy="1387.6" rx="147" ry="145.9"/>
	<ellipse class="st1" cx="2203.7" cy="3381.1" rx="181.4" ry="179.9"/>
</g>
</svg>
