<?xml version="1.0" encoding="utf-8"?>
<!-- Generator: Adobe Illustrator 22.0.0, SVG Export Plug-In . SVG Version: 6.00 Build 0)  -->
<svg version="1.1" id="Layer_1" xmlns="http://www.w3.org/2000/svg" xmlns:xlink="http://www.w3.org/1999/xlink" x="0px" y="0px"
	 viewBox="0 0 4000 4000" style="enable-background:new 0 0 4000 4000;" xml:space="preserve">
<style type="text/css">
	.st0{fill:none;stroke:#1A1A1A;stroke-width:3;stroke-linecap:round;stroke-linejoin:round;stroke-miterlimit:10;}
	.st1{fill:#5067EF;stroke:#1A1A1A;stroke-width:2;stroke-linecap:round;stroke-linejoin:round;stroke-miterlimit:10;}
	.st2{fill:#FFFFFF;stroke:#1A1A1A;stroke-width:2;stroke-linecap:round;stroke-linejoin:round;stroke-miterlimit:10;}
	.st3{fill:#8E9DF4;stroke:#1A1A1A;stroke-width:2;stroke-linecap:round;stroke-linejoin:round;stroke-miterlimit:10;}
	.st4{fill:#1A1A1A;stroke:#1A1A1A;stroke-width:2;stroke-linecap:round;stroke-linejoin:round;stroke-miterlimit:10;}
	.st5{fill:#1A1A1A;}
	.st6{fill:#D9DBDA;stroke:#1A1A1A;stroke-width:2;stroke-miterlimit:10;}
	.st7{fill:#102140;}
	.st8{fill:#FFFFFF;}
</style>
<g>
	<path class="st0" d="M953.2,1852.5c-39.6,48.2-231.7,292.4-218.4,600.5c16.3,376,329.4,640.3,347.4,655.1
		c71.6,58.8,129.8,85.9,203.5,178.7c119.1,150,86,229.1,173.7,332.5c156.9,185,458.5,162.7,511.2,158.8
		c31.6-2.3,261.2-22.4,446.7-188.6c96.5-86.4,88.2-129.2,223.3-248.1c91.8-80.8,160.6-141.3,268-173.7
		c144.1-43.5,195.3,12.9,297.8-44.7c90.9-51.1,130.8-140.5,158.8-203.5c69.5-156,53.3-301.7,44.7-372.2
		c-18.2-148-58.4-159.1-129-431.8c-32.9-127-49.3-191.8-44.7-253.1c11-146.2,81.9-181.1,119.1-337.5c30.9-129.9,12.7-235.3-5-337.5
		c-20.8-120.6-49.3-285.5-178.7-436.7c-40-46.8-199.8-221.1-436.7-248.1c-171.5-19.6-237.5,54.6-421.8,0
		c-41-12.1-122.4-36.2-208.4-99.3c-117-85.7-123.5-156.3-208.4-178.7c-81.3-21.4-157.4,21.6-233.3,64.5
		c-134.9,76.3-213.2,181.2-248.1,233.3c-138.6,206.2-165.3,425.2-188.6,635.3c-27.9,251,2.9,331.4-74.4,471.5
		C1091.2,1738.7,1042,1744.5,953.2,1852.5z"/>
	<path class="st1" d="M987.9,2624.3c-112.6,235.9-64.1,464.6-54.6,506.2c17.5,76.5,54.7,238.9,198.5,342.4
		c22.8,16.4,125.5,90.3,258.1,84.4c41.5-1.9,56-10.2,119.1-24.8c116-26.8,167-21.7,292.8-34.7c104.9-10.9,230.1-23.8,372.2-69.5
		c171.1-55,155.5-89.5,273-111.7c157.1-29.6,212.2,27,382.1,12.4c159.3-13.7,238-52.9,285.4-84.4c26.7-17.8,68.1-45.8,104.2-96.8
		c13.3-18.7,42.8-64.5,74.4-238.2c27.7-152.1,13.9-165.6,42.2-210.9c52-83.5,114.9-63.6,148.9-136.5c39.1-83.7-6.8-189.4-32.3-248.1
		c-30.8-71.1-57.1-85.6-81.9-166.3c-13-42.3-25.5-83-22.3-131.5c8.2-125.8,111.2-142.1,136.5-277.9c9.9-53.2,3-98.5-9.9-183.6
		c0,0-12.8-84.1-37.2-156.3c-46-136-138.4-240.8-215.9-317.6c-171-169.6-231.7-165.7-491.3-369.7
		c-219.3-172.4-209.9-201.8-327.6-255.6c-187.4-85.6-369.2-83.1-461.6-81.9c-76.7,1-200.3,3.7-349.9,54.6
		c-74.1,25.2-245.6,85.8-397,248.1c-25.7,27.5-258.9,285-243.2,635.3c6.9,154,60.6,296.6,84.4,359.8
		c48.3,128.4,86.5,172.1,126.6,312.7c33.3,116.9,54.1,189.8,42.2,277.9C1182,2423.9,1076.9,2437.9,987.9,2624.3z"/>
	<path class="st0" d="M933.3,3130.5c17.5,76.5,54.7,238.9,198.5,342.4c22.8,16.4,125.5,90.3,258.1,84.4c41.5-1.9,56-10.2,119.1-24.8
		c116-26.8,167-21.7,292.8-34.7c104.9-10.9,230.1-23.8,372.2-69.5c171.1-55,155.5-89.5,273-111.7c157.1-29.6,212.2,27,382.1,12.4
		c159.3-13.7,238-52.9,285.4-84.4c3.2-2.1,6.6-4.4,10.1-6.8L924.1,2833.3C901.3,2982.4,926.7,3101.6,933.3,3130.5z"/>
	<path class="st2" d="M3452,2314.1c-30.8-71.1-57.1-85.6-81.9-166.3c-13-42.3-25.5-83-22.3-131.5c8.2-125.8,111.2-142.1,136.5-277.9
		c9.9-53.2,3-98.5-9.9-183.6c0,0-12.8-84.1-37.2-156.3c-46-136-138.4-240.8-215.9-317.6c-12.8-12.7-25-24.4-36.7-35.3L1679.4,402.6
		c-28.3,6.8-57.9,15.2-88.5,25.6c-74.1,25.2-245.6,85.8-397,248.1c-25.7,27.5-258.9,285-243.2,635.3c6.9,154,60.6,296.6,84.4,359.8
		c48.3,128.4,86.5,172.1,126.6,312.7c33.3,116.9,54.1,189.8,42.2,277.9c-21.8,162-126.9,175.9-215.9,362.3
		c-34.4,72.1-53.7,143.4-63.8,209l2200.5,404.6c26.4-18,62.3-45.1,94.1-90c13.3-18.7,42.8-64.5,74.4-238.2
		c27.7-152.1,13.9-165.6,42.2-210.9c52-83.5,114.9-63.6,148.9-136.5C3523.3,2478.6,3477.5,2372.8,3452,2314.1z"/>
	<path class="st2" d="M2729.9,711.1c-219.3-172.4-209.9-201.8-327.6-255.6c-187.4-85.6-369.2-83.1-461.6-81.9
		c-61,0.8-151.6,2.7-261.4,29l1505.1,642.9C3040,910.6,2970.1,899.8,2729.9,711.1z"/>
	<g>
		<path class="st3" d="M1924.3,1716.9h36.4l7.1-1170.4l1257.8,546c-1.4-1.4-2.8-2.8-4.2-4.2c-31.1-30.8-58.5-55.9-84.1-77.5
			L1968,501.3l0.7-120.6c-10,0.1-19.4,0.2-27.9,0.3c-2.7,0-5.5,0.1-8.4,0.1l-0.6,104.4l-199-86.7c-22.4,4.1-45.7,9.1-69.9,15.4
			l268.7,116.6L1924.3,1716.9z"/>
		<path class="st3" d="M1211.4,2847.3l1975.8,346.1c-0.7,0.7-1.3,1.4-2,2.1c-0.7,0.7-1.3,1.4-2,2.1c-3.7,3.7-7.3,7.2-11,10.6
			c-1.4,1.3-2.8,2.5-4.2,3.7c-1,0.9-2,1.8-3,2.6c-1.4,1.2-2.7,2.4-4.1,3.5c-2.6,2.2-5.2,4.3-7.7,6.3c-10.9,8.7-21.2,16-30.3,22.1h0
			L920.1,2870.8c0-0.1,0-0.2,0-0.3c0.3-2.8,0.7-5.7,1-8.5c0.3-2.2,0.6-4.4,0.9-6.6c0-0.4,0.1-0.8,0.2-1.2c0.3-2.3,0.6-4.7,1-7
			c0.1-0.7,0.2-1.3,0.3-2c2.3-15.3,5-30.9,8.4-46.8l211,37l14.5-440.7l0,0l12.3-374.5v0l17.8-539.6l-228-72.8
			c-0.3-2.3-0.7-4.7-1-7.1c-1.5-10.6-2.9-21.3-4-32.2c-0.2-1.9-0.4-3.8-0.6-5.6c-0.8-7.8-1.5-15.7-2-23.6l237.7,79.2l16.5-754.9
			l48.9-46.6l-16.1,822l2125.4,697.2c1.9,6.4,3.9,12.7,5.8,19.1c3.3,10.7,6.6,20.3,10,29l-2142.5-682.6h0L1211.4,2847.3z"/>
	</g>
	<g>
		<path class="st4" d="M3310.2,1227c-75.4,36.8-205.3,46.1-209.9,147.8c2.5-0.2,5-0.4,7.5-0.6c2.2-3.9,6.3-11.5,14.2-25.9
			C3138.3,1318.5,3300.3,1257.3,3310.2,1227z"/>
		<path class="st4" d="M2944.9,1288.9c-21.5-90.5-77.1-177-166.7-205.6c124.4,97.6,60.3,222.2,151.1,252.2c-6.2,1.4-11.9,2.7-17.2,4
			c2.4,0.9,4.9,1.8,7.3,2.7C2954.2,1356.2,2951.8,1309.8,2944.9,1288.9z"/>
		<path class="st3" d="M3310.2,1227c0.2-0.5,0.3-1,0.4-1.4C3134.4,1194.9,3069,1338,3069,1338c-0.3-5.6-0.6-11.1-0.9-16.5
			c-1.8,0.1-3.5-0.7-4.9-2.4c-46.4-65-27.8-143.9-11.6-222.8c13.1-65.5,42.7-129,106-151.7c0.8-1.7,1.6-3.5,2.4-5.3
			c-172.7,13.9-155.4,271.5-145.7,352.5c2.5,8.5,3.7,16.6,3.4,24.2c0,0-1.6-9-3.4-24.2c-25.9-89.6-192.5-221.9-243.9-214.4
			c2.7,1.9,5.2,3.9,7.7,5.9c89.6,28.6,145.2,115.1,166.7,205.6c7,20.9,9.3,67.3-25.5,53.4c-2.4-1-4.9-1.9-7.3-2.7
			c-61.1,15.2-61.2,29.5-96.9,120.9c4.4-7.2,10.1-13.2,16.9-18.1c46.6-50.9,118.6-70.3,187.2-58.2c-54.9,25.7-76.8,86.9-80.7,147.9
			c6.1-25.2,18.4-30.3,57.6-88.2c1.4-2.2,2.8-4.4,4.4-6.5c-1.5,2.3-3,4.4-4.4,6.5c-38.3,61.8-10.5,170.4,34.2,212.7
			c-3.4-18.2-4.2-34.4-3.2-49.7c-21.1-67-2-148.2,40.9-201.8c92.8-4.6,164.8,51.1,211.2,127.6c4.7,7.7,9,16.3,12.4,25.3
			c1.9-11.9,3.3-31.4,2.6-63.5c-24-134-188.6-115.8-188.6-115.8s0,0,2.4-4.3c-2.5,0.2-4.9,0.4-7.5,0.6
			C3104.9,1273.1,3234.8,1263.8,3310.2,1227z"/>
		<path class="st4" d="M3019.1,1384.1c-68.5-12.1-140.5,7.3-187.2,58.2c27.3-20.1,71.5-23.1,114.6-19.1
			c-53.8,29.8-26.5,111.7-14.1,154.7c1.9-22,3.3-35.6,5.8-45.9C2942.4,1470.9,2964.3,1409.8,3019.1,1384.1z"/>
		<path class="st4" d="M3051.6,1096.3c-16.2,78.9-34.8,157.8,11.6,222.8c1.4,1.8,3.1,2.5,4.9,2.4c-14.1-275.5,56-304.7,89.5-376.9
			C3094.3,967.4,3064.7,1030.8,3051.6,1096.3z"/>
		<path class="st4" d="M3088.8,2140.6c16.2-143.9-27.8-280.8-9.3-424.7c14.1-102.5,14.8-207.7-18.5-303.2l-20.5,13
			c19.3,340.8,17.1,709.1,0,1096.8c0,0,8.5,2,18.9,2.7c4-21.9,10.9-43.6,17.8-64.3C3107.3,2354.1,3077.1,2249.7,3088.8,2140.6z"/>
		<path class="st2" d="M3072.3,1405.4l-11.4,7.2c33.3,95.6,32.6,200.8,18.5,303.2c-18.6,143.9,25.5,280.8,9.3,424.7
			c-11.6,109.1,18.6,213.5-11.6,320.2c-6.9,20.8-13.8,42.4-17.8,64.3c8.5,0.6,18.2,0.3,25.4-2.7
			C3124.5,2506.4,3115.9,1406.8,3072.3,1405.4z"/>
		<path class="st4" d="M3067.9,1405c-42.9,53.6-61.9,134.8-40.9,201.8c3.7-51.5,29.2-92.3,52.8-161.2
			c105-29.8,204.3,130.7,204.3,130.7s4.3,0.3,7.3-18.3c-3.3-9-7.6-17.6-12.4-25.3C3232.6,1456,3160.7,1400.3,3067.9,1405z"/>
		<path class="st4" d="M3092.3,2440.6c3.2,37.5,8.9,74.9,10.3,113.1c0,55.7,2.3,113.7-2.3,169.4c-2.3,27.8-4.6,55.7-11.6,85.9
			c-20.9,106.7-53.4,194.9-113.7,285.4c-27.8,41.8-71.9,51.1-113.7,39.5c-7-2.3-11.6-13.9-13.9-23.2c-18.6-44.1-9.3-92.8-23.2-136.9
			c-6.1-18.2-11.7-36.4-18.4-54.3l30.3,416.4c154.6-14.2,231.8-52.7,278.5-83.7c1.2-0.8,2.4-1.6,3.7-2.4l73.3-781.7
			C3191.5,2467.9,3153.6,2451.7,3092.3,2440.6z"/>
		<path class="st2" d="M2847.4,3110.6c2.3,9.3,7,20.9,13.9,23.2c41.8,11.6,85.9,2.3,113.7-39.5c60.3-90.5,92.8-178.7,113.7-285.4
			c7-30.2,9.3-58,11.6-85.9c4.6-55.7,2.3-113.7,2.3-169.4c-1.4-38.2-7.1-75.6-10.3-113.1c-78.4-14.2-195-20-319.4,27.3l32.8,451.5
			c6.7,17.8,12.4,36,18.4,54.3C2838.1,3017.8,2828.8,3066.5,2847.4,3110.6z"/>
	</g>
	<path class="st5" d="M2334.5,1405.4c0,0-84.4-32.7-100.1-115.4c-15.7-82.7-4.1-107.5-55.4-142.3c-51.3-34.7-55.4-217.9,42.2-184.2
		c43,65.9,182.8,264.5,182.8,264.5l15.7,122.4l-7.4,28.1L2334.5,1405.4z"/>
	<path class="st5" d="M2214.9,985.7c0,0-82.2-108.1,18.2-140.6c17.1-53.5,162.7-80,238.8,16c76.1,95.9,50.7,148.9,77.2,198.5
		c26.5,49.6,163.2,133.4,162.1,238.2c-99.3,33.1-194.1,11-194.1,11L2214.9,985.7z"/>
	<path class="st4" d="M2555,1309.8c4.2,3.3,8.7,6,13.2,8.4c9.4-16.2,16-34.8,18.6-56.2c-64.5-46.3-82.7-64.5-89.3-96
		c-5.1-24.4-1.8-79.2-31.4-103.6C2470.6,1151.7,2470.6,1252.8,2555,1309.8z"/>
	<path class="st2" d="M2555,1309.8c-84.4-57-84.4-158.1-88.9-247.5c-8.5-7.1-19.8-11.6-34.8-12.2c-67-2.5-76.9-17.4-81.1-48.8
		c-4.1-31.4,18.6-73-5-85.2c-46.3-24-100.1,24-100.1,24s-57.1,28.1-28.1,115c29,86.9,83.5,205.1,156.3,166.3c0,0,17.4,126-4.7,181.7
		c55.1,10.2,156.8-11.7,199.5-84.9C2563.7,1315.8,2559.2,1313.1,2555,1309.8z"/>
	<g>
		<path class="st6" d="M2936.7,1756.6c0.4-19.3,0.8-47.8,1.3-79.9c1.5-96.9,4.3-226.6,13-236.1c6.7-7.4,11.9-19.4,22.9-26.3
			c-51.2-16.7-174.5,5.6-174.5,5.6L2697.9,2276l29.5,54.6l24.1,9.5c9.4-19.4,14.9-30.8,18.2-37.6c4.8-9.9,4.8-9.9,4.8-9.9
			s221.7,14.9,198.5-129.1C2949.9,2019.6,2935,1834.3,2936.7,1756.6z"/>
		<path class="st4" d="M2982.2,1862.4c-17.8-167.4,4.6-292.3,13.1-366.4c-0.5,1.4-1,2.7-1.7,4.1c0.6-1.4,1.2-2.7,1.7-4.1
			c1.3-11.5,2.3-21.8,2.7-30.8c-2.8-18.7-12.7-36.9-23.6-51.1c-0.2,0.1-0.3,0.2-0.5,0.3c-11,6.9-16.2,18.9-22.9,26.3
			c-8.7,9.5-11.5,139.2-13,236.1c-0.5,32.1-0.9,60.5-1.3,79.9c-1.7,77.8,13.2,263,36.4,407c23.2,143.9-198.5,129.1-198.5,129.1
			s0,0-4.8,9.9c-3.3,6.8-8.8,18.3-18.2,37.6c-1.1,2.2-2.2,4.6-3.4,7c64.5,3.3,178.7,28.1,248.6-79.4
			C3066.6,2160.2,3007.8,2104,2982.2,1862.4z"/>
	</g>
	<path class="st1" d="M2321.3,1561.4l2.9-83.4l3.7-108c0,0-123.5,37.5-141.2,107c-17.6,69.5-50.7,493.8-50.7,493.8l69.8-2l133.3-3.8
		L2321.3,1561.4z"/>
	<path class="st4" d="M2666.4,1732.2c-58,83.5-139.2,132.3-229.7,160.1c-42.1,12-91.2,8.5-138.2-1.7c0.5,11.7,0.5,19,0.5,19
		l20.7,90.4c0,0,150.5,94,402,57.6c79.2-135.7,54.2-410.6,17-601.9c-17,37.3-25.6,79.4-28.1,120.9
		C2708.2,1630.1,2698.9,1685.7,2666.4,1732.2z"/>
	<path class="st1" d="M2732.8,1329.6c-0.8-0.6-126.9-72.5-127.9-72.4c-45.4,8.5-30.1,37.1-89.6,34.6c-28.2,28.8-33.1,68.1-40.2,78.2
		c-11.6,16.3-28,15.2-28,15.2s-58.9-31.4-89.5-25.6s-39.1,13.6-58.1,26.5c-19,12.9-28.7,113.3-28.7,113.3s-38.8,74.9-49.6,115
		c-11,40.9,9.1,68.7,30.4,99.1c4.8,6.8,9.7,13.8,14.3,21.1c25.1,38.9,31.1,119.3,32.6,156.1c47,10.2,96,13.8,138.2,1.7
		c90.5-27.8,171.7-76.6,229.7-160.1c32.5-46.4,41.8-102.1,44.1-155.5c1-17.1,3.1-34.3,6.4-51.2c4.7-24.1,11.8-47.7,21.7-69.7
		C2731,1416.7,2740.7,1359.7,2732.8,1329.6z"/>
	<path class="st2" d="M2339.2,1303.3l-11.3,66.7c0,0,34.4,14.1,56.7,12.3c22.3-1.8,58.2,15.7,62.6,14.1c4.4-1.7,4.8-14.9,4.8-18.2
		c0-3.3-46.7-57.9-56.2-57.5C2386.2,1321.1,2344.3,1290.5,2339.2,1303.3z"/>
	<path class="st2" d="M2465.8,1381.6c-1.6,0.8-9.2-67.6,6.4-85.8c15.6-18.2,65.8-55.3,73-74.1c18.2,1.1,41.6,33.6,41.6,33.6
		S2522.6,1354,2465.8,1381.6z"/>
	<path class="st1" d="M2642.6,1522.8l12.1,48.5l38.9,60.1c0,0,21,123,34.2,169.3c-46.3-7.7-260.8,69.5-276.3,71.1
		c-14.6,1.6-45.5,15-49.7,65.9c-0.2,2.9-0.4,5.9-0.5,9.1c-0.3,17.9,4.4,31.1,11.2,40.7c15.2,21.7,40.7,25.4,40.7,25.4
		s248.7-6.6,377.7-44.6c129-38,66.2-244,26.5-423.5c-31.6-143-63.9-224.7-109-264c-11.5-10-23.8-17.3-37.2-22.2
		c-65.6-23.7-132.4,7.7-132.4,7.7"/>
	<path class="st2" d="M2417.2,1901.6c0,0,6.1-17.8,24.3-21.6c18.2-3.8,44.1,30.4,46.3,67.3c2.2,36.9-10.8,59.8-25.9,62.9
		c-15.2,3-57.6-28.7-54.6-59C2410.3,1920.9,2417.2,1901.6,2417.2,1901.6z"/>
	<path class="st2" d="M2449.2,1901c0,0-110.8-13.2-148.9,52.9c-38,66.2,105.9,56.2,105.9,56.2s50.1-19.9,72.1-22.7
		C2490.6,1920.3,2462.4,1901.1,2449.2,1901z"/>
	<g>
		<polygon class="st2" points="1603.3,1631.4 2035.1,1518.3 2218.1,1892.2 1810.1,1988.2 		"/>
		<polygon class="st4" points="2035.1,1518.3 2068.2,1525 2242.7,1883.9 2218.1,1892.2 		"/>
		<path class="st2" d="M2490.6,2019.6l-32.4-0.3c0,0,0,0-0.1,0l-214.4-113.6l14.8-22.9L2490.6,2019.6z"/>
		<polygon class="st2" points="2258.5,1882.8 2243.7,1905.7 1905.2,1979.9 1939.6,1956.2 		"/>
		<path class="st2" d="M2458.2,2019.3l-269.8,49.4l-283.2-88.8l338.5-74.2L2458.2,2019.3C2458.2,2019.3,2458.2,2019.3,2458.2,2019.3
			z"/>
	</g>
	<path class="st2" d="M1424.9,2871.6c32.7-6.5,61-24.1,90.2-39.5c0.6-27.4,0-49.9,0-49.9l-80-72.8c0,0-42.7,90.8-78.3,155.6
		C1374,2878.8,1405,2875.2,1424.9,2871.6z"/>
	<path class="st4" d="M1515.1,2832.1c-29.2,15.4-57.5,32.9-90.2,39.5c-19.8,3.6-50.8,7.2-68-6.6c-11.6,21.1-22.5,39.5-30.9,51
		c-34.2,47.1-125.2,135.8-113.6,149.6c11.6,13.8,97.1,77.8,231.6-124.1c12.7,56.8,22.1,95.9,22.1,95.9s21.5,8.8,31.4-1.1
		c9.9-9.9-5-84.4,7.7-116.9C1512,2902.1,1514.3,2863.8,1515.1,2832.1z"/>
	<path class="st2" d="M2007.3,2161.5c46.4,27.8,85.9,62.7,136.9,81.2c185.7,67.3,380.6,132.3,575.5,83.5
		c47.6-11.6,73.7-51.6,87.9-100c-1.5-137.3-56.2-226.5-56.2-226.5l-380.5,21.5l-59.6,23.2c0,0-451.6-172-527.7-49.6
		c-76.1,122.4-375.5,660.1-377.2,711.4c0,0,48.5,115.8,135.7,98.2c49.8-53.3,105-117.7,158.8-184.7
		c67.4-114.1,79.7-254.4,104.5-388.5C1824,2133.6,1933.1,2122,2007.3,2161.5z"/>
	<path class="st4" d="M2719.8,2326.2c-194.9,48.7-389.9-16.2-575.5-83.5c-51.1-18.6-90.5-53.4-136.9-81.2
		c-74.3-39.5-183.3-27.8-201.9,69.6c-24.9,134-37.2,274.4-104.5,388.5c100-124.5,195.3-257.9,242.7-344.6
		c111.4,70.6,336.4,141.7,539.9,113.6s322.6-6.6,324.2-150.5c0-4,0-7.9,0-11.8C2793.4,2274.6,2767.3,2314.6,2719.8,2326.2z"/>
	<path class="st2" d="M2001.9,2390.7c0,0,404.9-45.2,497.5-41.9c92.6,3.3,317,45.8,317,45.8s38.7,7.9,19.9,75.2
		c-18.7,67.3-73.4-4.1-157.2-1.9c-83.8,2.2-189.7-8.8-189.7-8.8s-474.8,60.5-504.6,46.2C1955.1,2491,2001.9,2390.7,2001.9,2390.7z"
		/>
	<path class="st4" d="M1997.1,2480.5l522-56.6c0,0,287.7,37.8,286.7,66.4s-481.7,80.1-547.2,68.4S1994.1,2506.4,1997.1,2480.5z"/>
	<path class="st6" d="M2150.1,2515.4c-1.1,9.9-11.5,45,1.7,62.5c18,23.8,146.2-16.3,162.2-13.5c15.9,2.8,82.9,11.2,156.1,16.5
		l3-100.5L2150.1,2515.4z"/>
	<path class="st2" d="M2657.2,2521.5c0.7-18-179.7-41.6-179.7-41.6l-4.3,0.5l-3,100.5c69.7,5,144.9,7.2,187-0.8
		C2660.1,2557.4,2657,2525.9,2657.2,2521.5z"/>
	<path class="st4" d="M2150.1,2574l74.9-8.1l252.4-27.4c0,0,180.4,23.7,179.7,41.6c-0.7,18-302.1,50.2-343.1,42.9
		C2273,2615.6,2148.3,2590.2,2150.1,2574z"/>
	<path class="st4" d="M2188.7,2575.1l63.5-6.9l214-23.2c0,0,152.9,20.1,152.4,35.3c-0.6,15.2-256.1,42.6-290.9,36.3
		C2292.9,2610.4,2187.2,2588.9,2188.7,2575.1z"/>
	<path class="st2" d="M2366.1,2734.3c0-2.7,5.5-8.2,8.2-13.7c7-46.4,13.9-108.4,50.7-139.7c-30.1-4.3-71.3,6.4-87.2,21.7
		c0,0-7.1,328-8.4,486.7C2380.8,2979.8,2351.4,2854.9,2366.1,2734.3z"/>
	<path class="st2" d="M2425,2581c-36.8,31.3-43.8,93.3-50.7,139.7c-2.7,5.5-8.2,11-8.2,13.7c-14.8,120.5,14.6,245.5-36.7,355
		c-0.4,46.4-0.3,78.3,0.6,83.3c5.1,16.1,19.1,24.8,35.2,27.3c7.4-8.9,12.5-20.5,14.6-35.5c29.6-193.9-4.3-390.5,70-574
		C2443.6,2585.4,2434.9,2582.4,2425,2581z"/>
	<path class="st4" d="M2449.8,2590.5c-74.3,183.6-40.4,380.1-70,574c-2.1,14.9-7.2,26.5-14.6,35.5c30.3,4.8,68-12.1,66.5-41.6
		l26.4-556C2456.6,2597.5,2453.7,2593.6,2449.8,2590.5z"/>
	<path class="st6" d="M2393.5,3276.8c-2.6-39-15-75.6-6.9-114.4l-57,5.2c0,0-139.2,120.9-216.5,205.5
		c-42.2,46.2-49.5,54.6-78.7,89.9c0,0,98.2-14.1,139.6-27.4c129.2-41.5,151.9-71.4,205.9-93
		C2389.4,3322.7,2394.4,3300.5,2393.5,3276.8z"/>
	<path class="st4" d="M2431.8,3158.3l-45.2,4.2c-8.1,38.8,4.3,75.3,6.9,114.4c0.9,23.6-4.1,45.9-13.6,65.8
		c17.5-7,38.3-13.2,67.1-18.6c118.4-22.3,178.9,4.4,274.2,12.6L2431.8,3158.3z"/>
	<path class="st2" d="M1779.9,3349.6c31.7-22.9,44.7-55.1,63.3-84.5c-1-5.8-2.2-10.8-3.8-14.7c-16-38.6-8.8-58.5-8.8-58.5
		l-114.1-19.3c0,0-19.6,173.7-22.7,191.3c-0.5,2-1,4-1.6,6C1721.5,3375.9,1754.5,3367.1,1779.9,3349.6z"/>
	<path class="st4" d="M1843.2,3265.2c-18.6,29.4-31.6,61.6-63.3,84.5c-25.4,17.5-58.4,26.2-87.9,20.4
		c-32.7,126.5-74.1,186.7-51.8,204.6c22.6,18.2,137.9-35.8,155.5-168.2c14.9,91.5,14.9,91.5,14.9,91.5s22.1,4.4,35.3-14.9
		C1837,3435.6,1851.7,3316.8,1843.2,3265.2z"/>
	<path class="st4" d="M2638.5,1848.2c-7-2.3-18.6,0-18.6,7c-4.6,30.2-9.3,58-4.6,88.2c21.1,122.4,7.7,239.1,24.3,357
		c31.4,10,58.3-24.4,58.3-24.4s-21.2-228-23.3-271.9c-2.1-43.9,26.6-21.4,79.6,39.7c70.4,82.5,141.7,79.3,150.9,50.1
		C2817.1,2008.1,2745.2,1915.4,2638.5,1848.2z"/>
	<path class="st2" d="M2851.2,2000c0,0-101.5-100.1-198-172.9c-96.5-72.8-78.3,26.5-78.3,26.5l44.1,433.4c6.9,7,13.8,11.2,20.6,13.3
		c-16.6-117.9-3.2-234.6-24.3-357c-4.6-30.2,0-58,4.6-88.2c0-7,11.6-9.3,18.6-7c106.6,67.2,178.5,159.9,266.5,245.7
		c0.3-1,0.6-2.1,0.7-3.1C2910.8,2058.8,2851.2,2000,2851.2,2000z"/>
	<path class="st4" d="M2442.9,1851.7c0,0,9.1-53.8-38.4-121.6c-66.5-90.2-29.4-142.3,0-186.1c29.4-43.8,42.7-131.5,42.7-131.5
		l13.3-1.1c0,0-3.3,60.7-27.6,97.6c-24.3,36.9-53.7,95.5-47.1,149.5C2392.5,1712.5,2457.5,1737.3,2442.9,1851.7z"/>
	<path class="st2" d="M1875.1,3082.8c37.1-102.1,60.3-204.2,85.9-311c4.6-18.6,7-39.5,9.3-58c18.6-155.5,48.7-306.3,37.1-461.8
		c-2.3-18.6-13.9-37.1-25.5-53.4c-5.5-9.2-8.1-21.3-12.4-27.1c-121.3-20.7-152,54.9-164.2,137.6c-13.2,89.3-134.9,837.6-107.5,860.2
		c0,0,53.6,62.3,131.6,37.6c7.3-17.1,16.4-33.6,22.7-50C1861.1,3133.8,1865.8,3106,1875.1,3082.8z"/>
	<path class="st4" d="M2000.4,2178.4c-10.9-3-21.2-5.2-31-6.9c4.3,5.8,6.9,17.9,12.4,27.1c11.6,16.2,23.2,34.8,25.5,53.4
		c11.6,155.5-18.6,306.3-37.1,461.8c-2.3,18.6-4.6,39.5-9.3,58c-25.5,106.7-48.7,208.9-85.9,311c-9.3,23.2-13.9,51.1-23.2,74.3
		c-6.3,16.4-15.3,32.8-22.7,50c11.9-3.7,24.3-9.5,37.2-17.8C1927.6,3020.5,2147.6,2218.1,2000.4,2178.4z"/>
	<path class="st4" d="M2417.2,1189.1l-47.3,34c0,0,4.4,7.8,6.9,34.7C2416.2,1249.3,2421.6,1196.7,2417.2,1189.1z"/>
	<path class="st4" d="M1891.7,1803v-56c0-8.7,10-13.6,16.9-8.2l51.2,39.8c6.6,5.2,4.8,15.7-3.3,18.2l-51.2,16.2
		C1898.6,1815.1,1891.7,1810,1891.7,1803z"/>
	<circle class="st4" cx="2415.5" cy="1496" r="8.3"/>
	<path class="st4" d="M2367.2,1588.2c0,4.6-3.7,8.3-8.3,8.3c-4.6,0-8.3-3.7-8.3-8.3c0-4.6,3.7-8.3,8.3-8.3
		C2363.5,1579.9,2367.2,1583.7,2367.2,1588.2z"/>
	<path class="st7" d="M2387.5,1718.8c0,4.6-3.7,8.3-8.3,8.3c-4.6,0-8.3-3.7-8.3-8.3c0-4.6,3.7-8.3,8.3-8.3
		C2383.8,1710.5,2387.5,1714.2,2387.5,1718.8z"/>
	<circle class="st7" cx="2422.2" cy="1832.7" r="8.3"/>
	<polygon class="st8" points="1436.1,740.8 1662.7,1396.4 1642.7,1270.4 1520.3,949.4 	"/>
	<polygon class="st8" points="1597.3,781.6 1716.6,1167.1 1693.6,1001.1 1571.2,680.1 	"/>
	<polygon class="st8" points="1432.5,1846.2 1551.9,2231.7 1528.9,2065.7 1406.5,1744.7 	"/>
	
		<ellipse transform="matrix(0.7071 -0.7071 0.7071 0.7071 57.6439 3013.7256)" class="st4" cx="3666.7" cy="1437.3" rx="120.3" ry="120.3"/>
	<circle class="st2" cx="425.2" cy="2302.5" r="212.2"/>
	<circle class="st4" cx="3686.2" cy="3468" r="62.5"/>
	
		<ellipse transform="matrix(0.7071 -0.7071 0.7071 0.7071 -971.4708 3404.3992)" class="st2" cx="3623.7" cy="2874.9" rx="132" ry="132"/>
</g>
</svg>
