<?xml version="1.0" encoding="utf-8"?>
<!-- Generator: Adobe Illustrator 22.0.0, SVG Export Plug-In . SVG Version: 6.00 Build 0)  -->
<svg version="1.1" id="Layer_1" xmlns="http://www.w3.org/2000/svg" xmlns:xlink="http://www.w3.org/1999/xlink" x="0px" y="0px"
	 viewBox="0 0 4000 4000" style="enable-background:new 0 0 4000 4000;" xml:space="preserve">
<style type="text/css">
	
		.Graphic_x0020_Style_x0020_22{fill:#8E9DF4;stroke:#1A1A1A;stroke-width:2;stroke-linecap:round;stroke-linejoin:round;stroke-miterlimit:10;}
	
		.Graphic_x0020_Style_x0020_27{fill:#1A1A1A;stroke:#1A1A1A;stroke-width:2;stroke-linecap:round;stroke-linejoin:round;stroke-miterlimit:10;}
	
		.Graphic_x0020_Style_x0020_26{fill:#FFFFFF;stroke:#1A1A1A;stroke-width:2;stroke-linecap:round;stroke-linejoin:round;stroke-miterlimit:10;}
	
		.Graphic_x0020_Style_x0020_21{fill:#5067EF;stroke:#1A1A1A;stroke-width:2;stroke-linecap:round;stroke-linejoin:round;stroke-miterlimit:10;}
	
		.Graphic_x0020_Style_x0020_3{fill:#FCCD06;stroke:#1A1A1A;stroke-width:2;stroke-linecap:round;stroke-linejoin:round;stroke-miterlimit:10;}
	
		.Graphic_x0020_Style_x0020_31{fill:none;stroke:#1A1A1A;stroke-width:2;stroke-linecap:round;stroke-linejoin:round;stroke-miterlimit:10;}
	.st0{fill:#FFFFFF;stroke:#1A1A1A;stroke-width:2;stroke-linecap:round;stroke-linejoin:round;stroke-miterlimit:10;}
	.st1{fill:none;stroke:#1A1A1A;stroke-width:2;stroke-linecap:round;stroke-linejoin:round;stroke-miterlimit:10;}
	.st2{fill:#1A1A1A;stroke:#1A1A1A;stroke-width:2;stroke-linecap:round;stroke-linejoin:round;stroke-miterlimit:10;}
	.st3{fill:none;stroke:#FFFFFF;stroke-width:3;stroke-linecap:round;stroke-linejoin:round;stroke-miterlimit:10;}
	.st4{fill:#8E9DF4;stroke:#1A1A1A;stroke-linecap:round;stroke-linejoin:round;stroke-miterlimit:10;}
	.st5{fill:#FCCD06;}
</style>
<g>
	<path class="st0" d="M414.8,2972.1c-98.6-151.7-99.9-341.4-4.6-475.7c122.7-172.9,342-164.3,383.4-161.7
		c237.7,15.4,365.1,209.3,378.8,230.9c45.7-36.2,442-339.8,910-203.2c217.5,63.5,359.2,195.4,429.6,272.5
		c69.9-301.9,376.1-468.7,628.2-388c210.5,67.4,356.5,298.8,323.3,549.6c42.1-37.1,104.8-38.7,147.8-4.6
		c45.7,36.2,47.1,99.5,32.3,138.6c0,0-23.6,62.6-124.7,97C3306.2,3099.9,871,2992.6,414.8,2972.1z"/>
	<path class="st0" d="M3447.9,2960.3c-33.7-52.6-497.1-96.8-1131.8-113c-142.1-4.3-291.6-6.6-446-6.6c-13.6,0-27.1,0-40.6,0.1
		c-16.3,0-32.6-0.1-49-0.1c-922,0-1669.4,56.3-1669.4,125.7c0,13.2,27.2,26,77.7,38c-10.2,8.4-15.5,16.9-15.5,25.6
		c0,104.6,759.7,189.4,1696.8,189.4s1696.8-84.8,1696.8-189.4C3566.9,3005.5,3524.7,2981.9,3447.9,2960.3z"/>
	<path class="st1" d="M350,2582.4"/>
	<path class="st1" d="M3335.2,2582.4"/>
	<path class="Graphic_x0020_Style_x0020_26" d="M569.5,1914.1l-276,5.6c0.4-8.3,1-16.6,1.6-24.7l274.5-5V1914.1z"/>
	<path class="Graphic_x0020_Style_x0020_26" d="M572.6,1914.4l-3.1,108.3H293.2c-1.7-35.5-1.4-69.9,0.3-102.9L572.6,1914.4z"/>
	<polygon class="Graphic_x0020_Style_x0020_26" points="1067.7,2024.3 1043.7,2020 1026.1,2022.7 1026.1,2992.1 1068.4,2977.2 	"/>
	<g>
		<polygon class="st0" points="2015.8,1555.9 1754.4,2680.1 1789.2,2680.1 2058.9,1572.7 		"/>
		<polygon class="st0" points="2816.4,1555.9 3077.9,2680.1 3043.1,2680.1 2773.3,1572.7 		"/>
	</g>
	<rect x="1580.8" y="821.3" class="Graphic_x0020_Style_x0020_26" width="1642.1" height="797.4"/>
	<rect x="1605.6" y="857.7" class="Graphic_x0020_Style_x0020_26" width="1583.4" height="726.8"/>
	<polygon class="Graphic_x0020_Style_x0020_26" points="569.5,1890.1 569.5,1914.2 1270.7,1963.8 1263.1,1938.8 	"/>
	<polygon class="Graphic_x0020_Style_x0020_26" points="572.6,1914.4 569.5,2022.7 1270.7,2022.7 1240.6,1946.8 	"/>
	<path class="Graphic_x0020_Style_x0020_26" d="M569.5,1890.1v24.1l-276,5.6c0.4-8.3,1-16.6,1.6-24.7L569.5,1890.1z"/>
	<path class="Graphic_x0020_Style_x0020_27" d="M572.6,1914.4l-3.1,108.3H293.2c-1.7-35.5-1.4-69.9,0.3-102.9L572.6,1914.4z"/>
	<polygon class="Graphic_x0020_Style_x0020_27" points="579.1,3085.1 521.3,3082.4 513.5,2022.7 565.3,2022.7 	"/>
	<polygon class="Graphic_x0020_Style_x0020_26" points="621.1,3073.7 579.1,3085.1 565.3,2022.7 612.8,2022.7 	"/>
	<line class="Graphic_x0020_Style_x0020_27" x1="1023.2" y1="2992.1" x2="983.1" y2="2992.1"/>
	<polygon class="Graphic_x0020_Style_x0020_27" points="1023.2,2020 983.1,2022.7 983.1,2992.1 1023.2,2992.1 	"/>
	<polygon class="Graphic_x0020_Style_x0020_27" points="1280.3,2020 1280.3,2935.9 1306.7,2935.9 1319.5,2046.6 	"/>
	<polygon class="Graphic_x0020_Style_x0020_26" points="1306.7,2020 1306.7,2935.9 1345.9,2926.3 1345.9,2046.6 	"/>
	<g>
		<path class="Graphic_x0020_Style_x0020_27" d="M1399.5,2696.6c0,0-116.4,72.6-147.1,171.9c62.8,49.7,61.4,45.1,61.4,45.1l17.6-19
			c0,0,70.6,124.2,180.4,120.3c109.8-3.9,62.1-45.8,34-49.7c-28.1-3.9-83-67.3-100-137.9c-3.3-12.4,32-92.8,32-92.8L1399.5,2696.6z"
			/>
		<path class="Graphic_x0020_Style_x0020_26" d="M1374,1626.5c0,0,48,113.4,98.1,183.2c251.3,258,315,414.2,268,513.5
			c-47.1,99.4-257.6,428.8-257.6,428.8l-108.5-51c0,0,207.9-398.7,183-435.3c-24.8-36.6-424.9-526.8-424.9-526.8l213.1-120.3"/>
		<path class="Graphic_x0020_Style_x0020_27" d="M1739.1,2844.6c0,0,16,21.2,2.3,38.9c-13.7,17.6-12.4,135.6-12.4,135.6l96.1,1.6
			l2-14.1c0,0,27.2,18.2,110.9,18.2s172.6-10.5,142.9-43.1c-29.6-32.7-85.9-2.2-137.7-58c-51.9-55.8-101.5-108.1-101.5-108.1
			L1805,2770L1739.1,2844.6z"/>
		<line class="Graphic_x0020_Style_x0020_26" x1="1340.7" y1="1641.1" x2="1055.7" y2="1742.9"/>
		<path class="Graphic_x0020_Style_x0020_26" d="M1261.9,1666.9l-200,125c0,0-30.4,68,43.5,136.6c107.2,6.5,107.2,6.5,107.2,6.5
			s9.8,45.8,28.1,87.6c18.3,41.8,139.9,171.3,194.8,261.5c54.9,90.2,45.8,77.1,104.6,253.6c39.4,141.3,197.4,324.2,197.4,324.2
			s83.7-40.5,85-83.7c-78.4-162.1-153-338.6-198.7-485c-26.3-84.1-89.7-234.7-143.3-354l-87.4-175.1"/>
		<path class="Graphic_x0020_Style_x0020_26" d="M1452.4,1392.5c0,0,10.9-80.2,28.3-102.4c17.4-22.2,115.5-64.5,115.5-64.5
			s4.8,13.5-12.2,24.4s-80.6,45.3-80.6,61c0,15.7,43.1-9.2,54-16.6c10.9-7.4,20-1.7-1.7,24c-21.8,25.7-52.3,62.8-60.6,91.5
			c-8.3,28.8-8.3,28.8-8.3,28.8L1452.4,1392.5z"/>
		<path class="Graphic_x0020_Style_x0020_21" d="M1217.5,1165.7c0,0,115.7,176.9,134.3,293.5c57.5-60.1,98.1-82.7,98.1-82.7
			s54.9,52.6,53.6,70.3c-94.1,97.4-175.2,196.7-235.3,75.2c-60.1-121.6-158.2-269.3-158.2-269.3"/>
		<path class="Graphic_x0020_Style_x0020_26" d="M1137.4,967.9c0,0-51.6,82.4-68.5,91c67.9,40.3,92.8,51.6,92.8,51.6
			s8.7-62.8,35.2-78.1c57.5,43.1,136-137,83.7-187C1228.1,795.4,1109.9,833.4,1137.4,967.9z"/>
		<path class="Graphic_x0020_Style_x0020_27" d="M1182.3,1017.3c0.6,0.6,14.5,15.2,14.5,15.2s-7.8,6.3-7.6,6.1
			C1189.3,1038.4,1182.3,1017.3,1182.3,1017.3z"/>
		<path class="Graphic_x0020_Style_x0020_21" d="M1075.9,1056.6c0,0-149,15.7-133.4,256.2c15.7,240.5,100.7,413.1,99.4,458.9
			c-1.3,45.8-3.9,65.4-3.9,65.4s271.7-130.9,377.6-170.1c17-26.1-32.5-57.3-58.6-114.8c-26.1-57.5-99.4-345.1-153-405.3
			C1150.4,1086.6,1075.9,1056.6,1075.9,1056.6z"/>
		<path class="Graphic_x0020_Style_x0020_26" d="M1570.8,1508.5c0,0,82.5-10.5,125.2-32.6c42.7-22.1,78.8-38.4,78.8-38.4
			s4.2,30.1-55.5,62.5c8.8,39.5-4.4,60.5-22.1,70.3c-17.7,9.8-59.2-12.3-67-18.2c-22.6,4.9-63.4,19.2-65.3,18.2
			C1562.9,1569.1,1570.8,1508.5,1570.8,1508.5z"/>
		<path class="Graphic_x0020_Style_x0020_21" d="M1001.4,1220c0,0-18.3,55,21.8,103.6c25.4,30.7,257.5,245.3,305.6,253.3
			c48.1,7.9,238.7,10.5,238.7,10.5s59.5-50.3,19.6-88.2c-60.1-3.3-175.2-24.2-205.9-52.3c-30.7-28.1-99.7-117.3-156.4-226.8"/>
		<path class="Graphic_x0020_Style_x0020_27" d="M1038.7,1082.3c17.5-8.2,37.7-19.6,58.5-35.7c41.8-32.4,67.1-69.1,81.6-94.6
			c-13.3-18.5,12.3-38.5,23.6-18c21-7.7,32.3-44.1,33.4-51.3c37-3.6,35.4,18.5,35.4,18.5s13.9,0.2,6.2-18.9
			c13.3,1.4,23.7,9.3,21.6,18.9c13.9-20.5,7.1-97-67.8-117c-72.7-19.4-138.6,43.6-152.9,101.6c-14.4,58-15.2,97.6-59.3,122.1
			c-26.2,14.6-71.6,19-96.7,44.1c-18.1,18.1-15.4,47.5-15.4,66.7c-3.1,0.7-76.1,13.3-88.3,58.5c-14.2,52.6,58.4,114.2,100.6,113.9
			C968.6,1290.8,1019.7,1208.1,1038.7,1082.3z"/>
	</g>
	<ellipse class="Graphic_x0020_Style_x0020_27" cx="197.9" cy="2449.7" rx="65.7" ry="65.7"/>
	<ellipse class="Graphic_x0020_Style_x0020_26" cx="3610.7" cy="2600.6" rx="117" ry="117"/>
	<ellipse class="Graphic_x0020_Style_x0020_26" cx="252.3" cy="2034.5" rx="120.2" ry="120.1"/>
	<ellipse class="st2" cx="3663" cy="2950.3" rx="64.7" ry="64.7"/>
	<g>
		<path class="Graphic_x0020_Style_x0020_27" d="M3263.7,2281.7c-11.9-94.4-22-174.2,22-209.3c2.6-2.1,29.6-22.9,62-15.1
			c32.5,7.8,47.3,39.1,49.6,44.1c-16.2-99.3,3.9-175.3,42.7-188.7c16.8-5.8,43-1.8,62,13.8c27.7,22.7,26.4,58.8,26.2,63.3
			c4.1-26.9,22.8-129.9,96.4-165.3c14.6-7,42.6-20.5,64.7-6.9c25.3,15.6,23.6,54.7,23.4,57.8c36.5-66.1,91.8-98.3,129.5-85.4
			c17,5.8,32.1,21.5,37.2,39.9c9,32.9-14,74.9-60.6,97.8c27.2-1.5,51.8,9.3,63.4,28.9c18.8,31.8-6.9,69.7-11,75.7
			c-25.8,38.1-81.5,53.6-141.9,42.7c49.4,39.4,72.6,87.2,59.2,119.8c-8.7,21.1-30.6,30.9-55.1,41.3c-24.9,10.6-75.4,27.2-147.4,16.5
			c44.1,23.4,73.9,56.2,70.2,85.4c-4.9,39-67.8,56-115.7,68.9c-34.9,9.4-192.7,51.9-253.4-26.2
			C3274.1,2364.1,3270.7,2336.6,3263.7,2281.7z"/>
		<path class="st3" d="M3143.8,2418.4c34.2,19.6,77.7,12.9,113.7-2.9c67.6-29.8,118.6-87.7,160.9-148.2
			c42.4-60.5,78.7-125.7,128.7-180.1c47.3-51.5,105.4-91.7,156.8-139c38.8-35.7,73.9-75.5,104.5-118.4"/>
		<path class="st3" d="M3335.7,2156.6c40,62.6,52.7,134,12,196.1"/>
		<path class="st3" d="M3385.1,2312.6c51.7-26.4,154.6,18.6,207.8,10.8"/>
		<path class="st3" d="M3465.2,2197.1c22.3-65.3,6.7-126.3,11.2-182.1"/>
		<path class="st3" d="M3642.1,1888.7c-4.6,50.3-17.7,99.8-38.5,145.8"/>
		<path class="st3" d="M3663,1984.1c47.6-17.6,101-18.7,149.3-3.2"/>
		<path class="st3" d="M3504,2140.4c53.2-26.6,115.6-29.6,171.2-8.2"/>
	</g>
	<g>
		<path class="st4" d="M3222.8,2502.4c113.8-71.5,166.5-70.2,182.5-114.5c10-27.6,3.4-66.4-21.8-84.3c-31.2-22.1-74.9-0.8-77.1,0.2
			c101.8-73.1,147-158.9,123.9-201.7c-11-20.3-43.4-42.1-79.6-41.2c-28.2,0.7-48.5,14.8-56.7,21.2c57.9-102.1,75.2-189.6,43.7-216
			c-12.4-10.4-41-18.6-67.3-8.7c-21.4,8-32.9,24.9-37.2,32.1c18.9-71.6-10.4-130.4-48.1-140.7c-23.4-6.4-51.5,5.7-68.2,24.5
			c-23.3,26.2-26,67.5-5.2,101.3c-2.6-2.4-42.5-38.8-75.3-26c-35.6,13.9-39.4,76.9-25.4,117.3c13.9,40.2,46.4,61,58.3,67.8
			c-4.8-3.1-51.5-31.8-85.9-12.7c-47.2,26.2-25.2,117.2-23.8,123c20.9,82.6,102.8,120.4,119.5,127.6c-56.7-3.1-104,21.1-116.6,56.7
			c-15.8,44.6,28.4,90.7,52.4,115.8c58.6,61.2,135.4,75.9,174.9,80C3197,2519.2,3208.4,2511.4,3222.8,2502.4z"/>
		<path class="st1" d="M3165.7,1817.4c-3.3,71.2,2.4,142.9,17,212.7c21,100.6,60.3,199.9,51.9,302.3c-2.6,31.2-9.6,61.8-16.5,92.3
			c-8,34.8-16.2,70.3-34.3,101.1c-16.8,28.6-41.5,52-69.5,69.8"/>
		<path class="st1" d="M3214.1,2446.6c-0.8-4.9-3.6-9.3-6.7-13.3c-18.3-23.3-47.4-35.2-75.7-44.1c-28.3-9-57.9-16.3-81.8-33.8"/>
		<path class="st1" d="M3221,2184c-17-30.8-51.7-46.7-84.7-58.9c-33-12.3-68.2-24.1-90.9-51"/>
		<path class="st1" d="M3191,2063c-6.5-18,2.6-38.3,15.9-52.1c13.3-13.8,30.4-23.2,44.8-35.8c14.5-12.5,26.9-30,25.4-49.1"/>
		<path class="st1" d="M3174.8,1983c-0.7-5.8-1.5-11.7-3.9-17c-3.7-7.9-11-13.5-18.3-18.3c-15.1-9.8-31.8-17-47.2-26.3
			c-15.4-9.4-29.9-21.4-37.7-37.6"/>
		<path class="st1" d="M3236.5,2291.3c2.3-14.1,4.6-28.3,10.3-41.4c10.9-25.1,32.9-43.2,53.5-61.2c20.5-18.1,41.2-38.5,47.7-65.1"/>
		<path class="st1" d="M3321.4,2356.3c-19-4.6-39.6-2.6-57.4,5.6c-17.8,8.2-32.7,22.5-41.6,39.9"/>
	</g>
	<g>
		<path class="Graphic_x0020_Style_x0020_26" d="M2999,2423.1c-9.3-120.2,13.7-161.5-14.7-192.7c-17.7-19.5-51.3-30.4-76.1-17.9
			c-30.6,15.6-31.9,59.1-32,61.3c-15.5-111.2-64.7-183-108.4-182.5c-20.7,0.2-51.5,16.9-65.9,45.9c-11.3,22.7-8.5,44.7-6.8,53.9
			c-56.9-88.6-119.1-138.9-153.2-124.9c-13.4,5.5-31.9,24.8-35,49.8c-2.5,20.3,6.1,36.5,10,42.9c-48.9-44.9-107.8-46.2-131.7-20.5
			c-14.8,15.9-17,43.2-9,64.3c11.1,29.4,42.7,48.8,78.2,46.4c-3,1.1-48.5,17.6-52,48.9c-3.8,34.1,44.6,63.4,82.5,69.1
			c37.7,5.7,67.8-11.4,78.2-18c-4.5,2.6-46.8,27.6-45.9,62.9c1.1,48.4,82.5,69,87.7,70.2c74.3,17.9,138.5-31.4,151.2-41.6
			c-26.1,43.7-26.7,91.3-3.7,116.2c28.8,31.2,83.9,15.4,113.8,6.8c73-21,116.8-75.8,136.5-105.4
			C3001.5,2450.6,3000.1,2438.2,2999,2423.1z"/>
		<path class="st1" d="M2431.5,2182.5c55.2,32.3,114.4,57.7,175.9,75.3c88.6,25.3,183.9,35.6,261.6,85
			c23.7,15.1,45.1,33.4,66.4,51.6c24.3,20.9,49,42.2,65.9,69.4c15.7,25.2,23.9,54.7,26.4,84.3"/>
		<path class="st1" d="M2951.7,2408.6c-4.3-1.4-78.4,2.2-118.5,97.6"/>
		<path class="st1" d="M2745.5,2291.6c-31.5,0.7-58.6,21.6-82.1,42.6c-23.5,21-47.6,44.1-78.4,50.8"/>
		<path class="st1" d="M2636.9,2264.8c-17-2.3-29.3-18.1-34.7-34.3c-5.4-16.3-5.8-33.8-9.7-50.5c-3.9-16.7-12.6-33.9-28.4-40.7"/>
		<path class="st1" d="M2566.7,2244.4c-4.9-1.9-9.9-3.7-15.1-4c-7.8-0.3-15.3,3-22.1,6.9c-14.1,7.9-26.7,18.1-40.6,26.4
			s-29.5,14.8-45.6,14.3"/>
		<path class="st1" d="M2837.2,2324c-10.2-7.7-20.6-15.5-28.6-25.4c-15.3-19.1-20.5-44.2-26.3-68c-5.8-23.8-13.4-48.8-31.7-65"/>
		<path class="st1" d="M2924.2,2283.9c-11.6,13.2-18.6,30.4-19.5,47.9c-0.9,17.5,6.5,36.3,16.6,50.6"/>
	</g>
	<path class="Graphic_x0020_Style_x0020_26" d="M2910.5,2510.1l117.2,488.2c34.4,7.1,67.8,12.4,100.1,14.9l-96.8-504.5
		L2910.5,2510.1z"/>
	<path class="st2" d="M3030.9,2508.7l96.8,504.5c53.9,4.3,104.3,1.2,149.6-13.1l124.6-495.7L3030.9,2508.7z"/>
	<path class="st0" d="M1605.8,1403.7h281.3c0,0,4.6-34.5,5.4-109.4c40.8,0,40.8,0,40.8,0v109.4h312v-71.5h39v71.5h47.2v-160.8h41.1
		v160.8h51.3v-238.1h53.9v238.1h58.5v-309.6h55.4v309.6h60v-285h47.7v285h50.1V995.5h43.4v408.1h57.4v-274.2V951.6h49.3v452.1H3189"
		/>
	<g>
		
			<ellipse transform="matrix(2.873618e-03 -1 1 2.873618e-03 862.0955 2958.571)" class="st0" cx="1914.6" cy="1047" rx="136.9" ry="136.9"/>
		<line class="Graphic_x0020_Style_x0020_31" x1="1937.2" y1="1074" x2="1937.2" y2="1232.3"/>
		<path class="Graphic_x0020_Style_x0020_31" d="M1892.5,1232.3c-0.8-1.3-0.6-122.5-0.4-156.9"/>
		<path class="st1" d="M1892,1075.4c0,0-18.4-13.3-4.2-27c14.2-13.8,2.2,24.6,15.6,24.9c13.4,0.4,3.8-27.9,16.6-27.9
			c12.8,0-0.7,28,5.4,28c6.1,0,5.6-28,13.9-28c8.2,0,8.2,25.1-2.1,28.5"/>
		<path class="st0" d="M1960.6,1197.8c21,4.8,19.8-32.3,19.8-32.3c-42.8,6.7-86.7,6.4-131.6,0c0,0-1.2,37.1,19.8,32.3
			c1.1-0.3-9.2,17.7,1.5,24.3c-6.5,3.9-9.3,10.9-7.3,16.4c1.7,4.7,6.3,6.7,7.3,7.1c-6.6,1.7-10.7,6.9-10.3,11.1
			c0.5,5.1,7.8,10.5,16.6,8.1v27.4c0,0,17.3,16.8,38.3,14.2c21,2.6,38.3-14.2,38.3-14.2v-27.4c8.8,2.4,16.1-3,16.6-8.1
			c0.4-4.2-3.7-9.4-10.3-11.1c1.1-0.4,5.6-2.4,7.3-7.1c2-5.5-0.8-12.6-7.3-16.4C1969.8,1215.5,1959.5,1197.6,1960.6,1197.8z"/>
	</g>
	<g>
		<g>
			<rect x="2245.3" y="1456.9" class="st5" width="34.9" height="15.4"/>
			<rect x="2335.7" y="1456.9" class="st5" width="34.9" height="15.4"/>
			<rect x="2426" y="1456.9" class="st5" width="34.9" height="15.4"/>
			<rect x="2516.3" y="1456.9" class="st5" width="34.9" height="15.4"/>
			<rect x="2606.7" y="1456.9" class="st5" width="34.9" height="15.4"/>
			<rect x="2697" y="1456.9" class="st5" width="34.9" height="15.4"/>
			<rect x="2787.3" y="1456.9" class="st5" width="34.9" height="15.4"/>
			<rect x="2877.6" y="1456.9" class="st5" width="34.9" height="15.4"/>
		</g>
		<g>
			<rect x="2245.3" y="1456.9" class="Graphic_x0020_Style_x0020_22" width="34.9" height="15.4"/>
			<rect x="2335.7" y="1456.9" class="Graphic_x0020_Style_x0020_22" width="34.9" height="15.4"/>
			<rect x="2426" y="1456.9" class="Graphic_x0020_Style_x0020_22" width="34.9" height="15.4"/>
			<rect x="2516.3" y="1456.9" class="Graphic_x0020_Style_x0020_22" width="34.9" height="15.4"/>
			<rect x="2606.7" y="1456.9" class="Graphic_x0020_Style_x0020_22" width="34.9" height="15.4"/>
			<rect x="2697" y="1456.9" class="Graphic_x0020_Style_x0020_22" width="34.9" height="15.4"/>
			<rect x="2787.3" y="1456.9" class="Graphic_x0020_Style_x0020_22" width="34.9" height="15.4"/>
			<rect x="2877.6" y="1456.9" class="Graphic_x0020_Style_x0020_22" width="34.9" height="15.4"/>
		</g>
		<g>
			<rect x="2245.3" y="1456.9" class="st1" width="34.9" height="15.4"/>
			<rect x="2335.7" y="1456.9" class="st1" width="34.9" height="15.4"/>
			<rect x="2426" y="1456.9" class="st1" width="34.9" height="15.4"/>
			<rect x="2516.3" y="1456.9" class="st1" width="34.9" height="15.4"/>
			<rect x="2606.7" y="1456.9" class="st1" width="34.9" height="15.4"/>
			<rect x="2697" y="1456.9" class="st1" width="34.9" height="15.4"/>
			<rect x="2787.3" y="1456.9" class="st1" width="34.9" height="15.4"/>
			<rect x="2877.6" y="1456.9" class="st1" width="34.9" height="15.4"/>
		</g>
	</g>
	<polyline class="st0" points="2245.3,1251.1 2443.4,1084.8 2551.2,1038.6 2771.9,927.8 2882.8,910.1 	"/>
	<path class="Graphic_x0020_Style_x0020_27" d="M2256.9,1251.1c0-5.2-4.3-9.5-9.5-9.5s-9.5,4.3-9.5,9.5c0,5.2,4.3,9.5,9.5,9.5
		S2256.9,1256.3,2256.9,1251.1z"/>
	<circle class="Graphic_x0020_Style_x0020_27" cx="2443.4" cy="1086" r="9.5"/>
	<circle class="Graphic_x0020_Style_x0020_27" cx="2771.9" cy="927.8" r="9.5"/>
	<circle class="Graphic_x0020_Style_x0020_27" cx="2885.5" cy="908.8" r="9.5"/>
	<path class="Graphic_x0020_Style_x0020_22" d="M2001.3,1510.5h-190c-6.5,0-11.8-5.3-11.8-11.8v-44.2c0-6.5,5.3-11.8,11.8-11.8h190
		c6.5,0,11.8,5.3,11.8,11.8v44.2C2013.1,1505.3,2007.8,1510.5,2001.3,1510.5z"/>
	<polygon class="Graphic_x0020_Style_x0020_27" points="3222.8,821.3 3253.9,899.3 3253.9,1595.2 3222.8,1618.7 	"/>
</g>
</svg>
