<?xml version="1.0" encoding="utf-8"?>
<!-- Generator: Adobe Illustrator 22.0.0, SVG Export Plug-In . SVG Version: 6.00 Build 0)  -->
<svg version="1.1" id="Layer_1" xmlns="http://www.w3.org/2000/svg" xmlns:xlink="http://www.w3.org/1999/xlink" x="0px" y="0px"
	 viewBox="0 0 4000 4000" style="enable-background:new 0 0 4000 4000;" xml:space="preserve">
<style type="text/css">
	.st0{fill:none;stroke:#1A1A1A;stroke-width:3;stroke-linecap:round;stroke-linejoin:round;stroke-miterlimit:10;}
	.st1{fill:#FFFFFF;stroke:#1A1A1A;stroke-width:2;stroke-linecap:round;stroke-linejoin:round;stroke-miterlimit:10;}
	.st2{fill:#D9DBDA;stroke:#1A1A1A;stroke-width:2;stroke-miterlimit:10;}
	.st3{fill:#1A1A1A;stroke:#1A1A1A;stroke-width:2;stroke-linecap:round;stroke-linejoin:round;stroke-miterlimit:10;}
	.st4{fill:#5067EF;stroke:#1A1A1A;stroke-width:2;stroke-linecap:round;stroke-linejoin:round;stroke-miterlimit:10;}
	.st5{fill:#8E9DF4;stroke:#1A1A1A;stroke-width:2;stroke-linecap:round;stroke-linejoin:round;stroke-miterlimit:10;}
</style>
<g>
	<path class="st0" d="M584.8,2565.2c-157,149.6,304.5,615.1,602.4,652.3c220.9,27.6,67.8,63.1,501.6,247.5
		c583.9,301.5,846.8,286.4,978,209.6c176-103,104.9-310.9,330.7-446.1c237.7-142.3,109.4-398.3,284.3-536.2
		c162.6-128.2,522.6-495.6,426-679.9c-144.8-276.4-437.6,281.2-596.6,18.5c-181-299,63.1-564.1-145.8-730.5
		c-22.4-17.8-77.9-56.8-394.7-83.8c-243-20.7-572.6-46.3-1042,35.9c-420.9,73.8-649.2,113.8-732.6,266.5
		c-63.2,115.6,0.5,215.8-103.1,314.4C580.7,1940.1,662.9,2490.8,584.8,2565.2z"/>
	<path class="st1" d="M720.3,1265.4c-7.8-46.7-62.9-418.3,207.2-714.3c17.3-18.9,263.2-280.3,621.6-272.6
		c316.6,6.8,578.1,220.5,632.5,267.2c44.5,38.1,75.5,71.9,141.8,109c175.9,98.6,272.4,37.4,419.8,87.2
		c273.7,92.5,396.5,457.4,433.5,567c50.7,150.6,19.8,166.7,79.1,308.1c86.6,206.5,186.6,253.2,267.2,398
		c137.3,246.9,77.6,526.9,62.7,597c-101,474.1-586.7,701.9-752.4,779.7c-124.5,58.4-641.6,290.7-1234.9,65.4
		c-605.6-229.9-842.2-766.3-906.9-936C459.3,1912.5,671.5,1379.9,720.3,1265.4z"/>
	<path class="st2" d="M3585.5,2612.1c-101,474.1-586.7,701.9-752.4,779.7c-124.5,58.4-641.6,290.7-1234.9,65.4
		c-605.6-229.9-842.3-766.3-906.9-936c-101.7-267-118-519.4-100.1-728.2c161.8,209,425.2,425.8,836.5,473.8
		c840.5,98,1190.6-92.1,1496.3,143c212.7,163.6,508.9-22.4,669.5-203.3C3632.5,2391.1,3596.6,2559.8,3585.5,2612.1z"/>
	<path class="st1" d="M3577.8,2644.8c-115.7,451.9-582.9,671-744.7,747c-124.5,58.4-641.6,290.7-1234.9,65.4
		c-496.5-188.5-745-582.9-854-812.4H3577.8z"/>
	<ellipse class="st2" cx="2809.6" cy="2967.1" rx="105.7" ry="35"/>
	<path class="st2" d="M1611.7,2644.8c0,0-13.4,65.9,169.8,56.6s24.9-60.2,202.7-51.7s262.7-6.7,238.5,23.9
		c-24.2,30.6-76.3,123.9-76.3,123.9s113.9,3.1,186.6-52.4c72.7-55.5,132.1-100.3,132.1-100.3H1611.7z"/>
	<path class="st2" d="M1790.1,2996.9c0,0,44.9-14.3,159.2-10.7c114.3,3.6,126.9,45,148.6,57.7c21.7,12.8,31.1,14,67.6,10.3
		c36.5-3.6,116.5-9.7,120.1,19.4c3.6,29.1-9,54.9,47.6,38.4c56.6-16.6,238.3-135.7,234.7-162.2c-3.6-26.5-113-78.9-160.2-88.6
		c-47.3-9.7-60.6-72.3-176.8-29.9C2114.9,2873.8,1729.6,2980.7,1790.1,2996.9z"/>
	<g>
		<path class="st1" d="M1233.5,3064.9l-227.7-20.9l-0.1-0.1c-184.9-210.3-277.6-426-314.5-522.7c-31.1-81.6-54.2-161.9-70.8-239.9
			l729.9,73.9l124.8,731.8L1233.5,3064.9L1233.5,3064.9z"/>
		<path class="st1" d="M1569,3220.9l-191.3,131.1c-18.5-10.8-36.6-21.9-54.2-33.2c-44.5-28.6-86.1-58.8-125.1-90.2l60.4-50.1
			l-12.5-56l318.4,40.9L1569,3220.9z"/>
		<g>
			<path class="st1" d="M1233.5,3064.9L1233.5,3064.9l-227.7-20.9l-0.1-0.1c-184.9-210.3-277.6-426-314.5-522.7
				c-31.1-81.6-54.2-161.9-70.8-239.9l729.9,73.9l124.8,731.8L1233.5,3064.9z"/>
			<polygon class="st3" points="1350.3,2355.2 1396.4,2350.4 1504.9,3063.6 1475.1,3087.1 			"/>
			<path class="st1" d="M1198.2,3228.5c-20.2-13.8-39.9-29.1-59.4-45.9c-45.8-39.2-89.8-86.1-132.6-138.1
				c40.5,46,85.4,91.7,135,135.8C1159.6,3196.6,1178.5,3212.7,1198.2,3228.5z"/>
			<path class="st3" d="M1258.9,3178.5l-60.4,50.1c-0.1-0.1-0.2-0.1-0.2-0.2c-19.7-15.8-38.7-31.9-57-48.2
				c-49.7-44.1-94.6-89.8-135-135.8c-0.2-0.2-0.3-0.3-0.4-0.5l227.7,20.9v0l12.9,57.6L1258.9,3178.5z"/>
			<path class="st1" d="M1141.2,3180.3c18.4,16.3,37.3,32.4,57,48.2c-20.2-13.8-39.9-29.1-59.4-45.9
				C1139.6,3181.8,1140.4,3181,1141.2,3180.3z"/>
			<path class="st1" d="M1564.8,3163.4l-241.2,155.4c-44.5-28.6-86.1-58.8-125.1-90.2l60.4-50.1l-12.5-56L1564.8,3163.4z"/>
			<path class="st3" d="M1569,3220.9l-191.3,131.1c-18.5-10.8-36.6-21.9-54.2-33.2l241.2-155.4L1569,3220.9z"/>
		</g>
	</g>
	<g>
		<path class="st3" d="M2422.9,3392.2c-2,3-3.7,5.9-5.1,8.7c198.8-26.8,302.3-7.4,355.9,17.6c24.8-10.6,44.8-19.8,59.4-26.7
			c9.3-4.4,19.7-9.2,30.9-14.6c-39.6-12.6-82.8-17.3-122.1-20.8C2632.6,3349.4,2519.3,3338.2,2422.9,3392.2z"/>
		<path class="st4" d="M3013.7,3299.7c-45-21.1-88.7-35.5-130.6-44.5c-237.1-51.1-416.9,70.6-460.3,137
			c96.4-53.9,209.8-42.8,318.9-35.8c39.3,3.6,82.6,8.3,122.1,20.8c29.4-14,64.9-31.4,104.2-52.4
			C2982.8,3316.9,2998,3308.6,3013.7,3299.7z"/>
		<path class="st5" d="M2749.4,3124.4c-44.6-9.7-87.8-1.7-130.6,1.6c70.3,15.3,240.2,57.9,259.3,117c1.4,4.2,3,8.3,5,12.2
			c17.2,35.4,54.6,57.2,85,69.6c14.7-7.9,29.9-16.2,45.6-25.1c10.2-5.8,20.5-11.8,31-18.1c-0.7-0.6-1.4-1.1-2.1-1.7
			C2955.9,3205.9,2861.6,3149.9,2749.4,3124.4z"/>
		<path class="st1" d="M3122.6,3232.4c-20.3-52.4-57.4-87.3-102.8-109.7c-162.1-80-431.2-2.9-431.2-2.9s11.6,2.1,30.2,6.2
			c42.8-3.3,86-11.3,130.6-1.6c112.2,25.5,206.5,81.6,293.2,155.5c0.7,0.6,1.4,1.1,2.1,1.7c12.9-7.7,26-15.6,39.2-24
			C3096.7,3249.5,3109.6,3241.1,3122.6,3232.4z"/>
		<path class="st5" d="M3026.4,2846.7c-4.6,0.9-7.2,1.6-7.2,1.6s20.1,129.1,1.9,237.9c-2,12.3-2.4,24.4-1.4,36.3
			c4.6,54.5,37.4,103.8,64.1,135c12.8-8.1,25.7-16.5,38.8-25.2c21.6-14.5,43.5-30,65.5-46.4
			C3184.5,3053.2,3139.2,2919.7,3026.4,2846.7z"/>
		<path class="st4" d="M3240.8,3099.3c-3-61.7-14.6-141.2-39.7-194.6c-13.1-27.8-34.6-44-58.4-53c-44.8-17-97.4-8.8-116.3-5
			c112.8,73,158.1,206.4,161.7,339.2c17.8-13.3,35.7-27.3,53.4-41.9C3241.8,3131,3241.6,3115.8,3240.8,3099.3z"/>
		<path class="st1" d="M3316.9,3004.7c-1,28.2-2.1,53.6-3.1,74.9c-13.2,12.7-26.6,25-40.1,36.9c-7.2-66.1-18.6-184.3-32.1-371.5
			c-18.4-256.8-125-421.5-167.1-477.2c17.9,12.8,180.6,132.8,229.4,299.3c7.3,24.9,12.1,50.8,13.4,77.6
			C3323.4,2763.1,3320.6,2902.6,3316.9,3004.7z"/>
		<path class="st5" d="M3273.7,3116.6c-2.2,2-4.5,4-6.7,5.9c-3.8,3.3-7.6,6.6-11.4,9.8c-4.3-9.6-9.3-20.7-14.7-32.9c0,0,0,0,0,0
			c-28.2-63.9-68.9-160.1-98.2-247.6c-9.1-27.2-17.1-53.6-23.4-77.9c-30.6-119.8-41.5-353.9-44.9-456.7c-1-31.3-1.4-50.4-1.4-50.4
			s0.6,0.4,1.6,1.1c42.1,55.7,148.6,220.3,167.1,477.2C3255.1,2932.2,3266.5,3050.5,3273.7,3116.6z"/>
		<path class="st5" d="M3429.4,2297.4c-18.1,22.4-88.9,117.2-125.5,269.8c-27.6,115.1-35.7,263,13,437.5c5,18.1,10.7,36.4,17,55.1
			c21.1-21.3,41.7-43.8,61.4-67.3c-0.4-5.3-0.7-10.7-0.8-16C3389.6,2749.5,3382.5,2520.3,3429.4,2297.4z"/>
		<path class="st5" d="M3500.7,2569.7c-18-172.6-67-277.5-67-277.5s-1.5,1.7-4.3,5.1c-46.9,222.9-39.8,452.2-35,679.1
			c0.2,5.3,0.5,10.7,0.8,16c35.6-42.4,68.4-88.4,97-138.3c2.2-3.8,4.3-7.6,6.4-11.4v-0.1C3510.7,2740.1,3508.9,2647.9,3500.7,2569.7
			z"/>
		<path class="st3" d="M3601.5,2521.9C3601.5,2521.9,3601.5,2521.9,3601.5,2521.9c-5.6,41-12.3,72.4-16.1,90.2
			c-18,84.5-48.3,161.2-86.8,230.6v0.1c-2.1,3.8-4.2,7.6-6.4,11.4c-15.1-70.5-10.5-191.8,8.5-284.5c12.2-59.4,30.3-107.1,52.9-122.1
			C3578.1,2469.5,3593,2499.4,3601.5,2521.9z"/>
	</g>
	<g>
		<g>
			<rect x="1659" y="703.8" class="st1" width="496.2" height="218.1"/>
			<rect x="1690.8" y="758.3" class="st2" width="106.6" height="93.3"/>
			<polygon class="st3" points="1578.1,921.9 1578.1,781 1659,703.8 1659,921.9 			"/>
			<rect x="1877.1" y="689.3" class="st1" width="35.4" height="244.9"/>
		</g>
		<g>
			<path class="st1" d="M3012.3,962.8H1435.6v-57.3h1533.1C2984.2,924,2998.7,943.2,3012.3,962.8z"/>
			<polygon class="st1" points="1435.6,905.5 1156.5,1177.5 1156.5,1222.4 1435.6,962.8 			"/>
			<path class="st1" d="M3142.9,1215l-1986.4,7.4l279.1-259.6h1576.8C3072.4,1049,3114.7,1142.6,3142.9,1215"/>
		</g>
		<g>
			<rect x="1669.4" y="1243.6" class="st1" width="496.2" height="218.1"/>
			<rect x="1948.3" y="1250.8" class="st2" width="56.9" height="22.4"/>
			<rect x="2077.3" y="1254.5" class="st1" width="69.1" height="28.5"/>
			<rect x="2098" y="1311.9" class="st2" width="48.4" height="53.4"/>
			<rect x="2098" y="1375.3" class="st1" width="48.4" height="63.4"/>
			<polygon class="st3" points="1588.6,1461.7 1588.6,1320.8 1669.4,1243.6 1669.4,1461.7 			"/>
			<rect x="1887.5" y="1229" class="st1" width="35.4" height="244.9"/>
		</g>
		<g>
			<rect x="2331.2" y="1311.9" class="st1" width="318.3" height="133.2"/>
			<path class="st3" d="M2283.7,1445.2c0,0,1.1-88.1,0-89.9c-1.1-1.8,47.5-43.3,47.5-43.3v133.2H2283.7z"/>
			<rect x="2475.9" y="1305.4" class="st1" width="18.9" height="139.8"/>
		</g>
		<g>
			<path class="st1" d="M3209.7,1444.7h-296.3v-280.1h208.9c26.2,60.8,43.7,113,54.3,144.4C3197.4,1371,3204.4,1410.1,3209.7,1444.7
				z"/>
			<rect x="2956.9" y="1195.7" class="st1" width="100" height="51.5"/>
			<rect x="2956.9" y="1262.7" class="st2" width="100" height="8.2"/>
			<path class="st3" d="M2825.7,1444.6c0,0,2-185.2,0-189c-2-3.8,87.6-91.1,87.6-91.1v280.1H2825.7z"/>
		</g>
		<g>
			<path class="st1" d="M3219,1502.6H1450.1v-57.2h1759.6C3212.7,1464.8,3215,1482.8,3219,1502.6z"/>
			<polygon class="st1" points="1450.1,1445.3 1166,1652.3 1166,1691.3 1450.1,1502.6 			"/>
			<path class="st1" d="M3279.8,1670.2L1166,1691.3l284.1-188.8H3219c6,30.2,15.7,64.5,36.6,114.5
				C3263.5,1636,3271.6,1653.7,3279.8,1670.2z"/>
		</g>
		<g>
			<rect x="2619.1" y="1735.9" class="st1" width="389.5" height="163"/>
			<rect x="2857.2" y="1755.7" class="st2" width="133.3" height="33.3"/>
			<rect x="2954.2" y="1795.7" class="st2" width="36.3" height="36.3"/>
			<rect x="2954.2" y="1846.6" class="st1" width="40" height="35.1"/>
			<path class="st3" d="M2561,1898.9c0,0,1.3-107.8,0-110c-1.3-2.2,58.1-53,58.1-53v163H2561z"/>
			<rect x="2796.2" y="1727.9" class="st1" width="23.2" height="171.1"/>
		</g>
		<g>
			<path class="st1" d="M3441.5,1898.9h-310.4v-163h185.1c41,66.4,83.2,112.2,123.7,161C3440.4,1897.6,3441,1898.3,3441.5,1898.9z"
				/>
			<path class="st3" d="M3073,1898.9c0,0,1.3-107.8,0-110c-1.3-2.2,58.1-53,58.1-53v163H3073z"/>
		</g>
		<polygon class="st3" points="2316,1899.2 2407.5,1831.2 2410.5,1899.2 		"/>
		<polygon class="st1" points="2561,1833.6 2407.5,1831.2 2410.5,1899.2 2561,1898.9 		"/>
		<g>
			<path class="st1" d="M3484.3,1954.2H1482.9v-57.3h1957c0.6,0.7,1.1,1.3,1.7,2C3456.1,1916.5,3470.4,1934.6,3484.3,1954.2z"/>
			<polygon class="st1" points="1482.8,1896.9 1140.1,2031.4 1140.1,2070.5 1482.8,1954.2 			"/>
			<path class="st1" d="M3540.7,2049.7l-2400.6,20.8l342.7-116.3h2001.4c13.2,18.6,26.1,38.6,38.5,60.9
				C3529.1,2026.5,3535.1,2038.1,3540.7,2049.7z"/>
		</g>
		<rect x="1502.7" y="1020" class="st3" width="49.1" height="425.3"/>
		<rect x="1502.7" y="1553.4" class="st3" width="49.1" height="345.8"/>
		<rect x="1502.7" y="2026.1" class="st3" width="49.1" height="616.5"/>
		<rect x="1527.2" y="1020" class="st1" width="49.1" height="425.3"/>
		<rect x="1527.2" y="1553.4" class="st1" width="49.1" height="345.8"/>
		<rect x="1527.2" y="2026.1" class="st1" width="49.1" height="616.5"/>
		<rect x="2612.2" y="1020" class="st3" width="49.1" height="425.3"/>
		<rect x="2612.2" y="1553.4" class="st3" width="49.1" height="345.8"/>
		<rect x="2612.2" y="2026.1" class="st3" width="49.1" height="616.5"/>
		<rect x="2636.8" y="1020" class="st1" width="49.1" height="425.3"/>
		<rect x="2636.8" y="1553.4" class="st1" width="49.1" height="345.8"/>
		<rect x="2636.8" y="2026.1" class="st1" width="49.1" height="616.5"/>
	</g>
	<g>
		<path class="st3" d="M1651.7,2164.1c0,0-51.8-81.8,24.5-187.2c76.3-105.4,98.1-96.3,134.5-246.3c36.3-149.9,65.7-259,197.8-224.5
			c64.9-44.5,148.5-26.4,181.2,84.5c32.7,110.9-10,214.7-64.5,233.2c-54.5,18.5-82.7,118.5-82.7,118.5L1651.7,2164.1z"/>
		<path class="st4" d="M2212.4,1928.7c-67.3-30.9-276.6-33.5-389.8-4.5c-48,12.3-64.3,129-67.4,264.2
			c-4,179.8,15.6,392.1,15.6,434.6c0,8.2,0.7,15.4,1.8,21.8h442.8h12.4c2.4-29.1,8.7-72.6,22.7-136.3
			C2285.1,2352.2,2279.6,1959.6,2212.4,1928.7z"/>
		<path class="st1" d="M2036.7,2019.6c0,0-40,9.7-50.3,46.6c-46-16.4-109.7-161.1-109.7-161.1l74.6-16.4
			C1951.3,1888.8,1992.5,1999.6,2036.7,2019.6z"/>
		<g>
			<path class="st1" d="M2397.2,2815.2c-28.1,3.4-48.5,8.7-48.5,8.7L2108.3,3006l13.3,16.8c0,0,3.9-1.2,10.4-3.1
				c22.4-6.4,64.7-39.2,95-39.2c31.2,0,74.4,59.1,78.2,106.8l0,0c1,12.1,0.1,24.7-3.1,37.2c22.4,0.9,251.1-190.8,251.1-190.8
				c2.9-12.4,4.4-23.6,4.6-33.6l0,0C2559.5,2809.8,2459.5,2807.7,2397.2,2815.2z"/>
			<path class="st3" d="M1816.2,2991.9c0,0,172.1-104.8,293.8,40.6c27.3,6.1,27.3,6.1,27.3,6.1s52.6-69.8,101-48
				c48.5,21.8,69.2,82.2,57.7,129.1l6.1,4.9c0,0,31.7-37.2-5-98.1c-43.1-71.7-107.7-58.8-163.4-18.2c-21.8,1.8-21.8,1.8-21.8,1.8
				s-97.5-125.4-295.6-24.8C1816.2,2991.9,1816.2,2991.9,1816.2,2991.9z"/>
			<path class="st1" d="M2324.8,2778c-78.3-102.5-236,21.3-236,21.3l-272.6,186c108.5-58.4,198.1-33.2,248.3-7.7
				c28,14.2,43.7,28.5,43.7,28.5s55.8-42.3,240.4-182.2C2342.1,2805.1,2334,2790,2324.8,2778z"/>
		</g>
		<path class="st4" d="M1742.9,2409.8c20.6-162.4,93.3-345.3,93.3-345.3l81.2,12.1c0,0-17,593.7-186.6,592.5
			c-169.6-1.2-95.7-586.4-50.9-664c22.4-38.8,91.2-65.8,154.3-83.1"/>
		<path class="st3" d="M1788.1,2206.2c-8.1,27.2-16.1,56.7-23.4,87.2l-21,112.2c0.1-1.1,0.1-2.3,0.2-3.4c0,0,0,0,0-0.1
			c7.8-124.1,39.6-278.9,39.6-278.9c-1.2,19.3-0.3,39.9,1.8,60.2C1786,2191.1,1787,2198.7,1788.1,2206.2z"/>
		<path class="st1" d="M1743.9,2402.1c-0.1,1.1-0.2,2.3-0.2,3.4l-0.8,4.2C1743.2,2407.2,1743.6,2404.7,1743.9,2402.1z"/>
		<path class="st3" d="M1904.9,2074.7c-1.3,16.2-4.1,51.8-8.6,113.2c-6.5,89.5-91.8,557.3-207.3,437.4
			c-82.7-85.7-15.1-346.4-4.2-494.2c7-94.3,52.9-155.9,85.2-188.1c-40.3,16-75.3,36.4-90.1,62c-44.8,77.5-118.7,662.8,50.9,664
			c169.6,1.2,186.6-592.5,186.6-592.5L1904.9,2074.7z"/>
		<path class="st1" d="M2191.1,2741.9c-6.9-3.4-15.9-5.3-25.5-5.7c-35.9,23.8-75.7,42.3-114.9,51.5c-89.9,21.1-98.5,26.6-128.8,59.3
			c-30.3,32.7-53.6,110.3-29.3,93.4c10.2-5.4,38.3-67.3,57.2-69.4c19.3-2.1,2.5,42.3,36.6,40.3c67.7-3.9,124.8-41.2,161.2-70
			c13.1-10.4,45.1-28.8,83.4-51.9C2223.9,2769.2,2209.8,2751.3,2191.1,2741.9z"/>
		<path class="st4" d="M2355.1,2099.6c-29.1-169-180.8-181.8-181.8-183.6l0.1,0.8c15.7,3.3,28.9,7.3,39,12
			c51.2,23.5,66.6,257,55.7,436c1.8,5.5,3.6,11.2,5.5,17.1c38.8,122.4,44.8,174.5,2.1,244.7c-24.1,39.6-63.9,79-110.1,109.6
			c9.6,0.3,18.6,2.2,25.5,5.7c18.7,9.4,32.8,27.2,39.9,47.5c68.2-41,156.4-96.5,193-146.7
			C2481.3,2564.4,2384.1,2268.6,2355.1,2099.6z"/>
		<path class="st3" d="M2348.7,2530.3c-6.4-75.8-77.3-128.2-77.3-366.2c-0.4,30.2-1.6,172.1-3.3,200.7c1.8,5.5,3.6,11.2,5.5,17.1
			c38.8,122.4,44.8,174.5,2.1,244.7c-24.1,39.6-63.9,79-110.1,109.6c9.6,0.3,18.6,2.2,25.5,5.7c0.1,0.1,0.2,0.1,0.3,0.2
			C2243.8,2710.4,2357.1,2629.8,2348.7,2530.3z"/>
		<path class="st3" d="M2089.1,1872.6c10.1-20.3,15.3-42.1,17.9-64.7l-147.2,16c0,0,17,51,6.6,95
			C2009,1936.4,2070.4,1912.2,2089.1,1872.6z"/>
		<path class="st1" d="M2120.9,1806.4l-13.9,1.5c-2.6,22.6-7.8,44.4-17.9,64.7c-18.8,39.6-80.1,63.8-122.8,46.3
			c-1.5,6.5-3.7,12.9-6.6,18.9c42.4,73.9,86.6,93.9,86.6,93.9s84.2-58.2,93.3-115.7C2116.7,1888.8,2120.9,1806.4,2120.9,1806.4z"/>
		<path class="st1" d="M2048.8,1891.8c-94.7,3.9-127.5-88.2-140.6-165.5c18.6-18.8,87.9-10.9,48.5-98.1
			c13.9-20.8,61.2-15.8,55.8-54.5c0,0,4.3,46.6,85.5,51.5c36.6,1.2,54.5,27,55.1,29.3c0,0.1,3.1,36.8,3.1,36.8
			C2166.4,1775.9,2122.7,1888.8,2048.8,1891.8z"/>
		<path class="st1" d="M2134.7,1908.3c6.7,21.8-31.5,85.8-77.9,113.6c47.6,12.1,65.7,40.1,65.7,40.1s75.6-78.4,71.9-145.7
			C2157.9,1891.8,2134.7,1908.3,2134.7,1908.3z"/>
		<path class="st1" d="M1899.8,1681.9l86.7,183.9c2.7,5.6,2.8,12.2,0.4,17.9l-32,77.3c-5.4,7.5-10.9,13.2-17.6,4.7l-71.2-200.2
			l18.8-85C1890.3,1677.4,1895.5,1675.9,1899.8,1681.9z"/>
		<path class="st1" d="M1884.9,1680.5l90,200.4l-35.7,86.3l-85.9-189.1c-1.9-4.1-2-8.8-0.4-13.1L1884.9,1680.5z"/>
		<path class="st4" d="M1879.2,1735.7l-4.8,8.9c-0.7,1.3-0.6,2.9,0.1,4.1l8.6,13.7c1.5,2.4,4.9,2.6,6.7,0.4l5.9-7.2
			c1.1-1.4,1.2-3.3,0.3-4.8l-9.7-15.4C1884.6,1732.8,1880.7,1732.9,1879.2,1735.7z"/>
		<path class="st1" d="M1967,1847c-20-0.5-46.3,3.3-48.2,18.3c-1.8,14.9,8.2,28.6,20.4,70.8c12.3,42.3-29.1,116.8-29.1,116.8
			l-13.8-3.3v0l-40.3-9.8c0,0,21.8-59.3,12.7-126.4c-9.1-67.1-19.3-128.9,10.5-154.3c29.6-25.3,56.9-39.7,72.4-32
			c-0.6,0.5-1.1,0.9-1.7,1.4c-1.7,1.3-3.5,2.5-5.4,3.6c1.9-1.1,3.7-2.3,5.4-3.6c0.6-0.4,1.1-0.9,1.7-1.3c0.1,0.1,0.3,0.1,0.4,0.1
			c14.3,7.6-47.3,23-62,55.5c-1.2,2.6-2.1,5.3-2.6,8.1c20.9-24.1,59.5-42.2,81.3-30.4c0.2,0.1,0.4,0.3,0.5,0.4
			c8,5.7,4.1,9.2-24.6,16.4c-14.3,4-24.9,12.5-31.6,20.9c-2.1,2.7-3.9,5.3-5.2,7.8c24.1-7.9,52.7-18.5,69.4-10.3
			c1.6,0.8,3.1,1.7,4.4,2.8c10.1,12.6-17.3,9.7-34.1,15c-14,5.2-21.4,13.3-24.1,16.6c-0.6,0.8-1,1.3-1,1.5
			c0.9-0.4,20.1-9.1,46.7-3.3c11,2.4,16,6,16.8,9.5C1987.2,1842.5,1979,1847.2,1967,1847z"/>
		<path class="st1" d="M1844.7,2012.3c0,0-15.5,24.8-16.4,39.3c-0.9,14.5,9.3,20,45,28.1c35.7,8.1,47.7,15.3,49.8-6
			c2-21.4,5.7-34.1-5.2-37.9C1906.8,2031.9,1848.7,2005.4,1844.7,2012.3z"/>
	</g>
	<path class="st1" d="M2148.2,2741.1c0,0,66.6-2.8,67.1,42.4c0.2,15.3-13.2,26.7-22.3,26c0,0,43.5-3.8,63.9-35.8
		c9.4-40.5-47.5-73.8-58.4-69.6C2187.6,2708.4,2136.1,2734.5,2148.2,2741.1z"/>
	<circle class="st3" cx="387.8" cy="1630.9" r="111.9"/>
	<circle class="st1" cx="796.4" cy="3384.4" r="197.5"/>
	
		<ellipse transform="matrix(0.9239 -0.3827 0.3827 0.9239 -1110.3492 1528.2373)" class="st3" cx="3286.3" cy="3555.2" rx="58.2" ry="58.2"/>
	<circle class="st1" cx="3542.4" cy="1596.9" r="122.8"/>
	<g>
		<path class="st1" d="M2768.4,2762.2c0.3,48.2,21.6,94.9,52.4,130.1c21.2,24.5,50.9,27,80.1,18.9l19.8-149.1H2768.4z"/>
		<path class="st1" d="M2820.8,2892.4c-30.8-35.2-52.1-81.9-52.4-130.1h-35.6l30.4,216.9c30.4,24.9,87.5,22.4,128.7,0l9-67.9
			C2871.7,2919.4,2842,2916.9,2820.8,2892.4z"/>
		<ellipse class="st1" cx="2826.8" cy="2762.2" rx="94" ry="17.1"/>
		<path class="st1" d="M2909.6,2762.2c0,6.4-37.1,11.6-82.8,11.6c-45.8,0-82.8-5.2-82.8-11.6c0-6.4,37.1-11.6,82.8-11.6
			C2872.5,2750.7,2909.6,2755.8,2909.6,2762.2z"/>
		<polygon class="st1" points="2900.2,2609.7 2908.6,2572.5 2895.8,2572.2 2888.3,2608.3 2877.9,2607 2857.8,2771.6 2882.2,2769.7 
			2910.5,2610.9 		"/>
		<path class="st1" d="M2831.6,2505l0.3-25l-13.2-2.6c0,0,0.3,13.3,0.5,26.9l-9.6-0.5l5.6,269.3h25.7l2.9-267.6L2831.6,2505z"/>
		<path class="st1" d="M2769.6,2617.1l-9,3.4l-10.9-46.8l-8.7,4.5l9.6,46.1l-11.4,4.3c0,0,30.4,137.4,30.4,140.4l26.5,3.9
			L2769.6,2617.1z"/>
		<path class="st3" d="M2959.3,2650.3c0,0-7.3-6.8-7.9-6.8c-0.4,0-5.1,11.7-9.3,21.9l-6.4-4.6l-38.1,107l17.8-2.5l40-90.4l-6.4-4.6
			L2959.3,2650.3z"/>
		<path class="st3" d="M2822.9,2519.2c-0.5,2.5,0.3,28.9,0.3,28.9s21.5-5.5,22.8-1c1.3,4.5-0.6,68.4-0.6,68.4h4.8l1.3-100.2
			C2851.5,2515.3,2824.2,2513.1,2822.9,2519.2z"/>
		<path class="st3" d="M2893.5,2622.2l-3.2,11.6c0,0,17.7-1.3,14.8,21.5c-3.9,30.6-12.8,70-12.8,70s4.2,3.2,4.2,1.3
			s19.6-97.9,19.6-97.9S2900.9,2619,2893.5,2622.2z"/>
	</g>
	<g>
		<path class="st1" d="M634.1,1801.7c-17,9.1-32.2,18.8-45.8,28.4c3.7-57.1,10-111.1,18-161.7c15.4-4.7,34.3-13,54.4-25.2
			c-0.4,22.2-3.3,58.4-14,107.4C642.9,1768,638.6,1785.2,634.1,1801.7z"/>
		<path class="st5" d="M796.4,1402c-73,28.5-120.2,57.5-151.1,82.4c-6.9,25.6-13.6,53.1-19.9,82.1c26.4-13,51.4-29.1,74.2-50.8
			C736.4,1478.9,760.4,1434.8,796.4,1402z"/>
		<path class="st5" d="M699.7,1515.7c-22.8,21.7-47.8,37.8-74.2,50.8c-2.9,13.3-5.7,26.8-8.4,40.8c-3.8,19.8-7.4,40.2-10.8,61.2
			c15.4-4.7,34.3-13,54.4-25.2c64.2-38.9,140.2-117.2,149.2-246.4c-4.6,1.7-9.1,3.4-13.5,5.2
			C760.4,1434.8,736.4,1478.9,699.7,1515.7z"/>
		<path class="st5" d="M780.5,2011.8c-26.8-9.5-54.3-11.1-80.4-8c-43.5,5.1-83.7,23.1-112.1,39.1c1.1,18.5,2.6,37.1,4.4,56
			c2.6,27,5.9,54.4,10,82.1C672.1,2138.8,731.6,2078.9,780.5,2011.8z"/>
		<path class="st3" d="M780.5,2011.8c-48.9,67.1-108.4,127-178.1,169.1c8.4,57.2,20.2,115.8,35.9,175.5
			c74.3-89.6,164.9-283.8,143.8-344C781.6,2012.1,781,2012,780.5,2011.8z"/>
		<path class="st3" d="M625.7,1954.2c-13.8,7.4-27.3,13.1-40.6,18.6c0.4,23,1.4,46.4,2.8,70.1c28.4-16,68.5-34,112.1-39.1
			c62.6-66.6,118.4-153,119.5-250C767.2,1831.1,710.6,1904.6,625.7,1954.2z"/>
		<path class="st4" d="M819.6,1753.7c0-1,0.1-2.1,0.1-3.1c-75.4,3.5-137.3,25.1-185.5,51c-17,9.1-32.2,18.8-45.8,28.4
			c-1.8,28-2.9,56.7-3.3,86c-0.3,18.6-0.2,37.5,0.2,56.6c13.3-5.5,26.8-11.2,40.6-18.6C710.6,1904.6,767.2,1831.1,819.6,1753.7z"/>
		<path class="st3" d="M660.7,1643.2c-0.4,22.2-3.3,58.4-14,107.4c-3.8,17.3-8.1,34.6-12.6,51c-17,9.1-32.2,18.8-45.8,28.4
			c3.7-57.1,10-111.1,18-161.7C621.7,1663.7,640.6,1655.4,660.7,1643.2z"/>
	</g>
</g>
</svg>
