<?xml version="1.0" encoding="utf-8"?>
<!-- Generator: Adobe Illustrator 22.0.0, SVG Export Plug-In . SVG Version: 6.00 Build 0)  -->
<svg version="1.1" id="Layer_1" xmlns="http://www.w3.org/2000/svg" xmlns:xlink="http://www.w3.org/1999/xlink" x="0px" y="0px"
	 viewBox="0 0 4000 4000" style="enable-background:new 0 0 4000 4000;" xml:space="preserve">
<style type="text/css">
	.Graphic_x0020_Style_x0020_218{fill:#102140;}
	.Graphic_x0020_Style_x0020_88{fill:#D1334A;}
	.Graphic_x0020_Style_x0020_86{fill:#572658;}
	
		.Graphic_x0020_Style_x0020_209{fill:none;stroke:#1A1A1A;stroke-width:2;stroke-linecap:round;stroke-linejoin:round;stroke-miterlimit:10;}
	.Graphic_x0020_Style_x0020_83{fill:#3B546B;}
	.Graphic_x0020_Style_x0020_99{fill:#B080B0;}
	.Graphic_x0020_Style_x0020_219{fill:#DB6767;}
	.Graphic_x0020_Style_x0020_89{fill:#EB485C;}
	.Graphic_x0020_Style_x0020_80{fill:#FFB114;}
	.Graphic_x0020_Style_x0020_216{fill:#1A1A1A;}
	.Graphic_x0020_Style_x0020_42{fill:#FFCF4A;}
	
		.Graphic_x0020_Style_x0020_95{fill:none;stroke:#10663F;stroke-width:2;stroke-linecap:round;stroke-linejoin:round;stroke-miterlimit:10;}
	.Graphic_x0020_Style_x0020_212{fill:#FFFFFF;}
	.Graphic_x0020_Style_x0020_210{fill:#CCC4CC;}
	
		.Graphic_x0020_Style_x0020_36{fill:none;stroke:#FFFFFF;stroke-width:2;stroke-linecap:round;stroke-linejoin:round;stroke-miterlimit:10;}
	.Graphic_x0020_Style_x0020_225{fill:#912433;}
	.Graphic_x0020_Style_x0020_90{fill:#102140;}
	.Graphic_x0020_Style_x0020_213{fill:#FFB114;}
	.Graphic_x0020_Style_x0020_221{fill:#D1334A;}
	.st0{fill:url(#SVGID_1_);}
	.st1{fill:url(#SVGID_2_);}
	.st2{fill:url(#SVGID_3_);}
	.st3{fill:url(#SVGID_4_);}
	.st4{fill:url(#SVGID_5_);}
	.st5{fill:url(#SVGID_6_);}
	.st6{fill:#152A52;}
	.st7{fill:#DBD2DB;}
	.st8{fill:#102140;}
	.st9{fill:#FFB114;}
	.st10{fill:#FFCF4A;}
	.st11{fill:#FFDE70;}
	.st12{fill:#FC9590;}
	.st13{fill:#EF5668;}
	.st14{fill:#912433;}
	.st15{fill:#DB6767;}
	.st16{fill:#5E445E;}
	.st17{fill:#00593B;}
	.st18{fill:#339E7E;}
	.st19{fill:#127755;}
</style>
<g>
	<linearGradient id="SVGID_1_" gradientUnits="userSpaceOnUse" x1="179.1377" y1="2012.9727" x2="3717.0574" y2="2012.9727">
		<stop  offset="0" style="stop-color:#68B2FC"/>
		<stop  offset="1" style="stop-color:#EBF0F7"/>
	</linearGradient>
	<path class="st0" d="M1562.6,937.8c-224.5,6.4-288.5,249.6-549.9,475c-389.9,336.1-717.7,200.6-812.4,443.7
		c-82.1,210.7,88.3,507.7,287.5,649.9c191.7,136.9,309.4,58.6,624.9,156.2c472.1,146.1,433.8,391,768.7,450
		c366.5,64.5,442.9-223.4,1093.6-312.5c377-51.6,481.5,27.2,599.9-87.5c155.6-150.7,39.4-348.8,93.7-993.6
		c32-379.1,84.1-452.2,12.5-568.7c-139.4-226.9-561.6-315.3-868.7-187.5c-343.8,143.1-328.2,467.6-662.4,543.7
		c-224.3,51.1-479.9-38.3-506.2-150c-26.1-110.7,180.7-212.8,143.7-318.7C1763.7,969.4,1650.8,935.3,1562.6,937.8z"/>
	<linearGradient id="SVGID_2_" gradientUnits="userSpaceOnUse" x1="501.0022" y1="1994.4183" x2="3833.2361" y2="1994.4183">
		<stop  offset="0" style="stop-color:#68B2FC"/>
		<stop  offset="1" style="stop-color:#529BF7"/>
	</linearGradient>
	<path class="st1" d="M1200.1,1037c-334.8,32.9-649.7,396.7-693.7,762.4c-36.7,304.6,120.7,560.7,206.2,699.9
		c49.9,81.2,120.1,195.5,237.5,287.5c230.5,180.6,486.5,152.6,918.7,143.7c1012.4-20.7,1118.5,102.5,1431.1-68.7
		c108.7-59.5,367.2-206.1,481.2-512.4c161.5-434-102.1-826.1-118.7-849.9c-205.2-294.7-550-421.3-831.2-412.5
		c-378.6,12-427.9,262.8-781.2,262.5C1635.3,1349,1545.7,1003,1200.1,1037z"/>
	<linearGradient id="SVGID_3_" gradientUnits="userSpaceOnUse" x1="1556.457" y1="3092.813" x2="1775.4564" y2="3092.813">
		<stop  offset="0" style="stop-color:#68B2FC"/>
		<stop  offset="1" style="stop-color:#529BF7"/>
	</linearGradient>
	<circle class="st2" cx="1666" cy="3092.8" r="109.5"/>
	<linearGradient id="SVGID_4_" gradientUnits="userSpaceOnUse" x1="2196.7324" y1="3153.3457" x2="2317.7974" y2="3153.3457">
		<stop  offset="0" style="stop-color:#4085F0"/>
		<stop  offset="1" style="stop-color:#275DC9"/>
	</linearGradient>
	<circle class="st3" cx="2257.3" cy="3153.3" r="60.5"/>
	<linearGradient id="SVGID_5_" gradientUnits="userSpaceOnUse" x1="501.0022" y1="2746.885" x2="579.5923" y2="2746.885">
		<stop  offset="0" style="stop-color:#4085F0"/>
		<stop  offset="1" style="stop-color:#275DC9"/>
	</linearGradient>
	<circle class="st4" cx="540.3" cy="2746.9" r="39.3"/>
	<linearGradient id="SVGID_6_" gradientUnits="userSpaceOnUse" x1="3758.0889" y1="1555.5414" x2="3908.3838" y2="1555.5414">
		<stop  offset="0" style="stop-color:#4085F0"/>
		<stop  offset="1" style="stop-color:#275DC9"/>
	</linearGradient>
	<circle class="st5" cx="3833.2" cy="1555.5" r="75.1"/>
	<g>
		<path class="Graphic_x0020_Style_x0020_218" d="M2758.3,2249.8c-11,8.8-21.9,15.3-32.9,17.5c-61.4,13.1-124.9-17.5-175.3,15.3
			c-35.1,24.1-48.2,76.7-92,89.9c-12.8,3.9-26.8,4.3-40.1,1c-0.6,9.6-1,19.2-1.3,28.8c-5.1,152.4,0,230.3,0,230.3
			s321,60.5,474.4,60.5c87.4-46,45.4-409.5,26.8-542c-27.3,8.7-54.2,20.4-78.5,28.5C2806.5,2192.9,2784.6,2223.5,2758.3,2249.8z"/>
		<path class="st6" d="M2457.7,2100.1c0,0-31.5,131.5-39.7,273.5c13.2,3.3,27.3,2.9,40.1-1c43.8-13.1,57-65.7,92-89.9
			c50.4-32.9,114-2.2,175.3-15.3c11-2.2,21.9-8.8,32.9-17.5c26.3-26.3,48.2-57,81.1-70.1c24.3-8.1,51.2-19.9,78.5-28.5
			c-4.2-30-7.2-48.2-7.2-48.2L2457.7,2100.1z"/>
		<path class="Graphic_x0020_Style_x0020_225" d="M1412.6,2366c-7.3-42.1-3.9-84.2-2.6-126.4c-51.1-3.2-85.3-5.1-85.3-5.1
			s-23.3,237.9-30.2,379c451.7,107.8,583.7,49.9,583.7,49.9s-3.1-58-6.6-129.6c-111.3-45.1-242.5-10-360.3-40.8
			C1456.5,2480,1423.6,2418.6,1412.6,2366z"/>
		<path class="Graphic_x0020_Style_x0020_221" d="M1862.4,2284.1c-41.4-17-311.4-35.7-452.4-44.5c-1.3,42.1-4.7,84.2,2.6,126.4
			c11,52.6,43.8,114,98.6,127.1c117.7,30.8,249-4.3,360.3,40.8C1867,2440.9,1861.9,2325.1,1862.4,2284.1z"/>
		<path class="Graphic_x0020_Style_x0020_83" d="M2468.9,2677.7l-208.5,251.6c-17.1-0.3-34.7-0.5-52.6-0.7l256.3-309.3
			L2468.9,2677.7z"/>
		<path class="st7" d="M2468.9,2613.6l-4.7,5.7l-256.3,309.3c-100.3-1-212.6-0.7-339,1.9c-432.1,8.8-688.2,36.9-918.7-143.7
			c-58.4-45.8-105.2-97.2-143.6-147.2l-19.3-26h37H2468.9z"/>
		<path class="Graphic_x0020_Style_x0020_210" d="M1646.7,2663.8c-7.8,67.2,190.6,68.6,296.8,97.6c106.2,29,256.6,13.3,271.3-49.2
			c14.6-62.5-30.7-76.7-30.7-76.7l-39.1-21.9C2145.1,2613.6,1654.5,2596.6,1646.7,2663.8z"/>
		<path class="st8" d="M1836.6,1083.1c0,0,110.9,36.6,121.4,165.4c10.5,128.8,50.3,282.8,6.8,344.7c-43.5,61.9-114.5,44-121.1,41.8
			c-6.6-2.2-19.9-64.1-19.9-64.1s39.8-25.1,33.9-37.6c-60.4,11.8-84,5.2-95.1,0c-11.1-5.2-14-83.3-14-83.3l71-367H1836.6z"/>
		<path class="st9" d="M1824.8,1514.2c0,0,26.5-10.7,57.2,44.9c30.7,55.5,20.3,361.2-8.2,420c-51.2,109.5-9.7,160.8-96.9,190.7
			c-88.6-45.1-61.1-177.6-71.6-232.3C1695,1882.7,1824.8,1514.2,1824.8,1514.2z"/>
		<path class="st10" d="M1824.7,1872.9c-76.7,39.4-175.3,65.7-245.5,15.3c-52.6-37.3-98.6-81.1-151.2-118.3
			c39.4,65.7,48.2,140.3,57,217c6.6,48.2,50.4,83.3,100.8,94.2c30.7,6.6,65.7,2.2,87.7,24.1c19.7,17.5,17.5,54.8,41.6,67.9
			c41.8,20.3,90.9,22.2,136.3,8.4c-13.9-64-29-144-24-213.4c24.7-39.1,56.8-84.5,55.4-157.6
			C1868.9,1836.4,1849.8,1859.6,1824.7,1872.9z"/>
		<path class="st11" d="M1559.5,1697.6c2.2,2.2,6.6,19.7,0,28.5c-24.3,31.7-44.5,65.4-58.8,100.6c25.6,21.1,51.2,42.2,78.5,61.6
			c70.1,50.4,168.8,24.1,245.5-15.3c25.1-13.3,44.2-36.5,58.1-62.4c-0.5-25.9-5.2-55.4-16-89.2c-0.6-1.7-1.2-3.5-1.8-5.2l12.1-165.6
			c-8.4-23.9-16.4-25.5-52.3-51.6c-36-26.1-195.5-33-195.5-33s-35.6-6.4-76.4,19.6c-52.9,33.8-117.2,108.2-151.2,177
			c-2.6,5.3-5.3,11.3-7.8,17.9C1448.6,1672.6,1505.6,1682.7,1559.5,1697.6z"/>
		<path class="st10" d="M1680,2263c-37.3-30.7-89.9-39.4-131.5-72.3c-63.6-54.8-57-140.3-67.9-214.8c-2.2-15.4-3.1-30.6-2.6-45.7
			c-8-56.5-20.3-110.9-50-160.3c25.3,17.9,49,37.3,72.7,56.8c14.3-35.2,34.5-68.9,58.8-100.6c6.6-8.8,2.2-26.3,0-28.5
			c-53.9-14.9-110.9-25-165.7-17.1c-56.4,143.6-98,569.2-60.1,601.1c24.3,20.3,208,40.2,354.1,41.2
			C1698.7,2302.7,1699,2279.6,1680,2263z"/>
		<path class="st10" d="M1715.1,2173.1c-24.1-13.1-21.9-50.4-41.6-67.9c-21.9-21.9-57-17.5-87.7-24.1c-50.4-11-94.2-46-100.8-94.2
			c-2.2-19-4.4-37.9-7-56.6c-0.4,15.1,0.4,30.3,2.6,45.7c11,74.5,4.4,160,67.9,214.8c41.6,32.9,94.2,41.6,131.5,72.3
			c19,16.6,18.7,39.7,7.8,59.8c93,0.6,170.8-6.4,182.3-25.8c6.1-10.4-5.8-56-18.7-115.4C1805.9,2195.3,1756.9,2193.4,1715.1,2173.1z
			"/>
		<path class="st12" d="M1401.7,2501.9c24.1,13.1,57,35.1,85.5,13.1c2-2,4.6-3.2,7.4-3.8c-12.6-36.5-36.1-104.7-42.1-118.6
			c-7.7-17.9-47.8-41-53.8-46.1l-38.2,24.4c12.8,34.2,17.4,71.2,25.9,106.9C1390.7,2486.5,1392.9,2497.5,1401.7,2501.9z"/>
		<path class="Graphic_x0020_Style_x0020_219" d="M1494.5,2511.2c-2.8,0.6-5.3,1.8-7.4,3.8c-28.5,21.9-61.4,0-85.5-13.1
			c-8.8-4.4-11-15.3-15.3-24.1c-8.5-35.7-13.1-72.6-25.9-106.9l-9.6,6.2c0,0,9.4,49.7,12.8,73.1c3.4,23.4,41.8,85.9,60.6,98.7
			c18.8,12.8,82.8-1.7,77.7-16.2C1500.8,2529.4,1498.1,2521.6,1494.5,2511.2z"/>
		<path class="Graphic_x0020_Style_x0020_213" d="M1502.2,1729c0,0-153.6,192.9-104.3,424.2c36.8,154.9,36.8,154.9,36.8,154.9
			s-74,2.1-83.3-52.1c-9.4-54.2-82.3-308.3-7.3-405.2C1419.1,1754,1502.2,1729,1502.2,1729z"/>
		<path class="st9" d="M1393.8,2245.8c0,0,459.1,96.9,461.5-44.5c22.7,62.5,44.6,105.1-25,116.6c-69.6,11.5-375,20.4-410.9-9.9
			C1382.6,2269.3,1393.8,2245.8,1393.8,2245.8z"/>
		<path class="st11" d="M1565.2,1485.6l-10,222.5c0,0-115.4,57.6-183.6,208.3c-71.1,157,44.1,425,44.1,425
			c1.5,25.2-11.9,42.1-31.6,55.4c-10.2,6.9-22.1,12.8-34.6,18.4c0,0-158.1-186.7-132.4-464.8c19.2-207.4,96.8-322.5,173.8-386.2
			C1478.4,1491.8,1565.2,1485.6,1565.2,1485.6z"/>
		<path class="st10" d="M1244.1,2031.9c29.3,158.7,116,312.8,140,364.9c-10.2,6.9-22.1,12.8-34.6,18.4c0,0-158.1-186.7-132.4-464.8
			c19.2-207.4,96.8-322.5,173.8-386.2C1330.1,1671.6,1218.1,1891.2,1244.1,2031.9z"/>
		<path class="st13" d="M2346.3,1594.6c2.2-13.1-2.2-26.3-8.8-39.4c-8.9-17.5-17.2-35.7-24.4-54.4c-23.5,112.8-71.1,239-80.9,269.9
			c-13.4,42.5-20.7,64.1-0.2,83.1c20.5,19,123.4,40.2,147.1,18.8c4.4-4,9-7.9,13.6-11.8c-0.7-2.5-1.6-5-2.6-7.5
			C2359.4,1769.9,2346.3,1682.2,2346.3,1594.6z"/>
		<path class="Graphic_x0020_Style_x0020_89" d="M2401.7,1213.7c0,0-79.8,51.5-75.5,171.9c1.2,32.7-4.3,73-13,115.1
			c7.2,18.7,15.5,36.9,24.4,54.4c6.6,13.1,11,26.3,8.8,39.4c0,87.7,13.1,175.3,43.8,258.6c1,2.5,1.8,5,2.6,7.5
			c19.9-17,39.3-33.9,42.8-58.2C2439.7,1772.5,2470,1238.5,2401.7,1213.7z"/>
		<path class="Graphic_x0020_Style_x0020_225" d="M2357.2,1465.9c0,0,11.2,246.3,27.1,306.1l21.8,39.3l10.6-6l-19.3-291.9
			L2357.2,1465.9z"/>
		<path class="Graphic_x0020_Style_x0020_212" d="M2235.4,1861.8c0,0,2-53.6,42.7-70.3s102.4,58.2,102.2,85.1
			c35.1-29.5,35.1-29.5,35.1-29.5s-13.5-104.5-88.4-100.9c-74.9,3.6-110.8,52.9-110.8,52.9s-5.7,17.5-2.2,33
			C2216.7,1844.6,2227.6,1854.9,2235.4,1861.8z"/>
		<path class="Graphic_x0020_Style_x0020_88" d="M2455.9,2118.3c-1.1-0.3-2.1-0.6-3.2-0.9c4.8,3.7,10.2,7.4,16.4,11.2
			c80,50,271,35.5,413.9,11.1c0,0,9.5-28.9,23.7-75.4c-64.1,33.4-130.2,61-203.1,73.7C2618,2153.4,2539.1,2140.3,2455.9,2118.3z"/>
		<path class="Graphic_x0020_Style_x0020_89" d="M3026.5,1465.9c-1.8-32-11.5-61.7-26.5-88.9c-20.7-15.3-40.7-32-64.1-47.6
			c-46-30.7-96.4-41.6-142.5-19.7c-19.7,8.8-15.3,35.1-13.1,54.8c4.4,127.1,48.2,254.2-2.2,379.1c-21.9,50.4-43.8,96.4-81.1,135.9
			c-35.1,41.6-83.3,70.1-131.5,83.3c-45.7,14.1-101.4,12.6-148.7-7.8c11.4,84.4-21.8,118.4,36,162.5c1,0.3,2.1,0.7,3.2,0.9
			c83.3,21.9,162.2,35.1,247.7,19.7c72.9-12.7,139-40.3,203.1-73.7C2949.6,1923.2,3035.1,1619.2,3026.5,1465.9z"/>
		<path class="st14" d="M2834.8,1486.5l15.6,226.5h19.2C2869.7,1713.1,2850.2,1502.6,2834.8,1486.5z"/>
		<path class="st13" d="M2671.6,1144.4c0,0-230.6,28.2-257.5,52.5c-26.9,24.3-62.8,143.5-57.6,256.2c3.3,73.4,37.1,331.1,60.3,501.8
			c47.4,20.4,103,21.9,148.7,7.8c48.2-13.1,96.4-41.6,131.5-83.3c37.3-39.4,59.2-85.5,81.1-135.9c50.4-124.9,6.6-252,2.2-379.1
			c-2.2-19.7-6.6-46,13.1-54.8c46-21.9,96.4-11,142.5,19.7c23.4,15.6,43.4,32.4,64.1,47.6C2919.2,1230.8,2683.5,1153,2671.6,1144.4z
			"/>
		<path class="Graphic_x0020_Style_x0020_212" d="M2560.8,1246.2c2.2,4-11,42.9,15.6,93.2c-15.6,25.3-25.3,43.2-25.3,43.2
			s-49.4-73.7-35.8-124.3C2538.5,1228.9,2560.8,1246.2,2560.8,1246.2z"/>
		<path class="st13" d="M2992.8,1399.5c-1-22.7-6.9-42.9-14-62.8c-15.4-16.5-27-23.5-27-23.5s-89.2-91.4-168.3-24.7
			c-79.2,66.8,44.4,191.1,44.4,191.1l14.1,46.5c0,0,55.4,260.1,17.2,342.1c85.2,176.8,0.1,265.2,0.1,265.2s49.7,2.3,91.4,8.1
			c17.8-74.7,39.1-148.1,42.1-224.8C2999.4,1743.6,2997.2,1572.6,2992.8,1399.5z"/>
		<path class="Graphic_x0020_Style_x0020_88" d="M3048.2,1478.7c-15.7-73.2-46.8-117.9-69.4-142.1c7.1,19.9,13,40.1,14,62.8
			c4.4,173.1,6.6,344.1,0,517.2c-3.1,76.6-24.3,150.1-42.1,224.8c20.6,2.9,39.3,6.5,49,11.2c29.2,14.1,21.7-66.2,39.6-343.2
			C3046.4,1698.8,3065.9,1560.7,3048.2,1478.7z"/>
		<path class="st12" d="M2675,1169.4c-24.1-28.5-30.7-67.9-39.4-103c-8.8,26.3-4.4,67.9-30.7,70.1c-15.3,0-19.7-41.6-30.7-39.4
			c-46,6.6-67.9-50.4-94.2-50.4c-35.4,0-77.8,35.2-120.9,31.4c23.6,69.5,83.8,225.2,142.2,204.2c39.6-14.2,60.9-30.2,71.8-40.9
			l10-12.4c0,0-2.5,4.9-10,12.4l-17.7,21.9c0,0,5.1,53.3,23.4,79.6c34.5-10.2,93.5-112.4,118.4-158.1
			C2689.1,1182.4,2681.6,1177.4,2675,1169.4z"/>
		<path class="st12" d="M2583.1,1229l-10,12.4C2580.6,1234,2583.1,1229,2583.1,1229z"/>
		<path class="Graphic_x0020_Style_x0020_219" d="M2646.6,985.1c-78.9-113.9-297.9,60.6-297.9,60.6s3.8,12.8,10.4,32.4
			c43.1,3.7,85.5-31.4,120.9-31.4c26.3,0,48.2,57,94.2,50.4c11-2.2,15.3,39.4,30.7,39.4c26.3-2.2,21.9-43.8,30.7-70.1
			c8.8,35.1,15.3,74.5,39.4,103c6.6,8,14.1,13,22,15.5c7.3-13.3,11.6-21.9,11.6-21.9S2671.4,1058.9,2646.6,985.1z"/>
		<path class="st12" d="M2377,2607.1c57,6.6,109.6,19.7,166.6,11c123.5-20.3,245.5-29.7,364.6-58.3c19.8-65.3-78.1-62.5-78.1-62.5
			s-263,84.8-383.5,68.8c-71.7-33.9-94.4-44.4-134.3-29.9c-39.9,14.5-64.7,26.5-77.5,44.4c-14.9,18.6,8.8,10.5,8.8,10.5l70.2-15.6
			c16.3-0.4,19.4-0.5,12.4,10.9l-53.2,11.7c-16.8,9-17.5,17.3-7.2,25.2C2302.1,2610.6,2338.7,2601.3,2377,2607.1z"/>
		<path class="Graphic_x0020_Style_x0020_219" d="M2543.5,2618c-57,8.8-109.6-4.4-166.6-11c-38.3-5.7-74.9,3.6-111.2,16.2
			c1,0.8,2.1,1.6,3.4,2.4c0,0,77.9-15.2,107.4-1.5c29.5,13.7,92.9,13.7,194.2,6.6c101.3-7,311.4,1.9,336.2-67.3
			c0.5-1.3,0.9-2.5,1.2-3.8C2789,2588.3,2667,2597.8,2543.5,2618z"/>
		<path class="st6" d="M2760.5,2922.7c157.8-19.7,313.4-13.1,466.8-57c26.1-8.1,44.9-27.2,61.8-49c-5.3-18.8-13-33.7-23.6-42.3
			c-56.2-46-410.9,30.5-410.9,30.5l-312.3,133l0,0c67.9,3,127.9,6.2,181.7,9C2733.4,2934.1,2745,2924.9,2760.5,2922.7z"/>
		<path class="Graphic_x0020_Style_x0020_218" d="M3227.3,2865.7c-153.4,43.8-309,37.3-466.8,57c-15.5,2.2-27.1,11.4-36.4,24.3
			c274.8,14.3,388.1,17,573.1-83.6c-1.5-17-4.1-32.8-8-46.6C3272.2,2838.5,3253.4,2857.5,3227.3,2865.7z"/>
		<path class="st11" d="M2964.3,2192.9c-2.2,8.8-8.8,17.5-11,26.3c-13.1,32.9-19.7,72.3,2.2,96.4c0.9,0.9,1.9,1.8,2.9,2.6
			c44.2-74.4,58.9-154.8,69.4-239.3c0.9-5.4,2.2-10.2,3.9-14.4C2985.8,2087.1,2981,2146.9,2964.3,2192.9z"/>
		<path class="Graphic_x0020_Style_x0020_80" d="M3100.1,2033.1c-3.8-6.4-7.6-12.8-11.5-19.1c-47.2,18.6-123.2,69.2-126.2,68.2
			c0,0-42.3,29.5-127.8,147.3c-31,42.6-48.6,109.6-58.3,178.1c68.2,7.7,135.6-18.8,177.1-81c1.7-2.8,3.4-5.5,5.1-8.3
			c-1-0.8-2-1.7-2.9-2.6c-21.9-24.1-15.3-63.6-2.2-96.4c2.2-8.8,8.8-17.5,11-26.3c16.7-45.9,21.5-105.8,67.4-128.4
			C3043,2035.5,3070.8,2030.4,3100.1,2033.1z"/>
		<path class="Graphic_x0020_Style_x0020_42" d="M3065.1,2067.9c52.6,52.6,52.6,131.5,74.5,201.6c6.7,20,25.5,24.6,43.6,21.2
			c-1.2-20.1-3.2-40.4-6.4-60.6c-10.8-73.1-40.9-136.2-76.8-197c-28.8-2.7-56.2,2.3-67.8,30.1
			C3044.5,2059.6,3058.7,2061.5,3065.1,2067.9z"/>
		<path class="st11" d="M3183.3,2290.7c-18.2,3.4-37-1.2-43.6-21.2c-21.9-70.1-21.9-149-74.5-201.6c-6.5-6.5-20.6-8.4-32.9-4.8
			c-1.9,4.6-3.4,9.8-4.4,15.7c-11,87.7-26.3,170.9-74.5,247.7c-41.5,62.2-108.9,88.7-177.1,81c-17.2,120.8-9.7,246.2-7.3,251.1
			c0.7,1.4,1.6,9.8,3.5,22.5c27.8,41.1,69,73.3,115.1,88.1c61.4,19.7,131.5,28.5,192.9-2.2c26.3-13.1,54.8-21.9,81.1-37.3
			c48.2-26.3,61.4-78.9,46-124.9C3176.3,2501.7,3189.8,2397,3183.3,2290.7z"/>
		<path class="Graphic_x0020_Style_x0020_42" d="M3207.1,2428c16.7-144.8-58.9-411.2-87.1-420.2c-6.4-2-17.7,0.7-31.4,6.1
			c40.8,66.8,76.3,135.3,88.3,216.1c19.7,127.1-6.6,252,30.7,374.8c15.3,46,2.2,98.6-46,124.9c-26.3,15.3-54.8,24.1-81.1,37.3
			c-61.4,30.7-131.5,21.9-192.9,2.2c-46.1-14.8-87.3-47-115.1-88.1c8.5,55.3,37.9,191.9,169.2,187.8
			c161.4-5.1,330.8-24.6,341.1-79.7C3293,2734.1,3190.4,2572.8,3207.1,2428z"/>
		<path class="st12" d="M2138.1,2344.1c17.5,13.1,11,54.8,32.9,54.8c63.6,0,129.3-39.4,188.5-6.6c82.7,44.8,172.3,62.5,261.1,77.6
			l28.4-61.1l-333.9-86.3c0,0-127.2-34.1-190.4-4.6c-63.2,29.4-88.8,64.4-88.8,64.4s3.2,5.9,12.3,6.4c12.2-9.3,22.5-19.9,35.2-29.3
			C2100.8,2350.7,2122.7,2335.3,2138.1,2344.1z"/>
		<path class="st15" d="M2359.4,2392.3c-59.2-32.9-124.9,6.6-188.5,6.6c-21.9,0-15.3-41.6-32.9-54.8c-15.3-8.8-37.3,6.6-54.8,15.3
			c-12.6,9.5-23,20.1-35.2,29.3c3.3,0.2,7.4-0.3,12.4-2.2c18.8-6.8,64.1-44.4,71.8-35.9c7.7,8.5-6.9,74.7,49.5,68.5
			c56.4-6.2,87.1-33.9,140.9-22.6c53.8,11.3,272.4,127.8,272.4,127.8l25.4-54.5C2531.7,2454.8,2442.2,2437.1,2359.4,2392.3z"/>
		<path class="st11" d="M2810.9,2497.5c87.7-13.1,179.7-39.4,236.7-111.8c25.3-33.7,40.6-71.9,50.7-111.7
			c-0.3-6.3-12.9-111.8-67.4-121.4c-35.8-6.3-97.4,50-157.8,128.3c-15.9,30.2-23.6,58.1-48.4,75.6c-83.3,58.8-214.6,40.1-214.6,40.1
			s-57,50.8-66.4,94.1C2632,2506.6,2720.5,2510.1,2810.9,2497.5z"/>
		<path class="Graphic_x0020_Style_x0020_80" d="M3047.6,2385.7c-57,72.3-149,98.6-236.7,111.8c-90.4,12.6-178.9,9.1-267.2-6.7
			c-3.4,15.9-0.5,30.7,13.9,41.7c169.1,35.9,261.6,56.8,386.8-8c67.3-34.8,158.3-150.8,153.9-250.4
			C3088.2,2313.9,3072.9,2352,3047.6,2385.7z"/>
		<path class="st12" d="M2765.2,1730.1c0,0,5.3,252.4,61.3,272.6c56,20.2,82.2-4,84.3-16.2c1.1-6.5-9.9-131.2-49.1-197.8
			C2827.8,1731.2,2765.2,1730.1,2765.2,1730.1z"/>
		<path class="st8" d="M2630.2,820.8c-77.8-52.6-161-39.4-201.6,0c-40.5,39.4-144.6,127.1-132.5,232.2c0,0,23.7,12.4,57,15.3
			c50-19.5,86.2-82.2,126.9-118.2c4.4-4.4,19.7,17.5,28.5,32.9c13.1,28.5,28.5,65.7,54.8,70.1c46,8.8,43.8-63.6,74.5-92
			c12.6,17,30.6,20.5,49.4,16.7C2682.9,915.7,2669,847.1,2630.2,820.8z"/>
		<path class="Graphic_x0020_Style_x0020_216" d="M2637.8,961.2c-30.7,28.5-28.5,100.8-74.5,92c-26.3-4.4-41.6-41.6-54.8-70.1
			c-8.8-15.3-24.1-37.3-28.5-32.9c-40.7,36-76.9,98.7-126.9,118.2c36.7,3.3,85.1-4.8,125.9-53.7c34,66.8,97.5,65.7,97.5,65.7
			l20.8,44.9c0,0,9.2-52.6,8.4-59.2c-0.8-6.6,29.4-36.1,42.5-29c13.1,7.1,26.7,39.1,17.7,60.4c19.8-1.9,19.8-1.9,19.8-1.9
			s5.6-55.6,1.4-117.8C2668.4,981.7,2650.3,978.2,2637.8,961.2z"/>
		<path class="Graphic_x0020_Style_x0020_86" d="M1979.2,2387c0,0-263.9-22.4-270.9-22.4l-13.8,12.5c7.1,0,270.9,22.4,270.9,22.4
			l0.2,0.3l13.8-12.4L1979.2,2387z"/>
		<polygon class="Graphic_x0020_Style_x0020_86" points="2133.5,2720.1 1979.4,2387.5 1965.5,2399.8 2119.8,2732.6 		"/>
		<path class="Graphic_x0020_Style_x0020_99" d="M2119.8,2732.6l-289.5-50.4l-135.8-305.1c7.1,0,270.9,22.4,270.9,22.4
			L2119.8,2732.6z"/>
		<polygon class="st16" points="1775.5,2523.9 2025.8,2560 1973.4,2741 1724.9,2687.2 		"/>
		<path class="Graphic_x0020_Style_x0020_219" d="M1673.3,1401c0.4,0.9-6.7,13.5-16,29.1c2.5,23.1,9.2,46.2,25,63.6
			c20.1,22.6,51.8,31.5,82.6,27.2c0.1-30,27.9-62.7,27.9-62.7L1673.3,1401z"/>
		<path class="st12" d="M1682.2,1493.7c-15.8-17.4-22.5-40.5-25-63.6c-16.3,27.4-39.1,64.1-39.1,64.1s40.1,116.9,82.8,131.4
			c42.7,14.5,66.5-69.8,64-100.8c-0.1-1.3-0.1-2.7-0.1-4C1734,1525.3,1702.3,1516.4,1682.2,1493.7z"/>
		<path class="st12" d="M1928.1,1237.1c0,0-4.6,79.7-36.5,143.7c-36.7,73.6-104.7,131.4-163.6,108.3
			c-110-43.1-71.5-257.2-20.6-297.7C1758.3,1150.9,1918.9,1187,1928.1,1237.1z"/>
		<path class="Graphic_x0020_Style_x0020_216" d="M1666.9,1303.1c-11,48.2-15.3,96.4-46,138.1c-21.3,30.5-60.6,27-92.9,9.6
			c9.9,20.9,25.3,40.6,49,50.1c62.6,25.1,108.9-44.5,104.6-93.6c-4.3-49.1-5.2-98.7,30.2-136.3c35.4-37.6,103.9-58.2,119.4-73
			c3.7-3.6,5.2-12.3,5.4-23.4c-36.5,26.9-92.7,35-132.4,60.5C1680,1252.7,1671.3,1276.8,1666.9,1303.1z"/>
		<path class="st8" d="M1823.8,1080.1c-131.2-36.8-215.2,190.1-229.9,259.4c-14.7,69.3-84,39.8-84,39.8s1.7,37.2,18,71.5
			c32.3,17.4,71.6,20.8,92.9-9.6c30.7-41.6,35.1-89.9,46-138.1c4.4-26.3,13.1-50.4,37.3-67.9c39.7-25.5,95.9-33.6,132.4-60.5
			C1837,1139.5,1823.8,1080.1,1823.8,1080.1z"/>
		<path class="Graphic_x0020_Style_x0020_219" d="M2065.7,2210.4c-2.2,3.3-5.5,6.1-8.6,8.5c4.5,2.8,9.7,3.1,12.6-0.6
			c6.7-8.6,125.6-99.8,151.3-113.2c25.6-13.4,5.4,17.6,7.3,42.9c1.7,22.1,14,22.1,17.2,21.7c3-26-1.8-53.6-6.7-77.7
			C2166.6,2087.7,2109.6,2155.6,2065.7,2210.4z"/>
		<path class="st12" d="M2249.8,2039.4c-19.7-57,46-103,81.1-151.2c16-22.4,22.7-48.4,29.4-74.5c-3.4-4.5-7.4-9.2-12-14.1
			c-55.9-46.1-104.6,14.7-104.6,14.7s-93.5,238.3-109.1,249.2c-15.6,10.9-48.4,47.4-26.7,71.7c-34.3,41-43.2,37.3-56.8,63.2
			c-4.5,8.7,0.1,16.7,6.1,20.4c3-2.5,6.4-5.2,8.6-8.5c43.8-54.8,100.8-122.7,173.1-118.3c4.8,24.1,9.6,51.7,6.7,77.7
			c0.5-0.1,0.7-0.1,0.7-0.1s33-45.4,31.8-75.2c-0.4-8.8-2.3-17.7-4.8-25.7C2263.4,2059.5,2253.3,2051,2249.8,2039.4z"/>
		<path class="Graphic_x0020_Style_x0020_219" d="M2379.1,1872.5c0,0,8.3-23.1-18.8-58.7c-6.7,26-13.4,52-29.4,74.5
			c-35.1,48.2-100.8,94.2-81.1,151.2c3.5,11.5,13.6,20,23.4,29.3c-6-19.2-15.4-34-15.4-34L2379.1,1872.5z"/>
		<path class="Graphic_x0020_Style_x0020_209" d="M2578.7,1363c-62.2-5.5-16,733.3,42.3,785.1"/>
		<path class="st8" d="M3166.2,1983.5c-127.2-194.9-19.2-244.4-140.4-336.2c-121.2-91.9-253.9,35.8-253.9,35.8
			c0,6.1-42.4,80.3,3,100c45.4,19.7,78.4,45.4,78.6,172.7c0.2,127.2-29,339.3-29,339.3s43.1-24,86.6-70.2
			c14.6-61,39.2-121.6,62.1-178.8c17.5-41.6,46-81.1,41.6-124.9c30.7,54.8,89.9,81.1,129.3,124.9c50.6,55.9,59.1,128.8,52.6,202.5
			c2.4,19.6,3,32.3,3,32.3l9.2,75.8C3208.8,2356.6,3293.4,2178.4,3166.2,1983.5z"/>
		<path class="Graphic_x0020_Style_x0020_216" d="M3144,2046c-39.4-43.8-98.6-70.1-129.3-124.9c4.4,43.8-24.1,83.3-41.6,124.9
			c-22.9,57.3-47.5,117.8-62.1,178.8c25-26.6,50.1-60.5,67.1-101.4c35.1-84.5,59.9-86.2,104.3-62.7c44.4,23.5,69.6,185,77.9,210.3
			c0.3,1,16.7-140.9-44.7-220.9c55.2,41.1,74.6,145.2,81,198.4C3203.1,2174.9,3194.6,2102,3144,2046z"/>
		<path class="st8" d="M1902,1357.1c0,0.3,0.2,0,0.6-0.9C1902.3,1356.6,1902,1356.9,1902,1357.1z"/>
		<path class="Graphic_x0020_Style_x0020_216" d="M1835.2,1176.2c3.6,21,17.5,47.9,61,66.4c38.9,16.5,11.2,103.2,6.5,113.6
			c2.2-2,9.6-6.1,17.8-13.2c4.5-7.4,9-14.7,11.6-22.4C1958.7,1250.9,1887.5,1210,1835.2,1176.2z"/>
		<path class="st8" d="M1928.1,1232.8c-53.2-89.7-83.1-102.7-91.5-88.1c0,0-4.5,13.6-1.4,31.5c52.4,33.7,123.5,74.6,96.9,144.4
			c-2.6,7.7-7.1,15-11.6,22.4C1940,1326.1,1963.6,1292.7,1928.1,1232.8z"/>
		<path class="Graphic_x0020_Style_x0020_212" d="M2578.9,1378.8c0,0-7.7-37.6,0-44.4c7.7-6.8,124.5-164.1,129.7-189.7
			c61.6,15.5,70.4,48.2,70.4,48.2S2637,1379.7,2578.9,1378.8z"/>
	</g>
	<g>
		<path class="st17" d="M814.6,1449.9c-9.6-76.5-17.8-141.2,17.9-169.6c2.1-1.7,24-18.6,50.2-12.3c26.4,6.4,38.3,31.7,40.2,35.7
			c-13.1-80.5,3.2-142,34.6-152.9c13.6-4.7,34.8-1.5,50.2,11.2c22.4,18.4,21.4,47.6,21.2,51.3c3.4-21.8,18.5-105.2,78.1-133.9
			c11.8-5.7,34.5-16.6,52.4-5.6c20.5,12.6,19.1,44.3,19,46.9c29.6-53.5,74.4-79.6,104.9-69.2c13.8,4.7,26,17.4,30.1,32.4
			c7.3,26.7-11.4,60.7-49.1,79.2c22-1.2,42,7.6,51.3,23.4c15.2,25.8-5.6,56.5-8.9,61.4c-20.9,30.9-66.1,43.4-114.9,34.6
			c40,31.9,58.8,70.7,48,97.1c-7,17.1-24.8,25-44.6,33.5c-20.2,8.6-61.1,22.1-119.4,13.4c35.7,18.9,59.9,45.6,56.9,69.2
			c-4,31.6-55,45.3-93.7,55.8c-28.3,7.6-156.1,42.1-205.3-21.2C823,1516.7,820.2,1494.4,814.6,1449.9z"/>
		<path class="Graphic_x0020_Style_x0020_36" d="M717.4,1560.7c27.7,15.9,63,10.5,92.2-2.4c54.8-24.1,96.1-71.1,130.4-120.1
			c34.3-49,63.8-101.9,104.3-146c38.3-41.7,85.4-74.3,127.1-112.7c31.5-28.9,59.9-61.1,84.6-96"/>
		<path class="Graphic_x0020_Style_x0020_36" d="M872.8,1348.6c32.4,50.7,42.7,108.6,9.7,158.9"/>
		<path class="Graphic_x0020_Style_x0020_36" d="M912.9,1475c41.9-21.4,125.2,15.1,168.4,8.8"/>
		<path class="Graphic_x0020_Style_x0020_36" d="M977.8,1381.4c18-52.9,5.4-102.4,9.1-147.5"/>
		<path class="Graphic_x0020_Style_x0020_36" d="M1121.2,1131.5c-3.8,40.8-14.3,80.9-31.2,118.2"/>
		<path class="Graphic_x0020_Style_x0020_36" d="M1138.1,1208.8c38.5-14.3,81.9-15.2,121-2.6"/>
		<path class="Graphic_x0020_Style_x0020_36" d="M1009.2,1335.4c43.1-21.6,93.7-24,138.7-6.7"/>
	</g>
	<g>
		<path class="st18" d="M781.4,1628.8c92.2-57.9,134.9-56.9,147.9-92.8c8.1-22.4,2.8-53.8-17.7-68.3c-25.3-17.9-60.7-0.7-62.5,0.2
			c82.4-59.2,119.1-128.7,100.4-163.5c-8.9-16.5-35.2-34.1-64.5-33.4c-22.8,0.5-39.3,12-46,17.2c46.9-82.8,61-153.7,35.4-175.1
			c-10-8.4-33.2-15.1-54.5-7.1c-17.3,6.5-26.6,20.2-30.1,26c15.3-58-8.4-105.7-39-114c-19-5.2-41.7,4.6-55.2,19.8
			c-18.8,21.2-21.1,54.7-4.2,82.1c-2.1-2-34.5-31.4-61-21.1c-28.9,11.3-31.9,62.3-20.6,95c11.3,32.5,37.6,49.4,47.2,55
			c-3.9-2.5-41.8-25.8-69.6-10.3c-38.2,21.3-20.5,95-19.3,99.6c17,67,83.3,97.5,96.8,103.4c-45.9-2.5-84.2,17.1-94.5,46
			c-12.8,36.2,23,73.5,42.4,93.8c47.5,49.6,109.7,61.5,141.7,64.9C760.5,1642.4,769.7,1636.1,781.4,1628.8z"/>
		<path class="Graphic_x0020_Style_x0020_95" d="M735.1,1073.7c-2.7,57.7,2,115.8,13.8,172.4c17,81.5,48.9,162,42.1,245
			c-2.1,25.3-7.7,50.1-13.4,74.8c-6.5,28.2-13.1,56.9-27.8,81.9c-13.6,23.2-33.7,42.1-56.3,56.6"/>
		<path class="Graphic_x0020_Style_x0020_95" d="M774.4,1583.6c-0.7-4-3-7.5-5.5-10.7c-14.9-18.9-38.4-28.5-61.3-35.8
			c-22.9-7.3-46.9-13.2-66.3-27.4"/>
		<path class="Graphic_x0020_Style_x0020_95" d="M779.9,1370.8c-13.8-24.9-41.9-37.8-68.6-47.8c-26.7-9.9-55.3-19.5-73.6-41.3"/>
		<path class="Graphic_x0020_Style_x0020_95" d="M755.6,1272.7c-5.3-14.6,2.1-31,12.9-42.2c10.8-11.2,24.6-18.8,36.3-29
			c11.7-10.1,21.8-24.3,20.6-39.8"/>
		<path class="Graphic_x0020_Style_x0020_95" d="M742.5,1207.9c-0.6-4.7-1.2-9.5-3.2-13.8c-3-6.4-8.9-11-14.8-14.8
			c-12.3-7.9-25.7-13.8-38.2-21.3c-12.5-7.6-24.2-17.3-30.6-30.5"/>
		<path class="Graphic_x0020_Style_x0020_95" d="M792.5,1457.7c1.8-11.4,3.7-22.9,8.3-33.5c8.8-20.3,26.7-35,43.3-49.6
			s33.4-31.2,38.7-52.7"/>
		<path class="Graphic_x0020_Style_x0020_95" d="M861.2,1510.4c-15.4-3.7-32.1-2.1-46.5,4.5c-14.4,6.6-26.5,18.2-33.7,32.4"/>
	</g>
	<g>
		<path class="st19" d="M600,1564.5c-7.5-97.4,11.1-130.8-11.9-156.1c-14.4-15.8-41.6-24.7-61.6-14.5
			c-24.8,12.6-25.9,47.9-25.9,49.7c-12.6-90.1-52.4-148.3-87.8-147.9c-16.8,0.2-41.7,13.7-53.4,37.2c-9.1,18.4-6.9,36.2-5.5,43.7
			c-46.1-71.8-96.5-112.5-124.2-101.2c-10.8,4.5-25.8,20.1-28.4,40.3c-2.1,16.5,4.9,29.6,8.1,34.8c-39.6-36.4-87.4-37.4-106.7-16.6
			c-12,12.9-13.8,35-7.3,52.1c9,23.8,34.6,39.6,63.4,37.6c-2.4,0.9-39.3,14.2-42.2,39.6c-3.1,27.6,36.2,51.3,66.8,56
			c30.5,4.6,54.9-9.2,63.3-14.6c-3.6,2.1-37.9,22.4-37.2,50.9c0.9,39.2,66.8,55.9,71,56.9c60.2,14.5,112.2-25.4,122.5-33.7
			c-21.1,35.4-21.6,74-3,94.2c23.3,25.3,68,12.5,92.2,5.5c59.2-17,94.6-61.4,110.6-85.4C602.1,1586.8,601,1576.8,600,1564.5z"/>
		<path class="Graphic_x0020_Style_x0020_95" d="M140.2,1369.5c44.7,26.2,92.7,46.8,142.6,61c71.8,20.5,149,28.8,212,68.9
			c19.2,12.2,36.5,27.1,53.8,41.9c19.7,16.9,39.7,34.2,53.4,56.2c12.7,20.5,19.4,44.3,21.4,68.3"/>
		<path class="Graphic_x0020_Style_x0020_95" d="M561.8,1552.8c-3.5-1.1-63.5,1.8-96,79.1"/>
		<path class="Graphic_x0020_Style_x0020_95" d="M394.7,1458c-25.5,0.5-47.5,17.5-66.6,34.5c-19,17-38.6,35.7-63.5,41.2"/>
		<path class="Graphic_x0020_Style_x0020_95" d="M306.7,1436.3c-13.8-1.9-23.7-14.6-28.1-27.8c-4.4-13.2-4.7-27.4-7.8-40.9
			c-3.2-13.5-10.2-27.4-23-33"/>
		<path class="Graphic_x0020_Style_x0020_95" d="M249.8,1419.7c-4-1.5-8-3-12.3-3.2c-6.3-0.3-12.4,2.5-17.9,5.6
			c-11.4,6.4-21.7,14.7-32.9,21.4c-11.2,6.7-23.9,12-36.9,11.6"/>
		<path class="Graphic_x0020_Style_x0020_95" d="M468.9,1484.2c-8.3-6.2-16.7-12.5-23.1-20.6c-12.4-15.5-16.6-35.8-21.3-55.1
			s-10.8-39.5-25.7-52.7"/>
		<path class="Graphic_x0020_Style_x0020_95" d="M539.4,1451.7c-9.4,10.7-15.1,24.6-15.8,38.8c-0.8,14.2,5.3,29.4,13.5,41"/>
	</g>
	<path class="Graphic_x0020_Style_x0020_218" d="M926.5,1630.4L926.5,1630.4l-205.4,2.4c-1.8,13.3-2.1,26.9-1.8,40.5h193
		C918,1656.9,923,1642.2,926.5,1630.4z"/>
	<path class="Graphic_x0020_Style_x0020_86" d="M719.3,1673.2c1,49.3,9.8,99-18.9,138.3c-23.1,34.6-61.1,48.2-101.9,50l16.6,53.6
		c69.4,0,202.5,0,202.5,0s61.6-148.7,94.6-241.9H719.3z"/>
	<path class="Graphic_x0020_Style_x0020_218" d="M721.1,1632.7l-192.8,2.2l9.9,32h180.9C719.1,1655.5,719.5,1644,721.1,1632.7z"/>
	<path class="Graphic_x0020_Style_x0020_99" d="M538.2,1667l60.3,194.6c40.8-1.8,78.8-15.4,101.9-50c29.9-40.9,19.1-93.2,18.8-144.5
		H538.2z"/>
	<path class="Graphic_x0020_Style_x0020_83" d="M869,1915.1H580.7c-9.7,0-17.6,7.9-17.6,17.6v0c0,9.7,7.9,17.6,17.6,17.6H869
		c9.7,0,17.6-7.9,17.6-17.6v0C886.6,1923,878.7,1915.1,869,1915.1z"/>
	<polygon class="Graphic_x0020_Style_x0020_90" points="833,1950.4 981.4,2613.6 961.1,2613.6 791.9,1950.4 	"/>
	<path class="Graphic_x0020_Style_x0020_90" d="M652.2,1950.4l-75.2,294.5c-7-16.9-13.8-34.3-20.2-52.1l54.2-242.4H652.2z"/>
	<path class="Graphic_x0020_Style_x0020_219" d="M2559.2,1288.5c0,0,29.1-59.1,24-71.2c-29.6,39.7-30.7,35.9-30.7,35.9
		L2559.2,1288.5z"/>
	<path class="Graphic_x0020_Style_x0020_212" d="M3516.8,1298.9h-300.6c-33.4,0-60.5,27.1-60.5,60.5v122.9
		c0,19.8,9.5,37.3,24.1,48.4l-81.3,73.7l147.9-61.5h270.4c33.4,0,60.5-27.1,60.5-60.5v-122.9
		C3577.3,1326,3550.2,1298.9,3516.8,1298.9z"/>
	<g>
		<path class="Graphic_x0020_Style_x0020_42" d="M3226.6,1353.6h278.9c4.3,0,7.8-3.5,7.8-7.8c0-4.3-3.5-7.8-7.8-7.8h-278.9
			c-4.3,0-7.8,3.5-7.8,7.8C3218.8,1350.1,3222.3,1353.6,3226.6,1353.6z"/>
		<path class="Graphic_x0020_Style_x0020_42" d="M3505.5,1396.6h-278.9c-4.3,0-7.8,3.5-7.8,7.8l0,0c0,4.3,3.5,7.8,7.8,7.8h278.9
			c4.3,0,7.8-3.5,7.8-7.8l0,0C3513.3,1400.1,3509.8,1396.6,3505.5,1396.6z"/>
		<path class="Graphic_x0020_Style_x0020_42" d="M3505.5,1455.2h-278.9c-4.3,0-7.8,3.5-7.8,7.8c0,4.3,3.5,7.8,7.8,7.8h278.9
			c4.3,0,7.8-3.5,7.8-7.8C3513.3,1458.7,3509.8,1455.2,3505.5,1455.2z"/>
	</g>
</g>
</svg>
