<?xml version="1.0" encoding="utf-8"?>
<!-- Generator: Adobe Illustrator 22.0.0, SVG Export Plug-In . SVG Version: 6.00 Build 0)  -->
<svg version="1.1" id="Layer_1" xmlns="http://www.w3.org/2000/svg" xmlns:xlink="http://www.w3.org/1999/xlink" x="0px" y="0px"
	 viewBox="0 0 4000 4000" style="enable-background:new 0 0 4000 4000;" xml:space="preserve">
<style type="text/css">
	.st0{fill:none;stroke:#1A1A1A;stroke-width:3;stroke-linecap:round;stroke-linejoin:round;stroke-miterlimit:10;}
	.st1{fill:#1A1A1A;stroke:#1A1A1A;stroke-width:2;stroke-linecap:round;stroke-linejoin:round;stroke-miterlimit:10;}
	.st2{fill:#FFFFFF;stroke:#1A1A1A;stroke-width:2;stroke-linecap:round;stroke-linejoin:round;stroke-miterlimit:10;}
	.st3{fill:#D9DBDA;}
	.st4{clip-path:url(#XMLID_2_);}
	.st5{fill:#8E9DF4;stroke:#1A1A1A;stroke-width:2;stroke-linecap:round;stroke-linejoin:round;stroke-miterlimit:10;}
	.st6{fill:none;stroke:#FFFFFF;stroke-width:2;stroke-linecap:round;stroke-linejoin:round;stroke-miterlimit:10;}
	.st7{fill:#5067EF;stroke:#1A1A1A;stroke-width:2;stroke-linecap:round;stroke-linejoin:round;stroke-miterlimit:10;}
</style>
<g>
	<path class="st0" d="M392.4,2588.7c113.5,303.2,346.2,451.9,685.6,661.7c463.9,286.8,896.5,554.2,1466.8,462.4
		c586.3-94.4,937.5-507.2,1028.4-621.8c54.5-68.8,579.9-754.1,318.9-1514.7C3689.5,985.9,3149,746.6,2736.2,563.9
		C2126,293.7,1082,78.2,767.1,532c-122.2,176.1-99.6,402.5-71.7,542.1c-21.6,15.9-310.9,235-263.1,486.3
		c5.8,30.5,17.4,65.8,39.9,103.6C413.9,1783.4,239.1,2179.2,392.4,2588.7z"/>
	
		<ellipse transform="matrix(2.774594e-02 -0.9996 0.9996 2.774594e-02 -644.2881 1399.7051)" class="st1" cx="397.4" cy="1031.1" rx="85.1" ry="85.1"/>
	<path class="st2" d="M3698.8,2521c-65.8-168.9-133.9-328.8-105.6-418.5c47.8-151.5,35.9-354.7-89.7-970.6
		c-41-201-133.5-340.2-239.6-436.5c-219-198.9-495.8-215.2-495.8-215.2C2146.9,1.8,686.9,428.3,878.7,1047.9
		c-107.6,41.9-251.6,187.8-191.8,474.8C299.1,1868,558.3,2527.8,748.2,2788h3038.8C3768,2702.5,3733.7,2610.5,3698.8,2521z"/>
	<path class="st3" d="M3786.9,2788H748.2c23.8,32.7,46.6,59.1,66.8,77.7c-203.3,25.9-169.4,233.2-169.4,233.2
		c35.9,550.1,1159.9,424.5,2110.6,424.5s1070.2-403.6,1043.3-660.7C3796.9,2838.6,3792.6,2813.6,3786.9,2788z"/>
	<g>
		<defs>
			<path id="XMLID_6_" d="M949,695.4c-79.1,105.1-109.9,224.7-70.3,352.5c-107.6,41.9-251.6,187.8-191.8,474.8
				c-329.3,293.2-192.1,813.1-26.9,1122.7h475.9v-1950H949z"/>
		</defs>
		<use xlink:href="#XMLID_6_"  style="overflow:visible;fill:#FFFFFF;"/>
		<clipPath id="XMLID_2_">
			<use xlink:href="#XMLID_6_"  style="overflow:visible;"/>
		</clipPath>
		<g class="st4">
			<line class="st2" x1="857.8" y1="785.1" x2="953.4" y2="785.1"/>
			<line class="st2" x1="927.9" y1="834.9" x2="1010.3" y2="834.9"/>
			<line class="st2" x1="1023.5" y1="785.7" x2="1095.3" y2="785.7"/>
			<line class="st2" x1="998.3" y1="885.4" x2="1079.3" y2="885.4"/>
			<line class="st2" x1="934.5" y1="890.7" x2="878.7" y2="890.7"/>
		</g>
		<g class="st4">
			<line class="st2" x1="876.4" y1="933.9" x2="972.1" y2="933.9"/>
			<line class="st2" x1="946.5" y1="983.7" x2="1028.9" y2="983.7"/>
			<line class="st2" x1="1042.1" y1="934.6" x2="1113.9" y2="934.6"/>
			<line class="st2" x1="1016.9" y1="1034.2" x2="1097.9" y2="1034.2"/>
			<line class="st2" x1="953.1" y1="1039.5" x2="897.3" y2="1039.5"/>
		</g>
		<g class="st4">
			<line class="st2" x1="895" y1="1082.7" x2="990.7" y2="1082.7"/>
			<line class="st2" x1="965.1" y1="1132.5" x2="1047.5" y2="1132.5"/>
			<line class="st2" x1="1060.7" y1="1083.4" x2="1132.5" y2="1083.4"/>
			<line class="st2" x1="1035.5" y1="1183" x2="1116.5" y2="1183"/>
			<line class="st2" x1="971.7" y1="1188.3" x2="915.9" y2="1188.3"/>
		</g>
		<g class="st4">
			<line class="st2" x1="880.7" y1="1258" x2="976.4" y2="1258"/>
			<line class="st2" x1="950.8" y1="1307.8" x2="1033.2" y2="1307.8"/>
			<line class="st2" x1="1046.5" y1="1258.6" x2="1118.2" y2="1258.6"/>
			<line class="st2" x1="1021.2" y1="1358.3" x2="1102.3" y2="1358.3"/>
			<line class="st2" x1="957.4" y1="1363.6" x2="901.6" y2="1363.6"/>
		</g>
		<g class="st4">
			<line class="st2" x1="657.5" y1="1130" x2="753.2" y2="1130"/>
			<line class="st2" x1="727.6" y1="1179.8" x2="810" y2="1179.8"/>
			<line class="st2" x1="823.2" y1="1130.7" x2="895" y2="1130.7"/>
			<line class="st2" x1="798" y1="1230.3" x2="879" y2="1230.3"/>
			<line class="st2" x1="734.2" y1="1235.7" x2="678.4" y2="1235.7"/>
		</g>
		<g class="st4">
			<line class="st2" x1="652.2" y1="1299.3" x2="747.8" y2="1299.3"/>
			<line class="st2" x1="722.3" y1="1349.1" x2="804.6" y2="1349.1"/>
			<line class="st2" x1="817.9" y1="1299.9" x2="889.7" y2="1299.9"/>
			<line class="st2" x1="792.7" y1="1399.6" x2="873.7" y2="1399.6"/>
			<line class="st2" x1="728.9" y1="1404.9" x2="673.1" y2="1404.9"/>
		</g>
		<g class="st4">
			<line class="st2" x1="866.1" y1="1443.6" x2="961.8" y2="1443.6"/>
			<line class="st2" x1="936.2" y1="1493.4" x2="1018.6" y2="1493.4"/>
			<line class="st2" x1="1031.8" y1="1444.3" x2="1103.6" y2="1444.3"/>
			<line class="st2" x1="1006.6" y1="1543.9" x2="1087.6" y2="1543.9"/>
			<line class="st2" x1="942.8" y1="1549.2" x2="887" y2="1549.2"/>
		</g>
		<g class="st4">
			<line class="st2" x1="866.1" y1="1608.2" x2="961.8" y2="1608.2"/>
			<line class="st2" x1="936.2" y1="1658" x2="1018.6" y2="1658"/>
			<line class="st2" x1="1031.8" y1="1608.8" x2="1103.6" y2="1608.8"/>
			<line class="st2" x1="1006.6" y1="1708.5" x2="1087.6" y2="1708.5"/>
			<line class="st2" x1="942.8" y1="1713.8" x2="887" y2="1713.8"/>
		</g>
		<g class="st4">
			<line class="st2" x1="866.1" y1="1772.8" x2="961.8" y2="1772.8"/>
			<line class="st2" x1="936.2" y1="1822.6" x2="1018.6" y2="1822.6"/>
			<line class="st2" x1="1031.8" y1="1773.4" x2="1103.6" y2="1773.4"/>
			<line class="st2" x1="1006.6" y1="1873.1" x2="1087.6" y2="1873.1"/>
			<line class="st2" x1="942.8" y1="1878.4" x2="887" y2="1878.4"/>
		</g>
		<g class="st4">
			<line class="st2" x1="866.1" y1="1937.3" x2="961.8" y2="1937.3"/>
			<line class="st2" x1="936.2" y1="1987.2" x2="1018.6" y2="1987.2"/>
			<line class="st2" x1="1031.8" y1="1938" x2="1103.6" y2="1938"/>
			<line class="st2" x1="1006.6" y1="2037.6" x2="1087.6" y2="2037.6"/>
			<line class="st2" x1="942.8" y1="2043" x2="887" y2="2043"/>
		</g>
		<g class="st4">
			<line class="st2" x1="866.1" y1="2101.9" x2="961.8" y2="2101.9"/>
			<line class="st2" x1="936.2" y1="2151.7" x2="1018.6" y2="2151.7"/>
			<line class="st2" x1="1031.8" y1="2102.6" x2="1103.6" y2="2102.6"/>
			<line class="st2" x1="1006.6" y1="2202.2" x2="1087.6" y2="2202.2"/>
			<line class="st2" x1="942.8" y1="2207.5" x2="887" y2="2207.5"/>
		</g>
		<g class="st4">
			<line class="st2" x1="866.1" y1="2266.5" x2="961.8" y2="2266.5"/>
			<line class="st2" x1="936.2" y1="2316.3" x2="1018.6" y2="2316.3"/>
			<line class="st2" x1="1031.8" y1="2267.1" x2="1103.6" y2="2267.1"/>
			<line class="st2" x1="1006.6" y1="2366.8" x2="1087.6" y2="2366.8"/>
			<line class="st2" x1="942.8" y1="2372.1" x2="887" y2="2372.1"/>
		</g>
		<g class="st4">
			<line class="st2" x1="866.1" y1="2431" x2="961.8" y2="2431"/>
			<line class="st2" x1="936.2" y1="2480.9" x2="1018.6" y2="2480.9"/>
			<line class="st2" x1="1031.8" y1="2431.7" x2="1103.6" y2="2431.7"/>
			<line class="st2" x1="1006.6" y1="2531.4" x2="1087.6" y2="2531.4"/>
			<line class="st2" x1="942.8" y1="2536.7" x2="887" y2="2536.7"/>
		</g>
		<g class="st4">
			<line class="st2" x1="581.6" y1="2272.5" x2="677.3" y2="2272.5"/>
			<line class="st2" x1="651.7" y1="2322.3" x2="734.1" y2="2322.3"/>
			<line class="st2" x1="747.4" y1="2273.2" x2="819.1" y2="2273.2"/>
			<line class="st2" x1="722.2" y1="2372.8" x2="803.2" y2="2372.8"/>
			<line class="st2" x1="658.4" y1="2378.1" x2="602.6" y2="2378.1"/>
		</g>
		<g class="st4">
			<line class="st2" x1="581.6" y1="2437.1" x2="677.3" y2="2437.1"/>
			<line class="st2" x1="651.7" y1="2486.9" x2="734.1" y2="2486.9"/>
			<line class="st2" x1="747.4" y1="2437.7" x2="819.1" y2="2437.7"/>
			<line class="st2" x1="722.2" y1="2537.4" x2="803.2" y2="2537.4"/>
			<line class="st2" x1="658.4" y1="2542.7" x2="602.6" y2="2542.7"/>
		</g>
		<g class="st4">
			<line class="st2" x1="541.2" y1="1919.1" x2="636.9" y2="1919.1"/>
			<line class="st2" x1="611.3" y1="1969" x2="693.7" y2="1969"/>
			<line class="st2" x1="706.9" y1="1919.8" x2="778.7" y2="1919.8"/>
			<line class="st2" x1="681.7" y1="2019.5" x2="762.7" y2="2019.5"/>
			<line class="st2" x1="617.9" y1="2024.8" x2="562.1" y2="2024.8"/>
		</g>
		<g class="st4">
			<line class="st2" x1="541.2" y1="2083.7" x2="636.9" y2="2083.7"/>
			<line class="st2" x1="611.3" y1="2133.5" x2="693.7" y2="2133.5"/>
			<line class="st2" x1="706.9" y1="2084.4" x2="778.7" y2="2084.4"/>
			<line class="st2" x1="681.7" y1="2184" x2="762.7" y2="2184"/>
			<line class="st2" x1="617.9" y1="2189.3" x2="562.1" y2="2189.3"/>
		</g>
		<g class="st4">
			<line class="st2" x1="559.1" y1="1563.4" x2="654.8" y2="1563.4"/>
			<line class="st2" x1="629.2" y1="1613.2" x2="711.6" y2="1613.2"/>
			<line class="st2" x1="724.9" y1="1564" x2="796.6" y2="1564"/>
			<line class="st2" x1="699.6" y1="1663.7" x2="780.7" y2="1663.7"/>
			<line class="st2" x1="635.9" y1="1669" x2="580.1" y2="1669"/>
		</g>
		<g class="st4">
			<line class="st2" x1="559.1" y1="1727.9" x2="654.8" y2="1727.9"/>
			<line class="st2" x1="629.2" y1="1777.8" x2="711.6" y2="1777.8"/>
			<line class="st2" x1="724.9" y1="1728.6" x2="796.6" y2="1728.6"/>
			<line class="st2" x1="699.6" y1="1828.3" x2="780.7" y2="1828.3"/>
			<line class="st2" x1="635.9" y1="1833.6" x2="580.1" y2="1833.6"/>
		</g>
		
			<use xlink:href="#XMLID_6_"  style="overflow:visible;fill:none;stroke:#1A1A1A;stroke-width:2;stroke-linecap:round;stroke-linejoin:round;stroke-miterlimit:10;"/>
	</g>
	<rect x="1135.8" y="695.4" class="st1" width="77.7" height="1950"/>
	<path class="st2" d="M3793,2817.9H771c-22.5-27.8-46.5-62.1-70.6-101.6c-13.5-22.1-27.1-45.8-40.5-70.9h3085.2
		c8.3,23.8,16,47.5,23,70.9C3778.5,2751,3787,2785,3793,2817.9z"/>
	<path class="st2" d="M3593.2,2102.4c35.9-113.7,38.1-256.5-16.1-580.9c-18-107.9-42.3-235.9-73.6-389.7
		c-31.2-153.1-92.4-270.4-166.7-360.2c-8.7-10.5-17.6-20.6-26.6-30.4c-15-16.3-30.5-31.6-46.3-45.9H1213.5v676.6v1149h2485.3
		C3633,2352,3564.8,2192.1,3593.2,2102.4z"/>
	<path class="st2" d="M3451.2,1593.9c-55.9,72.7-114.6,123-184.5,176.1c-8.4,8.4-25.2,8.4-33.5,8.4c-139.8,14-276.8,11.2-416.6,2.8
		c-25.2-2.8-47.5-28-72.7-30.8c-89.5,0-178.9-8.4-260-36.3c-39.1-11.2-83.9-30.8-123-53.1c-41.9-22.4-72.7-61.5-120.2-83.9
		c-5.6-2.8-5.6-14-11.2-19.6c-11.2-5.6-25.2-5.6-36.3-14c-39.1-33.5-64.3-75.5-109-103.4c-128.6-83.9-257.2-139.8-394.2-187.3
		c-75.5-25.2-164.9-19.6-248.8-2.8c-30.8,5.6-55.9,19.6-83.9,22.4c-14,2.8-25.2,22.4-39.1,30.8c-35.8,24.8-68.8,46.8-104.5,68.8
		v1149h2485.3c-65.8-168.9-133.9-328.8-105.6-418.5c35.9-113.7,38.1-256.5-16.1-580.9c-14.9,7.5-29.9,5.8-44.8,10.8
		C3501.5,1549.1,3470.8,1565.9,3451.2,1593.9z"/>
	<path class="st5" d="M3569.3,1899.6h-110.9v171.5h-448.2h-369.6v-63.8l-151.5-25.6v84h-336.8l-112.1-112.1h-240.5v-168.1h-28
		v-177.3h-179.1l-173.6,273.3h-184.8h-20.6v567.7h2457.2c-55.2-141.5-101.8-269.9-77.5-346.8c23.3-73.9,32.4-160.1,21.1-300.5h-45
		V1899.6z"/>
	<rect x="1704.5" y="695.4" class="st2" width="26.6" height="1825.6"/>
	<rect x="2239.7" y="695.4" class="st2" width="26.6" height="1825.6"/>
	<rect x="2775" y="695.4" class="st2" width="26.6" height="1825.6"/>
	<path class="st2" d="M3336.8,771.7V2521h-26.6V741.3C3319.2,751,3328.1,761.2,3336.8,771.7z"/>
	<path class="st1" d="M1592.5,2063.9c0,0-2.1,1.6-5.8,5c-20.1,18.6-85.5,90-80.3,226.2c6.1,160.8,35.4,244.5,35.4,244.5h552.7
		v-264.4l-346.8-241.8l-157.3,32.2"/>
	<path class="st6" d="M1887.2,2347.6c0,0-38.9,21.9-59.8,56.8c-27.8,102.6-27.8,102.6-27.8,102.6"/>
	<path class="st7" d="M1903.1,2293.8c58,68.3,120.1,95.6,187.3,71.7c0,0,48.8-109.6,69.8-142.5s112.6-271,112.6-271v162.4l93.6,6.6
		c0,0,33.6-279,21.6-342.8c-12-63.8-96.3-137.5-103-137.5l-95,105.6"/>
	<path class="st7" d="M1532.4,2060.6c0,0,161.4,221.2,370.7,233.2c142.2-170.1,289.7-504.2,287-550.1l-41.9-171.4
		c0,0-117.6-28.9-183.4,20.9c-65.8,49.8-133.5,212.3-172.4,268.1C1753.6,1917.1,1566.3,2006.8,1532.4,2060.6z"/>
	<path class="st7" d="M2004.8,1573.3c0,0-164.1,30.9-160.2,236.9s81,346.8,158.1,381.3c77.1,34.5,77.1,34.5,77.1,34.5l14.6-83.7
		c0,0-81.8-93.5-99.6-171.4c-14-60.8-14.9-152.5,1-184.4"/>
	<path class="st2" d="M2148.9,1584.4l64-58.7c0,0,11-155,85.2-161c74.2-6,150.2,12.6,159.7,60.9c-0.6,64.4-27.6,179.6-57,196
		c-29.4,16.4-108.8-9.1-108.8-9.1s-7.8,11.7-4.8,22.3c-1.7,78.1-79.8,131-79.8,131l-28.9-6.4l-55.3-162.4L2148.9,1584.4z"/>
	<path class="st1" d="M2286.1,1524.5c0,0-66,18.3-88.4-8c-22.5-27.3,26.3-141.9,46.7-155.5c20.4-13.6,79.9-19.6,141.3-14.3
		c61.4,5.3,104.7-10.2,131.3-6.5c-7.2,46.6-8.5,123.6-61.8,103.2c-53.3-20.4-86.7-26.3-89.2,1.2c-2.6,27.4-17.1,55.4-16.9,56.9
		c0.2,1.5-15.1-4.1-15.1-4.1s12.1-39.7-6.1-40.4C2309.7,1456.3,2258.8,1467.2,2286.1,1524.5z"/>
	<path class="st2" d="M2154.9,1564c0,0-1.1-0.4-3.1-1c-14.2-4.3-73.1-21.2-91.2-10c27.2,95.7,27.2,95.7,27.2,95.7l33.9,10.6
		l-27.2,33.9c0,0,41.2,120.9,35.9,159.4c-5.3,38.5-22.6,101-22.6,101s80.5-152.8,82.4-218.6C2192.1,1669.3,2154.9,1564,2154.9,1564z
		"/>
	<path class="st2" d="M2289.1,1634.8l40.8,45.6l-40.8,76l-31.9-10.6l19.3,47.2c0,0-93,99-114.9,126.2
		c-21.9,27.2-65.3,62.7-65.3,62.7s88.8-228.1,99.3-250C2206,1709.8,2289.1,1634.8,2289.1,1634.8z"/>
	<path class="st1" d="M2793.3,2092.5c0,0-33.4,398.5-18.4,428.5c138.6,33.9,474.2,8,474.2,8v-457.8L2793.3,2092.5z"/>
	<path class="st7" d="M3099.6,1414.9c0,0,168.1,57.8,189.3,133.5s-50.5,605.9-50.5,605.9c-178.8,41.7-345.9,61.5-463.5-12
		c0,0-34.8-612.8-6.9-636.8c27.9-23.9,138.2-80.1,166.4-88.7C2963.5,1408,3099.6,1414.9,3099.6,1414.9z"/>
	<path class="st7" d="M2841.2,1459.7c0,0-130.9,47.5-132.2,155.2c-1.3,107.6-40.5,211.8-40.5,211.8c0-39.2,33.3-47.3,17.3-59.7
		c0,0-53.8-25.2-80.1,5.6c0,0-25.7,196.2,97,196.3c150,0.1,107-140.7,98.9-288.1"/>
	<path class="st2" d="M3102.2,1394.6c0,0,89.1,19,93.1,30.3c-26.6,4-59.1,91.7-51.8,114.3c-41.2-13.3-70.4,0-70.4,0
		s27.2,26.6,32.6,30.6c5.3,4-75.7,130.9-73.1,190c-7.3-84.4,1.3-227.9,19.9-267.1C3071,1453.4,3102.2,1394.6,3102.2,1394.6z"/>
	<path class="st2" d="M2924.2,1397.6l-83,46.5c0,0,66.4,80.4,68.4,83.7c2,3.3,43.2-13.3,55.1-8.6c-32.6,42.5-31.9,53.1-31.9,53.1
		s89.8,132.9,97.1,163.4c3.8-138.7-12.7-202.6-30-235.8C2982.7,1466.7,2924.2,1397.6,2924.2,1397.6z"/>
	<path class="st2" d="M3014.5,1385c0,0-4.7,10-51.8,28.8c-108.9,12.8-87.7-234.1-87.7-234.1s60.5-103.6,148.1-47.8
		c87.7,55.8,84.7,147.5,76.7,191.3s-7.6,53.4-3.3,95.5c4.3,42,4.3,42,4.3,42l-39.9,93.7l-20.9,86.4l-15.1-6l-89.3-201l11.2-19.2"/>
	<path class="st1" d="M2946.8,1425.8c0,0,30.2,15.3,54.1-2c23.9-17.3,15.6-38.2,15.6-38.2s-9.3,18.3-31.6,23.2
		c-22.2,4.9-38.2,7.3-38.2,7.3V1425.8z"/>
	<path class="st1" d="M3055.1,1279.3c0,0,1.3-24.6,17.3-27.9c15.9-3.3,19.3,51.2,0,72.4c-5.3,26.6,21.4,45.2,21.4,45.2
		s17.8-6,29.7-20.6c12-14.6,6-83.7,0-132.9c-6-49.2-40.1-108.9-98.4-116.3c-58.3-7.3-126.1-0.7-165.3,80.4
		c-14.6,15.9-22.6,20.6-22.6,20.6s21.3,53.1,71.7,31.9c50.5-21.3,79.7-35.2,91-21.3c11.3,14,35.2,30.6,37.2,53.1
		c2,22.6,3.3,28.6,11.3,28.6C3056.4,1292.6,3055.1,1279.3,3055.1,1279.3z"/>
	<path class="st7" d="M3225.5,1670.4l5,460.3l126.2-10.9c0,0,18.1-512.6-80.7-597"/>
	<g>
		<rect x="1038.2" y="2121.4" class="st2" width="761.4" height="429.5"/>
		<rect x="1383.3" y="2304.8" class="st1" width="71.3" height="304.6"/>
		<rect x="1245.4" y="2609.4" class="st1" width="347.1" height="36"/>
	</g>
	<g>
		<rect x="2040.1" y="2121.4" class="st2" width="761.4" height="429.5"/>
		<rect x="2385.2" y="2318.2" class="st1" width="71.3" height="280.6"/>
		<rect x="2247.3" y="2609.4" class="st1" width="347.1" height="36"/>
	</g>
	<g>
		<rect x="3042" y="2121.4" class="st2" width="761.4" height="429.5"/>
		<rect x="3387.1" y="2318.2" class="st1" width="71.3" height="280.6"/>
		<rect x="3249.2" y="2609.4" class="st1" width="347.1" height="36"/>
	</g>
	<path class="st2" d="M3768.2,2716.3H700.4c-13.5-22.1-27.1-45.8-40.5-70.9h3085.2C3753.4,2669.2,3761.2,2692.9,3768.2,2716.3z"/>
	<path class="st1" d="M3793,2817.9H771c-22.5-27.8-46.5-62.1-70.6-101.6h3067.8C3778.5,2751,3787,2785,3793,2817.9z"/>
	<g>
		<path class="st2" d="M2788.2,1637.4c-3.6,0-82.1-3.5-83.6,2.7c-1.1,4.6-12.7,79.1,36.4,81c49,2,52.3,0,52.3,0v-14
			c0,0-67.2,2-70.1-23.3c-3-25.2,0-32.1,0-32.1l65-3.8V1637.4z"/>
		<path class="st2" d="M2772.2,1617.8v91.9c0,18.8,15.2,34,34,34h43.6c18.8,0,34-15.2,34-34v-91.9H2772.2z"/>
	</g>
	<path class="st2" d="M2647,1785.5c0,0-23.1-54.9-31.2-78.9c-19.9-59.3,44.2-85.4,72.4-95.2c42.9,5.6,68.5,71.3,42,82.6
		c-16.6,7.1-27.2,8.4-36.4,31c-4.3,10.5,6.1,32.2,6.1,32.2S2659.1,1769.4,2647,1785.5z"/>
	<path class="st7" d="M2748.7,1847.3c0,0,0.8-65.7-33.8-90.3c-34.5-24.6-103.6-33.9-109.3,15.6c-5.6,49.5,7.7,108.9,7.7,108.9"/>
	<line class="st6" x1="3010.1" y1="2317.7" x2="2988.6" y2="2539.6"/>
	<ellipse class="st2" cx="248.2" cy="2407.6" rx="212.7" ry="210.9"/>
	<ellipse class="st2" cx="3693.4" cy="820.8" rx="172.4" ry="171"/>
	<line class="st7" x1="3032.5" y1="1759.6" x2="3029.9" y2="2189.3"/>
</g>
</svg>
