<?xml version="1.0" encoding="utf-8"?>
<!-- Generator: Adobe Illustrator 22.0.0, SVG Export Plug-In . SVG Version: 6.00 Build 0)  -->
<svg version="1.1" id="Layer_1" xmlns="http://www.w3.org/2000/svg" xmlns:xlink="http://www.w3.org/1999/xlink" x="0px" y="0px"
	 viewBox="0 0 4000 4000" style="enable-background:new 0 0 4000 4000;" xml:space="preserve">
<style type="text/css">
	.st0{fill:none;stroke:#1A1A1A;stroke-width:3;stroke-linecap:round;stroke-linejoin:round;stroke-miterlimit:10;}
	.st1{fill:#1A1A1A;stroke:#1A1A1A;stroke-width:2;stroke-linecap:round;stroke-linejoin:round;stroke-miterlimit:10;}
	.st2{fill:#FFFFFF;stroke:#1A1A1A;stroke-width:2;stroke-linecap:round;stroke-linejoin:round;stroke-miterlimit:10;}
	.st3{clip-path:url(#XMLID_2_);fill:#D9DBDA;}
	.st4{fill:#5067EF;stroke:#1A1A1A;stroke-width:2;stroke-linecap:round;stroke-linejoin:round;stroke-miterlimit:10;}
	.st5{fill:none;stroke:#1A1A1A;stroke-width:2;stroke-linecap:round;stroke-linejoin:round;stroke-miterlimit:10;}
	.st6{fill:#8E9DF4;stroke:#1A1A1A;stroke-width:2;stroke-linecap:round;stroke-linejoin:round;stroke-miterlimit:10;}
	.st7{fill:#D9DBDA;stroke:#1A1A1A;stroke-width:2;stroke-miterlimit:10;}
</style>
<g>
	<path class="st0" d="M237.4,1877.1c-67.5,414.7,233.6,882.4,602.7,1042.3c241.7,104.7,318.8-6.4,609.8,106.4
		c375.5,145.6,384.6,384.1,659.4,510.5c421.7,194,1097.2-47.3,1446.4-524.7c354.3-484.3,244.8-1036.7,219.8-1148.7
		c-94.3-421.5-351.6-674.7-446.7-765.8c-490.9-470.2-1118.5-471.7-1269.1-468c-0.3-72.7-14.4-153.8-70.9-198.5
		c-135.3-107.1-426.1,63.6-595.6,163.1c-142.4,83.6-412.9,261.8-751.6,666.5C390.2,1560.6,264.5,1710.8,237.4,1877.1z"/>
	
		<ellipse transform="matrix(1 -9.613823e-03 9.613823e-03 1 -14.9642 1.6824)" class="st1" cx="167.5" cy="1557.3" rx="75.7" ry="75.7"/>
	<path class="st2" d="M1328.4,464.2c452.4-75.9-64,376.7,586.5,119.6s1460.9-38.9,1554.8,854.6c11.8,137.2-4.2,280,44.1,409
		c35.4,94.6,102.8,173.8,144.8,265.6c74.9,163.5,64,351.8,51.5,531.3c1.3,360.7-145.9,751.3-514.6,872.7
		c-193.7,69-416.5,51.6-597.2-46.7c-93-50.6-176.9-122.1-279.5-148.4c-158.5-40.7-320.2,34.5-478.7,75.4
		c-363.3,93.9-770.2-3-1052.3-250.4s-431.1-638.4-385.3-1010.8c18.1-147.2,64.5-295,38.4-440.9c-17.7-99.3-68.5-192.3-72-293.2
		c-3.5-101.4,54.3-154.1,129-207.5c61.5-43.9,91.5-109,134.6-170.1C806.3,777.9,1030.7,514.2,1328.4,464.2z"/>
	<g>
		<defs>
			<path id="XMLID_8_" d="M1328.4,464.2c452.4-75.9-64,376.7,586.5,119.6s1460.9-38.9,1554.8,854.6c11.8,137.2-4.2,280,44.1,409
				c35.4,94.6,102.8,173.8,144.8,265.6c74.9,163.5,64,351.8,51.5,531.3c1.3,360.7-145.9,751.3-514.6,872.7
				c-193.7,69-416.5,51.6-597.2-46.7c-93-50.6-176.9-122.1-279.5-148.4c-158.5-40.7-320.2,34.5-478.7,75.4
				c-363.3,93.9-770.2-3-1052.3-250.4s-431.1-638.4-385.3-1010.8c18.1-147.2,64.5-295,38.4-440.9c-17.7-99.3-68.5-192.3-72-293.2
				c-3.5-101.4,54.3-154.1,129-207.5c61.5-43.9,91.5-109,134.6-170.1C806.3,777.9,1030.7,514.2,1328.4,464.2z"/>
		</defs>
		<use xlink:href="#XMLID_8_"  style="overflow:visible;fill:#FFFFFF;"/>
		<clipPath id="XMLID_2_">
			<use xlink:href="#XMLID_8_"  style="overflow:visible;"/>
		</clipPath>
		<path class="st3" d="M227.9,2103.2c0,0,183.3-6.6,679.6,125.4c496.4,132,585-90.2,725.8-250.4c140.9-160.2,470.9,199,734.9,184.4
			c264-14.6,223.3-179.6,562.6-212.6c339.3-33,955.3,30.4,955.3,30.4v451.8l-3626.3,18.6L227.9,2103.2z"/>
		
			<use xlink:href="#XMLID_8_"  style="overflow:visible;fill:none;stroke:#1A1A1A;stroke-width:2;stroke-linecap:round;stroke-linejoin:round;stroke-miterlimit:10;"/>
	</g>
	<path class="st2" d="M3603.4,3147c-1.7,3.6-3.5,7.1-5.3,10.6C3599.9,3154.1,3601.6,3150.5,3603.4,3147L3603.4,3147z"/>
	<g>
		<path class="st2" d="M1737.3,1681.1c0,0-82.4,354.7-82.4,359.2c0,4.5-50,181.2-167.4,164.7c-116.3-16.4-188.3-282.2-197.2-457.2
			c-1.7-14.6-10.2-26.1-25.8-52.1c-19.6-32.6-29.5-78.3-26.5-109.9c3-31.5,51.8-82.5,70.8-73.4c19,9,51.8,90.7,51.8,90.7
			s0.4-3,15.1-22.9c24.2-23.7,47.5-4.7,38.9,4.8c-8.6,9.5-27.7,22.5-28.9,56.1c-1.3,33.7-0.4,22.5-14.7,75.6
			c-2.4,9.1-2.1,21.1,0.2,35.1c13.3,79,90.2,232.2,125.1,293.4c36.1-1.5,58.8-115.3,99.5-234.3
			C1636.6,1691.9,1737.3,1681.1,1737.3,1681.1z"/>
		<path class="st2" d="M2079.6,1735.8c0,0,100.7,14,117.9,164c11.7,114.7,14.1,103.2,26.3,186.3c55.8-124.8,70.9-142.3,117.5-231.2
			c50.7-96.7,77.3-134.6,134.7-145.8c57.4-11.2,67.2-3.7,62.1,7.9c-5.1,11.7-59.3,28.5-59.3,28.5s96.2-17.3,135.9,0.5
			c39.7,17.7,43.4,50.9,4.7,72.4c-10,5.6-32.9,23.4-49,22.9c-40.6-1.3-83.3-11.1-107.1-11.4c-33.2-0.5-93.8,284.3-187.3,384.6
			c-68.1,73-150.3,64.7-180.6-125.2C2042.6,1854.9,2079.6,1735.8,2079.6,1735.8z"/>
		<path class="st1" d="M1966.6,1551.3c0,0-20.6,46.1,5.6,113c26.2,66.9,47.9,79.6,50.6,80.5c2.7,0.9,56.1,18.1,56.1,18.1
			s70.5-134.7,52.4-184.5c-18.1-49.7-66.9-114.9-66.9-114.9L1966.6,1551.3z"/>
		<path class="st1" d="M1943.4,1285c28.5-20.4,18.8-47,5-47.9c0,0-11.5-25.8-66.7,5c-55.2,30.7-66.9,189.9-69.6,247.8
			c-2.7,57.9-65.3,131.8-68,181.3c-2.7,49.5,0,43.2,0,43.2l144.5-69l21.8-56.6"/>
		<path class="st4" d="M1623.1,2323.9l459.5-3.7c0,0,79.8-508.3,10.8-570.1c-69-61.7-150.3-79.8-207.5-75.3
			c-57.3,4.5-120.5-19.6-170.2,22.6c-49.7,42.2-75.2,246.2-88.7,316.9C1613.3,2085.1,1623.1,2323.9,1623.1,2323.9z"/>
		<path class="st2" d="M1891.8,1557.3c0,0-18.9,99-102.5,114.6c67.8,45.8,184.4,56.7,235.3,31.6c-30.4-33.3-41.9-86-43.7-121.4
			C1939.2,1560.3,1891.8,1557.3,1891.8,1557.3z"/>
		<path class="st1" d="M1971.3,1285c-10.8-5.9-34.6-28.4-22.9-51.5c3.6-7,19.8-14.8,28.7-21.3c24.9-18.1,62-10.3,105.4,14.8
			c43.4,25.1,90.8,99.6,86.7,215c-4.1,115.3,14.9,226.5,33.9,293c19,66.5,33.9,223.4-26.2,187.2c-35.7,32.1-71.9,0-90.4-27.1
			c-37.1-3.6-60.1-77.3-30.3-137c29.8-59.7,39.3-95,32.6-142c-6.8-47-48.4-198.5-49.1-202.6C2039.1,1409.3,1971.3,1285,1971.3,1285z
			"/>
		<path class="st2" d="M2098.8,1470.4c-9.3,11.1-26.6,19.7-38.1,19.6c-17.2,55.3-51.4,111.8-119.3,106.6c-11.7-0.9-22-3.6-31.1-7.8
			c-45.1-20.6-60.8-77.4-65-130.3c-0.4,0-0.8,0.1-1.3,0.1c-8.6,0.7-20.2-6.4-28.5-18.2c-8.5-11.9-13.8-28.7-9.7-47.4
			c3.1-14,10-16.7,17.4-14.7c8.2,2.3,13.7,14.1,18.6,19.2c0.1-0.9,14.3,17.7,16.5,19.5c2.3,1.8,0.5-5.4,3.6-43.4
			c0-11.7,66.5-67.4,81.6-88.6c2.9-4.1,4.9-8.5,6.2-12.8c3.7,0,7.4,0.2,11.3,0.6c128.1,6.3,117,116.7,117,116.7s-0.3,9.8-2,25
			c5.6-1.2,12.8-1.8,21-0.2C2116.4,1418.2,2111,1455.9,2098.8,1470.4z"/>
		<path class="st5" d="M1742.2,1681.1c0,0-13.6,243.2,4.5,295.4c18.1,52.2,119.5,82.3,178.7,72.3c59.2-10,81.2-43.7,94.8-110.2
			c13.6-66.5,38-215.7,38-215.7"/>
		<path class="st1" d="M1975.8,1259.6c0,0-38,18.5,19.4,69.6c51.1,41.6,63.3,43,63.3,43s-10.9,45.7,6.8,56.5
			c9-21.3,28.7-20.8,28.7-20.8s17-70.5-4.7-102.4C2067.6,1273.7,1975.8,1259.6,1975.8,1259.6z"/>
	</g>
	<path class="st2" d="M3719.1,2444.7c-7,237.7-6.2,484.9-115.7,702.3H787.8c-239.1-209.8-382.4-522.2-392.9-839.5h3316.4
		C3717,2353,3719.1,2398.9,3719.1,2444.7z"/>
	<path class="st2" d="M524.7,2806.5c4.7,9.2,9.5,18.3,14.4,27.4C534.2,2824.8,529.4,2815.7,524.7,2806.5z"/>
	<path class="st1" d="M3603.4,3147c-7.2,14.9-14.9,29.5-22.9,44H841.4c-18.3-14.1-36.1-28.8-53.5-44H3603.4z"/>
	<g>
		<line class="st2" x1="1159.9" y1="517.3" x2="1159.9" y2="805.1"/>
		<path class="st1" d="M1281.1,997.6c-66.7-29.4-139.3-37.3-213.8-17.7c-14.4,3.6-31,8.7-43.1,18.4v66.9
			c53.2-32.1,127.1-19.7,186.3-14.6c24.7,3,53.1,7.7,80.3,16.2v-65.2C1287.6,1000.1,1284.3,998.8,1281.1,997.6z"/>
		<path class="st6" d="M1024.1,1065.2v53.3c88.5-21.2,177.4-21,266.7,0v-51.7c-27.2-8.5-55.6-13.2-80.3-16.2
			C1151.2,1045.4,1077.3,1033.1,1024.1,1065.2z"/>
		<path class="st6" d="M1281.1,997.6c3.3,1.2,6.5,2.6,9.7,4v-65.9c0-7.4-0.6-14.6-1.8-21.7c-80.6-25.7-166.5-35.6-247.2-0.8
			c-8.6,3.2-13.7,10.1-17.5,18.2c0,1.4-0.1,2.9-0.1,4.3v62.7c12.1-9.7,28.7-14.8,43.1-18.4C1141.8,960.3,1214.4,968.1,1281.1,997.6z
			"/>
		<path class="st1" d="M1160.2,805.1h-5.6c-70.6,0-128.1,56.1-130.4,126.2c3.8-8.1,8.9-14.9,17.5-18.2
			c80.7-34.8,166.6-24.9,247.2,0.8C1278.6,852.2,1225,805.1,1160.2,805.1z"/>
	</g>
	<g>
		<line class="st2" x1="2438.3" y1="483.2" x2="2438.3" y2="846.3"/>
		<path class="st1" d="M2559.5,1038.8c-66.7-29.4-139.3-37.3-213.8-17.7c-14.4,3.6-31,8.7-43.1,18.4v66.9
			c53.2-32.1,127.1-19.7,186.3-14.6c24.7,3,53.1,7.7,80.3,16.2v-65.2C2566,1041.4,2562.8,1040.1,2559.5,1038.8z"/>
		<path class="st6" d="M2302.6,1106.4v53.3c88.5-21.2,177.4-21,266.7,0V1108c-27.2-8.5-55.6-13.2-80.3-16.2
			C2429.6,1086.7,2355.8,1074.4,2302.6,1106.4z"/>
		<path class="st6" d="M2559.5,1038.8c3.3,1.2,6.5,2.6,9.7,4v-65.9c0-7.4-0.6-14.6-1.8-21.7c-80.6-25.7-166.5-35.6-247.2-0.8
			c-8.6,3.2-13.7,10.1-17.5,18.2c0,1.4-0.1,2.9-0.1,4.3v62.7c12.1-9.7,28.7-14.8,43.1-18.4
			C2420.3,1001.5,2492.8,1009.4,2559.5,1038.8z"/>
		<path class="st1" d="M2438.7,846.3h-5.6c-70.6,0-128.1,56.1-130.4,126.2c3.8-8.1,8.9-14.9,17.5-18.2
			c80.7-34.8,166.6-24.9,247.2,0.8C2557.1,893.4,2503.4,846.3,2438.7,846.3z"/>
	</g>
	<path class="st0" d="M609.3,1059.2c0,0,220,34.8,262.9-254.1c97.4,34.3,278.7-60.1,287.7-160.9c172.6,155.3,376.2,237.1,560.7,90.2
		c197.2,153.2,409.1,130.1,505.6,8.4c111.2,56.6,195.6,29.4,212.1-46.2c54.3,90.2,236.8,207.7,398.3,104.9
		c130.1,178.3,356.6,208.8,454,107.9"/>
	<path class="st1" d="M882.9,820.5c0,0-28.9,44.3,7,77.9C911.8,886.7,910.8,842.9,882.9,820.5z"/>
	<path class="st1" d="M1693.4,738.9c0,0-24.7,20.9-8.6,57.8c16.2,36.9,42.2,48.4,42.2,48.4s21.7-49.1,4.7-79.4
		C1718.9,742.8,1693.4,738.9,1693.4,738.9z"/>
	<path class="st1" d="M3164.6,946.6c0,0,62.8-6.8,90.7,50.1C3212.4,1019.7,3173.3,974.1,3164.6,946.6z"/>
	<line class="st2" x1="862.7" y1="739.3" x2="872.1" y2="805.1"/>
	<line class="st2" x1="1720.6" y1="734.5" x2="1720.6" y2="649.5"/>
	<line class="st2" x1="2226.2" y1="742.8" x2="2226.2" y2="499.2"/>
	<line class="st2" x1="2839.4" y1="795.3" x2="2839.4" y2="554.2"/>
	<polyline class="st1" points="3580.4,3191 841.4,3191 841.3,3191 	"/>
	<path class="st2" d="M2029,2740.2c0,0-218.2,2.1-251.7,21c-33.6,18.9-136.3,0-136.3,0l-218.2-310.5c0,0,81.8-25.2,155.2,0
		c73.4,25.2,115.4,10.5,172,2.1c56.6-8.4,102.8,23.1,102.8,23.1L2029,2740.2z"/>
	<path class="st1" d="M2029,2740.2v18.4c0,0-155.5,8.4-214.2,19.4c-58.7,10.9-139.9,16.1-181.8,12.3
		c-10.3-3.7-210.3-304.9-210.3-304.9v-34.7l218.2,310.5c0,0,102.8,18.9,136.3,0C1810.8,2742.3,2029,2740.2,2029,2740.2z"/>
	<path class="st1" d="M1943,2497.6l100.9,146.9h19.3l-106.8-156.2C1949.5,2478.6,1933.9,2489.8,1943,2497.6z"/>
	<path class="st2" d="M2075.8,2681.3c-2.8-4.2-31.9-36.8-31.9-36.8h19.3L2075.8,2681.3z"/>
	<g>
		<path class="st1" d="M833,2229c0,0-65.3-100.7-161.3,8.4c-1.9-87.7,89.5-151.1,200.5-13.1"/>
		<path class="st6" d="M884.3,2225.3c-159.4-212.6-296.5-139.9-296.5-139.9s58.7-76.5,148.2-55s191.1,136.9,205.1,207"/>
		<path class="st2" d="M905.7,2222.5c0,0-45.7-298.4-207-348.8c112.8,0.9,229.3,132.4,249.9,348.8"/>
		<path class="st6" d="M924.4,2222.5c0,0,58.7-125,30.8-231.3c-28-106.3-83-168.8-83-168.8s125.9,35.5,142.7,184.7
			c16.8,149.1-35.4,215.4-35.4,215.4"/>
		<path class="st2" d="M959.8,2222.5c0,0,6.5-128.7,51.3-169.7c44.8-41,132.4-64.3,132.4-64.3s-83.8,74.6-114.2,125
			c-30.4,50.4-38.8,109.1-38.8,109.1"/>
		<path class="st6" d="M1002.7,2222.5c0,0,27-97.4,102.6-78.6c75.5,18.9,129.6,69.7,129.6,69.7s-28-85.3-93.2-104.9
			c-65.3-19.6-147.3,12.1-170.6,113.8"/>
		<path class="st1" d="M1031.6,2216.4c0,0,17.2-44.8,55-44.3c37.8,0.5,52.7,52.7,52.7,52.7s-36.4-33.1-53.8-19.6
			c-17.5,13.5-17.5,17.3-17.5,17.3"/>
		<path class="st2" d="M1103.8,2213.6c0,0-313.3,0-318.9,0c0,0-3.5,19.8-3,47.6h331.7C1110.6,2233.5,1103.8,2213.6,1103.8,2213.6z"
			/>
		<path class="st1" d="M782,2261.2c1.3,66.3,25.9,177.5,177.8,170.6c148.9-6.8,160.8-108.5,153.9-170.6H782z"/>
	</g>
	<rect x="2508" y="1378.6" class="st1" width="401.4" height="71.3"/>
	<rect x="2508" y="1986.1" class="st2" width="401.4" height="219.6"/>
	<g>
		<polygon class="st2" points="3145.8,2239.5 2909.2,2239.5 2909.2,2072.9 3131.1,2078.8 		"/>
		<polygon class="st1" points="2909.2,2239.5 2861.8,2239.5 2855.9,2088.5 2909.2,2072.9 		"/>
		<path class="st4" d="M2481.4,2263.2c0,0-93.9-13.1-91.1,154c2.8,167.1,75.9,154.7,98,154.7"/>
		<polygon class="st2" points="2587.7,2617.8 2595.3,2753.9 2799.7,2723.2 2799.7,2617.8 		"/>
		<rect x="2799.7" y="2600.8" class="st1" width="381.1" height="102.2"/>
		<polygon class="st1" points="3318.9,2600.8 3276.1,2624.3 2471.1,2616.7 2542.9,2600.8 		"/>
		<polygon class="st1" points="2542.9,2199 2542.9,2600.8 2471.1,2616.7 2471.1,2230.7 		"/>
		<rect x="2542.9" y="2199" class="st4" width="776" height="401.9"/>
		<rect x="2647.8" y="2703" class="st2" width="638.8" height="129.3"/>
		<path class="st1" d="M2647.8,2703c0,0-105.6,65.1-104.9,64.7c0.7-0.5,0,92.1,0,92.1s104.9-24.4,104.9-27.4
			C2647.8,2829.4,2647.8,2703,2647.8,2703z"/>
		<path class="st1" d="M2705.8,3057c-38.5,43.1-31.7,104.1,0,174.9h468.5c53.8-61.1,53.8-122.1,0-183.2L2705.8,3057z"/>
		<path class="st2" d="M3231.9,3052.4c0,0-481.9,18-592.4,18c116-6,71.5-238,71.5-238h563.7
			C3295.4,3051.5,3231.9,3052.4,3231.9,3052.4z"/>
		<path class="st1" d="M2639.5,3070.4c-110.4,0-96.6-210.6-96.6-210.6l105-27.4c0,0,22.4,0,63.2,0
			C2711,2832.4,2755.5,3064.4,2639.5,3070.4z"/>
		<path class="st1" d="M2813.5,2883c0,0,50.6,157.4,0,206.2c32.2,0.9,32.2,0.9,32.2,0.9s23.9-14.7,16.6-118.3
			c-6.3-80-23.7-92.5-23.7-92.5L2813.5,2883z"/>
		<path class="st1" d="M2917,2883c0,0,50.6,157.4,0,206.2c32.2,0.9,32.2,0.9,32.2,0.9s23.9-14.7,16.6-118.3
			c-6.3-80-23.7-92.5-23.7-92.5L2917,2883z"/>
		<path class="st1" d="M3020.6,2883c0,0,50.6,157.4,0,206.2c32.2,0.9,32.2,0.9,32.2,0.9s23.9-14.7,16.6-118.3
			c-6.3-80-23.7-92.5-23.7-92.5L3020.6,2883z"/>
		<path class="st1" d="M3124.1,2883c0,0,50.6,157.4,0,206.2c32.2,0.9,32.2,0.9,32.2,0.9s23.9-14.7,16.6-118.3
			c-6.3-80-23.7-92.5-23.7-92.5L3124.1,2883z"/>
		<path class="st2" d="M3202.5,3306.5h-510.9c-6.7,0-12.1-5.4-12.1-12.1v-50.3c0-6.7,5.4-12.1,12.1-12.1h510.9
			c6.7,0,12.1,5.4,12.1,12.1v50.3C3214.6,3301.1,3209.2,3306.5,3202.5,3306.5z"/>
		<polygon class="st7" points="2838.6,3306.5 2712.2,3517.4 2644.6,3489.8 2744.5,3306.5 		"/>
		<polygon class="st1" points="2732.1,3524.1 2867.8,3306.5 2838.6,3306.5 2712.2,3517.4 		"/>
		<line class="st2" x1="2957.1" y1="3306.5" x2="2957.1" y2="3558.8"/>
		<line class="st2" x1="3026.2" y1="3306.5" x2="3034.6" y2="3554.6"/>
		<polygon class="st1" points="3204.7,3515.4 3174.3,3524.1 3110.8,3306.5 3134.8,3306.5 		"/>
		<polygon class="st7" points="3278.8,3485.1 3204.7,3515.4 3134.8,3306.5 3191.2,3306.5 		"/>
		<rect x="2616.1" y="2239.5" class="st2" width="454.7" height="315.8"/>
		<polygon class="st2" points="3318.9,2274.9 3367.2,2274.9 3367.2,2292.9 3367.2,2448.9 3318.9,2448.9 		"/>
		<path class="st1" d="M3401.7,2294.3l-34.5-1.4v94.6c0,0,29.7-3.5,34.5-16.6C3406.6,2357.8,3401.7,2294.3,3401.7,2294.3z"/>
	</g>
	<ellipse class="st2" cx="3719.1" cy="1724.3" rx="189.1" ry="187.6"/>
	<ellipse class="st2" cx="1159.9" cy="3387.1" rx="153.4" ry="152.1"/>
</g>
</svg>
