<?xml version="1.0" encoding="utf-8"?>
<!-- Generator: Adobe Illustrator 22.0.0, SVG Export Plug-In . SVG Version: 6.00 Build 0)  -->
<svg version="1.1" id="Layer_1" xmlns="http://www.w3.org/2000/svg" xmlns:xlink="http://www.w3.org/1999/xlink" x="0px" y="0px"
	 viewBox="0 0 4000 4000" style="enable-background:new 0 0 4000 4000;" xml:space="preserve">
<style type="text/css">
	.st0{fill:url(#SVGID_1_);}
	.st1{fill:url(#SVGID_2_);}
	.st2{fill:url(#SVGID_3_);}
	.st3{clip-path:url(#XMLID_3_);fill:#FFFFFF;}
	.st4{fill:#FFFFFF;stroke:#1A1A1A;stroke-width:2;stroke-linecap:round;stroke-linejoin:round;stroke-miterlimit:10;}
	.st5{fill:#DB6767;}
	.st6{fill:#FC9590;}
	.st7{fill:#1A1A1A;stroke:#1A1A1A;stroke-width:2;stroke-linecap:round;stroke-linejoin:round;stroke-miterlimit:10;}
	.st8{fill:#102140;}
	.st9{fill:#FFB114;}
	.st10{fill:#FFDE70;}
	.st11{fill:none;stroke:#FFFFFF;stroke-width:3;stroke-linecap:round;stroke-linejoin:round;stroke-miterlimit:10;}
	.st12{fill:#C7BFC7;}
	.st13{fill:#DBD2DB;}
	.st14{fill:#572658;}
	.st15{fill:#EB485C;}
	.st16{fill:none;stroke:#1A1A1A;stroke-width:3;stroke-linecap:round;stroke-linejoin:round;stroke-miterlimit:10;}
	.st17{fill:#FFFFFF;}
	.st18{fill:#339E7E;}
	.st19{fill:#127755;}
	.st20{fill:#EF5164;}
	.st21{fill:#F0E5BE;}
	.st22{fill:#BECCE6;}
	.st23{fill:#193566;}
	.st24{fill:#5C7199;}
	.st25{fill:#1B3970;}
	.st26{fill:url(#SVGID_4_);}
	.st27{fill:url(#SVGID_5_);}
	.st28{fill:#805809;}
	.st29{fill:#A8750C;}
</style>
<g>
	<linearGradient id="SVGID_1_" gradientUnits="userSpaceOnUse" x1="419.322" y1="1921.75" x2="3615.3267" y2="1921.75">
		<stop  offset="0" style="stop-color:#68B2FC"/>
		<stop  offset="1" style="stop-color:#529BF7"/>
	</linearGradient>
	<path class="st0" d="M427.8,1812.1c-60.2,369.9,208.4,787,537.6,929.7c215.5,93.4,284.4-5.7,543.9,94.9
		c334.9,129.8,343.1,342.6,588.1,455.4c376.2,173.1,978.6-42.2,1290.1-468c316-432,218.4-924.7,196-1024.6
		c-84.1-375.9-313.6-601.8-398.4-683C2747.3,697,2187.5,695.7,2053.1,699c-0.2-64.9-12.8-137.2-63.2-177.1
		c-120.7-95.6-380,56.7-531.2,145.5c-127,74.6-368.3,233.5-670.4,594.5C564.1,1529.8,452,1663.8,427.8,1812.1z"/>
	<linearGradient id="SVGID_2_" gradientUnits="userSpaceOnUse" x1="297.9566" y1="1526.9043" x2="433.0137" y2="1526.9043">
		<stop  offset="0" style="stop-color:#4085F0"/>
		<stop  offset="1" style="stop-color:#275DC9"/>
	</linearGradient>
	<path class="st1" d="M433,1526.9c0,37.3-30.2,67.5-67.5,67.5c-37.3,0-67.5-30.2-67.5-67.5s30.2-67.5,67.5-67.5
		C402.8,1459.4,433,1489.6,433,1526.9z"/>
	<linearGradient id="SVGID_3_" gradientUnits="userSpaceOnUse" x1="545.012" y1="1928.1029" x2="3533.3376" y2="1928.1029">
		<stop  offset="0" style="stop-color:#4085F0"/>
		<stop  offset="1" style="stop-color:#275DC9"/>
	</linearGradient>
	<path class="st2" d="M1400.9,551.9c403.5-67.7-57.1,336,523.1,106.7c580.2-229.3,1303.1-34.7,1386.8,762.3
		c10.5,122.4-3.7,249.8,39.4,364.8c31.6,84.3,91.7,155,129.2,236.9c66.8,145.9,57.1,313.8,45.9,473.9
		c1.1,321.7-130.1,670.2-459,778.5c-172.8,61.6-371.5,46-532.7-41.6c-83-45.1-157.8-108.9-249.3-132.4
		c-141.4-36.3-285.6,30.8-427,67.3c-324,83.7-687-2.7-938.6-223.4s-384.5-569.4-343.7-901.6c16.1-131.3,57.5-263.1,34.2-393.3
		c-15.8-88.6-61.1-171.5-64.2-261.5c-3.1-90.5,48.4-137.5,115-185c54.9-39.2,81.6-97.2,120-151.7
		C935.2,831.7,1135.4,596.5,1400.9,551.9z"/>
	<g>
		<defs>
			<path id="XMLID_8_" d="M1400.9,551.9c403.5-67.7-57.1,336,523.1,106.7c580.2-229.3,1303.1-34.7,1386.8,762.3
				c10.5,122.4-3.7,249.8,39.4,364.8c31.6,84.3,91.7,155,129.2,236.9c66.8,145.9,57.1,313.8,45.9,473.9
				c1.1,321.7-130.1,670.2-459,778.5c-172.8,61.6-371.5,46-532.7-41.6c-83-45.1-157.8-108.9-249.3-132.4
				c-141.4-36.3-285.6,30.8-427,67.3c-324,83.7-687-2.7-938.6-223.4s-384.5-569.4-343.7-901.6c16.1-131.3,57.5-263.1,34.2-393.3
				c-15.8-88.6-61.1-171.5-64.2-261.5c-3.1-90.5,48.4-137.5,115-185c54.9-39.2,81.6-97.2,120-151.7
				C935.2,831.7,1135.4,596.5,1400.9,551.9z"/>
		</defs>
		<linearGradient id="XMLID_2_" gradientUnits="userSpaceOnUse" x1="545.012" y1="1928.1029" x2="3533.3376" y2="1928.1029">
			<stop  offset="0" style="stop-color:#4085F0"/>
			<stop  offset="1" style="stop-color:#275DC9"/>
		</linearGradient>
		<use xlink:href="#XMLID_8_"  style="overflow:visible;fill:url(#XMLID_2_);"/>
		<clipPath id="XMLID_3_">
			<use xlink:href="#XMLID_8_"  style="overflow:visible;"/>
		</clipPath>
		<path class="st3" d="M419.3,2013.8c0,0,163.5-5.9,606.2,111.8s521.8-80.4,647.4-223.4c125.7-142.9,420,177.5,655.5,164.5
			c235.5-13.1,199.2-160.2,501.8-189.7c302.7-29.4,852.1,27.1,852.1,27.1v403l-3234.5,16.6L419.3,2013.8z"/>
	</g>
	<path class="st4" d="M3430.2,2944.8c-1.5,3.2-3.1,6.3-4.7,9.5C3427,2951.1,3428.6,2948,3430.2,2944.8L3430.2,2944.8z"/>
	<g>
		<path class="st5" d="M1589.4,2075.4c-4.6,0-9.2,6.9-11.5,6.9c-66.5,6.9-112.4-50.5-130.8-107.8c-18.4-55.1-36.7-105.5-45.9-162.9
			c-11.5-80.3-39-146.8-68.8-220.2c-6.4-15.9-7.2-33.9-8.7-51.9c-1.8,4.5-3.1,8.8-3.5,12.8c-2.7,28.1,6.2,68.9,23.6,98
			c13.9,23.2,21.5,33.5,23,46.5c7.9,156.1,72.2,393.2,175.9,407.8c63.4,8.9,104.8-45.3,127.6-90.4
			C1649.4,2041.3,1624.9,2064.8,1589.4,2075.4z"/>
		<path class="st6" d="M1765.7,1637.3c0,0-89.9,9.6-126.2,115.8c-36.3,106.1-56.5,207.7-88.7,209c-31.2-54.6-99.7-191.2-111.6-261.7
			c-2.1-12.5-2.4-23.2-0.2-31.3c12.7-47.4,11.9-37.4,13.1-67.4c1.1-30,18.1-41.6,25.8-50.1c7.7-8.5-13.1-25.4-34.7-4.3
			c-13.1,17.7-13.5,20.4-13.5,20.4s-29.3-72.8-46.2-80.9c-14.5-6.9-48.6,25.5-59.7,52.6c1.4,18,2.3,36.1,8.7,51.9
			c29.8,73.4,57.3,139.9,68.8,220.2c9.2,57.3,27.5,107.8,45.9,162.9c18.4,57.3,64.2,114.7,130.8,107.8c2.3,0,6.9-6.9,11.5-6.9
			c35.5-10.6,60-34.1,81.1-61.3c14.8-29.4,21.8-54.9,21.8-56.5C1692.3,1953.7,1765.7,1637.3,1765.7,1637.3z"/>
		<path class="st6" d="M2089.5,1910.3c18.4,66.5,16.1,133,45.9,195c9.2,18.4,32.1,34.4,52.8,20.6
			c107.8-64.2,128.5-192.7,169.7-302.8c11.5-29.8,27.5-55.1,59.6-64.2c43.6-13.8,89.5,9.2,130.8-9.2c11.1-5.1,20.5-12.4,28.4-21.1
			c0.2-12.6-9.5-24.9-28.4-33.4c-35.4-15.8-121.2-0.4-121.2-0.4s48.3-15,52.9-25.4c4.6-10.4-4.2-17.1-55.4-7.1
			c-51.2,10-75,43.7-120.2,130c-41.5,79.3-55,94.9-104.8,206.2c-10.9-74.1-13-63.8-23.5-166.1c-15.4-133.8-105.2-146.3-105.2-146.3
			s-16.7,53.8-9.4,160.1C2080.5,1859.3,2084.3,1888,2089.5,1910.3z"/>
		<path class="st5" d="M2548.2,1749.7c-41.3,18.4-87.2-4.6-130.8,9.2c-32.1,9.2-48.2,34.4-59.6,64.2
			c-41.3,110.1-61.9,238.6-169.7,302.8c-20.6,13.8-43.6-2.3-52.8-20.6c-29.8-61.9-27.5-128.5-45.9-195c-5.1-22.3-9-50.9-27.8-64
			c3,43.1,9.9,94.8,23.4,155.1c27.1,169.4,100.4,176.8,161.1,111.7c83.4-89.5,137.5-343.4,167.1-343c21.2,0.3,59.3,9,95.5,10.2
			c14.4,0.5,34.8-15.4,43.7-20.4c16.1-8.9,24-20.2,24.2-31.2C2568.7,1737.4,2559.4,1744.6,2548.2,1749.7z"/>
		<path class="st7" d="M1970.2,1521.5c0,0-18.4,41.1,5,100.8s42.7,71,45.2,71.8c2.4,0.8,50,16.1,50,16.1s62.9-120.2,46.8-164.6
			c-16.1-44.4-59.7-102.4-59.7-102.4L1970.2,1521.5z"/>
		<path class="st8" d="M1949.5,1284c25.4-18.2,16.7-41.9,4.4-42.8c0,0-10.3-23-59.5,4.4c-49.2,27.4-59.7,169.4-62.1,221
			c-2.4,51.6-58.3,117.6-60.7,161.7c-2.4,44.2,0,38.5,0,38.5l128.8-61.5l19.5-50.5"/>
		<path class="st9" d="M2099.7,1732.9c2.2,42.2,1.5,84.6-10.2,124.6c-36.7,119.2-57.3,238.4-126,350.7l110.2-0.9
			C2073.6,2207.3,2129.2,1853.2,2099.7,1732.9z"/>
		<path class="st10" d="M2099.7,1732.9c-3.9-15.8-9.3-27.6-16.4-34c-61.6-55.1-134-71.2-185.1-67.2c-51.1,4-107.5-17.5-151.8,20.2
			c-7.3,6.2-14,16.3-20.1,29.1c-20.1,145.7-73.2,297.9,0.8,433.5c20.9,38.3,48.1,69.6,79.7,95.1l156.8-1.3
			c68.7-112.3,89.3-231.5,126-350.7C2101.1,1817.5,2101.9,1775.1,2099.7,1732.9z"/>
		<path class="st9" d="M1727,2114.4c-74-135.6-20.9-287.9-0.8-433.5c-31.4,65.1-48.9,200.9-59,253.7c-12.1,63.1-3.4,276.1-3.4,276.1
			l142.9-1.2C1775.1,2184.1,1747.9,2152.7,1727,2114.4z"/>
		<path class="st6" d="M1867.2,1598.3c-13.4,14.4-31.3,26.4-55.1,30.9c60.5,40.8,164.4,50.6,209.9,28.2
			c-21.1-23.1-32-56.6-36.5-85.2C1951.8,1596.6,1909.8,1607.1,1867.2,1598.3z"/>
		<path class="st5" d="M1985.4,1572.2c-1.3-8.2-2.1-16.1-2.5-23.1c-37.2-19.5-79.5-22.2-79.5-22.2s-7.8,40.8-36.3,71.4
			C1909.8,1607.1,1951.8,1596.6,1985.4,1572.2z"/>
		<path class="st8" d="M1974.4,1284c-9.6-5.2-30.9-25.3-20.4-46c3.2-6.2,17.7-13.2,25.6-19c22.2-16.1,55.3-9.2,94,13.2
			c38.7,22.4,81,88.9,77.4,191.7c-3.6,102.8,13.3,202.1,30.2,261.4c16.9,59.3,30.2,199.2-23.4,167c-31.9,28.6-64.1,0-80.7-24.2
			c-33.1-3.2-53.6-69-27-122.2c26.6-53.2,35.1-84.7,29-126.6c-6-41.9-43.2-177.1-43.8-180.7C2034.9,1394.9,1974.4,1284,1974.4,1284z
			"/>
		<path class="st6" d="M2086.5,1399.3c-7.3-1.5-13.7-0.9-18.7,0.1c1.5-13.6,1.8-22.3,1.8-22.3s0.9-8.9-1-21.5
			c-16.5,7.5-33.6,9.1-52.5-5.1c-20.6-16.1-27.5-55.1-55.1-43.6c-41.3,18.4-78,57.3-78,105.5c-2.3-4.6-9.2,0-11.5-2.3
			c-6.9-11.5-20.6-27.5-27.5-20.6c-14.4,12.3,4.3,30.1,6.8,46.9c3.6,1.8,7,2.7,10.1,2.4c0.4,0,0.8-0.1,1.2-0.1
			c3.8,47.1,17.8,97.8,58,116.2c8.1,3.7,17.3,6.1,27.7,6.9c60.5,4.6,91.1-45.8,106.4-95.1c10.2,0.2,25.6-7.6,33.9-17.4
			C2099,1436.4,2103.8,1402.8,2086.5,1399.3z"/>
		<path class="st5" d="M1844,1389.6c6.9-6.9,20.6,9.2,27.5,20.6c2.3,2.3,9.2-2.3,11.5,2.3c0-48.2,36.7-87.2,78-105.5
			c27.5-11.5,34.4,27.5,55.1,43.6c18.9,14.2,36,12.5,52.5,5.1c-4.3-29.3-23.5-78.6-103.4-82.6c-3.5-0.3-6.9-0.5-10.1-0.6
			c-1.1,3.9-2.9,7.8-5.6,11.5c-13.5,19-72.8,68.6-72.8,79c-2.8,33.9-1.2,40.3-3.2,38.7c-2-1.6-14.7-18.1-14.7-17.4
			c-4.3-4.5-9.3-15.1-16.5-17.1c-6.6-1.9-12.8,0.5-15.5,13.1c-3.6,16.6,1.1,31.6,8.7,42.2c4.5,6.3,10,11.1,15.3,13.8
			C1848.3,1419.7,1829.7,1401.9,1844,1389.6z"/>
		<path class="st11" d="M1770.1,1637.3c0,0-12.1,217,4,263.5c16.1,46.6,106.6,73.4,159.4,64.5c52.8-9,72.5-39,84.6-98.3
			c12.1-59.3,33.9-192.4,33.9-192.4"/>
		<path class="st8" d="M1978.4,1261.4c0,0-33.9,16.5,17.3,62.1c45.6,37.1,56.5,38.3,56.5,38.3s-9.7,40.7,6,50.4
			c8.1-19,25.6-18.6,25.6-18.6s15.1-62.9-4.2-91.4C2060.3,1273.9,1978.4,1261.4,1978.4,1261.4z"/>
	</g>
	<path class="st12" d="M802.6,2375.9c13.8,9.2,36.7,4.6,57.3,6.9c73.4,6.9,144.5,6.9,220.2-11.5c13.8-2.3,27.5,4.6,36.7-2.3
		c9.2-6.9,20.6-4.6,29.8-9.2c6.9-4.6,18.4-9.2,27.5-9.2c87.2-16.1,167.5-2.3,222.5,78c59.6,82.6,103.2,160.6,185.8,217.9
		c32.1,22.9,64.2,36.7,100.9,45.9c119.3,22.9,247.7,32.1,332.6-57.3c20.6-20.6,48.2-41.3,57.3-68.8c4.6-16.1,13.8-20.6,20.6-32.1
		c32.1-57.3,18.4-119.3,29.8-183.5c2.3-20.6,20.6-43.6,41.3-52.8c13.8-6.9,39-11.5,48.2-11.5c440.6-14.5,880.1-12,1319.3-9.3
		c-0.9-27.1-2.8-54.2-6.2-81.2H668.7C678.3,2276.7,735.7,2332,802.6,2375.9z"/>
	<path class="st13" d="M2213.3,2286.5c-9.2,0-34.4,4.6-48.2,11.5c-20.6,9.2-39,32.1-41.3,52.8c-11.5,64.2,2.3,126.2-29.8,183.5
		c-6.9,11.5-16.1,16.1-20.6,32.1c-9.2,27.5-36.7,48.2-57.3,68.8c-84.9,89.5-213.3,80.3-332.6,57.3c-36.7-9.2-68.8-22.9-100.9-45.9
		c-82.6-57.3-126.2-135.3-185.8-217.9c-55.1-80.3-135.3-94.1-222.5-78c-9.2,0-20.6,4.6-27.5,9.2c-9.2,4.6-20.6,2.3-29.8,9.2
		c-9.2,6.9-22.9,0-36.7,2.3c-75.7,18.4-146.8,18.4-220.2,11.5c-20.6-2.3-43.6,2.3-57.3-6.9c-66.9-43.9-124.3-99.3-133.9-179.9H568.4
		c9.4,283,137.2,561.6,350.4,748.8h2511.4c97.7-193.9,96.9-414.4,103.2-626.4c0-13.7-0.2-27.5-0.7-41.2
		C3093.5,2274.5,2654,2272,2213.3,2286.5z"/>
	<path class="st14" d="M3430.1,2944.8c-6.4,13.3-13.3,26.4-20.5,39.2H966.5c-16.3-12.6-32.2-25.7-47.7-39.2H3430.1z"/>
	<g>
		<line class="st4" x1="1250.6" y1="599.2" x2="1250.6" y2="855.9"/>
		<path class="st7" d="M1358.8,1027.6c-59.5-26.3-124.2-33.3-190.7-15.8c-12.9,3.2-27.7,7.8-38.5,16.4v59.6
			c47.4-28.6,113.3-17.6,166.2-13c22,2.7,47.4,6.9,71.6,14.5v-58.2C1364.5,1029.9,1361.7,1028.7,1358.8,1027.6z"/>
		<path class="st15" d="M1129.6,1087.9v47.5c78.9-18.9,158.2-18.8,237.8,0v-46.1c-24.3-7.6-49.6-11.8-71.6-14.5
			C1242.9,1070.3,1177,1059.3,1129.6,1087.9z"/>
		<path class="st15" d="M1358.8,1027.6c2.9,1.1,5.8,2.3,8.6,3.5v-58.8c0-6.6-0.6-13-1.6-19.3c-71.9-23-148.5-31.8-220.5-0.7
			c-7.7,2.9-12.2,9-15.6,16.2c0,1.3-0.1,2.5-0.1,3.8v55.9c10.8-8.7,25.6-13.2,38.5-16.4C1234.5,994.3,1299.3,1001.3,1358.8,1027.6z"
			/>
		<path class="st7" d="M1251,855.9h-5c-63,0-114.3,50.1-116.3,112.6c3.4-7.2,7.9-13.3,15.6-16.2c72-31.1,148.6-22.2,220.5,0.7
			C1356.6,897.9,1308.7,855.9,1251,855.9z"/>
	</g>
	<g>
		<line class="st4" x1="2391" y1="568.8" x2="2391" y2="892.7"/>
		<path class="st14" d="M2499.1,1064.4c-59.5-26.3-124.2-33.3-190.7-15.8c-12.9,3.2-27.7,7.8-38.5,16.4v59.6
			c47.4-28.6,113.3-17.6,166.2-13c22,2.7,47.4,6.9,71.6,14.5v-58.2C2504.9,1066.7,2502,1065.5,2499.1,1064.4z"/>
		<path class="st15" d="M2269.9,1124.7v47.5c78.9-18.9,158.2-18.8,237.8,0v-46.1c-24.3-7.6-49.6-11.8-71.6-14.5
			C2383.2,1107.1,2317.3,1096.1,2269.9,1124.7z"/>
		<path class="st15" d="M2499.1,1064.4c2.9,1.1,5.8,2.3,8.6,3.5v-58.8c0-6.6-0.6-13-1.6-19.3c-71.9-23-148.5-31.8-220.5-0.7
			c-7.7,2.9-12.2,9-15.6,16.2c0,1.3-0.1,2.5-0.1,3.8v55.9c10.8-8.7,25.6-13.2,38.5-16.4C2374.9,1031.1,2439.6,1038.2,2499.1,1064.4z
			"/>
		<path class="st14" d="M2391.3,892.7h-5c-63,0-114.3,50.1-116.3,112.6c3.4-7.2,7.9-13.3,15.6-16.2c72-31.1,148.6-22.2,220.5,0.7
			C2496.9,934.7,2449,892.7,2391.3,892.7z"/>
	</g>
	<path class="st16" d="M759.5,1082.6c0,0,196.2,31,234.5-226.6c86.9,30.6,248.6-53.6,256.6-143.5c154,138.5,335.5,211.5,500.2,80.5
		c175.9,136.6,364.9,116,451,7.5c99.2,50.5,174.5,26.2,189.2-41.2c48.4,80.5,211.2,185.3,355.3,93.6
		c116,159.1,318.1,186.2,404.9,96.2"/>
	<path class="st15" d="M1003.6,869.7c0,0-25.8,39.5,6.2,69.5C1029.3,928.7,1028.5,889.6,1003.6,869.7z"/>
	<path class="st15" d="M1726.5,796.9c0,0-22.1,18.7-7.7,51.6c14.4,32.9,37.7,43.2,37.7,43.2s19.4-43.8,4.2-70.9
		C1749.2,800.4,1726.5,796.9,1726.5,796.9z"/>
	<path class="st15" d="M3038.8,982.2c0,0,56-6,80.9,44.7C3081.5,1047.3,3046.5,1006.7,3038.8,982.2z"/>
	<line class="st4" x1="985.6" y1="797.3" x2="994" y2="855.9"/>
	<line class="st4" x1="1750.8" y1="792.9" x2="1750.8" y2="717.2"/>
	<line class="st4" x1="2201.7" y1="800.4" x2="2201.7" y2="583.1"/>
	<line class="st4" x1="2748.8" y1="847.2" x2="2748.8" y2="632.1"/>
	<polyline class="st14" points="3409.7,2984.1 966.5,2984.1 966.5,2984.1 	"/>
	<path class="st17" d="M2025.9,2582c0,0-194.6,1.9-224.5,18.7c-29.9,16.9-121.6,0-121.6,0l-194.6-277c0,0,73-22.5,138.5,0
		c65.5,22.5,102.9,9.4,153.4,1.9c50.5-7.5,91.7,20.6,91.7,20.6L2025.9,2582z"/>
	<path class="st8" d="M2025.9,2582v16.4c0,0-138.7,7.5-191.1,17.3c-52.4,9.8-124.8,14.3-162.2,11c-9.2-3.3-187.5-272-187.5-272v-31
		l194.6,277c0,0,91.7,16.9,121.6,0C1831.2,2583.9,2025.9,2582,2025.9,2582z"/>
	<path class="st8" d="M1949.1,2365.6l90,131h17.2l-95.2-139.3C1954.9,2348.6,1941.1,2358.6,1949.1,2365.6z"/>
	<path class="st14" d="M2067.6,2529.4c-2.5-3.7-28.5-32.9-28.5-32.9h17.2L2067.6,2529.4z"/>
	<g>
		<path class="st18" d="M959.1,2126c0,0-58.2-89.8-143.9,7.5c-1.7-78.2,79.8-134.7,178.8-11.6"/>
		<path class="st19" d="M1004.8,2122.7c-142.2-189.6-264.5-124.8-264.5-124.8s52.4-68.2,132.2-49.1c79.8,19.1,170.5,122.1,183,184.6
			"/>
		<path class="st18" d="M1023.9,2120.2c0,0-40.8-266.2-184.6-311.1c100.6,0.8,204.5,118.1,222.9,311.1"/>
		<path class="st18" d="M1040.6,2120.2c0,0,52.4-111.5,27.4-206.3c-24.9-94.8-74-150.5-74-150.5s112.3,31.7,127.2,164.7
			c15,133-31.6,192.1-31.6,192.1"/>
		<path class="st19" d="M1072.2,2120.2c0,0,5.8-114.8,45.7-151.4c39.9-36.6,118.1-57.4,118.1-57.4s-74.7,66.5-101.8,111.5
			c-27.1,44.9-34.6,97.3-34.6,97.3"/>
		<path class="st19" d="M1110.4,2120.2c0,0,24.1-86.9,91.5-70.1c67.4,16.8,115.6,62.2,115.6,62.2s-24.9-76.1-83.2-93.6
			c-58.2-17.5-131.4,10.8-152.2,101.5"/>
		<path class="st18" d="M1136.2,2114.8c0,0,15.4-39.9,49.1-39.5c33.7,0.4,47,47,47,47s-32.4-29.5-48-17.5
			c-15.6,12.1-15.6,15.4-15.6,15.4"/>
		<path class="st8" d="M1200.7,2112.3c0,0-279.4,0-284.4,0c0,0-3.1,17.7-2.7,42.4h295.9C1206.7,2130,1200.7,2112.3,1200.7,2112.3z"
			/>
		<path class="st20" d="M913.6,2154.7c1.2,59.1,23.1,158.4,158.6,152.2c132.8-6,143.4-96.8,137.3-152.2H913.6z"/>
	</g>
	<rect x="2453.1" y="1367.5" class="st9" width="358" height="63.6"/>
	<rect x="2453.1" y="1431.1" class="st21" width="358" height="195.9"/>
	<g>
		<polygon class="st22" points="3022,2135.4 2811,2135.4 2811,1986.7 3008.9,1992.1 		"/>
		<polygon class="st23" points="3003.6,2122.4 2829.5,2122.4 2829.5,1999.7 2992.8,2004.1 		"/>
		<polygon class="st13" points="2981.5,2106.8 2851.5,2106.8 2851.5,2015.3 2973.4,2018.5 		"/>
		<polygon class="st8" points="2811,2135.4 2768.7,2135.4 2763.4,2000.7 2811,1986.7 		"/>
		<path class="st23" d="M2429.4,2156.5c0,0-83.7-11.7-81.3,137.3c2.5,149,67.7,138,87.4,138"/>
		<polygon class="st23" points="2524.3,2472.8 2531,2594.2 2713.3,2566.8 2713.3,2472.8 		"/>
		<rect x="2713.3" y="2457.7" class="st24" width="339.9" height="91.2"/>
		<polygon class="st8" points="3176.4,2457.7 3138.2,2478.6 2420.2,2471.9 2484.2,2457.7 		"/>
		<polygon class="st8" points="2484.2,2099.2 2484.2,2457.7 2420.2,2471.9 2420.2,2127.6 		"/>
		<rect x="2484.2" y="2099.2" class="st24" width="692.2" height="358.4"/>
		<rect x="2577.8" y="2548.8" class="st22" width="569.8" height="115.4"/>
		<path class="st24" d="M2577.8,2548.8c0,0-94.2,58.1-93.6,57.7c0.6-0.4,0,82.1,0,82.1s93.6-21.8,93.6-24.4
			C2577.8,2661.5,2577.8,2548.8,2577.8,2548.8z"/>
		<path class="st25" d="M2658.4,2905.8c-6.9,52.8,64.2,66.5,103.2,75.7c101.9,24,203.8,11.4,307.3,9.3c15.8-28.3,18.7-56.6,8.7-84.9
			C2936.6,2920.6,2797.5,2901.6,2658.4,2905.8z"/>
		<path class="st8" d="M2629.6,2864.6c-34.4,38.4-28.3,92.8,0,156h417.9c8.7-9.9,15.9-19.9,21.4-29.8
			c-103.4,2.1-205.4,14.7-307.3-9.3c-39-9.2-110.1-22.9-103.2-75.7c139.1-4.2,278.3,14.8,419.2,0.1c-5.8-16.2-15.8-32.5-30.1-48.7
			L2629.6,2864.6z"/>
		<path class="st24" d="M3098.8,2860.5c0,0-450.8,12.8-549.3,12.8c80.1-8.7,39.5-209.1,39.5-209.1h548
			C3155.5,2859.7,3098.8,2860.5,3098.8,2860.5z"/>
		<path class="st23" d="M2549.5,2873.3c-98.5,0-65.3-184.7-65.3-184.7l93.6-24.4h11.1C2589,2664.2,2629.6,2864.6,2549.5,2873.3z"/>
		<path class="st8" d="M2725.6,2709.4c0,0,45.2,140.4,0,183.9c28.7,0.8,28.7,0.8,28.7,0.8s21.3-13.1,14.8-105.5
			c-5.6-71.3-21.1-82.5-21.1-82.5L2725.6,2709.4z"/>
		<path class="st8" d="M2818,2709.4c0,0,45.2,140.4,0,183.9c28.7,0.8,28.7,0.8,28.7,0.8s21.3-13.1,14.8-105.5
			c-5.6-71.3-21.1-82.5-21.1-82.5L2818,2709.4z"/>
		<path class="st8" d="M2910.3,2709.4c0,0,45.2,140.4,0,183.9c28.7,0.8,28.7,0.8,28.7,0.8s21.3-13.1,14.8-105.5
			c-5.6-71.3-21.1-82.5-21.1-82.5L2910.3,2709.4z"/>
		<path class="st8" d="M3002.7,2709.4c0,0,45.2,140.4,0,183.9c28.7,0.8,28.7,0.8,28.7,0.8s21.3-13.1,14.8-105.5
			c-5.6-71.3-21.1-82.5-21.1-82.5L3002.7,2709.4z"/>
		<path class="st24" d="M3071.3,3087.1h-453.1c-6.7,0-12.1-5.4-12.1-12.1v-42.3c0-6.7,5.4-12.1,12.1-12.1h453.1
			c6.7,0,12.1,5.4,12.1,12.1v42.3C3083.4,3081.7,3078,3087.1,3071.3,3087.1z"/>
		<polygon class="st22" points="2748,3087.1 2635.2,3275.2 2574.9,3250.6 2664,3087.1 		"/>
		<polygon class="st8" points="2653,3281.2 2774.1,3087.1 2748,3087.1 2635.2,3275.2 		"/>
		<polygon class="st22" points="2915.3,3087.1 2922.8,3308.4 2853.7,3312.1 2853.7,3087.1 		"/>
		<polygon class="st8" points="3074.6,3273.4 3047.4,3281.2 2990.8,3087.1 3012.2,3087.1 		"/>
		<polygon class="st22" points="3140.7,3246.4 3074.6,3273.4 3012.2,3087.1 3062.5,3087.1 		"/>
		<rect x="2525.3" y="2118.6" class="st13" width="453.9" height="315.2"/>
		<rect x="2549.5" y="2135.4" class="st17" width="405.6" height="281.7"/>
		<polygon class="st22" points="3176.4,2167 3219.5,2167 3219.5,2183 3219.5,2322.2 3176.4,2322.2 		"/>
		<path class="st8" d="M3250.3,2184.2l-30.8-1.2v84.4c0,0,26.5-3.1,30.8-14.8C3254.6,2240.9,3250.3,2184.2,3250.3,2184.2z"/>
	</g>
	<linearGradient id="SVGID_4_" gradientUnits="userSpaceOnUse" x1="3364.6318" y1="1675.8353" x2="3702.0435" y2="1675.8353">
		<stop  offset="0" style="stop-color:#68B2FC"/>
		<stop  offset="1" style="stop-color:#529BF7"/>
	</linearGradient>
	<ellipse class="st26" cx="3533.3" cy="1675.8" rx="168.7" ry="167.3"/>
	<linearGradient id="SVGID_5_" gradientUnits="userSpaceOnUse" x1="1113.8365" y1="3159.0071" x2="1387.4135" y2="3159.0071">
		<stop  offset="0" style="stop-color:#68B2FC"/>
		<stop  offset="1" style="stop-color:#529BF7"/>
	</linearGradient>
	<ellipse class="st27" cx="1250.6" cy="3159" rx="136.8" ry="135.7"/>
	
		<ellipse transform="matrix(0.9239 -0.3827 0.3827 0.9239 -594.2177 1330.0116)" class="st23" cx="3046.1" cy="2158.7" rx="24.3" ry="24.3"/>
	
		<ellipse transform="matrix(0.9239 -0.3827 0.3827 0.9239 -588.3388 1359.5668)" class="st23" cx="3123.3" cy="2158.7" rx="24.3" ry="24.3"/>
	<circle class="st15" cx="3123.3" cy="2225.2" r="24.3"/>
	<circle class="st23" cx="3077.6" cy="2339.7" r="57.9"/>
	<path class="st28" d="M2851.5,1399.3l-40.4-31.8c0,0-0.7,27.3-1.4,64.2l40.7,14.7L2851.5,1399.3z"/>
	<path class="st29" d="M2809.7,1431.7c-1.5,77.2-3.2,196.4,1.4,195.3c6.8-1.7,35.1-8.3,35.1-8.3l4.1-172.3L2809.7,1431.7z"/>
	<rect x="2728.3" y="1464.2" class="st17" width="61.3" height="13.1"/>
	<rect x="2728.3" y="1491.2" class="st17" width="61.3" height="111.2"/>
	<rect x="2484.2" y="1508.5" class="st13" width="106.9" height="93.9"/>
</g>
</svg>
