<svg id="Layer_1" data-name="Layer 1" xmlns="http://www.w3.org/2000/svg" xmlns:xlink="http://www.w3.org/1999/xlink" viewBox="0 0 6000 4000"><defs><style>.Graphic-Style-188{fill:url(#linear-gradient);}.cls-1{fill:url(#linear-gradient-2);}.Graphic-Style-205{fill:url(#linear-gradient-3);}.Graphic-Style-193,.cls-18{fill:#1a1a1a;}.Graphic-Style-185,.cls-2{fill:#fff;}.cls-18,.cls-2{stroke:#1a1a1a;}.cls-12,.cls-18,.cls-2,.cls-4,.cls-6,.cls-7{stroke-linecap:round;stroke-linejoin:round;}.cls-12,.cls-18,.cls-2,.cls-4,.cls-6{stroke-width:5.44427px;}.cls-3{fill:#339e7e;}.cls-12,.cls-4,.cls-6,.cls-7{fill:none;}.cls-4{stroke:#10663f;}.cls-5{fill:#00593b;}.cls-6{stroke:#3dbe88;}.cls-7{stroke:#134411;stroke-width:8.16641px;}.Graphic-Style-201{fill:#572658;}.cls-8{fill:#2c132c;}.cls-9{fill:#684468;}.Graphic-Style-62{fill:#7d5b7d;}.Graphic-Style-199{fill:#dbd2db;}.cls-10{fill:#736e73;}.cls-11{fill:#f1f1f1;}.Graphic-Style-196{fill:#d1334a;}.Graphic-Style-197{fill:#eb485c;}.cls-12{stroke:#99112b;}.cls-13{fill:#fc9590;}.Graphic-Style-194{fill:#e8766f;}.Graphic-Style-195{fill:#db6767;}.Graphic-Style-187{fill:#102140;}.Graphic-Style-184{fill:#d9d9d9;}.cls-14{fill:#484548;}.cls-15{fill:#f8f7f8;}.cls-16{fill:#303030;}.cls-17{fill:#b8b8b8;}.Graphic-Style-198{fill:#912433;}.Graphic-Style-192{fill:#3b546b;}.Graphic-Style-191{fill:#6584c6;}.Graphic-Style-190{fill:#ccc4cc;}.Graphic-Style-189{fill:url(#linear-gradient-5);}.Graphic-Style-186{fill:#ffb114;}.Graphic-Style-60{fill:#664708;}.cls-19{opacity:0.3;fill:url(#linear-gradient-9);}</style><linearGradient id="linear-gradient" x1="848.15707" y1="2202.48526" x2="5184.85169" y2="2202.48526" gradientUnits="userSpaceOnUse"><stop offset="0" stop-color="#68b2fc"/><stop offset="1" stop-color="#529bf7"/></linearGradient><linearGradient id="linear-gradient-2" x1="2994.32048" y1="394.00887" x2="2908.937" y2="3429.0033" gradientUnits="userSpaceOnUse"><stop offset="0" stop-color="#4085f0"/><stop offset="1" stop-color="#275dc9"/></linearGradient><linearGradient id="linear-gradient-3" x1="1125.6996" y1="2408.95709" x2="5278.91602" y2="2408.95709" gradientUnits="userSpaceOnUse"><stop offset="0" stop-color="#68b2fc"/><stop offset="1" stop-color="#ebf0f7"/></linearGradient><linearGradient id="linear-gradient-5" x1="960.47414" y1="994.07181" x2="1224.26395" y2="994.07181" xlink:href="#linear-gradient-2"/><linearGradient id="linear-gradient-9" x1="1602.92117" y1="1166.31737" x2="1864.89319" y2="2930.26234" gradientUnits="userSpaceOnUse"><stop offset="0" stop-color="#ffde70"/><stop offset="1" stop-color="#ebf0f7" stop-opacity="0"/></linearGradient></defs><title>6</title><path class="Graphic-Style-188" d="M1105.77677,1495.88671C1003.13246,1693.3073,840.212,2073.38683,848.45835,2566.3602c5.43,324.61,12.315,736.20513,267.61114,957.25007,383.1856,331.77655,873.0988-157.86457,1914.44846-102.93,1016.69385,53.63381,1448.97521,567.80257,1790.9356,298.49726,226.85489-178.6559,27.38046-387.34648,305.08229-1072.67667,186.514-460.291-112.27378-537.62081-362.97856-824.29459-242.54836-277.34725-657.77-1021.03406-1352.20816-1118.88159C2620.05475,591.83,2060.38131,512.97105,1589.53516,857.7199,1319.44285,1055.4789,1178.89138,1319.18,1105.77677,1495.88671Z"/><path class="cls-1" d="M614.25823,1836.57971c129.35855,102.93072,309.25333,275.6621,422.00207,535.23682,206.92657,476.39482-17.81978,772.17863,174.97652,1070.4732,217.57429,336.6312,755.966,350.08328,1163.07889,360.25555,613.11291,15.3192,702.03767-162.61288,1543.91009-277.91127,871.4654-119.35108,1166.11729,17.90634,1317.47-205.86027,93.459-138.17394,58.69514-305.2161-339.66033-1348.38475C4616.15861,1237.47887,4474.32389,868.92546,4381.39882,766.1064,3797.377,119.90187,2614.59521-61.20456,2189.04654,364.67886c-225.50621,225.6836-148.66757,532.04444-463.173,761.683-148.9429,108.75176-232.86194,23.56485-669.02778,164.6882-277.76477,89.872-383.01876,159.024-432.2948,267.61841C577.82965,1661.63236,595.47171,1769.11443,614.25823,1836.57971Z"/><path class="Graphic-Style-205" d="M5235.69584,3318.7737c93.459-138.17405,58.69509-305.216-339.6604-1348.38473-170.4589-446.37868-289.71107-757.59786-377.89576-955.94736-228.20928,244.21612-678.525,724.55091-1121.50645,1188.04363-401.87363,420.48149-1515.7666,516.44663-2269.46434,530.83123,22.92849,280.62138-54.77969,494.148,84.06792,708.97322,217.57426,336.63122,755.966,350.08307,1163.079,360.25553,613.11291,15.319,702.03761-162.61281,1543.90991-277.91121C4789.69115,3405.283,5084.34308,3542.54023,5235.69584,3318.7737Z"/><path class="Graphic-Style-193" d="M4732.994,1189.20674s58.15136,585.0542,33.66909,657.3474-138.53366,408.497-100.7204,470.4868,106.085,198.46646,71.46649,244.25471-90.11936,157.41668-15.50639,355.16851-15.97953,523.90151-15.97953,523.90151l-40.41117-5.49147s45.30712-323.24558,29.29254-399.57323-53.53155-305.31061-28.95146-415.27418l24.58009-109.96356s-76.83481-1.46485-98.82753-36.15465c16.818-10.10971,36.2233,2.58738,36.2233,2.58738s38.02414,3.81242,60.01686-6.53709c-63.39077-102.20143-84.73679-182.41015-78.59169-232.864l6.1451-50.45387s75.14352-219.12992,66.03292-251.22391c-59.56447-76.07941-49.49012-99.36581-49.49012-99.36581l11.22608-2.58738s49.85246,90.55823,56.32091,89.26454,63.39076-28.46115,45.27911-125.48783,10.78728-237.76312-3.01534-289.00166-19.99093-215.53706-19.99093-215.53706l-2.06567-114.67716Z"/><path class="cls-2" d="M5010.21554,1879.49237c-20.77276,38.83406-288.52437,35.52119-423.49594,31.33623q-2.16721-8.78057-4.13436-17.48647-3.6248-15.69312-6.72541-31.13707C4678.97509,1855.35491,5034.05122,1834.904,5010.21554,1879.49237Z"/><path class="cls-3" d="M5030.90441,1526.53009c5.10692,23.05471,22.369,40.69449,35.44284,50.99985q12.33621,1.61209,25.15042,2.44469c37.46721,2.44472,73.30165-13.83229,104.9811-37.588-22.24857-5.44149-70.807-19.11193-83.59272-37.55438-16.76466-24.14647-1.19386-28.38741,7.15064-18.00418,8.62814,15.45633,67.08743,34.14369,93.3681,41.885a420.21389,420.21389,0,0,0,42.88165-43.59186c-21.63113-1.04089-50.71541-8.197-58.89935-18.90824-10.61187-13.8875,2.36277-21.59258,12.84385-12.77392,7.68909,6.4762,43.92426,9.94411,62.63088,11.34252a590.12812,590.12812,0,0,0,44.73362-66.31053c.69362-1.21988,1.06041-1.88766,1.06041-1.88766a700.49081,700.49081,0,0,0-64.28231-65.38785c-14.9754,3.16919-37.65179,8.53218-49.60009,14.185-18.79813,8.89128-31.0398,18.441-36.71139,11.34226-9.2251-16.78913,42.75895-32.12938,70.71982-39.03413a477.55574,477.55574,0,0,0-55.7515-40.68492c-87.69119,7.16681-83.86369,66.79459-103.24738,47.07971-16.79624-17.08857,53.29192-47.502,82.11832-59.04212-19.58068-10.09772-39.63863-17.59819-59.29143-20.66763-18.05416-2.07828-34.57893-3.32009-49.6792-3.81166-41.73363,27.67214-17.47088,74.84025-41.06138,65.95325-18.42411-6.94038,4.48809-45.9522,17.9225-66.14075-203.95562,4.07108-104.40532,163.81723-104.40532,163.81723-.30545.65276-.58762,1.29854-.88223,1.94769-39.55356,87.21256,17.40761,143.66463,107.05517,165.06449-5.17164-16.35831-14.47976-46.36608-15.25819-52.2573C5015.19044,1510.754,5027.84284,1506.4577,5030.90441,1526.53009Z"/><path class="cls-4" d="M5279.96751,1399.41374s-246.52443,17.16021-354.58739,4.77657"/><path class="cls-4" d="M5177.95426,1463.12681s-41.23356-20.21647-73.91417-55.44826"/><path class="cls-4" d="M5128.70493,1342.81648s-59.61718,39.9462-60.95154,65.60569"/><path class="cls-4" d="M5075.25309,1510.11981s-51.09256-67.46636-59.768-101.52131"/><path class="cls-4" d="M4975.79913,1330.95424s-33.39949,38.88948-20.67218,75.746"/><path class="cls-5" d="M4389.53276,1417.28871q21.108-4.47858,41.54406-7.505c22.97237,10.69927,53.91947,31.34277,65.7933,66.27367,8.07144,31.04274,28.12845,18.33706,25.06145,5.60355-2.17215-9.16567-21.98341-53.41937-32.94291-77.49917,151.13178-6.29752,253.40814,59.99016,199.26168,221.5357,0,0,187.31264,212.80981-145.94175,312.28893,18.91514-38.74487,50.47575-112.22553,19.25768-115.04915-39.9719-3.61622,6.9357,61.55735-57.16475,125.28569-24.79388,6.08334-52.03409,11.6036-81.90541,16.468-32.63952,3.99184-66.61746,1.00731-100.21021-6.39284,45.4295-31.77873,155.52824-112.85209,125.42784-132.8174-34.736-23.03057-19.38132,71.58605-161.83943,123.11022-34.18427-10.62491-67.28792-24.98674-97.46628-40.354,44.71943-23.89421,127.47915-72.3627,109.81825-95.29216-10.366-8.88866-28.95017,12.12025-58.36754,35.05105-18.6977,14.57725-55.00163,33.57279-79.0333,45.51575-67.93274-37.91416-115.1965-76.38822-115.1965-76.38822s23.37637-58.54681,64.56947-131.06906c30.83612-6.2613,90.68144-17.16137,104.25583-10.1984,18.50152,9.47774,38.56666-8.88414,19.0783-26.49293-15.02974-13.58207-63.73125-11.89852-99.30026-3.7287A904.49877,904.49877,0,0,1,4197.785,1555.657c44.201.53892,142.74759,4.11124,159.22782,25.159,15.24213,12.97891,40.0854-.96728,8.96126-32.35259-23.74167-23.97937-105.315-23.95336-142.56548-22.613C4271.64687,1473.03035,4327.82679,1430.40429,4389.53276,1417.28871Z"/><path class="cls-6" d="M4108.53036,1794.92671s400.94409-140.021,579.73038-169.23034"/><path class="cls-6" d="M4265.81432,1645.49848s70.58069,13.88889,129.44892,55.93874"/><path class="cls-6" d="M4364.77351,1817.49078s91.50437-91.70927,89.77759-133.78351"/><path class="cls-6" d="M4426.773,1522.777s93.92186,85.75537,113.31432,136.83754"/><path class="cls-6" d="M4616.88792,1767.01333s48.74717-78.05966,22.29478-131.82368"/><path class="cls-7" d="M4924.50426,1406.13936s-125.04641,37.20377-96.838,307.04676"/><path class="Graphic-Style-193" d="M4794.08227,1732.71924s-131.82756-148.474,112.99809-297.97994c-33.93687,58.25537-158.22007,123.83565-70.33288,272.17074,36.396,84.40854-17.16571,120.30268-17.16571,120.30268S4739.87886,1833.93628,4794.08227,1732.71924Z"/><path class="cls-3" d="M4595.99912,1911.99476q-2.20589-15.588-3.07012-30.76806c12.71885-18.01483,35.90145-42.70347,71.01939-53.99719,30.95719-8.16915,20.65732-22.41126,7.98365-19.2439-9.119,2.25317-54.09358,20.15072-78.58386,30.02452,9.22388-113.34635,83.95941-194.80868,235.30185-164.93967,0,0,225.61758-155.35618,288.37666,88.8081-35.69608-11.62684-103.8323-30.43107-109.74184-6.74-7.56745,30.33439,60.46725-9.37161,115.833,34.58594a569.78587,569.78587,0,0,1,7.67575,60.54748c.563,24.30165-5.78283,50.08124-16.37654,75.86858-26.2421-32.05636-93.77916-109.47161-116.21741-85.4661-25.88462,27.7018,67.53286,9.76349,103.09784,113.531-13.78451,26.45-31.08737,52.33859-49.06949,76.09277-18.65944-32.05343-57.31638-91.08642-81.37-76.24541-9.68163,8.40278,8.829,20.97628,28.106,41.57538,12.25485,13.09265,27.01243,39.14123,36.16844,56.42686a926.10845,926.10845,0,0,1-85.85293,91.86954,1087.88,1087.88,0,0,1-120.69634-39.77023c-2.94937-22.79105-7.45828-67.10726.67939-77.79544,11.07919-14.56684-4.71123-28.4337-23.78465-12.57575-14.71155,12.23-18.01963,48.77869-13.69769,75.004-27.2063-12.05516-55.03852-26.0002-80.90524-41.77537,5.009-33.31058,18.47841-107.73659,40.58524-121.56192,14.14754-12.34926,3.129-30.11079-30.50028-4.56463-25.69,19.48936-33.94336,80.89546-36.42252,108.847C4638.15241,1996.9801,4602.47014,1957.56228,4595.99912,1911.99476Z"/><path class="cls-4" d="M4934.11351,2098.06947S4838.8637,1805.68236,4828.65,1673.0627"/><path class="cls-4" d="M4805.00234,1989.74228s20.64713-54.0691,67.44585-101.21987"/><path class="cls-4" d="M4982.02528,1903.65005s-79.75009-62.70043-120.7734-58.5637"/><path class="cls-4" d="M4702.19256,1876.84813s92.788-76.48571,144.34956-94.52839"/><path class="cls-4" d="M4958.60516,1717.26348s-70.83756-31.43342-125.71929-7.89525"/><path class="cls-3" d="M4525.084,1050.1779q12.27845,8.7104,23.45012,17.8889c4.84919,18.34326,7.97588,46.60007-5.59064,72.81444-13.2117,21.97318,3.07493,25.44059,8.60784,16.55742,3.99916-6.37523,18.96582-42.12956,27.026-61.68038,73.82543,77.0321,85.21744,169.31521-28.31335,232.375,0,0-29.10775,221.03487-238.6894,99.889,29.9901-11.96169,84.8588-36.94768,71.86405-55.207-16.63814-23.37984-30.42251,38.73453-95.11369,40.81274-14.87228-9.76318-30.576-21.15177-47.14648-34.31711-17.38264-15.13856-31.5747-34.9616-43.17342-57.09229,38.52966,6.14625,134.12469,18.73252,131.02156-8.68666-3.5862-31.63642-48.161,30.40434-142.67181-16.26068-10.11127-24.28156-17.67637-50.11355-23.32949-74.95737,33.88863,10.25491,98.92717,26.81489,103.23761,4.34413.0318-10.58833-20.10817-8.54437-46.34388-11.18521-16.67677-1.67714-43.96823-10.23111-61.68891-16.25278a710.17054,710.17054,0,0,1-11.88716-104.92357s42.89315-20.85211,101.72378-40.15449c17.78347,12.88494,51.61258,38.60377,54.12767,49.8075,3.43489,15.26322,22.81748,15.51578,23.36814-4.90155.4257-15.74725-23.17516-40.7673-44.2061-55.09063a638.11128,638.11128,0,0,1,78.786-17.30977c20.29,23.88432,64.23057,78.4839,60.399,99.25389.00293,15.51726,19.19672,20.83172,21.86-13.63314,2.05258-26.3119-35.95067-69.80972-54.03109-88.91692C4439.711,1019.02047,4489.1772,1024.72751,4525.084,1050.1779Z"/><path class="cls-4" d="M4187.771,1115.2162s263.26866,134.17859,362.49847,212.922"/><path class="cls-4" d="M4342.70893,1114.06823s25.27686,45.55371,29.704,100.88739"/><path class="cls-4" d="M4294.769,1264.74288s92.75006-3.38564,114.94726-28.253"/><path class="cls-4" d="M4484.758,1130.08035s-3.14141,98.90655-22.03614,138.32386"/><path class="cls-4" d="M4439.77493,1370.49618s65.37581-18.42449,82.44883-63.134"/><path class="cls-3" d="M4912.41132,1227.84541c18.10761-4.588,30.249-18.25826,36.95859-28.51861q-.27063-9.43424-1.237-19.20835c-2.81709-28.57865-20.66115-55.34447-44.05864-78.72131-1.5742,17.092-6.47013,54.45078-19.839,64.74-17.50055,13.49017-22.94958,1.77356-15.56983-4.89123,11.472-7.03522,19.18071-52.07924,22.10929-72.3089a404.2468,404.2468,0,0,0-40.978-31.29456c1.928,16.48817-.16467,38.8329-7.832,45.38555-9.94078,8.49656-17.876-1.13936-12.04365-9.38192,4.28414-6.04707,2.45782-33.71962,1.196-47.99378a575.23561,575.23561,0,0,0-59.7049-32.011c-1.08177-.4905-1.67229-.74919-1.67229-.74919a457.83409,457.83409,0,0,0-44.96825,50.89755c4.50041,11.29632,11.77418,28.38449,17.90749,37.30215,9.64767,14.03013,18.99,23.05221,13.94047,27.58339-12.48013,7.53-31.63366-31.5506-40.84012-52.61208a305.57266,305.57266,0,0,0-25.95851,43.65453c17.08257,66.49486,65.11886,61.76543,51.5609,77.113-11.75252,13.29906-45.49575-39.09525-58.5857-60.6739-5.70588,15.2043-9.23679,30.69252-9.21355,45.73745.62479,13.79852,1.73414,26.408,3.27131,37.91091,27.87465,30.90643,63.14914,11.01016,58.943,29.22812-3.2847,14.22817-37.97339-2.01372-56.1271-11.61891,29.4788,155.04036,146.7148,74.43558,146.7148,74.43558.57043.21249,1.1322.40747,1.69829.61181,76.05119,27.433,114.68641-17.62243,120.60147-86.47641-12.64952,4.43309-35.87683,12.42917-40.57145,13.201C4901.58811,1240.28109,4896.46842,1230.78642,4912.41132,1227.84541Z"/><path class="cls-4" d="M4777.00681,1042.239s45.5924,187.02668,49.3776,269.61581"/><path class="cls-4" d="M4841.94624,1117.90612s-11.163,31.98572-35.64337,57.92226"/><path class="cls-4" d="M4750.35142,1159.04107s40.158,44.13766,61.21187,44.37067"/><path class="cls-4" d="M4893.36649,1194.60623s-48.352,40.92647-74.95415,48.56458"/><path class="cls-4" d="M4760.31387,1275.72965s35.93455,24.2241,64.297,13.418"/><path class="cls-7" d="M4826.38469,1311.85s21.06911,3.064-32.30242,260.38491"/><path class="cls-7" d="M4548.21764,1330.81418s228.35608,67.47448,245.86463,246.23206"/><path class="cls-7" d="M4671.15,1631.57519c5.6163-2.01493,101.71007-10.72742,133.50437,11.76526"/><path class="Graphic-Style-201" d="M4342.70886,2372.07934s4.24088,35.48665,10.81545,91.017l580.158-2.84392,9.38443-96.28447C4601.95738,2330.53053,4342.70886,2372.07934,4342.70886,2372.07934Z"/><path class="cls-8" d="M5015.48516,2372.07934q-36.75009-4.64568-72.41842-8.11141l-9.38443,96.28447,71.91783-.35256Q5010.3348,2417.68561,5015.48516,2372.07934Z"/><path class="cls-9" d="M4662.67464,2597.56582a397.96152,397.96152,0,0,0,15.66026-136.06167l-324.81059,1.59217c13.2651,112.04011,36.03326,305.7043,52.67279,454.43361C4528.42894,2850.92264,4622.2395,2727.66152,4662.67464,2597.56582Z"/><path class="Graphic-Style-62" d="M4678.3349,2461.50415a397.96152,397.96152,0,0,1-15.66026,136.06167c-40.43514,130.0957-134.2457,253.35682-256.47754,319.96411,11.83807,105.81212,20.57586,188.89181,20.57586,203.60271,0,35.25886,302.83445,25.90151,440.56407,19.82289l66.34528-680.70313Z"/><path class="Graphic-Style-201" d="M5005.60014,2459.89984l-71.91783.35256L4867.337,3140.95553c40.53731-1.78939,66.77643-3.29434,66.77643-3.29434S4942.51713,3022.34219,5005.60014,2459.89984Z"/><path class="Graphic-Style-199" d="M5235.68454,3318.76872c-151.35077,223.75988-445.99505,86.5096-1317.46,205.87559-841.87546,115.28211-930.80764,293.22855-1543.91457,277.90257-407.09576-10.18077-945.50724-23.628-1163.06041-360.24723-98.67748-152.65767-87.9795-304.662-81.80019-480.539H5244.66756C5298.18487,3167.55419,5284.22029,3247.04047,5235.68454,3318.76872Z"/><path class="cls-10" d="M1213.99619,2968.27568s-1.29369,93.52825,298.84216,83.735,344.12128-62.80643,327.30332-76.52824S1213.99619,2968.27568,1213.99619,2968.27568Z"/><path class="cls-10" d="M2115.05059,2982.604s46.57281,169.57711,333.77177,154.05284,174.648-98.71353,306.60429-90.108,234.80456-6.43857,293.02057-37.72717,560.81418,65.86887,700.5326,71.62507,543.34128.58587,607.387-67.98407l58.04063-51.42019-2291.59472.72084Z"/><polygon class="cls-10" points="3592.077 3155.037 3198.564 3443.206 2576.535 3364.615 3120.527 3101.782 3592.077 3155.037"/><path class="Graphic-Style-185" d="M3192.09545,3435.4438l43.13584-31.58835q-51.48318,11.74219-101.8306,24.17259Z"/><path class="cls-11" d="M3396.63323,3285.66112l188.97521-138.38639-471.54947-53.2548-65.85283,31.81731c111.66877,25.26949,221.01,59.46235,321.45328,127.76367C3383.15945,3262.60071,3391.90056,3273.73682,3396.63323,3285.66112Z"/><path class="Graphic-Style-185" d="M3369.65942,3253.60091c-100.44328-68.30132-209.78451-102.49418-321.45328-127.76367L2570.067,3356.85239l563.33372,71.17565q50.39486-12.43853,101.8306-24.17259l161.40194-118.19433C3391.90056,3273.73682,3383.15945,3262.60071,3369.65942,3253.60091Z"/><path class="Graphic-Style-196" d="M4327.02584,2242.50651q-2.35115,7.36542-4.61837,14.79215c-5.44427,13.61068,0,29.94351-8.16641,43.55419-27.22137,65.3313-38.10992,130.66259-59.887,198.716-5.44427,8.16641-13.61069,16.33282-13.61069,24.49923-19.055,84.38626-73.4977,141.55114-149.71755,155.16183-127.94045,27.22137-239.54808-16.33282-340.26716-97.99694-35.38778-29.94351-84.38626-19.055-127.94045-19.055-54.44275,2.72214-95.27481,38.10993-146.99542,48.99848-84.38625,16.33282-163.32824,0-244.99236-19.055-8.16641-2.72214-16.33282-13.61069-24.49923-16.33283-21.7771-5.44427-40.83206-8.16641-62.60916-21.7771-8.16641-8.16641-13.61069-19.055-24.49923-24.49923-29.94351-10.88855-92.78238-40.48478-114.55948-62.26188-41.42321,151.88493,16.57931,314.7029,27.742,470.03685l180.79318,24.476,1201.20888-.72107C4486.661,2768.55605,4427.03281,2485.42254,4327.02584,2242.50651Z"/><path class="Graphic-Style-196" d="M2808.07106,2012.4535c-29.74962,59.7988-53.87635,132.20327-68.6396,219.91461-84.37562,501.4561-101.32767,519.372-101.32767,519.372l95.23061,76.76016c34.50372-48.76288,45.66691-112.17187,53.78763-171.04739C2816.77429,2440.00318,2799.32663,2227.0393,2808.07106,2012.4535Z"/><path class="Graphic-Style-197" d="M4008.7403,1770.11882c-214.58946-104.72436-486.63854-118.84711-517.8514-79.15947l-276.90071,38.21626s-265.59314,1.21652-405.91713,283.27789c-8.74443,214.5858,8.70323,427.54968-20.949,644.99934-8.12072,58.87552-19.28391,122.28451-53.78763,171.04739l101.83741,82.08579,197.2335,26.70134c-11.16269-155.33395-69.16511-318.152-27.74191-470.03689,21.7771,21.7771,84.61588,51.37337,114.55939,62.26192,10.88854,5.44427,16.33282,16.33282,24.49923,24.49923,21.7771,13.61069,40.83206,16.33283,62.60916,21.7771,8.16641,2.72214,16.33282,13.61069,24.49923,16.33283,81.66412,19.055,160.60611,35.38778,244.99236,19.055,51.72061-10.88855,92.55267-46.27634,146.99542-48.99848,43.55419,0,92.55267-10.88854,127.94045,19.055,100.71908,81.66412,212.32671,125.21831,340.26716,97.99694,76.21985-13.61069,130.66259-70.77557,149.71755-155.16183,0-8.16641,8.16642-16.33282,13.61069-24.49923,21.7771-68.05344,32.66565-133.38473,59.887-198.716,8.16641-13.61068,2.72214-29.94351,8.16641-43.55419q2.25369-7.43719,4.61837-14.79215C4231.17633,2009.68883,4098.23621,1813.81358,4008.7403,1770.11882Z"/><path class="cls-12" d="M3500.7828,2819.0507c-85.57475-128.7166-153.28394-705.98662-112.044-856.2272"/><path class="cls-13" d="M3524.82124,1546.82082c-27.22137-65.33129-78.942-136.10686-24.49923-212.32671,38.10992-54.44275-59.887-62.60916-76.21985-97.99694-13.61068-29.94351-32.66564-73.49771-68.05343-87.1084-84.38626-29.94351-168.77251,16.33283-253.15877,43.5542-47.29248,14.55157-112.7989,26.633-167.31674,13.58277,10.76959,99.20433,49.10663,374.48861,148.23553,443.01572,96.86615,66.963,173.12637,6.25557,173.12637,6.25557,6.19426,118.73164,58.66053,217.15126,84.53263,291.31189,0,0,64.49159,20.17213,97.08663-9.70194,31.20007-28.5954,80.01412-57.92018,120.78886-98.2965C3562.04494,1738.75526,3560.166,1639.60078,3524.82124,1546.82082Z"/><path class="Graphic-Style-194" d="M3630.60728,1701.8263c-24.89765,19.72437-85.22878-334.88486-76.75134-430.50192,14.97657-168.92487-335.92062-279.4175-467.83977-212.98166-131.91932,66.43583-153.90809,112.2963-153.90809,112.2963s1.03027,13.458,3.46514,35.88672c54.51784,13.05028,120.02426.9688,167.31674-13.58277,84.38626-27.22137,168.77251-73.49771,253.15877-43.5542,35.38779,13.61069,54.44275,57.16489,68.05343,87.1084,16.33283,35.38778,114.32977,43.55419,76.21985,97.99694-54.44275,76.21985-2.72214,146.99542,24.49923,212.32671,35.34476,92.78,37.2237,191.93444,34.522,292.28966C3594.81676,1803.98354,3624.20634,1760.49315,3630.60728,1701.8263Z"/><path class="Graphic-Style-195" d="M3339.52724,1578.40839s-41.5013,56.38038-82.59211,77.38863c10.79237,85.61619.64128,25.55488.64128,25.55488S3360.87311,1635.65413,3339.52724,1578.40839Z"/><path class="Graphic-Style-187" d="M2837.977,1036.86305s-24.3426,190.14438,150.574,137.11924,221.05431-81.11561,225.01767-79.67258,25.40615,143.91684,76.34051,135.52836,100.7847-9.69016,101.48251,45.92686-6.17206,111.47128-6.17206,111.47128l22.94689-9.60075s10.51483-156.27528,73.8-112.28545c88.94612,61.8269-6.03462,156.29876,3.20645,176.12263s77.5581,8.898,77.5581,8.898l19.46454-12.36494s-11.82229-168.897,9.82382-228.34907-28.0077-243.61957-134.043-318.13739-331.27652-35.32664-393.28122,19.90527S2837.977,1036.86305,2837.977,1036.86305Z"/><path class="Graphic-Style-184" d="M1778.9513,2950.738c-.02725.218-.05449.40871-.08174.62637-3.53875,13.393-117.89576,24.11809-258.43956,24.11809-134.22878,0-244.58411-9.79993-257.29647-22.32139-.81661-1.5518-1.225-2.42307-1.225-2.42307,0-13.66485,115.74533-24.74381,258.52146-24.74381C1663.206,2925.99421,1778.9513,2937.07317,1778.9513,2950.738Z"/><path class="cls-14" d="M1420.60911,2951.44367c-12.21573-4.581-28.713-4.88071-42.28717-9.06427,4.247,14.67137,9.20848,25.546,14.98422,29.91826,46.92962,42.4377,230.59214,41.62159,254.24752,0,3.09264-5.439,5.8824-13.196,8.40317-22.53007C1578.79861,2970.13843,1499.70511,2976.52309,1420.60911,2951.44367Z"/><path class="cls-11" d="M1655.95685,2949.76759c4.44889-16.47505,8.05078-37.91553,10.93623-60.56623-55.78852,22.08946-121.08809,21.398-175.5084-8.53326-42.96887-23.27474-77.6909-60.6822-99.52748-105.24756-19.399-3.45185-33.894-8.82036-35.98043-17.11039.79351,22.58258,6.67542,129.59328,22.44517,184.06925,13.57414,4.18356,30.07144,4.48329,42.28717,9.06427C1499.70511,2976.52309,1578.79861,2970.13843,1655.95685,2949.76759Z"/><path class="Graphic-Style-185" d="M1512.75356,2780.95852s-74.49127,2.71948-120.89636-5.538c21.83658,44.56536,56.55861,81.97282,99.52748,105.24756,54.42031,29.93122,119.71988,30.62272,175.5084,8.53326,7.99894-62.79258,10.52253-134.70193,10.52253-134.70193C1674.01294,2788.63514,1512.75356,2780.95852,1512.75356,2780.95852Z"/><path class="cls-15" d="M1677.41561,2754.49956c-3.40267,34.13538-164.662,26.4591-164.662,26.4591s-149.7993,5.47152-156.87679-22.64837c-.08174-1.87812-.109-3.18469-.109-3.81073,5.96148-32.42108,133.95643-29.8621,156.98578-30.70579C1535.78273,2722.94975,1680.81829,2720.36385,1677.41561,2754.49956Z"/><path class="cls-16" d="M1645.65606,2754.11286c-2.73059,27.39308-132.13859,21.233-132.13859,21.233s-120.21147,4.3908-125.891-18.17494c-.06559-1.50716-.08746-2.55566-.08746-3.058,4.784-26.01738,107.49783-23.96384,125.9785-24.64089C1531.998,2728.79466,1648.38665,2726.71952,1645.65606,2754.11286Z"/><path class="cls-17" d="M1537.661,3016.775c-58.20545,11.64086-138.52263-1.61992-177.89991-46.66079-53.3942-4.06227-89.66738-10.09736-96.62757-16.95321,6.91417,13.12088,43.30913,75.45756,116.53469,84.60424,66.51675,8.31162,224.72835,3.12354,281.84273.88057C1634.40937,3004.531,1580.77343,3009.58948,1537.661,3016.775Z"/><path class="Graphic-Style-185" d="M1520.43,2975.48235c-60.73619,0-116.54266-2.011-160.6689-5.36818,39.37728,45.04087,119.69446,58.30165,177.89991,46.66079,43.11242-7.18548,96.74836-12.244,123.84994,21.87081,13.21659-.51937,21.0223-.88057,21.0223-.88057s89.776-29.64445,96.33631-86.40062C1775.33081,2964.75729,1660.9738,2975.48235,1520.43,2975.48235Z"/><path class="Graphic-Style-199" d="M3274.38461,1843.53379c-35.38778-29.94351-70.77557-54.44275-111.60763-81.66412-12.0627-6.03127-18.19465-19.483-27.15176-31.58952-4.49973,2.5309-6.60729,4.32777-5.2655,5.06363,39.37081,21.59368,195.72307,233.40832,195.72307,233.40832l15.02708-3.3078C3315.9728,1925.82926,3308.37311,1875.25639,3274.38461,1843.53379Z"/><path class="Graphic-Style-185" d="M3390.25339,1964.68983c-33.924-22.8715-116.70632-231.4787-134.48661-289.02937-6.34462,7.607-96.4787,41.31056-120.14156,54.61969,8.95711,12.10656,15.08906,25.55825,27.15176,31.58952,40.83206,27.22137,76.21985,51.72061,111.60763,81.66412,33.9885,31.7226,41.58819,82.29547,66.72526,121.91051l22.32206-4.91344Z"/><path class="Graphic-Style-198" d="M3084.30616,2852.831c-147.46657-107.93139-49.1091-679.97249-49.1091-679.97249s-98.35747,512.30085-37.91492,668.87928C3013.64461,2884.12528,3084.30616,2852.831,3084.30616,2852.831Z"/><path class="Graphic-Style-197" d="M4224.41053,2970.49863c68.05343-21.7771,95.27481-84.38626,106.16336-144.27328,59.887-340.26716-24.49924-664.2015-157.884-971.803-2.72214-5.44428-10.88855-8.16642-16.33282-13.61069-11.13461-18.92869-21.36173-37.8509-31.79222-56.40709-163.98634-98.14448-468.73064-132.25593-468.73064-132.25593l292.77763,416.59c-23.889,68.25614,10.23808,180.87842,10.23808,180.87842,85.908,337.69888,75.56523,484.70625,49.56719,495.941l66.104,221.42819C4123.733,2975.80667,4172.48739,2985.03708,4224.41053,2970.49863Z"/><path class="Graphic-Style-198" d="M4003.00294,2224.60606s105.6704,314.03969,20.90978,484.97l-38.283.31889S4061.03217,2469.11328,4003.00294,2224.60606Z"/><path class="Graphic-Style-196" d="M4177.26326,1823.01724c-14.9588-13.8511-32.79641-26.7015-52.69838-38.61268,10.43049,18.55619,20.65761,37.4784,31.79222,56.40709,5.44427,5.44427,13.61068,8.16641,16.33282,13.61069,133.38473,307.60151,217.771,631.53585,157.884,971.803-10.88855,59.887-38.10993,122.49618-106.16336,144.27328-51.92314,14.53845-100.67754,5.308-149.88935-3.51233l19.13073,64.08221S4352.36777,3133.67,4422.978,2857.72964C4508.23754,2524.541,4335.13958,1969.203,4177.26326,1823.01724Z"/><path class="cls-13" d="M2324.591,2895.31781l-35.3309-39.2132s-42.07423,24.1312-48.85424,44.03944,19.775,37.40336,19.775,37.40336-31.64,63.3444,44.07008,69.98048c-13.56,29.56072,20.905,41.62632,43.50507,45.246-8.475,30.76728,17.515,30.76728,52.54509,24.1312,20.81489-3.94317,125.67578,8.08637,194.51258-50.57471,60.86785-50.9703,147.64641-40.78868,155.90038-43.72641,6.42846-2.288,34.69405-14.53714,5.97224-29.95022-62.15576-33.35482-238.3-52.5097-238.3-52.5097Z"/><path class="Graphic-Style-185" d="M2739.00115,2966.71382c12.55383-145.21233-253.16658-473.61633-334.76574-632.233-81.59915-158.61683-105.84851-236.718-105.84851-236.718s-452.06336,183.99515-516.92413,199.63331c0,0,89.26281,94.00413,194.02871,205.14821,5.78454-1.011,11.42021-1.97315,16.76646-2.97551,87.1084-13.61069,185.10534-19.055,250.43663,40.83206,70.77557,65.33129,127.94046,133.38472,182.3832,217.771,40.83206,57.16488,73.49771,108.88549,119.774,157.884,28.2882,26.62425,61.6701,45.09338,96.39962,60.417C2677.41561,2969.2439,2711.69853,2965.06366,2739.00115,2966.71382Z"/><path class="cls-11" d="M2425.07777,2758.17192c-54.44274-84.38626-111.60763-152.43969-182.3832-217.771-65.33129-59.887-163.32823-54.44275-250.43663-40.83206-5.34625,1.00236-10.98192,1.96451-16.76646,2.97551,134.57034,142.76317,294.71921,313.80591,324.12972,350.23343,69.04533,149.68067,102.52193,196.59567,102.52193,196.59567s128.38955-50.76826,239.1083-72.90058c-34.72952-15.32365-68.11142-33.79278-96.39962-60.417C2498.57548,2867.05741,2465.90983,2815.3368,2425.07777,2758.17192Z"/><path class="cls-13" d="M2672.79227,2758.17192c59.887,19.055,51.72061,100.71908,84.38625,152.43969,38.10993,57.16488,127.94046,35.38778,182.3832,5.44427,32.66565-16.33282,65.3313-27.22137,100.71908-24.49923,2.72214,0,5.44428-8.16641,8.16642-8.16641,187.82747-10.88855,362.04426,29.94351,549.87173,73.4977,136.10687,29.94351,264.04732,46.27634,397.43205,32.66565,1.66495-.16648,3.31528-.37084,4.96909-.56622,15.64448-50.83738,21.20922-142.9594-89.7546-232.93414-188.87569,21.86814-855.17645-3.305-855.17645-3.305s-251.83408-86.66213-261.69518-86.66213c-9.86094,0-134.261,17.00838-172.18782,34.01708-37.92682,17.00838-91.78291,102.86071-91.78291,102.86071-3.719,5.66458.253,13.91938,9.91128,19.373C2576.24977,2781.4008,2618.97639,2740.23346,2672.79227,2758.17192Z"/><path class="Graphic-Style-194" d="M3995.751,2989.55359c-133.38473,13.61069-261.32518-2.72214-397.43205-32.66565-187.82747-43.55419-362.04426-84.38625-549.87173-73.4977-2.72214,0-5.44428,8.16641-8.16642,8.16641-35.38778-2.72214-68.05343,8.16641-100.71908,24.49923-54.44274,29.94351-144.27327,51.72061-182.3832-5.44427-32.66564-51.72061-24.49923-133.38473-84.38625-152.43969-53.81588-17.93846-96.5425,23.22888-132.75786,64.165,11.48368,6.48435,31.014,9.00379,55.32282-1.55446,44.75377-19.43843,40.20253-23.48774,49.30485-21.86815,9.10247,1.61993,43.23669,115.00964,50.82209,154.69629s71.30242,50.21565,200.60427,68.59075c40.5531-10.78255,152.61182-87.73643,223.15578-73.15744,188.90526,50.18841,868.07453,121.93527,863.74128,79.8292,0,0,10.07509-14.99568,17.73459-39.88569C3999.06628,2989.18275,3997.416,2989.38711,3995.751,2989.55359Z"/><path class="cls-13" d="M2335.0359,2930.77975a22.57757,22.57757,0,0,0,1.23181-12.13531c-3.39-21.31588-51.60347-35.79451-51.60347-35.79451l-18.5557,41.45477C2287.05524,2933.13138,2311.89342,2935.0394,2335.0359,2930.77975Z"/><path class="Graphic-Style-195" d="M2266.10854,2924.3047l-25.88107-11.23645c4.8361,10.82408,11.29137,19.271,19.95348,24.479,45.13807,16.06566,68.86007,7.99429,74.85495-6.76746C2311.89342,2935.0394,2287.05524,2933.13138,2266.10854,2924.3047Z"/><path class="Graphic-Style-195" d="M2472.28835,3001.08147c-11.00868,41.40028-69.629,59.12541-117.24165,65.15983-10.87484,4.40254-7.77812,8.836,5.34825,13.29169,0,0,112.79142-24.94916,116.18129-59.93952A27.92163,27.92163,0,0,0,2472.28835,3001.08147Z"/><path class="cls-13" d="M2472.28835,3001.08147c-12.33137-18.81737-47.09843-21.93926-61.81714-15.27148l-78.53576,22.99395,23.11125,57.43736C2402.65935,3060.20688,2461.27967,3042.48175,2472.28835,3001.08147Z"/><path class="Graphic-Style-194" d="M2398.83118,2948.7222c-3.10743,11.78573-9.23789,22.37888-17.3076,27.22071-21.70151,12.659-47.00522,14.49225-71.92464,14.30517-28.80244-2.15975-46.06062-3.05238-47.6042.01223-2.1026,4.17448,20.556,13.55022,42.25629,17.26763,0,0,97.55682,9.25035,106.22018-21.71795C2416.16138,2965.46972,2410.75748,2954.24589,2398.83118,2948.7222Z"/><path class="cls-13" d="M2381.52358,2975.94291c8.06971-4.84183,14.20017-15.435,17.3076-27.22071-6.23181-2.88663-14.2118-4.24537-23.39-4.47432-26.74337-.66757-50.87808-2.34963-50.87808-2.34963l-14.96411,48.34983C2334.51836,2990.43516,2359.82207,2988.60191,2381.52358,2975.94291Z"/><path class="Graphic-Style-193" d="M3167.34868,2752.4362s43.8332,5.48375,27.75282,107.98668-54.82262,103.13619-54.82262,103.13619l77.1996,12.2734s41.25459-66.56667,42.84832-142.36552-17.89857-80.46195-17.89857-80.46195Z"/><ellipse class="Graphic-Style-192" cx="3216.91224" cy="2865.24282" rx="79.28747" ry="84.49021" transform="translate(-218.04395 265.39345) rotate(-4.5695)"/><path class="Graphic-Style-191" d="M3159.211,2899.72306l81.49531-100.30172a62.8113,62.8113,0,0,0-29.4356-4.73948c-36.57008,2.92384-63.6901,36.88575-60.57436,75.85532A74.38969,74.38969,0,0,0,3159.211,2899.72306Z"/><path class="Graphic-Style-185" d="M3175.49364,2920.062l99.65391-88.26477a69.2351,69.2351,0,0,0-34.44125-32.37589L3159.211,2899.72306A71.02294,71.02294,0,0,0,3175.49364,2920.062Z"/><path class="Graphic-Style-191" d="M3283.12822,2859.94835a74.43691,74.43691,0,0,0-7.98067-28.15112l-99.65391,88.26477a66.37123,66.37123,0,0,0,21.6382,12.51013l86.03044-61.09922A75.78956,75.78956,0,0,0,3283.12822,2859.94835Z"/><path class="Graphic-Style-185" d="M3197.13184,2932.57213a62.44594,62.44594,0,0,0,25.42217,3.23154c32.90839-2.63108,58.15113-30.40007,60.60827-64.33076Z"/><path class="Graphic-Style-185" d="M3448.6014,1933.36432c108.50518-85.55211,218.55868-169.54077,287.34964-282.546-24.2025-20.57188-74.10713-51.97964-138.94946-33.89065-2.60384,157.21706-203.2455,285.08108-208.26278,345.89586-.06679.80963,17.46644,2.48438,33.53011,3.84828C3427.80921,1953.20066,3438.1965,1941.68824,3448.6014,1933.36432Z"/><path class="Graphic-Style-190" d="M3735.951,1650.8183c-68.791,113.00525-178.84446,196.99391-287.34964,282.546-10.4049,8.32392-20.79219,19.83634-26.33249,33.30747,13.552,1.15073,26.05935,2.08031,26.05935,2.08031s75.97644-26.979,195.216-178.61467c66.33116-84.35286,108.52561-123.5846,108.52561-123.5846A142.67621,142.67621,0,0,0,3735.951,1650.8183Z"/><path class="cls-10" d="M3857.69434,2760.39826s37.45177-14.78766,60.20315,43.22993-17.55846,246.103-17.55846,246.103h88.33435c5.97223,0,8.85393-260.89184,8.85393-279.09344s-128.72525-25.73819-128.72525-25.73819Z"/><path class="Graphic-Style-185" d="M3849.60559,2746.606s167.61392-82.523,243.37475-1.183c62.7235,67.34261,103.66815,283.43807,50.1558,303.95019-97.57012,20.90659-216.142,24.57053-218.63746.358-21.00608,4.99486,100.08779-233.00658-52.7105-301.84543-1.87707-.84566-15.41421,12.76549-19.97839,12.84191S3851.65439,2747.34582,3849.60559,2746.606Z"/><ellipse class="Graphic-Style-188" cx="4009.205" cy="3722.38035" rx="182.46287" ry="143.58809"/><ellipse class="Graphic-Style-189" cx="1092.36905" cy="994.07181" rx="131.89491" ry="133.23078"/><ellipse class="Graphic-Style-189" cx="868.87399" cy="2833.17591" rx="91.60015" ry="92.93479"/><ellipse class="Graphic-Style-189" cx="1283.05628" cy="3351.05377" rx="247.20899" ry="227.73849"/><ellipse class="Graphic-Style-188" cx="5196.98267" cy="2864.13434" rx="208.25413" ry="191.85176"/><path class="Graphic-Style-187" d="M1467.55933,1199.96347c-10.73769,1.19592-21.92563,2.49867-33.63594,3.96757v492.5972h33.63594Z"/><path class="Graphic-Style-187" d="M2092.73212,493.33059c-12.46411,22.34864-23.5218,45.11248-33.63594,68.18784v602.99346h33.63594Z"/><path class="Graphic-Style-185" d="M1837.57254,1704.80063s-203.75191,18.10211-258.73912,21.34146-84.08686,34.27179-84.08686,34.27179l-66.61062,106.08161-90.56556-13.58344s24.9347-40.72324,46.82079-78.80591q4.20558-7.30885,8.16642-14.34572c18.53774-32.93779-7.21373-48.67166-18.48342-53.70771a46.02314,46.02314,0,0,0-4.81807-1.90553l-208.924-91.21868s36.23164-18.10228,52.40114-29.75311a27.56262,27.56262,0,0,1,22.97485-4.32811,34.74306,34.74306,0,0,1,10.64348,4.32811s99.358,42.656,152.68476,69.93171c3.91988,2.01452,7.5947,3.91989,10.97012,5.74384,21.5322,11.62341,53.0001,17.66664,81.5553,20.797a576.27227,576.27227,0,0,0,68.51615,3.15777l261.32518-31.713Z"/><path class="Graphic-Style-186" d="M1821.403,1565.26385v85.8289l-261.32518,31.713a576.27227,576.27227,0,0,1-68.51615-3.15777c-28.5552-3.13036-60.0231-9.17359-81.5553-20.797-3.37542-1.82395-7.05024-3.72932-10.97012-5.74384-53.32675-27.2757-152.68476-69.93171-152.68476-69.93171a34.74306,34.74306,0,0,0-10.64348-4.32811v-85.82906a34.74551,34.74551,0,0,1,10.64348,4.32827s114.49309,49.16179,163.65488,75.70263c49.1618,26.51359,150.07145,23.92753,150.07145,23.92753Z"/><path class="Graphic-Style-60" d="M1392.55759,1759.76042q-3.96084,7.02326-8.16642,14.34572c-21.88609,38.08267-46.82079,78.80591-46.82079,78.80591V1767.083s17.80272-29.04516,36.50379-61.03027C1385.34386,1711.08876,1411.09533,1726.82263,1392.55759,1759.76042Z"/><polygon class="Graphic-Style-60" points="1837.573 1618.972 1837.573 1704.801 1821.403 1651.093 1821.403 1565.264 1837.573 1618.972"/><path class="Graphic-Style-60" d="M1235.70805,1493.01822v85.82906a27.56262,27.56262,0,0,0-22.97485,4.32811c-16.1695,11.65083-52.40114,29.75311-52.40114,29.75311v-85.82907s36.23164-18.10228,52.40114-29.75294A27.56272,27.56272,0,0,1,1235.70805,1493.01822Z"/><path class="Graphic-Style-185" d="M2431.35228,1206.68615s-203.75191,18.10211-258.73912,21.34146-84.08686,34.27178-84.08686,34.27178L2021.91568,1368.381l-90.56556-13.58343s24.9347-40.72324,46.82079-78.80591q4.20558-7.30885,8.16642-14.34572c18.53774-32.93779-7.21373-48.67166-18.48342-53.70771a46.02314,46.02314,0,0,0-4.81807-1.90553l-208.924-91.21869s36.23164-18.10228,52.40114-29.7531a27.56262,27.56262,0,0,1,22.97485-4.32811,34.74306,34.74306,0,0,1,10.64348,4.32811s99.358,42.656,152.68476,69.93171c3.91988,2.01452,7.5947,3.91989,10.97012,5.74384,21.5322,11.62341,53.0001,17.66664,81.5553,20.797a576.27227,576.27227,0,0,0,68.51615,3.15777l261.32518-31.713Z"/><path class="Graphic-Style-186" d="M2415.18278,1067.14936v85.82891l-261.32518,31.713a576.27227,576.27227,0,0,1-68.51615-3.15777c-28.5552-3.13036-60.0231-9.17359-81.5553-20.797-3.37542-1.82395-7.05024-3.72932-10.97012-5.74384-53.32675-27.2757-152.68476-69.93171-152.68476-69.93171a34.74306,34.74306,0,0,0-10.64348-4.32811V994.90373a34.7458,34.7458,0,0,1,10.64348,4.32827s114.49309,49.1618,163.65488,75.70264c49.1618,26.51359,150.07145,23.92752,150.07145,23.92752Z"/><path class="cls-18" d="M1986.33733,1261.64594q-3.96084,7.02324-8.16642,14.34572c-21.88609,38.08267-46.82079,78.80591-46.82079,78.80591V1268.9685s17.80272-29.04516,36.50379-61.03027C1979.1236,1212.97428,2004.87507,1228.70815,1986.33733,1261.64594Z"/><polygon class="Graphic-Style-60" points="2431.352 1120.857 2431.352 1206.686 2415.183 1152.978 2415.183 1067.149 2431.352 1120.857"/><path class="Graphic-Style-60" d="M1829.48779,994.90373v85.82907a27.56262,27.56262,0,0,0-22.97485,4.32811c-16.1695,11.65082-52.40114,29.7531-52.40114,29.7531V1028.985s36.23164-18.10228,52.40114-29.753A27.56279,27.56279,0,0,1,1829.48779,994.90373Z"/><path class="Graphic-Style-185" d="M4617.78575,367.51548H3809.943a154.1088,154.1088,0,0,0-154.1088,154.1088V638.38342a154.1088,154.1088,0,0,0,154.1088,154.1088h.00015a.22629.22629,0,0,1,.2263.22629v72.96126c0,26.96957,32.46161,40.63725,51.75242,21.78992l97.14637-94.913a.22629.22629,0,0,1,.15815-.06443h658.55919a154.109,154.109,0,0,0,154.109-154.109v-116.759A154.1088,154.1088,0,0,0,4617.78575,367.51548Z"/><rect class="Graphic-Style-184" x="3832.42276" y="493.33059" width="799.5454" height="35.24917" rx="6.47453"/><rect class="Graphic-Style-184" x="3832.42276" y="620.11211" width="799.5454" height="35.24917" rx="6.47453"/><path class="cls-19" d="M2431.35228,1206.68615l405.47066,1916.62914L940.76378,3059.065,1160.33206,1612.9285l75.37607-34.0812c168.97637,104.8219,360.10368,141.52506,585.69482,72.24547l-186.91419-63.14617,119.623-473.13259,75.376-34.08121,229.60839,134.22282Z"/></svg>