<?xml version="1.0" encoding="utf-8"?>
<!-- Generator: Adobe Illustrator 22.0.0, SVG Export Plug-In . SVG Version: 6.00 Build 0)  -->
<svg version="1.1" id="Layer_1" xmlns="http://www.w3.org/2000/svg" xmlns:xlink="http://www.w3.org/1999/xlink" x="0px" y="0px"
	 viewBox="0 0 4000 4000" style="enable-background:new 0 0 4000 4000;" xml:space="preserve">
<style type="text/css">
	.Graphic_x0020_Style_x0020_218{fill:#102140;}
	.Graphic_x0020_Style_x0020_88{fill:#D1334A;}
	.Graphic_x0020_Style_x0020_86{fill:#572658;}
	.Graphic_x0020_Style_x0020_206{fill:url(#SVGID_1_);}
	.Graphic_x0020_Style_x0020_207{fill:url(#SVGID_2_);}
	.Graphic_x0020_Style_x0020_84{fill:#FFFFFF;}
	.Graphic_x0020_Style_x0020_83{fill:#3B546B;}
	.Graphic_x0020_Style_x0020_220{fill:#152A52;}
	.Graphic_x0020_Style_x0020_99{fill:#B080B0;}
	.Graphic_x0020_Style_x0020_219{fill:#DB6767;}
	.Graphic_x0020_Style_x0020_89{fill:#EB485C;}
	.Graphic_x0020_Style_x0020_87{fill:#6584C6;}
	.Graphic_x0020_Style_x0020_216{fill:#1A1A1A;}
	.Graphic_x0020_Style_x0020_78{fill:#FFDE70;}
	
		.Graphic_x0020_Style_x0020_95{fill:none;stroke:#10663F;stroke-width:2;stroke-linecap:round;stroke-linejoin:round;stroke-miterlimit:10;}
	.Graphic_x0020_Style_x0020_212{fill:#FFFFFF;}
	.Graphic_x0020_Style_x0020_210{fill:#CCC4CC;}
	.Graphic_x0020_Style_x0020_90{fill:#102140;}
	.Graphic_x0020_Style_x0020_226{fill:#B080B0;}
	.Graphic_x0020_Style_x0020_46{fill:#DB6767;}
	.Graphic_x0020_Style_x0020_208{fill:url(#SVGID_3_);}
	.st0{fill:url(#SVGID_4_);}
	.st1{fill:url(#SVGID_5_);}
	.st2{fill:url(#SVGID_6_);}
	.st3{fill:none;stroke:#E2B433;stroke-width:2;stroke-linecap:round;stroke-linejoin:round;}
	.st4{fill:none;stroke:#E2B433;stroke-width:2;stroke-linecap:round;stroke-linejoin:round;stroke-dasharray:12.3085,12.3085;}
	.st5{fill:none;stroke:#E2B433;stroke-width:2;stroke-linecap:round;stroke-linejoin:round;stroke-dasharray:12.0265,12.0265;}
	.st6{fill:none;stroke:#E2B433;stroke-width:2;stroke-linecap:round;stroke-linejoin:round;stroke-dasharray:12.1207,12.1207;}
	.st7{fill:none;stroke:#E2B433;stroke-width:2;stroke-linecap:round;stroke-linejoin:round;stroke-dasharray:12.461,12.461;}
	.st8{fill:none;stroke:#E2B433;stroke-width:2;stroke-linecap:round;stroke-linejoin:round;stroke-dasharray:11.8134,11.8134;}
	.st9{fill:none;stroke:#E2B433;stroke-width:2;stroke-linecap:round;stroke-linejoin:round;stroke-dasharray:12.3611,12.3611;}
	.st10{fill:none;stroke:#E2B433;stroke-width:2;stroke-linecap:round;stroke-linejoin:round;stroke-dasharray:12.1348,12.1348;}
	.st11{fill:none;stroke:#E2B433;stroke-width:2;stroke-linecap:round;stroke-linejoin:round;stroke-dasharray:11.8717,11.8717;}
	.st12{fill:none;stroke:#E2B433;stroke-width:2;stroke-linecap:round;stroke-linejoin:round;stroke-dasharray:11.8094,11.8094;}
	.st13{fill:none;stroke:#E2B433;stroke-width:2;stroke-linecap:round;stroke-linejoin:round;stroke-dasharray:11.7152,11.7152;}
	.st14{fill:none;stroke:#E2B433;stroke-width:2;stroke-linecap:round;stroke-linejoin:round;stroke-dasharray:11.6692,11.6692;}
	.st15{fill:url(#SVGID_7_);}
	.st16{fill:url(#SVGID_8_);}
	.st17{fill:url(#SVGID_9_);}
	.st18{fill:url(#SVGID_10_);}
	.st19{fill:#2C132C;}
	.st20{fill:#D0B3D0;}
	.st21{fill:#333133;}
	.st22{fill:#152A52;}
	.st23{fill:#102140;}
	.st24{fill:#FC9590;}
	.st25{fill:#EF5668;}
	.st26{fill:#D1334A;}
	.st27{fill:#B080B0;}
	.st28{fill:#685A68;}
	.st29{fill:#1A1A1A;stroke:#1A1A1A;stroke-width:2;stroke-linecap:round;stroke-linejoin:round;stroke-miterlimit:10;}
	.st30{fill:#00593B;}
	.st31{fill:none;stroke:#FFFFFF;stroke-width:3;stroke-linecap:round;stroke-linejoin:round;stroke-miterlimit:10;}
	.st32{fill:#127755;}
	.st33{fill:#339E7E;}
	.st34{fill:none;stroke:#DB3019;stroke-width:3;stroke-linecap:round;stroke-linejoin:round;stroke-miterlimit:10;}
</style>
<linearGradient id="SVGID_1_" gradientUnits="userSpaceOnUse" x1="0" y1="0" x2="1" y2="0">
	<stop  offset="0" style="stop-color:#4085F0"/>
	<stop  offset="1" style="stop-color:#275DC9"/>
</linearGradient>
<linearGradient id="SVGID_2_" gradientUnits="userSpaceOnUse" x1="0" y1="0" x2="1" y2="0">
	<stop  offset="0" style="stop-color:#68B2FC"/>
	<stop  offset="1" style="stop-color:#529BF7"/>
</linearGradient>
<linearGradient id="SVGID_3_" gradientUnits="userSpaceOnUse" x1="0" y1="0" x2="1" y2="0">
	<stop  offset="0" style="stop-color:#68B2FC"/>
	<stop  offset="1" style="stop-color:#EBF0F7"/>
</linearGradient>
<g>
	<g>
		<linearGradient id="SVGID_4_" gradientUnits="userSpaceOnUse" x1="452.8096" y1="1962.63" x2="3691.3491" y2="1962.63">
			<stop  offset="0" style="stop-color:#68B2FC"/>
			<stop  offset="1" style="stop-color:#EBF0F7"/>
		</linearGradient>
		<path class="st0" d="M970.7,2760c586.4,335.4,582.8,429.1,802.3,490.8c467.6,131.5,929.3-168.4,1047.7-245.4
			c439.7-285.7,596.5-700.1,717.3-1019.4c119.1-314.6,214.3-566.2,106-845.6c-90-232-310.4-457.7-568.5-494.7
			c-129.3-18.6-182.3,22.6-614,162c-320.8,103.6-481.2,155.3-565.9,168.4c-510.1,78.5-729.9-156.9-991-9.4
			c-132.5,74.8-182,202.2-283.2,453c-80,198.5-301.7,748.3-56.6,1085.4C626.4,2589.9,660.3,2582.5,970.7,2760z"/>
		<linearGradient id="SVGID_5_" gradientUnits="userSpaceOnUse" x1="376.0273" y1="2053.2485" x2="3912.2937" y2="2053.2485">
			<stop  offset="0" style="stop-color:#68B2FC"/>
			<stop  offset="1" style="stop-color:#529BF7"/>
		</linearGradient>
		<path class="st1" d="M3795.3,2746.7c-205,254.7-738.6-136.9-1091.6,179.3c-328.8,294.5-146,292.5-383.3,362.5
			c-251.3,74.2-345.2-161.1-830.6-217.1c-354.8-40.9-434.1,69.8-643.9-12c-5.5-2.1-11.1-4.4-16.8-6.8c-1.3-0.5-2.5-1.1-3.8-1.6h0
			c-41.3-17.9-82.6-40.9-122.6-68.5c-88.1-60.7-169.5-143.4-229.1-241.4c-6.1-10.1-12-20.4-17.7-30.8
			c-48.8-89.9-79-191.3-79.9-299.6c-3.5-408,410.6-642.7,443.6-660.7c245.1-133.9,370.5-32.9,547.4-179.3
			c207.7-171.9,105.9-369.8,283.1-566.3c206.9-229.4,571.2-210.1,972.2-188.8c493.1,26.1,781.7,41.5,981.6,273.7
			c159.2,184.9,280.2,623.5,304,1013.7C3924.6,2375.5,3893.8,2624.4,3795.3,2746.7z"/>
		<linearGradient id="SVGID_6_" gradientUnits="userSpaceOnUse" x1="702.6848" y1="2650.1445" x2="3912.2937" y2="2650.1445">
			<stop  offset="0" style="stop-color:#68B2FC"/>
			<stop  offset="1" style="stop-color:#EBF0F7"/>
		</linearGradient>
		<path class="st2" d="M3795.3,2746.7c-205,254.7-738.6-136.9-1091.6,179.3c-328.8,294.5-146,292.5-383.3,362.5
			c-251.3,74.2-345.2-161.1-830.6-217.1c-354.8-40.9-434.1,69.8-643.9-12c-5.5-2.1-11.1-4.4-16.8-6.8c-1.3-0.5-2.5-1.1-3.8-1.6h0
			c-41.3-17.9-82.6-40.9-122.6-68.5c5.7-32.2,17-62.7,35.7-89.8c14.4-20.9,57.9-87.3,209.6-110.6c320.1-49.3,573.1,143,803.2,59.9
			c99.3-35.8,127.3-95.1,230.5-203.5c360.9-379,836-531.4,1076.2-580.9c244.7-50.4,603.8-124.4,850.1,45.4
			C3924.6,2375.5,3893.8,2624.4,3795.3,2746.7z"/>
	</g>
	<path class="Graphic_x0020_Style_x0020_84" d="M920.8,1279c0,0,722.6-804.1,1996.5-486.1c-56.9,577.5-56.9,618.2-56.9,618.2
		s-940.7-14.2-1603,519.1C1067.1,1746.2,920.8,1279,920.8,1279z"/>
	<path class="Graphic_x0020_Style_x0020_78" d="M1244.1,1748.6l177-250.5l143.9,38l61.4-287.7l94.4,78.6l66.1-246.1l73.1,28.3
		l132.1,37.8l30.7-129.8l49.3-106.2l113.3,80.2l119-80.2l70.1-77.9l70.8,82.6L2549,833l108.5,84.9l94.4-99.1l93.1,9.5l-53.8,529.3
		c0,0-978.5,31.3-1490.5,473.5C1265.3,1780.2,1244.1,1748.6,1244.1,1748.6z"/>
	<g>
		<g>
			<g>
				<g>
					<path class="st3" d="M1187,1253.4c0,0,1.8,4.3,5,12.2"/>
					<path class="st4" d="M1202.4,1290.8c38.2,91.9,139,329.1,202.4,429.7"/>
					<path class="st3" d="M1412.2,1731.9c2.6,3.9,5.2,7.5,7.6,10.8"/>
				</g>
			</g>
		</g>
		<g>
			<g>
				<path class="st3" d="M1334.8,1179c0,0,1.6,4.4,4.5,12.4"/>
				<path class="st5" d="M1348.4,1216.3c33.7,91.3,122.8,325.7,184.4,425.7"/>
				<path class="st3" d="M1540,1653.2c2.6,3.9,5.1,7.5,7.6,10.8"/>
			</g>
		</g>
		<g>
			<g>
				<path class="st3" d="M1482.6,1104.5c0,0,1.4,4.5,3.9,12.7"/>
				<path class="st6" d="M1494.4,1142.7c29.4,93.8,107.9,335,167.9,436.2"/>
				<path class="st3" d="M1669.4,1590.2c2.6,3.9,5.1,7.6,7.5,10.9"/>
			</g>
		</g>
		<g>
			<g>
				<path class="st3" d="M1630.4,1030c0,0,1.2,4.5,3.4,12.8"/>
				<path class="st7" d="M1641.1,1069.3c27,97.5,100.2,350,159.5,453.2"/>
				<path class="st3" d="M1807.7,1534.2c2.5,4,5,7.6,7.5,10.9"/>
			</g>
		</g>
		<g>
			<g>
				<path class="st3" d="M1778.2,955.5c0,0,1.1,4.6,3.1,12.9"/>
				<path class="st8" d="M1787.6,993.7c25.4,101.2,97.4,376.1,157.2,482.5"/>
				<path class="st3" d="M1951.4,1487.3c2.5,4,5,7.6,7.4,10.9"/>
			</g>
		</g>
		<g>
			<g>
				<g>
					<path class="st3" d="M1926,881c0,0,1,4.6,2.9,12.9"/>
					<path class="st9" d="M1934.9,920.5c24.4,106.5,94.6,398.7,154.1,508"/>
					<path class="st3" d="M2095.9,1440.4c2.5,4,5,7.7,7.4,11"/>
				</g>
			</g>
		</g>
		<g>
			<g>
				<path class="st3" d="M2074.1,863.4c0,0,0.8,4.6,2.3,13"/>
				<path class="st10" d="M2081,902.8c19.1,106.3,74.2,398,123,506.7"/>
				<path class="st3" d="M2209.8,1421.6c2.2,4.3,4.4,8.1,6.5,11.5"/>
			</g>
		</g>
		<g>
			<g>
				<path class="st3" d="M2222.2,845.8c0,0,0.6,4.7,1.6,13.1"/>
				<path class="st11" d="M2227.1,884.9c13.7,105.3,53.4,394.3,91.4,502.1"/>
				<path class="st3" d="M2323.2,1399.2c1.8,4.5,3.7,8.5,5.5,12"/>
			</g>
		</g>
		<g>
			<g>
				<path class="st3" d="M2370.3,828.2c0,0,0.4,4.7,1,13.2"/>
				<path class="st12" d="M2373.4,867.3c8.6,105.8,34,396.6,61.3,504.1"/>
				<path class="st3" d="M2438.2,1384c1.4,4.7,2.8,8.9,4.3,12.5"/>
			</g>
		</g>
		<g>
			<g>
				<path class="st3" d="M2518.3,810.5c0,0,0.1,4.7,0.4,13.2"/>
				<path class="st13" d="M2519.6,849.6c3.5,105.6,14.3,396.1,30.9,503"/>
				<path class="st3" d="M2552.6,1365.4c0.9,4.9,1.9,9.2,2.8,12.9"/>
			</g>
		</g>
		<g>
			<g>
				<g>
					<path class="st3" d="M2668,792.9c0,0-0.1,4.7-0.2,13.2"/>
					<path class="st14" d="M2667.4,831.9c-1.6,105.5-5.2,396,0.7,502.1"/>
					<path class="st3" d="M2668.9,1346.8c0.4,5.1,0.8,9.5,1.2,13.2"/>
				</g>
			</g>
		</g>
	</g>
	<linearGradient id="SVGID_7_" gradientUnits="userSpaceOnUse" x1="1546.793" y1="3248.1895" x2="1767.2997" y2="3248.1895">
		<stop  offset="0" style="stop-color:#68B2FC"/>
		<stop  offset="1" style="stop-color:#529BF7"/>
	</linearGradient>
	<circle class="st15" cx="1657" cy="3248.2" r="110.3"/>
	<linearGradient id="SVGID_8_" gradientUnits="userSpaceOnUse" x1="760.062" y1="1592.381" x2="881.9601" y2="1592.381">
		<stop  offset="0" style="stop-color:#4085F0"/>
		<stop  offset="1" style="stop-color:#275DC9"/>
	</linearGradient>
	<circle class="st16" cx="821" cy="1592.4" r="60.9"/>
	<linearGradient id="SVGID_9_" gradientUnits="userSpaceOnUse" x1="304.2692" y1="1821.7155" x2="383.4004" y2="1821.7155">
		<stop  offset="0" style="stop-color:#68B2FC"/>
		<stop  offset="1" style="stop-color:#529BF7"/>
	</linearGradient>
	<circle class="st17" cx="343.8" cy="1821.7" r="39.6"/>
	<linearGradient id="SVGID_10_" gradientUnits="userSpaceOnUse" x1="3169.634" y1="3067.7712" x2="3320.9634" y2="3067.7712">
		<stop  offset="0" style="stop-color:#4085F0"/>
		<stop  offset="1" style="stop-color:#275DC9"/>
	</linearGradient>
	<circle class="st18" cx="3245.3" cy="3067.8" r="75.7"/>
	<path class="st19" d="M3564.5,2338c-92.7-59.6-200.8-59.6-304.5-53c-99.3,4.4-183.2,64-251.6,134.6c-13.2,15.4-19.9,37.5-35.3,53
		c-10.7,12.1-20.8,24.4-30.4,36.8c-23.8,95.9-25.4,185.9-25.4,185.9s338.7-46.1,341.9-47.2c2.9-1,270.2-170.7,320.2-202.5
		c2.2-17.3,5.7-34.5,9.3-52.4C3593.2,2368.9,3584.4,2349,3564.5,2338z"/>
	<path class="Graphic_x0020_Style_x0020_86" d="M3591,2216.6c-35.3-14.4-72.1-19.5-109.6-20.8c-147.4,4.4-345,59-425.6,113.5
		c-59.7,40.4-93.7,122.2-113,200.1c9.6-12.4,19.7-24.7,30.4-36.8c15.4-15.4,22.1-37.5,35.3-53c68.4-70.6,152.3-130.2,251.6-134.6
		c103.7-6.6,211.8-6.6,304.5,53c19.9,11,28.7,30.9,24.3,55.2c-3.6,17.9-7.1,35.1-9.3,52.4c5.2-3.3,8-5.1,8-5.1s42.2-72,62.6-137.3
		C3650.4,2265.6,3629.8,2231.5,3591,2216.6z"/>
	<path class="st20" d="M3481.4,2195.8c37.5,1.3,74.3,6.4,109.6,20.8c38.8,14.9,59.4,49,59.1,86.6c4.1-13.1,7.4-25.9,9.2-37.9
		C3652.5,2211.5,3577.7,2193,3481.4,2195.8z"/>
	<polygon class="Graphic_x0020_Style_x0020_99" points="2881.3,2393 2935.7,2527.9 2874.9,2545.6 2824.1,2435.9 	"/>
	<polygon points="2794.3,2454.4 2851,2548.1 2874.9,2545.6 2824.1,2435.9 	"/>
	<g>
		<path class="Graphic_x0020_Style_x0020_99" d="M1462.6,2530.5l-245.2,537.3c-26.2,2.6-50.3,5.7-73.1,8.8l261.2-588.9
			L1462.6,2530.5z"/>
		<path class="st21" d="M1492.4,2549l-247.8,516.4c-9.3,0.7-18.4,1.5-27.2,2.3l245.2-537.3L1492.4,2549z"/>
	</g>
	<path class="Graphic_x0020_Style_x0020_216" d="M2752.5,2726.4c-6.3,53.5-8.2,108.9-2.7,163c119-83.7,254.7-99.2,389.7-92.5
		l105.8-219.6l-36-32.7c-104.2,16.5-205.5,38-304.6,73.6C2845.2,2640.3,2761.3,2655.7,2752.5,2726.4z"/>
	<path class="st22" d="M2528.3,2695.3c-0.8,98.3,60.6,255.5,85.9,316c24.7-25.3,54.1-53.5,89.5-85.2c15-13.5,30.4-25.6,46.1-36.6
		c-5.5-54.2-3.6-109.5,2.7-163c8.8-70.6,92.7-86.1,152.3-108.1c99.1-35.6,200.4-57.1,304.6-73.6l-103.1-93.7
		C3106.2,2450.9,2529.4,2571.5,2528.3,2695.3z"/>
	<path class="st23" d="M3404.4,1543.6c0,0,37.8,90.2,2.8,191.3c-35,101-5.4,157.4-42.3,185.3c-36.9,27.9-66-108.6-66-108.6
		l-2.7-68.5c0,0,73.4-104.1,69.9-177.6C3387.7,1530.8,3404.4,1543.6,3404.4,1543.6z"/>
	<g>
		<path class="Graphic_x0020_Style_x0020_219" d="M2663.4,1265.8c22,39.3,27.5,56.6,29.1,59c19.9,72.9,12.4,175.1,31.2,291
			c0.2-0.2,0.4-0.3,0.6-0.5c5.5-3.6,11.1-7,16.9-10.1c-7.6-152.2-27-306.6-114.7-432.4C2637.3,1206.5,2652.1,1245.6,2663.4,1265.8z"
			/>
		<path class="st24" d="M2758.9,1339c-7.8-22.9-14.1-41.6-18.1-53.1c0,0-5.8-73.6-12.9-133.4c-7.1-59.8-62.1-124.3-70.8-113.3
			c-8.7,11-2.4,115.6,8.7,132.1c-33-42.5-45.6-62.9-52.7-59.8c-3.5,1.5,3.2,28.9,13.5,61.1c87.7,125.8,107.1,280.2,114.7,432.4
			c25.8-13.8,54.7-21.7,83.3-19.2c-9.7-60.5-28.4-119.4-50-177C2767,1386.4,2761.6,1362.9,2758.9,1339z"/>
		<path class="Graphic_x0020_Style_x0020_219" d="M2758.9,1339c2.7,23.9,8.2,47.4,15.7,69.9c21.6,57.5,40.2,116.5,50,177
			c6.9,0.6,13.7,1.8,20.5,3.6C2820.7,1521.8,2782.9,1410,2758.9,1339z"/>
	</g>
	<path class="Graphic_x0020_Style_x0020_212" d="M2860.2,1615.8c-4.1-9.4-9.1-22.5-14.6-38c-41.4-11.4-82.2,10.5-117.7,34.2
		c-9.7,6.9-18.5,15.3-26.1,24.5c9.5,49.4,22.4,91.4,39.4,114.4c6.2,8.5,15.8,17.1,28,25.8c7-49.6,27.6-97.8,60.3-138.2
		C2838.1,1627.8,2848.6,1620.1,2860.2,1615.8z"/>
	<path class="st25" d="M3192.2,1681.3c0,0-302.8-14.4-325.8-52.9c-1.7-2.8-3.8-7.1-6.2-12.6c-8,3-15.4,7.6-22.2,13.6
		c52.3,61.3,146.1,58.3,221.2,66.4c56.7,7.6,118.1,11.9,163.8,46.2c17.4-9.4,34.9-18.7,53-26.8
		C3228.3,1690.8,3192.2,1681.3,3192.2,1681.3z"/>
	<path class="st25" d="M2838,1629.4c-3,2.7-5.9,5.7-8.6,9c-22.6,28-38.1,52-47.8,80.6c27.1,20,47.4,46.8,79.1,58.5
		c66.2,24.3,136.8,30.9,207.4,24.3c57.7-5.5,105.9-33.2,154.9-59.7c-45.6-34.3-107.1-38.6-163.8-46.2
		C2984.1,1687.7,2890.3,1690.7,2838,1629.4z"/>
	<path class="Graphic_x0020_Style_x0020_88" d="M2860.6,1777.5c-31.7-11.7-52-38.5-79.1-58.5c-4.3,12.7-7.5,26.2-9.6,41.5
		c105.5,75.1,402.5,169.2,402.5,169.2s255.9-103.4,103.8-213.4c-0.7-0.4-1.5-0.8-2.2-1.1c-68.8,30.8-129.7,79.1-207.9,86.6
		C2997.4,1808.4,2926.8,1801.7,2860.6,1777.5z"/>
	<path class="Graphic_x0020_Style_x0020_89" d="M3311.7,1681.2c-74.5-41.9-146.9-9.9-186.2,36.7c-12.4,14.7-31.7,47.7-52,87.7
		c3.5-2,7-4,10-6c35.3-37.5,53-97.1,101.5-110.3c103.7-28.7,205.2,59.6,238.3,156.7c7.5,22.4,9.3,44.8,8.3,67.3
		c11.1-11.4,19.9-25,27.4-39.7C3436.2,1776,3369.8,1713.9,3311.7,1681.2z"/>
	<path class="st25" d="M3423.3,1845.9c-33.1-97.1-134.6-185.4-238.3-156.7c-48.5,13.2-66.2,72.8-101.5,110.3c-3,2-6.5,4-10,6
		c-44,86.6-92.9,206-87.9,244.8c2.9,22.6,18,86.2,35.1,159.4c81.9-59.7,133.6-151.2,140.1-253.5c4.4-53,72.8-72.8,112.5-41.9
		c37.5,30.9,79.4,39.7,121.4,24.3c14.7-6.1,26.8-14.8,37-25.4C3432.6,1890.7,3430.8,1868.3,3423.3,1845.9z"/>
	<path class="Graphic_x0020_Style_x0020_89" d="M3394.6,1938.4c-41.9,15.4-83.9,6.6-121.4-24.3c-39.7-30.9-108.1-11-112.5,41.9
		c-6.5,102.3-58.2,193.9-140.1,253.5c25.7,110.3,55.7,242.4,55.1,288.4c55.6,130,274.8,122.7,351.3,52.4
		c76.6-70.3,19.9-87,15.7-176.2c-4.2-89.1,16.8-259,24.1-410.1c1.6-33.2-1.4-63.5-7.8-90.9
		C3444.6,1901.6,3425.2,1925.8,3394.6,1938.4z"/>
	<path class="st26" d="M3253.7,1908.8c0,0-51.5,0-91.4,122.7c-39.9,122.7-93,241.2-113.1,250.7c20.8,18.4,44.3,19.8,57.7,15.6
		c13.4-4.1,48-7.2,69-74.9c21-67.7,49.3-136.3,58.7-169.6c9.4-33.3,23-85,30.8-112C3273.3,1914.3,3253.7,1908.8,3253.7,1908.8z"/>
	<path class="st24" d="M3140.1,1732.6c-0.4-1.9-1.2-60.9-8-96.5c-76.3,22.2-126.9,19.1-115.9-118c3.6-44.6,21.5-109.1,36.4-143.1
		c31-70.5,93-82.8,164.2-67.5c105.5,22.6,126.7,117.9,87.1,229.1c-39.6,111.2-4.3,173.3-4.3,173.3s-43.1,22.3-87.7,52.9
		c-31.8,21.7-64.2,57.4-82.4,48C3120.5,1806.1,3143.3,1746.8,3140.1,1732.6z"/>
	<path class="Graphic_x0020_Style_x0020_46" d="M3199.9,1599.5l-67.8,36.6l5.2,42.8C3137.3,1678.9,3197.9,1620.4,3199.9,1599.5z"/>
	<path class="st20" d="M3646.8,2376.2c-2.3,5.7-4.9,11.4-7.9,17.1c-7.4,14.1-15.9,33.6-24.6,56.3c-16.2,11.4-33.5,21.4-45.3,38.5
		c-19.9,33.1-35.3,66.2-50.8,101.5c-6.6,11-15.4,17.7-19.9,28.7c-28.7,59.6-64,119.2-125.8,136.8c-87,25.8-179.8,23.3-265.7,40.7
		c-80.2-1.7-160.1,5.8-236.1,32c-14.1,4.9-28.1,10.4-42,16.6c1.3-40.6,18.6-202.7,210.8-243.9c220.2-47.2,605.6-144.8,619.8-335.1
		C3659.4,2265.3,3670.2,2318.4,3646.8,2376.2z"/>
	<path class="st27" d="M3646.8,2376.2c-2.3,5.7-4.9,11.4-7.9,17.1c-7.4,14.1-15.9,33.6-24.6,56.3c-16.2,11.4-33.5,21.4-45.3,38.5
		c-19.9,33.1-35.3,66.2-50.8,101.5c-6.6,11-15.4,17.7-19.9,28.7c-28.7,59.6-64,119.2-125.8,136.8c-87,25.8-179.8,23.3-265.7,40.7
		c-80.2-1.7-160.1,5.8-236.1,32c0.8-46.8,19-122.3,117.8-167.6C3132.5,2594.3,3541.5,2538.2,3646.8,2376.2z"/>
	<path class="Graphic_x0020_Style_x0020_86" d="M3569,2488c-19.9,33.1-35.3,66.2-50.8,101.5c-6.6,11-15.4,17.7-19.9,28.7
		c-28.7,59.6-64,119.2-125.8,136.8c-87,25.8-179.8,23.4-265.7,40.7c152.6,3.2,306.1,39.4,435.7,42.4c3.5-32.8,7.1-77.5,7.1-121.9
		c0-67,33.7-186.8,64.5-266.7C3598,2460.9,3580.8,2471,3569,2488z"/>
	<path class="Graphic_x0020_Style_x0020_99" d="M2423.3,3250.4c-21.4,11.8-52.8,23.4-102.9,38.2c-2.7,0.8-5.4,1.5-8,2.3l-127-690.4
		l139.5-18.4L2423.3,3250.4z"/>
	<path class="st21" d="M2312.4,3290.8c-8.1,2.2-16,4.1-23.7,5.6c-28.6-155.8-126.4-686.9-127.7-690.3l24.4-5.7L2312.4,3290.8z"/>
	
		<ellipse transform="matrix(0.9985 -5.536693e-02 5.536693e-02 0.9985 -125.9251 120.8099)" class="st28" cx="2117.3" cy="2333" rx="868" ry="283"/>
	
		<ellipse transform="matrix(0.9985 -5.536679e-02 5.536679e-02 0.9985 -123.7797 120.7501)" class="Graphic_x0020_Style_x0020_210" cx="2117.3" cy="2294.3" rx="868" ry="283"/>
	<path class="Graphic_x0020_Style_x0020_210" d="M1795.5,2237c0,0,308.3,58.2,311.5,81.8c-86.5,25.2-135.3,143.7-21.3,150.5
		c114.1,6.8,252.5,36.2,258.8-58.8c6.3-94.9,50.1-122.4,195.1-117.8c144.9,4.6,341.8,100.3,341.8,100.3l93.2-98.7
		c0,0-406.6-42.5-456.9-86.1c-50.3-43.6-440.6-39.7-553.8-14.9C1850.5,2218.1,1758.5,2229.8,1795.5,2237z"/>
	<path class="st23" d="M3052.6,1325.8c0,0,2.4,155.7,139.7,190.1c44.5-38.6,72,11.3,59,39.7c18.6,46.7,21,62.5,48.4,68.6
		c35.6-2.5,27.6-70.1,27.6-70.1c29.4-16.7,59.7-111.7,34.4-189.2C3336.5,1287.4,3146.8,1192.4,3052.6,1325.8z"/>
	<path class="st23" d="M3159.1,1469.8l1.6,89.2c2.5,9.4,7.2,9.4,13.8,2.3c0,0,21.5-66.5,34.1-72S3159.1,1469.8,3159.1,1469.8z"/>
	<path class="st23" d="M3357.8,1498.1c0,0,60.7,30.7,53.3,53.5c-22.3,19.5-41.3,22.5-41.3,22.5l-46.9-27.3L3357.8,1498.1z"/>
	<polygon class="Graphic_x0020_Style_x0020_83" points="1880.3,2246.2 2171.7,2307.4 2524.1,2184.7 2524.1,2170.1 2251.1,2138.3 
		1881.5,2231.2 	"/>
	<polygon class="Graphic_x0020_Style_x0020_87" points="1880.3,2231.5 2171.7,2292.8 2524.1,2170.1 2251.1,2123.7 	"/>
	<polygon class="Graphic_x0020_Style_x0020_83" points="1953,2228.8 2252.2,2141.7 2371.3,2158.8 2088.4,2257.4 	"/>
	<polygon class="Graphic_x0020_Style_x0020_83" points="2225.1,2229.4 2309.5,2198 2365,2206 2270.4,2239 	"/>
	<path class="Graphic_x0020_Style_x0020_83" d="M1764.3,1861.3c0,0,107,368.9,108.5,366.5c1.6-2.4,371.2-103.8,371.2-103.8
		l-89.7-302l-374.4,31.1L1764.3,1861.3z"/>
	<path class="Graphic_x0020_Style_x0020_87" d="M1780,1853.1c0,0,107,368.9,108.5,366.5c1.6-2.4,371.2-103.8,371.2-103.8l-89.7-302
		L1780,1853.1z"/>
	<path class="Graphic_x0020_Style_x0020_78" d="M2165.3,1820.9l-376.8,38c4.3,14.9,8.9,30.6,13.6,46.7l373.2-50.8L2165.3,1820.9z"/>
	<path class="Graphic_x0020_Style_x0020_84" d="M1802.1,1905.6c26.5,91,57,195.4,75.5,257.2l363.4-86.7l-65.7-221.3L1802.1,1905.6z"
		/>
	<path class="Graphic_x0020_Style_x0020_220" d="M1877.7,2162.8c6.9,23,12.1,40.2,14.8,48.5c7.9-2.5,23-6.8,52.9-15.2
		c30.9-8.7,73.8-20.7,127.6-35.6c77.6-21.5,155.8-43,178.5-49.2l-10.4-35.1L1877.7,2162.8z"/>
	<path class="Graphic_x0020_Style_x0020_219" d="M2763.5,2298.3c-15.4-6.6-30.9-13.2-46.3-17.7c-96.9-33.6-197.4-12.3-296.7-21.8
		c0.5,0.1,1,0.2,1.6,0.3c17.8,1.6,99.1,25,129,14.1c20.5-7.5,64.8,0.8,91.7,6.7c38.3,14.5,203.9,94.5,360,122.4
		c-6.5-11.6-10.7-22.8-13.2-33.9c-27-3.7-53.7-10.1-80.4-19.3C2860.6,2331.4,2812.1,2318.1,2763.5,2298.3z"/>
	<path class="st24" d="M2992.7,2274c-119.3-11.1-353.3-46.7-361.2-56.9c0,0-0.3,0.9-0.8,2.5c-27.1-10.1-69.7-21.1-98.5-26.1
		c-46-8-127.5,27.2-128.3,41.2c-0.1,1.4,0.4,21.4,16.6,24.1c99.3,9.5,199.8-11.8,296.7,21.8c15.4,4.4,30.9,11,46.3,17.7
		c48.5,19.9,97.1,33.1,145.6,50.8c26.7,9.3,53.5,15.6,80.4,19.3C2982.6,2338.3,2987.7,2308.9,2992.7,2274z"/>
	<path class="Graphic_x0020_Style_x0020_212" d="M3052.4,2276.2c-14.5,1-39.3-0.2-69.8-3.1c-6.8,47.8-0.7,117.4,23.4,160.3
		c41.8,7.5,78.5,4.3,107.8,3.5C3117.6,2381.3,3088.5,2321.2,3052.4,2276.2z"/>
	<path class="st25" d="M3348.3,2009.2c16.7-22.6,37.8-39.4,56.2-58.5c-1-2.4,27.8-37.4,26.8-39.8c-26.1-59.7-102.3-77.1-180.4-12.6
		c-36.7,40.9-55.6,74.5-55.6,74.5s-90.2,289.4-133.2,302c-2.3,0.7-5.6,1.1-9.7,1.4c20.9,26.1,37.9,56,47.8,87.4
		c23.1-11.1,44.5-25.7,65-43.3C3262.2,2238.7,3273.3,2112.9,3348.3,2009.2z"/>
	<path class="Graphic_x0020_Style_x0020_88" d="M3242.4,2309.3c-28.4,55.2-79.7,78.7-133.6,96.4c0.8,9.2,1,18.4,0.4,27.6
		c16.4-0.5,30-2.5,40-6.5c25.8-10.3,86.8-0.9,120.9-43c90.4-111.7,161.2-331.4,161.2-331.4s-0.2-1.2-0.5-3.3
		c-21.4,0.5-42.5,10.6-58.2,26.3C3304.2,2139.4,3284.3,2227.6,3242.4,2309.3z"/>
	<path class="Graphic_x0020_Style_x0020_89" d="M3348.3,2009.2c-75,103.7-86.1,229.5-183.2,311.1c-20.5,17.5-41.9,32.2-65,43.3
		c4.4,13.8,7.3,28,8.6,42.2c53.9-17.8,105.2-41.2,133.6-96.4c41.9-81.6,61.8-169.9,130.2-233.9c15.7-15.7,36.9-25.8,58.2-26.3
		c-1.9-12.3-9.3-56.6-26.3-98.4C3386.1,1969.7,3365,1986.6,3348.3,2009.2z"/>
	<path class="Graphic_x0020_Style_x0020_218" d="M2305.3,2373.1l-227-9.5c-4.3-0.2-7.8,3.3-7.7,7.6l1.3,45.3c0.1,4,3.4,7.2,7.4,7.2
		H2305c4.1,0,7.4-3.3,7.4-7.4v-35.9C2312.4,2376.5,2309.3,2373.2,2305.3,2373.1z"/>
	<path class="Graphic_x0020_Style_x0020_220" d="M2305.3,2359.9l-227-9.5c-4.3-0.2-7.8,3.3-7.7,7.6l1.3,45.3c0.1,4,3.4,7.2,7.4,7.2
		H2305c4.1,0,7.4-3.3,7.4-7.4v-35.9C2312.4,2363.4,2309.3,2360.1,2305.3,2359.9z"/>
	<path class="Graphic_x0020_Style_x0020_78" d="M2078,2357.1c-0.3,0-0.4,0.1-0.5,0.2c-0.1,0.2-0.2,0.3-0.2,0.6l1.3,45.3
		c0,0.4,0.3,0.7,0.8,0.7h22.3l-1.9-46L2078,2357.1z"/>
	<polygon class="Graphic_x0020_Style_x0020_84" points="2287.2,2365.8 2099.7,2358 2101.6,2404 2285.9,2404 	"/>
	<path class="Graphic_x0020_Style_x0020_90" d="M2305,2366.6l-17.9-0.7l-1.3,38.1h19.1c0.4,0,0.8-0.3,0.8-0.8v-35.9
		C2305.8,2366.9,2305.4,2366.6,2305,2366.6z"/>
	<path class="st29" d="M770.5,2428.4c8.9-3.3,18.2-8,27.1-13.9c-41.4-19.9-99.5-32.3-163.9-32.3c-71.5,0-135.2,15.3-177,39.1
		c15.9,14.6,43.6,15.9,62.2,15.9C602.8,2439.5,688.9,2454.9,770.5,2428.4z"/>
	<path class="Graphic_x0020_Style_x0020_90" d="M845.9,3059.4c-5.5-2.1-11.1-4.4-16.8-6.8c-1.3-0.5-2.5-1.1-3.8-1.6h0
		c-22.6-143.7-77.7-492.7-76.9-491.5c1,1.6,21.4-14.2,21.4-14.2L845.9,3059.4z"/>
	<path class="Graphic_x0020_Style_x0020_90" d="M501.8,2559.5c0.4-0.6-12.4,81-28.2,181.6c-6.1-10.1-12-20.4-17.7-30.8l24.4-165
		C480.4,2545.3,500.8,2561.1,501.8,2559.5z"/>
	<path class="Graphic_x0020_Style_x0020_226" d="M797.6,2414.5c-8.9,5.9-18.1,10.7-27.1,13.9c-81.6,26.5-167.7,11-251.6,8.8
		c-18.6,0-46.3-1.3-62.2-15.9c-29,16.6-47.3,37.3-50.2,60c9.6,18,27.9,31.5,46.2,37.6c121.4,44.6,289,61.8,403.5-9.2
		c3.3-7.1,5-14.5,5-22.1C861.3,2459.3,837,2433.5,797.6,2414.5z"/>
	<path class="Graphic_x0020_Style_x0020_86" d="M452.7,2518.9c-18.3-6.1-36.6-19.6-46.2-37.6c-0.3,2.1-0.4,4.2-0.4,6.3
		c0,58.2,101.9,105.4,227.6,105.4c109.3,0,200.7-35.7,222.6-83.3C741.7,2580.7,574.1,2563.6,452.7,2518.9z"/>
	<g>
		<g>
			<path class="st30" d="M633.1,2248.2c-11.3-89.7-20.9-165.6,20.9-198.9c2.5-2,28.2-21.8,58.9-14.4c30.9,7.5,45,37.1,47.1,41.9
				c-15.3-94.4,3.7-166.6,40.6-179.3c16-5.5,40.8-1.8,58.9,13.1c26.3,21.6,25.1,55.9,24.9,60.2c3.9-25.5,21.7-123.4,91.6-157
				c13.9-6.7,40.5-19.5,61.5-6.5c24.1,14.8,22.4,52,22.2,55c34.7-62.8,87.2-93.4,123-81.1c16.2,5.5,30.5,20.4,35.3,38
				c8.5,31.3-13.3,71.2-57.6,92.9c25.8-1.4,49.2,8.9,60.2,27.5c17.8,30.2-6.6,66.3-10.5,72c-24.5,36.2-77.5,50.9-134.8,40.6
				c47,37.5,69,82.9,56.3,113.9c-8.2,20.1-29.1,29.3-52.3,39.3c-23.7,10.1-71.7,25.9-140,15.7c41.9,22.2,70.2,53.4,66.7,81.1
				c-4.7,37.1-64.5,53.2-109.9,65.4c-33.2,8.9-183.1,49.3-240.8-24.9C643,2326.5,639.7,2300.4,633.1,2248.2z"/>
			<path class="st31" d="M519.1,2378.1c32.5,18.6,73.8,12.3,108.1-2.8c64.2-28.3,112.7-83.4,152.9-140.9s74.8-119.5,122.3-171.2
				c44.9-48.9,100.1-87.2,149-132.1c36.9-33.9,70.2-71.7,99.3-112.5"/>
			<path class="st31" d="M701.5,2129.3c38,59.5,50.1,127.3,11.4,186.3"/>
			<path class="st31" d="M748.4,2277.6c49.2-25.1,146.9,17.7,197.5,10.3"/>
			<path class="st31" d="M824.6,2167.8c21.2-62.1,6.4-120,10.6-173"/>
			<path class="st31" d="M992.7,1874.7c-4.4,47.8-16.8,94.8-36.6,138.6"/>
			<path class="st31" d="M1012.6,1965.4c45.2-16.7,96-17.8,141.9-3"/>
			<path class="st31" d="M861.4,2113.9c50.6-25.3,109.9-28.1,162.7-7.8"/>
		</g>
		<g>
			<g>
				<path class="st32" d="M593.5,2231.5c-80-56.5-119.6-57.7-128.3-90.5c-5.4-20.4,2.4-48.3,22.7-60.3c25.1-14.8,56.3,2.5,57.8,3.3
					c-70.8-57.1-98.4-121.2-77.8-151.3c9.8-14.3,35.7-28.7,62.8-26.6c21.1,1.6,35.3,12.7,41,17.7c-35.8-76.4-42.2-140.6-16.5-158.4
					c10.1-7,32.1-11.8,51.1-3.6c15.4,6.7,22.8,19.4,25.5,24.8c-8.8-52.7,17.6-94.1,46.6-100c18.1-3.7,38.2,6.2,49.3,20.5
					c15.5,20,14.5,50-3.7,73.6c2.1-1.7,34.8-26.4,58.4-15.8c25.7,11.5,23.8,57.4,10.2,86.1c-13.4,28.6-39.4,42.3-48.8,46.8
					c3.9-2,41-21,65.4-5.7c33.4,21,10.1,86,8.6,90.1c-21.9,59.1-86.2,83.1-99.2,87.7c42.7,0.1,76.4,19.5,83.2,45.9
					c8.5,33-28.1,64.6-48,81.8c-48.6,42-107.3,49.5-137.2,50.9C611.6,2244.7,603.6,2238.6,593.5,2231.5z"/>
				<path class="Graphic_x0020_Style_x0020_95" d="M687.7,1737.2c-2.9,51.8-12.6,103.5-28.7,153.6c-23.3,72.1-60.3,142.5-61.6,217.1
					c-0.4,22.7,2.5,45.2,5.5,67.6c3.4,25.6,6.8,51.6,18.1,74.7c10.4,21.4,27.3,39.4,46.9,53.4"/>
				<path class="Graphic_x0020_Style_x0020_95" d="M604.1,2191.4c1-3.5,3.4-6.6,6.1-9.3c15.5-16.1,38.2-23.6,60.1-28.9
					c21.9-5.3,44.6-9.5,63.9-21.2"/>
				<path class="Graphic_x0020_Style_x0020_95" d="M618.7,2000.7c15.1-21.6,42.3-31.7,67.9-39.3c25.6-7.5,53-14.7,72-33.3"/>
				<path class="Graphic_x0020_Style_x0020_95" d="M650.3,1914.2c6.3-12.8,0.9-27.9-8-38.4c-8.9-10.5-21-18.1-30.9-27.8
					c-9.9-9.7-17.9-22.9-15.4-36.7"/>
				<path class="Graphic_x0020_Style_x0020_95" d="M668.5,1856.9c1-4.2,2-8.4,4.2-12.1c3.4-5.6,9.2-9.4,15.1-12.5
					c12.1-6.5,25.1-11,37.3-17.2c12.2-6.2,24-14.3,31.1-25.7"/>
				<path class="Graphic_x0020_Style_x0020_95" d="M599,2077.9c-0.6-10.3-1.3-20.7-4.6-30.4c-6.3-18.6-21.5-32.7-35.5-46.6
					c-14-13.9-28-29.6-30.9-49.1"/>
				<path class="Graphic_x0020_Style_x0020_95" d="M530.5,2121.6c14.6-2.6,29.9-0.3,42.6,6.4s22.8,17.6,28.2,30.7"/>
			</g>
			<g>
				<path class="st33" d="M597.2,2319c-23.1-89.9-11.1-124.3-36.8-144.2c-16-12.4-43-16.2-60.1-3.4c-21.1,15.9-16.3,49.1-16.1,50.7
					c-26.6-82.3-73.5-130.2-106.6-124c-15.7,2.9-36.8,19.7-43.9,43.6c-5.5,18.7-0.5,35,2,41.8c-55-59.6-108.9-89.4-132.9-74.2
					c-9.4,6-20.9,23-19.9,42.4c0.8,15.8,9.5,26.9,13.3,31.2c-43.1-27.5-88-20.6-102.6,2c-9.1,14.1-7.1,35.1,1.7,50
					c12.3,20.8,38.9,31.3,65.5,24.8c-2.1,1.2-34.4,19.8-32.9,44c1.6,26.4,42.3,42.1,71.8,41.4c29.3-0.7,49.9-17.7,56.9-24.1
					c-3,2.5-31.8,27.2-26.4,53.8c7.3,36.6,71.8,41.3,75.9,41.5c58.8,3.6,100.8-42.3,109.1-51.7c-14,36.6-8.1,72.8,12.7,88.6
					c26,19.8,65.7,0.5,87.2-10c52.6-25.7,78.4-73.1,89.5-98.2C602.8,2339.6,600.1,2330.4,597.2,2319z"/>
				<path class="Graphic_x0020_Style_x0020_95" d="M134.7,2212.3c46.2,17.2,94.5,28.5,143.5,33.6c70.5,7.4,144.2,2.4,209.8,29.5
					c20,8.3,38.6,19.3,57.2,30.3c21.2,12.6,42.8,25.4,59.2,43.8"/>
				<path class="Graphic_x0020_Style_x0020_95" d="M559.5,2314.4c-3.4-0.5-59.1,12.1-76.9,89.8"/>
				<path class="Graphic_x0020_Style_x0020_95" d="M387.4,2253.2c-23.8,4.7-41.6,24.2-56.6,43.3c-15,19.1-30.2,39.8-52.7,49"/>
				<path class="Graphic_x0020_Style_x0020_95" d="M301.5,2247.3c-13.2,0.5-24.6-9.8-30.9-21.4c-6.3-11.6-8.9-24.9-14.1-37
					c-5.2-12.2-14.1-24-27-27.1"/>
				<path class="Graphic_x0020_Style_x0020_95" d="M245.5,2241.2c-4-0.8-8-1.5-12-1c-6,0.8-11.2,4.4-15.9,8.2
					c-9.6,7.9-17.9,17.3-27.2,25.5c-9.4,8.2-20.4,15.2-32.7,16.9"/>
				<path class="Graphic_x0020_Style_x0020_95" d="M461.3,2265.5c-8.8-4.5-17.7-9-25.1-15.5c-14.2-12.5-21.5-30.8-29-48.1
					s-16.7-35.2-32.7-45.1"/>
				<path class="Graphic_x0020_Style_x0020_95" d="M521.9,2223.4c-7,11.6-10.1,25.5-8.4,38.9c1.6,13.4,9.8,26.6,19.4,36.2"/>
			</g>
			<g>
				<path class="st33" d="M675.9,2350.4c70.5-28.2,88-53.4,112.9-45.3c15.6,5.1,30.4,21.9,29.6,40.2c-1,22.5-25.3,35.6-26.5,36.2
					c67-22,120.3-12.9,131.2,13.2c5.2,12.4,3.6,35.3-9.1,52.1c-10,13-23.1,17.6-28.8,19.2c64.8,9,109.2,31.8,110,56
					c0.3,9.5-5.9,25.9-19.2,34.7c-10.9,7.2-22.2,6.6-26.9,6.1c38,16.5,53.8,51.1,45.4,72.5c-5.2,13.3-20.1,22.2-34.1,23.4
					c-19.5,1.6-38.6-11.7-46.3-33.4c0.2,2.1,2.5,33.7-14.4,44.6c-18.3,11.8-47.3-8.7-60.3-29.6c-12.9-20.8-10.9-43.5-9.8-51.5
					c-0.3,3.4-3.7,35.5-23.9,44.9c-27.7,12.9-60.2-29.7-62.2-32.4c-29.2-39.1-17.7-91.1-15.2-101.5c-18.1,27.8-44.9,41.4-64.9,34.8
					c-25.1-8.4-30.2-45.5-33-65.7c-6.8-49.3,13.1-90.6,24.8-110.7C659.6,2356.6,667,2353.9,675.9,2350.4z"/>
				<path class="Graphic_x0020_Style_x0020_95" d="M957.6,2620.1c-32.5-23.7-62-51.8-87.7-83.4c-37-45.5-67.2-99.3-115.2-131.6
					c-14.6-9.8-30.5-17.4-46.3-24.9c-18-8.6-36.4-17.3-56.2-19.7c-18.3-2.2-37.1,1.1-54.5,7.9"/>
				<path class="Graphic_x0020_Style_x0020_95" d="M697.4,2374.2c1.9,2.1,2.8,5,3.5,7.9c4,16.9-0.8,34.8-6.5,51.2
					c-5.8,16.5-12.7,33-13.2,50.5"/>
				<path class="Graphic_x0020_Style_x0020_95" d="M815.3,2464.1c7.7,18.9,2.8,40.9-3.1,60.7c-5.9,19.9-12.8,40.7-8.7,60.8"/>
				<path class="Graphic_x0020_Style_x0020_95" d="M858.3,2521.1c5.7,9.5,17.7,12.3,28.3,11c10.6-1.4,20.6-6,31.1-8.4
					c10.5-2.4,22.4-2,30.3,5.5"/>
				<path class="Graphic_x0020_Style_x0020_95" d="M887.8,2557.1c2.3,2.4,4.6,4.8,6.1,7.9c2.2,4.6,2.2,9.9,1.8,15.1
					c-0.9,10.6-3.4,21-4.6,31.5c-1.2,10.6-0.9,21.7,3.6,31.1"/>
				<path class="Graphic_x0020_Style_x0020_95" d="M773.4,2418.7c7,3.9,14,7.9,21.7,9.8c14.8,3.7,30.3-0.2,45.3-3.4
					c15-3.3,31.1-5.7,45,0.6"/>
				<path class="Graphic_x0020_Style_x0020_95" d="M773.9,2355.8c-4.5,10.6-12.4,19.6-22.1,25c-9.7,5.5-21.1,7.4-31.8,5.4"/>
			</g>
		</g>
	</g>
	<polyline class="st34" points="1264.3,1778.3 1395.9,1430 1550.1,1497.7 1658.6,1326.9 1764.3,1368.7 1764.3,1030.5 1976.4,1102 
		2003.9,954.9 2057.4,859 2214.7,1038 2294.9,876.3 2362.6,775.6 2450.7,847.2 2542.7,803.6 2656.7,880.2 2748.8,872.4 
		2839.5,882.8 	"/>
	<path class="Graphic_x0020_Style_x0020_87" d="M1036.5,1286.1c0,0,213.2-192.7,385.7-266.6c6.3,27.3,6.3,27.3,6.3,27.3
		s-244.5,114.2-373.5,283C1044.1,1311.7,1036.5,1286.1,1036.5,1286.1z"/>
</g>
</svg>
