<?xml version="1.0" encoding="utf-8"?>
<!-- Generator: Adobe Illustrator 22.0.0, SVG Export Plug-In . SVG Version: 6.00 Build 0)  -->
<svg version="1.1" id="Layer_1" xmlns="http://www.w3.org/2000/svg" xmlns:xlink="http://www.w3.org/1999/xlink" x="0px" y="0px"
	 viewBox="0 0 4000 4000" style="enable-background:new 0 0 4000 4000;" xml:space="preserve">
<style type="text/css">
	.st0{fill:#DB6767;}
	.st1{fill:url(#SVGID_1_);}
	.st2{fill:url(#SVGID_2_);}
	.st3{fill:url(#SVGID_3_);}
	.st4{fill:#53678F;}
	.st5{fill:#FFFFFF;}
	.st6{fill:#8E9DF4;stroke:#1A1A1A;stroke-width:2;stroke-linecap:round;stroke-linejoin:round;stroke-miterlimit:10;}
	.st7{fill:#102140;}
	.st8{fill:#344059;}
	.st9{fill:#D9D9D9;}
	.st10{fill:#FFDE70;}
	.st11{fill:#FFB114;}
	.st12{fill:#DBD2DB;}
	.st13{fill:#FC9590;}
	.st14{fill:#D1334A;}
	.st15{fill:#EF5164;}
	.st16{fill:#FFFFFF;stroke:#1A1A1A;stroke-width:2;stroke-linecap:round;stroke-linejoin:round;stroke-miterlimit:10;}
	.st17{fill:#EB485C;}
	.st18{fill:none;stroke:#BFBEBA;stroke-width:2;stroke-linecap:round;stroke-linejoin:round;stroke-miterlimit:10;}
	.st19{fill:#572658;}
	.st20{fill:#EDEDED;}
	.st21{fill:#0C182E;}
	.st22{fill:url(#SVGID_4_);}
	.st23{fill:url(#SVGID_5_);}
</style>
<path class="st0" d="M1950.1,1954.7c0,0,32.7,82.2,99.8,90.6c-1.5-37.4-1.5-37.4-1.5-37.4S1969,1985.5,1950.1,1954.7z"/>
<g>
	<linearGradient id="SVGID_1_" gradientUnits="userSpaceOnUse" x1="431.9344" y1="2062.6777" x2="3783.3611" y2="2062.6777">
		<stop  offset="0" style="stop-color:#68B2FC"/>
		<stop  offset="1" style="stop-color:#529BF7"/>
	</linearGradient>
	<path class="st1" d="M632.9,1313c-60.2,147.6-130.8,358.6-168.3,619.7c-24.7,171.8-59.1,426,0,726.8
		c24.7,125.7,106.5,542,405.4,826.3c364.7,346.8,965.6,414.3,1537.6,214.2c257,79.1,583.3,135.7,765-30.6
		c142.9-130.9,97.3-309.2,137.7-627.4c101.5-799.9,558.1-1000.6,459-1415.4c-40.5-169.7-181.4-406-680.8-619.7
		c-93.6-145.6-336.5-475.6-772.6-619.7C1785.5,212,1076.3,347,778.2,823.3C667.7,999.9,638.8,1183.2,632.9,1313z"/>
	<linearGradient id="SVGID_2_" gradientUnits="userSpaceOnUse" x1="3564.5481" y1="1427.4198" x2="3895.48" y2="1427.4198">
		<stop  offset="0" style="stop-color:#68B2FC"/>
		<stop  offset="1" style="stop-color:#529BF7"/>
	</linearGradient>
	<ellipse class="st2" cx="3730" cy="1427.4" rx="165.5" ry="164.1"/>
	<linearGradient id="SVGID_3_" gradientUnits="userSpaceOnUse" x1="171.86" y1="1953.4827" x2="3867.606" y2="1953.4827">
		<stop  offset="0" style="stop-color:#4085F0"/>
		<stop  offset="1" style="stop-color:#275DC9"/>
	</linearGradient>
	<path class="st3" d="M3140.9,3327.2c85.3-10,161.4-61.3,218.4-125.5c57-64.2,97.5-141,137.5-217c77.8-148,155.6-296,233.4-444
		c49-93.1,98.4-187.6,122.1-290.1c38.4-166.3,3.5-348.3-93.8-488.6c-80.9-116.7-199-201.3-304.8-295.9
		c-105.9-94.7-205.4-209.8-227.9-350c-8.7-54.3-5.4-110.3-18.1-163.8c-34.7-146.8-181.7-241.7-328.3-277.4
		c-146.6-35.7-300.3-27.6-449.2-52.1c-148.9-24.5-253.7-145.6-376.1-233.8c-102.5-74-207.8-149.3-329.5-183.6
		c-121.7-34.3-265.2-19.6-355.3,69c-103.4,101.7-111,268.9-200.9,382.8c-127.8,161.9-378,169.1-528.4,310.3
		c-109.5,102.9-148.5,263-142.4,413.2c6.1,150.2,51.2,295.5,85.6,441.8c34.4,146.3,58.3,300.1,21.9,445.9
		c-15.8,63.4-44.3,123.9-84.3,175.6c-15.8,20.3-33.6,44.4-55.1,58.2c-25,16.1-53.2,26.7-78,43.9
		c-103.3,71.7-182.4,185.4-200.8,310.7c-11.4,77.5-26.4,146.8-1.9,224.8c38.2,121.4,144.8,212.8,263.8,257.8s249.7,49.2,376.7,40.4
		c93.3-6.5,187.8-19.5,279.5-1.3c164.1,32.5,291.5,157.8,438.1,238.5c295.7,162.6,688.4,127.4,950.3-85.3
		c96.4,49.5,197.2,79,305.6,79.2c83.8,0.2,170-16,240-62.1C3109,3502.6,3143.8,3410.9,3140.9,3327.2z"/>
	<polygon class="st4" points="670.6,2947.8 1038.3,3327.9 1303,3120.4 834.6,2747.2 	"/>
	<path class="st4" d="M2174.4,1386.1l383.7,375.4c0,0,100.4-161.1,105.1-169.9c4.6-8.9-359.4-299.4-359.4-299.4L2174.4,1386.1z"/>
	<path class="st4" d="M2865.1,2039.1l383.7,375.4c0,0,100.4-161.1,105.1-169.9s-359.4-299.4-359.4-299.4L2865.1,2039.1z"/>
	<path class="st4" d="M1526,3610.2l189.4-208.5c0,0,11.4,214.2,133.8,250.6c122.4,36.3,317.5,0,317.5,0l7.1,38.3
		C2173.8,3690.5,1834.6,3804.4,1526,3610.2z"/>
	<polygon class="st5" points="1918.5,1615 2076.5,1732 2234.4,1532.9 2087.2,1431.2 	"/>
	<polygon class="st6" points="2062.2,2092.8 1868.3,2274.9 2134.5,2562.7 2338,2388.6 	"/>
	<polygon class="st5" points="2264.2,2361.9 2127.5,2484.8 2114.1,2473.1 2254.7,2352.6 	"/>
	<polygon class="st5" points="2226.5,2321.7 2089.7,2444.7 2076.3,2432.9 2216.9,2312.4 	"/>
	<g>
		<path class="st7" d="M629.2,2906.5l240.3-282.1c0,0,36.5-29.3,79.4,13.6c42.9,42.9-86.6,155.2-119.5,188.9
			c-32.9,33.6-137.3,142.4-137.3,142.4L629.2,2906.5z"/>
		<path class="st7" d="M1063.9,3281.3l240.3-282.1c0,0,36.5-29.3,79.4,13.6c42.9,42.9-86.6,155.2-119.5,188.9
			c-32.9,33.6-137.3,142.4-137.3,142.4L1063.9,3281.3z"/>
		<path class="st8" d="M569.1,3021.5c0,8.6,454.9,401.3,454.9,401.3c63.2,46.3,175.7-40.5,102.3-111.1L659,2899.7
			C594.1,2852,519.7,2953.1,569.1,3021.5z"/>
	</g>
	<g>
		<path class="st7" d="M1452.5,3561.3l284.9-315.2c0,0,36.5-29.3,79.4,13.6c42.9,42.9-86.6,155.2-119.5,188.9
			c-32.9,33.6-154.3,168.4-154.3,168.4L1452.5,3561.3z"/>
	</g>
	<path class="st9" d="M1301.1,3012.9c-2.9,5.8-14.5,14.5-26.1,14.5c-69.7-2.9-139.4-8.7-209.1-29c-55.2-14.5-122-37.8-148.1-95.8
		c26.1,58.1,92.9,81.3,148.1,95.8c69.7,20.3,139.4,26.1,209.1,29C1286.5,3027.4,1298.1,3018.7,1301.1,3012.9
		c13.8-17.3,29-32.3,45.1-45.9c12.5-30.7,18.9-60.3,17.2-81.8c-4-50.9-133.9-129.8-210.2-178.3c-76.3-48.4-203.5-47.9-203.5-47.9
		c-28-1.1-83,119.1-87,219.8c-4,100.7,49.5,140.3,76.3,158.9c26.8,18.6,266.4,93.8,326.7,44.3c34.8-28.6,63.4-72.9,80.5-115
		C1330.1,2980.6,1314.9,2995.6,1301.1,3012.9z"/>
	<path class="st8" d="M2367.4,1178c0,0,68.7-216.2,128.7-228.2c60-12,178.5,15.4,293,131.8c114.5,116.5,277.1,264.7,170.7,386.3
		c-106.4,121.6-263.1,157.8-263.1,157.8l-376.2-381.8L2367.4,1178z"/>
	<path class="st8" d="M3105.1,1765.9c0,0,106.7-177.1,166.7-189.2c60-12,178.5,15.4,293,131.8c114.5,116.5,277.1,264.7,170.7,386.3
		C3629,2216.6,3482,2289.3,3482,2289.3l-122,108.5l-404.8-506.1L3105.1,1765.9z"/>
	<path class="st10" d="M3133.8,2217.1c44.8,35.5,101.1,51.3,158.8,51.8c32.3-82.5,66.7-181.5,61.9-217.5
		c-8.8-66-78.4-99.5-78.4-99.5s-188.3-25-216-8.3c-27.7,16.7-57.1,81.9-57.1,81.9s-1.1,20.1-3.4,44.6c10.9,5.6,22,10.1,29.7,16.3
		C3069.9,2127,3093.1,2179.3,3133.8,2217.1z"/>
	<path class="st11" d="M3133.8,2217.1c-40.7-37.8-63.9-90-104.6-130.7c-7.8-6.2-18.9-10.8-29.7-16.3c-2.6,28.2-6.8,62.2-12.6,78.1
		c203.2,197.8,253.4,246.7,253.4,246.7s25.4-57.3,52.2-126C3234.8,2268.4,3178.6,2252.6,3133.8,2217.1z"/>
	<path class="st7" d="M3300.5,2453.4c0,0,193.1-184.3,221.6-192.4c28.6-8.2,46.4,2.5,56.2,20.4c9.8,17.8,0,46.4-9.8,55.3
		c-9.8,8.9-200.8,182.2-200.8,182.2L3300.5,2453.4z"/>
	<path class="st5" d="M1953.9,1210L988.7,2232.6l1366.4,1389.1c-14.3,7.4-28.8,14.4-43.6,20.9L921.6,2233.4l1030.8-1092.2
		l1662.7,1618.5c-7.8,14.9-15.6,29.7-23.4,44.6L1953.9,1210z"/>
	<path class="st12" d="M3591.6,2804.2c-31.6,60.2-63.2,120.3-94.8,180.4c-39.9,76-80.5,152.8-137.5,217
		c-57,64.2-133.1,115.5-218.4,125.5c2.9,83.7-31.9,175.4-101.9,221.5c-70,46.1-156.1,62.3-239.9,62.1
		c-108.4-0.2-209.2-29.7-305.6-79.2c-42,34.1-87.4,63.6-135.1,88.5c-1.1,0.6-2.2,1.2-3.2,1.7L988.7,2232.6L1953.9,1210
		L3591.6,2804.2z"/>
	<path class="st0" d="M1992.3,2286.8c-23.5-13.7-43-34-61.2-55.5c-2,4.2-4.1,8.5-6.4,12.8c8,3.1,12,20.5,20.5,35.2
		c8.5,14.7,58.9,50.9,87.5,40.6c16.8-6,25.1-18.8,29.1-28.4C2037.3,2288.4,2011.1,2297.5,1992.3,2286.8z"/>
	<path class="st13" d="M2047,2219.1c-51.3-38.4-95.9-39.3-95.9-39.3s-6.7,23.6-19.9,51.5c18.2,21.5,37.7,41.8,61.2,55.5
		c18.8,10.7,45,1.7,69.5,4.8c2.8-6.7,3.5-11.8,3.5-11.8s41.1,23.2,62.5,33.9c21.4,10.7,28.6-1.3,29.9-12
		C2159,2290.9,2098.3,2257.5,2047,2219.1z"/>
	<path class="st7" d="M1053.7,1421.3c0,0,8-191.9,101.7-226.7c69.6,156.2,69.6,156.2,69.6,156.2L1053.7,1421.3z"/>
	<path class="st14" d="M1533.4,1194.7c-7.9-84.6-71.2-159.5-159.1-157c-46.2,43.3-21.6,121.3-21.6,121.3l179.7,180.9
		C1545.9,1295.3,1537,1237.4,1533.4,1194.7z"/>
	<path class="st15" d="M1652.5,1253.6c-32.1-81.2-136.6-265.9-236.5-238.3c-18,5-31.6,12.8-41.7,22.4c87.9-2.5,151.2,72.4,159.1,157
		c3.6,42.7,12.5,100.6-1.1,145.2l90.7,91.3C1623.1,1431.2,1684.7,1334.8,1652.5,1253.6z"/>
	<path class="st16" d="M1638.3,1403.5"/>
	<path class="st15" d="M1525.4,1251.7c-8.7-5.8-17.6-11.4-26.8-16.3c-81.3-46.5-183-40.7-258.5,8.7c-31.9,20.3-37.8,63.9-55.2,87.1
		c-31.9,40.7-69.7,81.3-58.1,136.5c11.6,40.7,29,78.4,40.7,119.1c17.4,66.8,37.8,127.8,55.2,191.7c-0.9,0-1.5,0-2,0
		c38.1,42.2,67.4,66.6,67.4,66.6l358.3-379.6L1525.4,1251.7z"/>
	<path class="st17" d="M1167.4,1586.8c-11.6-40.7-29-78.4-40.7-119.1c-11.6-55.2,26.1-95.8,58.1-136.5
		c17.4-23.2,23.2-66.8,55.2-87.1c75.5-49.4,177.2-55.2,258.5-8.7c9.2,4.9,18.1,10.5,26.8,16.3l-5.4-9.5c0,0-36.1-110.9-192.3-116.2
		c-186.5-6.4-235.6,106.2-235.6,106.2l68.5,84.3c0,0,0,0-108.4,24.1c-28.5,184.5,89.2,349.9,168.5,437.9c0.5,0,1.1,0,2,0
		C1205.2,1714.6,1184.9,1653.6,1167.4,1586.8z"/>
	<path class="st15" d="M1478.2,1990.5c46.5,69.7,116.2,101.7,185.9,136.5c8.7,5.8,23.2,11.6,34.9,17.4
		c72.6,40.7,145.2,66.8,229.5,87.1c4.7,1.3,9.3,3,14,4.7c16.2-23,35.6-57.4,15.4-67.2c-31.2-15.2-255.7-121.8-326.7-223.5
		c-71-101.7-136.6-170-57.1-297.6l17-21l41.5-65.4l-401.7-62.4c0,0,4.5,30.1,16.9,77.9c6.3,7.7,12.2,15.3,15.6,24.2
		C1315.6,1743.6,1394,1859.8,1478.2,1990.5z"/>
	<path class="st14" d="M1928.4,2231.6c-84.2-20.3-156.8-46.5-229.5-87.1c-11.6-5.8-26.1-11.6-34.9-17.4
		c-69.7-34.9-139.4-66.8-185.9-136.5c-84.2-130.7-162.7-246.9-214.9-389.2c-3.3-8.9-9.2-16.5-15.6-24.2
		c41.7,161.4,172.8,525.7,521.3,624.8c156.6,56.2,156.6,56.2,156.6,56.2s7.9-9.2,16.8-21.8
		C1937.7,2234.6,1933.1,2232.9,1928.4,2231.6z"/>
	<path class="st5" d="M1694,1452.3c0,0-41.5-22.6-55.8-40c-39.6,15.1-72.7,13.9-84.8,50.8c-12,36.8-34.1,114.9-18.7,121.3
		c15.4,6.5,54.4,39.1,54.4,39.1L1694,1452.3z"/>
	<path class="st0" d="M2329.1,1698.9c-0.9-22.8-63.8-117.8-63.8-119.6l-10.3,2.4c19.8,55.7,67.3,118.8,24.9,156.2
		c-6,6-13.4,10.1-21.6,13c3,1,5.8,1.8,8.1,2.1c20.2,2.7,34.2-1.9,49.3-9C2330.8,1736.8,2329.9,1721.6,2329.1,1698.9z"/>
	<path class="st13" d="M2254.9,1581.7l-51.7,11.9c0,0,15.2,50.9,20.1,65.1c4.9,14.3-3.1,25-17,41.9c-12.2,15,28.7,42.3,51.9,50.2
		c8.2-3,15.6-7,21.6-13C2322.2,1700.4,2274.8,1637.4,2254.9,1581.7z"/>
	<path class="st7" d="M2145.2,1331.8l189.4-180c0,0,9.4-12.7,42.8,14.7c33.5,27.4,14.7,42.8,7.4,51.5c-7.4,8.7-185.9,168-185.9,168
		L2145.2,1331.8z"/>
	<path class="st5" d="M2630.7,1308.9c-73.2-44.6-169.6-50.9-176.7-52.6c0,0-71.8,72.3-82.6,111.1c-6.4,23.4-13.7,76.1-18.4,114.4
		c65.6,84,145.4,161,257.9,186.3c5.8,2.9,17.4,8.7,23.2,8.7c21.8,2.6,44.4,5,67,5.6c24.8-29.5,51.7-77.9,64.3-137.1
		C2784.2,1457,2703.9,1353.5,2630.7,1308.9z"/>
	<path class="st9" d="M2611,1668.1c-112.5-25.3-192.3-102.4-257.9-186.3c-3.1,25.3-5.2,44.3-5.2,44.3l241.8,235.4
		c0,0,50.2-36.8,78.3-50.2c9.3-4.4,21-14.4,33.2-28.9c-22.6-0.7-45.2-3-67-5.6C2628.4,1676.8,2616.8,1671,2611,1668.1z"/>
	<path class="st18" d="M2464.2,1508.9c0,0,10.3,72.6,21.7,82.7"/>
	<path class="st5" d="M2105.6,1360.2c17.4,75.5,55.2,142.3,78.4,214.9c3.7,11,8.5,22,11.5,33.7c31.7,10.8,78.8-24.7,78.8-24.7
		s0,0-7.4-20.7c-8.7-27.4-56.2-139.2-56.2-139.2s0,0,48.9-0.2c48.2,2.5,120.5-28.6,120.5-28.6l143.5-125.8c0,0-0.5-0.2-1.3-0.4
		c-2.5,0.6-5,1-7.2,1C2372.8,1281.8,2230.5,1293.4,2105.6,1360.2z"/>
	<path class="st9" d="M2390.9,1244.2c-36.1-2.7-276.5,81-303.2,110.4c-26.8,29.4,99.1,249.6,99.1,249.6c2.8,2,5.7,3.5,8.9,4.6
		c-3.1-11.7-7.9-22.7-11.5-33.7c-23.2-72.6-61-139.4-78.4-214.9c124.9-66.8,267.2-78.4,409.5-90c2.2,0,4.7-0.3,7.2-1
		C2511.5,1265.7,2432.6,1240.9,2390.9,1244.2z"/>
	<path class="st7" d="M2583,1755.5l189.4-180c0,0,9.4-12.7,42.8,14.7c33.5,27.4,14.7,42.8,7.4,51.5c-7.4,8.7-185.9,168-185.9,168
		L2583,1755.5z"/>
	<path class="st5" d="M2731.8,1512.2l-118,85.4c0,0-104.4,129.8-207.1,192.3c-102.6,62.5-160.7,122.3-160.7,122.3s34.7,27,66.3,36.5
		c9.8-1.6,18.7-6.4,25.6-13.3c98.8-75.5,194.6-136.5,305-197.5c41.7-22.2,59.5-68.4,88.9-107.9
		C2750.6,1582.5,2758.8,1545.5,2731.8,1512.2z"/>
	<path class="st9" d="M2642.9,1737.8c-110.4,61-206.2,122-305,197.5c-6.9,6.9-15.8,11.7-25.6,13.3c7.4,2.2,14.6,3.5,21.1,3.2
		c33-26.3,175.1-122.9,228.5-144.1c53.4-21.3,132.5-88.3,162.4-159.7c2.6-6.2,5.1-12.2,7.4-18.1
		C2702.4,1669.4,2684.6,1715.6,2642.9,1737.8z"/>
	<path class="st13" d="M2533.5,1494.5c26.8-0.4,49.5-36.2,49.5-36.2l-8.5-39.3h-165.1c0,0,30.8,92.8,72.3,97.3
		c41.5,4.5,65.6-40.2,65.6-40.2"/>
	<path class="st13" d="M2306.5,1919.4c-11.3-7.7-26.9-9-45.5-5.9c0,0-73,52.9-84.3,91c-11.4,38.1-20.1,127.2-4,128.5
		c16.1,1.3,26.5-10.7,26.3-40.2c-0.2-29.4,14.5-67.6,16.6-65.6c6.8,6.2,12.7,11,18,14.5C2282.7,2024.3,2309.4,1971.2,2306.5,1919.4z
		"/>
	<path class="st0" d="M2325.9,1969.7c-3.3-8-2.7-24.8-2.7-24.8c-3.3-12-9-20.3-16.8-25.5c3,51.8-23.7,104.9-72.9,122.3
		c18.3,12,30.9,8.7,56.3-5.8C2322.6,2017.9,2329.3,1975.7,2325.9,1969.7z"/>
	<g>
		
			<ellipse transform="matrix(3.623445e-03 -1 1 3.623445e-03 563.1622 3309.3345)" class="st5" cx="1942.3" cy="1372.1" rx="56.9" ry="56.9"/>
		
			<ellipse transform="matrix(5.102311e-03 -1 1 5.102311e-03 560.2987 3307.293)" class="st19" cx="1942.3" cy="1372.1" rx="40.2" ry="40.3"/>
	</g>
	<g>
		<ellipse class="st5" cx="1241.2" cy="2092.8" rx="56.9" ry="56.9"/>
		
			<ellipse transform="matrix(1 -5.154884e-03 5.154884e-03 1 -10.7717 6.426)" class="st19" cx="1241.2" cy="2092.8" rx="40.3" ry="40.2"/>
	</g>
	<g>
		<ellipse class="st5" cx="1951.8" cy="2747.2" rx="56.9" ry="56.9"/>
		<ellipse class="st19" cx="1951.8" cy="2747.2" rx="40.3" ry="40.2"/>
	</g>
	<g>
		
			<ellipse transform="matrix(1 -3.731023e-03 3.731023e-03 1 -12.9427 10.3993)" class="st5" cx="2780.8" cy="3474.1" rx="56.9" ry="56.9"/>
		
			<ellipse transform="matrix(1 -5.318563e-03 5.318563e-03 1 -18.4381 14.8389)" class="st19" cx="2780.8" cy="3474.1" rx="40.3" ry="40.2"/>
	</g>
	<g>
		
			<ellipse transform="matrix(3.596859e-03 -1 1 3.596859e-03 640.0865 6056.3442)" class="st5" cx="3359.1" cy="2707" rx="56.9" ry="56.9"/>
		
			<ellipse transform="matrix(5.050048e-03 -1 1 5.050048e-03 635.2221 6052.3896)" class="st19" cx="3359.1" cy="2707" rx="40.2" ry="40.3"/>
	</g>
	<path class="st7" d="M2780.7,1951.9c0,0,209.7-200.1,238.3-208.2c28.6-8.2,46.4,2.5,56.2,20.4c9.8,17.8,0,46.4-9.8,55.3
		c-9.8,8.9-221.3,200.8-221.3,200.8L2780.7,1951.9z"/>
	<polygon class="st5" points="1624.4,2462.3 1801.1,2462.3 1806.5,2747.2 1624.4,2747.2 	"/>
	<polygon class="st5" points="2423.3,2929.7 2532.5,3068.6 2311.9,3249 2199.3,3105.9 	"/>
	<polygon class="st5" points="2783.1,3113.4 2877.4,3262.9 2639.3,3419.5 2542.1,3265.5 	"/>
	<polygon class="st5" points="3120,2610.1 3264.1,2712.4 3103.4,2947.8 2955,2842.4 	"/>
	<polygon class="st20" points="2849.1,2185.5 2936.7,2338.9 2691.9,2484.8 2601.6,2326.8 	"/>
	<polygon class="st5" points="2788.7,2120.6 2876.3,2274 2631.5,2420 2541.2,2261.9 	"/>
	<path class="st13" d="M1603.4,1660.9c0,0-35.7,5.8-18.3,36.6c17.4,30.8,44.2,37.9,61.1,15.6
		C1630.2,1690.4,1603.4,1660.9,1603.4,1660.9z"/>
	<path class="st13" d="M2692.3,2504.6c6,23.9,20.4,45.5,40.2,61.2c6.8-10.3,11.9-28.2,3.6-42.4c-12.5-21.4-21.4-53.5-14.3-55.3
		c9.8,6.7,9.4,22.4,21.9,16.8c12.5-5.6,3.6-41.8-3.6-53.8c-7.1-12-13.8-36.6-11.6-43.7c0.8-2.4-6.4-6.1-16.2-9.9
		C2694.9,2417.7,2679.9,2460.1,2692.3,2504.6z"/>
	<path class="st0" d="M2692.3,2504.6c-12.4-44.5,2.6-86.9,19.9-127.2c-19.2-7.5-48.5-15.5-48.5-15.5s-32.3,123.1-5.9,162.4
		c26.4,39.3,56.8,50,64.8,50c2.7,0,6.4-3.3,9.8-8.4C2712.7,2550.1,2698.3,2528.5,2692.3,2504.6z"/>
	<path class="st11" d="M2814.3,2095.1c-31.9,37.8-37.8,90-61,133.6c-2.9,8.7,2.9,23.2,0,31.9c-22.1,44.1-38.9,90.9-30.6,140.2
		c6.8-0.9,14-2.9,22.2-6c12.9-98.8,66.7-284.6,100.3-311.4c13.2-10.5,42.8-19.2,73.8-25.8
		C2879.5,2054.3,2839.9,2062.7,2814.3,2095.1z"/>
	<path class="st10" d="M2941,1907.7c-118.4,39.2-176.5,72.6-222.9,143.6c-14.9,22.8-74.3,320.4-60.7,332
		c30.1,14.2,46.5,20,65.2,17.5c-8.3-49.4,8.5-96.1,30.6-140.2c2.9-8.7-2.9-23.2,0-31.9c23.2-43.6,29-95.8,61-133.6
		c25.6-32.4,65.2-40.8,104.7-37.4c47.8-10.2,99.1-15.7,99.1-15.7l69.1-92.1l27.3-36.4C3114.5,1913.5,3059.5,1868.5,2941,1907.7z"/>
	<path class="st0" d="M2788.1,2577.2c-36.3-5.2-49.5-33.6-41.5-66.5c-5.9,1.3-12.1,3.9-17.8,7.8c-13.8,9.4-27.2,36.1-25.4,44.6
		c1.8,8.5,34.8,63.8,82.3,60.5c56.6-4,62.5-12.7,92.3-15.8c29.8-3.1,37.8-3.6,37.8-3.6l-1.7-19.1
		C2876.2,2599.5,2827.3,2585.9,2788.1,2577.2z"/>
	<path class="st13" d="M2862.3,2537.7c-12-10.3-33.5-40.2-45.5-31.2c-9.4,13.4-0.4,31,10.3,38.3c-9.8,3.7-48-24.4-57.9-31.1
		c-5.8-3.9-14-4.8-22.5-2.9c-8,32.9,5.1,61.3,41.5,66.5c39.1,8.7,88.1,22.3,126,7.8l-3.7-41.1
		C2910.5,2543.9,2874.4,2547.9,2862.3,2537.7z"/>
	<path class="st10" d="M3331.3,2350.7c20.3-31.9,31.9-66.8,37.8-98.8c21.9-92.6,29.5-189.3-16.6-274.6
		c-38.2-22.9-80.7-33.7-80.7-33.7l-7.7,241.9c0,0-3.4,108.6-23.1,149.7c-19.7,41.1-80.3,106.4-126.5,127.1
		c-46.2,20.7-208.8,75.1-208.8,75.1s-8.8,30.1-6.9,52.9c24.5-5.1,43.2-19.8,66.6-27.6C3101.8,2516.2,3255.8,2484.3,3331.3,2350.7z"
		/>
	<path class="st11" d="M3365.5,1985.8c-4.2-3-8.6-5.8-13.1-8.5c46.2,85.3,38.6,182,16.6,274.6c-5.8,31.9-17.4,66.8-37.8,98.8
		c-75.5,133.6-229.5,165.6-366,212c-23.4,7.8-42.1,22.5-66.6,27.6c0.7,8.1,2.7,15.2,6.9,19.8c106.4,7.4,354.1-63.1,404-113.2
		c49.9-50,143.3-194.6,143.7-290.2C3453.6,2103.3,3406.3,2014.5,3365.5,1985.8z"/>
	<path class="st5" d="M3144.8,1986c0,0-22.3,20.3-8,37.2s13.8,72.7,10.7,86.1c6.2,18.7,12.9,15.6,12.9,15.6s14.7-40.6,45.1-49.1
		c30.3-8.5,65.6-33.5,72.7-46.8c7.1-13.4-4.5-50.4-4.5-50.4l-97.3-7.6L3144.8,1986z"/>
	<path class="st13" d="M3210.2,1987.5c0,0-13.4,17.7-66.3,11c-52.9-6.7-64.7-118-64.7-118s149-52.7,170.4-19.9
		c21.4,32.8,16.7,131.2,16.7,131.2s-46.2,27.2-70.3,27c-24.1-0.2-37.4-19-37.4-19"/>
	<path class="st13" d="M2306,2832.8c-68.7-55.5-161.4-7.6-221.3,43c5.6,11.4,16.2,27.3,33.7,34.2c29.5-20.7,59.6-34.1,76.6-37.5
		c17.1-3.3,37.8,9.4,51.2-1.3c13.4-10.7,9.4-8.7-14.7-24.8c39.1,18.8,73.9,14.3,90.4,6.6C2317.5,2845.5,2312.5,2838.5,2306,2832.8z"
		/>
	<path class="st0" d="M2332,2843.7c0-10-32.8-42.8-59.6-52.9c-26.8-10-23.4-9.4-62.3,0c-38.8,9.4-130.5,72.3-130.5,72.3
		s1.5,5.4,5.1,12.7c59.9-50.6,152.6-98.5,221.3-43c6.5,5.7,11.5,12.7,15.9,20.2C2328.3,2850,2332,2846.6,2332,2843.7z"/>
	<path class="st11" d="M1867.4,3158.1c14.5-40.7,37.8-78.4,63.9-116.2c11.6-14.5,23.2-23.2,31.9-34.9
		c40.2-56.3,87.9-97.8,129.3-147.3c-10.7-4.5-19.6-5.3-19.6-5.3s-344.7,272.6-369.5,503.7c-24.8,231.1,23.4,258.7,137.2,321.4
		c0,0,198.4,49.4,267-7.2c36.1-33.6,43.8-55.5,43.8-55.5l-64.2-47.1c-45.9-2.8-93.1-3.5-135.6-31.2
		C1821,3451.5,1823.9,3291.7,1867.4,3158.1z"/>
	<path class="st10" d="M1894.8,3173c49.5-115.1,187.4-210.1,234.3-258.3c-0.8-33.2-20.7-48.2-36.6-54.9
		c-41.4,49.5-89,91-129.3,147.3c-8.7,11.6-20.3,20.3-31.9,34.9c-26.1,37.8-49.4,75.5-63.9,116.2c-43.6,133.6-46.5,293.4,84.2,380.5
		c42.5,27.7,89.7,28.4,135.6,31.2l-173.9-127.7C1885,3389.9,1845.3,3288.1,1894.8,3173z"/>
	<path class="st13" d="M2253.7,3024.5c28,16,46.3,41.6,64.5,68.3c5.8-10.5,10.1-21.9,7.7-30c0,0-69.2-98.6-107.5-105.7
		c-38.4-7.1-67.4,5.4-74.5,31.2c-0.1,6.6,5,12.6,12.8,18C2190.9,3003.1,2223.3,3008.1,2253.7,3024.5z"/>
	<path class="st0" d="M2253.7,3024.5c-30.5-16.4-62.8-21.4-97-18.2c17.9,12.3,49.8,21.2,63.5,26.2c19.6,7.1,4,12-4.9,17
		c-8.9,4.9,10.3,12,43.3,29.4c33,17.4,40.6,41.5,40.6,41.5s11-13,19.1-27.6C2300,3066.1,2281.7,3040.5,2253.7,3024.5z"/>
	<path class="st11" d="M2407.6,3277.9c-10.7-112-81-233.8-81-233.8c-1.6-1.5-5.1-0.6-9.5,2c0.2,0.5,0.3,1.1,0.5,1.6
		c58.1,156.8,153.9,366-2.9,490.9c-62,51.2-146.5,74.9-230.3,66.4l-20.9,74.6c0,0,253.2-31.7,321.8-134.3
		C2434,3472.5,2418.3,3389.9,2407.6,3277.9z"/>
	<path class="st10" d="M2314.7,3538.6c156.8-124.9,61-334,2.9-490.9c-0.2-0.5-0.3-1.1-0.5-1.6c-16.2,9.8-45.1,43.1-42.5,67.3
		c15.2,27.9,41.9,114.9,32.6,215.7c-9.4,100.8-38.8,137.4-63.8,157.9c-25,20.5-125.8,0-125.8,0l-33.1,117.9
		C2168.2,3613.5,2252.7,3589.8,2314.7,3538.6z"/>
	<path class="st16" d="M1066.2,2545.9c0,0,0-33.5,9.4-37.5c9.4-4,80.3-9.4,87.7,37.5c-20.1,29.4-20.1,29.4-20.1,29.4L1066.2,2545.9z
		"/>
	<path class="st13" d="M1463.7,2635.3c4.4-35.3,8.8-79-8.5-113.3l-32.2,18.6c0,0,2.5,18,0.5,51.1c-1.5,24.2-0.1,47.5,5.8,63.3
		C1447.3,2654.4,1462.2,2651.9,1463.7,2635.3z"/>
	<path class="st0" d="M1473.1,2511.7l-17.9,10.4c17.3,34.2,12.9,78,8.5,113.3c-1.5,16.6-16.4,19.1-34.3,19.7
		c2.1,5.8,4.9,10.7,8.3,14.1c12.7,12.7,68.3-22.1,84.3-46.2C1538.1,2598.8,1473.1,2511.7,1473.1,2511.7z"/>
	<path class="st9" d="M917.7,2667.3c26.1-98.8,98.8-168.5,136.5-261.4c5.8-11.6,14.5-26.1,20.3-40.7c0.3-0.7,0.7-1.4,1.1-2.1
		c-53.1,46.1-103.7,139.7-156.7,219.7c-68.3,103.1-84.3,206.1-84.3,271.7s72.3,166,72.3,166l36.9-90.9
		C910,2848.3,893.2,2761.9,917.7,2667.3z"/>
	<path class="st5" d="M1378.1,2403.4c-72.3-66.9-184.7-84.3-255.7-66.9c-15.9,3.9-31.5,13.3-46.8,26.6c-0.4,0.7-0.7,1.4-1.1,2.1
		c-5.8,14.5-14.5,29-20.3,40.7c-37.8,92.9-110.4,162.7-136.5,261.4c-24.5,94.6-7.7,181,26.1,262.2l122.4-301.3
		c0,0,111.1-160.6,151.9-179.4c40.8-18.7,121.2,26.8,196.1,113.8c25.4,5.4,50.9-10.7,73.6-51
		C1487.9,2498.1,1450.4,2470.3,1378.1,2403.4z"/>
	<path class="st13" d="M1408.5,2353.6c-2.5,0.4-4.2,1.4-5.3,2.9c12,14.8,31.7,32.2,45.9,40.9c8.7,9.4,8.7,9.4,8.7,9.4
		s-36.1-19.4-42.2-14.7c-6,4.7,10.7,34.1,29.5,42.2c18.7,8,45.5,32.8,49.5,53.5c4,20.7,5.3,38,5.3,38l42-3.8
		C1538.6,2443.6,1502.4,2334.2,1408.5,2353.6z"/>
	<path class="st0" d="M1491.2,2358.5c-28.1-28.4-101.1-34.8-98.4-20.1c0.9,4.7,4.8,11.1,10.4,18c1.2-1.5,2.9-2.5,5.3-2.9
		c93.9-19.3,130,90.1,133.3,168.3l14.9-1.4C1556.8,2520.5,1542.8,2408.7,1491.2,2358.5z"/>
	<path class="st5" d="M1584.3,2647.7c-2.7-50.9-11.4-123.8-20.1-136c-7.6-10.7-29.6-17.9-57.9-1.1c21.4,102.2,22.3,214.5-45.5,302
		c-75.5,90-209.1,90-275.9-14.5c-1.8-3.1-3.4-6.3-4.8-9.5c-10.7-10.8-16.9-18.3-16.9-18.3l-70.5,199.1
		c51.7,53.3,105.7,81.8,172.9,59.9c86.4,14.1,186.1-50.3,253-127.2C1585.6,2825,1586.9,2698.5,1584.3,2647.7z"/>
	<path class="st9" d="M1460.8,2812.5c67.8-87.5,66.9-199.7,45.5-302c-4,2.4-8.1,5.2-12.4,8.6c7.4,12.5,2,162.6-6,204.8
		c-8,42.2-92.4,148.6-174.8,139.1c-57.7-6.7-108-49.4-133-74.5c1.4,3.2,3,6.3,4.8,9.5C1251.7,2902.5,1385.3,2902.5,1460.8,2812.5z"
		/>
	<path class="st7" d="M1560.2,1596.2c0,0,36.8,53.5,43.8,88.3c7.1,34.8,57.9,57.6,88.7,54.9c30.8-2.7,58.9-0.9,80.3,0.2
		c21.4,1.1,66.3-61.1,77.6-66.5c11.4-5.4,32.1-55.5,19.4-103.1c-12.7-47.5-56.2-103.7-77.6-117.1c-21.4-13.4-55.6-34.1-98.4-18.1
		c-42.8,16.1-54.9,43.5-66.9,53.5c-12,10-58.2,32.1-62.9,59.6C1559.5,1575.5,1555.1,1588.5,1560.2,1596.2z"/>
	<path class="st7" d="M2400.9,1360.7c0,0-22.8,66.6,18.7,74.8c41.5,8.2,61.6,25.3,115.8,6.7c45.5,12.9,69.6-46,89.7-49.4
		c20.1-3.3,81,38.8,103.8,46.2c22.8,7.4,93,12.4,105.1-18.9c12-31.3-10-46.7-33.5-78.1c-23.4-31.5-34.1-49.5-63.6-58.9
		c-8-38.1-22.1-62.2-44.8-62.9c-36.8-34.1-64.3-59.6-105.8-64.9c-50.2-29.4-77-26.8-97.1-10.7c-44.8,18.7-32.6,91.2-30.4,116.6
		C2461.1,1286.4,2402.2,1342.9,2400.9,1360.7z"/>
	<path class="st7" d="M3114.5,1748.8c0,0-99.1,81.2-54.4,125.8c44.6,44.6,84.8,56.4,149,17c0,0-17,42.8,8.9,60.2
		c25.9,17.4,38.4,21.8,44.6,31.6c15.2,9.8,58.9,2.7,75-36.6c16.1-39.3,34.8-125.8-17.9-166.9
		C3267.1,1739,3175.2,1701.5,3114.5,1748.8z"/>
	<path class="st7" d="M1960.4,3557.4c0,0-32.1-11.4-72.3-1.5c-40.2,9.8-67.8-129.4-28.6-160.6c39.3-31.2,144.6-156.2,219.6-105.3
		c25,17.8,25,17.8,25,17.8s50-4.5,60.7,34.8s51.8,57.1,0,141.9c-41.9,66-14.3,90.1-42.8,108
		C2093.4,3610.3,2000.6,3593.7,1960.4,3557.4z"/>
	<path class="st13" d="M1293.7,2511.7c0,0,20.8,102.5-7.4,152.7c-28.1,50.2-68.9,43.5-75.6,40.2c-6.7-3.3,31.5-208.8,31.5-208.8
		L1293.7,2511.7z"/>
	<path class="st21" d="M1170.6,2715.9l29.9,54.2c0,0,65.1-93.9,65.1-165.4c0-71.5,0-71.5,0-71.5l-115.1,7.4"/>
	<path class="st7" d="M1059.5,2533.2c0,0,16.1-65.6,59.6-95c43.5-29.4,91-57.6,147.3-34.8s42.2,180-4,224.9"/>
	<path class="st10" d="M1085.7,2544.7c0,0-10.4-31.1,16.6-26.4c26.9,4.7,75.6,29,76.6,43c1,14-47.6,19.2-47.6,19.2L1085.7,2544.7z"
		/>
	<path class="st7" d="M1075.5,2525c0,0,97,2.8,108.7,103.2c11.8,100.4,29.8,156.6,0,207.5c-20.4,77.6-13.7,117.8-28.4,166
		c-14.7,48.2-42.8,120.5-120.5,151.3c-77.6,64.2-77.6,64.2-77.6,64.2s-81.7-192.3-81.7-262.1c0-69.8-1.3-111.5,29.5-167.6
		c30.8-56.2,58.9-109.7,87-171.3C1020.6,2554.6,1054.4,2522.3,1075.5,2525z"/>
	<linearGradient id="SVGID_4_" gradientUnits="userSpaceOnUse" x1="3500.7129" y1="3344.0081" x2="3664.0842" y2="3344.0081">
		<stop  offset="0" style="stop-color:#4085F0"/>
		<stop  offset="1" style="stop-color:#275DC9"/>
	</linearGradient>
	<ellipse class="st22" cx="3582.4" cy="3344" rx="81.7" ry="81.7"/>
	<linearGradient id="SVGID_5_" gradientUnits="userSpaceOnUse" x1="104.5201" y1="2023.2799" x2="512.6696" y2="2023.2799">
		<stop  offset="0" style="stop-color:#68B2FC"/>
		<stop  offset="1" style="stop-color:#529BF7"/>
	</linearGradient>
	<ellipse class="st23" cx="308.6" cy="2023.3" rx="204.1" ry="202.4"/>
</g>
</svg>
