<svg id="Layer_1" data-name="Layer 1" xmlns="http://www.w3.org/2000/svg" xmlns:xlink="http://www.w3.org/1999/xlink" viewBox="0 0 6000 4000"><defs><style>.Graphic-Style-136{fill:#d1334a;}.Graphic-Style-133{fill:url(#linear-gradient);}.cls-1,.cls-10,.cls-13,.cls-19,.cls-25,.cls-27,.cls-28,.cls-4{fill:none;}.cls-1,.cls-23,.cls-4{stroke:#1a1a1a;}.cls-1,.cls-10,.cls-13,.cls-19,.cls-23,.cls-25,.cls-27,.cls-28,.cls-4{stroke-linecap:round;stroke-linejoin:round;}.cls-1,.cls-28{stroke-width:8.08969px;}.Graphic-Style-143{fill:#572658;}.Graphic-Style-128{fill:url(#linear-gradient-2);}.cls-2{fill:url(#linear-gradient-3);}.cls-3{fill:#152a52;}.cls-10,.cls-13,.cls-19,.cls-23,.cls-25,.cls-27,.cls-4{stroke-width:5.39313px;}.cls-5{fill:#1a1a1a;}.cls-6{fill:#4b6293;}.cls-7{fill:#c1cee8;}.cls-23,.cls-8,.cls-9{fill:#fff;}.cls-9{stroke:#000;stroke-miterlimit:10;stroke-width:2.69656px;}.Graphic-Style-62{fill:#7d5b7d;}.Graphic-Style-142{fill:#b080b0;}.cls-10{stroke:#fff;}.Graphic-Style-126{fill:#ffb114;}.Graphic-Style-127{fill:#ffde70;}.Graphic-Style-135{fill:#102140;}.cls-11{fill:#fc9590;}.cls-12{clip-path:url(#clip-path);}.cls-13{stroke:#99112b;}.Graphic-Style-140{fill:#db6767;}.Graphic-Style-139{fill:#e8766f;}.cls-14{fill:#152440;}.cls-15{fill:#1f3560;}.cls-16{fill:#233b6b;}.cls-17{fill:#081120;}.cls-18{fill:#2a4780;}.cls-19{stroke:#1a7996;stroke-dasharray:32.35877;}.Graphic-Style-138{fill:#dbd2db;}.cls-20{fill:#4d73c6;}.cls-21{fill:url(#linear-gradient-4);}.Graphic-Style-124{fill:#6584c6;}.cls-22{fill:#3b546b;}.Graphic-Style-134{fill:url(#linear-gradient-5);}.cls-24{fill:#339e7e;}.cls-25{stroke:#10663f;}.cls-26{fill:#00593b;}.cls-27{stroke:#3dbe88;}.cls-28{stroke:#134411;}.cls-29{fill:url(#linear-gradient-10);}.Graphic-Style-61{fill:#736e73;}.Graphic-Style-60{fill:#664708;}.cls-30{fill:#ef5668;}.cls-31{fill:#912433;}.cls-32{fill:#ccc4cc;}</style><linearGradient id="linear-gradient" x1="881.11765" y1="1936.73447" x2="5378.39331" y2="1936.73447" gradientUnits="userSpaceOnUse"><stop offset="0" stop-color="#68b2fc"/><stop offset="1" stop-color="#529bf7"/></linearGradient><linearGradient id="linear-gradient-2" x1="862.30937" y1="1775.82856" x2="5348.29663" y2="1775.82856" gradientUnits="userSpaceOnUse"><stop offset="0" stop-color="#4085f0"/><stop offset="1" stop-color="#275dc9"/></linearGradient><linearGradient id="linear-gradient-3" x1="2980.01162" y1="3227.18567" x2="3279.89092" y2="770.48219" gradientUnits="userSpaceOnUse"><stop offset="0" stop-color="#68b2fc"/><stop offset="1" stop-color="#ebf0f7"/></linearGradient><clipPath id="clip-path"><path class="Graphic-Style-136" d="M3626.91017,1866.384s210.75769,80.74117,235.19844,96.0355-63.47916,319.84706-56.96848,383.32815,40.69177,104.1741,19.532,153.00572c21.15972,76.50285,1.62767,104.1741-39.0641,167.65519-605.49356,19.53265-639.67465,22.78809-639.67465,22.78809s-13.02137-581.09617,0-602.25654,14.649-157.88888,118.82-177.42152,183.92681-43.13459,183.92681-43.13459Z"/></clipPath><linearGradient id="linear-gradient-4" x1="3737.66568" y1="2716.59661" x2="3977.47586" y2="2716.59661" xlink:href="#linear-gradient-3"/><linearGradient id="linear-gradient-5" x1="2152.6286" y1="3414.56052" x2="2801.84555" y2="3414.56052" xlink:href="#linear-gradient-3"/><linearGradient id="linear-gradient-10" x1="1117.5407" y1="3369.31565" x2="1607.31388" y2="3369.31565" xlink:href="#linear-gradient-2"/></defs><title>3</title><path class="Graphic-Style-133" d="M918.13647,1975.80766c-86.52181,403.21961-37.82326,1025.629,323.5314,1241.49624,342.61761,204.674,602.99376-173.16452,1361.8424-188.10546,893.017-17.58255,1127.65986,493.95609,1715.47026,293.44451,520.64214-177.5993,780.1773-730.23559,857.73513-895.38221,110.99349-236.342,275.09568-585.77018,165.5278-940.52747C5144.294,845.81721,4200.23932,663.88976,3784.77745,583.82679,3438.82613,517.159,2744.98255,383.44937,2016.6391,749.35962,1798.60942,858.89476,1080.374,1219.727,918.13647,1975.80766Z"/><path class="cls-1" d="M1503.08409,3275.346c97.23322-9.94791,200.16587-47.54941,322.49239-90.50749"/><path class="Graphic-Style-143" d="M2528.27046,3157.11012c741.90078,194.8103,828.32251,494.14193,1188.79047,413.83208,320.0241-71.299,350.37625-329.1627,704.561-522.76264l-2881.81178-79.86547C1850.61255,3139.68071,1963.12893,3008.714,2528.27046,3157.11012Z"/><path class="Graphic-Style-128" d="M5176.71587,1592.07225c-160.37052-537.57417-274.538-920.27166-594.39556-1053.39082-331.28108-137.873-450.41708,172.09721-1098.503,195.62961-588.25259,21.3602-764.1481-224.0673-1399.46218-135.43553-191.92677,26.77505-367.36342,51.24986-564.29951,165.53257-349.16491,202.62218-694.51736,646.12075-654.58734,1188.827,47.5987,646.92918,609.06965,978.15052,662.11152,1008.24525q6.171,3.50146,12.23032,6.83375l2881.81178,79.86547c51.20049-27.98657,109.15753-54.63209,175.74607-79.17487,337.27791-124.312,477.29648-40.50821,616.96744-173.05708C5468.87833,2554.38457,5305.42546,2023.51561,5176.71587,1592.07225Z"/><path class="cls-2" d="M5176.71587,1592.07225c-77.862-261.00023-144.837-485.48229-229.74582-662.62766-715.14581-166.90027-1851.4178-47.12338-2139.097,7.54821-404.60115,76.89224-333.73339,758.02618-857.853,723.30792-343.52556-22.75522-807.40472,145.27476-1086.29865,263.77283v.00428c.14681,3.01421.32061,6.03534.48586,9.05449.37723,6.6894.76664,13.38275,1.261,20.10277,47.5987,646.92918,609.06965,978.15052,662.11152,1008.24525q6.171,3.50146,12.23032,6.83375l2881.81178,79.86547c51.20049-27.98657,109.15753-54.63209,175.74607-79.17487,337.27791-124.312,477.29648-40.50821,616.96744-173.05708C5468.87833,2554.38457,5305.42546,2023.51561,5176.71587,1592.07225Z"/><path class="cls-3" d="M2077.073,1090.046c26.45515.64485,41.3702,19.15249,49.154,46.62953,21.62885,505.54373,1.09707,1195.46293,7.0301,1710.36017l68.49788.099c.03028,4.62917,1.50484-1108.31521.75242-1479.87684-5.88923-102.42365,19.60543-230.68417-37.66478-303.79413-20.86032-26.99645-56.69752-42.58258-87.75158-41.919-13.943,1.82764-699.90739.57657-873.0631.67514q-19.94427,21.93164-39.16769,44.9462v23.67681C1172.01269,1090.07175,2070.63229,1092.3352,2077.073,1090.046Z"/><path class="cls-4" d="M1330.719,1022.52362s-31.73765-29.4116-31.73765,33.25563,31.73765,61.03952,31.73765,61.03952v35.40316"/><polygon class="cls-5" points="1307.934 1155.07 1360.019 1148.559 1543.132 1443.991 1530.111 1453.757 1340.487 1218.551 1081.687 1453.757 1060.528 1443.991 1307.934 1155.07"/><path class="cls-6" d="M1253.30054,2285.83581c-8.0897-16.17939-5.39313-32.35877-8.0897-48.53816-2.69656-5.39313-8.08969-10.78626-10.78625-16.17939-10.78626-118.64882-8.0897-234.60108,10.78625-350.55334,24.26908-145.61447-2.69656-280.44268-32.35877-426.05715-2.69656-18.87595-10.78625-37.75189-21.57251-56.62784-13.41106-25.33164-26.00183-50.66328-38.67621-75.99492l-35.92105,35.52736s45.575,73.79014,39.064,179.0493c-6.51066,105.25916-35.70512,275.12229-52.73705,431.63625-17.03227,156.5133,21.59786,667.61772,21.59786,667.61772s112.88538,9.68353,248.02564-49.40437a219.78016,219.78016,0,0,0-24.95244-47.78469C1296.44556,2450.32622,1299.14213,2364.03617,1253.30054,2285.83581Z"/><path class="cls-7" d="M1578.941,2428.21881c-19.53232-482.8904-113.57894-873.11964-106.376-955.013s30.418-125.79347,30.418-125.79347l-66.19223-87.89673s-57.51068,54.25716-69.44706,263.69053c-44.04827-115.55429-138.84607-279.69184-151.91611-273.45669l-62.82415,62.13553c12.67438,25.33164,25.26515,50.66328,38.67621,75.99492,10.78626,18.87595,18.876,37.75189,21.57251,56.62784,29.66221,145.61447,56.62785,280.44268,32.35877,426.05715-18.87595,115.95226-21.57251,231.90452-10.78625,350.55334,2.69656,5.39313,8.08969,10.78626,10.78625,16.17939,2.69657,16.17939,0,32.35877,8.0897,48.53816,45.84159,78.20036,43.145,164.49041,94.37974,242.69077a219.78016,219.78016,0,0,1,24.95244,47.78469C1439.61331,2547.02514,1512.05615,2500.859,1578.941,2428.21881Z"/><path class="cls-8" d="M1213.25738,1244.151l-79.75587,79.38821s66.19195,53.71478,114.47952,53.71478c9.766,54.25734,69.38077,119.71784,114.44626,133.37762C1320.14111,1389.73322,1240.92779,1224.98849,1213.25738,1244.151Z"/><path class="cls-8" d="M1436.2483,1251.91956s-76.72317,91.45162-67.93094,255.973c46.77121-67.7,66.84582-110.56333,56.53724-142.0326,15.19159-4.34058,47.745-40.15043,59.13871-57.51278C1468.25916,1277.96308,1436.2483,1251.91956,1436.2483,1251.91956Z"/><line class="cls-9" x1="1172.02306" y1="2122.74996" x2="1172.02306" y2="2619.20467"/><path class="cls-9" d="M1230.61921,2122.75c0,8.1386-17.90438,416.69642,0,496.45471"/><path class="cls-9" d="M1328.27946,2114.61136s37.00064,400.03944,21.75566,471.03516"/><path class="cls-9" d="M1375.48192,2180.941s19.53205,80.16523,22.78739,190.03636"/><path class="cls-9" d="M1460.1208,2114.61136c-1.62767,8.1386-17.90438,334.16207,0,414.49453"/><path class="cls-9" d="M1512.20627,2180.941s18.596,249.1874,13.36718,298.96325"/><path class="cls-4" d="M1554.11686,1022.52362s-31.73765-29.4116-31.73765,33.25563,31.73765,61.03952,31.73765,61.03952v35.40316"/><polygon class="cls-5" points="1531.331 1155.07 1583.417 1148.559 1766.53 1443.991 1753.508 1453.757 1563.885 1218.551 1305.085 1453.757 1283.925 1443.991 1531.331 1155.07"/><path class="Graphic-Style-62" d="M1574.19168,2035.05533c-35.05534-53.93128-97.07631-86.29-126.73852-142.9179-21.57251-40.44846-13.48282-86.29005-2.69656-129.43508,24.26907-126.73852,24.26907-256.1736-32.35878-372.12586-2.69656-8.08969,0-21.57251-5.39312-29.66221-12.17832-17.04971-21.0465-34.09942-28.86035-51.14913l-38.06428,37.64722s45.57463,73.79014,39.0643,179.0493c-6.511,105.25916-28.41992,139.25094-45.66779,311.07067-17.24754,171.81972,14.52827,788.1833,14.52827,788.1833s140.75393,12.07611,296.08156-73.01873q-2.31078-32.40469-5.17719-64.61879C1622.72983,2334.374,1657.78517,2169.88354,1574.19168,2035.05533Z"/><path class="Graphic-Style-142" d="M1802.33839,2428.21881c-19.53166-482.8904-113.57828-873.11964-106.37538-955.013,7.20258-81.89333,30.41766-125.79347,30.41766-125.79347l-66.1919-87.89673s-57.511,54.25716-69.44739,263.69053c-44.04794-115.55429-138.84607-279.69184-151.91578-273.45669l-60.68125,60.01567c7.81385,17.04971,16.682,34.09942,28.86035,51.14913,5.39312,8.0897,2.69656,21.57252,5.39312,29.66221,56.62785,115.95226,56.62785,245.38734,32.35878,372.12586-10.78626,43.145-18.87595,88.98662,2.69656,129.43508,29.66221,56.62785,91.68318,88.98662,126.73852,142.9179,83.59349,134.82821,48.53815,299.31863,64.71754,453.02279q2.86181,32.19633,5.17719,64.61879C1696.80371,2523.81648,1751.19617,2483.76237,1802.33839,2428.21881Z"/><path class="cls-8" d="M1436.65521,1244.151l-79.75587,79.38821s66.192,53.71478,114.47952,53.71478c9.766,54.25734,69.38077,119.71784,114.44626,133.37762C1543.53893,1389.73322,1464.32562,1224.98849,1436.65521,1244.151Z"/><path class="cls-8" d="M1659.64612,1251.91956s-76.72316,91.45162-67.93093,255.973c46.77121-67.7,66.84582-110.56333,56.53724-142.0326,15.19159-4.34058,47.745-40.15043,59.13871-57.51278C1691.657,1277.96308,1659.64612,1251.91956,1659.64612,1251.91956Z"/><line class="cls-10" x1="1395.42088" y1="2122.74996" x2="1395.42088" y2="2619.20467"/><path class="cls-10" d="M1454.017,2122.75c0,8.1386-17.90438,416.69642,0,496.45471"/><path class="cls-10" d="M1551.67729,2114.61136s37.00064,400.03944,21.75566,471.03516"/><path class="cls-10" d="M1598.87974,2180.941s19.53205,80.16523,22.7874,190.03636"/><path class="cls-10" d="M1683.51863,2114.61136c-1.62767,8.1386-17.90438,334.16207,0,414.49453"/><path class="cls-9" d="M1735.6041,2180.941s18.596,249.1874,13.36718,298.96325"/><path class="cls-4" d="M1913.12356,1022.52362s-31.73764-29.4116-31.73764,33.25563,31.73764,61.03952,31.73764,61.03952v35.40316"/><polygon class="cls-5" points="1890.338 1155.07 1942.424 1148.559 2125.537 1443.991 2112.515 1453.757 1922.892 1218.551 1664.092 1453.757 1642.932 1443.991 1890.338 1155.07"/><path class="Graphic-Style-126" d="M1798.00651,2169.88354c-24.26908-26.96564-26.96565-59.32441-32.35877-88.98661-24.26908-142.91791,16.17938-269.65642,45.84159-409.87776,24.12161-125.43435.72812-259.47222-73.9544-361.63323l-38.44809,38.02643s45.575,73.79014,39.064,179.0493c-6.51066,105.25916-29.43442,148.14085-49.01841,300.06156s17.87922,799.19241,17.87922,799.19241,189.37866,16.24061,371.217-121.77677c-13.24911-34.82673-32.55562-67.2278-56.40731-94.06111C1949.0141,2326.28427,1870.81374,2256.1736,1798.00651,2169.88354Z"/><path class="Graphic-Style-127" d="M2161.34549,2428.21881c-19.53231-482.8904-113.57894-873.11964-106.376-955.013s30.418-125.79347,30.418-125.79347l-66.19223-87.89673s-57.51068,54.25716-69.44706,263.69053c-44.04827-115.55429-138.84606-279.69184-151.9161-273.45669l-60.29712,59.63646c74.68252,102.161,98.076,236.19888,73.9544,361.63323-29.66221,140.22134-70.11067,266.95985-45.84159,409.87776,5.39312,29.6622,8.08969,62.021,32.35877,88.98661,72.80723,86.29006,151.00759,156.40073,223.81482,239.99422,23.85169,26.83331,43.1582,59.23438,56.40731,94.06111A633.476,633.476,0,0,0,2161.34549,2428.21881Z"/><path class="cls-8" d="M1795.66192,1244.151l-79.75588,79.38821s66.19195,53.71478,114.47952,53.71478c9.766,54.25734,69.38077,119.71784,114.44626,133.37762C1902.54564,1389.73322,1823.33232,1224.98849,1795.66192,1244.151Z"/><path class="cls-8" d="M2018.65283,1251.91956s-76.72316,91.45162-67.93094,255.973c46.77122-67.7,66.84582-110.56333,56.53724-142.0326,15.1916-4.34058,47.745-40.15043,59.13871-57.51278C2050.66369,1277.96308,2018.65283,1251.91956,2018.65283,1251.91956Z"/><line class="cls-9" x1="1754.42759" y1="2122.74996" x2="1754.42759" y2="2619.20467"/><path class="cls-9" d="M1813.02374,2122.75c0,8.1386-17.90438,416.69642,0,496.45471"/><path class="cls-9" d="M1910.684,2114.61136s37.00064,400.03944,21.75567,471.03516"/><path class="cls-9" d="M1957.88645,2180.941s19.53205,80.16523,22.78739,190.03636"/><path class="cls-9" d="M2042.52533,2114.61136c-1.62767,8.1386-17.90438,334.16207,0,414.49453"/><path class="cls-9" d="M2094.6108,2180.941s18.596,249.1874,13.36718,298.96325"/><path class="Graphic-Style-135" d="M3533.0527,1360.86232s-36.3813-40.02064-108.41625-15.28061S3264.55876,1477.286,3271.34994,1687.8188c-6.79118,171.72492-153.044,419.61032-111.5693,533.1234s198.66144,64.033,225.21,2.91059,19.27229-346.84552,40.616-364.30907c-21.34369-57.24164-127.55747-390.35339-23.153-420.505s118.957-21.41985,126.23329-45.43224S3533.0527,1360.86232,3533.0527,1360.86232Z"/><path class="cls-11" d="M3319.85833,1642.70462s-25.70945-39.77808-23.76911-2.91059,13.09726,109.1472,48.99347,108.6621C3350.41861,1683.45291,3319.85833,1642.70462,3319.85833,1642.70462Z"/><path class="cls-5" d="M3616.2719,1541.50363s-35.31662,286.249-25.22616,329.80373,87.45068,58.32245,87.45068,58.32245,50.45231-108.94823,50.45231-127.448S3733.994,1566.73055,3616.2719,1541.50363Z"/><path class="Graphic-Style-136" d="M3626.91017,1866.384s210.75769,80.74117,235.19844,96.0355-63.47916,319.84706-56.96848,383.32815,40.69177,104.1741,19.532,153.00572c21.15972,76.50285,1.62767,104.1741-39.0641,167.65519-605.49356,19.53265-639.67465,22.78809-639.67465,22.78809s-13.02137-581.09617,0-602.25654,14.649-157.88888,118.82-177.42152,183.92681-43.13459,183.92681-43.13459Z"/><g class="cls-12"><path class="cls-13" d="M3343.18131,1886.77093s3.762,692.85531,116.62188,687.21214,160.00379-387.45454,215.36908-516.8845,38.16265-178.9136,38.16265-178.9136"/><path class="cls-13" d="M3388.06043,1877.99267s65.59967,569.95971,81.8382,624.51031c97.12144-205.035,207.98853-568.17162,205.22293-600.10307"/><path class="cls-13" d="M3309.32335,1888.025s-20.16225,683.61466,126.68333,724.18791c121.60419,33.59908,135.40238,7.39991,191.83232-226.09312s111.67622-437.901,125.435-455.45754"/><path class="cls-13" d="M3198.67934,1883.58757s58.80465,159.79766,46.21644,340.338c-19.59034,204.29327,37.14805,398.66956,100.16653,440.85529,122.88174,82.2593,340.14744,130.22621,493.13511-261.97378"/><path class="cls-13" d="M3153.52922,1978.44387s90.5862,91.41643,66.08352,244.19322c-31.11127,193.982,25.52661,451.8023,128.42758,499.17086,177.75431,81.82589,335.60162,124.02262,533.1064-293.58913"/><path class="cls-13" d="M3268.97692,1866.384s29.28177,173.67789,20.18418,363.993c-10.55059,220.71047,44.23419,438.62922,193.21406,443.302,290.37335,9.10759,340.46063-364.555,340.46063-364.555"/></g><path class="Graphic-Style-140" d="M3558.86908,1909.34359c22.54289-11.27178,53.79893-38.68284,72.59638-55.64581-19.59745-45.46038-19.58652-113.48813-19.58652-113.48813s-142.12963,15.76553-178.511,25.95276c12.51263,60.59061-12.19769,129.71187-14.79986,140.10069C3456.01093,1926.35505,3521.64278,1927.95731,3558.86908,1909.34359Z"/><path class="cls-11" d="M3537.29042,2153.70416c26.7576-99.0036,66.79131-187.39015,106.92772-278.32545a95.308,95.308,0,0,1-12.75272-21.68114,313.59172,313.59172,0,0,1-69.61823,47.83439c-41.63677,20.819-100.91707,25.34085-142.79611,2.86839-.30547,1.21859-.48322,1.86277-.48322,1.86277s8.118,99.99836,23.05378,209.95577c8.71907,36.25713,21.62781,70.09256,47.13062,96.80968C3502.23508,2229.208,3529.20073,2180.6698,3537.29042,2153.70416Z"/><path class="Graphic-Style-139" d="M3537.29042,2153.70416c-8.08969,26.96564-35.05534,75.5038-48.53816,59.32441-25.50281-26.71712-38.41155-60.55255-47.13062-96.80968,11.40049,83.9276,26.77077,173.65485,45.544,229.1571,4.30489-50.83132,83.04707-191.69932,162.26062-464.0709a77.32128,77.32128,0,0,1-5.20814-5.92638C3604.08173,1966.314,3564.048,2054.70056,3537.29042,2153.70416Z"/><path class="Graphic-Style-139" d="M3445.60723,1865.17179c-91.65158-86.69757-128.65033-214.34855-115.26166-336.977-12.30175,26.4416-18.93717,60.74774-15.338,105.29306,15.523,192.09893,122.24139,265.8341,178.5111,259.04265a99.22258,99.22258,0,0,0,17.394-3.80192C3486.47374,1889.16173,3463.63,1883.19453,3445.60723,1865.17179Z"/><path class="cls-11" d="M3634.19293,1584.00757c-9.702-160.08249-160.07822-144.55915-160.07822-144.55915s-103.01981,1.15934-143.76914,88.74633c-13.38867,122.62849,23.61008,250.27947,115.26166,336.977,18.02274,18.02274,40.86651,23.98994,65.30544,23.55675C3569.04286,1870.70383,3654.37042,1792.80729,3634.19293,1584.00757Z"/><path class="cls-14" d="M2323.83653,2258.87016c-26.96565-115.95226,5.39312-234.60108,53.93128-345.16021,16.17939-40.44847,29.66221-80.89693,40.44846-126.73852,0-8.08969,10.78626-13.48282,13.48282-24.26908,2.69657-8.08969,0-13.48282,2.69657-21.57251,5.04157-20.167,19.50993-34.44242,33.49111-48.60959-52.36443-21.01391-85.87332-36.91515-85.87332-36.91515s-79.02658,248.59182-92.24606,281.576c-11.31952,28.25994-118.342,571.67458-148.92395,727.59554h205.6038C2386.52769,2529.01672,2352.64684,2400.30236,2323.83653,2258.87016Z"/><path class="cls-15" d="M2997.97758,2444.93309c-2.69657-115.95226-72.80724-202.24231-124.042-302.01519-8.08969-18.876-13.48282-45.84159-2.69656-59.32441,43.145-56.62785,99.77287-102.46944,105.166-172.58011,3.43918-34.38942,6.85267-76.44029-4.39047-110.79877-33.6162-1.38185-76.50579-3.81772-130.98548-7.89877-129.54107-9.68485-280.72247-62.707-373.14234-99.79559-13.98118,14.16717-28.44954,28.44263-33.49111,48.60959-2.69657,8.08969,0,13.48282-2.69657,21.57251-2.69656,10.78626-13.48282,16.17939-13.48282,24.26908-10.78625,45.84159-24.26907,86.29-40.44846,126.73852-48.53816,110.55913-80.89693,229.208-53.93128,345.16021,28.81031,141.4322,62.69116,270.14656,22.61071,405.90649h649.92991C3006.87308,2589.67822,2997.97758,2518.41792,2997.97758,2444.93309Z"/><path class="cls-16" d="M3153.52048,1978.4502c-11.9265-123.14826-67.25808-178.53447-67.25808-178.53447s-22.66141,4.06492-114.24781.29888c11.24314,34.35848,7.82965,76.40935,4.39047,110.79877-5.39313,70.11067-62.021,115.95226-105.166,172.58011-10.78626,13.48282-5.39313,40.44846,2.69656,59.32441,51.23472,99.77288,121.34539,186.06293,124.042,302.01519,0,73.48483,8.8955,144.74513-1.60043,219.84356h160.17763c14.64413-41.05826,34.67218-108.4243,40.66176-183.12608C3206.97908,2359.58447,3165.474,2101.59845,3153.52048,1978.4502Z"/><path class="cls-17" d="M2773.73935,1773.87523s11.3937,20.16953,5.96813,39.38373-22.24484,77.26956-22.78739,78.89728,2.71278,28.75639,2.71278,28.75639h23.33s-3.25534-26.5861,7.05324-48.289,22.24484-83.01373,16.27671-98.74836C2781.87771,1765.73662,2773.73935,1773.87523,2773.73935,1773.87523Z"/><path class="cls-18" d="M2380.92811,1943.67811c-.23141-6.63191,239.81018,115.59075,334.21509,106.90958-27.12785,142.15425-82.46866,252.83923-82.46866,252.83923s-112.85184-10.85147-138.89458,21.70294c-43.40455-9.76632-102.00071-85.72661-138.89458-85.72661C2329.92776,2193.82708,2383.36962,2013.64748,2380.92811,1943.67811Z"/><path class="cls-19" d="M2400.80135,1979.54353s97.79675,90.17466,293.43568,95.01941c-48.90595,153.306-69.59692,209.73764-69.59692,209.73764s-95.9309-10.3458-137.31285,6.58369c-48.90595-44.20479-122.26487-75.2422-122.26487-75.2422S2406.44435,2019.96008,2400.80135,1979.54353Z"/><path class="cls-18" d="M2836.1334,2077.71636s244.69319,11.93662,291.89565-20.61779c0,169.28292,2.71278,251.21151,0,253.38181s-94.94747,71.61969-115.02208,75.41771-141.06481-42.32073-149.20316-53.1722S2823.112,2093.451,2836.1334,2077.71636Z"/><path class="cls-14" d="M2380.11428,1809.41379c13.02137,8.1386,328.78952,160.33045,407.73155,162.772s315.76815-28.50771,315.76815-28.50771v22.26812s-250.75232,37.98014-321.23922,30.38411-406.87222-166.02748-406.87222-166.02748Z"/><path class="cls-19" d="M2859.13785,2104.34631s107.42319,38.975,244.47613-4.80946c8.20459,110.46205,0,200.28244,0,200.28244s-58.10059,63.01534-115.00078,49.37769-104.39538-40.913-104.39538-40.913Z"/><path class="cls-11" d="M2280.6915,1854.38553c18.876-18.876,43.145-2.69656,64.71754,10.78626,10.78626,5.39313,29.66221,0,24.26908-16.17939,8.08969,5.39313,18.876,10.78626,26.96564,8.0897,16.17938-10.78626,0-26.96564,0-40.44847,14.79621,1.64388,24.55151-3.75155,29.32448-13.08452,1.03886-10.15623-1.76041-20.52114-10.24181-25.87609-16.08-17.9049-19.33547-21.16039-19.33547-21.16039s17.09053-2.71269,10.57953-34.99576c-.58-2.87662-46.388-98.47693-74.05874-85.45527s-19.53231,52.90065-6.51033,69.99183c-21.16039,28.4851-34.18106,51.27324-18.7186,64.29489-32.553,28.48509-46.38868,45.57628-34.18106,55.34277-18.85423,14.6122-11.76653,44.77574-1.67811,70.43C2270.26667,1880.705,2267.92232,1865.0263,2280.6915,1854.38553Z"/><path class="Graphic-Style-139" d="M2425.96824,1803.54911c-4.773,9.333-14.52827,14.7284-29.32448,13.08452,0,13.48283,16.17938,29.66221,0,40.44847-8.08969,2.69656-18.876-2.69657-26.96564-8.0897,5.39313,16.17939-13.48282,21.57252-24.26908,16.17939-21.57251-13.48282-45.84159-29.66221-64.71754-10.78626-12.76918,10.64077-10.42483,26.31948-8.86785,41.73552,7.33062,18.64027,16.24258,34.90392,17.95493,41.06862,26.04265-55.34211,13.835-65.10859,26.04265-55.34211,12.20761,9.76616,54.52708,5.69663,62.66549-8.13906,25.22894,8.13906,51.27159-26.857,28.48377-43.1345C2417.022,1829.20334,2424.63905,1816.54739,2425.96824,1803.54911Z"/><path class="cls-11" d="M3235.27523,2008.08969c45.84159,29.66221,64.71754,78.20036,115.95226,102.46944,26.96564,145.61447,62.021,288.53237,124.04195,423.36058,16.17939,32.35877,32.35877,75.5038,59.32441,78.20036,118.64883,18.876,207.63545-91.68318,272.353-186.06293,27.00843-37.61907,49.17938-76.27158,70.10672-114.60332,56.02941-115.3688,89.96623-224.14762,81.63032-272.98861-21.70221-127.14833-190.27763-87.38059-190.27763-87.38059s-37.18573,116.33113-28.37318,199.33639c-39.87768,69.99217-126.9584,209.97618-163.58059,264.50474-69.99019-30.92671-155.44284-269.38765-180.91931-331.94188-25.47713-62.55391-215.419-215.786-234.95066-229.6214-19.53232-13.83569-35.80848,16.68368-69.98954,51.67976-22.84706,23.39151-22.04652,61.148-12.20827,101.11194C3127.42451,1978.73724,3188.79636,1978.51241,3235.27523,2008.08969Z"/><path class="Graphic-Style-139" d="M3806.94684,2426.05714c-64.71754,94.37975-153.70416,204.93888-272.353,186.06293-26.96564-2.69656-43.145-45.84159-59.32441-78.20036-62.021-134.82821-97.07631-277.74611-124.04195-423.36058-51.23472-24.26908-70.11067-72.80723-115.95226-102.46944-46.47887-29.57728-107.85072-29.35245-156.89053-1.93552,4.88094,19.82659,11.97588,40.19434,19.53231,59.6256,25.22894-38.25125,48.96937-33.58229,84.63894-34.182,35.66956-.60008,39.064,65.10859,69.17648,73.24733,30.1112,8.13874,58.59563-9.76615,69.83878,37.43754,12.87056,56.97019,63.63,530.6369,198.72611,555.05262,120.29271,1.00249,266.923-200.91032,356.75624-385.8814C3856.12622,2349.78556,3833.95527,2388.43807,3806.94684,2426.05714Z"/><path class="Graphic-Style-138" d="M4993.24253,2883.97366c-96.7323,11.90057-219.24334,19.92217-395.87255,85.01891-235.84038,86.94528-363.54943,200.22475-465.45332,306.19512H2884.16535q-23.3118-9.57866-47.86432-19.10417c-70.90008-27.4954-150.05875-54.5421-239.35-80.13754q-33.3651-9.5388-68.68341-18.84021c-55.62172-14.61852-106.83778-26.49268-154.30657-36.25575-441.17748-90.5867-557.30327,4.644-846.39054-159.37768-18.15373-10.291-95.99308-55.96694-192.40844-137.52916l261.03871-159.16654h3100.6979Z"/><polygon class="cls-8" points="3437.089 2689.197 3437.089 2899.173 4106.062 2879.64 3974.221 2679.973 3437.089 2689.197"/><path class="Graphic-Style-135" d="M2830.26234,2660.51161c-.67793-37.14164-6.59447-72.57273-22.37191-85.798-50.48782-42.32073-51.5129-206.17791-18.95948-276.71246s-17.36182-288.64908-17.36182-288.64908,43.99227,264.47655-19.96166,335.07918,30.096,268.17873,24.453,320.34535C2813.6804,2664.77664,2830.26234,2660.51161,2830.26234,2660.51161Z"/><polygon class="cls-20" points="3713.793 2679.973 3514.132 2708.187 3653.346 2743.257 3803.315 2725.006 3876.56 2704.931 3817.422 2705.474 3713.793 2679.973"/><polygon class="cls-3" points="3514.132 2708.187 3527.154 2738.571 3670.389 2779.806 3745.261 2743.997 3737.666 2722.294 3656.282 2743.997 3514.132 2708.187"/><polygon class="cls-21" points="3967.71 2689.197 3737.666 2722.294 3745.261 2743.997 3977.476 2708.187 3967.71 2689.197"/><polygon class="cls-20" points="3974.221 2708.187 3861.911 2751.05 3670.389 2779.806 3745.261 2743.997 3974.221 2708.187"/><path class="Graphic-Style-135" d="M3500.30953,1413.253s-11.642,34.9271-65.00124,57.24164-128.23867,105.39063-120.3008,162.99314c-32.01554-60.15223,13.58235-206.652,85.37476-235.75794S3500.30953,1413.253,3500.30953,1413.253Z"/><path class="Graphic-Style-135" d="M3498.3692,1377.35567s-35.89621,86.34756,51.41889,124.18525,80.52392,154.26137,125.15164,170.75472,7.76134,146.49979-8.73151,182.39709,63.06091,88.321,186.27221,106.2531c49.47856,13.08117,42.68739,5.31959,42.68739,5.31959s-128.06215-160.08255-156.197-320.1651-72.76259-297.85057-191.12306-293.96978C3492.54819,1352.13054,3498.3692,1377.35567,3498.3692,1377.35567Z"/><path class="cls-20" d="M4467.57954,2706.28772H4403.6258V3058.2451q30.2952-17.27517,63.95374-33.87924Z"/><path class="cls-5" d="M4388.46275,2706.28772v360.74672q7.46943-4.41585,15.16305-8.78934V2706.28772Z"/><path class="Graphic-Style-135" d="M4521.11792,2706.28772h-53.53838v318.07814q25.69273-12.62378,53.53838-24.77681Z"/><rect class="cls-3" x="4096.29583" y="1771.16236" width="659.20671" height="390.65289"/><circle class="Graphic-Style-124" cx="4656.14944" cy="1945.03719" r="13.51988"/><circle class="Graphic-Style-124" cx="4718.69262" cy="1945.03719" r="13.51988"/><circle class="Graphic-Style-124" cx="4656.14944" cy="1997.70674" r="13.51988"/><circle class="Graphic-Style-124" cx="4718.69262" cy="1997.70674" r="13.51988"/><circle class="Graphic-Style-136" cx="4685.30491" cy="2080.67636" r="33.38822"/><rect class="cls-8" x="4166.28568" y="1819.99397" width="444.35415" height="302.75599"/><rect class="Graphic-Style-124" x="4659.46996" y="1831.38801" width="46.79554" height="46.79696"/><rect class="Graphic-Style-124" x="4416.7925" y="2238.31812" width="41.38179" height="141.6117"/><rect class="cls-3" x="4458.17429" y="2238.31812" width="36.90077" height="141.6117"/><rect class="cls-8" x="4437.82813" y="2163.16406" width="55.89844" height="68.1084"/><path d="M4492.37842,2164.51172v65.41284h-53.20264v-65.41284h53.20264m2.69678-2.69653H4436.479v70.8059h58.5962v-70.8059Z"/><rect class="cls-20" x="4335.56345" y="2332.72589" width="222.17707" height="383.87072"/><path class="cls-3" d="M4475.69476,2614.81664c24.26908-18.876,37.7519-48.53816,40.44846-78.20036,4.43656-62.11051-31.25407-151.58315,5.47345-203.89031H4365.5359v303.68376C4401.33253,2649.23684,4445.50786,2638.03714,4475.69476,2614.81664Z"/><path class="Graphic-Style-135" d="M4521.61667,2332.726c-36.72752,52.30716-1.03689,141.7798-5.47345,203.89031-2.69656,29.6622-16.17938,59.32441-40.44846,78.20036-30.1869,23.2205-74.36223,34.4202-110.15886,21.59309v80.1869h222.17753V2332.726Z"/><polygon class="cls-5" points="4075.448 2176.33 4096.987 2164.512 4742.398 2164.512 4705.719 2180.275 4075.448 2176.33"/><path class="cls-5" d="M4729.29492,2167.20825l-24.123,10.36719-619.322-3.87695,11.82837-6.49024h631.6167m26.20752-5.39306H4096.2959l-31.25,17.14624,641.21973,4.01416,49.23681-21.1604Z"/><path class="cls-3" d="M4575.46764,2188.75949c7.459-4.47523,13.2524-9.78179,16.04047-16.36405H4388.46262v32.35729C4450.50071,2197.3413,4516.296,2216.23222,4575.46764,2188.75949Z"/><path class="Graphic-Style-135" d="M4591.50811,2172.39544c-2.78807,6.58226-8.58147,11.88882-16.04047,16.36405-59.17168,27.47273-124.96693,8.58181-187.005,15.99324v39.26247h242.25167v-71.61976Z"/><polygon class="Graphic-Style-135" points="4345.942 2187.74 4345.942 2250.442 4388.463 2244.015 4388.463 2175.199 4345.942 2187.74"/><path class="cls-22" d="M4290.76549,2257.33886l-4.3885,36.994h149.64352c9.93963-15.44271,8.00476-27.21746,0-37.1166C4382.52044,2257.07223,4294.67867,2256.904,4290.76549,2257.33886Z"/><ellipse class="cls-5" cx="4286.3766" cy="2275.6965" rx="26.96097" ry="47.02638"/><path class="Graphic-Style-134" d="M2209.80718,3409.28418s305.73261-55.80751,455.9846,82.23187,195.94471-19.8238,34.55454-112.41095S2311.839,3251.04267,2206.331,3317.73232,2177.82244,3413.86231,2209.80718,3409.28418Z"/><ellipse class="Graphic-Style-133" cx="3902.2309" cy="424.94588" rx="110.14149" ry="107.60194"/><ellipse class="Graphic-Style-133" cx="3360.49573" cy="3540.41691" rx="180.74872" ry="142.23915"/><ellipse class="Graphic-Style-128" cx="752.26251" cy="1301.1581" rx="130.65582" ry="131.97915"/><ellipse class="Graphic-Style-128" cx="5079.0597" cy="2307.47653" rx="90.73961" ry="92.06172"/><path class="cls-23" d="M1840.3882,2992.23283c-21.12421,39.49-293.40591,36.12121-430.66107,31.86556q-2.20388-8.92887-4.20432-17.78185-3.68611-15.95821-6.83919-31.663C1503.54349,2967.68764,1864.62716,2946.8913,1840.3882,2992.23283Z"/><path class="cls-23" d="M1840.379,2992.23953l-14.80231,192.599c-122.3268,42.958-225.25948,80.5595-322.49264,90.50746-43.64259-84.72869-73.40632-169.85326-93.35446-251.25732C1546.99078,3028.36338,1819.27,3031.71458,1840.379,2992.23953Z"/><path class="cls-24" d="M1861.4271,2633.30829c5.19333,23.44415,22.74751,41.3819,36.04251,51.86134q12.54492,1.63932,25.57593,2.486c38.10112,2.486,74.54185-14.066,106.75729-38.223-22.625-5.5334-72.005-19.43476-85.007-38.18875-17.0483-24.55435-1.21407-28.86693,7.27162-18.3083,8.77412,15.71742,68.22248,34.72044,94.94779,42.59248a427.31742,427.31742,0,0,0,43.60717-44.32822c-21.9971-1.05847-51.57346-8.33541-59.89587-19.22763-10.79141-14.1221,2.40275-21.95733,13.06115-12.9897,7.81918,6.58559,44.66742,10.11208,63.69054,11.53412a600.09622,600.09622,0,0,0,45.49047-67.43066c.70536-1.24048,1.07835-1.91955,1.07835-1.91955a712.33239,712.33239,0,0,0-65.3699-66.49238c-15.22878,3.22272-38.28883,8.67631-50.43928,14.42459-19.11617,9.04147-31.565,18.75245-37.33251,11.53385-9.38118-17.07274,43.48239-32.67212,71.91633-39.6935a485.6346,485.6346,0,0,0-56.69476-41.37217c-89.17484,7.28787-85.28259,67.92289-104.99423,47.875-17.08041-17.37723,54.19358-48.30439,83.50768-60.03947-19.912-10.26828-40.30927-17.89545-60.29457-21.01674-18.35963-2.11339-35.164-3.37618-50.51973-3.876-42.43972,28.13958-17.76647,76.10446-41.7561,67.06734-18.73582-7.05762,4.564-46.72843,18.22573-67.258-207.40634,4.13984-106.17175,166.58443-106.17175,166.58443-.31062.66379-.59757,1.32048-.89716,1.9806-40.22276,88.68575,17.70213,146.09142,108.86644,167.85276-5.25914-16.63463-14.72474-47.14929-15.51635-53.14C1845.44728,2617.26573,1858.31374,2612.89683,1861.4271,2633.30829Z"/><path class="cls-25" d="M2114.70411,2504.04467s-250.69538,17.45009-360.58665,4.85727"/><path class="cls-25" d="M2010.9649,2568.834s-41.9312-20.558-75.16473-56.38489"/><path class="cls-25" d="M1960.88232,2446.49137s-60.62584,40.621-61.98278,66.7139"/><path class="cls-25" d="M1906.52612,2616.6208s-51.957-68.606-60.77921-103.23621"/><path class="cls-25" d="M1805.3895,2434.42875s-33.96458,39.54641-21.02193,77.02552"/><path class="cls-26" d="M1295.55022,2440.99376q21.78019,2.66738,42.43441,6.50932c18.55807,17.88015,41.49988,47.95882,41.37723,85.47568-2.4948,32.52117,20.99313,26.92919,22.251,13.66981.93956-9.53247-3.491-58.63787-6.07453-85.417,147.43016,43.88054,223.88994,141.42442,118.43591,278.89382,0,0,109.82734,266.55382-243.547,252.11031,30.99382-31.01151,85.627-91.25058,56.53638-104.28116-37.24761-16.68528-13.67,61.49221-96.37553,101.60052q-38.783-3.51294-84.21309-11.22569c-32.70971-6.94574-64.40143-21.043-94.26365-39.25953,54.1919-15.55121,186.86708-57.14171,164.51547-86.28839-25.79694-33.62625-42.29385,62.44128-196.32637,64.92175-29.36556-21.51328-56.45706-46.26334-80.403-71.01378,50.90374-8.20319,146.51234-27.47051,137.10372-55.35758-7.03235-11.97349-31.84738,2.09049-67.71619,14.42325-22.799,7.841-63.9906,14.11376-91.04909,17.65892-52.80561-58.90887-85.54807-111.52677-85.54807-111.52677s41.82751-48.58122,105.40794-104.7158c31.72519,4.16729,92.88245,13.45864,103.6367,24.64027,14.6619,15.22813,40.02661,4.19919,27.10236-19.17475-9.96678-18.02818-57.3612-32.501-94.26883-36.39673a919.802,919.802,0,0,1,90.85212-65.5332c42.33178,15.12319,135.9274,51.12047,144.82232,76.80773,10.37033,17.51829,38.87128,12.31477,19.30861-28.15293-14.90981-30.906-93.37066-57.83444-129.63874-68.85373C1163.75617,2455.64938,1231.87144,2433.21831,1295.55022,2440.99376Z"/><path class="cls-27" d="M900.51694,2711.32439s431.87036-2.18009,613.46765,28.80343"/><path class="cls-27" d="M1101.15837,2619.58706s63.29089,36.6784,106.01226,96.56953"/><path class="cls-27" d="M1139.50005,2817.6924s118.30666-57.96314,130.5485-98.997"/><path class="cls-27" d="M1296.50919,2554.74817s61.99225,113.50572,63.76371,169.03978"/><path class="cls-27" d="M1398.64743,2852.4512s72.67518-58.964,65.00007-119.40993"/><path class="cls-28" d="M1753.22677,2510.88391s-127.16207,37.83222-98.47645,312.23342"/><path class="cls-5" d="M1620.59817,2842.98039s-134.058-150.982,114.90991-303.01343c-34.51105,59.23942-160.897,125.92749-71.52285,276.76827,37.0118,85.83437-17.45613,122.33484-17.45613,122.33484S1565.47769,2945.9072,1620.59817,2842.98039Z"/><path class="cls-24" d="M1419.16365,3025.28425q-2.24322-15.85127-3.12207-31.2878c12.934-18.31914,36.50887-43.42481,72.221-54.90931,31.481-8.30714,21.00683-22.78983,8.11873-19.569-9.27329,2.29123-55.0088,20.49111-79.91342,30.53169,9.37993-115.261,85.37992-198.09939,239.28292-167.72584,0,0,229.43481-157.98046,293.25572,90.30826-36.3-11.82324-105.589-30.94512-111.59857-6.8538-7.69549,30.84679,61.4903-9.52991,117.79277,35.17017a579.39586,579.39586,0,0,1,7.80562,61.57024c.57255,24.71217-5.88067,50.92722-16.65362,77.15016-26.68609-32.59785-95.36581-111.32081-118.18369-86.90979-26.32257,28.16974,68.67545,9.92842,104.84215,115.44876-14.01774,26.89685-31.61334,53.22269-49.8997,77.37814-18.97513-32.59488-58.28612-92.62506-82.74665-77.53336-9.84543,8.54472,8.97835,21.33062,28.58155,42.27768,12.46219,13.3138,27.46945,39.8024,36.78037,57.38a941.76226,941.76226,0,0,1-87.30548,93.4214,1106.30645,1106.30645,0,0,1-122.7384-40.442c-2.99927-23.176-7.58446-68.24085.69089-79.10957,11.26663-14.81291-4.79094-28.914-24.18706-12.78818-14.96046,12.43663-18.32451,49.60267-13.92945,76.27092-27.6666-12.2588-55.96971-26.4394-82.27408-42.481,5.09378-33.87326,18.79105-109.55648,41.27191-123.61535,14.3869-12.55786,3.182-30.61942-31.01632-4.64174-26.12464,19.81857-34.51764,82.262-37.03876,110.68562C1462.03013,3111.70517,1425.74415,3071.6215,1419.16365,3025.28425Z"/><path class="cls-25" d="M1762.9986,3214.50215s-96.86134-297.32614-107.24782-432.186"/><path class="cls-25" d="M1631.703,3104.34508s20.99645-54.98243,68.587-102.92968"/><path class="cls-25" d="M1811.721,3016.79858s-81.09938-63.75957-122.81677-59.553"/><path class="cls-25" d="M1527.15378,2989.54392s94.35788-77.77771,146.79181-96.12517"/><path class="cls-25" d="M1787.90463,2827.26355s-72.03606-31.96439-127.84634-8.02861"/><path class="cls-24" d="M1351.85786,2091.23864q15.60619,11.07082,29.80568,22.73663c6.16345,23.31413,10.13754,59.22828-7.10584,92.54651-16.79241,27.92772,3.90831,32.33478,10.94077,21.04434,5.083-8.10287,24.106-53.5463,34.35073-78.39522,93.834,97.90713,108.3135,215.19814-35.987,295.34656,0,0-36.99668,280.93339-303.38018,126.9581,38.11816-15.2032,107.85764-46.96018,91.341-70.16758-21.14749-29.71558-38.66778,49.23124-120.89187,51.87263-18.903-12.40893-38.86286-26.88372-59.92436-43.61676-22.09376-19.241-40.13223-44.43588-54.87449-72.56379,48.97216,7.81183,170.47583,23.80887,166.53166-11.04067-4.55814-40.20962-61.21383,38.64365-181.33942-20.66718-12.85167-30.86165-22.46711-63.69388-29.65237-95.27016,43.0733,13.03389,125.7389,34.08149,131.21759,5.52135.04041-13.45768-25.558-10.85982-58.90424-14.2163-21.19658-2.13164-55.88471-13.00366-78.40814-20.65714-13.86617-73.48242-15.10887-133.35694-15.10887-133.35694s54.51826-26.50286,129.29346-51.036c22.60323,16.37665,65.60087,49.06506,68.79762,63.30491,4.36583,19.39941,29.00158,19.72041,29.70148-6.22983.54108-20.01462-29.4562-51.81489-56.18706-70.01972,31.89824-9.00782,65.96732-16.92041,100.13892-22.00055,25.78907,30.35676,81.63865,99.75235,76.76864,126.15082.00373,19.7223,24.39951,26.47693,27.78457-17.32761,2.60888-33.44218-45.6942-88.72754-68.67486-113.01263C1243.34658,2051.63781,1306.21941,2058.89141,1351.85786,2091.23864Z"/><path class="cls-25" d="M923.12456,2173.90174s334.621,170.53982,460.74458,270.622"/><path class="cls-25" d="M1120.05458,2172.44268s32.12751,57.89836,37.75452,128.227"/><path class="cls-25" d="M1059.12169,2363.94884s117.88763-4.30311,146.10083-35.90927"/><path class="cls-25" d="M1300.6025,2192.79394s-3.99281,125.70937-28.00848,175.80842"/><path class="cls-25" d="M1243.42788,2498.36036s83.09429-23.41736,104.79452-80.2428"/><path class="cls-24" d="M1740.92923,2329.5782c18.414-4.66547,30.76073-18.56668,37.5839-29.00035q-.27522-9.59358-1.25791-19.53281c-2.86476-29.06141-21.01072-56.27935-44.80407-80.05108-1.60084,17.38076-6.5796,55.37056-20.17465,65.83362-17.79664,13.718-23.33786,1.80352-15.83326-4.97385,11.66613-7.15406,19.50523-52.959,22.48336-73.53035a411.08476,411.08476,0,0,0-41.67131-31.82319c1.96058,16.76669-.16745,39.48887-7.9645,46.15221-10.109,8.64008-18.17842-1.15861-12.24741-9.5404,4.35662-6.14922,2.4994-34.28921,1.21625-48.8045a584.97026,584.97026,0,0,0-60.715-32.55171c-1.10007-.4988-1.70059-.76185-1.70059-.76185a465.57132,465.57132,0,0,0-45.72907,51.75731c4.57655,11.48714,11.97339,28.864,18.21047,37.93226,9.8109,14.26713,19.31133,23.44161,14.17633,28.04934-12.69128,7.65719-32.16887-32.08356-41.53109-53.50081a310.732,310.732,0,0,0-26.39771,44.39194c17.37159,67.6181,66.22061,62.80878,52.43326,78.41561-11.95136,13.52371-46.26549-39.75565-59.57691-61.69881-5.80242,15.46113-9.39307,31.211-9.36944,46.51006.63537,14.0316,1.76348,26.85409,3.32666,38.5513,28.34626,31.4285,64.21756,11.19614,59.94026,29.72184-3.34027,14.46852-38.61586-2.04774-57.07671-11.81518,29.97754,157.65931,149.19707,75.693,149.19707,75.693.58008.21608,1.15135.41435,1.727.62215,77.3379,27.89639,116.62679-17.92012,122.64193-87.93718-12.86354,4.508-36.48383,12.63912-41.25788,13.42395C1729.92291,2342.224,1724.7166,2332.56889,1740.92923,2329.5782Z"/><path class="cls-25" d="M1603.23381,2140.83654s46.36378,190.186,50.213,274.17018"/><path class="cls-25" d="M1669.272,2217.78181s-11.35191,32.526-36.24642,58.90068"/><path class="cls-25" d="M1576.12744,2259.61162s40.83747,44.88324,62.24751,45.12018"/><path class="cls-25" d="M1721.56218,2295.77754s-49.17,41.6178-76.2223,49.38494"/><path class="cls-25" d="M1586.25844,2378.27131s36.54253,24.63329,65.38482,13.64468"/><path class="cls-28" d="M1653.44712,2415.00175s21.42558,3.11581-32.849,264.78336"/><path class="cls-28" d="M1370.57375,2434.28633s232.21964,68.61426,250.02442,250.39143"/><path class="cls-28" d="M1495.586,2740.12782c5.71133-2.049,103.43091-10.90863,135.76314,11.964"/><ellipse class="cls-29" cx="1362.42729" cy="3369.31565" rx="244.88659" ry="225.599"/><ellipse class="Graphic-Style-128" cx="4891.6026" cy="962.17252" rx="206.29769" ry="190.04941"/><polygon class="cls-20" points="4065.046 2178.961 4096.296 2161.815 4096.296 1771.162 4065.962 1817.74 4065.046 2178.961"/><polygon class="Graphic-Style-127" points="2469.273 2891.688 2363.839 3032.005 2926.547 3024.239 3002.14 2880.999 2469.273 2891.688"/><path class="Graphic-Style-61" d="M3026.91442,3124.38579l-43.563,150.8019h-99.186q-23.3118-9.57866-47.86432-19.10417c-70.90008-27.4954-150.05875-54.5421-239.35-80.13754l162.56579-61.50815,162.48655,6.04273Z"/><path class="Graphic-Style-126" d="M2926.54178,3024.247l-4.53836,96.23355-6.3859,135.86676-79.31649-.2638c-70.90008-27.4954-150.05875-54.5421-239.35-80.13754q-33.3651-9.5388-68.68341-18.84021c-55.62172-14.61852-106.83778-26.49268-154.30657-36.25575l-10.1319-88.84522Z"/><polygon class="Graphic-Style-60" points="3002.14 2880.999 2994.456 3119.966 2915.606 3256.336 2926.547 3024.239 3002.14 2880.999"/><path class="cls-8" d="M2409.51421,3066.87129l5.11362,62.67917q13.59283,3.01129,27.59087,6.26015l79.09939-4.94547-3.88771-64.41Z"/><polygon class="Graphic-Style-136" points="3050.39 3018.705 3067.751 3144.613 3215.551 3222.639 3213.995 3095.859 3050.39 3018.705"/><polygon class="cls-30" points="3330.801 2955.345 3050.39 3018.705 3213.995 3095.859 3512.534 3016.809 3330.801 2955.345"/><polygon class="Graphic-Style-61" points="3215.551 3222.639 3391.615 3197.612 3571.236 3127.539 3504.273 3106.245 3215.551 3222.639"/><polygon class="cls-31" points="3508.713 3136.076 3512.534 3016.809 3213.995 3095.859 3215.551 3222.639 3508.713 3136.076"/><polygon class="cls-32" points="3383.768 3071.726 3499.058 3042.902 3498.478 3055.42 3383.109 3084.458 3383.768 3071.726"/><polygon class="cls-32" points="3383.261 3094.815 3498.551 3065.991 3497.971 3078.509 3382.602 3107.547 3383.261 3094.815"/><polygon class="cls-32" points="3382.754 3117.903 3498.044 3089.079 3497.464 3101.598 3382.095 3130.635 3382.754 3117.903"/><ellipse class="Graphic-Style-124" cx="4189.78727" cy="1198.94464" rx="177.41488" ry="177.42027"/><ellipse class="cls-8" cx="4189.78727" cy="1198.94464" rx="145.77618" ry="145.78062"/><polygon class="Graphic-Style-124" points="4196.089 1087.95 4197.839 1202.606 4243.741 1298.628 4175.554 1203.634 4196.089 1087.95"/></svg>