<?xml version="1.0" encoding="utf-8"?>
<!-- Generator: Adobe Illustrator 24.0.0, SVG Export Plug-In . SVG Version: 6.00 Build 0)  -->
<svg version="1.1" id="Vector" xmlns="http://www.w3.org/2000/svg" xmlns:xlink="http://www.w3.org/1999/xlink" x="0px" y="0px"
	 viewBox="0 0 3000 3000" style="enable-background:new 0 0 3000 3000;" xml:space="preserve">
<style type="text/css">
	.st0{fill:none;stroke:#1A1A1A;stroke-width:4.4684;stroke-linecap:round;stroke-linejoin:round;stroke-miterlimit:10;}
	.st1{fill:#FFFFFF;stroke:#1A1A1A;stroke-width:2.9789;stroke-linecap:round;stroke-linejoin:round;stroke-miterlimit:10;}
	.st2{fill:#1A1A1A;stroke:#1A1A1A;stroke-width:2.9789;stroke-linecap:round;stroke-linejoin:round;stroke-miterlimit:10;}
	.st3{fill:none;stroke:#1A1A1A;stroke-width:2.9789;stroke-linecap:round;stroke-linejoin:round;stroke-miterlimit:10;}
	.st4{fill:none;stroke:#FFFFFF;stroke-width:4.4684;stroke-linecap:round;stroke-linejoin:round;stroke-miterlimit:10;}
	.st5{fill:none;stroke:#FFFFFF;stroke-width:2.9789;stroke-linecap:round;stroke-linejoin:round;stroke-miterlimit:10;}
	.st6{fill:#8E9DF4;stroke:#1A1A1A;stroke-width:2.9789;stroke-linecap:round;stroke-linejoin:round;stroke-miterlimit:10;}
	.st7{fill:#D9DBDA;stroke:#1A1A1A;stroke-width:2.9789;stroke-miterlimit:10;}
	.st8{fill:#5067EF;stroke:#1A1A1A;stroke-width:2.9789;stroke-linecap:round;stroke-linejoin:round;stroke-miterlimit:10;}
</style>
<g>
	<path class="st0" d="M284,1177.2c-46.5,78.4-146.7,247.4-121,458.7c24.6,202.8,152.7,342.6,305.8,509.7
		c139.7,152.5,214.3,233.8,337.7,293.1c296.7,142.4,455.3-45,1013-25.5c354.7,12.4,432.5,93.2,605.2,12.7
		c250.2-116.6,340.4-404.2,369.5-496.9c103.2-329.1,51.6-757.4-203.9-1051.2c-482.6-555.1-1384.4-275.7-1554.5-223
		C862.4,708.5,490,829.7,284,1177.2z"/>
	<path class="st1" d="M500.6,820.5c-331.2,236.8-383,384.7-363.1,477.8c23.8,111.3,143.1,111.3,210.2,254.8
		c107.1,229-114.4,404.7-19.1,579.7c86.6,159.2,361.2,182.3,618,203.9c170,14.3,195.9-8.8,375.9,12.7
		c233.4,27.9,300,79.8,452.3,108.3c265.1,49.6,686,8.7,809.1-210.2c103.2-183.6-103.1-314.3-63.7-700.8
		c34.2-335.2,206.5-404,159.3-586.1c-89.1-343.9-789-429.4-872.8-439.6C1231.2,450.8,755.6,671.2,500.6,820.5z"/>
	<path class="st1" d="M2088.5,2156.7c0,0,0,134.8-16.8,317.4c-49.6,3.1-99,3.2-146.6,0.8c-28.3-1.4-56-3.8-82.7-6.9
		c-23.4-2.8-46-6.2-67.6-10.3c-8.8-1.6-17.2-3.4-25.5-5.1c-43.8-9.5-80.9-20.9-118.6-32.9c-44.4-14.1-89.6-29.1-147.4-42.6
		c-7.2-1.7-14.6-3.3-22.2-5c-39.4-8.5-84.5-16.2-138.7-22.7c-62.7-7.5-106.7-9.6-144.6-9.7c25.9-304.3,107.5-472.9,107.5-472.9
		l234.9,10.9l-1.9,27.5h230.9v194.9c27,4.6,61.8,10.6,98.4,16.9l0.4-25.7L2088.5,2156.7z"/>
	<g>
		<path class="st2" d="M2175.5,2463.4v-595.6l-15.9-6.5v604.4C2164.9,2464.9,2170.2,2464.1,2175.5,2463.4z"/>
		<path class="st2" d="M2511,2333.4c5.5-4.6,10.8-9.3,15.9-14.1v-367.4l-15.9-6.5V2333.4z"/>
		<path class="st2" d="M1024.1,2341.2c5.5,0.2,10.8,0.3,15.9,0.4v-684.4l-15.9-6.5V2341.2z"/>
		<path class="st2" d="M672.6,2306.6c5.3,0.9,10.6,1.7,15.9,2.5V1573l-15.9-6.5V2306.6z"/>
	</g>
	<g>
		<path class="st2" d="M842.7,1093.7c0,0,31.8,320.1,18.4,359.7c-13.4,39.6-75.8,223.5-55.1,257.4s58,108.6,39.1,133.6
			c-18.9,25.1-49.3,86.1-8.5,194.3c40.8,108.2-8.7,286.7-8.7,286.7l-22.1-3c0,0,24.8-176.9,16-218.6
			c-8.8-41.8-29.3-167.1-15.8-227.2c13.4-60.2,13.4-60.2,13.4-60.2s-42-0.8-54.1-19.8c9.2-5.5,19.8,1.4,19.8,1.4s20.8,2.1,32.8-3.6
			c-34.7-55.9-46.4-99.8-43-127.4c3.4-27.6,3.4-27.6,3.4-27.6s41.1-119.9,36.1-137.5c-32.6-41.6-27.1-54.4-27.1-54.4l6.1-1.4
			c0,0,27.3,49.6,30.8,48.8c3.5-0.7,34.7-15.6,24.8-68.7c-9.9-53.1,5.9-130.1-1.6-158.1c-7.6-28-10.9-117.9-10.9-117.9l-1.1-62.7
			L842.7,1093.7z"/>
		<g>
			<g>
				<path class="st1" d="M949,1190.1c-11.4,21.2-157.9,19.4-231.7,17.1c-0.8-3.2-1.5-6.4-2.3-9.6c-1.3-5.7-2.5-11.4-3.7-17
					C767.7,1176.9,962,1165.7,949,1190.1z"/>
			</g>
			<g>
				<path class="st1" d="M960.3,997c2.8,12.6,12.2,22.3,19.4,27.9c4.5,0.6,9.1,1,13.8,1.3c20.5,1.3,40.1-7.6,57.4-20.6
					c-12.2-3-38.7-10.5-45.7-20.5c-9.2-13.2-0.7-15.5,3.9-9.9c4.7,8.5,36.7,18.7,51.1,22.9c8.6-7.4,16.5-15.7,23.5-23.9
					c-11.8-0.6-27.8-4.5-32.2-10.3c-5.8-7.6,1.3-11.8,7-7c4.2,3.5,24,5.4,34.3,6.2c13.4-17.2,22.2-32.3,24.5-36.3
					c0.4-0.7,0.6-1,0.6-1s-14.2-17-35.2-35.8c-8.2,1.7-20.6,4.7-27.1,7.8c-10.3,4.9-17,10.1-20.1,6.2c-5-9.2,23.4-17.6,38.7-21.4
					c-9.4-7.8-19.7-15.6-30.5-22.3c-48,3.9-45.9,36.5-56.5,25.8c-9.2-9.4,29.2-26,44.9-32.3c-10.7-5.5-21.7-9.6-32.4-11.3
					c-9.9-1.1-18.9-1.8-27.2-2.1c-22.8,15.1-9.6,41-22.5,36.1c-10.1-3.8,2.5-25.1,9.8-36.2c-111.6,2.2-57.1,89.6-57.1,89.6
					c-0.2,0.4-0.3,0.7-0.5,1.1c-21.6,47.7,9.5,78.6,58.6,90.3c-2.8-9-7.9-25.4-8.3-28.6C951.7,988.4,958.6,986,960.3,997z"/>
				<path class="st3" d="M1096.6,927.5c0,0-134.9,9.4-194,2.6L1096.6,927.5z"/>
				<path class="st3" d="M1040.8,962.3c0,0-22.6-11.1-40.4-30.3L1040.8,962.3z"/>
				<path class="st3" d="M1013.8,896.5c0,0-32.6,21.9-33.4,35.9L1013.8,896.5z"/>
				<path class="st3" d="M984.6,988c0,0-28-36.9-32.7-55.5L984.6,988z"/>
				<path class="st3" d="M930.2,890c0,0-18.3,21.3-11.3,41.4L930.2,890z"/>
			</g>
			<g>
				<path class="st2" d="M609.4,937.2c7.7-1.6,15.3-3,22.7-4.1c12.6,5.9,29.5,17.1,36,36.3c4.4,17,15.4,10,13.7,3.1
					c-1.2-5-12-29.2-18-42.4c82.7-3.4,138.7,32.8,109,121.2c0,0,102.5,116.4-79.9,170.9c10.3-21.2,27.6-61.4,10.5-63
					c-21.9-2,3.8,33.7-31.3,68.6c-13.6,3.3-28.5,6.3-44.8,9c-17.9,2.2-36.5,0.6-54.8-3.5c24.9-17.4,85.1-61.7,68.6-72.7
					c-19-12.6-10.6,39.2-88.6,67.4c-18.7-5.8-36.8-13.7-53.3-22.1c24.5-13.1,69.8-39.6,60.1-52.1c-5.7-4.9-15.8,6.6-31.9,19.2
					c-10.2,8-30.1,18.4-43.2,24.9c-37.2-20.7-63-41.8-63-41.8s12.8-32,35.3-71.7c16.9-3.4,49.6-9.4,57-5.6
					c10.1,5.2,21.1-4.9,10.4-14.5c-8.2-7.4-34.9-6.5-54.3-2c10.2-16.4,21.9-33.3,34.8-49.2c24.2,0.3,78.1,2.2,87.1,13.8
					c8.3,7.1,21.9-0.5,4.9-17.7c-13-13.1-57.6-13.1-78-12.4C544.9,967.7,575.6,944.4,609.4,937.2z"/>
				<path class="st4" d="M455.6,1143.9c0,0,219.4-76.6,317.2-92.6L455.6,1143.9z"/>
				<path class="st5" d="M541.7,1062.1c0,0,38.6,7.6,70.8,30.6L541.7,1062.1z"/>
				<path class="st5" d="M595.8,1156.2c0,0,50.1-50.2,49.1-73.2L595.8,1156.2z"/>
				<path class="st5" d="M629.7,995c0,0,51.4,46.9,62,74.9L629.7,995z"/>
				<path class="st5" d="M733.8,1128.6c0,0,26.7-42.7,12.2-72.1L733.8,1128.6z"/>
			</g>
			<g>
				<path class="st0" d="M902.1,931.1c0,0-68.4,20.4-53,168L902.1,931.1z"/>
				<path class="st2" d="M830.7,1109.8c0,0-72.1-81.2,61.8-163c-18.6,31.9-86.6,67.8-38.5,148.9c19.9,46.2-9.4,65.8-9.4,65.8
					S801.1,1165.2,830.7,1109.8z"/>
				<path class="st6" d="M722.3,1207.9c-0.8-5.7-1.4-11.3-1.7-16.8c7-9.9,19.6-23.4,38.9-29.5c16.9-4.5,11.3-12.3,4.4-10.5
					c-5,1.2-29.6,11-43,16.4c5-62,45.9-106.6,128.8-90.3c0,0,123.5-85,157.8,48.6c-19.5-6.4-56.8-16.7-60-3.7
					c-4.1,16.6,33.1-5.1,63.4,18.9c1.9,10,3.3,21,4.2,33.1c0.3,13.3-3.2,27.4-9,41.5c-14.4-17.5-51.3-59.9-63.6-46.8
					c-14.2,15.2,37,5.3,56.4,62.1c-7.5,14.5-17,28.6-26.8,41.6c-10.2-17.5-31.4-49.8-44.5-41.7c-5.3,4.6,4.8,11.5,15.4,22.7
					c6.7,7.2,14.8,21.4,19.8,30.9c-23.9,29.4-47,50.3-47,50.3s-29.8-7.5-66-21.8c-1.6-12.5-4.1-36.7,0.4-42.6c6.1-8-2.6-15.6-13-6.9
					c-8,6.7-9.9,26.7-7.5,41c-14.9-6.6-30.1-14.2-44.3-22.9c2.7-18.2,10.1-59,22.2-66.5c7.7-6.8,1.7-16.5-16.7-2.5
					c-14.1,10.7-18.6,44.3-19.9,59.6C745.4,1254.4,725.9,1232.9,722.3,1207.9z"/>
				<path class="st4" d="M907.3,1309.7c0,0-52.1-160-57.7-232.6L907.3,1309.7z"/>
				<path class="st5" d="M836.7,1250.5c0,0,11.3-29.6,36.9-55.4L836.7,1250.5z"/>
				<path class="st5" d="M933.6,1203.4c0,0-43.6-34.3-66.1-32L933.6,1203.4z"/>
				<path class="st5" d="M780.4,1188.7c0,0,50.8-41.9,79-51.7L780.4,1188.7z"/>
				<path class="st5" d="M920.7,1101.4c0,0-38.8-17.2-68.8-4.3L920.7,1101.4z"/>
			</g>
			<g>
				<path class="st1" d="M683.5,736.4c4.5,3.2,8.8,6.4,12.8,9.8c2.7,10,4.4,25.5-3.1,39.8c-7.2,12,1.7,13.9,4.7,9.1
					c2.2-3.5,10.4-23.1,14.8-33.7c40.4,42.1,46.6,92.6-15.5,127.1c0,0-15.9,120.9-130.6,54.7c16.4-6.5,46.4-20.2,39.3-30.2
					c-9.1-12.8-16.6,21.2-52,22.3c-8.1-5.3-16.7-11.6-25.8-18.8c-9.5-8.3-17.3-19.1-23.6-31.2c21.1,3.4,73.4,10.2,71.7-4.8
					c-2-17.3-26.4,16.6-78.1-8.9c-5.5-13.3-9.7-27.4-12.8-41c18.5,5.6,54.1,14.7,56.5,2.4c0-5.8-11-4.7-25.4-6.1
					c-9.1-0.9-24.1-5.6-33.8-8.9c-6-31.6-6.5-57.4-6.5-57.4s23.5-11.4,55.7-22c9.7,7.1,28.2,21.1,29.6,27.3
					c1.9,8.4,12.5,8.5,12.8-2.7c0.2-8.6-12.7-22.3-24.2-30.1c13.7-3.9,28.4-7.3,43.1-9.5c11.1,13.1,35.1,42.9,33,54.3
					c0,8.5,10.5,11.4,12-7.5c1.1-14.4-19.7-38.2-29.6-48.7C636.8,719.3,663.9,722.4,683.5,736.4z"/>
				<path class="st3" d="M499,771.9c0,0,144.1,73.4,198.3,116.5L499,771.9z"/>
				<path class="st3" d="M583.7,771.3c0,0,13.8,24.9,16.3,55.2L583.7,771.3z"/>
				<path class="st3" d="M557.5,853.8c0,0,50.8-1.9,62.9-15.5L557.5,853.8z"/>
				<path class="st3" d="M661.5,780.1c0,0-1.7,54.1-12.1,75.7L661.5,780.1z"/>
				<path class="st3" d="M636.9,911.6c0,0,35.8-10.1,45.1-34.5L636.9,911.6z"/>
			</g>
			<g>
				<path class="st1" d="M895.5,833.6c9.9-2.5,16.6-10,20.2-15.6c-0.1-3.4-0.3-6.9-0.7-10.5c-1.5-15.6-11.3-30.3-24.1-43.1
					c-0.9,9.4-3.5,29.8-10.9,35.4c-9.6,7.4-12.6,1-8.5-2.7c6.3-3.8,10.5-28.5,12.1-39.6c-7.2-6.3-14.9-12-22.4-17.1
					c1.1,9-0.1,21.2-4.3,24.8c-5.4,4.6-9.8-0.6-6.6-5.1c2.3-3.3,1.3-18.5,0.7-26.3c-15.8-9.7-29.1-15.9-32.7-17.5
					c-0.6-0.3-0.9-0.4-0.9-0.4s-12,11.3-24.6,27.8c2.5,6.2,6.4,15.5,9.8,20.4c5.3,7.7,10.4,12.6,7.6,15.1
					c-6.8,4.1-17.3-17.3-22.3-28.8c-5.2,7.4-10.2,15.5-14.2,23.9c9.3,36.4,35.6,33.8,28.2,42.2c-6.4,7.3-24.9-21.4-32.1-33.2
					c-3.1,8.3-5.1,16.8-5,25c0.3,7.6,0.9,14.4,1.8,20.7c15.3,16.9,34.6,6,32.3,16c-1.8,7.8-20.8-1.1-30.7-6.4
					c16.1,84.8,80.3,40.7,80.3,40.7c0.3,0.1,0.6,0.2,0.9,0.3c41.6,15,62.8-9.6,66-47.3c-6.9,2.4-19.6,6.8-22.2,7.2
					C889.5,840.4,886.7,835.2,895.5,833.6z"/>
				<path class="st3" d="M821.4,732c0,0,24.9,102.3,27,147.5L821.4,732z"/>
				<path class="st3" d="M856.9,773.4c0,0-6.1,17.5-19.5,31.7L856.9,773.4z"/>
				<path class="st3" d="M806.8,795.9c0,0,22,24.2,33.5,24.3L806.8,795.9z"/>
				<path class="st3" d="M885.1,815.4c0,0-26.5,22.4-41,26.6L885.1,815.4z"/>
				<path class="st3" d="M812.2,859.8c0,0,19.7,13.3,35.2,7.3L812.2,859.8z"/>
			</g>
			<path class="st0" d="M848.4,879.5c0,0,11.5,1.7-17.7,142.5L848.4,879.5z"/>
			<path class="st0" d="M696.2,889.9c0,0,124.9,36.9,134.5,134.7L696.2,889.9z"/>
			<path class="st0" d="M763.5,1054.5c3.1-1.1,55.7-5.9,73,6.4L763.5,1054.5z"/>
		</g>
	</g>
	<g>
		<path class="st1" d="M2559.7,2283.5L367.3,1775.1c-1.2,5.5-2.5,10.9-3.8,16.4l2179.7,511.4
			C2549,2296.6,2554.5,2290.2,2559.7,2283.5z"/>
		<path class="st1" d="M308.5,1489.7c10.7,13.4,21,28.6,30.4,46l2240.6,448.7c-8.7-26.8-18.1-55.3-27-86.1L308.5,1489.7z"/>
		<path class="st1" d="M377.3,1669.8l2229.1,523c1.9-7.5,3.4-14.9,4.5-22.3l-2235-518.3C376.5,1658.1,377,1664,377.3,1669.8z"/>
	</g>
	<path class="st2" d="M1749.3,1905.3v547.3c-43.8-9.5-80.9-20.9-118.6-32.9c-44.4-14.1-89.6-29.1-147.4-42.6
		c-1.9-32.5-3.2-65.1-3.9-98c-2.6-121.6,3.1-246.1,18.3-373.8H1749.3z"/>
	<path class="st2" d="M1503,2130.1c-6.6,50.9-14.7,100.6-23.6,149c-5.8,31.5-11.9,62.5-18.2,93c-39.4-8.5-84.5-16.2-138.7-22.7
		c-62.7-7.5-106.7-9.6-144.6-9.7c25.9-304.3,107.5-472.9,107.5-472.9l234.9,10.9L1503,2130.1z"/>
	<path class="st7" d="M1275.7,1905.3c0,0,250.6,85.1,469.3,25c4.2-25,4.2-25,4.2-25s-320.4,33.6-463.9-33.7
		C1280,1896.4,1275.7,1905.3,1275.7,1905.3z"/>
	<path class="st1" d="M1799.6,1255.4c-68.4-31-168.1-61-313.1-34.7c0,0-74,4-140.6,24.3c-34,49-37.2,113.2-35.9,171.9
		c0,35.2-2.8,71.7-14.4,105.2c-23.9,221.4-2.6,346.9,31.9,362.7c35,16.1,402.5,55.5,436.1,5.8c12.3-278.5,39.4-385,42.1-401.4
		L1799.6,1255.4z"/>
	<path class="st2" d="M1565.2,1386.8c0,0,21.9,78.5,19.1,149.1c-2.7,70.6-12,387.7-12,387.7l-63.9,41.2l-52.5-51.5
		c0,0,87.5-519.1,94.1-525.7S1565.2,1386.8,1565.2,1386.8z"/>
	<path class="st1" d="M1805.6,1424.3c-1.9,11.4-3.6,88.9-1.8,100.4c3,19,8.4,37.5,13.1,56.1c-0.9-6.1-1.7-12.2-2.6-18.3
		c2.7,30,5.5,59.9,8.1,89.9c2.2,25.1,4.4,50.1,6.4,75.2c109.5,18.4,135.6-50.2,135.6-50.2s-29-354.8-91.8-385.5
		c-19.1-9.3-43-23-72.8-36.6L1805.6,1424.3z"/>
	<path class="st1" d="M1346,1245c-38.7,11.8-74.8,29.1-92.5,54.3c-48.2,68.6-203,312.5-122.6,436.6c32.1-45.3,75.1-61.3,116.4-43.8
		c-14.2-56.9,36.1-166.8,49.7-181.2c-0.4,3.8,30.5-104.1,30.6-113.2L1346,1245z"/>
	<path class="st2" d="M1133.9,1744.8c0,0-19.6-21.3,5.9-43.9c25.5-22.5,106.2-31,111.5-14.5c5.3,16.5,0,25.5-20.2,35
		C1210.9,1731,1147.7,1758,1133.9,1744.8z"/>
	<polygon class="st1" points="1253.2,1699.3 1434.5,1582.1 1481.7,1871.1 1294.8,1933 	"/>
	<path class="st1" d="M1133.9,1732.7c0,0,137.3,131.4,159.6,171.5c22.3,40.1,25,52.5,51.1,62.1c26.1,9.5,85.3-19.7,85.3-19.7
		s24.8-51.5,14.6-58.6c-10.2-7-50.3,14.6-74.5-20.4c-24.2-35-22.9-38.8,0-41.4s57.3-32.5,42.6-59.8c-19.7-17.8-21.6,33.7-57.6,36.9
		c-36,3.2-41,3.2-53.8-7s-52.2-103.6-56.9-105.5C1210.9,1677.8,1137.1,1703.5,1133.9,1732.7z"/>
	<path class="st1" d="M1631.4,1062.4c2.1-1.2,6-3.4,13.2-7.4c15.8-8.9,22.5-81.6-5.3-78.9c-0.6,0.1-1.1,0.2-1.7,0.3
		c-9.6-129.3-150.1-109-199.4-98.6c-55.2,11.7-50.8,97.4-50.8,97.4l102.8,176.9c10.7,48.5,9.8,90.9,5,89.5c0,0-20.9,95.9,63,85.3
		c83.9-10.6,105.1-127.9,105.1-127.9S1623,1171.5,1631.4,1062.4z"/>
	<path class="st1" d="M1567.4,1135.5c-13.7,14.4-37.4,29-64.3,28.3c-104.5-7.2-112.3-181.9-112.3-181.9s-16.8-59.7,11.6-70.1
		c28.4-10.4,158.5-34.5,179.7-12.7s38.2,70.1,38.2,70.1L1567.4,1135.5z"/>
	<path class="st1" d="M1885.9,1004.5c0,0-25.1,255.5,94.9,206.7c45.7,42.5,17,137,17,137l145.5-79.6c0,0-47.4-34.5-43.5-77.2
		c12.7-140.9-10.1-236.2-69-245.6C1944.7,932,1911.4,956.5,1885.9,1004.5z"/>
	<path class="st1" d="M1244.4,1627.4c0,0,47.3,55.2,122.1,58.9c9-25,13.8-56.3,13.8-56.3l-104.1-55.2L1244.4,1627.4z"/>
	<path class="st8" d="M1356.4,1727.3c0,0,295.9,41.1,361.7,27.6s184-188.8,184-188.8l84.2-190.6c0,0-135.9,71.5-218,180.5
		c-82.1,109-252.4,104.4-381,65.1C1345.2,1617.2,1342,1710.9,1356.4,1727.3z"/>
	<path class="st1" d="M2088.5,2156.7c0,0,0,134.8-16.8,317.4c-49.6,3.1-99,3.2-146.6,0.8c-28.3-1.4-56-3.8-82.7-6.9l5.3-350.9
		l0.4-25.7L2088.5,2156.7z"/>
	<path class="st1" d="M2066.2,2155.2l-23.9,116.8c-4.2,69.8-90.4,172.5-117.3,203c-28.3-1.4-56-3.8-82.7-6.9
		c-23.4-2.8-46-6.2-67.6-10.3c-8.8-1.6-17.2-3.4-25.5-5.1c-43.8-9.5-80.9-20.9-118.6-32.9c30.2-159.2,63-328.3,65.5-328.3
		c1.1,0,21.9,3.5,53.1,8.8c27,4.6,61.8,10.6,98.4,16.9C1949.9,2134.8,2066.2,2155.2,2066.2,2155.2z"/>
	<path class="st2" d="M1672.3,2192.9c0,0-18.6,73.8,55.7,66c74.3-7.8,245.6-75.7,315.7-49.6c47.4,19.8,43.3,19.8,43.3,19.8l1.5-39.6
		l-395.9-68C1692.7,2121.5,1677.3,2171.6,1672.3,2192.9z"/>
	<path class="st2" d="M2058.3,909.7c0,0-5.3-52,35-51c40.3,1.1,123.2,118.9,120,299.4c-3.2,180.5,47.8,301.6,47.8,301.6
		s-141.2-184.8-141.2-249.5C2119.8,1145.4,2058.3,909.7,2058.3,909.7z"/>
	<path class="st1" d="M2090.1,897.5c0,0-35.9-32.5-49.4-23.4c-1.1,27.1,25,36.1,27.6,40.9c2.7,4.8,18.1,27,18.1,27
		S2138.4,949.5,2090.1,897.5z"/>
	<path class="st8" d="M1706.3,1874.9c0,0-46.2,321.6,0,353.5s313.8-82.8,363.1-27.1c49.4,55.7,23.9-144.9,43-256.4
		c19.1-111.5,143-385.4,138-432.9c-5-47.4-24.8-243.5-107.2-249.2c-82.5-5.7-199.3,114.7-257.3,177
		C1827.9,1502.1,1740.8,1709.4,1706.3,1874.9z"/>
	<g>
		<path class="st1" d="M1139.8,1416.5c0,3.5,93.4,221.8,93.4,221.8l240,23.1L1371.3,1420L1139.8,1416.5z"/>
		<path class="st1" d="M1159.3,1464.4c0,0-36.9-31.6-40.1-17.1c-3.2,14.5,54,50.2,54,50.2L1159.3,1464.4z"/>
		<path class="st1" d="M1197.5,1501.8c-4.2,0-41.4,3.2-41.4,13.1s25.8,25.5,25.8,25.5s0.7-15.9,15.6-19.3
			C1212.4,1517.7,1197.5,1501.8,1197.5,1501.8z"/>
		<path class="st1" d="M1253.4,1562.3c0,0-71.8-24.8-75.7-16.3c-1.4,3,1.5,7,5.8,10.9c-2.4,4.3-5.5,11.5-6.2,20.9
			c-1.1,15.9,30.1,47.1,53.4,49.6l-11.3-26.2c0,0,20.5,5.3,30.4-7.8c4.3-5.6,5.5-10.3,5.5-13.9
			C1258,1576.3,1261.2,1569.6,1253.4,1562.3z"/>
	</g>
	<path class="st1" d="M1578.9,1660.9c0,0-29.7,0-54.2-35c-24.4-35-104.6-79.1-142.8-91.8c-23.9,8-34.5,31.3-28.7,49.9
		c52,61.1,77,121.6,109.4,127.9c32.4,6.4,103,30.8,103,30.8L1578.9,1660.9z"/>
	<path class="st8" d="M1991.6,1430.8c0,0-45.9,188.2-115.2,243.4c-69.3,55.2-324.6-29.2-324.6-29.2c-18,27.4-16.4,67.2-5.8,112.6
		c0,0,314.8,96.1,406.1,61.1c91.3-35,230.1-302.8,230.1-302.8s41.7-89-2.9-159.1L1991.6,1430.8z"/>
	<polygon class="st2" points="1533.4,1337.2 1547.8,1389.5 1570.3,1389.5 1587,1338.2 1587.9,1324.9 1531.1,1327.8 	"/>
	<path class="st1" d="M1467.3,1201.5l-1.7,3c-23.4,30.8-25.9,62.2-9.5,94.2c0,0,27.2-3.4,43.5,10.2c22.2,34.9,51.4,16.1,51.4,16.1
		l-5.7-11.9c0,0-44.2-62.3-46.6-94.5C1480,1203.2,1467.3,1201.5,1467.3,1201.5z"/>
	<path class="st1" d="M1653.7,1188.5c0,0,24-10.7,40.9,28c16.9,38.7-11.7,83.1-11.7,83.1s-13.9-22.5-37.7-9.8
		c-28.1,28.9-20.6,32.3-74.9,35.1c9.3-12.3,14.3-15.7,14.3-15.7S1632.2,1286.7,1653.7,1188.5z"/>
	<path class="st2" d="M1390.7,981.9c0,0-41.1-73.3-3.4-103.3c-0.5-36.8,44.8-80,129-78.6c63,0,88.5,4.2,88.5,4.2
		s-21.2,5.7-43.9,21.9c20.5,1.4,64.4,10.6,77.2,36.8c12.7,26.2,21.4,79.7,12.1,115.2c-0.7,2.8-9.9-7.5-12.7-1.8
		c-14.2,29.6-12.4,59.5-12.4,59.5l-7.6-3c0,0,5.7-44.6-19.1-42.5c-21.9-17.7-27.6-77.2-27.6-77.2s-47.4,15.6-78.6,30.4
		c-31.1,14.9-91.3-23.4-91.3-23.4S1383.3,955.7,1390.7,981.9z"/>
	<path class="st2" d="M2117.3,969.7c-8.1-34.6-33.3-64.7-66-78.8c-32.6-14-85.6-18.7-116.3-0.7c-30.6,18-75.4,46-49.2,114.3
		c0,0,138.7-24.1,115.4,42.5c29-0.7,33.3,39.3,20.5,51.5c34.7-42.4,63.7-3.4,62.3,15.7s-25.5,49.6-25.5,49.6s41.5,23,64.9-9.4
		C2169.8,1038.7,2117.3,969.7,2117.3,969.7z"/>
	<path class="st2" d="M2015.8,1180.8c0,0-12,19.8-35,30.4c17.7,26.3,20.2,33.2,20.2,33.2S2020.4,1199.2,2015.8,1180.8z"/>
	<path class="st2" d="M1567.7,1134.2c0,0-7.4,52.5-71.5,52.9c-2.2-15.4-3.9-24.8-3.9-24.8S1551.7,1160.7,1567.7,1134.2z"/>
	<path class="st8" d="M1838.5,2111.6c-10.7-5.5-40.2-29.9-39.9-108.7c71.1,5.4,115.7,2.5,124.9-9.5c13.4,47.4,26.9,97.7,2.8,105.5
		C1902.2,2106.7,1849.7,2117.4,1838.5,2111.6z"/>
	<path class="st8" d="M1796,1985.6c0,0,82.8,21.9,128.1-4.2c3.5,14.2,20.5,31.9,17.7,31.9c-2.8,0-73.3,37.5-142.1-3.5
		C1796.7,1992.7,1796,1985.6,1796,1985.6z"/>
	<ellipse class="st1" cx="1024.1" cy="2522.9" rx="99.8" ry="78.6"/>
	<ellipse class="st2" cx="133.8" cy="1534" rx="72.2" ry="72.9"/>
	<ellipse class="st2" cx="2626.9" cy="1674.6" rx="50.1" ry="50.9"/>
	<ellipse class="st1" cx="482.5" cy="2322.4" rx="135.3" ry="124.6"/>
	<ellipse class="st2" cx="2779" cy="2039" rx="114" ry="105"/>
	<path class="st1" d="M1253.2,1652.2c0,0-125.6-34.8-155.9,29.4c11.1,51.5,36.6,63.2,36.6,63.2s-15.3-48.6,49.7-57.5
		c65-8.9,69.4,6.5,69.4,6.5L1253.2,1652.2z"/>
</g>
</svg>
