<?xml version="1.0" encoding="utf-8"?>
<!-- Generator: Adobe Illustrator 22.0.0, SVG Export Plug-In . SVG Version: 6.00 Build 0)  -->
<svg version="1.1" id="Layer_1" xmlns="http://www.w3.org/2000/svg" xmlns:xlink="http://www.w3.org/1999/xlink" x="0px" y="0px"
	 viewBox="0 0 4000 4000" style="enable-background:new 0 0 4000 4000;" xml:space="preserve">
<style type="text/css">
	
		.Graphic_x0020_Style_x0020_22{fill:#8E9DF4;stroke:#1A1A1A;stroke-width:2;stroke-linecap:round;stroke-linejoin:round;stroke-miterlimit:10;}
	
		.Graphic_x0020_Style_x0020_27{fill:#1A1A1A;stroke:#1A1A1A;stroke-width:2;stroke-linecap:round;stroke-linejoin:round;stroke-miterlimit:10;}
	
		.Graphic_x0020_Style_x0020_26{fill:#FFFFFF;stroke:#1A1A1A;stroke-width:2;stroke-linecap:round;stroke-linejoin:round;stroke-miterlimit:10;}
	
		.Graphic_x0020_Style_x0020_21{fill:#5067EF;stroke:#1A1A1A;stroke-width:2;stroke-linecap:round;stroke-linejoin:round;stroke-miterlimit:10;}
	.st0{fill:#FFFFFF;stroke:#1A1A1A;stroke-width:2;stroke-linecap:round;stroke-linejoin:round;stroke-miterlimit:10;}
	.st1{fill:#1A1A1A;stroke:#1A1A1A;stroke-width:2;stroke-linecap:round;stroke-linejoin:round;stroke-miterlimit:10;}
	.st2{fill:none;stroke:#FFFFFF;stroke-width:3;stroke-linecap:round;stroke-linejoin:round;stroke-miterlimit:10;}
	.st3{fill:#8E9DF4;stroke:#1A1A1A;stroke-linecap:round;stroke-linejoin:round;stroke-miterlimit:10;}
	.st4{fill:none;stroke:#1A1A1A;stroke-width:2;stroke-linecap:round;stroke-linejoin:round;stroke-miterlimit:10;}
	.st5{fill:#5067EF;stroke:#1A1A1A;stroke-width:2;stroke-linecap:round;stroke-linejoin:round;stroke-miterlimit:10;}
</style>
<g>
	<path class="st0" d="M257.1,3128c-73.3-122.8-77.6-269.7-8.6-367.7c97.8-138.8,340-175.9,521.6-29.9c53-71,225.2-282.3,530.2-359.2
		c457.7-115.4,818.5,171.6,859.4,205.2c145.6,138.3,358.8,343.4,594.3,307.9c225.5-34.1,190.4-445.7,487.4-568.7
		c11.6-4.8,186.7-74.2,363.4,4.3c196.6,87.3,316.4,322.8,282.2,543c-32.3,207.9-190,324.8-226.6,350.6
		C2525.9,3185,1391.5,3156.5,257.1,3128z"/>
	<path class="st0" d="M3306.7,3134.4c-15.2-57.2-275.5-102.7-594.4-102.7c-211,0-396.2,19.9-501.9,50
		c-190-28.1-566.9-47.3-1000.8-47.3c-625.2,0-1132,39.8-1132,88.8c0,22.9,110.3,43.7,291.3,59.5c-52,11.8-80,24.3-80,37.3
		c0,68.8,782.8,124.5,1748.4,124.5s1748.4-55.7,1748.4-124.5C3785.8,3186.9,3603.6,3156.7,3306.7,3134.4z"/>
	<path class="Graphic_x0020_Style_x0020_26" d="M2236.6,3118c-12.7,4.7-25.5,9.5-38.2,14.2l-209-968.2l48-29.2
		C2055.1,2143,2207.2,2945,2236.6,3118z"/>
	<g>
		<path class="st0" d="M2243.3,3128.5c-12.7,4.7-32.1-1-44.9,3.8l-209-968.2l48-29.2C2055.1,2143,2213.8,2955.5,2243.3,3128.5z"/>
		<path class="st0" d="M362.6,3132.2c12.7,4.7,29.7-4.8,42.5,0l209-968.2l-48-29.2C548.4,2143,392.1,2959.2,362.6,3132.2z"/>
		<rect x="384.7" y="2050.8" class="st0" width="1768.6" height="113.2"/>
		<polygon class="Graphic_x0020_Style_x0020_27" points="2153.2,2090.5 384.7,2087.1 384.7,2176.2 2153.2,2176.2 		"/>
	</g>
	
		<ellipse transform="matrix(1 -3.311063e-03 3.311063e-03 1 -10.3002 2.6233)" class="Graphic_x0020_Style_x0020_26" cx="787.1" cy="3112.1" rx="99.9" ry="99.9"/>
	
		<ellipse transform="matrix(6.409621e-03 -1 1 6.409621e-03 686.9199 6870.5234)" class="st1" cx="3800.8" cy="3089.6" rx="55.2" ry="55.2"/>
	
		<ellipse transform="matrix(0.9999 -9.998142e-03 9.998142e-03 0.9999 -25.487 7.4749)" class="Graphic_x0020_Style_x0020_26" cx="734.9" cy="2552.8" rx="35.8" ry="35.8"/>
	<ellipse class="Graphic_x0020_Style_x0020_27" cx="3472.2" cy="3164" rx="68.5" ry="68.6"/>
	<g>
		<path class="Graphic_x0020_Style_x0020_26" d="M2329.2,2784.7c8-76,4-147.9,16-223.9c4-18,8-36,10-54
			c17.9-87.9,39.1-182.3,111.2-232.5c-5.7-29.1-8.4-46.5-8.4-46.5s-167.2,31.6-189.8,402.3l-22,546.2c19.4-6.5,39-12.7,59-18.5
			C2305,3130.2,2327.2,2812.2,2329.2,2784.7z"/>
		<path class="Graphic_x0020_Style_x0020_27" d="M2466.4,2274.3c-72.1,50.2-93.3,144.6-111.2,232.5c-2,18-6,36-10,54
			c-12,76-8,147.9-16,223.9c-2,27.5-24.2,345.5-24,373.1c5.7-1.7,11.4-3.3,17.2-4.9c31.9-8.9,56.1-35.1,62.5-67.6
			c35.7-182.5,107.3-623.3,127.4-626.9C2489.6,2383.5,2474.7,2316.5,2466.4,2274.3z"/>
		<path class="Graphic_x0020_Style_x0020_26" d="M3157.3,2784.7c-8-76-4-147.9-16-223.9c-4-18-8-36-10-54
			c-17.9-87.9-39.1-182.3-111.2-232.5c5.7-29.1,8.4-46.5,8.4-46.5s167.2,31.6,189.8,402.3l22,546.2c-19.4-6.5-39-12.7-59-18.5
			C3181.5,3130.2,3159.3,2812.2,3157.3,2784.7z"/>
		<path class="Graphic_x0020_Style_x0020_27" d="M3020.1,2274.3c72.1,50.2,93.3,144.6,111.2,232.5c2,18,6,36,10,54
			c12,76,8,147.9,16,223.9c2,27.5,24.2,345.5,24,373.1c-5.7-1.7-11.4-3.3-17.2-4.9c-31.9-8.9-56.1-35.1-62.5-67.6
			c-35.7-182.5-107.3-623.3-127.4-626.9C2997,2383.5,3011.8,2316.5,3020.1,2274.3z"/>
		<path class="Graphic_x0020_Style_x0020_26" d="M2946.2,2539.7l-58.2-5.2c-102.1,42.4-221.1,36.1-348.6,5.2
			c0,0-266.6-393.3-180.8-818.2c14.3-70.7,34.5-132.8,58.2-187.2c118.7-272.2,326-350.7,326-350.7s31.3,11.9,76.5,42.3
			c71.2,47.9,176.9,142,249.5,308.4c23.7,54.4,43.9,116.4,58.2,187.2C3212.9,2146.5,2946.2,2539.7,2946.2,2539.7z"/>
		<path class="st0" d="M3068.8,1534.4c-9.6,2.4-19.2,4.7-29,6.9c-92,20.8-192.1,32.2-297,32.2c-116,0-226.2-14-326-39.1
			c118.7-272.2,326-350.7,326-350.7s31.3,11.9,76.5,42.3C2890.5,1273.9,2996.2,1367.9,3068.8,1534.4z"/>
		<path class="Graphic_x0020_Style_x0020_27" d="M2946.2,2539.7l-58.2-5.2c55.9-93.2,160.4-314,186.7-693
			c8.1-116.6-6.8-216.1-34.8-300.3c-50.2-150.6-142.4-252.1-220.5-315.4c71.2,47.9,176.9,142,249.5,308.4
			c23.7,54.4,43.9,116.4,58.2,187.2C3212.9,2146.5,2946.2,2539.7,2946.2,2539.7z"/>
		
			<ellipse transform="matrix(1 -2.550887e-03 2.550887e-03 1 -4.6209 6.6177)" class="st0" cx="2592" cy="1814.8" rx="131.8" ry="131.8"/>
		
			<ellipse transform="matrix(1 -3.676238e-03 3.676238e-03 1 -6.6542 9.5409)" class="Graphic_x0020_Style_x0020_27" cx="2592" cy="1814.8" rx="91.5" ry="91.5"/>
		<path class="st0" d="M2991.8,2183.1c0,7.6-6.2,13.7-13.7,13.7c-7.6,0-13.7-6.2-13.7-13.7s6.2-13.7,13.7-13.7
			C2985.6,2169.4,2991.8,2175.5,2991.8,2183.1z"/>
		<path class="st0" d="M2978,2240.3c0,7.6-6.2,13.7-13.7,13.7c-7.6,0-13.7-6.2-13.7-13.7s6.2-13.7,13.7-13.7
			C2971.9,2226.5,2978,2232.7,2978,2240.3z"/>
		<path class="st0" d="M2964.3,2297.4c0,7.6-6.2,13.7-13.7,13.7c-7.6,0-13.7-6.2-13.7-13.7s6.2-13.7,13.7-13.7
			C2958.1,2283.7,2964.3,2289.8,2964.3,2297.4z"/>
	</g>
	<g>
		<g>
			<path class="Graphic_x0020_Style_x0020_27" d="M3342.4,2922.8c-11-87.6-20.4-161.7,20.4-194.3c2.5-2,27.5-21.3,57.5-14.1
				c30.2,7.3,43.9,36.3,46,40.9c-15-92.2,3.6-162.7,39.6-175.1c15.6-5.4,39.9-1.7,57.5,12.8c25.7,21.1,24.5,54.6,24.3,58.8
				c3.8-24.9,21.2-120.5,89.5-153.4c13.6-6.5,39.5-19,60.1-6.4c23.5,14.5,21.9,50.8,21.7,53.7c33.9-61.3,85.2-91.2,120.1-79.2
				c15.8,5.4,29.8,19.9,34.5,37.1c8.3,30.5-13,69.5-56.2,90.7c25.2-1.4,48.1,8.7,58.8,26.8c17.4,29.5-6.4,64.7-10.2,70.3
				c-24,35.4-75.7,49.7-131.6,39.6c45.9,36.6,67.4,80.9,55,111.2c-8,19.6-28.4,28.6-51.1,38.3c-23.1,9.9-70,25.3-136.7,15.3
				c40.9,21.7,68.6,52.2,65.2,79.2c-4.6,36.2-62.9,51.9-107.3,63.9c-32.4,8.7-178.8,48.2-235.1-24.3
				C3352,2999.3,3348.8,2973.8,3342.4,2922.8z"/>
			<path class="st2" d="M3231,3049.7c31.7,18.2,72.1,12,105.5-2.7c62.7-27.6,110-81.4,149.3-137.6c39.3-56.2,73-116.7,119.4-167.2
				c43.9-47.8,97.8-85.1,145.5-129c36-33.1,68.6-70,96.9-109.9"/>
			<path class="st2" d="M3409.1,2806.7c37.1,58.1,48.9,124.3,11.1,182"/>
			<path class="st2" d="M3455,2951.5c48-24.5,143.4,17.3,192.8,10"/>
			<path class="st2" d="M3529.3,2844.3c20.7-60.6,6.2-117.2,10.4-169"/>
			<path class="st2" d="M3693.5,2558.1c-4.3,46.7-16.4,92.6-35.7,135.3"/>
			<path class="st2" d="M3712.9,2646.6c44.1-16.3,93.8-17.4,138.6-2.9"/>
			<path class="st2" d="M3565.3,2791.7c49.4-24.7,107.3-27.5,158.8-7.6"/>
		</g>
		<g>
			<path class="st3" d="M3303.6,2906.5c-78.1-55.2-116.8-56.4-125.3-88.3c-5.3-19.9,2.4-47.2,22.2-58.8c24.5-14.4,54.9,2.4,56.4,3.2
				c-69.2-55.8-96-118.4-75.9-147.8c9.5-14,34.9-28,61.3-26c20.6,1.6,34.5,12.4,40,17.3c-34.9-74.6-41.2-137.3-16.2-154.7
				c9.8-6.8,31.4-11.5,49.9-3.5c15.1,6.5,22.2,19,24.9,24.2c-8.6-51.4,17.2-91.9,45.5-97.7c17.6-3.6,37.3,6.1,48.1,20
				c15.1,19.5,14.1,48.8-3.6,71.9c2.1-1.6,34-25.7,57-15.4c25.1,11.3,23.2,56,10,84c-13.1,27.9-38.5,41.3-47.7,45.7
				c3.8-2,40.1-20.5,63.8-5.6c32.6,20.5,9.9,84,8.4,88c-21.4,57.7-84.1,81.1-96.9,85.6c41.7,0.1,74.6,19.1,81.3,44.8
				c8.3,32.2-27.4,63.1-46.8,79.9c-47.4,41-104.8,48.3-134,49.7C3321.3,2919.4,3313.5,2913.5,3303.6,2906.5z"/>
			<path class="st4" d="M3395.7,2423.8c-2.8,50.6-12.3,101.1-28,150c-22.7,70.4-58.9,139.2-60.2,212c-0.4,22.2,2.5,44.1,5.3,66
				c3.3,25,6.7,50.4,17.7,72.9c10.2,20.9,26.6,38.5,45.8,52.2"/>
			<path class="st4" d="M3314.1,2867.4c1-3.5,3.4-6.5,5.9-9.1c15.1-15.8,37.3-23,58.6-28.2c21.4-5.2,43.6-9.2,62.4-20.7"/>
			<path class="st4" d="M3328.3,2681.2c14.7-21.1,41.3-31,66.3-38.4c25-7.4,51.8-14.3,70.3-32.5"/>
			<path class="st4" d="M3359.1,2596.6c6.1-12.5,0.9-27.2-7.8-37.5c-8.7-10.3-20.5-17.7-30.2-27.1c-9.7-9.4-17.5-22.3-15-35.8"/>
			<path class="st4" d="M3376.9,2540.7c0.9-4.1,1.9-8.2,4.1-11.9c3.3-5.4,9-9.1,14.7-12.2c11.8-6.3,24.5-10.7,36.5-16.8
				c12-6,23.5-13.9,30.4-25.1"/>
			<path class="st4" d="M3309,2756.5c-0.6-10.1-1.3-20.2-4.5-29.7c-6.2-18.2-21-31.9-34.7-45.5c-13.7-13.6-27.4-28.9-30.2-48"/>
			<path class="st4" d="M3242.2,2799.2c14.3-2.5,29.2-0.3,41.6,6.2c12.4,6.5,22.3,17.2,27.6,29.9"/>
		</g>
		<g>
			<path class="Graphic_x0020_Style_x0020_26" d="M3412.3,3048c-8.6-111.5,12.8-149.8-13.6-178.8c-16.4-18.1-47.6-28.3-70.6-16.6
				c-28.4,14.4-29.6,54.9-29.7,56.9c-14.4-103.2-60.1-169.9-100.6-169.4c-19.2,0.2-47.8,15.7-61.2,42.6c-10.4,21-7.9,41.5-6.3,50
				c-52.8-82.2-110.5-128.9-142.2-115.9c-12.4,5.1-29.6,23-32.5,46.2c-2.4,18.9,5.6,33.9,9.3,39.8c-45.4-41.6-100.1-42.9-122.2-19.1
				c-13.8,14.8-15.8,40.1-8.4,59.7c10.3,27.3,39.6,45.3,72.5,43.1c-2.8,1-45,16.3-48.3,45.4c-3.6,31.6,41.4,58.8,76.5,64.1
				c35,5.3,62.9-10.6,72.5-16.7c-4.1,2.4-43.4,25.6-42.6,58.3c1.1,44.9,76.6,64,81.4,65.2c69,16.6,128.5-29.1,140.3-38.6
				c-24.2,40.6-24.8,84.7-3.4,107.9c26.7,29,77.8,14.3,105.6,6.3c67.8-19.5,108.3-70.4,126.7-97.8
				C3414.7,3073.5,3413.4,3062,3412.3,3048z"/>
			<path class="st4" d="M2885.7,2824.7c51.2,30,106.2,53.6,163.3,69.9c82.2,23.5,170.6,33,242.8,78.9c22,14,41.8,31,61.6,47.9
				c22.6,19.4,45.5,39.1,61.2,64.4c14.5,23.4,22.2,50.7,24.5,78.2"/>
			<path class="st4" d="M3368.5,3034.6c-4-1.3-72.7,2-110,90.6"/>
			<path class="st4" d="M3177.1,2925.9c-29.3,0.6-54.4,20-76.2,39.5c-21.8,19.5-44.2,40.9-72.8,47.2"/>
			<path class="st4" d="M3076.4,2901.1c-15.8-2.2-27.2-16.8-32.2-31.9c-5-15.1-5.4-31.4-9-46.9c-3.6-15.5-11.7-31.4-26.3-37.8"/>
			<path class="st4" d="M3011.2,2882.1c-4.5-1.7-9.2-3.5-14-3.7c-7.3-0.3-14.2,2.8-20.5,6.4c-13,7.4-24.8,16.8-37.7,24.5
				c-12.8,7.7-27.3,13.8-42.3,13.2"/>
			<path class="st4" d="M3262.2,2956c-9.5-7.1-19.1-14.4-26.5-23.6c-14.2-17.8-19.1-41-24.4-63.1c-5.3-22.1-12.4-45.3-29.4-60.4"/>
			<path class="st4" d="M3342.9,2918.8c-10.8,12.2-17.3,28.2-18.1,44.5c-0.9,16.3,6,33.7,15.4,47"/>
		</g>
	</g>
	<g>
		<path class="Graphic_x0020_Style_x0020_27" d="M2114.6,1108.4c0-38.3,4.7-68.9,14.2-91.6c9.5-22.8,28.3-47.8,56.3-75
			c28.1-27.2,45.8-46.6,53.3-58.1c11.5-17.5,17.3-36.5,17.3-56.9c0-27-6.7-47.6-20.1-61.9c-13.4-14.2-33-21.3-58.9-21.3
			c-24.8,0-44.7,7-59.8,20.9c-15.1,13.9-22.7,32.8-22.7,56.6c-34.6,37.9-69.7,26.8-104.9,0c0.6-51,17.9-91.3,52-121
			c34.1-29.7,79.2-44.5,135.3-44.5c57.8,0,103,14.7,135.3,44.1c32.4,29.4,48.6,70.4,48.6,123.2c0,47-21.9,93.2-65.6,138.7
			l-53.1,52.3c-19,21.6-28.8,53.2-29.4,94.6C2181.3,1141.1,2148.5,1138.5,2114.6,1108.4z M2107.2,1242.5c0-16.9,5.3-30.6,16-41.1
			c10.6-10.5,25-15.7,43.2-15.7c18.4,0,33,5.4,43.6,16.1c10.6,10.8,16,24.3,16,40.6c0,15.8-5.2,29-15.5,39.6
			c-10.4,10.6-25,15.9-44,15.9c-19,0-33.6-5.3-43.8-15.9C2112.3,1271.4,2107.2,1258.2,2107.2,1242.5z"/>
		<path class="Graphic_x0020_Style_x0020_26" d="M2092.8,1108.4c0-38.3,4.7-68.9,14.2-91.6c9.5-22.8,28.3-47.8,56.3-75
			c28.1-27.2,45.8-46.6,53.3-58.1c11.5-17.5,17.3-36.5,17.3-56.9c0-27-6.7-47.6-20.1-61.9c-13.4-14.2-33-21.3-58.9-21.3
			c-24.8,0-44.7,7-59.8,20.9c-15.1,13.9-22.7,32.8-22.7,56.6c-34.6,37.9-69.7,26.8-104.9,0c0.6-51,17.9-91.3,52-121
			c34.1-29.7,79.2-44.5,135.3-44.5c57.8,0,103,14.7,135.3,44.1c32.4,29.4,48.6,70.4,48.6,123.2c0,47-21.9,93.2-65.6,138.7
			l-53.1,52.3c-19,21.6-28.8,53.2-29.4,94.6C2159.5,1141.1,2126.7,1138.5,2092.8,1108.4z M2085.4,1242.5c0-16.9,5.3-30.6,16-41.1
			c10.6-10.5,25-15.7,43.2-15.7c18.4,0,33,5.4,43.6,16.1c10.6,10.8,16,24.3,16,40.6c0,15.8-5.2,29-15.5,39.6
			c-10.4,10.6-25,15.9-44,15.9c-19,0-33.6-5.3-43.8-15.9C2090.6,1271.4,2085.4,1258.2,2085.4,1242.5z"/>
	</g>
	<g>
		<ellipse class="Graphic_x0020_Style_x0020_27" cx="1207.3" cy="2753" rx="242.8" ry="242.8"/>
		<ellipse class="st0" cx="1207.3" cy="2753" rx="208.5" ry="208.5"/>
		<g>
			<g>
				<path class="st0" d="M1253.3,2813.2c0-10.1-3.5-18.5-10.6-25.4c-7-6.9-18.9-13.1-35.7-18.7c-23.3-7.1-40.2-16.4-50.9-27.8
					c-10.7-11.4-16-25.9-16-43.5c0-17.9,5.2-32.6,15.7-44.1c10.4-11.5,24.8-18.3,43-20.5v-35.9h24.4v36.1
					c18.4,2.5,32.6,10.2,42.9,23.1c10.2,12.9,15.3,30.5,15.3,53h-30.2c0-15.5-3.7-27.7-11-36.8c-7.3-9.1-17.2-13.7-29.7-13.7
					c-13,0-23,3.4-29.8,10.1c-6.9,6.7-10.3,16.1-10.3,28.2c0,11.2,3.6,20.1,10.9,26.7c7.3,6.6,19.2,12.6,35.9,18.1
					c16.7,5.4,29.7,11.4,39,17.9c9.3,6.5,16.2,14.1,20.7,22.7c4.4,8.6,6.6,18.7,6.6,30.3c0,18.5-5.5,33.3-16.6,44.6
					c-11.1,11.3-26.6,17.9-46.6,20v31.3h-24.3v-31.3c-20.3-1.9-36.3-9.1-47.8-21.7c-11.5-12.6-17.3-29.8-17.3-51.4h30.3
					c0,15.2,4,26.9,12,35.1c8,8.2,19.3,12.3,33.9,12.3c14.3,0,25.6-3.4,33.8-10.3C1249.2,2834.5,1253.3,2825.1,1253.3,2813.2z"/>
			</g>
		</g>
	</g>
	<g>
		
			<ellipse transform="matrix(1.350970e-02 -0.9999 0.9999 1.350970e-02 -1140.0781 3356.3789)" class="st0" cx="1131" cy="2256" rx="123.8" ry="123.8"/>
		
			<ellipse transform="matrix(1.514617e-02 -0.9999 0.9999 1.514617e-02 -1141.8761 3352.6604)" class="Graphic_x0020_Style_x0020_22" cx="1131" cy="2256" rx="106.3" ry="106.3"/>
		<g>
			<g>
				<path class="st0" d="M1154.4,2286.7c0-5.1-1.8-9.4-5.4-13c-3.6-3.5-9.7-6.7-18.2-9.5c-11.9-3.6-20.5-8.3-25.9-14.2
					c-5.4-5.8-8.1-13.2-8.1-22.2c0-9.1,2.7-16.6,8-22.5c5.3-5.8,12.6-9.3,21.9-10.4v-18.3h12.5v18.4c9.4,1.3,16.6,5.2,21.9,11.8
					c5.2,6.6,7.8,15.6,7.8,27h-15.4c0-7.9-1.9-14.1-5.6-18.8c-3.7-4.6-8.8-7-15.1-7c-6.6,0-11.7,1.7-15.2,5.1
					c-3.5,3.4-5.3,8.2-5.3,14.4c0,5.7,1.9,10.2,5.6,13.6c3.7,3.4,9.8,6.4,18.3,9.2c8.5,2.8,15.1,5.8,19.9,9.1
					c4.8,3.3,8.3,7.2,10.5,11.6c2.3,4.4,3.4,9.6,3.4,15.5c0,9.4-2.8,17-8.5,22.7c-5.7,5.7-13.6,9.1-23.8,10.2v16h-12.4v-16
					c-10.4-0.9-18.5-4.6-24.4-11.1c-5.9-6.4-8.8-15.2-8.8-26.2h15.5c0,7.7,2,13.7,6.1,17.9c4.1,4.2,9.8,6.3,17.3,6.3
					c7.3,0,13-1.8,17.2-5.3C1152.3,2297.5,1154.4,2292.7,1154.4,2286.7z"/>
			</g>
		</g>
	</g>
	<g>
		<path class="st1" d="M1880.6,3113.9l0,103.2c17.8,16.2,41.2,22,67.4,22.2l24.8-9.9c0,0,35.1,34.6,126.3,32.7
			c91.2-1.9-24.1-60.9-43.1-71.3c-19-10.5-67.8-64.9-67.8-64.9L1880.6,3113.9z"/>
		<path class="Graphic_x0020_Style_x0020_26" d="M2007.2,3113.1c-35.4,27.6-78.4,27-139.2,34.2l-143.3-948.6v0l-15-80.1l-19.4-245
			l-4.2-53.7l239,22.7L2007.2,3113.1z"/>
		<path class="st1" d="M1499,3150.2v112c14.4,22.3,40.7,18.3,67.4,13.5l24.8-9.9c0,0,35.1,34.6,126.3,32.7
			c91.2-1.9-24.1-60.9-43.1-71.3c-19-10.5-67.8-64.9-67.8-64.9L1499,3150.2z"/>
		<path class="Graphic_x0020_Style_x0020_26" d="M1741.5,2109.4l-16.9,89.2v0l-104.2,970.7c-23.4,11.2-108.4,7.4-125.9,0
			c-26.6-379.3-27.1-973.4-16.5-1248.5l212.3-47.2l19.4-4.3"/>
		<path class="Graphic_x0020_Style_x0020_27" d="M1516.4,1931.2c0,0,80.8,37.1,210,26.6c129.2-10.5,195.7-47.5,195.7-47.5V1877
			h-391.4L1516.4,1931.2z"/>
		<path class="st0" d="M1573.4,1234.7l169.1,6.9l160.6,663.8c0,0-169.1,71.4-337.3,20.1C1567.7,1786.8,1573.4,1234.7,1573.4,1234.7z
			"/>
		<path class="st0" d="M1716.9,1303.8c0,0-12.4,6.9-20.7,5.5c10.7,129.7,10.3,135.1,10.3,135.1"/>
		<path class="st0" d="M1621.9,1303.8c0,0,45.6,20.2,62,6.9c10,93.8,12.4,137.3,12.4,137.3"/>
		<path class="Graphic_x0020_Style_x0020_26" d="M1718,1121.2c0,0,13.1,132.9,13.1,146.3s-95.5,47.7-138.7-16.4
			c8.2-79.3,11.3-140.1,11.3-140.1s-100.9-181.3,3.1-213.2c104-31.9,163.3-8.9,163.3,213.2C1743.9,1123.5,1718,1121.2,1718,1121.2z"
			/>
		<path class="st5" d="M1909.3,1280.7c0,0,110.6,201.7,96.7,203.3c-13.9,1.5-139.1,69.5-139.1,69.5l-76.6-318.8
			C1790.3,1234.7,1894.5,1250.6,1909.3,1280.7z"/>
		<path class="Graphic_x0020_Style_x0020_21" d="M1831.4,1280.7c0,0,91.2,399.5,157.6,537c-54.1,176.1-185.8,102-185.8,102
			s-139.1-618.4-77.9-720.2c53.5,35.7,96.8,46.5,96.8,46.5L1831.4,1280.7z"/>
		<path class="Graphic_x0020_Style_x0020_21" d="M1597.3,1199.5c0,0-88.9,63.5-124.4,68.2c38.6,146.8,28.7,421.3-32.4,585.6
			c47.9,185.4,106.5,119.1,163.6,81.9C1695.5,1826.9,1653.8,1271.9,1597.3,1199.5z"/>
		<path class="Graphic_x0020_Style_x0020_27" d="M1592.2,1106.4c0,0,13.5,0,24.9-7.1c-10-37.8-19.2-50.6,11.4-54.2
			c-20-17.8-18.9-53.4,5.9-54.2c24.8-0.7,23.3,14.3,23.3,14.3s23.5-30.6,24.9-50.6c0,0,69.8,0,77.7-47.7
			c-30.6-18.5-43.8-61.3-101-30.6c14.1-22.8,14.1-22.8,14.1-22.8s-52-4.3-63.4,14.3c-34.9,6.4-64.8,43.5-62.7,56.3
			C1524.6,992.7,1592.2,1106.4,1592.2,1106.4z"/>
		<path class="st0" d="M1811.9,1179.6c0,0-26.4-61.2-25.9-92.1c0.5-30.9-17.8-11-17.8-11s2.2,26.5,1.9,34.6
			c-21.2,10-76.4-4.1-78.4-1.8c-5,6-11.3,15.2-12.4,23.8c-1.3,10.3,24.3,34.6,39.9,46.1c11.6,8.5,52.6,19.3,61.4,32.9l16.4,41.9
			c0,0,108.5,288.7,125.5,313.4c17,24.7,69.9,7.8,84.6-35.5C2025.6,1477.5,1811.9,1179.6,1811.9,1179.6z"/>
		<path class="st0" d="M1618.8,2109c0,0-10.4-41.8-20.4-60c-10-18.2-60-55.7-60.6-58.6c-25.1-55.4-160.6-304.3-157.1-326.9
			c3.5-22.6,65.2-122.6,65.2-122.6l-79.5-99.1c0,0-95.5,183-97.6,235.8c-2.1,52.8,218.6,346.7,218.6,346.7
			c23.2,36.8,18.4,57.3,16.9,95c-0.1,3.3,0.2,6.7,0.8,10.3c16.6,6.6,36.3,4.5,53.1-0.6c3.3-1.4,6.7-3.3,9.8-5.6
			c0-26.4,13.3-43.8,13.3-43.8s13.8,31.2,29.2,39.7C1625.9,2127.9,1618.8,2109,1618.8,2109z"/>
		<path class="Graphic_x0020_Style_x0020_21" d="M1535.2,1388.3l-95.2,186.4l-121.5-93c0,0,104.1-187.4,123.4-202.5
			c19.2-15.2,68.8-23.6,68.8-23.6"/>
		<path class="st5" d="M1591.8,1191.6l-61.3,46l54.9,76.3h13.5l-3.6,43.5l60.2,145c0,0,2.1-47-6.1-116.5
			C1641.3,1316.3,1628.9,1223.7,1591.8,1191.6z"/>
		<path class="st5" d="M1731.4,1194.6c0,0-14.1,2.8-21.6,48.2c-7.9,47.6,14.4,260.8,17.3,259.5l18.4-173.5l-16.2-30.4l20.9-9.6
			c0,0,15.2-60.2,20-66.9C1754.9,1210,1731.4,1194.6,1731.4,1194.6z"/>
		<path class="st0" d="M1474.2,879.1V761.7c0-29.4-20.7-53.2-46.2-53.2h-318.5c-25.5,0-46.2,23.8-46.2,53.2v117.4
			c0,29.4,20.7,53.2,46.2,53.2h229.3l100.3,122.4c7.8,9.5,23,1.5,19.5-10.3c-10.1-34.3-23.1-78.7-33.1-112.1h2.5
			C1453.5,932.2,1474.2,908.4,1474.2,879.1z"/>
		<g>
			<path class="st1" d="M1196.4,751.2l7.2,18.2c4.4,2.1,7,3.4,11.3,5.5l18.7-5.7c5.2,6.6,5.5,6.9,10.7,13.5l-9.7,16.9
				c1.1,4.7,1.7,7.5,2.8,12.3l16.1,11c-1.9,8.2-2,8.6-3.8,16.8l-19.3,2.9c-3,3.8-4.8,6.1-7.8,9.8l1.4,19.5c-7.6,3.6-8,3.8-15.5,7.5
				l-14.3-13.2c-4.8,0-7.7,0-12.6,0l-14.3,13.2c-7.6-3.6-8-3.8-15.5-7.5l1.4-19.5c-3-3.8-4.8-6.1-7.8-9.8l-19.3-2.9
				c-1.9-8.2-2-8.6-3.8-16.8l16.1-11c1.1-4.7,1.7-7.5,2.8-12.3l-9.7-16.9c5.2-6.6,5.5-6.9,10.7-13.5l18.7,5.7
				c4.4-2.1,7-3.4,11.3-5.5l7.2-18.2C1187.6,751.2,1188,751.2,1196.4,751.2z"/>
			<g>
				<ellipse class="st0" cx="1187.8" cy="816.6" rx="22.8" ry="22.8"/>
			</g>
		</g>
		<rect x="1300.7" y="751.2" class="st0" width="76.5" height="19.3"/>
		<rect x="1300.7" y="797.3" class="st0" width="134.9" height="19.3"/>
		<rect x="1300.7" y="848.2" class="st0" width="134.9" height="19.3"/>
	</g>
	<g>
		<polygon class="st1" points="639.1,1832.4 794.2,2029.1 806.2,2022.6 648.1,1828.6 		"/>
		<rect x="806.2" y="2029.1" class="st1" width="254.2" height="21.7"/>
		<rect x="846.8" y="2037.8" class="st2" width="27.6" height="3.6"/>
		<rect x="964.7" y="2037.8" class="st2" width="27.6" height="3.6"/>
	</g>
	<g>
		<path class="Graphic_x0020_Style_x0020_27" d="M2827.6,2482.1c-6.8-135.6-84.8-254.3-84.8-254.3s-0.1,0.2-0.3,0.4
			c-0.7,1.1-2.9,4.5-6,9.7c23.7,124.6,69.7,423.7,45.9,766.1c-5.5,79.5-10.3,145.8-14.5,201.1c53.3-26.9,61.4-148,61.4-148
			C2830.8,2959.6,2831.7,2565.9,2827.6,2482.1z"/>
		<path class="st0" d="M2736.5,2238c-3,5.1-7,12.1-11.6,20.7c-23.4,43.9-62.2,129.6-66.9,223.4c-4.2,83.7-3.2,477.5-1.8,575.1
			c0,0,16.9,143.1,82.6,152.7c2.6,0.4,5.3,0.6,8,0.5c7.7-0.2,14.7-2,21.1-5.2c4.2-55.3,9-121.6,14.5-201.1
			C2806.2,2661.7,2760.2,2362.6,2736.5,2238z"/>
	</g>
</g>
</svg>
