<svg id="Layer_1" data-name="Layer 1" xmlns="http://www.w3.org/2000/svg" xmlns:xlink="http://www.w3.org/1999/xlink" viewBox="0 0 6000 4000"><defs><style>.cls-1{fill:url(#linear-gradient);}.Graphic-Style-79{fill:#dbd2db;}.cls-2{fill:url(#linear-gradient-2);}.cls-3{fill:url(#linear-gradient-3);}.cls-4{fill:#545154;}.cls-5{fill:#9d8a9d;}.Graphic-Style-82{fill:#152a52;}.cls-6{fill:#eed7ee;}.cls-7{fill:#504650;}.Graphic-Style-85,.cls-12{fill:#1a1a1a;}.cls-8{fill:#b9b4b9;}.Graphic-Style-90{fill:#102140;}.Graphic-Style-83{fill:#3b546b;}.cls-9{fill:#a8a1a8;}.cls-10{fill:url(#linear-gradient-4);}.cls-11{fill:#6584c6;}.Graphic-Style-84,.cls-28{fill:#fff;}.Graphic-Style-99{fill:#b080b0;}.Graphic-Style-77{fill:url(#linear-gradient-5);}.cls-12,.cls-28{stroke:#1a1a1a;}.cls-12,.cls-13,.cls-14,.cls-15,.cls-16,.cls-17,.cls-18,.cls-19,.cls-21,.cls-22,.cls-23,.cls-24,.cls-28{stroke-linecap:round;stroke-linejoin:round;}.cls-12,.cls-13,.cls-14,.cls-15,.cls-16,.cls-17,.cls-18,.cls-19,.cls-22,.cls-28{stroke-width:4.98316px;}.cls-13,.cls-14,.cls-15,.cls-16,.cls-17,.cls-18,.cls-19,.cls-21,.cls-22,.cls-23,.cls-24{fill:none;}.cls-13{stroke:#c1bdc1;}.cls-13,.cls-14,.cls-15,.cls-16,.cls-17,.cls-18{stroke-dasharray:29.89898;}.cls-14{stroke:#c7c4c7;}.cls-15{stroke:#cdcacd;}.cls-16{stroke:#d4d1d4;}.cls-17{stroke:#dad7da;}.cls-18{stroke:#e0dee0;}.Graphic-Style-78{fill:#ffde70;}.Graphic-Style-86{fill:#572658;}.Graphic-Style-98{fill:#339e7e;}.cls-19{stroke:#10663f;}.cls-20{fill:#00593b;}.cls-21,.cls-22{stroke:#fff;}.cls-21,.cls-23,.cls-24{stroke-width:7.47475px;}.Graphic-Style-81{fill:#127755;}.cls-23{stroke:#134411;}.cls-24{stroke:#203560;}.Graphic-Style-91{fill:#db6767;}.cls-25{fill:#fc9590;}.cls-26{fill:#ef5668;}.Graphic-Style-88{fill:#d1334a;}.Graphic-Style-89{fill:#eb485c;}.cls-27{fill:#d9d9d9;}.cls-29{fill:#ebebeb;}.cls-30{fill:#666;}.cls-31{fill:#162016;}.Graphic-Style-80{fill:#ffb114;}.cls-32{fill:#25314a;}.cls-33{fill:#ffeba9;}.cls-34{fill:#ccb25a;}.cls-35{fill:#535353;}.cls-36{fill:#bababa;}.cls-37{fill:#868686;}.cls-38{fill:#5a5a5a;}.cls-39{fill:url(#linear-gradient-6);}.cls-40{fill:url(#linear-gradient-7);}.cls-41{fill:url(#linear-gradient-8);}.cls-42{fill:url(#linear-gradient-9);}.cls-43{fill:url(#linear-gradient-11);}.cls-44{fill:#cbe1cb;}</style><linearGradient id="linear-gradient" x1="1166.79961" y1="2175.84519" x2="5125.18113" y2="2175.84519" gradientUnits="userSpaceOnUse"><stop offset="0" stop-color="#68b2fc"/><stop offset="1" stop-color="#529bf7"/></linearGradient><linearGradient id="linear-gradient-2" x1="2364.56944" y1="1724.48956" x2="4934.26454" y2="1724.48956" gradientUnits="userSpaceOnUse"><stop offset="0" stop-color="#68b2fc"/><stop offset="1" stop-color="#ebf0f7"/></linearGradient><linearGradient id="linear-gradient-3" x1="1305.45079" y1="2986.07809" x2="4782.85133" y2="2986.07809" gradientUnits="userSpaceOnUse"><stop offset="0" stop-color="#4085f0"/><stop offset="1" stop-color="#275dc9"/></linearGradient><linearGradient id="linear-gradient-4" x1="1140.75896" y1="1273.35597" x2="2025.69253" y2="1273.35597" xlink:href="#linear-gradient-2"/><linearGradient id="linear-gradient-5" x1="3036.92056" y1="2009.21081" x2="3858.24591" y2="2009.21081" xlink:href="#linear-gradient"/><linearGradient id="linear-gradient-6" x1="4428.46759" y1="875.62147" x2="4666.73029" y2="875.62147" xlink:href="#linear-gradient"/><linearGradient id="linear-gradient-7" x1="4042.89137" y1="464.80618" x2="4250.8988" y2="464.80618" xlink:href="#linear-gradient"/><linearGradient id="linear-gradient-8" x1="3363.2757" y1="3482.72784" x2="3704.62825" y2="3482.72784" xlink:href="#linear-gradient"/><linearGradient id="linear-gradient-9" x1="1024.51491" y1="3239.98375" x2="1486.99486" y2="3239.98375" xlink:href="#linear-gradient"/><linearGradient id="linear-gradient-11" x1="5071.0638" y1="2299.02689" x2="5242.42986" y2="2299.02689" xlink:href="#linear-gradient-3"/></defs><title>1</title><path class="cls-1" d="M1342.20482,2296.36619c-173.17509,599.48333-83.778,855.07886,40.91944,975.29141,208.44635,200.94952,507.69171,16.03992,1336.70359,88.66285,547.3207,47.94626,563.29889,141.36974,900.22881,109.12355,145.50055-13.92526,708.49054-67.80668,1118.4662-525.15691,104.9081-117.03052,472.39505-526.98237,368.27553-982.11167-95.06246-415.53985-525.89694-618.01711-879.76909-784.32519-334.22349-157.074-684.2967-193.37862-1384.44313-265.98848-719.49613-74.61657-1031.03694-35.2442-1302.60426,129.58418-181.28914,110.03391-253.0783,220.32739-272.79645,252.348C1017.81793,1698.74168,1307.26757,2233.87146,1342.20482,2296.36619Z"/><path class="Graphic-Style-79" d="M1775.48741,1125.38c-495.152,306.53936-759.683,758.0637-672.752,1134.11824,31.39356,135.76626,103.74919,240.81127,178.347,321.738a1178.59449,1178.59449,0,0,0,24.36835,121.38978l965.78653-278.98232,93.33212,20.82943,9.622-1962.93881C2201.32644,526.73133,1978.80558,672.99678,1775.48741,1125.38Z"/><path class="cls-2" d="M4934.19,1951.93729c-6.40353-283.6665-417.2651-357.816-512.56809-759.25961-55.21323-232.639,55.06359-324.37886-32.042-432.48862-142.3687-176.80284-458.87439,41.33525-983.477-12.8317C2854.59164,690.39984,2721.466,399.45781,2387.37021,478.2416c-4.35662,1.02742-8.75582,2.13634-13.17874,3.29271l-9.622,1962.93881,2418.28189,539.70161c129.21338-246.46721,182.18443-584.9736,113.29214-875.36756C4926.86487,2047.76342,4935.16142,1995.1166,4934.19,1951.93729Z"/><path class="cls-3" d="M4782.85133,2984.17473c-80.578,153.70567-190.80551,271.60733-319.59522,319.71977-123.28341,46.06932-222.224,12.707-340.7986-30.37239-246.46706,46.71716-529.13748,25.16491-771.66764-24.91582-197.78146,83.61748-288.2266,224.49145-591.82545,279.55549-426.13527,77.3137-1019.82941-60.22164-1313.4376-506.1898-69.88838-106.16626-113.516-215.721-140.076-319.346l965.78653-278.98232Z"/><path class="cls-4" d="M4523.69544,2708.03937l-17.97033,577.15287s-151.1737,88.489-288.249,20.42664l-.67694-383.49752Z"/><polygon class="cls-5" points="2484.818 2492.163 4216.799 2922.121 4217.476 3305.619 2530.823 2826.544 2484.818 2492.163"/><polygon class="Graphic-Style-82" points="3010.328 2708.039 3809.476 2914.566 3802.363 3136.9 3010.328 2917.81 3010.328 2708.039"/><polygon class="cls-6" points="2999.671 2715.144 3802.363 2918.249 3795.218 3136.9 2999.671 2921.439 2999.671 2715.144"/><polygon class="Graphic-Style-82" points="3337.883 2827.491 3496.446 2865.855 3496.446 2893.135 3337.883 2849.657 3337.883 2827.491"/><polygon class="cls-7" points="4112.796 2910.186 4126.995 3279.919 4217.476 3305.619 4216.799 2930.647 4112.796 2910.186"/><polygon class="Graphic-Style-79" points="2868.494 2420.365 2615.145 2447.963 2628.353 2559.572 4279.506 2966.962 4294.276 2570.834 2868.494 2420.365"/><polygon class="Graphic-Style-85" points="4294.276 2570.834 4279.506 2966.962 4280.418 2967.187 4547.599 2715.123 4556.382 2598.495 4294.276 2570.834"/><polygon class="cls-8" points="2586.133 2389.98 2580.619 2439.444 4278.063 2858.255 4272.625 2816.109 2586.133 2389.98"/><polygon class="cls-4" points="4569.054 2586.54 4574.568 2537.058 4273.993 2816.455 4272.625 2816.109 4278.063 2858.255 4280.425 2858.837 4569.054 2586.54"/><polygon class="Graphic-Style-79" points="4574.568 2537.058 4273.993 2816.455 2586.133 2389.98 2874.004 2262.543 4574.568 2537.058"/><path class="Graphic-Style-90" d="M2908.54574,2365.63207c3.85357,0,779.70634,163.14187,779.70634,163.14187l-150.28936,89.92071L2777.52424,2433.7149v-12.27032Z"/><path class="Graphic-Style-83" d="M2908.54574,2353.36176c3.85357,0,779.70634,163.14186,779.70634,163.14186l-150.28936,89.92072-760.43848-184.97976Z"/><polygon class="Graphic-Style-82" points="3474.091 2488.558 3415.813 2551.136 3516.617 2578.069 3584.758 2515.958 3474.091 2488.558"/><polygon class="Graphic-Style-82" points="2915.048 2366.716 3309.75 2452.408 3240.699 2519.728 2818.716 2411.597 2915.048 2366.716"/><polygon class="Graphic-Style-82" points="3345.555 2460.051 3303.499 2504.951 3376.245 2524.275 3419.437 2478.239 3345.555 2460.051"/><path class="cls-9" d="M2205.49253,556.023l-24.17707,1341.61614-1083.60818,89.47719a861.84385,861.84385,0,0,1,43.05168-155.11307c96.73022-256.38694,318.77276-510.99863,634.7149-706.60336,81.81081-181.98756,166.67768-314.42783,250.21867-410.69111C2086.94408,644.107,2147.477,592.96439,2205.49253,556.023Z"/><path class="cls-10" d="M2025.69253,714.70874l-18.82907,1045.79358-866.1045,71.50089c96.73022-256.38694,318.77276-510.99863,634.7149-706.60336C1857.28467,943.41229,1942.15154,810.972,2025.69253,714.70874Z"/><path class="Graphic-Style-85" d="M3250.22924,2339.87482s-88.27291,10.33332-99.83363,15.04346c-4.74757,1.93428.437,18.5149.03857,20.61941-.57182,3.02015,5.13637,6.09344,22.29542,8.86929,29.11589,4.71013,476.98675,95.48723,476.98675,95.48723s23.12144,7.70749,35.96668,0,98.48021-49.67049,98.48021-49.67049v-21.62495Z"/><path class="cls-11" d="M3250.22924,2318.24986s-79.64052,24.83525-91.20124,29.54538-15.41429,10.27665,13.7016,14.98678,476.98675,95.48724,476.98675,95.48724,23.12144,7.70749,35.96668,0,98.48021-49.67049,98.48021-49.67049Z"/><path class="Graphic-Style-85" d="M3495.97812,2232.21818c2.44251,37.348,3.69734,79.3745-27.40419,98.036-16.742,9.56725-23.91707,28.70175-35.8756,33.48538-17.5495,6.466-31.8758,1.84714-43.418-8.569.91849,6.52989,9.25385,16.0116,44.636,23.24047,59.73019,12.20359,82.20966,3.21152,82.85138,0,.6423-3.21137,8.34995-141.94616,8.34995-141.94616Z"/><path class="cls-11" d="M3432.69833,2363.73958c11.95853-4.78363,19.13365-23.91813,35.8756-33.48538,31.10153-18.66152,29.8467-60.688,27.40419-98.036l-98.67075-14.37978-5.78073,129.74272a9.87369,9.87369,0,0,0-2.24631,7.58945C3400.82253,2365.58672,3415.14883,2370.20553,3432.69833,2363.73958Z"/><polygon class="cls-11" points="3004.275 1552.198 3934.881 1565.913 3902.125 2296.198 2977.268 2167.097 3004.275 1552.198"/><polygon class="Graphic-Style-84" points="3035.47 1577.891 3901.822 1590.659 3871.328 2270.521 3010.328 2150.334 3035.47 1577.891"/><polygon class="Graphic-Style-99" points="3866.334 1617.214 3068.956 1605.463 3066.909 1652.078 3863.423 1682.119 3866.334 1617.214"/><polygon class="Graphic-Style-84" points="3066.909 1652.078 3045.815 2132.331 3838.268 2242.949 3864.059 1679.989 3066.909 1652.078"/><path class="Graphic-Style-77" d="M3045.88756,2033.78778s95.27438-102.7594,165.88951-49.67464,162.20788,76.90816,224.57595-49.81057,94.87344-27.82555,124.01619,17.64258,106.48313-32.96439,112.08751-105.7134,77.065-89.79956,101.30148-48.87824,84.48771.18492,84.48771.18492l-20.80929,445.29491-800.51606-108.02951Z"/><polygon class="cls-12" points="3934.881 1565.913 3957.36 1592.247 3919.895 2286.564 3902.125 2296.198 3934.881 1565.913"/><line class="cls-13" x1="3150.61902" y1="1623.43791" x2="3118.79275" y2="2134.80383"/><line class="cls-14" x1="3279.28046" y1="1633.82485" x2="3247.45419" y2="2145.19077"/><line class="cls-15" x1="3407.94189" y1="1644.21179" x2="3376.11562" y2="2155.57771"/><line class="cls-16" x1="3536.60333" y1="1654.59872" x2="3504.77705" y2="2165.96464"/><line class="cls-17" x1="3665.26476" y1="1664.98566" x2="3633.43849" y2="2176.35158"/><line class="cls-18" x1="3793.9262" y1="1675.3726" x2="3762.09993" y2="2186.73851"/><rect class="Graphic-Style-78" x="3453.41104" y="1823.99077" width="87.38017" height="22.95142" rx="4.60579"/><rect class="Graphic-Style-78" x="3129.73303" y="1917.09175" width="87.38017" height="22.95142" rx="4.60579"/><rect class="Graphic-Style-78" x="3697.06479" y="1728.58977" width="87.38017" height="22.95142" rx="4.60579"/><path class="Graphic-Style-84" d="M3683.99329,2186.73851l-78.429-10.89332,5.264-41.12969a26.62383,26.62383,0,0,1,28.83935-23.13336l22.78031,2.08908a26.62436,26.62436,0,0,1,24.148,28.05024Z"/><circle class="Graphic-Style-84" cx="3657.13987" cy="2080.67679" r="22.16522"/><path class="Graphic-Style-84" d="M3781.51559,2202.084l-78.429-10.89333,5.264-41.12969a26.62385,26.62385,0,0,1,28.83935-23.13336l22.78031,2.08908a26.62436,26.62436,0,0,1,24.148,28.05024Z"/><circle class="Graphic-Style-84" cx="3754.66217" cy="2096.02228" r="22.16522"/><path class="Graphic-Style-86" d="M1709.11516,2660.65929c-19.947,37.28828-277.05551,34.10727-406.662,30.0889q-2.08107-8.431-3.97-16.79043-3.4807-15.06846-6.45808-29.89766C1391.04154,2637.48261,1732.00338,2617.84577,1709.11516,2660.65929Z"/><path class="Graphic-Style-99" d="M1302.45321,2690.74819c26.237,107.10546,70.50747,221.00358,143.07206,331.24231a1022.09355,1022.09355,0,0,0,67.68249,91.20831,227.794,227.794,0,0,0,39.60914,23.09639c7.17512,4.78362,9.56683,14.35087,16.74195,14.35087,31.09218,9.56726,64.57608,4.78363,71.7512-33.48538,13.52108-61.81269,13.02242-126.73675,46.337-177.15124l21.46813-279.35016C1689.16812,2697.94757,1432.05965,2694.76656,1302.45321,2690.74819Z"/><path class="Graphic-Style-86" d="M1569.55885,3150.64607c-7.17512,0-9.56683-9.56725-16.74195-14.35087a227.794,227.794,0,0,1-39.60914-23.09639A1065.88617,1065.88617,0,0,0,1663.003,3260.69342l24.644-320.684c-33.31456,50.41449-32.8159,115.33855-46.337,177.15124C1634.13493,3155.4297,1600.651,3160.21333,1569.55885,3150.64607Z"/><path class="Graphic-Style-98" d="M1772.39609,2249.244c16.33809,15.72142,39.51865,20.65162,55.45139,21.94307q10.72222-5.26818,21.41242-11.41377c31.26228-17.96075,51.26785-50.02468,63.97555-85.8605-20.68464,7.47488-66.78333,22.35434-86.81075,14.40285-26.24117-10.39779-16.04322-22.06577-3.85115-18.1982,15.11535,7.77357,71.79847-8.35687,96.93-16.13594a403.49955,403.49955,0,0,0,11.12291-57.65257c-17.85187,10.66567-44.91441,20.403-57.15245,16.18773-15.86789-5.4646-9.58736-18.52274,3.48175-17.042,9.59126,1.09165,40.41212-15.396,56.11526-24.22125a566.6362,566.6362,0,0,0,.52852-76.80427c-.0937-1.34419-.15531-2.07315-.15531-2.07315a672.6252,672.6252,0,0,0-86.16208-18.119c-10.29148,10.49447-25.57546,26.83669-32.12605,37.70814-10.30714,17.10217-15.02108,31.24576-23.32979,28.58393-16.30116-8.52206,17.11731-48.42121,35.80787-68.80529a458.57235,458.57235,0,0,0-66.20982-2.89954c-66.31814,52.34329-31.56391,97.99095-57.54407,92.52908-22.515-4.73707,17.36979-66.31293,34.2887-90.86383-21.026,2.33334-41.05314,6.99729-58.40114,14.98921-15.54272,7.93477-29.41777,15.72548-41.75488,23.35894-18.66646,44.31191,25.80746,69.13367,2.21831,74.56658-18.42288,4.24337-20.83534-39.13194-20.82233-62.417-160.94129,111.66811,3.57822,186.4953,3.57822,186.4953.10268.68436.22027,1.35076.32971,2.02646,14.72386,90.76539,90.28161,105.63034,173.348,75.09086-12.83057-10.33215-36.22408-29.38054-39.9779-33.67776C1751.4442,2244.98117,1759.27885,2234.82018,1772.39609,2249.244Z"/><path class="cls-19" d="M1904.00924,2015.20416s-188.02682,144.76246-281.02788,192.30058"/><path class="cls-19" d="M1856.29308,2120.37832s-43.7203,5.75133-88.58167-5.05086"/><path class="cls-19" d="M1752.96063,2050.349s-26.4442,63.633-13.87278,84.86127"/><path class="cls-19" d="M1799.13974,2212.54772s-76.71889-26.79214-101.75759-49.4132"/><path class="cls-19" d="M1624.37546,2122.14031s-6.03934,48.852,23.72878,71.55961"/><path class="cls-20" d="M1194.639,2140.15453q20.56647,2.51867,40.0697,6.14639c17.5239,16.88325,39.18725,45.28488,39.07143,80.71-2.35577,30.70795,19.82327,25.42775,21.011,12.90765.8872-9.001-3.29646-55.36852-5.736-80.65455,139.21442,41.434,211.41339,133.53931,111.83592,263.34411,0,0,103.70707,251.69212-229.97507,238.0539,29.26666-29.28246,80.85533-86.1629,53.38583-98.467-35.17195-15.755-12.90821,58.06371-91.00489,95.93579q-36.62178-3.31709-79.52021-10.59981c-30.88692-6.55848-60.81258-19.86974-89.01069-37.07061,51.172-14.68415,176.45368-53.95578,155.34764-81.47738-24.35937-31.75142-39.937,58.95986-185.38584,61.302-27.72913-20.31381-53.31092-43.68394-75.92241-67.05441,48.06706-7.74582,138.34775-25.9389,129.46344-52.27113-6.64046-11.3059-30.07264,1.97394-63.94262,13.61909-21.52854,7.40386-60.42465,13.32685-85.97526,16.67434-49.863-55.62441-80.7808-105.3086-80.7808-105.3086s39.49661-45.87257,99.534-98.87737c29.95727,3.93495,87.70646,12.70825,97.86141,23.26645,13.84486,14.37909,37.79609,3.96507,25.592-18.10566-9.41136-17.023-54.16467-30.689-89.01558-34.36743a868.54339,868.54339,0,0,1,85.78927-61.87941c39.97279,14.28,128.35268,48.27026,136.75191,72.52533,9.79244,16.54156,36.70514,11.62815,18.23262-26.58327-14.07894-29.18283-88.16746-54.60988-122.41446-65.01479C1070.18929,2153.993,1134.50875,2132.8126,1194.639,2140.15453Z"/><path class="cls-21" d="M821.61939,2395.41289s407.80385-2.05855,579.28141,27.19749"/><path class="cls-22" d="M1011.07983,2308.79037s59.76392,34.63339,100.1046,91.18529"/><path class="cls-22" d="M1047.28488,2495.85036s111.71387-54.73141,123.27351-93.47748"/><path class="cls-22" d="M1195.54449,2247.56657s58.53765,107.17721,60.21039,159.615"/><path class="cls-22" d="M1291.99094,2528.67117s68.62527-55.67643,61.37786-112.75223"/><path class="Graphic-Style-85" d="M1501.57321,2519.72842s-126.58742-142.564,108.5064-286.11894c-32.58788,55.93653-151.93081,118.90641-67.53715,261.33707,34.94927,81.04868-16.48336,115.51406-16.48336,115.51406S1449.52438,2616.91654,1501.57321,2519.72842Z"/><path class="Graphic-Style-81" d="M1311.36387,2691.86793q-2.11821-14.96749-2.94809-29.54335c12.21328-17.29776,34.47437-41.00366,68.19637-51.84784,29.72664-7.844,19.83619-21.51919,7.6663-18.47791-8.75652,2.16349-51.94336,19.34863-75.46015,28.8294,8.85723-108.83462,80.622-187.05437,225.94859-158.37429,0,0,216.64927-149.17227,276.91367,85.27312-34.27715-11.164-99.705-29.21977-105.3796-6.47167-7.26664,29.12694,58.06368-8.99857,111.22863,33.20926a547.07753,547.07753,0,0,1,7.37064,58.1374c.54065,23.33434-5.553,48.08778-15.72557,72.84865-25.199-30.78035-90.05144-105.11412-111.59777-82.06413-24.8557,26.59913,64.84843,9.37485,98.9997,109.01191-13.23658,25.39722-29.85165,50.25527-47.119,73.06393-17.91772-30.77756-55.038-87.46076-78.13549-73.2105-9.29678,8.06832,8.478,20.14134,26.98881,39.9205,11.76772,12.57149,25.93868,37.58322,34.73074,54.1808a889.26768,889.26768,0,0,1-82.44027,88.2127,1044.68136,1044.68136,0,0,1-115.89866-38.18719c-2.83213-21.88386-7.1618-64.43608.65239-74.69881,10.63879-13.987-4.524-27.30191-22.8392-12.07518-14.12678,11.74323-17.30336,46.83707-13.15321,72.01844-26.12485-11.57531-52.85074-24.96527-77.68926-40.11252,4.80993-31.98465,17.74389-103.44816,38.972-116.72318,13.58518-11.8577,3.00467-28.91223-29.28789-4.38293-24.66882,18.71358-32.59411,77.67543-34.97473,104.51435C1351.84157,2773.47045,1317.57766,2735.62165,1311.36387,2691.86793Z"/><path class="cls-21" d="M1636.03819,2870.536s-91.46362-280.74873-101.2713-408.0895"/><path class="cls-22" d="M1512.0592,2766.52073s19.8264-51.91689,64.76488-97.19084"/><path class="cls-22" d="M1682.04546,2683.85538s-76.58-60.20466-115.97264-56.23259"/><path class="cls-22" d="M1413.33611,2658.1203s89.09968-73.44122,138.61166-90.76571"/><path class="cls-22" d="M1659.5563,2504.88787s-68.02176-30.18223-120.72194-7.581"/><path class="Graphic-Style-98" d="M1247.80878,1809.9q14.73652,10.45358,28.14472,21.469c5.82,22.01425,9.57262,55.926-6.70986,87.38658-15.85663,26.37062,3.69052,30.532,10.33109,19.871,4.79977-7.65109,22.76269-50.56083,32.43649-74.0243,88.60495,92.44832,102.2776,203.19978-33.98155,278.87952,0,0-34.935,265.27-286.47394,119.87956,35.994-14.35554,101.84715-44.34192,86.25091-66.25539-19.969-28.05878-36.513,46.48636-114.155,48.98048-17.84964-11.71707-36.69718-25.38482-56.585-41.18491-20.86256-18.16819-37.89581-41.95836-51.81654-68.518,46.24311,7.37628,160.97584,22.4814,157.25147-10.4251-4.30413-37.96773-57.80261,36.48907-171.23405-19.51488-12.1355-29.141-21.21511-60.14263-28-89.95838,40.673,12.30719,118.73194,32.18128,123.90532,5.21351.03816-12.70734-24.13374-10.25433-55.62172-13.42367-20.01538-2.01279-52.77046-12.27864-74.03875-19.5054-13.09346-69.38541-14.26691-125.92164-14.26691-125.92164s51.48016-25.02518,122.08842-48.1905c21.34363,15.46357,61.94518,46.32944,64.96378,59.77535,4.12254,18.31779,27.38543,18.6209,28.04634-5.88249.51093-18.89871-27.81472-48.926-53.056-66.11577a765.89825,765.89825,0,0,1,94.55855-20.77392c24.35195,28.66423,77.08924,94.19066,72.49061,119.11729.00353,18.62269,23.03982,25.00071,26.23625-16.3615,2.4635-31.57762-43.14784-83.78055-64.84788-106.71162C1145.34442,1772.50711,1204.71359,1779.35628,1247.80878,1809.9Z"/><path class="cls-21" d="M842.96718,1887.95422s315.97385,161.03138,435.069,255.53346"/><path class="cls-21" d="M1028.923,1886.5765s30.33716,54.67025,35.6506,121.07771"/><path class="cls-21" d="M971.38569,2067.40525s111.3182-4.06319,137.95918-33.90715"/><path class="cls-21" d="M1199.40969,1905.79309s-3.77031,118.70044-26.44767,166.00622"/><path class="cls-21" d="M1145.4212,2194.32266s78.46376-22.11173,98.95471-75.76887"/><path class="Graphic-Style-98" d="M1661.33338,1789.51627c26.83955-6.8,44.83574-27.06131,54.78094-42.26859q-.40114-13.98283-1.83348-28.46946c-4.17556-42.35757-30.62447-82.02827-65.3048-116.676-2.33332,25.3328-9.59019,80.70368-29.40585,95.9538-25.93974,19.99432-34.01642,2.62866-23.078-7.24949,17.00412-10.42718,28.43012-77.18875,32.77093-107.17193a599.17639,599.17639,0,0,0-60.7386-46.38293c2.85767,24.43777-.24408,57.55581-11.60877,67.26775-14.73446,12.59309-26.49621-1.68869-17.85138-13.90532,6.35005-8.96261,3.643-49.9772,1.77276-71.13352a852.64216,852.64216,0,0,0-88.49607-47.44477c-1.60342-.727-2.47871-1.11041-2.47871-1.11041a678.58792,678.58792,0,0,0-66.65306,75.4373c6.67062,16.74273,17.452,42.0698,26.54292,55.287,14.3,20.79462,28.14752,34.16661,20.66293,40.88246-18.49836,11.16051-46.8882-46.76242-60.53424-77.97849-14.03318,19.93007-27.58521,41.88217-38.47635,64.70214,25.32021,98.55471,96.52078,91.545,76.42484,114.2923-17.41987,19.71107-67.43492-57.94464-86.83717-89.92723-8.45739,22.5349-13.691,45.49062-13.65655,67.78932.92608,20.45133,2.57038,39.14037,4.84881,56.18929,41.3165,45.80766,93.60122,16.31859,87.36678,43.32017-4.86867,21.08814-56.2851-2.98462-83.193-17.22086,43.69419,229.79156,217.46429,110.324,217.46429,110.324.84551.31494,1.67817.60393,2.51725.90679,112.72494,40.65954,169.991-26.11892,178.75847-128.17017-18.74944,6.57045-53.17752,18.42177-60.136,19.56566C1645.291,1807.94769,1637.70243,1793.87526,1661.33338,1789.51627Z"/><path class="cls-19" d="M1460.63349,1514.42156s67.57817,277.19978,73.18869,399.60846"/><path class="cls-19" d="M1556.8883,1626.57082s-16.54613,47.40732-52.83147,85.84891"/><path class="cls-19" d="M1421.12421,1687.53859s59.52324,65.4182,90.72975,65.76355"/><path class="cls-19" d="M1633.10467,1740.25114s-71.66845,60.65876-111.0989,71.97952"/><path class="cls-19" d="M1435.8908,1860.48744s53.26308,35.90351,95.30256,19.88738"/><path class="cls-23" d="M1533.8226,1914.02278s19.00061,204.531-32.24939,451.60929"/><path class="cls-23" d="M1265.4817,2133.82107s219.27891,64.78868,236.09151,236.43087"/><path class="cls-23" d="M1383.52745,2422.61038c5.39306-1.93473,97.66709-10.30042,128.19757,11.29694"/><path class="cls-23" d="M1633.36143,2202.01083s-126.62632,39.86-99.53925,298.962"/><path class="cls-24" d="M3785.687,2417.64828s185.53665,2.664,116.43845,28.568-58.41968,32.31133-19.977,52.60142-73.68176,38.23984-73.68176,38.23984"/><path class="Graphic-Style-90" d="M3671.78162,2600.26809s12.3405-56.59865,65.436-79.02453,132.11653,4.49446,136.38793,22.00336-73.68175,94.28267-120.66722,99.1457S3673.91732,2628.03346,3671.78162,2600.26809Z"/><path class="Graphic-Style-91" d="M3802.28927,2555.62269c-7.47474-7.47474-22.42423-14.94948-32.39056-7.47474-42.35689,24.91582-69.76428,69.76428-119.59591,79.73061-31.65818,5.93591-63.317,5.57184-94.97513,1.433,7.28192,13.95006,20.89924,24.64224,45.5766,24.64224,71.077,0,127.59623-39.822,138.301-56.52152,10.70419-16.69956,64.22574-18.84061,58.65922,12.84585-5.56591,31.6863,12.41777,26.97611,12.41777,26.97611a171.36379,171.36379,0,0,0,18.64549-9.23089C3829.30736,2601.88682,3820.45847,2577.42571,3802.28927,2555.62269Z"/><path class="cls-25" d="M3868.94151,2577.30709c-4.28119-34.68369-18.4113-76.6467-40.24792-88.20783-21.83723-11.56128-133.591-26.97627-153.71465-18.84061-20.12426,8.13566-124.59915,95.05907-124.59915,95.05907s-8.74365,37.765,4.94788,63.99383c31.65817,4.13885,63.31695,4.50292,94.97513-1.433,49.83163-9.96633,77.239-54.81479,119.59591-79.73061,9.96633-7.47474,24.91582,0,32.39056,7.47474,18.1692,21.803,27.01809,46.26413,26.63851,72.40065C3847.11219,2617.672,3871.67033,2599.40908,3868.94151,2577.30709Z"/><path class="Graphic-Style-91" d="M2887.87883,2398.65305c-35.82135-53.73248-83.72347-95.36945-145.49352-99.65292l5.95582,18.53068s18.62665,13.29386,33.70753,16.3504c15.08149,3.05654,66.752,37.40079,82.488,68.24658,15.73662,30.8458,48.32184,23.36755,51.64739,9.46951.72509-3.02689-1.84557-8.65545-6.25693-15.75412C2904.03639,2405.03058,2894.76839,2408.98725,2887.87883,2398.65305Z"/><path class="Graphic-Style-91" d="M2920.26939,2363.77091c-14.94949-22.42423-27.4074-54.81479-59.798-57.30637v4.37425c7.0094-4.70289,23.97235,17.31729,45.52854,45.36492,24.61289,32.026,53.53859,42.89675,62.18613,35.64555q-1.64057-6.95283-3.41619-13.38526C2948.85506,2382.41626,2930.42429,2373.926,2920.26939,2363.77091Z"/><path class="cls-25" d="M2887.37333,2259.52155c-32.59555-27.19176-165.6409-24.77469-165.6409-24.77469l20.65288,64.25327c61.77005,4.28347,109.67217,45.92044,145.49352,99.65292,6.88956,10.3342,16.15756,6.37753,22.04831-2.80987-15.84186-25.49552-55.46568-69.98966-51.8232-81.33362a6.68029,6.68029,0,0,1,2.36749-3.67077v-4.37425c32.39056,2.49158,44.84847,34.88214,59.798,57.30637,10.1549,10.155,28.58567,18.64535,44.50052,14.69309C2946.53136,2312.19438,2917.98524,2285.058,2887.37333,2259.52155Z"/><path class="cls-26" d="M2688.5523,2326.39719c26.0801,7.67061,51.2149,2.11428,75.98777-5.03168-1.96541-32.3054-8.7467-85.2404-31.97388-98.38873-14.7591-8.35449-79.98975,11.42822-149.46083,36.51481C2612.82428,2289.13524,2648.93031,2313.88484,2688.5523,2326.39719Z"/><path class="Graphic-Style-88" d="M2688.5523,2326.39719c-39.622-12.51235-75.728-37.262-105.44694-66.9056-90.75781,32.77333-188.75556,74.60146-190.93813,74.60146,0,0,62.94164,113.0432,178.54835,120.75061,19.26839-55.87931,194.61223-107.86735,194.61223-107.86735s.12713-10.57326-.78774-25.6108C2739.7672,2328.51147,2714.6324,2334.0678,2688.5523,2326.39719Z"/><path class="cls-25" d="M2220.04057,1483.05791s-138.72865-19.03838-196.53244,166.6818c-50.57145,162.48562,28.84869,269.59734,106.04383,331.50471l-93.44814-37.20038c7.52691,47.83156-9.46885,136.81173-27.37029,227.31219,0,0,86.066,111.35357,238.28236,36.2055-24.40856-69.15991-1.101-129.46662,14.84976-159.12809,116.57909-1.53332,139.71059-23.21975,151.26016-257.07625C2422.73783,1596.74314,2220.04057,1483.05791,2220.04057,1483.05791Z"/><path class="Graphic-Style-91" d="M2224.42739,2040.58071s17.41154,8.391,37.43826,7.85293l-13.32249,29.95851S2224.13136,2050.05365,2224.42739,2040.58071Z"/><path class="Graphic-Style-91" d="M2034.64381,2020.70071c2.40267,2.40278-7.62056,84.21312,78.87542,96.227s90.48319,41.76413,90.48319,41.76413l-13.59788,54.46286-188.56714-32.8379Z"/><path class="Graphic-Style-90" d="M2002.31082,1503.635s7.35078-10.67433-28.93918-21.34866-80.17138-58.11582-42.81287-100.81315,90.71845-64.12653,139.1925-45.50009,9.64852,56.17442,41.6701,68.03479,64.04315,40.32526,29.64961,61.67393-26.09166,37.95318-26.09166,37.95318S2018.9146,1510.75126,2002.31082,1503.635Z"/><path class="Graphic-Style-85" d="M2242.5592,1755.825c-4.98317,79.73062-29.899,159.46123-99.66327,209.29286a156.87322,156.87322,0,0,1-88.46209,26.1616,249.277,249.277,0,0,0,41.234,13.5203c30.93247,7.05593,194.31416,2.78448,179.2783-175.69513,5.97651-11.86482,9.212-28.06557,8.44741-50.311-1.20017-35.07558,6.597-64.35653,18.48795-86.51615C2270.8906,1698.18041,2246.08975,1716.98833,2242.5592,1755.825Z"/><path class="Graphic-Style-90" d="M2349.81339,1542.76467c-41.52352-46.24421-161.44244-75.11821-244.39946-63.63631l-82.93451,11.46s-103.57643,45.52185-123.5985,148.30354c34.43869-26.96425,54.46077-35.24073,54.46077-35.24073s-93.70379,109.72692-47.78168,230.51814c34.76657,91.44792,99.53613,136.20727,148.87383,157.11015a156.87322,156.87322,0,0,0,88.46209-26.1616c69.76429-49.83163,94.6801-129.56224,99.66327-209.29286,3.53055-38.83667,28.3314-57.64459,59.32227-63.54749,23.493-43.78091,63.02314-59.66535,81.11935-36.82413C2398.43755,1619.86044,2391.3144,1589.03107,2349.81339,1542.76467Z"/><path class="cls-12" d="M1985.7158,3313.28936c143.5024-45.44445,287.0048-14.35088,435.29061-45.44445,64.645-14.3662,123.8952-36.82449,169.65644-78.50472-14.13419-4.71983-24.82272-11.19294-31.10328-19.98589-34.09934-47.74151-672.53612,37.75836-692.22157,78.43261,0,0-24.31237,27.86205-22.39364,68.73718C1893.02783,3326.974,1942.58509,3328.974,1985.7158,3313.28936Z"/><path class="Graphic-Style-85" d="M1969.05852,3318.40583c-38.98551,9.92273-82.11156,7.24654-124.11416-1.88174,1.214,25.86075,12.92316,56.9279,47.948,89.45124,97.42351,62.55006,233.12016,110.26311,378.34394,138.02429-69.10258-61.21094-154.55237-85.01287-235.29466-113.51142C1991.24487,3412.99734,1970.23394,3367.08282,1969.05852,3318.40583Z"/><path class="Graphic-Style-90" d="M3001.53306,3216.63349c-32.5508-12.06929-66.89188-19.9983-100.97778-19.9983-116.84036,0-247.28531,13.61147-309.89243-7.295-45.76124,41.68023-105.01145,64.13852-169.65644,78.50472-148.28581,31.09357-291.78821,0-435.29061,45.44445q-8.1815,2.97525-16.65728,5.11647c1.17542,48.677,22.18635,94.59151,66.88312,112.08237,80.74229,28.49855,166.19208,52.30048,235.29466,113.51142,279.23875,53.37944,593.7073,32.97823,739.09107-97.64945,31.68194-19.21027,57.8097-35.05268,79.38352-48.13407l101.8665-61.76641S3105.75156,3255.27622,3001.53306,3216.63349Z"/><path class="cls-26" d="M2016.65864,2135.62513s-30.65814-14.75666-67.59632-12.308c-51.505,123.28858-42.53451,262.20307-37.88348,392.44022,0,52.32321,22.42424,102.15484,52.32322,147.00331,109.62959,164.44439,308.95612,174.41071,488.35,214.276,59.24563,12.9263,111.02259,40.77684,154.76152,78.47478-16.84494-217.17607-80.6686-509.2953-80.6686-509.2953S2167.71625,2099.82872,2016.65864,2135.62513Z"/><path class="Graphic-Style-89" d="M1963.50206,2662.7607c-29.899-44.84847-52.32322-94.6801-52.32322-147.00331-4.651-130.23715-13.62157-269.15164,37.88348-392.44022-70.94255,4.70243-165.05146,72.88059-109.63081,431.0313,84.277,544.6285-210.82636,781.70209,116.12437,730.44294s550.94064-19.22217,630.577-108.92579c25.8313-29.09634,28.568-116.09168,20.48072-220.35412-43.73893-37.69794-95.51589-65.54848-154.76152-78.47478C2272.45818,2837.17141,2073.13165,2827.20509,1963.50206,2662.7607Z"/><path class="Graphic-Style-88" d="M3371.24566,2712.59233c-107.138,19.93266-209.29286,14.94949-316.43087,2.49159-59.798-7.47475-114.61275-14.94949-174.41071-29.899-87.20535-19.93266-169.42754-57.30638-259.12448-47.34005a189.69581,189.69581,0,0,0-33.758,7.212c56.70416,19.56418,148.9237,53.22851,288.91093,109.09444,273.60376,109.18933,685.93618-67.65471,748.44957-92.91817,8.98089-19.68994,6.875-40.839-2.02623-59.52073-22.60125,10.19322-45.56079,20.0277-69.72475,28.65775C3490.84157,2655.286,3438.51836,2700.13443,3371.24566,2712.59233Z"/><path class="cls-26" d="M3552.52038,2547.76183c-231.64226,64.65718-641.47763-29.02957-816.77949-152.497-175.30187-123.46726-315.47158-232.86144-515.6771-250.46128-113.75262-9.99963-157.49156-9.99963-157.49156-9.99963l449.05527,485.75074s21.76971,5.82839,75.89409,24.50218a189.69581,189.69581,0,0,1,33.758-7.212c89.69694-9.96633,171.91913,27.40739,259.12448,47.34005,59.798,14.94949,114.61276,22.42423,174.41071,29.899,107.138,12.4579,209.29286,17.44107,316.43087-2.49159,67.2727-12.4579,119.59591-57.30637,181.88545-82.22219,24.164-8.63005,47.1235-18.46453,69.72475-28.65775C3609.68929,2574.07947,3581.64378,2551.84943,3552.52038,2547.76183Z"/><path class="Graphic-Style-88" d="M1974.18352,2153.9812s-13.63984-47.44441,10.22987-48.58111,223.92057,46.30771,270.52333,24.29055c47.73942-7.24,28.41632,35.47985,15.91314,33.44388s-169.36125.77989-200.05087-9.15332-52.286,0-52.286,0"/><polygon class="cls-11" points="4142.178 2605.273 3993.484 2650.769 3999.168 2674.64 4178.145 2708.039 4172.461 2684.169 4142.178 2605.273"/><polygon class="Graphic-Style-82" points="4307.649 2609.929 4304.89 2632.785 4178.145 2708.039 4170.196 2681.479 4307.649 2609.929"/><polygon class="Graphic-Style-86" points="4136.495 2581.402 3993.484 2650.769 4172.461 2684.169 4307.649 2609.929 4136.495 2581.402"/><path class="cls-27" d="M4336.76344,2528.77468c27.417,1.24627,53.52962-7.26011,77.334-20.75829-6.93864-25.94163-16.78808-64.30567-16.78808-64.30567H4178.94058l-17.47067,59.80963C4207.80164,2541.39257,4280.69439,2528.77468,4336.76344,2528.77468Z"/><path class="Graphic-Style-82" d="M4336.76344,2528.77468c-56.06905,0-128.9618,12.61789-175.29353-25.25433l-2.76074,9.45061s12.8455,28.90322,119.78211,30.18774,142.261-11.88243,142.261-11.88243c-.32582,0-3.11225-10.01586-6.65485-23.25988C4390.29306,2521.51457,4364.18048,2530.021,4336.76344,2528.77468Z"/><ellipse class="Graphic-Style-84" cx="4288.125" cy="2443.71066" rx="109.18458" ry="17.98414"/><path class="Graphic-Style-82" d="M4277.849,2443.71072l242.775-537.4012,26.975-12.828-240.20631,550.22918C4298.07572,2455.11052,4288.14219,2453.28031,4277.849,2443.71072Z"/><path class="Graphic-Style-82" d="M4318.5296,2443.71072l237.43885-519.25879,26.975-12.828L4349.564,2446.21625C4337.76193,2454.28118,4327.47748,2453.07564,4318.5296,2443.71072Z"/><polygon class="Graphic-Style-90" points="4089.88 1737.191 4530.472 1906.31 4523.193 1920.458 4082.601 1752.606 4089.88 1737.191"/><polygon class="Graphic-Style-90" points="4107.007 1688.676 4547.599 1857.795 4540.32 1871.943 4099.728 1704.091 4107.007 1688.676"/><polygon class="Graphic-Style-90" points="3846.263 1314.822 4118.58 1700.279 4104.666 1707.996 3831.646 1323.592 3846.263 1314.822"/><polygon class="Graphic-Style-90" points="3817.279 1355.611 4089.595 1741.068 4075.681 1748.785 3802.661 1364.382 3817.279 1355.611"/><circle class="Graphic-Style-84" cx="4522.84295" cy="1913.15515" r="20.67435"/><circle class="Graphic-Style-84" cx="4547.59894" cy="1871.94326" r="54.52553"/><circle class="Graphic-Style-85" cx="4547.59894" cy="1871.94326" r="27.11809"/><circle class="Graphic-Style-84" cx="4104.76944" cy="1693.41496" r="18.96707"/><circle class="Graphic-Style-84" cx="4085.80279" cy="1743.50219" r="22.59147"/><polygon class="cls-11" points="3822.381 1248.894 3848.524 1295.499 3780.325 1379.772 3742.815 1321.084 3731.364 1327.327 3779.188 1396.666 3864.027 1298.492 3837.726 1244.916 3822.381 1248.894"/><circle class="Graphic-Style-90" cx="3841.43629" cy="1320.79068" r="22.59147"/><polygon class="Graphic-Style-89" points="4352.88 2447.847 4366.838 2437.651 4383.615 2441.143 4372.727 2449.77 4352.88 2447.847"/><circle class="Graphic-Style-90" cx="3809.05493" cy="1355.61145" r="22.59147"/><path class="cls-28" d="M1992.1846,1495.126s118.56707,7.35531,142.17551-24.95539c7.59067,8.9369,1.98445,13.8154,1.98445,13.8154s-51.25688,41.29137-148.56485,22.81175C1978.96993,1502.73482,1992.1846,1495.126,1992.1846,1495.126Z"/><path class="Graphic-Style-85" d="M2382.12142,1588.33448s37.07032,18.78747,36.00247,72.18243-2.13571,46.98756-40.57836,29.90117-66.2068,38.44437-67.27465,96.11092C2281.43889,1704.30077,2323.69408,1578.0902,2382.12142,1588.33448Z"/><path class="Graphic-Style-88" d="M2036.10382,3241.846c-208.25919,9.99454-169.9702-344.8092-166.27722-385.10014s-2.92552-97.81765-14.72359-119.48448c6.692,414.48052-187.23749,592.634,100.45281,547.53,92.06136-14.43335,175.95782-22.26219,250.76834-28.06466C2176.63287,3245.02013,2125.0718,3237.5764,2036.10382,3241.846Z"/><path class="Graphic-Style-88" d="M2372.20627,2591.00936s243.63364,53.19064,317.23366,90.76006C2634.89775,2637.64456,2447.4898,2578.013,2372.20627,2591.00936Z"/><path class="Graphic-Style-84" d="M4210.03088,2336.234H4070.18417l25.77413,157.73776C4164.78824,2476.32321,4212.652,2407.46894,4210.03088,2336.234Z"/><path class="cls-29" d="M4210.03088,2336.234c2.62115,71.235-45.24264,140.08926-114.07258,157.73776l8.05141,49.2752s44.95857,25.49643,122.0297,4.943c24.83431-158.43168,31.68494-211.956,31.68494-211.956Z"/><ellipse class="cls-30" cx="4163.9543" cy="2336.234" rx="93.77029" ry="10.70485"/><ellipse class="cls-31" cx="4163.9543" cy="2336.234" rx="68.66322" ry="7.83862"/><polygon class="Graphic-Style-83" points="4106.686 2332.808 4058.837 2168.596 4070.184 2165.171 4119.852 2332.808 4106.686 2332.808"/><polygon class="Graphic-Style-82" points="4138.478 2332.808 4163.954 2165.171 4178.94 2135.625 4182.794 2168.596 4158.709 2336.234 4138.478 2332.808"/><polygon class="Graphic-Style-81" points="4178.94 2332.808 4273.353 2079.104 4294.548 2061.762 4294.548 2090.023 4201.148 2332.808 4178.94 2332.808"/><polygon class="Graphic-Style-80" points="4217.476 2336.234 4257.725 2253.807 4275.28 2235.93 4277.849 2258.945 4243.167 2332.808 4217.476 2336.234"/><path class="cls-11" d="M3796.80588,1172.73521l-132.98788,106.85s24.47587,26.498,40.81025,45.48678c42.29981-48.90662,103.72451-75.02766,151.175-121.19882a91.53021,91.53021,0,0,0-8.98466-11.24578C3818.40248,1161.93643,3796.80588,1172.73521,3796.80588,1172.73521Z"/><path class="cls-32" d="M3704.62825,1325.072c8.173,9.50185,14.317,17.13218,14.317,18.60429,0,4.4137,140.94486-103.87569,140.94486-103.87569s11.59767-12.47877-4.08681-35.92742C3808.35276,1250.04432,3746.92806,1276.16536,3704.62825,1325.072Z"/><path class="Graphic-Style-84" d="M3660.12358,1272.6501s-140.66077-18.92491-173.90786,8.356c169.64541,196.93384,219.0898,212.27933,219.0898,212.27933s36.65705-71.6123,23.01722-166.24284C3706.44218,1272.6501,3660.12358,1272.6501,3660.12358,1272.6501Z"/><path class="cls-27" d="M3486.21572,1281.00606c-48.5919,52.01341,119.59508,278.18137,219.0898,212.27933C3762.09993,1434.461,3534.80762,1228.99266,3486.21572,1281.00606Z"/><path class="Graphic-Style-90" d="M3501.67482,1296.20771c-41.74776,44.68734,102.75017,238.99965,188.2311,182.37989C3738.70086,1428.04859,3543.42257,1251.52037,3501.67482,1296.20771Z"/><path class="cls-33" d="M3602.96274,1372.12144c-20.7137-16.5709-46.5961-29.65931-73.34714-32.18435-14.09058,14.61432-40.8325,51.23984-12.99443,98.21826,21.64318,36.52423,52.54342,53.72442,86.473,53.04891C3640.42954,1461.70827,3639.14786,1401.52162,3602.96274,1372.12144Z"/><path class="cls-34" d="M3537.08061,1333.01955a78.01811,78.01811,0,0,0-7.465,6.91754c26.751,2.525,52.63344,15.61345,73.34714,32.18435,36.18512,29.40018,37.4668,89.58683.1314,119.08282,23.09153-.45957,47.5858-9.19623,71.52165-25.768C3674.61579,1404.05426,3586.79605,1317.08492,3537.08061,1333.01955Z"/><polygon class="cls-35" points="2484.818 1247.982 3232.888 1273.356 3248.371 833.429 3228.764 822.346 2484.818 843.659 2465.211 1236.9 2484.818 1247.982"/><polygon class="Graphic-Style-84" points="2465.211 1236.9 3218.108 1256.709 3228.764 822.346 2465.211 832.577 2465.211 1236.9"/><path class="cls-36" d="M2646.26942,891.69024s8.88089,119.0437,0,119.31981-95.72263,0-95.72263,0,6.91378-111.62305,8.69-112.21511S2646.26942,891.69024,2646.26942,891.69024Z"/><path class="Graphic-Style-78" d="M2550.18225,884.58081s-4.26244,86.10527-52.85435,98.89318c60.52676,11.93539,132.98837-6.82022,150.89065-68.20219l1.705-28.13341Z"/><path class="Graphic-Style-80" d="M2567.51621,942.55268s8.68564,33.28558-16.96942,43.35531c33.846-7.43327,57.03762-16.36785,70.19038-27.91392C2599.62664,962.72916,2585.13432,969.83355,2567.51621,942.55268Z"/><path class="cls-37" d="M2742.73818,886.71213l112.52861-2.13132.00021,114.80694c-44.19227,9.80579-98.363,33.469-111.39245,0Z"/><path class="Graphic-Style-79" d="M2734.45839,886.71213l112.52862-2.13132.00021,114.80694c-44.19227,9.80579-98.363,33.469-111.39245,0Z"/><path class="Graphic-Style-78" d="M3089.79641,884.58081l-112.52862,2.13132s-13.0598,93.35175-24.42633,109.2656c25.00636,27.28088,142.08158,9.09362,142.08158,9.09362C3099.46965,981.20059,3089.79641,884.58081,3089.79641,884.58081Z"/><path class="cls-37" d="M2649.92352,1189.78563V1069.86344h-99.37673l-34.17995,129.58417S2643.10361,1208.54123,2649.92352,1189.78563Z"/><path class="Graphic-Style-79" d="M2542.50985,1069.86344h107.41367s-20.45974,117.64878-48.87606,120.49054c-72.74577,5.68352-100.02543,2.27341-100.02543,2.27341S2543.07817,1096.576,2542.50985,1069.86344Z"/><path class="cls-37" d="M2770.15777,1076.85669s-6.66067,118.55981,6.66066,122.55621,105.68253,2.2387,105.68253,2.2387,13.32133-122.57469-9.32493-122.57469S2770.15777,1076.85669,2770.15777,1076.85669Z"/><path class="Graphic-Style-78" d="M2766.43042,1069.86344c-.89359-5.00433,96.61548,9.09362,110.25531,0,6.81992,60.24527-34.09958,123.77853-34.09958,123.77853h-99.848S2772.11369,1101.69113,2766.43042,1069.86344Z"/><path class="cls-38" d="M3007.12938,1081.23047h80.57227s-1.21545,63.627,18.10765,88.63445-21.41622,44.262-21.41622,44.262H2979.64085S3030.41906,1125.5619,3007.12938,1081.23047Z"/><path class="Graphic-Style-78" d="M2993.761,1081.23047s-18.18645,119.11133-42.05615,128.32621c39.78284,14.8984,102.29874,18.06426,120.48518-15.91471s13.63983-112.4115,13.63983-112.4115Z"/><path class="cls-39" d="M4518.27879,1130.931s87.95725-288.21775-42.26869-436.27678,39.6591-185.33748,121.16585-28.4616,96.81252,373.96443,16.73871,471.58926S4510.3981,1161.13224,4518.27879,1130.931Z"/><ellipse class="cls-40" cx="4146.89508" cy="464.80618" rx="104.00372" ry="81.84263"/><ellipse class="cls-41" cx="3533.95198" cy="3482.72784" rx="170.67627" ry="134.30862"/><ellipse class="cls-42" cx="1255.75488" cy="3239.98375" rx="231.23998" ry="213.02073"/><ellipse class="Graphic-Style-77" cx="1255.75488" cy="1289.02868" rx="123.37486" ry="97.08618"/><ellipse class="cls-43" cx="5156.74683" cy="2299.02689" rx="85.68303" ry="67.42571"/><polygon class="cls-44" points="4145.363 2597.708 4262.59 2617.246 4250.601 2624.117 4134.186 2604.819 4145.363 2597.708"/></svg>