<?xml version="1.0" encoding="utf-8"?>
<!-- Generator: Adobe Illustrator 22.0.0, SVG Export Plug-In . SVG Version: 6.00 Build 0)  -->
<svg version="1.1" id="Layer_1" xmlns="http://www.w3.org/2000/svg" xmlns:xlink="http://www.w3.org/1999/xlink" x="0px" y="0px"
	 viewBox="0 0 4000 4000" style="enable-background:new 0 0 4000 4000;" xml:space="preserve">
<style type="text/css">
	.st0{fill:#DB6767;}
	.st1{fill:url(#SVGID_1_);}
	.st2{fill:url(#SVGID_2_);}
	.st3{fill:url(#SVGID_3_);}
	.st4{fill:#FFFFFF;}
	.st5{fill:#FFDE70;}
	.st6{fill:#102140;}
	.st7{fill:#FFF7DB;}
	.st8{fill:#FFE796;}
	.st9{fill:none;stroke:#D18B0D;stroke-width:2;stroke-linecap:round;stroke-linejoin:round;stroke-miterlimit:10;}
	.st10{fill:#DBD2DB;}
	.st11{fill:url(#SVGID_4_);}
	.st12{fill:#203560;}
	.st13{fill:#1B2D52;}
	.st14{fill:none;stroke:#1A1A1A;stroke-width:2;stroke-linecap:round;stroke-linejoin:round;stroke-miterlimit:10;}
	.st15{fill:#C7BFC7;}
	.st16{fill:#1A1A1A;stroke:#1A1A1A;stroke-width:2;stroke-linecap:round;stroke-linejoin:round;stroke-miterlimit:10;}
	.st17{fill:#E8465A;}
	.st18{fill:#FC9590;}
	.st19{fill:#D9D9D9;}
	.st20{fill:url(#SVGID_5_);}
	.st21{fill:url(#SVGID_6_);}
</style>
<path class="st0" d="M1950.1,1954.7c0,0,32.7,82.2,99.8,90.6c-1.5-37.4-1.5-37.4-1.5-37.4S1969,1985.5,1950.1,1954.7z"/>
<g>
	<linearGradient id="SVGID_1_" gradientUnits="userSpaceOnUse" x1="3647.6802" y1="788.4872" x2="3823.3059" y2="788.4872">
		<stop  offset="0" style="stop-color:#4085F0"/>
		<stop  offset="1" style="stop-color:#275DC9"/>
	</linearGradient>
	<path class="st1" d="M3823.3,788.5c0,48.5-39.3,87.8-87.8,87.8c-48.5,0-87.8-39.3-87.8-87.8c0-48.5,39.3-87.8,87.8-87.8
		C3784,700.7,3823.3,740,3823.3,788.5z"/>
	<linearGradient id="SVGID_2_" gradientUnits="userSpaceOnUse" x1="208.8846" y1="2050.781" x2="3623.8469" y2="2050.781">
		<stop  offset="0" style="stop-color:#68B2FC"/>
		<stop  offset="1" style="stop-color:#EBF0F7"/>
	</linearGradient>
	<path class="st2" d="M319.1,2434.1c6.5,118.2,44.6,552.7,394.7,912.8c328.1,337.4,723.4,396.7,830.6,411.2
		c342.1,46.2,642-78.9,1241.8-328.9c454-189.3,682.9-287.6,781.3-468.7c125-230.4,7.8-362.4-24.7-962.2
		c-40.7-750.6,123.4-904.2-32.9-1159.5c-190.3-310.9-607.5-367.4-1052.6-427.6c-698.5-94.5-1431.1-193.7-1899.7,304.3
		C-34.9,1345.1,303.7,2388.9,319.1,2434.1z"/>
	<linearGradient id="SVGID_3_" gradientUnits="userSpaceOnUse" x1="469.6632" y1="1239.6316" x2="3667.3096" y2="1239.6316">
		<stop  offset="0" style="stop-color:#68B2FC"/>
		<stop  offset="1" style="stop-color:#EBF0F7"/>
	</linearGradient>
	<path class="st3" d="M3568.9,1766.3c69.9-127.8,111.6-291,78.7-432.9c-32.9-141.9-119.5-270.6-238.4-354.7
		c-93.3-65.8-213.6-114.7-251.7-222.4c-29.9-84.5-0.7-189.3-57-259c-39.4-48.8-107.1-61.9-169.1-71.3c-0.6-0.1-1.3-0.2-1.9-0.3
		c-158.3-24.1-301.7-49-454-98.5c-49.4-16.1-99.6-30.3-150.3-42.4c-320.7-77.1-662.5-73.6-971.1,40C996.7,456.3,690.9,745,579,1109
		c-59.8,194.6-60.6,414.5-64.4,618c-76.4,84.1-45,220.7,16.5,316.2c45.1,70.1,104.3,132.6,146.4,203.6h2989.8
		C3665.7,2063.7,3632.6,1993.6,3568.9,1766.3z"/>
	<path class="st4" d="M677.6,2246.9c15.3,25.8,28.4,52.8,37.7,81.6c49.6,153.8-19.4,318.8-94,462.2c-0.2,0.4-0.4,0.8-0.6,1.2h2725.9
		c-5-28.5-5.7-56.9-0.7-84.9c38.2-216,312.9-202.6,319-341.7c2-44.8,2.8-83.7,2.5-118.4H677.6z"/>
	<path class="st5" d="M2963,579.7c0,213.8-173.3,387.1-387.1,387.1c-213.8,0-387.1-173.3-387.1-387.1
		c0-118.1,52.9-223.9,136.4-294.9c50.7,12.1,100.9,26.3,150.3,42.4c152.3,49.5,295.6,74.4,454,98.5c0.6,0.1,1.3,0.2,1.9,0.3
		C2951.7,473.2,2963,525.1,2963,579.7z"/>
	<path class="st6" d="M620.7,2791.9c-74.4,143-158,294.8-139.1,454.8C495.1,3361,562,3465.1,651.8,3537
		c89.8,71.9,200.9,113.8,314.1,134.5c185.8,34.1,381.4,12.9,555.6-60.2c76.1-31.9,150.2-74,232.3-82.1
		c127.2-12.5,245.7,57.9,367.2,97.7c214.8,70.3,447.7,44.9,672.2,18.7c111.3-13,222.7-25.9,334-38.9c88-10.2,178-21.1,257.1-61
		c103.4-52.2,180-154.4,201-268.3c18.3-99.1-205.7-294.2-238.9-485.5H620.7z"/>
	<g>
		<g>
			<path class="st7" d="M3591.4,1844.7H3312v-403.6l-101.6-145.2h-261.3v565H2801v-231.1h-255.5v243.9H1250.4v-680.9h-235.2v692.8
				H855.5v-325.4H591.2v354.3H476.7c10,45.5,29.8,90.5,54.5,128.9c42.8,66.4,98.1,126,139.6,192.5h2996.4
				C3664.7,2083.1,3639.2,2009,3591.4,1844.7z"/>
		</g>
		<polygon class="st8" points="855.5,1560.2 887.9,1637.7 887.9,1885.6 855.5,1885.6 		"/>
		<path class="st8" d="M1250.4,1192.8c0,0,41.3,111.7,41.3,123.3s12.1,557.7,12.1,557.7h-53.4V1192.8z"/>
		<polygon class="st8" points="2801,1629.8 2852.2,1731.7 2852.2,1860.9 2801,1860.9 		"/>
		<path class="st8" d="M3312,1441.1c0,0,37.1,112.6,37.1,125.4c0,12.7,0,278.3,0,278.3H3312V1441.1z"/>
		<line class="st9" x1="629.4" y1="1648.9" x2="772.3" y2="1648.9"/>
		<line class="st9" x1="712.9" y1="1698.7" x2="830.1" y2="1698.7"/>
		<line class="st9" x1="606.5" y1="1763.4" x2="793.7" y2="1763.4"/>
		<line class="st9" x1="677.8" y1="1832.1" x2="778.8" y2="1832.1"/>
		<line class="st9" x1="1067.1" y1="1258.3" x2="1224.9" y2="1258.3"/>
		<line class="st9" x1="1046.9" y1="1308.2" x2="1222.1" y2="1308.2"/>
		<line class="st9" x1="1034.7" y1="1376.8" x2="1226.4" y2="1376.8"/>
		<line class="st9" x1="1045.5" y1="1436.1" x2="1231.4" y2="1436.1"/>
		<line class="st9" x1="1045.5" y1="1503.4" x2="1215.4" y2="1503.4"/>
		<line class="st9" x1="1049.5" y1="1566.7" x2="1223.3" y2="1566.7"/>
		<line class="st9" x1="1052.2" y1="1643.5" x2="1237.1" y2="1643.5"/>
		<line class="st9" x1="1072.4" y1="1709.5" x2="1223.3" y2="1709.5"/>
		<line class="st9" x1="1087.3" y1="1784.9" x2="1220.6" y2="1784.9"/>
		<line class="st9" x1="2584.9" y1="1696" x2="2782.8" y2="1694.7"/>
		<line class="st9" x1="2549.8" y1="1807.8" x2="2747.8" y2="1803.8"/>
		<line class="st9" x1="2654.9" y1="1764.7" x2="2801.7" y2="1766.1"/>
		<line class="st9" x1="2953.9" y1="1413.2" x2="3219.2" y2="1409.2"/>
		<line class="st9" x1="2971.4" y1="1506.1" x2="3265" y2="1506.1"/>
		<line class="st9" x1="2959.3" y1="1600.4" x2="3228.6" y2="1600.4"/>
		<line class="st9" x1="3054.9" y1="1681.2" x2="3300.5" y2="1681.2"/>
		<line class="st9" x1="2976.8" y1="1780.9" x2="3190.9" y2="1780.9"/>
		<line class="st9" x1="3129" y1="1850.9" x2="3300.1" y2="1850.9"/>
	</g>
	<path class="st6" d="M3666.5,2211.2H654.7c12.9,18.8,24.9,38,35.4,58h2977.3C3667.4,2248.5,3667.2,2229.3,3666.5,2211.2z"/>
	<polygon class="st10" points="767,751 790.1,720.4 790.1,2235.8 767,2235.8 	"/>
	<polygon class="st10" points="1429,299.6 1452.1,292.7 1452.1,2235.8 1429,2235.8 	"/>
	<polygon class="st10" points="2753.1,396.5 2776.2,400.9 2776.2,2235.8 2753.1,2235.8 	"/>
	<path class="st10" d="M3438.3,1000.7v1235h-23.1V983.1C3416.8,986,3430.4,994.3,3438.3,1000.7z"/>
	<linearGradient id="SVGID_4_" gradientUnits="userSpaceOnUse" x1="586.4861" y1="3580.8032" x2="3481.7856" y2="3580.8032">
		<stop  offset="0" style="stop-color:#4085F0"/>
		<stop  offset="1" style="stop-color:#275DC9"/>
	</linearGradient>
	<path class="st11" d="M586.5,3474.2h2895.3c-28.3,28.9-61.2,53.2-97.4,71.5c-79,39.9-169.1,50.8-257.1,61
		c-111.3,13-222.7,25.9-334,38.9c-224.5,26.2-457.4,51.5-672.2-18.7c-121.5-39.7-240-110.2-367.2-97.6
		c-82.1,8.1-156.3,50.2-232.3,82.1c-174.2,73-369.8,94.2-555.6,60.2c-113.2-20.8-224.3-62.6-314.1-134.5
		C628.3,3518.2,606.3,3497.1,586.5,3474.2z"/>
	<g>
		<path class="st6" d="M2111.8,2117.3l-17.9-49c0,0-177.9-95-176.5-100c1.4-5-108.1,82.6-108.1,82.6l3.1,83.4
			c26.3-2.6,52.2-8.1,77.1-17.4C1955.8,2091.7,2036.8,2125.6,2111.8,2117.3z"/>
		<path class="st6" d="M1872.5,2281.3c-17.3-23.7-34.5-44.2-56.8-58.8l1,28.2l8.6,231.5l150.6-11.8l5.9-0.5l17.5-1.4
			c-42-50.3-68.2-108.8-101.3-167.4C1892.3,2292.6,1881,2289.8,1872.5,2281.3z"/>
		<path class="st12" d="M2045.3,2122.6c-1.1-2.2-2.2-4.4-3.2-6.6c-53.3-5.6-106.5-16.6-152.6,0.9c-24.9,9.3-50.7,14.8-77.1,17.4
			l1.5,41.8l1.7,46.3c22.3,14.7,39.5,35.1,56.8,58.8c8.5,8.5,19.8,11.3,25.5,19.8c33.1,58.5,59.4,117.1,101.3,167.4l131.3-10.3
			l48-3.8c-24.8-85.2-49.2-171-79.4-255.4C2090.7,2170.7,2059.5,2150.9,2045.3,2122.6z"/>
		<path class="st13" d="M2111.8,2117.3c-10.6,1.2-21.2,1.5-32,1.3c-12.5-0.3-25.1-1.3-37.7-2.6c1.1,2.2,2.1,4.4,3.2,6.6
			c14.2,28.3,45.3,48.2,53.8,76.5c30.1,84.4,54.6,170.2,79.4,255.4l54.7-4.3L2111.8,2117.3z"/>
		<path class="st13" d="M1614.6,2264.3c-25.5-36.8-19.8-82.2-11.3-124.7c1.8-8,2.7-17.9,4.2-27.9c-15.4-3.9-30.6-7.9-45.5-12
			c-10,18.2-19.8,42.4-19.8,67.4c0,50.8,26.1,140.8,15.2,193.1c-10.9,52.3-54.4,159.7-54.4,159.7h161.4
			C1681.9,2434.1,1669.7,2343.2,1614.6,2264.3z"/>
		<path class="st12" d="M1902.1,2112.9c-4.3,1.1-8.5,2.4-12.6,4c-88.7,33.2-189.4,17.9-282-5.2c-1.5,10-2.4,19.9-4.2,27.9
			c-8.5,42.5-14.2,87.8,11.3,124.7c55.1,79,67.3,169.8,49.8,255.6h200.1c0,0,49.4-198.9,53.7-248.3c24-41.1,37.7-119.1,37.7-119.1
			L1902.1,2112.9z"/>
		<path class="st6" d="M1582.9,2068.3c0,0-10.5,12.4-20.9,31.3c104.2,28.8,224.1,56,327.5,17.2c4.2-1.6,8.4-2.9,12.6-4l-81.8-60.2
			L1582.9,2068.3z"/>
		<path class="st14" d="M1602,2225.1c0,0,96-7.5,111.1-80.2"/>
		<path class="st10" d="M710.6,3168.2c2.8,31.2,8.5,65.2,34,82.2c221,138.9,478.9,79.3,719.8,65.2c70.8-2.8,147.4-34,221-68
			c158.7-73.7,334.4-53.8,507.3-45.3c39.7,2.8,76.5,31.2,116.2,48.2c201.2,90.7,416.6,116.2,634.8,79.3
			c87.8-14.2,167.2-56.7,243.7-107.7c44.5-30.5,79.4-62.9,120.6-90.8l-614.4-688.4H1311.3L713,3052.7
			C708.1,3091.1,706.9,3129.8,710.6,3168.2z"/>
		<path class="st15" d="M3307.9,3131.3c-41.2,27.9-76,60.3-120.6,90.8c-76.5,51-155.9,93.5-243.7,107.7
			c-218.2,36.8-433.6,11.3-634.8-79.3c-39.7-17-76.5-45.3-116.2-48.2c-172.9-8.5-348.6-28.3-507.3,45.3c-73.7,34-150.2,65.2-221,68
			c-240.9,14.2-498.8,73.7-719.8-65.2c-25.5-17-31.2-51-34-82.2c-3.7-38.4-2.5-77.2,2.4-115.6l-225.5,229.8
			c15.5,70.8,51,136.6,98.9,191.8h2895.3c23.6-24,44-51,60.7-80.2L3307.9,3131.3z"/>
		<path class="st4" d="M2753.8,2726h-474.5c-65.2-37.8-110.4-95.8-144-165.5h472.1C2678.8,2605.3,2723.9,2662.2,2753.8,2726z"/>
		<path class="st16" d="M2142.5,2565.6c0,0,111.8,101.6,135.7,148.8c-0.7,4.7-0.7,4.7-0.7,4.7s-71.1-57-87.8-79.5
			C2173,2617.1,2142.5,2565.6,2142.5,2565.6z"/>
		<path class="st5" d="M2471,2625l25.1-1c0,0,32.7,107.8,87.8,125.6c55.2,17.8-68.6,40.3-68.6,40.3l-4.4-15.6c0,0,49-7.6,45.4-17.8
			c-3.6-10.2-37.4-32.7-58.8-69.7C2476.1,2649.8,2471,2625,2471,2625z"/>
		<path class="st16" d="M1623.9,2048c0,0,130.1,51.7,342.6,36.6c123.4-9.6,123.4-9.6,123.4-9.6l-28.8-45.2
			c0,0-409.8-32.2-411.9-26.4C1647.2,2009.3,1623.9,2048,1623.9,2048z"/>
		<path class="st17" d="M1649.3,2003.4c0,0,205.6,79.4,439.5,26.3c-30.3-85.9-93.2-773.5-93.2-773.5s-40.4-14.1-57.7-15.3
			c-17.3-1.3-110.5-42.4-176.5,25.4C1665.7,1326,1649.3,2003.4,1649.3,2003.4z"/>
		<path class="st6" d="M1645.8,1436.8c-12.2-5.1-24.7-9-37.5-11.9c10.5,75.5,29.7,192.1,32.6,293c52,58.7,120.2,108.1,197.5,78.8
			c5.7-2.8,8.5-14.2,14.2-17c27.4-14.6,58.2-24.5,82.8-40.3c-3.6-55.6-10.9-120-19.1-179.4
			C1813.9,1556.2,1735.6,1477.9,1645.8,1436.8z"/>
		<path class="st12" d="M1756.3,1468c42.7,10.7,62.8,51.6,95.9,80c20.5,6.8,41.8,11.2,64.2,12c-11.7-84.6-25.2-159-32-182.6
			c-14.6-50.3-30.9-118.3-62.9-130.9c-31.9-12.6-39.2-11.4-39.2-11.4s-186.8,51.9-180.2,136.8c1,13.5,3.3,31.6,6.3,53
			c12.8,2.9,25.3,6.9,37.5,11.9c23.8,10.9,46.8,24.4,69.7,38.4C1726.3,1466.5,1743.6,1464.3,1756.3,1468z"/>
		<path class="st13" d="M1756.3,1468c-12.7-3.6-30-1.4-40.8,7.3c44.5,27.3,88.4,56.7,136.7,72.7
			C1819.1,1519.5,1799,1478.6,1756.3,1468z"/>
		<path class="st12" d="M1838.5,1796.7c-77.4,29.3-145.5-20.2-197.5-78.8c1.5,50.6-1.1,97.2-10.9,132.7
			c-34.8,126.3-69.7,224.3-69.7,224.3s160.7,52.3,252.4,28.3c91.7-24,117.8-154.6,124.4-274.4c1.3-24.3,0.5-55.1-1.7-89.4
			c-24.6,15.8-55.4,25.7-82.8,40.3C1847,1782.5,1844.1,1793.8,1838.5,1796.7z"/>
		<path class="st4" d="M1788,1227.4l-39,16.4c0,0,40,124.6,48.2,128.1c76.1,107.3,116.6,170.4,116.6,170.4s-15.8-147.4-31.2-196.8
			c-15.4-49.3-59.6-114.4-74-118.1C1794.2,1223.7,1788,1227.4,1788,1227.4z"/>
		<path class="st12" d="M2246.5,1711.7c85.4-33.2,154.9-98.2,226.9-156.7c-16.4-38-82-35.7-109.2-19
			c-29.8,18.4-135.2,86.1-135.2,86.1s-94.3-307.9-172.8-342.5c-16.6-7.3-24.7,22.2-28.1,65.8c106.6,52.9,88.7,196.9,107.9,303.9
			c4.2,24.2,13.8,44.6,27.2,61.4C2188.3,1722.2,2216.3,1724.4,2246.5,1711.7z"/>
		<path class="st6" d="M2028.2,1345.4c-4.2,55-0.9,132.6,2.6,187.8c9.2,16,17.3,32.1,23.1,48.1c24.1,52,61.7,107.6,109.4,129.4
			c-13.4-16.8-23-37.3-27.2-61.4C2116.8,1542.4,2134.8,1398.3,2028.2,1345.4z"/>
		<path class="st6" d="M2246.5,1711.7c-87.8,36.8-155.9-51-192.7-130.4c-5.8-16-13.9-32.1-23.1-48.1c2.5,39.5,5.1,67.6,5.1,67.6
			s129.2,204.2,203.7,166.5c74.5-37.7,222.6-160.7,237.1-200.4c-0.6-4.4-1.7-8.4-3.3-12C2401.5,1613.4,2332,1678.4,2246.5,1711.7z"
			/>
		<path class="st6" d="M2374,1542.3c0,0-16.8,30.8,16.8,46.9c33.6,16.1,50,11.7,61.7,2.1c11.7-9.6,16.8-30.2-9.6-48
			C2416.5,1525.4,2383.2,1534.8,2374,1542.3z"/>
		<path class="st6" d="M2078.9,1678.2c1.4-21.8,5.2-48.9,9.7-78.5c-38,68-37.5,154.8-26.3,230.9c14,86.8,5.9,168,27.5,254.7
			c19.4-4,33.9-11.6,33.1-24.3C2120.8,2029.8,2072.1,1780.8,2078.9,1678.2z"/>
		<path class="st12" d="M2088.6,1599.7c1.7-10.7,3.4-21.8,5.3-33c35.7-110.1,19.1-202.3-30.4-283.1c-45.6-26-103.1-44.6-103.1-44.6
			s-33,35.2-30.2,117.2c4.2,119.1,19.9,549.5,16.4,612.7c-3.5,63.1,34,108.2,60.9,115.9c15.9,4.6,54.2,6.4,82.4,0.6
			c-21.6-86.6-13.5-167.9-27.5-254.7C2051.1,1754.5,2050.6,1667.8,2088.6,1599.7z"/>
		<path class="st4" d="M1965.9,1236.1l47.5,16.5L1983,1384c0,0-43.5,122.2-51.2,153c-9.1-130.9-19.4-239.8,5.9-274.8
			C1963.1,1227.3,1965.9,1236.1,1965.9,1236.1z"/>
		<path class="st0" d="M2416.6,1521.8c52.4,7.9,87.8-37.6,83.9-87l-99.5,47c0,0-8.7,38.4-5.1,52.6c-11.6,12.8-11.6,12.8-11.6,12.8
			s2,8.6,7.4,17.7C2404.4,1555.7,2413.5,1542,2416.6,1521.8z"/>
		<path class="st18" d="M2500.5,1434.8c3.9,49.4-31.5,94.9-83.9,87c-3,20.2-12.2,33.9-24.9,43c7.2,12.3,20.2,25.5,42.3,20.1
			c38.5-9.4,66.5-44.3,73.7-55.9c7.3-11.6,10.2-102.4,10.2-102.4L2500.5,1434.8z"/>
		<path class="st4" d="M2252.6,1528.7l307.8-156.8c19.8-0.2,24.7,8,15.5,24.2l-305.2,154.7C2251.6,1553.2,2244,1547,2252.6,1528.7z"
			/>
		<path class="st0" d="M2274.9,1476.5c-34,19.8-73.7,14.2-107.7,25.5c-14.2,5.7-31.2,14.2-48.2,22.7c-1,0.3-2,0.6-3,0.8l25.1,28.1
			c0,0,38.5-39.2,59.5-39.2c21.1,0,63.9-9.4,80.6-28.3c12-13.5,10.5-20.7,3.9-34.6C2286.6,1461.6,2285.9,1469.9,2274.9,1476.5z"/>
		<path class="st18" d="M2358.7,1440.5c-2.9-1.9-7.1-4.3-12.9-7.4c-24.7-13.1-72.6-52.3-119.1-34.8
			c-46.5,17.4-132.8,102.4-132.8,102.4l22.1,24.9c1-0.3,2-0.5,3-0.8c17-8.5,34-17,48.2-22.7c34-11.3,73.7-5.7,107.7-25.5
			c11-6.6,11.7-14.9,10.2-24.9c-2.6-5.5-6-11.9-9.7-20.3c1.8,1.2,8.7,4.3,17.8,7.8C2316.9,1440.7,2347.7,1458.2,2358.7,1440.5z"/>
		<path class="st18" d="M2358.7,1440.5c-11,17.8-41.8,0.2-65.5-1.4c21.1,8.2,53.9,18.9,62,14.3
			C2364.1,1448.4,2368.3,1446.8,2358.7,1440.5z"/>
		<path class="st12" d="M1787.5,1714.5c133.2,31.2,238-87.8,342.9-167.2c5.6-3.7,10.8-7.4,16.1-10.9c-13.6-25.1-31.8-54.6-41.7-54.6
			c-125.6,69.7-211,125.6-258.7,116.6c-48.9-9.2-84.7-146.6-84.7-146.6l-115.6-152.5c0,0-33.9,24.9-55.6,72.3
			C1574.3,1516.3,1645.7,1681,1787.5,1714.5z"/>
		<path class="st13" d="M2130.4,1547.3c-104.9,79.3-209.7,198.4-342.9,167.2c-141.7-33.5-213.2-198.2-197.2-342.9
			c-19.4,42.3-29.1,102.5,3.5,179.1c75.8,178.1,136.7,264,264.5,200.1c127.8-63.9,305.9-180,305.9-180s-7.6-16-17.6-34.4
			C2141.2,1539.9,2135.9,1543.6,2130.4,1547.3z"/>
		<path class="st18" d="M1892.1,1147.8c0,0-4.9,41,88.2,29.7c91.9-11.2,77.3-238.8,77.3-238.8c-240-92-219.7,122.7-219.7,122.7
			L1804,1202v19.8l75,44.5h20.3l40.7-58.6c0,0-11.4-15-7-28.5"/>
		<path class="st0" d="M1891.5,1148.6c0,0-4.2,45.9,40.7,47.7c-2.2-17.9-2.2-17.9-2.2-17.9C1914,1180.9,1906.7,1168.3,1891.5,1148.6
			z"/>
		<path class="st19" d="M1767.3,1218.5c-2.3,4.5-4.2,9.4-5.8,14.6c18.3,35.5,52.1,60.1,93.9,79.2c0.3-3.8,0.9-7.3,1.8-10.7
			C1815.5,1290.4,1777.6,1258.7,1767.3,1218.5z"/>
		<path class="st19" d="M1977.3,1218c-4.7-6.1-9.9-11.4-15.9-14.9c2.3,33.5-9,69.4-36.1,87.9c3.4,4.2,6.2,9,8.4,14.5
			C1953.9,1283.4,1967.2,1252.7,1977.3,1218z"/>
		<path class="st4" d="M1961.4,1203.1c-6.3-3.7-13.4-5.5-22.1-4.4l-52.3,66.8l-98-72.6c-9.3,6.4-16.5,15.1-21.7,25.7
			c10.3,40.1,48.3,71.8,89.8,83.1c3.9-14.9,13.5-26.1,30.7-32.6c15.6,3.9,28.5,10.8,37.6,21.9
			C1952.3,1272.5,1963.7,1236.6,1961.4,1203.1z"/>
		<path class="st6" d="M1813.7,1089.7c0,0,40.7,28.3,60.3,9.4c19.6-34.1,19.6-34.1,19.6-34.1s-28.8-37.7-15.5-54.4s37.3-8,43.1,7.3
			c5.8,15.2,5.8,15.2,5.8,15.2l15.2,1.5c0,0,24.7-40.7,24.7-66.8c73.3,29,109.5,53.2,143.6-19.4c21.8-53-7.9-56.9-7.9-56.9
			s-93.6,16-127-2.9c-33.4-18.9-83.5-3.7-82.8,27.2c-35.6-17.8-76.9,2.6-79.1,48.3c-2.2,45.7,0,122,0,122"/>
	</g>
	<linearGradient id="SVGID_5_" gradientUnits="userSpaceOnUse" x1="3463.9519" y1="2749.1125" x2="3902.7158" y2="2749.1125">
		<stop  offset="0" style="stop-color:#68B2FC"/>
		<stop  offset="1" style="stop-color:#529BF7"/>
	</linearGradient>
	<ellipse class="st20" cx="3683.3" cy="2749.1" rx="219.4" ry="217.6"/>
	<linearGradient id="SVGID_6_" gradientUnits="userSpaceOnUse" x1="97.2842" y1="2235.75" x2="453.0388" y2="2235.75">
		<stop  offset="0" style="stop-color:#68B2FC"/>
		<stop  offset="1" style="stop-color:#529BF7"/>
	</linearGradient>
	<ellipse class="st21" cx="275.2" cy="2235.8" rx="177.9" ry="176.4"/>
</g>
</svg>
