<?xml version="1.0" encoding="utf-8"?>
<!-- Generator: Adobe Illustrator 22.0.0, SVG Export Plug-In . SVG Version: 6.00 Build 0)  -->
<svg version="1.1" id="Layer_1" xmlns="http://www.w3.org/2000/svg" xmlns:xlink="http://www.w3.org/1999/xlink" x="0px" y="0px"
	 viewBox="0 0 4000 4000" style="enable-background:new 0 0 4000 4000;" xml:space="preserve">
<style type="text/css">
	.st0{fill:none;stroke:#1A1A1A;stroke-width:3;stroke-linecap:round;stroke-linejoin:round;stroke-miterlimit:10;}
	.st1{fill:#FFFFFF;stroke:#1A1A1A;stroke-width:2;stroke-linecap:round;stroke-linejoin:round;stroke-miterlimit:10;}
	.st2{fill:#D9DBDA;stroke:#1A1A1A;stroke-width:2;stroke-miterlimit:10;}
	.st3{clip-path:url(#SVGID_1_);}
	.st4{fill:#1A1A1A;stroke:#1A1A1A;stroke-width:2;stroke-linecap:round;stroke-linejoin:round;stroke-miterlimit:10;}
	.st5{fill:#5067EF;stroke:#1A1A1A;stroke-width:2;stroke-linecap:round;stroke-linejoin:round;stroke-miterlimit:10;}
	.st6{fill:#8E9DF4;stroke:#1A1A1A;stroke-width:2;stroke-linecap:round;stroke-linejoin:round;stroke-miterlimit:10;}
	.st7{fill:none;stroke:#1A1A1A;stroke-width:2;stroke-linecap:round;stroke-linejoin:round;stroke-miterlimit:10;}
	.st8{fill:none;stroke:#FFFFFF;stroke-width:3;stroke-linecap:round;stroke-linejoin:round;stroke-miterlimit:10;}
</style>
<g>
	<path class="st0" d="M761.6,2809.8c196,458.5,294.1,687.7,417,765.2c154.2,97.2,419.1,90.3,948.8,76.5
		c168.4-4.4,317.5-16.4,531.8,26.8c188.6,38,206.6,74.3,294.6,65c244.4-25.7,479.8-344.9,520.3-661.9
		c32-250.2-84.4-288.2-191.3-795.8c-37.2-176.5-91.2-432.9-80.3-749.9c16.6-485.7,166.1-553.5,88-765.2
		C3133,344,2398,274.8,2299.6,265.6c-217.1-20.4-609-57.3-818.7,183.6c-135,155.1-151.9,376.3-172.2,642.8
		c-25.3,331.9,47.3,354.3-7.7,489.7c-138.7,341.9-625.7,259.9-738.4,562.4C523.5,2249,602.3,2437.4,761.6,2809.8z"/>
	<path class="st1" d="M641.5,2662.5c1.1,5.7,2.2,11.5,3.5,17.2c16.3,77,43,156.4,84,235.3c140.7,270.3,377,393.3,602.6,510.7
		c118.4,61.6,254.9,104.2,528,189.4c412.3,128.6,621.2,192.3,751.8,160.7c281.4-68.1,433.6-342.8,539.5-533.7
		c22.2-40,121.1-224,175.1-473.5c7.4-34.2,13.9-69.7,19.3-106.2H641.5z"/>
	<path class="st1" d="M3034.1,927.4c-58-255.6-246.8-542.3-539.5-677.2c-348.4-160.5-865.6-115.5-1040.6,179.8
		c-92.3,155.7-103,403.9-23,593c0.6,1.3,1.1,2.5,1.7,3.8H3050C3047.3,996.4,3042.4,963.7,3034.1,927.4z"/>
	<path class="st1" d="M2982,767.4h-263.2l15.9-65.7h216.7c2.9,5.6,5.7,11.2,8.4,16.9c6.5,13.4,12.7,26.8,18.5,40.2
		C2979.6,761.7,2980.8,764.5,2982,767.4z"/>
	<path class="st2" d="M3072.4,1547.2c-27-114.8-31-198.2-28.7-270.7c2.7-87,14.4-158.4,6.3-249.6H1432.7
		c44.7,103.5,93.6,134.5,104.3,183.6c2.3,10.4,2.8,21.6,1.2,34.4c-20.3,165.9-336.4,153.5-600.7,413.2
		C779.1,1813.9,718,1990,688.9,2077.1c-19.6,58.6-101.6,303.8-47.3,585.4h2703.7c27.6-186.8,24.7-400.6-50.9-614
		C3217.6,1831.9,3132.9,1804.6,3072.4,1547.2z"/>
	<g>
		<path class="st1" d="M1962.9,1210.6v1469.1H645c-61.1-288.8,23.9-542.8,43.9-602.6c29.2-87.2,90.3-263.3,248.7-418.9
			c264.3-259.7,580.4-247.3,600.7-413.2c1.6-12.9,1-24-1.2-34.4H1962.9z"/>
		<path class="st1" d="M1962.9,1941.7c-63.3,17.4-142,26.4-181.7-18.4c-72.7-82.1-529.9-239.3-733.6,79.6
			c-122.4,191.7-291.5,248.9-406.9,264.1c-19,110.6-28.7,256.5,4.4,412.7h1317.9V1941.7z"/>
		<g>
			<defs>
				<path id="SVGID_18_" d="M1962.9,1210.6v1469.1H645c-61.1-288.8,23.9-542.8,43.9-602.6c29.2-87.2,90.3-263.3,248.7-418.9
					c264.3-259.7,580.4-247.3,600.7-413.2c1.6-12.9,1-24-1.2-34.4H1962.9z"/>
			</defs>
			<use xlink:href="#SVGID_18_"  style="overflow:visible;fill:#FFFFFF;"/>
			<clipPath id="SVGID_1_">
				<use xlink:href="#SVGID_18_"  style="overflow:visible;"/>
			</clipPath>
			<g class="st3">
				<rect x="533.9" y="1276.6" class="st1" width="1378" height="1459.1"/>
				<line class="st1" x1="1580.7" y1="1276.6" x2="1580.7" y2="2737.7"/>
				<line class="st1" x1="1196.8" y1="1276.6" x2="1196.8" y2="2737.7"/>
				<line class="st1" x1="812.8" y1="1276.6" x2="812.8" y2="2737.7"/>
			</g>
			
				<use xlink:href="#SVGID_18_"  style="overflow:visible;fill:none;stroke:#1A1A1A;stroke-width:2;stroke-linecap:round;stroke-linejoin:round;stroke-miterlimit:10;"/>
		</g>
		<polygon class="st4" points="2027.9,1344.5 1962.9,1210.6 1962.9,2679.7 2027.9,2679.7 		"/>
		<path class="st4" d="M1627.2,1917.1L1627.2,1917.1c-7.9,0-14.3-6.4-14.3-14.3v-54.5c0-7.9,6.4-14.3,14.3-14.3l0,0
			c7.9,0,14.3,6.4,14.3,14.3v54.5C1641.5,1910.7,1635.1,1917.1,1627.2,1917.1z"/>
		<path class="st4" d="M1155.9,1917.1L1155.9,1917.1c-7.9,0-14.3-6.4-14.3-14.3v-54.5c0-7.9,6.4-14.3,14.3-14.3l0,0
			c7.9,0,14.3,6.4,14.3,14.3v54.5C1170.2,1910.7,1163.8,1917.1,1155.9,1917.1z"/>
	</g>
	<path class="st1" d="M3325.9,2768.7h-502.2V1276.6h220c-2.3,72.5,1.7,155.9,28.7,270.7c60.5,257.4,145.1,284.6,221.9,501.2
		C3384.7,2303.6,3371.2,2559.2,3325.9,2768.7z"/>
	<g>
		<path class="st1" d="M2257.4,3130.7l-0.3,603.6c44.5,16.4,84,29,119.1,38.4l-60.4-647.4
			C2280.2,3128.1,2257.4,3130.7,2257.4,3130.7z"/>
		<path class="st4" d="M2729,3184.5c-6.7-82.5-288.5-69.2-413.2-59.2l60.4,647.4c201.1,54.1,259.6,4.9,317-23.8
			C2697.5,3572.1,2737.6,3290.5,2729,3184.5z"/>
		<path class="st1" d="M1825,2166c0,0-60.4-3.7-74.7,38.3c-14.3,42.1,7,102.3,50,122.4c43,20.1,275.5,282.2,466.8,50.7l139.6-346.2
			c0,0-111,127.2-163.6,160.7C2190.5,2225.4,2065,2324.8,1825,2166z"/>
		<path class="st4" d="M2080.5,2418.6c-96.1,15.1-267.1-119.3-334.3-176.1c3.2,34.4,23,69.8,54,84.2c43,20.1,275.5,282.2,466.8,50.7
			l53.5-132.6C2281.3,2289.2,2177.8,2403.3,2080.5,2418.6z"/>
		<path class="st5" d="M2674.2,2922.3c-8.1-2.7-16.1-10.7-21.5-13.4c-110-26.8-212-64.4-279.1-155.6c-21.5-29.5-45.6-51-59-80.5
			c-2.7-8.1,0-18.8-5.4-26.8c-38.9-64-56.3-133.9-62.3-206.3c-23.4,148.7-39.5,328.3-43.1,542.3c7.6,399.8,7.6,399.8,7.6,399.8
			s349.4,82.2,538.2-97.6c5.9-73.4,13.7-195.7,20.5-335.2c-4.3-0.8-8.5-1.6-12.8-2.6C2725.2,2938.4,2701.1,2933.1,2674.2,2922.3z"/>
		<path class="st5" d="M2626.7,2500.8c-89-29.7-193.4-177.5-194.2-229.5c22-184.6,68.4-255.4,100.4-292.7s98.5-45.9,114.8-43.5
			c10.9,1.6,39.8,21.6,57.6,34.6c-9.3-16.5-18.6-32.1-27.6-46.3c-21.4-16.9-54-24.8-116.1-3.5c-110.5,41.6-148.3,210.9-164.8,244.4
			c-13.8,28-68.4-1.6-85.8-12c-24.1,79-46.1,174.3-64,287.5c6,72.4,23.4,142.2,62.3,206.3c5.4,8.1,2.7,18.8,5.4,26.8
			c13.4,29.5,37.6,51,59,80.5c67.1,91.2,169.1,128.8,279.1,155.6c5.4,2.7,13.4,10.7,21.5,13.4c26.8,10.7,51,16.1,83.2,24.2
			c4.3,0.9,8.5,1.8,12.8,2.6c6.5-133.6,12-283.1,14.2-420.4C2766.6,2528.5,2702.2,2526,2626.7,2500.8z"/>
		<path class="st1" d="M2677.7,1923.3c-21.4-16.9-54-24.8-116.1-3.5c-0.4,0.1-0.8,0.3-1.2,0.5c-34-25.1-59.4-37.4-59.4-37.4
			c57.9-31.9,107.1-41,107.1-41C2619.6,1841.8,2646.9,1874.7,2677.7,1923.3z"/>
		<path class="st1" d="M2608.2,1841.8c0,0-0.1,0-0.3,0.1c-0.3,0.1-0.7,0.1-1.4,0.3c-0.2,0-0.3,0.1-0.5,0.1c-0.1,0-0.1,0-0.2,0
			c-0.3,0.1-0.6,0.1-1,0.2c-0.1,0-0.2,0-0.3,0.1c-0.4,0.1-0.7,0.2-1.2,0.3c-0.1,0-0.3,0.1-0.4,0.1c-0.4,0.1-0.8,0.2-1.3,0.3
			c-0.1,0-0.2,0.1-0.4,0.1c-0.5,0.1-1,0.2-1.6,0.4c-0.1,0-0.1,0-0.2,0.1c-0.6,0.2-1.3,0.3-2,0.5c-0.1,0-0.3,0.1-0.4,0.1
			c-0.7,0.2-1.3,0.3-2,0.5c-0.1,0-0.2,0.1-0.3,0.1c-0.8,0.2-1.5,0.4-2.3,0.6c-0.1,0-0.2,0.1-0.3,0.1c-0.8,0.2-1.7,0.5-2.6,0.7
			c-0.1,0-0.2,0-0.2,0.1c-0.9,0.3-1.8,0.5-2.8,0.8c-0.1,0-0.1,0-0.2,0.1c-1,0.3-2,0.6-3,0.9c0,0-0.1,0-0.1,0
			c-54.7,16.4-184.4,68.7-239,207.9c-11.4,28.9-22.5,60.9-33.2,96.1c17.4,10.4,72,40,85.8,12c16.6-33.5,54.4-202.8,164.8-244.4
			c62.1-21.3,94.6-13.3,116.1,3.5C2646.9,1874.7,2619.6,1841.8,2608.2,1841.8z"/>
		<path class="st1" d="M2784.4,2528.6c-8.8-0.1-29.2-0.7-56.8-4.4c1.6-78.2,3.4-181.5,4.3-292.5c1.1-136.3-76.3-231.7-141.8-287.8
			c25-8.1,48.7-10,57.6-8.7c10.9,1.6,39.8,21.6,57.6,34.6c19.4,34.3,38.7,72.7,55.3,111.3
			C2782.8,2132.9,2787.7,2316.3,2784.4,2528.6z"/>
		<path class="st1" d="M2734.9,2525.1c23.8,2.9,41.4,3.4,49.5,3.5c3.3-212.3-1.6-395.7-23.8-447.6c-16.5-38.6-35.9-77-55.3-111.3
			c-17.8-12.9-46.7-33-57.6-34.6c-0.5-0.1-1.2-0.1-1.8-0.2c-0.1,0-0.2,0-0.2,0c-0.6,0-1.2-0.1-1.9-0.1c-0.1,0-0.2,0-0.3,0
			c-0.7,0-1.4,0-2.2,0c-0.1,0-0.2,0-0.2,0c-0.8,0-1.6,0-2.5,0c-0.1,0-0.1,0-0.2,0c-0.9,0-1.8,0.1-2.8,0.1c-0.1,0-0.1,0-0.2,0
			c-1,0.1-2.1,0.1-3.1,0.2c0,0,0,0-0.1,0c-7.9,0.7-17.6,2.2-28.1,4.7c-0.2,0-0.3,0.1-0.5,0.1c-1.3,0.3-2.5,0.6-3.8,1
			c-0.4,0.1-0.9,0.2-1.3,0.4c-1,0.3-2,0.6-3.1,0.9c-0.6,0.2-1.2,0.3-1.7,0.5c-0.9,0.3-1.7,0.5-2.6,0.8c-0.3,0.1-0.6,0.2-0.9,0.3
			c0,0,0,0,0,0c-20.9,6.8-42.6,17.8-57.2,34.8c-32,37.3-78.4,108.1-100.4,292.7c0.8,52.1,105.2,199.9,194.2,229.5
			c38,12.6,73.1,19.5,101,23.3c0,0,0,0,0,0c1.5,0.2,2.9,0.4,4.4,0.6c0.1,0,0.2,0,0.4,0C2733.2,2524.9,2734.1,2525,2734.9,2525.1z"/>
		<path class="st1" d="M2579.8,1777.8c0,0-40.2-20.1-39.7-79.4c0.5-59.3,78.9-216.8-69.7-249.3c-148.6-32.5-173.4,74-169.6,128.2
			c3.8,54.2,10.8,222.8,103.3,192.1c1.3,54.1-4.5,117.2-2.6,113.4C2403.5,1878.8,2579.8,1777.8,2579.8,1777.8z"/>
		<path class="st4" d="M2445.9,1740.9l-44.2,29.1l1.8,54.6C2424.6,1799.7,2440.2,1772.4,2445.9,1740.9z"/>
		<path class="st4" d="M2262.3,1454.9c-3.2,2.3,42.1,87.5,114.8,54c-2.9,50.2-0.5,67.9,23.9,78c24.4,10,21.5,60.3,21.5,60.3
			s15.7-10.5,14.3-29.7c-1.4-19.1,5.3-64.6,35.9-57.9s47.8,55.5,34.4,73.6c-13.4,18.2-30.6,18-26.8,29.6
			c3.8,11.6,55.5,53.6,71.7,39.3c8.1-25.3,35.4-75.1,52.6-89c17.2-13.9,16.3-89.4-13.4-124.8c-29.7-35.4-76.8-86.2-108.7-73.5
			c-28.1-11.5-45-15.3-55.8-5.7C2389.2,1402.5,2359.5,1385,2262.3,1454.9z"/>
		<path class="st1" d="M1825.6,2176.1c0,0-61.7-22.5-69.8,45.4c-8.1,67.9,34.9,90.9,55.5,83.7
			C1831.9,2298.1,1854.3,2191.4,1825.6,2176.1z"/>
		<path class="st1" d="M1817.5,2188.1c0,0-69.5-45.3-138.4-36.3c-68.9,8.9-139,67.9-152.4,80.3c0,0.1,0.1,0.2,0.1,0.3
			c35.4-2.7,70.3-25.5,98.2-7.8c13.4,8.1,13.4,42.9,40.3,40.3c46.8-3.1,113.6-12.6,160.3,3.8
			C1830.2,2248.8,1835.6,2195.8,1817.5,2188.1z"/>
		<path class="st4" d="M1665.3,2264.9c-26.8,2.7-26.8-32.2-40.3-40.3c-27.8-17.7-62.8,5.1-98.2,7.8c3,11.9,63.1,2.5,73.5-0.3
			c10.5-2.9-15.3,38.3,44,48.8c59.3,10.5,87-23,139.6,0c42.1,16.3,35.7,7.3,40.5-8.3c0.3-1.1,0.7-2.4,1-3.9
			C1778.9,2252.3,1712.1,2261.8,1665.3,2264.9z"/>
		<path class="st1" d="M2033.7,2744.7c0,0,404.9,30.6,476.3-90.5c71.4-121.2,196.1-452.1,169.3-572
			c-26.8-119.9-159.3-134.2-185.8-26.1c-26.5,108.1-62.9,315.6-96.3,376.9c-33.5,61.2-59.3,181.7-320.9,183.6
			C2040.4,2622.3,2016.5,2717,2033.7,2744.7z"/>
		<path class="st4" d="M2698,2080.6c-7.2-32.1-55.1-70-73.4-86.6l14.4,14.9c64,176.6-67.8,383.9-136.7,554.9
			c-52.9,131.3-342.7,153-474.3,156c0.3,10.3,2,19.1,5.7,25c0,0,404.9,30.6,476.3-90.5C2581.4,2533,2724.8,2200.5,2698,2080.6z"/>
		<path class="st1" d="M1710.9,2753.3c72-42,156-63.1,235.2-53.4c8.9-23.7,19.7-59.8,6.6-67.4c0,0-91.8-15.9-152.4,7.7
			c-59.8,23.3-147.5,96.9-141.8,127C1677.5,2768.1,1696.5,2761.5,1710.9,2753.3z"/>
		<path class="st4" d="M1710.9,2753.3c-14.3,8.2-33.4,14.8-52.4,13.9c0.1,0.4,0.1,0.8,0.2,1.2c8.3,29.3,106.5-19.1,151.8-19.7
			c45.3-0.7,52.3-5.1,82.9-17.2c30.6-12.1,44-10.2,44-10.2s4.1-9,8.7-21.2C1866.8,2690.2,1782.9,2711.3,1710.9,2753.3z"/>
		<path class="st1" d="M1971.8,2614c0,0-51.6,4.5-54.8,65.7c-3.2,61.2,5.7,75.2,54.8,74.6c49.1-0.6,80.3-5.1,80.3-5.1
			s-20.1-101.4,24.1-132.6C2031.8,2616.6,1971.8,2614,1971.8,2614z"/>
		<path class="st1" d="M2389.5,1996.8c0,0-9.6-67-15.9-77.8c-6.4-10.8-16.6-17.2,17.2-45.3c33.8-28.1,161.3-121.8,187.6-111.3
			c26.3,10.5,47.3,23,40.2,43.5c-7.2,20.6-8.1,41.6-8.1,41.6S2404.8,1939.4,2389.5,1996.8z"/>
	</g>
	<g>
		<path class="st1" d="M2043.2,2924.6v169.3l-160.1,528.6c-7.8-2.4-15.6-4.9-23.5-7.3c-12.7-4-25.1-7.8-37.2-11.6
			c-248.5-77.6-377.9-119-490.7-177.8c-71.2-37.1-143.5-74.7-213.5-117.3l293.8-395.3C1425.3,2913.1,2043.2,2924.6,2043.2,2924.6z"
			/>
		<path class="st2" d="M2043.2,2924.6l-220.9,679c-248.5-77.6-377.9-119-490.7-177.8c-71.2-37.1-143.5-74.7-213.5-117.3l293.8-395.3
			C1425.3,2913.1,2043.2,2924.6,2043.2,2924.6z"/>
		<path class="st4" d="M2043.2,2924.6v169.3l-160.1,528.6c-7.8-2.4-15.6-4.9-23.5-7.3c-12.7-4-25.1-7.8-37.2-11.6L2043.2,2924.6z"/>
		<g>
			<polygon class="st1" points="1465.5,3017.7 1911.9,3025.3 1808.5,3262.5 1308.7,3239.6 			"/>
			<polygon class="st1" points="1308.7,3239.6 1308.7,3293.1 1804.1,3318.6 1808.5,3262.5 			"/>
			<polygon class="st4" points="1911.9,3025.3 1911.9,3062.3 1804.1,3318.6 1808.5,3262.5 			"/>
			<path class="st4" d="M1479.6,2341.8l-43.4,769c0,10.6,8.1,16.5,19.4,18.8l45.3-787.8H1479.6z"/>
			<path class="st1" d="M1500.8,2341.8l-45.3,787.8c17.1,3.5,41.6-1.4,57.1-11.2l21.7-776.7H1500.8z"/>
			<polygon class="st1" points="1468.4,3080.5 1774.5,3084.3 1781.2,3213.4 1448.4,3196.5 			"/>
			<polygon class="st1" points="1574.8,2938 1468.4,3080.5 1774.5,3084.3 1844.5,2944.9 			"/>
			<polygon class="st4" points="1781.2,3213.4 1858,3041.3 1844.5,2944.9 1774.5,3084.3 			"/>
			<polygon class="st1" points="1436.2,2344.3 1566.3,2445.7 1663.2,2411.9 1436.2,2220 			"/>
			<polygon class="st1" points="1500.6,2204 1681.7,2359 1663.2,2411.9 1436.2,2220 			"/>
			<polygon class="st6" points="1464.9,2226.7 1497.1,2218.7 1666,2363.2 1657,2389.1 			"/>
			<polygon class="st4" points="1506.7,1975.7 1419,1997.6 1442.9,2225.7 1506.7,2209.2 			"/>
			<polygon class="st6" points="1433.5,2007.8 1493.2,1992.9 1493.2,2198.8 1454.6,2208.8 			"/>
			<polygon class="st1" points="1388.1,2031.2 1407.2,2213.9 1442.9,2225.7 1419,1997.6 			"/>
		</g>
		<polygon class="st6" points="1561.2,2999.2 1758.2,2999.2 1745.8,2774.4 1593.7,2777.8 		"/>
		<path class="st4" d="M1797,2954.2l-38.8,45l-12.4-224.8c0,0,33.5-12.4,35.4-8.6C1783.1,2769.6,1797,2954.2,1797,2954.2z"/>
	</g>
	<path class="st4" d="M2311,3385.6c-55.7-47.8-89.1-249.4-107-405.2c0,0.5,0,1.1,0,1.6c7.6,399.8,7.6,399.8,7.6,399.8
		s38.7,9.1,97.2,14.6C2309.5,3392.9,2310.2,3389.3,2311,3385.6z"/>
	<polyline class="st7" points="3345.2,2662.5 2907.9,2662.5 2907.9,1357.5 3044.1,1357.5 	"/>
	<g>
		<polygon class="st1" points="1911.9,767.4 1580.7,767.4 1596.6,701.7 1891.2,701.7 		"/>
		<polygon class="st6" points="1891.2,758.8 1601.4,758.8 1615.3,718.6 1873,718.6 		"/>
	</g>
	<g>
		<path class="st1" d="M2982,767.4h-263.2l15.9-65.7h216.7c2.9,5.6,5.7,11.2,8.4,16.9c6.5,13.4,12.7,26.8,18.5,40.2
			C2979.6,761.7,2980.8,764.5,2982,767.4z"/>
		<path class="st6" d="M2978.3,758.8h-238.7l13.9-40.2h206.3C2966.3,732,2972.5,745.4,2978.3,758.8z"/>
	</g>
	<path class="st4" d="M2949,1927.9L2949,1927.9c-7.9,0-14.3-6.4-14.3-14.3V1859c0-7.9,6.4-14.3,14.3-14.3l0,0
		c7.9,0,14.3,6.4,14.3,14.3v54.5C2963.3,1921.4,2956.9,1927.9,2949,1927.9z"/>
	<g>
		<path class="st4" d="M3217.4,2863.7c-10.6-29-21.3-58.3-25-88.9c-3.7-30.7,0.3-63.2,17.2-89.1c16.9-25.8,48.3-43.3,78.8-38.1
			c25,4.3,49.4,22.8,73.3,14.5c22.7-7.9,31.2-36.2,29.6-60.2c-1.7-24-10.1-47.7-7.4-71.6c4.2-38.4,40.6-70.5,79.2-69.8
			c38.6,0.6,74,33.8,77,72.3c1.9,24-7.3,47.4-9.1,71.4c-1.8,24,7.8,52.6,31,58.8c16.8,4.5,34.3-4.6,47.5-15.9
			c13.2-11.3,24.4-25.3,39.7-33.7c24.2-13.4,55.8-9.8,78.8,5.5c29.2,19.5,45,57.3,38.2,91.8s-35.5,63.6-69.9,70.7
			c-27.5,5.7-61,0.2-79.1,21.6c-20.1,23.9-4.2,62.1-17.4,90.4c-12.5,26.9-47.6,35.8-76.8,30.4c-29.2-5.4-55.2-21.2-83.2-31.2
			c-28-9.9-61.7-13-85.1,5.2c-19.7,15.3-27.4,41.8-45.7,58.7c-21.1,19.4-55.8,22-79.6,6c-23.8-16.1-34.3-49.2-24.2-76.1"/>
		<path class="st8" d="M3191.2,2973c4.9-3.8,115.9-263.9,522.7-270.3"/>
		<path class="st6" d="M3137.4,3214.4c18-30,61.9-44.5,35-67c-23.1-19.3-55.4-22.8-85.6-22.2s-60.9,4.4-89.9-3.6
			c-29.1-7.9-56.7-31.7-57.2-61.8c-0.4-23.7,15.3-44,27.6-64.2s21.4-46.9,8.4-66.6c-9.2-14-26.8-19.8-43.5-22.1
			c-16.6-2.2-33.8-1.9-49.5-7.8c-23.9-9-41.3-33.1-42.4-58.6c-1-25.5,14.4-51,37.5-61.9c17.4-8.2,37.2-8.4,56.2-11.4
			c19-3,39.2-10.2,48.7-26.9c11.1-19.5,3.2-44.6-9.3-63.2c-12.5-18.6-29.4-34.5-38.4-55.1c-17.8-40.4,1.4-90.9,37.3-116.5
			c35.9-25.6,84.3-29,127-17.5c23.8,6.4,48.8,19.7,55.8,43.3c6.6,22.3-4.9,45.4-14.4,66.5c-9.6,21.2-17.2,47.2-4.2,66.5
			c10.5,15.6,31.1,20.9,49.8,20.8c18.8,0,37.5-4.2,56.1-2.3c34.9,3.6,66.2,30.5,75.1,64.4c8.9,33.9-5.2,72.7-33.9,93
			c-16.1,11.4-35.6,17-52,27.8c-16.4,10.9-30.1,30.4-24.7,49.3c6.8,23.7,36.4,30,58.6,40.8c35.7,17.4,59.2,57,57.4,96.6
			c-1.8,39.6-29,76.9-66.1,90.9c-11.1,4.2-24.7,8.1-28,19.5c-3.9,13.7,10.4,25.2,15.4,38.5c4.5,11.9,0.7,26.6-9,34.8
			c-9.8,8.2-67.6-0.4-78.6-6.9"/>
		<path class="st7" d="M3046.9,2572.6c0,3.8,2.6,464.4,155.6,521.1"/>
		<path class="st6" d="M3105.4,3236.5c-4.5-47.1-8.9-95.1,1.6-141.2c10.5-46.1,38.5-90.8,82.1-109.1c60.8-25.4,134.1,5.6,194.9-19.7
			c20-8.3,37.2-22.2,55.4-34c18.2-11.8,38.9-21.8,60.6-20.7c21.7,1.1,43.9,16.6,45.9,38.2c1.6,16.9-8.8,32.3-15.7,47.8
			c-6.9,15.5-9.4,36.6,4,47.1c10.2,8,25.5,5.8,36.4-1.2c10.9-7,18.7-17.7,27.2-27.5c23.5-27.2,55.3-48.7,91-53.1
			c35.6-4.4,74.7,11,92.3,42.3c17.6,31.3,7.2,77.1-25.1,92.9c-12,5.8-25.6,7.4-38.1,12.1c-12.5,4.7-24.8,14-26.6,27.2
			c-2.2,16.7,12.7,30.1,20.2,45.2c13,26.3,1.2,60.6-22.6,77.8c-23.8,17.2-56.4,18.8-84.2,9.3c-27.8-9.5-51.3-28.7-71.1-50.3
			c-15.3-16.6-29.1-35.1-47.9-47.6c-18.8-12.5-44.7-17.6-63.7-5.4c-18.4,11.8-25.4,36-42.9,49.1c-25.5,18.9-62.2,7.1-88.3-10.8
			s-50-41.9-81.1-48c-40.2-7.8-83.8,22-91,62.3"/>
		<path class="st7" d="M3684.5,3026.6c0,0-108.4,103.3-278,53.6s-275.6,58.3-280,104.4"/>
		<path class="st4" d="M3103.2,3326.8c0,0-77.7-46.5-58.5-131.6c27.7,5.7,55.9,55.5,55.9,55.5s-65.1-100.4-18.9-184.6
			c54.8,37.3,47.2,105.2,47.2,105.2s-13.4-106.2,47.8-129.1c22.8,72.1-5.6,176.8-12.4,180.9L3103.2,3326.8z"/>
	</g>
	
		<ellipse transform="matrix(0.7071 -0.7071 0.7071 0.7071 -185.3045 3034.4902)" class="st1" cx="3570.3" cy="1740.9" rx="117.8" ry="117.8"/>
	<circle class="st1" cx="418.4" cy="2960.2" r="207.8"/>
	
		<ellipse transform="matrix(0.2298 -0.9732 0.9732 0.2298 -2126.02 4873.7344)" class="st1" cx="2016.1" cy="3780" rx="61.2" ry="61.2"/>
	<circle class="st1" cx="3382.6" cy="3408.4" r="129.3"/>
</g>
</svg>
