<?xml version="1.0" encoding="utf-8"?>
<!-- Generator: Adobe Illustrator 22.0.0, SVG Export Plug-In . SVG Version: 6.00 Build 0)  -->
<svg version="1.1" id="Layer_1" xmlns="http://www.w3.org/2000/svg" xmlns:xlink="http://www.w3.org/1999/xlink" x="0px" y="0px"
	 viewBox="0 0 4000 4000" style="enable-background:new 0 0 4000 4000;" xml:space="preserve">
<style type="text/css">
	.Graphic_x0020_Style_x0020_218{fill:#102140;}
	.Graphic_x0020_Style_x0020_88{fill:#D1334A;}
	.Graphic_x0020_Style_x0020_86{fill:#572658;}
	.Graphic_x0020_Style_x0020_206{fill:url(#SVGID_1_);}
	.Graphic_x0020_Style_x0020_207{fill:url(#SVGID_2_);}
	.Graphic_x0020_Style_x0020_84{fill:#FFFFFF;}
	
		.Graphic_x0020_Style_x0020_209{fill:none;stroke:#1A1A1A;stroke-width:2;stroke-linecap:round;stroke-linejoin:round;stroke-miterlimit:10;}
	.Graphic_x0020_Style_x0020_79{fill:#DBD2DB;}
	.Graphic_x0020_Style_x0020_83{fill:#3B546B;}
	.Graphic_x0020_Style_x0020_220{fill:#152A52;}
	.Graphic_x0020_Style_x0020_99{fill:#B080B0;}
	.Graphic_x0020_Style_x0020_39{fill:#EF5668;}
	.Graphic_x0020_Style_x0020_219{fill:#DB6767;}
	.Graphic_x0020_Style_x0020_89{fill:#EB485C;}
	
		.Graphic_x0020_Style_x0020_27{fill:#1A1A1A;stroke:#1A1A1A;stroke-width:2;stroke-linecap:round;stroke-linejoin:round;stroke-miterlimit:10;}
	.Graphic_x0020_Style_x0020_80{fill:#FFB114;}
	.Graphic_x0020_Style_x0020_216{fill:#1A1A1A;}
	.Graphic_x0020_Style_x0020_78{fill:#FFDE70;}
	.Graphic_x0020_Style_x0020_42{fill:#FFCF4A;}
	
		.Graphic_x0020_Style_x0020_95{fill:none;stroke:#10663F;stroke-width:2;stroke-linecap:round;stroke-linejoin:round;stroke-miterlimit:10;}
	.Graphic_x0020_Style_x0020_212{fill:#FFFFFF;}
	.Graphic_x0020_Style_x0020_210{fill:#CCC4CC;}
	
		.Graphic_x0020_Style_x0020_26{fill:#FFFFFF;stroke:#1A1A1A;stroke-width:2;stroke-linecap:round;stroke-linejoin:round;stroke-miterlimit:10;}
	.Graphic_x0020_Style_x0020_225{fill:#912433;}
	.Graphic_x0020_Style_x0020_213{fill:#FFB114;}
	.Graphic_x0020_Style_x0020_221{fill:#D1334A;}
	
		.Graphic_x0020_Style_x0020_34{fill:none;stroke:#FFFFFF;stroke-width:2;stroke-linecap:round;stroke-linejoin:round;stroke-miterlimit:10;}
	.Graphic_x0020_Style_x0020_45{fill:#D1334A;}
	.Graphic_x0020_Style_x0020_47{fill:#DB6767;}
	.st0{fill:url(#SVGID_3_);}
	.st1{fill:url(#SVGID_4_);}
	.st2{opacity:0.5;fill:#152A52;}
	.st3{fill:url(#SVGID_5_);}
	.st4{fill:url(#SVGID_6_);}
	.st5{fill:url(#SVGID_7_);}
	.st6{fill:url(#SVGID_8_);}
	.st7{fill:#102140;}
	.st8{fill:#FC9590;}
	.st9{fill:#152A52;}
	.st10{fill:#2C3F50;}
	.st11{fill:#FFDE70;}
	.st12{fill:#162028;}
	.st13{fill:#EF5668;}
	.st14{fill:#D1334A;}
	.st15{fill:#DB6767;}
	.st16{fill:#2D3135;}
	.st17{fill:#00593B;}
	.st18{fill:none;stroke:#FFFFFF;stroke-width:3;stroke-linecap:round;stroke-linejoin:round;stroke-miterlimit:10;}
	.st19{fill:#127755;}
	.st20{fill:#339E7E;}
	.st21{fill:#FFFFFF;stroke:#FFFFFF;stroke-width:2;stroke-linecap:round;stroke-linejoin:round;stroke-miterlimit:10;}
	.st22{fill:#5067EF;}
	.st23{fill:#585D65;}
	.st24{fill:#A1AABA;}
	.st25{fill:#3A3E44;}
	.st26{fill:#282B2F;}
</style>
<linearGradient id="SVGID_1_" gradientUnits="userSpaceOnUse" x1="0" y1="0" x2="1" y2="0">
	<stop  offset="0" style="stop-color:#4085F0"/>
	<stop  offset="1" style="stop-color:#275DC9"/>
</linearGradient>
<linearGradient id="SVGID_2_" gradientUnits="userSpaceOnUse" x1="0" y1="0" x2="1" y2="0">
	<stop  offset="0" style="stop-color:#68B2FC"/>
	<stop  offset="1" style="stop-color:#529BF7"/>
</linearGradient>
<g>
	<path class="Graphic_x0020_Style_x0020_99" d="M3076,2066h-114l-142,202.5l90,160.7h97.3C3088.2,2326.6,3128.2,2190.5,3076,2066z"
		/>
	<path class="Graphic_x0020_Style_x0020_86" d="M3225.6,2291.2L3109.4,2066H3076c52.2,124.5,12.2,260.6-68.7,363.2h137.6
		L3225.6,2291.2z"/>
	<linearGradient id="SVGID_3_" gradientUnits="userSpaceOnUse" x1="608.0212" y1="2830.0747" x2="3406.2144" y2="2830.0747">
		<stop  offset="0" style="stop-color:#68B2FC"/>
		<stop  offset="1" style="stop-color:#EBF0F7"/>
	</linearGradient>
	<path class="st0" d="M608,3191.1c8.4-201.7,87.2-319.8,127.6-370.4c195.9-245.9,607.8-314.4,1012.3-144.1
		c23.8-44.9,87-147.8,205.7-189.3c174.1-60.9,400,33.7,530.8,247c17.3-10.4,304.1-176.5,600.8-24.7
		c256.2,131.1,314.1,394.1,321,428.1C2473.5,3155.4,1540.8,3173.2,608,3191.1z"/>
	<linearGradient id="SVGID_4_" gradientUnits="userSpaceOnUse" x1="67.9197" y1="3197.1399" x2="3932.0803" y2="3197.1399">
		<stop  offset="0" style="stop-color:#68B2FC"/>
		<stop  offset="1" style="stop-color:#529BF7"/>
	</linearGradient>
	<ellipse class="st1" cx="2000" cy="3197.1" rx="1932.1" ry="178.7"/>
	<path class="st2" d="M2394.6,3107.9c-178.7,0-341.5,8.9-463.6,23.5c-122.1-14.6-284.8-23.5-463.6-23.5
		c-378.7,0-685.7,40-685.7,89.2c0,49.3,307,89.2,685.7,89.2c178.7,0,341.5-8.9,463.6-23.5c122.1,14.6,284.8,23.5,463.6,23.5
		c378.7,0,685.7-40,685.7-89.2C3080.4,3147.9,2773.4,3107.9,2394.6,3107.9z"/>
	<ellipse class="Graphic_x0020_Style_x0020_26" cx="1432.1" cy="2351.7" rx="84.7" ry="84.7"/>
	<linearGradient id="SVGID_5_" gradientUnits="userSpaceOnUse" x1="3364.0217" y1="2547.6001" x2="3521.0198" y2="2547.6001">
		<stop  offset="0" style="stop-color:#4085F0"/>
		<stop  offset="1" style="stop-color:#275DC9"/>
	</linearGradient>
	<path class="st3" d="M3520.6,2555.6c4.9-49.7-36.5-91.1-86.1-86.1c-36.7,3.6-66.4,33.4-70.1,70.1c-4.9,49.7,36.5,91.1,86.1,86.1
		C3487.3,2622.1,3517,2592.4,3520.6,2555.6z"/>
	<linearGradient id="SVGID_6_" gradientUnits="userSpaceOnUse" x1="2709.104" y1="2458.8835" x2="2810.6174" y2="2458.8835">
		<stop  offset="0" style="stop-color:#68B2FC"/>
		<stop  offset="1" style="stop-color:#529BF7"/>
	</linearGradient>
	<path class="st4" d="M2810.4,2464.1c3.2-32.1-23.6-58.9-55.7-55.7c-23.8,2.4-43,21.6-45.3,45.3c-3.2,32.1,23.6,58.9,55.7,55.7
		C2788.8,2507,2808,2487.8,2810.4,2464.1z"/>
	<linearGradient id="SVGID_7_" gradientUnits="userSpaceOnUse" x1="612.2815" y1="2628.3621" x2="810.3423" y2="2628.3621">
		<stop  offset="0" style="stop-color:#68B2FC"/>
		<stop  offset="1" style="stop-color:#529BF7"/>
	</linearGradient>
	<ellipse class="st5" cx="711.3" cy="2628.4" rx="99" ry="99.1"/>
	<linearGradient id="SVGID_8_" gradientUnits="userSpaceOnUse" x1="2956.8435" y1="886.3864" x2="3073.1226" y2="886.3864">
		<stop  offset="0" style="stop-color:#4085F0"/>
		<stop  offset="1" style="stop-color:#275DC9"/>
	</linearGradient>
	<path class="st6" d="M3073.1,886.4c0-32.1-26-58.2-58.1-58.2s-58.1,26-58.1,58.2s26,58.2,58.1,58.2S3073.1,918.5,3073.1,886.4z"/>
	<g>
		<path class="st7" d="M2335.5,951c6.6-28.8,20.8-41.1,27.4-45.8c42.2-30.2,120.6,1.4,144.5,49.1c3.4,6.9,3.1,8.8,9.9,45.3
			c12,64.3,18.1,96.5,22.7,103.9c27.7,44.5,83.7,12.6,152,61.4c5.6,4,78.7,57.6,66.1,116.2c-5.9,27.5-28.3,45-41.1,53.4
			c3.5,47-10.3,69-20.8,79.8c-55.3,57.2-205.7-3.4-292.7-70.4c-37.1-28.6-106.7-82.1-100.5-144c4.4-44.8,44.9-57.5,59-112.4
			C2375,1036.1,2355.2,986.2,2335.5,951z"/>
		<path class="Graphic_x0020_Style_x0020_27" d="M2218.6,3092.9c-15.1,6.5-34.9,11.6-49.1,4.6c-35.2,32.6-76.9,68.7-76.9,68.7
			s-26.6,20.2,5.8,21.7c32.4,1.6,96.5,1.9,129.6-35.9s33.1-37.8,33.1-37.8l4.3,74.2c0,0,4.3,2.1,15.1,0
			c6.5-80.4,10.1-112.2,10.1-119.2c0-2.5-0.1-18,0-38.8C2268.9,3055.3,2249.2,3081,2218.6,3092.9z"/>
		<path class="st8" d="M2280.8,2889.5c-19.5-2.5-52.2,14.6-52.2,14.6s-13.7,125.6-35.3,165.1c-4.9,9-13.5,18.7-23.8,28.3
			c14.2,6.9,34,1.9,49.1-4.6c20.1-7.8,35.4-21.5,49.7-37.1C2279.1,3001.3,2281.4,2944.9,2280.8,2889.5z"/>
		<path class="Graphic_x0020_Style_x0020_219" d="M2280.8,2889.5c0.6,55.3-1.6,111.8-12.4,166.3c7.5-8.2,14.7-16.8,22.2-25.4
			c0.2-37.5,1.1-92.2,4.3-120.1C2296.4,2896.3,2290.1,2890.7,2280.8,2889.5z"/>
		<path class="Graphic_x0020_Style_x0020_27" d="M2746.2,3074.1c-11.2,12-27.3,24.6-43.1,24c-19.1,44-42.9,93.8-42.9,93.8
			s-16.3,29.2,14,17.6c30.3-11.6,89.1-37,104.3-84.9c15.2-47.9,15.2-47.9,15.2-47.9l33.7,66.2c0,0,4.8,0.2,13.8-6.1
			c-26.3-76.2-35.8-106.9-38.6-113.2c-1-2.3-7.3-16.4-15.6-35.6C2777.2,3019.5,2769.5,3051,2746.2,3074.1z"/>
		<path class="Graphic_x0020_Style_x0020_219" d="M2787,2988c-14.8-34.4-36-84.9-44.3-111.7c-3.5-11.3-9.7-15-16.9-14.3
			c17.6,54.8,34.8,110.5,47.8,167.2C2778.7,3016,2782.7,3002,2787,2988z"/>
		<path class="st8" d="M2725.8,2862c-19.5,1.9-46.2,35.2-46.2,35.2s37.9,120.5,34,165.4c-0.9,10.2-4.9,22.5-10.5,35.4
			c15.8,0.6,31.9-11.9,43.1-24c12.9-12.9,21-28.3,27.4-44.8C2760.6,2972.6,2743.5,2916.8,2725.8,2862z"/>
		<path class="Graphic_x0020_Style_x0020_218" d="M2238.9,2597.2c25.3-91.9,45.9-179.2,34.5-273.3c-16.9-158.7-2.7-315.5-7.5-472.2
			l-17.2,11.5c0,6-51.4,943.2-60,1068.5c6-1.4,11.4-2.5,16.3-3.3c10.8-30.5,17.1-62.1,20.2-94.7
			C2229.7,2753.4,2215.9,2673,2238.9,2597.2z"/>
		<path class="Graphic_x0020_Style_x0020_218" d="M2424.9,2218.2c5.2,31.3,10.4,60.1,11.7,90.1l25.2-122.5l20.1-107.4
			c1.8-32.7,2.2-65.4,2.9-98.1C2426.2,2042.4,2405.2,2129.5,2424.9,2218.2z"/>
		<path class="st9" d="M2516.1,1769.3c-12.4-2.9-24.3-5.6-35.4-8c-35.1-7.7-60.8-12.8-60.8-12.8l-154.1,103.2
			c4.8,156.6-9.4,313.4,7.5,472.2c11.5,94.2-9.2,181.5-34.5,273.3c-23,75.8-9.2,156.2-13.8,236.6c-3.1,32.6-9.4,64.2-20.2,94.7
			c57-9.4,40.8,21.2,103.9,0.8l127.8-620.9c-1.2-30.1-6.4-58.8-11.7-90.1c-19.7-88.7,1.2-175.8,59.9-237.9
			c1.5-63.7,4.5-127.1,22.7-190.1C2509.9,1783,2512.6,1775.9,2516.1,1769.3z"/>
		<path class="st9" d="M2613.3,2087.3c18.7-95.5,54.2-189.1,30.4-282.5c-40.6-16.6-116.3-41.7-162.2-52.4l-0.7,8.8l-21.2,258.7
			c-2,18-3.5,36-4.5,54.2c0,0,2.9,52.6,6.8,111.7c1.8,26.8-1.1,242.5,16.9,305.3c15.2,53,82.4,47.1,138.9,5.1
			c-2.4-9.9-4.6-19.8-6.7-29.9C2583.4,2337.6,2588,2218.2,2613.3,2087.3z"/>
		<path class="Graphic_x0020_Style_x0020_218" d="M2647.5,2469.4c9.6-201.7,25.8-399.7,34-423.5c25.9-75.1,37.3-204-18-232.3
			c-4.8-2.5-11.6-5.5-19.9-8.8c23.8,93.4-11.7,187-30.4,282.5c-25.3,130.9-29.9,250.4-2.3,379c2.1,10.1,4.3,20.1,6.7,29.9
			C2628.1,2488.4,2638.2,2479.5,2647.5,2469.4z"/>
		<path class="st9" d="M2611,2466.3c-3.8-18-7-35.7-9.7-53.4c-61-33.2-106-19.5-122.6,78.2c77.5,201.1,171.3,442.9,176.3,449.5
			c46.5-33.9,57.8-20,86-35.3c-13-14.9-19-35.1-22.1-53.2C2698.3,2714.3,2638.5,2601.8,2611,2466.3z"/>
		<path class="Graphic_x0020_Style_x0020_218" d="M2642.6,2440.4c-14.4-11.1-28.2-20.4-41.3-27.5c2.6,17.7,5.8,35.4,9.7,53.4
			c27.6,135.5,87.3,248.1,108,385.9c3,18.2,9.1,38.3,22.1,53.2c6.3-3.4,13.3-8.2,21.8-15.3
			C2752.1,2855.2,2695.3,2644.7,2642.6,2440.4z"/>
		<path class="Graphic_x0020_Style_x0020_79" d="M2386.6,1218c-28.6,3.2-49,6.5-49,6.5s-18.3,152.4-18,157.1
			c0.3,4.7-7.6,283.7-23.6,436.7c13.5,13.5,44.7,27.7,79.5,36.8c19.3-35.3,24.7-77.4,26.4-114.7
			C2410.9,1565.6,2426.4,1388.6,2386.6,1218z"/>
		<path class="Graphic_x0020_Style_x0020_84" d="M2553.6,1224.5c-29.6-18.2-112.9-12.6-166.9-6.5c39.8,170.7,24.3,347.7,15.3,522.5
			c-1.7,37.2-7.1,79.4-26.4,114.7c20,5.2,41.1,8.8,60.7,9.5c56.8,2.2,116.9-4.4,126.3-4.9C2581,1858.8,2598.9,1252.2,2553.6,1224.5z
			"/>
		<path class="st8" d="M2364.4,1233.3c-1.9-4.4,32.4-46.6,24.5-79.3c-34.3,9.1-73.3-52.3-68.9-113c4.4-60.8,24.9-92.2,87.5-104.5
			c62.6-12.3,45.5,164.6,63.4,215.2c17.9,50.5,47.2,76.5,47.2,76.5S2386.8,1286.7,2364.4,1233.3z"/>
		<path class="Graphic_x0020_Style_x0020_47" d="M2433.5,1129.7c0,0-33.7,20.6-44.6,24.3c1,14.9,0,22,0,22
			S2432,1142.9,2433.5,1129.7z"/>
		<g>
			<polygon class="Graphic_x0020_Style_x0020_83" points="985.6,2005.1 1215.3,1975.7 1252.3,2241.3 1004.7,2281.2 			"/>
			<polygon class="Graphic_x0020_Style_x0020_83" points="944.1,2266.8 1004.7,2281.2 985.6,2005.1 951,1998.3 			"/>
			<polygon class="st10" points="1185.1,1968.1 951,1998.3 985.6,2005.1 1215.3,1975.7 			"/>
		</g>
		<path class="st11" d="M2163.1,1368.3c40.7,28.3,86.9,36.2,133.2,46.7l33.5-177c0,0-154.2,25.8-169.9,18.3
			c-15.7-7.6-117.4-166.2-117.4-166.2c-3.9-6.2-12.6-8.4-22.2-6.8c-0.5,18.1,3.5,34.8,18.8,48.5c-15.3-13.6-19.3-30.4-18.8-48.5
			c-17.1,2.8-36.9,17.7-37.3,43.4c1.1,2.5,2.1,5,3.3,7.4C2027.6,1223.6,2075.8,1310.9,2163.1,1368.3z"/>
		<path class="Graphic_x0020_Style_x0020_80" d="M2163.1,1368.3c-87.3-57.4-135.5-144.7-176.9-234.3c-1.2-2.3-2.2-4.8-3.3-7.4
			c-0.1,4.4,0.4,9.1,1.6,14.1c0,3.8,65.1,193.6,111.7,221.9c46.6,28.3,193.9,85,193.9,85l6.2-32.7
			C2250,1404.5,2203.8,1396.7,2163.1,1368.3z"/>
		<path class="Graphic_x0020_Style_x0020_27" d="M1991.7,1112c-4,6.3-6.2,12.4-5.9,16.2c1,10.6,2.9,12.1,11.1,14
			c1.8,0.4,4,0.9,6.5,1.5c15.4-0.4,24.2-8.8,29.2-18.6c-8.7-10.6-11.9-22.8-12.3-35.7C2008.7,1091.6,1998,1102,1991.7,1112z"/>
		<path class="Graphic_x0020_Style_x0020_27" d="M2036.2,1116.2c3.5-11.4,3.2-22,3.2-22c-2.6-2-5.2-3.4-7.8-4.3
			c-3.8-1.2-7.5-1.3-11.2-0.6c0.4,12.9,3.6,25.1,12.3,35.7C2034.1,1122.2,2035.3,1119.2,2036.2,1116.2L2036.2,1116.2z"/>
		<path class="st11" d="M2387.4,1364.6c-3.3-41.6-17.5-152.5-17.5-152.5s-84.7,33-96.5,34.7l1.4,159.5c20.2,12.4,25.9,41.8,33,63.1
			c18.4,55.1,25.3,110.3,13.8,167.7c-20.7,91.9-52.8,172.3-105.7,252.7c-2.8,5-4.1,10.2-4.9,15.4c29.3,13.2,80.5,30.7,111.2,9
			c44.8-31.6,66.1-143.1,70.8-200.7S2390.7,1406.2,2387.4,1364.6z"/>
		<path class="Graphic_x0020_Style_x0020_80" d="M2321.6,1637.1c11.5-57.4,4.6-112.5-13.8-167.7c-7.1-21.3-12.8-50.7-33-63.1l0,1.7
			c0.9,13,1.6,21.2,1.6,21.2s39.2,129.8,21.7,195c-17.5,65.2-109.5,269.6-109.5,269.6s8.9,5.2,22.4,11.3c0.7-5.3,2-10.5,4.9-15.4
			C2268.7,1809.4,2300.9,1729,2321.6,1637.1z"/>
		<path class="st11" d="M2467.6,1553.6c-0.7,19.6-0.6,43.8,0.8,70.4c42.3-15.8,86.8-34.9,133.3-28.2
			c-15.7-64.9-36.5-155.1,5.5-211.4c0.1-10.4,0.7-19.2,2-26c8.2-42,19.9-74.8,27.5-93.4c-43.9-28.9-95.9-41.4-146.3-55.9
			C2486.2,1264.2,2470.9,1464.5,2467.6,1553.6z"/>
		<path class="Graphic_x0020_Style_x0020_42" d="M2491.6,1194.6c0,0-0.4,5.2-1.1,14.4c50.4,14.5,102.4,27,146.3,55.9
			c4.6-11.2,6.8-15.6,6.8-15.6s-4.8-4-16.8-9C2589.9,1224.9,2509.2,1194.2,2491.6,1194.6z"/>
		<path class="Graphic_x0020_Style_x0020_80" d="M2574.2,1850.7c20.7,18.4,62,11.5,87.3,9.2c21.5-2.5,34.7-17.6,46.3-34.9
			c-13.8-20-35-38.1-44.5-81.4c-10.8-49.2-56.6-266.8-56.1-359.3c-42,56.3-21.2,146.5-5.5,211.4c-46.6-6.7-91,12.4-133.3,28.2
			c4,78.5,18.6,177.2,52.1,235.8C2542.3,1855.2,2563.7,1840.1,2574.2,1850.7z"/>
		<path class="st11" d="M2707.9,1825c-11.7,17.3-24.8,32.3-46.3,34.9c-25.3,2.3-66.6,9.2-87.3-9.2c-10.6-10.6-31.9,4.5-53.7,9
			c15.3,26.7,34.5,45.1,58.5,49.4c94.4,17,148.6-38.3,137.9-67.3C2714.6,1835.7,2711.5,1830.3,2707.9,1825z"/>
		<path class="Graphic_x0020_Style_x0020_80" d="M2487.1,1182.8l74.9,23l-31,65.3h-17.8l7.8,65.3c0,0-48.3,121-49.8,147.5
			C2468.9,1403.4,2481.6,1200.9,2487.1,1182.8z"/>
		<path class="Graphic_x0020_Style_x0020_39" d="M2418.9,1639.2c0.8,6.4,65.5,216,65.5,216l309.4-85.5l-69.3-200.5L2418.9,1639.2z"
			/>
		<polygon class="Graphic_x0020_Style_x0020_45" points="2418.9,1639.2 2521,1690.3 2679.5,1653.2 2724.8,1645.3 2717.8,1575.7 		
			"/>
		<path class="st8" d="M2663.8,1841.5c22-12,24.8-41.4,37.3-62.4l-40.8-2.2c0,0-33.1,36.4-43.4,43c-24.2,5.4-24.2,5.4-24.2,5.4
			s3.6,15.6,20.1,26.6C2629.9,1852.7,2647.4,1852,2663.8,1841.5z"/>
		<path class="Graphic_x0020_Style_x0020_219" d="M2701.1,1779.1c-12.5,21-15.3,50.4-37.3,62.4c-16.5,10.5-33.9,11.2-51,10.4
			c3,2,6.3,3.9,10.2,5.4c25.3,10.3,77.3-14.2,83.3-41.4c6-27.2,11.5-36,11.5-36L2701.1,1779.1z"/>
		<g>
			<path class="st11" d="M2707.5,1774.9c27.6-89.6,87.3-167.7,73.5-264.1c-11.5-82.7-50.5-156.2-108-215.9
				c-15.5-16.2-32.8-28.8-51.2-39l-37.1,113.7c14.9,49.6,94.7,102.8,119.9,158.4c-1.7,87-65.7,261.8-62.3,262.8
				c2.7,0.8,11.9,12.2,44.9,10.2C2696.4,1792.2,2704.2,1783,2707.5,1774.9z"/>
			<path class="Graphic_x0020_Style_x0020_42" d="M2812.8,1520.8c-39.2-218-186-280.4-186-280.4l-5,15.5
				c18.4,10.3,35.7,22.9,51.2,39c57.4,59.7,96.5,133.2,108,215.9c13.8,96.5-45.9,174.6-73.5,264.1c-3.2,8.1-11,17.3-20.1,26
				c8.6-0.5,18.8-1.9,30.9-4.6C2771.1,1751.2,2820.5,1563.3,2812.8,1520.8z"/>
		</g>
		<path class="Graphic_x0020_Style_x0020_219" d="M1114.7,1791.9l-15.8,3c0,0-6.9,54.9-15.7,76.9c-8.8,22-16.4,70.4-16.4,70.4
			l17.6-4.5C1071.5,1891,1108.1,1842.4,1114.7,1791.9z"/>
		<path class="Graphic_x0020_Style_x0020_219" d="M1151.9,1878.8c-14.6-5.5-31.5,3.5-40.9,10.9c-12.2,9.1-16.3,31.4-27.7,44
			c0.3,1.4,0.6,2.7,1,4.1l14.3-3.6c14.9-11.2,44.1,6,63.1,2.6C1157.4,1927.9,1154.2,1904.5,1151.9,1878.8z"/>
		<path class="st8" d="M1111.1,1889.7c9.3-7.5,26.2-16.4,40.9-10.9c-3.8-43.2-5.1-93.1-5.1-93.1l-32.2,6.2
			c-6.4,49-41,96.2-31.3,141.8C1094.8,1921.1,1098.9,1898.9,1111.1,1889.7z"/>
		<path class="st12" d="M1033.6,1990.6c0,0,13.5-39.7,38.6-47.9c25.2-8.2,94.6-14.6,94.6-14.6s17-4.7,30.5,47.5
			c-15.7,1.6-15.7,1.6-15.7,1.6s-8.8-34.3-19.8-35.3c-11-0.9-77.7,8.8-82.5,13.2c-4.7,4.4-12.6,34.3-12.6,34.3
			S1034.4,1999,1033.6,1990.6z"/>
		<path class="st13" d="M1205.3,1099.6c0.9,4.7-130.2,319.8-130.2,376.5c0,56.7-15.8,348.5-10.1,346.6c2.3-0.8,41.5,4.3,70-0.3
			c7.7-169.8,19.5-345.3,101.4-495.6C1224.1,1225.2,1205.3,1099.6,1205.3,1099.6z"/>
		<path class="st14" d="M1134.9,1822.4c9.6-1.5,17.9-4.2,23.2-8.5c17.4-51.3,33.7-207.2,42.5-245.6c22.7-99,43.9-106.8,45.3-120.6
			c1.7-16.4-3-65-9.6-120.9C1154.4,1477.1,1142.6,1652.6,1134.9,1822.4z"/>
		<path class="Graphic_x0020_Style_x0020_225" d="M1202.1,1232.6c-15.8,6.2,8.6,254.3,15.3,274.5c20.5-27.7,20.7-26.4,20.7-26.4
			L1202.1,1232.6z"/>
		<path class="st15" d="M1315.8,889.9c-1,50,3.8,101.7,1.5,133.7c4.2,5.3,20.1,7.8,38.8,8.7C1344.3,982.5,1357.6,916.1,1315.8,889.9
			z"/>
		<path class="st8" d="M1479.7,767.6c0,0-6.7-34.2-98.5-17.3c-52.4,9.6-64.1,73.1-65.4,139.6c41.8,26.2,28.4,92.6,40.3,142.4
			c32.8,1.7,73.9-1.2,73.9-1.2l-7.2-63.9c0,0,0,0,54.4-2.4C1531.6,962.5,1479.7,767.6,1479.7,767.6z"/>
		<path class="Graphic_x0020_Style_x0020_219" d="M1388.3,957.9c0,0,24.6,9.7,34.5,9.3c2.9,25.6,2.9,25.6,2.9,25.6
			S1388.8,969.5,1388.3,957.9z"/>
		<path class="Graphic_x0020_Style_x0020_27" d="M1352.8,3070c0,0-0.5,45.9,9.1,50.1c35,15.5,95.3-2.2,99.6,24.7
			c5.4,34.2-93.6,85-148,61c-3.2,13.1-3.2,13.1-3.2,13.1s-64.7,3.4-70-4.5c-11.5-51.7,1-137.2,9.7-144.3
			C1258.7,3062.9,1352.8,3070,1352.8,3070z"/>
		<path class="Graphic_x0020_Style_x0020_220" d="M1462.7,2092.7c7.8,104.6-69.1,997.6-89.9,995.4c-27.7-3-42.8-1.3-58.7-0.5
			c-10.6,0.5-21.6,0.6-37-1.4c-3.3-0.4-6.8-0.9-10.5-1.6c-2.2-0.4-4.4-0.8-6.8-1.2c-7.3-1.4-14.4-2.8-21.5-4.2
			c-1.7-90.1-11.5-701-25.9-939.9c-2.9-48.1-6-81.2-9.2-91.9c-22.5-74-22.5-127.5-18-160.6c1-7.3,2.2-13.5,3.4-18.8
			c3.4-14.3,6.9-21.5,6.9-21.5s6.6-1.3,18.2-3.4c1.9-0.3,3.8-0.7,5.9-1.1c7.6-1.4,16.7-3.1,27-5c11.3-2.1,24.2-4.4,38.1-6.9
			c119.5-21.4,318.1-54.6,329-41.6c0.8,1,1.5,3,2,5.9c0.4,2.5,0.8,5.7,1,9.6c0.5,8.4,0.6,19.8,0.6,34.4
			C1617.5,1879.3,1456.3,2006.8,1462.7,2092.7z"/>
		<path class="Graphic_x0020_Style_x0020_218" d="M1271.6,3057.5c-2.9,6.3-4.3,16-5,27.1c-2.2-0.4-4.4-0.8-6.8-1.2
			c-7.3-1.4-14.4-2.8-21.5-4.2c-1.7-90.1-11.5-701-25.9-939.9c-2.9-48.1-6-81.2-9.2-91.9c-22.5-74-22.5-127.5-18-160.6
			c1-7.3,2.2-13.5,3.4-18.8c3.4-14.3,6.9-21.5,6.9-21.5s6.6-1.3,18.2-3.4c1.9-0.3,3.8-0.7,5.9-1.1c7.6-1.4,16.7-3.1,27-5
			c-6.7,62.7-14.6,177.1,5.7,254.3C1281.5,2202.8,1283.4,3031.6,1271.6,3057.5z"/>
		<path class="Graphic_x0020_Style_x0020_27" d="M1586.8,3088.1c0,0-0.5,45.9,9.1,50.1c35,15.5,110.8,18.2,115.1,45.1
			c5.4,34.2-109.1,64.6-163.5,40.6c-3.2,13.1-3.2,13.1-3.2,13.1s-64.7,3.4-70-4.5c-11.5-51.7,2.8-118.6,11.5-125.7
			C1494.6,3099.7,1586.8,3088.1,1586.8,3088.1z"/>
		<path class="Graphic_x0020_Style_x0020_220" d="M1626.7,1803.2c-3.3,0.3-6.7,0.7-10,1.1c-159.4,17.3-279.9,50-279.9,50l-3.8,186.9
			c2,9.8,5.9,18.7,10.3,27.2c14.2,2.5,28,5.3,38.7,12c11.5,9.2,27.6,20.7,34.5,36.8c52.8,114.8,34.5,241.2,48.2,362.9
			c16.1,126.3,32.2,248.1,45.9,374.4c9.4,90.4,22,179.3,37.6,267.8c28,2.1,56.6,2.2,76.6-3.6
			C1633.5,2963.1,1648.4,1835,1626.7,1803.2z"/>
		<path class="Graphic_x0020_Style_x0020_218" d="M1464.8,2480.1c-13.8-121.7,4.6-248.1-48.2-362.9c-6.9-16.1-23-27.6-34.5-36.8
			c-10.7-6.7-24.5-9.5-38.7-12c5.9,11.3,12.9,22,18.3,33.8c9.3,20.2,15.5,41.6,21.5,63c14.2,50.9,24.7,103,28.8,155.8
			c0.5,6.6,51.5,790.4,47.9,790.1c12,1.3,49.7,8.4,88.5,11.3c-15.6-88.6-28.2-177.4-37.6-267.8
			C1497,2728.1,1480.9,2606.4,1464.8,2480.1z"/>
		<path class="Graphic_x0020_Style_x0020_216" d="M1634.9,1837.7c-31.7,11-140,43.3-252.1,67.4c-106.3,22.8-174-5.7-197.4-19.4
			c1-7.2,3.9-15.9,5.1-21.2c9.9-8.5,25.4-15.9,33.6-22.5c4.1-3.3,7-5.4,7.7-5.6c0.7-0.1,23.4-2.6,57.4-6.3
			c102-11.1,314.6-35.8,339.1-38.4C1629.6,1799.8,1634.9,1816.5,1634.9,1837.7z"/>
		<path class="Graphic_x0020_Style_x0020_212" d="M1271.7,1061.2c0,0,23.3-45.3,35.9-51c12.6-5.7,127.8-1.3,141.6,16.7
			c18.3,63.3,18.3,63.3,18.3,63.3L1271.7,1061.2z"/>
		<path class="Graphic_x0020_Style_x0020_89" d="M1400.5,1584.3c-85-13.8-121.7-94.2-140.1-176.9c0-9.2-11.5-13.8-11.5-23
			c-25.4-109.6-27.5-219.2-7.7-327.4c-23.1,17.1-43.4,44.1-49.1,86.6c-15.1,113.3,59.7,302.6,17.3,514.1
			c-42.5,212.5-42.5,212.5-42.5,212.5s107.6,35.9,221.9,19.8c114.2-16.1,253-74.6,253-74.6s-7.4-104.6-18.1-225.9
			C1553.7,1605.8,1474.9,1593.6,1400.5,1584.3z"/>
		<path class="Graphic_x0020_Style_x0020_89" d="M1448.7,1308.6c42.1,46.5,98,71.8,156.6,91.7c-9.9-89.2-20.3-161.5-29.4-176
			c-21-33.5-64.4-118.2-114.1-159.5C1411,1136.1,1387.9,1243.3,1448.7,1308.6z"/>
		<path class="st13" d="M1448.7,1308.6c-60.8-65.3-37.7-172.5,13-243.8c-14.1-11.7-28.6-19.9-43.4-22.6
			c-24.5-4.4-92.2-14.8-92.2-14.8s-46.4,1.1-85,29.6c-19.8,108.2-17.7,217.8,7.7,327.4c0,9.2,11.5,13.8,11.5,23
			c18.4,82.7,55.1,163.1,140.1,176.9c74.4,9.3,153.2,21.6,223.2,5.2c-5.5-62.6-11.8-129.7-18.4-189.2
			C1546.7,1380.4,1490.8,1355.1,1448.7,1308.6z"/>
		<path class="Graphic_x0020_Style_x0020_88" d="M1511.4,1686.9c6.3,35.8,17.1,93.4,21.4,98c6.1,6.6,75.1-26,80.3-38.7
			c2.7-6.8,0.2-42.3-2.7-73.8C1576.5,1691.7,1541.4,1713.2,1511.4,1686.9z"/>
		<path class="Graphic_x0020_Style_x0020_225" d="M1506.8,1658.7c0,0.7,1.9,12.3,4.7,28.2c29.9,26.3,65.1,4.8,98.9-14.5
			c-2.5-27.2-5.4-51.4-5.4-51.4L1506.8,1658.7z"/>
		<path class="Graphic_x0020_Style_x0020_88" d="M1616.4,1313.2c-75.4-25.1-144.4-58.4-217.8-83.4
			c81.7,71.9,311.8,153.6,340.7,145.5c31.5-8.8,183.2-218.5,182.5-228.5c-0.3-5.1-14.1-24.1-27.5-41.4
			c-28.9,61.9-57.5,121.4-101.1,173.4C1749.6,1333.9,1678.4,1333.9,1616.4,1313.2z"/>
		<path class="st13" d="M1714.7,1203.1c0,0-7.1-4.2-76.5-28.3c-69.4-24.1-190.9-120.7-190.9-120.7l-66.7,156.9
			c4.7,6.2,10.8,12.5,18,18.9c73.4,25,142.3,58.2,217.8,83.4c62,20.7,133.2,20.7,176.9-34.5c43.7-52,72.3-111.5,101.1-173.4
			c-12.8-16.6-25.3-31.6-25.3-31.6L1714.7,1203.1z"/>
		<path class="Graphic_x0020_Style_x0020_219" d="M2009.2,1118c-11.5-23-20.7-45.9-34.5-68.9c-4.7-7.8-11.5-14.6-17.6-22.5
			c3,27.8,10.9,55,24.6,71.5c4.4,5.3,7.6,9.9,9.9,14c9.9,17.2,3.7,23.6,3.7,23.6c0.3,2.5,0.9,4.7,1.6,6.6c1.8,0.4,4,0.9,6.5,1.5
			c3.3-0.1,6.4-0.6,9.1-1.4C2013.2,1133.6,2012.8,1125.2,2009.2,1118z"/>
		<path class="st8" d="M2028.7,995c-1.5,2.1-3.2,5.2-5.3,9.7c-4,9-3.6,14.2-5.7,14.9c-3.2-21.2-6.3-44.3-8-62.9
			c-3.8-42.2-13.9-40.9-24.2-40.6c-10.4,0.3-21.7,14.8-27.7,55.1c-2.5,16.5-2.8,36.1-0.7,55.4c6.1,7.9,12.9,14.7,17.6,22.5
			c13.8,23,23,45.9,34.5,68.9c3.6,7.2,4.1,15.6,3.4,24.3c9.9-2.8,16.1-9.6,20.1-17.2C2003.7,1089.6,2035.4,1037.3,2028.7,995z"/>
		<path class="st15" d="M2036.2,1116.2c0,0-2.1-13.9-4.7-26.3c-0.5-2.2-0.9-4.3-1.4-6.3c1.6-3.3,2.9-7.5,2.5-12.6
			c-0.9-12.7,2-34.6,3.4-50.8c1.7-16.2,0.7-36.2-7.3-25.3c6.7,42.3-25,94.7,3.9,130.1C2034.1,1122.2,2035.3,1119.2,2036.2,1116.2
			L2036.2,1116.2z"/>
		<path class="Graphic_x0020_Style_x0020_225" d="M1978.6,918.4c0,0,10.2,19.2,1.2,79.3c-9,60-14,70-14,70s-8.2-20.1-8.7-21.5
			c-0.5-1.4-3.2-86.8-3.2-86.8L1978.6,918.4z"/>
		<path class="st15" d="M1915.8,900.1c-3.1,21.8-4.2,45.6-4.2,45.6s-6.6-23.6-11.3-23.3c-1.1,0.1-1.9,2.6-2.4,7
			c5.9,9.1,8.4,21.8,14.8,32.5C1919.4,945.1,1923.6,916.4,1915.8,900.1z"/>
		<path class="st8" d="M1961,895.2c-4.1-16.4-22.9-29.2-39.9-20.2c-2.2,6.6-3.9,15.7-5.2,25.1c7.8,16.3,3.6,45-3.1,61.7
			c-6.4-10.7-8.9-23.4-14.8-32.5c-1.7,14.7-0.3,50.1,4.8,81.2c6.6,40.3-8.2,48.5-8.8,50.1c0,0,16.9,19.7,27,31.1
			C1981.3,1050.8,1979.4,962.9,1961,895.2z"/>
		<path class="Graphic_x0020_Style_x0020_219" d="M1927.9,864.7c-2.7,0.4-5,4.3-6.9,10.2c17.1-8.9,35.8,3.8,39.9,20.2
			c18.5,67.7,20.4,155.6-40,196.5c4.3,4.8,7.3,8.2,7.3,7.9c0-0.9,17.9-13.2,25.5-23c7.6-9.8,19.8-19.8,24.5-111.7
			C1983,872.9,1940.5,862.8,1927.9,864.7z"/>
		<path class="Graphic_x0020_Style_x0020_212" d="M1854,1068.7c3.1,2.5,81.2,109.5,81.2,109.5s18.9-47.2,8.2-73
			c-10.7-25.8-52.2-60.4-52.2-60.4L1854,1068.7z"/>
		<path class="st7" d="M1333.9,927.3c27.6-23,25.3-64.3,16.1-98.8c-2.3-9.2,2.3-16.1,9.2-20.7c49.1-29.5,116.7-42.2,146.7-91.2
			c-17.6-13-40.8-13.3-67.7-14.8c-31.9-1.8-156.4,26.3-165.3,95.2c-8.9,68.9,21.6,122.8,21.6,122.8c1.1,0.3,2.2,6.8,5.2,13.1
			C1312.1,934.8,1324,934.8,1333.9,927.3z"/>
		<path class="Graphic_x0020_Style_x0020_216" d="M1505.9,716.7c-30,49.1-97.6,61.8-146.7,91.2c-6.9,4.6-11.5,11.5-9.2,20.7
			c9.2,34.5,11.5,75.8-16.1,98.8c-9.9,7.4-21.8,7.5-34.3,5.7c4,8.4,11.4,16.5,27,9.4c27.5-12.4,63.9-15.7,63.9-30.5
			c0-14.8-38.4-56.8-23.7-69.2c14.8-12.4,35.8-3.8,40.2,8c4.4,11.8,15.4-7.7,15.4-7.7s-19.5-18.6,0-30.5
			c19.5-11.8,92.7-64,92.7-87.1C1512.3,722,1509.2,719.1,1505.9,716.7z"/>
		<path class="st14" d="M1506.8,1658.7l101-50.1c0,0,12.7,28.1,8.5,37.8c-4.2,9.7-72.9,48.1-82.1,45.3
			C1524.9,1689,1506.8,1658.7,1506.8,1658.7z"/>
		<path class="Graphic_x0020_Style_x0020_209" d="M1574.7,1882c0,0,34,73.7-22.7,114"/>
		<path class="st7" d="M2312.8,948.5c0,0,19.5,54.8,95,28.3c2.2,47.2,25.7,86.9,54.8,97.6c23.2,8.5,12.6,113.3,28.9,120.3
			c4.9-2.5,55.2,7.6,58.3,0c21.7-52.9-43.6-227.9-64-258.7c-23.3-35.3-63.5,0-72.9,0c-6.8,0-36.3-21.5-63.1-17.9
			C2339.8,919.4,2312.8,948.5,2312.8,948.5z"/>
		<path class="st8" d="M1077.4,1960.2c0.9,0.6,2.8,10.6,27.5,5.4c24.7-5.1,56.8-3.9,60.4-12c6.3-14.1,8.6-39.5-3.6-43.3
			c-18.4-5.7-57.6,14.9-69.9,17.7C1071.5,1932.7,1077.4,1960.2,1077.4,1960.2z"/>
		<path class="st16" d="M959.2,2016.1c-0.5,4.2-8.2,252.4-8.2,252.4s49.4,11.7,48,11.4c-1.3-0.3-20-266.6-20-266.6L959.2,2016.1z"/>
	</g>
	<path class="Graphic_x0020_Style_x0020_80" d="M2373.4,1201.5c0,0-67.7,34.8-64.4,33.6c3.3-1.2,19.7,60.1,19.7,60.1h15.1l-6,46.5
		c0,0,53,98.4,53.6,118.4C2395.8,1398.6,2388.5,1219.6,2373.4,1201.5z"/>
	<g>
		<path class="st17" d="M2989.1,1947.5c-8.6-68.5-15.9-126.5,16-152c1.9-1.5,21.5-16.7,45-11c23.6,5.7,34.3,28.4,36,32
			c-11.7-72.1,2.8-127.3,31-137c12.2-4.2,31.2-1.3,45,10c20.1,16.5,19.2,42.7,19,46c3-19.5,16.6-94.3,70-120
			c10.6-5.1,30.9-14.9,47-5c18.4,11.3,17.1,39.7,17,42c26.5-48,66.6-71.4,94-62c12.4,4.2,23.3,15.6,27,29c6.5,23.9-10.2,54.4-44,71
			c19.7-1.1,37.6,6.8,46,21c13.6,23.1-5,50.6-8,55c-18.7,27.7-59.2,38.9-103,31c35.9,28.6,52.7,63.3,43,87
			c-6.3,15.3-22.2,22.4-40,30c-18.1,7.7-54.8,19.8-107,12c32,17,53.6,40.8,51,62c-3.6,28.3-49.2,40.6-84,50
			c-25.3,6.8-139.9,37.7-183.9-19C2996.7,2007.4,2994.2,1987.4,2989.1,1947.5z"/>
		<path class="st18" d="M2902.1,2046.8c24.8,14.2,56.4,9.4,82.5-2.1c49.1-21.6,86.1-63.7,116.8-107.6s57.1-91.3,93.4-130.8
			c34.3-37.4,76.5-66.6,113.8-100.9c28.2-25.9,53.6-54.8,75.8-86"/>
		<path class="st18" d="M3041.3,1856.7c29,45.4,38.3,97.3,8.7,142.3"/>
		<path class="st18" d="M3077.2,1970c37.5-19.1,112.2,13.5,150.8,7.9"/>
		<path class="st18" d="M3135.4,1886.1c16.2-47.4,4.9-91.7,8.1-132.2"/>
		<path class="st18" d="M3263.8,1662.2c-3.4,36.5-12.8,72.5-27.9,105.9"/>
		<path class="st18" d="M3278.9,1731.5c34.5-12.8,73.3-13.6,108.4-2.3"/>
		<path class="st18" d="M3163.5,1844.9c38.6-19.3,83.9-21.5,124.2-6"/>
	</g>
	<g>
		<path class="st19" d="M3054.1,2131.9c75.8,61.4,87.3,97.9,121.5,98.5c21.3,0.4,46.4-13.2,52.8-34.8c7.9-26.7-17-51.7-18.3-52.9
			c74.1,52.8,143.6,63.7,167.6,37.8c11.4-12.3,18.7-39.7,9.6-64.3c-7.1-19.2-21.5-29.9-27.9-34c83.7,15.8,147.9,7.2,158.7-20.7
			c4.2-10.9,3.2-32.5-9.8-48.3c-10.5-12.8-24.8-16.7-30.8-18c53.6-3.8,87.1-37.7,85.3-66.1c-1.1-17.6-16-34-32.8-41.1
			c-23.5-9.8-52.5-2.1-70.8,20.2c1.1-2.4,16.6-38.3,0.2-57.8c-17.9-21.2-62.1-9-86.5,10.1c-24.3,19-31,46.2-32.9,56
			c1-4,9.8-42.9-11.4-62c-29.1-26.2-86.4,10.2-90,12.5c-51.9,33.8-58.5,98.9-59.6,112c-11.2-39.7-38.8-66.5-66.3-66.8
			c-34.4-0.4-55.7,40.8-67.3,63.1c-28.3,54.6-20.3,110.9-13.9,139C3036.5,2118.1,3044.5,2124.1,3054.1,2131.9z"/>
		<path class="Graphic_x0020_Style_x0020_95" d="M3511.2,1931.9c-49.7,14.5-97.6,35.2-142.1,61.6c-64.2,38-123.2,88.4-195.5,106.6
			c-22,5.6-44.7,7.9-67.3,10.3c-25.8,2.7-52.1,5.4-77.4,0.2c-23.6-4.8-45.5-16.3-64.2-31.4"/>
		<path class="Graphic_x0020_Style_x0020_95" d="M3090.4,2112.9c3.2-1.7,5.5-4.7,7.5-7.7c11.7-18.1,13.1-40.8,12.6-62.3
			s-2.4-43.6,4-64.1"/>
		<path class="Graphic_x0020_Style_x0020_95" d="M3272.3,2055.9c17.1-18.9,19.9-46.5,20.6-72c0.7-25.5,0.5-52.5,13.7-74.4"/>
		<path class="Graphic_x0020_Style_x0020_95" d="M3348.5,2007c10.8-8.7,26.9-7.2,39.5-1.3s23.1,15.4,35.1,22.4
			c12,7,26.9,11.4,39.7,5.9"/>
		<path class="Graphic_x0020_Style_x0020_95" d="M3399.6,1977c3.8-1.8,7.7-3.7,10.7-6.7c4.5-4.4,6.7-10.7,8.2-16.9
			c3.2-12.7,4.2-25.8,7-38.6c2.8-12.8,7.7-25.6,17-34.7"/>
		<path class="Graphic_x0020_Style_x0020_95" d="M3202.3,2091.8c10.2-1.7,20.5-3.5,30.8-2.6c19.8,1.6,37.4,12.5,54.6,22.4
			c17.2,9.9,36.1,19.3,55.9,17.5"/>
		<path class="Graphic_x0020_Style_x0020_95" d="M3177.5,2165.3c-1.3-14.2-7.5-27.8-17.3-38.1s-23.1-17.2-37.2-19.2"/>
	</g>
	<g>
		<path class="st17" d="M3019,2043.3c12.6-52.9,28.2-67.5,20.3-84.8c-4.9-10.8-17.8-20.2-30.2-18.2c-15.3,2.5-21.9,21-22.2,21.9
			c8.7-49.9-2.5-87.6-21.4-93.4c-8.9-2.8-24.4,0.1-34.7,10.6c-8,8.2-9.8,18-10.4,22.2c-12.2-45.9-32-76.1-48.6-74.8
			c-6.5,0.5-17.1,6.2-21.9,16.6c-3.9,8.4-2.4,16.5-1.6,19.8c-14.8-26-39.9-34.7-53.8-27c-8.6,4.8-13.3,16.2-12.8,26.4
			c0.7,14.2,11.6,26.9,27.2,30.7c-1.4,0-23.3,0.9-29.1,13.8c-6.4,14.1,10.4,33.4,25.9,41.1c15.4,7.7,30.7,4.5,36.1,3.1
			c-2.3,0.5-23.9,5.4-28.4,20.7c-6.2,21,25.9,41,28,42.3c29.5,17.9,63.8,5.6,70.7,3c-17.2,15.2-24.1,35.5-17.6,49.4
			c8.1,17.4,33.9,18.2,47.9,18.6c34.3,1.1,60.6-16.5,73.2-26.5C3016.3,2055.5,3017.4,2050,3019,2043.3z"/>
		<path class="Graphic_x0020_Style_x0020_34" d="M2808.4,1861.6c19.2,21.5,41.2,40.6,65.2,56.7c34.5,23.1,74.1,40.7,100.7,72.6
			c8.1,9.7,14.8,20.6,21.4,31.4c7.6,12.3,15.2,24.9,18.7,38.9c3.2,13,2.7,26.8-0.3,39.9"/>
		<path class="Graphic_x0020_Style_x0020_34" d="M3000.7,2030.6c-1.6-1.2-34-9.9-64.4,25.6"/>
		<path class="Graphic_x0020_Style_x0020_34" d="M2928.3,1951.8c-13.6-4.1-28.2,1.2-41.2,7c-13,5.8-26.5,12.4-40.7,11"/>
		<path class="Graphic_x0020_Style_x0020_34" d="M2885.3,1925.3c-7-3.3-10.1-11.8-10.2-19.5c-0.1-7.7,2.2-15.3,2.8-23
			s-0.8-16.3-6.6-21.4"/>
		<path class="Graphic_x0020_Style_x0020_34" d="M2858,1906.9c-1.8-1.5-3.7-3-6-3.8c-3.3-1.2-7-0.8-10.5-0.1
			c-7.1,1.5-14,4.1-21.1,5.8c-7.1,1.7-14.7,2.3-21.6-0.2"/>
		<path class="Graphic_x0020_Style_x0020_34" d="M2963.2,1978.4c-3.3-4.7-6.7-9.5-8.8-14.9c-3.9-10.3-2.7-21.8-1.9-32.8
			c0.8-11,1-22.8-4.7-32.3"/>
		<path class="Graphic_x0020_Style_x0020_34" d="M3006.1,1973.2c-6.8,4.1-12.2,10.5-15,17.9c-2.8,7.4-2.2,16.5,0.2,24.1"/>
	</g>
	<g>
		<path class="st20" d="M2945.8,2042.1c-74.6-30-92.4-56-119.5-48.3c-16.9,4.8-33.4,21.7-33.2,40.2c0.2,22.9,25.9,36.6,27.2,37.3
			c-71.1-23.7-128.5-15.5-141.2,10.8c-6,12.5-5.2,35.8,7.9,53c10.2,13.4,24.2,18.3,30.2,20c-69.8,7.8-118.2,30.1-120,54.6
			c-0.7,9.6,5.4,26.4,19.4,35.6c11.4,7.5,23.6,7.2,28.6,6.7c-41.3,16-59.5,50.8-51.3,72.7c5.1,13.6,20.8,23,35.8,24.4
			c20.9,2.1,41.8-11.1,50.9-33c-0.3,2.1-3.9,34.2,13.8,45.6c19.2,12.4,51.1-7.9,65.7-28.8c14.6-20.8,13.3-43.9,12.4-52
			c0.2,3.4,2.7,36.1,24,46.1c29.3,13.6,65.6-28.9,67.9-31.6c32.7-39.1,22.2-92.1,19.9-102.7c18.4,28.5,46.7,43,68.4,36.6
			c27.2-8,34-45.6,37.7-66c9.1-49.9-10.8-92.2-22.6-112.8C2963,2048.7,2955.2,2045.9,2945.8,2042.1z"/>
		<path class="Graphic_x0020_Style_x0020_95" d="M2634,2310.1c35.7-23.4,68.4-51.3,97.1-82.9c41.4-45.4,75.7-99.4,128.2-131.2
			c16-9.7,33.3-17.1,50.5-24.4c19.7-8.4,39.7-16.8,61-18.9c19.7-1.9,39.8,1.9,58.2,9.2"/>
		<path class="Graphic_x0020_Style_x0020_95" d="M2923.2,2066c-2.1,2.1-21.9,47.5,23.2,99.7"/>
		<path class="Graphic_x0020_Style_x0020_95" d="M2792.2,2154.7c-8.9,19-4.5,41.4,1.2,61.7c5.6,20.3,12.3,41.5,7.2,61.9"/>
		<path class="Graphic_x0020_Style_x0020_95" d="M2744.1,2211.7c-6.4,9.5-19.5,12.2-30.8,10.6c-11.3-1.6-21.9-6.6-33-9.2
			s-24-2.5-32.7,4.9"/>
		<path class="Graphic_x0020_Style_x0020_95" d="M2711,2247.6c-2.6,2.4-5.2,4.8-6.8,7.9c-2.5,4.6-2.7,10.1-2.4,15.3
			c0.6,10.8,2.9,21.3,3.8,32.1c0.9,10.7,0.1,22-5,31.5"/>
		<path class="Graphic_x0020_Style_x0020_95" d="M2838.7,2109.5c-7.6,3.8-15.3,7.7-23.7,9.5c-16,3.5-32.5-0.8-48.4-4.4
			c-15.9-3.6-33.1-6.4-48.3-0.3"/>
		<path class="Graphic_x0020_Style_x0020_95" d="M2840.4,2045.6c4.5,10.8,12.6,20.1,22.8,25.9c10.2,5.8,23.6,6.9,35.2,5.1"/>
	</g>
	<g>
		<path class="st20" d="M3020.2,2101.7c66.9-15,92.1-5.4,107.3-24c9.5-11.6,13-31.4,3.9-44.3c-11.3-16-35.9-13.2-37.1-13
			c61.4-17.8,97.8-51.4,94-76c-1.8-11.7-13.7-27.6-31.3-33.4c-13.7-4.5-25.9-1.2-30.9,0.5c45.3-39.3,68.5-78.4,57.8-96.5
			c-4.2-7.1-16.5-15.9-30.9-15.7c-11.7,0.2-20.1,6.4-23.4,9.1c21.3-31.2,17.2-64.5,0.8-75.9c-10.2-7.1-25.7-6-37,0.2
			c-15.7,8.7-24,28-19.8,47.8c-0.8-1.6-13.9-25.9-31.8-25.3c-19.5,0.6-32,30.3-32.2,52.1c-0.2,21.7,11.9,37.3,16.5,42.6
			c-1.8-2.3-19.4-24.1-39.2-20.7c-27.2,4.6-32.1,52.1-32.4,55.1c-4,43.3,29,75.4,35.7,81.8c-26.7-11.1-53.6-7.6-65.8,7.4
			c-15.2,18.8-1.8,48.5,5.5,64.6c17.8,39.4,40.8,61.1,59.1,69.8C2993.5,2106.8,3011.7,2103.6,3020.2,2101.7z"/>
		<path class="Graphic_x0020_Style_x0020_95" d="M3109.4,1762.4c-13.7,33.7-23.2,69.2-28.1,105.3c-7.1,52-5,106.5-26.5,154.3
			c-6.5,14.6-15.1,28.1-23.7,41.6c-9.8,15.4-27.1,34.2-41,46"/>
		<path class="Graphic_x0020_Style_x0020_95" d="M3025.5,2073.4c0.4-2.5-0.2-5.1-1-7.5c-4.9-14.3-16.8-25-28.9-34.1
			c-12.1-9.1-25.1-17.7-33.6-30.2"/>
		<path class="Graphic_x0020_Style_x0020_95" d="M3073.5,1948.2c-2.9-17.7-16.9-31.3-30.7-42.8c-13.8-11.5-28.7-23.2-35-40"/>
		<path class="Graphic_x0020_Style_x0020_95" d="M3079.7,1884.8c-0.1-9.8,7.8-18,16.5-22.3c8.7-4.4,18.6-6,27.7-9.6
			c9.1-3.6,18-9.9,20.6-19.3"/>
		<path class="Graphic_x0020_Style_x0020_95" d="M3085.5,1843.6c0.6-2.9,1.3-5.9,1-8.8c-0.4-4.4-3-8.4-5.7-11.9
			c-5.6-7.3-12.4-13.6-18.2-20.7c-5.8-7.1-10.8-15.4-11.7-24.5"/>
		<path class="Graphic_x0020_Style_x0020_95" d="M3062.7,2002.5c3.5-6.4,7-12.8,12-18.2c9.5-10.2,23.2-15.2,36.1-20.4
			s26.4-11.5,34-23.2"/>
		<path class="Graphic_x0020_Style_x0020_95" d="M3092.5,2048.2c-8.4-5.5-18.6-8-28.6-7.1c-10,0.9-19.6,5.2-26.8,12.1"/>
	</g>
	<g>
		<path class="st11" d="M880.2,1493.5l-202.2,141.6c0.7-1.9,43.9-126,79-229.6C806.9,1420.9,850,1452.2,880.2,1493.5z"/>
		<path class="st21" d="M677.9,1635.1c0.7-1.9,43.9-126,79-229.6c-22.4-6.9-46.1-10.6-70.8-10.6c-132.6,0-240.2,107.6-240.2,240.2
			c0,104.4,66.6,193.2,159.6,226.4L677.9,1635.1c0,0,0.4,0.4,1.3,1.2l0-2.1L677.9,1635.1z"/>
		<path class="st22" d="M880.2,1493.5l-201,140.8l0,2.1c11.5,11.1,99.1,96.1,173.6,171.7c45.3-43.7,73.5-105,73.5-172.9
			C926.3,1582.2,909.2,1533.2,880.2,1493.5z"/>
		<path class="Graphic_x0020_Style_x0020_210" d="M852.8,1808.1c-0.6,0.6-1.2,1.2-1.8,1.8c-43,40.6-101,65.5-164.9,65.5
			c-28.3,0-55.4-4.9-80.6-13.9l72.4-226.4C677.9,1635.1,772.9,1727,852.8,1808.1z"/>
	</g>
	<g>
		<path class="Graphic_x0020_Style_x0020_221" d="M3077.9,1360.2c-8,12.9-16.2,25.8-24.5,38.5c-4.3,6.5-9.1,12.8-13.1,19.5
			c-4.1,6.8-8.8,13.2-14.7,14.5c-5.9-1.3-10.6-7.7-14.6-14.5c-4-6.7-8.8-13-13.1-19.5c-8.4-12.7-16.5-25.6-24.5-38.5
			c-30.5-49.3-70.4-106.4-67.7-166.9c1.1-25.7,8.2-52.5,23.6-73.4c22.4-30.3,60.3-40.2,96.4-40.9c36.1,0.7,73.9,10.6,96.4,40.9
			c15.4,20.9,22.5,47.8,23.6,73.4C3148.3,1253.8,3108.4,1310.9,3077.9,1360.2z"/>
		
			<ellipse transform="matrix(1 -2.145662e-03 2.145662e-03 1 -2.5231 6.4997)" class="Graphic_x0020_Style_x0020_84" cx="3028" cy="1179.2" rx="58.4" ry="58.4"/>
	</g>
	<g>
		<path class="Graphic_x0020_Style_x0020_212" d="M1178.7,854.5l-19.4-42.3c2.6-3.7,4.2-8.3,4.2-13.2V647.2c0-12.7-10.3-23-23-23
			H853c-12.7,0-23,10.3-23,23V799c0,12.7,10.3,23,23,23h256c19.4,15.3,40.3,31.1,56.5,43.2C1172.7,870.7,1182.5,862.8,1178.7,854.5z
			"/>
		<g>
			<g>
				<path class="Graphic_x0020_Style_x0020_213" d="M911.2,719.4c0-7.4-6-13.4-13.4-13.4c-7.4,0-13.4,6-13.4,13.4s6,13.4,13.4,13.4
					C905.2,732.8,911.2,726.8,911.2,719.4z"/>
				<path class="Graphic_x0020_Style_x0020_213" d="M1004.7,719.4c0-7.4-6-13.4-13.4-13.4c-7.4,0-13.4,6-13.4,13.4s6,13.4,13.4,13.4
					C998.7,732.8,1004.7,726.8,1004.7,719.4z"/>
				<path class="Graphic_x0020_Style_x0020_213" d="M1105.9,722.5c2.2-9.8-6.3-18.3-16.1-16.1c-4.9,1.1-8.9,5.1-10,10
					c-2.2,9.8,6.3,18.3,16.1,16.1C1100.9,731.4,1104.8,727.4,1105.9,722.5z"/>
			</g>
			<g>
				<path class="Graphic_x0020_Style_x0020_78" d="M911.2,719.4c0-7.4-6-13.4-13.4-13.4c-7.4,0-13.4,6-13.4,13.4s6,13.4,13.4,13.4
					C905.2,732.8,911.2,726.8,911.2,719.4z"/>
				<path class="Graphic_x0020_Style_x0020_78" d="M1004.7,719.4c0-7.4-6-13.4-13.4-13.4c-7.4,0-13.4,6-13.4,13.4s6,13.4,13.4,13.4
					C998.7,732.8,1004.7,726.8,1004.7,719.4z"/>
				<path class="Graphic_x0020_Style_x0020_78" d="M1105.9,722.5c2.2-9.8-6.3-18.3-16.1-16.1c-4.9,1.1-8.9,5.1-10,10
					c-2.2,9.8,6.3,18.3,16.1,16.1C1100.9,731.4,1104.8,727.4,1105.9,722.5z"/>
			</g>
		</g>
	</g>
	<path class="st23" d="M3023.3,2429.2c-13.8,226.1,5.5,454.2-5.7,680.2c-2.3,57.4-20.7,130.9-80.4,151.6c-2.6,0.9-5.2,1.5-7.8,1.9
		v11.8c25,20.7,89.4,27.6,140.2,20.7v-866.2H3023.3z"/>
	<path class="st24" d="M3017.5,3109.4c11.2-226-8.1-454.1,5.7-680.2h-93.9v833.7c2.6-0.4,5.2-1,7.8-1.9
		C2996.9,3240.3,3015.2,3166.8,3017.5,3109.4z"/>
	<path class="st25" d="M3128.7,2429.2h-59.1v866.2c25.2-3.5,47.1-10.3,59.1-20.7V2429.2z"/>
	<rect x="2891" y="2421.4" class="st26" width="270.2" height="21"/>
	<rect x="2891" y="2573.5" class="st26" width="270.2" height="21"/>
</g>
</svg>
