<?xml version="1.0" encoding="utf-8"?>
<!-- Generator: Adobe Illustrator 22.0.0, SVG Export Plug-In . SVG Version: 6.00 Build 0)  -->
<svg version="1.1" id="Layer_1" xmlns="http://www.w3.org/2000/svg" xmlns:xlink="http://www.w3.org/1999/xlink" x="0px" y="0px"
	 viewBox="0 0 4000 4000" style="enable-background:new 0 0 4000 4000;" xml:space="preserve">
<style type="text/css">
	.st0{fill:url(#SVGID_1_);}
	.st1{fill:#102140;}
	.st2{fill:url(#SVGID_2_);}
	.st3{fill:#D1334A;}
	.st4{fill:#E8465A;}
	.st5{fill:none;stroke:#99112B;stroke-width:2;stroke-linecap:round;stroke-linejoin:round;stroke-miterlimit:10;}
	.st6{fill:none;stroke:#FFFFFF;stroke-width:2;stroke-linecap:round;stroke-linejoin:round;stroke-miterlimit:10;}
	
		.st7{clip-path:url(#XMLID_5_);fill:none;stroke:#FFFFFF;stroke-width:2;stroke-linecap:round;stroke-linejoin:round;stroke-miterlimit:10;}
	.st8{fill:#127755;}
	.st9{fill:none;stroke:#3DBE88;stroke-width:2;stroke-linecap:round;stroke-linejoin:round;stroke-miterlimit:10;}
	.st10{fill:#339E7E;}
	.st11{fill:none;stroke:#10663F;stroke-width:2;stroke-linecap:round;stroke-linejoin:round;stroke-miterlimit:10;}
	.st12{clip-path:url(#XMLID_6_);fill:#CFD6E8;}
	.st13{fill:#FFFFFF;}
	.st14{fill:#FFEBEB;}
	.st15{fill:#425373;}
	.st16{fill:none;stroke:#BFBEBA;stroke-width:2;stroke-linecap:round;stroke-linejoin:round;stroke-miterlimit:10;}
	.st17{fill:#572658;}
	.st18{fill:#FFB114;}
	.st19{fill:#DB6767;}
	.st20{fill:#FC9590;}
	.st21{fill:#EF5668;}
	.st22{fill:#5067EF;stroke:#1A1A1A;stroke-width:2;stroke-linecap:round;stroke-linejoin:round;stroke-miterlimit:10;}
	.st23{fill:#EF5164;}
	.st24{fill:#70222C;}
	.st25{fill:#F5F5F5;}
	.st26{fill:#C5CDDB;}
	.st27{fill:#FFDE70;}
	.st28{fill:#FFFFFF;stroke:#1A1A1A;stroke-width:2;stroke-linecap:round;stroke-linejoin:round;stroke-miterlimit:10;}
	.st29{fill:#EB485C;}
	.st30{fill:url(#SVGID_3_);}
	.st31{fill:url(#SVGID_4_);}
	.st32{fill:url(#SVGID_5_);}
</style>
<g>
	<linearGradient id="SVGID_1_" gradientUnits="userSpaceOnUse" x1="134.9772" y1="2061.4915" x2="3644.9839" y2="2061.4915">
		<stop  offset="0" style="stop-color:#68B2FC"/>
		<stop  offset="1" style="stop-color:#529BF7"/>
	</linearGradient>
	<path class="st0" d="M142.8,2040.2c-13.4,198.8,98,383.2,216.5,543.4c118.5,160.2,252.1,319.6,295.3,514.1
		c29.5,132.8,17.3,282.2,97.6,392.1c81.4,111.3,234.7,145.1,372.1,134.5c137.4-10.6,270.1-56.5,407.3-69.7
		c385.4-37.2,766.3,185.2,1148.5,123c350.7-57.1,639.8-379,659.1-733.9c163.3-177.6,282.3-405.9,302.1-646.4
		c19.8-240.4-42.7-486.9-174.7-688.8c94-131.6,76.8-301.5,2.8-438c-82.1-151.4-229.5-241.6-365-340
		c-286.7-208.3-588.1-356.1-944.1-388.6c-317.7-29-654.1,23.9-926.6,196.8c-40.2,25.5-78.7,53.4-115.2,83.9
		c-84.5,70.4-108.2,189.6-178.7,274c-67.5,80.9-175,115.3-278.1,137.3c-103.1,22-210.8,36.5-300.8,91.3
		c-124.7,76-195.7,219.8-217.9,364.1C120.8,1733.7,152.6,1894.5,142.8,2040.2z"/>
	<path class="st1" d="M1159,2634.8l-952.8-320.1c46.7,215.6,180.7,458.2,282.2,615.8c6.2,9.6,12.2,18.9,18.2,27.9
		c300.9,455.6,611.7,90.6,981.9,350.2c95.8,73.7,194.5,134.4,294.2,183.6c133.6,66,269,111.4,401.6,140.1
		c80.9,17.5,160.6,28.7,238.4,34.5c198.8,14.9,383.9-5.4,537.9-46.8c80.3-21.6,146.1-62.1,199.9-112.8
		c49.6-46.8,89-102.2,120.3-159.4L1159,2634.8z"/>
	<linearGradient id="SVGID_2_" gradientUnits="userSpaceOnUse" x1="181.9078" y1="1828.4683" x2="3643.498" y2="1828.4683">
		<stop  offset="0" style="stop-color:#4085F0"/>
		<stop  offset="1" style="stop-color:#275DC9"/>
	</linearGradient>
	<path class="st2" d="M3051.3,1094.8c-251.7-106.4-447.5-159.3-455.3-379.9c-7.8-220.6-300.5-431.7-611.2-403.1
		c-310.7,28.5-799.1,180.9-865.7,565c-52.8,304.6-414.1,441.6-561.3,485.3c-38.4,11.4-62.3,16.4-62.3,16.4
		c-389.2,128-306.2,419.6-306.2,792.6c0,45.5,6.2,93.8,16.9,143.5l3074.4,1033.1c97.9-179.1,115.8-375.1,115.8-375.1
		s67.2-296.9,170.3-675.9c16.7-61.5,34.4-125.2,52.9-190.2C3751.9,1641.6,3303,1201.2,3051.3,1094.8z"/>
	<path class="st3" d="M2467.1,1515.4c-16.6,102.2-37.3,204-66.8,305.7c-5.4,13.5-10.8,24.4-8.1,37.9c0,2.7-10.8,2.7-10.8,5.4
		c-2.7,135.5-138.2,197.8-257.4,168c-5.4,0-13.5-5.4-19-5.4c-75.1-11.4-150.1-15.1-220.4-40.1c0.3,18.1,0.9,35,1.8,50.2
		c1.6,27.9,4.1,50.3,7.4,65.1c281.4,87.7,510.1,91.3,510.1,91.3s83-106.7,78.2-311.2C2478.5,1730.4,2503.7,1597.7,2467.1,1515.4z"/>
	<path class="st4" d="M2124,2032.5c119.2,29.8,254.7-32.5,257.4-168c0-2.7,10.8-2.7,10.8-5.4c-2.7-13.5,2.7-24.4,8.1-37.9
		c29.5-101.8,50.2-203.5,66.8-305.7c-0.5-1.2-1-2.4-1.6-3.6c-12.7-26.7-32.3-47.9-62-62.4c-19.3-9.4-40.8-16.5-63.1-21.7
		c-117.5-27.5-260.3-4.3-260.3-4.3s-64.9,5.9-125.9,41c-0.1,0-0.1,0-0.2,0.1l-60,285.9c-2.3,25.3-4.2,50.7-5.7,75.7
		c-1,17-1.8,33.7-2.4,50.2c-0.9,23.4-1.4,46.2-1.5,67.8c-0.1,14.9,0,29.2,0.2,42.9c70.3,24.9,145.3,28.7,220.4,40.1
		C2110.4,2027.1,2118.5,2032.5,2124,2032.5z"/>
	<path class="st5" d="M2146.2,1536c0,0-87.7,374.9-6.6,635.1"/>
	<path id="XMLID_1_" class="st6" d="M3234.1,3422.3c-17,23.8-52.9,63.5-73.7,84.9L345.5,2679.6c-25.7-50.7-50.3-103.5-72.1-156.7
		L3234.1,3422.3z"/>
	<g>
		<defs>
			<path id="XMLID_2_" d="M3234.1,3422.3c-17,23.8-52.9,63.5-73.7,84.9L345.5,2679.6c-25.7-50.7-50.3-103.5-72.1-156.7
				L3234.1,3422.3z"/>
		</defs>
		<use xlink:href="#XMLID_2_"  style="overflow:visible;fill:#572658;"/>
		<clipPath id="XMLID_5_">
			<use xlink:href="#XMLID_2_"  style="overflow:visible;"/>
		</clipPath>
		<path class="st7" d="M556.5,2752.6c100.1-5.9,200.3-11.9,300.4-17.8c12.5-0.7,27-0.7,34.9,9c6,7.2,5.8,18.9-0.3,25.9
			c-6.2,7.1-17.7,8.8-25.6,3.8"/>
		<path class="st7" d="M830.4,2762.1c-5.5,9.6,0.1,22.5,9.3,28.7s20.7,7.5,31.7,8.6c26.1,2.6,53.3,5,77.8-4.2
			c13.9-5.2,26.3-14,40.6-18c24.7-6.9,50.8,1.3,75.6,8.2c66.6,18.4,136.1,26.6,205.2,24.3"/>
		<path class="st7" d="M869.7,2856.4c117.4-20.8,237.8-41.7,355.1-20.5c76.8,13.9,153.6,45.7,230.4,31.2"/>
		<path class="st7" d="M1039.1,2893.6c126.2-22.2,256.6-20.9,382.3,3.8c44.2,8.7,91.8,19.9,132.8,1.3"/>
		<path class="st7" d="M1213.8,2948.9c76.1-18.2,155.8-20.6,232.9-7.1c43.6,7.6,86.4,20.3,130.5,23.7c44.1,3.4,91.2-3.7,125.7-31.5"
			/>
		<path class="st7" d="M1414.5,3019.7c61.5-4,123-8,184.6-12c39.1-2.5,78.5-5.1,117.5-0.5c39,4.5,77.9,16.6,108.9,40.7
			c2.7,2.1,5.6,4.8,5.4,8.2c-0.2,5.2-6.8,7.2-12,7.7c-37,3.1-74.7-2-109.5-14.9c-3.6-1.3-7.3-2.8-10-5.6c-2.7-2.8-4.1-7.2-2.3-10.6
			c2.7-5.1,9.8-5,15.5-4.2c11.5,1.6,22.9,3.2,34.4,4.8"/>
		<path class="st7" d="M1687.8,3084.9c46.4,3,92.9,6.1,139.3,9.1c15.1,1,32.5,1,42.3-10.4c7.9-9.2,7.8-23.4,2.2-34.3
			c-5.5-10.8-15.5-18.7-25.9-24.9c-10.4-6.2-21.7-11.1-31.7-17.8c-18.5-12.4-32.7-31.2-39.5-52.5c3.7-1.6,7.4-3.3,11.1-4.9"/>
		<path class="st7" d="M1797.6,3143.6c90.2-8.4,181.5-4.8,270.8,10.7c10.5,1.8,21.6,3.8,31.7,0.3c10.1-3.5,18.4-14.6,14.9-24.7
			c-2.4-6.9-9.4-11.1-16.1-14.3c-26.6-12.6-55.8-18.5-83.9-27.6s-56.1-22.3-74.2-45.5c-3.1-4-6-8.7-5.9-13.7
			c0.1-5.1,4.7-10.3,9.7-9.3"/>
		<path class="st7" d="M2058.4,3200.1c12.4-4.5,26-4.2,39.2-3.9c13.2,0.3,26.8,0.5,39.2-4c12.4-4.6,23.5-15,24.8-28.2
			c1.3-13.4-7.3-25.4-15.5-36c-16.4-21.3-32.9-42.5-49.3-63.8"/>
		<path class="st7" d="M2194.9,3101.6c18.1,34.5,40.7,66.6,66.9,95.5c47.3,52,106.7,93,172.2,118.8"/>
		<path class="st7" d="M2302.9,3114.7c35.3,45.4,86.7,77.9,142.8,90.4"/>
		<path class="st7" d="M258,2581.9c69.4,18.3,140.6,33,212.3,29.9c62.9-2.7,124.3-19,185.2-35.2"/>
		<path class="st7" d="M307,2674.2c124.4,27.7,252.9-21.7,380.2-17.1c90.3,3.3,181.2,33.8,269.3,14"/>
		<path class="st7" d="M703.2,2709.7c73.4,3.6,147.6-8.3,216.1-34.9"/>
	</g>
	<g>
		<path class="st8" d="M3156.1,2314.8c5.6-23.9,22.5-44.8,44.7-55.3c25.9-12.2,56.2-9.9,84.2-3.8c28,6.1,55.4,15.6,83.9,17.3
			c28.6,1.7,59.7-6,77.5-28.4c17.3-21.7,18.5-52.1,31.1-76.9c12.3-24.2,36-42.3,62.6-47.8c26.6-5.5,55.5,1.7,76.4,19
			c17.1,14.2,31.1,35.7,53.2,38.3c21.3,2.6,39.8-13.9,60.3-20.3c36-11.3,79,14.8,85.6,52c6.6,37.2-24.9,76.5-62.6,78.2
			c-13.5,0.6-26.9-2.9-40.4-3.7c-13.5-0.8-28.4,1.7-37.4,11.9c-9.7,10.9-9.7,26.9-14.2,40.8c-8.4,26.1-33.6,44.5-60.5,50
			c-26.9,5.5-55-0.4-80.4-10.9c-24.5-10.1-50.9-24.8-75.8-15.7c-14.1,5.1-24.4,17-35.5,27.2c-32.6,30-76.3,47.8-120.6,48.9
			C3217.7,2437.3,3136.7,2398.2,3156.1,2314.8z"/>
		<path class="st9" d="M3195.8,2385.1c0,0,386.3-158,551.2-147.6"/>
		<line class="st9" x1="3327.4" y1="2379.8" x2="3276.8" y2="2353.8"/>
		<line class="st9" x1="3554" y1="2220.2" x2="3534.1" y2="2270.3"/>
		<line class="st9" x1="3606.3" y1="2334.8" x2="3475.6" y2="2286.8"/>
		<line class="st9" x1="3743.9" y1="2211.1" x2="3698.5" y2="2238.4"/>
	</g>
	<g>
		<path class="st10" d="M2908.8,1982c9.5-53.7,46.5-106.5,100.1-117c39.8-7.8,79.9,8.4,118.6,20.6c38.7,12.1,83.8,19.5,117.5-3.1
			c30.4-20.4,42.2-59.3,46.3-95.7c4.2-36.4,3.1-74.1,16.7-108.1c13.7-34,48.4-63.5,84.2-55.7c51.5,11.3,69.8,88.2,122.1,94.5
			c34.7,4.2,62.9-25.3,92.2-44.4c66.5-43.3,163.2-31.9,217.7,25.7c27.5,29.1,44.5,69.5,40,109.2c-4.5,39.8-33.1,77.3-71.9,87
			c-25,6.2-51.2,1.1-76.9,0.7c-25.7-0.4-54.5,5.7-68.8,27.1c-17.6,26.2-5.6,61.1-3.2,92.6c3.7,48.1-18.7,97.4-57.3,126.3
			c-38.7,28.9-92.3,36.4-137.4,19.2c-32.7-12.5-59.9-36.5-91.9-50.8c-32-14.3-74.7-16-97.2,10.9c-25.4,30.4-10.5,76.1-17,115.1
			c-8.5,50.9-57,89.4-108.3,95s-102.7-17.7-140-53.3C2920.3,2207.2,2891.2,2081.7,2908.8,1982z"/>
		<path class="st11" d="M2930,2259.7c0,0,397-415.5,744.7-447.8"/>
		<line class="st11" x1="3182.5" y1="2171.1" x2="3063.6" y2="2135.3"/>
		<line class="st11" x1="3136.7" y1="1961.6" x2="3153.2" y2="2062.2"/>
		<line class="st11" x1="3471.4" y1="2021.2" x2="3284.8" y2="1968.7"/>
		<line class="st11" x1="3407.1" y1="1756.5" x2="3407.1" y2="1897.7"/>
		<line class="st11" x1="3638.3" y1="1863.8" x2="3553.1" y2="1837.1"/>
		<line class="st11" x1="3698.5" y1="1737.5" x2="3638.3" y2="1811.8"/>
	</g>
	<g>
		<defs>
			<path id="XMLID_3_" d="M3523.8,2457.6c-112.7,429.7-35.1,107.8-127.3,515c0,0-23.2,255.5-162.4,449.6L273.4,2522.9
				c-49.4-120.8-84.1-244-84.1-351.8c0-248.1-36.7-460.2,53.2-612.1L3523.8,2457.6z"/>
		</defs>
		<use xlink:href="#XMLID_3_"  style="overflow:visible;fill:#DBD2DB;"/>
		<clipPath id="XMLID_6_">
			<use xlink:href="#XMLID_3_"  style="overflow:visible;"/>
		</clipPath>
		<path class="st12" d="M2816.3,1771c10.8,378,21.7,756.1,32.5,1134.1c2.2,78.1,4.3,157.6-16.4,232.9
			c-20.7,75.3-68.1,147.3-139.8,178.5c-85.5,37.2-188.1,8.4-262.7-47.5s-127.5-135.3-180.7-212c-53.2-76.6-110.2-154-189.6-202.9
			c-127.4-78.4-287.1-70.1-436.5-78c-33.5-1.8-67.9-4.7-98.1-19.6c-30.1-14.8-55.3-44.2-55.7-77.8c-0.4-39.5,33.8-72.7,71.5-84.3
			c37.8-11.7,78.4-6.8,117.6-1.8c196.4,25.1,392.7,50.1,589.1,75.2c41.6,5.3,97.3,1.8,107.9-38.8c10.3-39.6-34.6-70.1-73.1-83.9
			c-38.5-13.9-85.5-34.4-87-75.3c-1.3-38.7,44-64.4,82.6-61.2s72.8,25,108.9,38.9c36.1,13.9,81.5,18.5,109.8-8
			c38.3-35.9,15.7-105.8-29.5-132.6c-45.2-26.7-101.4-23.2-153.7-18.8c-119.5,10.1-239.1,20.1-358.6,30.2
			c-70.2,5.9-157.4,3-189.2-60c-17.4-34.4-10.5-77.1,8.3-110.9s47.7-60.4,76.2-86.4c-130.7,52.5-261.4,104.9-392.1,157.4
			c-120.5,48.4-242.5,97.1-371.1,115c-200.9,27.8-411.8-24.6-576.3-143.2c-26.8-19.3-54.6-44.4-56.5-77.4
			c-2.6-46.3,45.3-77.5,87.1-97.6c241-116.2,492.8-209.8,751.1-279.3C1780.5,1604.7,2311.5,1748,2816.3,1771z"/>
	</g>
	<polygon class="st13" points="1893.2,2075.1 1867.9,2350.8 2140.9,2366.8 2149.5,2097.2 	"/>
	<polygon class="st13" points="1474.7,2597.7 1515,2832.5 2109.4,2850.9 2021.8,2635.4 	"/>
	<polygon class="st14" points="339.8,1491 1080.2,1347.4 1225.5,1856.1 537,2062 	"/>
	<path class="st14" d="M1663.8,2028.9l-580.2,245.5c-11,4.7-23.5,4.7-34.5,0.1l-487.8-202.2l676.4-188.6L1663.8,2028.9z"/>
	<path class="st15" d="M1066.2,2239.1c-0.8,0-1.5-0.1-2.2-0.4L680,2079.5l556.4-155.1l318.4,108.4l-486.4,205.8
		C1067.7,2238.9,1067,2239.1,1066.2,2239.1z"/>
	<g>
		<line class="st16" x1="793.9" y1="2101.2" x2="1281.2" y2="1956.2"/>
		<line class="st16" x1="850.9" y1="2126.1" x2="1327" y2="1974.7"/>
		<line class="st16" x1="908" y1="2151" x2="1379.5" y2="1999.3"/>
		<line class="st16" x1="965" y1="2175.9" x2="1436" y2="2018.5"/>
		<line class="st16" x1="1035.5" y1="2200.8" x2="1498.8" y2="2037.3"/>
	</g>
	<line class="st16" x1="782.7" y1="2080.8" x2="1084.2" y2="2198.9"/>
	<line class="st16" x1="850.1" y1="2061.5" x2="1151.7" y2="2179.5"/>
	<line class="st16" x1="917.6" y1="2042.1" x2="1219.2" y2="2160.2"/>
	<line class="st16" x1="979.6" y1="2018.5" x2="1281.2" y2="2136.6"/>
	<line class="st16" x1="1048.2" y1="1994.6" x2="1349.7" y2="2112.6"/>
	<line class="st16" x1="1112.5" y1="1974.7" x2="1414.1" y2="2092.7"/>
	<line class="st16" x1="1160.7" y1="1950.3" x2="1462.2" y2="2068.3"/>
	<path class="st15" d="M1663.8,2028.9c12.9,14,13,32.4,0,55.4l-580.2,245.5c-11,4.7-23.5,4.7-34.5,0.1l-487.8-202.2
		c-17.3-18.6-13.1-43.5,0-55.3l487.8,202.2c11.1,4.6,23.5,4.5,34.5-0.1L1663.8,2028.9z"/>
	<path class="st15" d="M339.8,1491c0,0-12.1,38.8-5.2,58.6c6.9,19.7,171.3,502.9,172.1,510.2c0.9,7.4,30.3,2.2,30.3,2.2"/>
	<polygon class="st15" points="381.3,1511.8 1063.8,1378.5 1191.8,1840.5 556.9,2021.3 	"/>
	<polygon class="st17" points="1058.5,1387 391,1517.3 406.3,1561.8 1069.9,1427.9 	"/>
	<polygon class="st13" points="1069.9,1427.9 406.3,1561.8 556,1996.2 1179.1,1822 	"/>
	<polygon class="st17" points="556,1996.2 561.6,2012.4 1182.8,1835.5 1179.1,1822 	"/>
	<g>
		<polygon class="st18" points="653,1944.7 612.5,1956.2 558.5,1799.4 600.2,1789 		"/>
		<polygon class="st18" points="754.9,1916.6 716.1,1927.6 686.7,1838.7 726.2,1828.2 		"/>
		<polygon class="st18" points="945.6,1861.5 909.9,1871.6 840.9,1645.4 878.2,1636.8 		"/>
		<polygon class="st18" points="1035.5,1835.9 1001.1,1845.7 907.7,1526.6 944.1,1518.9 		"/>
		<polygon class="st18" points="1121.9,1811.4 1088.8,1820.8 984.3,1449.4 1019.6,1442.5 		"/>
		<polygon class="st18" points="852.2,1888.3 814.9,1898.9 735.6,1649.1 774.7,1640.3 		"/>
	</g>
	<path class="st19" d="M983.2,1797.6c-0.7,1-1.3,1.9-1.6,2.6c-3.5,8.7-2.9,40.9,5.2,70.4c8.1,29.4,39.2,23.1,81.9,27.1
		c42.7,4,123.1,34.6,123.1,34.6s6.4-19.6,11.5-41.7c-4.8-3.2-10.1-5.9-16.4-7.7C1113.4,1864.5,1003.2,1887.3,983.2,1797.6z"/>
	<path class="st20" d="M1205.6,1831c0,0-63.1-76.1-89.1-80.5c-25.9-4.3-62.3-2.9-77.3,3.5c-13.8,5.8-47.9,32.5-56.1,43.6
		c20,89.7,130.3,66.9,203.7,85.3c6.3,1.7,11.7,4.4,16.4,7.7C1208.9,1866.5,1212.9,1839.4,1205.6,1831z"/>
	<path class="st1" d="M950.5,1677.9l174.7,290.7c0,0,8.1,5.2,8.1-6.3C1075,1859.5,962,1670.9,962,1670.9S947.9,1673.6,950.5,1677.9z
		"/>
	<path class="st21" d="M960.6,1673.1c0,0-22.3-39.6-23.1-39.6c-0.9,0-10.6,1.1-6.1,11.7c4.5,10.6,22.3,33.3,22.3,33.3L960.6,1673.1z
		"/>
	<path class="st22" d="M1954,1464.7c-20.5,42.8-35.9,106.9-47,178.6c-5.8,37.2-10.3,76.5-13.8,115.9"/>
	<path class="st3" d="M1236.3,1908.8l-1.2,14l-2.7,32.7c0,0,160.9,79.6,228.3,86.5c67.5,6.9,293,24.7,392.1-121.2
		c14.2-16,25-30.8,33.1-44.4c0.6-16.4,1.4-33.2,2.4-50.2c0.4-6.7,1.1-14.1,2-21.8c-8.2,15.3-17.6,30-29.2,43.9
		C1705.1,2044,1435.5,1994.5,1236.3,1908.8z"/>
	<path class="st4" d="M1970.2,1456c-56.8,27.6-158.6,90.6-187.7,177.5c-45,134.3-96.9,228.6-206.7,241.6
		c-109.8,13-333.8-35-333.8-35l-5.7,68.7c199.3,85.6,468.8,135.1,624.9-60.6c11.6-13.9,21-28.6,29.2-43.9c2.1-17.9,5-37.4,6.4-53.1
		L1970.2,1456z"/>
	<path class="st20" d="M2242.8,1317.7c-0.8-9.9-1.1-19.8-1-29.6c0.9-51.9,30.3-230.5-83-234c-113.3-3.5-176.4,25.1-181.6,71.8
		c-1.3,11.4-1,33.6,2.1,60.4c8.2,71.7,36.3,175.8,107.8,191.6l-0.1,0c3.1,23.4-19.8,80.2-19.8,80.2s60.8,79.2,79.1,77.9
		c18.4-1.3,123.7-93.4,123.3-112C2257.5,1402.5,2246.2,1360.5,2242.8,1317.7z"/>
	<path class="st1" d="M2024.7,1114.6c0,0-37.9,26-44.3,51.6c-8.1,21.6-25.4-2-32.4-22.8c-6.9-20.8,0-42.7,0-42.7L2024.7,1114.6z"/>
	<path class="st1" d="M1910.8,1012.6c0,0,4.3,141,102.3,122c31.7,13.3,75,10.4,83.6-4c14.4,23.1,65.7,57.1,85.9,47.3
		c12.7-26.5,51.3-35.2,55.4,1.7c-0.6,37.5-16.1,60.6-28.3,64c5.2,23.6,10.4,49,36.9,47.9c20.8-9.2,22.8-24.8,22.8-24.8
		s28-1.7,30.8-35.2c2.9-33.5-21.9-69.2-19-94s23.1-71.5-9.2-98c-32.3-26.5-47.3-27.1-61.7-15.6c-16.1-32.3-51.9-64.6-102.6-46.7
		c-39.8-3.5-70.3,24.8-117.1,24.8C1941.7,1008.3,1928.7,1011.5,1910.8,1012.6z"/>
	<path class="st23" d="M2403.5,1449.5c0,0,43.2,0,122.8,69.5c84.2,47.2,85,206.5,103.5,348.1c4.1,31,9,61.2,15.8,89.1
		c38.1,155.5-58.8,287.4-115,300.7c-56.2,13.3-457.6,0-457.6,0c-9.4-0.8-17.4-9-23.5-20.9c-17.6-34.5-18.7-100.3,12.3-107.4
		c0,0,376.2-13,391.8-80.4c5.9-25.7,0.1-118.7-9.5-224"/>
	<path class="st3" d="M2530.7,2256.9c-56.2,13.3-457.6,0-457.6,0c-9.4-0.8-17.4-9-23.5-20.9c124.3,1.7,482,1.7,501-51.6
		c23.1-64.6,36.9-263.7,15-326.8c28.2-1.3,49.4,3.5,64.3,9.5c4.1,31,9,61.2,15.8,89.1C2683.8,2111.7,2586.9,2243.6,2530.7,2256.9z"
		/>
	<path class="st3" d="M2043.7,2168.1c0,0,2.3-28.5,16.7-32.6c14.4-4,45.3,17.6,47.3,55.7c2,38.1-12,58.2-27.1,60.8
		C2065.5,2254.6,2042.6,2233,2043.7,2168.1z"/>
	<path class="st19" d="M1958.5,2234.8c-33.2,8.3-66.5,30.8-101.2,23.4c13.5,15.3,28.1,25.2,40.8,19.2c32-15.3,56.5-36.3,77-37.2
		c20.5-0.9,36.6,9.5,65.2-9.5c19.5,0.9,26.4,10.4,38.1,10.8c16-2.6,20.5-3.5,20.5-3.5c2.2-6,4-11.7,5.4-17.4
		c-15.3-0.8-30.3-3-43.8-5.3C2026.4,2210.5,1992.5,2227.5,1958.5,2234.8z"/>
	<path class="st20" d="M2075.8,2138.1c0,0-4.7,3.6-16.7,4.6c-8.7,0.7-21.3,0-38.8-4.6c-41.3-10.9-73.1-42.4-100.1-27.7
		c-16.5,9-56.4,29.8-82.7,48.6c-16.7,11.9-28,23.1-24.4,29.9c5.6,10.6,23.7,46.1,44.2,69.4c34.7,7.4,68-15.1,101.2-23.4
		c34-7.3,67.9-24.3,101.9-19.4c13.4,2.2,28.4,4.5,43.8,5.3C2112.4,2186.3,2103.9,2158.4,2075.8,2138.1z"/>
	<path class="st24" d="M1831.8,2333.3c0,0-192,69.5-216.4,76.5c-24.4,6.9-125.2-86.5-127-87.4c-10.9-8.4-12.6-25.1,0-32.8
		c0,0,117.6,83.9,120.2,83.9c2.6,0,204.1-72.7,216.5-77.9c1.3-0.5,2.5-1.3,3.7-2.1L1831.8,2333.3z"/>
	<path class="st13" d="M1612.5,2402.8c-8.2,0-33.9-10.6-113.9-81.3c-4.1-3.6-5.3-4.7-6-5.2c-3.8-3-5.9-7.6-5.7-12
		c0.1-1.6,0.5-3.7,2-5.6c114.9,81.9,116.9,81.9,119.8,81.9c4.9,0,187-65.9,220.9-78.4l1.8,24.7c-30.8,11.1-196.3,69.6-217.9,75.7
		C1613.3,2402.7,1613,2402.8,1612.5,2402.8z"/>
	<path class="st13" d="M2151.8,1536c0,0,34.9-37.2,66,0c31.1,37.2,30.8,25.9,30.8,25.9c30.6-54.7,58.4-107.7,61.8-144.5
		c0,0-14.7-26.4-45.8-13.4c-10.8,65.7-104.7,83.9-112.9,119.4C2146.6,1535.6,2151.8,1536,2151.8,1536z"/>
	<path class="st13" d="M2077.5,1420c0,0-9.5,46.2,33.1,64.7c30.6,17.3,32.9,51.3,32.9,51.3s-6.1,4.6-13-5.2
		c-6.9-9.8-14.8-25.2-54.3-14.2c-39.5,11-38.9,34-38.9,34s-16-112.8-4.4-123.6C2044.6,1416.2,2077.5,1420,2077.5,1420z"/>
	<g>
		<path class="st19" d="M2252.9,2449.9c4.9,10.2,10.4,18.1,15.7,19.2c16.1,3.4,47.2,8.1,68,17.3c20.8,9.2,49.6,48.4,54.2,47.3
			c2-0.5,11.2-19.4,20.9-40.3c-23.3-16.9-50.7-26.2-77.1-37.8C2309,2446.3,2278.9,2461.6,2252.9,2449.9z"/>
		<path class="st20" d="M2437,2436.8c-2.3-3.4-46.1-88.9-73.8-99.8c-27.7-10.9-62.3-20.1-79.6-10.9c-17.3,9.2-46.1,61.1-47.3,68.1
			c-0.8,4.5,6.4,33.8,16,54.5c0.2,0.4,0.4,0.8,0.6,1.3c26,11.7,56.1-3.6,81.7,5.7c26.4,11.5,53.8,20.8,77.1,37.8
			c1.3-2.9,2.7-5.9,4-8.8C2426.7,2460.6,2437,2436.8,2437,2436.8z"/>
		<g>
			<polygon class="st25" points="2109.4,2409.7 2141.7,2667.5 2173.6,2667.5 2144.4,2410.2 			"/>
			<polygon class="st13" points="2293.9,2412 2164.5,2410.4 2144.4,2410.2 2173.6,2667.5 2175.7,2667.5 2261.3,2667.5 
				2270.3,2667.5 2300.3,2412.1 			"/>
			<ellipse class="st26" cx="2205.2" cy="2409.7" rx="95.7" ry="21.9"/>
			<path class="st1" d="M2205.2,2424.4c-51,0-82.7-9-88-14.6c5.3-5.6,37-14.6,88-14.6c51,0,82.7,9,88,14.6
				C2287.9,2415.3,2256.2,2424.4,2205.2,2424.4z"/>
		</g>
		<path class="st20" d="M1693.1,2550.1c40.6,0,40.6,51.5,70.5,70.5c13.9,10.1,29,14.9,44.7,17.4c25.5-24.1,29-55.8,29-55.8
			s-18.5-88.8-40.4-98.6c-21.9-9.8-42.1-3.5-45.5-2.9c-3.5,0.6-72.1,9.2-86.5,22.5c-5.7,5.3-17.5,14.4-28.2,24.3
			c-7.2,6.7-13.9,13.7-17.8,20C1643.7,2551.4,1668.4,2550.1,1693.1,2550.1z"/>
		<path class="st19" d="M1763.6,2620.5c-29.8-19-29.8-70.5-70.5-70.5c-24.7,0-49.5,1.3-74.2-2.6c-4.9,7.9-5.4,14.7,2.7,18.5
			c24.2,11.5,55.4,8.6,74.4,9.2c19.6,20.8,34,79.6,85.3,80.2c10.3-4.4,18.7-10,25.6-16.2c0.5-0.4,0.9-0.8,1.3-1.3
			C1792.6,2635.4,1777.5,2630.6,1763.6,2620.5z"/>
		<path class="st18" d="M2408,3238.5c0,0-60,14-158.7,39.5c-0.7,0.9-1.4,1.9-2,2.8c-14.6,19.4-31.5,31.6-46.1,48.5
			c-19.4,26.7-34,53.4-48.5,84.9c-2.4,4.9-12.1,7.3-17,14.6c-21.8,43.7-43.7,87.4-63.1,133.5c-4.9,12.4-9,25.2-12.7,38.2
			c123.3,36.3,245.4,57.4,362.7,66.2L2408,3238.5z"/>
		<path class="st27" d="M2135.6,3428.9c4.9-7.3,14.6-9.7,17-14.6c14.6-31.6,29.1-58.2,48.5-84.9c14.6-17,31.5-29.1,46.1-48.5
			c0.6-1,1.4-1.9,2-2.8c-60.3,15.6-135.1,35.5-219.5,59.1c-117,32.8-197.4,99.4-247.2,155.1c92.1,45.5,185,81.2,277.3,108.3
			c3.7-13,7.8-25.8,12.7-38.2C2092,3516.2,2113.8,3472.5,2135.6,3428.9z"/>
		<path class="st18" d="M2960.5,2262.8c0,0,145.3,349.4,138.4,392.6c-6.9,43.3-138.4,69.2-138.4,69.2V2262.8z"/>
		<path class="st20" d="M2780.6,1952.9l-17.9-69.4l-1.9-7.5l-58-224.1l-278.5-32.9c0,0-0.4,15,0.8,38.1c0.1,2.1,0.2,4.2,0.3,6.4
			c5.2,88.1,32.5,273.9,170.5,240.9c0,0,0,0.1,0,0.2c1.1,3.8,17.4,61.3,17.6,120.8c0.1,21.3-1.9,42.8-7.3,62.3
			c53.6,32,198.5-37.9,198.5-37.9L2780.6,1952.9z"/>
		<path class="st27" d="M3014.9,2521.3c-1.9-45.6-2.5-72.5-2.5-72.5s-104.2-437.3-147.3-458c-23.9-11.5-90.1,4.1-149,24.4
			c-56,19.3-105.3,42.9-105.3,51.5l-67,328.1l-16.1,65.5l-34.3,139.6c0,0,49.3,171.3,7.8,301c-23,71.9-102.6,209.2-179.1,368.9
			c-54.8,114.4-108.1,240.4-137.9,362.2c80.9,17.5,160.6,28.7,238.4,34.5c68.8,5.2,136.1,6.1,200.9,3.4
			c122.4-5.1,236.4-23.1,337-50.2c80.3-21.6,146.1-62.1,199.9-112.8C3054.7,3260.5,3023.1,2717.5,3014.9,2521.3z"/>
		<path class="st19" d="M2606.1,1949.5c-6.3-30.1-9-41-10.1-44.8c41.9-22.2,40.6-28.4,58.3-35.7
			C2656,1914.8,2625.7,1923.5,2606.1,1949.5z"/>
		<path class="st1" d="M2622.1,1705.5c0,0-104-3.5-166.9-38.2c-25.5-14.1-51.9,41-55.1-32.7c-3.9-91.1,67.4-181.2,214.5-169.9
			c147,11.2,233,141.7,248,308.9c15,167.2,123.4,257.2,143,304.5c19.6,47.3,104.7,358.4,51,389.6c-53.6,31.1-167.8-10.4-182.5-61.4
			c-14.7-51,0.9-269.9-51-320.9c-51.9-51-118.5-57.9-129.7-119.8c-11.2-61.9,25.1-177-10.1-179.8c15-20.2,22.8-61.1,2.9-88.8
			C2669.9,1674.4,2641.1,1676.1,2622.1,1705.5z"/>
		<g>
			<path class="st18" d="M2250.1,2770.4c-110.3,22.1-399.5-92.2-483.6-126.9c-0.1,10.2,2.1,17.2,2.1,17.2s299.3,178.2,551.8,145.3
				c170-22.1,279.6-255,333.1-405C2476.3,2746.2,2371.3,2746.1,2250.1,2770.4z"/>
			<path class="st27" d="M2610.8,2066.8c0,0-99.5,61.1-151.9,251.2c-50.4,182.5-129.7,436-622.7,256.1
				c-59.1,15.1-69.3,48.7-69.6,69.3c84.1,34.7,373.3,149,483.6,126.9c121.2-24.2,226.1-24.2,403.5-369.4c4.2-11.7,8-22.9,11.5-33.5"
				/>
		</g>
	</g>
	<path class="st19" d="M2076.2,1435.2c0,0,136.5,10.4,129.2-105.2c-45.5,64.2-118.7,47.2-118.7,47.2
		C2086.7,1391.8,2081.4,1413.5,2076.2,1435.2z"/>
	<path class="st20" d="M1080.2,1802.1c-3.6-5.8-12.1-9.2-22.6-11.1c-27.7-5.1-68.8,0.3-68.8,0.3c-21.7,6.1-16.6,62.7,0.3,89.4
		c3.7,5.9,8,10.3,12.7,12.5c26.1,11.7,46.4-4.7,46.4-4.7c18.7-3.9,40.1-23.8,46.4-31.9C1100.9,1848.6,1093.5,1823.2,1080.2,1802.1z"
		/>
	<path class="st28" d="M1077.9,1748.1"/>
	<path class="st20" d="M1096.4,1749.3c0,0-78.4-5.2-94.4,0c12.9,26.7,49.3,20.2,80.7,24.7"/>
	<path class="st19" d="M1002,1749.3c-4,1.3-6.6,3.2-6.6,5.8c0,13.3,7.5,24.2,21.9,28.3c14.4,4,69.8,1.7,74.4,0l-9-9.4
		C1051.3,1769.5,1014.9,1776,1002,1749.3z"/>
	<path class="st29" d="M1828.9,2293.4L1828.9,2293.4c-1.2,0.9-2.4,1.6-3.7,2.2c-12.4,5.2-213.9,77.9-216.5,77.9
		c-2.6,0-120.2-83.9-120.2-83.9l185.1-76.1c0,0,128.6,69.4,151.7,60.6C1845.9,2266.1,1839.4,2285.6,1828.9,2293.4z"/>
	<path class="st13" d="M1198.7,1811.1c2.7,44.2-3.6,89.2-18.2,135l60.5,19.9c17.5-52.6,20.6-99.6,12.1-141.9L1198.7,1811.1z"/>
	<path class="st13" d="M2799.7,1823.4c0,0,57.7,8.9,79.6-18c16.1,16.9-21.8,30.7-39.8,28.6
		C2821.4,1831.7,2797.8,1839.7,2799.7,1823.4z"/>
	<linearGradient id="SVGID_3_" gradientUnits="userSpaceOnUse" x1="3234.0581" y1="801.5232" x2="3497.1777" y2="801.5232">
		<stop  offset="0" style="stop-color:#68B2FC"/>
		<stop  offset="1" style="stop-color:#529BF7"/>
	</linearGradient>
	<ellipse class="st30" cx="3365.6" cy="801.5" rx="131.6" ry="131.6"/>
	<linearGradient id="SVGID_4_" gradientUnits="userSpaceOnUse" x1="537.1598" y1="3507.1504" x2="904.4012" y2="3507.1504">
		<stop  offset="0" style="stop-color:#68B2FC"/>
		<stop  offset="1" style="stop-color:#529BF7"/>
	</linearGradient>
	<path class="st31" d="M904.4,3507.2c0,101.4-82.2,183.7-183.6,183.7s-183.6-82.2-183.6-183.7c0-101.4,82.2-183.7,183.6-183.7
		S904.4,3405.7,904.4,3507.2z"/>
	<linearGradient id="SVGID_5_" gradientUnits="userSpaceOnUse" x1="454.5789" y1="1047.6332" x2="605.7372" y2="1047.6332">
		<stop  offset="0" style="stop-color:#4085F0"/>
		<stop  offset="1" style="stop-color:#275DC9"/>
	</linearGradient>
	<path class="st32" d="M605.7,1047.6c0,41.7-33.8,75.6-75.6,75.6s-75.6-33.8-75.6-75.6c0-41.7,33.8-75.6,75.6-75.6
		S605.7,1005.9,605.7,1047.6z"/>
	<g>
		<path class="st13" d="M2645.9,705.4h-272.1c-79.4,0-143.8,64.4-143.8,143.8v1.5c0,74.9,57.3,136.4,130.4,143.1
			c-4.4,17.1-10.2,38.1-15.4,57.1c-4.4,16,14.5,28,27.1,17.2l86.1-73.7h187.7c79.4,0,143.8-64.4,143.8-143.8v-1.5
			C2789.6,769.8,2725.3,705.4,2645.9,705.4z"/>
		<ellipse class="st27" cx="2379.2" cy="841.7" rx="25.1" ry="25.1"/>
		<ellipse class="st27" cx="2519.2" cy="841.7" rx="25.1" ry="25.1"/>
		<ellipse class="st27" cx="2662.4" cy="841.7" rx="25.1" ry="25.1"/>
	</g>
	<polygon class="st13" points="1179.1,1330.1 1300.5,1174.8 1414.1,1165.6 1498.8,1047.6 1474.3,1028.1 1527.9,1009.9 
		1544.4,1072.3 1521,1053.9 1438.9,1192.4 1317.8,1202 1220.9,1356.8 	"/>
</g>
</svg>
