<svg id="Layer_1" data-name="Layer 1" xmlns="http://www.w3.org/2000/svg" xmlns:xlink="http://www.w3.org/1999/xlink" viewBox="0 0 6000 4000"><defs><style>.Graphic-Style-251{fill:url(#linear-gradient);}.Graphic-Style-250{fill:url(#linear-gradient-2);}.cls-1{fill:url(#linear-gradient-3);}.cls-2,.cls-23{fill:#fff;}.cls-2,.cls-44,.cls-8{stroke:#1a1a1a;}.cls-2,.cls-4,.cls-44,.cls-6,.cls-7,.cls-8{stroke-linecap:round;stroke-linejoin:round;}.cls-2,.cls-4,.cls-44,.cls-6{stroke-width:5.51402px;}.cls-3{fill:#339e7e;}.cls-4,.cls-44,.cls-6,.cls-7,.cls-8{fill:none;}.cls-4{stroke:#10663f;}.cls-5{fill:#00593b;}.cls-6{stroke:#3dbe88;}.cls-7{stroke:#134411;}.cls-7,.cls-8{stroke-width:8.27103px;}.Graphic-Style-245{fill:#1a1a1a;}.cls-9{fill:#999399;}.cls-10{fill:#1a191a;}.cls-11{fill:#666266;}.cls-12{fill:#736e73;}.cls-13{fill:#ccc4cc;}.cls-14{fill:#b3acb3;}.cls-15{fill:#464646;}.cls-16{fill:#a6a6a6;}.cls-17{fill:#f7f7f7;}.cls-18{fill:#fc9590;}.cls-19{fill:#e8766f;}.cls-20{fill:#ffde70;}.cls-21{fill:#ffb114;}.cls-22{fill:#d9d9d9;}.cls-24{fill:#dfc262;}.cls-25{fill:#cc8e10;}.Graphic-Style-60{fill:#664708;}.Graphic-Style-244{fill:#102140;}.cls-26{fill:#f9a2a2;}.Graphic-Style-256{fill:#db6767;}.cls-27{fill:#ccdae7;}.cls-28{fill:#99a3ad;}.cls-29{fill:#b1c0cd;}.cls-30{fill:#212e3a;}.Graphic-Style-254{fill:#3b546b;}.Graphic-Style-253{fill:#4d73c6;}.Graphic-Style-252{fill:#6584c6;}.cls-31{fill:#593859;}.cls-32{fill:#332033;}.cls-33{fill:#261826;}.cls-34{fill:#423042;}.cls-35{fill:#664066;}.cls-36{fill:#3f283f;}.cls-37{fill:url(#linear-gradient-6);}.cls-38{fill:#c1d7eb;}.cls-39{fill:#35485b;}.cls-40{fill:#253543;}.cls-41{fill:#17212a;}.cls-42{fill:#d3d9de;}.cls-43{fill:#8f8f8f;}.Graphic-Style-247{fill:#912433;}.Graphic-Style-246{fill:#d1334a;}.cls-45{fill:#80590a;}.cls-46{fill:#df9b12;}.cls-47{fill:#9f6f0d;}.Graphic-Style-242{fill:#152a52;}</style><linearGradient id="linear-gradient" x1="630.66885" y1="1988.65798" x2="5311.10238" y2="1988.65798" gradientUnits="userSpaceOnUse"><stop offset="0" stop-color="#68b2fc"/><stop offset="1" stop-color="#529bf7"/></linearGradient><linearGradient id="linear-gradient-2" x1="593.40779" y1="1855.2603" x2="5183.01553" y2="1855.2603" gradientUnits="userSpaceOnUse"><stop offset="0" stop-color="#4085f0"/><stop offset="1" stop-color="#275dc9"/></linearGradient><linearGradient id="linear-gradient-3" x1="2937.40578" y1="1760.22265" x2="2819.48215" y2="5148.56142" gradientUnits="userSpaceOnUse"><stop offset="0" stop-color="#68b2fc"/><stop offset="1" stop-color="#ebf0f7"/></linearGradient><linearGradient id="linear-gradient-6" x1="4966.78731" y1="2190.83447" x2="4822.33087" y2="2529.86488" xlink:href="#linear-gradient-3"/></defs><title>9</title><path class="Graphic-Style-251" d="M1201.61345,696.85362c-98.24533,80.205-184.85284,196.28995-359.42132,864.55416-158.22651,605.70418-237.33977,908.55655-203.996,1049.12256,151.01726,636.641,1050.64015,1112.58471,1758.2514,990.83751,375.72227-64.6443,342.216-236.70158,747.98517-330.2788,837.71492-193.191,1318.39385,462.235,1787.39365,184.56784,280.49714-166.06565,372.06358-556.51138,378.84977-777.1277,13.26714-431.31147-287.178-549.33262-339.99344-1117.12141-38.91094-418.30853,112.536-479.244,19.42817-689.70068-227.86-515.04375-1296.28121-514.89322-1622.254-514.84719-497.32531.07014-396.51832,97.55584-1291.9749,165.13967C1579.094,559.49413,1392.21451,541.252,1201.61345,696.85362Z"/><path class="Graphic-Style-250" d="M890.76226,1125.64243C560.00994,1350.54372,542.9,1948.20916,657.62429,2339.90467c154.3075,526.84265,579.45157,791.46192,670.27251,845.126,235.24719,139.00184,350.68284,117.21939,1350.25939,223.42417,859.392,91.31055,931.48953,124.1381,1194.83351,87.427,343.43755-47.87649,794.92294-110.81522,1078.26481-466.27651,394.68522-495.14567,179.45089-1202.02557,116.56926-1408.54388-55.67514-182.85008-262.53611-766.33766-874.26852-1126.83521-47.322-27.8872-913.04112-522.58653-1593.11172-165.13968-408.674,214.79991-378.41146,541.85334-825.69839,699.415C1353.25061,1176.97772,1152.08186,947.95282,890.76226,1125.64243Z"/><path class="cls-1" d="M3872.98952,3495.88146c343.43764-47.87614,794.923-110.81487,1078.26511-466.27606,264.17964-331.42284,255.09921-757.696,201.356-1065.29787-579.7335,242.25615-1543.36526-290.11614-2977.99082-188.18684C1368.72663,1833.37847,910.83,2080.8269,652.577,2322.21274q2.48172,8.91014,5.04757,17.69172c154.30711,526.84279,579.45148,791.462,670.272,845.12607,235.24785,139.0022,350.68286,117.21939,1350.25942,223.42421C3537.54829,3499.76523,3609.64587,3532.59291,3872.98952,3495.88146Z"/><path class="cls-2" d="M4991.8603,1423.31529c-21.03888,39.33157-292.22066,35.97625-428.92135,31.73768q-2.195-8.893-4.18733-17.71049-3.67123-15.89416-6.81157-31.536C4656.37632,1398.86861,5016.00134,1378.15573,4991.8603,1423.31529Z"/><path class="cls-3" d="M5012.81421,1065.83121c5.17235,23.35006,22.65561,41.21582,35.8969,51.65321q12.49425,1.63274,25.47262,2.476c37.9472,2.476,74.24072-14.0095,106.326-38.06958-22.5336-5.51119-71.71407-19.35677-84.66363-38.03549-16.97943-24.4558-1.20916-28.75108,7.24224-18.23482,8.73868,15.65434,67.9469,34.58109,94.56424,42.42154a425.59772,425.59772,0,0,0,43.431-44.15032c-21.90825-1.05422-51.36513-8.30195-59.65392-19.15046-10.74781-14.06542,2.393-21.86921,13.00839-12.93757,7.7876,6.55917,44.487,10.0715,63.43325,11.48783a597.6872,597.6872,0,0,0,45.3067-67.16c.70251-1.23551,1.074-1.91184,1.074-1.91184a709.46461,709.46461,0,0,0-65.10583-66.22554c-15.16726,3.2098-38.13415,8.64149-50.23552,14.3667-19.039,9.00518-31.43745,18.67719-37.1817,11.48756-9.34329-17.00422,43.30673-32.541,71.62582-39.53419a483.67392,483.67392,0,0,0-56.46574-41.20614c-88.8146,7.25862-84.93807,67.6503-104.57009,47.68285-17.01141-17.30749,53.97465-48.11053,83.17034-59.79851-19.83153-10.22708-40.14643-17.82364-60.051-20.9324-18.28545-2.10491-35.02192-3.36263-50.31564-3.86049-42.26828,28.02664-17.6947,75.799-41.58742,66.79817-18.66014-7.02929,4.54559-46.54089,18.15211-66.98807-206.5685,4.12323-105.74286,165.91588-105.74286,165.91588-.30937.66113-.59515,1.31519-.89353,1.97265-40.06028,88.32984,17.63062,145.50512,108.42665,167.17913-5.23789-16.56787-14.66526-46.96007-15.45366-52.92676C4996.89894,1049.853,5009.71342,1045.50167,5012.81421,1065.83121Z"/><path class="cls-4" d="M5265.06806,937.08636s-249.68265,17.38006-359.13,4.83777"/><path class="cls-4" d="M5161.74792,1001.61567s-41.7618-20.47547-74.86109-56.15861"/><path class="cls-4" d="M5111.86766,879.764s-60.38094,40.45795-61.73239,66.44616"/><path class="cls-4" d="M5057.731,1049.21069S5005.98393,980.88,4997.19735,946.3888"/><path class="cls-4" d="M4957.003,867.74983s-33.82737,39.38769-20.937,76.71639"/><path class="cls-5" d="M4363.22594,955.19034q21.37837-4.536,42.07629-7.60117c23.26667,10.83634,54.61023,31.74431,66.63617,67.12271,8.17485,31.44042,28.48881,18.572,25.38252,5.67534-2.2-9.28309-22.265-54.10373-33.365-78.492,153.06793-6.3782,256.65456,60.75869,201.81442,224.37379,0,0,189.71231,215.53612-147.8114,316.28967,19.15746-39.24123,51.12239-113.66326,19.50439-116.523-40.484-3.66254,7.02455,62.346-57.89709,126.89073-25.11151,6.16127-52.7007,11.75226-82.9547,16.679-33.05767,4.043-67.4709,1.02022-101.494-6.47474,46.01149-32.18584,157.52071-114.29784,127.03469-134.51893-35.18095-23.32561-19.62962,72.50315-163.91275,124.68739-34.62221-10.761-68.14995-25.30684-98.71493-40.871,45.29234-24.20033,129.11229-73.28974,111.22514-96.513-10.49884-9.00253-29.32106,12.27552-59.11529,35.50009-18.93724,14.764-55.70625,34.00289-80.0458,46.09885-68.803-38.39987-116.67229-77.36683-116.67229-77.36683s23.67585-59.29685,65.39668-132.74819c31.23116-6.34151,91.84316-17.38122,105.59145-10.32905,18.73854,9.59916,39.06073-8.998,19.32272-26.83233-15.22229-13.75607-64.54772-12.051-100.57241-3.77647a916.08669,916.08669,0,0,1,64.36686-91.12992c44.7673.54582,144.57633,4.1639,161.26769,25.48125,15.43739,13.14519,40.59893-.97967,9.07607-32.767-24.04583-24.28657-106.66422-24.26023-144.3919-22.90274C4243.82981,1011.64608,4300.72945,968.47394,4363.22594,955.19034Z"/><path class="cls-6" d="M4078.62362,1337.66626s406.08059-141.81479,587.15731-171.39836"/><path class="cls-6" d="M4237.92255,1186.32371s71.48489,14.06682,131.10729,56.65537"/><path class="cls-6" d="M4338.1495,1360.5194s92.67663-92.88416,90.92774-135.49741"/><path class="cls-6" d="M4400.94323,1062.03007s95.12509,86.854,114.766,138.59058"/><path class="cls-6" d="M4593.49376,1309.39528s49.37167-79.05969,22.58039-133.51248"/><path class="cls-7" d="M4905.051,943.89815s-126.64838,37.68039-98.07864,310.98034"/><path class="Graphic-Style-245" d="M4772.95815,1274.66185s-133.51642-150.37612,114.44571-301.79737c-34.37164,59.00168-160.247,125.42211-71.23393,275.65753,36.86229,85.48989-17.38561,121.84387-17.38561,121.84387S4718.06033,1377.17558,4772.95815,1274.66185Z"/><path class="Graphic-Style-245" d="M4771.31748,1250.58142s-78.85619,611.94522-48.18158,902.31323,10.78615,966.0178-57.355,1120.824c64.74654-40.612,74.684-47.42645,74.684-47.42645s75.22553-573.04051,53.12981-880.96191-37.2395-517.901-12.5601-685.322,35.77085-416.82688,16.62318-433.56407C4778.37793,1235.52822,4771.31748,1250.58142,4771.31748,1250.58142Z"/><path class="cls-3" d="M4572.33735,1456.23407q-2.23416-15.78767-3.10946-31.16224c12.88179-18.24561,36.36139-43.25053,71.92922-54.68894,31.35379-8.27381,20.922-22.69837,8.08593-19.49043-9.23582,2.282-54.78657,20.40887-79.5906,30.40916,9.34205-114.79843,85.035-197.30437,238.31631-167.05271,0,0,228.508-157.34645,292.07106,89.94582-36.15338-11.77579-105.1625-30.82093-111.14775-6.8263-7.66439,30.723,61.2419-9.49166,117.31693,35.029a577.08553,577.08553,0,0,1,7.77409,61.32315c.57024,24.613-5.85692,50.72283-16.58634,76.84053-26.57829-32.467-94.98057-110.87405-117.70628-86.561-26.21623,28.05668,68.398,9.88857,104.41863,114.98543-13.96111,26.78891-31.48564,53.0091-49.69813,77.0676-18.89847-32.46407-58.05065-92.25333-82.41237-77.2222-9.80566,8.51044,8.94208,21.245,28.46608,42.108,12.41185,13.26037,27.35849,39.64266,36.6318,57.14974a937.97214,937.97214,0,0,1-86.9528,93.04648,1101.81723,1101.81723,0,0,1-122.24258-40.27972c-2.98715-23.083-7.55382-67.967.6881-78.79208,11.22112-14.75346-4.77158-28.798-24.08935-12.73686-14.9,12.38672-18.25049,49.4036-13.87318,75.96483-27.55484-12.2096-55.74362-26.33329-81.94172-42.31056,5.0732-33.73732,18.71514-109.1168,41.10518-123.11925,14.32879-12.50746,3.16914-30.49653-30.891-4.6231-26.01911,19.739-34.3782,81.9318-36.88913,110.24141C4615.03067,1542.30816,4578.89126,1502.38535,4572.33735,1456.23407Z"/><path class="cls-4" d="M4914.78332,1644.69259s-96.47-296.13289-106.81457-430.45154"/><path class="cls-4" d="M4784.01811,1534.97761s20.91164-54.76177,68.3099-102.5166"/><path class="cls-4" d="M4963.30889,1447.78246s-80.77177-63.50369-122.32063-59.314"/><path class="cls-4" d="M4679.89123,1420.63718s93.97671-77.46557,146.19882-95.7394"/><path class="cls-4" d="M4939.58874,1259.00808s-71.74506-31.83611-127.32988-7.99639"/><path class="cls-3" d="M4500.51375,583.37647q12.43574,8.822,23.75053,18.11807c4.91132,18.57826,8.07806,47.19707-5.66226,73.74726-13.381,22.25468,3.11433,25.76652,8.71811,16.76955,4.05039-6.45691,19.2088-42.66929,27.37224-62.47057,74.77121,78.019,86.30917,171.4843-28.67607,235.35193,0,0-29.48064,223.86656-241.74725,101.16872,30.37431-12.11493,85.94593-37.421,72.7847-55.91423-16.85129-23.67936-30.81225,39.23075-96.33219,41.33559-15.06281-9.88826-30.96771-21.42275-47.75047-34.75675-17.60533-15.3325-31.97921-35.40949-43.72652-57.8237,39.02326,6.225,135.843,18.9725,132.70007-8.79794-3.63213-32.04172-48.778,30.79384-144.49957-16.469-10.2408-24.59263-17.90282-50.75555-23.62837-75.91765,34.32278,10.38628,100.19453,27.15842,104.56019,4.39979.03221-10.724-20.36577-8.65383-46.93759-11.32851-16.89041-1.69863-44.5315-10.36218-62.47921-16.461a719.26812,719.26812,0,0,1-12.03944-106.26775s43.44265-21.11925,103.027-40.66891c18.01128,13.05,52.27378,39.09832,54.82109,50.44559,3.4789,15.45875,23.10979,15.71455,23.66751-4.96435.43116-15.949-23.472-41.28957-44.77243-55.7964a646.28593,646.28593,0,0,1,79.79529-17.53152c20.54991,24.1903,65.05342,79.48936,61.17277,100.52543.003,15.716,19.44265,21.09859,22.14-13.8078,2.07887-26.649-36.41124-70.70405-54.72329-90.056C4414.047,551.81988,4464.14693,557.6,4500.51375,583.37647Z"/><path class="cls-4" d="M4158.87937,649.248s266.64139,135.89756,367.14244,215.64973"/><path class="cls-4" d="M4315.80226,648.08529s25.60067,46.1373,30.08453,102.17986"/><path class="cls-4" d="M4267.24813,800.69023s93.93827-3.429,116.41984-28.61491"/><path class="cls-4" d="M4459.67113,664.30254s-3.18166,100.17365-22.31845,140.09593"/><path class="cls-4" d="M4414.11176,907.79835s66.21335-18.66053,83.50508-63.94285"/><path class="cls-3" d="M4892.8031,763.32008c18.33959-4.64675,30.63647-18.49217,37.43208-28.884q-.27411-9.55509-1.25283-19.45442c-2.85318-28.94478-20.92585-56.05349-44.62308-79.72981-1.59436,17.311-6.553,55.14834-20.09315,65.56941-17.72475,13.663-23.24358,1.79628-15.7693-4.95389,11.619-7.12535,19.42644-52.74643,22.39254-73.23525a409.42246,409.42246,0,0,0-41.503-31.69547c1.95265,16.69939-.16678,39.33039-7.93233,45.967-10.06812,8.60541-18.105-1.154-12.19793-9.50211,4.339-6.12455,2.4893-34.1516,1.21133-48.60863a582.604,582.604,0,0,0-60.46977-32.42108c-1.09563-.49679-1.69372-.75879-1.69372-.75879a463.70007,463.70007,0,0,0-45.54434,51.54959c4.55806,11.441,11.925,28.74812,18.1369,37.78,9.77127,14.20988,19.23333,23.34753,14.11907,27.93677-12.64,7.62646-32.03892-31.9548-41.36332-53.2861a309.48706,309.48706,0,0,0-26.29107,44.21379c17.30142,67.34672,65.9531,62.55671,52.22145,78.10091-11.90308,13.46943-46.0786-39.5961-59.33625-61.4512-5.779,15.39908-9.35512,31.08572-9.33158,46.3234.6328,13.97529,1.75635,26.74632,3.31321,38.39659,28.23176,31.30237,63.95815,11.1512,59.69813,29.60256-3.32678,14.41044-38.45987-2.03953-56.84614-11.76777,29.85644,157.02658,148.59436,75.38918,148.59436,75.38918.57774.21521,1.1467.41269,1.72.61965,77.02548,27.78443,116.15565-17.8482,122.14649-87.58426-12.81158,4.48987-36.33644,12.58839-41.09121,13.37007C4881.84124,775.91507,4876.656,766.29876,4892.8031,763.32008Z"/><path class="cls-4" d="M4755.66393,575.33588s46.17648,189.42268,50.01017,273.06987"/><path class="cls-4" d="M4821.43529,651.97235s-11.30605,32.39549-36.1,58.6643"/><path class="cls-4" d="M4728.66706,693.63429s40.6725,44.7031,61.99605,44.93909"/><path class="cls-4" d="M4873.5143,729.65507s-48.97139,41.45077-75.9144,49.18674"/><path class="cls-4" d="M4738.75713,811.81777s36.39492,24.53443,65.12069,13.58991"/><path class="cls-7" d="M4805.67439,848.4008s21.339,3.1033-32.71624,263.7207"/><path class="cls-7" d="M4523.94373,867.608s231.28156,68.3389,249.01442,249.38654"/><path class="cls-7" d="M4648.45094,1172.222c5.68826-2.04074,103.01308-10.86485,135.2147,11.916"/><path class="cls-8" d="M4715.8129,3157.35572c1.31026-6.55132-15.72315-123.16468-9.17184-210.95226s146.41479-278.1025,100.72291-398.48322-96.79212-180.6528-88.93055-327.4022,108.41718-169.02386,88.93055-239.778-62.7253-125.47971-62.7253-125.47971"/><path class="cls-8" d="M4752.99064,2015.7842s76.81509-76.36162,41.438-160.5239-114.77827-59.0999-89.29292-128.71121,47.85491-179.506,47.85491-179.506"/><polygon class="cls-9" points="4938.305 2623.473 3303.096 3069.004 3303.096 3176.61 4938.305 2731.102 4938.305 2623.473"/><polygon class="cls-10" points="3150.049 3040.742 3112.707 3451.513 3067.051 3451.513 3097.915 3040.742 3150.049 3040.742"/><polygon class="cls-11" points="3008.435 2993.573 2985.125 3442.16 3067.051 3451.513 3098.949 3026.985 3008.435 2993.573"/><polygon class="cls-12" points="3302.282 3069.226 1776.611 2259.231 1776.611 2366.86 3302.282 3176.831 3303.096 3176.61 3303.096 3069.004 3302.282 3069.226"/><polygon class="cls-13" points="4938.305 2623.473 3302.282 3069.226 1776.611 2259.231 2757.735 2115.969 4938.305 2623.473"/><path class="cls-12" d="M2359.961,2279.82593s536.74364,214.1352,577.49819,214.1352,316.30269-79.082,316.30269-79.082-6.75318-19.65932,38.45087-21.188,157.88663-34.91783,157.88663-34.91783l203.98992,58.40535,140.8795-57.4459-745.31839-175.82409-161.43871,34.92629,122.94975,36.2306-53.557,11.74375,15.068,34.84032-293.82636-94.25431Z"/><path class="cls-12" d="M4353.83749,2721.67841l-507.89183-6.95454s205.85208-121.68459,202.28851-114.99674,391.11335,22.1949,391.11335,22.1949l31.05915,46.89258Z"/><ellipse class="cls-12" cx="3774.597" cy="2621.92203" rx="273.63717" ry="96.10917"/><path class="cls-14" d="M3006.08415,2745.9333s96.55747,105.14856,245.06378,12.77506,118.04271-150.341,80.70022-146.90737S2949.57908,2674.19643,3006.08415,2745.9333Z"/><polygon class="cls-15" points="2401.844 2285.648 2978.214 2493.961 3260.111 2418.368 3263.387 2398.059 2672.759 2223.585 2405.12 2265.339 2401.844 2285.648"/><polygon class="cls-16" points="2405.12 2265.339 2981.489 2473.652 3263.387 2398.059 2676.035 2203.276 2405.12 2265.339"/><polygon class="cls-17" points="2438.216 2270.978 2970.134 2463.226 3230.291 2393.462 2688.237 2213.703 2438.216 2270.978"/><polygon class="cls-16" points="2691.785 2223.585 2675.734 2228.052 2694.733 2234.603 2705.87 2229.094 2691.785 2223.585"/><polygon class="cls-16" points="2716.462 2233.878 2702.267 2239.07 2721.266 2245.621 2732.403 2240.112 2716.462 2233.878"/><polygon class="cls-16" points="2749.874 2245.621 2735.679 2250.814 2754.678 2257.365 2765.815 2251.856 2749.874 2245.621"/><polygon class="cls-16" points="2783.285 2257.365 2769.09 2262.557 2788.089 2269.109 2799.226 2263.6 2783.285 2257.365"/><polygon class="cls-16" points="2816.697 2269.109 2802.502 2274.301 2821.501 2280.853 2832.638 2275.344 2816.697 2269.109"/><polygon class="cls-16" points="2850.109 2280.853 2835.914 2286.045 2854.913 2292.596 2866.05 2287.087 2850.109 2280.853"/><polygon class="cls-16" points="2883.52 2292.596 2869.325 2297.789 2888.324 2304.34 2899.462 2298.831 2883.52 2292.596"/><polygon class="cls-16" points="2916.932 2304.34 2902.737 2309.533 2921.736 2316.084 2932.873 2310.575 2916.932 2304.34"/><polygon class="cls-16" points="2950.344 2316.084 2936.149 2321.276 2955.148 2327.828 2966.285 2322.319 2950.344 2316.084"/><polygon class="cls-16" points="2983.755 2327.828 2969.561 2333.02 2988.559 2339.571 2999.697 2334.062 2983.755 2327.828"/><polygon class="cls-16" points="3083.991 2363.059 3069.796 2368.251 3088.794 2374.803 3099.932 2369.294 3083.991 2363.059"/><polygon class="cls-16" points="3117.402 2374.803 3103.207 2379.995 3122.206 2386.546 3133.343 2381.037 3117.402 2374.803"/><polygon class="cls-16" points="3150.814 2386.546 3136.619 2391.739 3155.618 2398.29 3166.755 2392.781 3150.814 2386.546"/><polygon class="cls-16" points="3184.226 2398.29 3170.031 2403.483 3189.03 2410.034 3200.167 2404.525 3184.226 2398.29"/><polygon class="cls-16" points="2638.228 2233.03 2622.177 2237.496 2641.176 2244.048 2652.313 2238.539 2638.228 2233.03"/><polygon class="cls-16" points="2662.905 2243.322 2648.71 2248.514 2667.709 2255.066 2678.846 2249.557 2662.905 2243.322"/><polygon class="cls-16" points="2696.317 2255.066 2682.122 2260.258 2701.121 2266.809 2712.258 2261.3 2696.317 2255.066"/><polygon class="cls-16" points="2729.728 2266.809 2715.533 2272.002 2734.532 2278.553 2745.669 2273.044 2729.728 2266.809"/><polygon class="cls-16" points="2763.14 2278.553 2748.945 2283.745 2767.944 2290.297 2779.081 2284.788 2763.14 2278.553"/><polygon class="cls-16" points="2796.552 2290.297 2782.357 2295.489 2801.356 2302.041 2812.493 2296.532 2796.552 2290.297"/><polygon class="cls-16" points="2829.963 2302.041 2815.769 2307.233 2834.767 2313.784 2845.905 2308.275 2829.963 2302.041"/><polygon class="cls-16" points="2863.375 2313.784 2849.18 2318.977 2868.179 2325.528 2879.316 2320.019 2863.375 2313.784"/><polygon class="cls-16" points="2896.787 2325.528 2882.592 2330.721 2901.591 2337.272 2912.728 2331.763 2896.787 2325.528"/><polygon class="cls-16" points="2930.198 2337.272 2916.004 2342.464 2935.002 2349.016 2946.14 2343.507 2930.198 2337.272"/><polygon class="cls-16" points="3063.845 2384.247 3049.65 2389.439 3068.649 2395.991 3079.786 2390.482 3063.845 2384.247"/><polygon class="cls-16" points="3097.257 2395.991 3083.062 2401.183 3102.061 2407.734 3113.198 2402.225 3097.257 2395.991"/><polygon class="cls-16" points="3130.669 2407.734 3116.474 2412.927 3135.473 2419.478 3146.61 2413.969 3130.669 2407.734"/><polygon class="cls-16" points="2584.671 2242.474 2568.62 2246.941 2587.619 2253.492 2598.756 2247.983 2584.671 2242.474"/><polygon class="cls-16" points="2609.348 2252.766 2595.153 2257.958 2614.152 2264.51 2625.289 2259.001 2609.348 2252.766"/><polygon class="cls-16" points="2642.76 2264.51 2628.565 2269.702 2647.564 2276.254 2658.701 2270.745 2642.76 2264.51"/><polygon class="cls-16" points="2676.171 2276.254 2661.976 2281.446 2680.975 2287.997 2692.112 2282.488 2676.171 2276.254"/><polygon class="cls-16" points="2709.583 2287.997 2695.388 2293.19 2714.387 2299.741 2725.524 2294.232 2709.583 2287.997"/><polygon class="cls-16" points="2742.995 2299.741 2728.8 2304.934 2747.799 2311.485 2758.936 2305.976 2742.995 2299.741"/><polygon class="cls-16" points="2776.406 2311.485 2762.212 2316.677 2781.21 2323.229 2792.348 2317.72 2776.406 2311.485"/><polygon class="cls-16" points="2809.818 2323.229 2795.623 2328.421 2814.622 2334.972 2825.759 2329.463 2809.818 2323.229"/><polygon class="cls-16" points="2843.23 2334.972 2829.035 2340.165 2848.034 2346.716 2859.171 2341.207 2843.23 2334.972"/><polygon class="cls-16" points="2876.641 2346.716 2862.447 2351.909 2881.445 2358.46 2892.583 2352.951 2876.641 2346.716"/><polygon class="cls-16" points="2910.053 2358.46 2895.858 2363.652 2914.857 2370.204 2925.994 2364.695 2910.053 2358.46"/><polygon class="cls-16" points="3010.288 2393.691 2996.093 2398.884 3015.092 2405.435 3026.229 2399.926 3010.288 2393.691"/><polygon class="cls-16" points="3043.7 2405.435 3029.505 2410.627 3048.504 2417.179 3059.641 2411.67 3043.7 2405.435"/><polygon class="cls-16" points="3077.112 2417.179 3062.917 2422.371 3081.916 2428.922 3093.053 2423.413 3077.112 2417.179"/><polygon class="cls-16" points="2531.114 2251.918 2515.063 2256.385 2534.062 2262.936 2545.199 2257.427 2531.114 2251.918"/><polygon class="cls-16" points="2555.791 2262.21 2541.596 2267.403 2560.595 2273.954 2571.732 2268.445 2555.791 2262.21"/><polygon class="cls-16" points="2589.203 2273.954 2575.008 2279.146 2594.007 2285.698 2605.144 2280.189 2589.203 2273.954"/><polygon class="cls-16" points="2622.614 2285.698 2608.419 2290.89 2627.418 2297.442 2638.556 2291.933 2622.614 2285.698"/><polygon class="cls-16" points="2656.026 2297.442 2641.831 2302.634 2660.83 2309.185 2671.967 2303.676 2656.026 2297.442"/><polygon class="cls-16" points="2689.438 2309.185 2675.243 2314.378 2694.242 2320.929 2705.379 2315.42 2689.438 2309.185"/><polygon class="cls-16" points="2722.849 2320.929 2708.655 2326.122 2727.653 2332.673 2738.791 2327.164 2722.849 2320.929"/><polygon class="cls-16" points="2756.261 2332.673 2742.066 2337.865 2761.065 2344.417 2772.202 2338.908 2756.261 2332.673"/><polygon class="cls-16" points="2789.673 2344.417 2775.478 2349.609 2794.477 2356.16 2805.614 2350.651 2789.673 2344.417"/><polygon class="cls-16" points="2823.085 2356.16 2808.89 2361.353 2827.888 2367.904 2839.026 2362.395 2823.085 2356.16"/><polygon class="cls-16" points="2856.496 2367.904 2842.301 2373.097 2861.3 2379.648 2872.437 2374.139 2856.496 2367.904"/><polygon class="cls-16" points="2956.731 2403.135 2942.536 2408.328 2961.535 2414.879 2972.672 2409.37 2956.731 2403.135"/><polygon class="cls-16" points="2990.143 2414.879 2975.948 2420.072 2994.947 2426.623 3006.084 2421.114 2990.143 2414.879"/><polygon class="cls-16" points="3023.555 2426.623 3009.36 2431.815 3028.359 2438.367 3039.496 2432.858 3023.555 2426.623"/><polygon class="cls-16" points="2477.557 2261.362 2461.506 2265.829 2480.505 2272.38 2491.642 2266.871 2477.557 2261.362"/><polygon class="cls-16" points="2502.234 2271.655 2488.039 2276.847 2507.038 2283.398 2518.175 2277.889 2502.234 2271.655"/><polygon class="cls-16" points="2535.646 2283.398 2521.451 2288.591 2540.45 2295.142 2551.587 2289.633 2535.646 2283.398"/><polygon class="cls-16" points="2569.057 2295.142 2554.863 2300.335 2573.861 2306.886 2584.999 2301.377 2569.057 2295.142"/><polygon class="cls-16" points="2602.469 2306.886 2588.274 2312.078 2607.273 2318.63 2618.41 2313.121 2602.469 2306.886"/><polygon class="cls-16" points="2635.881 2318.63 2621.686 2323.822 2640.685 2330.373 2651.822 2324.864 2635.881 2318.63"/><polygon class="cls-16" points="2669.292 2330.373 2655.098 2335.566 2674.096 2342.117 2685.234 2336.608 2669.292 2330.373"/><polygon class="cls-16" points="2702.704 2342.117 2688.509 2347.31 2707.508 2353.861 2718.645 2348.352 2702.704 2342.117"/><polygon class="cls-16" points="2736.116 2353.861 2721.921 2359.053 2740.92 2365.605 2752.057 2360.096 2736.116 2353.861"/><polygon class="cls-16" points="2769.528 2365.605 2755.333 2370.797 2774.331 2377.348 2785.469 2371.839 2769.528 2365.605"/><polygon class="cls-16" points="2802.939 2377.348 2788.744 2382.541 2807.743 2389.092 2818.88 2383.583 2802.939 2377.348"/><polygon class="cls-16" points="2836.351 2389.092 2822.156 2394.285 2841.155 2400.836 2852.292 2395.327 2836.351 2389.092"/><polygon class="cls-16" points="2903.174 2412.58 2888.979 2417.772 2907.978 2424.323 2919.115 2418.814 2903.174 2412.58"/><polygon class="cls-16" points="2936.586 2424.323 2922.391 2429.516 2941.39 2436.067 2952.527 2430.558 2936.586 2424.323"/><polygon class="cls-16" points="2969.998 2436.067 2955.803 2441.26 2974.802 2447.811 2985.939 2442.302 2969.998 2436.067"/><path class="cls-18" d="M2715.99749,2688.69121c35.84114-60.65424-41.35516-115.79445-96.49537-151.63559-17.97172-11.059-43.56561-20.04015-65.31679-31.11128-29.79065-7.30782-52.71638-11.98316-52.71638-11.98316s-385.21685-266.89156-454.00548-300.30348-128.73341-92.374-128.73341-92.374-79.99168,40.72649-90.78615,112.41886c29.76911,32.97172,70.48012,57.18172,102.30555,89.00716,8.271,8.271,24.8131,8.271,30.32712,16.54206,13.78505,19.29908,30.32712,24.8131,46.86918,35.84114,137.85053,79.95331,278.45807,124.06548,424.57964,173.69167,19.29907,8.271,33.08412,22.05608,46.86918,35.84114,11.028,13.785,13.785,30.32711,22.05608,46.86918a351.50506,351.50506,0,0,1,19.29908,33.08413c.74983,1.25061,1.50168,2.508,2.25218,3.76127,25.48553,23.65738,55.34215,45.14268,65.37333,41.59882,16.63428-5.87615,4.985-25.56966-16.63428-46.20618-23.58469-20.63652-17.689-47.16938-18.67174-51.13595-.974-3.93224,74.31947,72.36547,101.47226,91.87792C2680.58848,2695.34882,2705.26157,2704.79441,2715.99749,2688.69121Z"/><path class="cls-19" d="M2657.718,2537.6015c-28.05608-11.94951-70.114-23.45949-103.53262-31.65716,21.75118,11.07113,47.34507,20.05228,65.31679,31.11128,55.14021,35.84114,132.33651,90.98135,96.49537,151.63559-10.73592,16.1032-35.409,6.65761-61.956-4.21629.23693.16962.49876.36953.72829.53107,26.53286,18.67108,90.40854,22.602,112.02779,7.86179C2788.41681,2678.12693,2710.78367,2560.20347,2657.718,2537.6015Z"/><path class="cls-19" d="M2500.95066,2611.49491c-8.271-16.54207-11.028-33.08413-22.05608-46.86918-13.78506-13.78506-27.57011-27.57011-46.86918-35.84114-146.12157-49.62619-286.72911-93.73836-424.57964-173.69167-16.54206-11.028-33.08413-16.54206-46.86918-35.84114-5.514-8.271-22.05609-8.271-30.32712-16.54206-31.82543-31.82544-72.53644-56.03544-102.30555-89.00716a110.45149,110.45149,0,0,0,1.361,39.89925c82.54608,157.23173,516.89843,265.32862,548.34491,279.08608,31.44581,13.75813,86.477,35.46891,107.1135,72.628,6.07606,10.93986,20.9623,27.45164,37.7386,43.02444-.7505-1.25331-1.50235-2.51066-2.25218-3.76127A351.50506,351.50506,0,0,0,2500.95066,2611.49491Z"/><path class="cls-20" d="M1808.19722,1908.577c1.2486,3.57415,2.43931,7.19273,3.50078,10.90823,24.83531,104.30735,11.66076,251.102,107.54361,309.432,21.40857-38.1667,36.07807-80.83642,41.74421-117.80634C1918.34572,2077.43179,1862.9329,1992.29361,1808.19722,1908.577Z"/><path class="cls-21" d="M1811.698,1919.48524c-1.06147-3.7155-2.25218-7.33408-3.50078-10.90823-68.95152-105.459-136.82675-208.66115-176.73475-203.88619l-46.14223,468.70527s101.31,113.99862,241.58373,151.56626c36.99146-17.42584,68.755-54.00268,92.33764-96.04507C1823.35876,2170.58725,1836.53331,2023.79259,1811.698,1919.48524Z"/><path class="cls-22" d="M1813.5147,2325.47188c12.3352,7.845,22.38052,13.70025,30.75924,18.09356,41.99528-55.32128,57.78482-132.81037,69.43346-200.76234C1892.19585,2207.33775,1862.38163,2276.00185,1813.5147,2325.47188Z"/><path class="cls-23" d="M1967.19044,2078.23547c-17.65133-14.23333-40.92639-17.56921-40.92639-17.56921s-123.39373,261.072-157.34548,234.702c17.62979,12.42607,32.25016,22.25263,44.59613,30.10365,48.86693-49.47,78.68115-118.13413,100.1927-182.66878-11.64864,67.952-27.43818,145.44106-69.43346,200.76234,23.79807,12.47789,34.31321,13.29907,46.61273,15.208,13.06417,2.02737,50.549-85.23309,74.09332-159.5317C1969.23262,2159.61036,1968.40875,2118.66849,1967.19044,2078.23547Z"/><path class="cls-22" d="M1983.91559,2101.2837a51.03212,51.03212,0,0,0-16.72515-23.04823c1.21831,40.433,2.04218,81.37489-2.21045,121.00625C1979.218,2154.31241,1988.35938,2114.121,1983.91559,2101.2837Z"/><path class="cls-18" d="M1673.84747,1268.83073c-30.32711,5.514-52.3832,35.84114-66.16825,60.65423-55.14021,96.49538-115.79445,176.44868-176.44868,267.43-8.03141,12.04711-13.14023,22.63966-18.51761,33.89184l172.60731,18.02827c21.22077-69.13393,52.67667-134.24,105.23623-191.04415,0,0,87.42671,50.99864,145.711,30.35673,44.64459-15.81175,138.603-234.18637,130.69078-389.37525C1916.62326,1218.67346,1791.35563,1252.807,1673.84747,1268.83073Z"/><path class="cls-19" d="M1483.32229,1224.6526c-64.76081,278.47086-153.77267,397.46858-153.77267,397.46858l83.16331,8.68566c5.37738-11.25218,10.4862-21.84473,18.51761-33.89184,60.65423-90.98136,121.30847-170.93466,176.44868-267.43,13.785-24.81309,35.84114-55.14021,66.16825-60.65423,117.50816-16.02378,242.77579-50.15727,293.11075-170.05829-2.41709-47.41573-14.3417-88.93378-40.09175-116.97236C1816.8398,861.99262,1548.08309,946.18173,1483.32229,1224.6526Z"/><path class="cls-24" d="M1351.27723,2341.30787c113.03743-176.44868,60.65423-383.22448,38.59815-576.21523-8.1943-77.84785,21.67982-149.59677,64.713-210.74236a550.751,550.751,0,0,0-63.00536-12.14539c-39.85617,57.32442-56.6143,129.25574-87.175,192.56064-11.028,19.29907-8.271,44.11217-13.785,63.41124-46.86919,121.30847-63.41125,248.131-68.92527,374.95345-5.1943,83.11081-10.37446,163.77626.5654,246.60369C1274.6571,2409.66638,1323.58866,2385.14743,1351.27723,2341.30787Z"/><path class="cls-20" d="M1603.12907,1616.45437a545.81569,545.81569,0,0,0-148.54068-62.10409c-43.03319,61.14559-72.90731,132.89451-64.713,210.74236,22.05608,192.99075,74.43928,399.76655-38.59815,576.21523-27.68857,43.83956-76.62013,68.35851-129.0141,78.426.6731,5.096,1.39264,10.19879,2.19161,15.31232,13.78505,88.22434,44.11217,168.17765,71.68228,256.402,8.271,27.5701,24.81309,52.3832,41.35516,77.19629,71.68227,90.98136,148.87857,162.66363,245.37394,220.56085,95.00648,53.8371,195.26986,78.15076,297.84533,88.297C1867.66478,2606.07579,1814.75522,1744.50593,1603.12907,1616.45437Z"/><path class="cls-25" d="M904.64151,2377.149c90.98135,38.59815,187.47672,52.38321,286.7291,46.86919a303.00117,303.00117,0,0,0,30.89252-4.28428c-10.93986-82.82743-5.7597-163.49288-.5654-246.60369,5.514-126.82249,22.05608-253.645,68.92527-374.95345,5.514-19.29907,2.757-44.11217,13.785-63.41124,30.56068-63.3049,47.31881-135.23622,87.175-192.56064-63.0397-8.35517-104.971-2.654-104.971-2.654s-256.51843,181.40806-409.28146,817.37961C885.24954,2365.41825,894.20714,2372.51136,904.64151,2377.149Z"/><path class="Graphic-Style-60" d="M1036.978,3066.40166c-86.2589-90.17969-182.2582-190.12334-231.533-307.74862q-10.63664,84.8538-18.68723,177.107c152.12628,220.41479,392.52939,404.38265,665.28632,525.92536,1.6.23491,3.17433.43751,4.76689.66166C1365.69769,3284.97351,1220.37576,3145.78284,1036.978,3066.40166Z"/><path class="cls-21" d="M1884.83821,3384.41974s.93157-124.14961-4.12676-306.91734c-102.57547-10.14628-202.83885-34.45994-297.84533-88.297-96.49537-57.89722-173.69167-129.57949-245.37394-220.56085-16.54207-24.81309-33.08413-49.62619-41.35516-77.19629-27.57011-88.22434-57.89723-168.17765-71.68228-256.402-.799-5.11353-1.51851-10.21629-2.19161-15.31232a303.00117,303.00117,0,0,1-30.89252,4.28428c-99.25238,5.514-195.74775-8.271-286.7291-46.86919-10.43437-4.63764-19.392-11.73075-27.311-20.21852C849.0483,2474.67354,824.32876,2608.015,805.445,2758.653c49.27483,117.62528,145.27413,217.56893,231.533,307.74862,183.39774,79.38118,328.71967,218.57185,419.833,395.94537C1732.93541,3501.26355,1884.83821,3384.41974,1884.83821,3384.41974Z"/><path class="cls-21" d="M1544.268,2418.50416c-8.271-13.785-24.81309-24.81309-33.08412-41.35516-.98542-2.39286-2.00718-4.7487-3.00606-7.12743,40.80053,149.04281,131.26628,406.02164,287.55567,497.841a204.45478,204.45478,0,0,0,78.24633-31.99573C1721.6388,2739.57205,1630.45754,2577.82384,1544.268,2418.50416Z"/><path class="cls-20" d="M1993.66071,2677.66316c8.38815-18.87435,13.5986-40.93447,20.45949-62.54968-21.47654-14.18622-35.61632-33.45837-49.95-56.39217-40.47542-64.76013-178.3973-615.2354-235.371-741.50865l-247.0116,442.01827s8.33229,44.82768,26.39017,110.79064c.99888,2.37873,2.02064,4.73457,3.00606,7.12743,8.271,16.54207,24.81309,27.57011,33.08412,41.35516,86.18957,159.31968,177.37083,321.06789,329.71182,417.36268C1928.698,2798.907,1964.25843,2738.30528,1993.66071,2677.66316Z"/><path class="Graphic-Style-245" d="M1593.89416,1238.50361c-27.5701,5.514-52.3832,16.54207-71.68227,38.59815-107.52342,135.09352-176.44868,289.48612-184.71971,457.66377-4.65784,97.82137-7.34485,197.60954,16.86447,292.71766-13.80592-133.93377-39.64347-277.54939,25.34821-378.64808,145.71165-226.66249,219.79487-387.467,316.93574-390.7053,56.96566-1.89813,145.24654-43.16175,205.59316-108.95375-17.8647,13.28562-35.03745,26.35988-54.69462,36.94435C1767.58583,1224.71856,1682.1185,1216.44753,1593.89416,1238.50361Z"/><path class="Graphic-Style-244" d="M1967.43141,978.56247c-150.59161-148.94992-377.25409-148.94992-497.06155,74.47429C1350.56307,1276.461,932.04738,1607.55,853.52508,1992.90882c0,0-92.2838,454.64088,299.518,388.80043,217.04458-36.47318,218.45944-187.88261,201.3136-354.22606-24.20932-95.10812-21.52231-194.89629-16.86447-292.71766,8.271-168.17765,77.19629-322.57025,184.71971-457.66377,19.29907-22.05608,44.11217-33.08413,71.68227-38.59815,88.22434-22.05608,173.69167-13.785,253.645-52.3832,19.65717-10.58447,36.82992-23.65873,54.69462-36.94435C1944.79377,1102.776,1973.46708,1044.18148,1967.43141,978.56247Z"/><path class="cls-19" d="M2216.04431,1842.16711c-6.81041,33.28337-3.25713,88.97686,5.07381,125.51062C2233.31668,1927.49646,2211.01021,1882.83033,2216.04431,1842.16711Z"/><path class="cls-18" d="M2232.21078,1814.60912c-7.87525,1.96074-13.0783,12.46847-16.16647,27.558-5.0341,40.66322,17.27237,85.32935,5.07381,125.51062.61723,2.7072,1.25331,5.34171,1.92035,7.8214l13.75746,51.10028,22.92976-182.78186S2246.71,1804.80881,2232.21078,1814.60912Z"/><path class="cls-26" d="M2222.49259,2148.31712c3.696-18.47991,8.615-41.90844,3.99484-61.16444-15.6004,81.81577-70.85437,210.34793-124.11125,344.11881-28.93582,72.67981-59.512,115.05-77.67958,141.06121a40.029,40.029,0,0,0,13.07628-7.707C2153.56732,2457.10231,2181.13743,2297.1957,2222.49259,2148.31712Z"/><path class="cls-18" d="M2401.84367,1741.617c-3.93089-21.61924-75.29412-80.5813-92.98315-49.13483-17.68835,31.44648-51.10027,88.4431-70.75407,178.96809-19.6538,90.52567-7.86111,189.54314-7.86111,189.54314a257.65148,257.65148,0,0,1-3.75791,26.15929c4.62014,19.256-.29886,42.68453-3.99484,61.16444-41.35516,148.87858-68.92527,308.78519-184.71971,416.30861a40.029,40.029,0,0,1-13.07628,7.707c-13.15975,18.83935-19.82208,29.11285-14.57595,36.02288,36.80569,51.98271-242.205,159.846-233.50924,221.43453,4.29437,30.41529,145.50029,179.479,300.3331,94.51646,154.83212-84.9625,272.03335-717.794,268.27611-851.5205.02625-14.93067,41.94412-42.27461,56.62305-73.192C2430.71555,1938.78431,2405.77456,1763.23624,2401.84367,1741.617Z"/><path class="cls-19" d="M2345.22062,2072.78607c.02625-14.93067,41.94412-42.27461,56.62305-73.192,28.87188-60.80972,3.93089-236.35779,0-257.977-.762-4.19071-4.07763-9.79021-9.0249-15.85617,9.84339,88.83955-28.93564,244.91925-66.92463,313.6621,0,72.71952-111.37238,810.67591-264.67321,863.17152-108.7599,37.2432-198.708-66.46172-241.80451-129.875-27.05855,21.01682-45.11912,40.68206-42.805,57.07066,4.29437,30.41529,145.50029,179.479,300.3331,94.51646C2231.77663,2839.34407,2348.97786,2206.51253,2345.22062,2072.78607Z"/><path class="cls-22" d="M1762.07181,2785.18658c33.07067-13.2284,67.1254-27.45837,94.44714-49.21291-87.40518,32.8297-170.4534,33.75319-170.4534,33.75319a227.93763,227.93763,0,0,0,9.28809,23.55036C1717.78935,2794.77688,1740.43238,2793.50944,1762.07181,2785.18658Z"/><path class="cls-22" d="M1833.75409,2804.48565c-32.28718,24.836-71.28784,31.76755-110.95218,36.93021a238.09172,238.09172,0,0,0,17.84922,22.33408C1778.58291,2857.10309,1813.29123,2840.29583,1833.75409,2804.48565Z"/><path class="cls-23" d="M2001.79645,2576.62236c-16.65582-14.66008-29.7873-5.7772-29.7873-5.7772s66.93761,58.47474-40.50369,127.91829c-24.09288,15.57213-49.72109,27.72021-74.98651,37.21022-27.32174,21.75454-61.37647,35.98451-94.44714,49.21291-21.63943,8.32286-44.28246,9.5903-66.71817,8.09064a291.29049,291.29049,0,0,0,27.44827,48.13864c39.66434-5.16266,78.665-12.09423,110.95218-36.93021-20.46286,35.81018-55.17118,52.61744-93.103,59.26429a197.18149,197.18149,0,0,0,24.78012,23.1216c58.64638-3.96657,116.48168-34.04935,159.30419-76.87187C1982.3291,2744.89357,2014.89561,2661.59227,2001.79645,2576.62236Z"/><path class="cls-22" d="M2030.91266,2627.67754c-9.70944-27.799-19.94525-42.98271-29.11621-51.05518,13.09916,84.96991-19.46735,168.27121-77.061,233.37731-42.82251,42.82252-100.65781,72.9053-159.30419,76.87187a161.09017,161.09017,0,0,0,36.35807,21.53443c83.85661,35.3767,107.4413,7.86112,148.05942-44.549C1990.46686,2811.44616,2051.877,2762.96626,2030.91266,2627.67754Z"/><path class="Graphic-Style-256" d="M1633.748,1396.69051s12.58494,40.63658,56.80826,61.10021l-33.935,41.71382S1622.93832,1435.99838,1633.748,1396.69051Z"/><path class="Graphic-Style-244" d="M1972.7784,1016.38683s-18.67124,29.4809-25.55012,71.73687c2.94809,28.4982,30.21693,46.77255,21.00465,67.80608C2019.94785,1118.5873,1991.44964,1016.38683,1972.7784,1016.38683Z"/><path class="cls-15" d="M3008.43533,2291.04446c6.47607,0,293.85141,90.66489,293.85141,90.66489l320.29533-82.03014s49.9609-30.69321,24.05665-125.67548c-243.93175-45.33245-257.195-43.78153-257.195-43.78153s15.11081,100.379-37.777,109.01374c-43.37813,7.08215-355.55058,28.87246-355.55058,28.87246C2991.33577,2278.16959,3008.43533,2291.04446,3008.43533,2291.04446Z"/><path class="cls-27" d="M3454.87634,2244.81249c-44.236-5.5295-87.24229-19.672-131.48571-25.97755-79.4,12.41462-327.27453,49.27349-327.27453,49.27349,6.47588,0,293.85116,90.665,293.85116,90.665l320.29584-82.03049s9.11645-7.24725,15.05385-26.27372C3572.37575,2263.21971,3506.17182,2251.22443,3454.87634,2244.81249Z"/><path class="cls-28" d="M3621.05624,2152.61822l-243.9315-45.33182s15.11038,100.37847-37.777,109.01365c-4.01907.6556-9.42674,1.51447-15.95714,2.53489,44.24342,6.30558,87.24969,20.448,131.48571,25.97755,51.29548,6.41194,117.49941,18.40722,170.44061,5.65672C3631.292,2231.32562,3634.04838,2200.25608,3621.05624,2152.61822Z"/><polygon class="cls-29" points="2777.134 1871.451 2779.9 1999.594 3752.874 2207.395 3789.533 2198.92 3794.969 2015.784 2777.134 1871.451"/><polygon class="cls-29" points="3830.896 805.327 3794.969 789.137 2794.725 1051.418 2777.134 1871.451 3794.969 2015.784 3830.896 805.327"/><polygon class="cls-30" points="2741.207 1855.26 2737.751 2016.351 3752.874 2207.395 3759.042 1999.594 2741.207 1855.26"/><polygon class="cls-27" points="3794.969 789.137 2758.798 1035.228 2741.207 1855.26 3759.042 1999.594 3794.969 789.137"/><polygon class="cls-20" points="3262.147 939.805 2784.388 1053.272 2776.126 1438.416 3239.7 1417.196 3262.147 939.805"/><polygon class="Graphic-Style-254" points="2776.126 1438.416 2767.681 1832.102 3217.193 1895.845 3239.7 1417.196 2776.126 1438.416"/><polygon class="Graphic-Style-253" points="3239.7 1417.196 3217.193 1895.845 3734.374 1969.183 3751.452 1393.771 3239.7 1417.196"/><polygon class="Graphic-Style-252" points="3768.495 819.547 3262.147 939.805 3239.7 1417.196 3751.452 1393.771 3768.495 819.547"/><path class="cls-31" d="M3948.38125,2506.7285c10.70024-80.25283,9.8629-159.352,7.93852-238.78969l-272.64991-2.84048-.00067,301.13678s-9.89792,79.54339,98.38543,107.25619c5.03746-2.09872,9.95377-4.37514,14.691-6.85618C3865.67093,2630.794,3937.3532,2586.68181,3948.38125,2506.7285Z"/><path class="cls-32" d="M4033.37741,2566.23511v-297.494l-77.05764-.80233c1.92438,79.43771,2.76172,158.53686-7.93852,238.78969-11.028,79.95331-82.71032,124.06548-151.63559,159.90662-4.73727,2.481-9.65358,4.75746-14.691,6.85618,22.82005,5.8398,50.87411,9.385,85.39261,9.39107C4040.39311,2682.88237,4033.37741,2566.23511,4033.37741,2566.23511Z"/><ellipse class="cls-33" cx="3858.52348" cy="2268.74111" rx="174.85373" ry="28.73753"/><path class="cls-34" d="M3753.2864,2254.47415c-9.50146,1.25533-17.78528,2.67489-24.525,4.23042-12.79156,2.95288-20.14987,6.379-20.14987,10.03657,0,11.07448,67.118,20.05227,149.91178,20.05227,28.59388,0,55.31252-1.07157,78.04709-2.93q6.277-.51289,12.13125-1.10522c-44.29391-8.17276-91.44242-3.33723-135.41392-9.61858C3794.48607,2272.78915,3763.68038,2274.42815,3753.2864,2254.47415Z"/><path class="cls-35" d="M4008.43575,2268.74114c0-11.07449-67.118-20.05227-149.91245-20.05227-41.03746,0-78.17633,2.21112-105.2369,5.78528,10.394,19.954,41.19967,18.315,60.00132,20.66546,43.9715,6.28135,91.12,1.44582,135.41392,9.61858C3984.97827,2281.09922,4008.43575,2275.287,4008.43575,2268.74114Z"/><path class="cls-32" d="M3592.45158,2405.03681c2.508-82.98494,81.45566-74.33563,107.33966-69.21066l-.99081-9.80233C3642.52874,2315.55176,3586.82986,2348.08866,3592.45158,2405.03681Z"/><path class="cls-35" d="M3723.66671,2571.1642c-28.28629-8.43594-121.0325-43.8086-130.57165-147.1965a154.7383,154.7383,0,0,1-.64348-18.93089c-5.62172-56.94815,50.07716-89.48505,106.34885-79.013l-1.38052-13.65985s-153.78546-43.72649-140.028,105.23555a205.154,205.154,0,0,0,6.08278,34.29907,235.93308,235.93308,0,0,0,20.98115,38.28785c36.88983,47.4292,83.86,84.76663,140.8963,97.608Z"/><path class="cls-36" d="M3584.45584,2490.18644a235.93308,235.93308,0,0,1-20.98115-38.28785c32.10343,119.85727,163.087,147.82854,163.087,147.82854l-1.20956-11.93269C3668.31581,2574.95307,3621.34567,2537.61564,3584.45584,2490.18644Z"/><ellipse class="Graphic-Style-250" cx="4725.67465" cy="3533.38529" rx="184.8004" ry="145.4276"/><ellipse class="Graphic-Style-250" cx="630.66562" cy="1016.38683" rx="133.58462" ry="134.9376"/><ellipse class="cls-37" cx="4902.14857" cy="2342.53762" rx="92.77364" ry="94.12538"/><ellipse class="Graphic-Style-251" cx="3830.89581" cy="3569.45071" rx="250.37599" ry="230.65605"/><ellipse class="Graphic-Style-250" cx="5291.99692" cy="2130.2222" rx="210.92207" ry="194.30957"/><polygon class="Graphic-Style-254" points="4229.983 2093.255 4161.984 2666.386 4353.838 2721.678 4334.881 2108.504 4229.983 2093.255"/><path class="Graphic-Style-254" d="M4414.19825,2235.55941l-17.72672-136.63828-61.59051,9.5829,16.28225,526.66711c28.82139-40.78437,43.62686-94.63964,52.12473-142.22769C4418.428,2407.149,4405.86933,2321.35454,4414.19825,2235.55941Z"/><path class="Graphic-Style-254" d="M4470.40667,2668.81461l-56.20842-433.2552c-8.32892,85.79513,4.22975,171.58959-10.91025,257.384-8.49787,47.588-23.30334,101.44332-52.12473,142.22769l2.67422,86.50727Z"/><ellipse class="Graphic-Style-254" cx="4280.64197" cy="2283.42036" rx="36.85113" ry="72.38228"/><ellipse class="Graphic-Style-254" cx="4266.75521" cy="2547.92024" rx="60.92721" ry="86.47732"/><ellipse class="Graphic-Style-254" cx="4266.75521" cy="2547.92024" rx="24.57884" ry="34.8861"/><polygon class="Graphic-Style-254" points="4282.607 2085.07 4396.472 2098.921 4334.881 2108.504 4229.983 2093.255 4282.607 2085.07"/><polygon class="cls-38" points="4229.983 2093.255 4161.984 2666.386 4353.838 2721.678 4334.881 2108.504 4229.983 2093.255"/><path class="Graphic-Style-254" d="M4414.19825,2235.55941l-17.72672-136.63828-61.59051,9.5829,16.28225,526.66711c28.82139-40.78437,43.62686-94.63964,52.12473-142.22769C4418.428,2407.149,4405.86933,2321.35454,4414.19825,2235.55941Z"/><path class="cls-39" d="M4470.40667,2668.81461l-56.20842-433.2552c-8.32892,85.79513,4.22975,171.58959-10.91025,257.384-8.49787,47.588-23.30334,101.44332-52.12473,142.22769l2.67422,86.50727Z"/><ellipse class="cls-40" cx="4280.64197" cy="2283.42036" rx="36.85113" ry="72.38228"/><ellipse class="cls-41" cx="4266.75521" cy="2547.92024" rx="60.92721" ry="86.47732"/><ellipse class="Graphic-Style-254" cx="4266.75521" cy="2547.92024" rx="24.57884" ry="34.8861"/><polygon class="cls-42" points="4282.607 2085.07 4396.472 2098.921 4334.881 2108.504 4229.983 2093.255 4282.607 2085.07"/><path class="cls-17" d="M3169.2604,2589.23634s-124.66453-13.76149-163.52115,76.9035c-33.737,78.7202,76.5407,122.03205,152.81351,108.76663,36.30423-75.17633,120.11439-93.54585,186.45428-140.97774C3334.21122,2620.70436,3295.97654,2591.11833,3169.2604,2589.23634Z"/><path class="cls-43" d="M3158.55276,2774.90647a115.49738,115.49738,0,0,0,31.75408-10.00695c71.23669-35.61834,158.66408-124.66454,158.66408-124.66454a23.03282,23.03282,0,0,0-3.96388-6.30625C3278.66715,2681.36062,3194.857,2699.73014,3158.55276,2774.90647Z"/><path class="cls-44" d="M3251.14793,2607.06948s-34.06682-3.27565-60.27207,9.827"/><path class="Graphic-Style-245" d="M3393.26671,1242.4071s-14.57805-210.29712,66.65823-218.1587,99.129,89.57961,71.87243,234.537A1328.72413,1328.72413,0,0,1,3393.26671,1242.4071Z"/><path class="Graphic-Style-247" d="M3361,1410.09118l66.772-2.95356c-29.25218-47.2939-62.99864-94.49223-76.83821-147.92143C3321.74154,1324.0995,3361,1410.09118,3361,1410.09118Z"/><path class="Graphic-Style-247" d="M3537.58666,1334.999c8.446,21.1151,8.79942,43.84967,7.26677,66.9605l39.38366-1.742C3581.34344,1372.30478,3568.40851,1347.69025,3537.58666,1334.999Z"/><path class="Graphic-Style-246" d="M3411.6318,1203.3174c-31.78573,12.939-50.45007,33.12115-60.698,55.89879,13.83957,53.4292,47.586,100.62753,76.83821,147.92143l117.08141-5.17814c1.53265-23.11083,1.17927-45.8454-7.26677-66.9605,30.82185,12.69127,43.75678,37.3058,46.65043,65.21852l46.07425-2.03747S3533.9627,1153.51889,3411.6318,1203.3174Z"/><ellipse class="cls-18" cx="3474.96239" cy="1110.75763" rx="56.83499" ry="76.32127"/><path class="Graphic-Style-245" d="M3419.96331,1752.75434s-21.82162-181.584,42.15482-184.80335c10.25568-41.21693,41.33721-47.11311,94.40284,1.3666s2.98529,201.26811,2.98529,201.26811Z"/><path class="cls-45" d="M3409.91338,1837.36523c-3.35271,29.04352-12.71012,56.48977-24.44963,82.34079l22.888,3.24568C3413.74734,1895.65554,3408.127,1865.08005,3409.91338,1837.36523Z"/><path class="cls-21" d="M3409.91338,1837.36523c.33924-2.93942.63809-5.88894.85079-8.86134C3410.37579,1831.41773,3410.10588,1834.37667,3409.91338,1837.36523Z"/><path class="cls-21" d="M3595.48388,1776.12069c-27.5701-71.68228-110.28042-49.6262-170.93465-68.92527a39.54823,39.54823,0,0,1-9.799-5.69643c-62.065,63.48125-86.18216,210.13927-86.18216,210.13927l56.89565,8.06776c11.73951-25.851,21.09692-53.29727,24.44963-82.34079.1925-2.98856.46241-5.9475.85079-8.86134-.2127,2.9724-.51155,5.92192-.85079,8.86134-1.78641,27.71482,3.834,58.29031-1.56159,85.58647l141.99143,20.13506c5.80345-29.92326,14.81355-59.84652,14.81355-89.76978,11.52681,30.73771,17.6796,62.81219,17.56382,94.36165l47.59075,6.74849a552.91492,552.91492,0,0,0-3.29145-84.6199A860,860,0,0,0,3595.48388,1776.12069Z"/><path class="cls-46" d="M3595.48388,1776.12069a860,860,0,0,1,31.536,93.68653c-9.60444-84.15277-42.94435-200.34434-154.04259-197.0152-22.30715.66839-41.62036,11.722-58.227,28.707a39.54823,39.54823,0,0,0,9.799,5.69643C3485.20346,1726.49449,3567.91378,1704.43841,3595.48388,1776.12069Z"/><path class="cls-45" d="M3565.15677,1853.317c0,29.92326-9.0101,59.84652-14.81355,89.76978l32.37737,4.59187C3582.83637,1916.12917,3576.68358,1884.05469,3565.15677,1853.317Z"/><ellipse class="cls-18" cx="3496.05633" cy="1630.08101" rx="43.08259" ry="65.84069"/><path class="cls-47" d="M2918.64922,1232.46861c-13.75477,5.85461-26.0617,14.07583-35.70585,25.18061-47.63247,54.85011-46.19406,177.99142-46.19406,177.99142l43.72783-2.00179C2877.00126,1361.9034,2878.02437,1289.72774,2918.64922,1232.46861Z"/><path class="cls-21" d="M3078.64,1249.012c-28.78034-25.326-105.807-39.60712-159.99075-16.54341-40.62485,57.25913-41.648,129.43479-38.17208,201.17024l162.698-7.44716c3.11106-24.56,6.41732-48.72491,14.69172-71.89363,4.62149,23.10948,5.79807,47.07986,5.93807,70.94927l71.73882-3.284S3114.72544,1280.76745,3078.64,1249.012Z"/><path class="cls-46" d="M3043.17509,1426.19169l20.62979-.94436c-.14-23.86941-1.31658-47.83979-5.93807-70.94927C3049.59241,1377.46678,3046.28615,1401.63168,3043.17509,1426.19169Z"/><ellipse class="cls-18" cx="2950.80062" cy="1178.26046" rx="51.94758" ry="79.38855"/><path class="Graphic-Style-245" d="M2899.05237,1126.65512s30.41894,50.11754,125.96745,34.39439C2995.76583,1111.91467,2950.72613,1068.676,2899.05237,1126.65512Z"/><path class="Graphic-Style-245" d="M2895.46659,1126.37089s-15.2318,45.20405,1.96539,64.858C2919.54266,1171.08359,2904.31086,1134.23246,2895.46659,1126.37089Z"/><path class="Graphic-Style-245" d="M3473.84762,1555.88763s5.77989,50.60892,65.29121,52.57437C3546.59743,1565.9343,3489.22051,1547.85824,3473.84762,1555.88763Z"/><path class="Graphic-Style-245" d="M3473.3565,1030.79971s27.51551,103.18317,64.20286,108.42422C3538.30482,1091.37913,3524.45674,1028.50675,3473.3565,1030.79971Z"/><path class="Graphic-Style-245" d="M3473.3565,1030.79971s-10.15453,70.75418-61.9099,81.89141C3415.705,1074.36594,3449.91667,1029.45735,3473.3565,1030.79971Z"/><path class="Graphic-Style-247" d="M3328.54252,1079.00759c-2.18218.4153-4.34014.7579-6.19385.92685-7.20619.65493-11.792,93.87635-11.792,93.87635-11.47632,77.13572,9.64752,137.30734,40.33878,183.05716l21.45838-48.7128C3326.20351,1241.06273,3316.8084,1159.48389,3328.54252,1079.00759Z"/><path class="Graphic-Style-246" d="M3367.5378,1230.52605c-24.2551-33.49943-26.19026-154.5225-26.19026-154.5225s-6.50482,1.80592-12.805,3.004c-11.73412,80.4763-2.339,162.05514,43.8113,229.14756l19.43908-44.129Z"/><path class="Graphic-Style-244" d="M2896.334,1646.78821c-66.39509,29.54431-47.46959,194.01184-47.46959,194.01184l31.17321,4.709C2870.98982,1779.03722,2872.80853,1710.53668,2896.334,1646.78821Z"/><path class="Graphic-Style-245" d="M2906.23123,1849.46552l14.341,2.166c-.91407-25.94256-6.07943-50.72671-14.341-75.51086Z"/><path class="Graphic-Style-242" d="M3062.4459,1672.61567c-10.28427-24.89925-10.32869-38.04554-44.15929-40.88736s-74.69776,2.84182-113.129,12.04375a50.65289,50.65289,0,0,0-8.82364,3.01615c-23.52546,63.74847-25.34417,132.249-16.29638,198.72083l26.19362,3.95648v-73.34483c8.2616,24.78415,13.427,49.5683,14.341,75.51086l106.03183,16.01637a483.40219,483.40219,0,0,0,42.10028-119.27167C3070.44836,1718.14538,3069.463,1689.60467,3062.4459,1672.61567Z"/><path class="Graphic-Style-244" d="M3068.70437,1748.37625a483.40219,483.40219,0,0,1-42.10028,119.27167l25.17522,3.80233S3065.33551,1806.75877,3068.70437,1748.37625Z"/><line class="cls-44" x1="2907.69669" y1="1793.48761" x2="2903.49236" y2="1849.05152"/><ellipse class="cls-18" cx="2967.02786" cy="1580.43526" rx="47.31425" ry="62.01383"/><path class="Graphic-Style-245" d="M2919.7136,1583.63446s-2.34269-5.362,2.48031-20.43215c.796-2.4873,10.55916,1.29737,10.27032-2.26753-2.03893-25.164,8.07691-24.41935,8.07691-24.41935s13.24167,1.1661,40.15331,2.807,33.64766,41.11287,33.64766,41.11287,2.08986-29.65251,9.71622-52.927c7.9498-24.26162-55.97372-20.59855-90.39716-13.23186C2895.23349,1522.5,2919.7136,1583.63446,2919.7136,1583.63446Z"/><path class="Graphic-Style-242" d="M3018.28644,1631.72827s63.8135,8.12832,70.36481-48.8681,5.46232-84.47128,5.46232-84.47128l27.29424,4.548s12.4475,138.08148-9.17183,187.36753-49.79,31.4463-49.79,31.4463"/><path class="cls-18" d="M3102.409,1507.19526s-20.1941-49.13484-8.29544-60.27207,25.32886,4.58584,25.32885,30.136-6.55131,30.136-6.55131,30.136Z"/><path class="cls-18" d="M3333.486,1084.98134s20.30907-32.5623,12.77506-35.51039-15.39558-25.87768-34.06682-21.29176-3.60322,26.53281,0,32.75656,9.827,30.82907,9.827,30.82907S3330.01043,1090.849,3333.486,1084.98134Z"/></svg>