<?xml version="1.0" encoding="utf-8"?>
<!-- Generator: Adobe Illustrator 22.0.0, SVG Export Plug-In . SVG Version: 6.00 Build 0)  -->
<svg version="1.1" id="Layer_1" xmlns="http://www.w3.org/2000/svg" xmlns:xlink="http://www.w3.org/1999/xlink" x="0px" y="0px"
	 viewBox="0 0 4000 4000" style="enable-background:new 0 0 4000 4000;" xml:space="preserve">
<style type="text/css">
	.st0{fill:#DB6767;}
	.st1{fill:url(#SVGID_1_);}
	.st2{fill:url(#SVGID_2_);}
	.st3{fill:url(#SVGID_3_);}
	.st4{fill:#D9D9D9;}
	.st5{clip-path:url(#XMLID_3_);fill:url(#SVGID_4_);}
	.st6{fill:#787878;}
	.st7{fill:#BDBDBD;}
	.st8{fill:#FFFFFF;}
	.st9{fill:#102140;}
	.st10{fill:#1E3F7A;}
	.st11{fill:#DBD2DB;}
	.st12{fill:#1B51C6;}
	.st13{fill:#FFDE70;}
	.st14{fill:#EB485C;}
	.st15{fill:url(#SVGID_5_);}
	.st16{fill:url(#SVGID_6_);}
	.st17{fill:url(#SVGID_7_);}
	.st18{fill:#1A1A1A;stroke:#1A1A1A;stroke-width:2;stroke-linecap:round;stroke-linejoin:round;stroke-miterlimit:10;}
	.st19{fill:#FC9590;}
	.st20{fill:#EF5164;}
	.st21{fill:#D1334A;}
	.st22{fill:#FFFFFF;stroke:#1A1A1A;stroke-width:2;stroke-linecap:round;stroke-linejoin:round;stroke-miterlimit:10;}
	.st23{fill:none;stroke:#FFFFFF;stroke-width:3;stroke-linecap:round;stroke-linejoin:round;stroke-miterlimit:10;}
	.st24{fill:#CCC4CC;}
	.st25{fill:url(#SVGID_8_);}
	.st26{fill:#425373;}
	.st27{fill:url(#SVGID_9_);}
	.st28{fill:#813782;}
	.st29{fill:#572658;}
	.st30{fill:#FFB114;}
	.st31{fill:url(#SVGID_10_);}
	.st32{fill:url(#SVGID_11_);}
	.st33{fill:url(#SVGID_12_);}
</style>
<path class="st0" d="M1950.1,1954.7c0,0,32.7,82.2,99.8,90.6c-1.5-37.4-1.5-37.4-1.5-37.4S1969,1985.5,1950.1,1954.7z"/>
<g>
	<linearGradient id="SVGID_1_" gradientUnits="userSpaceOnUse" x1="282.4336" y1="2176.8484" x2="3508.3459" y2="2176.8484">
		<stop  offset="0" style="stop-color:#68B2FC"/>
		<stop  offset="1" style="stop-color:#529BF7"/>
	</linearGradient>
	<path class="st1" d="M892.5,472.8C491.9,677.6,343.1,900.2,297,1092.3c-57.1,237.7,69.1,320.4,119.1,786.2
		c44.8,417.5-44.5,462.6,0,929.1c35.6,372.5,53.4,559.5,178.6,726.6c269.7,359.9,829.6,349.8,1071.9,345.5
		c78.6-1.4,1482.3-44.8,1786.5-941.1c174.9-515.5-112.4-1023-214.4-1203.1C2599.5,606.5,1105.1,486.7,892.5,472.8z"/>
	<linearGradient id="SVGID_2_" gradientUnits="userSpaceOnUse" x1="3637.5002" y1="2341.1992" x2="3807.064" y2="2341.1992">
		<stop  offset="0" style="stop-color:#4085F0"/>
		<stop  offset="1" style="stop-color:#275DC9"/>
	</linearGradient>
	<ellipse class="st2" cx="3722.3" cy="2341.2" rx="84.8" ry="84.8"/>
	<linearGradient id="SVGID_3_" gradientUnits="userSpaceOnUse" x1="759.361" y1="3417.9946" x2="928.9249" y2="3417.9946">
		<stop  offset="0" style="stop-color:#4085F0"/>
		<stop  offset="1" style="stop-color:#275DC9"/>
	</linearGradient>
	<ellipse class="st3" cx="844.1" cy="3418" rx="84.8" ry="84.8"/>
	<path class="st4" d="M669.4,1545.7c29.9-220.6,6.9-444.8,19.8-667.1c12.9-222.2,68.4-454.9,224.9-613.2
		c150.8-152.6,375.6-213.1,590-209c214.5,4.1,423.1,65.9,628.7,127.1c229.7,68.4,467.5,141.3,646,301.2
		c119.7,107.2,204.7,246.9,288,384.3c85,140.4,170,280.8,255.1,421.2c86.8,143.3,176,294.4,184.3,461.7
		c16.6,335.6-292.7,614.4-303.5,950.3c-5.9,183.8,79.6,363.7,60.4,546.6c-19.2,182.4-143.2,341.7-296.9,441.6
		c-153.7,100-335.1,148.2-515.2,182.5c-282,53.7-569.7,77-856.7,69.3c-178.3-4.8-387.8-41.9-465.5-202.4
		c-58.2-120.2-21.3-276.7-101.6-383.4c-70.6-93.9-201.5-110.5-312.6-148.7C496.7,3132.8,321.9,2943.2,265,2720
		C142.7,2240.7,609.9,1985.5,669.4,1545.7z"/>
	<g>
		<defs>
			<path id="XMLID_6_" d="M669.4,1545.7c29.9-220.6,6.9-444.8,19.8-667.1c12.9-222.2,68.4-454.9,224.9-613.2
				c150.8-152.6,375.6-213.1,590-209c214.5,4.1,423.1,65.9,628.7,127.1c229.7,68.4,467.5,141.3,646,301.2
				c119.7,107.2,204.7,246.9,288,384.3c85,140.4,170,280.8,255.1,421.2c86.8,143.3,176,294.4,184.3,461.7
				c16.6,335.6-292.7,614.4-303.5,950.3c-5.9,183.8,79.6,363.7,60.4,546.6c-19.2,182.4-143.2,341.7-296.9,441.6
				c-153.7,100-335.1,148.2-515.2,182.5c-282,53.7-569.7,77-856.7,69.3c-178.3-4.8-387.8-41.9-465.5-202.4
				c-58.2-120.2-21.3-276.7-101.6-383.4c-70.6-93.9-201.5-110.5-312.6-148.7C496.7,3132.8,321.9,2943.2,265,2720
				C142.7,2240.7,609.9,1985.5,669.4,1545.7z"/>
		</defs>
		<linearGradient id="XMLID_2_" gradientUnits="userSpaceOnUse" x1="244.6485" y1="2000" x2="3506.8789" y2="2000">
			<stop  offset="0" style="stop-color:#4085F0"/>
			<stop  offset="1" style="stop-color:#275DC9"/>
		</linearGradient>
		<use xlink:href="#XMLID_6_"  style="overflow:visible;fill:url(#XMLID_2_);"/>
		<clipPath id="XMLID_3_">
			<use xlink:href="#XMLID_6_"  style="overflow:visible;"/>
		</clipPath>
		<linearGradient id="SVGID_4_" gradientUnits="userSpaceOnUse" x1="86.5567" y1="3086.4402" x2="3421.332" y2="3086.4402">
			<stop  offset="0" style="stop-color:#68B2FC"/>
			<stop  offset="1" style="stop-color:#529BF7"/>
		</linearGradient>
		<path class="st5" d="M86.6,2751c0,0,118.6-480.1,571.7-409.8s863.7-50.5,1232.1-163.2c368.4-112.7,813.8,0.2,1112.8,404.3
			c299,404,60.9,612,211.7,758.2s206.4,162.3,206.4,162.3s-209.8,396.8-366.9,484.1c-157.1,87.4-2126.2,31.8-2126.2,31.8
			l-683.5-765.3L86.6,2751z"/>
	</g>
	<g>
		<polygon class="st6" points="1443.6,1594 968.9,2762 1010.6,2762 1489.9,1594 		"/>
		<polygon class="st7" points="968.9,1090.1 1295.2,2457.7 1254.6,2456.2 928.2,1088.3 1863.8,1065.3 1864.3,1068.1 		"/>
		<polygon class="st8" points="2191.6,2490.8 1295.3,2458 1295.2,2457.7 968.9,1090.1 1864.3,1068.1 1904.5,1067.2 		"/>
		<polygon class="st9" points="904,1028.2 902.9,1086.5 966.1,1086.5 945.3,1023.5 		"/>
		<polygon class="st10" points="1900.8,1011.1 945.3,1023.5 966.1,1086.5 1916.7,1065.3 		"/>
		<path class="st11" d="M1457.3,1351.4c0,65.2-60.2,118.1-134.5,118.1c-74.3,0-134.5-52.9-134.5-118.1
			c0-65.3,60.2-118.1,134.5-118.1c5.2,0,10.4,0.3,15.4,0.8c40.4,4,75.4,23.8,96.8,52.1C1449.1,1304.8,1457.3,1327.2,1457.3,1351.4z"
			/>
		<path class="st12" d="M1435,1286.1l-112.2,65.2l15.4-117.4C1378.5,1238,1413.5,1257.8,1435,1286.1z"/>
		<path class="st11" d="M1551.2,1720.1c0,16-3.6,31.4-10.3,45.3l-124.3-45.3l112.2-65.2C1543,1673.6,1551.2,1696,1551.2,1720.1z"/>
		<path class="st11" d="M1432.1,1602.8l-15.4,117.4l-107.5,70.9c-16.9-19.7-27-44.3-27-70.9c0-65.3,60.2-118.1,134.5-118.1
			C1421.9,1602,1427.1,1602.2,1432.1,1602.8z"/>
		<path class="st12" d="M1528.9,1654.9l-112.2,65.2l15.4-117.4C1472.5,1606.8,1507.5,1626.5,1528.9,1654.9z"/>
		<path class="st13" d="M1645.2,2088.9c0,14-2.8,27.4-7.9,39.9l-126.7-39.9l112.2-65.2C1637,2042.3,1645.2,2064.8,1645.2,2088.9z"/>
		<path class="st11" d="M1601.1,2176.4c-23.9,19-55.6,30.7-90.4,30.7c-74.3,0-134.5-52.9-134.5-118.1c0-65.3,60.2-118.1,134.5-118.1
			c5.2,0,10.4,0.3,15.4,0.8l-15.4,117.4L1601.1,2176.4z"/>
		<path class="st12" d="M1622.9,2023.7l-112.2,65.2l15.4-117.4C1566.5,1975.6,1601.5,1995.3,1622.9,2023.7z"/>
		<path class="st14" d="M1637.4,2128.7c-7.5,18.4-20.1,34.7-36.3,47.6l-90.4-87.5L1637.4,2128.7z"/>
		<path class="st13" d="M1541,1765.4c-4.2,9-9.7,17.4-16.2,25c-24.5,29-63.8,47.8-108.1,47.8c-33.1,0-63.5-10.5-86.9-28
			c-7.7-5.7-14.6-12.1-20.6-19.2l107.5-70.9L1541,1765.4z"/>
		<polygon class="st4" points="1541,1283.4 1887.5,1283.4 1895.4,1308.7 1551.2,1308.7 		"/>
		<linearGradient id="SVGID_5_" gradientUnits="userSpaceOnUse" x1="1521.34" y1="1246.645" x2="1875.7638" y2="1246.645">
			<stop  offset="0" style="stop-color:#4085F0"/>
			<stop  offset="1" style="stop-color:#275DC9"/>
		</linearGradient>
		<polygon class="st15" points="1521.3,1234 1867.8,1234 1875.8,1259.3 1531.6,1259.3 		"/>
		<linearGradient id="SVGID_6_" gradientUnits="userSpaceOnUse" x1="1620.4225" y1="1615.407" x2="1974.8462" y2="1615.407">
			<stop  offset="0" style="stop-color:#4085F0"/>
			<stop  offset="1" style="stop-color:#275DC9"/>
		</linearGradient>
		<polygon class="st16" points="1620.4,1602.8 1966.9,1602.8 1974.8,1628.1 1630.7,1628.1 		"/>
		<polygon class="st4" points="1732.9,1675.1 1969.4,1675.1 1977.3,1700.4 1743.1,1700.4 		"/>
		<polygon class="st4" points="1708.4,2012 2054.9,2012 2062.8,2037.3 1718.6,2037.3 		"/>
		<linearGradient id="SVGID_7_" gradientUnits="userSpaceOnUse" x1="1688.7388" y1="1975.3125" x2="2043.1625" y2="1975.3125">
			<stop  offset="0" style="stop-color:#4085F0"/>
			<stop  offset="1" style="stop-color:#275DC9"/>
		</linearGradient>
		<polygon class="st17" points="1688.7,1962.7 2035.2,1962.7 2043.2,1988 1699,1988 		"/>
	</g>
	<g>
		<path class="st8" d="M1940.8,1844.3c77.9,21.8,171.3,24.9,221.2-49.8c21.8-32.8,41.5-65.2,60.3-97.3l9.4-411.6
			c0,0-42.3,18.5-78.1,184c-35.7,165.4-54.9,270.8-149.5,244.2c-109.5-30.8-148.2-47-148.2-47c-33.8,13.9-57.6,32.3-62.5,61.3
			C1829.8,1779.8,1879.6,1825.6,1940.8,1844.3z"/>
		<path class="st4" d="M2162,1794.4c-49.8,74.8-143.3,71.6-221.2,49.8c-61.2-18.6-111-64.5-147.5-116.3c-2,12-0.8,25.9,4.3,42
			c0,0,127.7,156.2,244.2,148.2c116.5-7.9,180.1-202.7,180.1-202.7l0.4-18.4C2203.4,1729.2,2183.8,1761.6,2162,1794.4z"/>
		<path class="st18" d="M1807.5,1777.1c0,0,51,12,68.7-25.2c17.7-37.2,13.2-69-4.2-75.4c-17.4-6.5-46.6,11.4-53.6,26.8
			C1811.5,1718.6,1782.7,1758.2,1807.5,1777.1z"/>
		<path class="st19" d="M1868.4,1689.2c0,0-49.6-46-65.5-93.5c-15.9-47.5-43-56.8-52.3-57.4c-8.6,13.2,13.2,62.2,15.2,64.9
			c2,2.6-31.8-32.4-74.1-45.7c-42.3-13.2-92,0-92,0s4,79.5,31.1,103.6c27.1,24.1,95.3,35.4,121.1,52.6
			c25.8,17.2,77.7,47.8,80.9,48.7C1857.6,1769.6,1891.8,1699.2,1868.4,1689.2z"/>
		<path class="st0" d="M2513.4,1161.8c23.1-7.7,31.6-30.1,37.4-54.3c-20.8,1.8-52.6,4.5-101.4,8.6c-3.4,15.9-9.2,29.7-16.2,41.6
			C2453.9,1176.8,2488.2,1169.3,2513.4,1161.8z"/>
		<path class="st19" d="M2619.1,1196.5c-28.8-23.5-29.5-92.3-29.5-92.3s0,0-38.9,3.3c-5.8,24.1-14.2,46.6-37.4,54.3
			c-25.2,7.6-59.4,15.1-80.2-4.1c-24.8,42-64.6,59.7-64.6,59.7s137,72.8,205.1,65.5c68.2-7.3,85.4-58.2,85.4-58.2
			S2647.8,1220,2619.1,1196.5z"/>
		<path class="st9" d="M2410.3,2083.6c-8.4,2.8,19.5,33.4,13.9,36.2c-110.6,24.6-221.1-20.3-303-94.3
			c-18.5,60.7-43.4,159.9-51.8,275.8c-13.9,192.6,0,397.1,0,397.1l547,53.6c0,0,69.8-319.5,77-497.5c1.7-42.3,2.1-75.6,1.7-101.8
			c-57.2-9-113.5-22.9-168-44C2491.1,2094.7,2443.8,2066.9,2410.3,2083.6z"/>
		<path class="st18" d="M2143,1962.1c0,0-9.4,23.3-21.7,63.5c81.9,74,192.4,118.8,303,94.3c5.6-2.8-22.3-33.4-13.9-36.2
			c33.4-16.7,80.8,11.1,116.9,25.1c54.6,21.1,110.8,35,168,44c-1.2-84-10.4-94.9-10.4-94.9L2143,1962.1z"/>
		<path class="st8" d="M2381.2,1205.4c0,0,110.1,86.1,262.1,13.6c31.6,79.7-91.4,377.5-91.4,377.5l-19.8,452.7
			c0,0-111.2,34.4-178.6-34.4C2377.2,1846.7,2381.2,1205.4,2381.2,1205.4z"/>
		<path class="st20" d="M2227.4,1828.7c-6.2,40.5-15.6,84.1,6.2,118.4c36.4,59.4,99.9,68.1,165.2,72.6
			c40.6-234.1,54.9-678.6-9.7-828.1c0,0-114,45.3-164.4,77.1C2289.4,1448.3,2254.2,1641.3,2227.4,1828.7z"/>
		<path class="st21" d="M2233.6,1947c-21.8-34.3-12.5-77.9-6.2-118.4c26.8-187.3,62-380.4-2.6-560.1c-14.1,8.9-23.2,16.7-23.5,22.2
			c23.8,250.2-86.8,684.9-86.8,684.9s121.8,133,274.7,93.3c3.4-15.1,6.6-31.7,9.7-49.5C2333.5,2015.2,2270,2006.4,2233.6,1947z"/>
		<path class="st22" d="M2722.6,1606.9c-5.6,58.9-9.8,119.3-13,176.9c-29.5-11.9-60.2-28.9-90.2-50.9
			c-15.9-58.2,39.7-109.1,39.7-109.1S2693.7,1609.5,2722.6,1606.9z"/>
		<path class="st21" d="M2497.9,1997.1c-2.2,41.4-3.6,68-3.6,68s93.3,72.4,206.4,11.4c0-54.7,1.9-167.1,8.8-292.7
			c-13.2-5.3-26.7-11.7-40.3-19.1c-8,45-17.8,89.2-30.7,132.6C2620.2,1954.8,2562.2,1999.2,2497.9,1997.1z"/>
		<path class="st20" d="M2713.3,1523.4c4.6-83.7-2.8-170.8,16.4-252.4c-54-60.3-80.5-65.6-80.5-65.6s-121.1,276-131,432.8
			c-6.8,107.6-15.5,268.4-20.3,358.8c64.3,2.2,122.3-42.2,140.7-99.9c12.9-43.4,22.7-87.6,30.7-132.6c-16.6-9.1-33.4-19.6-49.9-31.8
			c-15.9-58.2,39.7-109.1,39.7-109.1s14.3-5.9,32.2-10.8c3.2-25.5,6.3-51.2,9.5-77.1C2704,1529.6,2713.3,1526.5,2713.3,1523.4z"/>
		<path class="st21" d="M2729.7,1271.1c-19.2,81.5-11.7,168.7-16.4,252.4c0,3.1-9.3,6.2-12.5,12.5c-3.2,25.8-6.3,51.5-9.5,77.1
			c9.9-2.7,20.9-5.2,31.2-6.1c0.1-0.7,0.2-1.5,0.2-2.2c9.4-98,22.6-191.7,41.1-261.5c2.1-7.8,4.2-15.3,6.4-22.5
			C2755.3,1300.9,2741.8,1284.6,2729.7,1271.1z"/>
		<path class="st9" d="M2426.2,817.6c0,0-13.9,52.3,22.5,67.5c36.4,15.2,156.2,197.2,156.2,197.2l-27.7,42.6c0,0,19.1,22.9,53.9-6.9
			c34.7-29.8,102.2-54.9,95.6-135c-13.9-62.9-39.7-74.1-59.5-68.8c5.3-49,0.7-57.6-49-90c-49.6-32.4-138.9,11.9-165.4,2.6
			C2426.2,817.6,2426.2,817.6,2426.2,817.6z"/>
		<path class="st19" d="M2448.7,885.1c0,0-78.1,156.2-24.5,231c53.6,74.8,162.1,6.6,176.7-7.3c28.5-38.4,28.5-38.4,28.5-38.4
			s54.3-25.8,41-63.5s-45-5.3-45-5.3l-19.2,16.2l-13.9-5.6c0,0,17.9-41,3.3-58.9c-14.6-17.9-20.3-14.6-20.3-14.6s5-38.4-48.5-51.6
			C2473.2,873.9,2477.8,891.1,2448.7,885.1z"/>
		<path class="st23" d="M2407,2259.7c0,0-8,72.5-21.4,198.5c-16.9,157.8-32.2,260.1-32.2,260.1"/>
		<path class="st8" d="M2800.5,1744.6c24.9-3.1,46.7-15.6,59.2-37.4c15.6-44.3,13.8-90.7,3.7-135.7c-32.5-88-77.4-183-99.6-228.4
			c-18.5,69.8-31.7,163.5-41.1,261.5l10.1,1.8c-3.3-0.1-6.8,0.1-10.3,0.4c-28.8,2.6-63.5,16.9-63.5,16.9s-43,39.4-42.5,88.5
			C2666.5,1752.6,2737.2,1758.3,2800.5,1744.6z"/>
		<path class="st4" d="M2863.4,1571.5c10.1,45,11.9,91.4-3.7,135.7c-12.5,21.8-34.3,34.3-59.2,37.4c-63.4,13.8-134,8-184-32.2
			c0.1,6.7,0.9,13.6,2.8,20.5c30,22,60.6,39,90.2,50.9c93.1,37.5,175.3,24.1,190.4-44.2C2907.2,1706.6,2889.2,1641.3,2863.4,1571.5z
			"/>
		<path class="st19" d="M2658.1,1639.2c0,0-17.6-7.9-41.6-32.8c-23.9-24.8-85.5-23.8-79.5-14.9c6,8.9,30.8,20.8,47.1,26.8
			c-74.9,6.9-106.7-24.8-106.7-24.8s-18.9,7.6-20.8,45c-2,37.4,41.7,69.2,72,71.6s96.9,8.2,113.6,14.9
			C2671.8,1736.8,2677.9,1642.5,2658.1,1639.2z"/>
	</g>
	<path class="st24" d="M2656.5,3496.9c-118.2-129.1-188.8-290.3-301.3-428.5c-53-68.5-137.1-87.2-211.8-127.7
		c-90.3-43.6-196.2-9.3-292.8-31.1c-6.2,0-18.7-6.2-15.6-12.5c6.2-115.3-81-218-196.2-233.6c-6.2-3.1-9.3-12.5-15.6-12.5
		c-115.3,0-227.4-15.6-345.8,9.3c-34.3,9.3-65.4,15.6-102.8,21.8c-6.2,3.1-12.5,9.3-18.7,12.5c-12.5,3.1-21.8,0-34.3,0
		c-9.3,3.1-18.7,12.5-24.9,12.5c-62.3,12.5-115.3,34.3-171.3,56.1c-9.3,6.2-24.9,6.2-34.3,9.3c-16.1,8.6-31.5,18.3-46.6,28.7
		c4.4,122.9,47.9,264.1,109.5,402.9c3.9,1.5,7.9,3.1,11.8,4.5c130.8,49.8,271,180.7,411.2,121.5c87.2-34.3,102.8-143.3,177.6-202.5
		c43.6-31.1,102.8-40.5,149.5-18.7c68.5,34.3,121.5,90.3,162,152.6c49.8,84.1,43.6,183.8,68.5,280.3
		c15.6,71.6,74.8,121.5,143.3,143.3c20.4,6.8,40.1,14.7,59.3,23.2c135.4-43.7,282.2-102.4,440.2-174.2
		C2605,3521.7,2631.3,3509.2,2656.5,3496.9z"/>
	<path class="st11" d="M1934.6,3541.9c-24.9-96.6-18.7-196.2-68.5-280.3c-40.5-62.3-93.4-118.4-162-152.6
		c-46.7-21.8-105.9-12.5-149.5,18.7c-74.8,59.2-90.3,168.2-177.6,202.5c-140.2,59.2-280.3-71.6-411.2-121.5c-3.9-1.5-7.9-3-11.8-4.5
		c51.4,115.7,115.3,229.8,179.6,330.2c190.2,296.9,526.6,328.2,1003.6,174.2c-19.3-8.5-38.9-16.4-59.3-23.2
		C2009.3,3663.4,1950.2,3613.5,1934.6,3541.9z"/>
	<path class="st11" d="M2770.3,2718.3c-819.8-518.2-1685.9-262.1-1685.9-262.1c-182.3,50.1-245.7,181.3-239.8,345
		c15-10.3,30.4-20.1,46.6-28.7c9.3-3.1,24.9-3.1,34.3-9.3c56.1-21.8,109-43.6,171.3-56.1c6.2,0,15.6-9.3,24.9-12.5
		c12.5,0,21.8,3.1,34.3,0c6.2-3.1,12.5-9.3,18.7-12.5c37.4-6.2,68.5-12.5,102.8-21.8c118.4-24.9,230.5-9.3,345.8-9.3
		c6.2,0,9.3,9.3,15.6,12.5c115.3,15.6,202.5,118.4,196.2,233.6c-3.1,6.2,9.3,12.5,15.6,12.5c96.6,21.8,202.5-12.5,292.8,31.1
		c74.8,40.5,158.9,59.2,211.8,127.7c112.5,138.1,183.1,299.3,301.3,428.5C3280.7,3190.1,3140.4,2947.3,2770.3,2718.3z"/>
	<g>
		<polygon class="st8" points="1426.4,2667.9 1797.6,2853.8 1978.2,2585.2 1601.1,2423.5 		"/>
		<linearGradient id="SVGID_8_" gradientUnits="userSpaceOnUse" x1="1450.9822" y1="2638.6545" x2="1953.6874" y2="2638.6545">
			<stop  offset="0" style="stop-color:#4085F0"/>
			<stop  offset="1" style="stop-color:#275DC9"/>
		</linearGradient>
		<polygon class="st25" points="1451,2665.3 1789.1,2834.6 1953.7,2590 1610.1,2442.7 		"/>
		<polygon class="st26" points="1983.1,2604.8 1978.2,2585.2 1797.6,2853.8 1803.4,2873.9 		"/>
		<linearGradient id="SVGID_9_" gradientUnits="userSpaceOnUse" x1="1167.0642" y1="2821.1824" x2="1783.7179" y2="2821.1824">
			<stop  offset="0" style="stop-color:#4085F0"/>
			<stop  offset="1" style="stop-color:#275DC9"/>
		</linearGradient>
		<polygon class="st27" points="1783.7,2864.5 1515.7,2955.9 1167.1,2765.2 1421.1,2686.5 		"/>
		<polygon class="st12" points="1731.1,2857.1 1508.9,2932.9 1219.7,2774.8 1430.4,2709.5 		"/>
		<polygon class="st26" points="1783.7,2864.5 1783.7,2907.6 1515.7,2998.9 1167.1,2808.4 1167.1,2765.2 1515.7,2955.9 		"/>
	</g>
	<g>
		<path class="st21" d="M1026.7,2703.9c0,0,77.9-124.4,106-113.6c28.1,10.8,79,54.5,79,56.5s-53,181.6-79,182.7
			C1106.7,2830.5,1026.7,2703.9,1026.7,2703.9z"/>
		<path class="st0" d="M1165.2,2607.4c23.8-41.6,48.8-84.5,80.7-118.2c-6.5,3.3-12.5,6.8-17.7,10.5
			c-29.9,20.9-86.2,105.3-87.6,107.5c-6.7,30.6,3.8,46.4,27.1,51.1C1156.1,2641,1157.2,2620.8,1165.2,2607.4z"/>
		<path class="st19" d="M1331,2461.5c-13.1,0-54.3,11.8-85.1,27.8c-31.9,33.7-56.9,76.6-80.7,118.2c-8,13.4-9.1,33.6,2.5,50.9
			c5.8,1.2,12.4,1.7,19.8,1.6c0,0,33.9-43.3,59.9-57.7c26-14.4,88.7-42.6,95.2-76.5C1349.1,2491.8,1346.9,2461.5,1331,2461.5z"/>
		<path class="st19" d="M1305.4,2507.7c3.1-3.1,3.1-12.5,0-15.6c-0.8,0-1.7-0.4-2.5-1c-8.6,1.9-17.6,5.5-28.8,7.2
			c-19.5,2.9-19.5,2.9-19.5,2.9l-23.8,77.2c0,0,3.3-5.7,8.7-13.3C1248.5,2537,1279.1,2523.5,1305.4,2507.7z"/>
		<path class="st0" d="M1321.7,2490.9c-6.4-1.8-12.5-1.2-18.8,0.2c0.8,0.6,1.7,1,2.5,1c3.1,3.1,3.1,12.5,0,15.6
			c-26.2,15.7-56.9,29.3-65.9,57.3c10.2-14.4,28-35.5,45.4-37.9C1311.6,2523.5,1336.8,2495.1,1321.7,2490.9z"/>
		<path class="st0" d="M1392.6,2660.4c18-44.9,4.3-107-46.6-125.6c-4,13.4-7.8,27.1-12.4,36.7c-11.9,24.9,11.9,45.8,29.2,88.4
			c4.6,11.3,7.3,20.8,8.8,28.9C1381.9,2682.1,1389.3,2671.7,1392.6,2660.4z"/>
		<path class="st19" d="M1448.6,2583.4c-14.4-53.4-64.2-95.2-80.1-92.3c-9.7,1.8-16.2,22.3-22.5,43.7
			c50.8,18.6,64.5,80.7,46.6,125.6c-3.2,11.3-10.7,21.8-21,28.4c4.2,22.3-0.8,32.5-0.8,32.5l68.5,12.3
			C1439.2,2733.4,1463,2636.8,1448.6,2583.4z"/>
		<path class="st0" d="M1349.7,2553.5c-1.4,7,1.2,18.2,8,28.8c15.9,17.2,16.5,60.3,16.1,76.8
			C1394.2,2634.4,1360.5,2585.9,1349.7,2553.5z"/>
		<path class="st19" d="M1419.4,2620.9c0,0-15.5,4.3-18.8-13.3c-3.2-17.7-24.9-53.4-39.3-59.9c-6.6-3-10.5,0-11.7,5.8
			c10.8,32.4,27,52.8,30.1,98.9c-1.4,21.1,12.6,24.5,12.6,24.5L1419.4,2620.9z"/>
		<path class="st20" d="M1055,3089l-192.8-346.2C862.2,2742.8,947.8,2933.9,1055,3089z"/>
		<path class="st21" d="M648.1,2853.5c-53-168.2-21.8-355.1,90.3-495.3c2.9-3.4,6.1-6.9,9.5-10.4c-283.9,42-286.5,704.2-286.5,704.2
			c117.3,157,344.7,176.6,479.6,238.5c-5.6-12.4-12.2-24.2-18.8-35.2C838.1,3108.9,698,3012.4,648.1,2853.5z"/>
		<path class="st20" d="M1457.3,2725.5c0,0,0-30.3-88.7-31.9c-47.6,13.6-77.9,174.7-108.2,347.8c-28.1-62.8-212-725-504.1-694.7
			c-2.8,0.3-5.5,0.7-8.2,1.1c-3.5,3.5-6.6,7-9.5,10.4c-112.1,140.2-143.3,327.1-90.3,495.3c49.8,158.9,190,255.4,274.1,401.8
			c6.6,11,13.2,22.8,18.8,35.2c42.3,19.4,75.5,42.9,93.4,76c5.8,10.7,15.6-129.7,26.7-134.1c-8.1-29.2-9.6-100.1-6.2-143.5l0,0
			c-107.2-155-192.8-346.2-192.8-346.2L1055,3089c73.1,105.8,156.3,194.9,229.2,194.9C1463.7,3283.8,1457.3,2725.5,1457.3,2725.5z"
			/>
		<path class="st19" d="M1071.7,2174.4c-12.8-42.2-23.5-84.4-32-126.6c-71.4-5.1-124,34.7-175.4,113.6
			c-9.4,64.6-41.6,117.1-79.2,174.9c-10.7,16.9-20.7,33-28.1,50.2c52.5,24.7,138.6,59.6,177.3,43.1c1.4-49.1,47.6-93.8,47.6-93.8
			s0,0,31.5-5.7c0.9-3.6,2.3-6.3,2.3-6.3C1071.7,2289.7,1093.6,2230.5,1071.7,2174.4z"/>
		<path class="st19" d="M1059.9,2050.3c-6.9-1.2-13.6-2-20.1-2.5c8.5,42.2,19.1,84.4,32,126.6c21.8,56.1,0,115.3-56.1,149.5
			c0,0-1.3,2.7-2.3,6.3c8.6-1.6,19.5-3.6,33.5-6.1C1132,2299.3,1107.5,2229.2,1059.9,2050.3z"/>
		<path class="st0" d="M864.4,2161.5c-16,24.6-31.9,53-48.3,85.1c-36.1,77.9-102.4,118.3-102.4,118.3s17.7,9.7,43.4,21.8
			c7.4-17.2,17.3-33.4,28.1-50.2C822.8,2278.6,855,2226,864.4,2161.5z"/>
		<path class="st9" d="M788.1,2271.6c0,0,63.3,54.6,132.5,48.2c20.6-34.6,39-68.2,39-68.2s-27.1-21.6-9.8-68.2
			c24.9-33.5,48.7,14.1,48.7,14.1l7,16.8l17.9-4.3c0,0-1.1-39,0-42.7c1.1-3.8,13-44.4,37.3-55.7c24.3-11.4,34.6-20,35.7-29.8
			c1.1-9.7,1.1-9.7,1.1-9.7c0.5-4.9-24.9-41-38.4-39.7c29.8,1.3,44.1-15.5,44.1-15.5s-31.6,5-54.4-12.7
			c-22.7-17.6-76.3-22.5-104.9-7.4c-41.7,2.2-77.9,6.5-77.4,45.4c-49.2,4.9-79.5,72.5-81.7,136.9S788.1,2271.6,788.1,2271.6z"/>
	</g>
	<g>
		<polygon class="st8" points="1779,3040 2041.4,2938.1 2401,3180.2 2152.6,3304.9 		"/>
		<path class="st19" d="M2103.9,3163c-16.4,7-32.5,15.6-47.9,26.9c-58.9,42.1-49.6,106.9-22.1,160.3c21.3-7.5,44.7-18.8,40.7-31.9
			c-7-23.2,44.9-58.7,44.9-58.7l-14.7-25.7C2104.9,3234,2104.9,3234,2103.9,3163z"/>
		<path class="st0" d="M2056.1,3189.9c15.4-11.4,31.5-20,47.9-26.9c-0.1-4.9-0.1-10.2-0.2-15.8c-18.3,1.2-108.4,59.7-114.9,106.2
			c-6.5,46.5,13.2,106.2,13.2,106.2s15.3-3.4,31.9-9.3C2006.5,3296.8,1997.2,3232,2056.1,3189.9z"/>
		<path class="st28" d="M2085.4,3052.1l16.3,243.3c14,21.2,60,29.5,94.5,22.6l-11.2-265.8H2085.4z"/>
		<path class="st29" d="M2185,3052.1l11.2,265.8c19.6-3.9,35.5-12.7,39.9-26.9l3.4-239H2185z"/>
		<ellipse class="st9" cx="2162.5" cy="3052.1" rx="77.1" ry="19.4"/>
		<path class="st19" d="M2666.6,2803.7c26-66.5,14.5-138.4-7.3-208.2c-54-14.3-114.1-1.8-138.8,21.1
			c-50.1,46.5-19.3,105.5-19.3,105.5s6.7,25.7-1.9,80.7c-8.6,55,17.9,125.5,84.8,142.1c6.1,39.1-13.5,161.9-13.5,161.9
			c8.2,11.6,30.8,8.2,58.3-2.2C2609.9,3005.2,2626.9,2901.8,2666.6,2803.7z"/>
		<path class="st0" d="M2734.5,2899c0,0,18.3-37.9,26.9-155.3c3.1-90.1-46.2-133.5-102.1-148.2c21.7,69.8,33.3,141.7,7.3,208.2
			c-39.7,98.1-56.7,201.5-37.7,301c61.5-23.2,147.1-81,147.1-81L2734.5,2899z"/>
		<path class="st13" d="M2439.6,3481.1L2439.6,3481.1c24.6-47,42.5-89.9,50-115.8L2439.6,3481.1z"/>
		<path class="st30" d="M2988.3,3640.7c-22.8-89.7,29.3-308.1,0-456.5c-29.3-148.3-211.9-192.4-211.9-192.4s-27.5,34.6-122.1,52.7
			c58.8,88.7,58.9,203,118.2,294.9c18.7,28,46.7-15.6,59.2-31.1c62.3,112.1,53,255.4,53,383.1c-0.9,16-3.6,31.7-7.4,47.2
			c70.9-36.3,114.9-65.9,114.9-65.9S2992.2,3672.7,2988.3,3640.7z"/>
		<path class="st30" d="M2339.5,3594.8c-53,31.1-133.9,18.7-177.6-28c-58.7-58.7-90.5-132.7-127-203.9c-23,9.9-37,27-37,27
			s72.7,285.1,193.3,322.6c77.9,24.2,168.8-90.2,230.3-198.5C2387.1,3530.1,2371.4,3574.6,2339.5,3594.8z"/>
		<path class="st13" d="M2831.7,3308.3c-12.5,15.6-40.5,59.2-59.2,31.1c-59.2-91.8-59.4-206.2-118.2-294.9
			c-16,3.1-33.9,5.7-53.9,7.5c-42.4,3.1-192.3,70.2-231.4,171.3c-39.1,101.1-79.9,192.4-150,270.6c-34.2-52.2-129-134.5-129-134.5
			c-21.3-6.4-40.1-3.1-55,3.4c36.6,71.3,68.4,145.3,127,203.9c43.6,46.7,124.6,59.2,177.6,28c31.8-20.3,47.6-64.7,82.1-80.9
			c6.3-11,12.3-22,17.9-32.8v0l50-115.8c-7.5,25.9-25.4,68.7-50,115.8c-4.7,9,32.1,260.3,58.2,382.6
			c146.7-18.2,286.3-77.3,379.5-125.1c3.8-15.5,6.4-31.2,7.4-47.2C2884.6,3563.7,2894,3420.4,2831.7,3308.3z"/>
		<linearGradient id="SVGID_10_" gradientUnits="userSpaceOnUse" x1="1969.8533" y1="3365.3638" x2="2104.9351" y2="3365.3638">
			<stop  offset="0" style="stop-color:#4085F0"/>
			<stop  offset="1" style="stop-color:#275DC9"/>
		</linearGradient>
		<path class="st31" d="M1969.9,3356.3c0,0-1.2-33.6,49.5-41.6c50.7-7.9,66,11,66,11l19.6,33.8c0,0-103.3,8.4-100.9,58.5
			C1984.5,3392.3,1969.9,3356.3,1969.9,3356.3z"/>
		<path class="st9" d="M2485.1,2685c0,0,18.3,58.1,45.2,67.9c9.2,36.7,9.2,36.7,9.2,36.7l13.4,7.9c0,0,7.9-46.5,36.7-38.5
			c28.7,7.9,12.2,77.6-14.7,81.3c-4.9,30-30.8,92.9,48.3,102.7c79.1,9.8,117.4-20.4,124.7-44c7.3-23.6,99-187.1,33-262.9
			c-66-75.8-147.9-77-176-68.5C2576.8,2576.2,2480.2,2587.2,2485.1,2685z"/>
		<path class="st22" d="M2687.6,2711.5c0,0-1.6-71.7,53.8-79.1l26.1,13.9c0,0-62.8-4.1-57.9,95.4
			C2690.9,2728.6,2687.6,2711.5,2687.6,2711.5z"/>
		<path class="st9" d="M2739.2,2650.7c0,0,106.6-51.7,164.4,16c57.9,67.7,35.9,154.9,10.6,234.8c-25.3,79.9-122.5,341.5-109.5,423
			c-53.8-99.4-140.7-293.4-137.5-396.1s42.4-186.7,42.4-186.7l-7.5-45.6L2739.2,2650.7z"/>
	</g>
	<g>
		<path class="st8" d="M3199.8,551.8h-312.2c-91.1,0-165,73.9-165,165v1.7c0,85.9,65.7,156.5,149.6,164.3
			c-5.1,19.6-11.7,43.7-17.7,65.6c-5,18.3,16.7,32.1,31.1,19.7l98.8-84.6h215.4c91.1,0,165-73.9,165-165v-1.7
			C3364.7,625.6,3290.9,551.8,3199.8,551.8z"/>
		<ellipse class="st13" cx="2893.7" cy="708.1" rx="28.8" ry="28.8"/>
		<ellipse class="st13" cx="3054.4" cy="708.1" rx="28.8" ry="28.8"/>
		<ellipse class="st13" cx="3218.7" cy="708.1" rx="28.8" ry="28.8"/>
	</g>
	<linearGradient id="SVGID_11_" gradientUnits="userSpaceOnUse" x1="3296.5364" y1="2938.1011" x2="3720.1558" y2="2938.1011">
		<stop  offset="0" style="stop-color:#68B2FC"/>
		<stop  offset="1" style="stop-color:#529BF7"/>
	</linearGradient>
	<ellipse class="st32" cx="3508.3" cy="2938.1" rx="211.8" ry="210.1"/>
	<linearGradient id="SVGID_12_" gradientUnits="userSpaceOnUse" x1="192.9359" y1="1456.0615" x2="536.4113" y2="1456.0615">
		<stop  offset="0" style="stop-color:#68B2FC"/>
		<stop  offset="1" style="stop-color:#529BF7"/>
	</linearGradient>
	<ellipse class="st33" cx="364.7" cy="1456.1" rx="171.7" ry="170.4"/>
</g>
</svg>
