<?xml version="1.0" encoding="utf-8"?>
<!-- Generator: Adobe Illustrator 24.0.0, SVG Export Plug-In . SVG Version: 6.00 Build 0)  -->
<svg version="1.1" id="Vector" xmlns="http://www.w3.org/2000/svg" xmlns:xlink="http://www.w3.org/1999/xlink" x="0px" y="0px"
	 viewBox="0 0 3000 3000" style="enable-background:new 0 0 3000 3000;" xml:space="preserve">
<style type="text/css">
	.st0{fill:none;stroke:#1A1A1A;stroke-width:4.5108;stroke-linecap:round;stroke-linejoin:round;stroke-miterlimit:10;}
	.st1{fill:#FFFFFF;stroke:#1A1A1A;stroke-width:3.0072;stroke-linecap:round;stroke-linejoin:round;stroke-miterlimit:10;}
	.st2{fill:#8E9DF4;stroke:#1A1A1A;stroke-width:3.0072;stroke-linecap:round;stroke-linejoin:round;stroke-miterlimit:10;}
	.st3{fill:none;stroke:#1A1A1A;stroke-width:3.0072;stroke-linecap:round;stroke-linejoin:round;stroke-miterlimit:10;}
	.st4{fill:#1A1A1A;}
	.st5{fill:#5067EF;stroke:#1A1A1A;stroke-width:3.0072;stroke-linecap:round;stroke-linejoin:round;stroke-miterlimit:10;}
	.st6{fill:#1A1A1A;stroke:#1A1A1A;stroke-width:3.0072;stroke-linecap:round;stroke-linejoin:round;stroke-miterlimit:10;}
	.st7{fill:#D9DBDA;stroke:#1A1A1A;stroke-width:3.0072;stroke-miterlimit:10;}
</style>
<g>
	<path class="st0" d="M571.2,2064.2c31.1,75.4,104.9,218.1,255.3,283.2c124.3,53.8,249.3,32.3,391,8c193.1-33.2,193.8-79,311.2-75.8
		c159,4.4,201.1,89.6,379,123.7c37.4,7.2,174.2,26.7,323.1-16c203-58.2,413.6-229.2,395-315.2
		C2601.2,1958.4,2155.5,1901.8,571.2,2064.2z"/>
	<path class="st0" d="M394.1,1967.1c93,127.8,221,204.8,221,204.8c38.8,23.4,94.9,56.5,171.5,73.8c133.9,30.2,202.6-16.8,315.2-23.9
		c192.8-12.2,226,111,434.9,155.6c107.3,22.9,144.9,0.3,610.4-119.7c456.8-117.7,483-112,548.6-167.5
		c178-150.9,258.1-425,205.5-670.2c-74-344.7-392.6-550-650.3-574.5c-130.6-12.4-138,31.9-347.1,65.8
		c-462.5,75-608.4-112.3-1041.3-47.9c-192,28.6-387,57.6-514.6,215.4C138.6,1337.5,250.2,1769.3,394.1,1967.1z"/>
	<path class="st1" d="M703.9,2029.1c-12.4-6.2-177.3-95.4-218.9-274.7c-30.6-132,6-277.7,93.1-363.2c68.6-67.3,113-42.9,176.9-111.7
		c91.2-98.2,41.9-192.2,97.8-293.3c102.9-186.2,486.4-259,712.4-125.7c142.8,84.2,137.2,200.1,265.4,228.2
		c149.7,32.7,214.4-112.8,381.8-121.1c219.9-10.8,448.5,223.6,530.8,461c70,201.9,83.1,531.6-147.5,725.5
		c-197.2,165.8-449.6,129.3-495.1,121.9C1635.2,2193.7,1169.6,2111.4,703.9,2029.1z"/>
	<path class="st1" d="M2786.3,1641.3c-80.9-49.9-233-38.4-416.5-54c-275-23.3-669,176.1-808.7,124.6
		c-53.5-19.7-94.2-79.8-124.1-146.3v593c164,29,328,57.9,492,86.9l727.3-151.4C2767,1963.9,2797,1794.1,2786.3,1641.3z"/>
	<path class="st1" d="M852.9,986.2c-55.9,101.1-6.6,195.1-97.8,293.3c-63.9,68.8-108.3,44.4-176.9,111.7
		c-87.2,85.5-123.7,231.1-93.1,363.2c41.6,179.3,206.4,268.5,218.9,274.7c231.4,40.9,462.8,81.8,694.1,122.6V801.5
		C1184.2,764.7,933.2,840.9,852.9,986.2z"/>
	<path class="st1" d="M852.9,986.2c-55.9,101.1-6.6,195.1-97.8,293.3c-63.9,68.8-108.3,44.4-177,111.8
		c-44.5,43.7-75.8,103-91.7,168.2c46.6-61,105.6-106.7,179.7-118.4c250.8-39.9,502.5,25.4,671.1-64V794.1
		C1138.7,779.5,925.7,854.5,852.9,986.2z"/>
	<polygon class="st1" points="936.2,854.5 936.2,1766.7 960.2,1769.3 962,852.5 	"/>
	<path class="st1" d="M1398,801.5c-20-3.4-40.3-5.9-60.8-7.4V1377c21.7-11.5,42.1-25.6,60.8-42.8V801.5z"/>
	<path class="st1" d="M474.9,970.5c-8.7,5.1-17.3,10.4-25.8,16.1v950.9l24,2.9L474.9,970.5z"/>
	<path class="st1" d="M1436.9,809.5c-12.8-3.1-25.8-5.8-38.9-8v1350.3c13,2.3,25.9,4.6,38.9,6.9V809.5z"/>
	<g>
		<path class="st1" d="M476.9,1820.6c0,0-55.3-62.3,47.4-125c-14.2,24.4-66.4,52-29.5,114.2c15.3,35.4-7.2,50.5-7.2,50.5
			S454.2,1863,476.9,1820.6z"/>
		<g>
			<path class="st1" d="M567.6,1882.1c-8.7,16.3-121.1,14.9-177.7,13.1c-0.6-2.5-1.2-4.9-1.7-7.3c-1-4.4-2-8.7-2.8-13.1
				C428.6,1872,577.6,1863.4,567.6,1882.1z"/>
			<path class="st1" d="M567.6,1882.2l-9.4,122.1c-14.6,22-14.3,50.4-20.2,77.4c-2.4,12.8-11.5,17-21.7,16.4
				c-22.2-19.2-46.2-41.8-69.9-67.5c-28.1-45.2-45.7-91.5-56.4-135.2C446.6,1897.1,558.9,1898.4,567.6,1882.2z"/>
		</g>
		<g>
			<path class="st2" d="M595.3,1702.4c7.1,6.9,17.3,9,24.2,9.6c3.1-1.5,6.2-3.2,9.4-5c13.7-7.8,22.4-21.9,28-37.5
				c-9,3.3-29.2,9.8-37.9,6.3c-11.5-4.5-7-9.6-1.7-8c6.6,3.4,31.4-3.7,42.4-7c2.3-8.4,3.9-17,4.9-25.2c-7.8,4.7-19.6,8.9-25,7.1
				c-6.9-2.4-4.2-8.1,1.5-7.4c4.2,0.5,17.7-6.7,24.5-10.6c1.2-16.7,0.5-30.1,0.2-33.6c0-0.6-0.1-0.9-0.1-0.9s-16.3-4.8-37.6-7.9
				c-4.5,4.6-11.2,11.7-14,16.5c-4.5,7.5-6.6,13.7-10.2,12.5c-7.1-3.7,7.5-21.2,15.6-30.1c-9.3-1-19.2-1.6-28.9-1.3
				c-29,22.9-13.8,42.8-25.1,40.4c-9.8-2.1,7.6-29,15-39.7c-9.2,1-17.9,3.1-25.5,6.5c-6.8,3.5-12.9,6.9-18.2,10.2
				c-8.2,19.4,11.3,30.2,1,32.6c-8,1.9-9.1-17.1-9.1-27.3c-70.3,48.8,1.6,81.5,1.6,81.5c0,0.3,0.1,0.6,0.1,0.9
				c6.4,39.7,39.4,46.2,75.7,32.8c-5.6-4.5-15.8-12.8-17.5-14.7C586.1,1700.5,589.5,1696.1,595.3,1702.4z"/>
			<path class="st3" d="M652.8,1600.1c0,0-82.2,63.2-122.8,84L652.8,1600.1z"/>
			<path class="st3" d="M631.9,1646.1c0,0-19.1,2.5-38.7-2.2L631.9,1646.1z"/>
			<path class="st3" d="M586.8,1615.5c0,0-11.6,27.8-6.1,37.1L586.8,1615.5z"/>
			<path class="st3" d="M607,1686.4c0,0-33.5-11.7-44.5-21.6L607,1686.4z"/>
			<path class="st3" d="M530.6,1646.9c0,0-2.6,21.3,10.4,31.3L530.6,1646.9z"/>
		</g>
		<g>
			<path class="st1" d="M342.8,1654.7c6,0.7,11.8,1.6,17.5,2.7c7.7,7.4,17.1,19.8,17.1,35.3c-1,13.4,8.7,11.1,9.2,5.6
				c0.4-3.9-1.4-24.2-2.5-35.2c60.8,18.1,92.4,58.3,48.9,115.1c0,0,45.3,110-100.5,104c12.8-12.8,35.3-37.6,23.3-43
				c-15.4-6.9-5.6,25.4-39.8,41.9c-10.7-1-22.2-2.5-34.7-4.6c-13.5-2.9-26.6-8.7-38.9-16.2c22.4-6.4,77.1-23.6,67.9-35.6
				c-10.6-13.9-17.4,25.8-81,26.8c-12.1-8.9-23.3-19.1-33.2-29.3c21-3.4,60.4-11.3,56.6-22.8c-2.9-4.9-13.1,0.9-27.9,6
				c-9.4,3.2-26.4,5.8-37.6,7.3c-21.8-24.3-35.3-46-35.3-46s17.3-20,43.5-43.2c13.1,1.7,38.3,5.6,42.8,10.2c6,6.3,16.5,1.7,11.2-7.9
				c-4.1-7.4-23.7-13.4-38.9-15c11.5-9.3,24.2-18.7,37.5-27c17.5,6.2,56.1,21.1,59.8,31.7c4.3,7.2,16,5.1,8-11.6
				c-6.2-12.8-38.5-23.9-53.5-28.4C288.5,1660.8,316.6,1651.5,342.8,1654.7z"/>
			<path class="st1" d="M179.8,1766.3c0,0,178.2-0.9,253.1,11.9L179.8,1766.3z"/>
			<path class="st1" d="M262.6,1728.4c0,0,26.1,15.1,43.7,39.8L262.6,1728.4z"/>
			<path class="st1" d="M278.4,1810.1c0,0,48.8-23.9,53.9-40.8L278.4,1810.1z"/>
			<path class="st1" d="M343.2,1701.7c0,0,25.6,46.8,26.3,69.7L343.2,1701.7z"/>
			<path class="st1" d="M385.4,1824.5c0,0,30-24.3,26.8-49.3L385.4,1824.5z"/>
		</g>
		<g>
			<path class="st2" d="M366.1,1510.4c4.3,3,8.4,6.2,12.3,9.4c2.5,9.6,4.2,24.4-2.9,38.2c-6.9,11.5,1.6,13.3,4.5,8.7
				c2.1-3.3,9.9-22.1,14.2-32.3c38.7,40.4,44.7,88.8-14.8,121.8c0,0-15.3,115.9-125.2,52.4c15.7-6.3,44.5-19.4,37.7-28.9
				c-8.7-12.3-16,20.3-49.9,21.4c-7.8-5.1-16-11.1-24.7-18c-9.1-7.9-16.6-18.3-22.6-29.9c20.2,3.2,70.3,9.8,68.7-4.6
				c-1.9-16.6-25.3,15.9-74.8-8.5c-5.3-12.7-9.3-26.3-12.2-39.3c17.8,5.4,51.9,14.1,54.1,2.3c0-5.6-10.5-4.5-24.3-5.9
				c-8.7-0.9-23.1-5.4-32.3-8.5c-5.7-30.3-6.2-55-6.2-55s22.5-10.9,53.3-21.1c9.3,6.8,27.1,20.2,28.4,26.1c1.8,8,12,8.1,12.3-2.6
				c0.2-8.3-12.2-21.4-23.2-28.9c13.2-3.7,27.2-7,41.3-9.1c10.6,12.5,33.7,41.2,31.7,52c0,8.1,10.1,10.9,11.5-7.1
				c1.1-13.8-18.9-36.6-28.3-46.6C321.3,1494.1,347.2,1497.1,366.1,1510.4z"/>
			<path class="st3" d="M189.2,1544.5c0,0,138.1,70.4,190.1,111.6L189.2,1544.5z"/>
			<path class="st3" d="M270.4,1543.9c0,0,13.3,23.9,15.6,52.9L270.4,1543.9z"/>
			<path class="st3" d="M245.3,1622.9c0,0,48.6-1.8,60.3-14.8L245.3,1622.9z"/>
			<path class="st3" d="M344.9,1552.3c0,0-1.6,51.9-11.6,72.5L344.9,1552.3z"/>
			<path class="st3" d="M321.3,1678.4c0,0,34.3-9.7,43.2-33.1L321.3,1678.4z"/>
		</g>
		<g>
			<path class="st1" d="M546.7,1501.5c11.7-3,19.6-11.8,23.9-18.5c-0.1-4.1-0.4-8.2-0.8-12.4c-1.8-18.5-13.4-35.8-28.5-51
				c-1,11.1-4.2,35.3-12.8,41.9c-11.3,8.7-14.9,1.1-10.1-3.2c7.4-4.6,12.4-33.7,14.3-46.8c-8.5-7.4-17.6-14.2-26.5-20.3
				c1.2,10.7-0.1,25.1-5.1,29.4c-6.4,5.5-11.6-0.7-7.8-6.1c2.8-3.9,1.6-21.8,0.8-31.1c-18.7-11.4-34.5-18.8-38.7-20.7
				c-0.7-0.3-1.1-0.5-1.1-0.5s-14.2,13.4-29.1,33c2.9,7.3,7.6,18.4,11.6,24.2c6.2,9.1,12.3,14.9,9,17.9
				c-8.1,4.9-20.5-20.4-26.4-34.1c-6.1,8.7-12.1,18.3-16.8,28.3c11.1,43.1,42.2,40,33.4,49.9c-7.6,8.6-29.5-25.3-37.9-39.3
				c-3.7,9.8-6,19.9-6,29.6c0.4,8.9,1.1,17.1,2.1,24.5c18.1,20,40.9,7.1,38.2,18.9c-2.1,9.2-24.6-1.3-36.3-7.5
				c19.1,100.4,95,48.2,95,48.2c0.4,0.1,0.7,0.3,1.1,0.4c49.3,17.8,74.3-11.4,78.1-56c-8.2,2.9-23.2,8-26.3,8.5
				C539.7,1509.6,536.4,1503.4,546.7,1501.5z"/>
			<path class="st1" d="M459,1381.3c0,0,29.5,121.1,32,174.6L459,1381.3z"/>
			<path class="st1" d="M501.1,1430.3c0,0-7.2,20.7-23.1,37.5L501.1,1430.3z"/>
			<path class="st1" d="M441.8,1457c0,0,26,28.6,39.6,28.7L441.8,1457z"/>
			<path class="st1" d="M534.4,1480c0,0-31.3,26.5-48.5,31.4L534.4,1480z"/>
			<path class="st1" d="M448.2,1532.5c0,0,23.3,15.7,41.6,8.7L448.2,1532.5z"/>
		</g>
		<g>
			<g>
				<path class="st4" d="M486.5,1555.9c0.3,3.2,0.5,6.4,0.7,9.7c0.5,8.9,0.7,17.9,0.8,26.9c0.1,13.7-0.1,27.3-0.8,40.9
					c-0.8,17.3-2.1,34.6-4.1,51.9c-0.5,4.7-1.1,9.5-1.7,14.2c-0.1,0.6-0.2,1.2-0.2,1.8c-0.1,0.9,0,0.4,0,0.2c0,0.3-0.1,0.6-0.1,0.9
					c-0.2,1.3-0.4,2.6-0.5,3.9c-0.3,2.5-0.7,4.9-1.1,7.4c-1.6,10.2-3.3,20.5-5.3,30.6c-0.5,2.6-1,5.2-1.6,7.8c3,0.4,5.9,0.8,8.9,1.2
					c0.1-1.8,0.3-3.5,0.4-5.3c0.3-4.8,0.7-9.6,1-14.4c0.5-7.1,1-14.1,1.5-21.2c0.6-8.6,1.2-17.3,1.9-25.9c0.7-9.5,1.4-18.9,2-28.4
					c0.7-9.5,1.4-19,2-28.6c0.6-8.9,1.3-17.8,1.9-26.7c0.5-7.5,1.1-15.1,1.6-22.6c0.4-5.4,0.8-10.8,1.2-16.2
					c0.2-2.6,0.4-5.1,0.5-7.7c0-0.1,0-0.2,0-0.3c0.2-2.4-2.2-4.6-4.5-4.5C488.4,1551.5,486.7,1553.4,486.5,1555.9
					c-0.1,1.8-0.3,3.5-0.4,5.3c-0.3,4.8-0.7,9.6-1,14.4c-0.5,7.1-1,14.1-1.5,21.2c-0.6,8.6-1.2,17.3-1.9,25.9
					c-0.7,9.5-1.4,18.9-2,28.4c-0.7,9.5-1.4,19-2,28.6c-0.6,8.9-1.3,17.8-1.9,26.7c-0.5,7.5-1.1,15.1-1.6,22.6
					c-0.4,5.4-0.8,10.8-1.2,16.2c-0.2,2.6-0.4,5.1-0.5,7.7c0,0.1,0,0.2,0,0.3c-0.2,2.2,1.8,4.2,3.9,4.4c2.1,0.3,4.5-1,4.9-3.2
					c4.2-20.3,7.5-40.8,10-61.4c2.2-17.7,3.7-35.5,4.6-53.3c0.8-14.2,1.1-28.4,1.1-42.6c0-9.7-0.2-19.3-0.7-29c-0.2-4-0.4-8-0.8-12
					c0-0.1,0-0.1,0-0.2c-0.2-2.3-1.9-4.6-4.5-4.5C488.8,1551.5,486.3,1553.4,486.5,1555.9z"/>
			</g>
		</g>
		<g>
			<g>
				<path class="st4" d="M372.6,1656.3c3.2,1,6.4,2.1,9.5,3.3c1.6,0.6,3.2,1.2,4.7,1.9c0.2,0.1,0.4,0.2,0.7,0.3
					c0.8,0.3-1.2-0.5-0.3-0.1c0.5,0.2,0.9,0.4,1.4,0.6c1,0.4,1.9,0.8,2.9,1.3c4.3,1.9,8.5,4,12.7,6.2c4.8,2.6,9.5,5.3,14.1,8.3
					c2.5,1.6,4.9,3.2,7.2,4.9c1.2,0.9,2.4,1.7,3.6,2.6c0.3,0.2,0.6,0.5,0.9,0.7c0.1,0.1,0.3,0.2,0.4,0.3c0,0-0.9-0.7-0.3-0.2
					c0.6,0.5,1.2,1,1.8,1.4c4.9,3.9,9.5,8.1,13.8,12.6c2.2,2.3,4.3,4.7,6.3,7.2c0.5,0.6,1,1.2,1.4,1.8c0.1,0.1,0.2,0.3,0.3,0.4
					c-0.7-0.9-0.4-0.5-0.2-0.3c0.3,0.4,0.5,0.7,0.8,1.1c1,1.3,1.9,2.7,2.8,4c1.8,2.7,3.5,5.4,5,8.2c0.8,1.5,1.6,3,2.3,4.5
					c0.3,0.7,0.7,1.4,1,2.2c0.2,0.4,0.3,0.8,0.5,1.2c0.1,0.3,0.2,0.8-0.1-0.3c0.1,0.3,0.2,0.5,0.3,0.8c2.6,6.3,4.5,13,5.6,19.7
					c0.1,0.4,0.1,0.9,0.2,1.3c0,0.1,0.1,0.6,0.1,0.6c0,0-0.1-1.2,0-0.3c0.1,0.9,0.2,1.8,0.3,2.7c2.6-1.1,5.1-2.1,7.7-3.2
					c-3.4-3.4-6.8-6.8-10.3-10.3c-8.2-8.2-16.4-16.4-24.6-24.7c-9.9-9.9-19.9-19.9-29.8-29.8c-8.6-8.6-17.2-17.2-25.8-25.8
					c-4.2-4.2-8.3-8.5-12.5-12.5c-0.1-0.1-0.1-0.1-0.2-0.2c-1.7-1.7-4.7-1.8-6.4,0c-1.7,1.8-1.8,4.6,0,6.4
					c3.4,3.4,6.8,6.8,10.3,10.3c8.2,8.2,16.4,16.4,24.6,24.7c9.9,9.9,19.9,19.9,29.8,29.8c8.6,8.6,17.2,17.2,25.8,25.8
					c4.2,4.2,8.2,8.5,12.5,12.5c0.1,0.1,0.1,0.1,0.2,0.2c1.3,1.3,3.3,1.6,4.9,0.9c1.5-0.6,2.9-2.4,2.8-4.1
					c-1.4-14.5-6-28.4-13.6-40.8c-6.8-11.3-15.7-21.2-25.7-29.8c-9.2-7.9-19.2-14.7-29.7-20.6c-8.2-4.6-16.8-8.6-25.6-12.1
					c-3.8-1.5-7.8-3.2-11.8-4.3c-0.1,0-0.1,0-0.2-0.1c-2.3-0.7-5,0.8-5.5,3.2C368.9,1653.2,370.2,1655.6,372.6,1656.3z"/>
			</g>
		</g>
		<g>
			<g>
				<path class="st4" d="M426.6,1782.5c1-0.4,2.1-0.6,3.1-0.7c0.3,0,0.6-0.1,0.9-0.1c-1.7,0.3-0.5,0.1-0.1,0
					c0.8-0.1,1.7-0.2,2.5-0.3c3.8-0.3,7.7-0.4,11.6-0.4c4.5,0,9,0.2,13.4,0.7c1.1,0.1,2.1,0.2,3.2,0.3c0.5,0.1,1,0.1,1.5,0.2
					c1.1,0.1-1.1-0.2,0,0c0.4,0.1,0.8,0.1,1.2,0.2c2,0.3,4,0.7,6,1.1c2,0.4,4,1,5.9,1.7c0.4,0.2,1.8,0.8,0.3,0.1
					c0.4,0.2,0.7,0.3,1.1,0.5c0.7,0.4,1.4,0.8,2,1.2c0.8-2.8,1.5-5.6,2.3-8.4c-6.3-0.6-12.6-1.1-19-1.7c-10.1-0.9-20.1-1.8-30.2-2.7
					c-2.3-0.2-4.6-0.4-6.9-0.6c-2.4-0.2-4.6,2.2-4.5,4.5c0.1,2.6,2,4.3,4.5,4.5c6.3,0.6,12.6,1.1,19,1.7c10.1,0.9,20.1,1.8,30.2,2.7
					c2.3,0.2,4.6,0.4,6.9,0.6c1.9,0.2,3.9-1.5,4.3-3.3c0.5-2.1-0.4-3.9-2.1-5.1c-2.9-2-6.5-3.2-10-4.1c-4.4-1.1-9-1.8-13.6-2.3
					c-8.6-0.9-17.4-1.2-26-0.6c-3.3,0.2-6.8,0.4-9.9,1.5c-2.2,0.8-3.9,3.1-3.2,5.5C421.7,1781.5,424.2,1783.3,426.6,1782.5z"/>
			</g>
		</g>
		<g>
			<g>
				<path class="st4" d="M533.3,1677.4c-2.3,0.7-4.5,1.9-6.5,3c-5,2.9-9.5,6.6-13.5,10.7c-6.1,6.4-11.1,13.9-15,21.9
					c-5.6,11.5-9.1,24-11,36.6c-2.8,18.1-3,36.5-1.5,54.8c0.2,2.6,0.5,5.3,0.7,7.9c0.2,2.3,1.5,4.1,3.9,4.4c2.3,0.3,4.2-1.1,4.9-3.2
					c1.5-4.4,2.9-8.7,4.4-13.1c3.5-10.4,6.9-20.8,10.4-31.1c4.2-12.6,8.4-25.2,12.6-37.8c3.6-10.9,7.2-21.7,10.9-32.6
					c1.8-5.3,3.7-10.5,5.3-15.8c0-0.1,0.1-0.2,0.1-0.2c0.7-2.2-0.9-5-3.2-5.5c-2.5-0.6-4.8,0.8-5.5,3.2c-1.5,4.4-2.9,8.7-4.4,13.1
					c-3.5,10.4-6.9,20.8-10.4,31.1c-4.2,12.6-8.4,25.2-12.6,37.8c-3.6,10.9-7.2,21.7-10.9,32.6c-1.7,5.3-3.7,10.5-5.3,15.8
					c0,0.1-0.1,0.2-0.1,0.2c3,0.4,5.9,0.8,8.9,1.2c-1.9-18.5-2.4-37.2-0.2-55.7c0.1-0.5,0.1-0.9,0.2-1.4c0-0.2,0.1-0.9,0-0.2
					c-0.1,0.8,0-0.2,0-0.3c0.1-0.9,0.3-1.8,0.4-2.7c0.3-1.8,0.6-3.7,1-5.5c0.6-3.2,1.3-6.4,2.2-9.6c0.8-3,1.7-5.9,2.7-8.9
					c0.5-1.3,0.9-2.6,1.4-4c0.2-0.6,0.5-1.3,0.8-1.9c0.1-0.2,0.5-1.3,0.2-0.5c-0.3,0.8,0.2-0.5,0.3-0.7c1.9-4.4,4.2-8.7,6.8-12.8
					c1.1-1.8,2.4-3.5,3.6-5.2c0.1-0.2,0.3-0.3,0.4-0.5c-1,1.3-0.4,0.5-0.2,0.2c0.3-0.4,0.6-0.8,0.9-1.2c0.6-0.7,1.2-1.4,1.8-2.1
					c2.2-2.4,4.5-4.7,7-6.8c0.3-0.2,0.5-0.4,0.8-0.6c0.1-0.1,0.3-0.2,0.4-0.3c0.1,0,0.1-0.1,0.2-0.1c0.5-0.4-0.5,0.4-0.6,0.4
					c0.5-0.4,1-0.8,1.6-1.2c0.9-0.7,1.9-1.3,2.8-1.9c1.4-0.9,2.9-1.7,4.4-2.4c0.3-0.1,0.5-0.2,0.8-0.4c0.7-0.3-1.4,0.6-0.7,0.3
					c0.1,0,0.2-0.1,0.3-0.1c0.2-0.1,0.5-0.2,0.7-0.3c0,0,0.1,0,0.1,0c2.2-0.7,3.9-3.2,3.2-5.5
					C538.1,1678.3,535.7,1676.6,533.3,1677.4z"/>
			</g>
		</g>
	</g>
	<g>
		<path class="st1" d="M1428.8,1739.3c0,0,34.2,101.7,38.4,197.1c-109.1,24.8-468.7-3.5-468.7-3.5s7.9-167.2,45.2-187.2
			C1206,1758.3,1428.8,1739.3,1428.8,1739.3z"/>
		<path class="st1" d="M1467.2,1936.4c-4.2-95.5-38.4-197.1-38.4-197.1s-222.7,19-385,6.4c-9.7,5.2-17.4,20.3-23.5,39.8
			c34.6,14.3,168.1,58.5,378.6-5.2c-2.3,51,41.3,53.3,41.3,53.3c6.8,23.8,6.5,74.2,5.5,106.6
			C1453.6,1939.1,1460.8,1937.9,1467.2,1936.4z"/>
		<path class="st5" d="M859,1435.9c0,0,123.8-66.3,198.8-156.9c0,0,57.4-170.2,42.9-170.7s-99.3,44-153.1,94.7
			c-53.8,50.7-191.5,182.3-189.9,207.8C770.7,1417.6,848.5,1412.7,859,1435.9z"/>
		<path class="st5" d="M1039.3,1278.7c6.7,31.2,14.6,79.3,15.5,134.9c1.7,96.2-43.6,295.4-43.6,295.4s38.4,83.8,196.7,80.3
			c158.3-3.5,223.5-21,229.3-52.4c9.3-37.2-36.1-288.7-33.8-345.7c2.3-57,14-146.7-54.7-206c-68.7-59.4-216.6-97.6-266.5-71.3
			L1039.3,1278.7z"/>
		<path class="st1" d="M1173,1090.7c0,0-5-29.5-12.4-19c-7.4,10.5-5.8,52,5,55.5L1173,1090.7z"/>
		<path class="st1" d="M1167.2,1097.1c0,0-46.6,161.4,6.2,191.7c52.8,30.3,145.9-27.2,173.8-118c27.9-90.8-25.8-133.7-84.6-144.5
			C1192.1,1013.3,1167.2,1097.1,1167.2,1097.1z"/>
		<path class="st1" d="M1338,1171.6c1.2-0.8,23.4-16.8,30.3,2.3c5.9,17.8-22.9,51.6-43.7,45.4l-4.1-1.9L1338,1171.6z"/>
		<path class="st5" d="M1294.1,1397.1c0,0-2.3,41.4,4.7,50.4C1256.9,1503,1173,1652,1173,1652c52.4,14,63,67.5,51.9,87.3
			c61.1-54.7,225.2-229.3,228.7-323.6c12.8-60.5-1-157.5-90.7-216.6L1294.1,1397.1z"/>
		<path class="st6" d="M1400.8,1495.7c-34.7,71.5-129.8,161.8-175.9,203.1c5.6,15.9,5,31.6,0,40.5
			c61.1-54.7,225.2-229.3,228.7-323.6c7-32.9,6.1-76.5-10.6-119C1460.4,1392.3,1447.4,1399.8,1400.8,1495.7z"/>
		<path class="st6" d="M1354.8,1165.7c-3.8,0-7,0.8-9.8,2.2c-12.1,5.9-14.8,21.8-14.8,21.8s-5,13-9.1,7.1c-0.4-0.7-0.9-1.5-1.3-2.7
			c10.5-14,10.5-48.1,6.6-58.2c-3.9-10.1-55.9,14.7-119.5-7.8c-38.8-16.8-38.3-47.4-33.4-66.4c2.5-9.9,6.3-16.6,6.3-16.6
			c4.9-11.6,8.3-42.8,19.2-39.6c22.8,6.6,60.1-16.4,92.8-13.7c28,2.3,54.8,20.3,72.2,38.1c10.3,10.4,17.3,20.7,19.4,27.6
			C1388.9,1076.2,1365.9,1146.6,1354.8,1165.7z"/>
		<path class="st1" d="M1398.9,1780.2c0,0-10.5,35.2,13.1,48.4c23.5,13.2,28.3,4.9,28.3,4.9S1394.6,1827.8,1398.9,1780.2z"/>
		<path class="st1" d="M764.4,1401.7c0,0-22.9,36.1,26,144c-34.1,32.2-35.6,43.2-32.6,83.6c24.4,38.8,60.1,32.1,60.1,32.1
			s22.9-28.7,25.2-38.4c6.6,0.4-18.2,40-18.2,40s4.3,8,13.6,7.3c9.3-0.7,37.6-33.3,36.1-83c-1.6-49.7-24.8-39.2-21.7-74.9
			c3.1-35.7,7-61.7,8.9-84.6C863.8,1404.8,823,1360.6,764.4,1401.7z"/>
		<path class="st6" d="M791,1614.6l-8.9,31.4c0,0,13.4-28.3,16.5-40.5C801.7,1593.2,791,1614.6,791,1614.6z"/>
		<path class="st6" d="M813.9,1663.4c0.3-0.8,31.6-57.6,36.7-49.9s-23.6,52-23.6,52s-3,1.8-2-2.6c1-4.4,24.1-38.8,19.9-38.5
			c-4.1,0.3-24.8,34.1-26.9,37S813.9,1663.4,813.9,1663.4z"/>
		<path class="st6" d="M795.4,1655.6c0,0,18.9-47.1,24.4-44.9c5.5,2.2-22.2,46.9-22.2,46.9L795.4,1655.6z"/>
		<path class="st6" d="M776.6,1595.6c0,0-8.8,35-8.5,42.2C772.2,1642.9,779,1595.2,776.6,1595.6z"/>
		<path class="st6" d="M837.6,1745.5c-30.5-10.9-62.1-13.1-93.6-21.8c-0.1,0-0.1,0-0.2,0c4.7,4.8,9.4,9.7,14.1,14.5
			c29.9,34.1,162.5,51.3,162.5,51.3s-6.2-5.6-40.8-50.2c-4.5,2.1-9.1,4.2-13.7,6.2C857.2,1749.8,846.3,1748.7,837.6,1745.5z"/>
		<path class="st1" d="M559.6,1538.7c0,0,92.7,91.2,184.2,185c0.1,0,0.1,0,0.2,0c31.6,8.7,63.1,10.9,93.6,21.8
			c8.7,3.3,19.6,4.4,28.3,0c4.6-2,9.2-4.1,13.7-6.2c-19-24.5-46.6-60.8-86.5-114.4C698.5,1638.8,559.6,1538.7,559.6,1538.7z"/>
		<path class="st1" d="M864,1760.2c0,0-33.9,4.2-54.1-4.7c-20.2-8.9-47.1-21-54.3-16.2c-5.8,3.8,16.6,31.7,29.7,45.4
			c3.4,3.5,6.1,6.1,7.6,7c7.8,20.7,57.9,50.2,75.8,47.6c17.9-2.6,171-54.3,191.2-55.9c20.2-1.6,153.4-33.4,165-44.1
			s11.7-81.6-51.9-87.3C1088.8,1671.1,918.1,1764.9,864,1760.2z"/>
	</g>
	<path class="st1" d="M2743.2,2044.4c1.9,24-59,72.6-123.9,90.1c-62.5,22.7-178.1,47.4-472.2,123.1
		c-200.7,51.7-321.8,85.3-403.3,105c-107.6,26-146,27.7-207.1,14.6c-28.9-6.2-54.5-13.9-77.6-22.5
		c-143.5-53.6-191.1-143.6-357.2-133.1c-112.6,7.1-181.3,54.2-315.2,23.9c-76.7-17.3-132.7-50.4-171.5-73.8
		c0,0-104.8-63.1-193.7-169.8c-22.5-23.8-41.2-48.2-53.2-73.7l597.6-45.9L2743.2,2044.4z"/>
	<polygon class="st6" points="920.4,1970.8 1157.2,2009.6 1467.2,1982.6 1444.3,1975.3 916.6,1959.4 900.4,1964.4 	"/>
	<path class="st6" d="M1479.5,1929.3c0,0,72.1,16.8,111.5,20.5c9.5,14.7,58.4,14.7,78.3,17.7c20,3,36.5,33.8,77.6,36.6
		s50.1,18.1,66.5,16.9c16.5-1.2,22-30.8,27.9-33.7c6-2.9-18-21.9-6-25.6C1757.6,1953.5,1479.5,1929.3,1479.5,1929.3z"/>
	<path class="st6" d="M1910.7,2045.9c22.3,1.7,50.8-20.7,95.2-13.2c49.8,8.4,172.9,18.3,199.4-0.8c34.5,1.9,391.9,36.8,421.6,24.8
		c29.8-12,38.2-19.4,38.2-19.4l-665.2-60.4c0,0-168.5,25.1-161.4,47.4C1842.4,2038.9,1888.4,2044.2,1910.7,2045.9z"/>
	<path class="st7" d="M1973.2,2303c-65.2-27.5-191.4-76.9-272.4-83.3c-113.2-9-191.5-61.8-189.8-88.8c1.8-26.9-341-63.6-532.9-71.1
		c-115.2-4.5-380.6-63.2-186.3-164l-44.4,3.4c-45.7,32.6-112.8,93.2-43.5,129.9c98.4,52.2,773.3,54,781.1,119.3
		c7.4,62.1,323.9,110.2,431.1,169.7C1934,2313.4,1953,2308.4,1973.2,2303z"/>
	<g>
		<path class="st1" d="M2369.7,1314.4v664.7h275v-664.7H2369.7z M2625.8,1933.3h-237.2v-303.8h237.2V1933.3z M2625.8,1607.5h-237.2
			v-273.2h237.2V1607.5z"/>
		<rect x="2425.6" y="1334.2" class="st1" width="200.2" height="273.2"/>
		<rect x="2388.7" y="1334.2" class="st6" width="36.9" height="273.2"/>
		<rect x="2388.7" y="1629.5" class="st6" width="45.1" height="303.8"/>
		<rect x="2433.8" y="1629.5" class="st1" width="192.1" height="303.8"/>
		<polygon class="st1" points="2698.1,1369.5 2644.8,1314.4 2646.4,2048.2 2699.6,2048.2 		"/>
	</g>
	<g>
		<polygon class="st1" points="1220.8,2040.8 1189.3,2082.2 1170,2083.2 1206.2,2035.6 1440.2,2032.9 1444.3,2038.2 		"/>
		<polygon class="st6" points="1440.2,2032.9 1206.2,2035.6 1170,2083.2 1047.3,2089.7 1031,2025.2 1421,2008.2 		"/>
		<polygon class="st6" points="1648.5,2098.5 1177,2098.5 1189.3,2082.2 1220.8,2040.8 1444.3,2038.2 1609.9,2036.3 		"/>
		<polygon class="st1" points="1444.1,2028.8 1424.9,2004.1 1034.9,2021.1 1051.2,2085.5 1173.9,2079.1 1193.2,2078.1 
			1224.7,2036.7 1448.2,2034.1 		"/>
		<polygon class="st1" points="1648.5,2095.1 1177,2095.1 1189.3,2078.8 1220.8,2037.4 1444.3,2034.8 1609.9,2032.9 		"/>
	</g>
	<g>
		<path class="st6" d="M1718.3,1647.5c37.8,6.6,71.5,25.5,106.1,42.5c-14.4-12.2-30.6-21.4-37.7-25.2
			c-39.4-36.6-134.2-31.4-186.5-30.7c-31.9,0.4-60.4,16.2-83,36.9C1577.7,1636.6,1649.5,1636,1718.3,1647.5z"/>
		<path class="st1" d="M1472.3,1818.9c1.8,11,4.3,23.1,7.7,36.2c0.9-0.6,0.6,62.5,17.7,78.2c1.2,1.1,84.4,31.8,138.5,16.5
			c73.3-20.8,128-92,176.8-118.3c6.2-3.3,12-7,17.7-11l-0.2-7.9l30.2-18.7c2.2-2.4,4.3-4.8,6.3-7.3c-3.5-22.9-10.2-45.5-17.6-65.3
			c-4.2-11.4-14.1-22.2-25-31.4c-34.6-17-68.3-35.9-106.1-42.5c-68.8-11.5-140.6-10.9-201,23.5L1472.3,1818.9z"/>
		<path class="st1" d="M1866.9,1786.7c-2.1,2.5-4.2,4.9-6.3,7.3l6.8-4.2C1867.3,1788.7,1867.1,1787.7,1866.9,1786.7z"/>
		<g>
			<path class="st6" d="M1789.1,1668.2c-28.3-63.1-47.9-137.2-108.9-174.2c-9.8-5.4-28.3-7.6-40.3,2.2c-19.4,15.2-20.5,38.3-20,61.6
				c28.8,23.8,54.4,41.8,66.6,42.3c36.6,1.7,65.8,84.5,108.5,121.2c20,17.2,44,13.3,63.9,4.3c-11.1-2.1-22.1-6.4-30.7-10.7
				C1808.7,1706.3,1797.8,1686.7,1789.1,1668.2z"/>
			<path class="st6" d="M1809.6,1614.3c-7.8-54.3-27.6-111-62.5-136.3c-34.9-25.3-21.4-90.1-64.6-112.4
				c-107.1-57.4-161.8,2.7-187.4,31c-25.6,28.3-2.3,43.5-2.3,43.5s69.7,70.2,127.1,117.6c-0.5-23.3,0.6-46.4,20-61.6
				c12-9.8,30.5-7.6,40.3-2.2c61,37,80.6,111,108.9,174.2c8.7,18.5,19.6,38.1,39.2,46.8c8.6,4.3,19.6,8.6,30.7,10.7
				c22.7-10.2,40.1-27.1,40.1-27.1S1817.4,1668.6,1809.6,1614.3z"/>
			<path class="st1" d="M1517,1414c-2.7-0.5-28.8,6.9-31.9,14.9c-7.8,20-13.7,61-2,109.8c11.2,52.9,30.2,107.6,85.4,91.6
				c28.7,38.8,28.7,58.2,27.2,72.2c34.1,41.1,98.6,5.4,115.6-14.7c-3.1-72.9-42.7-116.5-52.8-119.2c17.1-26,18.6-46.1-3.9-60.1
				c-22.5-14-32.6,38-32.6,38s-10.9,10.1-9-1.9C1623,1480,1577.8,1424.1,1517,1414z"/>
			<path class="st6" d="M1517,1412.4c0,0,42.3,15.3,40.8,39.8c-1.6,24.5-5.5,43.6,31.7,55.2c-17.8-20.1-19.2-24.8-15.2-48.6
				C1578.3,1435,1554.6,1385.4,1517,1412.4z"/>
			<path class="st1" d="M1479.5,1804.7l0.4,50.4c-37.1,38.2-65.4,48.4-83.4,53c-24.3,6.2-136.5,13.3-153.8,16.7
				c-23.3,1.4-21.6-15.3-27.7-24c-7.6-10.6-21.1-24.9-20.7-36.9c3.1-10.9,39.3-21.1,85.9-34c18.9-5.3,38.5-7.8,57.1-14.3
				c15.6-5.5,30.1-13.9,42.4-24.8c5.7-5,11.1-10.4,15.7-16.4c4.4-5.8,7.7-11.3,11-17.9c7.1-14.3,14.5-28.5,23.8-41.5
				c20.6-29.1,51.3-47.8,84.3-60c9.7-3.6,19.6-6.6,29.7-9c5.6-1.3,11.2-2.5,16.8-3.4c-9.8,4-19.1,9.4-27.7,15.5
				c-7.2,5.1-10.4,7.5-16.6,13.6L1479.5,1804.7z"/>
			<path class="st6" d="M1195.7,1864.9c0,0,22.9-17.8,39.2,2.3c16.3,20.2,27.8,54,16.3,56.7c-11.5,2.6-37.1,1.2-49-19.8
				C1190.3,1883.1,1189.7,1873.1,1195.7,1864.9z"/>
			<path class="st1" d="M1654.2,1668.3c0,0,10.1-30.7,1.9-57.4s2.1-65.2,3.1-83.4c1-18.2-13.6-50.4-7.4-53.2s27.6,17.5,29.1,37.6
				c2.7,17.5,10.9,9.9,11.3,2.3c0.4-7.6,0-35.5,5.6-36.5c5.6-1,13.8-1.9,13.2,15.5c0,0,4.1-6.6,10.3-5.8s7.6,8.3,5.4,20.8
				c-2.1,12.4-2.1,12.4-2.1,12.4s35.9-46.4,40.2-58.4c4.3-12,15.1-7.8,14.7,3.1s-34.8,60.9-40.5,77.2s-2.6,46.9-14.2,61.3
				s-9.7,79.5-9.7,79.5L1654.2,1668.3z"/>
			<path class="st1" d="M1706.2,1527.2c-0.2,0.5,6.2-32,5-37.8c2.4,0.9,2.4,0.9,2.4,0.9S1710.5,1518.4,1706.2,1527.2z"/>
			<g>
				<polygon class="st1" points="1179.4,1931.9 1467.2,1968.1 1154.5,1993.5 910.3,1957.4 				"/>
				<polygon class="st1" points="1120.4,1936.2 1324.4,1969 1159.9,1982.6 1067.5,1961.4 				"/>
				<path class="st1" d="M1209,1871.8c-3.1-0.1-12.7,4.8-12.7,4.8s-7.8-24.8-45.4-24.4c-37.6,0.4-36.5,36.9-36.5,36.9
					s3.1,43.5,15.1,52.4s55.9,2.3,57.6,0c1.7-2.3,25.5-3.9,37.7-17.1c12.2-13.2,18.8-13.7,18.8-13.7S1232.5,1872.6,1209,1871.8z"/>
				<path class="st1" d="M1151.3,1876.3c0,0-25.6,18.2-8.5,50.8c-3.8,0.4-3.8,0.4-3.8,0.4S1119.5,1894.9,1151.3,1876.3z"/>
				<path class="st6" d="M1183.7,1928.2c0,0-32-6.3-24.3-18.9s25.6-8.9,26.4-13.8s-8.9-13.4-12.2-8.1c-3.3,5.2-8.7,14.2-8.7,14.2
					s-13.6,3.5-10.1,13s19,8.7,3.5,9.5c-15.5,0.8-22.3,0-22.3,0s-4.1,20.3,4.1,21.1c8.3,0.8,34.7,3.9,59.1-5.8
					c24.4-9.7,24.7-13.9,24.7-13.9S1197.5,1932.1,1183.7,1928.2z"/>
				<polygon class="st6" points="1157.9,2001.2 1448.9,1978.7 1467.2,1968.1 1152.9,1993.5 907.2,1957.4 911.9,1962.7 				"/>
				<path class="st1" d="M850.6,1618.2l240.4,0.3l8.9,1.7c10.3,2,18,10.6,18.8,21c5.6,67.7,21.7,303.3,24,347.2
					c0.2,3.6-6.3,8.5-10,8l-250.2-37L850.6,1618.2z"/>
				<path class="st1" d="M856,1613.6l231.6,4.6c8.9,0.2,16.2,7,16.9,15.9c5.9,71.3,29.7,362.7,27.7,362.1
					c-2-0.7-196.2-29-249.6-36.8c-7.9-1.2-14-7.6-14.8-15.5l-29.5-311.2C837.4,1622.3,845.6,1613.4,856,1613.6z"/>
			</g>
			<path class="st1" d="M1867.4,1789.7c6.6,47.2-1.2,95.5-45.9,123.8c-67.5,42.7-183.9,55.1-202.6,33.4
				c-18.6-21.7-14.7-237.5,35.7-294.9c46.6,3.9,63.6,14.7,64.4,29.5c6.2,35.7,3.1,67.2,3.6,83.1c0.5,16-4,58.3,2.6,63.6
				c4.6,3.6,23.4-38.4,27.2-40.3c0,0,22.2-20.7,8.5-62.1L1867.4,1789.7z"/>
		</g>
		<path class="st6" d="M1590.2,1611.4c1.8,3.3-6.7,14.2-21.7,18.9c19.7,31.9,15.7,23.3,21.1,35.5
			C1602,1641.5,1590.2,1611.4,1590.2,1611.4z"/>
	</g>
	<g>
		<path class="st1" d="M2081.9,1863c-10.9-56.6-1.1-111,17.4-164.4c1.1-4.4,5.4-7.6,6.5-13.1c7.6-32.7,19.6-61,32.7-90.4
			c1.1-4.4,1.1-8.7,2.2-13.1c0.8-2.5,3.5-4.3,5.3-6.5c-61.1,10.6-139.5,28.1-176.4,36.5c12.5,19,23,39,29.6,61.4
			c2.2,4.4,7.6,7.6,9.8,12c2.2,3.3,0,6.5,2.2,9.8c6.5,8.7,12,16.3,14.2,27.2c1.1,2.2,4.4,3.3,4.4,5.4c0,53.3,4.4,106.7,0,160
			c-3.8,41-12.7,80.9-21,120.8c47.8-0.1,103-0.9,158.4-1.5c-29.4-32.8-51.3-72-73.1-111.7C2088.4,1884.8,2084.1,1873.9,2081.9,1863z
			"/>
		<path class="st5" d="M2221.9,1567.3c-13.1-1.3-41.8,2.5-76,8.3c-1.7,2.2-4.4,4-5.3,6.5c-1.1,4.4-1.1,8.7-2.2,13.1
			c-13.1,29.4-25,57.7-32.7,90.4c-1.1,5.4-5.4,8.7-6.5,13.1c-18.5,53.3-28.3,107.8-17.4,164.4c2.2,10.9,6.5,21.8,12,32.7
			c21.9,39.6,43.7,78.8,73.1,111.7c131.1-1.5,263-2.2,297.8,7.8c62.1,17.8,73.7,11.6,77.6-17.1
			C2546.3,1969.4,2266.6,1571.7,2221.9,1567.3z"/>
		<path class="st5" d="M2029.6,1728.1c0-2.2-3.3-3.3-4.4-5.4c-2.2-10.9-7.6-18.5-14.2-27.2c-2.2-3.3,0-6.5-2.2-9.8
			c-2.2-4.4-7.6-7.6-9.8-12c-6.5-22.4-17.1-42.4-29.6-61.4c-13,3-20.9,4.8-20.9,4.8s-43.1,28.6-41.3,60.8
			c1.8,32.3,4.3,307-0.1,329.5c25.3,1.3,60.6,1.6,101.3,1.5c8.3-39.9,17.2-79.8,21-120.8C2034,1834.7,2029.6,1781.4,2029.6,1728.1z"
			/>
		<path class="st5" d="M1884.9,1791.2c4.4-17.4,6.5-35.9,22.9-47.9c2.2-2.2,1.1-5.4,3.3-7.6c12.2-9.6,22.4-23.4,35.5-30.2
			c-3.6-33.1-9.9-57.3-16.4-53.5c-17.1,10.1-267,181.6-279.8,208c-12.8,26.4-23.7,69.6,7.4,86c0,0-11.6-75.2,33.4-88.3
			c45-13.2,87.7,25.6,88.5,28.7c0.4,1.6,9.2,14.6,17.8,26.4c13.8-6.9,27.5-13.9,40.7-23.5
			C1868.5,1865.2,1877.2,1829.3,1884.9,1791.2z"/>
		<path class="st5" d="M1911,1735.7c-2.2,2.2-1.1,5.4-3.3,7.6c-16.3,12-18.5,30.5-22.9,47.9c-7.6,38.1-16.3,74-46.8,98
			c-13.2,9.6-26.9,16.7-40.7,23.5c8.4,11.4,16.7,21.7,17.1,19.2c0.8-5.2,82.3-51,115.6-77c20.8-16.2,22.3-94.8,16.4-149.4
			C1933.4,1712.2,1923.2,1726.1,1911,1735.7z"/>
		<path class="st1" d="M1760.5,1863.9c-8.9-9.3-45.4-24.1-83.8-7.4c-15.7,6.8-22.9,19.1-26.1,31.2c-1.8,7.1-2.2,14.1-2.1,20
			c0.2,8.9,1.8,15.1,1.8,15.1s41.1,68.3,104.8,69.1c8.1-7.8,8.1-7.8,8.1-7.8l0.3-10l0.4-13.8l2.5-92.5
			C1766.3,1867.7,1766.3,1867.7,1760.5,1863.9z"/>
		<path class="st6" d="M1667,1956.2c0,0,11.6,0.9,8.7-2.1c-9.3-10.1-26.8-55.2-12.3-70.3c16.7-17.3,69-23.3,90.4-14.9
			c-1.9-8.2-1.9-8.2-1.9-8.2s-43.1-17.5-67.5-7.4c-24.4,10.1-35,5.2-35.9,43.3c-0.9,38.1,5.4,57.2,13.1,60.7
			C1669.3,1960.9,1667,1956.2,1667,1956.2z"/>
		<path class="st1" d="M1661.6,1957.4c0,0-19.6-55.5-1.8-80.6c17.8-25.1,103.3-21,118,12.7c9-2.6,9-2.6,9-2.6s28.9-30.8-20.5-45.9
			s-121.8,5.5-128.6,52.1C1631.1,1939.6,1646.7,1953.4,1661.6,1957.4z"/>
		<path class="st1" d="M1849,1851c0,0-1.7-0.8-4.3-2c-6.6-3-19.1-8.3-25.2-8c-8.5,0.4-16.8,12.4-16.8,12.4s-18.5-5-27.8,0
			c-9.3,5-10.4,20-10.4,20s-9-1-19.1,4.1c-10.1,5-3.5,21-3.5,21s-8.5-7-23.7,3.5c-15.9,9.8-2.2,47.4,7.5,68.1c3.8,8,7,13.5,7.6,13.8
			c18.2,8.1,22.4-6.8,22.4-6.8s4.2,15.3,19.4,15c15.2-0.3,7.8-24.4,7.8-24.4s20.7,18.6,30.4,16.3c9.7-2.3,2.3-23.7,2.3-23.7
			s13.2,15.5,27.2,12s-5.8-52.9-5.8-52.9s13.6,7.5,23.3-6.9C1870.3,1891.4,1849,1851,1849,1851z"/>
		<path class="st1" d="M2113.7,1521.8c-1.7-5.9-3.4-12.6-4-18.3c-1.6-14,46-201.3-94.7-206.4c-50.6-1.9-106.4,1.8-151.9,26.4
			c-43.7,23.6-58.5,80.3-62,126.1c-4.5,58,11.4,115,46.4,161.8c5.2,6.9,11.3,8.7,19.8,8.6c7.6,0,51.9-15,53.1-13.5
			c0,0,50.2,59,78.1,87.4c2.2,2.2,4.3,4.3,6.3,6.1c23.1,21.8,31,18.7,31,18.7s37.3-9.3,45-34.1c7.8-24.8,38.3-147.1,38.3-147.1
			S2116.2,1530.5,2113.7,1521.8z"/>
		<path class="st6" d="M2136.5,1375.2c-12.9-22.8-15.5-54.3-25.9-61.6c-0.4-14.2-7.2-24.9-18.7-33.2c-14.8-10.6-37.5-17.2-64.6-22.2
			c-48.1-8.8-183.7,38.4-218.9,23.2c-26-11.3-24.8,48.2-24.8,48.2s-0.3,4.9,1.5,10.6c0.5,1.5,1.1,3,1.9,4.5
			c3.8,7.4,12,14.6,29.2,14.4c34.7-0.5,83.3-20.2,87.9-9.8c4.7,10.3,0.5,80.9,7.3,92.2c2.5,0.4,4.7,0.7,6.5,1c9,1.4,9,1.4,9,1.4
			s1-48.1,31.1-47.3c10.2,0.3,20.9,3,31,8.4c19.4,10.5,36.3,31.1,42.5,63.8c9.3,49.7,82.8,43.5,82.8,43.5s1.3-4.2,3.3-11.2
			c2.9-10,7.2-25.7,11.2-42.7C2136.6,1425.5,2143.4,1387.3,2136.5,1375.2z"/>
		<polygon class="st6" points="1939.9,1377.3 1789.4,1421.8 1789,1415.3 1948.7,1371.6 		"/>
		<path class="st1" d="M1906.6,1924c-1.5-0.6-3-1.4-4.4-2.3c2.5,27.5,4.6,45.4,4.6,45.4l82.3-4.4c0,0,3.3-24.2,7.8-56.9
			c-4.3,0.9-8.6,2.2-12.9,4.1C1960,1920.7,1932.8,1930.5,1906.6,1924z"/>
		<path class="st5" d="M2011.4,1706.1c-24.1-36.7-70.9-66-68.9-78.1c-61.9-19.9-49.1,196.8-40.3,293.7c1.5,1,3,1.8,4.4,2.3
			c26.1,6.5,53.3-3.3,77.3-14.2c4.3-1.9,8.6-3.2,12.9-4.1c6.3-45.5,14.8-107.6,20.2-143.9C2018.4,1752.7,2017,1714.7,2011.4,1706.1z
			"/>
		<path class="st6" d="M2233.8,1753.9c0,0,20.7,61,67.3,65.7c-7.8,29.5,116,103.2,116,103.2l5.5-13.4l-135-140L2233.8,1753.9z"/>
		<path class="st1" d="M1702.5,2067.1c-4.8,3.2-8.1,5.2-8.3,5.1c-1.2-0.4-12.4,10.9-12.4,10.9s19,1.6,20.6,0
			c0.3-0.3,2.7-1.8,6.4-3.9C1708.1,2074.2,1705.9,2069.2,1702.5,2067.1z"/>
		<path class="st1" d="M1747.7,2036.1c0,0-30.2,21-45.2,31c2.2,1.4,3.9,3.9,5,6.9l53.9-31.8
			C1761.2,2038.1,1757.8,2035.5,1747.7,2036.1z"/>
		<path class="st6" d="M1707.5,2074c0.6,1.6,1,3.4,1.3,5.1c14.9-8.7,50.6-28.7,50.6-28.7c1.3-3,2.2-5.9,2-8.3L1707.5,2074z"/>
		<path class="st1" d="M2043.4,1932.9c-38.8-11.6-96.1,10.9-137.2,28.8s-68.7,31.9-53.9,42c-0.4,0.7-2.8,3.4-2.9,5.3
			c-0.1,2-3.3,3.1-4.9,4.9c-4.8,5.3-4.3,14.8,4.1,15.3c1,0.1,2,0.2,3,0.3c11.3,1.9,17.8,9.9,34.3,2.8c17.1-2.3,17.1-2.3,17.1-2.3
			s-14,10.9,7,10.9c21,0,87.7-25.6,145.1-16.3c57.4,9.3,119.5,17.1,141.2-3.9c54.3,3.1,338.4,23.3,366.3,14.7
			c24.8-52.8-24.1-139.7-73.7-141.2c-25.7,6.9-50.9,12.8-75.5,18C2227.1,1951.1,2077.7,1943.2,2043.4,1932.9z"/>
		<path class="st5" d="M2145.1,1553.2c0,0,25.1-2.3,32.1,9.8c15-24.6,34.9-14,67.8,2.6c52.5,3.6,106.6-2.1,227.6,127.5
			c121.1,129.6,218.9,189.4,216.5,272.4c-2.3,83-110.3,84.1-141.3,71.5c-70.6-115-185.5-148.4-204.9-170.9
			c-19.4-22.5-31-47.3-31-47.3s-70.6-38-74.5-66L2145.1,1553.2z"/>
		<path class="st1" d="M1937.3,1626.2l-18.8,3.3c0,0,48.9,109.7,45.8,127.8c55.9-26.1,55.4-31.6,55.4-31.6l-4.1-21.5
			C2014.1,1681.1,1970.2,1653.2,1937.3,1626.2z"/>
		<path class="st1" d="M2117.1,1519.3c0,0-71.7,194.3-61.3,225.3c34.1-8.3,61.3,2.6,61.3,2.6s-6.5-125.2,31.3-194.5
			C2131.9,1530.4,2117.1,1519.3,2117.1,1519.3z"/>
		<path class="st6" d="M1902.9,2029.9l73.1-28.7c-40.2,5.8-88,30.2-90.2,31C1890.9,2034,1902.9,2029.9,1902.9,2029.9z"/>
		<path class="st6" d="M1858.7,2031.5c0,0,31.5-26.8,102.9-43.1c-9.3-3.1-75.4,16.3-107.1,41.7
			C1857.1,2033,1858.7,2031.5,1858.7,2031.5z"/>
		<path class="st6" d="M1848.5,2011c0,0,62-39.6,100.8-46.6c-20.2-7-99.2,40.3-99.2,40.3L1848.5,2011z"/>
		<path class="st6" d="M2004.1,1553c0,0-57.4,50.9-83.8,53.5c27.4,30,44,44.2,55.9,50.2c0-55.9,51.7-94.7,47.1-133.5
			c-4.7-38.8-3.6-36.2-3.6-36.2S2020.1,1533.6,2004.1,1553z"/>
		<path class="st1" d="M2602.2,2018.3c-14-25.6-62.8-131.1-118.4-124.2c0,0-36.7,5.2-55.9,11.7c-0.6,7.3,5.5,12.4,12.2,14.9
			c58.6,18,113.5,63,120.7,121.8c23.5,3.4,48.7,11.4,49.7-1.3C2610.7,2038,2604.6,2022.7,2602.2,2018.3z"/>
		<path class="st6" d="M2440.1,1920.7c-6.7-2.5-12.8-7.7-12.2-14.9c-5.2,1.8-9.1,3.6-10.7,5.5c84.2,50.2,90.1,86.2,128.6,128.2
			c5.1,1.3,10.1,2.3,15,3C2553.6,1983.7,2498.7,1938.8,2440.1,1920.7z"/>
		<path class="st6" d="M1753.9,1978.7c0,0-23-45.8-20.9-55.9s-1.7-20.2,8.9-24.4c-3.5,7.8-6.2,16.3-5.6,25.6
			c0.6,9.3,19.5,52.9,19.5,52.9L1753.9,1978.7z"/>
		<path class="st6" d="M1763.5,1876.8c0,0-5.2,19.7-1,37.5c4.1,17.8,17.3,52.9,20.8,54.7c3.5,1.8,3.5,1.8,3.5,1.8
			S1758.6,1902.9,1763.5,1876.8z"/>
		<path class="st6" d="M1800.6,1852.9c0,0-9.6,31.2-8.6,42.8c1,11.6,23.5,68,23.5,68l1.6-2c0,0-23.9-60.8-17.8-82.2
			c6.1-21.3,5.2-28.5,5.2-28.5L1800.6,1852.9z"/>
		<path class="st6" d="M1837,1873.4c0,0-5.2,40.6,0,45.8c5.2,5.2,11.5,4.1,11.5,4.1S1838.3,1889.7,1837,1873.4z"/>
		<path class="st1" d="M1840.2,1889.8c0,0-4.3,21.6-3.2,29.4c0.4,3,1.4,6.3,3.1,9.3c4.4,3.6,9.3,5.3,14.3,1c8.8-7,9.8-18.3,9.8-29.3
			c-0.4-1.3-0.8-2.6-1.2-4L1840.2,1889.8z"/>
		<g>
			<polygon class="st1" points="1797.1,1405.9 1797.1,1405.9 1797.1,1405.9 			"/>
			<path class="st6" d="M1825.1,1435c-4-12.1-7.9-19.5-11.8-24c-1.9-2.2-3.9-3.8-5.8-4.7c-1.9-1-3.8-1.3-5.5-1.3
				c-1.9,0-3.5,0.4-4.8,0.8c-2.3,0.7-4.5,2.5-6,5.4c-1.5,2.9-2.4,6.8-2.5,12.1c0,6.9,1.6,16.1,5.7,28.4c3.6,10.7,7.5,17.2,11.4,21.1
				c2,2,4,3.3,5.9,4.1c1.9,0.8,3.8,1.1,5.5,1.1c1.5,0,2.9-0.2,4-0.5c1.1-0.3,2-0.6,2.5-0.8l0,0c1.6-0.5,3.5-1.8,4.8-4.2
				c1.3-2.3,2.2-5.7,2.2-10.3C1830.6,1456,1829.1,1447.3,1825.1,1435z M1824.6,1470.4c-0.8,1.5-1.7,2-2.3,2.2
				c-0.7,0.2-1.4,0.5-2.3,0.7c-0.9,0.2-1.8,0.4-2.9,0.4c-1.2,0-2.4-0.2-3.8-0.8c-2.1-0.9-4.5-2.6-7-6.1c-2.6-3.5-5.3-8.8-7.9-16.5
				c-4-12-5.5-20.7-5.5-27c0-4.8,0.9-8,1.9-10c1.1-2.1,2.4-2.9,3.5-3.3l0,0c1.1-0.4,2.3-0.6,3.6-0.6c1.1,0,2.3,0.2,3.6,0.9
				c2,1,4.3,3,7,7.1c2.6,4.1,5.5,10.2,8.4,19c4,12.1,5.3,20.4,5.3,25.9C1826.2,1466.4,1825.5,1469,1824.6,1470.4z"/>
		</g>
	</g>
	<polygon class="st1" points="2398.8,1478.7 2478.8,1607.5 2533.1,1607.5 2433.8,1447.1 	"/>
	<polygon class="st1" points="2444.2,1425.9 2556,1607.5 2613,1607.5 2494.3,1384.9 	"/>
	<polygon class="st1" points="2433.8,1447.1 2459.9,1451.3 2556,1607.5 2533.1,1607.5 	"/>
	<polygon class="st1" points="2542.5,1420.7 2494.3,1384.9 2613,1607.5 2625.8,1607.5 2625.8,1575.7 	"/>
	<path class="st1" d="M2429.7,1490c0,0,10.9-9,21.9,6.2c11.1,15.2-11.4,26.6-18.8,16.9C2425.4,1503.4,2423.4,1492.6,2429.7,1490z"/>
	<path class="st6" d="M2432.9,1493.6c0,0,7.6-6.3,15.4,4.3s-8,18.6-13.2,11.9S2428.5,1495.4,2432.9,1493.6z"/>
	<polygon class="st2" points="2440.3,1528 2462,1516.7 2523.5,1607.5 2490.9,1607.5 	"/>
	<ellipse class="st2" cx="2493" cy="1449.1" rx="17.8" ry="21.7"/>
	<polygon class="st1" points="2494.3,1483.9 2523.5,1462.1 2528.4,1468.1 2498.2,1487.3 	"/>
	<polygon class="st1" points="2501.5,1500.9 2530.8,1479.1 2535.7,1485.1 2505.4,1504.3 	"/>
	<polygon class="st6" points="2508.8,1517.9 2538,1496.1 2542.9,1502.1 2512.7,1521.3 	"/>
	<g>
		<path class="st2" d="M393.8,1895.8c-0.6-4.4-1-8.7-1.3-12.9c5.3-7.6,15.1-17.9,29.8-22.7c13-3.4,8.7-9.4,3.3-8.1
			c-3.8,0.9-22.7,8.5-33,12.6c3.9-47.6,35.2-81.7,98.7-69.2c0,0,94.7-65.2,121,37.3c-15-4.9-43.6-12.8-46-2.8
			c-3.2,12.7,25.4-3.9,48.6,14.5c1.4,7.7,2.5,16.1,3.2,25.4c0.2,10.2-2.4,21-6.9,31.8c-11-13.4-39.3-45.9-48.8-35.9
			c-10.9,11.6,28.3,4.1,43.3,47.6c-5.8,11.1-13,22-20.6,31.9c-7.8-13.4-24-38.2-34.1-32c-4.1,3.5,3.7,8.8,11.8,17.4
			c5.1,5.5,11.3,16.4,15.2,23.7c-18.3,22.5-36,38.5-36,38.5s-22.9-5.7-50.6-16.7c-1.2-9.6-3.1-28.2,0.3-32.6c4.6-6.1-2-11.9-10-5.3
			c-6.2,5.1-7.6,20.5-5.7,31.5c-11.4-5.1-23.1-10.9-33.9-17.5c2.1-14,7.8-45.2,17-51c5.9-5.2,1.3-12.6-12.8-1.9
			c-10.8,8.2-14.2,33.9-15.3,45.7C411.5,1931.4,396.5,1914.9,393.8,1895.8z"/>
		<path class="st3" d="M535.7,1973.8c0,0-40-122.7-44.2-178.3L535.7,1973.8z"/>
		<path class="st3" d="M481.5,1928.4c0,0,8.7-22.7,28.3-42.5L481.5,1928.4z"/>
		<path class="st3" d="M555.8,1892.3c0,0-33.5-26.3-50.7-24.6L555.8,1892.3z"/>
		<path class="st3" d="M438.4,1881c0,0,38.9-32.1,60.6-39.7L438.4,1881z"/>
		<path class="st3" d="M546,1814.1c0,0-29.7-13.2-52.7-3.3L546,1814.1z"/>
	</g>
	<path class="st7" d="M1737.2,2364.3c-40.2-32.7-102.9-72.7-194.2-103.6c-185.3-62.8-99.6-105.4-170.9-126.8
		c-71.3-21.3-242.2-12.7-441.7-38.7c-199.5-26-361.9-18.7-312.9-91.1c34-50.3,81.6-85.9,107.6-103.1l-61.8,4.7
		c-61,45.8-175.9,152.1,37.6,173.4c273.8,27.4,664.7,57.3,671.2,117.2c5.2,47.7,247.7,112.6,343.4,173
		C1722.4,2367.7,1729.6,2366.1,1737.2,2364.3z"/>
	<ellipse class="st6" cx="1834.3" cy="834.4" rx="56.9" ry="56.9"/>
	<ellipse class="st1" cx="576" cy="2278.6" rx="90.1" ry="59.8"/>
	<ellipse class="st6" cx="507.9" cy="2162.5" rx="50.9" ry="33.8"/>
	<ellipse class="st1" cx="2636.9" cy="2224.1" rx="52.2" ry="52.2"/>
	<path class="st1" d="M1132.4,2426.7c0,0,116.4,13.8,236.8-49.4c23.9-16,35.2,18.6,19.9,29.9c-15.3,11.3-95.1,56.5-224.7,49.2
		C1093.2,2453.8,1106.4,2425.4,1132.4,2426.7z"/>
</g>
</svg>
