<?xml version="1.0" encoding="utf-8"?>
<!-- Generator: Adobe Illustrator 22.0.0, SVG Export Plug-In . SVG Version: 6.00 Build 0)  -->
<svg version="1.1" id="Layer_1" xmlns="http://www.w3.org/2000/svg" xmlns:xlink="http://www.w3.org/1999/xlink" x="0px" y="0px"
	 viewBox="0 0 4000 4000" style="enable-background:new 0 0 4000 4000;" xml:space="preserve">
<style type="text/css">
	.st0{fill:#DB6767;}
	.st1{fill:url(#SVGID_1_);}
	.st2{fill:url(#SVGID_2_);}
	.st3{fill:#FFFFFF;}
	.st4{fill:url(#SVGID_3_);}
	.st5{fill:#102140;}
	.st6{fill:#D9D9D9;}
	.st7{fill:none;stroke:#D18B0D;stroke-width:2;stroke-linecap:round;stroke-linejoin:round;stroke-miterlimit:10;}
	.st8{fill:#FFDE70;}
	.st9{fill:#572658;}
	.st10{fill:#1B51C6;}
	.st11{fill:url(#SVGID_4_);}
	.st12{fill:url(#SVGID_5_);}
	.st13{fill:url(#SVGID_6_);}
	.st14{clip-path:url(#SVGID_8_);fill:#FFFFFF;}
	.st15{fill:#EB485C;}
	.st16{fill:#EF5164;}
	.st17{fill:#FC9590;}
	.st18{fill:url(#SVGID_9_);}
	.st19{fill:url(#SVGID_10_);}
	.st20{fill:url(#SVGID_11_);}
	.st21{fill:#D1334A;}
</style>
<path class="st0" d="M1950.1,1954.7c0,0,32.7,82.2,99.8,90.6c-1.5-37.4-1.5-37.4-1.5-37.4S1969,1985.5,1950.1,1954.7z"/>
<g>
	<linearGradient id="SVGID_1_" gradientUnits="userSpaceOnUse" x1="232.5438" y1="2000" x2="3718.114" y2="2000">
		<stop  offset="0" style="stop-color:#68B2FC"/>
		<stop  offset="1" style="stop-color:#529BF7"/>
	</linearGradient>
	<path class="st1" d="M243.9,1762.5C307.9,2837,506.2,3122.8,684.9,3171.8c81.8,22.4,248.7,19.7,371.8,147
		c83.1,86,110.5,194.4,121,268c101.9,35,253.8,83.6,440.9,129.7c416.1,102.5,767.8,189.2,1158.6,121
		c216.8-37.8,581.3-101.3,786.8-380.4c253.1-343.6,187.9-909-147-1409.3c324.9-747.2-14.5-1567.4-631.2-1824.3
		C2311.9,26.1,1713,177.6,1316,612.6c-42-3.4-551.1-35.3-873.2,371.8C179.9,1316.6,233.8,1698.3,243.9,1762.5z"/>
	<linearGradient id="SVGID_2_" gradientUnits="userSpaceOnUse" x1="578.5048" y1="1926.2408" x2="3495.6199" y2="1926.2408">
		<stop  offset="0" style="stop-color:#4085F0"/>
		<stop  offset="1" style="stop-color:#275DC9"/>
	</linearGradient>
	<path class="st2" d="M728.8,919.7c21.1,113,78.1,215.3,126.8,319.5c48.7,104.1,90.4,217.2,77.5,331.4
		c-19.6,174.2-158.1,307.2-245.2,459.3c-102.9,179.5-135.2,398.3-88.5,599.9c46.6,201.6,171.7,383.9,343,500
		c102.8,69.7,236.5,139.6,240.6,263.7c3.6,109-98.3,188.2-189.4,248c60.6,71.8,174.2,65,261.7,30.9c87.5-34.1,169.4-89.5,263-96.6
		c122-9.3,232.7,64.8,349.2,102.3c181.5,58.4,378.1,27.5,566.2-4c237.7-39.8,475.4-79.6,713.1-119.4c101.7-17,211.7-38.6,279.7-116
		c81.1-92.5,73.9-230.3,62-352.8c-41.2-424.8-82.5-849.6-123.7-1274.3c-30.5-314.4-61.1-628.8-91.6-943.2
		c-13.3-137.3-34.2-289.4-140.3-377.5c-64.9-53.9-150.7-73.5-233.1-91.6c-305.1-66.8-610.2-133.5-915.2-200.3
		c-138.8-30.4-279.3-60.9-421.4-57.1c-211,5.8-416.8,93.8-572.1,235.7C845.8,510.1,690.3,713.5,728.8,919.7z"/>
	<g>
		<path class="st3" d="M3237.3,2910.6c-468.6-262.6-1769.1-269.7-2329.4,0c-248-593.6-384.2-1207.1-318.1-1857
			c713.3-492.8,2369-479.8,2965.6,0C3628.2,1776,3529.4,2362.7,3237.3,2910.6z"/>
		<linearGradient id="SVGID_3_" gradientUnits="userSpaceOnUse" x1="1066.6443" y1="1030.5796" x2="1618.6449" y2="1030.5796">
			<stop  offset="0" style="stop-color:#4085F0"/>
			<stop  offset="1" style="stop-color:#275DC9"/>
		</linearGradient>
		<path class="st4" d="M1612.2,945.5c-217.5,30.1-401.5,77.4-545.5,124l5.6,46.1c329.5-112.8,546.4-126.9,546.4-126.9
			S1618.6,988.7,1612.2,945.5z"/>
		<path class="st5" d="M710.8,1215.7c0,0,7.2,25.2,14.4,41.1c63.2-29.8,124.3-56.3,182.9-80l-6.7-48
			C777.8,1177.8,710.8,1215.7,710.8,1215.7z"/>
		<path class="st6" d="M1612.2,1157.1c-217.5,30.1-401.5,77.4-545.5,124l5.6,46.1c329.5-112.8,546.4-126.9,546.4-126.9
			S1618.6,1200.3,1612.2,1157.1z"/>
		<path class="st5" d="M710.8,1427.3c0,0,7.2,25.2,14.4,41.1c63.2-29.8,124.3-56.3,182.9-80l-6.7-48
			C777.8,1389.3,710.8,1427.3,710.8,1427.3z"/>
		<path class="st6" d="M1612.2,1368.6c-217.5,30.1-401.5,77.4-545.5,124l5.6,46.1c329.5-112.8,546.4-126.9,546.4-126.9
			S1618.6,1411.9,1612.2,1368.6z"/>
		<path class="st5" d="M710.8,1638.8c0,0,7.2,25.2,14.4,41.1c63.2-29.8,124.3-56.3,182.9-80l-6.7-48
			C777.8,1600.9,710.8,1638.8,710.8,1638.8z"/>
		<path class="st7" d="M631.1,2003.6c676.3-354.2,2224.9-509,2915.6-42.8"/>
		<g>
			<path class="st8" d="M2317.9,1130.7c0,126-102.2,228.2-228.2,228.2c-94.3,0-175.2-57.2-210-138.8l67.6-29.5
				c23.4,55.6,78.4,94.6,142.4,94.6c85.3,0,154.5-69.2,154.5-154.5c0-85.3-69.2-154.5-154.5-154.5c-1.1,0-2.1,0.1-3.2,0.1l-2.1-73.6
				c1.8,0,3.5-0.1,5.3-0.1C2215.8,902.4,2317.9,1004.6,2317.9,1130.7z"/>
			<path class="st9" d="M1935.2,1130.7c0,21.2,4.3,41.5,12,59.9l-67.6,29.5c-11.7-27.4-18.2-57.7-18.2-89.4
				c0-124.3,99.3-225.2,222.9-228.1l2.1,73.6C2002.7,978,1935.2,1046.4,1935.2,1130.7z"/>
		</g>
		<g>
			<path class="st10" d="M2496.6,1250.4l-66.7,29.1c18.7,43.9,50.9,80.6,91.4,104.9l38.4-61.9
				C2531.6,1306,2509.3,1280.7,2496.6,1250.4z"/>
			<path class="st8" d="M2637.2,966c-1.7,0-3.5,0.1-5.2,0.1l2.1,72.7c1.1,0,2.1-0.1,3.2-0.1c84.2,0,152.5,68.3,152.5,152.5
				c0,84.2-68.3,152.5-152.5,152.5c-28.3,0-54.8-7.7-77.6-21.2l-38.4,61.9c33.9,20.4,73.5,32.1,115.9,32.1
				c124.5,0,225.3-100.9,225.3-225.3S2761.7,966,2637.2,966z"/>
			<path class="st9" d="M2484.7,1191.3c0,21,4.2,40.9,11.9,59.1l-66.7,29.1c-11.5-27.1-17.9-56.9-17.9-88.2
				c0-122.7,98.1-222.4,220-225.2l2.1,72.7C2551.3,1040.5,2484.7,1108.1,2484.7,1191.3z"/>
		</g>
		<g>
			<path class="st8" d="M3407.7,1335.2c0,124.4-100.9,225.3-225.3,225.3c-93.1,0-173-56.5-207.3-137.1l66.7-29.1
				c23.1,54.9,77.4,93.4,140.6,93.4c84.2,0,152.5-68.3,152.5-152.5c0-84.2-68.3-152.5-152.5-152.5c-1.1,0-2.1,0.1-3.2,0.1l-2.1-72.7
				c1.7,0,3.5-0.1,5.2-0.1C3306.9,1109.9,3407.7,1210.8,3407.7,1335.2z"/>
			<path class="st10" d="M3029.9,1335.2c0,21,4.2,40.9,11.9,59.1l-66.7,29.1c-11.5-27.1-17.9-56.9-17.9-88.2
				c0-122.7,98.1-222.4,220-225.2l2.1,72.7C3096.5,1184.4,3029.9,1252,3029.9,1335.2z"/>
		</g>
		<linearGradient id="SVGID_4_" gradientUnits="userSpaceOnUse" x1="2317.9341" y1="1808.4257" x2="3161.9458" y2="1808.4257">
			<stop  offset="0" style="stop-color:#4085F0"/>
			<stop  offset="1" style="stop-color:#275DC9"/>
		</linearGradient>
		<path class="st11" d="M2317.9,1731.1c0,0,539.2,9.8,844,120c-8.6,34.6-8.6,34.6-8.6,34.6c-271.5-78-550.9-109.2-835.4-110.2
			L2317.9,1731.1z"/>
		<path class="st6" d="M2294.3,1866.7c0,0,539.2,9.8,844,120c-8.6,34.6-8.6,34.6-8.6,34.6c-271.5-78-550.9-109.2-835.4-110.2
			L2294.3,1866.7z"/>
		<linearGradient id="SVGID_5_" gradientUnits="userSpaceOnUse" x1="2270.7217" y1="2079.5571" x2="3114.7334" y2="2079.5571">
			<stop  offset="0" style="stop-color:#4085F0"/>
			<stop  offset="1" style="stop-color:#275DC9"/>
		</linearGradient>
		<path class="st12" d="M2270.7,2002.2c0,0,539.2,9.8,844,120c-8.6,34.6-8.6,34.6-8.6,34.6c-271.5-78-550.9-109.2-835.4-110.2
			L2270.7,2002.2z"/>
		<path class="st6" d="M2247.1,2137.8c0,0,539.2,9.8,844,120c-8.6,34.6-8.6,34.6-8.6,34.6c-271.5-78-550.9-109.2-835.4-110.2
			L2247.1,2137.8z"/>
		<linearGradient id="SVGID_6_" gradientUnits="userSpaceOnUse" x1="2223.5095" y1="2350.6887" x2="3067.5212" y2="2350.6887">
			<stop  offset="0" style="stop-color:#4085F0"/>
			<stop  offset="1" style="stop-color:#275DC9"/>
		</linearGradient>
		<path class="st13" d="M2223.5,2273.4c0,0,539.2,9.8,844,120c-8.6,34.6-8.6,34.6-8.6,34.6c-271.5-78-550.9-109.2-835.4-110.2
			V2273.4z"/>
		<path class="st6" d="M2199.9,2408.9c0,0,539.2,9.8,844,120c-8.6,34.6-8.6,34.6-8.6,34.6c-271.5-78-550.9-109.2-835.4-110.2V2408.9
			z"/>
		<path class="st8" d="M2176.3,2544.5c0,0,539.2,9.8,844,120c-8.6,34.6-8.6,34.6-8.6,34.6c-271.5-78-550.9-109.2-835.4-110.2V2544.5
			z"/>
		<g>
			<defs>
				<path id="SVGID_7_" d="M738.9,2021.3c0,0,665.6-264.8,1162.9-276.1c42.3,719.8,42.3,903.5,42.3,903.5s-520-15.1-948,155.6
					C866.4,2445.5,793,2271.4,738.9,2021.3z"/>
			</defs>
			<use xlink:href="#SVGID_7_"  style="overflow:visible;fill:#102140;"/>
			<clipPath id="SVGID_8_">
				<use xlink:href="#SVGID_7_"  style="overflow:visible;"/>
			</clipPath>
			<path class="st14" d="M1161.5,2751.6c8.5-26.8,14.1-57.3,0.9-82.1c-9.9-18.5-28.6-30.4-47-40.3c-18.5-9.9-38-19-52.2-34.4
				c-14.2-15.4-21.6-39.4-11.3-57.7c8.8-15.5,28.7-24.5,32.1-42c1.8-9.1-1.2-19.4,4-27.1c3.3-4.9,9.2-7.3,13.8-11.1
				c18.9-16.1,7.6-50.2,23.8-69.1c2.6-3,6-5.7,7.2-9.5c0.9-2.8,0.5-5.9-0.4-8.7c-4.5-14.2-20.5-21.3-35.3-23.2
				c-14.8-1.9-30.1-0.3-44.2-5.1c-26.6-9-41.8-37.8-67.1-50.1c1.4-12.5,23.4-16.7,21.3-29.1c-1.2-7.3-10.1-10-17.3-12
				c-54.2-15-88.7-71.4-142.3-88.6c7.7-24.2,24.9-45.2,47.1-57.4c8.1-4.5,17.1-8,23.1-15.1c12.8-14.9,6.6-37.4,7.3-57
				c0.1-3.3,0.5-6.8,2.6-9.4c2.4-3.1,6.5-4.2,10.3-5c15.8-3.4,32.2-4.2,48.3-2.5c15.7,1.7,31.6,5.8,47.2,3.4
				c9.4-1.5,18.3-5.3,27.3-8.6c31.1-11.3,64.5-16.2,97.5-14.3c1.4,15.6-6.8,30.9-18.1,41.7c-11.3,10.8-25.6,18-39.6,25
				c11.9,5.6,2.7,23.9,5.5,36.8c3.6,16.2,25,19.3,41.6,18.8c18.5-0.5,37-1,55.6-1.5c5.6,27.7,0.2,57.6-14.9,81.5
				c-4.2,6.6-9.2,13.3-9.8,21.1c-0.8,10,5.8,18.9,10.6,27.7c9.4,17.1,12.8,36.8,14.7,56.1c2.9,29.3,2.3,60.3-11.5,86.3
				c-14.8,27.8-44.6,51.4-41.5,82.7c2.8,28.1,38.5,47,63.3,33.5c4.8-2.6,9.9-6.3,15.3-5c4.9,1.2,7.7,6,11.1,9.7
				c10.2,11.3,27.1,13.4,42.3,12.4s30.5-4.4,45.4-1.3c14.9,3.1,29.5,15.5,28.2,30.7c-1.3,15.9-18.6,26.7-20.5,42.5
				c-1.8,15.1,11.2,27.9,24.8,34.7c13.6,6.8,29,10.3,40.6,20.1c13.5,11.4,19.5,29.4,22.6,46.8c0.8,4.7,1.5,9.8-0.7,14
				c-3.3,6.5-11.5,8.5-18.6,10c-37.5,7.5-74.1,19-109.1,34.4c-4.8,2.1-10,4.6-12.2,9.4c-2.1,4.4-1.1,9.5-1.8,14.2
				c-2.1,16.1-20.1,24.6-35.8,28.7c-22.8,6-46.3,9.3-69.8,9.8c-15.5,0.3-27,20-30.7-1C1141.6,2796.2,1155.9,2769.5,1161.5,2751.6z"
				/>
			<path class="st14" d="M1292.9,2047.6c-2.1-7.6-3.2-16.3,1.1-22.9c3.3-4.9,8.9-7.5,14-10.5c19-10.9,32.8-28.8,46.1-46.1
				c5.5-7.2,11.1-14.7,12.5-23.6c1.3-8.9-3.4-19.4-12.2-21.2c29-16.3,62.7-24,95.8-21.9c3.5,0.2,7.3,0.7,9.6,3.3
				c3.5,3.8,1.9,9.8,2.3,15c0.7,9.3,9.9,17.1,19.3,16.3c13.8-1.2,21.5-17.2,34.3-22.5c5.6-2.3,11.8-2.5,17.6-4.4
				c14.7-4.8,25.9-20.6,41.3-19.5c8.7,0.6,15.9,6.7,22.5,12.4c19.2,16.6,43.4,33.9,67.8,26.7c14.7-4.3,25.3-16.6,37.5-25.8
				c25.6-19.3,61-24.9,91.3-14.5c2.2,12.1,4.3,24.1,6.5,36.2c0.4,2.2,0.9,4.6,2.7,6c1.6,1.2,3.8,1.2,5.8,1.1
				c7.3-0.3,14.6-0.5,21.9-0.8c7.9,25.2,11,51.9,8.9,78.3c-0.7,8.5-1.9,17.3,0.3,25.6c3.4,12.7,14.6,23.9,12.5,36.9
				c-2.4,15.1-21.9,24.5-20.8,39.7c1.1,15,21.1,21.5,26,35.7c1.7,5.1,1.3,10.6,0.9,16c-1.3,17.1-2.7,34.1-4,51.2
				c-0.4,5.1-0.9,10.4-3.2,14.9c-7.5,14.5-29.3,13.5-43.5,5.3c-2-1.1-3.9-2.5-5.1-4.4c-1.6-2.8-1.3-6.2-1.3-9.4
				c0.2-19.9-14.1-39.2-33.3-44.6c2,9.7,3.9,19.6,2.1,29.3s-8.4,19.2-18,21.4c-11,2.6-21.7-4.7-30.7-11.6c-5.1-3.9-10.4-8.1-12.6-14
				c-1.5-4-1.6-8.6-4.1-12c-5.2-7.2-17.7-3.8-22.1,4c-4.3,7.8-3,17.3-1.6,26.1c1.4,9,2.9,18,4.3,26.9c0.8,5.1,1.5,10.7-1.2,15
				c-2.1,3.2-5.8,5.1-9.4,6.3c-12.4,4-26.8,1.3-36.8-7.1c-10-8.4-15.2-22.2-12.8-35.1c-19.8-3.9-41.4,2.7-55.7,16.9
				c-14.3,14.3-21,35.8-17.1,55.7c-8,0.9-16,1.9-24,2.8c1.4,9.3-10.4,14.9-19.7,14.7s-19.9-2.5-27.3,3.2c-3.8,3-6.3,7.8-10.7,9.6
				c-7.2,2.9-15.1-3.9-17.1-11.4s-0.3-15.4-0.5-23.2c-0.1-4.7-0.9-9.6,1.2-13.8c2.3-4.9,7.7-7.4,12.4-10.1
				c15.8-9.2,27.5-24,38.7-38.4c4.3-5.5,8.9-12.4,6.6-19c-2.4-7-11-9.4-18.4-10.5c-19.4-2.9-39-4.4-58.6-4.3
				c30.4-18.1,48.5-55,44.1-90.2c-0.9-7.3-3.1-15.1-9.2-19.3c-4.2-2.9-9.5-3.5-14.6-3.8c-16.1-0.7-32.3,1.7-47.5,7
				c-13,4.6-25.2,11.2-38.4,14.9C1327,2117.5,1302.9,2084.4,1292.9,2047.6z"/>
			<path class="st14" d="M1521.1,2382.6c-5.2-1.3-11-3.5-15.4-0.5c-3.6,2.5-4.4,7.3-5.8,11.5c-4.7,13.3-18.7,22.2-21.5,36.1
				c-1.6,8,0.8,16.3-0.4,24.3c-2.8,19.5-24.1,29.8-42.6,36.8c8.7,18.4,32.9,21.4,51.5,29.5c18.1,7.8,32.5,22,46.5,35.8
				c2.7,2.7,5.5,5.5,7.2,8.9c1.7,3.7,2,7.9,3,11.8c5.5,22.3,32.1,33.5,54.9,30.8c3.8-0.5,7.6-1.2,10.8-3.3
				c5.6-3.6,8.1-10.4,12.7-15.3c8.8-9.2,23-9.8,35.8-9.7c17.1,0.1,34.2,0.3,51.3,0.4c8.6,0.1,17.6,0.2,25.5,3.6
				c8,3.4,14.8,10.8,14.8,19.5c14.8-4.4,29.3-9.9,43.4-16.3c4.4-2,8.9-4.2,12.2-7.9c2.7-3,4.3-6.7,5.7-10.5
				c7-18.3,10.3-38.1,9.8-57.7c-0.2-7.7-0.9-15.9,3.1-22.4c4.4-7.3,13.2-10.3,20-15.5c16.8-12.9,18.9-37,18.9-58.2
				c0-26.8-1.1-53.7-3.2-80.4c-0.3-3.2-0.6-6.5-2.5-9.1c-2.9-3.9-8.4-4.7-13.3-4.9c-32.3-1.4-63.9,8.1-95.6,14.5
				c-42.9,8.8-85.6,5.9-128.5,11.7C1584.7,2350.6,1557.8,2391.5,1521.1,2382.6z"/>
		</g>
	</g>
	<g>
		<path class="st5" d="M1840.2,3543.6l-51.7,104.6c0,0,129.9,102.9,400.8,75.6s424.5-79.8,424.5-79.8l-39.8-140.2l-221.9-112.9
			L1840.2,3543.6z"/>
		<path class="st15" d="M2477.8,3176.5c-3,0-6,9-11.9,11.9c-95.6,44.8-197.1,53.7-301.6,23.9c-3-3-6-9-9-11.9
			c-110.5-29.9-194.1-116.5-262.8-209c-6-9-6-20.9-11.9-26.9c-50.8-68.7-74.6-143.3-128.4-209c-3-6-11.9-9-14.9-14.9s0-11.9,0-17.9
			c-14.9-41.8-47.8-77.6-62.7-119.4c-3-6-6-14.9-11.9-23.9c-3-9,3-17.9,0-26.9c-6-9-17.9-20.9-20.9-29.9
			c-20.9-62.7-56.7-113.5-68.7-173.2c-23.9-146.3-9-292.6,38.8-427c6-11.9,6-26.9,6-38.8c0-9,14.9-17.9,14.9-23.9
			c4.6-53.3,23.7-101.2,50.1-145.1c-2.1-0.4-4.3-0.7-6.6-1c-154.2,175.8-180.1,482.7-180.1,559.1c0,76.4,197.4,515.9,240.6,579.3
			c43.2,63.4,103.8,266.6,106.6,428c2.9,161.4-64.8,318.8-64.8,318.8c147,94,361.7,40,361.7,40l53.3-167.2c0,0,0,0,77.8,148.4
			c37.6,17,192.4,53.3,337.2-72c-7.6-46.4-38.5-325.5-53.6-462.8c-7.3,17.3-11.6,35.3-23.5,49.6
			C2519.6,3155.6,2504.6,3167.5,2477.8,3176.5z"/>
		<path class="st16" d="M2834.8,3095.4c-47.6-204.6-273.8-531-329.3-590.1c-55.5-59.1-191.7-169.3-215.4-174.4
			c-23.8-5-230.4,1.4-230.4,1.4s-142.1,51.2-207.6,72c-64.8-19.5-135.5-64.1-172.9-209.7c-37.5-145.5,87.9-442.4,87.9-442.4
			s-20.2-27-84.2-37.9c-26.4,43.9-45.5,91.8-50.1,145.1c0,6-14.9,14.9-14.9,23.9c0,11.9,0,26.9-6,38.8
			c-47.8,134.4-62.7,280.7-38.8,427c11.9,59.7,47.8,110.5,68.7,173.2c3,9,14.9,20.9,20.9,29.9c3,9-3,17.9,0,26.9
			c6,9,9,17.9,11.9,23.9c14.9,41.8,47.8,77.6,62.7,119.4c0,6-3,11.9,0,17.9s11.9,9,14.9,14.9c53.7,65.7,77.6,140.3,128.4,209
			c6,6,6,17.9,11.9,26.9c68.7,92.6,152.3,179.2,262.8,209c3,3,6,9,9,11.9c104.5,29.9,206,20.9,301.6-23.9c6-3,9-11.9,11.9-11.9
			c26.9-9,41.8-20.9,53.7-41.8c11.9-14.2,16.2-32.3,23.5-49.6c-1.3-11.8-2.5-22.6-3.5-32.1c-3-27.5-4.8-44.1-4.8-44.1
			s7,8.3,17.7,22.5c0-0.4,0-0.9,0-1.3c0,0.4,0,0.9,0,1.3c22.8,30.1,62.5,86.8,88.9,147.5c38.9,89.3,36,276.7,36,276.7l145.5,36
			C2834.8,3491.7,2882.4,3300,2834.8,3095.4z"/>
		<path class="st17" d="M2263.3,2301.3c-14.1-42.1-4.9-164.3-4.9-164.3s-79,12.6-156.1,8.2c-6.5,52.1-2.7,115.5-22.5,162.2
			C2111.3,2308.8,2191.1,2311,2263.3,2301.3z"/>
		<path class="st0" d="M2075.8,2142.9c7,63.2-9.7,163.7-9.7,163.7s5,0.3,13.8,0.7c19.8-46.7,16-110.1,22.5-162.2
			C2093.4,2144.7,2084.5,2144,2075.8,2142.9z"/>
		<path class="st3" d="M2040.1,2357.5c0,0-33.4,1.1-29.9-24.9c3.5-25.9,24-44.8,29.9-45.4c5.9-0.5,69.7,13.5,124.3,10.3
			c54.6-3.2,106.5-13,122.7-15.1c16.2-2.2,27.6,49.7,13.5,60.5S2069.1,2371.7,2040.1,2357.5z"/>
		<path class="st0" d="M1876.6,1425c-5.4,5.2-11.3,10.7-17.6,16.5c-69.5,63.7-150.8,220.5-150.8,220.5s9.8,7.1,22.3,15.8
			c44.9-81.9,94.3-159.7,141.1-245.1C1873.2,1430.1,1874.9,1427.5,1876.6,1425z"/>
		<path class="st17" d="M1922.4,1378.9c6.4-4.1,13.1-7.5,20.1-10.3C1939.9,1362.6,1934.6,1366.6,1922.4,1378.9z"/>
		<path class="st17" d="M1876.6,1425c-1.7,2.5-3.4,5-5,7.6c-46.8,85.4-96.2,163.2-141.1,245.1c20.8,14.4,48.9,33,51.3,29.8
			c3.9-5.1,54.1-63.4,83-77.8c29-14.4,48.3-54.1,53.4-84.2c5.2-30.1-9.7-41.8-39.3-27.4c9.7-21.2,68.2-117.8,65-143.1
			c-0.4-2.8-0.8-5-1.5-6.5c-7,2.7-13.7,6.2-20.1,10.3C1912.4,1388.9,1897.9,1404.6,1876.6,1425z"/>
		<path class="st3" d="M1637.4,1702c0,0,36.7-51.2,72-52.6c35.3-1.4,92.9,34.6,82.1,85.7c-10.8,51.2-25.2,78.5-32.4,74.9
			c-7.2-3.6-42.5-51.2-69.2-54.8c-26.7-3.6-59.8-7.2-64.8-15.1C1620.1,1732.3,1637.4,1702,1637.4,1702z"/>
		<path class="st17" d="M2331.9,2003.6c0,0,28.1-24.2,29.5,9.7c1.4,33.9-24.5,73.5-43.2,74.9
			C2299.5,2089.6,2331.9,2003.6,2331.9,2003.6z"/>
		<path class="st17" d="M2015.9,2003.6c0,0-27.4-24.2-28.8,9.7c-1.4,33.9,23.9,73.5,42.1,74.9S2015.9,2003.6,2015.9,2003.6z"/>
		<path class="st5" d="M2028.2,2071.6c0,0,8.6,139.4,104.8,141.6c96.2,2.2,175.1-18.4,187-98.3c11.9-80,51.9-203.2,13-247.5
			c-38.9-44.3-218.3-128.6-266.9-21.6c-6.4,10-10.8,17.3-10.8,17.3s-35.1-21.9-57,10C1976.4,1904.9,1968.8,2032.7,2028.2,2071.6z"/>
		<path class="st0" d="M2798.8,3556.5l-30-11c0.9,43.2-3.7,82.5-49.2,102.7c-29.5,13.6-62.4,4.8-92.2-12c-0.1,1.8-0.1,3.5,0.1,5.3
			c2.6,35.3,89.8,99.5,126.7,50.4C2799.6,3631.5,2798.8,3556.5,2798.8,3556.5z"/>
		<path class="st17" d="M2719.6,3648.3c45.5-20.2,50.1-59.5,49.2-102.7l-70.5-25.8c0,0-17.3,45.4-20.5,45.4
			c-3.2,0-13.5,3.2-13.5,3.2s-35.6,34.2-36.9,67.9C2657.2,3653.1,2690.1,3661.9,2719.6,3648.3z"/>
		<path class="st3" d="M2706.6,3444.1c0,0-41.8-30.3-40.3,0c1.4,30.3-10.1,72,10.1,92.2c20.2,20.2,123.9,51.9,148.4,36
			c24.5-15.9,58.1-85,31.2-95.1C2829.1,3467.2,2706.6,3444.1,2706.6,3444.1z"/>
	</g>
	<linearGradient id="SVGID_9_" gradientUnits="userSpaceOnUse" x1="76.2915" y1="2060.8997" x2="537.5779" y2="2060.8997">
		<stop  offset="0" style="stop-color:#68B2FC"/>
		<stop  offset="1" style="stop-color:#529BF7"/>
	</linearGradient>
	<ellipse class="st18" cx="306.9" cy="2060.9" rx="230.6" ry="228.8"/>
	<linearGradient id="SVGID_10_" gradientUnits="userSpaceOnUse" x1="3549.6924" y1="2674.7739" x2="3923.7085" y2="2674.7739">
		<stop  offset="0" style="stop-color:#68B2FC"/>
		<stop  offset="1" style="stop-color:#529BF7"/>
	</linearGradient>
	<ellipse class="st19" cx="3736.7" cy="2674.8" rx="187" ry="185.5"/>
	<linearGradient id="SVGID_11_" gradientUnits="userSpaceOnUse" x1="3149.5522" y1="576.0025" x2="3334.1934" y2="576.0025">
		<stop  offset="0" style="stop-color:#4085F0"/>
		<stop  offset="1" style="stop-color:#275DC9"/>
	</linearGradient>
	<ellipse class="st20" cx="3241.9" cy="576" rx="92.3" ry="92.3"/>
</g>
<path class="st21" d="M1923.7,1784.8l28.3,210.3c0,0,110.7,151.2,122.5,220.1C2095.4,2087,1923.7,1784.8,1923.7,1784.8z"/>
<path class="st21" d="M1867.8,1676.5c0,0,261.1,342.8,264.4,647.1C2060.4,2084.8,1900.2,1769.5,1867.8,1676.5z"/>
</svg>
