<svg id="Layer_1" data-name="Layer 1" xmlns="http://www.w3.org/2000/svg" xmlns:xlink="http://www.w3.org/1999/xlink" viewBox="0 0 6000 4000"><defs><style>.Graphic-Style-226{fill:#b080b0;}.Graphic-Style-207{fill:url(#linear-gradient);}.Graphic-Style-206{fill:url(#linear-gradient-2);}.Graphic-Style-211{fill:#ffde70;}.cls-1{fill:#2c3f50;}.cls-2{clip-path:url(#clip-path);}.cls-12,.cls-14,.cls-3,.cls-4{fill:none;}.cls-3{stroke:#fff;}.cls-10,.cls-12,.cls-14,.cls-3,.cls-4,.cls-9{stroke-linecap:round;stroke-linejoin:round;}.cls-14,.cls-3{stroke-width:8.0753px;}.Graphic-Style-216,.cls-10{fill:#1a1a1a;}.Graphic-Style-218{fill:#102140;}.Graphic-Style-212,.cls-9{fill:#fff;}.Graphic-Style-223{fill:#d9d9d9;}.Graphic-Style-220{fill:#152a52;}.Graphic-Style-225{fill:#912433;}.Graphic-Style-221{fill:#d1334a;}.cls-10,.cls-4,.cls-9{stroke:#1a1a1a;}.cls-10,.cls-12,.cls-4,.cls-9{stroke-width:5.38353px;}.Graphic-Style-219{fill:#db6767;}.cls-5{fill:#fc9590;}.Graphic-Style-213{fill:#ffb114;}.Graphic-Style-222{fill:#e8766f;}.cls-6{fill:#4064a9;}.cls-7{fill:#691a25;}.cls-8{fill:#f2a6b1;}.cls-11{fill:#339e7e;}.cls-12{stroke:#10663f;}.cls-13{fill:#00593b;}.cls-14{stroke:#134411;}.cls-15{fill:#dfc262;}.Graphic-Style-210{fill:#ccc4cc;}.Graphic-Style-208{fill:url(#linear-gradient-3);}</style><linearGradient id="linear-gradient" x1="1555.40991" y1="2081.10131" x2="5166.58142" y2="2081.10131" gradientUnits="userSpaceOnUse"><stop offset="0" stop-color="#68b2fc"/><stop offset="1" stop-color="#529bf7"/></linearGradient><linearGradient id="linear-gradient-2" x1="741.69121" y1="2441.20023" x2="4770.19231" y2="2441.20023" gradientUnits="userSpaceOnUse"><stop offset="0" stop-color="#4085f0"/><stop offset="1" stop-color="#275dc9"/></linearGradient><clipPath id="clip-path"><path class="Graphic-Style-226" d="M5032.67932,2733.71249a576.028,576.028,0,0,1-23.21139,97.14967c-120.86428,362.80825-568.74015,493.28437-1056.70442,635.42823-1066.92,310.80315-2158.25384,170.81287-2177.65922-7.13623-12.44441-114.30071,420.48314-214.7807,399.8258-314.15853-32.67567-157.26724-1143.86542-33.07582-1163.79683-157.06674-10.36627-64.49931,282.29193-148.40349,469.53515-254.2164Z"/></clipPath><linearGradient id="linear-gradient-3" x1="4946.09663" y1="2191.96306" x2="5235.00552" y2="2191.96306" gradientUnits="userSpaceOnUse"><stop offset="0" stop-color="#68b2fc"/><stop offset="1" stop-color="#ebf0f7"/></linearGradient></defs><title>7</title><path class="Graphic-Style-207" d="M1717.98545,1338.65742c-22.39835,38.82472-246.34821,440.33712-128.51816,888.89306,125.11378,476.28294,555.63033,701.30188,771.10806,813.92611,807.91159,422.27266,1633.5982,97.234,1713.57388,64.25755,223.404-92.116,1098.18965-452.81588,1092.40362-1156.63217-4.00407-487.07027-428.06887-936.051-856.78694-1028.11722-339.76533-72.96388-385.284,142.05958-921.04587,182.06241-716.41275,53.49123-1088.42156-297.13082-1445.828-42.83824C1833.87826,1137.77163,1777.86038,1234.87171,1717.98545,1338.65742Z"/><path class="Graphic-Style-206" d="M1363.13013,2566.68627c10.11716,188.20689-636.50065,325.90207-621.17056,421.24262,19.93722,123.99459,1131.112-.20417,1163.80233,157.07346,20.65306,99.3653-412.29068,199.849-399.834,314.14692,19.39468,177.96071,1110.7493,317.933,2177.66686,7.1399,487.95143-142.1402,935.82792-272.60653,1056.70381-635.43374,148.36215-445.33259-289.25474-960.506-571.1915-1192.33042-752.9146-619.08884-1899.19713-453.80435-2541.80109-14.27949-239.82646,164.03531-585.70182,486.78786-514.072,692.55123C1159.75937,2450.44532,1357.57578,2463.36071,1363.13013,2566.68627Z"/><path class="Graphic-Style-211" d="M3115.74463,2683.70894c37.68474-2.69177,72.67772,0,110.36246-10.76707,13.45884-2.69177,26.91768,2.69176,40.37652-2.69177,37.68474-16.1506,75.36949,0,113.05423-13.45884,5.38353-2.69176,8.0753-10.76707,13.45884-13.45883,51.14358-10.76707,96.90363-26.91768,148.04721-34.993,45.76-8.0753,86.13656-26.91768,131.8966-37.68475,13.45884-5.38353,26.91768-13.45883,40.37652-18.84237,137.28014-32.30121,279.94381-56.52712,382.231-161.50605,18.84237-16.1506,40.37651-24.2259,56.52711-40.37651,53.83535-64.60242,104.97893-129.20484,174.96489-166.88958,69.986-34.993,150.739-43.06828,234.18377-34.993,2.69177,0,8.0753,8.0753,10.76707,8.0753,18.84237,2.69177,37.68474-2.69176,56.52712,2.69177,95.72861,25.42787,190.62655,37.55265,285.6165,47.00621-80.06628-148.76961-188.76019-286.67833-296.37569-399.57583v75.03006H4354.68712v146.36387h-288.257V2187.3895H3783.52377v149.504H3525.2705v151.02929H3295.00872v131.25274H2996.02538v76.89577q51.64368-1.27852,103.56864-4.287C3104.97756,2691.78424,3110.36109,2683.70894,3115.74463,2683.70894Z"/><path class="cls-1" d="M4628.518,2158.81428c-18.84238-5.38353-37.68475,0-56.52712-2.69177-2.69177,0-8.0753-8.0753-10.76707-8.0753-83.44479-8.0753-164.19782,0-234.18377,34.993-69.986,37.68474-121.12954,102.28716-174.96489,166.88958-16.1506,16.15061-37.68474,24.22591-56.52711,40.37651-102.28717,104.97893-244.95084,129.20484-382.231,161.50605-13.45884,5.38354-26.91768,13.45884-40.37652,18.84237-45.76,10.76707-86.13656,29.60945-131.8966,37.68475-51.14358,8.0753-96.90363,24.22591-148.04721,34.993-5.38354,2.69176-8.07531,10.76707-13.45884,13.45883-37.68474,13.45884-75.36949-2.69176-113.05423,13.45884-13.45884,5.38353-26.91768,0-40.37652,2.69177-37.68474,10.76707-72.67772,8.0753-110.36246,10.76707-5.38354,0-10.76707,8.0753-16.15061,8.0753q-51.94434,2.98536-103.56864,4.287v37.641H5032.66817c26.34528-176.16406-27.65108-359.02484-118.53372-527.89184C4819.1445,2196.36693,4724.24656,2184.24215,4628.518,2158.81428Z"/><path class="Graphic-Style-226" d="M5032.67932,2733.71249a576.028,576.028,0,0,1-23.21139,97.14967c-120.86428,362.80825-568.74015,493.28437-1056.70442,635.42823-1066.92,310.80315-2158.25384,170.81287-2177.65922-7.13623-12.44441-114.30071,420.48314-214.7807,399.8258-314.15853-32.67567-157.26724-1143.86542-33.07582-1163.79683-157.06674-10.36627-64.49931,282.29193-148.40349,469.53515-254.2164Z"/><g class="cls-2"><line class="cls-3" x1="1994.69136" y1="2560.9433" x2="679.23588" y2="3515.82906"/><line class="cls-3" x1="2380.4565" y1="2586.9666" x2="1065.00102" y2="3541.85236"/><line class="cls-3" x1="2766.22164" y1="2612.9899" x2="1450.76616" y2="3567.87566"/><line class="cls-3" x1="3151.98677" y1="2639.0132" x2="1836.5313" y2="3593.89895"/><line class="cls-3" x1="3537.75191" y1="2665.03649" x2="2222.29644" y2="3619.92225"/><line class="cls-3" x1="3923.51705" y1="2691.05979" x2="2608.06158" y2="3645.94555"/><line class="cls-3" x1="4309.28219" y1="2717.08309" x2="2993.82672" y2="3671.96884"/><line class="cls-3" x1="4695.04733" y1="2743.10638" x2="3379.59185" y2="3697.99214"/><line class="cls-3" x1="5080.81247" y1="2769.12968" x2="3765.35699" y2="3724.01544"/></g><path class="Graphic-Style-216" d="M3335.171,1009.041l-72.589-262.08654-22.35757,5.70242c55.40861,95.37621,10.46477,214.666,20.87565,321.37509a23.356,23.356,0,0,0,6.83522,13.976C3312.02284,1060.32458,3335.171,1009.041,3335.171,1009.041Z"/><path class="Graphic-Style-218" d="M3240.22442,752.6569l-11.4663,2.92474s13.03233,294.21393-49.73921,344.97619c35.46876,10.401,65.21556,2.33246,88.91638-12.54981a23.356,23.356,0,0,1-6.83522-13.976C3250.68919,967.3229,3295.633,848.03311,3240.22442,752.6569Z"/><path class="Graphic-Style-212" d="M2940.77974,1375.50995c16.15061-10.76707,32.30121-29.60945,34.993-48.45182,8.0753-137.28014,13.45884-271.86851-26.91768-406.45689-9.22732-39.21545-44.15195-60.63656-77.67221-79.51557l-7.24464,24.56632s-8.925,366.80228-5.35527,477.4677a354.5142,354.5142,0,0,0,4.587,48.40516C2889.88851,1395.52947,2918.47014,1390.38285,2940.77974,1375.50995Z"/><path class="Graphic-Style-223" d="M2990.076,1012.61093c-3.56975-146.364-115.72629-182.26193-115.72629-182.26193l-3.1669,10.73667c33.52026,18.879,68.44489,40.30012,77.67221,79.51557,40.37652,134.58838,34.993,269.17675,26.91768,406.45689-2.69177,18.84237-18.84237,37.68475-34.993,48.45182-22.3096,14.8729-50.89123,20.01952-77.60978,16.0149,12.56246,73.1517,49.18193,98.55969,105.18857,97.06627C3035.29522,1486.80625,2993.64577,1158.9748,2990.076,1012.61093Z"/><path class="Graphic-Style-212" d="M2604.30881,3292.04839c13.746-1.05739,25.40684-6.69591,35.3255-14.93353-3.93513-8.03324-6.55264-13.11744-6.55264-13.11744H2528.363s-2.95661,10.64517-7.13818,26.88317C2539.61439,3306.00371,2583.36415,3294.14279,2604.30881,3292.04839Z"/><path class="Graphic-Style-216" d="M2675.9206,3371.25805c-1.775-21.42637-24.73258-70.5554-36.28629-94.14319-9.91866,8.23762-21.57948,13.87614-35.3255,14.93353-20.94466,2.0944-64.69442,13.95532-83.084-1.1678-12.596,48.91907-36.30929,148.62158-23.80137,161.12884,16.65991,16.65925,129.70823,38.07839,168.38267,19.03952C2704.48054,3452.00943,2678.30087,3399.982,2675.9206,3371.25805Z"/><path class="Graphic-Style-218" d="M2450.87806,2656.79126c-64.60242-325.70386-64.60242-637.94889,10.76707-958.26922,11.54648-43.87627,25.0638-85.781,37.17347-129.09443l-88.26382-10.62939s-77.73464,82.404-69.21181,467.9481c8.52284,385.54394,177.20255,1247.663,177.20255,1247.663s23.63117,4.18092,50.215,7.00149c-4.09942-26.71067-9.017-53.63031-15.59529-80.88249C2512.78871,3014.79634,2488.56281,2845.215,2450.87806,2656.79126Z"/><path class="Graphic-Style-218" d="M2668.91123,1709.28911c3.02232-.69742,6.042-1.5588,9.05777-2.49379l9.25689-114.67843-188.40729-22.68928c-9.04134,32.33949-18.86669,63.89481-28.07167,96.07067C2529.50909,1702.67421,2602.35373,1725.92849,2668.91123,1709.28911Z"/><path class="Graphic-Style-220" d="M2668.91123,1709.28911c-66.5575,16.63938-139.40214-6.6149-198.1643-43.79083q-4.6843,16.37757-9.1018,33.02376c-75.36949,320.32033-75.36949,632.56536-10.76707,958.26922,37.68475,188.42373,61.91065,358.00508,102.28717,543.737,6.57827,27.25218,11.49587,54.17182,15.59529,80.88249,33.57875,3.56252,71.87006,4.95342,73.21529-7.00149,2.4105-21.41913-4.01-908.26862,10.29851-1125.0295,53.54948-224.90076,18.8864-358.24379,18.8864-358.24379l6.80828-84.34068C2674.95325,1707.73031,2671.93355,1708.59169,2668.91123,1709.28911Z"/><path class="Graphic-Style-212" d="M2685.06183,3068.63169c25.61451,9.96138,54.98671,7.12569,78.9767-5.30994-5.57477-11.948-10.769-22.73741-10.769-22.73741l-66.48587-22.31158s-14.84284,12.39751-25.92732,26.63082C2666.04794,3055.58621,2674.36377,3065.06588,2685.06183,3068.63169Z"/><path class="Graphic-Style-216" d="M2833.59338,3212.82952c-8.925-31.23626-54.44192-116.02037-61.58141-132.08455-2.36384-5.31815-5.214-11.51-7.97344-17.42322-23.99,12.43563-53.36219,15.27132-78.9767,5.30994-10.69806-3.56581-19.01389-13.04548-24.20553-23.72811-9.523,12.22731-16.2735,25.80838-8.43741,34.05651,16.957,17.84906,48.19421,136.54674,49.97908,169.56788s74.07618,90.13873,106.20587,79.42949C2840.73353,3317.24756,2842.5184,3244.06579,2833.59338,3212.82952Z"/><path class="Graphic-Style-218" d="M2741.589,2323.0121c-2.69177-21.53414-8.0753-40.37652-13.45884-61.91066-10.76707-32.30121-21.53414-67.29418-43.06828-96.90362a604.33726,604.33726,0,0,1-32.78751-56.14547c24.30476,154.74591,72.43588,405.0862,72.43588,405.0862s-69.614,351.63052-64.25938,515.84345a28.61181,28.61181,0,0,0,8.18965,10.77036c7.02778-127.22807,39.30927-250.8818,64.87318-382.9611C2755.04779,2541.04526,2763.12309,2438.7581,2741.589,2323.0121Z"/><path class="Graphic-Style-220" d="M2873.48556,1679.67967c-21.53414-10.76707-48.45182,0-75.36949,5.38354-51.528,15.68237-117.96,33.19627-171.38726,16.91374l11.84417,295.318c0,17.12486,5.49263,58.49157,13.70134,110.75743a604.33726,604.33726,0,0,0,32.78751,56.14547c21.53414,29.60944,32.30121,64.60241,43.06828,96.90362,5.38354,21.53414,10.76707,40.37652,13.45884,61.91066,21.53414,115.746,13.45884,218.03316-8.0753,333.77916-25.56391,132.0793-57.8454,255.733-64.87318,382.9611,26.90651,22.41836,95.33891,7.079,95.33891,7.079s153.50764-547.97216,171.38594-625.46776c17.74161-76.90217-1.50952-406.43947-.06177-554.243a52.76917,52.76917,0,0,1-2.59911-7.09251C2911.1703,1800.80921,2940.77974,1706.59735,2873.48556,1679.67967Z"/><path class="Graphic-Style-218" d="M2887.7376,1583.7871l-264.77108,24.394,3.76229,93.79587c53.42725,16.28253,119.85923-1.23137,171.38726-16.91374,26.91767-5.38354,53.83535-16.15061,75.36949-5.38354,67.29418,26.91768,37.68474,121.12954,59.21888,180.34842a52.76917,52.76917,0,0,0,2.59911,7.09251c.01117-1.14036.01971-2.30388.03351-3.42238C2937.12193,1717.60708,2887.7376,1583.7871,2887.7376,1583.7871Z"/><path class="Graphic-Style-216" d="M2382.88779,1596.57918s88.35615,66.93472,268.6384,73.182,250.78868-39.37192,250.78868-39.37192l-2.57459-38.27236-502.57271-27.66635Z"/><path class="Graphic-Style-223" d="M2251.68727,1181.70269c5.38353-26.91768,8.0753-53.83535,13.45884-80.753,23.16918-110.69779,41.428-246.00412,158.35557-288.20839L2416.5048,793.66s-175.52217,88.05631-184.44719,270.1188c-4.43327,90.44168-23.0338,213.07942-28.07035,293.32281-12.46257,70.56574-4.29,126.60951,37.88781,158.72211a107.27615,107.27615,0,0,0,38.71124,9.1874C2207.40848,1442.74762,2228.7251,1294.427,2251.68727,1181.70269Z"/><path class="Graphic-Style-212" d="M2357.006,1361.26628s35.32747-136.83507,28.80966-261.34164l120.68332-21.28211c-3.83787-12.47275-24.54529-106.48993-24.54529-106.48993l-58.452-159.41132c-116.92759,42.20427-135.18639,177.5106-158.35557,288.20839-5.38354,26.91767-8.07531,53.83534-13.45884,80.753-22.96217,112.72433-44.27879,261.04493,28.899,343.30846C2329.96145,1526.66048,2374.33815,1486.06694,2357.006,1361.26628Z"/><path class="Graphic-Style-223" d="M2695.8289,872.14943c5.38354-2.69177,16.15061-2.69177,21.53414,0,44.911,27.44555,94.44844,38.66721,144.32237,31.591,1.71127-30.57186,4.16383-58.72272,7.683-76.58279-61.87911-45.21821-185.11751-110.8445-189.87739-109.65453s-83.2989,0-83.2989,0-50.33723,21.89493-106.23938,53.54242C2533.4567,840.3107,2604.53093,929.53645,2695.8289,872.14943Z"/><path class="Graphic-Style-212" d="M2861.68541,903.7404c-49.87393,7.07624-99.41138-4.14542-144.32237-31.591-5.38353-2.69177-16.1506-2.69177-21.53414,0-91.298,57.387-162.3722-31.83873-205.87618-101.10393-19.90173,11.267-40.502,23.759-59.79654,36.95463l465.09352,344.40675c5.4854-36.91815-45.14033-80.88626-37.50993-94.87544C2857.73977,1057.53144,2857.74174,974.19706,2861.68541,903.7404Z"/><path class="Graphic-Style-225" d="M2695.8289,1022.88841c-18.84237-24.22591-2.69177-56.52712,5.38354-80.753,4.3268-15.14513-.04206-28.55337-4.71848-43.016h-15.85882l-26.87759,116.46642,52.21017,58.90262s32.04623-22.3119,42.764-30.07077C2728.38772,1044.47249,2709.37909,1040.50384,2695.8289,1022.88841Z"/><path class="Graphic-Style-221" d="M2749.25352,991.48933l-43.2858-92.37H2696.494c4.67642,14.46266,9.04528,27.8709,4.71848,43.016-8.07531,24.22591-24.22591,56.52712-5.38354,80.753,13.55019,17.61543,32.55882,21.58408,52.90283,21.52921,1.777-1.28641,2.98815-2.1869,3.34828-2.50415C2754.60814,1039.68222,2749.25352,991.48933,2749.25352,991.48933Z"/><path class="Graphic-Style-220" d="M2521.22318,746.95446s187.42214,243.64238,189.20711,315.03942l86.61086-279.2047,87.12649,47.55989s5.41159,236.99958,27.39792,288.76243c-27.99156,153.29742-26.20794,395.0636-7.16823,476.57521-46.40929,36.88847-362.34947,83.29654-512.88217-26.77389,4.75993-49.38294,4.46243-458.131-8.62737-481.93,73.77888-29.74877,70.50643-114.83023,65.7465-158.8584s-56.316-132.27506-56.316-132.27506Z"/><path class="cls-4" d="M2705.96786,1085.19791s-37.914,433.3263-14.04832,547.7669"/><path class="Graphic-Style-219" d="M2912.325,1253.21459c38.88868,54.47954,60.8296,144.75808,6.92065,181.51424-11.25206,7.50143-23.8086,7.47514-35.62583,2.45437,14.118,29.56639,31.83659,52.56717,52.54993,49.57541,53.54948-7.73473,55.69119-34.461,67.25607-77.46471C3013.58693,1371.5091,2953.33431,1290.48861,2912.325,1253.21459Z"/><path class="cls-5" d="M2919.2456,1434.72883c53.909-36.75616,31.968-127.0347-6.92065-181.51424a156.91372,156.91372,0,0,0-15.66233-12.72823c-38.67444-26.77375-101.74368,65.44738-101.74368,65.44738s48.1942,14.27931,51.16921,18.44413c1.8243,2.55392,15.151,65.93433,37.53162,112.80533C2895.437,1442.204,2907.99354,1442.23026,2919.2456,1434.72883Z"/><polygon class="Graphic-Style-213" points="2675.623 1261.906 2969.251 1333.303 2875.54 1469.849 2594.722 1425.764 2675.623 1261.906"/><path class="Graphic-Style-212" d="M2185.21169,1399.1877s90.28024-123.00272,183.69382-63.50519l-4.16494,35.69852s-33.31949,126.72973-38.67441,136.84431-32.7245,32.72365-63.069,29.15379S2162.602,1487.839,2185.21169,1399.1877Z"/><path class="cls-5" d="M2440.111,1493.94772c104.97893,5.38353,209.95787-5.38354,317.62856-13.45884,53.42857-2.055,94.28744-32.36529,119.02265-76.525-45.19356,4.86109-149.59944,8.47043-165.14216,8.47043-14.27965-7.73473,24.3948-43.43334,10.11515-66.04245-14.27964-22.60894-33.31916-20.229-37.485,6.54476-4.16449,26.77392-57.71331,29.74876-74.968,46.40818-17.25531,16.65925-7.73489,40.45816-39.86523,36.88842-28.39631-3.15524-172.49262-59.28181-205.59952-72.28375-39.61682,2.64445-79.20276,8.4397-105.43172,39.0395-.17349.19666-.31807.40169-.48893.599C2292.48568,1465.73772,2372.03477,1489.4093,2440.111,1493.94772Z"/><path class="Graphic-Style-222" d="M2892.49748,1401.72478c-3.61378.76889-9.0282,1.51773-15.73528,2.23914-24.73521,44.15967-65.59408,74.47-119.02265,76.525-107.67069,8.0753-212.64963,18.84237-317.62856,13.45884-68.07622-4.53842-147.62531-28.21-182.21412-90.3597-22.50873,25.98975-22.89186,58.39923-14.09038,89.922a69.3413,69.3413,0,0,0,9.67091,5.79065c91.03313,44.62315,230.641,2.54259,357.68832,8.05148,126.64582,0,240.87244,3.84806,273.59687-39.58528C2917.487,1424.33372,2920.462,1395.77493,2892.49748,1401.72478Z"/><path class="cls-5" d="M2808.88314,546.44557c-32.30121-43.06828-40.37652-91.5201-69.986-137.28014a37.36563,37.36563,0,0,1-3.17544-3.72944c-45.33749,7.647-83.21084,44.127-90.146,125.84-1.13231,13.34153-2.78969,26.83816-4.84532,40.24639,50.07568,48.34552,4.91038,139.32953,12.03015,201.03169,2.29813,19.91882,12.24439,35.24533,26.88876,46.75106a120.53812,120.53812,0,0,0,50.41544.83132c27.66685-37.48348,27.66751-37.48348,27.66751-37.48348,5.35461-33.46736-8.06414-39.36349,6.6407-61.76772a49.54906,49.54906,0,0,0,42.43148,2.28416c21.7188-9.016,57.02-78.02544,81.51862-131.13019C2857.29815,588.141,2828.173,573.4513,2808.88314,546.44557Z"/><path class="Graphic-Style-222" d="M2735.72174,405.436a37.36563,37.36563,0,0,0,3.17544,3.72944c29.60944,45.76,37.68475,94.21186,69.986,137.28014,19.2899,27.00573,48.415,41.69545,79.44,45.59361,15.98895-34.65979,27.379-62.54827,27.379-62.54827C2905.44241,458.58,2810.44063,392.83328,2735.72174,405.436Z"/><path class="Graphic-Style-219" d="M2652.76062,772.554c-7.11977-61.70216,38.04553-152.68617-12.03015-201.03169-15.46583,100.89923-53.73283,196.7361-64.768,182.86933,0,0,43.87594,51.62709,103.68693,64.91342C2665.005,807.79936,2655.05875,792.47285,2652.76062,772.554Z"/><path class="Graphic-Style-212" d="M2592.47222,708.70431c30.04817,45.38985,15.64889,74.50908,92.52217,113.72388-35.25317,16.89618-49.21849,39.20776-61.13528,28.052s-101.74344-74.96689-86.57117-116.91264C2578.34231,690.72929,2592.47222,708.70431,2592.47222,708.70431Z"/><path class="Graphic-Style-212" d="M2760.23252,743.38461s10.18616,68.53668-54.26466,79.02854c17.84973,43.68511,55.7804,26.28208,55.7804,26.28208s21.86592-58.45632,30.79078-72.73572C2787.18412,762.57256,2760.23252,743.38461,2760.23252,743.38461Z"/><path class="Graphic-Style-220" d="M2926.73011,485.46279c.10624-7.13577-2.03026-12.186-5.10161-15.75362-9.492-40.58234-29.98881-87.499-68.20548-105.62142-71.51762-33.91345-197.8664-6.24711-221.719,79.42921-23.85318,85.67648-19.54478,178.49269-19.54478,178.49269l19.54478,22.31157s28.61717-52.58444,39.819-58.8317-36.19845-31.43541-4.31749-72.43786c31.88155-41.00245,40.77628,23.50632,40.77628,23.50632s-8.04572,24.39882-2.014,23.50633,12.17561-9.45179,12.17561-14.80656,11.20125-27.66634,22.83333-23.20406c11.63267,4.46244,19.38779-24.98887,21.11115-42.83816,1.72277-17.84928,35.32768,44.62314,63.76192,66.9347,12.22168,9.58966,30.80858,10.4311,48.71735,7.85939l.003.00382s76.65112,1.06151,80.95892-38.6531C2943.03533,525.62364,2926.36537,510.00557,2926.73011,485.46279Z"/><path class="Graphic-Style-225" d="M2679.6783,877.533c-4.94389-17.30328,1.46549-32.33587,8.79884-47.184h-5.26787l-20.95649,41.99643,18.27918,25.43526h25.43576l1.14807-1.80343C2695.58312,894.24151,2685.36807,888.913,2679.6783,877.533Z"/><path class="Graphic-Style-221" d="M2702.84419,830.349h-14.367c-7.33335,14.84809-13.74273,29.88068-8.79884,47.184,5.68977,11.38,15.90482,16.70855,27.43749,18.4443l14.47023-22.73939Z"/><path class="Graphic-Style-219" d="M2705.96786,686.23092s49.79651,31.33111,58.40549,34.65427c-6.117,10.92-7.45578,17.16726-7.45578,17.16726C2749.77768,734.92883,2704.18289,718.80581,2705.96786,686.23092Z"/><path class="Graphic-Style-218" d="M3410.1892,3198.25266c-21.46549,5.36623-48.03663,3.05677-66.03172-11.4758,22.60436,78.14642,62.76611,102.57551,88.59145,97.15212,16.75353-3.518,18.03361-58.07218,15.95577-110.80472C3438.42127,3185.47175,3423.93264,3194.12949,3410.1892,3198.25266Z"/><path class="cls-5" d="M3401.072,3187.06945c26.91767-8.0753,24.22591-43.06828,21.53414-69.98595-2.398-40.77016-15.44481-79.40813-16.36616-119.71235l-48.4597-18.962s-38.079,47.59783-22.60927,168.97314c1.22365,7.037,2.57742,13.73912,4.037,20.14784C3355.92573,3185.278,3374.99811,3196.67563,3401.072,3187.06945Z"/><path class="Graphic-Style-222" d="M3443.45943,3078.365c0-32.12871-30.93955-78.53672-30.93955-78.53672l-6.27992-2.45716c.92135,40.30422,13.96815,78.94219,16.36616,119.71235,2.69177,26.91767,5.38353,61.91065-21.53414,69.98595-26.07387,9.60618-45.14625-1.79144-61.864-19.5393q2.30273,10.11386,4.94914,19.24686c17.99528,14.53233,44.56663,16.84195,66.03242,11.4755,13.74274-4.12308,28.232-12.78064,38.51541-25.1282C3447.09292,3132.21483,3443.45943,3092.40119,3443.45943,3078.365Z"/><path class="Graphic-Style-220" d="M3498.03541,1847.683c-33.07273-1.18685-66.5483-9.71675-99.6552-28.03141-30.54525-16.96944-65.36868-33.92573-100.42606-38.75577l43.1662,1223.09731a142.89021,142.89021,0,0,0,53.06646,15.54371c.83329-34.923,3.60326-69.87949,6.88517-104.33589,5.38353-53.83535,13.45884-102.28716,24.22591-156.12251,2.69176-5.38354,8.0753-8.07531,10.76707-13.45884,2.69176-37.68475,10.76707-75.36949,21.53414-113.05423,26.91767-88.82833,51.14358-177.65666,59.21888-269.17675,13.45884-153.43075,18.84237-301.478-8.0753-457.60047C3505.489,1886.26576,3502.0126,1866.85461,3498.03541,1847.683Z"/><path class="Graphic-Style-218" d="M3498.03541,1847.683c-12.09455-58.298-28.85238-114.36594-58.32316-164.48877l-144.70353,14.23331,2.94543,83.46828c35.05738,4.83,69.88081,21.78633,100.42606,38.75577C3431.48711,1837.96624,3464.96268,1846.49614,3498.03541,1847.683Z"/><path class="Graphic-Style-218" d="M3349.754,1907.60042s47.95468,318.25475,40.33507,580.32236-22.278,526.69427-22.278,526.69427l-36.33758-21.52913S3298.758,1960.21164,3349.754,1907.60042Z"/><path class="Graphic-Style-218" d="M3546.62655,1718.8465l-88.3-37.48332-18.61433,1.831c39.16206,66.606,55.88243,143.70676,69.03043,222.59392,26.91767,156.12251,21.53414,304.16972,8.0753,457.60047-8.0753,91.52009-32.30121,180.34842-59.21888,269.17675-10.76707,37.68474-18.84238,75.36948-21.53414,113.05423-2.69177,5.38353-8.07531,8.0753-10.76707,13.45884-10.76707,53.83535-18.84238,102.28716-24.22591,156.12251-3.28191,34.4564-6.05188,69.4129-6.88517,104.33589a155.06833,155.06833,0,0,0,37.37259-1.26439l115.06715-407.85535s16.12826-200.80414,63.01535-473.89795C3656.529,1863.4255,3551.232,1742.35872,3546.62655,1718.8465Z"/><path class="Graphic-Style-218" d="M3380.55174,3359.49941c-10.943,13.43071-26.62616,21.53462-47.98406,21.53462-27.18918,0-64.84762-.01681-86.73431-20.44529-1.03616,11.414-1.32287,20.37621-.50616,25.37842,4.75965,29.15376,21.16534,68.42228,86.14622,64.85264,64.9815-3.57,51.29674-77.34685,51.29674-77.34685Z"/><path class="Graphic-Style-222" d="M3323.01072,3313.58253c-36.2784-27.7421-40.40608-75.78318-39.21989-121.32735l-10.49895.94041s-22.45746,112.28535-27.45852,167.393c21.887,20.42878,59.5455,20.44521,86.73393,20.44521,21.358,0,37.04137-8.10357,47.98456-21.53447l-5.09241-32.07942C3355.94282,3328.38067,3336.07263,3323.08191,3323.01072,3313.58253Z"/><path class="cls-5" d="M3283.79083,3192.25518c-1.18619,45.54417,2.94149,93.58525,39.21989,121.32735,13.06191,9.49938,32.9321,14.79814,52.44872,13.83736l-22.4384-141.36445Z"/><path class="Graphic-Style-218" d="M3166.88821,2506.05228c-2.69177-10.76707,2.69177-24.2259,0-34.993-21.53414-83.44479-43.06828-156.12252-59.21888-242.25908-10.76707-51.14358-29.60945-96.90362-37.68475-145.35544-13.45884-88.82832-2.69177-174.96488,21.53414-261.10144,14.90987-64.60867,73.38878-94.82287,111.93836-143.5548l-60.13892-13.48973s-158.002,136.54674-63.39849,546.18729,177.60474,998.66578,177.60474,998.66578q14.88489,11.22084,29.79936,15.79244C3293.45583,2981.49393,3254.78007,2732.0602,3166.88821,2506.05228Z"/><path class="Graphic-Style-218" d="M3203.45708,1678.78855c-38.50226,48.67213-96.88,78.87565-111.87856,143.32068,47.81108,5.338,100.44315-17.93926,145.29564-34.75886,38.00019-15.2,78.67769-6.24968,116.36243,9.79134l4.9314-83.65Z"/><path class="Graphic-Style-220" d="M3236.87416,1787.35037c-44.85249,16.8196-97.48456,40.09689-145.29564,34.75886-.0184.07919-.0414.15476-.0598.23412-24.22591,86.13656-34.993,172.27312-21.53414,261.10144,8.0753,48.45182,26.91768,94.21186,37.68475,145.35544,16.1506,86.13656,37.68474,158.81429,59.21888,242.25908,2.69177,10.76707-2.69177,24.2259,0,34.993,87.89186,226.00792,126.56762,475.44165,120.43556,719.892,28.1295,8.676,56.33786-.24085,84.62244-26.50168,0,0-24.87584-1132.53554-30.8252-1196.79294l12.11558-205.508C3315.55185,1781.10069,3274.87435,1772.15036,3236.87416,1787.35037Z"/><path class="Graphic-Style-216" d="M3109.988,1709.95539s313.73749,99.782,455.73488,61.40428l-7.67553-42.21544L3151.244,1668.69939Z"/><path class="Graphic-Style-212" d="M3358.0037,1625.84432c-8.0753-29.60944-5.38354-61.91065,8.0753-88.82832,40.37651-80.753,78.06126-161.50605,94.21186-253.02615,17.26517-96.19175,2.90075-190.12316,2.44468-283.8658l-33.55838-12.50217-135.02211,29.50759c-86.12078,177.30621-29.96037,346.28412,50.38981,501.04415,37.36668,71.97094-29.92751,142.60568-78.907,205.89212a1113.46052,1113.46052,0,0,0,131.12969,20.00523c-11.8698-29.00073-19.7381-61.77609-27.99675-88.61721A131.21141,131.21141,0,0,0,3358.0037,1625.84432Z"/><path class="Graphic-Style-223" d="M3598.45424,1733.72088c-45.51689-234.42019,11.18766-678.86675,11.18766-678.86675l-146.90636-54.73008c.45607,93.74264,14.82049,187.674-2.44468,283.8658-16.1506,91.5201-53.83535,172.27312-94.21186,253.02615-13.45884,26.91767-16.1506,59.21888-8.0753,88.82832a131.21141,131.21141,0,0,1,10.76707,29.60944c8.25865,26.84112,16.12695,59.61648,27.99675,88.61721C3464.09916,1750.03463,3534.69037,1748.95851,3598.45424,1733.72088Z"/><path class="Graphic-Style-223" d="M3344.54486,1518.17362c-82.74359-156.34184-134.2427-325.95055-50.38981-501.04415l-44.66323,9.76077s-88.05812,42.83827-90.43839,55.92778c-2.38027,13.08935-52.35934,594.97525-52.35934,594.97525,0,1.73213,66.54435,26.7169,158.94374,46.27247C3314.61735,1660.7793,3382.478,1589.84752,3344.54486,1518.17362Z"/><path class="Graphic-Style-218" d="M3209.51866,609.21768s46.39628,19.63383,22.31216,54.44024-17.83941,133.86944-38.818,174.03027c-3.12886-36.591,7.581-63.36487-19.19362-96.386S3160.43191,584.22872,3209.51866,609.21768Z"/><path class="Graphic-Style-222" d="M3281.95338,992.89041c-43.07353,21.82856-125.85721,73.8925-55.66622,123.855,14.52214,10.33679,31.63418,18.8151,50.25246,25.43477C3276.34772,1092.17891,3279.66315,1043.171,3281.95338,992.89041Z"/><path class="Graphic-Style-222" d="M3309.55189,699.87631c10.76707-2.69177,18.84237-10.76707,29.60944-5.38353,26.91767,16.1506,10.76707,56.52711,24.2259,78.06125,2.69177,5.38354,18.84238,0,26.91768,5.38354,16.1506,13.45884-2.69177,29.60944-8.0753,43.06828-10.15525,29.015,1.59955,54.102,22.58824,69.39844l-6.28057-13.44783s36.59187-74.66927,24.98953-130.002-35.69943-116.31774-134.76515-124.34984c-98.82125-8.01237-88.40971,30.1503-88.35779,30.33923C3218.48327,693.46907,3265.96116,711.34754,3309.55189,699.87631Z"/><path class="cls-5" d="M3476.52887,1003.70628c-7.48319-1.78816-14.61743-5.025-29.3584-22.61765l-42.35262-90.68434c-20.98869-15.29645-32.74349-40.38341-22.58824-69.39844,5.38353-13.45884,24.2259-29.60944,8.0753-43.06828-8.0753-5.38354-24.22591,0-26.91768-5.38354-13.45883-21.53414,2.69177-61.91065-24.2259-78.06125-10.76707-5.38354-18.84237,2.69176-29.60944,5.38353-43.59073,11.47123-91.06862-6.40724-109.148-46.93244l.00131.00444s-57.087,272.05975,66.04425,285.58808l28.55929-11.602,9.81746,55.33271s-9.53488,3.864-22.8728,10.62331c-2.29023,50.28056-5.60566,99.2885-5.41376,149.28976,60.97024,21.6774,138.1384,23.36124,193.80857,4.69515C3477.26227,1099.15231,3476.80751,1051.42929,3476.52887,1003.70628Z"/><path class="Graphic-Style-222" d="M3487.67119,1006.4498c-4.28081-1.41932-7.74738-1.93241-11.14232-2.74352.27864,47.723.7334,95.446-6.18068,143.169,34.94435-11.71668,61.42369-31.4459,70.09439-59.29758C3552.58642,1048.56847,3518.53911,1017.18105,3487.67119,1006.4498Z"/><path class="Graphic-Style-218" d="M3067.29281,1488.56418c-32.70931-45.79307-26.56083-98.65071-40.21682-145.69619-10.34779,88.09674-16.02837,173.87251-2.49067,190.94118,27.36981,34.50864,89.24891,60.6875,109.47857,53.54784,4.63371-1.63537,7.45559-26.63049,8.62536-64.82619-2.66286.45148-5.354.82278-8.10225,1.02634C3107.66933,1526.24893,3083.44342,1510.09832,3067.29281,1488.56418Z"/><path class="Graphic-Style-220" d="M3104.31447,1074.48839s-36.88957,14.27932-46.40933,61.87731c-4.81114,24.055-20.2566,116.49024-30.82915,206.50229,13.656,47.04548,7.50751,99.90312,40.21682,145.69619,16.15061,21.53414,40.37652,37.68475,67.29419,34.993,2.74828-.20356,5.43939-.57486,8.10225-1.02634C3146.62635,1393.97313,3131.83674,1115.77065,3104.31447,1074.48839Z"/><path class="cls-6" d="M3270.03364,999.19941c-42.486,16.13138-89.57882,33.33806-125.62129,50.07962,17.87567,19.08947,27.85939,49.7029,27.85939,73.20477,2.69177,123.82131,2.69177,261.10145,102.28717,349.92978,11.55173,11.55206,27.66422,22.07663,45.22117,29.27905C3196.84464,1315.87885,3270.03364,999.19941,3270.03364,999.19941Z"/><path class="Graphic-Style-218" d="M3142.6623,1746.97386c-13.45884-64.60242,29.60944-113.05424,43.06828-174.96489,10.64681-53.23453-12.41394-101.39686-53.15583-131.19885-3.71564,41.244-11.69631,94.82746-15.17077,117.9881-3.023,20.15326-43.58744,146.95433-55.94618,185.33519,30.5676,28.52248,72.07839,53.34592,112.51864,54.446q3.54774-1.84138,7.2039-4.21065C3161.84377,1785.51752,3147.00225,1770.8421,3142.6623,1746.97386Z"/><path class="Graphic-Style-216" d="M3057.90514,1755.14s32.12969,27.36883,85.67851,47.598c8.9178,3.36882,19.22485,1.63865,30.39279-4.15857-40.44025-1.1001-81.951-25.92354-112.51864-54.446C3059.22211,1751.07657,3057.90514,1755.14,3057.90514,1755.14Z"/><path class="Graphic-Style-220" d="M3341.121,1530.23942a300.22148,300.22148,0,0,1-21.34093-28.54679c-17.557-7.20242-33.66944-17.727-45.22117-29.27905-99.5954-88.82833-99.5954-226.10847-102.28717-349.92978,0-23.50187-9.98372-54.1153-27.85939-73.20477-24.38429,11.32632-43.71428,22.43989-53.12167,32.86309l31.11765,233.90612c6.83785,57.3052,11.73574,106.5563,10.46543,121.375-.09595,1.11735-.1965,2.24982-.299,3.38689,40.74189,29.802,63.80264,77.96432,53.15583,131.19885-13.45884,61.91065-56.52712,110.36247-43.06828,174.96489,4.34,23.86824,19.18147,38.54366,38.518,47.39492C3236.34974,1758.52033,3308.82637,1633.76979,3341.121,1530.23942Z"/><path class="Graphic-Style-220" d="M3535.9802,1033.43506l90.14093,176.81106c-6.88578,57.29309,20.2276,156.74993,32.97583,199.20634,47.9755,19.43253,87.18178,66.00162,124.19957,103.53269-3.905-131.73966-43.53227-376.77485-75.66162-421.91523S3539.99588,1037.70479,3535.9802,1033.43506Z"/><path class="cls-6" d="M3593.5971,1038.7124l-108.70048-36.811s36.65824,297.41189-68.77808,470.60849q3.29833-1.32361,6.48758-2.788C3577.30717,1394.86655,3597.85293,1199.7443,3593.5971,1038.7124Z"/><path class="Graphic-Style-220" d="M3581.4204,1655.45376c37.68474-80.753,18.84237-166.88958,29.60944-253.02614a59.836,59.836,0,0,1,2.82715-11.7709c3.61574-77.2687,11.63847-149.38685,27.13914-198.35487l16.957-131.7954-64.356-21.79405c4.25583,161.0319-16.28993,356.15415-170.991,431.00941q-3.184,1.46951-6.48758,2.788c-15.89365,26.10837-34.98443,49.4218-57.95055,68.43914,0,0,21.53151,116.22114,55.96064,197.90143C3480.77485,1757.76705,3549.79082,1718.71326,3581.4204,1655.45376Z"/><path class="Graphic-Style-218" d="M3611.02984,1402.42762c-10.76707,86.13656,8.0753,172.27312-29.60944,253.02614-31.62958,63.2595-100.64555,102.31329-167.29177,83.39666,17.82507,42.2892,39.10554,75.32562,62.65,78.16706,69.01925,8.32963,144.80933-29.74876,144.80933-29.74876s-16.3287-212.87077-7.73094-396.612A59.836,59.836,0,0,0,3611.02984,1402.42762Z"/><polygon class="cls-7" points="3627.651 1067.535 3374.185 1470.99 3362.171 1503.057 3371.946 1520.72 3611.869 1529.236 3890.892 1126.846 3881.117 1109.184 3627.651 1067.535"/><polygon class="Graphic-Style-221" points="3637.426 1085.198 3383.96 1488.653 3371.946 1520.72 3621.644 1546.899 3890.892 1126.846 3637.426 1085.198"/><polygon class="cls-8" points="3649.834 1189.298 3777.12 1225.117 3769.444 1240.469 3645.357 1205.289 3649.834 1189.298"/><polygon class="cls-8" points="3631.009 1223.199 3758.295 1259.018 3750.619 1274.369 3626.532 1239.189 3631.009 1223.199"/><path class="cls-9" d="M3663.57785,1413.35631c1.148,3.619,1.81314,5.62267,1.81314,5.62267S3674.95675,1422.37089,3663.57785,1413.35631Z"/><path class="Graphic-Style-220" d="M3664.86519,1545.0913c21.53414,16.1506,51.14358,18.84237,67.29419,2.69177,20.114-18.19819,33.39474-40.155,43.63542-63.91075l-46.1583-35.12441c-46.46124-30.30654-104.82975-61.80272-131.18226-77.96186-27.12008,4.93074-40.07947,32.46533-46.25884,56.12854C3580.29993,1472.53811,3617.3781,1510.55522,3664.86519,1545.0913Z"/><path class="Graphic-Style-218" d="M3775.7948,1483.87232c-10.24068,23.7557-23.52143,45.71256-43.63542,63.91075-16.15061,16.1506-45.76,13.45883-67.29419-2.69177-47.48709-34.53608-84.56526-72.55319-112.66979-118.17671a182.846,182.846,0,0,0-5.56885,35.795s75.03236,112.45046,110.73179,132.977,76.45645-7.13966,115.72563-36.88842c8.57081-6.49333,11.30266-32.43413,10.21242-69.21756Z"/><path class="Graphic-Style-218" d="M3016.61911,1372.57092s-1.33931,110.23382.49222,127.6416l45.04242-19.4754c-24.91528-40.68275-22.723-86.19816-32.497-127.96706A174.09475,174.09475,0,0,0,3016.61911,1372.57092Z"/><path class="Graphic-Style-220" d="M3111.15693,1378.81814c0-21.41914-4.46284-51.7628-34.72814-56.22515-17.7955-2.62375-35.334,15.1131-46.77209,30.17707,9.77409,41.7689,7.58177,87.28431,32.497,127.96706l56.14267-24.2747S3111.15693,1400.23727,3111.15693,1378.81814Z"/><path class="cls-10" d="M3022.35428,1376.14083s.44625,25.06592,27.66708,23.46563,61.58156-36.33394,49.08675-57.343S3039.31153,1341.33478,3022.35428,1376.14083Z"/><path class="cls-5" d="M3022.54982,1367.29282s-22.53231-81.20219-14.7861-103.23035,20.5957-55.35116,40.27041-58.83926c38.036-19.91031,62.9192-24.2312,68.83145-6.06971s24.294,74.93015,18.98322,85.36114-41.12352,30.99927-45.8143,41.64827,9.73516,12.15162,2.41232,36.06558S3037.47068,1398.39769,3022.54982,1367.29282Z"/><path class="cls-10" d="M3606.04038,1380.15691s20.97343,21.41911-2.23122,62.47241-49.08675,25.88142-50.87172,17.84926,11.15608-46.40808,22.31216-63.36487S3599.793,1375.24837,3606.04038,1380.15691Z"/><path class="cls-5" d="M3602.024,1390.4203s-16.957-33.31868-30.6418-82.10665-102.33844-33.91359-102.33844-33.91359-45.8143,91.03121-35.69946,104.12067,113.62116,59.98143,124.9481,77.1285C3581.22866,1490.3708,3619.7678,1408.72531,3602.024,1390.4203Z"/><path class="Graphic-Style-219" d="M3328.92336,910.72141l-33.9145,16.21308,6.43183,36.25117S3332.04706,925.44705,3328.92336,910.72141Z"/><path class="Graphic-Style-216" d="M3460.29086,958.286c-5.04115-55.45182-36.0451-96.74147-75.33006-128.29088-1.34128,10.9381,3.60392,25.60859,13.57648,46.96135,16.43384,35.18783-1.48718,108.28548,78.24132,133.27453,42.79226,13.41218,66.37217,24.76709,78.86629,35.72161a66.60385,66.60385,0,0,0-11.90923-20.37242C3516.818,998.6625,3465.6744,998.6625,3460.29086,958.286Z"/><path class="Graphic-Style-218" d="M3577.92689,1034.03007c63.06924,26.17885,44.62445,9.22206,75.39906,24.90919,0-57.0379-123.50258-86.28721-145.26541-153.424-21.76218-67.13663,0-245.12975-59.12951-300.84444-96.24252-90.68385-235.13864-16.10822-232.75837,16.82848,0,0,14.89475,74.23521,85.67851,55.54546,70.78376-18.68958,79.4078,41.6483,68.26351,65.44738-11.14428,23.79891-.08872,30.35139,15.92783,15.17191s52.65638,24.09645,9.81746,54.98852c-6.54673,4.721-10.03039,10.25547-10.89917,17.34255,39.285,31.54941,70.28891,72.83906,75.33006,128.29088,5.38354,40.37651,56.52712,40.37651,83.4448,67.29419a66.60385,66.60385,0,0,1,11.90923,20.37242c10.78415,9.45553,13.3136,18.61286,12.76223,28.53579C3568.40712,1074.48839,3614.81645,1066.1586,3577.92689,1034.03007Z"/><path class="cls-11" d="M4986.5938,2821.88081c4.82232,21.76871,21.12242,38.42454,33.46761,48.15507q11.6487,1.52217,23.74878,2.30832c35.37915,2.30836,69.21653-13.06072,99.13048-35.49137-21.00865-5.13795-66.86087-18.04586-78.93408-35.45959-15.83036-22.79957-1.12733-26.804,6.75213-16.9999,8.1473,14.59417,63.34864,32.23914,88.16467,39.54861a396.784,396.784,0,0,0,40.49185-41.1603c-20.42562-.98283-47.889-7.73972-55.61688-17.85354-10.02046-13.11286,2.2311-20.38814,12.12806-12.06139,7.26058,6.115,41.47635,9.38943,59.14045,10.70984a557.20913,557.20913,0,0,0,42.24061-62.61173c.655-1.15183,1.00131-1.78237,1.00131-1.78237A661.433,661.433,0,0,0,5197.609,2637.442c-14.14082,2.99242-35.55345,8.05626-46.83587,13.39374-17.7505,8.39532-29.30994,17.41231-34.66545,10.70958-8.711-15.85263,40.376-30.3372,66.77859-36.8568a450.94025,450.94025,0,0,0-52.64446-38.41551c-82.80414,6.767-79.18995,63.06878-97.49338,44.4536-15.86018-16.13537,50.32195-44.85232,77.54184-55.74875-18.48944-9.53446-37.42955-16.61655-55.98709-19.51478-17.048-1.96236-32.65184-3.1349-46.91057-3.599-39.40781,26.12859-16.49723,70.66566-38.773,62.27437-17.39733-6.55324,4.238-43.389,16.92367-62.45141-192.58912,3.844-98.58678,154.67949-98.58678,154.67949-.28843.61635-.55487,1.22611-.83306,1.83905-37.34923,82.34783,16.43748,135.651,101.08895,155.85717-4.88342-15.44583-13.6728-43.77977-14.40784-49.34237C4971.75559,2806.98472,4983.70286,2802.92805,4986.5938,2821.88081Z"/><path class="cls-12" d="M5221.77655,2701.855s-232.78555,16.203-334.82613,4.51014"/><path class="cls-12" d="M5125.44853,2762.01416s-38.9356-19.08879-69.79492-52.35535"/><path class="cls-12" d="M5078.94388,2648.41475s-56.29469,37.718-57.55469,61.9462"/><path class="cls-12" d="M5028.47092,2806.38589s-48.24516-63.70308-56.43711-95.85844"/><path class="cls-12" d="M4934.55956,2637.21419s-31.53813,36.72022-19.52011,71.52089"/><path class="cls-13" d="M4461.14349,2643.31q20.2242,2.47676,39.40287,6.04413c17.23227,16.60235,38.5351,44.53145,38.42121,79.36716-2.31656,30.197,19.49337,25.0047,20.66137,12.6929.87244-8.85123-3.2416-54.44732-5.64056-79.31264,136.89766,40.74461,207.89512,131.31752,109.97478,258.96268,0,0,101.98121,247.50456-226.14788,234.09325,28.77961-28.79527,79.50976-84.72936,52.49739-96.82871-34.58662-15.49286-12.69339,57.09767-89.49041,94.33964q-36.01233-3.26189-78.19686-10.42344c-30.3729-6.44937-59.80055-19.53916-87.5294-36.45385,50.3204-14.43984,173.51719-53.05809,152.76239-80.12179-23.954-31.22315-39.27235,57.97891-182.3007,60.28212-27.26767-19.97584-52.42374-42.95714-74.65894-65.93879,47.26715-7.617,136.04542-25.50733,127.30895-51.40146-6.53-11.11779-29.57218,1.9411-62.8785,13.3925-21.17027,7.28069-59.41908,13.10512-84.54449,16.39693-49.03315-54.69895-79.43647-103.55652-79.43647-103.55652s38.83933-45.10936,97.87753-97.23228c29.45874,3.86947,86.24688,12.49681,96.23284,22.87935,13.61445,14.13985,37.16709,3.89909,25.16616-17.80443-9.25475-16.73979-53.26329-30.17836-87.53422-33.79564a854.0894,854.0894,0,0,1,84.3616-60.84987c39.30757,14.04241,126.21667,47.46715,134.47612,71.31867,9.62947,16.26635,36.0943,11.43469,17.9292-26.141-13.84465-28.69731-86.7002-53.70131-120.37727-63.93311C4338.76488,2656.91829,4402.014,2636.09025,4461.14349,2643.31Z"/><path class="cls-12" d="M4094.33161,2894.32149s401.0173-2.02429,569.64117,26.745"/><path class="cls-12" d="M4280.6391,2809.14017s58.76935,34.05717,98.43869,89.66818"/><path class="cls-12" d="M4316.24163,2993.08792s109.85477-53.82081,121.222-91.92224"/><path class="cls-12" d="M4462.034,2748.935s57.56349,105.394,59.20839,156.95935"/><path class="cls-12" d="M4556.87537,3025.36267s67.48323-54.7501,60.35643-110.8763"/><path class="cls-11" d="M4513.42848,2318.55014q14.49128,10.27967,27.67635,21.11176c5.72312,21.648,9.4133,54.99554-6.5982,85.93268-15.59275,25.93187,3.6291,30.024,10.15916,19.54041,4.71989-7.5238,22.38388-49.71962,31.89669-72.79272,87.13041,90.9102,100.57552,199.819-33.416,274.23963,0,0-34.35361,260.85651-281.70652,117.885,35.395-14.1167,100.15223-43.60417,84.81554-65.15306-19.6367-27.59195-35.90532,45.71294-112.25529,48.16556-17.55259-11.52212-36.08647-24.96247-55.64332-40.49969-20.51537-17.86591-37.26516-41.26027-50.95422-67.378,45.47355,7.25356,158.29693,22.10737,154.63454-10.25165-4.23251-37.336-56.84068,35.882-168.38443-19.1902-11.93354-28.65613-20.862-59.142-27.534-88.46168,39.99611,12.10242,116.756,31.64585,121.84332,5.12676.03752-12.49592-23.73211-10.08372-54.69608-13.20033-19.68229-1.9793-51.89228-12.07435-72.80662-19.18088-12.87556-68.231-14.02949-123.82659-14.02949-123.82659s50.62344-24.60883,120.05667-47.38873c20.98843,15.20629,60.9143,45.55863,63.88267,58.78082,4.05393,18.013,26.92969,18.3111,27.57959-5.78462.50243-18.58427-27.35183-48.11193-52.173-65.01575a753.14713,753.14713,0,0,1,92.98494-20.42829c23.94669,28.18732,75.80634,92.62355,71.28424,117.13546.00347,18.31285,22.6564,24.58476,25.79963-16.08929,2.4225-31.05224-42.42979-82.38663-63.7687-104.93619C4412.6693,2281.77939,4471.05046,2288.51461,4513.42848,2318.55014Z"/><path class="cls-12" d="M4115.32413,2395.30573s310.7155,158.3522,427.82873,251.282"/><path class="cls-12" d="M4298.18536,2393.95094s29.8323,53.76066,35.05731,119.06325"/><path class="cls-12" d="M4241.60554,2571.77112s109.46567-3.99559,135.6633-33.343"/><path class="cls-12" d="M4465.83483,2412.8478s-3.70756,116.72556-26.00754,163.24428"/><path class="cls-12" d="M4412.7448,2696.57693s77.158-21.74384,97.30793-74.50826"/><path class="cls-11" d="M4874.70437,2539.85678c17.09847-4.332,28.56316-17.23982,34.89888-26.92784q-.25555-8.908-1.16805-18.1369c-2.66009-26.98454-19.5097-52.25736-41.60324-74.33023-1.48646,16.13864-6.10954,51.4135-18.73336,61.12882-16.52523,12.73768-21.67059,1.67463-14.70212-4.6184,10.83269-6.64279,18.11177-49.17426,20.87714-68.2755a381.71248,381.71248,0,0,0-38.69429-29.549c1.82051,15.56846-.15549,36.6668-7.39551,42.85394-9.38677,8.02262-16.87974-1.0758-11.37245-8.85859,4.04538-5.70977,2.32084-31.83874,1.12936-45.31669a543.18721,543.18721,0,0,0-56.37752-30.22541c-1.02149-.46314-1.5791-.7074-1.5791-.7074a432.30359,432.30359,0,0,0-42.46216,48.05848c4.2496,10.66621,11.118,26.8012,16.9095,35.22143,9.11,13.24753,17.93173,21.76636,13.16357,26.04479-11.78461,7.11-29.87071-29.7907-38.56409-49.67737a288.52413,288.52413,0,0,0-24.51184,41.21947c16.13056,62.78577,61.48977,58.32015,48.6874,72.81165-11.09755,12.55723-42.96026-36.91452-55.3207-57.28951-5.38789,14.3562-8.722,28.98049-8.70008,43.18621.59,13.02883,1.63749,24.935,3.089,35.79624,26.3212,29.18246,59.62983,10.396,55.6581,27.59777-3.10164,13.43452-35.85713-1.9014-52.99912-10.97081,27.83593,146.39219,138.53835,70.28356,138.53835,70.28356.53864.20063,1.06909.38474,1.60364.57768,71.81284,25.90278,108.29491-16.63945,113.88032-81.65275-11.94456,4.18581-33.8774,11.73587-38.3104,12.46461C4864.48434,2551.5988,4859.65,2542.63374,4874.70437,2539.85678Z"/><path class="cls-12" d="M4746.846,2364.60353s43.05152,176.59432,46.62577,254.57662"/><path class="cls-12" d="M4808.16632,2436.04991s-10.54092,30.20155-33.657,54.69135"/><path class="cls-12" d="M4721.67611,2474.89035s37.92,41.67566,57.80052,41.89567"/><path class="cls-12" d="M4856.72091,2508.47168s-45.65728,38.64359-70.77694,45.85565"/><path class="cls-12" d="M4731.08335,2585.07s33.93191,22.87287,60.71369,12.66955"/><path class="cls-14" d="M4793.472,2619.17554s19.89492,2.89313-30.5022,245.86062"/><path class="cls-14" d="M4530.80729,2637.08194s215.62974,63.71075,232.16254,232.49722"/><path class="cls-14" d="M4646.88856,2921.06648c5.30331-1.90254,96.04175-10.129,126.06415,11.109"/><path class="Graphic-Style-216" d="M4705.20148,3183.23775s85.05709-217.90364,44.7277-348.21037c42.96934,54.13562,39.42477,214.77894,10.85252,276.65637l-10.72253,47.598Z"/><path class="cls-14" d="M4762.96983,2869.57916s150.122-48.09877,176.75826,206.69236"/><path class="cls-11" d="M4720.97187,3263.99059q-2.083-14.71846-2.899-29.05182c12.01-17.01,33.90066-40.32146,67.06147-50.98521,29.23194-7.71348,19.50608-21.16117,7.53872-18.17048-8.6108,2.12749-51.07894,19.02671-74.20437,28.34975,8.70983-107.02388,79.28033-183.94224,222.18842-155.73933,0,0,213.04386-146.69039,272.30536,83.85438-33.70673-10.97829-98.0457-28.73362-103.6259-6.364-7.14571,28.64233,57.0974-8.84886,109.37759,32.65673a537.97864,537.97864,0,0,1,7.248,57.17014c.53165,22.94611-5.46055,47.2877-15.46387,71.63662-24.77962-30.26825-88.55283-103.36527-109.74059-80.69879-24.44206,26.15659,63.76924,9.21889,97.35217,107.19822-13.0163,24.97467-29.35487,49.41914-46.33484,71.84831-17.61954-30.26548-54.12212-86.00561-76.83518-71.99244-9.14206,7.93408,8.33693,19.80623,26.53967,39.25631,11.57189,12.36233,25.507,36.95792,34.15276,53.27936a874.46941,874.46941,0,0,1-81.06833,86.745,1027.29343,1027.29343,0,0,1-113.9699-37.55184c-2.785-21.51976-7.04262-63.364.64153-73.456,10.46174-13.75431-4.44866-26.84767-22.45912-11.87428-13.89168,11.54785-17.0154,46.05782-12.93432,70.82023-25.69008-11.38273-51.9712-24.54992-76.39637-39.44514,4.72988-31.45251,17.4486-101.727,38.32342-114.78119,13.35909-11.66041,2.95466-28.4312-28.80049-4.31-24.25829,18.40224-32.05169,76.3831-34.39269,102.77548C4760.776,3344.23544,4727.08225,3307.01635,4720.97187,3263.99059Z"/><path class="cls-12" d="M5040.24306,3439.686s-89.94152-276.07774-99.586-401.29986"/><path class="cls-12" d="M4918.32729,3337.40134s19.49645-51.05311,63.68708-95.57381"/><path class="cls-12" d="M5085.48469,3256.11135s-75.30559-59.203-114.04267-55.297"/><path class="cls-12" d="M4821.24712,3230.80444s87.6169-72.21933,136.30492-89.25558"/><path class="cls-12" d="M5063.36978,3080.12143s-66.88976-29.68006-118.71292-7.45485"/><path class="cls-14" d="M4757.68807,2971.11881s.46952-329.78466,125.05408-264.889"/><path class="Graphic-Style-211" d="M1866.76452,2664.86657c37.68475-16.15061,26.91768-91.5201,56.52712-131.89661,16.60668-20.75835,54.01673-23.89634,83.85092-16.84343V2393.93945h-571.119c75.493,67.629,192.02534,93.79439,196.28216,172.741,2.02178,37.69362-22.28956,73.35937-62.35,107.06512C1671.7369,2682.16492,1775.55757,2698.74367,1866.76452,2664.86657Z"/><path class="cls-15" d="M1923.29164,2532.97c-29.60944,40.37651-18.84237,115.746-56.52712,131.89661-91.207,33.8771-195.02762,17.29835-296.80876,8.879-35.3541,29.74613-82.97393,57.96566-135.5853,84.70491h572.7721v-242.324C1977.30837,2509.07362,1939.89832,2512.21161,1923.29164,2532.97Z"/><polygon class="Graphic-Style-213" points="2092.826 2741.6 2007.142 2758.451 2007.142 2393.939 2085.691 2431.021 2092.826 2741.6"/><path class="Graphic-Style-212" d="M4569.99111,561.3138H4008.62517a135.7465,135.7465,0,0,0-135.7478,135.74455v4.2387H3653.32588l219.55149,89.45273V949.45341a135.74637,135.74637,0,0,0,135.7478,135.74439h561.36594a135.7465,135.7465,0,0,0,135.74841-135.74439V697.05835A135.74663,135.74663,0,0,0,4569.99111,561.3138Z"/><path class="Graphic-Style-211" d="M3948.19609,932.49831s23.85939-68.36721,66.10477-58.04152,100.38447-3.42582,126.81134-69.80789,76.34427,11.086,104.53292,22.31323,36.41035-84.20439,63.42448-113.39525,46.98109-24.7,68.12258,14.59543,41.10845-38.17266,61.07542-59.50444,37.58487-21.33178,61.07542-14.59543,15.26885,34.80448,44.632,39.29538,81.04238-52.76808,81.04238-52.76808V945.971H3948.19609Z"/><rect class="Graphic-Style-210" x="3948.19609" y="961.89389" width="676.82134" height="33.31862"/><path class="cls-4" d="M2381.89644,1778.9391s64.35788-17.84926,69.11781-72.587"/><path class="cls-4" d="M2865.12793,1699.21241s15.52644,59.49753,46.43763,79.72669"/><path class="Graphic-Style-208" d="M4960.228,2026.22751s201.74637,139.25418,164.12025,294.01236,116.12091,97.5658,110.50695-39.61427-91.89122-280.76167-200.71976-304.07409S4940.16372,2011.00173,4960.228,2026.22751Z"/><ellipse class="Graphic-Style-208" cx="4298.18536" cy="3439.68604" rx="180.4272" ry="141.98613"/><ellipse class="Graphic-Style-206" cx="1635.67303" cy="1501.1827" rx="130.42341" ry="131.74438"/><ellipse class="Graphic-Style-206" cx="4587.31719" cy="3281.03517" rx="90.5782" ry="91.89796"/><ellipse class="Graphic-Style-207" cx="1434.37065" cy="3359.49941" rx="244.45098" ry="225.1977"/><ellipse class="Graphic-Style-206" cx="4705.20148" cy="1888.92376" rx="205.93072" ry="189.71134"/></svg>