<?xml version="1.0" encoding="utf-8"?>
<!-- Generator: Adobe Illustrator 22.0.0, SVG Export Plug-In . SVG Version: 6.00 Build 0)  -->
<svg version="1.1" id="Layer_1" xmlns="http://www.w3.org/2000/svg" xmlns:xlink="http://www.w3.org/1999/xlink" x="0px" y="0px"
	 viewBox="0 0 4000 4000" style="enable-background:new 0 0 4000 4000;" xml:space="preserve">
<style type="text/css">
	.st0{fill:url(#SVGID_1_);}
	.st1{fill:url(#SVGID_2_);}
	.st2{fill:url(#SVGID_3_);}
	.st3{fill:url(#SVGID_4_);}
	.st4{fill:#FFFFFF;}
	.st5{fill:#6584C6;}
	.st6{fill:#3B546B;}
	.st7{fill:#7BA2F2;}
	.st8{fill:#4D73C6;}
	.st9{fill:#4669B5;}
	.st10{fill:#127755;}
	.st11{fill:#572658;}
	.st12{fill:#B080B0;}
	.st13{fill:#1A1A1A;}
	.st14{fill:#FFDE70;}
	.st15{fill:#CF8F11;}
	.st16{fill:#FFC44D;}
	.st17{fill:#FFB114;}
	.st18{fill:#102140;}
	.st19{fill:#DB6767;}
	.st20{fill:#FC9590;}
	.st21{fill:#EF5668;}
	.st22{fill:#E04458;}
	.st23{fill:#6E5401;}
	.st24{fill:#F2E2A7;}
	.st25{fill:#FFEFBA;}
	.st26{fill:#DBD2DB;}
	.st27{fill:#D9D9D9;}
	.st28{fill:url(#SVGID_5_);}
	.st29{fill:url(#SVGID_6_);}
	.st30{fill:url(#SVGID_7_);}
	.st31{fill:url(#SVGID_8_);}
	.st32{fill:url(#SVGID_9_);}
</style>
<g>
	<linearGradient id="SVGID_1_" gradientUnits="userSpaceOnUse" x1="1045.6412" y1="1950.8967" x2="3695.5159" y2="1950.8967">
		<stop  offset="0" style="stop-color:#68B2FC"/>
		<stop  offset="1" style="stop-color:#529BF7"/>
	</linearGradient>
	<path class="st0" d="M3231.3,2529.3c-70.6-430.4,553.9-697.3,453.2-1093.7c-58.1-228.8-287-222.1-332.3-489.5
		c-44.9-264.4,154.9-412,66.5-586.1c-83.9-165.2-343-188.4-398.8-193.4c-364.1-32.5-447.3,229.9-912.4,350.5
		c-116.3,30.2-200.6,36.9-276.7,35.4c0,0.1,0,0.1,0,0.2c19.8,265.6,19.8,528.4,8.5,791.1c0,14.1-11.3,28.3-17,42.4
		c-22.6,84.8-33.9,169.5-73.5,245.8c-59.3,115.8-98.9,231.7-149.8,347.5c-8.5,17-25.4,31.1-36.7,48
		c-33.9,56.5-56.5,110.2-96.1,163.9c-5.7,11.3-5.7,25.4-11.3,36.7c-28.3,36.7-45.2,70.6-73.5,107.4c-5.7,8.5,0,22.6-5.7,31.1
		c-50.9,70.6-101.7,127.1-146.9,200.6c-56.2,90.4-113.9,173.6-183.1,251.7c52.9,131.4,113.2,282.1,245.9,459.6
		c95.5,127.6,217.8,291.2,410.9,386.7c262.1,129.6,519.5,67.1,942.7-42.3c485.6-125.6,967.9-250.2,997-495.5
		C3668.8,2903.3,3284.3,2852.2,3231.3,2529.3z"/>
	<linearGradient id="SVGID_2_" gradientUnits="userSpaceOnUse" x1="592.6046" y1="2047.0088" x2="3706.4954" y2="2047.0088">
		<stop  offset="0" style="stop-color:#68B2FC"/>
		<stop  offset="1" style="stop-color:#EBF0F7"/>
	</linearGradient>
	<path class="st1" d="M592.6,2680.4c2.6,121.5,138.3,147.2,165.2,269.9c28.8,131.3-107.2,190.7-72.5,306.2
		c29.5,98.2,163.1,173,269.9,157.1c107.9-16,109.6-112.9,249.8-177.3c102.6-47.1,236.1-56.9,338.4-12.1
		c140.9,61.8,149,195,241.7,322.3c236.9,325.2,793.4,291.6,886.3,286c357.9-21.6,838.6-200.7,870.2-455.2
		c16.7-134.5-87.3-327.8-145-435.1c-71.5-133-129.6-189-112.8-273.9c17.7-89.4,97.4-105.1,201.4-209.5
		c39.8-39.9,188.2-198.2,217.5-427c2.6-20.3,34.4-300.9-141-503.6c-93.4-107.9-147.4-80.3-225.6-189.3
		c-78-108.7-87.4-224.2-100.7-414.9c-21-302.5,37.6-343.3-20.1-447.2c-78.6-141.4-271.5-217.5-427-209.5
		c-154.8,8-181.3,94.6-402.8,132.9c-124.6,21.6-222.1,12.5-306.2,4c-299.2-30-350.8-131.5-539.8-145
		c-296.6-21.2-534.1,202.8-588.2,253.8C691.3,758.2,662.4,1072.8,649,1218c-14.4,156.6-37.9,412.3,112.8,616.4
		c89,120.6,164.1,122,173.2,209.5c11.9,114.2-107.6,193.3-298.1,511.6C611.1,2598.7,591.7,2633.4,592.6,2680.4z"/>
	<linearGradient id="SVGID_3_" gradientUnits="userSpaceOnUse" x1="592.6046" y1="2047.0088" x2="3706.4954" y2="2047.0088">
		<stop  offset="0" style="stop-color:#68B2FC"/>
		<stop  offset="1" style="stop-color:#EBF0F7"/>
	</linearGradient>
	<path class="st2" d="M592.6,2680.4c2.6,121.5,138.3,147.2,165.2,269.9c28.8,131.3-107.2,190.7-72.5,306.2
		c29.5,98.2,163.1,173,269.9,157.1c107.9-16,109.6-112.9,249.8-177.3c102.6-47.1,236.1-56.9,338.4-12.1
		c140.9,61.8,149,195,241.7,322.3c236.9,325.2,793.4,291.6,886.3,286c357.9-21.6,838.6-200.7,870.2-455.2
		c16.7-134.5-87.3-327.8-145-435.1c-71.5-133-129.6-189-112.8-273.9c17.7-89.4,97.4-105.1,201.4-209.5
		c39.8-39.9,188.2-198.2,217.5-427c2.6-20.3,34.4-300.9-141-503.6c-93.4-107.9-147.4-80.3-225.6-189.3
		c-78-108.7-87.4-224.2-100.7-414.9c-21-302.5,37.6-343.3-20.1-447.2c-78.6-141.4-271.5-217.5-427-209.5
		c-154.8,8-181.3,94.6-402.8,132.9c-124.6,21.6-222.1,12.5-306.2,4c-299.2-30-350.8-131.5-539.8-145
		c-296.6-21.2-534.1,202.8-588.2,253.8C691.3,758.2,662.4,1072.8,649,1218c-14.4,156.6-37.9,412.3,112.8,616.4
		c89,120.6,164.1,122,173.2,209.5c11.9,114.2-107.6,193.3-298.1,511.6C611.1,2598.7,591.7,2633.4,592.6,2680.4z"/>
	<linearGradient id="SVGID_4_" gradientUnits="userSpaceOnUse" x1="2786.7444" y1="1276.7782" x2="3660.1997" y2="1276.7782">
		<stop  offset="0" style="stop-color:#68B2FC"/>
		<stop  offset="1" style="stop-color:#EBF0F7"/>
	</linearGradient>
	<path class="st3" d="M3660.2,2193.5c-5.1,12.8-10.5,25.3-16.1,37.3c-9.2,19.8-18.9,38.4-28.9,56l-828.5-73.5l4.8-1946.2
		c18.3-0.8,37.1-0.5,56.1,1c13.7,1.1,27.6,2.7,41.5,4.9l-4.5,1851.6L3660.2,2193.5z"/>
	<path class="st4" d="M784,1862.4c79,93.4,142.7,101.4,151.1,181.5c5.7,54.5-18.6,100.9-66.1,169.2h2783.2
		c23.2-53.6,42-114.4,50.5-181.3c2.6-20.3,34.4-300.9-141-503.6c-81.2-93.7-132.6-85.2-196-153
		c-400.4,181.8-1147.2,471.2-1761.1,425.5C1242.6,1773.9,974.5,1810.2,784,1862.4z"/>
	<g>
		<path class="st5" d="M3674.3,2194.8c-2.3,14.1-4.4,26.9-6.2,38.2c-5.9,36.4-9.4,57.7-9.4,57.7l-43.4-3.8l-828.5-73.5l4.8-1946.2
			c18.3-0.8,37.1-0.5,56.1,1c13.7,1.1,27.6,2.7,41.5,4.9l-4.5,1851.6l775.6,68.8L3674.3,2194.8z"/>
		<path class="st6" d="M3674.3,2194.8c-2.3,14.1-4.4,26.9-6.2,38.2l-23.9-2.1l-801.1-71l4.6-1891.6c13.7,1.1,27.6,2.7,41.5,4.9
			l-4.5,1851.6l775.6,68.8L3674.3,2194.8z"/>
		<path class="st7" d="M3235.3,671.8l-365.9-19.2l5.9-2.1L3235,524.3C3246.2,565.6,3240.4,604.9,3235.3,671.8z"/>
		<path class="st6" d="M3235.3,671.8c-1.5,20.2-3,43-3.9,69.1l-366.9-19.3l1.6-69.3l9.3-1.8l-5.9,2.1L3235.3,671.8z"/>
		<path class="st7" d="M3299,1276.8l-294.5-15.5l-149.5-7.9l398-139.6C3262,1175.4,3275.4,1227.9,3299,1276.8z"/>
		<path class="st7" d="M3674.2,1751.2l-37.2-1.9l-791-41.6l661.3-232c16.7,13.2,34.6,29.9,54.2,52.6c26.2,30.3,47.8,62.2,65.5,94.9
			C3655.4,1660.6,3669.8,1703.9,3674.2,1751.2z"/>
		<polygon class="st6" points="3697,1835.9 2840.1,1790.8 2846,1707.7 3678.8,1751.5 		"/>
		<path class="st6" d="M3337.6,1341l-487.1-25.6l2.2-62l2.3,0.1l-0.1,0.1l149.6,7.9l294.5,15.5c10.3,21.2,22.4,41.8,37,62.1
			C3336.5,1339.6,3337,1340.3,3337.6,1341z"/>
	</g>
	<path class="st8" d="M3283.7,2668.3c17.7-89.4,97.4-105.1,201.4-209.5c28.2-28.3,110.8-115.8,167-245.7H868.9
		c-52.2,74.9-132.3,175.9-232,342.4c-25.9,43.2-45.3,77.9-44.3,124.9c2.6,121.5,138.3,147.2,165.2,269.9
		c28.8,131.3-107.2,190.7-72.5,306.2c29.5,98.2,163.1,173,269.9,157.1c107.9-16,109.6-112.9,249.8-177.3
		c102.6-47.1,236.1-56.9,338.4-12.1c140.9,61.8,149,195,241.7,322.3c236.9,325.2,793.4,291.6,886.3,286
		c357.9-21.6,838.6-200.7,870.2-455.2c16.7-134.5-87.3-327.8-145-435.1C3324.9,2809.2,3266.8,2753.2,3283.7,2668.3z"/>
	<path class="st9" d="M2850.5,2950.9c0,0,215.6-119.9,94.8-253.6c-120.9-133.7-137-157.9-146.4-180.7c-9.4-22.8,84.9-52.5,47-169.9
		c-27-83.5-220.2-98.9-220.2-98.9s-687.5,17.1-772.1,106S2850.5,2950.9,2850.5,2950.9z"/>
	<path class="st6" d="M705.2,3178.6l346.7-69.8l94.8,161c0,0-29,26.6-68.6,62.4C927,3286,705.2,3178.6,705.2,3178.6z"/>
	<polygon class="st6" points="876.6,2814.7 1091.1,2710.6 1411.8,2343.3 1417.1,2311.8 1289.6,2301.8 824.9,2769 	"/>
	<g>
		<path class="st10" d="M796.1,2175.8c0,0-133.6-63.4-114.8-136c18.8-72.5,80.6-80.6,80.6-80.6s-197-170.5-82.4-283.3
			c114.6-112.8,302.6,182.6,302.6,182.6s-303.5-516.7-169.2-601.2s197.8,311.2,197.8,311.2s6-199.4,120.9-196.4
			s51.4,296.1,51.4,296.1s155.1-184.3,245.1-113.1s-112.8,390.8-112.8,390.8s37.6-59.1,75.2,9.4c37.6,68.5-87.3,163.8-87.3,163.8
			S876.5,2230.6,796.1,2175.8z"/>
		<polygon class="st11" points="1047.3,2131.2 1312.4,2121.8 1258.7,2430.6 1022.3,2437.3 		"/>
		<polygon class="st12" points="1391,2058 1312.4,2121.8 1258.7,2430.6 1343.3,2359.4 		"/>
		<path class="st13" d="M1012.9,2108.1c2,0.9,269.9-9.2,269.9-9.2l81.8-41h26.3l-78.6,63.8l-329,8.7L1012.9,2108.1z"/>
	</g>
	<g>
		<polygon class="st14" points="465.1,2492.4 866.6,2516.5 1184.8,2191 932.4,2221.1 		"/>
		<polygon class="st15" points="876.6,2373.2 977.4,2358.1 1137.6,2196.6 1022.3,2203.2 		"/>
		<polygon class="st16" points="482.5,2739.5 876.6,2814.7 866.6,2516.5 465.1,2492.4 		"/>
		<polygon class="st17" points="1192.9,2427.9 1184.8,2191 866.6,2516.5 876.6,2814.7 		"/>
		<polygon class="st14" points="872.6,2089.2 643.6,2250.3 866.6,2250.3 1065,2089.2 		"/>
		<polygon class="st16" points="664.1,2348 643.6,2250.3 866.6,2250.3 876.6,2373.2 		"/>
		<polygon class="st17" points="1065,2089.2 1078.1,2206 876.6,2373.2 866.6,2250.3 		"/>
		<polygon class="st4" points="679.6,2551.5 833.3,2562.5 834,2646.5 685,2629 		"/>
	</g>
	<path class="st14" d="M2002.6,3270.5l-197.5,301.7c-6.9-8.3-13.6-16.9-20.1-25.8c-73.2-100.5-93.6-204.7-168.4-274.5L2002.6,3270.5
		z"/>
	<path class="st6" d="M1895.7,3658.9c0,0,41.6,43.3,81,52.7c83.7-196,201-326.2,201-326.2l-193.9-16.1L1895.7,3658.9z"/>
	<path class="st17" d="M2022.7,3416.9c0,1.5-81.4,155.7-127,241.9c-32.9-25.2-63.5-53.9-90.6-86.6l197.5-301.7
		C2002.6,3270.5,2022.7,3414.9,2022.7,3416.9z"/>
	<path class="st14" d="M1091.1,3318.3c-43.1,44.8-69.3,85.4-135.9,95.3c-106.8,15.9-240.5-58.9-269.9-157.1
		c-15.3-50.9,2.6-91,24.9-131c109.5-21.7,247.6-48.9,251.7-48.9C966.2,3076.5,1039,3216.9,1091.1,3318.3z"/>
	<polygon class="st17" points="919.6,3119.5 998.8,3296.7 843,3327.6 771.9,3143.6 	"/>
	<g>
		<path class="st18" d="M2178.5,887.4c0,0,16.3-51.9,53.8-23.9c26.7,17.5,26.7,17.5,26.7,17.5s36.3-48.9,81.9-9.7
			c45.7,39.2,60.4,204.2,41.6,303c-18.8,98.8,41.6,170,68.5,182.1c26.9,12.1,95.3,107.4,65.1,157.8c-98.7,0-337.7-76.5-337.7-76.5
			V887.4z"/>
		<path class="st4" d="M1944.2,2732.7c0,0,131.9-32.2,267.9,26.2c136,58.4,184.3,160.1,126.9,154.1c-57.4-6-206.5-44.3-264.9-37.3
			C2015.7,2882.8,1944.2,2732.7,1944.2,2732.7z"/>
		<path class="st18" d="M1667.2,2628c0,0,98.7-16.1,167.2-9.1c68.5,7.1,194.4,105.7,208.1,112.8c13.7,7.1,61.8,60.4,82.9,98.7
			c21.1,38.3,10.1,63.4,10.1,63.4s-80.6,6-320.3,22.2c-239.7,16.1-686.9-67.8-668.1-220.9c18.8-153.1,725.5-420.6,725.5-420.6
			s91.6-50.4,219.6-38.3c127.9,12.1,170.2,43.3,170.2,43.3l-365.9,349.1"/>
		<path class="st13" d="M2108.6,2804.1c-105.4,6-781.8,39.9-849.9-71.3c-45.5-74.2,113.3-206.6,242.1-297.5
			c-173.6,84.5-344.5,185.7-353.6,259.9c-18.8,153.1,428.4,237,668.1,220.9c239.7-16.1,320.3-22.2,320.3-22.2s11.1-25.2-10.1-63.4
			C2120.9,2822.1,2115,2813.1,2108.6,2804.1z"/>
		<path class="st18" d="M2703.6,2985.2c-255.1,17.5-661-253.4-661-253.4l-139.5-37.9l-93.8-25.5l316.2-463.3
			c70.5-14.1,218.5,60.4,218.5,60.4s326.3,241,476.9,383.5c31.4,29.6,55.1,55,66.7,73.1C2954.7,2826.7,2958.7,2967.7,2703.6,2985.2z
			"/>
		<path class="st13" d="M2022.7,2565.6c0,0-155.8,3.4-311.5,29.1c64.7-64.6,263.1-166,400.1-131.8s66.3,154.4,66.3,154.4
			S2075.2,2561.9,2022.7,2565.6z"/>
		<path class="st13" d="M2703.6,2985.2c-255.1,17.5-661-253.4-661-253.4l-139.5-37.9c39.1-9.7,117.6-7.8,272.8,49.7
			c279.3,103.4,537.1,247.1,683.5,149c43-29.6,52-95.2-38.5-243.6c31.4,29.6,55.1,55,66.7,73.1
			C2954.7,2826.7,2958.7,2967.7,2703.6,2985.2z"/>
		<path class="st19" d="M1909.7,1756.3c0,115.9,9.4,231.8,8.9,347.7c40.1,2.5,82.7,1,93.4-14.8c12.6-18.7,9.3-228.1-4.3-403.1
			c-22.3,12.3-45.3,23.8-66.9,36.3C1926.7,1728.1,1909.7,1742.2,1909.7,1756.3z"/>
		<path class="st20" d="M1981.1,1440.9c0,0-134.3,53.7-158.5,154.4c-24.2,100.7,17.5,499.5,17.5,499.5s38,6.6,78.5,9.1
			c0.5-115.9-8.9-231.8-8.9-347.7c0-14.1,17-28.3,31.1-33.9c21.6-12.6,44.6-24,66.9-36.3C1998.1,1562.9,1998.9,1451.5,1981.1,1440.9
			z"/>
		<path class="st21" d="M2240.3,2050.2c65-19.8,107.4-76.3,130-138.5c8.5-22.6,11.3-50.9,22.6-73.5c5.7-8.5,5.7-19.8,5.7-31.1
			c2.8-5.7,11.3-8.5,11.3-11.3c8.5-36.7,31.1-70.6,19.8-107.4c-6.1-18.3-10-36.6-13.2-55.1c-53.7-59-71.5-158.1-38.2-260.3
			c-32.2-3-64.5-0.5-64.5-0.5s-299.1,28-340.1,69c36.3,29.5,33.9,180.6-51.1,292.1c0,0,2.6,124.3,15.2,249.4
			C2021,2052.4,2131.6,2082.6,2240.3,2050.2z"/>
		<path class="st22" d="M2455.1,1665.2c-14.4-8.5-27.3-19.3-38.7-31.8c3.2,18.5,7.1,36.8,13.2,55.1c11.3,36.7-11.3,70.6-19.8,107.4
			c0,2.8-8.5,5.7-11.3,11.3c0,11.3,0,22.6-5.7,31.1c-11.3,22.6-14.1,50.9-22.6,73.5c-22.6,62.2-65,118.7-130,138.5
			c-108.7,32.4-219.3,2.2-302.4-67.1c10.6,104.4,27.8,215.9,55.3,273.6c224.3,94.7,482.1,43.6,535.8,8.7
			C2582.7,2230.5,2461.2,1690,2455.1,1665.2z"/>
		<g>
			<polygon class="st23" points="1995.9,2371.5 2349.1,2438.7 2798.9,2162 2490.1,2105 			"/>
			<path class="st24" d="M2149.6,2384.3l-153.7-12.8c0,0,477-258.2,481.1-260.2c4-2,130.5,15.3,130.5,15.3L2149.6,2384.3z"/>
			<path class="st16" d="M2076.5,2657.5c0-8.1-80.6-286-80.6-286l353.2,67.1l30.2,294.1L2076.5,2657.5z"/>
			<polygon class="st17" points="2798.9,2162 2798.9,2438.7 2379.3,2732.7 2349.1,2438.7 			"/>
			<polygon class="st25" points="2220.1,2338 2349.1,2438.7 2798.9,2162 2676.7,2105 			"/>
			<polygon class="st26" points="2388.3,2469.9 2397.4,2571.6 2504.2,2504.1 2497.1,2397.4 			"/>
			<polygon class="st4" points="2402.9,2602.8 2504.2,2533.8 2504.2,2559.5 2402.9,2628 			"/>
		</g>
		<path class="st19" d="M1672.4,1925.9c-8.9,3-18.6,8.3-25.8,15.6c13.7,14.8,27.2,25.8,27.2,25.8s60.9-4.1,102.2-10.5
			C1748.6,1932.1,1714.2,1917.2,1672.4,1925.9z"/>
		<path class="st20" d="M1813.3,1945.2c-2-12.6-37.8-69.5-81.6-81.6c-43.8-12.1-88.6-13.1-109.3,16.1c-11.7,16.5,6.3,42.4,24.1,61.8
			c7.2-7.3,16.9-12.6,25.8-15.6c41.9-8.7,76.2,6.3,103.6,31C1797.7,1953.5,1814,1949.5,1813.3,1945.2z"/>
		<path class="st27" d="M1979.3,2220l-78.7-266c-4-13.4-16.8-22.1-30.7-20.9l-391.4,34.8c-18.9,1.7-31.3,20.7-25.1,38.7l94.4,275.3
			c4.5,13,17.4,21.2,31.1,19.6l375.7-44.2C1972.7,2255.3,1984.5,2237.4,1979.3,2220z"/>
		<path class="st6" d="M1966.2,2224.1l-76-252.6c-3.8-12.7-16.2-21-29.6-19.8l-377.9,33.1c-18.3,1.6-30.2,19.6-24.2,36.7l91.1,261.5
			c4.3,12.4,16.8,20.1,30.1,18.6l362.8-42C1959.8,2257.6,1971.2,2240.7,1966.2,2224.1z"/>
		<path class="st5" d="M1681.3,2108.3l-9.1,28.7c-2.1,6.7,2.1,13.8,9,15.1l44.5,8.6c11.3,2.2,18.7-11.4,10.8-19.7l-35.4-37.3
			C1695,2097.2,1684.1,2099.7,1681.3,2108.3z"/>
		<path class="st17" d="M2217.1,1502c0,0-15.1,60.4-82.6,67.5c-67.5,7-92-67.5-92-67.5S2126.5,1630.9,2217.1,1502z"/>
		<path class="st17" d="M2303.7,1574.6c0,0-15.1,158.1-91.6,171.2c-76.5,13.1-117.8-44.3-117.8-44.3s77,57.9,124.2,29.7
			C2265.6,1703,2303.7,1574.6,2303.7,1574.6z"/>
		<path class="st17" d="M2288.2,1832.4c0,0-41.8,85.6-129.5,84.6c-87.6-1-108.8-95.7-108.8-101.7
			C2049.9,1815.3,2134.6,2020.7,2288.2,1832.4z"/>
		<path class="st20" d="M1922,1058.2c0,0,21.5,294.8,152.4,290.1c14.8,33.6,34.9,95.3,35.6,97.4c0.7,2,53.7,45,159.8-39.6
			c-13.4-58.4-44.3-107.4-30.2-152.4c14.1-45,28.9-268.2-57.7-295.4C2095.3,931,1927.1,952.8,1922,1058.2z"/>
		<path class="st19" d="M2157,1312.7c0,0-24.8,26.2-82.6,35.6c13.7,34.4,13.7,34.4,13.7,34.4S2161.1,1353,2157,1312.7z"/>
		<path class="st18" d="M2015.7,1010.6c0,0,13.1,16.1-35.2,32.2c-48.3,16.1-56.4,147-37.3,211.5c15.1,44.3,12.1,38.3,12.1,38.3
			s-41.3-26.2-61.4-89.6c-20.1-63.5-39.3-196.4,17.1-222.6c41.3-25.2,54.4-20.1,54.4-20.1s-10.1-40.3,20.1-73.5
			c30.2-33.2,110.4-51.4,193-14.4c82.6,36.9,105.1,124.2,105.1,172.6c0,48.3,11.2,164.2-6.5,180.3s-50.4,28.7-50.4,28.7
			s18.4-54.4,5.7-83.1c26.1-2,35.6-62.3,7.9-98.4c-27.7-36.1-56.4,24.9-49.9,40.5c6.5,15.6,20.1,41.8,20.1,41.8s-0.5,16.1-19.1,5.5
			c-18.6-10.6-82.1-36.1-82.1-87.1c0-51-32.2-67.1-57.1-51.7C2028.1,1031.4,2015.7,1010.6,2015.7,1010.6z"/>
		<path class="st4" d="M2173.3,882.2c0,0-22.2-30.2,8.1-47.3c30.2-17.1,70.5-3.5,81.1,23.7c10.6,27.2,15.1,77.4-17.6,89
			c-11.1-22.6-11.1-22.6-11.1-22.6s11.6-41.3-11.6-54.9c-23.2-13.6-28.7,4.9-29.7,17.3C2179.9,889.2,2173.3,882.2,2173.3,882.2z"/>
		<path class="st17" d="M2264.5,1448.3c0,0,23.5-10.7,35.6-64.4c0.7-30.2-22.2-34.9-44.7-26.1c3,31-38.6,64.3-91.6,69.7
			c-53,5.4-72.5-39.3-72.5-39.3s-33.6-9.7-45.7,7c-12.1,16.8-16.8,15.4-4.7,30.9c12.1,15.4,34.2,61.1,92,49.7"/>
		<path class="st4" d="M1875.7,2603.8c0,0-19.2-27.7-49.3-23.6c-74.9,10.2-121.8,20.6-121.8,20.6s101.7,98.7,157.1,89.6
			C1896.5,2628.7,1875.7,2603.8,1875.7,2603.8z"/>
	</g>
	<path class="st6" d="M1655.1,281.4l-8.5,606L694,948.3c4.5-16.4,9.6-33.1,15.2-50.1c41.6-126.2,113.6-264.1,241.9-385.2
		c54.1-51,291.5-275,588.2-253.8c23.5,1.7,44.9,4.7,64.9,8.8C1622.1,271.7,1638.9,276.2,1655.1,281.4z"/>
	<linearGradient id="SVGID_5_" gradientUnits="userSpaceOnUse" x1="709.2183" y1="578.0423" x2="1604.2319" y2="578.0423">
		<stop  offset="0" style="stop-color:#68B2FC"/>
		<stop  offset="1" style="stop-color:#EBF0F7"/>
	</linearGradient>
	<path class="st28" d="M1604.2,268.1l-8.1,573.4l-886.9,56.7c41.6-126.2,113.6-264.1,241.9-385.2c54.1-51,291.5-275,588.2-253.8
		C1562.8,260.9,1584.2,264,1604.2,268.1z"/>
	<g>
		<polygon class="st14" points="3133.9,1907.1 2942.1,2098.8 3804.5,2209.3 3951.3,2006.6 		"/>
		<polygon class="st6" points="2932.5,2444.7 3458.9,2571.6 3831.5,2617.3 3936.3,2384.3 3529.4,2310.9 		"/>
		<polygon class="st16" points="2932.5,2444.7 2942.1,2098.8 3804.5,2209.3 3737.3,2561.9 		"/>
		<polygon class="st17" points="3951.3,2006.6 3887.6,2370.4 3737.3,2561.9 3804.5,2209.3 		"/>
		<polygon class="st16" points="3131.7,1791.1 3130.9,1987.5 3340,2139 3365.2,1944.7 		"/>
		<polygon class="st14" points="3574.4,1755.2 3131.7,1791.1 3365.2,1944.7 3839,1888.7 		"/>
		<polygon class="st15" points="3340,2139 3614.7,2139 3904.7,2070.9 3806.9,2023.7 		"/>
		<polygon class="st17" points="3807.2,2070.3 3839,1888.7 3365.2,1944.7 3340,2139 		"/>
		<polygon class="st14" points="3004.4,2162 3169.5,2184.9 3161.5,2284.2 2997.8,2271.3 		"/>
		<polygon class="st26" points="2993.6,2295.7 3157.8,2316.8 3157.8,2340 2992.3,2315.1 		"/>
		<polygon class="st14" points="2993.6,2340 3157.8,2361.1 3157.8,2384.3 2992.3,2359.4 		"/>
		<polygon class="st7" points="2993.6,2384.3 3157.8,2405.4 3157.8,2428.6 2992.3,2403.8 		"/>
		<polygon class="st4" points="3630.1,1944.7 3812.7,1925.7 3809.1,1944.7 3626.3,1964.1 		"/>
		<polygon class="st14" points="3624.3,1979.9 3806.9,1960.9 3803.3,1979.9 3620.5,1999.3 		"/>
		<polygon class="st7" points="3618.5,2015.1 3801.1,1996.1 3797.5,2015.1 3614.7,2034.5 		"/>
	</g>
	<path class="st20" d="M2583.4,1589.3c-26.9-183.9-153.7-219.7-205.1-216.1c-66.5,212.5,76.9,292.1,76.9,292.1
		c20.1,77.9,2.7,417.6-34.2,439.8c-36.9,22.2-300.8-8.1-343.1-14.1c-84.5-9.3-92.8-100.9-165.2-88l6,22.2c0,0,4.7,4.7,8.7,25.5
		c4,20.8-49,6.7-84.6-11.4c-35.6-18.1-38.3,8.7-33.6,53.7c0.6,56.6,26.6,54.9,82.4,69.2c57.4,15,108.5,9.4,159.3,0
		c51.5,2.6,325.5,126.1,432.7,75.7C2660.7,2156.1,2600,1743.4,2583.4,1589.3z"/>
	<path class="st19" d="M2169.1,2177.8c-80.3-27.2-103-40.3-201.7-27.2c-57.2,7.6-116.1-14.3-155.5-34c0.9,5.3,2.1,9.9,4.2,13.8
		c2.8,5.3,7.2,9.5,14.4,13.3c11.5,6.1,30.2,11.2,61.1,18.3c20.6,4.7,38.1,7.4,53.6,8.7c0,0,0.1,0,0.1,0c0.1,0,0.2,0,0.3,0
		c32.4,2.7,55.3-0.7,77.3-4.4c9.3-1.6,18.5-3.2,28-4.4c27.3-3.4,143.4,51,260.2,75.3c61.2,12.8,122.6,17.2,171.6,0.8
		c0.3-0.1,0.7-0.2,1-0.4c2-0.7,3.9-1.4,5.8-2.1c2.2-0.9,4.5-1.8,6.6-2.7c66.7-29.5,96.3-138.7,105.8-265.6
		C2566.7,2350,2249.3,2205,2169.1,2177.8z"/>
	<linearGradient id="SVGID_6_" gradientUnits="userSpaceOnUse" x1="3496.52" y1="1011.4107" x2="3744.5586" y2="1011.4107">
		<stop  offset="0" style="stop-color:#4085F0"/>
		<stop  offset="1" style="stop-color:#275DC9"/>
	</linearGradient>
	<circle class="st29" cx="3620.5" cy="1011.4" r="124"/>
	<linearGradient id="SVGID_7_" gradientUnits="userSpaceOnUse" x1="48.702" y1="3024.6179" x2="486.3808" y2="3024.6179">
		<stop  offset="0" style="stop-color:#68B2FC"/>
		<stop  offset="1" style="stop-color:#529BF7"/>
	</linearGradient>
	<circle class="st30" cx="267.5" cy="3024.6" r="218.8"/>
	<linearGradient id="SVGID_8_" gradientUnits="userSpaceOnUse" x1="1326.49" y1="3415.6824" x2="1455.4109" y2="3415.6824">
		<stop  offset="0" style="stop-color:#4085F0"/>
		<stop  offset="1" style="stop-color:#275DC9"/>
	</linearGradient>
	<circle class="st31" cx="1391" cy="3415.7" r="64.5"/>
	<linearGradient id="SVGID_9_" gradientUnits="userSpaceOnUse" x1="3033.6892" y1="3471.7783" x2="3305.9004" y2="3471.7783">
		<stop  offset="0" style="stop-color:#68B2FC"/>
		<stop  offset="1" style="stop-color:#529BF7"/>
	</linearGradient>
	<circle class="st32" cx="3169.8" cy="3471.8" r="136.1"/>
</g>
</svg>
