<?xml version="1.0" encoding="utf-8"?>
<!-- Generator: Adobe Illustrator 22.0.0, SVG Export Plug-In . SVG Version: 6.00 Build 0)  -->
<svg version="1.1" id="Layer_1" xmlns="http://www.w3.org/2000/svg" xmlns:xlink="http://www.w3.org/1999/xlink" x="0px" y="0px"
	 viewBox="0 0 4000 4000" style="enable-background:new 0 0 4000 4000;" xml:space="preserve">
<style type="text/css">
	.Graphic_x0020_Style_x0020_218{fill:#102140;}
	.Graphic_x0020_Style_x0020_88{fill:#D1334A;}
	.Graphic_x0020_Style_x0020_206{fill:url(#SVGID_1_);}
	.Graphic_x0020_Style_x0020_84{fill:#FFFFFF;}
	.Graphic_x0020_Style_x0020_83{fill:#3B546B;}
	.Graphic_x0020_Style_x0020_220{fill:#152A52;}
	.Graphic_x0020_Style_x0020_39{fill:#EF5668;}
	.Graphic_x0020_Style_x0020_219{fill:#DB6767;}
	.Graphic_x0020_Style_x0020_80{fill:#FFB114;}
	.Graphic_x0020_Style_x0020_87{fill:#6584C6;}
	.Graphic_x0020_Style_x0020_216{fill:#1A1A1A;}
	.Graphic_x0020_Style_x0020_78{fill:#FFDE70;}
	
		.Graphic_x0020_Style_x0020_95{fill:none;stroke:#10663F;stroke-width:2;stroke-linecap:round;stroke-linejoin:round;stroke-miterlimit:10;}
	.Graphic_x0020_Style_x0020_212{fill:#FFFFFF;}
	.Graphic_x0020_Style_x0020_210{fill:#CCC4CC;}
	.Graphic_x0020_Style_x0020_222{fill:#E8766F;}
	.Graphic_x0020_Style_x0020_226{fill:#B080B0;}
	.Graphic_x0020_Style_x0020_41{fill:#EB485C;}
	.Graphic_x0020_Style_x0020_77{fill:url(#SVGID_2_);}
	.st0{fill:url(#SVGID_3_);}
	.st1{fill:url(#SVGID_4_);}
	.st2{opacity:0.5;fill:#152A52;}
	.st3{fill:url(#SVGID_5_);}
	.st4{fill:url(#SVGID_6_);}
	.st5{fill:url(#SVGID_7_);}
	.st6{fill:#FFDE70;}
	.st7{fill:url(#SVGID_8_);}
	.st8{fill:#00593B;}
	.st9{fill:none;stroke:#FFFFFF;stroke-width:3;stroke-linecap:round;stroke-linejoin:round;stroke-miterlimit:10;}
	.st10{fill:#127755;}
	.st11{fill:#339E7E;}
	.st12{fill:#152A52;}
	.st13{fill:#FC9590;}
	.st14{fill:#102140;}
	.st15{fill:url(#SVGID_9_);}
</style>
<linearGradient id="SVGID_1_" gradientUnits="userSpaceOnUse" x1="0" y1="0" x2="1" y2="0">
	<stop  offset="0" style="stop-color:#4085F0"/>
	<stop  offset="1" style="stop-color:#275DC9"/>
</linearGradient>
<linearGradient id="SVGID_2_" gradientUnits="userSpaceOnUse" x1="0" y1="0" x2="1" y2="0">
	<stop  offset="0" style="stop-color:#68B2FC"/>
	<stop  offset="1" style="stop-color:#529BF7"/>
</linearGradient>
<g>
	<linearGradient id="SVGID_3_" gradientUnits="userSpaceOnUse" x1="183.149" y1="2754.8154" x2="3909.7957" y2="2754.8154">
		<stop  offset="0" style="stop-color:#68B2FC"/>
		<stop  offset="1" style="stop-color:#EBF0F7"/>
	</linearGradient>
	<path class="st0" d="M241.4,3138.1c-73.9-123.9-78.3-272.1-8.6-371c98.7-140.1,343.1-177.5,526.3-30.2
		c53.5-71.6,227.2-284.8,534.9-362.4c461.8-116.5,825.9,173.1,867.1,207.1c146.9,139.5,362,346.5,599.6,310.6
		c227.5-34.4,192.1-449.7,491.8-573.8c11.7-4.8,188.4-74.9,366.7,4.3c198.3,88.1,319.3,325.7,284.7,547.9
		c-32.6,209.8-191.7,327.8-228.6,353.8C2530.7,3195.6,1386.1,3166.9,241.4,3138.1z"/>
	<linearGradient id="SVGID_4_" gradientUnits="userSpaceOnUse" x1="60.2574" y1="3198.7854" x2="3801.8389" y2="3198.7854">
		<stop  offset="0" style="stop-color:#68B2FC"/>
		<stop  offset="1" style="stop-color:#529BF7"/>
	</linearGradient>
	<path class="st1" d="M3318.5,3144.6c-15.3-57.7-278-103.6-599.7-103.6c-212.9,0-399.8,20.1-506.4,50.4
		c-191.7-28.4-572-47.7-1009.8-47.7c-630.8,0-1142.2,40.1-1142.2,89.6c0,23.1,111.3,44.1,294,60c-52.4,11.9-80.7,24.5-80.7,37.7
		c0,69.4,789.8,125.6,1764.2,125.6s1764.2-56.2,1764.2-125.6C3801.8,3197.5,3618.1,3167.1,3318.5,3144.6z"/>
	<ellipse class="st2" cx="1778.9" cy="3248" rx="466.6" ry="76.4"/>
	<g>
		<path class="Graphic_x0020_Style_x0020_83" d="M2245.5,3138.6c-12.8,4.8-32.4-1-45.3,3.8l-210.9-976.9l48.4-29.5
			C2055.6,2144.3,2215.7,2964.1,2245.5,3138.6z"/>
		<path class="Graphic_x0020_Style_x0020_83" d="M347.8,3142.4c12.8,4.8,30-4.8,42.9,0l210.9-976.9l-48.4-29.5
			C535.3,2144.3,377.6,2967.9,347.8,3142.4z"/>
		<rect x="370.1" y="2051.3" class="Graphic_x0020_Style_x0020_83" width="1784.5" height="114.2"/>
		<polygon class="Graphic_x0020_Style_x0020_210" points="2154.6,2091.3 370.1,2087.9 370.1,2177.8 2154.6,2177.8 		"/>
	</g>
	<linearGradient id="SVGID_5_" gradientUnits="userSpaceOnUse" x1="675.4503" y1="3122.1396" x2="877.0154" y2="3122.1396">
		<stop  offset="0" style="stop-color:#4085F0"/>
		<stop  offset="1" style="stop-color:#275DC9"/>
	</linearGradient>
	<path class="st3" d="M877,3122.1c0-55.7-45.1-100.8-100.8-100.8s-100.8,45.1-100.8,100.8s45.1,100.8,100.8,100.8
		S877,3177.8,877,3122.1z"/>
	<linearGradient id="SVGID_6_" gradientUnits="userSpaceOnUse" x1="3761.301" y1="3099.3972" x2="3872.7285" y2="3099.3972">
		<stop  offset="0" style="stop-color:#4085F0"/>
		<stop  offset="1" style="stop-color:#275DC9"/>
	</linearGradient>
	<path class="st4" d="M3872.7,3099.4c0-30.8-24.9-55.7-55.7-55.7c-30.8,0-55.7,24.9-55.7,55.7c0,30.8,24.9,55.7,55.7,55.7
		C3847.8,3155.1,3872.7,3130.2,3872.7,3099.4z"/>
	<linearGradient id="SVGID_7_" gradientUnits="userSpaceOnUse" x1="687.3193" y1="2557.8198" x2="759.6531" y2="2557.8198">
		<stop  offset="0" style="stop-color:#68B2FC"/>
		<stop  offset="1" style="stop-color:#529BF7"/>
	</linearGradient>
	<path class="st5" d="M759.7,2557.8c0,20-16.2,36.2-36.2,36.2c-20,0-36.2-16.2-36.2-36.2c0-20,16.2-36.2,36.2-36.2
		C743.5,2521.7,759.7,2537.8,759.7,2557.8z"/>
	<g>
		<path class="st6" d="M2332.2,2791.7c8.1-76.7,4-149.3,16.1-225.9c4-18.2,8.1-36.3,10.1-54.5c18.1-88.7,39.5-183.9,112.2-234.6
			c-5.8-29.4-8.4-46.9-8.4-46.9s-168.7,31.9-191.5,405.9l-22.2,551.1c19.6-6.5,39.4-12.8,59.5-18.7
			C2307.8,3140.4,2330.2,2819.5,2332.2,2791.7z"/>
		<path class="Graphic_x0020_Style_x0020_80" d="M2470.6,2276.8c-72.7,50.7-94.1,145.9-112.2,234.6c-2,18.2-6.1,36.3-10.1,54.5
			c-12.1,76.7-8.1,149.3-16.1,225.9c-2,27.8-24.4,348.6-24.2,376.5c5.7-1.7,11.5-3.3,17.3-4.9c32.2-9,56.6-35.4,63.1-68.2
			c36.1-184.1,108.2-628.9,128.5-632.5C2494,2386.9,2479,2319.4,2470.6,2276.8z"/>
		<path class="st6" d="M3167.8,2791.7c-8.1-76.7-4-149.3-16.1-225.9c-4-18.2-8.1-36.3-10.1-54.5c-18.1-88.7-39.5-183.9-112.2-234.6
			c5.8-29.4,8.4-46.9,8.4-46.9s168.7,31.9,191.5,405.9l22.2,551.1c-19.6-6.5-39.4-12.8-59.5-18.7
			C3192.2,3140.4,3169.7,2819.5,3167.8,2791.7z"/>
		<path class="Graphic_x0020_Style_x0020_80" d="M3029.3,2276.8c72.7,50.7,94.1,145.9,112.2,234.6c2,18.2,6.1,36.3,10.1,54.5
			c12.1,76.7,8.1,149.3,16.1,225.9c2,27.8,24.4,348.6,24.2,376.5c-5.7-1.7-11.5-3.3-17.3-4.9c-32.2-9-56.6-35.4-63.1-68.2
			c-36.1-184.1-108.2-628.9-128.5-632.5C3006,2386.9,3020.9,2319.4,3029.3,2276.8z"/>
		<path class="Graphic_x0020_Style_x0020_83" d="M2699.8,2419c-58.9-20.4-111-54.4-165.3-88.3c-45.3-29.4-72.5-70.2-106.4-108.7
			c-21.4-25.6-38.2-53.8-53.8-82.6c55.6,236.4,170,405.2,170,405.2c128.6,31.2,248.7,37.6,351.7-5.2l58.7,5.2
			c0,0,50.1-73.9,100.1-192.4C2944.1,2417.1,2820.9,2460.8,2699.8,2419z"/>
		<path class="Graphic_x0020_Style_x0020_87" d="M3137.1,1719.1c-14.4-71.4-34.8-134-58.7-188.8c-73.2-168-179.9-262.8-251.7-311.2
			c-45.6-30.7-77.2-42.7-77.2-42.7s-209.1,79.2-328.9,353.9c-23.9,54.9-44.3,117.5-58.7,188.9c-30.1,149.1-17.2,294.3,12.4,420.3
			c15.6,28.8,32.4,57,53.8,82.6c34,38.5,61.1,79.3,106.4,108.7c54.4,34,106.4,67.9,165.3,88.3c121.1,41.8,244.2-1.9,355-66.8
			C3120.7,2196.1,3186.4,1962.8,3137.1,1719.1z"/>
		<path class="Graphic_x0020_Style_x0020_78" d="M3078.4,1530.2c-9.6,2.4-19.4,4.8-29.2,7c-92.8,21-193.9,32.5-299.7,32.5
			c-117,0-228.3-14.1-328.9-39.5c119.8-274.7,328.9-353.9,328.9-353.9s31.5,12,77.2,42.7C2898.5,1267.4,3005.2,1362.3,3078.4,1530.2
			z"/>
		<path class="Graphic_x0020_Style_x0020_80" d="M2826.7,1219c78.5,63.6,171.2,165.6,222,316.7c8.3-5.2,17.5-8.9,26.4-13
			C3001.9,1359.5,2897.4,1266.7,2826.7,1219z"/>
		<path class="Graphic_x0020_Style_x0020_83" d="M3137.1,1719.1c-14.4-71.4-34.8-134-58.7-188.8c-1.1-2.5-2.2-5-3.4-7.5
			c-8.9,4.1-18.1,7.8-26.4,13c0.2,0.5,0.4,1,0.5,1.5c28.3,84.9,43.3,185.3,35.2,303c-26.5,382.4-132,605.1-188.3,699.2l58.7,5.2
			C2954.7,2544.6,3223.8,2147.8,3137.1,1719.1z"/>
		
			<ellipse transform="matrix(1 -2.550887e-03 2.550887e-03 1 -4.6167 6.6313)" class="Graphic_x0020_Style_x0020_84" cx="2597.3" cy="1813.1" rx="132.9" ry="133"/>
		<linearGradient id="SVGID_8_" gradientUnits="userSpaceOnUse" x1="2504.9998" y1="1813.1416" x2="2689.5696" y2="1813.1416">
			<stop  offset="0" style="stop-color:#68B2FC"/>
			<stop  offset="1" style="stop-color:#529BF7"/>
		</linearGradient>
		<path class="st7" d="M2689.6,1813.1c0,51-41.3,92.3-92.3,92.3c-51,0-92.3-41.3-92.3-92.3s41.3-92.3,92.3-92.3
			C2648.3,1720.8,2689.6,1762.2,2689.6,1813.1z"/>
		<path class="Graphic_x0020_Style_x0020_41" d="M3000.7,2184.8c0,7.7-6.2,13.9-13.9,13.9c-7.7,0-13.9-6.2-13.9-13.9
			c0-7.7,6.2-13.9,13.9-13.9C2994.5,2170.9,3000.7,2177.1,3000.7,2184.8z"/>
		<path class="Graphic_x0020_Style_x0020_41" d="M2986.8,2242.4c0,7.7-6.2,13.9-13.9,13.9s-13.9-6.2-13.9-13.9s6.2-13.9,13.9-13.9
			S2986.8,2234.8,2986.8,2242.4z"/>
		<path class="Graphic_x0020_Style_x0020_41" d="M2973,2300.1c0,7.7-6.2,13.9-13.9,13.9c-7.7,0-13.9-6.2-13.9-13.9
			c0-7.7,6.2-13.9,13.9-13.9C2966.7,2286.2,2973,2292.4,2973,2300.1z"/>
	</g>
	<g>
		<g>
			<path class="st8" d="M3354.4,2931.1c-11.1-88.4-20.6-163.2,20.6-196c2.5-2,27.7-21.5,58-14.2c30.5,7.3,44.3,36.6,46.4,41.3
				c-15.1-93,3.6-164.1,40-176.7c15.7-5.4,40.2-1.7,58,12.9c25.9,21.3,24.7,55,24.5,59.3c3.9-25.2,21.4-121.6,90.3-154.7
				c13.7-6.6,39.9-19.2,60.6-6.4c23.7,14.6,22.1,51.2,21.9,54.2c34.2-61.9,86-92,121.2-80c15.9,5.5,30.1,20.1,34.8,37.4
				c8.4,30.8-13.1,70.2-56.7,91.6c25.5-1.4,48.5,8.7,59.3,27.1c17.6,29.8-6.5,65.3-10.3,70.9c-24.2,35.7-76.3,50.2-132.8,40
				c46.3,36.9,68,81.7,55.4,112.2c-8.1,19.8-28.7,28.9-51.6,38.7c-23.3,10-70.6,25.5-138,15.5c41.3,21.9,69.2,52.7,65.8,80
				c-4.6,36.5-63.5,52.4-108.3,64.5c-32.7,8.8-180.4,48.6-237.3-24.5C3364.2,3008.2,3360.9,2982.5,3354.4,2931.1z"/>
			<path class="st9" d="M3242.1,3059.1c32,18.3,72.8,12.1,106.5-2.8c63.3-27.9,111-82.1,150.7-138.8s73.7-117.7,120.5-168.7
				c44.3-48.2,98.7-85.9,146.8-130.2c36.3-33.4,69.2-70.7,97.8-110.9"/>
			<path class="st9" d="M3421.8,2814c37.5,58.6,49.3,125.4,11.2,183.6"/>
			<path class="st9" d="M3468,2960.1c48.4-24.7,144.7,17.4,194.6,10.1"/>
			<path class="st9" d="M3543.1,2851.9c20.8-61.2,6.3-118.3,10.5-170.5"/>
			<path class="st9" d="M3708.7,2563.1c-4.3,47.1-16.6,93.5-36,136.6"/>
			<path class="st9" d="M3728.3,2652.4c44.5-16.5,94.6-17.5,139.8-3"/>
			<path class="st9" d="M3579.4,2798.8c49.8-24.9,108.3-27.7,160.3-7.7"/>
		</g>
		<g>
			<path class="st10" d="M3315.4,2914.7c-78.8-55.7-117.8-56.9-126.4-89.1c-5.4-20.1,2.4-47.6,22.4-59.4
				c24.7-14.6,55.4,2.4,56.9,3.3c-69.8-56.3-96.9-119.4-76.6-149.1c9.6-14.1,35.2-28.3,61.9-26.2c20.8,1.6,34.8,12.5,40.4,17.4
				c-35.2-75.3-41.6-138.5-16.3-156.1c9.9-6.9,31.7-11.6,50.4-3.5c15.2,6.6,22.4,19.1,25.1,24.5c-8.7-51.9,17.3-92.8,46-98.6
				c17.8-3.6,37.6,6.1,48.6,20.2c15.2,19.7,14.2,49.3-3.6,72.6c2.1-1.6,34.3-26,57.5-15.5c25.3,11.4,23.4,56.5,10.1,84.8
				c-13.3,28.1-38.8,41.7-48.1,46.1c3.8-2,40.4-20.7,64.4-5.6c32.9,20.7,10,84.8,8.5,88.8c-21.6,58.2-84.9,81.8-97.7,86.4
				c42.1,0.1,75.3,19.2,82,45.2c8.4,32.5-27.7,63.7-47.3,80.6c-47.8,41.3-105.7,48.7-135.2,50.1
				C3333.2,2927.7,3325.3,2921.7,3315.4,2914.7z"/>
			<path class="Graphic_x0020_Style_x0020_95" d="M3408.3,2427.6c-2.8,51-12.4,102-28.3,151.3c-22.9,71-59.4,140.4-60.7,213.9
				c-0.4,22.4,2.5,44.5,5.4,66.6c3.3,25.2,6.7,50.8,17.8,73.6c10.3,21.1,26.9,38.8,46.2,52.7"/>
			<path class="Graphic_x0020_Style_x0020_95" d="M3325.9,2875.2c1-3.5,3.4-6.5,6-9.2c15.3-15.9,37.6-23.2,59.2-28.5
				c21.6-5.3,44-9.3,63-20.8"/>
			<path class="Graphic_x0020_Style_x0020_95" d="M3340.3,2687.3c14.9-21.3,41.7-31.3,66.9-38.7c25.3-7.4,52.2-14.5,70.9-32.8"/>
			<path class="Graphic_x0020_Style_x0020_95" d="M3371.4,2602c6.2-12.6,0.9-27.5-7.9-37.8c-8.8-10.4-20.7-17.8-30.5-27.4
				c-9.8-9.5-17.6-22.5-15.1-36.1"/>
			<path class="Graphic_x0020_Style_x0020_95" d="M3389.3,2545.6c1-4.1,1.9-8.3,4.2-12c3.3-5.5,9.1-9.2,14.9-12.3
				c11.9-6.4,24.7-10.8,36.8-16.9c12.1-6.1,23.7-14.1,30.7-25.3"/>
			<path class="Graphic_x0020_Style_x0020_95" d="M3320.8,2763.3c-0.6-10.1-1.3-20.4-4.5-30c-6.2-18.3-21.1-32.2-35-45.9
				s-27.6-29.2-30.5-48.4"/>
			<path class="Graphic_x0020_Style_x0020_95" d="M3253.3,2806.3c14.4-2.5,29.5-0.3,42,6.3c12.5,6.6,22.5,17.4,27.8,30.2"/>
		</g>
		<g>
			<path class="st11" d="M3425,3057.4c-8.7-112.5,12.9-151.2-13.7-180.4c-16.6-18.2-48-28.5-71.2-16.7
				c-28.7,14.6-29.9,55.4-29.9,57.4c-14.5-104.2-60.6-171.4-101.5-170.9c-19.4,0.2-48.2,15.8-61.7,43c-10.5,21.2-8,41.8-6.4,50.5
				c-53.3-83-111.5-130-143.5-116.9c-12.5,5.1-29.8,23.2-32.8,46.6c-2.4,19,5.7,34.2,9.4,40.2c-45.8-42-101-43.3-123.3-19.2
				c-13.9,14.9-15.9,40.5-8.5,60.2c10.4,27.5,40,45.7,73.2,43.5c-2.8,1-45.4,16.5-48.7,45.8c-3.6,31.9,41.8,59.3,77.2,64.7
				c35.3,5.4,63.5-10.7,73.2-16.8c-4.2,2.4-43.8,25.9-43,58.9c1.1,45.3,77.2,64.6,82.1,65.7c69.6,16.8,129.6-29.4,141.5-38.9
				c-24.4,40.9-25,85.5-3.4,108.8c27,29.2,78.5,14.4,106.5,6.3c68.4-19.7,109.3-71,127.8-98.7
				C3427.4,3083.1,3426.1,3071.6,3425,3057.4z"/>
			<path class="Graphic_x0020_Style_x0020_95" d="M2893.7,2832.1c51.7,30.3,107.2,54,164.7,70.5c82.9,23.7,172.2,33.3,244.9,79.6
				c22.2,14.1,42.2,31.3,62.1,48.4c22.8,19.5,45.9,39.5,61.7,65c14.7,23.6,22.4,51.2,24.7,78.9"/>
			<path class="Graphic_x0020_Style_x0020_95" d="M3380.8,3043.9c-4-1.3-73.4,2.1-111,91.4"/>
			<path class="Graphic_x0020_Style_x0020_95" d="M3187.7,2934.3c-29.5,0.6-54.9,20.2-76.9,39.9c-22,19.7-44.6,41.3-73.4,47.6"/>
			<path class="Graphic_x0020_Style_x0020_95" d="M3086.1,2909.2c-15.9-2.2-27.4-16.9-32.5-32.2c-5.1-15.3-5.4-31.6-9.1-47.3
				c-3.6-15.6-11.8-31.7-26.6-38.1"/>
			<path class="Graphic_x0020_Style_x0020_95" d="M3020.3,2890c-4.6-1.7-9.3-3.5-14.2-3.7c-7.3-0.3-14.3,2.9-20.7,6.5
				c-13.2,7.4-25,17-38,24.8c-13,7.8-27.6,13.9-42.7,13.3"/>
			<path class="Graphic_x0020_Style_x0020_95" d="M3273.5,2964.6c-9.6-7.2-19.3-14.5-26.7-23.8c-14.4-17.9-19.2-41.4-24.6-63.7
				c-5.4-22.3-12.5-45.7-29.7-60.9"/>
			<path class="Graphic_x0020_Style_x0020_95" d="M3355,2927c-10.9,12.4-17.4,28.4-18.3,44.9c-0.9,16.4,6.1,34,15.6,47.4"/>
		</g>
	</g>
	<g>
		<path class="Graphic_x0020_Style_x0020_218" d="M2115.6,1100.4c0-38.7,4.8-69.5,14.4-92.4c9.6-23,28.5-48.2,56.8-75.7
			c28.3-27.5,46.2-47,53.8-58.6c11.6-17.7,17.4-36.8,17.4-57.4c0-27.3-6.8-48.1-20.3-62.4c-13.5-14.3-33.3-21.5-59.5-21.5
			c-25,0-45.1,7-60.3,21.1c-15.2,14-22.9,33.1-22.9,57.1c-34.9,38.2-70.3,27-105.9,0c0.6-51.5,18.1-92.2,52.5-122.1
			c34.4-29.9,79.9-44.9,136.6-44.9c58.4,0,103.9,14.8,136.6,44.5c32.7,29.7,49,71.1,49,124.3c0,47.4-22.1,94-66.2,140l-53.6,52.8
			c-19.2,21.8-29,53.6-29.6,95.5C2182.9,1133.4,2149.8,1130.8,2115.6,1100.4z M2108.2,1235.6c0-17.1,5.4-30.9,16.1-41.4
			c10.7-10.6,25.3-15.8,43.6-15.8c18.6,0,33.2,5.4,44,16.3c10.7,10.8,16.1,24.5,16.1,41c0,15.9-5.2,29.2-15.7,39.9
			c-10.5,10.7-25.3,16.1-44.4,16.1c-19.2,0-33.9-5.4-44.2-16.1C2113.3,1264.9,2108.2,1251.6,2108.2,1235.6z"/>
		<path class="Graphic_x0020_Style_x0020_226" d="M2093.6,1100.4c0-38.7,4.8-69.5,14.4-92.4c9.6-23,28.5-48.2,56.8-75.7
			c28.3-27.5,46.2-47,53.8-58.6c11.6-17.7,17.4-36.8,17.4-57.4c0-27.3-6.8-48.1-20.3-62.4c-13.5-14.3-33.3-21.5-59.5-21.5
			c-25,0-45.1,7-60.3,21.1c-15.2,14-22.9,33.1-22.9,57.1c-34.9,38.2-70.3,27-105.9,0c0.6-51.5,18.1-92.2,52.5-122.1
			c34.4-29.9,79.9-44.9,136.6-44.9c58.4,0,103.9,14.8,136.6,44.5c32.7,29.7,49,71.1,49,124.3c0,47.4-22.1,94-66.2,140l-53.6,52.8
			c-19.2,21.8-29,53.6-29.6,95.5C2160.9,1133.4,2127.9,1130.8,2093.6,1100.4z M2086.2,1235.6c0-17.1,5.4-30.9,16.1-41.4
			c10.7-10.6,25.3-15.8,43.6-15.8c18.6,0,33.2,5.4,44,16.3c10.7,10.8,16.1,24.5,16.1,41c0,15.9-5.2,29.2-15.7,39.9
			c-10.5,10.7-25.3,16.1-44.4,16.1c-19.2,0-33.9-5.4-44.2-16.1C2091.4,1264.9,2086.2,1251.6,2086.2,1235.6z"/>
	</g>
	<g>
		<ellipse class="Graphic_x0020_Style_x0020_84" cx="1200.2" cy="2759.8" rx="245" ry="245"/>
		<ellipse class="Graphic_x0020_Style_x0020_78" cx="1200.2" cy="2759.8" rx="210.3" ry="210.3"/>
		<g>
			<g>
				<g>
					<path class="Graphic_x0020_Style_x0020_84" d="M1246.6,2820.5c0-10.1-3.6-18.7-10.7-25.6c-7.1-6.9-19.1-13.2-36-18.9
						c-23.5-7.2-40.6-16.5-51.4-28c-10.8-11.5-16.1-26.2-16.1-43.9c0-18.1,5.3-32.9,15.8-44.5c10.5-11.6,25-18.5,43.4-20.7v-36.2
						h24.6v36.4c18.5,2.5,32.9,10.3,43.3,23.3c10.3,13,15.5,30.8,15.5,53.4h-30.4c0-15.6-3.7-28-11.1-37.2
						c-7.4-9.2-17.4-13.8-29.9-13.8c-13.1,0-23.2,3.4-30.1,10.2c-6.9,6.8-10.4,16.3-10.4,28.4c0,11.3,3.7,20.2,11,26.9
						c7.3,6.7,19.4,12.8,36.2,18.2c16.8,5.5,29.9,11.5,39.4,18c9.4,6.6,16.4,14.2,20.8,22.9c4.5,8.7,6.7,18.9,6.7,30.6
						c0,18.6-5.6,33.6-16.8,45c-11.2,11.4-26.9,18.1-47.1,20.2v31.6h-24.5v-31.6c-20.5-1.9-36.6-9.2-48.2-21.9
						c-11.6-12.7-17.5-30-17.5-51.9h30.6c0,15.3,4,27.1,12.1,35.4c8,8.3,19.5,12.4,34.2,12.4c14.4,0,25.8-3.5,34.1-10.4
						C1242.4,2842,1246.6,2832.5,1246.6,2820.5z"/>
				</g>
			</g>
		</g>
	</g>
	<g>
		
			<ellipse transform="matrix(1.350970e-02 -0.9999 0.9999 1.350970e-02 -1150.095 3350.8325)" class="Graphic_x0020_Style_x0020_84" cx="1123.2" cy="2258.3" rx="124.9" ry="124.9"/>
		
			<ellipse transform="matrix(1.514617e-02 -0.9999 0.9999 1.514617e-02 -1151.88 3347.1106)" class="st6" cx="1123.2" cy="2258.3" rx="107.2" ry="107.2"/>
		<path class="Graphic_x0020_Style_x0020_84" d="M1146.8,2289.2c0-5.2-1.8-9.5-5.4-13.1c-3.6-3.5-9.7-6.7-18.3-9.6
			c-12-3.7-20.7-8.4-26.2-14.3c-5.5-5.9-8.2-13.3-8.2-22.4c0-9.2,2.7-16.8,8.1-22.7c5.4-5.9,12.7-9.4,22.1-10.5v-18.5h12.6v18.6
			c9.4,1.3,16.8,5.3,22.1,11.9c5.3,6.6,7.9,15.7,7.9,27.2h-15.5c0-8-1.9-14.3-5.6-18.9c-3.8-4.7-8.9-7-15.3-7
			c-6.7,0-11.8,1.7-15.3,5.2c-3.5,3.5-5.3,8.3-5.3,14.5c0,5.7,1.9,10.3,5.6,13.7c3.7,3.4,9.9,6.5,18.5,9.3
			c8.6,2.8,15.3,5.9,20.1,9.2c4.8,3.3,8.3,7.2,10.6,11.7c2.3,4.4,3.4,9.6,3.4,15.6c0,9.5-2.9,17.1-8.6,22.9
			c-5.7,5.8-13.7,9.2-24,10.3v16.1h-12.5v-16.1c-10.5-1-18.7-4.7-24.6-11.2c-5.9-6.5-8.9-15.3-8.9-26.4h15.6c0,7.8,2.1,13.8,6.2,18
			c4.1,4.2,9.9,6.3,17.5,6.3c7.4,0,13.2-1.8,17.4-5.3C1144.7,2300.2,1146.8,2295.4,1146.8,2289.2z"/>
	</g>
	<g>
		<path class="Graphic_x0020_Style_x0020_218" d="M2007.6,3157.2c-11.2-11.7-19.6-21.1-19.6-21.1l-108.5-12.1v47.4
			C1923.3,3176.4,1968,3174.1,2007.6,3157.2z"/>
		<path class="Graphic_x0020_Style_x0020_218" d="M2056.5,3201.6c-11.3-6.2-32.9-27.7-48.8-44.4c-39.6,17-84.3,19.2-128.1,14.2v56.7
			c18,16.4,41.5,22.2,68,22.4l25-10c0,0,35.4,34.9,127.4,33C2192,3271.6,2075.6,3212.1,2056.5,3201.6z"/>
		<path class="Graphic_x0020_Style_x0020_218" d="M1850.5,2733.8c-27.2-172.1-45.3-332.9-77-507.3c-9.1-43-18.1-83.8-36.2-122.3
			c-10.9-28.1-25-55.1-37.9-82.3l7.7,97.7l15.1,80.8v0l144.6,957.2c19.4-2.3,37-3.8,53.1-5.6c-6.7-19.8-13-39.7-17.2-60.3
			C1882.2,2969.3,1868.6,2856.1,1850.5,2733.8z"/>
		<path class="st12" d="M1924.4,1841l-241.1-22.9l4.3,54.2l11.8,149.5c12.9,27.2,27,54.2,37.9,82.3c18.1,38.5,27.2,79.3,36.2,122.3
			c31.7,174.4,49.8,335.2,77,507.3c18.1,122.3,31.7,235.5,52.1,357.8c4.3,20.6,10.5,40.5,17.2,60.3c34.9-4,62.9-9.8,87.4-28.8
			L1924.4,1841z"/>
		<path class="Graphic_x0020_Style_x0020_218" d="M1615.1,3185.8c-7.2-7.7-12-13.1-12-13.1l-108.5-12.1v34.8
			C1534.2,3208.3,1576,3199.7,1615.1,3185.8z"/>
		<path class="Graphic_x0020_Style_x0020_218" d="M1671.4,3238.2c-13.2-7.2-40.5-35.4-56.4-52.4c-39.1,13.8-80.9,22.5-120.6,9.5
			v78.2c14.5,22.5,41.1,18.5,68,13.6l25-10c0,0,35.4,34.9,127.4,33C1807,3308.3,1690.6,3248.8,1671.4,3238.2z"/>
		<path class="Graphic_x0020_Style_x0020_218" d="M1515.3,2781.3C1504,2693,1495,2607,1495,2520.9c0-135.9,49.8-260.4,70.2-396.3
			c9.3-69.9,6.9-160.1-35-217.2l-56.8,12.6c-10.8,277.6-10.2,877.1,16.6,1259.8c6.6,2.8,22.9,5.1,41.9,6.2
			C1553.7,3054.1,1536.5,2916.7,1515.3,2781.3z"/>
		<path class="st12" d="M1707.1,1868.1l-19.5,4.3l-157.4,35c41.9,57,44.3,147.2,35,217.2c-20.4,135.9-70.2,260.4-70.2,396.3
			c0,86.1,9.1,172.1,20.4,260.4c21.2,135.4,38.3,272.7,16.5,404.7c31.5,1.9,70.4,0.8,85.2-6.2l105.2-979.4v0l17-90L1707.1,1868.1z"
			/>
		<path class="Graphic_x0020_Style_x0020_216" d="M1451.9,1966.9c0,0,33.7,57.5,100,28.8c66.3-28.8,51.2-45.5,51.2-45.5
			s234.1,2.8,253.5-6.7c42,14.8,74.4-0.1,74.4-0.1l-6.6-102.4c0,0-130.3-18.8-146.9-13.7c-16.7,5.1-116.3,20.1-123,25
			c-6.7,4.8-136.3,31.8-136.3,31.8L1451.9,1966.9z"/>
		<path class="Graphic_x0020_Style_x0020_216" d="M1512,1930.6c0,0,81.5,37.4,211.9,26.8c130.4-10.5,197.5-47.9,197.5-47.9v-33.6
			h-395L1512,1930.6z"/>
		<path class="Graphic_x0020_Style_x0020_88" d="M1660.3,1384c-6.8-36.2-6.8-70.2-18.1-106.4c-3.6-14.5-5.3-31.6-10.3-47.2
			l-62.3-2.5c0,0-5.8,557-7.7,697c20.2,6.2,40.4,10.6,60.4,13.5c36.8-93.2,56.5-193.4,60.7-291.6
			C1687.5,1558.4,1678.4,1474.6,1660.3,1384z"/>
		<path class="Graphic_x0020_Style_x0020_39" d="M1902.2,1904.5l-162-669.7l-108.3-4.4c4.9,15.5,6.6,32.7,10.3,47.2
			c11.3,36.2,11.3,70.2,18.1,106.4c18.1,90.6,27.2,174.4,22.6,262.7c-4.2,98.3-23.8,198.4-60.7,291.6
			C1769.8,1960.4,1902.2,1904.5,1902.2,1904.5z"/>
		<path class="st13" d="M1715.5,1113.3c0,0,13.2,134.1,13.2,147.6s-96.3,48.1-139.9-16.5c8.3-80,11.4-141.4,11.4-141.4
			s-101.8-182.9,3.1-215.2c105-32.2,164.7-9,164.7,215.2C1741.6,1115.6,1715.5,1113.3,1715.5,1113.3z"/>
		<path class="Graphic_x0020_Style_x0020_222" d="M1667.5,1097.5c0,0,77.9,18.5,101.5,5.6c-50.2,32.3-47.6,74.1-46.4,84.2
			C1697.3,1165.6,1661,1130.4,1667.5,1097.5z"/>
		<path class="Graphic_x0020_Style_x0020_220" d="M1908.4,1274.2c0,0,111.6,203.5,97.6,205.1c-14,1.6-140.3,70.2-140.3,70.2
			l-77.3-321.7C1788.4,1227.8,1893.6,1243.9,1908.4,1274.2z"/>
		<path class="Graphic_x0020_Style_x0020_220" d="M1874.3,1455.3c-26.2-101-44.4-181-44.4-181l-9.4-35c0,0-43.7-10.9-97.7-47
			c-61.8,102.7,78.6,726.7,78.6,726.7s127.1,71.6,183.8-91.7C1890.5,1729.9,1844.5,1584.5,1874.3,1455.3z"/>
		<path class="Graphic_x0020_Style_x0020_218" d="M1874.3,1455.3c-29.8,129.2,16.2,274.6,110.9,372.1c1.3-3.6,2.5-7.4,3.7-11.2
			C1951.7,1739.2,1906.9,1581,1874.3,1455.3z"/>
		<path class="Graphic_x0020_Style_x0020_218" d="M1517.6,1413.4c-2.9-14.5-14.4-16.6-28.9-13.6c6.8,103.2,0.2,224-20,329.2
			c5.9-11.2,10.3-23.4,12.7-37C1499.5,1594.6,1538,1508.5,1517.6,1413.4z"/>
		<path class="Graphic_x0020_Style_x0020_220" d="M1593.7,1192.3c0,0-89.7,64.1-125.5,68.8c10.2,38.8,17.1,86.5,20.5,138.8
			c14.5-3,26-0.9,28.9,13.6c20.4,95.1-18.1,181.2-36.2,278.6c-2.4,13.6-6.8,25.8-12.7,37c-8.6,44.7-19.7,86.5-33.2,122.9
			c48.3,187.1,107.4,120.1,165.1,82.7C1692.7,1825.3,1650.6,1265.4,1593.7,1192.3z"/>
		<path class="st14" d="M1588.5,1098.4c0,0,13.7,0,25.2-7.2c-10.1-38.1-19.4-51.1,11.5-54.6c-20.1-18-19-53.9,5.9-54.6
			c25-0.7,23.5,14.4,23.5,14.4s23.7-30.9,25.2-51.1c0,0,70.5,0,78.4-48.2c-30.9-18.7-44.2-61.8-101.9-30.9c14.2-23,14.2-23,14.2-23
			s-52.5-4.3-64,14.4c-35.2,6.5-65.4,43.9-63.3,56.8C1520.4,983.6,1588.5,1098.4,1588.5,1098.4z"/>
		<path class="Graphic_x0020_Style_x0020_219" d="M1857.3,1386.2c-6.8-13.6-15.9-29.4-20.4-43c-18.1-40.8-18.1-86.1-31.7-129.1
			c-18.1-45.3-79.3-43-117.8-70.2c-0.7-0.4-1.5-0.9-2.1-1.4c8.7,10.5,21.9,22.3,31.4,29.2c11.7,8.6,53.1,19.5,61.9,33.2l16.5,42.3
			c0,0,109.5,291.3,126.6,316.2c7,10.2,20.2,13.4,34.3,10.5C1904.1,1525.1,1888.2,1450.1,1857.3,1386.2z"/>
		<path class="st13" d="M1676.4,1125.2c-0.1,0.6,0,1.2,0,1.8c0.1-1.7,0.4-3.4,0.6-5.1C1676.8,1123,1676.6,1124.1,1676.4,1125.2z"/>
		<path class="st13" d="M1810.2,1172.2c0,0-26.6-61.7-26.1-92.9c0.3-18.2-5.9-18.9-11.1-16.4c3,16,4.1,32.1-4,40.2
			c-18,22.5-53.9-4.2-83.2,2.2c-3.6,4.8-7.1,10.7-8.7,16.6c-0.3,1.7-0.5,3.4-0.6,5.1c0.5,4,4,9.5,8.8,15.4c0.7,0.5,1.4,1,2.1,1.4
			c38.5,27.2,99.6,24.9,117.8,70.2c13.6,43,13.6,88.3,31.7,129.1c4.5,13.6,13.6,29.4,20.4,43c30.9,63.8,46.8,138.9,98.8,187.7
			c20.2-4.1,42.4-20.6,51.1-46.3C2025.9,1472.8,1810.2,1172.2,1810.2,1172.2z"/>
		<path class="Graphic_x0020_Style_x0020_219" d="M1769,1103.2c8.1-8.1,6.9-24.2,4-40.2c-3.7,1.8-6.9,5.3-6.9,5.3s2.2,26.7,1.9,34.9
			c-21.4,10.1-77.1-4.2-79.1-1.8c-1,1.2-2.1,2.6-3.1,4C1715.1,1099,1751,1125.7,1769,1103.2z"/>
		<path class="st13" d="M1615.4,2110c0,0-10.5-42.2-20.6-60.6c-10.1-18.4-60.5-56.2-61.1-59.1c-25.3-55.9-162.1-307-158.6-329.8
			c3.5-22.8,65.8-123.7,65.8-123.7l-61.6-76.7c-45.1,75.4-77.5,158.4-86,245.5c49.8,108.7,115.5,199.3,190.2,298.9
			c26.2,37.8,37.4,85,33.1,130.1c12.6,1.3,25.7-0.9,37.6-4.4c3.4-1.4,6.7-3.4,9.9-5.6c0-26.6,13.4-44.2,13.4-44.2s13.9,31.5,29.4,40
			C1622.5,2129,1615.4,2110,1615.4,2110z"/>
		<path class="Graphic_x0020_Style_x0020_219" d="M1483.6,2004.5c-74.7-99.6-140.4-190.2-190.2-298.9c8.5-87.1,40.9-170.1,86-245.5
			l-18.6-23.2c0,0-96.3,184.6-98.5,237.9c-2.1,53.3,220.6,349.8,220.6,349.8c23.4,37.1,18.6,57.8,17,95.9c-0.1,3.3,0.2,6.8,0.8,10.4
			c5.1,2,10.5,3.3,16.1,3.8C1521,2089.5,1509.8,2042.4,1483.6,2004.5z"/>
		<path class="Graphic_x0020_Style_x0020_218" d="M1504,1381.7c-9.1-6.8-15.9,15.9-20.4,27.2c-16.3,49-31.2,113.9-77.3,140.2
			l28.5,21.8l85.6-167.5C1517.7,1394.6,1512.6,1387,1504,1381.7z"/>
		<path class="Graphic_x0020_Style_x0020_220" d="M1506.1,1248.9c0,0-50,8.5-69.4,23.8c-19.4,15.3-124.5,204.3-124.5,204.3l94.1,72
			c46-26.2,60.9-91.2,77.3-140.2c4.5-11.3,11.3-34,20.4-27.2c8.6,5.3,13.7,12.8,16.4,21.7l10.5-20.6L1506.1,1248.9z"/>
		<path class="Graphic_x0020_Style_x0020_87" d="M1588.1,1184.3l-61.8,46.4l55.4,76.9h13.7l-3.6,43.9l60.8,146.3
			c0,0,2.2-47.5-6.1-117.6C1638.1,1310.1,1625.5,1216.7,1588.1,1184.3z"/>
		<path class="Graphic_x0020_Style_x0020_87" d="M1728.9,1187.3c0,0-14.3,2.8-21.8,48.7c-7.9,48,14.5,263.2,17.4,261.9l18.6-175.1
			l-16.3-30.7l21.1-9.7c0,0,15.3-60.8,20.1-67.5C1752.7,1202.9,1728.9,1187.3,1728.9,1187.3z"/>
		<path class="Graphic_x0020_Style_x0020_210" d="M1469.5,869V750.5c0-29.6-20.9-53.7-46.6-53.7h-321.3c-25.7,0-46.6,24-46.6,53.7
			V869c0,29.6,20.9,53.7,46.6,53.7h231.4l101.2,123.5c7.8,9.6,23.2,1.5,19.7-10.4c-10.2-34.6-23.3-79.4-33.4-113.1h2.5
			C1448.6,922.6,1469.5,898.6,1469.5,869z"/>
		<g>
			<path class="Graphic_x0020_Style_x0020_212" d="M1189.2,740l7.2,18.3c4.4,2.1,7,3.4,11.4,5.5l18.8-5.8c5.3,6.6,5.6,7,10.8,13.6
				l-9.8,17.1c1.1,4.8,1.7,7.6,2.8,12.4l16.2,11.1c-1.9,8.3-2,8.7-3.9,17l-19.5,3c-3,3.8-4.9,6.1-7.9,9.9l1.4,19.6
				c-7.6,3.7-8,3.9-15.7,7.5l-14.5-13.4c-4.9,0-7.8,0-12.7,0l-14.5,13.4c-7.6-3.7-8-3.9-15.7-7.5l1.4-19.6c-3-3.8-4.9-6.1-7.9-9.9
				l-19.5-3c-1.9-8.3-2-8.7-3.9-17l16.2-11.1c1.1-4.8,1.7-7.6,2.8-12.4l-9.8-17.1c5.3-6.6,5.6-7,10.8-13.6l18.8,5.8
				c4.4-2.1,7-3.4,11.4-5.5l7.2-18.3C1180.3,740,1180.7,740,1189.2,740z"/>
			<ellipse class="Graphic_x0020_Style_x0020_210" cx="1180.5" cy="806" rx="23" ry="23"/>
		</g>
		<rect x="1294.4" y="740" class="Graphic_x0020_Style_x0020_84" width="77.2" height="19.5"/>
		<rect x="1294.4" y="786.5" class="Graphic_x0020_Style_x0020_84" width="136.1" height="19.5"/>
		<rect x="1294.4" y="837.8" class="Graphic_x0020_Style_x0020_84" width="136.1" height="19.5"/>
	</g>
	<g>
		<polygon class="Graphic_x0020_Style_x0020_83" points="626.8,1830.9 783.3,2029.4 795.5,2022.8 635.9,1827.1 		"/>
		<rect x="795.5" y="2029.4" class="Graphic_x0020_Style_x0020_216" width="256.5" height="21.9"/>
		<rect x="836.4" y="2038.2" class="st9" width="27.9" height="3.6"/>
		<rect x="955.4" y="2038.2" class="st9" width="27.9" height="3.6"/>
	</g>
	<g>
		<path class="Graphic_x0020_Style_x0020_80" d="M2835,2486.4c-6.9-136.8-85.5-256.6-85.5-256.6s-0.1,0.2-0.3,0.5
			c-0.7,1.1-2.9,4.5-6,9.8c23.9,125.8,70.3,427.5,46.3,773c-5.6,80.2-10.4,147.1-14.6,202.9c53.8-27.1,62-149.4,62-149.4
			C2838.2,2968.2,2839.2,2570.9,2835,2486.4z"/>
		<path class="st6" d="M2743.2,2240.2c-3.1,5.2-7.1,12.2-11.7,20.9c-23.7,44.3-62.7,130.8-67.5,225.4c-4.2,84.5-3.2,481.8-1.9,580.3
			c0,0,17,144.4,83.3,154.1c2.6,0.4,5.3,0.6,8.1,0.5c7.8-0.2,14.9-2,21.3-5.3c4.2-55.8,9.1-122.7,14.6-202.9
			C2813.5,2667.6,2767,2365.9,2743.2,2240.2z"/>
	</g>
	<linearGradient id="SVGID_9_" gradientUnits="userSpaceOnUse" x1="3416.2876" y1="3174.4441" x2="3554.6177" y2="3174.4441">
		<stop  offset="0" style="stop-color:#4085F0"/>
		<stop  offset="1" style="stop-color:#275DC9"/>
	</linearGradient>
	<ellipse class="st15" cx="3485.5" cy="3174.4" rx="69.2" ry="69.2"/>
</g>
</svg>
