<?xml version="1.0" encoding="utf-8"?>
<!-- Generator: Adobe Illustrator 24.0.0, SVG Export Plug-In . SVG Version: 6.00 Build 0)  -->
<svg version="1.1" id="Vector" xmlns="http://www.w3.org/2000/svg" xmlns:xlink="http://www.w3.org/1999/xlink" x="0px" y="0px"
	 viewBox="0 0 3000 3000" style="enable-background:new 0 0 3000 3000;" xml:space="preserve">
<style type="text/css">
	.st0{fill:none;stroke:#1A1A1A;stroke-width:5.2;stroke-linecap:round;stroke-linejoin:round;stroke-miterlimit:10;}
	.st1{fill:#FFFFFF;stroke:#1A1A1A;stroke-width:3.4667;stroke-linecap:round;stroke-linejoin:round;stroke-miterlimit:10;}
	.st2{fill:#5067EF;stroke:#1A1A1A;stroke-width:3.4667;stroke-linecap:round;stroke-linejoin:round;stroke-miterlimit:10;}
	.st3{fill:#D9DBDA;stroke:#1A1A1A;stroke-width:3.4667;stroke-miterlimit:10;}
	.st4{fill:#1A1A1A;stroke:#1A1A1A;stroke-width:3.4667;stroke-linecap:round;stroke-linejoin:round;stroke-miterlimit:10;}
	
		.st5{fill:none;stroke:#1A1A1A;stroke-width:3.4667;stroke-linecap:round;stroke-linejoin:round;stroke-miterlimit:10;stroke-dasharray:20.8002;}
	.st6{fill:none;stroke:#1A1A1A;stroke-width:3.4667;stroke-linecap:round;stroke-linejoin:round;stroke-miterlimit:10;}
	.st7{fill:none;stroke:#FFFFFF;stroke-width:5.2;stroke-linecap:round;stroke-linejoin:round;stroke-miterlimit:10;}
	.st8{fill:none;stroke:#FFFFFF;stroke-width:3.4667;stroke-linecap:round;stroke-linejoin:round;stroke-miterlimit:10;}
	.st9{fill:#8E9DF4;stroke:#1A1A1A;stroke-width:3.4667;stroke-linecap:round;stroke-linejoin:round;stroke-miterlimit:10;}
</style>
<g>
	<path class="st0" d="M288.5,1266.7c-113.5,256.3-91.8,635.9,146,838.7c162.6,138.6,366.4,143.5,471.1,146.1
		c250,6,281.5-93.9,504.1-103.7c359.8-15.8,439.6,238.1,753.8,207.3c211-20.6,466.2-163.6,494.7-343.9
		c40.3-254.8-404.6-377.7-391-702c8.9-213,205.4-269.8,188.4-508.8c-14.1-198.6-161.6-326.3-188.4-348.7
		c-228.2-190.3-590.8-153.1-753.8,14.1c-92.2,94.6-36.3,144.4-117.8,249.7c-207.6,268.5-648.1,45.3-961.1,339.2
		C347,1136.9,307.5,1223.8,288.5,1266.7z"/>
	<path class="st1" d="M363.9,1784.9c-50.3,131.6-108.3,177.4-94.2,273.3c20.2,137.4,168.8,242.2,292.1,287.4
		c296.6,108.7,420.3-137.9,800.9-113.1c363.9,23.7,440.1,261.4,720.8,202.6c190.6-39.9,355.1-191.4,424-358.1
		c22.5-54.5,56.4-162.7-47.1-640.8c-60.5-279.4-189-371.2-136.6-523c47.7-138.2,167.7-152.2,164.9-249.7
		c-3.8-132.2-229.6-289.3-438.1-273.3C1843.1,406.2,1816.6,580.9,1537,673c-194.4,64.1-220.8-7.4-438.1,37.7
		C871.7,757.8,496,919.9,401.6,1214.8C335,1423,466,1517.7,363.9,1784.9z"/>
	<path class="st1" d="M2529.5,1980.2c-4,49.8-13.7,76.9-22,96.9c-59.7,144.2-190.8,277-348.6,336.1c-24.6,9.2-49.8,16.6-75.5,22
		c-94.6,19.8-165.9,6-232.8-22c-131.8-55-246.6-164.9-488-180.6c-380.6-24.8-504.3,221.8-800.9,113.1
		c-123.3-45.2-271.9-150-292.1-287.4c-4.3-29.1-1.9-53.6,4.9-77.3c15.6-54.3,54.4-104.3,89.4-196C466,1517.7,335,1423,401.6,1214.8
		c94.4-295,470.1-457,697.3-504.1c217.3-45.1,243.8,26.4,438.2-37.7c279.6-92.1,306.1-266.7,513.5-282.7
		c208.5-16,434.4,141,438.2,273.3c2.8,97.5-117.1,111.5-164.9,249.7c-52.4,151.7,76.1,243.6,136.6,523
		C2526.1,1739.4,2536.5,1893.8,2529.5,1980.2z"/>
	<path class="st1" d="M2220.7,746.8l43.5,32.1c0,0,4.6-33.8,8.6-44.1c4-10.3,26.9-25.8,29.2-47s-59-53.8-72.7-52.1
		c-13.7,1.7-27.4,31.6-27.4,31.6l6.2,20.5c0,0,2.9,24.1,9.2,27.5C2223.6,718.7,2220.7,746.8,2220.7,746.8z"/>
	<path class="st2" d="M1859.9,937.4c0,0,161.6,39.6,259.5-33.8c89.1-66.8,90-166.6,90-166.6s54.1,25.8,67.3,47.8
		c-20.3,136.7-74.4,251.2-385.4,305.2C1754.6,1036.7,1859.9,937.4,1859.9,937.4z"/>
	<path class="st1" d="M2346.8,1980.2H305.4c-10.8,0-21.1,0.2-30.8,0.7c-6.8,23.7-9.2,48.2-4.9,77.3
		c20.2,137.4,168.8,242.2,292.1,287.4c296.7,108.7,420.3-137.9,800.9-113.1c241.3,15.7,356.1,125.6,488,180.6h54.7L2346.8,1980.2z"
		/>
	<path class="st3" d="M2346.8,1980.2H305.4c-10.8,0-21.1,0.2-30.8,0.7c-4.5,15.6-7,31.6-7,49H2296L2346.8,1980.2z"/>
	<path class="st3" d="M561.8,2345.6c296.7,108.7,420.3-137.9,800.9-113.1c241.3,15.7,356.1,125.6,488,180.6h54.7l289.8-284.3h-1903
		C342.5,2231.3,460.6,2308.5,561.8,2345.6z"/>
	<path class="st1" d="M267.5,2029.9c0,9,0.7,18.4,2.1,28.3c3.6,24.7,11.4,48.3,22.4,70.7h1903l100.9-98.9H267.5z"/>
	<polygon class="st1" points="2855,1980.2 2407.2,1980.2 1963.4,2413.1 2422,2413.1 	"/>
	<polygon class="st3" points="2346.8,1980.2 1905.3,2413.1 1963.4,2413.1 2407.2,1980.2 	"/>
	<path class="st1" d="M348.2,615.5c0,0,47.2,500.8,1054.7,619.1c22.3-43.9,25.3-65.3,25.3-65.3s-587.5-61.9-823-344.6
		c-82.6-123.6-67.3-209.2-67.3-209.2S461.4,695,348.2,615.5z"/>
	<path class="st4" d="M806.3,1742.1c-13.9-14.1-34.5-33.5-50.3-41.6c-5.6,5.2-12.7,8.5-18.3,14.1c-5,5-8.3,11.6-9.9,18.2
		c-9.9,46.3-43,77.7-79.3,104.1c-34.6,25-44.2,64.7-46.3,104.7c18,1.1,38.4-34.6,79.5-62.3c22.7-15.3,49.6-29.5,70.7-39.9
		C746.4,1802.7,774.7,1764,806.3,1742.1z"/>
	<path class="st4" d="M821.8,1758.6c0,0-6.3-7.1-15.5-16.5c-31.6,21.9-59.9,60.6-53.9,97.3c20.9-10.3,36.2-16.8,36.2-16.8
		L821.8,1758.6z"/>
	<path class="st1" d="M736.9,1699c-17.5,16.6-28.3,67.7-75.9,107.7c-47.6,40-83.6,123.6-64.1,133.4c1.8,0.9,3.6,1.4,5.4,1.5
		c2.1-40,11.7-79.6,46.3-104.7c36.3-26.4,69.4-57.8,79.3-104.1c1.7-6.6,5-13.2,9.9-18.2c5.6-5.6,12.7-8.9,18.3-14.1
		C747.9,1696.3,741,1695.1,736.9,1699z"/>
	<path class="st1" d="M1354.8,1201.9c0,0-130.5,140.8-118.3,289.7c-36.7,173.4-63.2,259.1-63.2,259.1s-277.3-14.3-360,0
		c-64.3,71.4-33.7,83.6-33.7,83.6s438.5,87.7,487.5,46.9c49-40.8,316.2-452.9,316.2-585.4
		C1509.9,1210.1,1354.8,1201.9,1354.8,1201.9z"/>
	<path class="st5" d="M812.9,1787.6c119,19.4,387.3,57.3,437.9,15.2c65.4-54.4,128.2-287.8,128.2-287.8L812.9,1787.6z"/>
	<path class="st4" d="M1804.2,2105.5c-10.5-7.3-17-12.1-17-12.1l-72.1,3.4c0,0-2.3,6.9-5.2,17.2
		C1741.4,2121,1773.9,2116.7,1804.2,2105.5z"/>
	<path class="st1" d="M1871.1,2200.4c-54.5-16.5-109-3.3-165.2-9.9c-2.1,0-4.6-0.3-7.1-0.9c1.2,5.6,3.5,9.4,7.5,10.6
		c23.1,6.8,72.8-9.5,131.2,11.6c57.8,20.8,146.9,10.4,147.5-10.8C1951.4,2215.6,1906.7,2211.2,1871.1,2200.4z"/>
	<path class="st4" d="M1889.9,2157.3c-32-15.5-65.9-38-85.7-51.8c-30.3,11.2-62.8,15.5-94.3,8.5c-6.1,21.5-14.9,57.5-11.1,75.6
		c2.5,0.6,4.9,0.9,7.1,0.9c56.2,6.6,110.7-6.6,165.2,9.9c35.6,10.8,80.3,15.2,114,0.5c0-0.2,0-0.5,0-0.7
		C1983.8,2178.4,1938.9,2181.1,1889.9,2157.3z"/>
	<path class="st1" d="M1352.8,1234.6c0,0-175.4,201.9-32.6,297.8s369.2,161.2,369.2,161.2s-27.5,330.5,22.9,412.1
		c95.4,8.2,89.9-12.2,89.9-12.2s91.1-434.5,32-512s-255-183.6-250.9-199.9c4.1-16.3-16.3-85.7-16.3-85.7L1352.8,1234.6z"/>
	<path class="st5" d="M1392.5,1403.3c0,0,172,153.9,331.4,199.5c70.7,19.6,33.2,514.6,33.2,514.6L1392.5,1403.3z"/>
	<path class="st4" d="M1306,1266.7c0,0,139.3,119.6,253.2,120.7c40.9-44.8-233.1-149.8-233.1-149.8L1306,1266.7z"/>
	<path class="st4" d="M1768.9,914.3c0,0,97.9-22.2,139.7,50.1c41.8,72.3,36.7,222.2-40.8,277.3c-77.5,55.1-194.8,9.2-194.8,9.2
		L1768.9,914.3z"/>
	<path class="st2" d="M1741.4,964.4c0,0,191.7,62.7,191.7,144c13.3-97.2-13.3-199.8-112.2-205.3c-68.3-9.2-70.4-4.1-70.4-4.1
		L1741.4,964.4z"/>
	<path class="st1" d="M1752.6,893.9c14.3,13.3,75.5,41.8,53,130.6s-112.2,329.4-214.2,324.3c-102-5.1-307-96.9-293.7-124.4
		s290.7-339.6,366.1-359S1752.6,893.9,1752.6,893.9z"/>
	<path class="st6" d="M1772.6,975.7c0,0-2.9,74.2-21.8,117.8c-18.8,43.6-87.7,206.1-159.6,226.7L1772.6,975.7z"/>
	<path class="st1" d="M1935.7,735c1.7,5.2,16.3,184.3-23.1,187c-39.4,2.7-64.6-18.4-64.6-18.4s-56.3,49.1-61.7,60.7
		c-19,3.4-73.9-81.1-73.9-81.1s29-7.9,41.3-44.9c16.2-48.5,31-116.9,48.8-131.9C1833.7,679.9,1913.2,667,1935.7,735z"/>
	<path class="st3" d="M1706.6,869.1l25.3-15.9c0,0,17.1,63,30,79.5c7.7,37.1,7.7,37.1,7.7,37.1S1713.6,915.1,1706.6,869.1z"/>
	<path class="st4" d="M1852.5,797c0,0-25.5-16-26.5,14.9c5.6,22.8,5.6,22.8,5.6,22.8s-27.5,8.2-46.9,6.6
		c-19.4-1.5-31.1-4.5-33.7-24.2c-2.5-19.7,4.1-108.4,29.1-125.8c25-17.3,45.4-10.2,81.6-9.7c82.6-9.2,107.6-19.9,107.6-19.9
		s-11.2,93-52,89.9c-40.8,1.9-45.4-5.7-41.3,17.8c4.1,23.5,1.5,53.3-3.6,55.2c-5.1,1.9-12.5-6.3-12.5-6.3S1862.2,803.7,1852.5,797z"
		/>
	<g>
		<path class="st4" d="M885.2,815.7l9.7-6.6c0,0,35.8,9.2,38.6,21.4c2.7,12.2,4.1,194.3,22.5,317.4c23.8,102.7,21.1,106.1-7.5,122.4
			c-28.6,16.3-242.7,81.6-242.7,81.6s-51.7,11.6-51-15C688,1280.5,885.2,815.7,885.2,815.7z"/>
		<path class="st3" d="M654.7,875.4c0,0-19.4,454.4,0,461.5s260.4-68.3,274-88.7c13.6-20.4-7.8-422.3-33.8-439.1
			C868.9,792.3,654.7,875.4,654.7,875.4z"/>
		<path class="st1" d="M938.2,833.1c0,0,9.5-63.9-99.7-27.2C708.6,849.5,708.1,848,708.1,848s-11.6,8.2-10.2,28.9
			c1.4,20.7-3.6,420,5.8,434.8s213.3-88.5,238.2-82.3c24.9,6.2,33.3,12.6,24.7,27.4c20-4.9,7.7-39.6,8.4-84.5
			S938.2,833.1,938.2,833.1z"/>
		<path class="st1" d="M928.7,953.5c0,0,31.9-2.1,29.4,52.4c-2.5,54.6,1,68.8-20.9,76c-4.1,39.3-0.4,32.7,2.1,37.5
			c16.3,2.8,58.1-13,56.5-59.4c-1.5-46.4-4.6-108.2-31.4-119.9S928.7,927,928.7,927C923,936.3,923.9,944.3,928.7,953.5z"/>
	</g>
	<path class="st1" d="M1056.5,979.6c-8.2,11.2-34.2-7.1-51-17.8c-16.8-10.7-55.1,9.7-55.6,12.5c-0.5,2.8-1,57.9,3.6,67.1
		c4.6,9.2,42.8,16.8,57.1,22.4c0,2.1-16.3-1.2-16.6,2.3c0,17.1,0.3,26.5-19.6,41.1c12.7,15,21.9,1,43.9-12.7s41.3-45.4,58.6-50.5
		C1083,1025.5,1056.5,979.6,1056.5,979.6z"/>
	<path class="st1" d="M253.4,1756.8c0,0,251.2-288.7,602.9-323.3c351.7-34.7,725-1,789.3-51.5c64.3-50.5,73.4-108.6,73.4-108.6
		s-12,14.1-81.1,21.4c-69.1,7.3-626.6-21.5-823,18.6c-238.7,48.7-576.8,262.9-576.8,262.9S224.3,1738.4,253.4,1756.8z"/>
	<path class="st2" d="M1177.8,981.6c-2.6,4.7-67.4,271.4,28.4,281.2c95.9,9.8,481.5-123.1,519.9-267
		c38.7-158.1-69.4-182.5-69.4-182.5s-68.3-37.7-146.9,102c-66.3,109.1-66.3,109.1-66.3,109.1S1212.9,919.4,1177.8,981.6z"/>
	<path class="st2" d="M1316.2,1041.3c0,0-23.5,80.9,0,110.9c-22.2-2.2-22.2-2.2-22.2-2.2s-13.4-55.6,3.2-103.8
		C1316.2,1041.3,1316.2,1041.3,1316.2,1041.3z"/>
	<path class="st2" d="M1573.6,982.7c-247.8-18.4-371.7,25.5-510.5,84.7c8.2-36.7-30.6-102.9-30.6-102.9S1308.9,871,1439,854.1
		c42.9-5.6,151.4-40.3,187.9-45.1c74-9.7,88.5,25.2,98.6,69.5L1573.6,982.7z"/>
	<path class="st3" d="M1779,969.8c0,0,10.5-9.5,19.1-25.5c0.4-0.8,7.7-2.4,19.1-12.9c-7.6,19.2-7.9,23-11.7,25.9
		S1779,969.8,1779,969.8z"/>
	<g>
		<path class="st4" d="M2718.4,2018l-47.6,44.7l-26.2,0.1l36.4-34.1l-80.9,0.1l-34.1,31.7l-26.4,0.1l34.2-31.8l-112.7,0.1l11.9-10.9
			L2718.4,2018z"/>
		<path class="st4" d="M2643,2088.8l-248.6,1.7l12-11l248.1-1.5L2643,2088.8z"/>
		<path class="st4" d="M2373.4,2109.9l249.4-2.2l-12.6,11.8l-154.4,28.5c-36.4,6.7-68.4,12-99,16.5l0.1,0.3
			c35.2-1.5,66.3-2.2,105.5-2.7l103.9-1.4l-11,10.3l-252.3,3.7l12.3-11.3l158.4-28.8c34.1-6.2,68.6-12.2,99.8-16.7l0-0.4
			c-31.8,0.9-61.9,1.5-103.4,1.9l-108.2,1L2373.4,2109.9z"/>
		<path class="st4" d="M2523.4,2201l-253.7,4.4l12.2-11.2l253.2-4.1L2523.4,2201z"/>
		<path class="st4" d="M2290.9,2222.8c-14.7,5.2-30.4,12.7-38.8,20.5c-12.5,11.6-1.7,17.9,24.5,17.3c24.2-0.5,42.9-5.5,68.9-17.5
			c30-14.4,60.8-23.5,96.3-24.2c39-0.7,56.1,9.7,38.4,26.4c-9.3,8.8-22.1,15.3-32.5,19.2l-23.2-2.5c7.5-2.9,21.1-8.8,29.4-16.6
			c12.5-11.7-3.2-15.7-20.4-15.4c-23.6,0.5-40.9,5.9-67.2,18.2c-32.4,15-61.5,23-99.5,23.9c-40.2,0.9-64.3-8.3-41.8-29
			c9.2-8.4,26.5-17.8,40.8-22.6L2290.9,2222.8z"/>
		<path class="st4" d="M2424.2,2294.1l-106.4,2.8l-45.4,42.3l107.2-3.2l-12.1,11.4l-260.4,8l12.6-11.6l123.4-3.7l45.6-42.4
			l-122.5,3.2l12.4-11.4l257.4-6.4L2424.2,2294.1z"/>
	</g>
	<g>
		<g>
			<path class="st1" d="M2678.5,1799.9c-13.2,24.7-183.7,22.6-269.7,20c-0.9-3.7-1.8-7.4-2.6-11.1c-1.5-6.7-3-13.3-4.3-19.8
				C2467.6,1784.5,2693.7,1771.5,2678.5,1799.9z"/>
		</g>
		<g>
			<path class="st1" d="M2691.7,1575.1c3.3,14.7,14.2,25.9,22.6,32.5c5.2,0.7,10.6,1.2,16,1.6c23.9,1.6,46.7-8.8,66.8-23.9
				c-14.2-3.5-45.1-12.2-53.2-23.9c-10.7-15.4-0.8-18.1,4.6-11.5c5.5,9.8,42.7,21.7,59.5,26.7c10-8.7,19.1-18.2,27.3-27.8
				c-13.8-0.7-32.3-5.2-37.5-12c-6.8-8.8,1.5-13.7,8.2-8.1c4.9,4.1,28,6.3,39.9,7.2c15.6-20.1,25.9-37.6,28.5-42.2
				c0.4-0.8,0.7-1.2,0.7-1.2s-16.5-19.8-40.9-41.6c-9.5,2-24,5.4-31.6,9c-12,5.7-19.8,11.7-23.4,7.2c-5.9-10.7,27.2-20.5,45-24.9
				c-10.9-9.1-22.9-18.2-35.5-25.9c-55.8,4.6-53.4,42.5-65.7,30c-10.7-10.9,33.9-30.2,52.3-37.6c-12.5-6.4-25.2-11.2-37.8-13.2
				c-11.5-1.3-22-2.1-31.6-2.4c-26.6,17.6-11.1,47.7-26.1,42c-11.7-4.4,2.9-29.3,11.4-42.1c-129.9,2.6-66.5,104.3-66.5,104.3
				c-0.2,0.4-0.4,0.8-0.6,1.2c-25.2,55.5,11.1,91.5,68.2,105.1c-3.3-10.4-9.2-29.5-9.7-33.3
				C2681.6,1565.1,2689.7,1562.3,2691.7,1575.1z"/>
			<path class="st6" d="M2850.2,1494.2c0,0-157,10.9-225.8,3L2850.2,1494.2z"/>
			<path class="st6" d="M2785.3,1534.7c0,0-26.3-12.9-47.1-35.3L2785.3,1534.7z"/>
			<path class="st6" d="M2753.9,1458.1c0,0-38,25.4-38.8,41.8L2753.9,1458.1z"/>
			<path class="st6" d="M2719.9,1564.7c0,0-32.5-43-38.1-64.6L2719.9,1564.7z"/>
			<path class="st6" d="M2656.6,1450.6c0,0-21.3,24.8-13.2,48.2L2656.6,1450.6z"/>
		</g>
		<g>
			<path class="st4" d="M2283.3,1505.6c9-1.9,17.8-3.5,26.5-4.8c14.6,6.8,34.3,20,41.9,42.2c5.1,19.8,17.9,11.7,16,3.6
				c-1.4-5.8-14-34-21-49.3c96.2-4,161.4,38.2,126.9,141.1c0,0,119.3,135.5-92.9,198.9c12-24.7,32.1-71.5,12.3-73.3
				c-25.5-2.3,4.4,39.2-36.4,79.8c-15.8,3.9-33.1,7.4-52.2,10.5c-20.8,2.5-42.4,0.6-63.8-4.1c28.9-20.2,99-71.9,79.9-84.6
				c-22.1-14.7-12.3,45.6-103.1,78.4c-21.8-6.8-42.8-15.9-62.1-25.7c28.5-15.2,81.2-46.1,69.9-60.7c-6.6-5.7-18.4,7.7-37.2,22.3
				c-11.9,9.3-35,21.4-50.3,29c-43.3-24.1-73.4-48.6-73.4-48.6s14.9-37.3,41.1-83.5c19.6-4,57.7-10.9,66.4-6.5
				c11.8,6,24.6-5.7,12.1-16.9c-9.6-8.6-40.6-7.6-63.2-2.4c11.9-19.1,25.5-38.8,40.5-57.3c28.1,0.3,90.9,2.6,101.4,16
				c9.7,8.3,25.5-0.6,5.7-20.6c-15.1-15.3-67.1-15.3-90.8-14.4C2208.2,1541.1,2244,1513.9,2283.3,1505.6z"/>
			<path class="st7" d="M2104.3,1746c0,0,255.3-89.2,369.1-107.8L2104.3,1746z"/>
			<path class="st8" d="M2204.5,1650.9c0,0,44.9,8.8,82.4,35.6L2204.5,1650.9z"/>
			<path class="st8" d="M2267.5,1760.4c0,0,58.3-58.4,57.2-85.2L2267.5,1760.4z"/>
			<path class="st8" d="M2307,1572.7c0,0,59.8,54.6,72.2,87.1L2307,1572.7z"/>
			<path class="st8" d="M2428,1728.3c0,0,31-49.7,14.2-83.9L2428,1728.3z"/>
		</g>
		<g>
			<path class="st0" d="M2623.9,1498.5c0,0-79.6,23.7-61.7,195.5L2623.9,1498.5z"/>
			<path class="st4" d="M2540.9,1706.4c0,0-83.9-94.5,72-189.7c-21.6,37.1-100.7,78.9-44.8,173.3c23.2,53.7-10.9,76.6-10.9,76.6
				S2506.3,1770.9,2540.9,1706.4z"/>
			<path class="st9" d="M2414.7,1820.6c-0.9-6.6-1.6-13.1-2-19.6c8.1-11.5,22.9-27.2,45.2-34.4c19.7-5.2,13.2-14.3,5.1-12.3
				c-5.8,1.4-34.4,12.8-50,19.1c5.9-72.2,53.5-124,149.8-105c0,0,143.7-98.9,183.6,56.5c-22.7-7.4-66.1-19.4-69.9-4.3
				c-4.8,19.3,38.5-6,73.8,22c2.2,11.6,3.8,24.4,4.9,38.6c0.4,15.5-3.7,31.9-10.4,48.3c-16.7-20.4-59.7-69.7-74-54.4
				c-16.5,17.6,43,6.2,65.6,72.3c-8.8,16.8-19.8,33.3-31.2,48.5c-11.9-20.4-36.5-58-51.8-48.5c-6.2,5.4,5.6,13.4,17.9,26.5
				c7.8,8.3,17.2,24.9,23,35.9c-27.8,34.2-54.7,58.5-54.7,58.5s-34.7-8.7-76.9-25.3c-1.9-14.5-4.7-42.7,0.4-49.5
				c7.1-9.3-3-18.1-15.1-8c-9.4,7.8-11.5,31.1-8.7,47.8c-17.3-7.7-35-16.6-51.5-26.6c3.2-21.2,11.8-68.6,25.8-77.4
				c9-7.9,2-19.2-19.4-2.9c-16.4,12.4-21.6,51.5-23.2,69.3C2441.6,1874.7,2418.8,1849.6,2414.7,1820.6z"/>
			<path class="st7" d="M2630,1939.1c0,0-60.7-186.2-67.2-270.6L2630,1939.1z"/>
			<path class="st8" d="M2547.8,1870.1c0,0,13.1-34.4,42.9-64.5L2547.8,1870.1z"/>
			<path class="st8" d="M2660.5,1815.3c0,0-50.8-39.9-76.9-37.3L2660.5,1815.3z"/>
			<path class="st8" d="M2482.3,1798.2c0,0,59.1-48.7,91.9-60.2L2482.3,1798.2z"/>
			<path class="st8" d="M2645.6,1696.6c0,0-45.1-20-80.1-5L2645.6,1696.6z"/>
		</g>
		<g>
			<path class="st1" d="M2369.6,1271.8c5.2,3.7,10.2,7.5,14.9,11.4c3.1,11.7,5.1,29.7-3.6,46.4c-8.4,14,2,16.2,5.5,10.5
				c2.5-4.1,12.1-26.8,17.2-39.3c47,49.1,54.3,107.8-18,148c0,0-18.5,140.7-152,63.6c19.1-7.6,54-23.5,45.8-35.2
				c-10.6-14.9-19.4,24.7-60.6,26c-9.5-6.2-19.5-13.5-30-21.9c-11.1-9.6-20.1-22.3-27.5-36.4c24.5,3.9,85.4,11.9,83.4-5.5
				c-2.3-20.1-30.7,19.4-90.8-10.4c-6.4-15.5-11.3-31.9-14.9-47.7c21.6,6.5,63,17.1,65.7,2.8c0-6.7-12.8-5.4-29.5-7.1
				c-10.6-1.1-28-6.5-39.3-10.3c-6.9-36.8-7.6-66.8-7.6-66.8s27.3-13.3,64.8-25.6c11.3,8.2,32.9,24.6,34.5,31.7
				c2.2,9.7,14.5,9.9,14.9-3.1c0.3-10-14.8-26-28.1-35.1c16-4.5,33-8.5,50.2-11c12.9,15.2,40.9,50,38.5,63.2
				c0,9.9,12.2,13.3,13.9-8.7c1.3-16.8-22.9-44.5-34.4-56.6C2315.2,1252,2346.7,1255.6,2369.6,1271.8z"/>
			<path class="st6" d="M2154.8,1313.2c0,0,167.6,85.4,230.8,135.6L2154.8,1313.2z"/>
			<path class="st6" d="M2253.4,1312.5c0,0,16.1,29,18.9,64.2L2253.4,1312.5z"/>
			<path class="st6" d="M2222.9,1408.4c0,0,59.1-2.2,73.2-18L2222.9,1408.4z"/>
			<path class="st6" d="M2343.9,1322.7c0,0-2,63-14,88.1L2343.9,1322.7z"/>
			<path class="st6" d="M2315.2,1475.8c0,0,41.6-11.7,52.5-40.2L2315.2,1475.8z"/>
		</g>
		<g>
			<path class="st1" d="M2616.2,1384.9c11.5-2.9,19.3-11.6,23.5-18.2c-0.1-4-0.4-8.1-0.8-12.2c-1.8-18.2-13.2-35.2-28.1-50.1
				c-1,10.9-4.1,34.7-12.6,41.2c-11.1,8.6-14.6,1.1-9.9-3.1c7.3-4.5,12.2-33.2,14.1-46c-8.3-7.3-17.3-14-26.1-19.9
				c1.2,10.5-0.1,24.7-5,28.9c-6.3,5.4-11.4-0.7-7.7-6c2.7-3.9,1.6-21.5,0.8-30.6c-18.3-11.2-33.9-18.5-38-20.4
				c-0.7-0.3-1.1-0.5-1.1-0.5s-14,13.2-28.6,32.4c2.9,7.2,7.5,18.1,11.4,23.8c6.1,8.9,12.1,14.7,8.9,17.6
				c-7.9,4.8-20.1-20.1-26-33.5c-6,8.6-11.9,18-16.5,27.8c10.9,42.3,41.5,39.3,32.8,49.1c-7.5,8.5-29-24.9-37.3-38.6
				c-3.6,9.7-5.9,19.5-5.9,29.1c0.4,8.8,1.1,16.8,2.1,24.1c17.7,19.7,40.2,7,37.5,18.6c-2.1,9.1-24.2-1.3-35.7-7.4
				c18.8,98.7,93.4,47.4,93.4,47.4c0.4,0.1,0.7,0.3,1.1,0.4c48.4,17.5,73-11.2,76.8-55.1c-8.1,2.8-22.8,7.9-25.8,8.4
				C2609.3,1392.8,2606,1386.8,2616.2,1384.9z"/>
			<path class="st6" d="M2530,1266.7c0,0,29,119.1,31.4,171.7L2530,1266.7z"/>
			<path class="st6" d="M2571.3,1314.9c0,0-7.1,20.4-22.7,36.9L2571.3,1314.9z"/>
			<path class="st6" d="M2513,1341.1c0,0,25.6,28.1,39,28.3L2513,1341.1z"/>
			<path class="st6" d="M2604.1,1363.8c0,0-30.8,26.1-47.7,30.9L2604.1,1363.8z"/>
			<path class="st6" d="M2519.4,1415.4c0,0,22.9,15.4,40.9,8.5L2519.4,1415.4z"/>
		</g>
		<path class="st0" d="M2561.4,1438.4c0,0,13.4,2-20.6,165.8L2561.4,1438.4z"/>
		<path class="st0" d="M2384.3,1450.5c0,0,145.4,43,156.6,156.8L2384.3,1450.5z"/>
		<path class="st0" d="M2462.6,1642c3.6-1.3,64.8-6.8,85,7.5L2462.6,1642z"/>
	</g>
	<ellipse class="st1" cx="2123.3" cy="446.3" rx="69" ry="67.4"/>
	<ellipse class="st1" cx="1784.1" cy="2397.1" rx="113.2" ry="89.1"/>
	<ellipse class="st4" cx="150.9" cy="995" rx="81.8" ry="82.6"/>
	<ellipse class="st4" cx="2860.2" cy="1649.5" rx="56.8" ry="57.6"/>
	<ellipse class="st1" cx="533" cy="2290" rx="153.3" ry="141.3"/>
	<ellipse class="st1" cx="2545.7" cy="927" rx="83.2" ry="76.6"/>
	<path class="st2" d="M2216.5,785.6c0,0,34.6,18.9,44.1,21.4c9.5,2.5,10.1,12,10.1,12L2216.5,785.6z"/>
	<path class="st2" d="M1117.2,1014.8c0,0-4-48.7-28.3-68.8L1117.2,1014.8z"/>
</g>
</svg>
