<svg id="Layer_1" data-name="Layer 1" xmlns="http://www.w3.org/2000/svg" xmlns:xlink="http://www.w3.org/1999/xlink" viewBox="0 0 6000 4000"><defs><style>.Graphic-Style-123{fill:url(#linear-gradient);}.Graphic-Style-102{fill:url(#linear-gradient-2);}.cls-1{fill:url(#linear-gradient-3);}.cls-2{fill:#9d8a9d;}.cls-3{fill:url(#linear-gradient-4);}.cls-4{fill:url(#linear-gradient-5);}.cls-5{fill:#3b546b;}.cls-6{fill:#a8a1a8;}.cls-7{fill:#dbd2db;}.Graphic-Style-116,.cls-18{fill:#1a1a1a;}.Graphic-Style-115,.cls-19,.cls-8{fill:#fff;}.cls-18,.cls-8{stroke:#1a1a1a;}.cls-10,.cls-12,.cls-13,.cls-18,.cls-8{stroke-linecap:round;stroke-linejoin:round;}.cls-10,.cls-12,.cls-18,.cls-8{stroke-width:5.34325px;}.cls-9{fill:#339e7e;}.cls-10,.cls-12,.cls-13{fill:none;}.cls-10{stroke:#10663f;}.cls-11{fill:#00593b;}.cls-12{stroke:#3dbe88;}.cls-13{stroke:#134411;stroke-width:8.01487px;}.Graphic-Style-110{fill:#152a52;}.Graphic-Style-120{fill:#d1334a;}.cls-14{fill:#ef5668;}.cls-15{fill:#fc9590;}.Graphic-Style-111{fill:#e8766f;}.Graphic-Style-114{fill:#912433;}.cls-16{fill:#102140;}.cls-17{fill:#db6767;}.cls-20{fill:#535353;}.cls-21{fill:#f9ebf9;}.Graphic-Style-107{fill:#6584c6;}.Graphic-Style-119{fill:#4d73c6;}.cls-22{fill:#d896d8;}.cls-23{fill:#8e3d8e;}.cls-24{fill:#ca74ca;}.cls-25{fill:#d590d5;}.cls-26{fill:#160a16;}.Graphic-Style-115{opacity:0.5;}.cls-27{fill:#384a6e;}.cls-28{fill:#b7c0d4;}.Graphic-Style-105{fill:#ffde70;}.Graphic-Style-106{fill:#ffb114;}.cls-29{fill:#434343;}.cls-30{fill:#664708;}.cls-31{fill:#d9d9d9;}.Graphic-Style-101{fill:url(#linear-gradient-6);}</style><linearGradient id="linear-gradient" x1="1288.58039" y1="3014.95369" x2="4941.21263" y2="3014.95369" gradientUnits="userSpaceOnUse"><stop offset="0" stop-color="#68b2fc"/><stop offset="1" stop-color="#ebf0f7"/></linearGradient><linearGradient id="linear-gradient-2" x1="686.33561" y1="1994.54328" x2="5456.56848" y2="1994.54328" gradientUnits="userSpaceOnUse"><stop offset="0" stop-color="#68b2fc"/><stop offset="1" stop-color="#529bf7"/></linearGradient><linearGradient id="linear-gradient-3" x1="1116.53165" y1="1859.57263" x2="5227.92913" y2="1859.57263" xlink:href="#linear-gradient"/><linearGradient id="linear-gradient-4" x1="1116.53173" y1="1741.72394" x2="2757.678" y2="1741.72394" xlink:href="#linear-gradient-2"/><linearGradient id="linear-gradient-5" x1="1137.95417" y1="1215.46987" x2="2649.5779" y2="1215.46987" xlink:href="#linear-gradient"/><linearGradient id="linear-gradient-6" x1="3431.67399" y1="608.84189" x2="3633.94295" y2="608.84189" gradientUnits="userSpaceOnUse"><stop offset="0" stop-color="#4085f0"/><stop offset="1" stop-color="#275dc9"/></linearGradient></defs><title>2</title><path class="Graphic-Style-123" d="M1288.58039,2793.86861c55.2908,134.05748,186.46961,387.56828,453.66583,503.26137,220.80425,95.6059,442.90652,57.44016,694.67582,14.1763,343.1-58.958,344.301-140.398,552.90524-134.67543,282.54714,7.75109,357.30987,159.27069,673.41019,219.73373,66.49321,12.71872,309.57716,47.52416,574.17079-28.35277,360.63336-103.418,734.80781-407.17193,701.76439-559.96689C4895.44759,2605.85811,4103.48993,2505.27366,1288.58039,2793.86861Z"/><path class="Graphic-Style-102" d="M5428.281,1649.12633c-131.403-612.43091-697.56495-977.30745-1155.4301-1020.69916-232.09372-21.99557-245.14658,56.73678-616.702,116.95495C2834.45342,878.55532,2575.16765,545.86578,1806.043,660.32424c-341.15822,50.76966-687.62544,102.32984-914.4201,382.76194-371.72649,459.64091-173.45367,1226.8644,82.245,1578.23,165.2229,227.03909,392.68612,363.93339,392.68628,363.93355,68.945,41.49317,168.55314,100.39412,304.80676,131.13132,237.93447,53.67511,359.94013-29.89482,559.99377-42.5291,342.6553-21.63992,401.55234,197.20786,772.64957,276.4395,190.70426,40.7165,257.39065.48071,1084.54483-212.64568,811.68081-209.13951,858.22273-198.93291,974.67268-297.7039C5379.41366,2571.7529,5521.74546,2084.73665,5428.281,1649.12633ZM2709.46093,2042.746v0Z"/><path class="cls-1" d="M5148.13624,1664.38967c-146.272-421.8028-552.51962-838.27148-943.1831-819.04114-297.4112,14.64044-412.51474,273.2707-678.43,215.10157-227.72869-49.81573-217.93937-255.82361-471.59164-405.38366-401.69078-236.847-1082.97845-107.43273-1265.85112,223.37474-99.34562,179.711-11.729,346.73513-173.74424,521.20794-113.535,122.26461-192.4973,78.94237-314.39453,198.55525-154.85438,151.95316-219.84068,410.6806-165.47076,645.30506,73.84454,318.66384,366.80281,477.15664,388.85642,488.11529Q2765.3577,2950.8628,4006.38827,3170.101c80.80618,13.07178,529.37756,77.93773,879.73693-216.66535C5295.75747,2608.9924,5272.55149,2023.16375,5148.13624,1664.38967ZM2709.46093,2042.746v0Z"/><path class="cls-2" d="M5224.30658,2042.53273c-143.70379-88.62144-413.949-68.20739-740.11389-95.87271-488.687-41.45064-1188.66937,312.81812-1436.96927,221.42292-95.11888-35.01162-167.422-141.70115-220.4322-260.01308V2961.71561l874.15549,154.42671,1292.21644-269.05123C5190.0205,2615.6497,5243.38953,2314.00967,5224.30658,2042.53273Z"/><path class="cls-3" d="M1789.08039,878.44118c-99.34562,179.711-11.729,346.73481-173.74424,521.20794-113.5352,122.26461-192.49714,78.942-314.39453,198.55525-154.85438,151.95316-219.84068,410.6806-165.47059,645.30506,73.84437,318.66384,366.80264,477.15664,388.85625,488.11529q616.67544,108.94065,1233.35072,217.88147V550.24141C2377.73232,484.90045,1931.74467,620.36925,1789.08039,878.44118ZM2709.46093,2042.746v0Z"/><path class="cls-4" d="M1789.08792,878.44434c-99.36165,179.69773-11.73341,346.74258-173.74011,521.19533-113.55624,122.27609-192.50869,78.94866-314.41754,198.56478-79.05183,77.58136-134.68646,182.97884-162.9761,298.79163,82.88023-108.38031,187.61153-189.51647,319.29-210.44661,445.578-70.82069,892.78644,45.05825,1192.33375-113.699V537.11272C2296.91677,511.32448,1918.404,644.51959,1789.08792,878.44434Z"/><polygon class="cls-5" points="1937.105 644.547 1937.105 2265.275 1979.712 2269.923 1982.989 640.87 1937.105 644.547"/><path class="cls-6" d="M2757.67209,550.24564c-35.55406-6.11555-71.68651-10.47053-108.09419-13.13292V1572.85044a518.70914,518.70914,0,0,0,108.09419-75.99162Z"/><path class="cls-5" d="M1117.43284,850.53748q-23.2569,13.53058-45.76352,28.52193V2568.54155l42.60713,5.10342Z"/><path class="cls-7" d="M2826.79122,564.5192q-34.09256-8.30851-69.11321-14.27781V2949.5062q34.5566,6.10462,69.11321,12.20941Z"/><path class="Graphic-Style-116" d="M1121.0332,2361.02709s-98.27527-110.67331,84.23821-222.11582c-25.29938,43.42386-117.95044,92.30775-52.432,202.8775,27.13262,62.91857-12.79675,89.67426-12.79675,89.67426S1080.62546,2436.4748,1121.0332,2361.02709Z"/><path class="cls-8" d="M1282.157,2470.43255c-15.48575,28.94712-215.09014,26.47768-315.70922,23.35819q-1.61562-6.54507-3.0821-13.0345-2.70222-11.69775-5.01368-23.20974C1035.2227,2452.44036,1299.92609,2437.19617,1282.157,2470.43255Z"/><path class="cls-8" d="M1282.1617,2470.44273l-16.6805,216.86015c-25.85335,39.12628-25.45567,89.53814-35.971,137.51382-4.25095,22.67038-20.40935,30.22712-38.55645,29.18313a1521.83708,1521.83708,0,0,1-124.22088-119.9144c-49.99156-80.29093-81.26432-162.59549-100.28142-240.30111C1067.056,2496.91629,1266.67454,2499.37735,1282.1617,2470.44273Z"/><path class="cls-9" d="M1331.28469,2151.04842c12.684,12.20463,30.68,16.032,43.04931,17.03453q8.32413-4.08972,16.62338-8.86058c24.27026-13.943,39.80145-38.83445,49.667-66.654-16.05838,5.80279-51.84679,17.3538-67.39494,11.181-20.37215-8.07187-12.455-17.12979-2.98981-14.12737,11.7347,6.03467,55.74025-6.48749,75.25094-12.52643a313.22544,313.22544,0,0,0,8.6352-44.756c-13.85917,8.27983-34.869,15.839-44.36992,12.56663-12.31892-4.2422-7.44307-14.3793,2.703-13.22979,7.44611.84745,31.37367-11.952,43.56469-18.8031a439.86275,439.86275,0,0,0,.41032-59.62361c-.07274-1.0435-.12058-1.6094-.12058-1.6094a522.20973,522.20973,0,0,0-66.89134-14.0659c-7.98972,8.14692-19.85533,20.83348-24.94083,29.27305-8.00188,13.27652-11.66151,24.25627-18.11193,22.18987-12.65529-6.61572,13.28891-37.58967,27.79919-53.41395a356.026,356.026,0,0,0-51.40153-2.25092c-51.48564,40.6344-24.50443,76.07094-44.67395,71.83086-17.47937-3.67741,13.48492-51.47911,26.6198-70.53812-16.32337,1.81138-31.87133,5.432-45.33932,11.63621-12.06649,6.1598-22.83829,12.20778-32.41612,18.13368-14.49158,34.3996,20.03544,53.66887,1.72217,57.88648-14.30247,3.29415-16.17537-30.37836-16.16527-48.45472-124.94567,86.68861,2.77792,144.7774,2.77792,144.7774.07972.53127.171,1.0486.256,1.57315,11.43077,70.46171,70.08951,82.00146,134.57755,58.29348-9.96092-8.02091-28.12232-22.80829-31.03657-26.14424C1315.01884,2147.73918,1321.10122,2139.85115,1331.28469,2151.04842Z"/><path class="cls-10" d="M1433.46166,1969.36193s-145.97333,112.38-218.17407,149.28408"/><path class="cls-10" d="M1396.41755,2051.00926s-33.942,4.46478-68.76978-3.921"/><path class="cls-10" d="M1316.19611,1996.6451s-20.52977,49.3987-10.77,65.8783"/><path class="cls-10" d="M1352.04694,2122.5609s-59.56018-20.79889-78.99881-38.35976"/><path class="cls-10" d="M1216.3699,2052.37709s-4.68861,37.9241,18.42167,55.55215"/><path class="cls-11" d="M882.7469,2066.36165q15.96665,1.95524,31.10784,4.77147c13.60456,13.10657,30.42275,35.15492,30.33284,62.65564-1.82889,23.83876,15.38965,19.73972,16.31176,10.02028.68877-6.98751-2.55918-42.9829-4.45311-62.61259,108.07816,32.16544,164.12934,103.66735,86.823,204.43558,0,0,80.51227,195.39007-178.53957,184.80265,22.721-22.73215,62.77148-66.88877,41.44572-76.44049-27.3055-12.23069-10.02119,45.07521-70.651,74.47552q-28.43106-2.57506-61.735-8.22869c-23.97884-5.09139-47.21143-15.425-69.10284-28.77814,39.727-11.39939,136.98861-41.88619,120.60308-63.25137-18.91124-24.64881-31.0048,45.77089-143.923,47.58913-21.52731-15.76972-41.38757-33.91209-58.94184-52.05473,37.31653-6.01312,107.40533-20.13651,100.50805-40.57838-5.15527-8.77684-23.34669,1.53238-49.64141,10.57258-16.71354,5.74766-46.91026,10.34571-66.74631,12.94439-38.71076-43.18156-62.71362-81.75169-62.71362-81.75169s30.66293-35.61115,77.2725-76.75908c23.25712,3.05472,68.09031,9.86548,75.974,18.06188,10.74836,11.16257,29.34273,3.0781,19.86821-14.05554-7.30645-13.21506-42.05037-23.824-69.10663-26.67963a674.287,674.287,0,0,1,66.60191-48.03735c31.0326,11.08565,99.64572,37.47249,106.16641,56.30184,7.60229,12.84131,28.49578,9.027,14.15477-20.63675-10.93009-22.65481-68.44821-42.394-95.03563-50.47137C786.13126,2077.10455,836.06523,2060.66206,882.7469,2066.36165Z"/><path class="cls-12" d="M593.15572,2264.52021s316.59573-1.59806,449.72115,21.11357"/><path class="cls-12" d="M740.242,2197.27464s46.39731,26.8861,77.71552,70.78768"/><path class="cls-12" d="M768.34958,2342.49041s86.7283-42.48832,95.70254-72.56712"/><path class="cls-12" d="M883.44991,2149.74624s45.4453,83.2023,46.74393,123.91"/><path class="cls-12" d="M958.32545,2367.9694s53.27676-43.22194,47.65028-87.53022"/><path class="cls-9" d="M924.02493,1809.9831q11.44061,8.11517,21.85,16.66647c4.5183,17.08979,7.43163,43.4157-5.20916,67.83872-12.31018,20.47166,2.86511,23.70214,8.02047,15.426,3.72627-5.93959,17.67166-39.25067,25.18185-57.46551,68.78784,71.76818,79.40251,157.74519-26.38134,216.49582,0,0-27.12154,205.93064-222.40208,93.06321,27.94368-11.14429,79.06833-34.42289,66.9603-51.43445-15.50281-21.7822-28.34659,36.08763-88.62347,38.02383-13.85745-9.096-28.4896-19.70638-43.92937-31.97208-16.19651-14.10407-29.42016-32.57252-40.22742-53.19093,35.90053,5.72625,124.9725,17.45245,122.08111-8.09306-3.34149-29.47458-44.87467,28.32667-132.93639-15.14952-9.42131-22.62231-16.4702-46.68908-21.73757-69.83522,31.57619,9.55414,92.17673,24.98251,96.193,4.04728.02963-9.86479-18.73606-7.9605-43.18154-10.42088-15.5388-1.56254-40.968-9.532-57.47948-15.14216a661.57487,661.57487,0,0,1-11.076-97.7537,836.59654,836.59654,0,0,1,94.78251-37.41058c16.57,12.00447,48.09071,35.96582,50.43418,46.404,3.20051,14.22021,21.2605,14.45551,21.77358-4.56662.39666-14.67117-21.59376-37.9815-41.18963-51.32605a594.62225,594.62225,0,0,1,73.40988-16.12692c18.90547,22.25221,59.8477,73.12077,56.27759,92.47145.00273,14.4569,17.88681,19.4082,20.36833-12.70153,1.91252-24.51389-33.49753-65.03933-50.3442-82.84085C844.47743,1780.95478,890.56827,1786.27184,924.02493,1809.9831Z"/><path class="cls-10" d="M609.72893,1870.57705s245.30413,125.00961,337.76285,198.37214"/><path class="cls-10" d="M754.09448,1869.50753s23.55205,42.44083,27.6771,93.99333"/><path class="cls-10" d="M709.42576,2009.88594s86.42112-3.15427,107.10367-26.32231"/><path class="cls-10" d="M886.45063,1884.42547s-2.92705,92.14786-20.53247,128.87161"/><path class="cls-10" d="M844.537,2108.41268s60.91481-17.16546,76.82282-58.81982"/><path class="cls-9" d="M1245.06192,1794.15909c20.8367-5.27889,34.80792-21.00785,42.52881-32.81335q-.31143-10.855-1.42341-22.101c-3.24167-32.88244-23.7751-63.679-50.69894-90.57628-1.81145,19.666-7.44527,62.65074-22.829,74.4895-20.13813,15.52171-26.40841,2.04064-17.91643-5.62783,13.201-8.09468,22.07154-59.92207,25.44149-83.1982a465.16408,465.16408,0,0,0-47.154-36.00734c2.21853,18.97119-.18948,44.68092-9.01239,52.22035-11.439,9.7761-20.57015-1.31094-13.85879-10.79477,4.92981-6.95774,2.82824-38.7976,1.37627-55.22138a661.95339,661.95339,0,0,0-68.70332-36.83165c-1.24481-.56438-1.92433-.862-1.92433-.862a526.80083,526.80083,0,0,0-51.74564,58.56242c5.17869,12.99748,13.54873,32.659,20.60641,42.91965,11.10173,16.143,21.85213,26.52373,16.04152,31.73729-14.36107,8.664-36.40133-36.30194-46.99534-60.53516A351.58238,351.58238,0,0,0,988.924,1669.748c19.65717,76.5086,74.93325,71.067,59.3319,88.72579-13.52379,15.30182-52.35263-44.98277-67.41544-69.811-6.56584,17.494-10.62892,35.31463-10.60217,52.62525.719,15.87649,1.9955,30.3849,3.76434,43.62007,32.07578,35.56076,72.66666,12.66822,67.8266,33.62971-3.77975,16.37085-43.69655-2.317-64.58629-13.36866,33.92169,178.38855,168.82691,85.64515,168.82691,85.64515.6564.24449,1.30283.46883,1.95425.704,87.51324,31.56424,131.97136-20.27627,138.77791-99.49926-14.556,5.10068-41.284,14.30093-46.68618,15.18894C1232.6075,1808.46751,1226.7162,1797.543,1245.06192,1794.15909Z"/><path class="cls-10" d="M1089.24994,1580.60145s52.46385,215.19183,56.81953,310.2184"/><path class="cls-10" d="M1163.9767,1667.66358s-12.84548,36.80258-41.01535,66.645"/><path class="cls-10" d="M1058.57718,1714.99322s46.21045,50.78454,70.43742,51.05263"/><path class="cls-10" d="M1223.14676,1755.91428s-55.63931,47.08976-86.25087,55.87813"/><path class="cls-10" d="M1070.04112,1849.25443s41.35043,27.8721,73.98749,15.43869"/><path class="cls-13" d="M1146.0698,1890.81423s14.751,158.77863-25.0366,350.587"/><path class="cls-13" d="M937.74518,2061.44494s170.23568,50.29584,183.288,183.54268"/><path class="cls-13" d="M1029.38919,2285.63378c13.56335-4.86554,80.57826-4.63268,99.52531,8.76989"/><path class="cls-13" d="M1223.34609,2114.38105s-98.30548,30.94357-77.27662,232.086"/><path class="Graphic-Style-110" d="M2812.24106,2216.62171s60.75387,180.63218,68.29731,350.24375c-193.77929,44.13561-832.8001-6.219-832.8001-6.219s14.00837-297.09047,80.37687-332.6226C2416.49021,2250.40369,2812.24106,2216.62171,2812.24106,2216.62171Z"/><path class="Graphic-Style-116" d="M2880.53845,2566.8655c-7.54344-169.61165-68.29738-350.24382-68.29738-350.24382s-395.75084,33.782-684.1259,11.40221c-17.20134,9.20919-30.878,36.0092-41.71248,70.632,61.546,25.48439,298.61525,103.97132,672.74983-9.28015-4.13676,90.64056,73.45773,94.77713,73.45773,94.77713,12.06508,42.24976,11.54525,131.88425,9.70195,189.49215C2856.41809,2571.68572,2869.24337,2569.43806,2880.53845,2566.8655Z"/><path class="Graphic-Style-120" d="M2025.52528,1497.73476c-85.50353,55.46162-168.99911,100.9438-241.85988,164.08113,7.63852,4.21811,13.32028,9.35,16.18025,15.65959,0,0,180.91542-96.95039,314.02731-234.98972-.96485.57137-1.92675,1.15318-2.85572,1.81652C2081.62938,1463.00365,2054.91314,1479.03339,2025.52528,1497.73476Z"/><path class="cls-14" d="M2229.41644,1095.38145c-25.74-.919-176.50213,78.13521-272.10741,168.22032-95.60545,90.08544-340.25942,323.85675-337.50153,369.23848,19.564,10.36754,121.67954,5.68242,163.8579,28.97564,72.86077-63.13733,156.35635-108.61951,241.85988-164.08113,29.38786-18.70137,56.1041-34.73111,85.492-53.43248.929-.66334,1.89087-1.24515,2.85572-1.81652,13.667-14.17278,26.83152-28.77735,39.24306-43.75566C2153.116,1398.7301,2255.15626,1096.30048,2229.41644,1095.38145Z"/><path class="Graphic-Style-120" d="M2771.57031,1674.12388c-70.50516,28.94889-142.37843,50.69889-222.4068,50.69889-37.40273,0-80.14871,18.70136-104.19332,53.43247-61.44734,98.85007-133.58118,184.342-232.43126,229.75963-32.06828,14.57653-74.46025,15.59665-110.7173,1.8312-16.65574,87.86061-31.441,153.00019-31.441,153.00019s68.25669,148.9166,349.55694,142.71173,397.12974-37.22924,407.47169-93.07292C2841.20439,2157.30684,2787.44009,1837.65451,2771.57031,1674.12388Zm-62.10938,368.6221v0Z"/><path class="cls-14" d="M2767.42607,1598.20437c4.13674-101.34591,24.82062-260.604-97.21407-366.08614-122.03469-105.48282-384.94454-173.407-473.54936-126.66536l-76.45615,292.82326a1269.45618,1269.45618,0,0,1,27.62368,239.61646c1.67678,97.59678-23.82546,254.93591-46.00854,371.95348,36.25705,13.76545,78.649,12.74533,110.7173-1.8312,98.85008-45.4176,170.98392-130.90956,232.43126-229.75963,24.04461-34.73111,66.79059-53.43247,104.19332-53.43247,80.02837,0,151.90164-21.75,222.4068-50.69889C2768.40461,1641.50346,2766.7381,1615.05856,2767.42607,1598.20437Z"/><path class="cls-15" d="M2357.886,1064.12735s-8.963-52.39655-22.06277-33.782-10.34192,92.38339,8.963,98.58825"/><path class="cls-15" d="M2626.6406,1195.84128c5.34325-16.02974-5.34325-34.7311-24.04461-34.7311-74.80547,5.34324-154.95418,13.35812-224.41639-18.70137-23.91074-11.03577-31.35913-34.73437-32.80811-58.89051-12.43306,46.41815-71.31917,284.20309,13.204,332.67715,71.38049,40.93663,184.30371-8.43232,256.05908-105.50305C2581.03368,1285.53374,2613.76025,1234.48264,2626.6406,1195.84128Z"/><path class="Graphic-Style-111" d="M2517.15164,949.77209c-125.482-23.0708-169.60749,125.84581-169.60749,125.84581s-.81287,2.82392-2.17266,7.9004c1.449,24.15614,8.89737,47.85474,32.80811,58.89051,69.46221,32.05949,149.61092,24.04461,224.41639,18.70137,18.70136,0,29.38786,18.70136,24.04461,34.7311-12.88035,38.64136-45.60692,89.69246-12.006,114.85112a347.65608,347.65608,0,0,0,52.81968-104.08309C2717.09538,1045.283,2621.61337,968.97765,2517.15164,949.77209Z"/><path class="Graphic-Style-111" d="M2650.90709,1207.98806c2.06838-1.37885,41.536-29.81955,53.778,4.05316,10.57174,31.7137-40.76467,91.6822-77.60763,80.69894l-7.19613-3.39955"/><path class="cls-15" d="M2641.69163,1253.45313s22.371-60.73034,39.27724-37.98326-50.43995,66.55112-52.95282,66.55112S2641.69163,1253.45313,2641.69163,1253.45313Z"/><path class="cls-14" d="M2695.29533,1256.69769l-122.29739,351.84814s-4.13675,73.604,8.27365,89.54341c-74.46189,98.67038-223.3855,363.41094-223.3855,363.41094,93.07715,24.81948,111.86494,119.96069,92.12911,155.12147,108.50405-97.20934,400.14624-407.45228,406.35144-574.98317C2879.11882,1534.08769,2854.633,1361.77546,2695.29533,1256.69769Z"/><path class="Graphic-Style-114" d="M2837.59858,1430.26941c30.873,169.88454,7.73669,183.10243-74.99869,353.58574-61.66813,127.07268-230.56516,287.433-312.59252,360.87236,9.92792,28.19375,8.87454,56.09758.008,71.89414,108.50389-97.20934,400.14608-407.452,406.35128-574.98317C2868.72225,1583.23389,2867.13434,1505.732,2837.59858,1430.26941Z"/><path class="cls-16" d="M2680.783,1197.49551a38.8907,38.8907,0,0,0-17.32685,3.90255c-21.45325,10.49026-26.35056,38.75335-26.35056,38.75335s-8.92433,23.09307-16.25779,12.60312a21.306,21.306,0,0,1-2.33675-4.77282c18.59454-24.833,18.59454-85.4863,11.70852-103.40873-6.88586-17.94732-99.28715,26.17542-212.34618-13.79625-68.88455-29.90411-68.06416-84.2431-59.4131-117.97541a137.25042,137.25042,0,0,1,11.13682-29.55606c8.70068-20.55722,14.66676-75.96553,34.18123-70.32275,40.57,11.708,106.81937-29.0839,164.86541-24.36084,49.76776,4.05184,97.32319,36.14346,128.27277,67.6382,18.22174,18.519,30.67616,36.83955,34.42991,49.09432C2741.46393,1038.38017,2700.546,1163.41545,2680.783,1197.49551Z"/><path class="cls-8" d="M2759.15252,2289.3757s-18.61545,62.60377,23.21188,86.04433,50.24585,8.7328,50.24585,8.7328S2751.56844,2373.85,2759.15252,2289.3757Z"/><path class="Graphic-Style-111" d="M1712.94531,1890.46343c-52.62482-85.202-72.34076-184.50738-63.56-284.68707a206.48981,206.48981,0,0,0-17.5022,11.04263s-40.67818,64.117,46.19394,255.778c-60.67263,57.22271-63.21413,76.75634-57.83729,148.45709a150.26142,150.26142,0,0,0,11.795,16.28607C1628.441,1981.41865,1663.761,1922.082,1712.94531,1890.46343Z"/><path class="cls-15" d="M1827.69028,1946.366c-2.75789-88.24707-44.12566-69.63245-38.60989-133.06,5.51561-63.42726,12.41023-109.61875,15.85755-150.29514,3.2505-38.35469-60.93533-110.3995-155.55261-57.23445-8.78078,100.17969,10.93516,199.485,63.56,284.68707-49.18435,31.61856-84.50428,90.95522-80.91054,146.87668,42.1464,50.62062,94.99413,40.70639,94.99413,40.70639s40.67818-51.01751,44.81492-68.25326c11.7208.68943-32.40469,71.011-32.40469,71.011s7.58406,14.22888,24.1312,12.9746C1780.11731,2092.52454,1830.448,2034.6124,1827.69028,1946.366Z"/><path class="cls-17" d="M1679.11123,1994.9705l-15.85761,55.84369s23.78642-50.32826,29.30211-72.04526S1679.11123,1994.9705,1679.11123,1994.9705Z"/><path class="cls-17" d="M1719.67454,2081.72356c.45964-1.37885,56.0762-102.38469,65.269-88.65128s-42.01036,92.40587-42.01036,92.40587-5.33266,3.1397-3.4941-4.67382,42.74661-68.94284,35.39236-68.48322-44.12553,60.6697-47.80266,65.7255S1719.67454,2081.72356,1719.67454,2081.72356Z"/><path class="cls-17" d="M1686.90424,2067.81382s33.49532-83.73877,43.33767-79.85294-39.43078,83.31664-39.43078,83.31664Z"/><path class="cls-17" d="M1653.39718,1961.25076s-15.65352,62.27488-15.18816,74.9975C1645.64979,2045.34614,1657.71507,1960.64245,1653.39718,1961.25076Z"/><path class="cls-18" d="M1761.82745,2227.59511c-54.161-19.3423-110.25637-23.21076-166.35172-38.68459-.1072-.0268-.21428-.05832-.32148-.08547q12.56187,12.85771,25.0855,25.72841c53.166,60.66969,288.80693,91.19318,288.80693,91.19318s-10.94278-9.87833-72.509-89.24242c-8.064,3.724-16.17433,7.50694-24.41786,11.09089C1796.64525,2235.332,1777.302,2233.3978,1761.82745,2227.59511Z"/><path class="cls-19" d="M1267.84753,1860.18737s164.631,162.12913,327.30672,328.63768c.1072.02715.21428.05867.32148.08547,56.09535,15.47383,112.19069,19.34229,166.35172,38.68459,15.47458,5.80269,34.8178,7.73692,50.29238,0,8.24353-3.584,16.3539-7.36693,24.41786-11.09089-33.7824-43.54838-82.79333-107.99952-153.63435-203.26386C1514.67468,2038.05974,1267.84753,1860.18737,1267.84753,1860.18737Z"/><path class="Graphic-Style-111" d="M1894.61572,2339.2962c-53.43247,8.01487-106.86494,10.6865-162.969-2.67162-18.96373-4.74089-34.55337-13.86851-48.45889-25.20921,15.83162,36.65982,102.67749,87.37452,133.91726,82.849,31.72862-4.59625,303.836-96.5199,339.688-99.27762s272.63573-59.41721,293.22211-78.36513c6.24368-5.74667,10.59681-21.35342,10.49554-40.58295-161.02484,58.04243-322.04984,87.34386-483.07469,141.88451C1950.71982,2325.93808,1921.332,2333.953,1894.61572,2339.2962Z"/><path class="cls-15" d="M2357.88609,2061.50018c-149.61321,34.012-453.00311,200.52586-549.05453,192.2527,0,0-60.19959,7.48573-96.05159-8.27316s-83.65473-37.361-96.52464-28.85807c-10.23627,6.763,29.54049,56.4131,52.72381,80.61246,5.96468,6.22607,10.831,10.76754,13.46459,12.46046.21248.56648.49637,1.14714.74406,1.7208,13.90552,11.3407,29.49516,20.46832,48.45889,25.20921,56.1041,13.35812,109.53657,10.68649,162.969,2.67162,26.71624-5.34325,56.1041-13.35812,82.82033-21.373,161.02485-54.54065,322.04985-83.84208,483.07469-141.88451C2460.27822,2131.86543,2436.5038,2068.54515,2357.88609,2061.50018Z"/><path class="cls-7" d="M5147.77024,2758.68858c3.34074,42.60584-104.82734,129.04433-220.12465,160.16554-111.1201,40.41879-316.5305,84.14387-839.09318,218.799-356.52882,91.87479-571.78362,151.6082-716.56286,186.60814-191.11658,46.16111-259.479,49.1937-367.98881,26.02628a971.25253,971.25253,0,0,1-137.91826-39.9964c-254.95467-95.2803-339.57491-255.0667-634.72666-236.44817-200.06594,12.65258-322.04945,96.22492-560.00044,42.5318-136.25259-30.7243-235.86293-89.63751-304.79709-131.12533,0,0-186.29392-112.13387-344.17393-301.725-39.90289-42.2361-73.27586-85.56124-94.505-130.91095l1061.84621-81.59906Z"/><polygon class="cls-20" points="1909.047 2627.881 2329.738 2696.852 2880.538 2648.893 2839.941 2635.965 1902.181 2607.679 1873.384 2616.664 1909.047 2627.881"/><path class="cls-20" d="M2902.40459,2554.15262s128.05976,29.86369,198.10858,36.47879c16.90762,26.03249,103.726,26.08353,139.1767,31.37415s64.92733,60.12621,137.90954,65.04828,88.93141,32.22695,118.17159,30.09281,39.05857-54.69353,49.65553-59.86767-31.98072-38.90612-10.69188-45.51975C3396.5316,2597.17138,2902.40459,2554.15262,2902.40459,2554.15262Z"/><path class="cls-20" d="M3668.55388,2761.38108c39.57762,2.95341,90.31769-36.78531,169.23862-23.46806,88.49526,14.93283,307.16115,32.45971,354.27454-1.42256,61.29044,3.33071,696.24952,65.35236,749.14559,44.0878s67.95559-34.51529,67.95559-34.51529L3827.15971,2638.81449s-299.39817,44.53248-286.70315,84.17224C3547.15092,2748.97675,3628.97627,2758.42767,3668.55388,2761.38108Z"/><path class="cls-21" d="M3779.5828,3218.27356c-115.91484-48.928-340.14859-136.563-484.05948-147.96554-201.10255-15.93414-340.28561-109.88613-337.1679-157.72193,3.11785-47.83565-605.80524-113.049-946.80138-126.3425-204.74492-7.982-676.20418-112.32671-330.94615-291.4746l-78.96474,6.06821c-81.279,57.94448-200.43677,165.5284-77.31591,230.78748,174.84712,92.67617,1373.92229,95.94772,1387.81281,211.99932,13.20578,110.33083,575.49306,195.85293,765.926,301.46874Q3725.90055,3232.44335,3779.5828,3218.27356Z"/><path class="Graphic-Style-107" d="M4484.19269,1461.69832V2642.68071h488.68709V1461.69832Zm455.03,1099.66742H4517.83046V2021.52222h421.39218Zm0-579.01166H4517.83046v-485.4916h421.39218Z"/><rect class="cls-7" x="4583.46743" y="1496.86248" width="355.75521" height="485.4916"/><rect class="Graphic-Style-119" x="4517.83046" y="1496.86248" width="65.63697" height="485.4916"/><rect class="Graphic-Style-119" x="4517.83046" y="2021.52222" width="80.1157" height="539.84352"/><rect class="cls-7" x="4597.94616" y="2021.52222" width="341.27648" height="539.84352"/><polygon class="Graphic-Style-110" points="5067.652 1559.471 4972.88 1461.698 4975.834 2765.398 5070.31 2765.398 5067.652 1559.471"/><polyline class="cls-20" points="2442.69 2752.313 2386.826 2825.891 2352.55 2827.69 2416.77 2743.106 2832.61 2738.27 2839.941 2747.69"/><polygon class="cls-20" points="2832.61 2738.27 2416.77 2743.106 2352.55 2827.69 2134.494 2839.179 2105.537 2724.595 2798.45 2694.402 2832.61 2738.27"/><polygon class="cls-20" points="3202.762 2854.808 2364.872 2854.808 2386.826 2825.891 2442.69 2752.313 2839.941 2747.69 3134.132 2744.266 3202.762 2854.808"/><polygon class="cls-19" points="2839.505 2730.922 2805.345 2687.054 2112.432 2717.247 2141.389 2831.831 2359.445 2820.342 2393.721 2818.543 2449.584 2744.965 2846.836 2740.342 2839.505 2730.922"/><polygon class="cls-19" points="3202.762 2848.812 2364.872 2848.812 2386.826 2819.895 2442.69 2746.317 2839.941 2741.694 3134.132 2738.27 3202.762 2848.812"/><path class="cls-22" d="M3326.69418,2053.51445c67.16705,11.75366,127.04675,45.3694,188.49489,75.54451-25.6476-21.58961-54.3962-38.01309-66.90436-44.73992-69.93938-65.03776-238.36143-55.7883-331.30169-54.53242-56.67928.76594-107.39609,28.76434-147.4334,65.51966C3076.94878,2034.094,3204.47332,2033.14531,3326.69418,2053.51445Z"/><path class="cls-22" d="M3390.725,2125.56631c29.38786,10.6865,40.07435,48.08923,64.119,69.46222,33.46834,30.28095,76.44261,36.78309,117.58258,27.46779-4.021-13.01618-8.3361-25.66579-12.80925-37.71516-7.50954-20.22878-25.08854-39.44249-44.42813-55.722-61.44816-30.17513-121.32782-63.79088-188.49492-75.54446q-10.08635-1.68135-20.21883-3.14973a146.65517,146.65517,0,0,1,6.77249,13.754,210.82832,210.82832,0,0,1,12.36393,57.22988C3347.46011,2119.66408,3369.66766,2120.302,3390.725,2125.56631Z"/><path class="cls-23" d="M3454.84393,2195.02853c-24.04462-21.373-34.73111-58.77572-64.119-69.46222-21.0573-5.26432-43.26485-5.90223-65.11316-4.21746,6.372,84.51113-36.42044,169.87-95.18426,228.63385a443.59922,443.59922,0,0,1-101.5217,82.82033c-32.05948,21.373-66.79059,37.40273-101.5217,53.43247-41.5654,14.54783-81.51338,4.84265-119.84541-10.2459,3.66517,32.59091,11.07231,70.67378,27.09536,85.37619,2.20086,2.01937,149.89938,56.52072,246.139,29.26556,130.28536-36.89675,227.43045-163.50846,314.20717-210.23219a299.32965,299.32965,0,0,0,31.44751-19.52484l-.4295-13.95068,53.57645-33.20778q5.76558-6.31078,11.23993-12.89339a544.10654,544.10654,0,0,0-18.38812-78.32615C3531.28654,2231.81162,3488.31227,2225.30948,3454.84393,2195.02853Z"/><path class="cls-24" d="M2963.93439,2113.74131l-74.405,244.275c3.24838,19.57848,7.709,41.00447,13.66435,64.375.77944-.50468,1.05371,24.3329,4.345,53.5983,38.332,15.08855,78.28,24.79373,119.84541,10.2459,34.73111-16.02974,69.46222-32.05948,101.5217-53.43247a443.59922,443.59922,0,0,0,101.5217-82.82033c65.03359-65.03359,110.49359-162.63852,91.40951-255.62077C3210.00488,2135.16615,3082.95959,2108.58232,2963.93439,2113.74131Z"/><path class="cls-25" d="M3321.83705,2094.36193a208.7425,208.7425,0,0,0-8.58918-30.243,146.65517,146.65517,0,0,0-6.77249-13.754c-115.97544-16.92006-235.43537-12.90317-336.92576,44.94146l-5.61523,18.43492C3082.95959,2108.58232,3210.00488,2135.16615,3321.83705,2094.36193Z"/><path class="cls-8" d="M3590.81465,2300.82241q-5.4718,6.58168-11.23994,12.89349l12.04536-7.466C3591.36871,2304.43929,3591.08926,2302.631,3590.81465,2300.82241Z"/><path class="Graphic-Style-116" d="M3452.42513,2090.26481c-50.29238-112.1853-85.11018-243.71291-193.43223-309.47671-17.4089-9.67115-50.29238-13.53961-71.56992,3.86846-34.5321,27.024-36.43206,68.03142-35.55357,109.45538,51.09638,42.20974,96.68755,74.23928,118.39838,75.23732,65.03356,2.98989,116.98411,150.06311,192.8248,215.4319,35.46006,30.56387,78.15316,23.68014,113.5654,7.68745-19.79244-3.70023-39.25951-11.36348-54.59726-19.03193C3487.24293,2157.96285,3467.89971,2123.14672,3452.42513,2090.26481Z"/><path class="cls-16" d="M3488.97962,1994.54329c-13.78925-96.51975-49.00385-197.178-111.0554-242.11058-62.05144-44.93282-38.10085-160.012-114.77531-199.73045-190.29144-102.03556-287.50542,4.82589-333.00993,55.15411-45.5045,50.32845-4.13676,77.21618-4.13676,77.21618s123.90654,124.81116,225.86719,209.03939c-.87849-41.424,1.02147-82.43142,35.55357-109.45538,21.27754-17.40807,54.161-13.53961,71.56992-3.86846,108.322,65.7638,143.13985,197.29141,193.43223,309.47671,15.47458,32.88191,34.8178,67.698,69.6356,83.17187,15.33775,7.66845,34.80482,15.3317,54.59726,19.03193,40.32633-18.21191,71.21031-48.23686,71.21031-48.23686S3502.76875,2091.06351,3488.97962,1994.54329Z"/><path class="cls-15" d="M3182.33832,2144.26768c-13.35812-74.80547,34.7311-189.68528-58.77572-221.74477-16.02975-61.44734,5.34324-128.23793-37.40274-184.342-33.73479-46.38521-75.7977-81.10686-127.48507-97.631-15.35857,4.02831-42.16694,13.95688-46.28868,24.55924-13.84829,35.62175-24.39031,108.31816-3.60255,195.07809,19.94765,93.99472,53.57564,191.19361,151.66372,162.70521,51.02012,68.9427,51.02012,103.41421,48.26224,128.23353,25.3302,30.5099,60.03309,37.21684,94.07591,32.08117C3192.812,2173.55639,3185.48266,2160.77519,3182.33832,2144.26768Z"/><path class="Graphic-Style-111" d="M3314.169,2124.92776c-5.51577-129.61256-75.84075-206.95528-93.76675-211.7177,30.33623-46.12855,33.09411-81.97893-6.89463-106.79841-39.98875-24.81917-57.91475,67.56416-57.91475,67.56416s-19.32166,18.01454-16.02045-3.34377c17.72136-114.65349-62.46763-213.97481-170.53581-231.94044-1.22542-.2035-5.1329.48691-10.36184,1.85827,51.68737,16.52415,93.75028,51.2458,127.48507,97.631,42.746,56.1041,21.373,122.89469,37.40274,184.342,93.50682,32.05949,45.4176,146.9393,58.77572,221.74477,3.14434,16.50751,10.47369,29.28871,20.44711,38.93943C3250.28453,2176.04147,3296.49788,2145.8109,3314.169,2124.92776Z"/><path class="cls-16" d="M2969.03665,1635.80465s75.24491,27.15063,72.432,70.69022-9.84513,77.49992,56.25788,98.0988c-31.64506-35.63051-34.176-43.98141-26.93313-86.29264S3035.84288,1587.82532,2969.03665,1635.80465Z"/><path class="cls-24" d="M2789.60964,2288.53535c-77.47709,101.5217-203.0434,106.86495-323.26646,128.23794-27.74516,5.94544-43.7343,28.05514-64.31562,43.44177,7.18048,13.83361,19.11718,27.88605,27.98519,39.82682.53338-.14643,1.06562-.31487,1.59932-.44826,159.52776-16.66715,359.37089-29.09386,470.93449-150.74405l-.14186-16.039,60.98506-218.25685c-27.43747,9.01477-56.09562,12.83469-77.60167,32.38561C2837.69887,2184.342,2824.34075,2243.11775,2789.60964,2288.53535Z"/><path class="cls-22" d="M3017.37567,2050.663a465.13324,465.13324,0,0,0-52.80371,16.06431c-58.63809,21.78326-113.10716,54.95907-149.70582,106.63144-16.40691,23.1644-29.69915,48.33138-42.23087,73.74621a190.78226,190.78226,0,0,1-19.47754,31.88076c-8.107,10.75286-17.79278,20.23269-27.83909,29.157a226.44714,226.44714,0,0,1-75.40928,44.13266c-33.05694,11.59329-67.85393,16.09595-101.50115,25.44761-82.731,22.99351-147.066,41.13964-152.60966,60.45413-.20546,7.02817,2.3168,14.50119,6.229,22.038,20.58132-15.38663,36.57046-37.49633,64.31562-43.44177,120.22306-21.373,245.78937-26.71624,323.26646-128.23794,34.73111-45.4176,48.08923-104.19332,96.17845-141.59605,21.506-19.55092,50.1642-23.37084,77.60167-32.38561l5.11072-18.29077c11.04963-10.78792,16.71721-14.97994,29.4596-24.09321a245.43691,245.43691,0,0,1,47.14183-26.70254c.08545-.19567.17318-.39.25748-.586C3035.96794,2046.48012,3026.635,2048.42774,3017.37567,2050.663Z"/><path class="cls-19" d="M3045.35939,2044.88112c-.0843.196-.172.39038-.25748.586.71128-.30069,1.41409-.62127,2.12863-.91445C3046.60568,2044.65577,3045.9836,2044.77481,3045.35939,2044.88112Z"/><path class="cls-23" d="M2431.61207,2499.59362c-.5337.13339-1.06594.30183-1.59932.44826q1.36655,1.84008,2.627,3.611c10.81368,15.31226,7.80582,44.99266,49.14652,42.58145,30.77553-6.04034,230.02086-18.66827,273.25081-29.70518,32.0435-8.1781,82.18422-26.24988,148.16015-94.13674l-.65062-73.54287C2790.983,2470.49976,2591.13983,2482.92647,2431.61207,2499.59362Z"/><path class="cls-26" d="M2398.19666,2439.76668s40.67822-31.71371,69.6356,4.13656,49.31984,96.03353,28.95738,100.65654-65.8337,2.06829-87.03957-35.16084S2387.47593,2454.28288,2398.19666,2439.76668Z"/><path class="cls-15" d="M3350.6506,1877.10531c18.66028-58.64657,71.88827-103.99634,69.46842-165.23822-4.12925,1.163-8.17256,5.08626-10.80439,12.503-7.58406,21.372-71.35913,103.75892-71.35913,103.75892l3.792-22.06176c3.792-22.06177,1.37886-35.50566-9.65251-36.88452s-18.27072,10.34145-18.27072,10.34145c1.03415-31.02436-13.44454-29.30078-23.44177-27.5772-9.99706,1.72357-9.30763,51.36255-9.99706,64.80611-.6896,13.44422-15.16828,26.88778-19.99446-4.13658-2.75788-35.85005-40.67817-71.70042-51.70955-66.87441s14.82928,62.0484,13.09967,94.45162-19.99429,100.65681-5.51561,148.22717-3.44731,102.03535-3.44731,102.03535l85.345,21.19231c4.2416-67.4735,4.47592-134.646,44.47249-197.14052C3350.6506,1903.82155,3347.979,1890.46343,3350.6506,1877.10531Z"/><path class="Graphic-Style-111" d="M3420.119,1711.86709c2.41985,61.24188-50.80814,106.59165-69.46842,165.23822-2.67162,13.35812,0,26.71624-8.01487,37.40273-39.99657,62.49454-40.23089,129.667-44.47249,197.14052l22.93563,5.69546s-3.48254-115.82395,17.20135-141.33287c20.68372-25.50859,15.16811-79.97357,25.25062-108.92964,10.08267-28.95607,71.27385-117.89225,71.96328-137.196C3435.96433,1717.28012,3427.88929,1709.67878,3420.119,1711.86709Z"/><path class="cls-8" d="M3305.206,1839.73422c-.41371.85245,11.03149-56.78535,8.963-67.1666l4.27311,1.61449S3312.79,1824.10718,3305.206,1839.73422Z"/><polygon class="Graphic-Style-115" points="2369.147 2558.808 2880.538 2623.155 2325.022 2668.197 1891.121 2604.121 2369.147 2558.808"/><polygon class="cls-5" points="2264.292 2566.465 2626.776 2624.763 2334.444 2648.893 2170.352 2611.269 2264.292 2566.465"/><path class="cls-15" d="M2421.83131,2452.11471c-5.58791-.18489-22.57764,8.56462-22.57764,8.56462s-13.78923-44.12341-80.667-43.434-64.80937,65.49569-64.80937,65.49569,5.51569,77.216,26.889,93.07282,99.32308,4.13657,102.40534,0,45.31166-6.89428,66.94357-30.33484,33.45535-24.3598,33.45535-24.3598S2463.50409,2453.49357,2421.83131,2452.11471Z"/><path class="cls-17" d="M2319.27615,2459.98991s-45.4893,32.40313-15.16057,90.31511l-6.77379.63574S2262.74031,2493.08247,2319.27615,2459.98991Z"/><path class="Graphic-Style-111" d="M2376.84618,2552.18079s-56.88057-11.18306-43.09134-33.58948,45.50445-15.85685,46.88337-24.4747-15.85761-23.78528-21.718-14.478-15.51288,25.16414-15.51288,25.16414-24.13115,6.20485-17.926,23.09585,33.78361,15.51213,6.20515,16.891-39.644,0-39.644,0-7.36443,36.15177,7.34293,37.53446,61.60321,6.93367,105.03928-10.302,43.84825-24.7475,43.84825-24.7475S2401.32206,2559.22727,2376.84618,2552.18079Z"/><polygon class="cls-5" points="2330.997 2681.988 2848.093 2641.999 2880.538 2623.155 2322.034 2668.197 1885.605 2604.121 1893.878 2613.503 2330.997 2681.988"/><path class="cls-27" d="M1784.94356,2001.52007l427.12752.45543,15.88906,3.04675a41.39637,41.39637,0,0,1,33.45772,37.27543c9.88652,120.21032,38.5218,538.83469,42.69014,616.937.34609,6.48482-11.24718,15.04563-17.68222,14.16993l-444.55942-65.8122Z"/><path class="cls-28" d="M1794.5723,1993.26372l411.509,8.1819a30.81016,30.81016,0,0,1,30.10709,28.2748c10.42709,126.70572,52.825,644.53212,49.19427,643.32193-3.56724-1.189-348.5834-51.59354-443.51626-65.44993a30.80743,30.80743,0,0,1-26.22091-27.59209l-52.37355-553.01325A30.82405,30.82405,0,0,1,1794.5723,1993.26372Z"/><path class="cls-23" d="M3465.53042,2285.86373c-5.82754-29.13789-28.60972-54.027-57.03845-68.52884,9.26214,56.96083-21.24009,85.48543-21.24009,85.48543-6.772,3.39416-40.1686,78.14418-48.26223,71.68052-4.10935-3.2818-5.77749-14.7329-6.26015-29.41558-17.28142-67.28336-4.0275-136.53637-11.46676-203.48921-2.26021-18.08107-.72644-36.15562-6.66161-52.61976-6.54975-5.4574-15.68193-10.30232-27.86844-14.42227.75547,120.29775-17.67146,240.3902,10.48544,355.57739,8.01487,37.40273,77.47709,16.02974,112.20819-8.01488C3452.1723,2392.72867,3478.88854,2339.2962,3465.53042,2285.86373Z"/><path class="cls-26" d="M3332.7295,2345.08526c-.88968-27.05932,2.25956-65.129,1.66373-83.51139-.91935-28.357,4.59642-84.24958-6.435-147.677-.4869-9.24991-4.61223-17.63363-13.35714-24.92058,5.93517,16.46414,4.4014,34.53869,6.66161,52.61976C3328.702,2208.54889,3315.44808,2277.8019,3332.7295,2345.08526Z"/><path class="cls-23" d="M3591.62,2306.24986,3402.32868,2192.4686a161.58347,161.58347,0,0,1,6.16329,24.86629c28.42873,14.50184,51.21091,39.39095,57.03845,68.52884a116.95382,116.95382,0,0,1-.27884,57.49095c36.83006,33.2593,76.94355,62.26771,118.47193,89.33844C3596.8584,2393.49034,3597.64469,2349.63945,3591.62,2306.24986Z"/><path class="cls-22" d="M3226.70253,2062.75772c-4.2473-.455-8.6319-.87728-13.19489-1.25754-89.63,102.03551-96.52464,485.35773-63.43052,523.96566,10.11121,11.79581,36.45811,17.91768,71.57356,18.58347a39.25586,39.25586,0,0,1-7.25288-5.60562C3080.01728,2450.88851,3137.94361,2222.77891,3226.70253,2062.75772Z"/><path class="cls-24" d="M3465.25158,2343.35468c-8.08792,31.83168-28.726,60.1311-55.82526,78.76185-34.7311,24.04462-104.19332,45.41761-112.20819,8.01488-28.1569-115.18719-9.73-235.27964-10.48544-355.57739-15.08365-5.09963-34.82242-9.09565-60.03016-11.7963-88.75892,160.02119-146.68525,388.13079-12.30473,535.686a39.25586,39.25586,0,0,0,7.25288,5.60562c79.81834,1.51322,205.012-25.20758,288.32532-77.87431,38.44128-24.30078,61.479-56.86446,73.74751-93.48188C3542.19513,2405.62239,3502.08164,2376.614,3465.25158,2343.35468Z"/><path class="Graphic-Style-111" d="M3123.5626,1922.52291c3.20953,5.91107-36.463,92.05809-63.11545,100.36947,34.98194,56.61824,27.95811,41.3395,37.57566,63.08266,63.23905-43.95577,78.07355-61.93758,78.3419-92.20125C3177.06581,1914.41864,3123.5626,1922.52291,3123.5626,1922.52291Z"/><path class="Graphic-Style-114" d="M3972.75782,2436.49189c-19.34322-100.57993-1.93432-197.29141,30.94916-292.06865,1.93432-7.73692,9.67161-13.53961,11.60594-23.21075,13.54025-58.02689,34.8178-108.31685,58.02966-160.541,1.93433-7.73692,1.93433-15.47384,3.86865-23.21075,1.465-4.395,6.25526-7.68167,9.33537-11.53832-108.58414,18.75154-247.91037,49.91124-313.34168,64.923,22.186,33.72364,40.92927,69.26912,52.54441,109.09059,3.86865,7.73692,13.54026,13.53961,17.4089,21.27653,3.86865,5.80268,0,11.60537,3.86865,17.40806,11.60593,15.47384,21.27754,29.01344,25.14619,48.35574,1.93432,3.86846,7.73728,5.80269,7.73728,9.67115,0,94.77724,7.73729,189.55448,0,284.33173-6.72715,72.874-22.55025,143.79822-37.30335,214.6565,84.8619-.24107,183.009-1.5849,281.3779-2.69345-52.24146-58.36724-91.09945-128.01107-129.94953-198.42345C3984.36376,2475.17648,3976.62647,2455.83419,3972.75782,2436.49189Z"/><path class="Graphic-Style-105" d="M4194.88367,2483.56388c82.82034-18.70137,162.969-5.34325,237.77451,48.08922,8.01487,8.01487,26.71623,5.34325,37.40273,0,58.56586-34.607,128.40488-61.25069,197.954-68.70919-150.82672-225.40308-393.04045-546.67153-446.51483-551.85073-23.22571-2.24994-74.29361,4.35411-134.95352,14.82927-3.0801,3.85677-7.8704,7.14346-9.33536,11.53834-1.93441,7.737-1.93441,15.47369-3.86867,23.21071-23.21185,52.22417-44.48944,102.51409-58.0297,160.541-1.93426,9.67094-9.6716,15.474-11.60585,23.21071-32.88344,94.77725-50.29237,191.48875-30.94919,292.0686,3.32584,16.62851,9.52239,33.25685,17.33767,49.88536C4050.578,2508.4768,4130.55745,2499.25314,4194.88367,2483.56388Z"/><path class="Graphic-Style-106" d="M4470.06091,2531.6531c-10.6865,5.34325-29.38786,8.01487-37.40273,0-74.80546-53.43247-154.95417-66.79059-237.77451-48.08922-64.32622,15.68926-144.30567,24.91292-204.78817,2.81332q1.91322,4.07079,3.93993,8.14157c38.85008,70.41239,77.708,140.05625,129.94944,198.4235,232.98959-2.62564,467.22269-3.93112,529.11813,13.863,110.31389,31.71363,130.99778,20.68291,137.89224-30.33476,2.2581-16.70923-49.52385-103.74963-122.98029-213.52656C4598.46579,2470.40241,4528.62677,2497.04609,4470.06091,2531.6531Z"/><path class="Graphic-Style-106" d="M3879.91035,2196.64744c0-3.86846-5.803-5.80269-7.73728-9.67115-3.86865-19.3423-13.54026-32.8819-25.14619-48.35574-3.86865-5.80269,0-11.60538-3.86865-17.40806-3.86864-7.73692-13.54025-13.53961-17.4089-21.27653-11.61514-39.82147-30.35838-75.36695-52.54441-109.09059-23.16086,5.3137-37.07266,8.60652-37.07266,8.60652s-76.58424,50.76833-73.46115,108.11568c3.1232,57.347,7.72229,545.46228-.09291,585.44914,44.94324,2.22855,107.65736,2.82449,180.0288,2.619,14.7531-70.85828,30.5762-141.78254,37.30335-214.6565C3887.64764,2386.20192,3879.91035,2291.42468,3879.91035,2196.64744Z"/><path class="Graphic-Style-105" d="M3622.64549,2308.83275c7.73729-30.94768,11.60593-63.82958,40.62077-85.1061,3.86864-3.86846,1.93432-9.67115,5.803-13.53961,21.74506-17.08459,39.7536-41.64012,63.02875-53.66176-6.38891-58.72991-17.63216-101.78493-29.0728-95.025-30.3363,17.92516-474.32938,322.6526-497.09167,369.5337s-42.06714,123.67038,13.08985,152.83966c0,0-20.666-133.53574,59.30261-156.97623s155.84529,45.50221,157.20619,51.01766c.69007,2.79687,16.2774,25.92073,31.65564,46.8399,24.54277-12.19742,48.8329-24.70664,72.28183-41.84152C3593.63066,2440.36035,3609.10523,2376.53078,3622.64549,2308.83275Z"/><path class="Graphic-Style-106" d="M3669.06923,2210.187c-3.86865,3.86846-1.93433,9.67115-5.803,13.53961-29.01484,21.27652-32.88348,54.15842-40.62077,85.1061-13.54026,67.698-29.01483,131.5276-83.17586,174.08065-23.44893,17.13488-47.73906,29.6441-72.28183,41.84152,14.94778,20.3335,29.69817,38.584,30.37785,34.053,1.379-9.19231,146.16589-90.58213,205.45953-136.75524,36.93252-28.76,39.62491-168.52706,29.0728-265.52742C3708.82283,2168.54692,3690.81429,2193.10245,3669.06923,2210.187Z"/><path class="cls-15" d="M3252.807,2424.82909a77.488,77.488,0,0,0-32.67015,25.81645c33.50553,31.09546,84.75312,41.96116,119.82731,22.23184,22.88768-10.40341,45.7571-17.60493,64.85862-32.88507-.91527-.611-1.92969-1.28819-3.09233-2.06421C3385.873,2421.38194,3321.06364,2395.18359,3252.807,2424.82909Z"/><path class="cls-15" d="M3220.1368,2450.64554a84.83143,84.83143,0,0,0-11.90653,23.83475c11.26439,29.77905,34.19235,55.911,59.6,75.87418,39.89531,36.82647,89.48733,48.94726,140.16632,47.05068l4.04983-152.59123s-.01712-.01141-7.22369-4.82161c-19.10152,15.28014-41.97094,22.48166-64.85862,32.88507C3304.88992,2492.6067,3253.64233,2481.741,3220.1368,2450.64554Z"/><path class="cls-17" d="M3267.83027,2550.35447c-25.40765-19.96315-48.33561-46.09513-59.6-75.87418-.62682,1.94583-1.21156,3.89541-1.713,5.84532a130.2203,130.2203,0,0,0-3.70136,35.49767,142.14673,142.14673,0,0,0,3.1176,26.898s73.07308,121.33939,186.14469,122.71825l14.47852-13.7886.47256-17.80142.65274-24.592.31455-11.85239C3357.3176,2599.30173,3307.72558,2587.18094,3267.83027,2550.35447Z"/><path class="cls-29" d="M3235.57036,2602.01214s20.5552,1.673,15.5152-3.776c-16.61132-17.95927-47.64174-98.16061-21.81507-124.84835,29.69186-30.68181,122.54811-41.46011,160.60386-26.39486l-3.31194-14.58018s-76.53021-31.02427-119.96628-13.09914-62.16915,9.225-63.834,77.00249,9.51959,101.60727,23.23229,107.78822S3235.57036,2602.01214,3235.57036,2602.01214Z"/><path class="cls-19" d="M3225.99443,2604.10434s-34.81272-98.61216-3.19575-143.1952,183.61343-37.22913,209.65548,22.52133l15.93-4.59619s51.42783-54.732-36.33761-81.601-216.46491,9.70388-228.41557,92.53357S3199.41179,2597.00415,3225.99443,2604.10434Z"/><path class="Graphic-Style-111" d="M3339.96411,2528.98148c32.05948-10.68649,40.07435-29.38786,53.43247-58.77572,2.67163-5.34325,21.373,2.67162,32.05949-5.34325,34.7311-32.05948,80.14871-48.08922,120.22306-32.05948a174.27027,174.27027,0,0,1,26.02,11.51893,274.34053,274.34053,0,0,0-12.77142-29.14473s-2.99547-1.49741-7.62809-3.62506c-11.71036-5.37846-33.90242-14.79437-44.77089-14.30013-15.16812.68943-29.9276,22.06161-29.9276,22.06161s-32.81332-8.9626-49.3603,0c-16.5473,8.96259-18.5264,35.4838-18.5264,35.4838s-15.9469-1.70189-33.87274,7.26071c-17.926,8.96259-6.2052,37.22907-6.2052,37.22907s-15.16812-12.40975-42.0572,6.20487c-20.504,12.5896-13.38665,51.14486-1.31983,85.40439C3326.11289,2565.11509,3319.51618,2533.52539,3339.96411,2528.98148Z"/><path class="cls-15" d="M3545.67913,2432.803c-40.07435-16.02974-85.492,0-120.22306,32.05948-10.6865,8.01487-29.38786,0-32.05949,5.34325-13.35812,29.38786-21.373,48.08923-53.43247,58.77572-20.44793,4.54391-13.85122,36.13361-14.70469,61.915a384.23518,384.23518,0,0,0,14.65561,35.53925c6.73923,14.28464,12.42474,24.02145,13.5533,24.52581,32.40469,14.478,39.81443-12.14705,39.81443-12.14705s7.42932,27.24472,34.41754,26.62508c26.98823-.6198,13.78926-43.43394,13.78926-43.43394s36.77119,33.09249,54.00776,28.95591,4.13674-42.05508,4.13674-42.05508,23.44177,27.57721,48.26224,21.37233c24.82079-6.205-10.34195-93.9921-10.34195-93.9921s24.13137,13.32893,41.36794-12.18944c10.53289-21.88061,1.78423-55.64035-7.2232-79.7753A174.27027,174.27027,0,0,0,3545.67913,2432.803Z"/><path class="cls-15" d="M3855.58747,1746.19575c-34.73111-66.79059-53.43247-157.62579-120.22306-181.6704-70.26253-26.65134-149.31382,8.21641-227.19123-2.99188-21.26944,43.78143-30.97658,95.01418-34.45325,140.28437-7.92078,103.13928,20.20448,204.31366,82.36262,287.51,9.17816,12.28452,20.05446,15.40978,35.15866,15.33379,13.459-.06718,92.1596-26.59035,94.31774-24.05439.0026.00326,89.171,104.794,138.81142,155.35139,3.916,3.98852,7.60265,7.58373,11.11486,10.89391,41.01083,38.651,55.07354,33.22962,55.07354,33.22962s66.18824-16.54665,79.97749-60.66986c13.78926-44.12353,68.02678-261.31753,68.02678-261.31753s-2.50742-6.48077-5.59486-15.821C3959.115,1845.19683,3889.34314,1813.70708,3855.58747,1746.19575Z"/><path class="Graphic-Style-111" d="M4022.01606,1797.6793c-2.75789-24.81949,81.816-357.584-168.2288-366.77623-89.93966-3.30626-188.99813,3.20354-269.877,46.89789-34.441,18.60646-58.76626,48.79985-75.737,83.73251,77.87741,11.20829,156.9287-23.65946,227.19123,2.99188,66.79059,24.04461,85.492,114.87981,120.22306,181.6704,33.75567,67.51133,103.52754,99.00108,177.38071,96.078-1.20944-3.65881-2.505-7.74256-3.778-12.068C4026.08709,1819.66214,4023.13826,1807.77844,4022.01606,1797.6793Z"/><path class="cls-16" d="M4069.80872,1569.71742c-22.96992-40.44383-27.56878-96.52336-45.96456-109.39957-.79536-25.28057-12.82722-44.272-33.23657-58.93794-26.32568-18.91712-66.62229-30.6002-114.74943-39.4-85.51528-15.6357-326.35,68.28453-388.92027,41.1648-46.21293-20.01072-44.07509,85.66017-44.07509,85.66017a56.28613,56.28613,0,0,0,2.70956,18.86735,49.366,49.366,0,0,0,3.35606,8.029c6.83625,13.10015,21.329,25.95148,51.856,25.50421,61.576-.92,147.986-35.84518,156.26411-17.45028,8.27811,18.3697.94466,143.753,12.90187,163.8132,4.52437.721,8.32788,1.31754,11.50976,1.83946l16.03413,2.56043s1.83955-85.486,55.18718-84.119a123.2402,123.2402,0,0,1,55.06276,14.88985c34.47953,18.61853,64.5591,55.20957,75.44739,113.35189,16.55608,88.24548,147.09111,77.20872,147.09111,77.20872s2.31187-7.50712,5.8667-19.86142c5.09608-17.77345,12.80249-45.61446,19.9868-75.89119C4070.03236,1658.98186,4082.06422,1591.24412,4069.80872,1569.71742Z"/><polygon class="Graphic-Style-110" points="3720.492 1573.385 3452.981 1652.44 3452.267 1641.013 3736.132 1563.273 3720.492 1573.385"/><path class="Graphic-Style-106" d="M3661.33194,2544.80874a39.20452,39.20452,0,0,1-7.90057-4.14495c4.41078,48.91545,8.22618,80.65232,8.22618,80.65232l146.16577-7.81354s5.837-42.96671,13.81546-101.05935a114.94715,114.94715,0,0,0-22.97,7.22054C3756.11373,2539.00605,3707.75567,2556.41412,3661.33194,2544.80874Z"/><path class="Graphic-Style-105" d="M3847.46736,2157.59215c-42.87858-65.28874-125.96093-117.23362-122.40527-138.82771-110.05613-35.35541-87.15406,349.74361-71.63072,521.89935a39.20452,39.20452,0,0,0,7.90057,4.14495c46.42373,11.60538,94.78179-5.80269,137.33688-25.145a114.94715,114.94715,0,0,1,22.97-7.22054c11.10925-80.88725,26.372-191.11082,35.82581-255.60482C3859.86431,2240.46663,3857.48631,2172.84746,3847.46736,2157.59215Z"/><path class="cls-30" d="M4242.64366,2242.59017s36.77128,108.47006,119.50665,116.7432c-13.78923,52.39655,206.18514,183.38794,206.18514,183.38794l9.75822-23.77076L4338.249,2270.16731Z"/><path class="cls-16" d="M3298.638,2799.04031c-8.49372,5.6182-14.30686,9.2771-14.80529,9.111-2.06835-.68942-22.06273,19.304-22.06273,19.304s33.78355,2.75768,36.54135,0c.54638-.54634,4.86273-3.15381,11.41934-6.97641C3308.53321,2811.589,3304.64656,2802.82619,3298.638,2799.04031Z"/><path class="cls-14" d="M3378.97829,2744.03435s-53.59085,37.31231-80.34031,55.006c3.89167,2.4521,6.8757,7.00387,8.833,12.31363l95.78421-56.52195C3402.85219,2747.47734,3396.87609,2742.84456,3378.97829,2744.03435Z"/><path class="Graphic-Style-110" d="M3307.471,2811.35394a43.29029,43.29029,0,0,1,2.25968,9.12492c26.54082-15.474,89.93147-50.93559,89.93147-50.93559,2.23737-5.41157,3.82354-10.505,3.59306-14.71128Z"/><path class="Graphic-Style-111" d="M4750.58139,2686.60728c-104.19332,18.70136-203.0434,5.34324-304.56509,0-109.53657-2.67163-227.088-26.71624-333.953,16.02974-80.14871,29.38786-170.98391-21.373-261.81912-2.67163-64.62837,14.91423-126.94207,34.42912-189.09694,52.1389,1.803.13012,3.79676.20317,6.026.20317,37.23086,0,155.81824-45.50223,257.85848-28.9559s212.35413,30.33476,250.964-6.8943c96.52464,5.51544,601.21039,41.36565,650.85148,26.19818,10.94039-23.24707,13.81959-50.22453,10.62992-77.69428C4808.942,2673.134,4780.29048,2680.66542,4750.58139,2686.60728Z"/><path class="cls-15" d="M4112.06334,2702.637c106.865-42.746,224.41639-18.70137,333.953-16.02974,101.52169,5.34324,200.37177,18.70136,304.56509,0,29.70909-5.94186,58.36056-13.47325,86.89577-21.64612-9.675-83.32355-75.25715-171.18351-141.62753-173.2575-45.62143,12.20787-90.41939,22.78788-134.07575,31.92071-331.08924,69.26361-596.51172,55.29547-657.426,37.02214-68.94612-20.6829-170.706,19.39895-243.78891,51.11274-73.08287,31.71363-122.0391,56.63471-95.83945,74.55973-.77667,1.21563-4.99885,6.05763-5.10224,9.45537-.10794,3.54385-5.84222,5.5443-8.73316,8.73284-8.58918,9.47314-7.68565,26.23275,7.35414,27.11753a48.77294,48.77294,0,0,1,5.2653.60007c20.01957,3.37769,31.6771,17.63037,60.9231,4.91537l30.33623-4.13658s-21.9243,17.05753,6.38441,19.10071c62.15487-17.70978,124.46857-37.22467,189.09694-52.1389C3941.07943,2681.264,4031.91463,2732.02488,4112.06334,2702.637Z"/><path class="Graphic-Style-105" d="M5017.74375,2587.7572c-2.67162-5.34325,2.67163-13.35812,0-18.70137-37.40273-72.13383-72.13383-141.596-130.90955-195.02852-45.41761-42.746-96.17845-77.47709-141.59606-120.22306-64.119-53.43248-101.52169-125.56632-173.65553-165.64067-80.14871-45.4176-157.6258-88.16358-243.11775-120.22306-56.1041-18.70137-114.87982-8.01487-173.65554-10.6865-8.01487,0-13.35812-8.01487-18.70137-8.01487-26.93669-3.59162-52.66053-12.023-77.18308-22.83729l-4.07657,6.33141-47.0696,153.242,241.29993,154.77643a46.04179,46.04179,0,0,0,5.27329,15.11512c70.74014-21.39533,153.82676-12.50057,210.36574,35.34015,58.77572,50.76085,77.47709,133.58118,138.92443,176.32716,50.76085,37.40273,117.55144,48.08922,154.95417,101.52169,26.28363,32.85458,23.81584,78.26925-4.41852,111.23651a603.95122,603.95122,0,0,1,46.41947,65.39689c43.55362,17.65466,172.45669,20.12833,226.6404-52.44252C5038.89449,2660.10824,5036.683,2621.848,5017.74375,2587.7572Z"/><path class="Graphic-Style-106" d="M4666.89226,2134.57978c-215.112-230.269-311.177-220.15751-404.48405-226.5923-58.37442-29.41525-93.76675-48.25979-120.42591-4.59609-12.41024-21.60226-56.9954-17.46568-56.9954-17.46568l-26.062,40.47615c24.52255,10.81433,50.24639,19.24567,77.18308,22.83729,5.34325,0,10.6865,8.01487,18.70137,8.01487,58.77572,2.67163,117.55144-8.01487,173.65554,10.6865,85.49195,32.05948,162.969,74.80546,243.11775,120.22306,72.13384,40.07435,109.53657,112.20819,173.65553,165.64067,45.41761,42.746,96.17845,77.47708,141.59606,120.22306,58.77572,53.43247,93.50682,122.89469,130.90955,195.02852,2.67163,5.34325-2.67162,13.35812,0,18.70137,18.93928,34.09076,21.15074,72.351,9.49386,105.48951,14.372-19.24926,23.507-43.75844,24.37416-74.68822C5055.74851,2471.02075,4882.00427,2364.84882,4666.89226,2134.57978Z"/><path class="Graphic-Style-106" d="M4758.59626,2569.05583c-37.40273-53.43247-104.19332-64.119-154.95417-101.52169-61.44734-42.746-80.14871-125.56631-138.92443-176.32716-56.539-47.84072-139.6256-56.73548-210.36574-35.34015,25.14627,47.1839,127.10335,102.08769,127.10335,102.08769s20.68388,44.12337,55.15686,84.11032c30.47647,35.35091,193.50389,85.81238,317.56561,238.2275C4782.4121,2647.32508,4784.87989,2601.91041,4758.59626,2569.05583Z"/><path class="cls-19" d="M3715.75538,2015.69805l-33.414,5.82417s86.87214,194.86968,81.35644,227.043c99.28245-46.42151,98.36317-56.09661,98.36317-56.09661l-7.35426-38.12526C3852.2329,2113.21464,3774.358,2063.5674,3715.75538,2015.69805Z"/><path class="cls-19" d="M4035.3456,1825.71585s-127.32054,345.17378-108.9349,400.328c60.6726-14.7078,108.9349,4.59619,108.9349,4.59619s-11.491-222.45554,55.61655-345.6334C4061.54513,1845.47946,4035.3456,1825.71585,4035.3456,1825.71585Z"/><path class="cls-17" d="M3654.7629,2733.00352l129.96348-51.01772c-71.35926,10.34145-156.41277,53.586-160.29978,55.15429C3633.3896,2740.24252,3654.7629,2733.00352,3654.7629,2733.00352Z"/><path class="cls-17" d="M3576.10749,2735.75842s55.90318-47.56774,182.76408-76.52373c-16.54707-5.51542-133.91722,28.89673-190.3722,74.08391C3573.40645,2738.519,3576.10749,2735.75842,3576.10749,2735.75842Z"/><path class="cls-17" d="M3557.99389,2699.31822s110.0986-70.41837,179.04474-82.82808c-35.852-12.40971-176.208,71.64038-176.208,71.64038Z"/><path class="cls-17" d="M3834.48251,1885.57359s-102.04029,90.43763-148.92367,95.03382c48.72194,53.31579,78.17587,78.582,99.28149,89.16606.001-99.27768,91.92915-168.22051,83.65561-237.16334s-6.435-64.34665-6.435-64.34665S3862.98025,1851.20946,3834.48251,1885.57359Z"/><path class="cls-19" d="M4897.17238,2712.32064c-24.82057-45.50221-111.6038-233.02-210.31918-220.617,0,0-65.19967,9.20058-99.38241,20.76912-1.13458,12.88994,9.68672,22.03645,21.67907,26.53332,104.14231,32.04229,201.64814,111.85747,214.47518,216.36276,41.78281,6.08072,86.57964,20.32683,88.29195-2.35189C4912.34627,2747.3313,4901.43757,2720.13981,4897.17238,2712.32064Z"/><path class="cls-31" d="M4609.14986,2539.00605c-11.99235-4.49687-22.81365-13.64338-21.67907-26.53332-9.21968,3.12022-16.19107,6.41208-19.00835,9.7428,149.59356,89.15231,160.07379,153.18945,228.50822,227.79388a258.72,258.72,0,0,0,26.65438,5.3594C4810.798,2650.86352,4713.29217,2571.04834,4609.14986,2539.00605Z"/><path class="cls-17" d="M3389.87435,2642.06324s-40.88758-81.4168-37.09555-99.34193-3.10257-35.85028,15.85762-43.434c-6.20516,13.78857-11.03139,28.956-9.99719,45.50227s34.64346,94.0249,34.64346,94.0249Z"/><path class="cls-17" d="M3407.02924,2460.90914s-9.20562,34.931-1.85137,66.64474,30.81109,93.94916,37.043,97.138l6.23192,3.18878S3398.30887,2507.33065,3407.02924,2460.90914Z"/><path class="cls-17" d="M3472.89411,2418.41809s-16.99881,55.36038-15.23871,76.04323,41.74886,120.77843,41.74886,120.77843l2.90327-3.48052s-42.53426-108.10553-31.68176-146.02409,9.29178-50.71721,9.29178-50.71721Z"/><path class="cls-17" d="M3537.55446,2454.9341s-9.19282,72.16016,0,81.35254a24.86945,24.86945,0,0,0,20.43943,7.25173S3539.85267,2483.89009,3537.55446,2454.9341Z"/><path class="cls-15" d="M3543.32321,2484.05571s-7.60735,38.44234-5.76877,52.23092a44.83218,44.83218,0,0,0,5.55834,16.46586c7.7426,6.47715,16.55626,9.44047,25.37169,1.7274,15.62581-12.5,17.36545-32.57319,17.45742-52.06258-.68228-2.28391-1.40234-4.61174-2.20681-7.03673"/><polygon class="cls-8" points="3466.766 1624.157 3466.766 1624.157 3466.767 1624.157 3466.766 1624.157"/><path class="Graphic-Style-110" d="M3516.40865,1675.93478c-7.107-21.55632-14.07956-34.62016-20.9517-42.58422a33.379,33.379,0,0,0-10.30312-8.35553,21.80372,21.80372,0,0,0-9.77232-2.32075,28.63226,28.63226,0,0,0-8.61555,1.48279c-4.091,1.26461-7.98274,4.47219-10.68269,9.58638-2.71589,5.12552-4.35293,12.12364-4.35695,21.48666.00567,12.24029,2.80444,28.57971,10.11127,50.37662,6.37463,18.97467,13.30095,30.55077,20.33636,37.57534a33.04328,33.04328,0,0,0,10.52721,7.28665,24.98581,24.98581,0,0,0,9.7049,1.964,28.19416,28.19416,0,0,0,7.08252-.94445c1.956-.50622,3.53264-1.09414,4.40913-1.36709l.0013-.00047a15.219,15.219,0,0,0,8.4995-7.40589c2.34234-4.17446,3.83121-10.05837,3.8344-18.38627C3526.22559,1713.2943,3523.62505,1697.87879,3516.40865,1675.93478Zm-.75288,62.98523c-1.50045,2.63053-3.05721,3.47935-4.08612,3.82242-1.193.38014-2.47764.85827-4.01669,1.25493a20.48633,20.48633,0,0,1-5.1469.69866,17.219,17.219,0,0,1-6.72326-1.36662c-3.66451-1.53449-7.933-4.64149-12.518-10.88665-4.57536-6.236-9.397-15.59189-13.9916-29.29654-7.13234-21.24819-9.71541-36.86464-9.70963-47.9161-.00413-8.46367,1.51119-14.21748,3.45236-17.85644,1.957-3.64982,4.22649-5.21854,6.15408-5.83078l.0013-.00048a21.07492,21.07492,0,0,1,6.31016-1.13144,14.01591,14.01591,0,0,1,6.34676,1.5215c3.48518,1.7163,7.71675,5.33047,12.40061,12.59327,4.67866,7.24746,9.74917,18.07579,14.93019,33.82777,7.061,21.43472,9.44387,36.16976,9.43655,45.975C3518.49869,1731.74457,3517.14323,1736.29,3515.65577,1738.92Z"/><polygon class="cls-5" points="4535.895 1753.564 4677.924 1982.354 4774.448 1982.354 4597.946 1697.482 4535.895 1753.564"/><polygon class="Graphic-Style-105" points="4616.562 1659.713 4815.126 1982.354 4916.477 1982.354 4705.502 1586.878 4616.562 1659.713"/><polygon class="cls-16" points="4597.946 1697.482 4644.382 1704.917 4815.126 1982.354 4774.448 1982.354 4597.946 1697.482"/><polygon class="Graphic-Style-107" points="4791.066 1650.601 4705.502 1586.878 4916.477 1982.354 4939.223 1982.354 4939.223 1925.922 4791.066 1650.601"/><path class="cls-19" d="M4590.70677,1773.664s19.30491-16.01477,38.95457,10.95189-20.33912,47.3048-33.43888,30.06909S4579.51979,1778.19285,4590.70677,1773.664Z"/><path class="Graphic-Style-106" d="M4596.34285,1780.056s13.52105-11.21665,27.28356,7.67065-14.2454,33.132-23.42041,21.06022S4588.50755,1783.228,4596.34285,1780.056Z"/><polygon class="Graphic-Style-105" points="4609.518 1841.16 4648.047 1821.054 4757.442 1982.354 4699.527 1982.354 4609.518 1841.16"/><ellipse class="cls-17" cx="4703.20389" cy="1701.00029" rx="31.71522" ry="38.60799"/><polygon class="cls-19" points="4705.502 1762.748 4757.442 1724.14 4766.175 1734.711 4712.397 1768.944 4705.502 1762.748"/><polygon class="cls-19" points="4718.372 1792.956 4770.311 1754.348 4779.045 1764.919 4725.267 1799.152 4718.372 1792.956"/><polygon class="cls-19" points="4731.242 1823.164 4783.181 1784.556 4791.915 1795.127 4738.137 1829.36 4731.242 1823.164"/><path class="cls-9" d="M973.36549,2494.66q-1.64445-11.61934-2.28873-22.93467c9.4817-13.42835,26.76395-31.83139,52.94379-40.24979,23.07807-6.08933,15.39969-16.70547,5.95168-14.3445-6.79807,1.67952-40.32588,15.02045-58.583,22.38043,6.87625-84.489,62.59035-145.21141,175.41363-122.9469,0,0,168.19418-115.80331,214.98,66.198-26.61084-8.66671-77.40526-22.68348-81.81073-5.024-5.64141,22.61142,45.07734-6.98564,86.35158,25.78055a424.68,424.68,0,0,1,5.72214,45.13241c.41973,18.11458-4.311,37.33082-12.20844,56.55283-19.563-23.895-69.91081-81.60071-86.63815-63.70687-19.29656,20.64906,50.34463,7.27776,76.85773,84.62659-10.27613,19.716-23.17512,39.01346-36.5805,56.72-13.9103-23.8928-42.72841-67.8963-60.65995-56.83374-7.21749,6.26348,6.58186,15.63584,20.95258,30.99051,9.13579,9.75933,20.13732,29.17608,26.963,42.06088a690.35657,690.35657,0,0,1-64.00194,68.48,811.05931,811.05931,0,0,1-89.97713-29.64494c-2.1987-16.98857-5.56-50.02211.50648-57.98913,8.25935-10.8582-3.51214-21.19463-17.73106-9.374-10.96722,9.11634-13.43334,36.35989-10.2114,55.90834a526.13056,526.13056,0,0,1-60.31352-31.13958c3.73415-24.82988,13.77534-80.30742,30.25563-90.6129,10.54675-9.2052,2.33265-22.44474-22.73746-3.40249-19.15147,14.52746-25.30421,60.29989-27.15239,81.1351C1004.79007,2558.00853,978.18953,2528.62627,973.36549,2494.66Z"/><path class="cls-10" d="M1225.42418,2633.36108s-71.00716-217.9469-78.62129-316.80229"/><path class="cls-10" d="M1129.17394,2552.61341s15.39209-40.30338,50.27976-75.44982"/><path class="cls-10" d="M1261.1416,2488.43982s-59.45237-46.73723-90.03456-43.6537"/><path class="cls-10" d="M1052.53094,2468.46152s69.17193-57.01285,107.61021-70.462"/><path class="cls-10" d="M1243.6823,2349.50628s-52.80823-23.43064-93.72165-5.88516"/><path class="cls-21" d="M3360.22109,3327.0837c-71.38957-58.01382-182.85895-129.126-345.05789-184.12175-329.25652-111.639-176.9173-187.32578-303.59268-225.23739s-430.32859-22.5446-784.88874-68.77019-643.062-33.14152-555.96236-161.95478c60.41739-89.35244,144.99226-152.68254,191.1486-183.10583l-109.7412,8.43323c-108.32132,81.33189-312.49666,270.17487,66.83077,308.15187,486.45041,48.70182,1181.0619,101.86316,1192.61293,208.186,9.21337,84.80659,440.05662,200.10505,610.24221,307.34867Q3340.14228,3331.87746,3360.22109,3327.0837Z"/><ellipse class="Graphic-Style-101" cx="3532.80847" cy="608.84189" rx="101.13448" ry="101.12963"/><ellipse class="Graphic-Style-102" cx="1297.06865" cy="3174.85873" rx="160.17276" ry="106.32282"/><ellipse class="Graphic-Style-101" cx="1176.09467" cy="2968.64786" rx="90.41415" ry="60.01699"/><ellipse class="Graphic-Style-101" cx="4958.87337" cy="3078.05592" rx="92.81068" ry="92.80623"/><path class="cls-19" d="M2285.60246,3438.00772s206.84641,24.51332,420.68368-87.71633c42.53117-28.35275,62.61534,33.07822,35.44265,53.16142s-168.94327,100.416-399.32044,87.421C2215.99626,3486.14834,2239.39863,3435.76756,2285.60246,3438.00772Z"/></svg>