<?xml version="1.0" encoding="utf-8"?>
<!-- Generator: Adobe Illustrator 24.0.0, SVG Export Plug-In . SVG Version: 6.00 Build 0)  -->
<svg version="1.1" id="Vector" xmlns="http://www.w3.org/2000/svg" xmlns:xlink="http://www.w3.org/1999/xlink" x="0px" y="0px"
	 viewBox="0 0 3000 3000" style="enable-background:new 0 0 3000 3000;" xml:space="preserve">
<style type="text/css">
	.st0{fill:none;stroke:#1A1A1A;stroke-width:4.749;stroke-linecap:round;stroke-linejoin:round;stroke-miterlimit:10;}
	.st1{fill:#D9DBDA;stroke:#1A1A1A;stroke-width:3.166;stroke-miterlimit:10;}
	.st2{fill:#FFFFFF;stroke:#1A1A1A;stroke-width:3.166;stroke-linecap:round;stroke-linejoin:round;stroke-miterlimit:10;}
	.st3{fill:#1A1A1A;stroke:#1A1A1A;stroke-width:3.166;stroke-linecap:round;stroke-linejoin:round;stroke-miterlimit:10;}
	.st4{fill:#8E9DF4;stroke:#1A1A1A;stroke-width:3.166;stroke-linecap:round;stroke-linejoin:round;stroke-miterlimit:10;}
	.st5{fill:#5067EF;stroke:#1A1A1A;stroke-width:3.166;stroke-linecap:round;stroke-linejoin:round;stroke-miterlimit:10;}
	.st6{fill:none;stroke:#1A1A1A;stroke-width:3.166;stroke-linecap:round;stroke-linejoin:round;stroke-miterlimit:10;}
	.st7{fill:none;stroke:#FFFFFF;stroke-width:4.749;stroke-linecap:round;stroke-linejoin:round;stroke-miterlimit:10;}
	.st8{fill:none;stroke:#FFFFFF;stroke-width:3.166;stroke-linecap:round;stroke-linejoin:round;stroke-miterlimit:10;}
</style>
<g>
	<path class="st0" d="M501,1205c-79.2,255.2-150.7,485.7-81.3,686.1c58.8,169.8,198.8,260.1,320.5,338.5
		c418,269.7,908.1,176.9,1015.6,153.5c146.6-31.9,166.4-61.7,320.5-81.3c286.6-36.3,366.9,48,541.7-18.1
		c145.8-55.1,303.9-194.8,306.9-343.1c2.3-110.7-83.9-129-176-338.5c-66.4-151.1-44.1-192.7-99.3-361.1
		c-20.2-61.7-95.7-292.2-234.7-437.9c-194.7-204-484.8-211-722.2-216.7c-78-1.9-896.6-12-1133,451.4
		C542.1,1072.3,528.4,1116.5,501,1205z"/>
	<path class="st1" d="M385.9,1376.5c32.3,258.6,219,336.8,233.6,646.6c7.2,153.9-36.6,182.3,0,230.2
		c129.2,169.1,633.1-239,1147.7-57.6c216.8,76.4,229.2,184.7,416.4,193c281.1,12.4,602.1-216.5,622.9-457
		c14-161.9-120.4-185-199.7-453.7c-99-335.1,57.2-478-64.3-636.5c-124.8-162.7-399.5-155.3-636.5-149
		c-271.9,7.3-283.9,70.9-595.8,104.9c-458.2,50-596.2-69.5-755,57.6C403.5,976.6,365.9,1216.7,385.9,1376.5z"/>
	<path class="st2" d="M724.3,794.7L577.8,1818.4c5.6,14.7,10.8,29.9,15.6,45.8l157-1069.9C741.5,794.3,732.8,794.4,724.3,794.7z"/>
	<path class="st2" d="M2754.7,1763.8l-35.1,259.7l-1.8,13.6l-1.7,12.3l-6.4,47.4H619.1c0.9-14.8,1.4-31.4,1.1-50.1l2021.8-9.3
		l1.7-15.1h0.2l54.1-341.3C2718.3,1712.7,2737.8,1739,2754.7,1763.8z"/>
	<path class="st2" d="M2698.1,1681l-54.4,342.9l-25,0.1l-1998.8,9.1c-0.1-3.3-0.2-6.6-0.4-10c-2.9-60.9-12.4-112.8-26.1-159
		L750.4,794.3c93.3,0.8,212.3,21.2,395.1,15.1h1368c10.3,9.9,20,20.6,28.9,32.2c121.5,158.4-34.7,301.3,64.3,636.5
		c21.8,73.8,47.8,129.1,73.7,173.9C2686.3,1662.2,2692.2,1671.8,2698.1,1681z"/>
	<polygon class="st3" points="1849.8,1367.5 2496.4,1367.5 2487.4,1388.8 1843,1388.8 	"/>
	<polygon class="st2" points="807.2,840.8 760.5,1160.3 1489.9,1168.2 1539,840.8 	"/>
	<polygon class="st2" points="753.1,1215.4 706.4,1534.9 1435.8,1542.8 1484.9,1215.4 	"/>
	<polygon class="st2" points="673.1,1593.8 626.4,1913.3 1355.8,1921.3 1404.9,1593.8 	"/>
	<path class="st2" d="M2495.6,793.6l-1088.1-8.9c-29,4.6-61.2,9-97.4,12.9c-60.1,6.6-114.7,10.2-164.6,11.8h1368
		C2507.8,803.9,2501.8,798.6,2495.6,793.6z"/>
	<path class="st2" d="M2433.4,753.6h-877.8c-40.9,10.7-87.6,21.5-148.1,31.1l1088.1,8.9C2476.6,778.1,2455.8,764.9,2433.4,753.6z"/>
	<path class="st2" d="M619.9,2033.1c0.2,4.6,0.3,9.2,0.3,13.6l2020.8-9.6l2.7-13.2L619.9,2033.1z"/>
	<path class="st2" d="M724.3,794.7c-16.2,0.6-31.7,2-46.7,4.6l-128.8,953.7c10.4,20.8,20.2,42.4,29,65.5L724.3,794.7z"/>
	<g>
		<polygon class="st4" points="1747.1,1214.6 1716.7,1214.6 1729.2,1155.6 1759.7,1155.6 		"/>
		<polygon class="st4" points="1849.9,1214.3 1819.4,1214.3 1858.2,1031.8 1888.7,1031.8 		"/>
		<polygon class="st4" points="1952.6,1214.3 1922.1,1214.3 1945,1106.7 1975.5,1106.7 		"/>
		<polygon class="st4" points="2055.3,1214.3 2024.8,1214.3 2056.8,1063.8 2087.2,1063.8 		"/>
		<polygon class="st4" points="2158.1,1213.5 2127.7,1213.5 2181.2,961.3 2211.7,961.3 		"/>
		<polygon class="st4" points="2260.8,1213.5 2230.4,1213.5 2273.1,1012.1 2303.6,1012.1 		"/>
		<polygon class="st4" points="2363.5,1213.5 2333.1,1213.5 2404.2,878.5 2434.7,878.5 		"/>
		<polygon class="st2" points="1763.9,1063.8 1890.2,952.7 1978.3,1021.7 2089.2,982.7 2202.4,909.3 2303.8,939.3 2429.2,832.5 		
			"/>
		
			<ellipse transform="matrix(0.765 -0.644 0.644 0.765 -271.6635 1386.1381)" class="st3" cx="1763.6" cy="1065.3" rx="9" ry="7.3"/>
		<ellipse transform="matrix(0.765 -0.644 0.644 0.765 -171.8125 1441.5526)" class="st3" cx="1889.5" cy="956.2" rx="9" ry="7.3"/>
		
			<ellipse transform="matrix(0.765 -0.644 0.644 0.765 -194.5056 1514.3181)" class="st3" cx="1977.8" cy="1023.7" rx="9" ry="7.3"/>
		<ellipse transform="matrix(0.765 -0.644 0.644 0.765 -140.8379 1576.2717)" class="st3" cx="2089.6" cy="981.1" rx="9" ry="7.3"/>
		<ellipse transform="matrix(0.765 -0.644 0.644 0.765 -66.7989 1632.6659)" class="st3" cx="2203.9" cy="907.9" rx="9" ry="7.3"/>
		<ellipse transform="matrix(0.765 -0.644 0.644 0.765 -63.6177 1704.443)" class="st3" cx="2303.8" cy="939.4" rx="9" ry="7.3"/>
		<ellipse transform="matrix(0.765 -0.644 0.644 0.765 34.7061 1760.0737)" class="st3" cx="2429.2" cy="832.5" rx="9" ry="7.3"/>
	</g>
	<path class="st3" d="M1155.5,943.9c0,0,36-130,148-55s112,299,135,346s12.7,99,12.7,99l-115.6-28L1155.5,943.9z"/>
	<path class="st3" d="M1185.5,922.9c0,0-49-19-76,32c-27,51,2.7,98,24.3,176s-26.5,159.6-26.5,159.6l123.1-3.3v-88.3L1185.5,922.9z"
		/>
	<path class="st2" d="M1528.1,2414.3c4.2-51.8,17.6-262.6-27.3-447.6c-235.6-23.5-399.1-52.8-399.1-52.8l-71.2,36.1
		c0,0-91.8,116.2-77.4,386.3C1163.5,2415.1,1373,2424.2,1528.1,2414.3z"/>
	<path class="st3" d="M1069.7,1923.8c0,0,172.7,162.1,453.7,65.9c-1.8-5-0.9-32.7-20.1-38.6c-102-31.7-416.1-50-416.1-50
		L1069.7,1923.8z"/>
	<path class="st5" d="M1146.7,1921.8c0,0,112.3,147.3,356.6,60.9c-18-199.7-94.2-677.1-94.2-677.1l-37.9-10.3
		c0,0-28.9,52.9-55.2,58.8s-112.3-67-112.3-67l-37.7,20.8C1165.9,1307.9,1198.7,1809,1146.7,1921.8z"/>
	<path class="st3" d="M1376.9,1335.5l-12.2,10.5c0,0,6.9,130.5,35.4,268.4s76.4,263.3,89.8,315.8c21.6,35.3,21.6,35.3,21.6,35.3
		l-106.6-609.2L1376.9,1335.5z"/>
	<path class="st2" d="M1203.8,1290.2c0,0,15.3-59.3,8-116.6c116.7-11.3,116.7-11.3,116.7-11.3s20.7,112,41.3,125.3
		c12.7,62-19.3,78.7-52,74.7C1285.1,1358.2,1220.5,1351.5,1203.8,1290.2z"/>
	<path class="st3" d="M1279.3,1207.7c0,0-15.4,39.8-64.7,32.3c2.6-19.6,1.9-18.3,1.9-18.3S1258.6,1229.4,1279.3,1207.7z"/>
	<path class="st2" d="M1186.5,947.9c0,0,5,36,35,42c30,6,77,48,82,78.4c5,30.4,34,31.6,62,27.6c2,21-7,34-37,33
		c-28,69-47.5,91-98,92.8c-50.4,1.8-97-68.8-106-178.8c-1.3-16.4-0.3-30.7,2.4-43.3C1160.9,984.7,1186.5,947.9,1186.5,947.9z"/>
	<path class="st2" d="M1503.3,1343.3c0,0,58.1,23.3,78.4,97.8s7.8,292.8,20.6,376.3c12.8,83.5-36.7,80.1-60,77.1
		c-23.3-3-68-75.3-68.8-80.6C1472.9,1808.6,1503.3,1343.3,1503.3,1343.3z"/>
	<path class="st2" d="M1473.8,1816.7c0,0,51.5-70,129-29c12.8,52.6,11.7,35,11.7,35s-107.8,9.8-124.6,57.9
		C1470.8,1837,1473.8,1816.7,1473.8,1816.7z"/>
	<path class="st2" d="M1987.1,1925.9c-15.7-13.4-33.7-23.1-51.5-33.3l59.4-1.7c10.5,2,9.3-12.4,0-14.1c-1.7-0.3-26.9-4.6-29-4.8
		c-33.9-3.2-68.4,3-101.6,9.6c-82.9-21-253.7-67.7-276.6-79.8c-35.4-18.8-147.9,52.1-72.2,100.3c52.9,33.7,255.4,34.5,337.8,29.8
		c4.3,1.7,8.5,5.8,12.7,7.9c30.8,19.2,61.6,39.9,96.6,50.6c24.6,8.7,57.4,1.3,67.9-24.5c1.7-7.9-4.7-8.5-9.7-12.3
		C2009.5,1944.5,1998.5,1935,1987.1,1925.9z"/>
	<path class="st2" d="M1379.2,1290.4c0,0,141.7,32.2,160.3,94.8s20.3,202.6-24.8,348.1c-45.1,145.6,67.8,396.8,76.3,462.5
		c-44.8,76.2-79.8,60.9-97,30.5c-17.2-30.5,33.7-192.8-13.7-353.6S1363.4,1362.2,1379.2,1290.4z"/>
	<path class="st2" d="M1372.7,1287.7c0,0,33.3,7.6,44.6,7.6c11.3,0,39.5,81.3,20.9,88c-19.7-3.4-23.1-5.1-23.1-5.1
		s29.9,28.2,29.3,33.9c-0.6,5.6-25.4,87.1-24.3,127.6c1.1,40.5,6.2,84,6.2,84S1362.6,1407.7,1372.7,1287.7z"/>
	<path class="st2" d="M1005.7,1373.4c-5.6,79,89.2,256.2,54.2,336.3c-35,80.1-221.2,459.3-221.2,459.3s214.4,132,316,49.7
		c101.6-82.4,229.2-535.2,207.6-606c-21.5-70.8-161.6-331.1-161.6-331.1S1011.3,1294.4,1005.7,1373.4z"/>
	<path class="st2" d="M1208,1270l-43.7,1.6c0,0-17.2,71.7,26.8,110c29.9-6.8,29.9-6.8,29.9-6.8s-16.2,20.9-17.1,30.5
		c18.3,33.9,100.6,133.7,130,142.2C1324.2,1508.6,1236.2,1356.8,1208,1270z"/>
	<path class="st3" d="M1298.2,2412.2l9.9-119.1l-40.3,116.2C1278,2410.3,1288.2,2411.3,1298.2,2412.2z"/>
	<path class="st2" d="M1968.6,1457.3c-37.1,95.8-57.8,210.8-64.9,327.9c67.6,5.9,135.2-1.7,203.1-7.6c29.2-103,50-208.3,61-316.3
		L1968.6,1457.3z"/>
	<path class="st2" d="M2276.7,1457.3c-12.2,103.4-33.6,210.1-64.9,320.3c80.1,7.3,156.9,12.7,203.1,0c4.6-72.4,32.4-193.4,61-316.3
		L2276.7,1457.3z"/>
	<path class="st2" d="M1634,1287.2l208.8-38.1h39.5l-33.3,22.6l-210.5,37.8C1630.1,1306.1,1626.6,1299.8,1634,1287.2z"/>
	<path class="st2" d="M1785.2,1230.3c-16.9-27.6-169.3,132.4-169.3,132.4c-57,59.1-295.8,192.1-295.8,192.1s-25.6,123.4-22.6,136.9
		v-3.8c0,0,40.6,40.6,81.6,9c30.8-23.7,169.3-182.9,234.7-257.3c0,0,0.1-0.1,21.7-19.2c21.7-19.2,68-15,102.9-45.4
		c35-30.5,16.6-61.9-0.4-76C1721.2,1284.9,1801.7,1255.4,1785.2,1230.3z"/>
	<path class="st2" d="M1160.9,1281.5c-24.6,5.6-148.5-27.8-176.7,65.9c-28.2,93.7,68.8,304.7,345.3,362.2
		c-1.1-40.6-42.4-125,19.4-171.2c-54.3-2.3-172.9-118.8-201.1-153.8L1160.9,1281.5z"/>
	<path class="st2" d="M1313.9,1521c0,0-85.8,36.5-53.4,173.8c13.5,16.2,63.2,19.6,67,19.2c3.8-0.4,7.5-2.3,7.5-2.3
		s-26.5-101.2-9.9-138.8c16.7-37.6,24-36.5,24-36.5S1322.5,1519.7,1313.9,1521z"/>
	<path class="st2" d="M956.4,1944l139.3,60c0,0-27.6,32.5-45.1,26c-17.6-6.5-98.9-35.7-111.7-48.9S956.4,1944,956.4,1944z"/>
	<g>
		<g>
			<path class="st2" d="M668.9,1515.3c2.8,12.8,12.4,22.6,19.7,28.3c4.6,0.6,9.2,1,14,1.4c20.8,1.4,40.7-7.7,58.3-20.9
				c-12.4-3-39.3-10.6-46.4-20.9c-9.3-13.4-0.7-15.8,4-10c4.8,8.6,37.3,19,51.8,23.3c8.7-7.6,16.7-15.9,23.8-24.2
				c-12-0.6-28.2-4.6-32.7-10.5c-5.9-7.7,1.3-12,7.1-7.1c4.3,3.6,24.4,5.5,34.8,6.3c13.6-17.5,22.5-32.8,24.8-36.8
				c0.4-0.7,0.6-1,0.6-1s-14.4-17.3-35.7-36.3c-8.3,1.8-20.9,4.7-27.5,7.9c-10.4,4.9-17.2,10.2-20.4,6.3
				c-5.1-9.3,23.7-17.8,39.3-21.7c-9.5-8-20-15.8-31-22.6c-48.7,4-46.6,37.1-57.3,26.1c-9.3-9.5,29.6-26.4,45.6-32.8
				c-10.9-5.6-22-9.8-32.9-11.5c-10-1.2-19.2-1.8-27.6-2.1c-23.2,15.4-9.7,41.6-22.8,36.6c-10.2-3.9,2.5-25.5,10-36.7
				c-113.3,2.3-58,91-58,91c-0.2,0.4-0.3,0.7-0.5,1.1c-22,48.4,9.7,79.8,59.4,91.7c-2.9-9.1-8-25.7-8.5-29
				C660.1,1506.6,667.2,1504.2,668.9,1515.3z"/>
			<path class="st6" d="M807.2,1444.7c0,0-136.9,9.5-196.9,2.7L807.2,1444.7z"/>
			<path class="st6" d="M750.5,1480.1c0,0-22.9-11.2-41-30.8L750.5,1480.1z"/>
			<path class="st6" d="M723.2,1413.3c0,0-33.1,22.2-33.8,36.4L723.2,1413.3z"/>
			<path class="st6" d="M693.5,1506.2c0,0-28.4-37.5-33.2-56.4L693.5,1506.2z"/>
			<path class="st6" d="M638.3,1406.7c0,0-18.5,21.6-11.5,42.1L638.3,1406.7z"/>
		</g>
		<g>
			<path class="st3" d="M352,1379c7.9,1,15.7,2.2,23.2,3.6c10.1,9.8,22.7,26.2,22.6,46.7c-1.4,17.8,11.5,14.7,12.2,7.5
				c0.5-5.2-1.9-32-3.3-46.6c80.5,24,122.3,77.2,64.7,152.3c0,0,60,145.6-133,137.7c16.9-16.9,46.8-49.8,30.9-56.9
				c-20.3-9.1-7.5,33.6-52.6,55.5c-14.1-1.3-29.4-3.3-46-6.1c-17.9-3.8-35.2-11.5-51.5-21.4c29.6-8.5,102-31.2,89.8-47.1
				c-14.1-18.4-23.1,34.1-107.2,35.5c-16-11.7-30.8-25.3-43.9-38.8c27.8-4.5,80-15,74.9-30.2c-3.8-6.5-17.4,1.1-37,7.9
				c-12.5,4.3-34.9,7.7-49.7,9.6c-28.8-32.2-46.7-60.9-46.7-60.9s22.8-26.5,57.6-57.2c17.3,2.3,50.7,7.3,56.6,13.5
				c8,8.3,21.9,2.3,14.8-10.5c-5.4-9.8-31.3-17.7-51.5-19.9c15.2-12.4,32-24.8,49.6-35.8c23.1,8.3,74.2,27.9,79.1,41.9
				c5.7,9.6,21.2,6.7,10.5-15.4c-8.1-16.9-51-31.6-70.8-37.6C280,1387,317.2,1374.7,352,1379z"/>
			<path class="st7" d="M136.3,1526.6c0,0,235.8-1.2,335,15.7L136.3,1526.6z"/>
			<path class="st8" d="M245.8,1476.5c0,0,34.6,20,57.9,52.7L245.8,1476.5z"/>
			<path class="st8" d="M266.8,1584.7c0,0,64.6-31.7,71.3-54.1L266.8,1584.7z"/>
			<path class="st8" d="M352.5,1441.1c0,0,33.9,62,34.8,92.3L352.5,1441.1z"/>
			<path class="st8" d="M408.3,1603.6c0,0,39.7-32.2,35.5-65.2L408.3,1603.6z"/>
		</g>
		<g>
			<path class="st2" d="M382.7,1123.1c5.7,4,11.1,8.2,16.3,12.4c3.4,12.7,5.5,32.3-3.9,50.5c-9.2,15.3,2.1,17.7,6,11.5
				c2.8-4.4,13.2-29.2,18.8-42.8c51.2,53.5,59.1,117.5-19.7,161.3c0,0-20.2,153.4-165.7,69.3c20.8-8.3,58.9-25.6,49.9-38.3
				c-11.5-16.2-21.1,26.9-66,28.3c-10.3-6.8-21.2-14.7-32.7-23.8c-12.1-10.5-21.9-24.3-30-39.6c26.7,4.3,93.1,13,90.9-6
				c-2.5-22-33.4,21.1-99-11.3c-7-16.9-12.3-34.8-16.2-52c23.5,7.1,68.7,18.6,71.7,3c0-7.3-14-5.9-32.2-7.8
				c-11.6-1.2-30.5-7.1-42.8-11.3c-7.6-40.1-8.3-72.8-8.3-72.8s29.8-14.5,70.6-27.9c12.3,8.9,35.8,26.8,37.6,34.6
				c2.4,10.6,15.8,10.8,16.2-3.4c0.3-10.9-16.1-28.3-30.7-38.2c17.4-4.9,36-9.2,54.7-12c14.1,16.6,44.6,54.5,41.9,68.9
				c0,10.8,13.3,14.5,15.2-9.5c1.4-18.3-25-48.5-37.5-61.7C323.5,1101.5,357.8,1105.4,382.7,1123.1z"/>
			<path class="st6" d="M148.6,1168.2c0,0,182.7,93.1,251.6,147.8L148.6,1168.2z"/>
			<path class="st6" d="M256.1,1167.4c0,0,17.5,31.6,20.6,70L256.1,1167.4z"/>
			<path class="st6" d="M222.9,1272c0,0,64.4-2.3,79.8-19.6L222.9,1272z"/>
			<path class="st6" d="M354.7,1178.5c0,0-2.2,68.6-15.3,96L354.7,1178.5z"/>
			<path class="st6" d="M323.5,1345.4c0,0,45.4-12.8,57.2-43.8L323.5,1345.4z"/>
		</g>
		<g>
			<path class="st2" d="M595.2,1253.2c10.1-2.5,16.8-10.1,20.5-15.8c-0.1-3.5-0.3-7-0.7-10.7c-1.6-15.9-11.5-30.7-24.5-43.7
				c-0.9,9.5-3.6,30.2-11,35.9c-9.7,7.5-12.7,1-8.6-2.7c6.4-3.9,10.7-28.9,12.3-40.2c-7.3-6.4-15.1-12.2-22.8-17.4
				c1.1,9.2-0.1,21.6-4.3,25.2c-5.5,4.7-9.9-0.6-6.7-5.2c2.4-3.4,1.4-18.7,0.7-26.7c-16-9.8-29.6-16.2-33.2-17.8
				c-0.6-0.3-0.9-0.4-0.9-0.4s-12.2,11.5-25,28.3c2.5,6.3,6.5,15.8,9.9,20.7c5.4,7.8,10.5,12.8,7.7,15.3
				c-6.9,4.2-17.6-17.5-22.7-29.2c-5.3,7.5-10.3,15.7-14.4,24.2c9.5,36.9,36.2,34.3,28.6,42.8c-6.5,7.4-25.3-21.7-32.5-33.7
				c-3.2,8.4-5.1,17-5.1,25.4c0.3,7.7,1,14.7,1.8,21.1c15.5,17.2,35.1,6.1,32.7,16.2c-1.8,7.9-21.1-1.1-31.2-6.5
				c16.4,86.1,81.5,41.3,81.5,41.3c0.3,0.1,0.6,0.2,0.9,0.3c42.2,15.2,63.7-9.8,67-48c-7,2.5-19.9,6.9-22.5,7.3
				C589.2,1260.1,586.3,1254.9,595.2,1253.2z"/>
			<path class="st6" d="M520,1150.2c0,0,25.3,103.9,27.4,149.7L520,1150.2z"/>
			<path class="st6" d="M556.1,1192.2c0,0-6.2,17.8-19.8,32.2L556.1,1192.2z"/>
			<path class="st6" d="M505.2,1215c0,0,22.3,24.5,34,24.6L505.2,1215z"/>
			<path class="st6" d="M584.6,1234.8c0,0-26.9,22.7-41.6,27L584.6,1234.8z"/>
			<path class="st6" d="M510.7,1279.8c0,0,20,13.5,35.7,7.5L510.7,1279.8z"/>
		</g>
		<path class="st0" d="M547.4,1299.9c0,0,11.7,1.7-17.9,144.6L547.4,1299.9z"/>
		<path class="st0" d="M392.9,1310.4c0,0,126.8,37.5,136.5,136.7L392.9,1310.4z"/>
		<path class="st0" d="M461.2,1542.3c3.1-1.1,56.5-6,74.1,6.5L461.2,1542.3z"/>
		<path class="st3" d="M490.1,1647.8c0,0,58.8-146,35.1-222.6c25.3,31.8,29.9,114.4,13.1,150.8c-8.9,75.9-23.9,113.5-23.9,113.5
			L490.1,1647.8z"/>
		<g>
			<path class="st0" d="M497.6,1633.7c0,0,88.3-28.3,104,121.6L497.6,1633.7z"/>
			<path class="st4" d="M472.9,1865.7c-0.8-5.8-1.4-11.5-1.7-17.1c7.1-10,19.9-23.7,39.4-30c17.2-4.5,11.5-12.4,4.4-10.7
				c-5.1,1.3-30,11.2-43.6,16.7c5.1-62.9,46.6-108.2,130.7-91.6c0,0,125.3-86.3,160.1,49.3c-19.8-6.5-57.7-16.9-60.9-3.7
				c-4.2,16.8,33.6-5.2,64.3,19.2c1.9,10.1,3.3,21.3,4.3,33.6c0.3,13.5-3.2,27.8-9.1,42.1c-14.6-17.8-52.1-60.8-64.5-47.5
				c-14.4,15.4,37.5,5.4,57.3,63c-7.7,14.7-17.3,29.1-27.2,42.3c-10.4-17.8-31.8-50.6-45.2-42.3c-5.4,4.7,4.9,11.6,15.6,23.1
				c6.8,7.3,15,21.7,20.1,31.3c-24.3,29.8-47.7,51-47.7,51s-30.2-7.6-67-22.1c-1.6-12.7-4.1-37.3,0.4-43.2c6.2-8.1-2.6-15.8-13.2-7
				c-8.2,6.8-10,27.1-7.6,41.6c-15.1-6.7-30.6-14.4-44.9-23.2c2.8-18.5,10.3-59.8,22.5-67.5c7.9-6.9,1.7-16.7-16.9-2.5
				c-14.3,10.8-18.8,44.9-20.2,60.4C496.3,1912.9,476.5,1891,472.9,1865.7z"/>
			<path class="st7" d="M660.7,1969c0,0-52.9-162.4-58.6-236L660.7,1969z"/>
			<path class="st8" d="M589,1908.8c0,0,11.5-30,37.5-56.2L589,1908.8z"/>
			<path class="st8" d="M687.3,1861c0,0-44.3-34.8-67.1-32.5L687.3,1861z"/>
			<path class="st8" d="M531.9,1846.2c0,0,51.5-42.5,80.2-52.5L531.9,1846.2z"/>
			<path class="st8" d="M674.3,1757.5c0,0-39.3-17.5-69.8-4.4L674.3,1757.5z"/>
		</g>
		<path class="st0" d="M534.2,1603.1c0,0,0.3-193.9,73.5-155.8L534.2,1603.1z"/>
	</g>
	<polygon class="st2" points="2709.7,2096.7 2746.3,2096.7 2785.2,1814.6 2754.7,1763.8 	"/>
	<path class="st2" d="M2225.9,2096.7l102.7,278.6c0,0-28.2,10.1-45,8.2c-25.9-71.1-112.4-286.8-112.4-286.8H2225.9z"/>
	<ellipse class="st3" cx="2093.8" cy="1464.8" rx="17.5" ry="15.5"/>
	<ellipse class="st3" cx="2382.2" cy="1464.8" rx="17.5" ry="15.5"/>
	<ellipse class="st2" cx="2100.3" cy="2417.6" rx="106.1" ry="83.5"/>
	<ellipse class="st3" cx="380.9" cy="1844.7" rx="76.7" ry="77.5"/>
	<ellipse class="st3" cx="2513.5" cy="2389.3" rx="53.3" ry="54"/>
	<ellipse class="st2" cx="601.6" cy="2307.3" rx="143.8" ry="132.4"/>
	<ellipse class="st3" cx="2747.5" cy="1397.8" rx="121.1" ry="111.6"/>
	<circle class="st2" cx="865.4" cy="907.9" r="40"/>
	<circle class="st2" cx="820.6" cy="1284.9" r="40"/>
</g>
</svg>
