<?xml version="1.0" encoding="utf-8"?>
<!-- Generator: Adobe Illustrator 22.0.0, SVG Export Plug-In . SVG Version: 6.00 Build 0)  -->
<svg version="1.1" id="Layer_1" xmlns="http://www.w3.org/2000/svg" xmlns:xlink="http://www.w3.org/1999/xlink" x="0px" y="0px"
	 viewBox="0 0 4000 4000" style="enable-background:new 0 0 4000 4000;" xml:space="preserve">
<style type="text/css">
	.st0{fill:none;stroke:#1A1A1A;stroke-width:3;stroke-linecap:round;stroke-linejoin:round;stroke-miterlimit:10;}
	.st1{fill:#FFFFFF;stroke:#1A1A1A;stroke-width:2;stroke-linecap:round;stroke-linejoin:round;stroke-miterlimit:10;}
	.st2{fill:#D9DBDA;stroke:#1A1A1A;stroke-width:2;stroke-miterlimit:10;}
	.st3{fill:#8E9DF4;stroke:#1A1A1A;stroke-width:2;stroke-linecap:round;stroke-linejoin:round;stroke-miterlimit:10;}
	.st4{fill:#1A1A1A;stroke:#1A1A1A;stroke-width:2;stroke-linecap:round;stroke-linejoin:round;stroke-miterlimit:10;}
	.st5{fill:#5067EF;stroke:#1A1A1A;stroke-width:2;stroke-linecap:round;stroke-linejoin:round;stroke-miterlimit:10;}
</style>
<g>
	<path class="st0" d="M412.7,2911.3c-37.1,203.6,146.1,433.4,328.2,547.1c208.6,130.2,431.5,117.9,752.2,100.3
		c337.4-18.5,336.2-79.1,560.8-63.8c345.2,23.5,396.5,169.9,683.9,168.7c41.1-0.2,340.2-5.7,588.1-214.3
		c330.2-277.7,338.9-721.4,341.9-875.3c4.2-214.5-48.9-399.8-155-770.5c-31.1-108.8-72.4-226-155-460.5
		c-171.3-486.4-207.3-526-246.2-556.2c-176.9-137.4-313.2-1.6-597.2-141.3c-237.1-116.6-273.9-276-378.4-250.7
		c-154.6,37.4-97.8,392-364.7,565.3c-96.2,62.5-191.7,73.7-227.9,77.5c-332.5,35.3-460.5-272.9-711.2-250.7
		c-230.8,20.4-468.6,312.2-465,565.3c4.2,292.9,328.9,337,369.3,711.2c28.8,267.2-106.9,520.5-114,533.4
		C523.5,2776.6,435.7,2785.2,412.7,2911.3z"/>
	<path class="st1" d="M1110,1103.3l-28.3,0.1l-0.5-236.8c9.4,6.1,18.9,12.3,28.4,18.6L1110,1103.3z"/>
	<path class="st1" d="M3494.6,2678.8c29.7-328.9,59.9-373.1,27.4-524.3c-44.1-204.7-126.8-249.9-123.1-428.5
		c4.2-203.8,113.9-248.2,82.1-401.2c-40.9-196.5-258.8-300.7-269-305.5c-236.4-109.1-449,26.4-510.6-68.4
		c-53.8-82.7,104.5-191.8,68.4-351c-40.2-177.3-288.6-272.5-442.2-296.3c-25.4-3.9-366-52.5-506,136.8
		c-91.8,124-29.3,257.8-145.9,360.2c-61.6,54-132.8,63.9-205.2,72.9c-626.3,78.3-708.5,56.7-793.3,132.2
		c-86.5,77-97.2,229.1-118.5,533.4c-10.1,144.4-21.2,327.5,50.1,547.1c35.6,109.6,89.8,136.4,123.1,264.4
		c45,173,13.1,297.5,4.6,328.2c-11.6,41.6-26.2,74.6-40.9,103.1h2790.7C3488.6,2748.9,3491.4,2714.6,3494.6,2678.8z"/>
	<path class="st1" d="M3486.2,2781.8H695.5c-6.2,11.9-12.3,23.1-18.3,33.7c-42.3,75.1-81,136.2-115.6,187.1h2912.2
		C3476.4,2937.4,3480.1,2864.2,3486.2,2781.8z"/>
	<path class="st1" d="M561.6,3002.7c-120.4,177.4-190,229.8-180.8,309.8c16.6,143.7,272.5,247.3,460.5,273.5
		c295.4,41.2,334.4-121.4,665.6-104.9c247.2,12.4,550.2,119.1,651.9,155c145.5,51.3,211.2,86.6,300.9,59.3
		c174.2-53.1,184.9-265.1,323.7-278.1c109.9-10.3,140.9,119.1,314.6,150.4c26.4,4.8,168.4,27.5,269-41
		c107.9-73.5,93.9-201.6,106.8-524.1H561.6z"/>
	<path class="st2" d="M3473.8,3002.7c-4.4,109.4-5.7,196.4-9.7,266.6c-120.2,0.9-257.8-6.1-335.4-36.9
		c-158.7-63-111.8-152.3-289.5,28.8c-177.7,181.1-667.1,177.8-651.8,150.2c15.2-27.6-20.8-204.3-203-95
		c-182.2,109.4-607.4,56.3-588.7,37.5c18.6-18.8,58.7-130.3-320.1-95C632,3313.6,460,3280,397.8,3234
		c27.2-52,84.4-114.6,163.7-231.4H3473.8z"/>
	<path class="st1" d="M2327.5,303.5c-25.4-3.9-366-52.5-506,136.8c-91.8,124-29.3,257.8-145.9,360.2c-61.6,54-132.8,63.9-205.2,72.9
		c-51.3,6.4-98.8,12.1-143.1,17.3V1788l1341-1341C2571.4,366,2428.8,319.2,2327.5,303.5z"/>
	<path class="st1" d="M2701.3,950.9c-53.8-82.7,104.5-191.8,68.4-351c-12.2-53.8-43.7-100.1-85.8-139.1L1327.3,1817.4V2583H1504
		L3102.9,984.1C2912.5,947,2753.3,1030.8,2701.3,950.9z"/>
	<path class="st1" d="M3102.9,984.1L1504,2583h22.1l1595-1595C3115,986.7,3108.9,985.3,3102.9,984.1z"/>
	<path class="st1" d="M3486.7,1380.7c0.2-17.2-1.5-35.6-5.7-56c-40.9-196.5-258.8-300.7-269-305.5c-30.8-14.2-61.2-24.2-90.9-31.2
		l-1595,1595h758.3L3486.7,1380.7z"/>
	<path class="st1" d="M3486.7,1380.7L2284.3,2583h125.2l1020.7-1020.7C3455.1,1496,3485.9,1448.4,3486.7,1380.7z"/>
	<path class="st1" d="M3398.9,1725.9c1.4-69.5,15.1-120.5,31.3-163.6L2409.5,2583H3504c26-243.7,47.1-293.4,17.9-428.6
		C3477.9,1949.7,3395.2,1904.6,3398.9,1725.9z"/>
	<path class="st1" d="M2668.3,447l-1341,1341v29.4L2683.9,460.8C2678.9,456.1,2673.7,451.5,2668.3,447z"/>
	<path class="st1" d="M2086.6,1101.2l-28.4,0.1l-1.7-792.7c9.5-1.9,19-3.5,28.3-4.9L2086.6,1101.2z"/>
	<path class="st3" d="M3504.7,2576.6H1360.8V2009h2115.9c-4.2-10.3-8.4-20.2-12.6-29.8H1360.8v-526.2h2113.4
		c3.1-9.7,5.9-19.6,7.9-29.8H1360.8V961.5h1349c-3.1-3.2-5.9-6.7-8.5-10.6c-4-6.2-6.9-12.6-8.7-19.1H1360.8v-45
		c-18.7,2.2-36.9,4.4-54.6,6.4v1713.2h27.3h27.3h2140.7C3502.6,2596.1,3503.7,2586.2,3504.7,2576.6z"/>
	<g>
		<path class="st2" d="M3432.2,2744.2c-5.2,5.2-12.9,2.6-15.5,5.2c-51.6,56.8-131.7,59.4-198.8,67.1
			c-165.2,20.7-325.3,25.8-493.1-12.9c-5.2,0-12.9-5.2-18.1-5.2c-60.3-4.3-119.1-18.2-175.3-38.6c-40.5-101.4-24.3-358.1,43.7-383.5
			c73.2-27.4,251-43.8,251-43.8s-16.9-255.9,141.3-260.1c0,0,322.2-35,434.6,77.5c112.5,112.5,51.7,480.2,44.1,563.8
			c-0.5,5.7-1.5,11.6-2.9,17.6C3439.3,2735.2,3435.6,2739.4,3432.2,2744.2z"/>
		<path class="st2" d="M2706.7,2798.4c5.2,0,12.9,5.2,18.1,5.2c167.8,38.7,327.9,33.6,493.1,12.9c67.1-7.7,147.2-10.3,198.8-67.1
			c2.6-2.6,10.3,0,15.5-5.2c3.4-4.7,7.1-9,11.1-12.9c-19.2,82.1-123,187.2-367.9,161.7c-262.9-27.4-480.2-31.9-533.4-112.5
			c-3.9-5.8-7.4-12.8-10.5-20.8C2587.7,2780.2,2646.4,2794.1,2706.7,2798.4z"/>
		<path class="st4" d="M3317.9,2441.9c0,0,6.8-193.8-69.3-252.7c-76.1-58.9-260.1-88.3-316.6-9.8
			c-56.4,78.5-214.7,363.2-214.7,397.5c0,34.4-182.8,42.9-182.8,42.9s-2.1,60.1,50.5,73.6s527.4,79.5,531.1,59.4
			c3.7-20.1-17.2-188.2-17.2-188.2S3185.9,2428.3,3317.9,2441.9z"/>
		<path class="st4" d="M3127,3227.9h460c32.4,0-43.6-265.4-60.8-330.9c-17.2-65.5-36.5-102.7-163.1-105.9
			c-254.3-10.3-237.2,105.5-258.4,184.6C3083.5,3054.6,3127,3227.9,3127,3227.9z M3147.9,2981.6c16.9-64.9,3.2-160,205.2-151.5
			c100.6,2.6,115.9,33.1,129.6,86.9c13.7,53.8,74,271.7,48.3,271.7h-365.3C3165.6,3188.7,3131.1,3046.5,3147.9,2981.6z"/>
	</g>
	<g>
		<path class="st4" d="M3148.1,2335.3c-2.4-51,2.7-310-76.8-436.7c1.9,55.3-1.5,110.5-12.4,166.6
			c-25.8,118.8-41.3,265.9-170.4,307.2c-75.7,24.5-166.7,16.3-228.5-39.4c0.3,42.3,1.2,70.2,1.2,70.2s-16.8,33.9,177,58.3
			s211.1,35,290.1,16.7C3207.4,2459.9,3151.2,2400.7,3148.1,2335.3z"/>
		<path class="st4" d="M2694.9,2067.8c-15.5,51.6-18.1,105.9-59.4,142c-95.5,85.2-211.7,123.9-338.2,134.3c-1.5,0-3.2,0-5.1,0.1
			c7.7,12.3,27.3,28,76.4,12.5c74-23.3,267.5-69.9,321.2-183.4l65.3-163.4C2727.4,2017.8,2705.1,2035.1,2694.9,2067.8z"/>
		<path class="st5" d="M2767.3,1834.9c-108.9,47.6-161.6,171.2-190.1,241.1c-33.4,82.1-182.4,161.1-258.3,176.3
			c-76,15.2-31.4,80.3-31.4,80.3s0.8,5.4,4.7,11.6c1.9-0.1,3.7-0.1,5.1-0.1c126.5-10.3,242.7-49.1,338.2-134.3
			c41.3-36.1,43.9-90.4,59.4-142c10.2-32.7,32.5-49.9,60.1-58l41.9-104.9L2767.3,1834.9z"/>
		<path class="st5" d="M2888.5,2372.4c129.1-41.3,144.6-188.5,170.4-307.2c10.9-56.1,14.3-111.2,12.4-166.6
			c-22.4-35.6-51.4-60.8-89.2-67.9c-172.2-32.6-291.4,68.5-309.7,210.6c-11.7,91.5-13,215.2-12.4,291.8
			C2721.8,2388.7,2812.8,2396.9,2888.5,2372.4z"/>
		<path class="st1" d="M2803.3,1842c0,0,79.6,136.5,53.9,427c35.7-101.8,48.7-352.7,188.8-416.8
			C2990.6,1821,2856.9,1797.3,2803.3,1842z"/>
		<path class="st1" d="M2534.8,3167.7c-11.5-30.7-32.5-45.2-32.5-45.2l-72.9,25.8c0,0-4.4,18-31.4,37.3c0,0,0.1,0.1,0.1,0.1
			C2444.4,3198.6,2496,3201.2,2534.8,3167.7z"/>
		<path class="st1" d="M2454.8,3020.4c15.5-105.9-2.6-209.1,7.7-315c2.6-12.9,12.9-36.1,23.2-33.6c173,12.9,364,5.2,488-134.3
			c29.1-34.1,56.3-71.4,75.6-111.7c-150-15.3-311,5.6-311,5.6s-356.6-10.1-425.5,62.8c-62.4,66.1,25.3,531.7,84.1,647
			c6.6-1.5,12.4-4,16.6-7.3C2439.3,3105.6,2447.1,3059.2,2454.8,3020.4z"/>
		<path class="st5" d="M3155.7,2444.7c-33.1-9-69.4-15-106.4-18.7c-19.3,40.3-46.5,77.5-75.6,111.7
			c-123.9,139.4-315,147.2-488,134.3c-10.3-2.6-20.7,20.7-23.2,33.6c-10.3,105.9,7.7,209.1-7.7,315c-7.7,38.7-15.5,85.2-41.3,113.6
			c-4.2,3.3-10,5.8-16.6,7.3c6.1,12,11.9,20.1,17.2,23.7c56.2,38,100.7-45.6,100.7-45.6s-9.5-300.9-20.2-399.7
			c41-7.6,238.6-28.9,392.1,10.6C3040.2,2769.9,3256,2634.7,3155.7,2444.7z"/>
		<path class="st1" d="M2692.2,3151.9c-3.9,4.4-15.9,9.6-31.4,15.8c17.9,34,71.3,25.2,103.8,20.6c6.4-1.2,12.9-2.5,19.3-4.1
			c-1.8-16.2-4.1-26.7-4.1-26.7S2701.8,3141.2,2692.2,3151.9z"/>
		<path class="st5" d="M2860.1,2710.6c-64.3,145.8-102.5,305.9-112.4,466.5c36.3-4,50.4-29.6,58.5-66.8
			c8.8-40.7,82.5-356.1,113.4-453.3C2894.2,2667.4,2872.6,2684.5,2860.1,2710.6z"/>
		<path class="st1" d="M3027.9,2462.8c-113.5-72.9-250.1,62-297.6,113.6c-47.6,51.7-57,544.5-57,544.5s-11.4,47.9,46.3,55.5
			c10.6,1.4,20,1.6,28.2,0.7c9.9-160.6,48.2-320.7,112.4-466.5c12.5-26.1,34-43.3,59.5-53.6c3.7-11.8,83.9-48,86.2-52.5
			C3079.2,2564.9,3098.6,2519,3027.9,2462.8z"/>
		<path class="st4" d="M2660.8,3167.7c-22.5,9-52.6,20.3-77.5,34.3c-42,23.8-118.5,84.1-102.3,97.8c16.2,13.7,109.4,27.9,149.9,2.5
			c40.5-25.3,70.9-27.4,70.9-27.4s30.9,16.2,82.1-23.3c3.2-25.5,1.9-50,0-67.6c-6.4,1.7-12.9,3-19.3,4.1
			C2732.1,3192.9,2678.7,3201.7,2660.8,3167.7z"/>
		<path class="st4" d="M2534.8,3167.7c-38.7,33.5-90.3,30.9-136.7,18c0,0-0.1-0.1-0.1-0.1c-6.8,4.8-14.9,9.7-24.8,14.4
			c-49.4,23.6-133.7,108.7-113.2,132.2c84.3,14.4,174.8-56.2,208.2-51.7c20.5,4.6,82.1-35.7,82.1-35.7s-2.3-34.2-12.9-69.9
			C2536.5,3172.4,2535.6,3170,2534.8,3167.7z"/>
		<path class="st1" d="M2862.7,1852.6l4.9-100.3c0,0-74-3.1-82.5-48.7c-8.4-45.6,11-174.8,39.1-193.9c28.1-19.1,125.6-29.2,163.3,34
			c37.6,63.2,5.4,171,1.6,193.8c-3.8,22.8,3.1,103.1,3.1,103.1S2933,1935.9,2862.7,1852.6z"/>
		<path class="st4" d="M2921.3,1737.4c0,0-3.7,12.4-53.7,14.9c-2.2,45.3-1.7,50-1.7,50S2918.7,1783.4,2921.3,1737.4z"/>
		<path class="st4" d="M2906.9,1588.8c0,0,13.6-32,43,0.8c29.5,32.8-5.6,53.4-7.3,55.7c-1.7,2.3-2.6,34.1,14.3,49.2
			c16.9,15.1,39,23.4,50.8,12.6c11.8-10.8,57.5-89,29.2-147.6c-28.3-58.5-59.9-84.4-101.8-88c-41.9-3.6-70.5,8-83-1.1
			c-12.5-9.1-61.7-37.2-75.8,6.1c-14.1,43.3,13.5,81.5,67.8,71.1c22.6-3,25.3,1.7,27.4,17.3c2.1,15.6,10.5,62.5,26.8,51.1
			S2906.9,1588.8,2906.9,1588.8z"/>
		<path class="st1" d="M2921.3,1893.1l52,31.2l69.1-84.3l-51.5-15.4C2991,1824.5,2930.8,1869.5,2921.3,1893.1z"/>
		<path class="st1" d="M2863.3,1812.9c0,0,55.7,63,58.1,80.2c-30.5,8.6-60.4,26.8-60.4,26.8s-41.5-90.5-55.7-98.4
			C2834.1,1808.6,2863.3,1812.9,2863.3,1812.9z"/>
		<path class="st5" d="M2715.6,2555.7c131.7-28.4,253-64.5,358.9-149.7c77.4-64,99.9-153,112.5-246.5
			c-0.8-81.5-15.8-156.3-32.2-195.9c-17.6-42.8-52.7-79.8-99.2-106.3l-15.2,221.2c30.4,115.5-3,199.1-65.3,270.5
			c-62.3,71.4-294.1,123.1-322.2,131.5s-53.9,24.3-47.9,64.6c1.3,8.6,4.2,15.3,7.9,20.4C2645.8,2570.6,2682,2563.2,2715.6,2555.7z"
			/>
		<path class="st5" d="M3074.4,2406c-105.9,85.2-227.2,121.3-358.9,149.7c-33.5,7.5-69.8,14.9-102.8,9.7
			c13.6,19,38.5,17.6,38.5,17.6s230.2-11.4,403.5-109.4c103.3-58.5,133.4-193.7,132.2-314.2C3174.3,2253,3151.9,2341.9,3074.4,2406z
			"/>
		<path class="st1" d="M2654.7,2535.9c-0.7-2.7-1.5-5.2-2.3-7.5c-10.3-29.4-25.8-28.9-29.6-27.5c-4.1,1.5-100.5-18.5-129.1,18.6
			c-10.5,13.7-16.4,23.6-18.8,31.4c-4.3,14.3,3.5,21,16.9,29.4c14.2,8.8,93.9,34.5,104.4,19.8c14.4-20,44.8-30.7,44.8-30.7
			S2664.9,2572.9,2654.7,2535.9z"/>
		<path class="st1" d="M2855.8,2377.9c-2.4-220,27.2-350.1,82.1-419.4c63.9-80.7,104.6-133.9,104.6-133.9l49,37l3.4,2.6l-63.8,91.3
			c-24.9-12.2-49.3-13.2-72.9,0.5c22.7-0.5,38.5,10.8,47.4,33.9C3005.6,1989.8,2863.9,2186.4,2855.8,2377.9z"/>
		<path class="st1" d="M2805.8,1810.3c0,0,66.5,69.1,65.7,170.2c-0.8,101.1-15.7,308.5-15.7,308.5s-19.2-246.6-57.2-297.3
			c19.3-34.1,33.1-32.1,41-30.9c-14-14.7-31.3-15-50.1-8.4c0,0-21.7-113.6-35.3-120.4C2765.2,1819,2805.8,1810.3,2805.8,1810.3z"/>
		<path class="st1" d="M2657.2,2474.5c0,0,78.5,30.4,71.6,92.7c-62.1,7.6-75,8.1-75,8.1s11.5-68.5-43.3-78.2
			C2639.1,2479.1,2657.2,2474.5,2657.2,2474.5z"/>
	</g>
	<path class="st1" d="M2315.3,2249.2c0,0,49.5,19.9,48,68.2s-17.6,57.4-17.6,57.4l-49.6,3c0,0,13.7-96.8-30.4-107.4
		C2289.5,2249.2,2315.3,2249.2,2315.3,2249.2z"/>
	<g>
		<path class="st1" d="M1110,1103.3l-28.3,0.1l-0.5-236.8c9.4,6.1,18.9,12.3,28.4,18.6L1110,1103.3z"/>
		<path class="st4" d="M1122.5,1105.8h-57.7l-110,111.1c0,0,274.3-4.4,278.1-0.6C1235.6,1218.9,1164.1,1147.4,1122.5,1105.8z"/>
	</g>
	<g>
		<path class="st1" d="M2086.6,1101.2l-28.4,0.1l-1.7-792.7c9.5-1.9,19-3.5,28.3-4.9L2086.6,1101.2z"/>
		<path class="st4" d="M2093.2,1095.5h-41.6l-118,119.2c0,0,274.3-4.4,278.1-0.6C2214.6,1217,2132.8,1135.1,2093.2,1095.5z"/>
	</g>
	<g>
		<polygon class="st1" points="2936.4,1181.3 2908.1,1181.4 2907.6,978.2 2936.4,976 		"/>
		<path class="st4" d="M2942.5,1115.3h-41.3L2783,1234.6c0,0,274.3-4.4,278.1-0.6C3063.9,1236.9,2982,1154.8,2942.5,1115.3z"/>
	</g>
	<g>
		<path class="st2" d="M805.1,2744.2c5.2,5.2,12.9,2.6,15.5,5.2c51.6,56.8,131.7,59.4,198.8,67.1c165.2,20.7,325.3,25.8,493.1-12.9
			c5.2,0,12.9-5.2,18.1-5.2c60.3-4.3,119.1-18.2,175.3-38.6c40.5-101.4,24.3-358.1-43.7-383.5c-73.2-27.4-251-43.8-251-43.8
			s16.9-255.9-141.3-260.1c0,0-322.2-35-434.6,77.5c-112.5,112.5-51.7,480.2-44.1,563.8c0.5,5.7,1.5,11.6,2.9,17.6
			C797.9,2735.2,801.7,2739.4,805.1,2744.2z"/>
		<path class="st2" d="M1530.5,2798.4c-5.2,0-12.9,5.2-18.1,5.2c-167.8,38.7-327.9,33.6-493.1,12.9c-67.1-7.7-147.2-10.3-198.8-67.1
			c-2.6-2.6-10.3,0-15.5-5.2c-3.4-4.7-7.1-9-11.1-12.9c19.2,82.1,123,187.2,367.9,161.7c262.9-27.4,480.2-31.9,533.4-112.5
			c3.9-5.8,7.4-12.8,10.5-20.8C1649.6,2780.2,1590.9,2794.1,1530.5,2798.4z"/>
		<path class="st4" d="M919.4,2441.9c0,0-6.8-193.8,69.3-252.7c76.1-58.9,260.1-88.3,316.6-9.8c56.4,78.5,214.7,363.2,214.7,397.5
			c0,34.4,182.8,42.9,182.8,42.9s2.1,60.1-50.5,73.6s-527.4,79.5-531.1,59.4c-3.7-20.1,17.2-188.2,17.2-188.2
			S1051.3,2428.3,919.4,2441.9z"/>
		<path class="st4" d="M1132.5,2975.6c-21.2-79.1-4.1-194.9-258.4-184.6c-126.6,3.2-145.9,40.4-163.1,105.9
			c-17.2,65.5-93.2,330.9-60.8,330.9h460C1110.3,3227.9,1153.7,3054.6,1132.5,2975.6z M1071.6,3188.7H706.3
			c-25.8,0,34.6-217.9,48.3-271.7c13.7-53.8,29-84.3,129.6-86.9c202-8.5,188.4,86.6,205.2,151.5
			C1106.2,3046.5,1071.6,3188.7,1071.6,3188.7z"/>
	</g>
	<g>
		<path class="st1" d="M1806.8,3093.1l-7.1,59.3c0,0,42,13.7,107.9-3c-1-23.8-10.5-61.3-10.5-61.3L1806.8,3093.1z"/>
		<path class="st4" d="M1792.2,3144.9c0,0-4.6,41.4,1.5,81.7c3.8,18.6,4.6,24.5,4.6,24.5s55.1,17.3,90,0c5.3-10.8,8.8-21.1,8.8-21.1
			s45.2,31.2,97.2,21.1c52-10.1,82.1-20.3,84.3-37.1c2.3-16.7-42.9-31.5-66.1-36.5c-23.2-4.9-33.5-5.3-67.3-26.2
			c-28.1-17.5-33.4-14.4-52-9.5C1874.6,3146.8,1793.4,3129,1792.2,3144.9z"/>
		<path class="st1" d="M1845.5,2661.6c-7.7-56.8-54.2-108.4-121.3-95.5c-35.2,6.7-67.2,15.6-98,26.7c70.5-11.7,134-15.2,154.2,17.6
			c44.1,71.4,8.6,430.6,10.1,469.6c0.4,11.4,4.5,19.2,10.9,24.4c1.3-30.4,0.9-60.4,10.5-89
			C1845.5,2899.1,1866.2,2782.9,1845.5,2661.6z"/>
		<path class="st1" d="M1943,2455.4c-59.3-86.6-465.8-59.3-465.8-59.3l-139,4.6c0,0-13.7,205.2,68.4,221.9
			c44.3,9,136.9-16,219.6-29.8c30.8-11.1,62.8-20,98-26.7c67.1-12.9,113.6,38.7,121.3,95.5c20.7,121.3,0,237.5-33.6,353.7
			c-9.5,28.6-9.2,58.6-10.5,89c15.5,12.5,45.2,9.9,73.2,7c39.5-4.1,31.9-11.7,36.5-55.7C1915.7,3011.6,2002.3,2542,1943,2455.4z"/>
		<path class="st1" d="M1533.5,3133.9c0,0-25,26.6-18.6,74.8c68.4,18.6,109.8-16.7,109.8-16.7s-3.4-33.4,1.9-39.5
			C1570.3,3144.9,1533.5,3133.9,1533.5,3133.9z"/>
		<path class="st4" d="M1500.4,3186.3c-2.1,20.3-11,75.6,2.7,110.9c30,9.1,68,21.3,86.2,7.6c2.3-14.4,5.3-14.8,5.3-14.8
			s48.6,28.9,90.4,30c41.8,1.1,124.6-11.4,123.9-39.1c-1.1-19.8-11-5.3-41.8-20.5c-30.8-15.2-115.5-58.9-126.1-72.9
			c-11.8-7.2-40.7,1.5-53.9,6.8C1573.7,3199.6,1501.9,3171.9,1500.4,3186.3z"/>
		<path class="st5" d="M1695.8,2671.9c7.7-25.8,18.1-51.6,12.9-77.5c-10.3,7.7-18.1,10.3-25.8,12.9
			c-154.9,54.2-335.6,74.9-482.8-5.2c-58.4-31.3-59.5-118-30.6-182.9c-41.9-1.5-73.4-2.9-73.4-2.9s-44.6,82.1,20.3,188.4
			c64.8,106.4,250.2,81,379.9,55.7c129.7-25.3,178.3-30.4,178.3-30.4s-76,231.6-121.4,382c49.3-65.2,69.4-146,103.9-221.5
			C1672.5,2751.9,1682.9,2710.6,1695.8,2671.9z"/>
		<path class="st1" d="M1859.4,2470.6c-69.9-51.7-346.5-31.2-354.8-31.2c-8.4,0-90.4-18.2-139.8-16c-30.7,1.4-126.8-1.7-195.3-4.2
			c-28.9,64.9-27.8,151.7,30.6,182.9c147.2,80,327.9,59.4,482.8,5.2c7.7-2.6,15.5-5.2,25.8-12.9c5.2,25.8-5.2,51.6-12.9,77.5
			c-12.9,38.7-23.2,80-38.7,118.8c-34.5,75.4-54.6,156.3-103.9,221.5c-21.1,69.9-35.5,122.2-32.6,125.6
			c9.1,10.6,91.2,47.1,120.1,15.2c28.9-31.9,193-343.4,218.8-431.6S1929.4,2522.2,1859.4,2470.6z"/>
		<path class="st5" d="M1603.6,1902.7c-35.5-51.7-45.6-85.1-72.4-81c0,0-40.4,13.5-94.6,45.6c-60.9,36.2-139.3,96-197.2,186.9
			c-109.4,171.7-133.7,226.4-133.7,226.4s-55,97-16.7,151c11.9,16.7,60,22.1,86.6,28.4c112.5,26.3,236.2-43.3,268.2-35.7
			c22.9,5.4,53.2-9.5,75.6-36c8.1-9.5,15.1-20.5,20.4-32.6c32.9-75.2,66.9-239.1,94.2-311
			C1661.4,1972.6,1639.1,1954.4,1603.6,1902.7z"/>
		<path class="st4" d="M1943.6,2331.1c-7.7,0-18.1-5.2-28.4-10.3c-67.1-23.2-144.6-31-204-74.9c-10.3-7.7-20.7-7.7-31-18.1
			c-5.2-5.2-12.9,0-18.1-2.6c-41.9-47.7-100.8-70-159.9-89.8c46.6,57.2,135.3,150.3,244.2,187.7c162.1,55.7,375.9,91.2,393.1,33.4
			c1.6-5.5,3-10.6,4.2-15.3C2078.9,2350,2000.4,2333.9,1943.6,2331.1z"/>
		<path class="st5" d="M1466.9,2088.1c0,0,12.7,19.3,35.5,47.3c59.1,19.9,117.9,42.2,159.9,89.8c5.2,2.6,12.9-2.6,18.1,2.6
			c10.3,10.3,20.7,10.3,31,18.1c59.4,43.9,136.8,51.6,204,74.9c10.3,5.2,20.7,10.3,28.4,10.3c56.7,2.8,135.3,18.9,200.1,10.1
			c11.2-45.8,0.9-61.4-37.6-68.8c-42.6-8.1-265.4-72.9-333.3-145.9c-67.9-72.9-123.2-157.9-146.2-190.9"/>
		<path class="st1" d="M1535.8,1830.3c0,0,45.1-38,52.7-50.7c7.6-12.7-74.7-145.6,5.1-184.4c79.8-38.8,159.6-34.2,179.3,19.8
			c19.8,53.9,31.2,193.8-28.9,225.7c-27.4,16-66.9,0-66.9,0l-63.8,89.3C1613.3,1930,1532.7,1880.7,1535.8,1830.3z"/>
		<path class="st4" d="M1628.2,1809.4c0,0,29.6,29.3,48.9,31.2c-23.1,32.3-23.1,32.3-23.1,32.3S1622.4,1832.1,1628.2,1809.4z"/>
		<path class="st4" d="M1630.5,1729.5c0,0-24.6,64.3-45.2,54.5c-20.6-9.8-50.3-44.4-51.8-89.6c-1.5-45.2,3.8-127.5,55.5-154.9
			c51.7-27.4,89.7-33.4,145.9-2.5c24.8,12.7,70.4,19.8,89.7,8.1c0,0,9.1,69.9-33.9,75c-43.1,5.1-88.1,2.5-88.1,2.5s1,33.4,0.5,58.8
			c-0.5,25.3-12.2,30.4-12.2,30.4l-15.2,8.6c0,0-2.7-62-22.8-57.7C1614.8,1670.7,1617.4,1717.2,1630.5,1729.5z"/>
		<path class="st1" d="M2310.7,2324c-1.6-19.1-14.4-45.7-25.7-39.5c0,0-72.4,12.1-88.3,35.4c-9.4,13.8-17.8,35.3-20.3,52.2
			c-1.7,11.7-0.6,21.2,4.9,24.5c13.5,8,61.3,8.7,70.6-1.8c9.2-10.5,36.2-47.7,52.8-53C2309.8,2340.1,2311.4,2332.8,2310.7,2324z"/>
		<path class="st1" d="M2169.7,2311.4c0,0,27.5-30.4,53.3-26.6c25.8,3.8,41.8,33.5,48.2,53.8c6.5,20.3,3.8,57.9-2.7,60.2
			c-6.5,2.3-19.8-9.5-32.7-8.7c-12.9,0.8-18.2,10.6-35.7-1.9c-17.5-12.5-17.1-29.3-25.8-29.6
			C2165.7,2358.1,2169.7,2311.4,2169.7,2311.4z"/>
		<path class="st1" d="M2124.2,2285.5c0,0,19-5.7,21.7-3.8c2.7,1.9,34.6,11,34.6,11s16.3,41-1.5,69.9c-41,12.3-56.5,4-54.7,0.4
			L2124.2,2285.5z"/>
		<path class="st1" d="M1546.9,1793.8c0,0-48.1,29.9-47.6,45.1c0.5,15.2,106.6,102.4,126.5,122s15.3,35.5,20.4,33
			c5.1-2.5,16.2-39,7.1-56.2c-9.1-17.2-64.3-65.3-71.4-88.6C1574.8,1825.7,1553.5,1789.5,1546.9,1793.8z"/>
	</g>
	<path class="st1" d="M1129.5,2752.9c0,0,61.8-133.9,25.3-236.2c-36.5-102.3-238.1-86.1-238.1-86.1l-26.4,5.3
		c0,0,179.3,31.9,185.4,88.3c6.1,56.4-28.2,225.5-8.6,228.7C1086.8,2756,1114.5,2765.6,1129.5,2752.9z"/>
	<path class="st1" d="M3115.9,2752.9c0,0-61.8-133.9-25.3-236.2c36.5-102.3,238.1-86.1,238.1-86.1l26.4,5.3c0,0-159,48-165.1,104.4
		s7.9,209.5-11.7,212.7C3158.5,2756,3130.8,2765.6,3115.9,2752.9z"/>
	
		<ellipse transform="matrix(0.7071 -0.7071 0.7071 0.7071 -94.5272 3073.0305)" class="st1" cx="3662.2" cy="1650.6" rx="113.3" ry="113.3"/>
	
		<ellipse transform="matrix(0.7071 -0.7071 0.7071 0.7071 -1906.0365 1104.3014)" class="st1" cx="380" cy="2852.9" rx="200" ry="200"/>
	<circle class="st4" cx="2280.8" cy="3582.8" r="58.9"/>
	<circle class="st4" cx="3695.6" cy="2731.3" r="124.4"/>
</g>
</svg>
