<?xml version="1.0" encoding="utf-8"?>
<!-- Generator: Adobe Illustrator 22.0.0, SVG Export Plug-In . SVG Version: 6.00 Build 0)  -->
<svg version="1.1" id="Layer_1" xmlns="http://www.w3.org/2000/svg" xmlns:xlink="http://www.w3.org/1999/xlink" x="0px" y="0px"
	 viewBox="0 0 4000 4000" style="enable-background:new 0 0 4000 4000;" xml:space="preserve">
<style type="text/css">
	.st0{fill:none;stroke:#1A1A1A;stroke-width:3;stroke-linecap:round;stroke-linejoin:round;stroke-miterlimit:10;}
	.st1{fill:#FFFFFF;stroke:#1A1A1A;stroke-width:2;stroke-linecap:round;stroke-linejoin:round;stroke-miterlimit:10;}
	.st2{fill:#5067EF;stroke:#1A1A1A;stroke-width:2;stroke-linecap:round;stroke-linejoin:round;stroke-miterlimit:10;}
	.st3{fill:none;stroke:#FFFFFF;stroke-width:2;stroke-linecap:round;stroke-linejoin:round;stroke-miterlimit:10;}
	
		.st4{clip-path:url(#XMLID_5_);fill:none;stroke:#FFFFFF;stroke-width:2;stroke-linecap:round;stroke-linejoin:round;stroke-miterlimit:10;}
	.st5{fill:#1A1A1A;stroke:#1A1A1A;stroke-width:2;stroke-linecap:round;stroke-linejoin:round;stroke-miterlimit:10;}
	.st6{clip-path:url(#XMLID_6_);fill:#D9DBDA;}
	.st7{fill:none;stroke:#383534;stroke-miterlimit:10;}
	.st8{fill:#F7F7F7;}
	.st9{fill:#8E9DF4;stroke:#1A1A1A;stroke-width:2;stroke-linecap:round;stroke-linejoin:round;stroke-miterlimit:10;}
	.st10{fill:#FFFFFF;}
</style>
<g>
	<path class="st0" d="M414.6,2028.7c-12.5,185.8,91.6,358.1,202.3,507.8c110.7,149.7,235.6,298.6,275.9,480.4
		c27.5,124.1,16.2,263.7,91.2,366.4c76,104,219.3,135.5,347.7,125.7c128.4-9.9,252.4-52.8,380.6-65.2
		c360.2-34.7,716.1,173.1,1073.3,114.9c327.7-53.4,597.9-354.2,615.9-685.8c152.6-165.9,263.8-379.3,282.3-604
		c18.5-224.7-39.9-455-163.3-643.7c87.9-123,71.8-281.8,2.7-409.3c-76.7-141.4-214.5-225.7-341-317.7
		c-267.9-194.6-549.5-332.8-882.2-363.2c-296.8-27.1-611.2,22.3-865.9,183.9c-37.5,23.8-73.6,49.9-107.7,78.4
		c-79,65.8-101.1,177.1-167,256.1c-63.1,75.6-163.5,107.7-259.8,128.3c-96.3,20.5-197,34.1-281.1,85.4
		c-116.6,71-182.9,205.4-203.6,340.3C394,1742.3,423.7,1892.6,414.6,2028.7z"/>
	<path class="st1" d="M1364.2,2584.4l-890.3-299.2c43.6,201.5,168.9,428.2,263.7,575.5c5.8,9,11.4,17.7,17,26
		c281.2,425.7,571.6,84.7,917.5,327.2c89.5,68.9,181.7,125.6,274.9,171.6c124.9,61.7,251.4,104.1,375.3,130.9
		c75.6,16.3,150.1,26.8,222.7,32.3c185.8,13.9,358.8-5.1,502.7-43.7c75.1-20.1,136.5-58,186.8-105.4c46.4-43.7,83.2-95.5,112.4-149
		L1364.2,2584.4z"/>
	<path class="st1" d="M3132.5,1145.3c-235.2-99.4-418.2-148.8-425.5-355c-7.3-206.1-280.8-403.4-571.1-376.7
		c-290.3,26.7-746.7,169-809,528c-49.4,284.7-387,412.7-524.5,453.5c-35.9,10.6-58.2,15.4-58.2,15.4
		C380.4,1530,458,1802.5,458,2151.1c0,42.5,5.7,87.7,15.8,134.1l2872.9,965.4c91.5-167.4,108.2-350.5,108.2-350.5
		s62.8-277.5,159.1-631.6c15.6-57.5,32.1-117,49.4-177.7C3787.1,1656.3,3367.7,1244.7,3132.5,1145.3z"/>
	<path class="st2" d="M2051,1758c-2.2,23.6-3.9,47.4-5.3,70.8c-0.9,15.9-1.7,31.5-2.2,46.9c-0.8,21.9-1.3,43.2-1.4,63.3
		c-0.2,32.4,0.5,62,1.9,87c1.5,26,3.8,47,6.9,60.8c262.9,81.9,476.7,85.3,476.7,85.3s77.6-99.7,73.1-290.8
		c-3.4-144.1,20.9-269.7-15.4-346.3c-11.9-25-30.2-44.8-58-58.3c-18.1-8.8-38.1-15.4-59-20.3c-109.8-25.7-243.3-4-243.3-4
		s-60.7,5.5-117.6,38.3c-0.1,0-0.1,0-0.2,0.1"/>
	<path class="st0" d="M2286.6,1557.5c0,0-82,350.4-6.2,593.5"/>
	<path id="XMLID_1_" class="st3" d="M3303.2,3320.2c-15.9,22.2-49.5,59.4-68.8,79.3L604,2626.2c-24-47.4-47-96.7-67.4-146.4
		L3303.2,3320.2z"/>
	<g>
		<defs>
			<path id="XMLID_2_" d="M3303.2,3320.2c-15.9,22.2-49.5,59.4-68.8,79.3L604,2626.2c-24-47.4-47-96.7-67.4-146.4L3303.2,3320.2z"/>
		</defs>
		<use xlink:href="#XMLID_2_"  style="overflow:visible;fill:#1A1A1A;"/>
		<clipPath id="XMLID_5_">
			<use xlink:href="#XMLID_2_"  style="overflow:visible;"/>
		</clipPath>
		<path class="st4" d="M801.1,2694.5c93.6-5.6,187.1-11.1,280.7-16.7c11.7-0.7,25.2-0.6,32.6,8.4c5.6,6.8,5.5,17.6-0.3,24.2
			c-5.8,6.6-16.5,8.2-24,3.5"/>
		<path class="st4" d="M1057,2703.3c-5.1,9,0.1,21,8.7,26.8c8.6,5.8,19.3,7,29.6,8c24.4,2.4,49.8,4.7,72.7-3.9
			c13-4.9,24.6-13.1,37.9-16.8c23.1-6.5,47.5,1.2,70.6,7.6c62.3,17.2,127.2,24.9,191.7,22.7"/>
		<path class="st4" d="M1093.8,2791.4c109.7-19.5,222.2-38.9,331.8-19.1c71.8,13,143.6,42.7,215.3,29.2"/>
		<path class="st4" d="M1252.1,2826.1c118-20.7,239.8-19.5,357.3,3.6c41.3,8.1,85.8,18.6,124.1,1.2"/>
		<path class="st4" d="M1415.3,2877.9c71.1-17,145.6-19.3,217.6-6.6c40.7,7.1,80.7,19,121.9,22.1c41.2,3.1,85.2-3.5,117.5-29.4"/>
		<path class="st4" d="M1602.9,2944c57.5-3.7,115-7.5,172.5-11.2c36.6-2.4,73.4-4.8,109.8-0.5c36.4,4.2,72.8,15.5,101.7,38
			c2.5,1.9,5.2,4.5,5.1,7.6c-0.2,4.9-6.4,6.7-11.2,7.2c-34.6,2.9-69.8-1.8-102.4-13.9c-3.4-1.3-6.9-2.7-9.4-5.3
			c-2.5-2.6-3.8-6.7-2.1-9.9c2.5-4.7,9.2-4.6,14.5-3.9c10.7,1.5,21.4,3,32.1,4.5"/>
		<path class="st4" d="M1858.2,3004.9c43.4,2.8,86.8,5.7,130.2,8.5c14.1,0.9,30.4,1,39.6-9.8c7.4-8.6,7.3-21.9,2.1-32
			c-5.2-10.1-14.5-17.5-24.2-23.3c-9.8-5.8-20.2-10.3-29.7-16.6c-17.3-11.6-30.6-29.2-36.9-49c3.5-1.5,6.9-3.1,10.4-4.6"/>
		<path class="st4" d="M1960.9,3059.8c84.3-7.8,169.7-4.4,253.1,10c9.8,1.7,20.2,3.5,29.6,0.3s17.2-13.6,13.9-23.1
			c-2.3-6.5-8.8-10.4-15-13.3c-24.9-11.8-52.2-17.3-78.4-25.8c-26.2-8.5-52.4-20.8-69.3-42.5c-2.9-3.7-5.6-8.1-5.5-12.8
			c0.1-4.7,4.4-9.6,9-8.7"/>
		<path class="st4" d="M2204.6,3112.5c11.6-4.2,24.3-3.9,36.6-3.7c12.3,0.3,25,0.5,36.6-3.8c11.6-4.3,22-14.1,23.2-26.3
			c1.2-12.5-6.8-23.8-14.5-33.7c-15.4-19.9-30.7-39.7-46.1-59.6"/>
		<path class="st4" d="M2332.2,3020.6c16.9,32.2,38,62.3,62.5,89.2c44.2,48.6,99.8,86.9,160.9,111"/>
		<path class="st4" d="M2433,3032.8c33,42.4,81,72.8,133.5,84.5"/>
		<path class="st4" d="M522.2,2534.9c64.8,17.1,131.4,30.8,198.4,27.9c58.8-2.5,116.2-17.8,173-32.9"/>
		<path class="st4" d="M568,2621.2c116.2,25.9,236.3-20.3,355.3-15.9c84.4,3.1,169.3,31.6,251.7,13.1"/>
		<path class="st4" d="M938.2,2654.3c68.6,3.4,137.9-7.8,201.9-32.6"/>
		
			<use xlink:href="#XMLID_2_"  style="overflow:visible;fill:none;stroke:#1A1A1A;stroke-width:2;stroke-linecap:round;stroke-linejoin:round;stroke-miterlimit:10;"/>
	</g>
	<g>
		<path class="st5" d="M3230.3,2285.3c5.2-22.3,21.1-41.9,41.8-51.6c24.2-11.4,52.6-9.2,78.7-3.6s51.8,14.6,78.4,16.2
			c26.7,1.6,55.8-5.6,72.4-26.6c16.2-20.3,17.3-48.7,29.1-71.9c11.5-22.6,33.6-39.6,58.5-44.7s51.9,1.6,71.4,17.8
			c16,13.3,29,33.4,49.7,35.8c19.9,2.4,37.2-13,56.3-19c33.7-10.6,73.8,13.8,80,48.6c6.1,34.8-23.2,71.5-58.5,73.1
			c-12.6,0.6-25.1-2.7-37.7-3.4c-12.6-0.7-26.5,1.6-34.9,11.1c-9,10.2-9.1,25.2-13.2,38.1c-7.9,24.4-31.4,41.6-56.6,46.7
			c-25.1,5.1-51.4-0.4-75.1-10.2c-22.9-9.5-47.6-23.2-70.9-14.7c-13.2,4.8-22.8,15.9-33.1,25.4c-30.4,28.1-71.3,44.6-112.7,45.7
			C3287.9,2399.8,3212.2,2363.2,3230.3,2285.3z"/>
		<path class="st3" d="M3267.4,2351c0,0,361-147.7,515.1-138"/>
		<line class="st3" x1="3390.4" y1="2346" x2="3343.1" y2="2321.8"/>
		<line class="st3" x1="3602.2" y1="2196.9" x2="3583.6" y2="2243.7"/>
		<line class="st3" x1="3651.1" y1="2304" x2="3528.9" y2="2259.1"/>
		<line class="st3" x1="3779.6" y1="2188.4" x2="3737.2" y2="2214"/>
	</g>
	<g>
		<path class="st1" d="M2999.3,1974.3c8.9-50.2,43.5-99.5,93.5-109.3c37.2-7.3,74.6,7.9,110.8,19.2c36.2,11.3,78.3,18.3,109.8-2.9
			c28.4-19,39.4-55.4,43.3-89.4c3.9-34,2.9-69.3,15.6-101c12.8-31.7,45.2-59.3,78.6-52c48.2,10.5,65.2,82.4,114.1,88.3
			c32.4,3.9,58.7-23.6,86.1-41.5c62.1-40.5,152.5-29.8,203.5,24.1c25.7,27.2,41.6,64.9,37.4,102.1s-30.9,72.2-67.2,81.3
			c-23.3,5.8-47.8,1-71.8,0.6c-24-0.4-50.9,5.3-64.3,25.3c-16.5,24.5-5.2,57.1-3,86.5c3.5,45-17.5,91.1-53.6,118
			c-36.1,27-86.3,34-128.4,17.9c-30.6-11.7-56-34.1-85.9-47.4c-29.9-13.4-69.8-15-90.8,10.2c-23.7,28.4-9.9,71.1-15.9,107.6
			c-7.9,47.5-53.3,83.6-101.2,88.7s-96-16.6-130.8-49.8C3010,2184.7,2982.8,2067.5,2999.3,1974.3z"/>
		<path class="st0" d="M3019,2233.8c0,0,371-388.3,695.9-418.5"/>
		<line class="st1" x1="3255.1" y1="2151.1" x2="3143.9" y2="2117.6"/>
		<line class="st1" x1="3212.2" y1="1955.3" x2="3227.6" y2="2049.3"/>
		<line class="st1" x1="3525" y1="2010.9" x2="3350.6" y2="1961.9"/>
		<line class="st1" x1="3464.9" y1="1763.6" x2="3464.9" y2="1895.6"/>
		<line class="st1" x1="3681" y1="1863.8" x2="3601.3" y2="1838.9"/>
		<line class="st1" x1="3737.2" y1="1745.8" x2="3681" y2="1815.3"/>
	</g>
	<g>
		<defs>
			<path id="XMLID_3_" d="M3573.9,2418.8c-105.3,401.5-32.8,100.8-119,481.3c0,0-21.7,238.8-151.7,420.1L536.6,2479.8
				c-46.1-112.9-78.6-228-78.6-328.7c0-231.9-34.3-430,49.7-572L3573.9,2418.8z"/>
		</defs>
		<use xlink:href="#XMLID_3_"  style="overflow:visible;fill:#FFFFFF;"/>
		<clipPath id="XMLID_6_">
			<use xlink:href="#XMLID_3_"  style="overflow:visible;"/>
		</clipPath>
		<path class="st6" d="M2912.9,1777.1c10.1,353.3,20.3,706.5,30.4,1059.8c2.1,73,4,147.3-15.3,217.7
			c-19.4,70.4-63.6,137.7-130.6,166.8c-79.9,34.7-175.7,7.9-245.5-44.4c-69.7-52.3-119.1-126.5-168.8-198.1
			c-49.7-71.6-103-143.9-177.2-189.6c-119-73.3-268.3-65.5-407.9-72.9c-31.3-1.7-63.5-4.4-91.6-18.3c-28.1-13.9-51.7-41.3-52-72.7
			c-0.4-36.9,31.5-67.9,66.8-78.8c35.3-10.9,73.2-6.3,109.9-1.7c183.5,23.4,367,46.9,550.5,70.3c38.9,5,90.9,1.7,100.8-36.3
			c9.6-37-32.3-65.5-68.3-78.4c-35.9-13-79.9-32.1-81.3-70.3c-1.2-36.2,41.1-60.2,77.2-57.2c36.1,3,68,23.4,101.8,36.4
			s76.2,17.3,102.6-7.5c35.8-33.6,14.7-98.9-27.6-123.9c-42.2-25-94.8-21.6-143.7-17.5c-111.7,9.4-223.4,18.8-335.1,28.2
			c-65.6,5.5-147.1,2.8-176.8-56c-16.3-32.2-9.8-72.1,7.7-103.6c17.5-31.5,44.6-56.4,71.2-80.7c-122.1,49-244.3,98-366.4,147.1
			c-112.6,45.2-226.6,90.8-346.8,107.4c-187.7,26-384.8-23-538.6-133.9c-25.1-18.1-51.1-41.5-52.8-72.4
			c-2.4-43.3,42.3-72.4,81.4-91.2c225.2-108.6,460.5-196.1,701.9-261C1944.9,1621.7,2441.1,1755.7,2912.9,1777.1z"/>
		
			<use xlink:href="#XMLID_3_"  style="overflow:visible;fill:none;stroke:#1A1A1A;stroke-width:2;stroke-linecap:round;stroke-linejoin:round;stroke-miterlimit:10;"/>
	</g>
	<polygon class="st1" points="2050.2,2061.3 2026.5,2318.9 2281.7,2333.9 2289.7,2082 	"/>
	<polygon class="st1" points="1659.2,2549.7 1696.8,2769 2252.3,2786.3 2170.4,2584.9 	"/>
	<polygon class="st1" points="598.6,1515.5 1290.5,1381.3 1426.3,1856.6 782.9,2049 	"/>
	<path class="st1" d="M1835.9,2018.1l-542.2,229.4c-10.3,4.4-21.9,4.4-32.3,0.1l-455.9-188.9l632-176.2L1835.9,2018.1z"/>
	<path class="st1" d="M1277.4,2214.6c-0.7,0-1.4-0.1-2.1-0.4l-358.8-148.7l520-145l297.5,101.3l-454.5,192.3
		C1278.8,2214.4,1278.1,2214.6,1277.4,2214.6z"/>
	<g>
		<line class="st7" x1="1023" y1="2085.7" x2="1478.3" y2="1950.2"/>
		<line class="st7" x1="1076.3" y1="2108.9" x2="1521.1" y2="1967.5"/>
		<line class="st7" x1="1129.6" y1="2132.2" x2="1570.1" y2="1990.5"/>
		<line class="st7" x1="1182.9" y1="2155.5" x2="1623" y2="2008.5"/>
		<line class="st7" x1="1248.7" y1="2178.8" x2="1681.7" y2="2026"/>
	</g>
	<line class="st7" x1="1012.5" y1="2066.7" x2="1294.3" y2="2177"/>
	<line class="st7" x1="1075.5" y1="2048.6" x2="1357.3" y2="2158.9"/>
	<line class="st7" x1="1138.6" y1="2030.5" x2="1420.4" y2="2140.8"/>
	<line class="st7" x1="1196.5" y1="2008.5" x2="1478.3" y2="2118.8"/>
	<line class="st7" x1="1260.6" y1="1986.1" x2="1542.4" y2="2096.4"/>
	<line class="st7" x1="1320.7" y1="1967.5" x2="1602.5" y2="2077.8"/>
	<line class="st7" x1="1365.7" y1="1944.7" x2="1647.5" y2="2055"/>
	<path class="st5" d="M1835.9,2018.1c12.1,13,12.2,30.2,0,51.7l-542.2,229.4c-10.3,4.4-21.9,4.4-32.3,0.1l-455.9-188.9
		c-16.2-17.4-12.3-40.7,0-51.7l455.9,188.9c10.3,4.3,22,4.2,32.3-0.1L1835.9,2018.1z"/>
	<path class="st5" d="M598.6,1515.5c0,0-11.4,36.3-4.9,54.7s160,469.9,160.9,476.8c0.8,6.9,28.3,2,28.3,2"/>
	<polygon class="st5" points="637.4,1534.9 1275.1,1410.4 1394.8,1842.1 801.5,2011 	"/>
	<polygon class="st5" points="1270.3,1418.3 646.4,1540.1 660.7,1581.6 1280.9,1456.5 	"/>
	<polygon class="st8" points="1280.9,1456.5 660.7,1581.6 800.6,1987.5 1382.9,1824.8 	"/>
	<polygon class="st5" points="800.6,1987.5 805.8,2002.7 1386.4,1837.4 1382.9,1824.8 	"/>
	<g>
		<polygon class="st9" points="891.3,1939.4 853.4,1950.2 803,1803.7 842,1794 		"/>
		<polygon class="st9" points="986.5,1913.2 950.2,1923.5 922.8,1840.4 959.7,1830.6 		"/>
		<polygon class="st9" points="1164.8,1861.7 1131.3,1871.2 1066.9,1659.8 1101.7,1651.8 		"/>
		<polygon class="st9" points="1248.7,1837.8 1216.6,1846.9 1129.3,1548.7 1163.3,1541.6 		"/>
		<polygon class="st9" points="1329.4,1814.9 1298.6,1823.6 1200.9,1476.7 1233.9,1470.2 		"/>
		<polygon class="st9" points="1077.4,1886.8 1042.6,1896.7 968.5,1663.3 1005,1655 		"/>
	</g>
	<path class="st5" d="M1199.8,1802c-0.7,0.9-1.2,1.7-1.5,2.4c-3.2,8.1-2.7,38.3,4.8,65.7c7.5,27.5,36.6,21.6,76.5,25.3
		c39.9,3.8,115,32.3,115,32.3s6-18.3,10.8-39c-4.5-3-9.5-5.5-15.4-7.1C1321.6,1864.5,1218.5,1885.8,1199.8,1802z"/>
	<path class="st1" d="M1407.7,1833.2c0,0-59-71.1-83.2-75.2c-24.2-4-58.2-2.7-72.2,3.2c-12.9,5.4-44.8,30.4-52.4,40.7
		c18.7,83.9,121.7,62.5,190.4,79.7c5.9,1.6,10.9,4.1,15.4,7.1C1410.7,1866.3,1414.5,1841.1,1407.7,1833.2z"/>
	<path class="st1" d="M1169.3,1690.1l163.3,271.6c0,0,7.5,4.9,7.5-5.9c-54.4-95.9-160-272.2-160-272.2S1166.9,1686.1,1169.3,1690.1z
		"/>
	<path class="st1" d="M1178.8,1685.7c0,0-20.8-37-21.6-37s-9.9,1-5.7,10.9c4.2,9.9,20.8,31.1,20.8,31.1L1178.8,1685.7z"/>
	<path class="st2" d="M2107,1490.9c-19.2,40-33.6,99.9-43.9,166.9c-5.4,34.8-9.6,71.5-12.9,108.3"/>
	<path class="st2" d="M2053.5,1758.7c-1.9,21-6.6,49.3-7.8,70c-0.9,15.9-1.7,31.5-2.2,46.9c-7.5,12.7-17.6,26.6-30.9,41.5
		c-92.6,136.4-303.3,119.7-366.4,113.3c-63-6.5-213.4-80.9-213.4-80.9l2.5-30.5l6.4-77.3c0,0,209.3,44.8,312,32.7
		c102.7-12.1,151.2-100.2,193.2-225.8c27.2-81.2,122.3-140.1,175.4-165.9"/>
	<path class="st1" d="M2376.9,1353.6c-0.7-9.3-1.1-18.5-0.9-27.6c0.8-48.5,28.3-215.4-77.6-218.7c-105.9-3.2-164.9,23.4-169.7,67.1
		c-1.2,10.7-0.9,31.4,1.9,56.4c7.6,67,33.9,164.3,100.7,179.1l-0.1,0c2.9,21.8-18.5,74.9-18.5,74.9s56.8,74,73.9,72.8
		c17.2-1.2,115.6-87.3,115.2-104.7C2390.6,1432.8,2380,1393.6,2376.9,1353.6z"/>
	<path class="st5" d="M2173.1,1163.8c0,0-35.4,24.3-41.4,48.3c-7.6,20.2-23.8-1.9-30.2-21.3c-6.5-19.4,0-39.9,0-39.9L2173.1,1163.8z
		"/>
	<path class="st5" d="M2066.7,1068.5c0,0,4,131.8,95.6,114c29.6,12.4,70,9.7,78.1-3.8c13.5,21.6,61.4,53.4,80.3,44.2
		c11.9-24.8,48-32.9,51.7,1.6c-0.5,35-15.1,56.6-26.4,59.8c4.8,22.1,9.7,45.8,34.5,44.7c19.4-8.6,21.3-23.2,21.3-23.2
		s26.1-1.6,28.8-32.9c2.7-31.3-20.5-64.7-17.8-87.8c2.7-23.2,21.6-66.8-8.6-91.6c-30.2-24.8-44.2-25.3-57.7-14.6
		c-15.1-30.2-48.5-60.4-95.9-43.7c-37.2-3.2-65.7,23.2-109.4,23.2C2095.5,1064.4,2083.4,1067.4,2066.7,1068.5z"/>
	<path class="st2" d="M2527.1,1476.7c0,0,40.4,0,114.8,64.9c78.7,44.1,79.4,193,96.7,325.3c3.8,29,8.4,57.2,14.8,83.3
		c35.6,145.3-54.9,268.6-107.5,281c-52.5,12.4-427.6,0-427.6,0c-8.8-0.7-16.3-8.4-22-19.6c-16.4-32.3-17.5-93.7,11.5-100.3
		c0,0,351.6-12.1,366.1-75.1c5.5-24,0.1-110.9-8.9-209.3"/>
	<path class="st5" d="M2645.9,2231.2c-52.5,12.4-427.6,0-427.6,0c-8.8-0.7-16.3-8.4-22-19.6c116.2,1.5,450.4,1.6,468.2-48.2
		c21.6-60.3,34.5-246.5,14-305.4c26.3-1.2,46.1,3.3,60.1,8.8c3.8,29,8.4,57.2,14.8,83.3C2789,2095.5,2698.4,2218.8,2645.9,2231.2z"
		/>
	<path class="st5" d="M2190.9,2148.2c0,0,2.2-26.7,15.6-30.4c13.5-3.8,42.3,16.4,44.2,52c1.9,35.6-11.2,54.4-25.3,56.9
		C2211.3,2229,2189.8,2208.8,2190.9,2148.2z"/>
	<path class="st5" d="M2111.2,2210.5c-31,7.8-62.1,28.8-94.6,21.9c12.6,14.3,26.3,23.6,38.1,17.9c29.9-14.3,52.8-34,71.9-34.8
		c19.1-0.8,34.2,8.9,60.9-8.9c18.2,0.8,24.7,9.7,35.6,10.1c15-2.4,19.2-3.3,19.2-3.3c2.1-5.6,3.7-11,5-16.2
		c-14.3-0.8-28.4-2.8-40.9-4.9C2174.7,2187.8,2143,2203.7,2111.2,2210.5z"/>
	<path class="st1" d="M2220.8,2120.2c0,0-4.4,3.4-15.6,4.3c-8.2,0.7-19.9,0-36.3-4.3c-38.6-10.2-68.3-39.6-93.5-25.9
		c-15.4,8.4-52.7,27.8-77.3,45.4c-15.6,11.1-26.2,21.5-22.8,27.9c5.2,9.9,22.1,43.1,41.3,64.8c32.5,6.9,63.5-14.1,94.6-21.9
		c31.7-6.8,63.5-22.7,95.2-18.1c12.6,2.1,26.6,4.2,40.9,4.9C2255.1,2165.2,2247.1,2139.2,2220.8,2120.2z"/>
	<path class="st5" d="M1992.9,2302.6c0,0-179.4,65-202.2,71.4c-22.8,6.5-117-80.8-118.6-81.7c-10.2-7.9-11.8-23.5,0-30.7
		c0,0,109.9,78.4,112.4,78.4c2.4,0,190.7-67.9,202.3-72.8c1.2-0.5,2.3-1.2,3.4-2L1992.9,2302.6z"/>
	<path class="st1" d="M1787.9,2367.5c-7.7,0-31.7-9.9-106.4-75.9c-3.8-3.4-5-4.4-5.6-4.9c-3.5-2.8-5.6-7.1-5.3-11.2
		c0.1-1.5,0.5-3.4,1.8-5.2c107.4,76.6,109.2,76.6,112,76.6c4.6,0,174.8-61.6,206.4-73.2l1.7,23.1c-28.8,10.4-183.4,65-203.7,70.8
		C1788.7,2367.5,1788.4,2367.5,1787.9,2367.5z"/>
	<path class="st1" d="M2291.9,1557.5c0,0,32.6-34.8,61.7,0c29.1,34.8,28.8,24.2,28.8,24.2c28.6-51.1,54.6-100.6,57.8-135
		c0,0-13.7-24.7-42.8-12.5c-10.1,61.4-97.8,78.4-105.5,111.6C2287,1557.1,2291.9,1557.5,2291.9,1557.5z"/>
	<path class="st1" d="M2222.4,1449.1c0,0-8.9,43.2,31,60.5c28.6,16.2,30.7,48,30.7,48s-5.7,4.3-12.1-4.9
		c-6.5-9.2-13.9-23.5-50.8-13.3s-36.3,31.8-36.3,31.8s-15-105.4-4.1-115.5C2191.7,1445.6,2222.4,1449.1,2222.4,1449.1z"/>
	<g>
		<path class="st5" d="M2386.3,2411.5c4.6,9.6,9.7,16.9,14.7,18c15.1,3.2,44.1,7.5,63.6,16.2c19.4,8.6,46.3,45.3,50.7,44.2
			c1.9-0.5,10.5-18.1,19.5-37.7c-21.8-15.8-47.4-24.5-72-35.3C2438.8,2408.2,2410.6,2422.5,2386.3,2411.5z"/>
		<path class="st1" d="M2558.4,2399.3c-2.2-3.2-43.1-83-69-93.3c-25.9-10.2-58.2-18.8-74.4-10.2c-16.2,8.6-43.1,57.1-44.2,63.6
			c-0.7,4.2,6,31.6,14.9,50.9c0.2,0.4,0.4,0.8,0.6,1.2c24.3,10.9,52.4-3.4,76.4,5.3c24.6,10.8,50.3,19.5,72,35.3
			c1.3-2.7,2.5-5.5,3.8-8.2C2548.7,2421.5,2558.4,2399.3,2558.4,2399.3z"/>
		<g>
			<polygon class="st1" points="2424.7,2376.2 2303.7,2374.6 2252.3,2374 2282.5,2614.9 2314.2,2614.9 2394.2,2614.9 2402.6,2614.9 
				2430.7,2376.2 			"/>
			<ellipse class="st1" cx="2341.7" cy="2374" rx="89.4" ry="20.5"/>
			<path class="st5" d="M2341.7,2387.7c-47.7,0-77.3-8.4-82.3-13.7c5-5.2,34.6-13.7,82.3-13.7c47.7,0,77.3,8.4,82.3,13.7
				C2419,2379.3,2389.4,2387.7,2341.7,2387.7z"/>
		</g>
		<path class="st1" d="M1998,2535.1c0,0-3.4,30.7-28.4,53.3c-6.4,5.8-14.3,11.1-23.9,15.2c-48-0.5-61.4-55.5-79.7-74.9
			c-17.8-0.5-46.9,2.2-69.5-8.6c-13.7-6.5-1-22,14.1-36c10-9.2,21-17.8,26.3-22.7c13.5-12.4,77.6-20.5,80.8-21
			c3.2-0.5,22.1-6.5,42.6,2.7C1980.7,2452.2,1998,2535.1,1998,2535.1z"/>
		<path class="st5" d="M2531.3,3148.4c0,0-56.1,13.1-148.3,36.9c-0.6,0.9-1.3,1.7-1.9,2.7c-13.6,18.1-29.5,29.5-43.1,45.4
			c-18.1,24.9-31.7,49.9-45.4,79.4c-2.3,4.5-11.3,6.8-15.9,13.6c-20.4,40.8-40.8,81.6-59,124.7c-4.5,11.6-8.4,23.5-11.8,35.7
			c115.2,33.9,229.3,53.7,339,61.9L2531.3,3148.4z"/>
		<path class="st2" d="M2276.8,3326.3c4.5-6.8,13.6-9.1,15.9-13.6c13.6-29.5,27.2-54.4,45.4-79.4c13.6-15.9,29.5-27.2,43.1-45.4
			c0.6-0.9,1.3-1.8,1.9-2.7c-56.4,14.6-126.3,33.2-205.2,55.2c-109.4,30.6-184.4,92.9-231,144.9c86,42.5,172.9,75.8,259.1,101.2
			c3.5-12.1,7.3-24.1,11.8-35.7C2236,3408,2256.4,3367.2,2276.8,3326.3z"/>
		<path class="st1" d="M3047.6,2236.7c0,0,135.8,326.5,129.3,366.9s-129.3,64.7-129.3,64.7V2236.7z"/>
		<path class="st1" d="M2879.5,1947.2l-16.8-64.8l-1.8-7l-54.2-209.4l-260.2-30.7c0,0-0.3,14,0.7,35.6c0.1,1.9,0.2,3.9,0.3,6
			c4.9,82.4,30.3,255.9,159.4,225.1c0,0,0,0.1,0,0.2c1,3.5,16.2,57.3,16.5,112.9c0.1,19.9-1.7,40-6.8,58.2
			c50.1,29.9,185.5-35.4,185.5-35.4L2879.5,1947.2z"/>
		<path class="st1" d="M3098.4,2478.3c-1.8-42.6-2.4-67.7-2.4-67.7s-97.3-408.6-137.7-427.9c-22.4-10.7-84.2,3.8-139.2,22.8
			c-52.3,18-98.4,40-98.4,48.1l-62.6,306.6l-15,61.2l-32,130.5c0,0,46.1,160.1,7.3,281.3c-21.5,67.2-95.9,195.5-167.4,344.8
			c-51.2,106.9-101,224.7-128.8,338.5c75.6,16.3,150.1,26.8,222.7,32.3c64.3,4.8,127.1,5.7,187.7,3.2
			c114.4-4.8,220.9-21.6,314.9-46.9c75.1-20.1,136.5-58,186.8-105.4C3135.6,3169.1,3106.1,2661.6,3098.4,2478.3z"/>
		<path class="st5" d="M2716.4,1943.9c-5.9-28.2-8.4-38.4-9.4-41.9c39.1-20.8,37.9-26.5,54.5-33.4
			C2763,1911.5,2734.7,1919.7,2716.4,1943.9z"/>
		<path class="st5" d="M2731.3,1716c0,0-97.2-3.3-156-35.7c-23.8-13.2-48.5,38.4-51.5-30.6c-3.7-85.1,63-169.3,200.4-158.8
			c137.4,10.5,217.7,132.4,231.7,288.7c14,156.3,115.3,240.4,133.6,284.6c18.3,44.2,97.8,334.9,47.7,364
			c-50.1,29.1-156.8-9.7-170.5-57.4c-13.7-47.7,0.8-252.2-47.7-299.9c-48.5-47.7-110.7-54.1-121.2-111.9s23.4-165.4-9.4-168.1
			c14-18.9,21.3-57.1,2.7-83C2776,1686.9,2749.1,1688.5,2731.3,1716z"/>
		<g>
			<path class="st5" d="M2383.8,2711c-103.1,20.6-373.3-86.2-451.9-118.6c-0.1,9.5,2,16,2,16s279.6,166.5,515.7,135.8
				c158.8-20.7,261.3-238.3,311.3-378.4C2595.1,2688.4,2497,2688.4,2383.8,2711z"/>
			<path class="st1" d="M2720.8,2053.6c0,0-92.9,57.1-142,234.8c-47.1,170.5-121.2,407.4-581.9,239.3c-55.2,14.1-64.7,45.5-65,64.8
				c78.6,32.4,348.8,139.2,451.9,118.6c113.2-22.6,211.3-22.6,377-345.2c3.9-10.9,7.5-21.4,10.8-31.3"/>
		</g>
	</g>
	<path class="st5" d="M2221.2,1463.4c0,0,127.6,9.7,120.7-98.3c-42.5,60-111,44.1-111,44.1C2231,1422.8,2226.1,1443.1,2221.2,1463.4
		z"/>
	<path class="st1" d="M1290.5,1806.2c-3.4-5.4-11.3-8.6-21.1-10.4c-25.8-4.8-64.3,0.3-64.3,0.3c-20.2,5.7-15.5,58.6,0.3,83.5
		c3.5,5.5,7.5,9.7,11.9,11.6c24.4,10.9,43.3-4.3,43.3-4.3c17.5-3.6,37.5-22.2,43.4-29.8C1309.8,1849.6,1302.9,1825.9,1290.5,1806.2z
		"/>
	<path class="st1" d="M1288.3,1755.7"/>
	<path class="st1" d="M1305.6,1756.9c0,0-73.2-4.8-88.2,0c12.1,25,46.1,18.9,75.4,23.1"/>
	<path class="st5" d="M1217.4,1756.9c-3.8,1.2-6.1,3-6.1,5.5c0,12.4,7,22.6,20.5,26.4c13.5,3.8,65.2,1.6,69.5,0l-8.4-8.8
		C1263.5,1775.8,1229.5,1781.8,1217.4,1756.9z"/>
	<path class="st5" d="M1990.1,2265.3L1990.1,2265.3c-1.1,0.8-2.3,1.5-3.4,2c-11.6,4.9-199.9,72.8-202.3,72.8
		c-2.4,0-112.4-78.4-112.4-78.4l173-71.1c0,0,120.2,64.8,141.7,56.7C2006,2239.8,1999.9,2258,1990.1,2265.3z"/>
	<path class="st1" d="M1401.2,1814.6c2.6,41.3-3.4,83.4-17,126.1l56.6,18.6c16.4-49.2,19.2-93,11.3-132.6L1401.2,1814.6z"/>
	<path class="st10" d="M2897.3,1826.1c0,0,53.9,8.3,74.4-16.9c15.1,15.8-20.3,28.7-37.2,26.7
		C2917.6,1833.9,2895.5,1841.3,2897.3,1826.1z"/>
	<ellipse class="st1" cx="3426.1" cy="871.2" rx="122.9" ry="123"/>
	
		<ellipse transform="matrix(1 -1.087708e-03 1.087708e-03 1 -3.6971 1.0404)" class="st1" cx="954.6" cy="3399.5" rx="171.6" ry="171.6"/>
	
		<ellipse transform="matrix(1 -2.358243e-03 2.358243e-03 1 -2.5947 1.8342)" class="st0" cx="776.5" cy="1101.2" rx="70.6" ry="70.6"/>
	<g>
		<path class="st1" d="M2753.6,781.4h-254.3c-74.2,0-134.3,60.2-134.3,134.4v1.4c0,70,53.5,127.5,121.9,133.8
			c-4.2,16-9.5,35.6-14.4,53.4c-4.1,14.9,13.6,26.1,25.3,16.1l80.4-68.9h175.4c74.2,0,134.3-60.2,134.3-134.4v-1.4
			C2887.9,841.5,2827.8,781.4,2753.6,781.4z"/>
		<ellipse class="st1" cx="2504.3" cy="908.7" rx="23.5" ry="23.5"/>
		<ellipse class="st1" cx="2635.2" cy="908.7" rx="23.5" ry="23.5"/>
		<ellipse class="st1" cx="2769" cy="908.7" rx="23.5" ry="23.5"/>
	</g>
	<polygon class="st1" points="1382.9,1365.1 1496.3,1220 1602.5,1211.4 1681.7,1101.2 1658.8,1082.9 1708.9,1065.9 1724.3,1124.2 
		1702.4,1107 1625.6,1236.5 1512.5,1245.4 1422,1390.1 	"/>
</g>
</svg>
